<?xml version="1.0" encoding="utf-8" standalone="no"?>
<!DOCTYPE svg PUBLIC "-//W3C//DTD SVG 1.1//EN"
  "http://www.w3.org/Graphics/SVG/1.1/DTD/svg11.dtd">
<svg xmlns:xlink="http://www.w3.org/1999/xlink" width="460.8pt" height="345.6pt" viewBox="0 0 460.8 345.6" xmlns="http://www.w3.org/2000/svg" version="1.1">
 <metadata>
  <rdf:RDF xmlns:dc="http://purl.org/dc/elements/1.1/" xmlns:cc="http://creativecommons.org/ns#" xmlns:rdf="http://www.w3.org/1999/02/22-rdf-syntax-ns#">
   <cc:Work>
    <dc:type rdf:resource="http://purl.org/dc/dcmitype/StillImage"/>
    <dc:date>2024-01-23T21:05:13.283507</dc:date>
    <dc:format>image/svg+xml</dc:format>
    <dc:creator>
     <cc:Agent>
      <dc:title>Matplotlib v3.8.2, https://matplotlib.org/</dc:title>
     </cc:Agent>
    </dc:creator>
   </cc:Work>
  </rdf:RDF>
 </metadata>
 <defs>
  <style type="text/css">*{stroke-linejoin: round; stroke-linecap: butt}</style>
 </defs>
 <g id="figure_1">
  <g id="patch_1">
   <path d="M 0 345.6 
L 460.8 345.6 
L 460.8 0 
L 0 0 
z
" style="fill: #ffffff"/>
  </g>
  <g id="axes_1">
   <g id="patch_2">
    <path d="M 57.6 307.584 
L 414.72 307.584 
L 414.72 41.472 
L 57.6 41.472 
z
" style="fill: #ffffff"/>
   </g>
   <g id="patch_3">
    <path d="M 73.832727 307.584 
L 79.430219 307.584 
L 79.430219 307.555421 
L 73.832727 307.555421 
z
" clip-path="url(#p3e996d65af)" style="fill: #ff7f0e; fill-opacity: 0.75; stroke: #000000; stroke-width: 0.559749; stroke-linejoin: miter"/>
   </g>
   <g id="patch_4">
    <path d="M 79.430219 307.584 
L 85.027712 307.584 
L 85.027712 307.526842 
L 79.430219 307.526842 
z
" clip-path="url(#p3e996d65af)" style="fill: #ff7f0e; fill-opacity: 0.75; stroke: #000000; stroke-width: 0.559749; stroke-linejoin: miter"/>
   </g>
   <g id="patch_5">
    <path d="M 85.027712 307.584 
L 90.625204 307.584 
L 90.625204 307.355367 
L 85.027712 307.355367 
z
" clip-path="url(#p3e996d65af)" style="fill: #ff7f0e; fill-opacity: 0.75; stroke: #000000; stroke-width: 0.559749; stroke-linejoin: miter"/>
   </g>
   <g id="patch_6">
    <path d="M 90.625204 307.584 
L 96.222696 307.584 
L 96.222696 307.383946 
L 90.625204 307.383946 
z
" clip-path="url(#p3e996d65af)" style="fill: #ff7f0e; fill-opacity: 0.75; stroke: #000000; stroke-width: 0.559749; stroke-linejoin: miter"/>
   </g>
   <g id="patch_7">
    <path d="M 96.222696 307.584 
L 101.820188 307.584 
L 101.820188 307.069575 
L 96.222696 307.069575 
z
" clip-path="url(#p3e996d65af)" style="fill: #ff7f0e; fill-opacity: 0.75; stroke: #000000; stroke-width: 0.559749; stroke-linejoin: miter"/>
   </g>
   <g id="patch_8">
    <path d="M 101.820188 307.584 
L 107.41768 307.584 
L 107.41768 306.840942 
L 101.820188 306.840942 
z
" clip-path="url(#p3e996d65af)" style="fill: #ff7f0e; fill-opacity: 0.75; stroke: #000000; stroke-width: 0.559749; stroke-linejoin: miter"/>
   </g>
   <g id="patch_9">
    <path d="M 107.41768 307.584 
L 113.015172 307.584 
L 113.015172 306.355096 
L 107.41768 306.355096 
z
" clip-path="url(#p3e996d65af)" style="fill: #ff7f0e; fill-opacity: 0.75; stroke: #000000; stroke-width: 0.559749; stroke-linejoin: miter"/>
   </g>
   <g id="patch_10">
    <path d="M 113.015172 307.584 
L 118.612665 307.584 
L 118.612665 305.840671 
L 113.015172 305.840671 
z
" clip-path="url(#p3e996d65af)" style="fill: #ff7f0e; fill-opacity: 0.75; stroke: #000000; stroke-width: 0.559749; stroke-linejoin: miter"/>
   </g>
   <g id="patch_11">
    <path d="M 118.612665 307.584 
L 124.210157 307.584 
L 124.210157 304.668926 
L 118.612665 304.668926 
z
" clip-path="url(#p3e996d65af)" style="fill: #ff7f0e; fill-opacity: 0.75; stroke: #000000; stroke-width: 0.559749; stroke-linejoin: miter"/>
   </g>
   <g id="patch_12">
    <path d="M 124.210157 307.584 
L 129.807649 307.584 
L 129.807649 303.582917 
L 124.210157 303.582917 
z
" clip-path="url(#p3e996d65af)" style="fill: #ff7f0e; fill-opacity: 0.75; stroke: #000000; stroke-width: 0.559749; stroke-linejoin: miter"/>
   </g>
   <g id="patch_13">
    <path d="M 129.807649 307.584 
L 135.405141 307.584 
L 135.405141 302.12538 
L 129.807649 302.12538 
z
" clip-path="url(#p3e996d65af)" style="fill: #ff7f0e; fill-opacity: 0.75; stroke: #000000; stroke-width: 0.559749; stroke-linejoin: miter"/>
   </g>
   <g id="patch_14">
    <path d="M 135.405141 307.584 
L 141.002633 307.584 
L 141.002633 300.696422 
L 135.405141 300.696422 
z
" clip-path="url(#p3e996d65af)" style="fill: #ff7f0e; fill-opacity: 0.75; stroke: #000000; stroke-width: 0.559749; stroke-linejoin: miter"/>
   </g>
   <g id="patch_15">
    <path d="M 141.002633 307.584 
L 146.600125 307.584 
L 146.600125 298.095719 
L 141.002633 298.095719 
z
" clip-path="url(#p3e996d65af)" style="fill: #ff7f0e; fill-opacity: 0.75; stroke: #000000; stroke-width: 0.559749; stroke-linejoin: miter"/>
   </g>
   <g id="patch_16">
    <path d="M 146.600125 307.584 
L 152.197618 307.584 
L 152.197618 296.323811 
L 146.600125 296.323811 
z
" clip-path="url(#p3e996d65af)" style="fill: #ff7f0e; fill-opacity: 0.75; stroke: #000000; stroke-width: 0.559749; stroke-linejoin: miter"/>
   </g>
   <g id="patch_17">
    <path d="M 152.197618 307.584 
L 157.79511 307.584 
L 157.79511 293.523053 
L 152.197618 293.523053 
z
" clip-path="url(#p3e996d65af)" style="fill: #ff7f0e; fill-opacity: 0.75; stroke: #000000; stroke-width: 0.559749; stroke-linejoin: miter"/>
   </g>
   <g id="patch_18">
    <path d="M 157.79511 307.584 
L 163.392602 307.584 
L 163.392602 291.208141 
L 157.79511 291.208141 
z
" clip-path="url(#p3e996d65af)" style="fill: #ff7f0e; fill-opacity: 0.75; stroke: #000000; stroke-width: 0.559749; stroke-linejoin: miter"/>
   </g>
   <g id="patch_19">
    <path d="M 163.392602 307.584 
L 168.990094 307.584 
L 168.990094 287.1499 
L 163.392602 287.1499 
z
" clip-path="url(#p3e996d65af)" style="fill: #ff7f0e; fill-opacity: 0.75; stroke: #000000; stroke-width: 0.559749; stroke-linejoin: miter"/>
   </g>
   <g id="patch_20">
    <path d="M 168.990094 307.584 
L 174.587586 307.584 
L 174.587586 283.920455 
L 168.990094 283.920455 
z
" clip-path="url(#p3e996d65af)" style="fill: #ff7f0e; fill-opacity: 0.75; stroke: #000000; stroke-width: 0.559749; stroke-linejoin: miter"/>
   </g>
   <g id="patch_21">
    <path d="M 174.587586 307.584 
L 180.185078 307.584 
L 180.185078 281.062539 
L 174.587586 281.062539 
z
" clip-path="url(#p3e996d65af)" style="fill: #ff7f0e; fill-opacity: 0.75; stroke: #000000; stroke-width: 0.559749; stroke-linejoin: miter"/>
   </g>
   <g id="patch_22">
    <path d="M 180.185078 307.584 
L 185.782571 307.584 
L 185.782571 277.690198 
L 180.185078 277.690198 
z
" clip-path="url(#p3e996d65af)" style="fill: #ff7f0e; fill-opacity: 0.75; stroke: #000000; stroke-width: 0.559749; stroke-linejoin: miter"/>
   </g>
   <g id="patch_23">
    <path d="M 185.782571 307.584 
L 191.380063 307.584 
L 191.380063 274.146382 
L 185.782571 274.146382 
z
" clip-path="url(#p3e996d65af)" style="fill: #ff7f0e; fill-opacity: 0.75; stroke: #000000; stroke-width: 0.559749; stroke-linejoin: miter"/>
   </g>
   <g id="patch_24">
    <path d="M 191.380063 307.584 
L 196.977555 307.584 
L 196.977555 269.002133 
L 191.380063 269.002133 
z
" clip-path="url(#p3e996d65af)" style="fill: #ff7f0e; fill-opacity: 0.75; stroke: #000000; stroke-width: 0.559749; stroke-linejoin: miter"/>
   </g>
   <g id="patch_25">
    <path d="M 196.977555 307.584 
L 202.575047 307.584 
L 202.575047 266.944433 
L 196.977555 266.944433 
z
" clip-path="url(#p3e996d65af)" style="fill: #ff7f0e; fill-opacity: 0.75; stroke: #000000; stroke-width: 0.559749; stroke-linejoin: miter"/>
   </g>
   <g id="patch_26">
    <path d="M 202.575047 307.584 
L 208.172539 307.584 
L 208.172539 262.657559 
L 202.575047 262.657559 
z
" clip-path="url(#p3e996d65af)" style="fill: #ff7f0e; fill-opacity: 0.75; stroke: #000000; stroke-width: 0.559749; stroke-linejoin: miter"/>
   </g>
   <g id="patch_27">
    <path d="M 208.172539 307.584 
L 213.770031 307.584 
L 213.770031 260.799913 
L 208.172539 260.799913 
z
" clip-path="url(#p3e996d65af)" style="fill: #ff7f0e; fill-opacity: 0.75; stroke: #000000; stroke-width: 0.559749; stroke-linejoin: miter"/>
   </g>
   <g id="patch_28">
    <path d="M 213.770031 307.584 
L 219.367524 307.584 
L 219.367524 256.741673 
L 213.770031 256.741673 
z
" clip-path="url(#p3e996d65af)" style="fill: #ff7f0e; fill-opacity: 0.75; stroke: #000000; stroke-width: 0.559749; stroke-linejoin: miter"/>
   </g>
   <g id="patch_29">
    <path d="M 219.367524 307.584 
L 224.965016 307.584 
L 224.965016 252.769169 
L 219.367524 252.769169 
z
" clip-path="url(#p3e996d65af)" style="fill: #ff7f0e; fill-opacity: 0.75; stroke: #000000; stroke-width: 0.559749; stroke-linejoin: miter"/>
   </g>
   <g id="patch_30">
    <path d="M 224.965016 307.584 
L 230.562508 307.584 
L 230.562508 248.539453 
L 224.965016 248.539453 
z
" clip-path="url(#p3e996d65af)" style="fill: #ff7f0e; fill-opacity: 0.75; stroke: #000000; stroke-width: 0.559749; stroke-linejoin: miter"/>
   </g>
   <g id="patch_31">
    <path d="M 230.562508 307.584 
L 236.16 307.584 
L 236.16 250.539995 
L 230.562508 250.539995 
z
" clip-path="url(#p3e996d65af)" style="fill: #ff7f0e; fill-opacity: 0.75; stroke: #000000; stroke-width: 0.559749; stroke-linejoin: miter"/>
   </g>
   <g id="patch_32">
    <path d="M 236.16 307.584 
L 241.757492 307.584 
L 241.757492 253.140698 
L 236.16 253.140698 
z
" clip-path="url(#p3e996d65af)" style="fill: #ff7f0e; fill-opacity: 0.75; stroke: #000000; stroke-width: 0.559749; stroke-linejoin: miter"/>
   </g>
   <g id="patch_33">
    <path d="M 241.757492 307.584 
L 247.354984 307.584 
L 247.354984 258.227789 
L 241.757492 258.227789 
z
" clip-path="url(#p3e996d65af)" style="fill: #ff7f0e; fill-opacity: 0.75; stroke: #000000; stroke-width: 0.559749; stroke-linejoin: miter"/>
   </g>
   <g id="patch_34">
    <path d="M 247.354984 307.584 
L 252.952476 307.584 
L 252.952476 260.028276 
L 247.354984 260.028276 
z
" clip-path="url(#p3e996d65af)" style="fill: #ff7f0e; fill-opacity: 0.75; stroke: #000000; stroke-width: 0.559749; stroke-linejoin: miter"/>
   </g>
   <g id="patch_35">
    <path d="M 252.952476 307.584 
L 258.549969 307.584 
L 258.549969 268.602024 
L 252.952476 268.602024 
z
" clip-path="url(#p3e996d65af)" style="fill: #ff7f0e; fill-opacity: 0.75; stroke: #000000; stroke-width: 0.559749; stroke-linejoin: miter"/>
   </g>
   <g id="patch_36">
    <path d="M 258.549969 307.584 
L 264.147461 307.584 
L 264.147461 278.63331 
L 258.549969 278.63331 
z
" clip-path="url(#p3e996d65af)" style="fill: #ff7f0e; fill-opacity: 0.75; stroke: #000000; stroke-width: 0.559749; stroke-linejoin: miter"/>
   </g>
   <g id="patch_37">
    <path d="M 264.147461 307.584 
L 269.744953 307.584 
L 269.744953 283.348871 
L 264.147461 283.348871 
z
" clip-path="url(#p3e996d65af)" style="fill: #ff7f0e; fill-opacity: 0.75; stroke: #000000; stroke-width: 0.559749; stroke-linejoin: miter"/>
   </g>
   <g id="patch_38">
    <path d="M 269.744953 307.584 
L 275.342445 307.584 
L 275.342445 289.607708 
L 269.744953 289.607708 
z
" clip-path="url(#p3e996d65af)" style="fill: #ff7f0e; fill-opacity: 0.75; stroke: #000000; stroke-width: 0.559749; stroke-linejoin: miter"/>
   </g>
   <g id="patch_39">
    <path d="M 275.342445 307.584 
L 280.939937 307.584 
L 280.939937 293.60879 
L 275.342445 293.60879 
z
" clip-path="url(#p3e996d65af)" style="fill: #ff7f0e; fill-opacity: 0.75; stroke: #000000; stroke-width: 0.559749; stroke-linejoin: miter"/>
   </g>
   <g id="patch_40">
    <path d="M 280.939937 307.584 
L 286.537429 307.584 
L 286.537429 297.35266 
L 280.939937 297.35266 
z
" clip-path="url(#p3e996d65af)" style="fill: #ff7f0e; fill-opacity: 0.75; stroke: #000000; stroke-width: 0.559749; stroke-linejoin: miter"/>
   </g>
   <g id="patch_41">
    <path d="M 286.537429 307.584 
L 292.134922 307.584 
L 292.134922 301.153689 
L 286.537429 301.153689 
z
" clip-path="url(#p3e996d65af)" style="fill: #ff7f0e; fill-opacity: 0.75; stroke: #000000; stroke-width: 0.559749; stroke-linejoin: miter"/>
   </g>
   <g id="patch_42">
    <path d="M 292.134922 307.584 
L 297.732414 307.584 
L 297.732414 303.15423 
L 292.134922 303.15423 
z
" clip-path="url(#p3e996d65af)" style="fill: #ff7f0e; fill-opacity: 0.75; stroke: #000000; stroke-width: 0.559749; stroke-linejoin: miter"/>
   </g>
   <g id="patch_43">
    <path d="M 297.732414 307.584 
L 303.329906 307.584 
L 303.329906 304.668926 
L 297.732414 304.668926 
z
" clip-path="url(#p3e996d65af)" style="fill: #ff7f0e; fill-opacity: 0.75; stroke: #000000; stroke-width: 0.559749; stroke-linejoin: miter"/>
   </g>
   <g id="patch_44">
    <path d="M 303.329906 307.584 
L 308.927398 307.584 
L 308.927398 305.640617 
L 303.329906 305.640617 
z
" clip-path="url(#p3e996d65af)" style="fill: #ff7f0e; fill-opacity: 0.75; stroke: #000000; stroke-width: 0.559749; stroke-linejoin: miter"/>
   </g>
   <g id="patch_45">
    <path d="M 308.927398 307.584 
L 314.52489 307.584 
L 314.52489 306.469413 
L 308.927398 306.469413 
z
" clip-path="url(#p3e996d65af)" style="fill: #ff7f0e; fill-opacity: 0.75; stroke: #000000; stroke-width: 0.559749; stroke-linejoin: miter"/>
   </g>
   <g id="patch_46">
    <path d="M 314.52489 307.584 
L 320.122382 307.584 
L 320.122382 306.669467 
L 314.52489 306.669467 
z
" clip-path="url(#p3e996d65af)" style="fill: #ff7f0e; fill-opacity: 0.75; stroke: #000000; stroke-width: 0.559749; stroke-linejoin: miter"/>
   </g>
   <g id="patch_47">
    <path d="M 320.122382 307.584 
L 325.719875 307.584 
L 325.719875 307.183892 
L 320.122382 307.183892 
z
" clip-path="url(#p3e996d65af)" style="fill: #ff7f0e; fill-opacity: 0.75; stroke: #000000; stroke-width: 0.559749; stroke-linejoin: miter"/>
   </g>
   <g id="patch_48">
    <path d="M 325.719875 307.584 
L 331.317367 307.584 
L 331.317367 307.326788 
L 325.719875 307.326788 
z
" clip-path="url(#p3e996d65af)" style="fill: #ff7f0e; fill-opacity: 0.75; stroke: #000000; stroke-width: 0.559749; stroke-linejoin: miter"/>
   </g>
   <g id="patch_49">
    <path d="M 331.317367 307.584 
L 336.914859 307.584 
L 336.914859 307.326788 
L 331.317367 307.326788 
z
" clip-path="url(#p3e996d65af)" style="fill: #ff7f0e; fill-opacity: 0.75; stroke: #000000; stroke-width: 0.559749; stroke-linejoin: miter"/>
   </g>
   <g id="patch_50">
    <path d="M 336.914859 307.584 
L 342.512351 307.584 
L 342.512351 307.498263 
L 336.914859 307.498263 
z
" clip-path="url(#p3e996d65af)" style="fill: #ff7f0e; fill-opacity: 0.75; stroke: #000000; stroke-width: 0.559749; stroke-linejoin: miter"/>
   </g>
   <g id="patch_51">
    <path d="M 342.512351 307.584 
L 348.109843 307.584 
L 348.109843 307.441104 
L 342.512351 307.441104 
z
" clip-path="url(#p3e996d65af)" style="fill: #ff7f0e; fill-opacity: 0.75; stroke: #000000; stroke-width: 0.559749; stroke-linejoin: miter"/>
   </g>
   <g id="patch_52">
    <path d="M 348.109843 307.584 
L 353.707335 307.584 
L 353.707335 307.526842 
L 348.109843 307.526842 
z
" clip-path="url(#p3e996d65af)" style="fill: #ff7f0e; fill-opacity: 0.75; stroke: #000000; stroke-width: 0.559749; stroke-linejoin: miter"/>
   </g>
   <g id="patch_53">
    <path d="M 353.707335 307.584 
L 359.304828 307.584 
L 359.304828 307.584 
L 353.707335 307.584 
z
" clip-path="url(#p3e996d65af)" style="fill: #ff7f0e; fill-opacity: 0.75; stroke: #000000; stroke-width: 0.559749; stroke-linejoin: miter"/>
   </g>
   <g id="patch_54">
    <path d="M 359.304828 307.584 
L 364.90232 307.584 
L 364.90232 307.584 
L 359.304828 307.584 
z
" clip-path="url(#p3e996d65af)" style="fill: #ff7f0e; fill-opacity: 0.75; stroke: #000000; stroke-width: 0.559749; stroke-linejoin: miter"/>
   </g>
   <g id="patch_55">
    <path d="M 364.90232 307.584 
L 370.499812 307.584 
L 370.499812 307.584 
L 364.90232 307.584 
z
" clip-path="url(#p3e996d65af)" style="fill: #ff7f0e; fill-opacity: 0.75; stroke: #000000; stroke-width: 0.559749; stroke-linejoin: miter"/>
   </g>
   <g id="patch_56">
    <path d="M 370.499812 307.584 
L 376.097304 307.584 
L 376.097304 307.584 
L 370.499812 307.584 
z
" clip-path="url(#p3e996d65af)" style="fill: #ff7f0e; fill-opacity: 0.75; stroke: #000000; stroke-width: 0.559749; stroke-linejoin: miter"/>
   </g>
   <g id="patch_57">
    <path d="M 376.097304 307.584 
L 381.694796 307.584 
L 381.694796 307.584 
L 376.097304 307.584 
z
" clip-path="url(#p3e996d65af)" style="fill: #ff7f0e; fill-opacity: 0.75; stroke: #000000; stroke-width: 0.559749; stroke-linejoin: miter"/>
   </g>
   <g id="patch_58">
    <path d="M 381.694796 307.584 
L 387.292288 307.584 
L 387.292288 307.584 
L 381.694796 307.584 
z
" clip-path="url(#p3e996d65af)" style="fill: #ff7f0e; fill-opacity: 0.75; stroke: #000000; stroke-width: 0.559749; stroke-linejoin: miter"/>
   </g>
   <g id="patch_59">
    <path d="M 387.292288 307.584 
L 392.889781 307.584 
L 392.889781 307.584 
L 387.292288 307.584 
z
" clip-path="url(#p3e996d65af)" style="fill: #ff7f0e; fill-opacity: 0.75; stroke: #000000; stroke-width: 0.559749; stroke-linejoin: miter"/>
   </g>
   <g id="patch_60">
    <path d="M 392.889781 307.584 
L 398.487273 307.584 
L 398.487273 307.584 
L 392.889781 307.584 
z
" clip-path="url(#p3e996d65af)" style="fill: #ff7f0e; fill-opacity: 0.75; stroke: #000000; stroke-width: 0.559749; stroke-linejoin: miter"/>
   </g>
   <g id="patch_61">
    <path d="M 73.832727 307.555421 
L 79.430219 307.555421 
L 79.430219 307.555421 
L 73.832727 307.555421 
z
" clip-path="url(#p3e996d65af)" style="fill: #1f77b4; fill-opacity: 0.75; stroke: #000000; stroke-width: 0.559749; stroke-linejoin: miter"/>
   </g>
   <g id="patch_62">
    <path d="M 79.430219 307.526842 
L 85.027712 307.526842 
L 85.027712 307.526842 
L 79.430219 307.526842 
z
" clip-path="url(#p3e996d65af)" style="fill: #1f77b4; fill-opacity: 0.75; stroke: #000000; stroke-width: 0.559749; stroke-linejoin: miter"/>
   </g>
   <g id="patch_63">
    <path d="M 85.027712 307.355367 
L 90.625204 307.355367 
L 90.625204 307.355367 
L 85.027712 307.355367 
z
" clip-path="url(#p3e996d65af)" style="fill: #1f77b4; fill-opacity: 0.75; stroke: #000000; stroke-width: 0.559749; stroke-linejoin: miter"/>
   </g>
   <g id="patch_64">
    <path d="M 90.625204 307.383946 
L 96.222696 307.383946 
L 96.222696 307.383946 
L 90.625204 307.383946 
z
" clip-path="url(#p3e996d65af)" style="fill: #1f77b4; fill-opacity: 0.75; stroke: #000000; stroke-width: 0.559749; stroke-linejoin: miter"/>
   </g>
   <g id="patch_65">
    <path d="M 96.222696 307.069575 
L 101.820188 307.069575 
L 101.820188 307.069575 
L 96.222696 307.069575 
z
" clip-path="url(#p3e996d65af)" style="fill: #1f77b4; fill-opacity: 0.75; stroke: #000000; stroke-width: 0.559749; stroke-linejoin: miter"/>
   </g>
   <g id="patch_66">
    <path d="M 101.820188 306.840942 
L 107.41768 306.840942 
L 107.41768 306.840942 
L 101.820188 306.840942 
z
" clip-path="url(#p3e996d65af)" style="fill: #1f77b4; fill-opacity: 0.75; stroke: #000000; stroke-width: 0.559749; stroke-linejoin: miter"/>
   </g>
   <g id="patch_67">
    <path d="M 107.41768 306.355096 
L 113.015172 306.355096 
L 113.015172 306.355096 
L 107.41768 306.355096 
z
" clip-path="url(#p3e996d65af)" style="fill: #1f77b4; fill-opacity: 0.75; stroke: #000000; stroke-width: 0.559749; stroke-linejoin: miter"/>
   </g>
   <g id="patch_68">
    <path d="M 113.015172 305.840671 
L 118.612665 305.840671 
L 118.612665 305.840671 
L 113.015172 305.840671 
z
" clip-path="url(#p3e996d65af)" style="fill: #1f77b4; fill-opacity: 0.75; stroke: #000000; stroke-width: 0.559749; stroke-linejoin: miter"/>
   </g>
   <g id="patch_69">
    <path d="M 118.612665 304.668926 
L 124.210157 304.668926 
L 124.210157 304.668926 
L 118.612665 304.668926 
z
" clip-path="url(#p3e996d65af)" style="fill: #1f77b4; fill-opacity: 0.75; stroke: #000000; stroke-width: 0.559749; stroke-linejoin: miter"/>
   </g>
   <g id="patch_70">
    <path d="M 124.210157 303.582917 
L 129.807649 303.582917 
L 129.807649 303.582917 
L 124.210157 303.582917 
z
" clip-path="url(#p3e996d65af)" style="fill: #1f77b4; fill-opacity: 0.75; stroke: #000000; stroke-width: 0.559749; stroke-linejoin: miter"/>
   </g>
   <g id="patch_71">
    <path d="M 129.807649 302.12538 
L 135.405141 302.12538 
L 135.405141 302.12538 
L 129.807649 302.12538 
z
" clip-path="url(#p3e996d65af)" style="fill: #1f77b4; fill-opacity: 0.75; stroke: #000000; stroke-width: 0.559749; stroke-linejoin: miter"/>
   </g>
   <g id="patch_72">
    <path d="M 135.405141 300.696422 
L 141.002633 300.696422 
L 141.002633 300.696422 
L 135.405141 300.696422 
z
" clip-path="url(#p3e996d65af)" style="fill: #1f77b4; fill-opacity: 0.75; stroke: #000000; stroke-width: 0.559749; stroke-linejoin: miter"/>
   </g>
   <g id="patch_73">
    <path d="M 141.002633 298.095719 
L 146.600125 298.095719 
L 146.600125 298.095719 
L 141.002633 298.095719 
z
" clip-path="url(#p3e996d65af)" style="fill: #1f77b4; fill-opacity: 0.75; stroke: #000000; stroke-width: 0.559749; stroke-linejoin: miter"/>
   </g>
   <g id="patch_74">
    <path d="M 146.600125 296.323811 
L 152.197618 296.323811 
L 152.197618 296.323811 
L 146.600125 296.323811 
z
" clip-path="url(#p3e996d65af)" style="fill: #1f77b4; fill-opacity: 0.75; stroke: #000000; stroke-width: 0.559749; stroke-linejoin: miter"/>
   </g>
   <g id="patch_75">
    <path d="M 152.197618 293.523053 
L 157.79511 293.523053 
L 157.79511 293.523053 
L 152.197618 293.523053 
z
" clip-path="url(#p3e996d65af)" style="fill: #1f77b4; fill-opacity: 0.75; stroke: #000000; stroke-width: 0.559749; stroke-linejoin: miter"/>
   </g>
   <g id="patch_76">
    <path d="M 157.79511 291.208141 
L 163.392602 291.208141 
L 163.392602 291.179562 
L 157.79511 291.179562 
z
" clip-path="url(#p3e996d65af)" style="fill: #1f77b4; fill-opacity: 0.75; stroke: #000000; stroke-width: 0.559749; stroke-linejoin: miter"/>
   </g>
   <g id="patch_77">
    <path d="M 163.392602 287.1499 
L 168.990094 287.1499 
L 168.990094 287.064162 
L 163.392602 287.064162 
z
" clip-path="url(#p3e996d65af)" style="fill: #1f77b4; fill-opacity: 0.75; stroke: #000000; stroke-width: 0.559749; stroke-linejoin: miter"/>
   </g>
   <g id="patch_78">
    <path d="M 168.990094 283.920455 
L 174.587586 283.920455 
L 174.587586 283.720401 
L 168.990094 283.720401 
z
" clip-path="url(#p3e996d65af)" style="fill: #1f77b4; fill-opacity: 0.75; stroke: #000000; stroke-width: 0.559749; stroke-linejoin: miter"/>
   </g>
   <g id="patch_79">
    <path d="M 174.587586 281.062539 
L 180.185078 281.062539 
L 180.185078 279.719318 
L 174.587586 279.719318 
z
" clip-path="url(#p3e996d65af)" style="fill: #1f77b4; fill-opacity: 0.75; stroke: #000000; stroke-width: 0.559749; stroke-linejoin: miter"/>
   </g>
   <g id="patch_80">
    <path d="M 180.185078 277.690198 
L 185.782571 277.690198 
L 185.782571 274.060644 
L 180.185078 274.060644 
z
" clip-path="url(#p3e996d65af)" style="fill: #1f77b4; fill-opacity: 0.75; stroke: #000000; stroke-width: 0.559749; stroke-linejoin: miter"/>
   </g>
   <g id="patch_81">
    <path d="M 185.782571 274.146382 
L 191.380063 274.146382 
L 191.380063 265.172525 
L 185.782571 265.172525 
z
" clip-path="url(#p3e996d65af)" style="fill: #1f77b4; fill-opacity: 0.75; stroke: #000000; stroke-width: 0.559749; stroke-linejoin: miter"/>
   </g>
   <g id="patch_82">
    <path d="M 191.380063 269.002133 
L 196.977555 269.002133 
L 196.977555 252.197586 
L 191.380063 252.197586 
z
" clip-path="url(#p3e996d65af)" style="fill: #1f77b4; fill-opacity: 0.75; stroke: #000000; stroke-width: 0.559749; stroke-linejoin: miter"/>
   </g>
   <g id="patch_83">
    <path d="M 196.977555 266.944433 
L 202.575047 266.944433 
L 202.575047 233.020969 
L 196.977555 233.020969 
z
" clip-path="url(#p3e996d65af)" style="fill: #1f77b4; fill-opacity: 0.75; stroke: #000000; stroke-width: 0.559749; stroke-linejoin: miter"/>
   </g>
   <g id="patch_84">
    <path d="M 202.575047 262.657559 
L 208.172539 262.657559 
L 208.172539 208.728682 
L 202.575047 208.728682 
z
" clip-path="url(#p3e996d65af)" style="fill: #1f77b4; fill-opacity: 0.75; stroke: #000000; stroke-width: 0.559749; stroke-linejoin: miter"/>
   </g>
   <g id="patch_85">
    <path d="M 208.172539 260.799913 
L 213.770031 260.799913 
L 213.770031 177.634555 
L 208.172539 177.634555 
z
" clip-path="url(#p3e996d65af)" style="fill: #1f77b4; fill-opacity: 0.75; stroke: #000000; stroke-width: 0.559749; stroke-linejoin: miter"/>
   </g>
   <g id="patch_86">
    <path d="M 213.770031 256.741673 
L 219.367524 256.741673 
L 219.367524 141.824866 
L 213.770031 141.824866 
z
" clip-path="url(#p3e996d65af)" style="fill: #1f77b4; fill-opacity: 0.75; stroke: #000000; stroke-width: 0.559749; stroke-linejoin: miter"/>
   </g>
   <g id="patch_87">
    <path d="M 219.367524 252.769169 
L 224.965016 252.769169 
L 224.965016 104.872011 
L 219.367524 104.872011 
z
" clip-path="url(#p3e996d65af)" style="fill: #1f77b4; fill-opacity: 0.75; stroke: #000000; stroke-width: 0.559749; stroke-linejoin: miter"/>
   </g>
   <g id="patch_88">
    <path d="M 224.965016 248.539453 
L 230.562508 248.539453 
L 230.562508 69.548168 
L 224.965016 69.548168 
z
" clip-path="url(#p3e996d65af)" style="fill: #1f77b4; fill-opacity: 0.75; stroke: #000000; stroke-width: 0.559749; stroke-linejoin: miter"/>
   </g>
   <g id="patch_89">
    <path d="M 230.562508 250.539995 
L 236.16 250.539995 
L 236.16 56.001645 
L 230.562508 56.001645 
z
" clip-path="url(#p3e996d65af)" style="fill: #1f77b4; fill-opacity: 0.75; stroke: #000000; stroke-width: 0.559749; stroke-linejoin: miter"/>
   </g>
   <g id="patch_90">
    <path d="M 236.16 253.140698 
L 241.757492 253.140698 
L 241.757492 54.144 
L 236.16 54.144 
z
" clip-path="url(#p3e996d65af)" style="fill: #1f77b4; fill-opacity: 0.75; stroke: #000000; stroke-width: 0.559749; stroke-linejoin: miter"/>
   </g>
   <g id="patch_91">
    <path d="M 241.757492 258.227789 
L 247.354984 258.227789 
L 247.354984 66.74741 
L 241.757492 66.74741 
z
" clip-path="url(#p3e996d65af)" style="fill: #1f77b4; fill-opacity: 0.75; stroke: #000000; stroke-width: 0.559749; stroke-linejoin: miter"/>
   </g>
   <g id="patch_92">
    <path d="M 247.354984 260.028276 
L 252.952476 260.028276 
L 252.952476 92.840184 
L 247.354984 92.840184 
z
" clip-path="url(#p3e996d65af)" style="fill: #1f77b4; fill-opacity: 0.75; stroke: #000000; stroke-width: 0.559749; stroke-linejoin: miter"/>
   </g>
   <g id="patch_93">
    <path d="M 252.952476 268.602024 
L 258.549969 268.602024 
L 258.549969 125.791957 
L 252.952476 125.791957 
z
" clip-path="url(#p3e996d65af)" style="fill: #1f77b4; fill-opacity: 0.75; stroke: #000000; stroke-width: 0.559749; stroke-linejoin: miter"/>
   </g>
   <g id="patch_94">
    <path d="M 258.549969 278.63331 
L 264.147461 278.63331 
L 264.147461 165.945678 
L 258.549969 165.945678 
z
" clip-path="url(#p3e996d65af)" style="fill: #1f77b4; fill-opacity: 0.75; stroke: #000000; stroke-width: 0.559749; stroke-linejoin: miter"/>
   </g>
   <g id="patch_95">
    <path d="M 264.147461 283.348871 
L 269.744953 283.348871 
L 269.744953 196.611118 
L 264.147461 196.611118 
z
" clip-path="url(#p3e996d65af)" style="fill: #1f77b4; fill-opacity: 0.75; stroke: #000000; stroke-width: 0.559749; stroke-linejoin: miter"/>
   </g>
   <g id="patch_96">
    <path d="M 269.744953 289.607708 
L 275.342445 289.607708 
L 275.342445 226.590658 
L 269.744953 226.590658 
z
" clip-path="url(#p3e996d65af)" style="fill: #1f77b4; fill-opacity: 0.75; stroke: #000000; stroke-width: 0.559749; stroke-linejoin: miter"/>
   </g>
   <g id="patch_97">
    <path d="M 275.342445 293.60879 
L 280.939937 293.60879 
L 280.939937 244.424054 
L 275.342445 244.424054 
z
" clip-path="url(#p3e996d65af)" style="fill: #1f77b4; fill-opacity: 0.75; stroke: #000000; stroke-width: 0.559749; stroke-linejoin: miter"/>
   </g>
   <g id="patch_98">
    <path d="M 280.939937 297.35266 
L 286.537429 297.35266 
L 286.537429 265.401158 
L 280.939937 265.401158 
z
" clip-path="url(#p3e996d65af)" style="fill: #1f77b4; fill-opacity: 0.75; stroke: #000000; stroke-width: 0.559749; stroke-linejoin: miter"/>
   </g>
   <g id="patch_99">
    <path d="M 286.537429 301.153689 
L 292.134922 301.153689 
L 292.134922 278.547572 
L 286.537429 278.547572 
z
" clip-path="url(#p3e996d65af)" style="fill: #1f77b4; fill-opacity: 0.75; stroke: #000000; stroke-width: 0.559749; stroke-linejoin: miter"/>
   </g>
   <g id="patch_100">
    <path d="M 292.134922 303.15423 
L 297.732414 303.15423 
L 297.732414 286.321104 
L 292.134922 286.321104 
z
" clip-path="url(#p3e996d65af)" style="fill: #1f77b4; fill-opacity: 0.75; stroke: #000000; stroke-width: 0.559749; stroke-linejoin: miter"/>
   </g>
   <g id="patch_101">
    <path d="M 297.732414 304.668926 
L 303.329906 304.668926 
L 303.329906 294.123215 
L 297.732414 294.123215 
z
" clip-path="url(#p3e996d65af)" style="fill: #1f77b4; fill-opacity: 0.75; stroke: #000000; stroke-width: 0.559749; stroke-linejoin: miter"/>
   </g>
   <g id="patch_102">
    <path d="M 303.329906 305.640617 
L 308.927398 305.640617 
L 308.927398 298.753039 
L 303.329906 298.753039 
z
" clip-path="url(#p3e996d65af)" style="fill: #1f77b4; fill-opacity: 0.75; stroke: #000000; stroke-width: 0.559749; stroke-linejoin: miter"/>
   </g>
   <g id="patch_103">
    <path d="M 308.927398 306.469413 
L 314.52489 306.469413 
L 314.52489 302.354014 
L 308.927398 302.354014 
z
" clip-path="url(#p3e996d65af)" style="fill: #1f77b4; fill-opacity: 0.75; stroke: #000000; stroke-width: 0.559749; stroke-linejoin: miter"/>
   </g>
   <g id="patch_104">
    <path d="M 314.52489 306.669467 
L 320.122382 306.669467 
L 320.122382 304.097342 
L 314.52489 304.097342 
z
" clip-path="url(#p3e996d65af)" style="fill: #1f77b4; fill-opacity: 0.75; stroke: #000000; stroke-width: 0.559749; stroke-linejoin: miter"/>
   </g>
   <g id="patch_105">
    <path d="M 320.122382 307.183892 
L 325.719875 307.183892 
L 325.719875 305.040455 
L 320.122382 305.040455 
z
" clip-path="url(#p3e996d65af)" style="fill: #1f77b4; fill-opacity: 0.75; stroke: #000000; stroke-width: 0.559749; stroke-linejoin: miter"/>
   </g>
   <g id="patch_106">
    <path d="M 325.719875 307.326788 
L 331.317367 307.326788 
L 331.317367 305.897829 
L 325.719875 305.897829 
z
" clip-path="url(#p3e996d65af)" style="fill: #1f77b4; fill-opacity: 0.75; stroke: #000000; stroke-width: 0.559749; stroke-linejoin: miter"/>
   </g>
   <g id="patch_107">
    <path d="M 331.317367 307.326788 
L 336.914859 307.326788 
L 336.914859 306.698046 
L 331.317367 306.698046 
z
" clip-path="url(#p3e996d65af)" style="fill: #1f77b4; fill-opacity: 0.75; stroke: #000000; stroke-width: 0.559749; stroke-linejoin: miter"/>
   </g>
   <g id="patch_108">
    <path d="M 336.914859 307.498263 
L 342.512351 307.498263 
L 342.512351 307.212471 
L 336.914859 307.212471 
z
" clip-path="url(#p3e996d65af)" style="fill: #1f77b4; fill-opacity: 0.75; stroke: #000000; stroke-width: 0.559749; stroke-linejoin: miter"/>
   </g>
   <g id="patch_109">
    <path d="M 342.512351 307.441104 
L 348.109843 307.441104 
L 348.109843 307.126733 
L 342.512351 307.126733 
z
" clip-path="url(#p3e996d65af)" style="fill: #1f77b4; fill-opacity: 0.75; stroke: #000000; stroke-width: 0.559749; stroke-linejoin: miter"/>
   </g>
   <g id="patch_110">
    <path d="M 348.109843 307.526842 
L 353.707335 307.526842 
L 353.707335 307.269629 
L 348.109843 307.269629 
z
" clip-path="url(#p3e996d65af)" style="fill: #1f77b4; fill-opacity: 0.75; stroke: #000000; stroke-width: 0.559749; stroke-linejoin: miter"/>
   </g>
   <g id="patch_111">
    <path d="M 353.707335 307.584 
L 359.304828 307.584 
L 359.304828 307.498263 
L 353.707335 307.498263 
z
" clip-path="url(#p3e996d65af)" style="fill: #1f77b4; fill-opacity: 0.75; stroke: #000000; stroke-width: 0.559749; stroke-linejoin: miter"/>
   </g>
   <g id="patch_112">
    <path d="M 359.304828 307.584 
L 364.90232 307.584 
L 364.90232 307.469683 
L 359.304828 307.469683 
z
" clip-path="url(#p3e996d65af)" style="fill: #1f77b4; fill-opacity: 0.75; stroke: #000000; stroke-width: 0.559749; stroke-linejoin: miter"/>
   </g>
   <g id="patch_113">
    <path d="M 364.90232 307.584 
L 370.499812 307.584 
L 370.499812 307.555421 
L 364.90232 307.555421 
z
" clip-path="url(#p3e996d65af)" style="fill: #1f77b4; fill-opacity: 0.75; stroke: #000000; stroke-width: 0.559749; stroke-linejoin: miter"/>
   </g>
   <g id="patch_114">
    <path d="M 370.499812 307.584 
L 376.097304 307.584 
L 376.097304 307.498263 
L 370.499812 307.498263 
z
" clip-path="url(#p3e996d65af)" style="fill: #1f77b4; fill-opacity: 0.75; stroke: #000000; stroke-width: 0.559749; stroke-linejoin: miter"/>
   </g>
   <g id="patch_115">
    <path d="M 376.097304 307.584 
L 381.694796 307.584 
L 381.694796 307.584 
L 376.097304 307.584 
z
" clip-path="url(#p3e996d65af)" style="fill: #1f77b4; fill-opacity: 0.75; stroke: #000000; stroke-width: 0.559749; stroke-linejoin: miter"/>
   </g>
   <g id="patch_116">
    <path d="M 381.694796 307.584 
L 387.292288 307.584 
L 387.292288 307.584 
L 381.694796 307.584 
z
" clip-path="url(#p3e996d65af)" style="fill: #1f77b4; fill-opacity: 0.75; stroke: #000000; stroke-width: 0.559749; stroke-linejoin: miter"/>
   </g>
   <g id="patch_117">
    <path d="M 387.292288 307.584 
L 392.889781 307.584 
L 392.889781 307.584 
L 387.292288 307.584 
z
" clip-path="url(#p3e996d65af)" style="fill: #1f77b4; fill-opacity: 0.75; stroke: #000000; stroke-width: 0.559749; stroke-linejoin: miter"/>
   </g>
   <g id="patch_118">
    <path d="M 392.889781 307.584 
L 398.487273 307.584 
L 398.487273 307.555421 
L 392.889781 307.555421 
z
" clip-path="url(#p3e996d65af)" style="fill: #1f77b4; fill-opacity: 0.75; stroke: #000000; stroke-width: 0.559749; stroke-linejoin: miter"/>
   </g>
   <g id="matplotlib.axis_1">
    <g id="xtick_1">
     <g id="line2d_1">
      <defs>
       <path id="m2da62ae8b0" d="M 0 0 
L 0 3.5 
" style="stroke: #000000; stroke-width: 0.8"/>
      </defs>
      <g>
       <use xlink:href="#m2da62ae8b0" x="65.436489" y="307.584" style="stroke: #000000; stroke-width: 0.8"/>
      </g>
     </g>
     <g id="text_1">
      <!-- 10 -->
      <g transform="translate(59.073989 322.182437) scale(0.1 -0.1)">
       <defs>
        <path id="DejaVuSans-31" d="M 794 531 
L 1825 531 
L 1825 4091 
L 703 3866 
L 703 4441 
L 1819 4666 
L 2450 4666 
L 2450 531 
L 3481 531 
L 3481 0 
L 794 0 
L 794 531 
z
" transform="scale(0.015625)"/>
        <path id="DejaVuSans-30" d="M 2034 4250 
Q 1547 4250 1301 3770 
Q 1056 3291 1056 2328 
Q 1056 1369 1301 889 
Q 1547 409 2034 409 
Q 2525 409 2770 889 
Q 3016 1369 3016 2328 
Q 3016 3291 2770 3770 
Q 2525 4250 2034 4250 
z
M 2034 4750 
Q 2819 4750 3233 4129 
Q 3647 3509 3647 2328 
Q 3647 1150 3233 529 
Q 2819 -91 2034 -91 
Q 1250 -91 836 529 
Q 422 1150 422 2328 
Q 422 3509 836 4129 
Q 1250 4750 2034 4750 
z
" transform="scale(0.015625)"/>
       </defs>
       <use xlink:href="#DejaVuSans-31"/>
       <use xlink:href="#DejaVuSans-30" x="63.623047"/>
      </g>
     </g>
    </g>
    <g id="xtick_2">
     <g id="line2d_2">
      <g>
       <use xlink:href="#m2da62ae8b0" x="121.411411" y="307.584" style="stroke: #000000; stroke-width: 0.8"/>
      </g>
     </g>
     <g id="text_2">
      <!-- 20 -->
      <g transform="translate(115.048911 322.182437) scale(0.1 -0.1)">
       <defs>
        <path id="DejaVuSans-32" d="M 1228 531 
L 3431 531 
L 3431 0 
L 469 0 
L 469 531 
Q 828 903 1448 1529 
Q 2069 2156 2228 2338 
Q 2531 2678 2651 2914 
Q 2772 3150 2772 3378 
Q 2772 3750 2511 3984 
Q 2250 4219 1831 4219 
Q 1534 4219 1204 4116 
Q 875 4013 500 3803 
L 500 4441 
Q 881 4594 1212 4672 
Q 1544 4750 1819 4750 
Q 2544 4750 2975 4387 
Q 3406 4025 3406 3419 
Q 3406 3131 3298 2873 
Q 3191 2616 2906 2266 
Q 2828 2175 2409 1742 
Q 1991 1309 1228 531 
z
" transform="scale(0.015625)"/>
       </defs>
       <use xlink:href="#DejaVuSans-32"/>
       <use xlink:href="#DejaVuSans-30" x="63.623047"/>
      </g>
     </g>
    </g>
    <g id="xtick_3">
     <g id="line2d_3">
      <g>
       <use xlink:href="#m2da62ae8b0" x="177.386332" y="307.584" style="stroke: #000000; stroke-width: 0.8"/>
      </g>
     </g>
     <g id="text_3">
      <!-- 30 -->
      <g transform="translate(171.023832 322.182437) scale(0.1 -0.1)">
       <defs>
        <path id="DejaVuSans-33" d="M 2597 2516 
Q 3050 2419 3304 2112 
Q 3559 1806 3559 1356 
Q 3559 666 3084 287 
Q 2609 -91 1734 -91 
Q 1441 -91 1130 -33 
Q 819 25 488 141 
L 488 750 
Q 750 597 1062 519 
Q 1375 441 1716 441 
Q 2309 441 2620 675 
Q 2931 909 2931 1356 
Q 2931 1769 2642 2001 
Q 2353 2234 1838 2234 
L 1294 2234 
L 1294 2753 
L 1863 2753 
Q 2328 2753 2575 2939 
Q 2822 3125 2822 3475 
Q 2822 3834 2567 4026 
Q 2313 4219 1838 4219 
Q 1578 4219 1281 4162 
Q 984 4106 628 3988 
L 628 4550 
Q 988 4650 1302 4700 
Q 1616 4750 1894 4750 
Q 2613 4750 3031 4423 
Q 3450 4097 3450 3541 
Q 3450 3153 3228 2886 
Q 3006 2619 2597 2516 
z
" transform="scale(0.015625)"/>
       </defs>
       <use xlink:href="#DejaVuSans-33"/>
       <use xlink:href="#DejaVuSans-30" x="63.623047"/>
      </g>
     </g>
    </g>
    <g id="xtick_4">
     <g id="line2d_4">
      <g>
       <use xlink:href="#m2da62ae8b0" x="233.361254" y="307.584" style="stroke: #000000; stroke-width: 0.8"/>
      </g>
     </g>
     <g id="text_4">
      <!-- 40 -->
      <g transform="translate(226.998754 322.182437) scale(0.1 -0.1)">
       <defs>
        <path id="DejaVuSans-34" d="M 2419 4116 
L 825 1625 
L 2419 1625 
L 2419 4116 
z
M 2253 4666 
L 3047 4666 
L 3047 1625 
L 3713 1625 
L 3713 1100 
L 3047 1100 
L 3047 0 
L 2419 0 
L 2419 1100 
L 313 1100 
L 313 1709 
L 2253 4666 
z
" transform="scale(0.015625)"/>
       </defs>
       <use xlink:href="#DejaVuSans-34"/>
       <use xlink:href="#DejaVuSans-30" x="63.623047"/>
      </g>
     </g>
    </g>
    <g id="xtick_5">
     <g id="line2d_5">
      <g>
       <use xlink:href="#m2da62ae8b0" x="289.336176" y="307.584" style="stroke: #000000; stroke-width: 0.8"/>
      </g>
     </g>
     <g id="text_5">
      <!-- 50 -->
      <g transform="translate(282.973676 322.182437) scale(0.1 -0.1)">
       <defs>
        <path id="DejaVuSans-35" d="M 691 4666 
L 3169 4666 
L 3169 4134 
L 1269 4134 
L 1269 2991 
Q 1406 3038 1543 3061 
Q 1681 3084 1819 3084 
Q 2600 3084 3056 2656 
Q 3513 2228 3513 1497 
Q 3513 744 3044 326 
Q 2575 -91 1722 -91 
Q 1428 -91 1123 -41 
Q 819 9 494 109 
L 494 744 
Q 775 591 1075 516 
Q 1375 441 1709 441 
Q 2250 441 2565 725 
Q 2881 1009 2881 1497 
Q 2881 1984 2565 2268 
Q 2250 2553 1709 2553 
Q 1456 2553 1204 2497 
Q 953 2441 691 2322 
L 691 4666 
z
" transform="scale(0.015625)"/>
       </defs>
       <use xlink:href="#DejaVuSans-35"/>
       <use xlink:href="#DejaVuSans-30" x="63.623047"/>
      </g>
     </g>
    </g>
    <g id="xtick_6">
     <g id="line2d_6">
      <g>
       <use xlink:href="#m2da62ae8b0" x="345.311097" y="307.584" style="stroke: #000000; stroke-width: 0.8"/>
      </g>
     </g>
     <g id="text_6">
      <!-- 60 -->
      <g transform="translate(338.948597 322.182437) scale(0.1 -0.1)">
       <defs>
        <path id="DejaVuSans-36" d="M 2113 2584 
Q 1688 2584 1439 2293 
Q 1191 2003 1191 1497 
Q 1191 994 1439 701 
Q 1688 409 2113 409 
Q 2538 409 2786 701 
Q 3034 994 3034 1497 
Q 3034 2003 2786 2293 
Q 2538 2584 2113 2584 
z
M 3366 4563 
L 3366 3988 
Q 3128 4100 2886 4159 
Q 2644 4219 2406 4219 
Q 1781 4219 1451 3797 
Q 1122 3375 1075 2522 
Q 1259 2794 1537 2939 
Q 1816 3084 2150 3084 
Q 2853 3084 3261 2657 
Q 3669 2231 3669 1497 
Q 3669 778 3244 343 
Q 2819 -91 2113 -91 
Q 1303 -91 875 529 
Q 447 1150 447 2328 
Q 447 3434 972 4092 
Q 1497 4750 2381 4750 
Q 2619 4750 2861 4703 
Q 3103 4656 3366 4563 
z
" transform="scale(0.015625)"/>
       </defs>
       <use xlink:href="#DejaVuSans-36"/>
       <use xlink:href="#DejaVuSans-30" x="63.623047"/>
      </g>
     </g>
    </g>
    <g id="xtick_7">
     <g id="line2d_7">
      <g>
       <use xlink:href="#m2da62ae8b0" x="401.286019" y="307.584" style="stroke: #000000; stroke-width: 0.8"/>
      </g>
     </g>
     <g id="text_7">
      <!-- 70 -->
      <g transform="translate(394.923519 322.182437) scale(0.1 -0.1)">
       <defs>
        <path id="DejaVuSans-37" d="M 525 4666 
L 3525 4666 
L 3525 4397 
L 1831 0 
L 1172 0 
L 2766 4134 
L 525 4134 
L 525 4666 
z
" transform="scale(0.015625)"/>
       </defs>
       <use xlink:href="#DejaVuSans-37"/>
       <use xlink:href="#DejaVuSans-30" x="63.623047"/>
      </g>
     </g>
    </g>
    <g id="text_8">
     <!-- Game length -->
     <g transform="translate(203.748281 335.860562) scale(0.1 -0.1)">
      <defs>
       <path id="DejaVuSans-47" d="M 3809 666 
L 3809 1919 
L 2778 1919 
L 2778 2438 
L 4434 2438 
L 4434 434 
Q 4069 175 3628 42 
Q 3188 -91 2688 -91 
Q 1594 -91 976 548 
Q 359 1188 359 2328 
Q 359 3472 976 4111 
Q 1594 4750 2688 4750 
Q 3144 4750 3555 4637 
Q 3966 4525 4313 4306 
L 4313 3634 
Q 3963 3931 3569 4081 
Q 3175 4231 2741 4231 
Q 1884 4231 1454 3753 
Q 1025 3275 1025 2328 
Q 1025 1384 1454 906 
Q 1884 428 2741 428 
Q 3075 428 3337 486 
Q 3600 544 3809 666 
z
" transform="scale(0.015625)"/>
       <path id="DejaVuSans-61" d="M 2194 1759 
Q 1497 1759 1228 1600 
Q 959 1441 959 1056 
Q 959 750 1161 570 
Q 1363 391 1709 391 
Q 2188 391 2477 730 
Q 2766 1069 2766 1631 
L 2766 1759 
L 2194 1759 
z
M 3341 1997 
L 3341 0 
L 2766 0 
L 2766 531 
Q 2569 213 2275 61 
Q 1981 -91 1556 -91 
Q 1019 -91 701 211 
Q 384 513 384 1019 
Q 384 1609 779 1909 
Q 1175 2209 1959 2209 
L 2766 2209 
L 2766 2266 
Q 2766 2663 2505 2880 
Q 2244 3097 1772 3097 
Q 1472 3097 1187 3025 
Q 903 2953 641 2809 
L 641 3341 
Q 956 3463 1253 3523 
Q 1550 3584 1831 3584 
Q 2591 3584 2966 3190 
Q 3341 2797 3341 1997 
z
" transform="scale(0.015625)"/>
       <path id="DejaVuSans-6d" d="M 3328 2828 
Q 3544 3216 3844 3400 
Q 4144 3584 4550 3584 
Q 5097 3584 5394 3201 
Q 5691 2819 5691 2113 
L 5691 0 
L 5113 0 
L 5113 2094 
Q 5113 2597 4934 2840 
Q 4756 3084 4391 3084 
Q 3944 3084 3684 2787 
Q 3425 2491 3425 1978 
L 3425 0 
L 2847 0 
L 2847 2094 
Q 2847 2600 2669 2842 
Q 2491 3084 2119 3084 
Q 1678 3084 1418 2786 
Q 1159 2488 1159 1978 
L 1159 0 
L 581 0 
L 581 3500 
L 1159 3500 
L 1159 2956 
Q 1356 3278 1631 3431 
Q 1906 3584 2284 3584 
Q 2666 3584 2933 3390 
Q 3200 3197 3328 2828 
z
" transform="scale(0.015625)"/>
       <path id="DejaVuSans-65" d="M 3597 1894 
L 3597 1613 
L 953 1613 
Q 991 1019 1311 708 
Q 1631 397 2203 397 
Q 2534 397 2845 478 
Q 3156 559 3463 722 
L 3463 178 
Q 3153 47 2828 -22 
Q 2503 -91 2169 -91 
Q 1331 -91 842 396 
Q 353 884 353 1716 
Q 353 2575 817 3079 
Q 1281 3584 2069 3584 
Q 2775 3584 3186 3129 
Q 3597 2675 3597 1894 
z
M 3022 2063 
Q 3016 2534 2758 2815 
Q 2500 3097 2075 3097 
Q 1594 3097 1305 2825 
Q 1016 2553 972 2059 
L 3022 2063 
z
" transform="scale(0.015625)"/>
       <path id="DejaVuSans-20" transform="scale(0.015625)"/>
       <path id="DejaVuSans-6c" d="M 603 4863 
L 1178 4863 
L 1178 0 
L 603 0 
L 603 4863 
z
" transform="scale(0.015625)"/>
       <path id="DejaVuSans-6e" d="M 3513 2113 
L 3513 0 
L 2938 0 
L 2938 2094 
Q 2938 2591 2744 2837 
Q 2550 3084 2163 3084 
Q 1697 3084 1428 2787 
Q 1159 2491 1159 1978 
L 1159 0 
L 581 0 
L 581 3500 
L 1159 3500 
L 1159 2956 
Q 1366 3272 1645 3428 
Q 1925 3584 2291 3584 
Q 2894 3584 3203 3211 
Q 3513 2838 3513 2113 
z
" transform="scale(0.015625)"/>
       <path id="DejaVuSans-67" d="M 2906 1791 
Q 2906 2416 2648 2759 
Q 2391 3103 1925 3103 
Q 1463 3103 1205 2759 
Q 947 2416 947 1791 
Q 947 1169 1205 825 
Q 1463 481 1925 481 
Q 2391 481 2648 825 
Q 2906 1169 2906 1791 
z
M 3481 434 
Q 3481 -459 3084 -895 
Q 2688 -1331 1869 -1331 
Q 1566 -1331 1297 -1286 
Q 1028 -1241 775 -1147 
L 775 -588 
Q 1028 -725 1275 -790 
Q 1522 -856 1778 -856 
Q 2344 -856 2625 -561 
Q 2906 -266 2906 331 
L 2906 616 
Q 2728 306 2450 153 
Q 2172 0 1784 0 
Q 1141 0 747 490 
Q 353 981 353 1791 
Q 353 2603 747 3093 
Q 1141 3584 1784 3584 
Q 2172 3584 2450 3431 
Q 2728 3278 2906 2969 
L 2906 3500 
L 3481 3500 
L 3481 434 
z
" transform="scale(0.015625)"/>
       <path id="DejaVuSans-74" d="M 1172 4494 
L 1172 3500 
L 2356 3500 
L 2356 3053 
L 1172 3053 
L 1172 1153 
Q 1172 725 1289 603 
Q 1406 481 1766 481 
L 2356 481 
L 2356 0 
L 1766 0 
Q 1100 0 847 248 
Q 594 497 594 1153 
L 594 3053 
L 172 3053 
L 172 3500 
L 594 3500 
L 594 4494 
L 1172 4494 
z
" transform="scale(0.015625)"/>
       <path id="DejaVuSans-68" d="M 3513 2113 
L 3513 0 
L 2938 0 
L 2938 2094 
Q 2938 2591 2744 2837 
Q 2550 3084 2163 3084 
Q 1697 3084 1428 2787 
Q 1159 2491 1159 1978 
L 1159 0 
L 581 0 
L 581 4863 
L 1159 4863 
L 1159 2956 
Q 1366 3272 1645 3428 
Q 1925 3584 2291 3584 
Q 2894 3584 3203 3211 
Q 3513 2838 3513 2113 
z
" transform="scale(0.015625)"/>
      </defs>
      <use xlink:href="#DejaVuSans-47"/>
      <use xlink:href="#DejaVuSans-61" x="77.490234"/>
      <use xlink:href="#DejaVuSans-6d" x="138.769531"/>
      <use xlink:href="#DejaVuSans-65" x="236.181641"/>
      <use xlink:href="#DejaVuSans-20" x="297.705078"/>
      <use xlink:href="#DejaVuSans-6c" x="329.492188"/>
      <use xlink:href="#DejaVuSans-65" x="357.275391"/>
      <use xlink:href="#DejaVuSans-6e" x="418.798828"/>
      <use xlink:href="#DejaVuSans-67" x="482.177734"/>
      <use xlink:href="#DejaVuSans-74" x="545.654297"/>
      <use xlink:href="#DejaVuSans-68" x="584.863281"/>
     </g>
    </g>
   </g>
   <g id="matplotlib.axis_2">
    <g id="ytick_1">
     <g id="line2d_8">
      <defs>
       <path id="mda3c131edb" d="M 0 0 
L -3.5 0 
" style="stroke: #000000; stroke-width: 0.8"/>
      </defs>
      <g>
       <use xlink:href="#mda3c131edb" x="57.6" y="307.584" style="stroke: #000000; stroke-width: 0.8"/>
      </g>
     </g>
     <g id="text_9">
      <!-- 0.00 -->
      <g transform="translate(28.334375 311.383219) scale(0.1 -0.1)">
       <defs>
        <path id="DejaVuSans-2e" d="M 684 794 
L 1344 794 
L 1344 0 
L 684 0 
L 684 794 
z
" transform="scale(0.015625)"/>
       </defs>
       <use xlink:href="#DejaVuSans-30"/>
       <use xlink:href="#DejaVuSans-2e" x="63.623047"/>
       <use xlink:href="#DejaVuSans-30" x="95.410156"/>
       <use xlink:href="#DejaVuSans-30" x="159.033203"/>
      </g>
     </g>
    </g>
    <g id="ytick_2">
     <g id="line2d_9">
      <g>
       <use xlink:href="#mda3c131edb" x="57.6" y="250.425678" style="stroke: #000000; stroke-width: 0.8"/>
      </g>
     </g>
     <g id="text_10">
      <!-- 0.02 -->
      <g transform="translate(28.334375 254.224897) scale(0.1 -0.1)">
       <use xlink:href="#DejaVuSans-30"/>
       <use xlink:href="#DejaVuSans-2e" x="63.623047"/>
       <use xlink:href="#DejaVuSans-30" x="95.410156"/>
       <use xlink:href="#DejaVuSans-32" x="159.033203"/>
      </g>
     </g>
    </g>
    <g id="ytick_3">
     <g id="line2d_10">
      <g>
       <use xlink:href="#mda3c131edb" x="57.6" y="193.267356" style="stroke: #000000; stroke-width: 0.8"/>
      </g>
     </g>
     <g id="text_11">
      <!-- 0.04 -->
      <g transform="translate(28.334375 197.066575) scale(0.1 -0.1)">
       <use xlink:href="#DejaVuSans-30"/>
       <use xlink:href="#DejaVuSans-2e" x="63.623047"/>
       <use xlink:href="#DejaVuSans-30" x="95.410156"/>
       <use xlink:href="#DejaVuSans-34" x="159.033203"/>
      </g>
     </g>
    </g>
    <g id="ytick_4">
     <g id="line2d_11">
      <g>
       <use xlink:href="#mda3c131edb" x="57.6" y="136.109034" style="stroke: #000000; stroke-width: 0.8"/>
      </g>
     </g>
     <g id="text_12">
      <!-- 0.06 -->
      <g transform="translate(28.334375 139.908253) scale(0.1 -0.1)">
       <use xlink:href="#DejaVuSans-30"/>
       <use xlink:href="#DejaVuSans-2e" x="63.623047"/>
       <use xlink:href="#DejaVuSans-30" x="95.410156"/>
       <use xlink:href="#DejaVuSans-36" x="159.033203"/>
      </g>
     </g>
    </g>
    <g id="ytick_5">
     <g id="line2d_12">
      <g>
       <use xlink:href="#mda3c131edb" x="57.6" y="78.950712" style="stroke: #000000; stroke-width: 0.8"/>
      </g>
     </g>
     <g id="text_13">
      <!-- 0.08 -->
      <g transform="translate(28.334375 82.749931) scale(0.1 -0.1)">
       <defs>
        <path id="DejaVuSans-38" d="M 2034 2216 
Q 1584 2216 1326 1975 
Q 1069 1734 1069 1313 
Q 1069 891 1326 650 
Q 1584 409 2034 409 
Q 2484 409 2743 651 
Q 3003 894 3003 1313 
Q 3003 1734 2745 1975 
Q 2488 2216 2034 2216 
z
M 1403 2484 
Q 997 2584 770 2862 
Q 544 3141 544 3541 
Q 544 4100 942 4425 
Q 1341 4750 2034 4750 
Q 2731 4750 3128 4425 
Q 3525 4100 3525 3541 
Q 3525 3141 3298 2862 
Q 3072 2584 2669 2484 
Q 3125 2378 3379 2068 
Q 3634 1759 3634 1313 
Q 3634 634 3220 271 
Q 2806 -91 2034 -91 
Q 1263 -91 848 271 
Q 434 634 434 1313 
Q 434 1759 690 2068 
Q 947 2378 1403 2484 
z
M 1172 3481 
Q 1172 3119 1398 2916 
Q 1625 2713 2034 2713 
Q 2441 2713 2670 2916 
Q 2900 3119 2900 3481 
Q 2900 3844 2670 4047 
Q 2441 4250 2034 4250 
Q 1625 4250 1398 4047 
Q 1172 3844 1172 3481 
z
" transform="scale(0.015625)"/>
       </defs>
       <use xlink:href="#DejaVuSans-30"/>
       <use xlink:href="#DejaVuSans-2e" x="63.623047"/>
       <use xlink:href="#DejaVuSans-30" x="95.410156"/>
       <use xlink:href="#DejaVuSans-38" x="159.033203"/>
      </g>
     </g>
    </g>
    <g id="text_14">
     <!-- Proportion -->
     <g transform="translate(22.254687 200.324094) rotate(-90) scale(0.1 -0.1)">
      <defs>
       <path id="DejaVuSans-50" d="M 1259 4147 
L 1259 2394 
L 2053 2394 
Q 2494 2394 2734 2622 
Q 2975 2850 2975 3272 
Q 2975 3691 2734 3919 
Q 2494 4147 2053 4147 
L 1259 4147 
z
M 628 4666 
L 2053 4666 
Q 2838 4666 3239 4311 
Q 3641 3956 3641 3272 
Q 3641 2581 3239 2228 
Q 2838 1875 2053 1875 
L 1259 1875 
L 1259 0 
L 628 0 
L 628 4666 
z
" transform="scale(0.015625)"/>
       <path id="DejaVuSans-72" d="M 2631 2963 
Q 2534 3019 2420 3045 
Q 2306 3072 2169 3072 
Q 1681 3072 1420 2755 
Q 1159 2438 1159 1844 
L 1159 0 
L 581 0 
L 581 3500 
L 1159 3500 
L 1159 2956 
Q 1341 3275 1631 3429 
Q 1922 3584 2338 3584 
Q 2397 3584 2469 3576 
Q 2541 3569 2628 3553 
L 2631 2963 
z
" transform="scale(0.015625)"/>
       <path id="DejaVuSans-6f" d="M 1959 3097 
Q 1497 3097 1228 2736 
Q 959 2375 959 1747 
Q 959 1119 1226 758 
Q 1494 397 1959 397 
Q 2419 397 2687 759 
Q 2956 1122 2956 1747 
Q 2956 2369 2687 2733 
Q 2419 3097 1959 3097 
z
M 1959 3584 
Q 2709 3584 3137 3096 
Q 3566 2609 3566 1747 
Q 3566 888 3137 398 
Q 2709 -91 1959 -91 
Q 1206 -91 779 398 
Q 353 888 353 1747 
Q 353 2609 779 3096 
Q 1206 3584 1959 3584 
z
" transform="scale(0.015625)"/>
       <path id="DejaVuSans-70" d="M 1159 525 
L 1159 -1331 
L 581 -1331 
L 581 3500 
L 1159 3500 
L 1159 2969 
Q 1341 3281 1617 3432 
Q 1894 3584 2278 3584 
Q 2916 3584 3314 3078 
Q 3713 2572 3713 1747 
Q 3713 922 3314 415 
Q 2916 -91 2278 -91 
Q 1894 -91 1617 61 
Q 1341 213 1159 525 
z
M 3116 1747 
Q 3116 2381 2855 2742 
Q 2594 3103 2138 3103 
Q 1681 3103 1420 2742 
Q 1159 2381 1159 1747 
Q 1159 1113 1420 752 
Q 1681 391 2138 391 
Q 2594 391 2855 752 
Q 3116 1113 3116 1747 
z
" transform="scale(0.015625)"/>
       <path id="DejaVuSans-69" d="M 603 3500 
L 1178 3500 
L 1178 0 
L 603 0 
L 603 3500 
z
M 603 4863 
L 1178 4863 
L 1178 4134 
L 603 4134 
L 603 4863 
z
" transform="scale(0.015625)"/>
      </defs>
      <use xlink:href="#DejaVuSans-50"/>
      <use xlink:href="#DejaVuSans-72" x="58.552734"/>
      <use xlink:href="#DejaVuSans-6f" x="97.416016"/>
      <use xlink:href="#DejaVuSans-70" x="158.597656"/>
      <use xlink:href="#DejaVuSans-6f" x="222.074219"/>
      <use xlink:href="#DejaVuSans-72" x="283.255859"/>
      <use xlink:href="#DejaVuSans-74" x="324.369141"/>
      <use xlink:href="#DejaVuSans-69" x="363.578125"/>
      <use xlink:href="#DejaVuSans-6f" x="391.361328"/>
      <use xlink:href="#DejaVuSans-6e" x="452.542969"/>
     </g>
    </g>
   </g>
   <g id="patch_119">
    <path d="M 57.6 307.584 
L 57.6 41.472 
" style="fill: none; stroke: #000000; stroke-width: 0.8; stroke-linejoin: miter; stroke-linecap: square"/>
   </g>
   <g id="patch_120">
    <path d="M 414.72 307.584 
L 414.72 41.472 
" style="fill: none; stroke: #000000; stroke-width: 0.8; stroke-linejoin: miter; stroke-linecap: square"/>
   </g>
   <g id="patch_121">
    <path d="M 57.6 307.584 
L 414.72 307.584 
" style="fill: none; stroke: #000000; stroke-width: 0.8; stroke-linejoin: miter; stroke-linecap: square"/>
   </g>
   <g id="patch_122">
    <path d="M 57.6 41.472 
L 414.72 41.472 
" style="fill: none; stroke: #000000; stroke-width: 0.8; stroke-linejoin: miter; stroke-linecap: square"/>
   </g>
   <g id="text_15">
    <!-- Orchard (1986) -->
    <g transform="translate(190.2975 35.472) scale(0.12 -0.12)">
     <defs>
      <path id="DejaVuSans-4f" d="M 2522 4238 
Q 1834 4238 1429 3725 
Q 1025 3213 1025 2328 
Q 1025 1447 1429 934 
Q 1834 422 2522 422 
Q 3209 422 3611 934 
Q 4013 1447 4013 2328 
Q 4013 3213 3611 3725 
Q 3209 4238 2522 4238 
z
M 2522 4750 
Q 3503 4750 4090 4092 
Q 4678 3434 4678 2328 
Q 4678 1225 4090 567 
Q 3503 -91 2522 -91 
Q 1538 -91 948 565 
Q 359 1222 359 2328 
Q 359 3434 948 4092 
Q 1538 4750 2522 4750 
z
" transform="scale(0.015625)"/>
      <path id="DejaVuSans-63" d="M 3122 3366 
L 3122 2828 
Q 2878 2963 2633 3030 
Q 2388 3097 2138 3097 
Q 1578 3097 1268 2742 
Q 959 2388 959 1747 
Q 959 1106 1268 751 
Q 1578 397 2138 397 
Q 2388 397 2633 464 
Q 2878 531 3122 666 
L 3122 134 
Q 2881 22 2623 -34 
Q 2366 -91 2075 -91 
Q 1284 -91 818 406 
Q 353 903 353 1747 
Q 353 2603 823 3093 
Q 1294 3584 2113 3584 
Q 2378 3584 2631 3529 
Q 2884 3475 3122 3366 
z
" transform="scale(0.015625)"/>
      <path id="DejaVuSans-64" d="M 2906 2969 
L 2906 4863 
L 3481 4863 
L 3481 0 
L 2906 0 
L 2906 525 
Q 2725 213 2448 61 
Q 2172 -91 1784 -91 
Q 1150 -91 751 415 
Q 353 922 353 1747 
Q 353 2572 751 3078 
Q 1150 3584 1784 3584 
Q 2172 3584 2448 3432 
Q 2725 3281 2906 2969 
z
M 947 1747 
Q 947 1113 1208 752 
Q 1469 391 1925 391 
Q 2381 391 2643 752 
Q 2906 1113 2906 1747 
Q 2906 2381 2643 2742 
Q 2381 3103 1925 3103 
Q 1469 3103 1208 2742 
Q 947 2381 947 1747 
z
" transform="scale(0.015625)"/>
      <path id="DejaVuSans-28" d="M 1984 4856 
Q 1566 4138 1362 3434 
Q 1159 2731 1159 2009 
Q 1159 1288 1364 580 
Q 1569 -128 1984 -844 
L 1484 -844 
Q 1016 -109 783 600 
Q 550 1309 550 2009 
Q 550 2706 781 3412 
Q 1013 4119 1484 4856 
L 1984 4856 
z
" transform="scale(0.015625)"/>
      <path id="DejaVuSans-39" d="M 703 97 
L 703 672 
Q 941 559 1184 500 
Q 1428 441 1663 441 
Q 2288 441 2617 861 
Q 2947 1281 2994 2138 
Q 2813 1869 2534 1725 
Q 2256 1581 1919 1581 
Q 1219 1581 811 2004 
Q 403 2428 403 3163 
Q 403 3881 828 4315 
Q 1253 4750 1959 4750 
Q 2769 4750 3195 4129 
Q 3622 3509 3622 2328 
Q 3622 1225 3098 567 
Q 2575 -91 1691 -91 
Q 1453 -91 1209 -44 
Q 966 3 703 97 
z
M 1959 2075 
Q 2384 2075 2632 2365 
Q 2881 2656 2881 3163 
Q 2881 3666 2632 3958 
Q 2384 4250 1959 4250 
Q 1534 4250 1286 3958 
Q 1038 3666 1038 3163 
Q 1038 2656 1286 2365 
Q 1534 2075 1959 2075 
z
" transform="scale(0.015625)"/>
      <path id="DejaVuSans-29" d="M 513 4856 
L 1013 4856 
Q 1481 4119 1714 3412 
Q 1947 2706 1947 2009 
Q 1947 1309 1714 600 
Q 1481 -109 1013 -844 
L 513 -844 
Q 928 -128 1133 580 
Q 1338 1288 1338 2009 
Q 1338 2731 1133 3434 
Q 928 4138 513 4856 
z
" transform="scale(0.015625)"/>
     </defs>
     <use xlink:href="#DejaVuSans-4f"/>
     <use xlink:href="#DejaVuSans-72" x="78.710938"/>
     <use xlink:href="#DejaVuSans-63" x="117.574219"/>
     <use xlink:href="#DejaVuSans-68" x="172.554688"/>
     <use xlink:href="#DejaVuSans-61" x="235.933594"/>
     <use xlink:href="#DejaVuSans-72" x="297.212891"/>
     <use xlink:href="#DejaVuSans-64" x="336.576172"/>
     <use xlink:href="#DejaVuSans-20" x="400.052734"/>
     <use xlink:href="#DejaVuSans-28" x="431.839844"/>
     <use xlink:href="#DejaVuSans-31" x="470.853516"/>
     <use xlink:href="#DejaVuSans-39" x="534.476562"/>
     <use xlink:href="#DejaVuSans-38" x="598.099609"/>
     <use xlink:href="#DejaVuSans-36" x="661.722656"/>
     <use xlink:href="#DejaVuSans-29" x="725.345703"/>
    </g>
   </g>
   <g id="legend_1">
    <g id="patch_123">
     <path d="M 353.785625 93.506375 
L 407.72 93.506375 
Q 409.72 93.506375 409.72 91.506375 
L 409.72 48.472 
Q 409.72 46.472 407.72 46.472 
L 353.785625 46.472 
Q 351.785625 46.472 351.785625 48.472 
L 351.785625 91.506375 
Q 351.785625 93.506375 353.785625 93.506375 
z
" style="fill: #ffffff; opacity: 0.8; stroke: #cccccc; stroke-linejoin: miter"/>
    </g>
    <g id="text_16">
     <!-- Outcome -->
     <g transform="translate(357.9325 58.070438) scale(0.1 -0.1)">
      <defs>
       <path id="DejaVuSans-75" d="M 544 1381 
L 544 3500 
L 1119 3500 
L 1119 1403 
Q 1119 906 1312 657 
Q 1506 409 1894 409 
Q 2359 409 2629 706 
Q 2900 1003 2900 1516 
L 2900 3500 
L 3475 3500 
L 3475 0 
L 2900 0 
L 2900 538 
Q 2691 219 2414 64 
Q 2138 -91 1772 -91 
Q 1169 -91 856 284 
Q 544 659 544 1381 
z
M 1991 3584 
L 1991 3584 
z
" transform="scale(0.015625)"/>
      </defs>
      <use xlink:href="#DejaVuSans-4f"/>
      <use xlink:href="#DejaVuSans-75" x="78.710938"/>
      <use xlink:href="#DejaVuSans-74" x="142.089844"/>
      <use xlink:href="#DejaVuSans-63" x="181.298828"/>
      <use xlink:href="#DejaVuSans-6f" x="236.279297"/>
      <use xlink:href="#DejaVuSans-6d" x="297.460938"/>
      <use xlink:href="#DejaVuSans-65" x="394.873047"/>
     </g>
    </g>
    <g id="patch_124">
     <path d="M 355.785625 72.748563 
L 375.785625 72.748563 
L 375.785625 65.748563 
L 355.785625 65.748563 
z
" style="fill: #1f77b4; fill-opacity: 0.75; stroke: #000000; stroke-linejoin: miter"/>
    </g>
    <g id="text_17">
     <!-- Win -->
     <g transform="translate(383.785625 72.748563) scale(0.1 -0.1)">
      <defs>
       <path id="DejaVuSans-57" d="M 213 4666 
L 850 4666 
L 1831 722 
L 2809 4666 
L 3519 4666 
L 4500 722 
L 5478 4666 
L 6119 4666 
L 4947 0 
L 4153 0 
L 3169 4050 
L 2175 0 
L 1381 0 
L 213 4666 
z
" transform="scale(0.015625)"/>
      </defs>
      <use xlink:href="#DejaVuSans-57"/>
      <use xlink:href="#DejaVuSans-69" x="96.626953"/>
      <use xlink:href="#DejaVuSans-6e" x="124.410156"/>
     </g>
    </g>
    <g id="patch_125">
     <path d="M 355.785625 87.426688 
L 375.785625 87.426688 
L 375.785625 80.426688 
L 355.785625 80.426688 
z
" style="fill: #ff7f0e; fill-opacity: 0.75; stroke: #000000; stroke-linejoin: miter"/>
    </g>
    <g id="text_18">
     <!-- Loss -->
     <g transform="translate(383.785625 87.426688) scale(0.1 -0.1)">
      <defs>
       <path id="DejaVuSans-4c" d="M 628 4666 
L 1259 4666 
L 1259 531 
L 3531 531 
L 3531 0 
L 628 0 
L 628 4666 
z
" transform="scale(0.015625)"/>
       <path id="DejaVuSans-73" d="M 2834 3397 
L 2834 2853 
Q 2591 2978 2328 3040 
Q 2066 3103 1784 3103 
Q 1356 3103 1142 2972 
Q 928 2841 928 2578 
Q 928 2378 1081 2264 
Q 1234 2150 1697 2047 
L 1894 2003 
Q 2506 1872 2764 1633 
Q 3022 1394 3022 966 
Q 3022 478 2636 193 
Q 2250 -91 1575 -91 
Q 1294 -91 989 -36 
Q 684 19 347 128 
L 347 722 
Q 666 556 975 473 
Q 1284 391 1588 391 
Q 1994 391 2212 530 
Q 2431 669 2431 922 
Q 2431 1156 2273 1281 
Q 2116 1406 1581 1522 
L 1381 1569 
Q 847 1681 609 1914 
Q 372 2147 372 2553 
Q 372 3047 722 3315 
Q 1072 3584 1716 3584 
Q 2034 3584 2315 3537 
Q 2597 3491 2834 3397 
z
" transform="scale(0.015625)"/>
      </defs>
      <use xlink:href="#DejaVuSans-4c"/>
      <use xlink:href="#DejaVuSans-6f" x="53.962891"/>
      <use xlink:href="#DejaVuSans-73" x="115.144531"/>
      <use xlink:href="#DejaVuSans-73" x="167.244141"/>
     </g>
    </g>
   </g>
  </g>
 </g>
 <defs>
  <clipPath id="p3e996d65af">
   <rect x="57.6" y="41.472" width="357.12" height="266.112"/>
  </clipPath>
 </defs>
</svg>
