<?xml version="1.0" encoding="utf-8" standalone="no"?>
<!DOCTYPE svg PUBLIC "-//W3C//DTD SVG 1.1//EN"
  "http://www.w3.org/Graphics/SVG/1.1/DTD/svg11.dtd">
<svg xmlns:xlink="http://www.w3.org/1999/xlink" width="432pt" height="288pt" viewBox="0 0 432 288" xmlns="http://www.w3.org/2000/svg" version="1.1">
 <metadata>
  <rdf:RDF xmlns:dc="http://purl.org/dc/elements/1.1/" xmlns:cc="http://creativecommons.org/ns#" xmlns:rdf="http://www.w3.org/1999/02/22-rdf-syntax-ns#">
   <cc:Work>
    <dc:type rdf:resource="http://purl.org/dc/dcmitype/StillImage"/>
    <dc:date>2024-08-12T23:29:00.192456</dc:date>
    <dc:format>image/svg+xml</dc:format>
    <dc:creator>
     <cc:Agent>
      <dc:title>Matplotlib v3.9.1.post1, https://matplotlib.org/</dc:title>
     </cc:Agent>
    </dc:creator>
   </cc:Work>
  </rdf:RDF>
 </metadata>
 <defs>
  <style type="text/css">*{stroke-linejoin: round; stroke-linecap: butt}</style>
 </defs>
 <g id="figure_1">
  <g id="patch_1">
   <path d="M 0 288 
L 432 288 
L 432 0 
L 0 0 
z
" style="fill: #ffffff"/>
  </g>
  <g id="axes_1">
   <g id="patch_2">
    <path d="M 37.24 260.12 
L 421.2 260.12 
L 421.2 25.49625 
L 37.24 25.49625 
z
" style="fill: #eaeaf2"/>
   </g>
   <g id="matplotlib.axis_1">
    <g id="xtick_1">
     <g id="text_1">
      <!-- 1970 -->
      <g style="fill: #262626" transform="translate(43.570852 274.277812) scale(0.1 -0.1)">
       <defs>
        <path id="ArialMT-31" d="M 2384 0 
L 1822 0 
L 1822 3584 
Q 1619 3391 1289 3197 
Q 959 3003 697 2906 
L 697 3450 
Q 1169 3672 1522 3987 
Q 1875 4303 2022 4600 
L 2384 4600 
L 2384 0 
z
" transform="scale(0.015625)"/>
        <path id="ArialMT-39" d="M 350 1059 
L 891 1109 
Q 959 728 1153 556 
Q 1347 384 1650 384 
Q 1909 384 2104 503 
Q 2300 622 2425 820 
Q 2550 1019 2634 1356 
Q 2719 1694 2719 2044 
Q 2719 2081 2716 2156 
Q 2547 1888 2255 1720 
Q 1963 1553 1622 1553 
Q 1053 1553 659 1965 
Q 266 2378 266 3053 
Q 266 3750 677 4175 
Q 1088 4600 1706 4600 
Q 2153 4600 2523 4359 
Q 2894 4119 3086 3673 
Q 3278 3228 3278 2384 
Q 3278 1506 3087 986 
Q 2897 466 2520 194 
Q 2144 -78 1638 -78 
Q 1100 -78 759 220 
Q 419 519 350 1059 
z
M 2653 3081 
Q 2653 3566 2395 3850 
Q 2138 4134 1775 4134 
Q 1400 4134 1122 3828 
Q 844 3522 844 3034 
Q 844 2597 1108 2323 
Q 1372 2050 1759 2050 
Q 2150 2050 2401 2323 
Q 2653 2597 2653 3081 
z
" transform="scale(0.015625)"/>
        <path id="ArialMT-37" d="M 303 3981 
L 303 4522 
L 3269 4522 
L 3269 4084 
Q 2831 3619 2401 2847 
Q 1972 2075 1738 1259 
Q 1569 684 1522 0 
L 944 0 
Q 953 541 1156 1306 
Q 1359 2072 1739 2783 
Q 2119 3494 2547 3981 
L 303 3981 
z
" transform="scale(0.015625)"/>
        <path id="ArialMT-30" d="M 266 2259 
Q 266 3072 433 3567 
Q 600 4063 929 4331 
Q 1259 4600 1759 4600 
Q 2128 4600 2406 4451 
Q 2684 4303 2865 4023 
Q 3047 3744 3150 3342 
Q 3253 2941 3253 2259 
Q 3253 1453 3087 958 
Q 2922 463 2592 192 
Q 2263 -78 1759 -78 
Q 1097 -78 719 397 
Q 266 969 266 2259 
z
M 844 2259 
Q 844 1131 1108 757 
Q 1372 384 1759 384 
Q 2147 384 2411 759 
Q 2675 1134 2675 2259 
Q 2675 3391 2411 3762 
Q 2147 4134 1753 4134 
Q 1366 4134 1134 3806 
Q 844 3388 844 2259 
z
" transform="scale(0.015625)"/>
       </defs>
       <use xlink:href="#ArialMT-31"/>
       <use xlink:href="#ArialMT-39" x="55.615234"/>
       <use xlink:href="#ArialMT-37" x="111.230469"/>
       <use xlink:href="#ArialMT-30" x="166.845703"/>
      </g>
     </g>
    </g>
    <g id="xtick_2">
     <g id="text_2">
      <!-- 1980 -->
      <g style="fill: #262626" transform="translate(109.4302 274.277812) scale(0.1 -0.1)">
       <defs>
        <path id="ArialMT-38" d="M 1131 2484 
Q 781 2613 612 2850 
Q 444 3088 444 3419 
Q 444 3919 803 4259 
Q 1163 4600 1759 4600 
Q 2359 4600 2725 4251 
Q 3091 3903 3091 3403 
Q 3091 3084 2923 2848 
Q 2756 2613 2416 2484 
Q 2838 2347 3058 2040 
Q 3278 1734 3278 1309 
Q 3278 722 2862 322 
Q 2447 -78 1769 -78 
Q 1091 -78 675 323 
Q 259 725 259 1325 
Q 259 1772 486 2073 
Q 713 2375 1131 2484 
z
M 1019 3438 
Q 1019 3113 1228 2906 
Q 1438 2700 1772 2700 
Q 2097 2700 2305 2904 
Q 2513 3109 2513 3406 
Q 2513 3716 2298 3927 
Q 2084 4138 1766 4138 
Q 1444 4138 1231 3931 
Q 1019 3725 1019 3438 
z
M 838 1322 
Q 838 1081 952 856 
Q 1066 631 1291 507 
Q 1516 384 1775 384 
Q 2178 384 2440 643 
Q 2703 903 2703 1303 
Q 2703 1709 2433 1975 
Q 2163 2241 1756 2241 
Q 1359 2241 1098 1978 
Q 838 1716 838 1322 
z
" transform="scale(0.015625)"/>
       </defs>
       <use xlink:href="#ArialMT-31"/>
       <use xlink:href="#ArialMT-39" x="55.615234"/>
       <use xlink:href="#ArialMT-38" x="111.230469"/>
       <use xlink:href="#ArialMT-30" x="166.845703"/>
      </g>
     </g>
    </g>
    <g id="xtick_3">
     <g id="text_3">
      <!-- 1990 -->
      <g style="fill: #262626" transform="translate(175.289549 274.277812) scale(0.1 -0.1)">
       <use xlink:href="#ArialMT-31"/>
       <use xlink:href="#ArialMT-39" x="55.615234"/>
       <use xlink:href="#ArialMT-39" x="111.230469"/>
       <use xlink:href="#ArialMT-30" x="166.845703"/>
      </g>
     </g>
    </g>
    <g id="xtick_4">
     <g id="text_4">
      <!-- 2000 -->
      <g style="fill: #262626" transform="translate(241.148897 274.277812) scale(0.1 -0.1)">
       <defs>
        <path id="ArialMT-32" d="M 3222 541 
L 3222 0 
L 194 0 
Q 188 203 259 391 
Q 375 700 629 1000 
Q 884 1300 1366 1694 
Q 2113 2306 2375 2664 
Q 2638 3022 2638 3341 
Q 2638 3675 2398 3904 
Q 2159 4134 1775 4134 
Q 1369 4134 1125 3890 
Q 881 3647 878 3216 
L 300 3275 
Q 359 3922 746 4261 
Q 1134 4600 1788 4600 
Q 2447 4600 2831 4234 
Q 3216 3869 3216 3328 
Q 3216 3053 3103 2787 
Q 2991 2522 2730 2228 
Q 2469 1934 1863 1422 
Q 1356 997 1212 845 
Q 1069 694 975 541 
L 3222 541 
z
" transform="scale(0.015625)"/>
       </defs>
       <use xlink:href="#ArialMT-32"/>
       <use xlink:href="#ArialMT-30" x="55.615234"/>
       <use xlink:href="#ArialMT-30" x="111.230469"/>
       <use xlink:href="#ArialMT-30" x="166.845703"/>
      </g>
     </g>
    </g>
    <g id="xtick_5">
     <g id="text_5">
      <!-- 2010 -->
      <g style="fill: #262626" transform="translate(307.008245 274.277812) scale(0.1 -0.1)">
       <use xlink:href="#ArialMT-32"/>
       <use xlink:href="#ArialMT-30" x="55.615234"/>
       <use xlink:href="#ArialMT-31" x="111.230469"/>
       <use xlink:href="#ArialMT-30" x="166.845703"/>
      </g>
     </g>
    </g>
    <g id="xtick_6">
     <g id="text_6">
      <!-- 2020 -->
      <g style="fill: #262626" transform="translate(372.867593 274.277812) scale(0.1 -0.1)">
       <use xlink:href="#ArialMT-32"/>
       <use xlink:href="#ArialMT-30" x="55.615234"/>
       <use xlink:href="#ArialMT-32" x="111.230469"/>
       <use xlink:href="#ArialMT-30" x="166.845703"/>
      </g>
     </g>
    </g>
   </g>
   <g id="matplotlib.axis_2">
    <g id="ytick_1">
     <g id="text_7">
      <!-- 5.75 -->
      <g style="fill: #262626" transform="translate(10.779063 245.352708) scale(0.1 -0.1)">
       <defs>
        <path id="ArialMT-35" d="M 266 1200 
L 856 1250 
Q 922 819 1161 601 
Q 1400 384 1738 384 
Q 2144 384 2425 690 
Q 2706 997 2706 1503 
Q 2706 1984 2436 2262 
Q 2166 2541 1728 2541 
Q 1456 2541 1237 2417 
Q 1019 2294 894 2097 
L 366 2166 
L 809 4519 
L 3088 4519 
L 3088 3981 
L 1259 3981 
L 1013 2750 
Q 1425 3038 1878 3038 
Q 2478 3038 2890 2622 
Q 3303 2206 3303 1553 
Q 3303 931 2941 478 
Q 2500 -78 1738 -78 
Q 1113 -78 717 272 
Q 322 622 266 1200 
z
" transform="scale(0.015625)"/>
        <path id="ArialMT-2e" d="M 581 0 
L 581 641 
L 1222 641 
L 1222 0 
L 581 0 
z
" transform="scale(0.015625)"/>
       </defs>
       <use xlink:href="#ArialMT-35"/>
       <use xlink:href="#ArialMT-2e" x="55.615234"/>
       <use xlink:href="#ArialMT-37" x="83.398438"/>
       <use xlink:href="#ArialMT-35" x="139.013672"/>
      </g>
     </g>
    </g>
    <g id="ytick_2">
     <g id="text_8">
      <!-- 6.00 -->
      <g style="fill: #262626" transform="translate(10.779063 217.800819) scale(0.1 -0.1)">
       <defs>
        <path id="ArialMT-36" d="M 3184 3459 
L 2625 3416 
Q 2550 3747 2413 3897 
Q 2184 4138 1850 4138 
Q 1581 4138 1378 3988 
Q 1113 3794 959 3422 
Q 806 3050 800 2363 
Q 1003 2672 1297 2822 
Q 1591 2972 1913 2972 
Q 2475 2972 2870 2558 
Q 3266 2144 3266 1488 
Q 3266 1056 3080 686 
Q 2894 316 2569 119 
Q 2244 -78 1831 -78 
Q 1128 -78 684 439 
Q 241 956 241 2144 
Q 241 3472 731 4075 
Q 1159 4600 1884 4600 
Q 2425 4600 2770 4297 
Q 3116 3994 3184 3459 
z
M 888 1484 
Q 888 1194 1011 928 
Q 1134 663 1356 523 
Q 1578 384 1822 384 
Q 2178 384 2434 671 
Q 2691 959 2691 1453 
Q 2691 1928 2437 2201 
Q 2184 2475 1800 2475 
Q 1419 2475 1153 2201 
Q 888 1928 888 1484 
z
" transform="scale(0.015625)"/>
       </defs>
       <use xlink:href="#ArialMT-36"/>
       <use xlink:href="#ArialMT-2e" x="55.615234"/>
       <use xlink:href="#ArialMT-30" x="83.398438"/>
       <use xlink:href="#ArialMT-30" x="139.013672"/>
      </g>
     </g>
    </g>
    <g id="ytick_3">
     <g id="text_9">
      <!-- 6.25 -->
      <g style="fill: #262626" transform="translate(10.779063 190.248929) scale(0.1 -0.1)">
       <use xlink:href="#ArialMT-36"/>
       <use xlink:href="#ArialMT-2e" x="55.615234"/>
       <use xlink:href="#ArialMT-32" x="83.398438"/>
       <use xlink:href="#ArialMT-35" x="139.013672"/>
      </g>
     </g>
    </g>
    <g id="ytick_4">
     <g id="text_10">
      <!-- 6.50 -->
      <g style="fill: #262626" transform="translate(10.779063 162.697039) scale(0.1 -0.1)">
       <use xlink:href="#ArialMT-36"/>
       <use xlink:href="#ArialMT-2e" x="55.615234"/>
       <use xlink:href="#ArialMT-35" x="83.398438"/>
       <use xlink:href="#ArialMT-30" x="139.013672"/>
      </g>
     </g>
    </g>
    <g id="ytick_5">
     <g id="text_11">
      <!-- 6.75 -->
      <g style="fill: #262626" transform="translate(10.779063 135.14515) scale(0.1 -0.1)">
       <use xlink:href="#ArialMT-36"/>
       <use xlink:href="#ArialMT-2e" x="55.615234"/>
       <use xlink:href="#ArialMT-37" x="83.398438"/>
       <use xlink:href="#ArialMT-35" x="139.013672"/>
      </g>
     </g>
    </g>
    <g id="ytick_6">
     <g id="text_12">
      <!-- 7.00 -->
      <g style="fill: #262626" transform="translate(10.779063 107.59326) scale(0.1 -0.1)">
       <use xlink:href="#ArialMT-37"/>
       <use xlink:href="#ArialMT-2e" x="55.615234"/>
       <use xlink:href="#ArialMT-30" x="83.398438"/>
       <use xlink:href="#ArialMT-30" x="139.013672"/>
      </g>
     </g>
    </g>
    <g id="ytick_7">
     <g id="text_13">
      <!-- 7.25 -->
      <g style="fill: #262626" transform="translate(10.779063 80.041371) scale(0.1 -0.1)">
       <use xlink:href="#ArialMT-37"/>
       <use xlink:href="#ArialMT-2e" x="55.615234"/>
       <use xlink:href="#ArialMT-32" x="83.398438"/>
       <use xlink:href="#ArialMT-35" x="139.013672"/>
      </g>
     </g>
    </g>
    <g id="ytick_8">
     <g id="text_14">
      <!-- 7.50 -->
      <g style="fill: #262626" transform="translate(10.779063 52.489481) scale(0.1 -0.1)">
       <use xlink:href="#ArialMT-37"/>
       <use xlink:href="#ArialMT-2e" x="55.615234"/>
       <use xlink:href="#ArialMT-35" x="83.398438"/>
       <use xlink:href="#ArialMT-30" x="139.013672"/>
      </g>
     </g>
    </g>
   </g>
   <g id="PathCollection_1">
    <path d="M 54.692727 233.60701 
C 54.761731 233.60701 54.827918 233.579595 54.876711 233.530802 
C 54.925504 233.482009 54.95292 233.415822 54.95292 233.346818 
C 54.95292 233.277814 54.925504 233.211627 54.876711 233.162834 
C 54.827918 233.114041 54.761731 233.086626 54.692727 233.086626 
C 54.623723 233.086626 54.557537 233.114041 54.508743 233.162834 
C 54.45995 233.211627 54.432535 233.277814 54.432535 233.346818 
C 54.432535 233.415822 54.45995 233.482009 54.508743 233.530802 
C 54.557537 233.579595 54.623723 233.60701 54.692727 233.60701 
z
" clip-path="url(#p572a350c3b)" style="fill: #800080; fill-opacity: 0.8; stroke: #800080; stroke-opacity: 0.8"/>
    <path d="M 61.278662 249.962892 
C 61.413281 249.962892 61.542405 249.909407 61.637595 249.814217 
C 61.732785 249.719027 61.78627 249.589903 61.78627 249.455284 
C 61.78627 249.320665 61.732785 249.191541 61.637595 249.096351 
C 61.542405 249.001161 61.413281 248.947676 61.278662 248.947676 
C 61.144043 248.947676 61.014919 249.001161 60.919729 249.096351 
C 60.824539 249.191541 60.771054 249.320665 60.771054 249.455284 
C 60.771054 249.589903 60.824539 249.719027 60.919729 249.814217 
C 61.014919 249.909407 61.144043 249.962892 61.278662 249.962892 
z
" clip-path="url(#p572a350c3b)" style="fill: #800080; fill-opacity: 0.8; stroke: #800080; stroke-opacity: 0.8"/>
    <path d="M 67.864597 217.33721 
C 67.959093 217.33721 68.049732 217.299666 68.116551 217.232847 
C 68.18337 217.166028 68.220914 217.075389 68.220914 216.980893 
C 68.220914 216.886397 68.18337 216.795758 68.116551 216.728939 
C 68.049732 216.66212 67.959093 216.624576 67.864597 216.624576 
C 67.770101 216.624576 67.679462 216.66212 67.612643 216.728939 
C 67.545824 216.795758 67.50828 216.886397 67.50828 216.980893 
C 67.50828 217.075389 67.545824 217.166028 67.612643 217.232847 
C 67.679462 217.299666 67.770101 217.33721 67.864597 217.33721 
z
" clip-path="url(#p572a350c3b)" style="fill: #800080; fill-opacity: 0.8; stroke: #800080; stroke-opacity: 0.8"/>
    <path d="M 74.450532 205.826894 
C 74.546362 205.826894 74.63828 205.78882 74.706042 205.721058 
C 74.773804 205.653296 74.811878 205.561378 74.811878 205.465548 
C 74.811878 205.369717 74.773804 205.277799 74.706042 205.210037 
C 74.63828 205.142275 74.546362 205.104201 74.450532 205.104201 
C 74.354702 205.104201 74.262783 205.142275 74.195021 205.210037 
C 74.127259 205.277799 74.089185 205.369717 74.089185 205.465548 
C 74.089185 205.561378 74.127259 205.653296 74.195021 205.721058 
C 74.262783 205.78882 74.354702 205.826894 74.450532 205.826894 
z
" clip-path="url(#p572a350c3b)" style="fill: #800080; fill-opacity: 0.8; stroke: #800080; stroke-opacity: 0.8"/>
    <path d="M 81.036467 211.585529 
C 81.154161 211.585529 81.267052 211.538769 81.350275 211.455546 
C 81.433497 211.372323 81.480258 211.259433 81.480258 211.141738 
C 81.480258 211.024043 81.433497 210.911152 81.350275 210.82793 
C 81.267052 210.744707 81.154161 210.697946 81.036467 210.697946 
C 80.918772 210.697946 80.805881 210.744707 80.722658 210.82793 
C 80.639436 210.911152 80.592675 211.024043 80.592675 211.141738 
C 80.592675 211.259433 80.639436 211.372323 80.722658 211.455546 
C 80.805881 211.538769 80.918772 211.585529 81.036467 211.585529 
z
" clip-path="url(#p572a350c3b)" style="fill: #800080; fill-opacity: 0.8; stroke: #800080; stroke-opacity: 0.8"/>
    <path d="M 87.622401 227.732104 
C 87.731308 227.732104 87.83577 227.688834 87.912779 227.611825 
C 87.989788 227.534817 88.033057 227.430355 88.033057 227.321448 
C 88.033057 227.212541 87.989788 227.10808 87.912779 227.031071 
C 87.83577 226.954062 87.731308 226.910793 87.622401 226.910793 
C 87.513494 226.910793 87.409033 226.954062 87.332024 227.031071 
C 87.255015 227.10808 87.211746 227.212541 87.211746 227.321448 
C 87.211746 227.430355 87.255015 227.534817 87.332024 227.611825 
C 87.409033 227.688834 87.513494 227.732104 87.622401 227.732104 
z
" clip-path="url(#p572a350c3b)" style="fill: #800080; fill-opacity: 0.8; stroke: #800080; stroke-opacity: 0.8"/>
    <path d="M 94.208336 189.829151 
C 94.287502 189.829151 94.363436 189.797698 94.419414 189.74172 
C 94.475393 189.685741 94.506846 189.609807 94.506846 189.530642 
C 94.506846 189.451476 94.475393 189.375542 94.419414 189.319563 
C 94.363436 189.263585 94.287502 189.232132 94.208336 189.232132 
C 94.129171 189.232132 94.053237 189.263585 93.997258 189.319563 
C 93.94128 189.375542 93.909827 189.451476 93.909827 189.530642 
C 93.909827 189.609807 93.94128 189.685741 93.997258 189.74172 
C 94.053237 189.797698 94.129171 189.829151 94.208336 189.829151 
z
" clip-path="url(#p572a350c3b)" style="fill: #800080; fill-opacity: 0.8; stroke: #800080; stroke-opacity: 0.8"/>
    <path d="M 100.794271 172.390695 
C 100.948486 172.390695 101.096405 172.329425 101.205451 172.220378 
C 101.314498 172.111332 101.375768 171.963413 101.375768 171.809198 
C 101.375768 171.654983 101.314498 171.507064 101.205451 171.398018 
C 101.096405 171.288972 100.948486 171.227702 100.794271 171.227702 
C 100.640056 171.227702 100.492137 171.288972 100.383091 171.398018 
C 100.274045 171.507064 100.212774 171.654983 100.212774 171.809198 
C 100.212774 171.963413 100.274045 172.111332 100.383091 172.220378 
C 100.492137 172.329425 100.640056 172.390695 100.794271 172.390695 
z
" clip-path="url(#p572a350c3b)" style="fill: #800080; fill-opacity: 0.8; stroke: #800080; stroke-opacity: 0.8"/>
    <path d="M 107.380206 224.671032 
C 107.47765 224.671032 107.571116 224.632317 107.640019 224.563414 
C 107.708923 224.49451 107.747638 224.401044 107.747638 224.3036 
C 107.747638 224.206156 107.708923 224.11269 107.640019 224.043786 
C 107.571116 223.974883 107.47765 223.936168 107.380206 223.936168 
C 107.282762 223.936168 107.189296 223.974883 107.120392 224.043786 
C 107.051489 224.11269 107.012774 224.206156 107.012774 224.3036 
C 107.012774 224.401044 107.051489 224.49451 107.120392 224.563414 
C 107.189296 224.632317 107.282762 224.671032 107.380206 224.671032 
z
" clip-path="url(#p572a350c3b)" style="fill: #800080; fill-opacity: 0.8; stroke: #800080; stroke-opacity: 0.8"/>
    <path d="M 113.966141 177.520708 
C 114.111528 177.520708 114.25098 177.462945 114.353784 177.360141 
C 114.456588 177.257337 114.514351 177.117885 114.514351 176.972497 
C 114.514351 176.82711 114.456588 176.687658 114.353784 176.584854 
C 114.25098 176.48205 114.111528 176.424287 113.966141 176.424287 
C 113.820753 176.424287 113.681301 176.48205 113.578497 176.584854 
C 113.475693 176.687658 113.41793 176.82711 113.41793 176.972497 
C 113.41793 177.117885 113.475693 177.257337 113.578497 177.360141 
C 113.681301 177.462945 113.820753 177.520708 113.966141 177.520708 
z
" clip-path="url(#p572a350c3b)" style="fill: #800080; fill-opacity: 0.8; stroke: #800080; stroke-opacity: 0.8"/>
    <path d="M 120.552075 136.924426 
C 120.693516 136.924426 120.829183 136.868231 120.929196 136.768217 
C 121.02921 136.668203 121.085405 136.532537 121.085405 136.391096 
C 121.085405 136.249655 121.02921 136.113989 120.929196 136.013975 
C 120.829183 135.913961 120.693516 135.857767 120.552075 135.857767 
C 120.410635 135.857767 120.274968 135.913961 120.174955 136.013975 
C 120.074941 136.113989 120.018746 136.249655 120.018746 136.391096 
C 120.018746 136.532537 120.074941 136.668203 120.174955 136.768217 
C 120.274968 136.868231 120.410635 136.924426 120.552075 136.924426 
z
" clip-path="url(#p572a350c3b)" style="fill: #800080; fill-opacity: 0.8; stroke: #800080; stroke-opacity: 0.8"/>
    <path d="M 127.13801 193.355903 
C 127.280513 193.355903 127.417197 193.299286 127.517962 193.198522 
C 127.618726 193.097758 127.675343 192.961073 127.675343 192.818571 
C 127.675343 192.676068 127.618726 192.539384 127.517962 192.438619 
C 127.417197 192.337855 127.280513 192.281238 127.13801 192.281238 
C 126.995508 192.281238 126.858823 192.337855 126.758059 192.438619 
C 126.657295 192.539384 126.600678 192.676068 126.600678 192.818571 
C 126.600678 192.961073 126.657295 193.097758 126.758059 193.198522 
C 126.858823 193.299286 126.995508 193.355903 127.13801 193.355903 
z
" clip-path="url(#p572a350c3b)" style="fill: #800080; fill-opacity: 0.8; stroke: #800080; stroke-opacity: 0.8"/>
    <path d="M 133.723945 141.476279 
C 133.917909 141.476279 134.103954 141.399217 134.241107 141.262064 
C 134.37826 141.124911 134.455323 140.938865 134.455323 140.744901 
C 134.455323 140.550938 134.37826 140.364892 134.241107 140.227739 
C 134.103954 140.090586 133.917909 140.013523 133.723945 140.013523 
C 133.529981 140.013523 133.343936 140.090586 133.206783 140.227739 
C 133.06963 140.364892 132.992567 140.550938 132.992567 140.744901 
C 132.992567 140.938865 133.06963 141.124911 133.206783 141.262064 
C 133.343936 141.399217 133.529981 141.476279 133.723945 141.476279 
z
" clip-path="url(#p572a350c3b)" style="fill: #800080; fill-opacity: 0.8; stroke: #800080; stroke-opacity: 0.8"/>
    <path d="M 140.30988 186.417123 
C 140.478868 186.417123 140.640957 186.349984 140.760449 186.230492 
C 140.879941 186.110999 140.947081 185.94891 140.947081 185.779923 
C 140.947081 185.610935 140.879941 185.448846 140.760449 185.329354 
C 140.640957 185.209861 140.478868 185.142722 140.30988 185.142722 
C 140.140892 185.142722 139.978803 185.209861 139.859311 185.329354 
C 139.739819 185.448846 139.672679 185.610935 139.672679 185.779923 
C 139.672679 185.94891 139.739819 186.110999 139.859311 186.230492 
C 139.978803 186.349984 140.140892 186.417123 140.30988 186.417123 
z
" clip-path="url(#p572a350c3b)" style="fill: #800080; fill-opacity: 0.8; stroke: #800080; stroke-opacity: 0.8"/>
    <path d="M 146.895815 171.360726 
C 147.018926 171.360726 147.137011 171.311813 147.224064 171.22476 
C 147.311116 171.137708 147.360029 171.019623 147.360029 170.896512 
C 147.360029 170.773401 147.311116 170.655315 147.224064 170.568263 
C 147.137011 170.48121 147.018926 170.432298 146.895815 170.432298 
C 146.772704 170.432298 146.654619 170.48121 146.567566 170.568263 
C 146.480513 170.655315 146.431601 170.773401 146.431601 170.896512 
C 146.431601 171.019623 146.480513 171.137708 146.567566 171.22476 
C 146.654619 171.311813 146.772704 171.360726 146.895815 171.360726 
z
" clip-path="url(#p572a350c3b)" style="fill: #800080; fill-opacity: 0.8; stroke: #800080; stroke-opacity: 0.8"/>
    <path d="M 153.48175 164.486008 
C 153.620892 164.486008 153.754355 164.430726 153.852743 164.332337 
C 153.951132 164.233949 154.006414 164.100486 154.006414 163.961344 
C 154.006414 163.822201 153.951132 163.688739 153.852743 163.59035 
C 153.754355 163.491962 153.620892 163.43668 153.48175 163.43668 
C 153.342607 163.43668 153.209145 163.491962 153.110756 163.59035 
C 153.012367 163.688739 152.957085 163.822201 152.957085 163.961344 
C 152.957085 164.100486 153.012367 164.233949 153.110756 164.332337 
C 153.209145 164.430726 153.342607 164.486008 153.48175 164.486008 
z
" clip-path="url(#p572a350c3b)" style="fill: #800080; fill-opacity: 0.8; stroke: #800080; stroke-opacity: 0.8"/>
    <path d="M 160.067684 150.471196 
C 160.241532 150.471196 160.408283 150.402125 160.531212 150.279196 
C 160.654142 150.156267 160.723212 149.989516 160.723212 149.815668 
C 160.723212 149.64182 160.654142 149.475069 160.531212 149.35214 
C 160.408283 149.229211 160.241532 149.16014 160.067684 149.16014 
C 159.893836 149.16014 159.727085 149.229211 159.604156 149.35214 
C 159.481227 149.475069 159.412157 149.64182 159.412157 149.815668 
C 159.412157 149.989516 159.481227 150.156267 159.604156 150.279196 
C 159.727085 150.402125 159.893836 150.471196 160.067684 150.471196 
z
" clip-path="url(#p572a350c3b)" style="fill: #800080; fill-opacity: 0.8; stroke: #800080; stroke-opacity: 0.8"/>
    <path d="M 166.653619 184.745281 
C 166.789739 184.745281 166.920302 184.6912 167.016553 184.594949 
C 167.112805 184.498698 167.166886 184.368135 167.166886 184.232015 
C 167.166886 184.095895 167.112805 183.965332 167.016553 183.869081 
C 166.920302 183.772829 166.789739 183.718748 166.653619 183.718748 
C 166.517499 183.718748 166.386936 183.772829 166.290685 183.869081 
C 166.194434 183.965332 166.140353 184.095895 166.140353 184.232015 
C 166.140353 184.368135 166.194434 184.498698 166.290685 184.594949 
C 166.386936 184.6912 166.517499 184.745281 166.653619 184.745281 
z
" clip-path="url(#p572a350c3b)" style="fill: #800080; fill-opacity: 0.8; stroke: #800080; stroke-opacity: 0.8"/>
    <path d="M 173.239554 184.396028 
C 173.396486 184.396028 173.547012 184.333678 173.65798 184.22271 
C 173.768947 184.111742 173.831297 183.961217 173.831297 183.804284 
C 173.831297 183.647352 173.768947 183.496827 173.65798 183.385859 
C 173.547012 183.274891 173.396486 183.212541 173.239554 183.212541 
C 173.082622 183.212541 172.932096 183.274891 172.821128 183.385859 
C 172.710161 183.496827 172.647811 183.647352 172.647811 183.804284 
C 172.647811 183.961217 172.710161 184.111742 172.821128 184.22271 
C 172.932096 184.333678 173.082622 184.396028 173.239554 184.396028 
z
" clip-path="url(#p572a350c3b)" style="fill: #800080; fill-opacity: 0.8; stroke: #800080; stroke-opacity: 0.8"/>
    <path d="M 179.825489 164.828122 
C 179.990006 164.828122 180.147806 164.762759 180.264137 164.646428 
C 180.380468 164.530097 180.445831 164.372297 180.445831 164.20778 
C 180.445831 164.043263 180.380468 163.885463 180.264137 163.769132 
C 180.147806 163.652801 179.990006 163.587438 179.825489 163.587438 
C 179.660972 163.587438 179.503171 163.652801 179.386841 163.769132 
C 179.27051 163.885463 179.205147 164.043263 179.205147 164.20778 
C 179.205147 164.372297 179.27051 164.530097 179.386841 164.646428 
C 179.503171 164.762759 179.660972 164.828122 179.825489 164.828122 
z
" clip-path="url(#p572a350c3b)" style="fill: #800080; fill-opacity: 0.8; stroke: #800080; stroke-opacity: 0.8"/>
    <path d="M 186.411424 180.443184 
C 186.556928 180.443184 186.696492 180.385375 186.799379 180.282488 
C 186.902267 180.179601 186.960076 180.040036 186.960076 179.894532 
C 186.960076 179.749028 186.902267 179.609463 186.799379 179.506576 
C 186.696492 179.403689 186.556928 179.34588 186.411424 179.34588 
C 186.265919 179.34588 186.126355 179.403689 186.023468 179.506576 
C 185.920581 179.609463 185.862771 179.749028 185.862771 179.894532 
C 185.862771 180.040036 185.920581 180.179601 186.023468 180.282488 
C 186.126355 180.385375 186.265919 180.443184 186.411424 180.443184 
z
" clip-path="url(#p572a350c3b)" style="fill: #800080; fill-opacity: 0.8; stroke: #800080; stroke-opacity: 0.8"/>
    <path d="M 192.997358 154.87393 
C 193.165301 154.87393 193.326388 154.807206 193.445142 154.688452 
C 193.563896 154.569698 193.63062 154.408611 193.63062 154.240669 
C 193.63062 154.072726 193.563896 153.911639 193.445142 153.792885 
C 193.326388 153.674131 193.165301 153.607407 192.997358 153.607407 
C 192.829416 153.607407 192.668329 153.674131 192.549575 153.792885 
C 192.430821 153.911639 192.364097 154.072726 192.364097 154.240669 
C 192.364097 154.408611 192.430821 154.569698 192.549575 154.688452 
C 192.668329 154.807206 192.829416 154.87393 192.997358 154.87393 
z
" clip-path="url(#p572a350c3b)" style="fill: #800080; fill-opacity: 0.8; stroke: #800080; stroke-opacity: 0.8"/>
    <path d="M 199.583293 145.376233 
C 199.77229 145.376233 199.953571 145.301144 200.087212 145.167504 
C 200.220853 145.033863 200.295942 144.852582 200.295942 144.663585 
C 200.295942 144.474588 200.220853 144.293307 200.087212 144.159667 
C 199.953571 144.026026 199.77229 143.950937 199.583293 143.950937 
C 199.394297 143.950937 199.213016 144.026026 199.079375 144.159667 
C 198.945734 144.293307 198.870645 144.474588 198.870645 144.663585 
C 198.870645 144.852582 198.945734 145.033863 199.079375 145.167504 
C 199.213016 145.301144 199.394297 145.376233 199.583293 145.376233 
z
" clip-path="url(#p572a350c3b)" style="fill: #800080; fill-opacity: 0.8; stroke: #800080; stroke-opacity: 0.8"/>
    <path d="M 206.169228 132.347051 
C 206.368427 132.347051 206.559494 132.267909 206.700349 132.127054 
C 206.841204 131.986199 206.920347 131.795131 206.920347 131.595932 
C 206.920347 131.396733 206.841204 131.205666 206.700349 131.064811 
C 206.559494 130.923956 206.368427 130.844813 206.169228 130.844813 
C 205.970029 130.844813 205.778962 130.923956 205.638107 131.064811 
C 205.497252 131.205666 205.418109 131.396733 205.418109 131.595932 
C 205.418109 131.795131 205.497252 131.986199 205.638107 132.127054 
C 205.778962 132.267909 205.970029 132.347051 206.169228 132.347051 
z
" clip-path="url(#p572a350c3b)" style="fill: #800080; fill-opacity: 0.8; stroke: #800080; stroke-opacity: 0.8"/>
    <path d="M 212.755163 143.762439 
C 212.972003 143.762439 213.179991 143.676287 213.33332 143.522959 
C 213.486649 143.36963 213.5728 143.161642 213.5728 142.944802 
C 213.5728 142.727962 213.486649 142.519974 213.33332 142.366645 
C 213.179991 142.213316 212.972003 142.127165 212.755163 142.127165 
C 212.538323 142.127165 212.330335 142.213316 212.177006 142.366645 
C 212.023677 142.519974 211.937526 142.727962 211.937526 142.944802 
C 211.937526 143.161642 212.023677 143.36963 212.177006 143.522959 
C 212.330335 143.676287 212.538323 143.762439 212.755163 143.762439 
z
" clip-path="url(#p572a350c3b)" style="fill: #800080; fill-opacity: 0.8; stroke: #800080; stroke-opacity: 0.8"/>
    <path d="M 219.341098 109.456969 
C 219.662558 109.456969 219.970895 109.329251 220.198202 109.101944 
C 220.425509 108.874638 220.553226 108.5663 220.553226 108.24484 
C 220.553226 107.92338 220.425509 107.615043 220.198202 107.387736 
C 219.970895 107.160429 219.662558 107.032712 219.341098 107.032712 
C 219.019638 107.032712 218.7113 107.160429 218.483993 107.387736 
C 218.256687 107.615043 218.128969 107.92338 218.128969 108.24484 
C 218.128969 108.5663 218.256687 108.874638 218.483993 109.101944 
C 218.7113 109.329251 219.019638 109.456969 219.341098 109.456969 
z
" clip-path="url(#p572a350c3b)" style="fill: #800080; fill-opacity: 0.8; stroke: #800080; stroke-opacity: 0.8"/>
    <path d="M 225.927033 178.119945 
C 226.124976 178.119945 226.314838 178.041301 226.454805 177.901334 
C 226.594772 177.761367 226.673416 177.571504 226.673416 177.373561 
C 226.673416 177.175618 226.594772 176.985755 226.454805 176.845788 
C 226.314838 176.705821 226.124976 176.627178 225.927033 176.627178 
C 225.729089 176.627178 225.539227 176.705821 225.39926 176.845788 
C 225.259293 176.985755 225.180649 177.175618 225.180649 177.373561 
C 225.180649 177.571504 225.259293 177.761367 225.39926 177.901334 
C 225.539227 178.041301 225.729089 178.119945 225.927033 178.119945 
z
" clip-path="url(#p572a350c3b)" style="fill: #800080; fill-opacity: 0.8; stroke: #800080; stroke-opacity: 0.8"/>
    <path d="M 232.512967 136.593125 
C 232.813358 136.593125 233.101486 136.473779 233.313895 136.261371 
C 233.526303 136.048962 233.645649 135.760834 233.645649 135.460443 
C 233.645649 135.160053 233.526303 134.871925 233.313895 134.659516 
C 233.101486 134.447108 232.813358 134.327761 232.512967 134.327761 
C 232.212577 134.327761 231.924449 134.447108 231.71204 134.659516 
C 231.499632 134.871925 231.380285 135.160053 231.380285 135.460443 
C 231.380285 135.760834 231.499632 136.048962 231.71204 136.261371 
C 231.924449 136.473779 232.212577 136.593125 232.512967 136.593125 
z
" clip-path="url(#p572a350c3b)" style="fill: #800080; fill-opacity: 0.8; stroke: #800080; stroke-opacity: 0.8"/>
    <path d="M 239.098902 159.981498 
C 239.349541 159.981498 239.589948 159.881918 239.767177 159.704689 
C 239.944405 159.527461 240.043985 159.287054 240.043985 159.036415 
C 240.043985 158.785776 239.944405 158.545369 239.767177 158.36814 
C 239.589948 158.190912 239.349541 158.091332 239.098902 158.091332 
C 238.848263 158.091332 238.607856 158.190912 238.430628 158.36814 
C 238.253399 158.545369 238.153819 158.785776 238.153819 159.036415 
C 238.153819 159.287054 238.253399 159.527461 238.430628 159.704689 
C 238.607856 159.881918 238.848263 159.981498 239.098902 159.981498 
z
" clip-path="url(#p572a350c3b)" style="fill: #800080; fill-opacity: 0.8; stroke: #800080; stroke-opacity: 0.8"/>
    <path d="M 245.684837 123.187334 
C 246.013288 123.187334 246.32833 123.056839 246.56058 122.824589 
C 246.79283 122.592339 246.923325 122.277297 246.923325 121.948846 
C 246.923325 121.620395 246.79283 121.305353 246.56058 121.073103 
C 246.32833 120.840853 246.013288 120.710358 245.684837 120.710358 
C 245.356386 120.710358 245.041344 120.840853 244.809094 121.073103 
C 244.576844 121.305353 244.446349 121.620395 244.446349 121.948846 
C 244.446349 122.277297 244.576844 122.592339 244.809094 122.824589 
C 245.041344 123.056839 245.356386 123.187334 245.684837 123.187334 
z
" clip-path="url(#p572a350c3b)" style="fill: #800080; fill-opacity: 0.8; stroke: #800080; stroke-opacity: 0.8"/>
    <path d="M 252.270772 111.530734 
C 252.655667 111.530734 253.024849 111.377813 253.297011 111.105652 
C 253.569172 110.83349 253.722093 110.464308 253.722093 110.079413 
C 253.722093 109.694518 253.569172 109.325336 253.297011 109.053174 
C 253.024849 108.781013 252.655667 108.628092 252.270772 108.628092 
C 251.885877 108.628092 251.516695 108.781013 251.244533 109.053174 
C 250.972372 109.325336 250.819451 109.694518 250.819451 110.079413 
C 250.819451 110.464308 250.972372 110.83349 251.244533 111.105652 
C 251.516695 111.377813 251.885877 111.530734 252.270772 111.530734 
z
" clip-path="url(#p572a350c3b)" style="fill: #800080; fill-opacity: 0.8; stroke: #800080; stroke-opacity: 0.8"/>
    <path d="M 258.856707 170.791048 
C 259.177839 170.791048 259.485863 170.663461 259.712938 170.436386 
C 259.940013 170.209311 260.0676 169.901287 260.0676 169.580155 
C 260.0676 169.259022 259.940013 168.950999 259.712938 168.723923 
C 259.485863 168.496848 259.177839 168.369261 258.856707 168.369261 
C 258.535574 168.369261 258.227551 168.496848 258.000476 168.723923 
C 257.7734 168.950999 257.645813 169.259022 257.645813 169.580155 
C 257.645813 169.901287 257.7734 170.209311 258.000476 170.436386 
C 258.227551 170.663461 258.535574 170.791048 258.856707 170.791048 
z
" clip-path="url(#p572a350c3b)" style="fill: #800080; fill-opacity: 0.8; stroke: #800080; stroke-opacity: 0.8"/>
    <path d="M 265.442642 130.580465 
C 265.791269 130.580465 266.125665 130.441954 266.372182 130.195437 
C 266.6187 129.948919 266.757211 129.614524 266.757211 129.265896 
C 266.757211 128.917268 266.6187 128.582872 266.372182 128.336355 
C 266.125665 128.089838 265.791269 127.951326 265.442642 127.951326 
C 265.094014 127.951326 264.759618 128.089838 264.513101 128.336355 
C 264.266583 128.582872 264.128072 128.917268 264.128072 129.265896 
C 264.128072 129.614524 264.266583 129.948919 264.513101 130.195437 
C 264.759618 130.441954 265.094014 130.580465 265.442642 130.580465 
z
" clip-path="url(#p572a350c3b)" style="fill: #800080; fill-opacity: 0.8; stroke: #800080; stroke-opacity: 0.8"/>
    <path d="M 272.028576 148.793987 
C 272.381003 148.793987 272.719044 148.653967 272.968247 148.404763 
C 273.217451 148.155559 273.357472 147.817519 273.357472 147.465092 
C 273.357472 147.112665 273.217451 146.774625 272.968247 146.525421 
C 272.719044 146.276218 272.381003 146.136197 272.028576 146.136197 
C 271.676149 146.136197 271.338109 146.276218 271.088905 146.525421 
C 270.839702 146.774625 270.699681 147.112665 270.699681 147.465092 
C 270.699681 147.817519 270.839702 148.155559 271.088905 148.404763 
C 271.338109 148.653967 271.676149 148.793987 272.028576 148.793987 
z
" clip-path="url(#p572a350c3b)" style="fill: #800080; fill-opacity: 0.8; stroke: #800080; stroke-opacity: 0.8"/>
    <path d="M 278.614511 108.973098 
C 279.116612 108.973098 279.598215 108.773612 279.953254 108.418573 
C 280.308292 108.063534 280.507779 107.581931 280.507779 107.079831 
C 280.507779 106.57773 280.308292 106.096127 279.953254 105.741088 
C 279.598215 105.38605 279.116612 105.186563 278.614511 105.186563 
C 278.112411 105.186563 277.630807 105.38605 277.275769 105.741088 
C 276.92073 106.096127 276.721243 106.57773 276.721243 107.079831 
C 276.721243 107.581931 276.92073 108.063534 277.275769 108.418573 
C 277.630807 108.773612 278.112411 108.973098 278.614511 108.973098 
z
" clip-path="url(#p572a350c3b)" style="fill: #800080; fill-opacity: 0.8; stroke: #800080; stroke-opacity: 0.8"/>
    <path d="M 285.200446 108.26324 
C 285.710306 108.26324 286.199353 108.06067 286.559878 107.700145 
C 286.920404 107.339619 287.122974 106.850573 287.122974 106.340712 
C 287.122974 105.830852 286.920404 105.341806 286.559878 104.98128 
C 286.199353 104.620755 285.710306 104.418185 285.200446 104.418185 
C 284.690586 104.418185 284.201539 104.620755 283.841014 104.98128 
C 283.480488 105.341806 283.277918 105.830852 283.277918 106.340712 
C 283.277918 106.850573 283.480488 107.339619 283.841014 107.700145 
C 284.201539 108.06067 284.690586 108.26324 285.200446 108.26324 
z
" clip-path="url(#p572a350c3b)" style="fill: #800080; fill-opacity: 0.8; stroke: #800080; stroke-opacity: 0.8"/>
    <path d="M 291.786381 127.418087 
C 292.181097 127.418087 292.5597 127.261265 292.838807 126.982158 
C 293.117914 126.703051 293.274736 126.324448 293.274736 125.929732 
C 293.274736 125.535015 293.117914 125.156412 292.838807 124.877305 
C 292.5597 124.598199 292.181097 124.441376 291.786381 124.441376 
C 291.391664 124.441376 291.013061 124.598199 290.733954 124.877305 
C 290.454848 125.156412 290.298025 125.535015 290.298025 125.929732 
C 290.298025 126.324448 290.454848 126.703051 290.733954 126.982158 
C 291.013061 127.261265 291.391664 127.418087 291.786381 127.418087 
z
" clip-path="url(#p572a350c3b)" style="fill: #800080; fill-opacity: 0.8; stroke: #800080; stroke-opacity: 0.8"/>
    <path d="M 298.372316 104.155855 
C 298.881246 104.155855 299.3694 103.953655 299.729269 103.593786 
C 300.089137 103.233918 300.291337 102.745764 300.291337 102.236834 
C 300.291337 101.727903 300.089137 101.239749 299.729269 100.879881 
C 299.3694 100.520012 298.881246 100.317812 298.372316 100.317812 
C 297.863385 100.317812 297.375231 100.520012 297.015363 100.879881 
C 296.655495 101.239749 296.453294 101.727903 296.453294 102.236834 
C 296.453294 102.745764 296.655495 103.233918 297.015363 103.593786 
C 297.375231 103.953655 297.863385 104.155855 298.372316 104.155855 
z
" clip-path="url(#p572a350c3b)" style="fill: #800080; fill-opacity: 0.8; stroke: #800080; stroke-opacity: 0.8"/>
    <path d="M 304.95825 96.585755 
C 305.522423 96.585755 306.063565 96.361606 306.462496 95.962676 
C 306.861426 95.563745 307.085574 95.022604 307.085574 94.458431 
C 307.085574 93.894258 306.861426 93.353116 306.462496 92.954186 
C 306.063565 92.555255 305.522423 92.331107 304.95825 92.331107 
C 304.394078 92.331107 303.852936 92.555255 303.454005 92.954186 
C 303.055075 93.353116 302.830926 93.894258 302.830926 94.458431 
C 302.830926 95.022604 303.055075 95.563745 303.454005 95.962676 
C 303.852936 96.361606 304.394078 96.585755 304.95825 96.585755 
z
" clip-path="url(#p572a350c3b)" style="fill: #800080; fill-opacity: 0.8; stroke: #800080; stroke-opacity: 0.8"/>
    <path d="M 311.544185 108.043706 
C 312.086279 108.043706 312.606243 107.82833 312.989561 107.445011 
C 313.372879 107.061693 313.588255 106.541729 313.588255 105.999636 
C 313.588255 105.457542 313.372879 104.937578 312.989561 104.55426 
C 312.606243 104.170942 312.086279 103.955566 311.544185 103.955566 
C 311.002092 103.955566 310.482128 104.170942 310.098809 104.55426 
C 309.715491 104.937578 309.500115 105.457542 309.500115 105.999636 
C 309.500115 106.541729 309.715491 107.061693 310.098809 107.445011 
C 310.482128 107.82833 311.002092 108.043706 311.544185 108.043706 
z
" clip-path="url(#p572a350c3b)" style="fill: #800080; fill-opacity: 0.8; stroke: #800080; stroke-opacity: 0.8"/>
    <path d="M 318.13012 103.950582 
C 318.686383 103.950582 319.219938 103.729576 319.613275 103.336239 
C 320.006613 102.942901 320.227618 102.409347 320.227618 101.853084 
C 320.227618 101.296821 320.006613 100.763266 319.613275 100.369928 
C 319.219938 99.976591 318.686383 99.755585 318.13012 99.755585 
C 317.573857 99.755585 317.040302 99.976591 316.646965 100.369928 
C 316.253628 100.763266 316.032622 101.296821 316.032622 101.853084 
C 316.032622 102.409347 316.253628 102.942901 316.646965 103.336239 
C 317.040302 103.729576 317.573857 103.950582 318.13012 103.950582 
z
" clip-path="url(#p572a350c3b)" style="fill: #800080; fill-opacity: 0.8; stroke: #800080; stroke-opacity: 0.8"/>
    <path d="M 324.716055 89.845099 
C 325.360109 89.845099 325.977872 89.589214 326.433287 89.133799 
C 326.888702 88.678384 327.144587 88.060621 327.144587 87.416567 
C 327.144587 86.772513 326.888702 86.15475 326.433287 85.699335 
C 325.977872 85.24392 325.360109 84.988034 324.716055 84.988034 
C 324.072001 84.988034 323.454238 85.24392 322.998823 85.699335 
C 322.543408 86.15475 322.287522 86.772513 322.287522 87.416567 
C 322.287522 88.060621 322.543408 88.678384 322.998823 89.133799 
C 323.454238 89.589214 324.072001 89.845099 324.716055 89.845099 
z
" clip-path="url(#p572a350c3b)" style="fill: #800080; fill-opacity: 0.8; stroke: #800080; stroke-opacity: 0.8"/>
    <path d="M 331.30199 90.891641 
C 331.99377 90.891641 332.657311 90.616794 333.146474 90.127631 
C 333.635636 89.638468 333.910484 88.974928 333.910484 88.283147 
C 333.910484 87.591366 333.635636 86.927826 333.146474 86.438663 
C 332.657311 85.9495 331.99377 85.674653 331.30199 85.674653 
C 330.610209 85.674653 329.946669 85.9495 329.457506 86.438663 
C 328.968343 86.927826 328.693496 87.591366 328.693496 88.283147 
C 328.693496 88.974928 328.968343 89.638468 329.457506 90.127631 
C 329.946669 90.616794 330.610209 90.891641 331.30199 90.891641 
z
" clip-path="url(#p572a350c3b)" style="fill: #800080; fill-opacity: 0.8; stroke: #800080; stroke-opacity: 0.8"/>
    <path d="M 337.887925 103.765505 
C 338.48695 103.765505 339.061521 103.52751 339.485096 103.103935 
C 339.90867 102.680361 340.146666 102.105789 340.146666 101.506764 
C 340.146666 100.907739 339.90867 100.333168 339.485096 99.909593 
C 339.061521 99.486018 338.48695 99.248023 337.887925 99.248023 
C 337.288899 99.248023 336.714328 99.486018 336.290753 99.909593 
C 335.867179 100.333168 335.629184 100.907739 335.629184 101.506764 
C 335.629184 102.105789 335.867179 102.680361 336.290753 103.103935 
C 336.714328 103.52751 337.288899 103.765505 337.887925 103.765505 
z
" clip-path="url(#p572a350c3b)" style="fill: #800080; fill-opacity: 0.8; stroke: #800080; stroke-opacity: 0.8"/>
    <path d="M 344.473859 87.917266 
C 345.20839 87.917266 345.912935 87.625434 346.432327 87.106042 
C 346.951719 86.58665 347.243551 85.882105 347.243551 85.147574 
C 347.243551 84.413043 346.951719 83.708498 346.432327 83.189107 
C 345.912935 82.669715 345.20839 82.377883 344.473859 82.377883 
C 343.739329 82.377883 343.034783 82.669715 342.515392 83.189107 
C 341.996 83.708498 341.704168 84.413043 341.704168 85.147574 
C 341.704168 85.882105 341.996 86.58665 342.515392 87.106042 
C 343.034783 87.625434 343.739329 87.917266 344.473859 87.917266 
z
" clip-path="url(#p572a350c3b)" style="fill: #800080; fill-opacity: 0.8; stroke: #800080; stroke-opacity: 0.8"/>
    <path d="M 351.059794 76.797138 
C 351.84847 76.797138 352.60495 76.483794 353.162629 75.926116 
C 353.720307 75.368438 354.033651 74.611957 354.033651 73.823281 
C 354.033651 73.034605 353.720307 72.278125 353.162629 71.720447 
C 352.60495 71.162769 351.84847 70.849424 351.059794 70.849424 
C 350.271118 70.849424 349.514638 71.162769 348.95696 71.720447 
C 348.399281 72.278125 348.085937 73.034605 348.085937 73.823281 
C 348.085937 74.611957 348.399281 75.368438 348.95696 75.926116 
C 349.514638 76.483794 350.271118 76.797138 351.059794 76.797138 
z
" clip-path="url(#p572a350c3b)" style="fill: #800080; fill-opacity: 0.8; stroke: #800080; stroke-opacity: 0.8"/>
    <path d="M 357.645729 67.409177 
C 358.441338 67.409177 359.204469 67.093078 359.767049 66.530498 
C 360.32963 65.967917 360.645729 65.204786 360.645729 64.409177 
C 360.645729 63.613568 360.32963 62.850438 359.767049 62.287857 
C 359.204469 61.725276 358.441338 61.409177 357.645729 61.409177 
C 356.85012 61.409177 356.086989 61.725276 355.524409 62.287857 
C 354.961828 62.850438 354.645729 63.613568 354.645729 64.409177 
C 354.645729 65.204786 354.961828 65.967917 355.524409 66.530498 
C 356.086989 67.093078 356.85012 67.409177 357.645729 67.409177 
z
" clip-path="url(#p572a350c3b)" style="fill: #800080; fill-opacity: 0.8; stroke: #800080; stroke-opacity: 0.8"/>
    <path d="M 364.231664 72.072191 
C 365.017865 72.072191 365.771972 71.75983 366.3279 71.203901 
C 366.883828 70.647973 367.19619 69.893866 367.19619 69.107665 
C 367.19619 68.321464 366.883828 67.567357 366.3279 67.011429 
C 365.771972 66.4555 365.017865 66.143139 364.231664 66.143139 
C 363.445462 66.143139 362.691356 66.4555 362.135428 67.011429 
C 361.579499 67.567357 361.267138 68.321464 361.267138 69.107665 
C 361.267138 69.893866 361.579499 70.647973 362.135428 71.203901 
C 362.691356 71.75983 363.445462 72.072191 364.231664 72.072191 
z
" clip-path="url(#p572a350c3b)" style="fill: #800080; fill-opacity: 0.8; stroke: #800080; stroke-opacity: 0.8"/>
    <path d="M 370.817599 67.101201 
C 371.569193 67.101201 372.290105 66.80259 372.821562 66.271132 
C 373.353019 65.739675 373.651631 65.018763 373.651631 64.267169 
C 373.651631 63.515575 373.353019 62.794663 372.821562 62.263205 
C 372.290105 61.731748 371.569193 61.433137 370.817599 61.433137 
C 370.066004 61.433137 369.345093 61.731748 368.813635 62.263205 
C 368.282178 62.794663 367.983566 63.515575 367.983566 64.267169 
C 367.983566 65.018763 368.282178 65.739675 368.813635 66.271132 
C 369.345093 66.80259 370.066004 67.101201 370.817599 67.101201 
z
" clip-path="url(#p572a350c3b)" style="fill: #800080; fill-opacity: 0.8; stroke: #800080; stroke-opacity: 0.8"/>
    <path d="M 377.403533 60.626261 
C 378.137502 60.626261 378.841508 60.334652 379.360502 59.815658 
C 379.879496 59.296664 380.171105 58.592658 380.171105 57.85869 
C 380.171105 57.124721 379.879496 56.420715 379.360502 55.901721 
C 378.841508 55.382727 378.137502 55.091118 377.403533 55.091118 
C 376.669565 55.091118 375.965559 55.382727 375.446565 55.901721 
C 374.927571 56.420715 374.635962 57.124721 374.635962 57.85869 
C 374.635962 58.592658 374.927571 59.296664 375.446565 59.815658 
C 375.965559 60.334652 376.669565 60.626261 377.403533 60.626261 
z
" clip-path="url(#p572a350c3b)" style="fill: #800080; fill-opacity: 0.8; stroke: #800080; stroke-opacity: 0.8"/>
    <path d="M 383.989468 53.848496 
C 384.591153 53.848496 385.168276 53.609444 385.593731 53.183989 
C 386.019187 52.758533 386.258239 52.181411 386.258239 51.579726 
C 386.258239 50.978041 386.019187 50.400918 385.593731 49.975463 
C 385.168276 49.550007 384.591153 49.310955 383.989468 49.310955 
C 383.387783 49.310955 382.810661 49.550007 382.385205 49.975463 
C 381.95975 50.400918 381.720698 50.978041 381.720698 51.579726 
C 381.720698 52.181411 381.95975 52.758533 382.385205 53.183989 
C 382.810661 53.609444 383.387783 53.848496 383.989468 53.848496 
z
" clip-path="url(#p572a350c3b)" style="fill: #800080; fill-opacity: 0.8; stroke: #800080; stroke-opacity: 0.8"/>
    <path d="M 390.575403 53.352818 
C 391.127101 53.352818 391.656278 53.133626 392.046387 52.743517 
C 392.436496 52.353407 392.655688 51.824231 392.655688 51.272533 
C 392.655688 50.720835 392.436496 50.191658 392.046387 49.801549 
C 391.656278 49.411439 391.127101 49.192247 390.575403 49.192247 
C 390.023705 49.192247 389.494529 49.411439 389.104419 49.801549 
C 388.71431 50.191658 388.495118 50.720835 388.495118 51.272533 
C 388.495118 51.824231 388.71431 52.353407 389.104419 52.743517 
C 389.494529 53.133626 390.023705 53.352818 390.575403 53.352818 
z
" clip-path="url(#p572a350c3b)" style="fill: #800080; fill-opacity: 0.8; stroke: #800080; stroke-opacity: 0.8"/>
    <path d="M 397.161338 47.97129 
C 397.648296 47.97129 398.115375 47.77782 398.459707 47.433488 
C 398.804038 47.089157 398.997509 46.622077 398.997509 46.135119 
C 398.997509 45.648161 398.804038 45.181082 398.459707 44.83675 
C 398.115375 44.492419 397.648296 44.298948 397.161338 44.298948 
C 396.67438 44.298948 396.2073 44.492419 395.862969 44.83675 
C 395.518638 45.181082 395.325167 45.648161 395.325167 46.135119 
C 395.325167 46.622077 395.518638 47.089157 395.862969 47.433488 
C 396.2073 47.77782 396.67438 47.97129 397.161338 47.97129 
z
" clip-path="url(#p572a350c3b)" style="fill: #800080; fill-opacity: 0.8; stroke: #800080; stroke-opacity: 0.8"/>
    <path d="M 403.747273 37.474225 
C 404.095553 37.474225 404.429615 37.335851 404.675887 37.08958 
C 404.922158 36.843309 405.060531 36.509246 405.060531 36.160966 
C 405.060531 35.812686 404.922158 35.478623 404.675887 35.232352 
C 404.429615 34.98608 404.095553 34.847707 403.747273 34.847707 
C 403.398992 34.847707 403.06493 34.98608 402.818659 35.232352 
C 402.572387 35.478623 402.434014 35.812686 402.434014 36.160966 
C 402.434014 36.509246 402.572387 36.843309 402.818659 37.08958 
C 403.06493 37.335851 403.398992 37.474225 403.747273 37.474225 
z
" clip-path="url(#p572a350c3b)" style="fill: #800080; fill-opacity: 0.8; stroke: #800080; stroke-opacity: 0.8"/>
   </g>
   <g id="PolyCollection_1">
    <defs>
     <path id="m3f5c586f78" d="M 54.692727 -77.658243 
L 54.692727 -55.003135 
L 58.218531 -56.865587 
L 61.744334 -58.728039 
L 65.270138 -60.590672 
L 68.795941 -62.454048 
L 72.321745 -64.317424 
L 75.847548 -66.1808 
L 79.373352 -68.044176 
L 82.899155 -69.907552 
L 86.424959 -71.783986 
L 89.950762 -73.665166 
L 93.476566 -75.546347 
L 97.002369 -77.427527 
L 100.528173 -79.308707 
L 104.053976 -81.189888 
L 107.57978 -83.000039 
L 111.105583 -84.810695 
L 114.631387 -86.672027 
L 118.15719 -88.533359 
L 121.682994 -90.394691 
L 125.208797 -92.256022 
L 128.734601 -93.99941 
L 132.260404 -95.783724 
L 135.786208 -97.664978 
L 139.312011 -99.447996 
L 142.837815 -101.272977 
L 146.363618 -103.159217 
L 149.889421 -105.011036 
L 153.415225 -106.845899 
L 156.941028 -108.66117 
L 160.466832 -110.488274 
L 163.992635 -112.399462 
L 167.518439 -114.223673 
L 171.044242 -116.022327 
L 174.570046 -117.814745 
L 178.095849 -119.608242 
L 181.621653 -121.401739 
L 185.147456 -123.206304 
L 188.67326 -125.038818 
L 192.199063 -126.893055 
L 195.724867 -128.682373 
L 199.25067 -130.50478 
L 202.776474 -132.2918 
L 206.302277 -134.165942 
L 209.828081 -135.998742 
L 213.353884 -137.781236 
L 216.879688 -139.625669 
L 220.405491 -141.38644 
L 223.931295 -143.042743 
L 227.457098 -144.798687 
L 230.982902 -146.539496 
L 234.508705 -148.438897 
L 238.034509 -150.253896 
L 241.560312 -151.99368 
L 245.086116 -153.69384 
L 248.611919 -155.49546 
L 252.137723 -157.29589 
L 255.663526 -159.096977 
L 259.18933 -160.805432 
L 262.715133 -162.528089 
L 266.240937 -164.353214 
L 269.76674 -166.090562 
L 273.292544 -167.824573 
L 276.818347 -169.554639 
L 280.344151 -171.290017 
L 283.869954 -172.973444 
L 287.395758 -174.46465 
L 290.921561 -175.972573 
L 294.447365 -177.512676 
L 297.973168 -179.181653 
L 301.498972 -180.828828 
L 305.024775 -182.522751 
L 308.550579 -184.195796 
L 312.076382 -185.948634 
L 315.602185 -187.53699 
L 319.127989 -189.207938 
L 322.653792 -190.878598 
L 326.179596 -192.467777 
L 329.705399 -194.046965 
L 333.231203 -195.573853 
L 336.757006 -197.148982 
L 340.28281 -198.833846 
L 343.808613 -200.497575 
L 347.334417 -202.150904 
L 350.86022 -203.768024 
L 354.386024 -205.410889 
L 357.911827 -207.081955 
L 361.437631 -208.783669 
L 364.963434 -210.438201 
L 368.489238 -212.090097 
L 372.015041 -213.682275 
L 375.540845 -215.210923 
L 379.066648 -216.729114 
L 382.592452 -218.252318 
L 386.118255 -219.772411 
L 389.644059 -221.292504 
L 393.169862 -222.814463 
L 396.695666 -224.444938 
L 400.221469 -226.113716 
L 403.747273 -227.782493 
L 403.747273 -242.231602 
L 403.747273 -242.231602 
L 400.221469 -240.390087 
L 396.695666 -238.556474 
L 393.169862 -236.721245 
L 389.644059 -234.855674 
L 386.118255 -233.052595 
L 382.592452 -231.218488 
L 379.066648 -229.38552 
L 375.540845 -227.552552 
L 372.015041 -225.79177 
L 368.489238 -224.040108 
L 364.963434 -222.287979 
L 361.437631 -220.478354 
L 357.911827 -218.638689 
L 354.386024 -216.792261 
L 350.86022 -214.977235 
L 347.334417 -213.225675 
L 343.808613 -211.511451 
L 340.28281 -209.775326 
L 336.757006 -207.98104 
L 333.231203 -206.188017 
L 329.705399 -204.496322 
L 326.179596 -202.812319 
L 322.653792 -201.056399 
L 319.127989 -199.338423 
L 315.602185 -197.56422 
L 312.076382 -195.843883 
L 308.550579 -194.180716 
L 305.024775 -192.452313 
L 301.498972 -190.7301 
L 297.973168 -189.027963 
L 294.447365 -187.369612 
L 290.921561 -185.659016 
L 287.395758 -183.949148 
L 283.869954 -182.237855 
L 280.344151 -180.557495 
L 276.818347 -178.818041 
L 273.292544 -177.11638 
L 269.76674 -175.397944 
L 266.240937 -173.755927 
L 262.715133 -172.132611 
L 259.18933 -170.403865 
L 255.663526 -168.698811 
L 252.137723 -167.018002 
L 248.611919 -165.455449 
L 245.086116 -163.750094 
L 241.560312 -162.043668 
L 238.034509 -160.339327 
L 234.508705 -158.634886 
L 230.982902 -156.943737 
L 227.457098 -155.384129 
L 223.931295 -153.832486 
L 220.405491 -152.281684 
L 216.879688 -150.674542 
L 213.353884 -149.06812 
L 209.828081 -147.389128 
L 206.302277 -145.709807 
L 202.776474 -144.128574 
L 199.25067 -142.536331 
L 195.724867 -140.932067 
L 192.199063 -139.267877 
L 188.67326 -137.674448 
L 185.147456 -136.101482 
L 181.621653 -134.457407 
L 178.095849 -132.798083 
L 174.570046 -131.193759 
L 171.044242 -129.552973 
L 167.518439 -127.918427 
L 163.992635 -126.346919 
L 160.466832 -124.77541 
L 156.941028 -123.180364 
L 153.415225 -121.578951 
L 149.889421 -119.975628 
L 146.363618 -118.332094 
L 142.837815 -116.666106 
L 139.312011 -115.005442 
L 135.786208 -113.506152 
L 132.260404 -111.902773 
L 128.734601 -110.264698 
L 125.208797 -108.663788 
L 121.682994 -107.111108 
L 118.15719 -105.567716 
L 114.631387 -104.028159 
L 111.105583 -102.421413 
L 107.57978 -100.81809 
L 104.053976 -99.298457 
L 100.528173 -97.782152 
L 97.002369 -96.204883 
L 93.476566 -94.596852 
L 89.950762 -93.008313 
L 86.424959 -91.458291 
L 82.899155 -89.965277 
L 79.373352 -88.506782 
L 75.847548 -87.048286 
L 72.321745 -85.5081 
L 68.795941 -83.938129 
L 65.270138 -82.368767 
L 61.744334 -80.862533 
L 58.218531 -79.256208 
L 54.692727 -77.658243 
z
" style="stroke: #ffffff; stroke-opacity: 0.15"/>
    </defs>
    <g clip-path="url(#p572a350c3b)">
     <use xlink:href="#m3f5c586f78" x="0" y="288" style="fill: #800080; fill-opacity: 0.15; stroke: #ffffff; stroke-opacity: 0.15"/>
    </g>
   </g>
   <g id="line2d_1">
    <path d="M 54.692727 222.416629 
L 58.218531 220.696143 
L 61.744334 218.975658 
L 65.270138 217.255173 
L 68.795941 215.534687 
L 72.321745 213.814202 
L 75.847548 212.093716 
L 79.373352 210.373231 
L 82.899155 208.652746 
L 86.424959 206.93226 
L 89.950762 205.211775 
L 93.476566 203.49129 
L 97.002369 201.770804 
L 100.528173 200.050319 
L 104.053976 198.329834 
L 107.57978 196.609348 
L 111.105583 194.888863 
L 114.631387 193.168377 
L 118.15719 191.447892 
L 121.682994 189.727407 
L 125.208797 188.006921 
L 128.734601 186.286436 
L 132.260404 184.565951 
L 135.786208 182.845465 
L 139.312011 181.12498 
L 142.837815 179.404495 
L 146.363618 177.684009 
L 149.889421 175.963524 
L 153.415225 174.243039 
L 156.941028 172.522553 
L 160.466832 170.802068 
L 163.992635 169.081582 
L 167.518439 167.361097 
L 171.044242 165.640612 
L 174.570046 163.920126 
L 178.095849 162.199641 
L 181.621653 160.479156 
L 185.147456 158.75867 
L 188.67326 157.038185 
L 192.199063 155.3177 
L 195.724867 153.597214 
L 199.25067 151.876729 
L 202.776474 150.156243 
L 206.302277 148.435758 
L 209.828081 146.715273 
L 213.353884 144.994787 
L 216.879688 143.274302 
L 220.405491 141.553817 
L 223.931295 139.833331 
L 227.457098 138.112846 
L 230.982902 136.392361 
L 234.508705 134.671875 
L 238.034509 132.95139 
L 241.560312 131.230904 
L 245.086116 129.510419 
L 248.611919 127.789934 
L 252.137723 126.069448 
L 255.663526 124.348963 
L 259.18933 122.628478 
L 262.715133 120.907992 
L 266.240937 119.187507 
L 269.76674 117.467022 
L 273.292544 115.746536 
L 276.818347 114.026051 
L 280.344151 112.305566 
L 283.869954 110.58508 
L 287.395758 108.864595 
L 290.921561 107.144109 
L 294.447365 105.423624 
L 297.973168 103.703139 
L 301.498972 101.982653 
L 305.024775 100.262168 
L 308.550579 98.541683 
L 312.076382 96.821197 
L 315.602185 95.100712 
L 319.127989 93.380227 
L 322.653792 91.659741 
L 326.179596 89.939256 
L 329.705399 88.21877 
L 333.231203 86.498285 
L 336.757006 84.7778 
L 340.28281 83.057314 
L 343.808613 81.336829 
L 347.334417 79.616344 
L 350.86022 77.895858 
L 354.386024 76.175373 
L 357.911827 74.454888 
L 361.437631 72.734402 
L 364.963434 71.013917 
L 368.489238 69.293432 
L 372.015041 67.572946 
L 375.540845 65.852461 
L 379.066648 64.131975 
L 382.592452 62.41149 
L 386.118255 60.691005 
L 389.644059 58.970519 
L 393.169862 57.250034 
L 396.695666 55.529549 
L 400.221469 53.809063 
L 403.747273 52.088578 
" clip-path="url(#p572a350c3b)" style="fill: none; stroke: #800080; stroke-width: 2.25; stroke-linecap: round"/>
   </g>
   <g id="patch_3">
    <path d="M 37.24 260.12 
L 37.24 25.49625 
" style="fill: none; stroke: #ffffff; stroke-width: 0.8; stroke-linejoin: miter; stroke-linecap: square"/>
   </g>
   <g id="patch_4">
    <path d="M 421.2 260.12 
L 421.2 25.49625 
" style="fill: none; stroke: #ffffff; stroke-width: 0.8; stroke-linejoin: miter; stroke-linecap: square"/>
   </g>
   <g id="patch_5">
    <path d="M 37.24 260.12 
L 421.2 260.12 
" style="fill: none; stroke: #ffffff; stroke-width: 0.8; stroke-linejoin: miter; stroke-linecap: square"/>
   </g>
   <g id="patch_6">
    <path d="M 37.24 25.49625 
L 421.2 25.49625 
" style="fill: none; stroke: #ffffff; stroke-width: 0.8; stroke-linejoin: miter; stroke-linecap: square"/>
   </g>
   <g id="text_15">
    <!-- Yearly average ratings -->
    <g style="fill: #262626" transform="translate(169.739375 19.49625) scale(0.12 -0.12)">
     <defs>
      <path id="ArialMT-59" d="M 1784 0 
L 1784 1941 
L 19 4581 
L 756 4581 
L 1659 3200 
Q 1909 2813 2125 2425 
Q 2331 2784 2625 3234 
L 3513 4581 
L 4219 4581 
L 2391 1941 
L 2391 0 
L 1784 0 
z
" transform="scale(0.015625)"/>
      <path id="ArialMT-65" d="M 2694 1069 
L 3275 997 
Q 3138 488 2766 206 
Q 2394 -75 1816 -75 
Q 1088 -75 661 373 
Q 234 822 234 1631 
Q 234 2469 665 2931 
Q 1097 3394 1784 3394 
Q 2450 3394 2872 2941 
Q 3294 2488 3294 1666 
Q 3294 1616 3291 1516 
L 816 1516 
Q 847 969 1125 678 
Q 1403 388 1819 388 
Q 2128 388 2347 550 
Q 2566 713 2694 1069 
z
M 847 1978 
L 2700 1978 
Q 2663 2397 2488 2606 
Q 2219 2931 1791 2931 
Q 1403 2931 1139 2672 
Q 875 2413 847 1978 
z
" transform="scale(0.015625)"/>
      <path id="ArialMT-61" d="M 2588 409 
Q 2275 144 1986 34 
Q 1697 -75 1366 -75 
Q 819 -75 525 192 
Q 231 459 231 875 
Q 231 1119 342 1320 
Q 453 1522 633 1644 
Q 813 1766 1038 1828 
Q 1203 1872 1538 1913 
Q 2219 1994 2541 2106 
Q 2544 2222 2544 2253 
Q 2544 2597 2384 2738 
Q 2169 2928 1744 2928 
Q 1347 2928 1158 2789 
Q 969 2650 878 2297 
L 328 2372 
Q 403 2725 575 2942 
Q 747 3159 1072 3276 
Q 1397 3394 1825 3394 
Q 2250 3394 2515 3294 
Q 2781 3194 2906 3042 
Q 3031 2891 3081 2659 
Q 3109 2516 3109 2141 
L 3109 1391 
Q 3109 606 3145 398 
Q 3181 191 3288 0 
L 2700 0 
Q 2613 175 2588 409 
z
M 2541 1666 
Q 2234 1541 1622 1453 
Q 1275 1403 1131 1340 
Q 988 1278 909 1158 
Q 831 1038 831 891 
Q 831 666 1001 516 
Q 1172 366 1500 366 
Q 1825 366 2078 508 
Q 2331 650 2450 897 
Q 2541 1088 2541 1459 
L 2541 1666 
z
" transform="scale(0.015625)"/>
      <path id="ArialMT-72" d="M 416 0 
L 416 3319 
L 922 3319 
L 922 2816 
Q 1116 3169 1280 3281 
Q 1444 3394 1641 3394 
Q 1925 3394 2219 3213 
L 2025 2691 
Q 1819 2813 1613 2813 
Q 1428 2813 1281 2702 
Q 1134 2591 1072 2394 
Q 978 2094 978 1738 
L 978 0 
L 416 0 
z
" transform="scale(0.015625)"/>
      <path id="ArialMT-6c" d="M 409 0 
L 409 4581 
L 972 4581 
L 972 0 
L 409 0 
z
" transform="scale(0.015625)"/>
      <path id="ArialMT-79" d="M 397 -1278 
L 334 -750 
Q 519 -800 656 -800 
Q 844 -800 956 -737 
Q 1069 -675 1141 -563 
Q 1194 -478 1313 -144 
Q 1328 -97 1363 -6 
L 103 3319 
L 709 3319 
L 1400 1397 
Q 1534 1031 1641 628 
Q 1738 1016 1872 1384 
L 2581 3319 
L 3144 3319 
L 1881 -56 
Q 1678 -603 1566 -809 
Q 1416 -1088 1222 -1217 
Q 1028 -1347 759 -1347 
Q 597 -1347 397 -1278 
z
" transform="scale(0.015625)"/>
      <path id="ArialMT-20" transform="scale(0.015625)"/>
      <path id="ArialMT-76" d="M 1344 0 
L 81 3319 
L 675 3319 
L 1388 1331 
Q 1503 1009 1600 663 
Q 1675 925 1809 1294 
L 2547 3319 
L 3125 3319 
L 1869 0 
L 1344 0 
z
" transform="scale(0.015625)"/>
      <path id="ArialMT-67" d="M 319 -275 
L 866 -356 
Q 900 -609 1056 -725 
Q 1266 -881 1628 -881 
Q 2019 -881 2231 -725 
Q 2444 -569 2519 -288 
Q 2563 -116 2559 434 
Q 2191 0 1641 0 
Q 956 0 581 494 
Q 206 988 206 1678 
Q 206 2153 378 2554 
Q 550 2956 876 3175 
Q 1203 3394 1644 3394 
Q 2231 3394 2613 2919 
L 2613 3319 
L 3131 3319 
L 3131 450 
Q 3131 -325 2973 -648 
Q 2816 -972 2473 -1159 
Q 2131 -1347 1631 -1347 
Q 1038 -1347 672 -1080 
Q 306 -813 319 -275 
z
M 784 1719 
Q 784 1066 1043 766 
Q 1303 466 1694 466 
Q 2081 466 2343 764 
Q 2606 1063 2606 1700 
Q 2606 2309 2336 2618 
Q 2066 2928 1684 2928 
Q 1309 2928 1046 2623 
Q 784 2319 784 1719 
z
" transform="scale(0.015625)"/>
      <path id="ArialMT-74" d="M 1650 503 
L 1731 6 
Q 1494 -44 1306 -44 
Q 1000 -44 831 53 
Q 663 150 594 308 
Q 525 466 525 972 
L 525 2881 
L 113 2881 
L 113 3319 
L 525 3319 
L 525 4141 
L 1084 4478 
L 1084 3319 
L 1650 3319 
L 1650 2881 
L 1084 2881 
L 1084 941 
Q 1084 700 1114 631 
Q 1144 563 1211 522 
Q 1278 481 1403 481 
Q 1497 481 1650 503 
z
" transform="scale(0.015625)"/>
      <path id="ArialMT-69" d="M 425 3934 
L 425 4581 
L 988 4581 
L 988 3934 
L 425 3934 
z
M 425 0 
L 425 3319 
L 988 3319 
L 988 0 
L 425 0 
z
" transform="scale(0.015625)"/>
      <path id="ArialMT-6e" d="M 422 0 
L 422 3319 
L 928 3319 
L 928 2847 
Q 1294 3394 1984 3394 
Q 2284 3394 2536 3286 
Q 2788 3178 2913 3003 
Q 3038 2828 3088 2588 
Q 3119 2431 3119 2041 
L 3119 0 
L 2556 0 
L 2556 2019 
Q 2556 2363 2490 2533 
Q 2425 2703 2258 2804 
Q 2091 2906 1866 2906 
Q 1506 2906 1245 2678 
Q 984 2450 984 1813 
L 984 0 
L 422 0 
z
" transform="scale(0.015625)"/>
      <path id="ArialMT-73" d="M 197 991 
L 753 1078 
Q 800 744 1014 566 
Q 1228 388 1613 388 
Q 2000 388 2187 545 
Q 2375 703 2375 916 
Q 2375 1106 2209 1216 
Q 2094 1291 1634 1406 
Q 1016 1563 777 1677 
Q 538 1791 414 1992 
Q 291 2194 291 2438 
Q 291 2659 392 2848 
Q 494 3038 669 3163 
Q 800 3259 1026 3326 
Q 1253 3394 1513 3394 
Q 1903 3394 2198 3281 
Q 2494 3169 2634 2976 
Q 2775 2784 2828 2463 
L 2278 2388 
Q 2241 2644 2061 2787 
Q 1881 2931 1553 2931 
Q 1166 2931 1000 2803 
Q 834 2675 834 2503 
Q 834 2394 903 2306 
Q 972 2216 1119 2156 
Q 1203 2125 1616 2013 
Q 2213 1853 2448 1751 
Q 2684 1650 2818 1456 
Q 2953 1263 2953 975 
Q 2953 694 2789 445 
Q 2625 197 2315 61 
Q 2006 -75 1616 -75 
Q 969 -75 630 194 
Q 291 463 197 991 
z
" transform="scale(0.015625)"/>
     </defs>
     <use xlink:href="#ArialMT-59"/>
     <use xlink:href="#ArialMT-65" x="57.574219"/>
     <use xlink:href="#ArialMT-61" x="113.189453"/>
     <use xlink:href="#ArialMT-72" x="168.804688"/>
     <use xlink:href="#ArialMT-6c" x="202.105469"/>
     <use xlink:href="#ArialMT-79" x="224.322266"/>
     <use xlink:href="#ArialMT-20" x="274.322266"/>
     <use xlink:href="#ArialMT-61" x="302.105469"/>
     <use xlink:href="#ArialMT-76" x="357.720703"/>
     <use xlink:href="#ArialMT-65" x="407.720703"/>
     <use xlink:href="#ArialMT-72" x="463.335938"/>
     <use xlink:href="#ArialMT-61" x="496.636719"/>
     <use xlink:href="#ArialMT-67" x="552.251953"/>
     <use xlink:href="#ArialMT-65" x="607.867188"/>
     <use xlink:href="#ArialMT-20" x="663.482422"/>
     <use xlink:href="#ArialMT-72" x="691.265625"/>
     <use xlink:href="#ArialMT-61" x="724.566406"/>
     <use xlink:href="#ArialMT-74" x="780.181641"/>
     <use xlink:href="#ArialMT-69" x="807.964844"/>
     <use xlink:href="#ArialMT-6e" x="830.181641"/>
     <use xlink:href="#ArialMT-67" x="885.796875"/>
     <use xlink:href="#ArialMT-73" x="941.412109"/>
    </g>
   </g>
  </g>
 </g>
 <defs>
  <clipPath id="p572a350c3b">
   <rect x="37.24" y="25.49625" width="383.96" height="234.62375"/>
  </clipPath>
 </defs>
</svg>
