<?xml version="1.0" encoding="utf-8" standalone="no"?>
<!DOCTYPE svg PUBLIC "-//W3C//DTD SVG 1.1//EN"
  "http://www.w3.org/Graphics/SVG/1.1/DTD/svg11.dtd">
<svg xmlns:xlink="http://www.w3.org/1999/xlink" width="460.8pt" height="345.6pt" viewBox="0 0 460.8 345.6" xmlns="http://www.w3.org/2000/svg" version="1.1">
 <metadata>
  <rdf:RDF xmlns:dc="http://purl.org/dc/elements/1.1/" xmlns:cc="http://creativecommons.org/ns#" xmlns:rdf="http://www.w3.org/1999/02/22-rdf-syntax-ns#">
   <cc:Work>
    <dc:type rdf:resource="http://purl.org/dc/dcmitype/StillImage"/>
    <dc:date>2024-08-19T15:44:52.997455</dc:date>
    <dc:format>image/svg+xml</dc:format>
    <dc:creator>
     <cc:Agent>
      <dc:title>Matplotlib v3.9.2, https://matplotlib.org/</dc:title>
     </cc:Agent>
    </dc:creator>
   </cc:Work>
  </rdf:RDF>
 </metadata>
 <defs>
  <style type="text/css">*{stroke-linejoin: round; stroke-linecap: butt}</style>
 </defs>
 <g id="figure_1">
  <g id="patch_1">
   <path d="M 0 345.6 
L 460.8 345.6 
L 460.8 0 
L 0 0 
z
" style="fill: #ffffff"/>
  </g>
  <g id="axes_1">
   <g id="patch_2">
    <path d="M 31.66 317.72 
L 450 317.72 
L 450 25.49625 
L 31.66 25.49625 
z
" style="fill: #eaeaf2"/>
   </g>
   <g id="matplotlib.axis_1">
    <g id="xtick_1">
     <g id="text_1">
      <!-- 1970 -->
      <g style="fill: #262626" transform="translate(39.55358 331.877812) scale(0.1 -0.1)">
       <defs>
        <path id="ArialMT-31" d="M 2384 0 
L 1822 0 
L 1822 3584 
Q 1619 3391 1289 3197 
Q 959 3003 697 2906 
L 697 3450 
Q 1169 3672 1522 3987 
Q 1875 4303 2022 4600 
L 2384 4600 
L 2384 0 
z
" transform="scale(0.015625)"/>
        <path id="ArialMT-39" d="M 350 1059 
L 891 1109 
Q 959 728 1153 556 
Q 1347 384 1650 384 
Q 1909 384 2104 503 
Q 2300 622 2425 820 
Q 2550 1019 2634 1356 
Q 2719 1694 2719 2044 
Q 2719 2081 2716 2156 
Q 2547 1888 2255 1720 
Q 1963 1553 1622 1553 
Q 1053 1553 659 1965 
Q 266 2378 266 3053 
Q 266 3750 677 4175 
Q 1088 4600 1706 4600 
Q 2153 4600 2523 4359 
Q 2894 4119 3086 3673 
Q 3278 3228 3278 2384 
Q 3278 1506 3087 986 
Q 2897 466 2520 194 
Q 2144 -78 1638 -78 
Q 1100 -78 759 220 
Q 419 519 350 1059 
z
M 2653 3081 
Q 2653 3566 2395 3850 
Q 2138 4134 1775 4134 
Q 1400 4134 1122 3828 
Q 844 3522 844 3034 
Q 844 2597 1108 2323 
Q 1372 2050 1759 2050 
Q 2150 2050 2401 2323 
Q 2653 2597 2653 3081 
z
" transform="scale(0.015625)"/>
        <path id="ArialMT-37" d="M 303 3981 
L 303 4522 
L 3269 4522 
L 3269 4084 
Q 2831 3619 2401 2847 
Q 1972 2075 1738 1259 
Q 1569 684 1522 0 
L 944 0 
Q 953 541 1156 1306 
Q 1359 2072 1739 2783 
Q 2119 3494 2547 3981 
L 303 3981 
z
" transform="scale(0.015625)"/>
        <path id="ArialMT-30" d="M 266 2259 
Q 266 3072 433 3567 
Q 600 4063 929 4331 
Q 1259 4600 1759 4600 
Q 2128 4600 2406 4451 
Q 2684 4303 2865 4023 
Q 3047 3744 3150 3342 
Q 3253 2941 3253 2259 
Q 3253 1453 3087 958 
Q 2922 463 2592 192 
Q 2263 -78 1759 -78 
Q 1097 -78 719 397 
Q 266 969 266 2259 
z
M 844 2259 
Q 844 1131 1108 757 
Q 1372 384 1759 384 
Q 2147 384 2411 759 
Q 2675 1134 2675 2259 
Q 2675 3391 2411 3762 
Q 2147 4134 1753 4134 
Q 1366 4134 1134 3806 
Q 844 3388 844 2259 
z
" transform="scale(0.015625)"/>
       </defs>
       <use xlink:href="#ArialMT-31"/>
       <use xlink:href="#ArialMT-39" x="55.615234"/>
       <use xlink:href="#ArialMT-37" x="111.230469"/>
       <use xlink:href="#ArialMT-30" x="166.845703"/>
      </g>
     </g>
    </g>
    <g id="xtick_2">
     <g id="text_2">
      <!-- 1980 -->
      <g style="fill: #262626" transform="translate(111.310012 331.877812) scale(0.1 -0.1)">
       <defs>
        <path id="ArialMT-38" d="M 1131 2484 
Q 781 2613 612 2850 
Q 444 3088 444 3419 
Q 444 3919 803 4259 
Q 1163 4600 1759 4600 
Q 2359 4600 2725 4251 
Q 3091 3903 3091 3403 
Q 3091 3084 2923 2848 
Q 2756 2613 2416 2484 
Q 2838 2347 3058 2040 
Q 3278 1734 3278 1309 
Q 3278 722 2862 322 
Q 2447 -78 1769 -78 
Q 1091 -78 675 323 
Q 259 725 259 1325 
Q 259 1772 486 2073 
Q 713 2375 1131 2484 
z
M 1019 3438 
Q 1019 3113 1228 2906 
Q 1438 2700 1772 2700 
Q 2097 2700 2305 2904 
Q 2513 3109 2513 3406 
Q 2513 3716 2298 3927 
Q 2084 4138 1766 4138 
Q 1444 4138 1231 3931 
Q 1019 3725 1019 3438 
z
M 838 1322 
Q 838 1081 952 856 
Q 1066 631 1291 507 
Q 1516 384 1775 384 
Q 2178 384 2440 643 
Q 2703 903 2703 1303 
Q 2703 1709 2433 1975 
Q 2163 2241 1756 2241 
Q 1359 2241 1098 1978 
Q 838 1716 838 1322 
z
" transform="scale(0.015625)"/>
       </defs>
       <use xlink:href="#ArialMT-31"/>
       <use xlink:href="#ArialMT-39" x="55.615234"/>
       <use xlink:href="#ArialMT-38" x="111.230469"/>
       <use xlink:href="#ArialMT-30" x="166.845703"/>
      </g>
     </g>
    </g>
    <g id="xtick_3">
     <g id="text_3">
      <!-- 1990 -->
      <g style="fill: #262626" transform="translate(183.066444 331.877812) scale(0.1 -0.1)">
       <use xlink:href="#ArialMT-31"/>
       <use xlink:href="#ArialMT-39" x="55.615234"/>
       <use xlink:href="#ArialMT-39" x="111.230469"/>
       <use xlink:href="#ArialMT-30" x="166.845703"/>
      </g>
     </g>
    </g>
    <g id="xtick_4">
     <g id="text_4">
      <!-- 2000 -->
      <g style="fill: #262626" transform="translate(254.822876 331.877812) scale(0.1 -0.1)">
       <defs>
        <path id="ArialMT-32" d="M 3222 541 
L 3222 0 
L 194 0 
Q 188 203 259 391 
Q 375 700 629 1000 
Q 884 1300 1366 1694 
Q 2113 2306 2375 2664 
Q 2638 3022 2638 3341 
Q 2638 3675 2398 3904 
Q 2159 4134 1775 4134 
Q 1369 4134 1125 3890 
Q 881 3647 878 3216 
L 300 3275 
Q 359 3922 746 4261 
Q 1134 4600 1788 4600 
Q 2447 4600 2831 4234 
Q 3216 3869 3216 3328 
Q 3216 3053 3103 2787 
Q 2991 2522 2730 2228 
Q 2469 1934 1863 1422 
Q 1356 997 1212 845 
Q 1069 694 975 541 
L 3222 541 
z
" transform="scale(0.015625)"/>
       </defs>
       <use xlink:href="#ArialMT-32"/>
       <use xlink:href="#ArialMT-30" x="55.615234"/>
       <use xlink:href="#ArialMT-30" x="111.230469"/>
       <use xlink:href="#ArialMT-30" x="166.845703"/>
      </g>
     </g>
    </g>
    <g id="xtick_5">
     <g id="text_5">
      <!-- 2010 -->
      <g style="fill: #262626" transform="translate(326.579309 331.877812) scale(0.1 -0.1)">
       <use xlink:href="#ArialMT-32"/>
       <use xlink:href="#ArialMT-30" x="55.615234"/>
       <use xlink:href="#ArialMT-31" x="111.230469"/>
       <use xlink:href="#ArialMT-30" x="166.845703"/>
      </g>
     </g>
    </g>
    <g id="xtick_6">
     <g id="text_6">
      <!-- 2020 -->
      <g style="fill: #262626" transform="translate(398.335741 331.877812) scale(0.1 -0.1)">
       <use xlink:href="#ArialMT-32"/>
       <use xlink:href="#ArialMT-30" x="55.615234"/>
       <use xlink:href="#ArialMT-32" x="111.230469"/>
       <use xlink:href="#ArialMT-30" x="166.845703"/>
      </g>
     </g>
    </g>
   </g>
   <g id="matplotlib.axis_2">
    <g id="ytick_1">
     <g id="text_7">
      <!-- 5.8 -->
      <g style="fill: #262626" transform="translate(10.76 291.443313) scale(0.1 -0.1)">
       <defs>
        <path id="ArialMT-35" d="M 266 1200 
L 856 1250 
Q 922 819 1161 601 
Q 1400 384 1738 384 
Q 2144 384 2425 690 
Q 2706 997 2706 1503 
Q 2706 1984 2436 2262 
Q 2166 2541 1728 2541 
Q 1456 2541 1237 2417 
Q 1019 2294 894 2097 
L 366 2166 
L 809 4519 
L 3088 4519 
L 3088 3981 
L 1259 3981 
L 1013 2750 
Q 1425 3038 1878 3038 
Q 2478 3038 2890 2622 
Q 3303 2206 3303 1553 
Q 3303 931 2941 478 
Q 2500 -78 1738 -78 
Q 1113 -78 717 272 
Q 322 622 266 1200 
z
" transform="scale(0.015625)"/>
        <path id="ArialMT-2e" d="M 581 0 
L 581 641 
L 1222 641 
L 1222 0 
L 581 0 
z
" transform="scale(0.015625)"/>
       </defs>
       <use xlink:href="#ArialMT-35"/>
       <use xlink:href="#ArialMT-2e" x="55.615234"/>
       <use xlink:href="#ArialMT-38" x="83.398438"/>
      </g>
     </g>
    </g>
    <g id="ytick_2">
     <g id="text_8">
      <!-- 6.0 -->
      <g style="fill: #262626" transform="translate(10.76 256.839247) scale(0.1 -0.1)">
       <defs>
        <path id="ArialMT-36" d="M 3184 3459 
L 2625 3416 
Q 2550 3747 2413 3897 
Q 2184 4138 1850 4138 
Q 1581 4138 1378 3988 
Q 1113 3794 959 3422 
Q 806 3050 800 2363 
Q 1003 2672 1297 2822 
Q 1591 2972 1913 2972 
Q 2475 2972 2870 2558 
Q 3266 2144 3266 1488 
Q 3266 1056 3080 686 
Q 2894 316 2569 119 
Q 2244 -78 1831 -78 
Q 1128 -78 684 439 
Q 241 956 241 2144 
Q 241 3472 731 4075 
Q 1159 4600 1884 4600 
Q 2425 4600 2770 4297 
Q 3116 3994 3184 3459 
z
M 888 1484 
Q 888 1194 1011 928 
Q 1134 663 1356 523 
Q 1578 384 1822 384 
Q 2178 384 2434 671 
Q 2691 959 2691 1453 
Q 2691 1928 2437 2201 
Q 2184 2475 1800 2475 
Q 1419 2475 1153 2201 
Q 888 1928 888 1484 
z
" transform="scale(0.015625)"/>
       </defs>
       <use xlink:href="#ArialMT-36"/>
       <use xlink:href="#ArialMT-2e" x="55.615234"/>
       <use xlink:href="#ArialMT-30" x="83.398438"/>
      </g>
     </g>
    </g>
    <g id="ytick_3">
     <g id="text_9">
      <!-- 6.2 -->
      <g style="fill: #262626" transform="translate(10.76 222.23518) scale(0.1 -0.1)">
       <use xlink:href="#ArialMT-36"/>
       <use xlink:href="#ArialMT-2e" x="55.615234"/>
       <use xlink:href="#ArialMT-32" x="83.398438"/>
      </g>
     </g>
    </g>
    <g id="ytick_4">
     <g id="text_10">
      <!-- 6.4 -->
      <g style="fill: #262626" transform="translate(10.76 187.631114) scale(0.1 -0.1)">
       <defs>
        <path id="ArialMT-34" d="M 2069 0 
L 2069 1097 
L 81 1097 
L 81 1613 
L 2172 4581 
L 2631 4581 
L 2631 1613 
L 3250 1613 
L 3250 1097 
L 2631 1097 
L 2631 0 
L 2069 0 
z
M 2069 1613 
L 2069 3678 
L 634 1613 
L 2069 1613 
z
" transform="scale(0.015625)"/>
       </defs>
       <use xlink:href="#ArialMT-36"/>
       <use xlink:href="#ArialMT-2e" x="55.615234"/>
       <use xlink:href="#ArialMT-34" x="83.398438"/>
      </g>
     </g>
    </g>
    <g id="ytick_5">
     <g id="text_11">
      <!-- 6.6 -->
      <g style="fill: #262626" transform="translate(10.76 153.027048) scale(0.1 -0.1)">
       <use xlink:href="#ArialMT-36"/>
       <use xlink:href="#ArialMT-2e" x="55.615234"/>
       <use xlink:href="#ArialMT-36" x="83.398438"/>
      </g>
     </g>
    </g>
    <g id="ytick_6">
     <g id="text_12">
      <!-- 6.8 -->
      <g style="fill: #262626" transform="translate(10.76 118.422982) scale(0.1 -0.1)">
       <use xlink:href="#ArialMT-36"/>
       <use xlink:href="#ArialMT-2e" x="55.615234"/>
       <use xlink:href="#ArialMT-38" x="83.398438"/>
      </g>
     </g>
    </g>
    <g id="ytick_7">
     <g id="text_13">
      <!-- 7.0 -->
      <g style="fill: #262626" transform="translate(10.76 83.818916) scale(0.1 -0.1)">
       <use xlink:href="#ArialMT-37"/>
       <use xlink:href="#ArialMT-2e" x="55.615234"/>
       <use xlink:href="#ArialMT-30" x="83.398438"/>
      </g>
     </g>
    </g>
    <g id="ytick_8">
     <g id="text_14">
      <!-- 7.2 -->
      <g style="fill: #262626" transform="translate(10.76 49.21485) scale(0.1 -0.1)">
       <use xlink:href="#ArialMT-37"/>
       <use xlink:href="#ArialMT-2e" x="55.615234"/>
       <use xlink:href="#ArialMT-32" x="83.398438"/>
      </g>
     </g>
    </g>
   </g>
   <g id="PathCollection_1">
    <path d="M 50.675455 241.514675 
C 50.805951 241.514675 50.931121 241.462828 51.023396 241.370553 
C 51.115671 241.278278 51.167518 241.153109 51.167518 241.022612 
C 51.167518 240.892116 51.115671 240.766946 51.023396 240.674671 
C 50.931121 240.582396 50.805951 240.530549 50.675455 240.530549 
C 50.544958 240.530549 50.419789 240.582396 50.327513 240.674671 
C 50.235238 240.766946 50.183392 240.892116 50.183392 241.022612 
C 50.183392 241.153109 50.235238 241.278278 50.327513 241.370553 
C 50.419789 241.462828 50.544958 241.514675 50.675455 241.514675 
z
" clip-path="url(#p5ed6934a2d)" style="fill: #800080; fill-opacity: 0.8; stroke: #800080; stroke-opacity: 0.8"/>
    <path d="M 57.851098 234.497854 
C 57.979993 234.497854 58.103627 234.446643 58.194769 234.3555 
C 58.285912 234.264357 58.337123 234.140724 58.337123 234.011829 
C 58.337123 233.882933 58.285912 233.7593 58.194769 233.668157 
C 58.103627 233.577014 57.979993 233.525803 57.851098 233.525803 
C 57.722202 233.525803 57.598569 233.577014 57.507426 233.668157 
C 57.416283 233.7593 57.365073 233.882933 57.365073 234.011829 
C 57.365073 234.140724 57.416283 234.264357 57.507426 234.3555 
C 57.598569 234.446643 57.722202 234.497854 57.851098 234.497854 
z
" clip-path="url(#p5ed6934a2d)" style="fill: #800080; fill-opacity: 0.8; stroke: #800080; stroke-opacity: 0.8"/>
    <path d="M 65.026741 250.81373 
C 65.196031 250.81373 65.358411 250.74647 65.478117 250.626764 
C 65.597823 250.507057 65.665083 250.344678 65.665083 250.175388 
C 65.665083 250.006098 65.597823 249.843718 65.478117 249.724012 
C 65.358411 249.604306 65.196031 249.537046 65.026741 249.537046 
C 64.857451 249.537046 64.695071 249.604306 64.575365 249.724012 
C 64.455659 249.843718 64.388399 250.006098 64.388399 250.175388 
C 64.388399 250.344678 64.455659 250.507057 64.575365 250.626764 
C 64.695071 250.74647 64.857451 250.81373 65.026741 250.81373 
z
" clip-path="url(#p5ed6934a2d)" style="fill: #800080; fill-opacity: 0.8; stroke: #800080; stroke-opacity: 0.8"/>
    <path d="M 72.202384 262.945408 
C 72.378881 262.945408 72.548174 262.875284 72.672976 262.750482 
C 72.797778 262.62568 72.867902 262.456387 72.867902 262.27989 
C 72.867902 262.103393 72.797778 261.934101 72.672976 261.809298 
C 72.548174 261.684496 72.378881 261.614373 72.202384 261.614373 
C 72.025887 261.614373 71.856595 261.684496 71.731792 261.809298 
C 71.60699 261.934101 71.536867 262.103393 71.536867 262.27989 
C 71.536867 262.456387 71.60699 262.62568 71.731792 262.750482 
C 71.856595 262.875284 72.025887 262.945408 72.202384 262.945408 
z
" clip-path="url(#p5ed6934a2d)" style="fill: #800080; fill-opacity: 0.8; stroke: #800080; stroke-opacity: 0.8"/>
    <path d="M 79.378027 235.012237 
C 79.555697 235.012237 79.726115 234.941648 79.851746 234.816016 
C 79.977378 234.690384 80.047967 234.519967 80.047967 234.342297 
C 80.047967 234.164627 79.977378 233.99421 79.851746 233.868579 
C 79.726115 233.742947 79.555697 233.672358 79.378027 233.672358 
C 79.200357 233.672358 79.02994 233.742947 78.904309 233.868579 
C 78.778677 233.99421 78.708088 234.164627 78.708088 234.342297 
C 78.708088 234.519967 78.778677 234.690384 78.904309 234.816016 
C 79.02994 234.941648 79.200357 235.012237 79.378027 235.012237 
z
" clip-path="url(#p5ed6934a2d)" style="fill: #800080; fill-opacity: 0.8; stroke: #800080; stroke-opacity: 0.8"/>
    <path d="M 86.553671 238.353907 
C 86.781528 238.353907 87.000083 238.263378 87.161202 238.102259 
C 87.322321 237.94114 87.41285 237.722585 87.41285 237.494728 
C 87.41285 237.266871 87.322321 237.048316 87.161202 236.887196 
C 87.000083 236.726077 86.781528 236.635549 86.553671 236.635549 
C 86.325814 236.635549 86.107258 236.726077 85.946139 236.887196 
C 85.78502 237.048316 85.694491 237.266871 85.694491 237.494728 
C 85.694491 237.722585 85.78502 237.94114 85.946139 238.102259 
C 86.107258 238.263378 86.325814 238.353907 86.553671 238.353907 
z
" clip-path="url(#p5ed6934a2d)" style="fill: #800080; fill-opacity: 0.8; stroke: #800080; stroke-opacity: 0.8"/>
    <path d="M 93.729314 233.907332 
C 93.899826 233.907332 94.063378 233.839586 94.183949 233.719016 
C 94.304519 233.598445 94.372265 233.434893 94.372265 233.264381 
C 94.372265 233.093868 94.304519 232.930316 94.183949 232.809746 
C 94.063378 232.689175 93.899826 232.62143 93.729314 232.62143 
C 93.558801 232.62143 93.39525 232.689175 93.274679 232.809746 
C 93.154108 232.930316 93.086363 233.093868 93.086363 233.264381 
C 93.086363 233.434893 93.154108 233.598445 93.274679 233.719016 
C 93.39525 233.839586 93.558801 233.907332 93.729314 233.907332 
z
" clip-path="url(#p5ed6934a2d)" style="fill: #800080; fill-opacity: 0.8; stroke: #800080; stroke-opacity: 0.8"/>
    <path d="M 100.904957 234.70226 
C 101.12064 234.70226 101.327519 234.616568 101.48003 234.464057 
C 101.632541 234.311546 101.718233 234.104667 101.718233 233.888984 
C 101.718233 233.673301 101.632541 233.466422 101.48003 233.313911 
C 101.327519 233.1614 101.12064 233.075708 100.904957 233.075708 
C 100.689274 233.075708 100.482395 233.1614 100.329884 233.313911 
C 100.177373 233.466422 100.091681 233.673301 100.091681 233.888984 
C 100.091681 234.104667 100.177373 234.311546 100.329884 234.464057 
C 100.482395 234.616568 100.689274 234.70226 100.904957 234.70226 
z
" clip-path="url(#p5ed6934a2d)" style="fill: #800080; fill-opacity: 0.8; stroke: #800080; stroke-opacity: 0.8"/>
    <path d="M 108.0806 245.422113 
C 108.287436 245.422113 108.485829 245.339936 108.632084 245.193681 
C 108.778339 245.047426 108.860516 244.849034 108.860516 244.642198 
C 108.860516 244.435362 108.778339 244.236969 108.632084 244.090714 
C 108.485829 243.944459 108.287436 243.862282 108.0806 243.862282 
C 107.873764 243.862282 107.675372 243.944459 107.529117 244.090714 
C 107.382862 244.236969 107.300685 244.435362 107.300685 244.642198 
C 107.300685 244.849034 107.382862 245.047426 107.529117 245.193681 
C 107.675372 245.339936 107.873764 245.422113 108.0806 245.422113 
z
" clip-path="url(#p5ed6934a2d)" style="fill: #800080; fill-opacity: 0.8; stroke: #800080; stroke-opacity: 0.8"/>
    <path d="M 115.256244 206.57039 
C 115.495656 206.57039 115.725295 206.47527 115.894585 206.30598 
C 116.063876 206.13669 116.158995 205.90705 116.158995 205.667638 
C 116.158995 205.428225 116.063876 205.198586 115.894585 205.029296 
C 115.725295 204.860006 115.495656 204.764886 115.256244 204.764886 
C 115.016831 204.764886 114.787192 204.860006 114.617902 205.029296 
C 114.448611 205.198586 114.353492 205.428225 114.353492 205.667638 
C 114.353492 205.90705 114.448611 206.13669 114.617902 206.30598 
C 114.787192 206.47527 115.016831 206.57039 115.256244 206.57039 
z
" clip-path="url(#p5ed6934a2d)" style="fill: #800080; fill-opacity: 0.8; stroke: #800080; stroke-opacity: 0.8"/>
    <path d="M 122.431887 217.795138 
C 122.666037 217.795138 122.890628 217.702109 123.056197 217.53654 
C 123.221767 217.370971 123.314795 217.146379 123.314795 216.912229 
C 123.314795 216.678079 123.221767 216.453488 123.056197 216.287919 
C 122.890628 216.122349 122.666037 216.029321 122.431887 216.029321 
C 122.197737 216.029321 121.973145 216.122349 121.807576 216.287919 
C 121.642007 216.453488 121.548978 216.678079 121.548978 216.912229 
C 121.548978 217.146379 121.642007 217.370971 121.807576 217.53654 
C 121.973145 217.702109 122.197737 217.795138 122.431887 217.795138 
z
" clip-path="url(#p5ed6934a2d)" style="fill: #800080; fill-opacity: 0.8; stroke: #800080; stroke-opacity: 0.8"/>
    <path d="M 129.60753 237.492674 
C 129.865321 237.492674 130.112588 237.390252 130.294873 237.207967 
C 130.477159 237.025681 130.57958 236.778414 130.57958 236.520623 
C 130.57958 236.262833 130.477159 236.015566 130.294873 235.83328 
C 130.112588 235.650994 129.865321 235.548573 129.60753 235.548573 
C 129.349739 235.548573 129.102472 235.650994 128.920187 235.83328 
C 128.737901 236.015566 128.63548 236.262833 128.63548 236.520623 
C 128.63548 236.778414 128.737901 237.025681 128.920187 237.207967 
C 129.102472 237.390252 129.349739 237.492674 129.60753 237.492674 
z
" clip-path="url(#p5ed6934a2d)" style="fill: #800080; fill-opacity: 0.8; stroke: #800080; stroke-opacity: 0.8"/>
    <path d="M 136.783173 241.07792 
C 137.020845 241.07792 137.248814 240.983492 137.416873 240.815433 
C 137.584932 240.647374 137.679359 240.419405 137.679359 240.181733 
C 137.679359 239.944062 137.584932 239.716093 137.416873 239.548034 
C 137.248814 239.379975 137.020845 239.285547 136.783173 239.285547 
C 136.545502 239.285547 136.317533 239.379975 136.149474 239.548034 
C 135.981415 239.716093 135.886987 239.944062 135.886987 240.181733 
C 135.886987 240.419405 135.981415 240.647374 136.149474 240.815433 
C 136.317533 240.983492 136.545502 241.07792 136.783173 241.07792 
z
" clip-path="url(#p5ed6934a2d)" style="fill: #800080; fill-opacity: 0.8; stroke: #800080; stroke-opacity: 0.8"/>
    <path d="M 143.958816 236.324255 
C 144.205913 236.324255 144.442922 236.226083 144.617645 236.051359 
C 144.792368 235.876636 144.890541 235.639627 144.890541 235.392531 
C 144.890541 235.145435 144.792368 234.908426 144.617645 234.733702 
C 144.442922 234.558979 144.205913 234.460806 143.958816 234.460806 
C 143.71172 234.460806 143.474711 234.558979 143.299988 234.733702 
C 143.125264 234.908426 143.027092 235.145435 143.027092 235.392531 
C 143.027092 235.639627 143.125264 235.876636 143.299988 236.051359 
C 143.474711 236.226083 143.71172 236.324255 143.958816 236.324255 
z
" clip-path="url(#p5ed6934a2d)" style="fill: #800080; fill-opacity: 0.8; stroke: #800080; stroke-opacity: 0.8"/>
    <path d="M 151.13446 267.885016 
C 151.346256 267.885016 151.549407 267.800868 151.69917 267.651105 
C 151.848933 267.501342 151.933081 267.298192 151.933081 267.086395 
C 151.933081 266.874598 151.848933 266.671448 151.69917 266.521685 
C 151.549407 266.371922 151.346256 266.287774 151.13446 266.287774 
C 150.922663 266.287774 150.719512 266.371922 150.569749 266.521685 
C 150.419987 266.671448 150.335839 266.874598 150.335839 267.086395 
C 150.335839 267.298192 150.419987 267.501342 150.569749 267.651105 
C 150.719512 267.800868 150.922663 267.885016 151.13446 267.885016 
z
" clip-path="url(#p5ed6934a2d)" style="fill: #800080; fill-opacity: 0.8; stroke: #800080; stroke-opacity: 0.8"/>
    <path d="M 158.310103 235.695086 
C 158.548646 235.695086 158.777452 235.600311 158.946128 235.431635 
C 159.114803 235.26296 159.209578 235.034154 159.209578 234.795611 
C 159.209578 234.557067 159.114803 234.328262 158.946128 234.159586 
C 158.777452 233.99091 158.548646 233.896136 158.310103 233.896136 
C 158.071559 233.896136 157.842754 233.99091 157.674078 234.159586 
C 157.505402 234.328262 157.410628 234.557067 157.410628 234.795611 
C 157.410628 235.034154 157.505402 235.26296 157.674078 235.431635 
C 157.842754 235.600311 158.071559 235.695086 158.310103 235.695086 
z
" clip-path="url(#p5ed6934a2d)" style="fill: #800080; fill-opacity: 0.8; stroke: #800080; stroke-opacity: 0.8"/>
    <path d="M 165.485746 246.256037 
C 165.740294 246.256037 165.984451 246.154904 166.164443 245.974912 
C 166.344436 245.794919 166.445569 245.550762 166.445569 245.296214 
C 166.445569 245.041666 166.344436 244.79751 166.164443 244.617517 
C 165.984451 244.437525 165.740294 244.336392 165.485746 244.336392 
C 165.231198 244.336392 164.987042 244.437525 164.807049 244.617517 
C 164.627056 244.79751 164.525923 245.041666 164.525923 245.296214 
C 164.525923 245.550762 164.627056 245.794919 164.807049 245.974912 
C 164.987042 246.154904 165.231198 246.256037 165.485746 246.256037 
z
" clip-path="url(#p5ed6934a2d)" style="fill: #800080; fill-opacity: 0.8; stroke: #800080; stroke-opacity: 0.8"/>
    <path d="M 172.661389 257.08006 
C 172.907644 257.08006 173.143845 256.982222 173.317973 256.808094 
C 173.492101 256.633966 173.589939 256.397764 173.589939 256.15151 
C 173.589939 255.905256 173.492101 255.669054 173.317973 255.494926 
C 173.143845 255.320798 172.907644 255.22296 172.661389 255.22296 
C 172.415135 255.22296 172.178934 255.320798 172.004806 255.494926 
C 171.830677 255.669054 171.73284 255.905256 171.73284 256.15151 
C 171.73284 256.397764 171.830677 256.633966 172.004806 256.808094 
C 172.178934 256.982222 172.415135 257.08006 172.661389 257.08006 
z
" clip-path="url(#p5ed6934a2d)" style="fill: #800080; fill-opacity: 0.8; stroke: #800080; stroke-opacity: 0.8"/>
    <path d="M 179.837033 288.801141 
C 180.079033 288.801141 180.311155 288.704993 180.482276 288.533872 
C 180.653396 288.362752 180.749544 288.13063 180.749544 287.888629 
C 180.749544 287.646628 180.653396 287.414507 180.482276 287.243386 
C 180.311155 287.072266 180.079033 286.976118 179.837033 286.976118 
C 179.595032 286.976118 179.36291 287.072266 179.19179 287.243386 
C 179.020669 287.414507 178.924521 287.646628 178.924521 287.888629 
C 178.924521 288.13063 179.020669 288.362752 179.19179 288.533872 
C 179.36291 288.704993 179.595032 288.801141 179.837033 288.801141 
z
" clip-path="url(#p5ed6934a2d)" style="fill: #800080; fill-opacity: 0.8; stroke: #800080; stroke-opacity: 0.8"/>
    <path d="M 187.012676 265.531406 
C 187.255533 265.531406 187.488477 265.434918 187.660203 265.263192 
C 187.831929 265.091466 187.928417 264.858522 187.928417 264.615665 
C 187.928417 264.372807 187.831929 264.139864 187.660203 263.968138 
C 187.488477 263.796411 187.255533 263.699923 187.012676 263.699923 
C 186.769818 263.699923 186.536875 263.796411 186.365149 263.968138 
C 186.193423 264.139864 186.096934 264.372807 186.096934 264.615665 
C 186.096934 264.858522 186.193423 265.091466 186.365149 265.263192 
C 186.536875 265.434918 186.769818 265.531406 187.012676 265.531406 
z
" clip-path="url(#p5ed6934a2d)" style="fill: #800080; fill-opacity: 0.8; stroke: #800080; stroke-opacity: 0.8"/>
    <path d="M 194.188319 252.454005 
C 194.44205 252.454005 194.685423 252.353196 194.864837 252.173782 
C 195.044252 251.994367 195.145061 251.750994 195.145061 251.497263 
C 195.145061 251.243532 195.044252 251.000159 194.864837 250.820745 
C 194.685423 250.64133 194.44205 250.540522 194.188319 250.540522 
C 193.934588 250.540522 193.691215 250.64133 193.511801 250.820745 
C 193.332386 251.000159 193.231578 251.243532 193.231578 251.497263 
C 193.231578 251.750994 193.332386 251.994367 193.511801 252.173782 
C 193.691215 252.353196 193.934588 252.454005 194.188319 252.454005 
z
" clip-path="url(#p5ed6934a2d)" style="fill: #800080; fill-opacity: 0.8; stroke: #800080; stroke-opacity: 0.8"/>
    <path d="M 201.363962 260.530469 
C 201.637391 260.530469 201.899657 260.421834 202.093 260.228491 
C 202.286343 260.035148 202.394977 259.772882 202.394977 259.499453 
C 202.394977 259.226025 202.286343 258.963759 202.093 258.770416 
C 201.899657 258.577073 201.637391 258.468438 201.363962 258.468438 
C 201.090534 258.468438 200.828268 258.577073 200.634924 258.770416 
C 200.441581 258.963759 200.332947 259.226025 200.332947 259.499453 
C 200.332947 259.772882 200.441581 260.035148 200.634924 260.228491 
C 200.828268 260.421834 201.090534 260.530469 201.363962 260.530469 
z
" clip-path="url(#p5ed6934a2d)" style="fill: #800080; fill-opacity: 0.8; stroke: #800080; stroke-opacity: 0.8"/>
    <path d="M 208.539605 226.035064 
C 208.836345 226.035064 209.120971 225.917168 209.330797 225.707341 
C 209.540624 225.497515 209.658519 225.212889 209.658519 224.91615 
C 209.658519 224.61941 209.540624 224.334785 209.330797 224.124958 
C 209.120971 223.915132 208.836345 223.797236 208.539605 223.797236 
C 208.242866 223.797236 207.95824 223.915132 207.748414 224.124958 
C 207.538587 224.334785 207.420692 224.61941 207.420692 224.91615 
C 207.420692 225.212889 207.538587 225.497515 207.748414 225.707341 
C 207.95824 225.917168 208.242866 226.035064 208.539605 226.035064 
z
" clip-path="url(#p5ed6934a2d)" style="fill: #800080; fill-opacity: 0.8; stroke: #800080; stroke-opacity: 0.8"/>
    <path d="M 215.715249 244.08922 
C 216.001298 244.08922 216.275669 243.975571 216.477937 243.773304 
C 216.680204 243.571037 216.793852 243.296665 216.793852 243.010616 
C 216.793852 242.724567 216.680204 242.450195 216.477937 242.247928 
C 216.275669 242.045661 216.001298 241.932012 215.715249 241.932012 
C 215.4292 241.932012 215.154828 242.045661 214.952561 242.247928 
C 214.750294 242.450195 214.636645 242.724567 214.636645 243.010616 
C 214.636645 243.296665 214.750294 243.571037 214.952561 243.773304 
C 215.154828 243.975571 215.4292 244.08922 215.715249 244.08922 
z
" clip-path="url(#p5ed6934a2d)" style="fill: #800080; fill-opacity: 0.8; stroke: #800080; stroke-opacity: 0.8"/>
    <path d="M 222.890892 246.757943 
C 223.172551 246.757943 223.442712 246.646038 223.641876 246.446875 
C 223.841039 246.247712 223.952943 245.977551 223.952943 245.695891 
C 223.952943 245.414232 223.841039 245.144071 223.641876 244.944908 
C 223.442712 244.745745 223.172551 244.63384 222.890892 244.63384 
C 222.609233 244.63384 222.339072 244.745745 222.139908 244.944908 
C 221.940745 245.144071 221.828841 245.414232 221.828841 245.695891 
C 221.828841 245.977551 221.940745 246.247712 222.139908 246.446875 
C 222.339072 246.646038 222.609233 246.757943 222.890892 246.757943 
z
" clip-path="url(#p5ed6934a2d)" style="fill: #800080; fill-opacity: 0.8; stroke: #800080; stroke-opacity: 0.8"/>
    <path d="M 230.066535 229.415969 
C 230.371557 229.415969 230.664128 229.294782 230.879811 229.079099 
C 231.095494 228.863416 231.216681 228.570845 231.216681 228.265823 
C 231.216681 227.960801 231.095494 227.668231 230.879811 227.452548 
C 230.664128 227.236864 230.371557 227.115678 230.066535 227.115678 
C 229.761513 227.115678 229.468943 227.236864 229.253259 227.452548 
C 229.037576 227.668231 228.91639 227.960801 228.91639 228.265823 
C 228.91639 228.570845 229.037576 228.863416 229.253259 229.079099 
C 229.468943 229.294782 229.761513 229.415969 230.066535 229.415969 
z
" clip-path="url(#p5ed6934a2d)" style="fill: #800080; fill-opacity: 0.8; stroke: #800080; stroke-opacity: 0.8"/>
    <path d="M 237.242178 265.233663 
C 237.549236 265.233663 237.843759 265.111668 238.060882 264.894545 
C 238.278005 264.677422 238.4 264.382899 238.4 264.075841 
C 238.4 263.768783 238.278005 263.47426 238.060882 263.257138 
C 237.843759 263.040015 237.549236 262.918019 237.242178 262.918019 
C 236.93512 262.918019 236.640598 263.040015 236.423475 263.257138 
C 236.206352 263.47426 236.084357 263.768783 236.084357 264.075841 
C 236.084357 264.382899 236.206352 264.677422 236.423475 264.894545 
C 236.640598 265.111668 236.93512 265.233663 237.242178 265.233663 
z
" clip-path="url(#p5ed6934a2d)" style="fill: #800080; fill-opacity: 0.8; stroke: #800080; stroke-opacity: 0.8"/>
    <path d="M 244.417822 238.210413 
C 244.732891 238.210413 245.035099 238.085235 245.257886 237.862447 
C 245.480674 237.639659 245.605852 237.337452 245.605852 237.022382 
C 245.605852 236.707313 245.480674 236.405105 245.257886 236.182318 
C 245.035099 235.95953 244.732891 235.834351 244.417822 235.834351 
C 244.102752 235.834351 243.800545 235.95953 243.577757 236.182318 
C 243.354969 236.405105 243.229791 236.707313 243.229791 237.022382 
C 243.229791 237.337452 243.354969 237.639659 243.577757 237.862447 
C 243.800545 238.085235 244.102752 238.210413 244.417822 238.210413 
z
" clip-path="url(#p5ed6934a2d)" style="fill: #800080; fill-opacity: 0.8; stroke: #800080; stroke-opacity: 0.8"/>
    <path d="M 251.593465 262.012659 
C 251.922716 262.012659 252.238527 261.881846 252.471343 261.649031 
C 252.704158 261.416215 252.834971 261.100404 252.834971 260.771153 
C 252.834971 260.441901 252.704158 260.126091 252.471343 259.893275 
C 252.238527 259.660459 251.922716 259.529646 251.593465 259.529646 
C 251.264213 259.529646 250.948403 259.660459 250.715587 259.893275 
C 250.482771 260.126091 250.351958 260.441901 250.351958 260.771153 
C 250.351958 261.100404 250.482771 261.416215 250.715587 261.649031 
C 250.948403 261.881846 251.264213 262.012659 251.593465 262.012659 
z
" clip-path="url(#p5ed6934a2d)" style="fill: #800080; fill-opacity: 0.8; stroke: #800080; stroke-opacity: 0.8"/>
    <path d="M 258.769108 242.154476 
C 259.111955 242.154476 259.440806 242.018261 259.683236 241.775831 
C 259.925666 241.533402 260.06188 241.204551 260.06188 240.861703 
C 260.06188 240.518856 259.925666 240.190005 259.683236 239.947575 
C 259.440806 239.705146 259.111955 239.568931 258.769108 239.568931 
C 258.426261 239.568931 258.09741 239.705146 257.85498 239.947575 
C 257.612551 240.190005 257.476336 240.518856 257.476336 240.861703 
C 257.476336 241.204551 257.612551 241.533402 257.85498 241.775831 
C 258.09741 242.018261 258.426261 242.154476 258.769108 242.154476 
z
" clip-path="url(#p5ed6934a2d)" style="fill: #800080; fill-opacity: 0.8; stroke: #800080; stroke-opacity: 0.8"/>
    <path d="M 265.944751 259.732137 
C 266.302421 259.732137 266.645491 259.590034 266.898402 259.337123 
C 267.151313 259.084212 267.293416 258.741142 267.293416 258.383472 
C 267.293416 258.025802 267.151313 257.682733 266.898402 257.429822 
C 266.645491 257.176911 266.302421 257.034807 265.944751 257.034807 
C 265.587081 257.034807 265.244012 257.176911 264.991101 257.429822 
C 264.73819 257.682733 264.596086 258.025802 264.596086 258.383472 
C 264.596086 258.741142 264.73819 259.084212 264.991101 259.337123 
C 265.244012 259.590034 265.587081 259.732137 265.944751 259.732137 
z
" clip-path="url(#p5ed6934a2d)" style="fill: #800080; fill-opacity: 0.8; stroke: #800080; stroke-opacity: 0.8"/>
    <path d="M 273.120395 263.269584 
C 273.479224 263.269584 273.823405 263.12702 274.077136 262.873289 
C 274.330867 262.619558 274.473431 262.275377 274.473431 261.916547 
C 274.473431 261.557718 274.330867 261.213537 274.077136 260.959806 
C 273.823405 260.706075 273.479224 260.563511 273.120395 260.563511 
C 272.761565 260.563511 272.417384 260.706075 272.163653 260.959806 
C 271.909922 261.213537 271.767358 261.557718 271.767358 261.916547 
C 271.767358 262.275377 271.909922 262.619558 272.163653 262.873289 
C 272.417384 263.12702 272.761565 263.269584 273.120395 263.269584 
z
" clip-path="url(#p5ed6934a2d)" style="fill: #800080; fill-opacity: 0.8; stroke: #800080; stroke-opacity: 0.8"/>
    <path d="M 280.296038 258.238018 
C 280.677315 258.238018 281.043028 258.086535 281.312632 257.816931 
C 281.582236 257.547327 281.73372 257.181614 281.73372 256.800336 
C 281.73372 256.419059 281.582236 256.053346 281.312632 255.783742 
C 281.043028 255.514138 280.677315 255.362654 280.296038 255.362654 
C 279.91476 255.362654 279.549047 255.514138 279.279443 255.783742 
C 279.009839 256.053346 278.858356 256.419059 278.858356 256.800336 
C 278.858356 257.181614 279.009839 257.547327 279.279443 257.816931 
C 279.549047 258.086535 279.91476 258.238018 280.296038 258.238018 
z
" clip-path="url(#p5ed6934a2d)" style="fill: #800080; fill-opacity: 0.8; stroke: #800080; stroke-opacity: 0.8"/>
    <path d="M 287.471681 255.052213 
C 287.891829 255.052213 288.294824 254.885287 288.591914 254.588197 
C 288.889003 254.291108 289.055929 253.888112 289.055929 253.467965 
C 289.055929 253.047817 288.889003 252.644821 288.591914 252.347732 
C 288.294824 252.050643 287.891829 251.883716 287.471681 251.883716 
C 287.051533 251.883716 286.648537 252.050643 286.351448 252.347732 
C 286.054359 252.644821 285.887433 253.047817 285.887433 253.467965 
C 285.887433 253.888112 286.054359 254.291108 286.351448 254.588197 
C 286.648537 254.885287 287.051533 255.052213 287.471681 255.052213 
z
" clip-path="url(#p5ed6934a2d)" style="fill: #800080; fill-opacity: 0.8; stroke: #800080; stroke-opacity: 0.8"/>
    <path d="M 294.647324 241.325367 
C 295.108924 241.325367 295.551681 241.141971 295.878082 240.815571 
C 296.204482 240.48917 296.387878 240.046414 296.387878 239.584813 
C 296.387878 239.123213 296.204482 238.680457 295.878082 238.354056 
C 295.551681 238.027655 295.108924 237.84426 294.647324 237.84426 
C 294.185724 237.84426 293.742967 238.027655 293.416567 238.354056 
C 293.090166 238.680457 292.90677 239.123213 292.90677 239.584813 
C 292.90677 240.046414 293.090166 240.48917 293.416567 240.815571 
C 293.742967 241.141971 294.185724 241.325367 294.647324 241.325367 
z
" clip-path="url(#p5ed6934a2d)" style="fill: #800080; fill-opacity: 0.8; stroke: #800080; stroke-opacity: 0.8"/>
    <path d="M 301.822967 249.051062 
C 302.304388 249.051062 302.766155 248.859791 303.106571 248.519376 
C 303.446986 248.17896 303.638257 247.717193 303.638257 247.235772 
C 303.638257 246.754352 303.446986 246.292585 303.106571 245.952169 
C 302.766155 245.611753 302.304388 245.420483 301.822967 245.420483 
C 301.341547 245.420483 300.87978 245.611753 300.539364 245.952169 
C 300.198948 246.292585 300.007678 246.754352 300.007678 247.235772 
C 300.007678 247.717193 300.198948 248.17896 300.539364 248.519376 
C 300.87978 248.859791 301.341547 249.051062 301.822967 249.051062 
z
" clip-path="url(#p5ed6934a2d)" style="fill: #800080; fill-opacity: 0.8; stroke: #800080; stroke-opacity: 0.8"/>
    <path d="M 308.998611 249.428063 
C 309.472641 249.428063 309.92732 249.239729 310.26251 248.904539 
C 310.5977 248.569349 310.786034 248.11467 310.786034 247.64064 
C 310.786034 247.16661 310.5977 246.711931 310.26251 246.376741 
C 309.92732 246.041551 309.472641 245.853217 308.998611 245.853217 
C 308.52458 245.853217 308.069901 246.041551 307.734712 246.376741 
C 307.399522 246.711931 307.211187 247.16661 307.211187 247.64064 
C 307.211187 248.11467 307.399522 248.569349 307.734712 248.904539 
C 308.069901 249.239729 308.52458 249.428063 308.998611 249.428063 
z
" clip-path="url(#p5ed6934a2d)" style="fill: #800080; fill-opacity: 0.8; stroke: #800080; stroke-opacity: 0.8"/>
    <path d="M 316.174254 242.779178 
C 316.655243 242.779178 317.116596 242.588079 317.456707 242.247968 
C 317.796817 241.907858 317.987916 241.446504 317.987916 240.965516 
C 317.987916 240.484527 317.796817 240.023173 317.456707 239.683063 
C 317.116596 239.342952 316.655243 239.151854 316.174254 239.151854 
C 315.693265 239.151854 315.231912 239.342952 314.891801 239.683063 
C 314.551691 240.023173 314.360592 240.484527 314.360592 240.965516 
C 314.360592 241.446504 314.551691 241.907858 314.891801 242.247968 
C 315.231912 242.588079 315.693265 242.779178 316.174254 242.779178 
z
" clip-path="url(#p5ed6934a2d)" style="fill: #800080; fill-opacity: 0.8; stroke: #800080; stroke-opacity: 0.8"/>
    <path d="M 323.349897 216.763734 
C 323.852424 216.763734 324.334436 216.564078 324.689776 216.208738 
C 325.045116 215.853398 325.244772 215.371386 325.244772 214.868859 
C 325.244772 214.366332 325.045116 213.88432 324.689776 213.52898 
C 324.334436 213.17364 323.852424 212.973984 323.349897 212.973984 
C 322.84737 212.973984 322.365358 213.17364 322.010018 213.52898 
C 321.654678 213.88432 321.455022 214.366332 321.455022 214.868859 
C 321.455022 215.371386 321.654678 215.853398 322.010018 216.208738 
C 322.365358 216.564078 322.84737 216.763734 323.349897 216.763734 
z
" clip-path="url(#p5ed6934a2d)" style="fill: #800080; fill-opacity: 0.8; stroke: #800080; stroke-opacity: 0.8"/>
    <path d="M 330.52554 214.188787 
C 331.055032 214.188787 331.562909 213.978417 331.937316 213.60401 
C 332.311723 213.229603 332.522092 212.721726 332.522092 212.192235 
C 332.522092 211.662743 332.311723 211.154866 331.937316 210.780459 
C 331.562909 210.406052 331.055032 210.195682 330.52554 210.195682 
C 329.996048 210.195682 329.488172 210.406052 329.113765 210.780459 
C 328.739357 211.154866 328.528988 211.662743 328.528988 212.192235 
C 328.528988 212.721726 328.739357 213.229603 329.113765 213.60401 
C 329.488172 213.978417 329.996048 214.188787 330.52554 214.188787 
z
" clip-path="url(#p5ed6934a2d)" style="fill: #800080; fill-opacity: 0.8; stroke: #800080; stroke-opacity: 0.8"/>
    <path d="M 337.701184 195.808546 
C 338.254459 195.808546 338.785147 195.588727 339.176372 195.197503 
C 339.567597 194.806278 339.787415 194.275589 339.787415 193.722314 
C 339.787415 193.169039 339.567597 192.63835 339.176372 192.247126 
C 338.785147 191.855901 338.254459 191.636083 337.701184 191.636083 
C 337.147908 191.636083 336.61722 191.855901 336.225995 192.247126 
C 335.83477 192.63835 335.614952 193.169039 335.614952 193.722314 
C 335.614952 194.275589 335.83477 194.806278 336.225995 195.197503 
C 336.61722 195.588727 337.147908 195.808546 337.701184 195.808546 
z
" clip-path="url(#p5ed6934a2d)" style="fill: #800080; fill-opacity: 0.8; stroke: #800080; stroke-opacity: 0.8"/>
    <path d="M 344.876827 195.815287 
C 345.44382 195.815287 345.987667 195.590019 346.388592 195.189094 
C 346.789516 194.788169 347.014785 194.244322 347.014785 193.677329 
C 347.014785 193.110336 346.789516 192.566489 346.388592 192.165564 
C 345.987667 191.764639 345.44382 191.539371 344.876827 191.539371 
C 344.309834 191.539371 343.765987 191.764639 343.365062 192.165564 
C 342.964137 192.566489 342.738868 193.110336 342.738868 193.677329 
C 342.738868 194.244322 342.964137 194.788169 343.365062 195.189094 
C 343.765987 195.590019 344.309834 195.815287 344.876827 195.815287 
z
" clip-path="url(#p5ed6934a2d)" style="fill: #800080; fill-opacity: 0.8; stroke: #800080; stroke-opacity: 0.8"/>
    <path d="M 352.05247 196.947517 
C 352.653598 196.947517 353.230186 196.708687 353.655248 196.283625 
C 354.08031 195.858563 354.319141 195.281975 354.319141 194.680847 
C 354.319141 194.079719 354.08031 193.503131 353.655248 193.078069 
C 353.230186 192.653007 352.653598 192.414176 352.05247 192.414176 
C 351.451342 192.414176 350.874754 192.653007 350.449692 193.078069 
C 350.02463 193.503131 349.785799 194.079719 349.785799 194.680847 
C 349.785799 195.281975 350.02463 195.858563 350.449692 196.283625 
C 350.874754 196.708687 351.451342 196.947517 352.05247 196.947517 
z
" clip-path="url(#p5ed6934a2d)" style="fill: #800080; fill-opacity: 0.8; stroke: #800080; stroke-opacity: 0.8"/>
    <path d="M 359.228113 191.701748 
C 359.846274 191.701748 360.439199 191.45615 360.876305 191.019045 
C 361.31341 190.581939 361.559008 189.989014 361.559008 189.370853 
C 361.559008 188.752692 361.31341 188.159767 360.876305 187.722661 
C 360.439199 187.285556 359.846274 187.039958 359.228113 187.039958 
C 358.609953 187.039958 358.017027 187.285556 357.579922 187.722661 
C 357.142816 188.159767 356.897218 188.752692 356.897218 189.370853 
C 356.897218 189.989014 357.142816 190.581939 357.579922 191.019045 
C 358.017027 191.45615 358.609953 191.701748 359.228113 191.701748 
z
" clip-path="url(#p5ed6934a2d)" style="fill: #800080; fill-opacity: 0.8; stroke: #800080; stroke-opacity: 0.8"/>
    <path d="M 366.403756 189.88033 
C 367.068849 189.88033 367.706791 189.616086 368.177082 189.145794 
C 368.647374 188.675503 368.911618 188.037561 368.911618 187.372468 
C 368.911618 186.707375 368.647374 186.069434 368.177082 185.599142 
C 367.706791 185.128851 367.068849 184.864607 366.403756 184.864607 
C 365.738664 184.864607 365.100722 185.128851 364.63043 185.599142 
C 364.160139 186.069434 363.895895 186.707375 363.895895 187.372468 
C 363.895895 188.037561 364.160139 188.675503 364.63043 189.145794 
C 365.100722 189.616086 365.738664 189.88033 366.403756 189.88033 
z
" clip-path="url(#p5ed6934a2d)" style="fill: #800080; fill-opacity: 0.8; stroke: #800080; stroke-opacity: 0.8"/>
    <path d="M 373.5794 174.972389 
C 374.292996 174.972389 374.977461 174.688874 375.48205 174.184285 
C 375.986639 173.679697 376.270154 172.995231 376.270154 172.281635 
C 376.270154 171.568039 375.986639 170.883573 375.48205 170.378984 
C 374.977461 169.874396 374.292996 169.590881 373.5794 169.590881 
C 372.865803 169.590881 372.181338 169.874396 371.676749 170.378984 
C 371.17216 170.883573 370.888646 171.568039 370.888646 172.281635 
C 370.888646 172.995231 371.17216 173.679697 371.676749 174.184285 
C 372.181338 174.688874 372.865803 174.972389 373.5794 174.972389 
z
" clip-path="url(#p5ed6934a2d)" style="fill: #800080; fill-opacity: 0.8; stroke: #800080; stroke-opacity: 0.8"/>
    <path d="M 380.755043 164.805653 
C 381.51405 164.805653 382.242071 164.504096 382.77877 163.967398 
C 383.315469 163.430699 383.617026 162.702677 383.617026 161.94367 
C 383.617026 161.184663 383.315469 160.456642 382.77877 159.919943 
C 382.242071 159.383244 381.51405 159.081687 380.755043 159.081687 
C 379.996036 159.081687 379.268014 159.383244 378.731316 159.919943 
C 378.194617 160.456642 377.89306 161.184663 377.89306 161.94367 
C 377.89306 162.702677 378.194617 163.430699 378.731316 163.967398 
C 379.268014 164.504096 379.996036 164.805653 380.755043 164.805653 
z
" clip-path="url(#p5ed6934a2d)" style="fill: #800080; fill-opacity: 0.8; stroke: #800080; stroke-opacity: 0.8"/>
    <path d="M 387.930686 147.76801 
C 388.708877 147.76801 389.4553 147.458832 390.005564 146.908567 
C 390.555828 146.358303 390.865007 145.611881 390.865007 144.83369 
C 390.865007 144.055499 390.555828 143.309076 390.005564 142.758812 
C 389.4553 142.208548 388.708877 141.899369 387.930686 141.899369 
C 387.152495 141.899369 386.406072 142.208548 385.855808 142.758812 
C 385.305544 143.309076 384.996366 144.055499 384.996366 144.83369 
C 384.996366 145.611881 385.305544 146.358303 385.855808 146.908567 
C 386.406072 147.458832 387.152495 147.76801 387.930686 147.76801 
z
" clip-path="url(#p5ed6934a2d)" style="fill: #800080; fill-opacity: 0.8; stroke: #800080; stroke-opacity: 0.8"/>
    <path d="M 395.106329 132.905492 
C 395.894596 132.905492 396.650683 132.59231 397.208072 132.034922 
C 397.765461 131.477533 398.078643 130.721445 398.078643 129.933179 
C 398.078643 129.144912 397.765461 128.388825 397.208072 127.831436 
C 396.650683 127.274047 395.894596 126.960866 395.106329 126.960866 
C 394.318063 126.960866 393.561975 127.274047 393.004587 127.831436 
C 392.447198 128.388825 392.134016 129.144912 392.134016 129.933179 
C 392.134016 130.721445 392.447198 131.477533 393.004587 132.034922 
C 393.561975 132.59231 394.318063 132.905492 395.106329 132.905492 
z
" clip-path="url(#p5ed6934a2d)" style="fill: #800080; fill-opacity: 0.8; stroke: #800080; stroke-opacity: 0.8"/>
    <path d="M 402.281973 118.776655 
C 403.077582 118.776655 403.840712 118.460556 404.403293 117.897976 
C 404.965874 117.335395 405.281973 116.572265 405.281973 115.776655 
C 405.281973 114.981046 404.965874 114.217916 404.403293 113.655335 
C 403.840712 113.092754 403.077582 112.776655 402.281973 112.776655 
C 401.486363 112.776655 400.723233 113.092754 400.160652 113.655335 
C 399.598071 114.217916 399.281973 114.981046 399.281973 115.776655 
C 399.281973 116.572265 399.598071 117.335395 400.160652 117.897976 
C 400.723233 118.460556 401.486363 118.776655 402.281973 118.776655 
z
" clip-path="url(#p5ed6934a2d)" style="fill: #800080; fill-opacity: 0.8; stroke: #800080; stroke-opacity: 0.8"/>
    <path d="M 409.457616 101.051439 
C 410.178163 101.051439 410.869295 100.765163 411.378799 100.255659 
C 411.888303 99.746155 412.174579 99.055023 412.174579 98.334476 
C 412.174579 97.613929 411.888303 96.922796 411.378799 96.413293 
C 410.869295 95.903789 410.178163 95.617512 409.457616 95.617512 
C 408.737069 95.617512 408.045936 95.903789 407.536433 96.413293 
C 407.026929 96.922796 406.740652 97.613929 406.740652 98.334476 
C 406.740652 99.055023 407.026929 99.746155 407.536433 100.255659 
C 408.045936 100.765163 408.737069 101.051439 409.457616 101.051439 
z
" clip-path="url(#p5ed6934a2d)" style="fill: #800080; fill-opacity: 0.8; stroke: #800080; stroke-opacity: 0.8"/>
    <path d="M 416.633259 89.871179 
C 417.34976 89.871179 418.037011 89.586511 418.543653 89.079868 
C 419.050296 88.573226 419.334965 87.885974 419.334965 87.169474 
C 419.334965 86.452973 419.050296 85.765722 418.543653 85.25908 
C 418.037011 84.752437 417.34976 84.467768 416.633259 84.467768 
C 415.916758 84.467768 415.229507 84.752437 414.722865 85.25908 
C 414.216222 85.765722 413.931554 86.452973 413.931554 87.169474 
C 413.931554 87.885974 414.216222 88.573226 414.722865 89.079868 
C 415.229507 89.586511 415.916758 89.871179 416.633259 89.871179 
z
" clip-path="url(#p5ed6934a2d)" style="fill: #800080; fill-opacity: 0.8; stroke: #800080; stroke-opacity: 0.8"/>
    <path d="M 423.808902 71.170781 
C 424.538614 71.170781 425.238537 70.880864 425.754521 70.36488 
C 426.270505 69.848895 426.560423 69.148972 426.560423 68.419261 
C 426.560423 67.689549 426.270505 66.989626 425.754521 66.473642 
C 425.238537 65.957657 424.538614 65.66774 423.808902 65.66774 
C 423.07919 65.66774 422.379267 65.957657 421.863283 66.473642 
C 421.347299 66.989626 421.057382 67.689549 421.057382 68.419261 
C 421.057382 69.148972 421.347299 69.848895 421.863283 70.36488 
C 422.379267 70.880864 423.07919 71.170781 423.808902 71.170781 
z
" clip-path="url(#p5ed6934a2d)" style="fill: #800080; fill-opacity: 0.8; stroke: #800080; stroke-opacity: 0.8"/>
    <path d="M 430.984545 41.364692 
C 431.67024 41.364692 432.327942 41.092263 432.812801 40.607404 
C 433.297661 40.122545 433.57009 39.464842 433.57009 38.779148 
C 433.57009 38.093453 433.297661 37.435751 432.812801 36.950892 
C 432.327942 36.466033 431.67024 36.193603 430.984545 36.193603 
C 430.298851 36.193603 429.641149 36.466033 429.15629 36.950892 
C 428.67143 37.435751 428.399001 38.093453 428.399001 38.779148 
C 428.399001 39.464842 428.67143 40.122545 429.15629 40.607404 
C 429.641149 41.092263 430.298851 41.364692 430.984545 41.364692 
z
" clip-path="url(#p5ed6934a2d)" style="fill: #800080; fill-opacity: 0.8; stroke: #800080; stroke-opacity: 0.8"/>
   </g>
   <g id="PolyCollection_1">
    <defs>
     <path id="m1ede13269a" d="M 50.675455 -84.168377 
L 50.675455 -41.162898 
L 54.516961 -42.900956 
L 58.358466 -44.639014 
L 62.199972 -46.377072 
L 66.041478 -48.11513 
L 69.882984 -49.853188 
L 73.72449 -51.602946 
L 77.565996 -53.396303 
L 81.407502 -55.189661 
L 85.249008 -56.983019 
L 89.090514 -58.776376 
L 92.93202 -60.569734 
L 96.773526 -62.352033 
L 100.615032 -63.920025 
L 104.456538 -65.483232 
L 108.298044 -67.131486 
L 112.13955 -68.854536 
L 115.981056 -70.322237 
L 119.822562 -71.905744 
L 123.664068 -73.497779 
L 127.505574 -75.14233 
L 131.34708 -76.876038 
L 135.188586 -78.453047 
L 139.030092 -79.954279 
L 142.871598 -81.456761 
L 146.713104 -83.047869 
L 150.55461 -84.582505 
L 154.396116 -86.351679 
L 158.237622 -88.117617 
L 162.079128 -89.473347 
L 165.920634 -91.132337 
L 169.76214 -92.611992 
L 173.603646 -94.184091 
L 177.445152 -95.771647 
L 181.286657 -97.364319 
L 185.128163 -98.800136 
L 188.969669 -100.45769 
L 192.811175 -101.93792 
L 196.652681 -103.21352 
L 200.494187 -104.495048 
L 204.335693 -106.207692 
L 208.177199 -107.260154 
L 212.018705 -108.55318 
L 215.860211 -109.934285 
L 219.701717 -111.432911 
L 223.543223 -112.476049 
L 227.384729 -113.561632 
L 231.226235 -114.628155 
L 235.067741 -115.787721 
L 238.909247 -117.17878 
L 242.750753 -118.292404 
L 246.592259 -119.282503 
L 250.433765 -120.268272 
L 254.275271 -121.107097 
L 258.116777 -121.873847 
L 261.958283 -122.743717 
L 265.799789 -123.580786 
L 269.641295 -124.455422 
L 273.482801 -125.318593 
L 277.324307 -126.143107 
L 281.165813 -126.972701 
L 285.007319 -127.926776 
L 288.848825 -128.835794 
L 292.690331 -129.69324 
L 296.531837 -130.46235 
L 300.373343 -131.190497 
L 304.214848 -131.967535 
L 308.056354 -132.951748 
L 311.89786 -133.935961 
L 315.739366 -134.837914 
L 319.580872 -135.643191 
L 323.422378 -136.379034 
L 327.263884 -137.033051 
L 331.10539 -137.754351 
L 334.946896 -138.638062 
L 338.788402 -139.427452 
L 342.629908 -140.188186 
L 346.471414 -141.012371 
L 350.31292 -141.836557 
L 354.154426 -142.660743 
L 357.995932 -143.384244 
L 361.837438 -144.073959 
L 365.678944 -145.032567 
L 369.52045 -145.848067 
L 373.361956 -146.620869 
L 377.203462 -147.39367 
L 381.044968 -148.166471 
L 384.886474 -148.939273 
L 388.72798 -149.712074 
L 392.569486 -150.484875 
L 396.410992 -151.257677 
L 400.252498 -152.030478 
L 404.094004 -152.803279 
L 407.93551 -153.576081 
L 411.777016 -154.348882 
L 415.618522 -155.121683 
L 419.460028 -155.866995 
L 423.301534 -156.605171 
L 427.143039 -157.343347 
L 430.984545 -158.081523 
L 430.984545 -218.719748 
L 430.984545 -218.719748 
L 427.143039 -217.046407 
L 423.301534 -215.416719 
L 419.460028 -213.77845 
L 415.618522 -212.122417 
L 411.777016 -210.482034 
L 407.93551 -208.809374 
L 404.094004 -207.132849 
L 400.252498 -205.372716 
L 396.410992 -203.553166 
L 392.569486 -201.848862 
L 388.72798 -200.144558 
L 384.886474 -198.616986 
L 381.044968 -197.069227 
L 377.203462 -195.393415 
L 373.361956 -193.7138 
L 369.52045 -192.042621 
L 365.678944 -190.363536 
L 361.837438 -188.691074 
L 357.995932 -187.0117 
L 354.154426 -185.328518 
L 350.31292 -183.648011 
L 346.471414 -181.976749 
L 342.629908 -180.305199 
L 338.788402 -178.732176 
L 334.946896 -176.948601 
L 331.10539 -175.277606 
L 327.263884 -173.807762 
L 323.422378 -172.311954 
L 319.580872 -170.799785 
L 315.739366 -169.229185 
L 311.89786 -167.556439 
L 308.056354 -165.910316 
L 304.214848 -164.411821 
L 300.373343 -162.769818 
L 296.531837 -161.051558 
L 292.690331 -159.486314 
L 288.848825 -157.979943 
L 285.007319 -156.360439 
L 281.165813 -154.725908 
L 277.324307 -153.090362 
L 273.482801 -151.511151 
L 269.641295 -149.976135 
L 265.799789 -148.692557 
L 261.958283 -147.214436 
L 258.116777 -145.758233 
L 254.275271 -144.380085 
L 250.433765 -142.966632 
L 246.592259 -141.423103 
L 242.750753 -139.799933 
L 238.909247 -138.217584 
L 235.067741 -136.80189 
L 231.226235 -135.632404 
L 227.384729 -134.261659 
L 223.543223 -132.979088 
L 219.701717 -131.562384 
L 215.860211 -130.284413 
L 212.018705 -129.004643 
L 208.177199 -127.556144 
L 204.335693 -126.209089 
L 200.494187 -124.862377 
L 196.652681 -123.583019 
L 192.811175 -122.304207 
L 188.969669 -120.976665 
L 185.128163 -119.542103 
L 181.286657 -118.422266 
L 177.445152 -117.245314 
L 173.603646 -116.088438 
L 169.76214 -114.938211 
L 165.920634 -113.647255 
L 162.079128 -112.333596 
L 158.237622 -111.131798 
L 154.396116 -110.086866 
L 150.55461 -108.933979 
L 146.713104 -107.6284 
L 142.871598 -106.496576 
L 139.030092 -105.388419 
L 135.188586 -104.333009 
L 131.34708 -103.179493 
L 127.505574 -102.08712 
L 123.664068 -101.105278 
L 119.822562 -100.111382 
L 115.981056 -99.147027 
L 112.13955 -98.125089 
L 108.298044 -97.143622 
L 104.456538 -96.313924 
L 100.615032 -95.45501 
L 96.773526 -94.610369 
L 92.93202 -93.667901 
L 89.090514 -92.856919 
L 85.249008 -91.902638 
L 81.407502 -90.964742 
L 77.565996 -90.195492 
L 73.72449 -89.257392 
L 69.882984 -88.505845 
L 66.041478 -87.616614 
L 62.199972 -86.756293 
L 58.358466 -85.88388 
L 54.516961 -85.025927 
L 50.675455 -84.168377 
z
" style="stroke: #ffffff; stroke-opacity: 0.15"/>
    </defs>
    <g clip-path="url(#p5ed6934a2d)">
     <use xlink:href="#m1ede13269a" x="0" y="345.6" style="fill: #800080; fill-opacity: 0.15; stroke: #ffffff; stroke-opacity: 0.15"/>
    </g>
   </g>
   <g id="line2d_1">
    <path d="M 50.675455 279.697935 
L 54.516961 278.434527 
L 58.358466 277.171119 
L 62.199972 275.907711 
L 66.041478 274.644303 
L 69.882984 273.380895 
L 73.72449 272.117486 
L 77.565996 270.854078 
L 81.407502 269.59067 
L 85.249008 268.327262 
L 89.090514 267.063854 
L 92.93202 265.800446 
L 96.773526 264.537038 
L 100.615032 263.273629 
L 104.456538 262.010221 
L 108.298044 260.746813 
L 112.13955 259.483405 
L 115.981056 258.219997 
L 119.822562 256.956589 
L 123.664068 255.69318 
L 127.505574 254.429772 
L 131.34708 253.166364 
L 135.188586 251.902956 
L 139.030092 250.639548 
L 142.871598 249.37614 
L 146.713104 248.112732 
L 150.55461 246.849323 
L 154.396116 245.585915 
L 158.237622 244.322507 
L 162.079128 243.059099 
L 165.920634 241.795691 
L 169.76214 240.532283 
L 173.603646 239.268874 
L 177.445152 238.005466 
L 181.286657 236.742058 
L 185.128163 235.47865 
L 188.969669 234.215242 
L 192.811175 232.951834 
L 196.652681 231.688426 
L 200.494187 230.425017 
L 204.335693 229.161609 
L 208.177199 227.898201 
L 212.018705 226.634793 
L 215.860211 225.371385 
L 219.701717 224.107977 
L 223.543223 222.844568 
L 227.384729 221.58116 
L 231.226235 220.317752 
L 235.067741 219.054344 
L 238.909247 217.790936 
L 242.750753 216.527528 
L 246.592259 215.26412 
L 250.433765 214.000711 
L 254.275271 212.737303 
L 258.116777 211.473895 
L 261.958283 210.210487 
L 265.799789 208.947079 
L 269.641295 207.683671 
L 273.482801 206.420262 
L 277.324307 205.156854 
L 281.165813 203.893446 
L 285.007319 202.630038 
L 288.848825 201.36663 
L 292.690331 200.103222 
L 296.531837 198.839814 
L 300.373343 197.576405 
L 304.214848 196.312997 
L 308.056354 195.049589 
L 311.89786 193.786181 
L 315.739366 192.522773 
L 319.580872 191.259365 
L 323.422378 189.995956 
L 327.263884 188.732548 
L 331.10539 187.46914 
L 334.946896 186.205732 
L 338.788402 184.942324 
L 342.629908 183.678916 
L 346.471414 182.415508 
L 350.31292 181.152099 
L 354.154426 179.888691 
L 357.995932 178.625283 
L 361.837438 177.361875 
L 365.678944 176.098467 
L 369.52045 174.835059 
L 373.361956 173.57165 
L 377.203462 172.308242 
L 381.044968 171.044834 
L 384.886474 169.781426 
L 388.72798 168.518018 
L 392.569486 167.25461 
L 396.410992 165.991202 
L 400.252498 164.727793 
L 404.094004 163.464385 
L 407.93551 162.200977 
L 411.777016 160.937569 
L 415.618522 159.674161 
L 419.460028 158.410753 
L 423.301534 157.147344 
L 427.143039 155.883936 
L 430.984545 154.620528 
" clip-path="url(#p5ed6934a2d)" style="fill: none; stroke: #800080; stroke-width: 2.25; stroke-linecap: round"/>
   </g>
   <g id="patch_3">
    <path d="M 31.66 317.72 
L 31.66 25.49625 
" style="fill: none; stroke: #ffffff; stroke-width: 0.8; stroke-linejoin: miter; stroke-linecap: square"/>
   </g>
   <g id="patch_4">
    <path d="M 450 317.72 
L 450 25.49625 
" style="fill: none; stroke: #ffffff; stroke-width: 0.8; stroke-linejoin: miter; stroke-linecap: square"/>
   </g>
   <g id="patch_5">
    <path d="M 31.66 317.72 
L 450 317.72 
" style="fill: none; stroke: #ffffff; stroke-width: 0.8; stroke-linejoin: miter; stroke-linecap: square"/>
   </g>
   <g id="patch_6">
    <path d="M 31.66 25.49625 
L 450 25.49625 
" style="fill: none; stroke: #ffffff; stroke-width: 0.8; stroke-linejoin: miter; stroke-linecap: square"/>
   </g>
   <g id="text_15">
    <!-- Yearly average ratings from ranked games -->
    <g style="fill: #262626" transform="translate(127.998125 19.49625) scale(0.12 -0.12)">
     <defs>
      <path id="ArialMT-59" d="M 1784 0 
L 1784 1941 
L 19 4581 
L 756 4581 
L 1659 3200 
Q 1909 2813 2125 2425 
Q 2331 2784 2625 3234 
L 3513 4581 
L 4219 4581 
L 2391 1941 
L 2391 0 
L 1784 0 
z
" transform="scale(0.015625)"/>
      <path id="ArialMT-65" d="M 2694 1069 
L 3275 997 
Q 3138 488 2766 206 
Q 2394 -75 1816 -75 
Q 1088 -75 661 373 
Q 234 822 234 1631 
Q 234 2469 665 2931 
Q 1097 3394 1784 3394 
Q 2450 3394 2872 2941 
Q 3294 2488 3294 1666 
Q 3294 1616 3291 1516 
L 816 1516 
Q 847 969 1125 678 
Q 1403 388 1819 388 
Q 2128 388 2347 550 
Q 2566 713 2694 1069 
z
M 847 1978 
L 2700 1978 
Q 2663 2397 2488 2606 
Q 2219 2931 1791 2931 
Q 1403 2931 1139 2672 
Q 875 2413 847 1978 
z
" transform="scale(0.015625)"/>
      <path id="ArialMT-61" d="M 2588 409 
Q 2275 144 1986 34 
Q 1697 -75 1366 -75 
Q 819 -75 525 192 
Q 231 459 231 875 
Q 231 1119 342 1320 
Q 453 1522 633 1644 
Q 813 1766 1038 1828 
Q 1203 1872 1538 1913 
Q 2219 1994 2541 2106 
Q 2544 2222 2544 2253 
Q 2544 2597 2384 2738 
Q 2169 2928 1744 2928 
Q 1347 2928 1158 2789 
Q 969 2650 878 2297 
L 328 2372 
Q 403 2725 575 2942 
Q 747 3159 1072 3276 
Q 1397 3394 1825 3394 
Q 2250 3394 2515 3294 
Q 2781 3194 2906 3042 
Q 3031 2891 3081 2659 
Q 3109 2516 3109 2141 
L 3109 1391 
Q 3109 606 3145 398 
Q 3181 191 3288 0 
L 2700 0 
Q 2613 175 2588 409 
z
M 2541 1666 
Q 2234 1541 1622 1453 
Q 1275 1403 1131 1340 
Q 988 1278 909 1158 
Q 831 1038 831 891 
Q 831 666 1001 516 
Q 1172 366 1500 366 
Q 1825 366 2078 508 
Q 2331 650 2450 897 
Q 2541 1088 2541 1459 
L 2541 1666 
z
" transform="scale(0.015625)"/>
      <path id="ArialMT-72" d="M 416 0 
L 416 3319 
L 922 3319 
L 922 2816 
Q 1116 3169 1280 3281 
Q 1444 3394 1641 3394 
Q 1925 3394 2219 3213 
L 2025 2691 
Q 1819 2813 1613 2813 
Q 1428 2813 1281 2702 
Q 1134 2591 1072 2394 
Q 978 2094 978 1738 
L 978 0 
L 416 0 
z
" transform="scale(0.015625)"/>
      <path id="ArialMT-6c" d="M 409 0 
L 409 4581 
L 972 4581 
L 972 0 
L 409 0 
z
" transform="scale(0.015625)"/>
      <path id="ArialMT-79" d="M 397 -1278 
L 334 -750 
Q 519 -800 656 -800 
Q 844 -800 956 -737 
Q 1069 -675 1141 -563 
Q 1194 -478 1313 -144 
Q 1328 -97 1363 -6 
L 103 3319 
L 709 3319 
L 1400 1397 
Q 1534 1031 1641 628 
Q 1738 1016 1872 1384 
L 2581 3319 
L 3144 3319 
L 1881 -56 
Q 1678 -603 1566 -809 
Q 1416 -1088 1222 -1217 
Q 1028 -1347 759 -1347 
Q 597 -1347 397 -1278 
z
" transform="scale(0.015625)"/>
      <path id="ArialMT-20" transform="scale(0.015625)"/>
      <path id="ArialMT-76" d="M 1344 0 
L 81 3319 
L 675 3319 
L 1388 1331 
Q 1503 1009 1600 663 
Q 1675 925 1809 1294 
L 2547 3319 
L 3125 3319 
L 1869 0 
L 1344 0 
z
" transform="scale(0.015625)"/>
      <path id="ArialMT-67" d="M 319 -275 
L 866 -356 
Q 900 -609 1056 -725 
Q 1266 -881 1628 -881 
Q 2019 -881 2231 -725 
Q 2444 -569 2519 -288 
Q 2563 -116 2559 434 
Q 2191 0 1641 0 
Q 956 0 581 494 
Q 206 988 206 1678 
Q 206 2153 378 2554 
Q 550 2956 876 3175 
Q 1203 3394 1644 3394 
Q 2231 3394 2613 2919 
L 2613 3319 
L 3131 3319 
L 3131 450 
Q 3131 -325 2973 -648 
Q 2816 -972 2473 -1159 
Q 2131 -1347 1631 -1347 
Q 1038 -1347 672 -1080 
Q 306 -813 319 -275 
z
M 784 1719 
Q 784 1066 1043 766 
Q 1303 466 1694 466 
Q 2081 466 2343 764 
Q 2606 1063 2606 1700 
Q 2606 2309 2336 2618 
Q 2066 2928 1684 2928 
Q 1309 2928 1046 2623 
Q 784 2319 784 1719 
z
" transform="scale(0.015625)"/>
      <path id="ArialMT-74" d="M 1650 503 
L 1731 6 
Q 1494 -44 1306 -44 
Q 1000 -44 831 53 
Q 663 150 594 308 
Q 525 466 525 972 
L 525 2881 
L 113 2881 
L 113 3319 
L 525 3319 
L 525 4141 
L 1084 4478 
L 1084 3319 
L 1650 3319 
L 1650 2881 
L 1084 2881 
L 1084 941 
Q 1084 700 1114 631 
Q 1144 563 1211 522 
Q 1278 481 1403 481 
Q 1497 481 1650 503 
z
" transform="scale(0.015625)"/>
      <path id="ArialMT-69" d="M 425 3934 
L 425 4581 
L 988 4581 
L 988 3934 
L 425 3934 
z
M 425 0 
L 425 3319 
L 988 3319 
L 988 0 
L 425 0 
z
" transform="scale(0.015625)"/>
      <path id="ArialMT-6e" d="M 422 0 
L 422 3319 
L 928 3319 
L 928 2847 
Q 1294 3394 1984 3394 
Q 2284 3394 2536 3286 
Q 2788 3178 2913 3003 
Q 3038 2828 3088 2588 
Q 3119 2431 3119 2041 
L 3119 0 
L 2556 0 
L 2556 2019 
Q 2556 2363 2490 2533 
Q 2425 2703 2258 2804 
Q 2091 2906 1866 2906 
Q 1506 2906 1245 2678 
Q 984 2450 984 1813 
L 984 0 
L 422 0 
z
" transform="scale(0.015625)"/>
      <path id="ArialMT-73" d="M 197 991 
L 753 1078 
Q 800 744 1014 566 
Q 1228 388 1613 388 
Q 2000 388 2187 545 
Q 2375 703 2375 916 
Q 2375 1106 2209 1216 
Q 2094 1291 1634 1406 
Q 1016 1563 777 1677 
Q 538 1791 414 1992 
Q 291 2194 291 2438 
Q 291 2659 392 2848 
Q 494 3038 669 3163 
Q 800 3259 1026 3326 
Q 1253 3394 1513 3394 
Q 1903 3394 2198 3281 
Q 2494 3169 2634 2976 
Q 2775 2784 2828 2463 
L 2278 2388 
Q 2241 2644 2061 2787 
Q 1881 2931 1553 2931 
Q 1166 2931 1000 2803 
Q 834 2675 834 2503 
Q 834 2394 903 2306 
Q 972 2216 1119 2156 
Q 1203 2125 1616 2013 
Q 2213 1853 2448 1751 
Q 2684 1650 2818 1456 
Q 2953 1263 2953 975 
Q 2953 694 2789 445 
Q 2625 197 2315 61 
Q 2006 -75 1616 -75 
Q 969 -75 630 194 
Q 291 463 197 991 
z
" transform="scale(0.015625)"/>
      <path id="ArialMT-66" d="M 556 0 
L 556 2881 
L 59 2881 
L 59 3319 
L 556 3319 
L 556 3672 
Q 556 4006 616 4169 
Q 697 4388 901 4523 
Q 1106 4659 1475 4659 
Q 1713 4659 2000 4603 
L 1916 4113 
Q 1741 4144 1584 4144 
Q 1328 4144 1222 4034 
Q 1116 3925 1116 3625 
L 1116 3319 
L 1763 3319 
L 1763 2881 
L 1116 2881 
L 1116 0 
L 556 0 
z
" transform="scale(0.015625)"/>
      <path id="ArialMT-6f" d="M 213 1659 
Q 213 2581 725 3025 
Q 1153 3394 1769 3394 
Q 2453 3394 2887 2945 
Q 3322 2497 3322 1706 
Q 3322 1066 3130 698 
Q 2938 331 2570 128 
Q 2203 -75 1769 -75 
Q 1072 -75 642 372 
Q 213 819 213 1659 
z
M 791 1659 
Q 791 1022 1069 705 
Q 1347 388 1769 388 
Q 2188 388 2466 706 
Q 2744 1025 2744 1678 
Q 2744 2294 2464 2611 
Q 2184 2928 1769 2928 
Q 1347 2928 1069 2612 
Q 791 2297 791 1659 
z
" transform="scale(0.015625)"/>
      <path id="ArialMT-6d" d="M 422 0 
L 422 3319 
L 925 3319 
L 925 2853 
Q 1081 3097 1340 3245 
Q 1600 3394 1931 3394 
Q 2300 3394 2536 3241 
Q 2772 3088 2869 2813 
Q 3263 3394 3894 3394 
Q 4388 3394 4653 3120 
Q 4919 2847 4919 2278 
L 4919 0 
L 4359 0 
L 4359 2091 
Q 4359 2428 4304 2576 
Q 4250 2725 4106 2815 
Q 3963 2906 3769 2906 
Q 3419 2906 3187 2673 
Q 2956 2441 2956 1928 
L 2956 0 
L 2394 0 
L 2394 2156 
Q 2394 2531 2256 2718 
Q 2119 2906 1806 2906 
Q 1569 2906 1367 2781 
Q 1166 2656 1075 2415 
Q 984 2175 984 1722 
L 984 0 
L 422 0 
z
" transform="scale(0.015625)"/>
      <path id="ArialMT-6b" d="M 425 0 
L 425 4581 
L 988 4581 
L 988 1969 
L 2319 3319 
L 3047 3319 
L 1778 2088 
L 3175 0 
L 2481 0 
L 1384 1697 
L 988 1316 
L 988 0 
L 425 0 
z
" transform="scale(0.015625)"/>
      <path id="ArialMT-64" d="M 2575 0 
L 2575 419 
Q 2259 -75 1647 -75 
Q 1250 -75 917 144 
Q 584 363 401 755 
Q 219 1147 219 1656 
Q 219 2153 384 2558 
Q 550 2963 881 3178 
Q 1213 3394 1622 3394 
Q 1922 3394 2156 3267 
Q 2391 3141 2538 2938 
L 2538 4581 
L 3097 4581 
L 3097 0 
L 2575 0 
z
M 797 1656 
Q 797 1019 1065 703 
Q 1334 388 1700 388 
Q 2069 388 2326 689 
Q 2584 991 2584 1609 
Q 2584 2291 2321 2609 
Q 2059 2928 1675 2928 
Q 1300 2928 1048 2622 
Q 797 2316 797 1656 
z
" transform="scale(0.015625)"/>
     </defs>
     <use xlink:href="#ArialMT-59"/>
     <use xlink:href="#ArialMT-65" x="57.574219"/>
     <use xlink:href="#ArialMT-61" x="113.189453"/>
     <use xlink:href="#ArialMT-72" x="168.804688"/>
     <use xlink:href="#ArialMT-6c" x="202.105469"/>
     <use xlink:href="#ArialMT-79" x="224.322266"/>
     <use xlink:href="#ArialMT-20" x="274.322266"/>
     <use xlink:href="#ArialMT-61" x="302.105469"/>
     <use xlink:href="#ArialMT-76" x="357.720703"/>
     <use xlink:href="#ArialMT-65" x="407.720703"/>
     <use xlink:href="#ArialMT-72" x="463.335938"/>
     <use xlink:href="#ArialMT-61" x="496.636719"/>
     <use xlink:href="#ArialMT-67" x="552.251953"/>
     <use xlink:href="#ArialMT-65" x="607.867188"/>
     <use xlink:href="#ArialMT-20" x="663.482422"/>
     <use xlink:href="#ArialMT-72" x="691.265625"/>
     <use xlink:href="#ArialMT-61" x="724.566406"/>
     <use xlink:href="#ArialMT-74" x="780.181641"/>
     <use xlink:href="#ArialMT-69" x="807.964844"/>
     <use xlink:href="#ArialMT-6e" x="830.181641"/>
     <use xlink:href="#ArialMT-67" x="885.796875"/>
     <use xlink:href="#ArialMT-73" x="941.412109"/>
     <use xlink:href="#ArialMT-20" x="991.412109"/>
     <use xlink:href="#ArialMT-66" x="1019.195312"/>
     <use xlink:href="#ArialMT-72" x="1046.978516"/>
     <use xlink:href="#ArialMT-6f" x="1080.279297"/>
     <use xlink:href="#ArialMT-6d" x="1135.894531"/>
     <use xlink:href="#ArialMT-20" x="1219.195312"/>
     <use xlink:href="#ArialMT-72" x="1246.978516"/>
     <use xlink:href="#ArialMT-61" x="1280.279297"/>
     <use xlink:href="#ArialMT-6e" x="1335.894531"/>
     <use xlink:href="#ArialMT-6b" x="1391.509766"/>
     <use xlink:href="#ArialMT-65" x="1441.509766"/>
     <use xlink:href="#ArialMT-64" x="1497.125"/>
     <use xlink:href="#ArialMT-20" x="1552.740234"/>
     <use xlink:href="#ArialMT-67" x="1580.523438"/>
     <use xlink:href="#ArialMT-61" x="1636.138672"/>
     <use xlink:href="#ArialMT-6d" x="1691.753906"/>
     <use xlink:href="#ArialMT-65" x="1775.054688"/>
     <use xlink:href="#ArialMT-73" x="1830.669922"/>
    </g>
   </g>
  </g>
 </g>
 <defs>
  <clipPath id="p5ed6934a2d">
   <rect x="31.66" y="25.49625" width="418.34" height="292.22375"/>
  </clipPath>
 </defs>
</svg>
