<?xml version="1.0" encoding="utf-8" standalone="no"?>
<!DOCTYPE svg PUBLIC "-//W3C//DTD SVG 1.1//EN"
  "http://www.w3.org/Graphics/SVG/1.1/DTD/svg11.dtd">
<svg xmlns:xlink="http://www.w3.org/1999/xlink" width="432pt" height="288pt" viewBox="0 0 432 288" xmlns="http://www.w3.org/2000/svg" version="1.1">
 <metadata>
  <rdf:RDF xmlns:dc="http://purl.org/dc/elements/1.1/" xmlns:cc="http://creativecommons.org/ns#" xmlns:rdf="http://www.w3.org/1999/02/22-rdf-syntax-ns#">
   <cc:Work>
    <dc:type rdf:resource="http://purl.org/dc/dcmitype/StillImage"/>
    <dc:date>2024-08-12T23:28:41.998387</dc:date>
    <dc:format>image/svg+xml</dc:format>
    <dc:creator>
     <cc:Agent>
      <dc:title>Matplotlib v3.9.1.post1, https://matplotlib.org/</dc:title>
     </cc:Agent>
    </dc:creator>
   </cc:Work>
  </rdf:RDF>
 </metadata>
 <defs>
  <style type="text/css">*{stroke-linejoin: round; stroke-linecap: butt}</style>
 </defs>
 <g id="figure_1">
  <g id="patch_1">
   <path d="M 0 288 
L 432 288 
L 432 0 
L 0 0 
z
" style="fill: #ffffff"/>
  </g>
  <g id="axes_1">
   <g id="patch_2">
    <path d="M 31.66 260.12 
L 421.2 260.12 
L 421.2 25.49625 
L 31.66 25.49625 
z
" style="fill: #eaeaf2"/>
   </g>
   <g id="matplotlib.axis_1">
    <g id="xtick_1">
     <g id="text_1">
      <!-- 1970 -->
      <g style="fill: #262626" transform="translate(38.244489 274.277812) scale(0.1 -0.1)">
       <defs>
        <path id="ArialMT-31" d="M 2384 0 
L 1822 0 
L 1822 3584 
Q 1619 3391 1289 3197 
Q 959 3003 697 2906 
L 697 3450 
Q 1169 3672 1522 3987 
Q 1875 4303 2022 4600 
L 2384 4600 
L 2384 0 
z
" transform="scale(0.015625)"/>
        <path id="ArialMT-39" d="M 350 1059 
L 891 1109 
Q 959 728 1153 556 
Q 1347 384 1650 384 
Q 1909 384 2104 503 
Q 2300 622 2425 820 
Q 2550 1019 2634 1356 
Q 2719 1694 2719 2044 
Q 2719 2081 2716 2156 
Q 2547 1888 2255 1720 
Q 1963 1553 1622 1553 
Q 1053 1553 659 1965 
Q 266 2378 266 3053 
Q 266 3750 677 4175 
Q 1088 4600 1706 4600 
Q 2153 4600 2523 4359 
Q 2894 4119 3086 3673 
Q 3278 3228 3278 2384 
Q 3278 1506 3087 986 
Q 2897 466 2520 194 
Q 2144 -78 1638 -78 
Q 1100 -78 759 220 
Q 419 519 350 1059 
z
M 2653 3081 
Q 2653 3566 2395 3850 
Q 2138 4134 1775 4134 
Q 1400 4134 1122 3828 
Q 844 3522 844 3034 
Q 844 2597 1108 2323 
Q 1372 2050 1759 2050 
Q 2150 2050 2401 2323 
Q 2653 2597 2653 3081 
z
" transform="scale(0.015625)"/>
        <path id="ArialMT-37" d="M 303 3981 
L 303 4522 
L 3269 4522 
L 3269 4084 
Q 2831 3619 2401 2847 
Q 1972 2075 1738 1259 
Q 1569 684 1522 0 
L 944 0 
Q 953 541 1156 1306 
Q 1359 2072 1739 2783 
Q 2119 3494 2547 3981 
L 303 3981 
z
" transform="scale(0.015625)"/>
        <path id="ArialMT-30" d="M 266 2259 
Q 266 3072 433 3567 
Q 600 4063 929 4331 
Q 1259 4600 1759 4600 
Q 2128 4600 2406 4451 
Q 2684 4303 2865 4023 
Q 3047 3744 3150 3342 
Q 3253 2941 3253 2259 
Q 3253 1453 3087 958 
Q 2922 463 2592 192 
Q 2263 -78 1759 -78 
Q 1097 -78 719 397 
Q 266 969 266 2259 
z
M 844 2259 
Q 844 1131 1108 757 
Q 1372 384 1759 384 
Q 2147 384 2411 759 
Q 2675 1134 2675 2259 
Q 2675 3391 2411 3762 
Q 2147 4134 1753 4134 
Q 1366 4134 1134 3806 
Q 844 3388 844 2259 
z
" transform="scale(0.015625)"/>
       </defs>
       <use xlink:href="#ArialMT-31"/>
       <use xlink:href="#ArialMT-39" x="55.615234"/>
       <use xlink:href="#ArialMT-37" x="111.230469"/>
       <use xlink:href="#ArialMT-30" x="166.845703"/>
      </g>
     </g>
    </g>
    <g id="xtick_2">
     <g id="text_2">
      <!-- 1980 -->
      <g style="fill: #262626" transform="translate(105.060955 274.277812) scale(0.1 -0.1)">
       <defs>
        <path id="ArialMT-38" d="M 1131 2484 
Q 781 2613 612 2850 
Q 444 3088 444 3419 
Q 444 3919 803 4259 
Q 1163 4600 1759 4600 
Q 2359 4600 2725 4251 
Q 3091 3903 3091 3403 
Q 3091 3084 2923 2848 
Q 2756 2613 2416 2484 
Q 2838 2347 3058 2040 
Q 3278 1734 3278 1309 
Q 3278 722 2862 322 
Q 2447 -78 1769 -78 
Q 1091 -78 675 323 
Q 259 725 259 1325 
Q 259 1772 486 2073 
Q 713 2375 1131 2484 
z
M 1019 3438 
Q 1019 3113 1228 2906 
Q 1438 2700 1772 2700 
Q 2097 2700 2305 2904 
Q 2513 3109 2513 3406 
Q 2513 3716 2298 3927 
Q 2084 4138 1766 4138 
Q 1444 4138 1231 3931 
Q 1019 3725 1019 3438 
z
M 838 1322 
Q 838 1081 952 856 
Q 1066 631 1291 507 
Q 1516 384 1775 384 
Q 2178 384 2440 643 
Q 2703 903 2703 1303 
Q 2703 1709 2433 1975 
Q 2163 2241 1756 2241 
Q 1359 2241 1098 1978 
Q 838 1716 838 1322 
z
" transform="scale(0.015625)"/>
       </defs>
       <use xlink:href="#ArialMT-31"/>
       <use xlink:href="#ArialMT-39" x="55.615234"/>
       <use xlink:href="#ArialMT-38" x="111.230469"/>
       <use xlink:href="#ArialMT-30" x="166.845703"/>
      </g>
     </g>
    </g>
    <g id="xtick_3">
     <g id="text_3">
      <!-- 1990 -->
      <g style="fill: #262626" transform="translate(171.877422 274.277812) scale(0.1 -0.1)">
       <use xlink:href="#ArialMT-31"/>
       <use xlink:href="#ArialMT-39" x="55.615234"/>
       <use xlink:href="#ArialMT-39" x="111.230469"/>
       <use xlink:href="#ArialMT-30" x="166.845703"/>
      </g>
     </g>
    </g>
    <g id="xtick_4">
     <g id="text_4">
      <!-- 2000 -->
      <g style="fill: #262626" transform="translate(238.693888 274.277812) scale(0.1 -0.1)">
       <defs>
        <path id="ArialMT-32" d="M 3222 541 
L 3222 0 
L 194 0 
Q 188 203 259 391 
Q 375 700 629 1000 
Q 884 1300 1366 1694 
Q 2113 2306 2375 2664 
Q 2638 3022 2638 3341 
Q 2638 3675 2398 3904 
Q 2159 4134 1775 4134 
Q 1369 4134 1125 3890 
Q 881 3647 878 3216 
L 300 3275 
Q 359 3922 746 4261 
Q 1134 4600 1788 4600 
Q 2447 4600 2831 4234 
Q 3216 3869 3216 3328 
Q 3216 3053 3103 2787 
Q 2991 2522 2730 2228 
Q 2469 1934 1863 1422 
Q 1356 997 1212 845 
Q 1069 694 975 541 
L 3222 541 
z
" transform="scale(0.015625)"/>
       </defs>
       <use xlink:href="#ArialMT-32"/>
       <use xlink:href="#ArialMT-30" x="55.615234"/>
       <use xlink:href="#ArialMT-30" x="111.230469"/>
       <use xlink:href="#ArialMT-30" x="166.845703"/>
      </g>
     </g>
    </g>
    <g id="xtick_5">
     <g id="text_5">
      <!-- 2010 -->
      <g style="fill: #262626" transform="translate(305.510355 274.277812) scale(0.1 -0.1)">
       <use xlink:href="#ArialMT-32"/>
       <use xlink:href="#ArialMT-30" x="55.615234"/>
       <use xlink:href="#ArialMT-31" x="111.230469"/>
       <use xlink:href="#ArialMT-30" x="166.845703"/>
      </g>
     </g>
    </g>
    <g id="xtick_6">
     <g id="text_6">
      <!-- 2020 -->
      <g style="fill: #262626" transform="translate(372.326821 274.277812) scale(0.1 -0.1)">
       <use xlink:href="#ArialMT-32"/>
       <use xlink:href="#ArialMT-30" x="55.615234"/>
       <use xlink:href="#ArialMT-32" x="111.230469"/>
       <use xlink:href="#ArialMT-30" x="166.845703"/>
      </g>
     </g>
    </g>
   </g>
   <g id="matplotlib.axis_2">
    <g id="ytick_1">
     <g id="text_7">
      <!-- 5.8 -->
      <g style="fill: #262626" transform="translate(10.76 239.515077) scale(0.1 -0.1)">
       <defs>
        <path id="ArialMT-35" d="M 266 1200 
L 856 1250 
Q 922 819 1161 601 
Q 1400 384 1738 384 
Q 2144 384 2425 690 
Q 2706 997 2706 1503 
Q 2706 1984 2436 2262 
Q 2166 2541 1728 2541 
Q 1456 2541 1237 2417 
Q 1019 2294 894 2097 
L 366 2166 
L 809 4519 
L 3088 4519 
L 3088 3981 
L 1259 3981 
L 1013 2750 
Q 1425 3038 1878 3038 
Q 2478 3038 2890 2622 
Q 3303 2206 3303 1553 
Q 3303 931 2941 478 
Q 2500 -78 1738 -78 
Q 1113 -78 717 272 
Q 322 622 266 1200 
z
" transform="scale(0.015625)"/>
        <path id="ArialMT-2e" d="M 581 0 
L 581 641 
L 1222 641 
L 1222 0 
L 581 0 
z
" transform="scale(0.015625)"/>
       </defs>
       <use xlink:href="#ArialMT-35"/>
       <use xlink:href="#ArialMT-2e" x="55.615234"/>
       <use xlink:href="#ArialMT-38" x="83.398438"/>
      </g>
     </g>
    </g>
    <g id="ytick_2">
     <g id="text_8">
      <!-- 6.0 -->
      <g style="fill: #262626" transform="translate(10.76 211.772463) scale(0.1 -0.1)">
       <defs>
        <path id="ArialMT-36" d="M 3184 3459 
L 2625 3416 
Q 2550 3747 2413 3897 
Q 2184 4138 1850 4138 
Q 1581 4138 1378 3988 
Q 1113 3794 959 3422 
Q 806 3050 800 2363 
Q 1003 2672 1297 2822 
Q 1591 2972 1913 2972 
Q 2475 2972 2870 2558 
Q 3266 2144 3266 1488 
Q 3266 1056 3080 686 
Q 2894 316 2569 119 
Q 2244 -78 1831 -78 
Q 1128 -78 684 439 
Q 241 956 241 2144 
Q 241 3472 731 4075 
Q 1159 4600 1884 4600 
Q 2425 4600 2770 4297 
Q 3116 3994 3184 3459 
z
M 888 1484 
Q 888 1194 1011 928 
Q 1134 663 1356 523 
Q 1578 384 1822 384 
Q 2178 384 2434 671 
Q 2691 959 2691 1453 
Q 2691 1928 2437 2201 
Q 2184 2475 1800 2475 
Q 1419 2475 1153 2201 
Q 888 1928 888 1484 
z
" transform="scale(0.015625)"/>
       </defs>
       <use xlink:href="#ArialMT-36"/>
       <use xlink:href="#ArialMT-2e" x="55.615234"/>
       <use xlink:href="#ArialMT-30" x="83.398438"/>
      </g>
     </g>
    </g>
    <g id="ytick_3">
     <g id="text_9">
      <!-- 6.2 -->
      <g style="fill: #262626" transform="translate(10.76 184.029849) scale(0.1 -0.1)">
       <use xlink:href="#ArialMT-36"/>
       <use xlink:href="#ArialMT-2e" x="55.615234"/>
       <use xlink:href="#ArialMT-32" x="83.398438"/>
      </g>
     </g>
    </g>
    <g id="ytick_4">
     <g id="text_10">
      <!-- 6.4 -->
      <g style="fill: #262626" transform="translate(10.76 156.287235) scale(0.1 -0.1)">
       <defs>
        <path id="ArialMT-34" d="M 2069 0 
L 2069 1097 
L 81 1097 
L 81 1613 
L 2172 4581 
L 2631 4581 
L 2631 1613 
L 3250 1613 
L 3250 1097 
L 2631 1097 
L 2631 0 
L 2069 0 
z
M 2069 1613 
L 2069 3678 
L 634 1613 
L 2069 1613 
z
" transform="scale(0.015625)"/>
       </defs>
       <use xlink:href="#ArialMT-36"/>
       <use xlink:href="#ArialMT-2e" x="55.615234"/>
       <use xlink:href="#ArialMT-34" x="83.398438"/>
      </g>
     </g>
    </g>
    <g id="ytick_5">
     <g id="text_11">
      <!-- 6.6 -->
      <g style="fill: #262626" transform="translate(10.76 128.544621) scale(0.1 -0.1)">
       <use xlink:href="#ArialMT-36"/>
       <use xlink:href="#ArialMT-2e" x="55.615234"/>
       <use xlink:href="#ArialMT-36" x="83.398438"/>
      </g>
     </g>
    </g>
    <g id="ytick_6">
     <g id="text_12">
      <!-- 6.8 -->
      <g style="fill: #262626" transform="translate(10.76 100.802007) scale(0.1 -0.1)">
       <use xlink:href="#ArialMT-36"/>
       <use xlink:href="#ArialMT-2e" x="55.615234"/>
       <use xlink:href="#ArialMT-38" x="83.398438"/>
      </g>
     </g>
    </g>
    <g id="ytick_7">
     <g id="text_13">
      <!-- 7.0 -->
      <g style="fill: #262626" transform="translate(10.76 73.059393) scale(0.1 -0.1)">
       <use xlink:href="#ArialMT-37"/>
       <use xlink:href="#ArialMT-2e" x="55.615234"/>
       <use xlink:href="#ArialMT-30" x="83.398438"/>
      </g>
     </g>
    </g>
    <g id="ytick_8">
     <g id="text_14">
      <!-- 7.2 -->
      <g style="fill: #262626" transform="translate(10.76 45.316779) scale(0.1 -0.1)">
       <use xlink:href="#ArialMT-37"/>
       <use xlink:href="#ArialMT-2e" x="55.615234"/>
       <use xlink:href="#ArialMT-32" x="83.398438"/>
      </g>
     </g>
    </g>
   </g>
   <g id="PathCollection_1">
    <path d="M 49.366364 198.908363 
C 49.496946 198.908363 49.622198 198.856482 49.714533 198.764146 
C 49.806869 198.671811 49.85875 198.546559 49.85875 198.415977 
C 49.85875 198.285394 49.806869 198.160143 49.714533 198.067807 
C 49.622198 197.975471 49.496946 197.92359 49.366364 197.92359 
C 49.235781 197.92359 49.11053 197.975471 49.018194 198.067807 
C 48.925858 198.160143 48.873977 198.285394 48.873977 198.415977 
C 48.873977 198.546559 48.925858 198.671811 49.018194 198.764146 
C 49.11053 198.856482 49.235781 198.908363 49.366364 198.908363 
z
" clip-path="url(#p35b17d07f3)" style="fill: #800080; fill-opacity: 0.8; stroke: #800080; stroke-opacity: 0.8"/>
    <path d="M 56.04801 193.317428 
C 56.17699 193.317428 56.300705 193.266184 56.391908 193.174981 
C 56.48311 193.083779 56.534355 192.960064 56.534355 192.831084 
C 56.534355 192.702104 56.48311 192.578389 56.391908 192.487187 
C 56.300705 192.395984 56.17699 192.34474 56.04801 192.34474 
C 55.91903 192.34474 55.795316 192.395984 55.704113 192.487187 
C 55.61291 192.578389 55.561666 192.702104 55.561666 192.831084 
C 55.561666 192.960064 55.61291 193.083779 55.704113 193.174981 
C 55.795316 193.266184 55.91903 193.317428 56.04801 193.317428 
z
" clip-path="url(#p35b17d07f3)" style="fill: #800080; fill-opacity: 0.8; stroke: #800080; stroke-opacity: 0.8"/>
    <path d="M 62.729657 206.460123 
C 62.899058 206.460123 63.061544 206.392819 63.181329 206.273034 
C 63.301114 206.153249 63.368418 205.990763 63.368418 205.821362 
C 63.368418 205.65196 63.301114 205.489474 63.181329 205.36969 
C 63.061544 205.249905 62.899058 205.182601 62.729657 205.182601 
C 62.560256 205.182601 62.39777 205.249905 62.277985 205.36969 
C 62.1582 205.489474 62.090896 205.65196 62.090896 205.821362 
C 62.090896 205.990763 62.1582 206.153249 62.277985 206.273034 
C 62.39777 206.392819 62.560256 206.460123 62.729657 206.460123 
z
" clip-path="url(#p35b17d07f3)" style="fill: #800080; fill-opacity: 0.8; stroke: #800080; stroke-opacity: 0.8"/>
    <path d="M 69.411304 216.220551 
C 69.587917 216.220551 69.75732 216.150382 69.882205 216.025498 
C 70.007089 215.900613 70.077258 215.73121 70.077258 215.554597 
C 70.077258 215.377983 70.007089 215.20858 69.882205 215.083696 
C 69.75732 214.958811 69.587917 214.888642 69.411304 214.888642 
C 69.23469 214.888642 69.065287 214.958811 68.940403 215.083696 
C 68.815518 215.20858 68.745349 215.377983 68.745349 215.554597 
C 68.745349 215.73121 68.815518 215.900613 68.940403 216.025498 
C 69.065287 216.150382 69.23469 216.220551 69.411304 216.220551 
z
" clip-path="url(#p35b17d07f3)" style="fill: #800080; fill-opacity: 0.8; stroke: #800080; stroke-opacity: 0.8"/>
    <path d="M 76.09295 193.696757 
C 76.270737 193.696757 76.441266 193.626121 76.56698 193.500407 
C 76.692694 193.374693 76.76333 193.204164 76.76333 193.026377 
C 76.76333 192.848591 76.692694 192.678062 76.56698 192.552347 
C 76.441266 192.426633 76.270737 192.355998 76.09295 192.355998 
C 75.915164 192.355998 75.744635 192.426633 75.61892 192.552347 
C 75.493206 192.678062 75.422571 192.848591 75.422571 193.026377 
C 75.422571 193.204164 75.493206 193.374693 75.61892 193.500407 
C 75.744635 193.626121 75.915164 193.696757 76.09295 193.696757 
z
" clip-path="url(#p35b17d07f3)" style="fill: #800080; fill-opacity: 0.8; stroke: #800080; stroke-opacity: 0.8"/>
    <path d="M 82.774597 196.580221 
C 83.002604 196.580221 83.221302 196.489633 83.382527 196.328408 
C 83.543752 196.167183 83.63434 195.948484 83.63434 195.720477 
C 83.63434 195.492471 83.543752 195.273772 83.382527 195.112547 
C 83.221302 194.951322 83.002604 194.860734 82.774597 194.860734 
C 82.54659 194.860734 82.327891 194.951322 82.166666 195.112547 
C 82.005441 195.273772 81.914853 195.492471 81.914853 195.720477 
C 81.914853 195.948484 82.005441 196.167183 82.166666 196.328408 
C 82.327891 196.489633 82.54659 196.580221 82.774597 196.580221 
z
" clip-path="url(#p35b17d07f3)" style="fill: #800080; fill-opacity: 0.8; stroke: #800080; stroke-opacity: 0.8"/>
    <path d="M 89.456244 192.904743 
C 89.626868 192.904743 89.790527 192.836953 89.911177 192.716303 
C 90.031827 192.595653 90.099617 192.431994 90.099617 192.26137 
C 90.099617 192.090745 90.031827 191.927086 89.911177 191.806436 
C 89.790527 191.685786 89.626868 191.617996 89.456244 191.617996 
C 89.285619 191.617996 89.12196 191.685786 89.00131 191.806436 
C 88.88066 191.927086 88.81287 192.090745 88.81287 192.26137 
C 88.81287 192.431994 88.88066 192.595653 89.00131 192.716303 
C 89.12196 192.836953 89.285619 192.904743 89.456244 192.904743 
z
" clip-path="url(#p35b17d07f3)" style="fill: #800080; fill-opacity: 0.8; stroke: #800080; stroke-opacity: 0.8"/>
    <path d="M 96.13789 193.464071 
C 96.353715 193.464071 96.560729 193.378323 96.713341 193.225712 
C 96.865952 193.073101 96.9517 192.866086 96.9517 192.650262 
C 96.9517 192.434437 96.865952 192.227422 96.713341 192.074811 
C 96.560729 191.9222 96.353715 191.836452 96.13789 191.836452 
C 95.922065 191.836452 95.715051 191.9222 95.56244 192.074811 
C 95.409829 192.227422 95.32408 192.434437 95.32408 192.650262 
C 95.32408 192.866086 95.409829 193.073101 95.56244 193.225712 
C 95.715051 193.378323 95.922065 193.464071 96.13789 193.464071 
z
" clip-path="url(#p35b17d07f3)" style="fill: #800080; fill-opacity: 0.8; stroke: #800080; stroke-opacity: 0.8"/>
    <path d="M 102.819537 204.723007 
C 103.027511 204.723007 103.226995 204.640378 103.374055 204.493318 
C 103.521115 204.346258 103.603744 204.146774 103.603744 203.9388 
C 103.603744 203.730826 103.521115 203.531342 103.374055 203.384282 
C 103.226995 203.237222 103.027511 203.154593 102.819537 203.154593 
C 102.611563 203.154593 102.412079 203.237222 102.265019 203.384282 
C 102.117959 203.531342 102.03533 203.730826 102.03533 203.9388 
C 102.03533 204.146774 102.117959 204.346258 102.265019 204.493318 
C 102.412079 204.640378 102.611563 204.723007 102.819537 204.723007 
z
" clip-path="url(#p35b17d07f3)" style="fill: #800080; fill-opacity: 0.8; stroke: #800080; stroke-opacity: 0.8"/>
    <path d="M 109.501184 170.97091 
C 109.740753 170.97091 109.970543 170.875728 110.139945 170.706327 
C 110.309346 170.536925 110.404528 170.307135 110.404528 170.067566 
C 110.404528 169.827996 110.309346 169.598206 110.139945 169.428805 
C 109.970543 169.259403 109.740753 169.164221 109.501184 169.164221 
C 109.261614 169.164221 109.031824 169.259403 108.862422 169.428805 
C 108.693021 169.598206 108.597839 169.827996 108.597839 170.067566 
C 108.597839 170.307135 108.693021 170.536925 108.862422 170.706327 
C 109.031824 170.875728 109.261614 170.97091 109.501184 170.97091 
z
" clip-path="url(#p35b17d07f3)" style="fill: #800080; fill-opacity: 0.8; stroke: #800080; stroke-opacity: 0.8"/>
    <path d="M 116.18283 179.957809 
C 116.417134 179.957809 116.641873 179.864719 116.807551 179.699041 
C 116.973229 179.533363 117.066319 179.308624 117.066319 179.07432 
C 117.066319 178.840017 116.973229 178.615278 116.807551 178.4496 
C 116.641873 178.283922 116.417134 178.190832 116.18283 178.190832 
C 115.948526 178.190832 115.723787 178.283922 115.558109 178.4496 
C 115.392432 178.615278 115.299342 178.840017 115.299342 179.07432 
C 115.299342 179.308624 115.392432 179.533363 115.558109 179.699041 
C 115.723787 179.864719 115.948526 179.957809 116.18283 179.957809 
z
" clip-path="url(#p35b17d07f3)" style="fill: #800080; fill-opacity: 0.8; stroke: #800080; stroke-opacity: 0.8"/>
    <path d="M 122.864477 195.4751 
C 123.12163 195.4751 123.368285 195.372932 123.550119 195.191098 
C 123.731953 195.009263 123.834121 194.762608 123.834121 194.505455 
C 123.834121 194.248303 123.731953 194.001648 123.550119 193.819813 
C 123.368285 193.637979 123.12163 193.535811 122.864477 193.535811 
C 122.607324 193.535811 122.360669 193.637979 122.178835 193.819813 
C 121.997 194.001648 121.894832 194.248303 121.894832 194.505455 
C 121.894832 194.762608 121.997 195.009263 122.178835 195.191098 
C 122.360669 195.372932 122.607324 195.4751 122.864477 195.4751 
z
" clip-path="url(#p35b17d07f3)" style="fill: #800080; fill-opacity: 0.8; stroke: #800080; stroke-opacity: 0.8"/>
    <path d="M 129.546123 198.883911 
C 129.783075 198.883911 130.010353 198.789769 130.177903 198.622219 
C 130.345453 198.454669 130.439595 198.227391 130.439595 197.99044 
C 130.439595 197.753488 130.345453 197.52621 130.177903 197.35866 
C 130.010353 197.19111 129.783075 197.096968 129.546123 197.096968 
C 129.309172 197.096968 129.081894 197.19111 128.914344 197.35866 
C 128.746794 197.52621 128.652652 197.753488 128.652652 197.99044 
C 128.652652 198.227391 128.746794 198.454669 128.914344 198.622219 
C 129.081894 198.789769 129.309172 198.883911 129.546123 198.883911 
z
" clip-path="url(#p35b17d07f3)" style="fill: #800080; fill-opacity: 0.8; stroke: #800080; stroke-opacity: 0.8"/>
    <path d="M 136.22777 197.179115 
C 136.475868 197.179115 136.713838 197.080545 136.88927 196.905113 
C 137.064702 196.729681 137.163272 196.491711 137.163272 196.243613 
C 137.163272 195.995515 137.064702 195.757545 136.88927 195.582113 
C 136.713838 195.406681 136.475868 195.308111 136.22777 195.308111 
C 135.979672 195.308111 135.741702 195.406681 135.56627 195.582113 
C 135.390838 195.757545 135.292268 195.995515 135.292268 196.243613 
C 135.292268 196.491711 135.390838 196.729681 135.56627 196.905113 
C 135.741702 197.080545 135.979672 197.179115 136.22777 197.179115 
z
" clip-path="url(#p35b17d07f3)" style="fill: #800080; fill-opacity: 0.8; stroke: #800080; stroke-opacity: 0.8"/>
    <path d="M 142.909417 220.102591 
C 143.121353 220.102591 143.324637 220.018388 143.474498 219.868527 
C 143.624359 219.718666 143.708562 219.515382 143.708562 219.303446 
C 143.708562 219.09151 143.624359 218.888226 143.474498 218.738365 
C 143.324637 218.588503 143.121353 218.5043 142.909417 218.5043 
C 142.697481 218.5043 142.494197 218.588503 142.344336 218.738365 
C 142.194474 218.888226 142.110271 219.09151 142.110271 219.303446 
C 142.110271 219.515382 142.194474 219.718666 142.344336 219.868527 
C 142.494197 220.018388 142.697481 220.102591 142.909417 220.102591 
z
" clip-path="url(#p35b17d07f3)" style="fill: #800080; fill-opacity: 0.8; stroke: #800080; stroke-opacity: 0.8"/>
    <path d="M 149.591063 194.066482 
C 149.828891 194.066482 150.05701 193.971992 150.225179 193.803823 
C 150.393348 193.635653 150.487838 193.407535 150.487838 193.169707 
C 150.487838 192.93188 150.393348 192.703761 150.225179 192.535592 
C 150.05701 192.367422 149.828891 192.272932 149.591063 192.272932 
C 149.353236 192.272932 149.125117 192.367422 148.956948 192.535592 
C 148.788779 192.703761 148.694289 192.93188 148.694289 193.169707 
C 148.694289 193.407535 148.788779 193.635653 148.956948 193.803823 
C 149.125117 193.971992 149.353236 194.066482 149.591063 194.066482 
z
" clip-path="url(#p35b17d07f3)" style="fill: #800080; fill-opacity: 0.8; stroke: #800080; stroke-opacity: 0.8"/>
    <path d="M 156.27271 202.725192 
C 156.527425 202.725192 156.771742 202.623993 156.951853 202.443882 
C 157.131964 202.263771 157.233163 202.019454 157.233163 201.764739 
C 157.233163 201.510024 157.131964 201.265707 156.951853 201.085596 
C 156.771742 200.905485 156.527425 200.804286 156.27271 200.804286 
C 156.017995 200.804286 155.773678 200.905485 155.593567 201.085596 
C 155.413456 201.265707 155.312257 201.510024 155.312257 201.764739 
C 155.312257 202.019454 155.413456 202.263771 155.593567 202.443882 
C 155.773678 202.623993 156.017995 202.725192 156.27271 202.725192 
z
" clip-path="url(#p35b17d07f3)" style="fill: #800080; fill-opacity: 0.8; stroke: #800080; stroke-opacity: 0.8"/>
    <path d="M 162.954357 212.238181 
C 163.199927 212.238181 163.435473 212.140615 163.609118 211.96697 
C 163.782763 211.793325 163.880329 211.55778 163.880329 211.312209 
C 163.880329 211.066638 163.782763 210.831092 163.609118 210.657448 
C 163.435473 210.483803 163.199927 210.386237 162.954357 210.386237 
C 162.708786 210.386237 162.47324 210.483803 162.299596 210.657448 
C 162.125951 210.831092 162.028385 211.066638 162.028385 211.312209 
C 162.028385 211.55778 162.125951 211.793325 162.299596 211.96697 
C 162.47324 212.140615 162.708786 212.238181 162.954357 212.238181 
z
" clip-path="url(#p35b17d07f3)" style="fill: #800080; fill-opacity: 0.8; stroke: #800080; stroke-opacity: 0.8"/>
    <path d="M 169.636003 236.89847 
C 169.878163 236.89847 170.110437 236.802259 170.28167 236.631026 
C 170.452903 236.459793 170.549114 236.227519 170.549114 235.985359 
C 170.549114 235.7432 170.452903 235.510925 170.28167 235.339693 
C 170.110437 235.16846 169.878163 235.072249 169.636003 235.072249 
C 169.393844 235.072249 169.161569 235.16846 168.990337 235.339693 
C 168.819104 235.510925 168.722893 235.7432 168.722893 235.985359 
C 168.722893 236.227519 168.819104 236.459793 168.990337 236.631026 
C 169.161569 236.802259 169.393844 236.89847 169.636003 236.89847 
z
" clip-path="url(#p35b17d07f3)" style="fill: #800080; fill-opacity: 0.8; stroke: #800080; stroke-opacity: 0.8"/>
    <path d="M 176.31765 216.780156 
C 176.55981 216.780156 176.792084 216.683945 176.963317 216.512712 
C 177.13455 216.341479 177.230761 216.109205 177.230761 215.867045 
C 177.230761 215.624886 177.13455 215.392611 176.963317 215.221379 
C 176.792084 215.050146 176.55981 214.953935 176.31765 214.953935 
C 176.07549 214.953935 175.843216 215.050146 175.671983 215.221379 
C 175.50075 215.392611 175.404539 215.624886 175.404539 215.867045 
C 175.404539 216.109205 175.50075 216.341479 175.671983 216.512712 
C 175.843216 216.683945 176.07549 216.780156 176.31765 216.780156 
z
" clip-path="url(#p35b17d07f3)" style="fill: #800080; fill-opacity: 0.8; stroke: #800080; stroke-opacity: 0.8"/>
    <path d="M 182.999297 208.353742 
C 183.254012 208.353742 183.498329 208.252543 183.67844 208.072432 
C 183.858551 207.892321 183.95975 207.648004 183.95975 207.393289 
C 183.95975 207.138574 183.858551 206.894257 183.67844 206.714146 
C 183.498329 206.534035 183.254012 206.432835 182.999297 206.432835 
C 182.744582 206.432835 182.500265 206.534035 182.320154 206.714146 
C 182.140043 206.894257 182.038843 207.138574 182.038843 207.393289 
C 182.038843 207.648004 182.140043 207.892321 182.320154 208.072432 
C 182.500265 208.252543 182.744582 208.353742 182.999297 208.353742 
z
" clip-path="url(#p35b17d07f3)" style="fill: #800080; fill-opacity: 0.8; stroke: #800080; stroke-opacity: 0.8"/>
    <path d="M 189.680943 214.242038 
C 189.954551 214.242038 190.21699 214.133332 190.41046 213.939862 
C 190.60393 213.746392 190.712636 213.483954 190.712636 213.210346 
C 190.712636 212.936738 190.60393 212.674299 190.41046 212.480829 
C 190.21699 212.287359 189.954551 212.178653 189.680943 212.178653 
C 189.407335 212.178653 189.144897 212.287359 188.951427 212.480829 
C 188.757957 212.674299 188.649251 212.936738 188.649251 213.210346 
C 188.649251 213.483954 188.757957 213.746392 188.951427 213.939862 
C 189.144897 214.133332 189.407335 214.242038 189.680943 214.242038 
z
" clip-path="url(#p35b17d07f3)" style="fill: #800080; fill-opacity: 0.8; stroke: #800080; stroke-opacity: 0.8"/>
    <path d="M 196.36259 186.615298 
C 196.659524 186.615298 196.944337 186.497325 197.154301 186.28736 
C 197.364266 186.077396 197.482239 185.792583 197.482239 185.495649 
C 197.482239 185.198715 197.364266 184.913902 197.154301 184.703938 
C 196.944337 184.493973 196.659524 184.376 196.36259 184.376 
C 196.065656 184.376 195.780843 184.493973 195.570879 184.703938 
C 195.360914 184.913902 195.242941 185.198715 195.242941 185.495649 
C 195.242941 185.792583 195.360914 186.077396 195.570879 186.28736 
C 195.780843 186.497325 196.065656 186.615298 196.36259 186.615298 
z
" clip-path="url(#p35b17d07f3)" style="fill: #800080; fill-opacity: 0.8; stroke: #800080; stroke-opacity: 0.8"/>
    <path d="M 203.044237 201.076827 
C 203.330474 201.076827 203.605026 200.963104 203.807426 200.760704 
C 204.009826 200.558304 204.123549 200.283752 204.123549 199.997515 
C 204.123549 199.711278 204.009826 199.436726 203.807426 199.234326 
C 203.605026 199.031926 203.330474 198.918203 203.044237 198.918203 
C 202.758 198.918203 202.483448 199.031926 202.281048 199.234326 
C 202.078648 199.436726 201.964925 199.711278 201.964925 199.997515 
C 201.964925 200.283752 202.078648 200.558304 202.281048 200.760704 
C 202.483448 200.963104 202.758 201.076827 203.044237 201.076827 
z
" clip-path="url(#p35b17d07f3)" style="fill: #800080; fill-opacity: 0.8; stroke: #800080; stroke-opacity: 0.8"/>
    <path d="M 209.725883 203.184885 
C 210.007728 203.184885 210.278066 203.072907 210.47736 202.873613 
C 210.676654 202.674319 210.788632 202.40398 210.788632 202.122136 
C 210.788632 201.840292 210.676654 201.569953 210.47736 201.370659 
C 210.278066 201.171365 210.007728 201.059387 209.725883 201.059387 
C 209.444039 201.059387 209.1737 201.171365 208.974406 201.370659 
C 208.775113 201.569953 208.663135 201.840292 208.663135 202.122136 
C 208.663135 202.40398 208.775113 202.674319 208.974406 202.873613 
C 209.1737 203.072907 209.444039 203.184885 209.725883 203.184885 
z
" clip-path="url(#p35b17d07f3)" style="fill: #800080; fill-opacity: 0.8; stroke: #800080; stroke-opacity: 0.8"/>
    <path d="M 216.40753 189.649768 
C 216.713433 189.649768 217.006848 189.528231 217.223154 189.311925 
C 217.43946 189.095619 217.560997 188.802204 217.560997 188.496301 
C 217.560997 188.190398 217.43946 187.896982 217.223154 187.680676 
C 217.006848 187.46437 216.713433 187.342834 216.40753 187.342834 
C 216.101627 187.342834 215.808212 187.46437 215.591906 187.680676 
C 215.3756 187.896982 215.254063 188.190398 215.254063 188.496301 
C 215.254063 188.802204 215.3756 189.095619 215.591906 189.311925 
C 215.808212 189.528231 216.101627 189.649768 216.40753 189.649768 
z
" clip-path="url(#p35b17d07f3)" style="fill: #800080; fill-opacity: 0.8; stroke: #800080; stroke-opacity: 0.8"/>
    <path d="M 223.089177 217.623266 
C 223.395759 217.623266 223.689825 217.50146 223.906612 217.284673 
C 224.123398 217.067887 224.245204 216.773821 224.245204 216.467239 
C 224.245204 216.160657 224.123398 215.86659 223.906612 215.649804 
C 223.689825 215.433018 223.395759 215.311211 223.089177 215.311211 
C 222.782595 215.311211 222.488528 215.433018 222.271742 215.649804 
C 222.054956 215.86659 221.933149 216.160657 221.933149 216.467239 
C 221.933149 216.773821 222.054956 217.067887 222.271742 217.284673 
C 222.488528 217.50146 222.782595 217.623266 223.089177 217.623266 
z
" clip-path="url(#p35b17d07f3)" style="fill: #800080; fill-opacity: 0.8; stroke: #800080; stroke-opacity: 0.8"/>
    <path d="M 229.770823 195.677591 
C 230.085439 195.677591 230.387212 195.552593 230.609679 195.330126 
C 230.832147 195.107658 230.957145 194.805886 230.957145 194.49127 
C 230.957145 194.176653 230.832147 193.874881 230.609679 193.652414 
C 230.387212 193.429946 230.085439 193.304948 229.770823 193.304948 
C 229.456207 193.304948 229.154435 193.429946 228.931967 193.652414 
C 228.7095 193.874881 228.584502 194.176653 228.584502 194.49127 
C 228.584502 194.805886 228.7095 195.107658 228.931967 195.330126 
C 229.154435 195.552593 229.456207 195.677591 229.770823 195.677591 
z
" clip-path="url(#p35b17d07f3)" style="fill: #800080; fill-opacity: 0.8; stroke: #800080; stroke-opacity: 0.8"/>
    <path d="M 236.45247 214.608561 
C 236.781306 214.608561 237.096718 214.477913 237.32924 214.245391 
C 237.561762 214.012869 237.69241 213.697457 237.69241 213.368621 
C 237.69241 213.039785 237.561762 212.724373 237.32924 212.491851 
C 237.096718 212.259329 236.781306 212.128681 236.45247 212.128681 
C 236.123634 212.128681 235.808222 212.259329 235.5757 212.491851 
C 235.343178 212.724373 235.21253 213.039785 235.21253 213.368621 
C 235.21253 213.697457 235.343178 214.012869 235.5757 214.245391 
C 235.808222 214.477913 236.123634 214.608561 236.45247 214.608561 
z
" clip-path="url(#p35b17d07f3)" style="fill: #800080; fill-opacity: 0.8; stroke: #800080; stroke-opacity: 0.8"/>
    <path d="M 243.134117 199.60571 
C 243.477189 199.60571 243.806256 199.469405 244.048845 199.226817 
C 244.291434 198.984228 244.427738 198.655161 244.427738 198.312088 
C 244.427738 197.969016 244.291434 197.639949 244.048845 197.39736 
C 243.806256 197.154771 243.477189 197.018467 243.134117 197.018467 
C 242.791044 197.018467 242.461977 197.154771 242.219388 197.39736 
C 241.976799 197.639949 241.840495 197.969016 241.840495 198.312088 
C 241.840495 198.655161 241.976799 198.984228 242.219388 199.226817 
C 242.461977 199.469405 242.791044 199.60571 243.134117 199.60571 
z
" clip-path="url(#p35b17d07f3)" style="fill: #800080; fill-opacity: 0.8; stroke: #800080; stroke-opacity: 0.8"/>
    <path d="M 249.815763 212.997446 
C 250.173087 212.997446 250.515824 212.855479 250.76849 212.602814 
C 251.021155 212.350148 251.163122 212.007411 251.163122 211.650087 
C 251.163122 211.292764 251.021155 210.950027 250.76849 210.697361 
C 250.515824 210.444695 250.173087 210.302729 249.815763 210.302729 
C 249.45844 210.302729 249.115703 210.444695 248.863037 210.697361 
C 248.610371 210.950027 248.468405 211.292764 248.468405 211.650087 
C 248.468405 212.007411 248.610371 212.350148 248.863037 212.602814 
C 249.115703 212.855479 249.45844 212.997446 249.815763 212.997446 
z
" clip-path="url(#p35b17d07f3)" style="fill: #800080; fill-opacity: 0.8; stroke: #800080; stroke-opacity: 0.8"/>
    <path d="M 256.49741 216.509983 
C 256.856475 216.509983 257.200882 216.367325 257.45478 216.113428 
C 257.708677 215.85953 257.851335 215.515123 257.851335 215.156058 
C 257.851335 214.796992 257.708677 214.452585 257.45478 214.198688 
C 257.200882 213.94479 256.856475 213.802132 256.49741 213.802132 
C 256.138345 213.802132 255.793937 213.94479 255.54004 214.198688 
C 255.286143 214.452585 255.143484 214.796992 255.143484 215.156058 
C 255.143484 215.515123 255.286143 215.85953 255.54004 216.113428 
C 255.793937 216.367325 256.138345 216.509983 256.49741 216.509983 
z
" clip-path="url(#p35b17d07f3)" style="fill: #800080; fill-opacity: 0.8; stroke: #800080; stroke-opacity: 0.8"/>
    <path d="M 263.179057 212.43815 
C 263.560585 212.43815 263.926538 212.286567 264.196319 212.016786 
C 264.4661 211.747005 264.617683 211.381052 264.617683 210.999524 
C 264.617683 210.617996 264.4661 210.252042 264.196319 209.982261 
C 263.926538 209.71248 263.560585 209.560898 263.179057 209.560898 
C 262.797528 209.560898 262.431575 209.71248 262.161794 209.982261 
C 261.892013 210.252042 261.74043 210.617996 261.74043 210.999524 
C 261.74043 211.381052 261.892013 211.747005 262.161794 212.016786 
C 262.431575 212.286567 262.797528 212.43815 263.179057 212.43815 
z
" clip-path="url(#p35b17d07f3)" style="fill: #800080; fill-opacity: 0.8; stroke: #800080; stroke-opacity: 0.8"/>
    <path d="M 269.860703 209.469455 
C 270.280632 209.469455 270.683418 209.302615 270.980352 209.005681 
C 271.277287 208.708747 271.444126 208.305961 271.444126 207.886032 
C 271.444126 207.466104 271.277287 207.063318 270.980352 206.766383 
C 270.683418 206.469449 270.280632 206.302609 269.860703 206.302609 
C 269.440775 206.302609 269.037989 206.469449 268.741054 206.766383 
C 268.44412 207.063318 268.277281 207.466104 268.277281 207.886032 
C 268.277281 208.305961 268.44412 208.708747 268.741054 209.005681 
C 269.037989 209.302615 269.440775 209.469455 269.860703 209.469455 
z
" clip-path="url(#p35b17d07f3)" style="fill: #800080; fill-opacity: 0.8; stroke: #800080; stroke-opacity: 0.8"/>
    <path d="M 276.54235 199.260901 
C 277.004703 199.260901 277.448182 199.077207 277.775115 198.750273 
C 278.102049 198.42334 278.285744 197.979861 278.285744 197.517508 
C 278.285744 197.055154 278.102049 196.611675 277.775115 196.284742 
C 277.448182 195.957809 277.004703 195.774114 276.54235 195.774114 
C 276.079996 195.774114 275.636518 195.957809 275.309584 196.284742 
C 274.982651 196.611675 274.798956 197.055154 274.798956 197.517508 
C 274.798956 197.979861 274.982651 198.42334 275.309584 198.750273 
C 275.636518 199.077207 276.079996 199.260901 276.54235 199.260901 
z
" clip-path="url(#p35b17d07f3)" style="fill: #800080; fill-opacity: 0.8; stroke: #800080; stroke-opacity: 0.8"/>
    <path d="M 283.223997 205.160052 
C 283.705733 205.160052 284.167804 204.968657 284.508443 204.628017 
C 284.849082 204.287378 285.040478 203.825307 285.040478 203.343571 
C 285.040478 202.861834 284.849082 202.399763 284.508443 202.059124 
C 284.167804 201.718485 283.705733 201.527089 283.223997 201.527089 
C 282.74226 201.527089 282.280189 201.718485 281.93955 202.059124 
C 281.598911 202.399763 281.407515 202.861834 281.407515 203.343571 
C 281.407515 203.825307 281.598911 204.287378 281.93955 204.628017 
C 282.280189 204.968657 282.74226 205.160052 283.223997 205.160052 
z
" clip-path="url(#p35b17d07f3)" style="fill: #800080; fill-opacity: 0.8; stroke: #800080; stroke-opacity: 0.8"/>
    <path d="M 289.905643 205.484876 
C 290.379985 205.484876 290.834962 205.296418 291.170372 204.961008 
C 291.505783 204.625598 291.69424 204.17062 291.69424 203.696279 
C 291.69424 203.221937 291.505783 202.76696 291.170372 202.431549 
C 290.834962 202.096139 290.379985 201.907681 289.905643 201.907681 
C 289.431302 201.907681 288.976324 202.096139 288.640914 202.431549 
C 288.305504 202.76696 288.117046 203.221937 288.117046 203.696279 
C 288.117046 204.17062 288.305504 204.625598 288.640914 204.961008 
C 288.976324 205.296418 289.431302 205.484876 289.905643 205.484876 
z
" clip-path="url(#p35b17d07f3)" style="fill: #800080; fill-opacity: 0.8; stroke: #800080; stroke-opacity: 0.8"/>
    <path d="M 296.58729 200.101756 
C 297.068595 200.101756 297.530251 199.910532 297.870585 199.570198 
C 298.210919 199.229864 298.402143 198.768208 298.402143 198.286903 
C 298.402143 197.805598 298.210919 197.343942 297.870585 197.003608 
C 297.530251 196.663274 297.068595 196.47205 296.58729 196.47205 
C 296.105985 196.47205 295.644329 196.663274 295.303995 197.003608 
C 294.963661 197.343942 294.772437 197.805598 294.772437 198.286903 
C 294.772437 198.768208 294.963661 199.229864 295.303995 199.570198 
C 295.644329 199.910532 296.105985 200.101756 296.58729 200.101756 
z
" clip-path="url(#p35b17d07f3)" style="fill: #800080; fill-opacity: 0.8; stroke: #800080; stroke-opacity: 0.8"/>
    <path d="M 303.268937 178.779976 
C 303.770966 178.779976 304.2525 178.580518 304.607489 178.22553 
C 304.962477 177.870542 305.161935 177.389007 305.161935 176.886978 
C 305.161935 176.384949 304.962477 175.903414 304.607489 175.548426 
C 304.2525 175.193438 303.770966 174.99398 303.268937 174.99398 
C 302.766907 174.99398 302.285373 175.193438 301.930385 175.548426 
C 301.575396 175.903414 301.375938 176.384949 301.375938 176.886978 
C 301.375938 177.389007 301.575396 177.870542 301.930385 178.22553 
C 302.285373 178.580518 302.766907 178.779976 303.268937 178.779976 
z
" clip-path="url(#p35b17d07f3)" style="fill: #800080; fill-opacity: 0.8; stroke: #800080; stroke-opacity: 0.8"/>
    <path d="M 309.950583 177.500937 
C 310.480815 177.500937 310.989401 177.290274 311.364332 176.915343 
C 311.739263 176.540413 311.949926 176.031826 311.949926 175.501595 
C 311.949926 174.971363 311.739263 174.462776 311.364332 174.087846 
C 310.989401 173.712915 310.480815 173.502252 309.950583 173.502252 
C 309.420351 173.502252 308.911765 173.712915 308.536834 174.087846 
C 308.161904 174.462776 307.95124 174.971363 307.95124 175.501595 
C 307.95124 176.031826 308.161904 176.540413 308.536834 176.915343 
C 308.911765 177.290274 309.420351 177.500937 309.950583 177.500937 
z
" clip-path="url(#p35b17d07f3)" style="fill: #800080; fill-opacity: 0.8; stroke: #800080; stroke-opacity: 0.8"/>
    <path d="M 316.63223 162.539018 
C 317.185868 162.539018 317.716906 162.319055 318.108387 161.927574 
C 318.499869 161.536092 318.719832 161.005055 318.719832 160.451416 
C 318.719832 159.897778 318.499869 159.36674 318.108387 158.975259 
C 317.716906 158.583777 317.185868 158.363815 316.63223 158.363815 
C 316.078591 158.363815 315.547554 158.583777 315.156072 158.975259 
C 314.764591 159.36674 314.544628 159.897778 314.544628 160.451416 
C 314.544628 161.005055 314.764591 161.536092 315.156072 161.927574 
C 315.547554 162.319055 316.078591 162.539018 316.63223 162.539018 
z
" clip-path="url(#p35b17d07f3)" style="fill: #800080; fill-opacity: 0.8; stroke: #800080; stroke-opacity: 0.8"/>
    <path d="M 323.313877 162.810252 
C 323.881242 162.810252 324.425446 162.584835 324.826634 162.183647 
C 325.227822 161.782459 325.453239 161.238255 325.453239 160.670889 
C 325.453239 160.103523 325.227822 159.559319 324.826634 159.158131 
C 324.425446 158.756943 323.881242 158.531526 323.313877 158.531526 
C 322.746511 158.531526 322.202307 158.756943 321.801119 159.158131 
C 321.399931 159.559319 321.174514 160.103523 321.174514 160.670889 
C 321.174514 161.238255 321.399931 161.782459 321.801119 162.183647 
C 322.202307 162.584835 322.746511 162.810252 323.313877 162.810252 
z
" clip-path="url(#p35b17d07f3)" style="fill: #800080; fill-opacity: 0.8; stroke: #800080; stroke-opacity: 0.8"/>
    <path d="M 329.995523 163.167365 
C 330.596008 163.167365 331.171979 162.928789 331.596586 162.504182 
C 332.021193 162.079575 332.259768 161.503604 332.259768 160.903119 
C 332.259768 160.302634 332.021193 159.726663 331.596586 159.302056 
C 331.171979 158.877449 330.596008 158.638874 329.995523 158.638874 
C 329.395038 158.638874 328.819067 158.877449 328.39446 159.302056 
C 327.969853 159.726663 327.731278 160.302634 327.731278 160.903119 
C 327.731278 161.503604 327.969853 162.079575 328.39446 162.504182 
C 328.819067 162.928789 329.395038 163.167365 329.995523 163.167365 
z
" clip-path="url(#p35b17d07f3)" style="fill: #800080; fill-opacity: 0.8; stroke: #800080; stroke-opacity: 0.8"/>
    <path d="M 336.67717 159.397099 
C 337.2954 159.397099 337.888393 159.151474 338.325547 158.714319 
C 338.762702 158.277164 339.008328 157.684172 339.008328 157.065942 
C 339.008328 156.447711 338.762702 155.854719 338.325547 155.417564 
C 337.888393 154.980409 337.2954 154.734784 336.67717 154.734784 
C 336.05894 154.734784 335.465947 154.980409 335.028792 155.417564 
C 334.591637 155.854719 334.346012 156.447711 334.346012 157.065942 
C 334.346012 157.684172 334.591637 158.277164 335.028792 158.714319 
C 335.465947 159.151474 336.05894 159.397099 336.67717 159.397099 
z
" clip-path="url(#p35b17d07f3)" style="fill: #800080; fill-opacity: 0.8; stroke: #800080; stroke-opacity: 0.8"/>
    <path d="M 343.358816 157.817529 
C 344.024033 157.817529 344.662094 157.553236 345.132474 157.082856 
C 345.602853 156.612477 345.867147 155.974416 345.867147 155.309199 
C 345.867147 154.643982 345.602853 154.005921 345.132474 153.535541 
C 344.662094 153.065162 344.024033 152.800868 343.358816 152.800868 
C 342.693599 152.800868 342.055538 153.065162 341.585159 153.535541 
C 341.11478 154.005921 340.850486 154.643982 340.850486 155.309199 
C 340.850486 155.974416 341.11478 156.612477 341.585159 157.082856 
C 342.055538 157.553236 342.693599 157.817529 343.358816 157.817529 
z
" clip-path="url(#p35b17d07f3)" style="fill: #800080; fill-opacity: 0.8; stroke: #800080; stroke-opacity: 0.8"/>
    <path d="M 350.040463 145.680805 
C 350.753945 145.680805 351.438301 145.397336 351.94281 144.892827 
C 352.447318 144.388319 352.730787 143.703963 352.730787 142.990481 
C 352.730787 142.276998 352.447318 141.592642 351.94281 141.088134 
C 351.438301 140.583626 350.753945 140.300157 350.040463 140.300157 
C 349.326981 140.300157 348.642625 140.583626 348.138117 141.088134 
C 347.633608 141.592642 347.350139 142.276998 347.350139 142.990481 
C 347.350139 143.703963 347.633608 144.388319 348.138117 144.892827 
C 348.642625 145.397336 349.326981 145.680805 350.040463 145.680805 
z
" clip-path="url(#p35b17d07f3)" style="fill: #800080; fill-opacity: 0.8; stroke: #800080; stroke-opacity: 0.8"/>
    <path d="M 356.72211 137.659614 
C 357.481067 137.659614 358.209042 137.358077 358.745706 136.821413 
C 359.28237 136.284749 359.583907 135.556775 359.583907 134.797817 
C 359.583907 134.03886 359.28237 133.310885 358.745706 132.774221 
C 358.209042 132.237557 357.481067 131.93602 356.72211 131.93602 
C 355.963152 131.93602 355.235178 132.237557 354.698514 132.774221 
C 354.16185 133.310885 353.860313 134.03886 353.860313 134.797817 
C 353.860313 135.556775 354.16185 136.284749 354.698514 136.821413 
C 355.235178 137.358077 355.963152 137.659614 356.72211 137.659614 
z
" clip-path="url(#p35b17d07f3)" style="fill: #800080; fill-opacity: 0.8; stroke: #800080; stroke-opacity: 0.8"/>
    <path d="M 363.403756 123.884319 
C 364.181924 123.884319 364.928325 123.57515 365.478573 123.024902 
C 366.02882 122.474654 366.33799 121.728253 366.33799 120.950086 
C 366.33799 120.171918 366.02882 119.425517 365.478573 118.87527 
C 364.928325 118.325022 364.181924 118.015853 363.403756 118.015853 
C 362.625589 118.015853 361.879188 118.325022 361.32894 118.87527 
C 360.778693 119.425517 360.469523 120.171918 360.469523 120.950086 
C 360.469523 121.728253 360.778693 122.474654 361.32894 123.024902 
C 361.879188 123.57515 362.625589 123.884319 363.403756 123.884319 
z
" clip-path="url(#p35b17d07f3)" style="fill: #800080; fill-opacity: 0.8; stroke: #800080; stroke-opacity: 0.8"/>
    <path d="M 370.085403 112.453885 
C 370.874715 112.453885 371.631804 112.140288 372.189932 111.582161 
C 372.748059 111.024033 373.061656 110.266943 373.061656 109.477632 
C 373.061656 108.68832 372.748059 107.931231 372.189932 107.373103 
C 371.631804 106.814976 370.874715 106.501379 370.085403 106.501379 
C 369.296092 106.501379 368.539002 106.814976 367.980874 107.373103 
C 367.422747 107.931231 367.10915 108.68832 367.10915 109.477632 
C 367.10915 110.266943 367.422747 111.024033 367.980874 111.582161 
C 368.539002 112.140288 369.296092 112.453885 370.085403 112.453885 
z
" clip-path="url(#p35b17d07f3)" style="fill: #800080; fill-opacity: 0.8; stroke: #800080; stroke-opacity: 0.8"/>
    <path d="M 376.76705 100.974084 
C 377.562659 100.974084 378.325789 100.657985 378.88837 100.095404 
C 379.450951 99.532823 379.76705 98.769693 379.76705 97.974084 
C 379.76705 97.178474 379.450951 96.415344 378.88837 95.852763 
C 378.325789 95.290182 377.562659 94.974084 376.76705 94.974084 
C 375.97144 94.974084 375.20831 95.290182 374.645729 95.852763 
C 374.083149 96.415344 373.76705 97.178474 373.76705 97.974084 
C 373.76705 98.769693 374.083149 99.532823 374.645729 100.095404 
C 375.20831 100.657985 375.97144 100.974084 376.76705 100.974084 
z
" clip-path="url(#p35b17d07f3)" style="fill: #800080; fill-opacity: 0.8; stroke: #800080; stroke-opacity: 0.8"/>
    <path d="M 383.448696 86.86509 
C 384.169717 86.86509 384.861303 86.578626 385.371141 86.068787 
C 385.88098 85.558949 386.167444 84.867363 386.167444 84.146342 
C 386.167444 83.425322 385.88098 82.733736 385.371141 82.223897 
C 384.861303 81.714059 384.169717 81.427594 383.448696 81.427594 
C 382.727676 81.427594 382.03609 81.714059 381.526251 82.223897 
C 381.016413 82.733736 380.729949 83.425322 380.729949 84.146342 
C 380.729949 84.867363 381.016413 85.558949 381.526251 86.068787 
C 382.03609 86.578626 382.727676 86.86509 383.448696 86.86509 
z
" clip-path="url(#p35b17d07f3)" style="fill: #800080; fill-opacity: 0.8; stroke: #800080; stroke-opacity: 0.8"/>
    <path d="M 390.130343 77.602155 
C 390.846734 77.602155 391.53388 77.31753 392.040445 76.810965 
C 392.54701 76.3044 392.831635 75.617254 392.831635 74.900863 
C 392.831635 74.184472 392.54701 73.497326 392.040445 72.990761 
C 391.53388 72.484196 390.846734 72.199571 390.130343 72.199571 
C 389.413952 72.199571 388.726806 72.484196 388.220241 72.990761 
C 387.713676 73.497326 387.429051 74.184472 387.429051 74.900863 
C 387.429051 75.617254 387.713676 76.3044 388.220241 76.810965 
C 388.726806 77.31753 389.413952 77.602155 390.130343 77.602155 
z
" clip-path="url(#p35b17d07f3)" style="fill: #800080; fill-opacity: 0.8; stroke: #800080; stroke-opacity: 0.8"/>
    <path d="M 396.81199 62.246493 
C 397.541611 62.246493 398.241447 61.956611 398.757367 61.440691 
C 399.273288 60.924771 399.563169 60.224935 399.563169 59.495313 
C 399.563169 58.765692 399.273288 58.065856 398.757367 57.549936 
C 398.241447 57.034016 397.541611 56.744134 396.81199 56.744134 
C 396.082368 56.744134 395.382532 57.034016 394.866612 57.549936 
C 394.350692 58.065856 394.06081 58.765692 394.06081 59.495313 
C 394.06081 60.224935 394.350692 60.924771 394.866612 61.440691 
C 395.382532 61.956611 396.082368 62.246493 396.81199 62.246493 
z
" clip-path="url(#p35b17d07f3)" style="fill: #800080; fill-opacity: 0.8; stroke: #800080; stroke-opacity: 0.8"/>
    <path d="M 403.493636 38.73905 
C 404.177352 38.73905 404.833157 38.467407 405.316617 37.983947 
C 405.800077 37.500487 406.07172 36.844682 406.07172 36.160966 
C 406.07172 35.47725 405.800077 34.821445 405.316617 34.337985 
C 404.833157 33.854525 404.177352 33.582882 403.493636 33.582882 
C 402.80992 33.582882 402.154116 33.854525 401.670656 34.337985 
C 401.187195 34.821445 400.915552 35.47725 400.915552 36.160966 
C 400.915552 36.844682 401.187195 37.500487 401.670656 37.983947 
C 402.154116 38.467407 402.80992 38.73905 403.493636 38.73905 
z
" clip-path="url(#p35b17d07f3)" style="fill: #800080; fill-opacity: 0.8; stroke: #800080; stroke-opacity: 0.8"/>
   </g>
   <g id="PolyCollection_1">
    <defs>
     <path id="m17136f31eb" d="M 49.366364 -72.951762 
L 49.366364 -38.544716 
L 52.943407 -39.939513 
L 56.52045 -41.335606 
L 60.097493 -42.734088 
L 63.674536 -44.13257 
L 67.251579 -45.531052 
L 70.828623 -46.929535 
L 74.405666 -48.328017 
L 77.982709 -49.726499 
L 81.559752 -51.124981 
L 85.136795 -52.556611 
L 88.713838 -54.00153 
L 92.290882 -55.446448 
L 95.867925 -56.891367 
L 99.444968 -58.29193 
L 103.022011 -59.546978 
L 106.599054 -60.850763 
L 110.176097 -62.130475 
L 113.75314 -63.405902 
L 117.330184 -64.681463 
L 120.907227 -65.961014 
L 124.48427 -67.241982 
L 128.061313 -68.602989 
L 131.638356 -69.809139 
L 135.215399 -71.052518 
L 138.792443 -72.253592 
L 142.369486 -73.551317 
L 145.946529 -74.943101 
L 149.523572 -76.364883 
L 153.100615 -77.516645 
L 156.677658 -78.780576 
L 160.254702 -80.021254 
L 163.831745 -81.196504 
L 167.408788 -82.398495 
L 170.985831 -83.676254 
L 174.562874 -84.992346 
L 178.139917 -86.235016 
L 181.716961 -87.222133 
L 185.294004 -88.416916 
L 188.871047 -89.443306 
L 192.44809 -90.665195 
L 196.025133 -91.865095 
L 199.602176 -92.843966 
L 203.179219 -93.920056 
L 206.756263 -95.094758 
L 210.333306 -95.98753 
L 213.910349 -96.796511 
L 217.487392 -97.631031 
L 221.064435 -98.561658 
L 224.641478 -99.650104 
L 228.218522 -100.492859 
L 231.795565 -101.368429 
L 235.372608 -102.158235 
L 238.949651 -102.808792 
L 242.526694 -103.428193 
L 246.103737 -104.16958 
L 249.680781 -104.857921 
L 253.257824 -105.556816 
L 256.834867 -106.19303 
L 260.41191 -106.949163 
L 263.988953 -107.639701 
L 267.565996 -108.429641 
L 271.143039 -109.122937 
L 274.720083 -109.816233 
L 278.297126 -110.495039 
L 281.874169 -111.08624 
L 285.451212 -111.8486 
L 289.028255 -112.58978 
L 292.605298 -113.282714 
L 296.182342 -113.97395 
L 299.759385 -114.590832 
L 303.336428 -115.207714 
L 306.913471 -115.798019 
L 310.490514 -116.342131 
L 314.067557 -117.058124 
L 317.644601 -117.675243 
L 321.221644 -118.295254 
L 324.798687 -118.966164 
L 328.37573 -119.637075 
L 331.952773 -120.307985 
L 335.529816 -120.87923 
L 339.10686 -121.551359 
L 342.683903 -122.223509 
L 346.260946 -122.842483 
L 349.837989 -123.461456 
L 353.415032 -124.08043 
L 356.992075 -124.699404 
L 360.569118 -125.318377 
L 364.146162 -125.937351 
L 367.723205 -126.556324 
L 371.300248 -127.175298 
L 374.877291 -127.794272 
L 378.454334 -128.413245 
L 382.031377 -129.032219 
L 385.608421 -129.651192 
L 389.185464 -130.270166 
L 392.762507 -130.88914 
L 396.33955 -131.495225 
L 399.916593 -132.090882 
L 403.493636 -132.686538 
L 403.493636 -181.418487 
L 403.493636 -181.418487 
L 399.916593 -180.059028 
L 396.33955 -178.68912 
L 392.762507 -177.378652 
L 389.185464 -176.011383 
L 385.608421 -174.685448 
L 382.031377 -173.339456 
L 378.454334 -171.993465 
L 374.877291 -170.647473 
L 371.300248 -169.26683 
L 367.723205 -167.777992 
L 364.146162 -166.359943 
L 360.569118 -165.185532 
L 356.992075 -163.915439 
L 353.415032 -162.568912 
L 349.837989 -161.220531 
L 346.260946 -159.872687 
L 342.683903 -158.530991 
L 339.10686 -157.187559 
L 335.529816 -155.84143 
L 331.952773 -154.49016 
L 328.37573 -153.115722 
L 324.798687 -151.796223 
L 321.221644 -150.526031 
L 317.644601 -149.155138 
L 314.067557 -147.761499 
L 310.490514 -146.362309 
L 306.913471 -145.135794 
L 303.336428 -143.917223 
L 299.759385 -142.697144 
L 296.182342 -141.419054 
L 292.605298 -140.072533 
L 289.028255 -138.802995 
L 285.451212 -137.599089 
L 281.874169 -136.305452 
L 278.297126 -135.030672 
L 274.720083 -133.665268 
L 271.143039 -132.398792 
L 267.565996 -131.0801 
L 263.988953 -129.771194 
L 260.41191 -128.520933 
L 256.834867 -127.267882 
L 253.257824 -126.080064 
L 249.680781 -125.007483 
L 246.103737 -123.700268 
L 242.526694 -122.517525 
L 238.949651 -121.406066 
L 235.372608 -120.292131 
L 231.795565 -119.120587 
L 228.218522 -117.786596 
L 224.641478 -116.494473 
L 221.064435 -115.383163 
L 217.487392 -114.367344 
L 213.910349 -113.361167 
L 210.333306 -112.27364 
L 206.756263 -111.193731 
L 203.179219 -110.097615 
L 199.602176 -109.084569 
L 196.025133 -108.043489 
L 192.44809 -106.897918 
L 188.871047 -105.818348 
L 185.294004 -104.753853 
L 181.716961 -103.668959 
L 178.139917 -102.593646 
L 174.562874 -101.541688 
L 170.985831 -100.669837 
L 167.408788 -99.707276 
L 163.831745 -98.771527 
L 160.254702 -97.770885 
L 156.677658 -96.834335 
L 153.100615 -95.699642 
L 149.523572 -94.757193 
L 145.946529 -93.778709 
L 142.369486 -92.887085 
L 138.792443 -91.952918 
L 135.215399 -90.959187 
L 131.638356 -90.123371 
L 128.061313 -89.186774 
L 124.48427 -88.281901 
L 120.907227 -87.479492 
L 117.330184 -86.715336 
L 113.75314 -85.868037 
L 110.176097 -85.102172 
L 106.599054 -84.233295 
L 103.022011 -83.481242 
L 99.444968 -82.769283 
L 95.867925 -82.07538 
L 92.290882 -81.303217 
L 88.713838 -80.550829 
L 85.136795 -79.818626 
L 81.559752 -79.119123 
L 77.982709 -78.376239 
L 74.405666 -77.732997 
L 70.828623 -77.089756 
L 67.251579 -76.410016 
L 63.674536 -75.704115 
L 60.097493 -75.000099 
L 56.52045 -74.292967 
L 52.943407 -73.604083 
L 49.366364 -72.951762 
z
" style="stroke: #ffffff; stroke-opacity: 0.15"/>
    </defs>
    <g clip-path="url(#p35b17d07f3)">
     <use xlink:href="#m17136f31eb" x="0" y="288" style="fill: #800080; fill-opacity: 0.15; stroke: #ffffff; stroke-opacity: 0.15"/>
    </g>
   </g>
   <g id="line2d_1">
    <path d="M 49.366364 229.681455 
L 52.943407 228.663228 
L 56.52045 227.645 
L 60.097493 226.626773 
L 63.674536 225.608546 
L 67.251579 224.590319 
L 70.828623 223.572092 
L 74.405666 222.553865 
L 77.982709 221.535637 
L 81.559752 220.51741 
L 85.136795 219.499183 
L 88.713838 218.480956 
L 92.290882 217.462729 
L 95.867925 216.444502 
L 99.444968 215.426274 
L 103.022011 214.408047 
L 106.599054 213.38982 
L 110.176097 212.371593 
L 113.75314 211.353366 
L 117.330184 210.335139 
L 120.907227 209.316911 
L 124.48427 208.298684 
L 128.061313 207.280457 
L 131.638356 206.26223 
L 135.215399 205.244003 
L 138.792443 204.225776 
L 142.369486 203.207548 
L 145.946529 202.189321 
L 149.523572 201.171094 
L 153.100615 200.152867 
L 156.677658 199.13464 
L 160.254702 198.116413 
L 163.831745 197.098185 
L 167.408788 196.079958 
L 170.985831 195.061731 
L 174.562874 194.043504 
L 178.139917 193.025277 
L 181.716961 192.00705 
L 185.294004 190.988822 
L 188.871047 189.970595 
L 192.44809 188.952368 
L 196.025133 187.934141 
L 199.602176 186.915914 
L 203.179219 185.897687 
L 206.756263 184.879459 
L 210.333306 183.861232 
L 213.910349 182.843005 
L 217.487392 181.824778 
L 221.064435 180.806551 
L 224.641478 179.788324 
L 228.218522 178.770096 
L 231.795565 177.751869 
L 235.372608 176.733642 
L 238.949651 175.715415 
L 242.526694 174.697188 
L 246.103737 173.678961 
L 249.680781 172.660733 
L 253.257824 171.642506 
L 256.834867 170.624279 
L 260.41191 169.606052 
L 263.988953 168.587825 
L 267.565996 167.569598 
L 271.143039 166.55137 
L 274.720083 165.533143 
L 278.297126 164.514916 
L 281.874169 163.496689 
L 285.451212 162.478462 
L 289.028255 161.460235 
L 292.605298 160.442007 
L 296.182342 159.42378 
L 299.759385 158.405553 
L 303.336428 157.387326 
L 306.913471 156.369099 
L 310.490514 155.350872 
L 314.067557 154.332644 
L 317.644601 153.314417 
L 321.221644 152.29619 
L 324.798687 151.277963 
L 328.37573 150.259736 
L 331.952773 149.241509 
L 335.529816 148.223281 
L 339.10686 147.205054 
L 342.683903 146.186827 
L 346.260946 145.1686 
L 349.837989 144.150373 
L 353.415032 143.132146 
L 356.992075 142.113918 
L 360.569118 141.095691 
L 364.146162 140.077464 
L 367.723205 139.059237 
L 371.300248 138.04101 
L 374.877291 137.022783 
L 378.454334 136.004555 
L 382.031377 134.986328 
L 385.608421 133.968101 
L 389.185464 132.949874 
L 392.762507 131.931647 
L 396.33955 130.91342 
L 399.916593 129.895192 
L 403.493636 128.876965 
" clip-path="url(#p35b17d07f3)" style="fill: none; stroke: #800080; stroke-width: 2.25; stroke-linecap: round"/>
   </g>
   <g id="patch_3">
    <path d="M 31.66 260.12 
L 31.66 25.49625 
" style="fill: none; stroke: #ffffff; stroke-width: 0.8; stroke-linejoin: miter; stroke-linecap: square"/>
   </g>
   <g id="patch_4">
    <path d="M 421.2 260.12 
L 421.2 25.49625 
" style="fill: none; stroke: #ffffff; stroke-width: 0.8; stroke-linejoin: miter; stroke-linecap: square"/>
   </g>
   <g id="patch_5">
    <path d="M 31.66 260.12 
L 421.2 260.12 
" style="fill: none; stroke: #ffffff; stroke-width: 0.8; stroke-linejoin: miter; stroke-linecap: square"/>
   </g>
   <g id="patch_6">
    <path d="M 31.66 25.49625 
L 421.2 25.49625 
" style="fill: none; stroke: #ffffff; stroke-width: 0.8; stroke-linejoin: miter; stroke-linecap: square"/>
   </g>
   <g id="text_15">
    <!-- Yearly average ratings from ranked games -->
    <g style="fill: #262626" transform="translate(113.598125 19.49625) scale(0.12 -0.12)">
     <defs>
      <path id="ArialMT-59" d="M 1784 0 
L 1784 1941 
L 19 4581 
L 756 4581 
L 1659 3200 
Q 1909 2813 2125 2425 
Q 2331 2784 2625 3234 
L 3513 4581 
L 4219 4581 
L 2391 1941 
L 2391 0 
L 1784 0 
z
" transform="scale(0.015625)"/>
      <path id="ArialMT-65" d="M 2694 1069 
L 3275 997 
Q 3138 488 2766 206 
Q 2394 -75 1816 -75 
Q 1088 -75 661 373 
Q 234 822 234 1631 
Q 234 2469 665 2931 
Q 1097 3394 1784 3394 
Q 2450 3394 2872 2941 
Q 3294 2488 3294 1666 
Q 3294 1616 3291 1516 
L 816 1516 
Q 847 969 1125 678 
Q 1403 388 1819 388 
Q 2128 388 2347 550 
Q 2566 713 2694 1069 
z
M 847 1978 
L 2700 1978 
Q 2663 2397 2488 2606 
Q 2219 2931 1791 2931 
Q 1403 2931 1139 2672 
Q 875 2413 847 1978 
z
" transform="scale(0.015625)"/>
      <path id="ArialMT-61" d="M 2588 409 
Q 2275 144 1986 34 
Q 1697 -75 1366 -75 
Q 819 -75 525 192 
Q 231 459 231 875 
Q 231 1119 342 1320 
Q 453 1522 633 1644 
Q 813 1766 1038 1828 
Q 1203 1872 1538 1913 
Q 2219 1994 2541 2106 
Q 2544 2222 2544 2253 
Q 2544 2597 2384 2738 
Q 2169 2928 1744 2928 
Q 1347 2928 1158 2789 
Q 969 2650 878 2297 
L 328 2372 
Q 403 2725 575 2942 
Q 747 3159 1072 3276 
Q 1397 3394 1825 3394 
Q 2250 3394 2515 3294 
Q 2781 3194 2906 3042 
Q 3031 2891 3081 2659 
Q 3109 2516 3109 2141 
L 3109 1391 
Q 3109 606 3145 398 
Q 3181 191 3288 0 
L 2700 0 
Q 2613 175 2588 409 
z
M 2541 1666 
Q 2234 1541 1622 1453 
Q 1275 1403 1131 1340 
Q 988 1278 909 1158 
Q 831 1038 831 891 
Q 831 666 1001 516 
Q 1172 366 1500 366 
Q 1825 366 2078 508 
Q 2331 650 2450 897 
Q 2541 1088 2541 1459 
L 2541 1666 
z
" transform="scale(0.015625)"/>
      <path id="ArialMT-72" d="M 416 0 
L 416 3319 
L 922 3319 
L 922 2816 
Q 1116 3169 1280 3281 
Q 1444 3394 1641 3394 
Q 1925 3394 2219 3213 
L 2025 2691 
Q 1819 2813 1613 2813 
Q 1428 2813 1281 2702 
Q 1134 2591 1072 2394 
Q 978 2094 978 1738 
L 978 0 
L 416 0 
z
" transform="scale(0.015625)"/>
      <path id="ArialMT-6c" d="M 409 0 
L 409 4581 
L 972 4581 
L 972 0 
L 409 0 
z
" transform="scale(0.015625)"/>
      <path id="ArialMT-79" d="M 397 -1278 
L 334 -750 
Q 519 -800 656 -800 
Q 844 -800 956 -737 
Q 1069 -675 1141 -563 
Q 1194 -478 1313 -144 
Q 1328 -97 1363 -6 
L 103 3319 
L 709 3319 
L 1400 1397 
Q 1534 1031 1641 628 
Q 1738 1016 1872 1384 
L 2581 3319 
L 3144 3319 
L 1881 -56 
Q 1678 -603 1566 -809 
Q 1416 -1088 1222 -1217 
Q 1028 -1347 759 -1347 
Q 597 -1347 397 -1278 
z
" transform="scale(0.015625)"/>
      <path id="ArialMT-20" transform="scale(0.015625)"/>
      <path id="ArialMT-76" d="M 1344 0 
L 81 3319 
L 675 3319 
L 1388 1331 
Q 1503 1009 1600 663 
Q 1675 925 1809 1294 
L 2547 3319 
L 3125 3319 
L 1869 0 
L 1344 0 
z
" transform="scale(0.015625)"/>
      <path id="ArialMT-67" d="M 319 -275 
L 866 -356 
Q 900 -609 1056 -725 
Q 1266 -881 1628 -881 
Q 2019 -881 2231 -725 
Q 2444 -569 2519 -288 
Q 2563 -116 2559 434 
Q 2191 0 1641 0 
Q 956 0 581 494 
Q 206 988 206 1678 
Q 206 2153 378 2554 
Q 550 2956 876 3175 
Q 1203 3394 1644 3394 
Q 2231 3394 2613 2919 
L 2613 3319 
L 3131 3319 
L 3131 450 
Q 3131 -325 2973 -648 
Q 2816 -972 2473 -1159 
Q 2131 -1347 1631 -1347 
Q 1038 -1347 672 -1080 
Q 306 -813 319 -275 
z
M 784 1719 
Q 784 1066 1043 766 
Q 1303 466 1694 466 
Q 2081 466 2343 764 
Q 2606 1063 2606 1700 
Q 2606 2309 2336 2618 
Q 2066 2928 1684 2928 
Q 1309 2928 1046 2623 
Q 784 2319 784 1719 
z
" transform="scale(0.015625)"/>
      <path id="ArialMT-74" d="M 1650 503 
L 1731 6 
Q 1494 -44 1306 -44 
Q 1000 -44 831 53 
Q 663 150 594 308 
Q 525 466 525 972 
L 525 2881 
L 113 2881 
L 113 3319 
L 525 3319 
L 525 4141 
L 1084 4478 
L 1084 3319 
L 1650 3319 
L 1650 2881 
L 1084 2881 
L 1084 941 
Q 1084 700 1114 631 
Q 1144 563 1211 522 
Q 1278 481 1403 481 
Q 1497 481 1650 503 
z
" transform="scale(0.015625)"/>
      <path id="ArialMT-69" d="M 425 3934 
L 425 4581 
L 988 4581 
L 988 3934 
L 425 3934 
z
M 425 0 
L 425 3319 
L 988 3319 
L 988 0 
L 425 0 
z
" transform="scale(0.015625)"/>
      <path id="ArialMT-6e" d="M 422 0 
L 422 3319 
L 928 3319 
L 928 2847 
Q 1294 3394 1984 3394 
Q 2284 3394 2536 3286 
Q 2788 3178 2913 3003 
Q 3038 2828 3088 2588 
Q 3119 2431 3119 2041 
L 3119 0 
L 2556 0 
L 2556 2019 
Q 2556 2363 2490 2533 
Q 2425 2703 2258 2804 
Q 2091 2906 1866 2906 
Q 1506 2906 1245 2678 
Q 984 2450 984 1813 
L 984 0 
L 422 0 
z
" transform="scale(0.015625)"/>
      <path id="ArialMT-73" d="M 197 991 
L 753 1078 
Q 800 744 1014 566 
Q 1228 388 1613 388 
Q 2000 388 2187 545 
Q 2375 703 2375 916 
Q 2375 1106 2209 1216 
Q 2094 1291 1634 1406 
Q 1016 1563 777 1677 
Q 538 1791 414 1992 
Q 291 2194 291 2438 
Q 291 2659 392 2848 
Q 494 3038 669 3163 
Q 800 3259 1026 3326 
Q 1253 3394 1513 3394 
Q 1903 3394 2198 3281 
Q 2494 3169 2634 2976 
Q 2775 2784 2828 2463 
L 2278 2388 
Q 2241 2644 2061 2787 
Q 1881 2931 1553 2931 
Q 1166 2931 1000 2803 
Q 834 2675 834 2503 
Q 834 2394 903 2306 
Q 972 2216 1119 2156 
Q 1203 2125 1616 2013 
Q 2213 1853 2448 1751 
Q 2684 1650 2818 1456 
Q 2953 1263 2953 975 
Q 2953 694 2789 445 
Q 2625 197 2315 61 
Q 2006 -75 1616 -75 
Q 969 -75 630 194 
Q 291 463 197 991 
z
" transform="scale(0.015625)"/>
      <path id="ArialMT-66" d="M 556 0 
L 556 2881 
L 59 2881 
L 59 3319 
L 556 3319 
L 556 3672 
Q 556 4006 616 4169 
Q 697 4388 901 4523 
Q 1106 4659 1475 4659 
Q 1713 4659 2000 4603 
L 1916 4113 
Q 1741 4144 1584 4144 
Q 1328 4144 1222 4034 
Q 1116 3925 1116 3625 
L 1116 3319 
L 1763 3319 
L 1763 2881 
L 1116 2881 
L 1116 0 
L 556 0 
z
" transform="scale(0.015625)"/>
      <path id="ArialMT-6f" d="M 213 1659 
Q 213 2581 725 3025 
Q 1153 3394 1769 3394 
Q 2453 3394 2887 2945 
Q 3322 2497 3322 1706 
Q 3322 1066 3130 698 
Q 2938 331 2570 128 
Q 2203 -75 1769 -75 
Q 1072 -75 642 372 
Q 213 819 213 1659 
z
M 791 1659 
Q 791 1022 1069 705 
Q 1347 388 1769 388 
Q 2188 388 2466 706 
Q 2744 1025 2744 1678 
Q 2744 2294 2464 2611 
Q 2184 2928 1769 2928 
Q 1347 2928 1069 2612 
Q 791 2297 791 1659 
z
" transform="scale(0.015625)"/>
      <path id="ArialMT-6d" d="M 422 0 
L 422 3319 
L 925 3319 
L 925 2853 
Q 1081 3097 1340 3245 
Q 1600 3394 1931 3394 
Q 2300 3394 2536 3241 
Q 2772 3088 2869 2813 
Q 3263 3394 3894 3394 
Q 4388 3394 4653 3120 
Q 4919 2847 4919 2278 
L 4919 0 
L 4359 0 
L 4359 2091 
Q 4359 2428 4304 2576 
Q 4250 2725 4106 2815 
Q 3963 2906 3769 2906 
Q 3419 2906 3187 2673 
Q 2956 2441 2956 1928 
L 2956 0 
L 2394 0 
L 2394 2156 
Q 2394 2531 2256 2718 
Q 2119 2906 1806 2906 
Q 1569 2906 1367 2781 
Q 1166 2656 1075 2415 
Q 984 2175 984 1722 
L 984 0 
L 422 0 
z
" transform="scale(0.015625)"/>
      <path id="ArialMT-6b" d="M 425 0 
L 425 4581 
L 988 4581 
L 988 1969 
L 2319 3319 
L 3047 3319 
L 1778 2088 
L 3175 0 
L 2481 0 
L 1384 1697 
L 988 1316 
L 988 0 
L 425 0 
z
" transform="scale(0.015625)"/>
      <path id="ArialMT-64" d="M 2575 0 
L 2575 419 
Q 2259 -75 1647 -75 
Q 1250 -75 917 144 
Q 584 363 401 755 
Q 219 1147 219 1656 
Q 219 2153 384 2558 
Q 550 2963 881 3178 
Q 1213 3394 1622 3394 
Q 1922 3394 2156 3267 
Q 2391 3141 2538 2938 
L 2538 4581 
L 3097 4581 
L 3097 0 
L 2575 0 
z
M 797 1656 
Q 797 1019 1065 703 
Q 1334 388 1700 388 
Q 2069 388 2326 689 
Q 2584 991 2584 1609 
Q 2584 2291 2321 2609 
Q 2059 2928 1675 2928 
Q 1300 2928 1048 2622 
Q 797 2316 797 1656 
z
" transform="scale(0.015625)"/>
     </defs>
     <use xlink:href="#ArialMT-59"/>
     <use xlink:href="#ArialMT-65" x="57.574219"/>
     <use xlink:href="#ArialMT-61" x="113.189453"/>
     <use xlink:href="#ArialMT-72" x="168.804688"/>
     <use xlink:href="#ArialMT-6c" x="202.105469"/>
     <use xlink:href="#ArialMT-79" x="224.322266"/>
     <use xlink:href="#ArialMT-20" x="274.322266"/>
     <use xlink:href="#ArialMT-61" x="302.105469"/>
     <use xlink:href="#ArialMT-76" x="357.720703"/>
     <use xlink:href="#ArialMT-65" x="407.720703"/>
     <use xlink:href="#ArialMT-72" x="463.335938"/>
     <use xlink:href="#ArialMT-61" x="496.636719"/>
     <use xlink:href="#ArialMT-67" x="552.251953"/>
     <use xlink:href="#ArialMT-65" x="607.867188"/>
     <use xlink:href="#ArialMT-20" x="663.482422"/>
     <use xlink:href="#ArialMT-72" x="691.265625"/>
     <use xlink:href="#ArialMT-61" x="724.566406"/>
     <use xlink:href="#ArialMT-74" x="780.181641"/>
     <use xlink:href="#ArialMT-69" x="807.964844"/>
     <use xlink:href="#ArialMT-6e" x="830.181641"/>
     <use xlink:href="#ArialMT-67" x="885.796875"/>
     <use xlink:href="#ArialMT-73" x="941.412109"/>
     <use xlink:href="#ArialMT-20" x="991.412109"/>
     <use xlink:href="#ArialMT-66" x="1019.195312"/>
     <use xlink:href="#ArialMT-72" x="1046.978516"/>
     <use xlink:href="#ArialMT-6f" x="1080.279297"/>
     <use xlink:href="#ArialMT-6d" x="1135.894531"/>
     <use xlink:href="#ArialMT-20" x="1219.195312"/>
     <use xlink:href="#ArialMT-72" x="1246.978516"/>
     <use xlink:href="#ArialMT-61" x="1280.279297"/>
     <use xlink:href="#ArialMT-6e" x="1335.894531"/>
     <use xlink:href="#ArialMT-6b" x="1391.509766"/>
     <use xlink:href="#ArialMT-65" x="1441.509766"/>
     <use xlink:href="#ArialMT-64" x="1497.125"/>
     <use xlink:href="#ArialMT-20" x="1552.740234"/>
     <use xlink:href="#ArialMT-67" x="1580.523438"/>
     <use xlink:href="#ArialMT-61" x="1636.138672"/>
     <use xlink:href="#ArialMT-6d" x="1691.753906"/>
     <use xlink:href="#ArialMT-65" x="1775.054688"/>
     <use xlink:href="#ArialMT-73" x="1830.669922"/>
    </g>
   </g>
  </g>
 </g>
 <defs>
  <clipPath id="p35b17d07f3">
   <rect x="31.66" y="25.49625" width="389.54" height="234.62375"/>
  </clipPath>
 </defs>
</svg>
