<?xml version="1.0" encoding="utf-8" standalone="no"?>
<!DOCTYPE svg PUBLIC "-//W3C//DTD SVG 1.1//EN"
  "http://www.w3.org/Graphics/SVG/1.1/DTD/svg11.dtd">
<svg xmlns:xlink="http://www.w3.org/1999/xlink" width="460.8pt" height="345.6pt" viewBox="0 0 460.8 345.6" xmlns="http://www.w3.org/2000/svg" version="1.1">
 <metadata>
  <rdf:RDF xmlns:dc="http://purl.org/dc/elements/1.1/" xmlns:cc="http://creativecommons.org/ns#" xmlns:rdf="http://www.w3.org/1999/02/22-rdf-syntax-ns#">
   <cc:Work>
    <dc:type rdf:resource="http://purl.org/dc/dcmitype/StillImage"/>
    <dc:date>2024-08-19T22:01:49.207534</dc:date>
    <dc:format>image/svg+xml</dc:format>
    <dc:creator>
     <cc:Agent>
      <dc:title>Matplotlib v3.9.2, https://matplotlib.org/</dc:title>
     </cc:Agent>
    </dc:creator>
   </cc:Work>
  </rdf:RDF>
 </metadata>
 <defs>
  <style type="text/css">*{stroke-linejoin: round; stroke-linecap: butt}</style>
 </defs>
 <g id="figure_1">
  <g id="patch_1">
   <path d="M 0 345.6 
L 460.8 345.6 
L 460.8 0 
L 0 0 
z
" style="fill: #ffffff"/>
  </g>
  <g id="axes_1">
   <g id="patch_2">
    <path d="M 31.66 317.72 
L 450 317.72 
L 450 25.49625 
L 31.66 25.49625 
z
" style="fill: #eaeaf2"/>
   </g>
   <g id="matplotlib.axis_1">
    <g id="xtick_1">
     <g id="text_1">
      <!-- 1970 -->
      <g style="fill: #262626" transform="translate(39.55358 331.877812) scale(0.1 -0.1)">
       <defs>
        <path id="ArialMT-31" d="M 2384 0 
L 1822 0 
L 1822 3584 
Q 1619 3391 1289 3197 
Q 959 3003 697 2906 
L 697 3450 
Q 1169 3672 1522 3987 
Q 1875 4303 2022 4600 
L 2384 4600 
L 2384 0 
z
" transform="scale(0.015625)"/>
        <path id="ArialMT-39" d="M 350 1059 
L 891 1109 
Q 959 728 1153 556 
Q 1347 384 1650 384 
Q 1909 384 2104 503 
Q 2300 622 2425 820 
Q 2550 1019 2634 1356 
Q 2719 1694 2719 2044 
Q 2719 2081 2716 2156 
Q 2547 1888 2255 1720 
Q 1963 1553 1622 1553 
Q 1053 1553 659 1965 
Q 266 2378 266 3053 
Q 266 3750 677 4175 
Q 1088 4600 1706 4600 
Q 2153 4600 2523 4359 
Q 2894 4119 3086 3673 
Q 3278 3228 3278 2384 
Q 3278 1506 3087 986 
Q 2897 466 2520 194 
Q 2144 -78 1638 -78 
Q 1100 -78 759 220 
Q 419 519 350 1059 
z
M 2653 3081 
Q 2653 3566 2395 3850 
Q 2138 4134 1775 4134 
Q 1400 4134 1122 3828 
Q 844 3522 844 3034 
Q 844 2597 1108 2323 
Q 1372 2050 1759 2050 
Q 2150 2050 2401 2323 
Q 2653 2597 2653 3081 
z
" transform="scale(0.015625)"/>
        <path id="ArialMT-37" d="M 303 3981 
L 303 4522 
L 3269 4522 
L 3269 4084 
Q 2831 3619 2401 2847 
Q 1972 2075 1738 1259 
Q 1569 684 1522 0 
L 944 0 
Q 953 541 1156 1306 
Q 1359 2072 1739 2783 
Q 2119 3494 2547 3981 
L 303 3981 
z
" transform="scale(0.015625)"/>
        <path id="ArialMT-30" d="M 266 2259 
Q 266 3072 433 3567 
Q 600 4063 929 4331 
Q 1259 4600 1759 4600 
Q 2128 4600 2406 4451 
Q 2684 4303 2865 4023 
Q 3047 3744 3150 3342 
Q 3253 2941 3253 2259 
Q 3253 1453 3087 958 
Q 2922 463 2592 192 
Q 2263 -78 1759 -78 
Q 1097 -78 719 397 
Q 266 969 266 2259 
z
M 844 2259 
Q 844 1131 1108 757 
Q 1372 384 1759 384 
Q 2147 384 2411 759 
Q 2675 1134 2675 2259 
Q 2675 3391 2411 3762 
Q 2147 4134 1753 4134 
Q 1366 4134 1134 3806 
Q 844 3388 844 2259 
z
" transform="scale(0.015625)"/>
       </defs>
       <use xlink:href="#ArialMT-31"/>
       <use xlink:href="#ArialMT-39" x="55.615234"/>
       <use xlink:href="#ArialMT-37" x="111.230469"/>
       <use xlink:href="#ArialMT-30" x="166.845703"/>
      </g>
     </g>
    </g>
    <g id="xtick_2">
     <g id="text_2">
      <!-- 1980 -->
      <g style="fill: #262626" transform="translate(111.310012 331.877812) scale(0.1 -0.1)">
       <defs>
        <path id="ArialMT-38" d="M 1131 2484 
Q 781 2613 612 2850 
Q 444 3088 444 3419 
Q 444 3919 803 4259 
Q 1163 4600 1759 4600 
Q 2359 4600 2725 4251 
Q 3091 3903 3091 3403 
Q 3091 3084 2923 2848 
Q 2756 2613 2416 2484 
Q 2838 2347 3058 2040 
Q 3278 1734 3278 1309 
Q 3278 722 2862 322 
Q 2447 -78 1769 -78 
Q 1091 -78 675 323 
Q 259 725 259 1325 
Q 259 1772 486 2073 
Q 713 2375 1131 2484 
z
M 1019 3438 
Q 1019 3113 1228 2906 
Q 1438 2700 1772 2700 
Q 2097 2700 2305 2904 
Q 2513 3109 2513 3406 
Q 2513 3716 2298 3927 
Q 2084 4138 1766 4138 
Q 1444 4138 1231 3931 
Q 1019 3725 1019 3438 
z
M 838 1322 
Q 838 1081 952 856 
Q 1066 631 1291 507 
Q 1516 384 1775 384 
Q 2178 384 2440 643 
Q 2703 903 2703 1303 
Q 2703 1709 2433 1975 
Q 2163 2241 1756 2241 
Q 1359 2241 1098 1978 
Q 838 1716 838 1322 
z
" transform="scale(0.015625)"/>
       </defs>
       <use xlink:href="#ArialMT-31"/>
       <use xlink:href="#ArialMT-39" x="55.615234"/>
       <use xlink:href="#ArialMT-38" x="111.230469"/>
       <use xlink:href="#ArialMT-30" x="166.845703"/>
      </g>
     </g>
    </g>
    <g id="xtick_3">
     <g id="text_3">
      <!-- 1990 -->
      <g style="fill: #262626" transform="translate(183.066444 331.877812) scale(0.1 -0.1)">
       <use xlink:href="#ArialMT-31"/>
       <use xlink:href="#ArialMT-39" x="55.615234"/>
       <use xlink:href="#ArialMT-39" x="111.230469"/>
       <use xlink:href="#ArialMT-30" x="166.845703"/>
      </g>
     </g>
    </g>
    <g id="xtick_4">
     <g id="text_4">
      <!-- 2000 -->
      <g style="fill: #262626" transform="translate(254.822876 331.877812) scale(0.1 -0.1)">
       <defs>
        <path id="ArialMT-32" d="M 3222 541 
L 3222 0 
L 194 0 
Q 188 203 259 391 
Q 375 700 629 1000 
Q 884 1300 1366 1694 
Q 2113 2306 2375 2664 
Q 2638 3022 2638 3341 
Q 2638 3675 2398 3904 
Q 2159 4134 1775 4134 
Q 1369 4134 1125 3890 
Q 881 3647 878 3216 
L 300 3275 
Q 359 3922 746 4261 
Q 1134 4600 1788 4600 
Q 2447 4600 2831 4234 
Q 3216 3869 3216 3328 
Q 3216 3053 3103 2787 
Q 2991 2522 2730 2228 
Q 2469 1934 1863 1422 
Q 1356 997 1212 845 
Q 1069 694 975 541 
L 3222 541 
z
" transform="scale(0.015625)"/>
       </defs>
       <use xlink:href="#ArialMT-32"/>
       <use xlink:href="#ArialMT-30" x="55.615234"/>
       <use xlink:href="#ArialMT-30" x="111.230469"/>
       <use xlink:href="#ArialMT-30" x="166.845703"/>
      </g>
     </g>
    </g>
    <g id="xtick_5">
     <g id="text_5">
      <!-- 2010 -->
      <g style="fill: #262626" transform="translate(326.579309 331.877812) scale(0.1 -0.1)">
       <use xlink:href="#ArialMT-32"/>
       <use xlink:href="#ArialMT-30" x="55.615234"/>
       <use xlink:href="#ArialMT-31" x="111.230469"/>
       <use xlink:href="#ArialMT-30" x="166.845703"/>
      </g>
     </g>
    </g>
    <g id="xtick_6">
     <g id="text_6">
      <!-- 2020 -->
      <g style="fill: #262626" transform="translate(398.335741 331.877812) scale(0.1 -0.1)">
       <use xlink:href="#ArialMT-32"/>
       <use xlink:href="#ArialMT-30" x="55.615234"/>
       <use xlink:href="#ArialMT-32" x="111.230469"/>
       <use xlink:href="#ArialMT-30" x="166.845703"/>
      </g>
     </g>
    </g>
   </g>
   <g id="matplotlib.axis_2">
    <g id="ytick_1">
     <g id="text_7">
      <!-- 5.8 -->
      <g style="fill: #262626" transform="translate(10.76 291.625319) scale(0.1 -0.1)">
       <defs>
        <path id="ArialMT-35" d="M 266 1200 
L 856 1250 
Q 922 819 1161 601 
Q 1400 384 1738 384 
Q 2144 384 2425 690 
Q 2706 997 2706 1503 
Q 2706 1984 2436 2262 
Q 2166 2541 1728 2541 
Q 1456 2541 1237 2417 
Q 1019 2294 894 2097 
L 366 2166 
L 809 4519 
L 3088 4519 
L 3088 3981 
L 1259 3981 
L 1013 2750 
Q 1425 3038 1878 3038 
Q 2478 3038 2890 2622 
Q 3303 2206 3303 1553 
Q 3303 931 2941 478 
Q 2500 -78 1738 -78 
Q 1113 -78 717 272 
Q 322 622 266 1200 
z
" transform="scale(0.015625)"/>
        <path id="ArialMT-2e" d="M 581 0 
L 581 641 
L 1222 641 
L 1222 0 
L 581 0 
z
" transform="scale(0.015625)"/>
       </defs>
       <use xlink:href="#ArialMT-35"/>
       <use xlink:href="#ArialMT-2e" x="55.615234"/>
       <use xlink:href="#ArialMT-38" x="83.398438"/>
      </g>
     </g>
    </g>
    <g id="ytick_2">
     <g id="text_8">
      <!-- 6.0 -->
      <g style="fill: #262626" transform="translate(10.76 256.983696) scale(0.1 -0.1)">
       <defs>
        <path id="ArialMT-36" d="M 3184 3459 
L 2625 3416 
Q 2550 3747 2413 3897 
Q 2184 4138 1850 4138 
Q 1581 4138 1378 3988 
Q 1113 3794 959 3422 
Q 806 3050 800 2363 
Q 1003 2672 1297 2822 
Q 1591 2972 1913 2972 
Q 2475 2972 2870 2558 
Q 3266 2144 3266 1488 
Q 3266 1056 3080 686 
Q 2894 316 2569 119 
Q 2244 -78 1831 -78 
Q 1128 -78 684 439 
Q 241 956 241 2144 
Q 241 3472 731 4075 
Q 1159 4600 1884 4600 
Q 2425 4600 2770 4297 
Q 3116 3994 3184 3459 
z
M 888 1484 
Q 888 1194 1011 928 
Q 1134 663 1356 523 
Q 1578 384 1822 384 
Q 2178 384 2434 671 
Q 2691 959 2691 1453 
Q 2691 1928 2437 2201 
Q 2184 2475 1800 2475 
Q 1419 2475 1153 2201 
Q 888 1928 888 1484 
z
" transform="scale(0.015625)"/>
       </defs>
       <use xlink:href="#ArialMT-36"/>
       <use xlink:href="#ArialMT-2e" x="55.615234"/>
       <use xlink:href="#ArialMT-30" x="83.398438"/>
      </g>
     </g>
    </g>
    <g id="ytick_3">
     <g id="text_9">
      <!-- 6.2 -->
      <g style="fill: #262626" transform="translate(10.76 222.342072) scale(0.1 -0.1)">
       <use xlink:href="#ArialMT-36"/>
       <use xlink:href="#ArialMT-2e" x="55.615234"/>
       <use xlink:href="#ArialMT-32" x="83.398438"/>
      </g>
     </g>
    </g>
    <g id="ytick_4">
     <g id="text_10">
      <!-- 6.4 -->
      <g style="fill: #262626" transform="translate(10.76 187.700449) scale(0.1 -0.1)">
       <defs>
        <path id="ArialMT-34" d="M 2069 0 
L 2069 1097 
L 81 1097 
L 81 1613 
L 2172 4581 
L 2631 4581 
L 2631 1613 
L 3250 1613 
L 3250 1097 
L 2631 1097 
L 2631 0 
L 2069 0 
z
M 2069 1613 
L 2069 3678 
L 634 1613 
L 2069 1613 
z
" transform="scale(0.015625)"/>
       </defs>
       <use xlink:href="#ArialMT-36"/>
       <use xlink:href="#ArialMT-2e" x="55.615234"/>
       <use xlink:href="#ArialMT-34" x="83.398438"/>
      </g>
     </g>
    </g>
    <g id="ytick_5">
     <g id="text_11">
      <!-- 6.6 -->
      <g style="fill: #262626" transform="translate(10.76 153.058826) scale(0.1 -0.1)">
       <use xlink:href="#ArialMT-36"/>
       <use xlink:href="#ArialMT-2e" x="55.615234"/>
       <use xlink:href="#ArialMT-36" x="83.398438"/>
      </g>
     </g>
    </g>
    <g id="ytick_6">
     <g id="text_12">
      <!-- 6.8 -->
      <g style="fill: #262626" transform="translate(10.76 118.417202) scale(0.1 -0.1)">
       <use xlink:href="#ArialMT-36"/>
       <use xlink:href="#ArialMT-2e" x="55.615234"/>
       <use xlink:href="#ArialMT-38" x="83.398438"/>
      </g>
     </g>
    </g>
    <g id="ytick_7">
     <g id="text_13">
      <!-- 7.0 -->
      <g style="fill: #262626" transform="translate(10.76 83.775579) scale(0.1 -0.1)">
       <use xlink:href="#ArialMT-37"/>
       <use xlink:href="#ArialMT-2e" x="55.615234"/>
       <use xlink:href="#ArialMT-30" x="83.398438"/>
      </g>
     </g>
    </g>
    <g id="ytick_8">
     <g id="text_14">
      <!-- 7.2 -->
      <g style="fill: #262626" transform="translate(10.76 49.133956) scale(0.1 -0.1)">
       <use xlink:href="#ArialMT-37"/>
       <use xlink:href="#ArialMT-2e" x="55.615234"/>
       <use xlink:href="#ArialMT-32" x="83.398438"/>
      </g>
     </g>
    </g>
   </g>
   <g id="PathCollection_1">
    <path d="M 50.675455 241.645842 
C 50.805951 241.645842 50.931121 241.593995 51.023396 241.50172 
C 51.115671 241.409445 51.167518 241.284276 51.167518 241.153779 
C 51.167518 241.023283 51.115671 240.898113 51.023396 240.805838 
C 50.931121 240.713563 50.805951 240.661716 50.675455 240.661716 
C 50.544958 240.661716 50.419789 240.713563 50.327513 240.805838 
C 50.235238 240.898113 50.183392 241.023283 50.183392 241.153779 
C 50.183392 241.284276 50.235238 241.409445 50.327513 241.50172 
C 50.419789 241.593995 50.544958 241.645842 50.675455 241.645842 
z
" clip-path="url(#p2946831f29)" style="fill: #800080; fill-opacity: 0.8; stroke: #800080; stroke-opacity: 0.8"/>
    <path d="M 57.851098 234.621412 
C 57.979993 234.621412 58.103627 234.570201 58.194769 234.479058 
C 58.285912 234.387915 58.337123 234.264282 58.337123 234.135386 
C 58.337123 234.006491 58.285912 233.882858 58.194769 233.791715 
C 58.103627 233.700572 57.979993 233.649361 57.851098 233.649361 
C 57.722202 233.649361 57.598569 233.700572 57.507426 233.791715 
C 57.416283 233.882858 57.365073 234.006491 57.365073 234.135386 
C 57.365073 234.264282 57.416283 234.387915 57.507426 234.479058 
C 57.598569 234.570201 57.722202 234.621412 57.851098 234.621412 
z
" clip-path="url(#p2946831f29)" style="fill: #800080; fill-opacity: 0.8; stroke: #800080; stroke-opacity: 0.8"/>
    <path d="M 65.026741 250.954831 
C 65.196031 250.954831 65.358411 250.887571 65.478117 250.767865 
C 65.597823 250.648158 65.665083 250.485779 65.665083 250.316489 
C 65.665083 250.147198 65.597823 249.984819 65.478117 249.865113 
C 65.358411 249.745407 65.196031 249.678147 65.026741 249.678147 
C 64.857451 249.678147 64.695071 249.745407 64.575365 249.865113 
C 64.455659 249.984819 64.388399 250.147198 64.388399 250.316489 
C 64.388399 250.485779 64.455659 250.648158 64.575365 250.767865 
C 64.695071 250.887571 64.857451 250.954831 65.026741 250.954831 
z
" clip-path="url(#p2946831f29)" style="fill: #800080; fill-opacity: 0.8; stroke: #800080; stroke-opacity: 0.8"/>
    <path d="M 72.202384 263.099646 
C 72.378881 263.099646 72.548174 263.029523 72.672976 262.90472 
C 72.797778 262.779918 72.867902 262.610626 72.867902 262.434129 
C 72.867902 262.257631 72.797778 262.088339 72.672976 261.963537 
C 72.548174 261.838734 72.378881 261.768611 72.202384 261.768611 
C 72.025887 261.768611 71.856595 261.838734 71.731792 261.963537 
C 71.60699 262.088339 71.536867 262.257631 71.536867 262.434129 
C 71.536867 262.610626 71.60699 262.779918 71.731792 262.90472 
C 71.856595 263.029523 72.025887 263.099646 72.202384 263.099646 
z
" clip-path="url(#p2946831f29)" style="fill: #800080; fill-opacity: 0.8; stroke: #800080; stroke-opacity: 0.8"/>
    <path d="M 79.378027 235.136153 
C 79.555697 235.136153 79.726115 235.065564 79.851746 234.939933 
C 79.977378 234.814301 80.047967 234.643884 80.047967 234.466214 
C 80.047967 234.288544 79.977378 234.118127 79.851746 233.992495 
C 79.726115 233.866864 79.555697 233.796274 79.378027 233.796274 
C 79.200357 233.796274 79.02994 233.866864 78.904309 233.992495 
C 78.778677 234.118127 78.708088 234.288544 78.708088 234.466214 
C 78.708088 234.643884 78.778677 234.814301 78.904309 234.939933 
C 79.02994 235.065564 79.200357 235.136153 79.378027 235.136153 
z
" clip-path="url(#p2946831f29)" style="fill: #800080; fill-opacity: 0.8; stroke: #800080; stroke-opacity: 0.8"/>
    <path d="M 86.553671 238.481245 
C 86.781528 238.481245 87.000083 238.390717 87.161202 238.229597 
C 87.322321 238.068478 87.41285 237.849923 87.41285 237.622066 
C 87.41285 237.394209 87.322321 237.175654 87.161202 237.014534 
C 87.000083 236.853415 86.781528 236.762887 86.553671 236.762887 
C 86.325814 236.762887 86.107258 236.853415 85.946139 237.014534 
C 85.78502 237.175654 85.694491 237.394209 85.694491 237.622066 
C 85.694491 237.849923 85.78502 238.068478 85.946139 238.229597 
C 86.107258 238.390717 86.325814 238.481245 86.553671 238.481245 
z
" clip-path="url(#p2946831f29)" style="fill: #800080; fill-opacity: 0.8; stroke: #800080; stroke-opacity: 0.8"/>
    <path d="M 93.729314 234.030078 
C 93.899826 234.030078 94.063378 233.962333 94.183949 233.841762 
C 94.304519 233.721192 94.372265 233.55764 94.372265 233.387127 
C 94.372265 233.216615 94.304519 233.053063 94.183949 232.932492 
C 94.063378 232.811922 93.899826 232.744177 93.729314 232.744177 
C 93.558801 232.744177 93.39525 232.811922 93.274679 232.932492 
C 93.154108 233.053063 93.086363 233.216615 93.086363 233.387127 
C 93.086363 233.55764 93.154108 233.721192 93.274679 233.841762 
C 93.39525 233.962333 93.558801 234.030078 93.729314 234.030078 
z
" clip-path="url(#p2946831f29)" style="fill: #800080; fill-opacity: 0.8; stroke: #800080; stroke-opacity: 0.8"/>
    <path d="M 100.904957 234.870718 
C 101.12064 234.870718 101.327519 234.785027 101.48003 234.632516 
C 101.632541 234.480004 101.718233 234.273126 101.718233 234.057443 
C 101.718233 233.84176 101.632541 233.634881 101.48003 233.48237 
C 101.327519 233.329859 101.12064 233.244167 100.904957 233.244167 
C 100.689274 233.244167 100.482395 233.329859 100.329884 233.48237 
C 100.177373 233.634881 100.091681 233.84176 100.091681 234.057443 
C 100.091681 234.273126 100.177373 234.480004 100.329884 234.632516 
C 100.482395 234.785027 100.689274 234.870718 100.904957 234.870718 
z
" clip-path="url(#p2946831f29)" style="fill: #800080; fill-opacity: 0.8; stroke: #800080; stroke-opacity: 0.8"/>
    <path d="M 108.0806 245.474068 
C 108.287436 245.474068 108.485829 245.391892 108.632084 245.245637 
C 108.778339 245.099381 108.860516 244.900989 108.860516 244.694153 
C 108.860516 244.487317 108.778339 244.288925 108.632084 244.14267 
C 108.485829 243.996415 108.287436 243.914238 108.0806 243.914238 
C 107.873764 243.914238 107.675372 243.996415 107.529117 244.14267 
C 107.382862 244.288925 107.300685 244.487317 107.300685 244.694153 
C 107.300685 244.900989 107.382862 245.099381 107.529117 245.245637 
C 107.675372 245.391892 107.873764 245.474068 108.0806 245.474068 
z
" clip-path="url(#p2946831f29)" style="fill: #800080; fill-opacity: 0.8; stroke: #800080; stroke-opacity: 0.8"/>
    <path d="M 115.256244 206.663184 
C 115.495656 206.663184 115.725295 206.568065 115.894585 206.398775 
C 116.063876 206.229484 116.158995 205.999845 116.158995 205.760433 
C 116.158995 205.52102 116.063876 205.291381 115.894585 205.122091 
C 115.725295 204.952801 115.495656 204.857681 115.256244 204.857681 
C 115.016831 204.857681 114.787192 204.952801 114.617902 205.122091 
C 114.448611 205.291381 114.353492 205.52102 114.353492 205.760433 
C 114.353492 205.999845 114.448611 206.229484 114.617902 206.398775 
C 114.787192 206.568065 115.016831 206.663184 115.256244 206.663184 
z
" clip-path="url(#p2946831f29)" style="fill: #800080; fill-opacity: 0.8; stroke: #800080; stroke-opacity: 0.8"/>
    <path d="M 122.431887 217.874156 
C 122.666037 217.874156 122.890628 217.781127 123.056197 217.615558 
C 123.221767 217.449989 123.314795 217.225397 123.314795 216.991247 
C 123.314795 216.757097 123.221767 216.532506 123.056197 216.366936 
C 122.890628 216.201367 122.666037 216.108338 122.431887 216.108338 
C 122.197737 216.108338 121.973145 216.201367 121.807576 216.366936 
C 121.642007 216.532506 121.548978 216.757097 121.548978 216.991247 
C 121.548978 217.225397 121.642007 217.449989 121.807576 217.615558 
C 121.973145 217.781127 122.197737 217.874156 122.431887 217.874156 
z
" clip-path="url(#p2946831f29)" style="fill: #800080; fill-opacity: 0.8; stroke: #800080; stroke-opacity: 0.8"/>
    <path d="M 129.60753 237.618954 
C 129.865321 237.618954 130.112588 237.516533 130.294873 237.334248 
C 130.477159 237.151962 130.57958 236.904695 130.57958 236.646904 
C 130.57958 236.389113 130.477159 236.141846 130.294873 235.959561 
C 130.112588 235.777275 129.865321 235.674854 129.60753 235.674854 
C 129.349739 235.674854 129.102472 235.777275 128.920187 235.959561 
C 128.737901 236.141846 128.63548 236.389113 128.63548 236.646904 
C 128.63548 236.904695 128.737901 237.151962 128.920187 237.334248 
C 129.102472 237.516533 129.349739 237.618954 129.60753 237.618954 
z
" clip-path="url(#p2946831f29)" style="fill: #800080; fill-opacity: 0.8; stroke: #800080; stroke-opacity: 0.8"/>
    <path d="M 136.783173 241.208174 
C 137.020845 241.208174 137.248814 241.113746 137.416873 240.945687 
C 137.584932 240.777628 137.679359 240.549659 137.679359 240.311988 
C 137.679359 240.074317 137.584932 239.846348 137.416873 239.678289 
C 137.248814 239.51023 137.020845 239.415802 136.783173 239.415802 
C 136.545502 239.415802 136.317533 239.51023 136.149474 239.678289 
C 135.981415 239.846348 135.886987 240.074317 135.886987 240.311988 
C 135.886987 240.549659 135.981415 240.777628 136.149474 240.945687 
C 136.317533 241.113746 136.545502 241.208174 136.783173 241.208174 
z
" clip-path="url(#p2946831f29)" style="fill: #800080; fill-opacity: 0.8; stroke: #800080; stroke-opacity: 0.8"/>
    <path d="M 143.958816 236.461436 
C 144.205913 236.461436 144.442922 236.363264 144.617645 236.18854 
C 144.792368 236.013817 144.890541 235.776808 144.890541 235.529712 
C 144.890541 235.282616 144.792368 235.045607 144.617645 234.870883 
C 144.442922 234.69616 144.205913 234.597987 143.958816 234.597987 
C 143.71172 234.597987 143.474711 234.69616 143.299988 234.870883 
C 143.125264 235.045607 143.027092 235.282616 143.027092 235.529712 
C 143.027092 235.776808 143.125264 236.013817 143.299988 236.18854 
C 143.474711 236.363264 143.71172 236.461436 143.958816 236.461436 
z
" clip-path="url(#p2946831f29)" style="fill: #800080; fill-opacity: 0.8; stroke: #800080; stroke-opacity: 0.8"/>
    <path d="M 151.13446 267.995973 
C 151.346256 267.995973 151.549407 267.911825 151.69917 267.762062 
C 151.848933 267.612299 151.933081 267.409149 151.933081 267.197352 
C 151.933081 266.985555 151.848933 266.782404 151.69917 266.632642 
C 151.549407 266.482879 151.346256 266.398731 151.13446 266.398731 
C 150.922663 266.398731 150.719512 266.482879 150.569749 266.632642 
C 150.419987 266.782404 150.335839 266.985555 150.335839 267.197352 
C 150.335839 267.409149 150.419987 267.612299 150.569749 267.762062 
C 150.719512 267.911825 150.922663 267.995973 151.13446 267.995973 
z
" clip-path="url(#p2946831f29)" style="fill: #800080; fill-opacity: 0.8; stroke: #800080; stroke-opacity: 0.8"/>
    <path d="M 158.310103 235.819494 
C 158.548646 235.819494 158.777452 235.72472 158.946128 235.556044 
C 159.114803 235.387368 159.209578 235.158563 159.209578 234.920019 
C 159.209578 234.681476 159.114803 234.45267 158.946128 234.283994 
C 158.777452 234.115319 158.548646 234.020544 158.310103 234.020544 
C 158.071559 234.020544 157.842754 234.115319 157.674078 234.283994 
C 157.505402 234.45267 157.410628 234.681476 157.410628 234.920019 
C 157.410628 235.158563 157.505402 235.387368 157.674078 235.556044 
C 157.842754 235.72472 158.071559 235.819494 158.310103 235.819494 
z
" clip-path="url(#p2946831f29)" style="fill: #800080; fill-opacity: 0.8; stroke: #800080; stroke-opacity: 0.8"/>
    <path d="M 165.485746 246.403967 
C 165.740294 246.403967 165.984451 246.302834 166.164443 246.122842 
C 166.344436 245.942849 166.445569 245.698692 166.445569 245.444144 
C 166.445569 245.189596 166.344436 244.94544 166.164443 244.765447 
C 165.984451 244.585455 165.740294 244.484322 165.485746 244.484322 
C 165.231198 244.484322 164.987042 244.585455 164.807049 244.765447 
C 164.627056 244.94544 164.525923 245.189596 164.525923 245.444144 
C 164.525923 245.698692 164.627056 245.942849 164.807049 246.122842 
C 164.987042 246.302834 165.231198 246.403967 165.485746 246.403967 
z
" clip-path="url(#p2946831f29)" style="fill: #800080; fill-opacity: 0.8; stroke: #800080; stroke-opacity: 0.8"/>
    <path d="M 172.661389 257.227647 
C 172.907644 257.227647 173.143845 257.129809 173.317973 256.955681 
C 173.492101 256.781553 173.589939 256.545351 173.589939 256.299097 
C 173.589939 256.052843 173.492101 255.816641 173.317973 255.642513 
C 173.143845 255.468385 172.907644 255.370547 172.661389 255.370547 
C 172.415135 255.370547 172.178934 255.468385 172.004806 255.642513 
C 171.830677 255.816641 171.73284 256.052843 171.73284 256.299097 
C 171.73284 256.545351 171.830677 256.781553 172.004806 256.955681 
C 172.178934 257.129809 172.415135 257.227647 172.661389 257.227647 
z
" clip-path="url(#p2946831f29)" style="fill: #800080; fill-opacity: 0.8; stroke: #800080; stroke-opacity: 0.8"/>
    <path d="M 179.837033 288.9468 
C 180.079033 288.9468 180.311155 288.850652 180.482276 288.679531 
C 180.653396 288.508411 180.749544 288.276289 180.749544 288.034288 
C 180.749544 287.792287 180.653396 287.560166 180.482276 287.389045 
C 180.311155 287.217925 180.079033 287.121777 179.837033 287.121777 
C 179.595032 287.121777 179.36291 287.217925 179.19179 287.389045 
C 179.020669 287.560166 178.924521 287.792287 178.924521 288.034288 
C 178.924521 288.276289 179.020669 288.508411 179.19179 288.679531 
C 179.36291 288.850652 179.595032 288.9468 179.837033 288.9468 
z
" clip-path="url(#p2946831f29)" style="fill: #800080; fill-opacity: 0.8; stroke: #800080; stroke-opacity: 0.8"/>
    <path d="M 187.012676 263.776196 
C 187.254677 263.776196 187.486798 263.680048 187.657919 263.508928 
C 187.829039 263.337807 187.925187 263.105686 187.925187 262.863685 
C 187.925187 262.621684 187.829039 262.389562 187.657919 262.218442 
C 187.486798 262.047321 187.254677 261.951173 187.012676 261.951173 
C 186.770675 261.951173 186.538553 262.047321 186.367433 262.218442 
C 186.196312 262.389562 186.100164 262.621684 186.100164 262.863685 
C 186.100164 263.105686 186.196312 263.337807 186.367433 263.508928 
C 186.538553 263.680048 186.770675 263.776196 187.012676 263.776196 
z
" clip-path="url(#p2946831f29)" style="fill: #800080; fill-opacity: 0.8; stroke: #800080; stroke-opacity: 0.8"/>
    <path d="M 194.188319 252.59654 
C 194.44205 252.59654 194.685423 252.495732 194.864837 252.316317 
C 195.044252 252.136902 195.145061 251.89353 195.145061 251.639799 
C 195.145061 251.386068 195.044252 251.142695 194.864837 250.96328 
C 194.685423 250.783866 194.44205 250.683057 194.188319 250.683057 
C 193.934588 250.683057 193.691215 250.783866 193.511801 250.96328 
C 193.332386 251.142695 193.231578 251.386068 193.231578 251.639799 
C 193.231578 251.89353 193.332386 252.136902 193.511801 252.316317 
C 193.691215 252.495732 193.934588 252.59654 194.188319 252.59654 
z
" clip-path="url(#p2946831f29)" style="fill: #800080; fill-opacity: 0.8; stroke: #800080; stroke-opacity: 0.8"/>
    <path d="M 201.363962 260.69035 
C 201.637391 260.69035 201.899657 260.581715 202.093 260.388372 
C 202.286343 260.195029 202.394977 259.932763 202.394977 259.659335 
C 202.394977 259.385906 202.286343 259.12364 202.093 258.930297 
C 201.899657 258.736954 201.637391 258.628319 201.363962 258.628319 
C 201.090534 258.628319 200.828268 258.736954 200.634924 258.930297 
C 200.441581 259.12364 200.332947 259.385906 200.332947 259.659335 
C 200.332947 259.932763 200.441581 260.195029 200.634924 260.388372 
C 200.828268 260.581715 201.090534 260.69035 201.363962 260.69035 
z
" clip-path="url(#p2946831f29)" style="fill: #800080; fill-opacity: 0.8; stroke: #800080; stroke-opacity: 0.8"/>
    <path d="M 208.539605 226.131429 
C 208.836345 226.131429 209.120971 226.013533 209.330797 225.803707 
C 209.540624 225.59388 209.658519 225.309254 209.658519 225.012515 
C 209.658519 224.715775 209.540624 224.43115 209.330797 224.221323 
C 209.120971 224.011497 208.836345 223.893601 208.539605 223.893601 
C 208.242866 223.893601 207.95824 224.011497 207.748414 224.221323 
C 207.538587 224.43115 207.420692 224.715775 207.420692 225.012515 
C 207.420692 225.309254 207.538587 225.59388 207.748414 225.803707 
C 207.95824 226.013533 208.242866 226.131429 208.539605 226.131429 
z
" clip-path="url(#p2946831f29)" style="fill: #800080; fill-opacity: 0.8; stroke: #800080; stroke-opacity: 0.8"/>
    <path d="M 215.715249 244.231205 
C 216.001298 244.231205 216.275669 244.117556 216.477937 243.915289 
C 216.680204 243.713022 216.793852 243.43865 216.793852 243.152601 
C 216.793852 242.866552 216.680204 242.59218 216.477937 242.389913 
C 216.275669 242.187646 216.001298 242.073997 215.715249 242.073997 
C 215.4292 242.073997 215.154828 242.187646 214.952561 242.389913 
C 214.750294 242.59218 214.636645 242.866552 214.636645 243.152601 
C 214.636645 243.43865 214.750294 243.713022 214.952561 243.915289 
C 215.154828 244.117556 215.4292 244.231205 215.715249 244.231205 
z
" clip-path="url(#p2946831f29)" style="fill: #800080; fill-opacity: 0.8; stroke: #800080; stroke-opacity: 0.8"/>
    <path d="M 222.890892 246.904574 
C 223.172551 246.904574 223.442712 246.79267 223.641876 246.593507 
C 223.841039 246.394343 223.952943 246.124182 223.952943 245.842523 
C 223.952943 245.560864 223.841039 245.290703 223.641876 245.091539 
C 223.442712 244.892376 223.172551 244.780472 222.890892 244.780472 
C 222.609233 244.780472 222.339072 244.892376 222.139908 245.091539 
C 221.940745 245.290703 221.828841 245.560864 221.828841 245.842523 
C 221.828841 246.124182 221.940745 246.394343 222.139908 246.593507 
C 222.339072 246.79267 222.609233 246.904574 222.890892 246.904574 
z
" clip-path="url(#p2946831f29)" style="fill: #800080; fill-opacity: 0.8; stroke: #800080; stroke-opacity: 0.8"/>
    <path d="M 230.066535 229.493453 
C 230.371557 229.493453 230.664128 229.372266 230.879811 229.156583 
C 231.095494 228.940899 231.216681 228.648329 231.216681 228.343307 
C 231.216681 228.038285 231.095494 227.745715 230.879811 227.530031 
C 230.664128 227.314348 230.371557 227.193162 230.066535 227.193162 
C 229.761513 227.193162 229.468943 227.314348 229.253259 227.530031 
C 229.037576 227.745715 228.91639 228.038285 228.91639 228.343307 
C 228.91639 228.648329 229.037576 228.940899 229.253259 229.156583 
C 229.468943 229.372266 229.761513 229.493453 230.066535 229.493453 
z
" clip-path="url(#p2946831f29)" style="fill: #800080; fill-opacity: 0.8; stroke: #800080; stroke-opacity: 0.8"/>
    <path d="M 237.242178 265.398511 
C 237.549236 265.398511 237.843759 265.276516 238.060882 265.059393 
C 238.278005 264.84227 238.4 264.547747 238.4 264.240689 
C 238.4 263.933631 238.278005 263.639108 238.060882 263.421986 
C 237.843759 263.204863 237.549236 263.082867 237.242178 263.082867 
C 236.93512 263.082867 236.640598 263.204863 236.423475 263.421986 
C 236.206352 263.639108 236.084357 263.933631 236.084357 264.240689 
C 236.084357 264.547747 236.206352 264.84227 236.423475 265.059393 
C 236.640598 265.276516 236.93512 265.398511 237.242178 265.398511 
z
" clip-path="url(#p2946831f29)" style="fill: #800080; fill-opacity: 0.8; stroke: #800080; stroke-opacity: 0.8"/>
    <path d="M 244.417822 237.487763 
C 244.732231 237.487763 245.033806 237.362847 245.256127 237.140525 
C 245.478448 236.918204 245.603364 236.61663 245.603364 236.30222 
C 245.603364 235.98781 245.478448 235.686236 245.256127 235.463915 
C 245.033806 235.241593 244.732231 235.116677 244.417822 235.116677 
C 244.103412 235.116677 243.801837 235.241593 243.579516 235.463915 
C 243.357195 235.686236 243.232279 235.98781 243.232279 236.30222 
C 243.232279 236.61663 243.357195 236.918204 243.579516 237.140525 
C 243.801837 237.362847 244.103412 237.487763 244.417822 237.487763 
z
" clip-path="url(#p2946831f29)" style="fill: #800080; fill-opacity: 0.8; stroke: #800080; stroke-opacity: 0.8"/>
    <path d="M 251.593465 261.099382 
C 251.922085 261.099382 252.23729 260.96882 252.469659 260.73645 
C 252.702029 260.504081 252.832591 260.188876 252.832591 259.860256 
C 252.832591 259.531636 252.702029 259.216431 252.469659 258.984062 
C 252.23729 258.751692 251.922085 258.62113 251.593465 258.62113 
C 251.264845 258.62113 250.94964 258.751692 250.71727 258.984062 
C 250.484901 259.216431 250.354339 259.531636 250.354339 259.860256 
C 250.354339 260.188876 250.484901 260.504081 250.71727 260.73645 
C 250.94964 260.96882 251.264845 261.099382 251.593465 261.099382 
z
" clip-path="url(#p2946831f29)" style="fill: #800080; fill-opacity: 0.8; stroke: #800080; stroke-opacity: 0.8"/>
    <path d="M 258.769108 242.285468 
C 259.111955 242.285468 259.440806 242.149253 259.683236 241.906824 
C 259.925666 241.664394 260.06188 241.335543 260.06188 240.992696 
C 260.06188 240.649849 259.925666 240.320997 259.683236 240.078568 
C 259.440806 239.836138 259.111955 239.699924 258.769108 239.699924 
C 258.426261 239.699924 258.09741 239.836138 257.85498 240.078568 
C 257.612551 240.320997 257.476336 240.649849 257.476336 240.992696 
C 257.476336 241.335543 257.612551 241.664394 257.85498 241.906824 
C 258.09741 242.149253 258.426261 242.285468 258.769108 242.285468 
z
" clip-path="url(#p2946831f29)" style="fill: #800080; fill-opacity: 0.8; stroke: #800080; stroke-opacity: 0.8"/>
    <path d="M 265.944751 259.756161 
C 266.303002 259.756161 266.646627 259.613826 266.899948 259.360505 
C 267.15327 259.107184 267.295604 258.763558 267.295604 258.405308 
C 267.295604 258.047057 267.15327 257.703432 266.899948 257.450111 
C 266.646627 257.196789 266.303002 257.054455 265.944751 257.054455 
C 265.586501 257.054455 265.242875 257.196789 264.989554 257.450111 
C 264.736233 257.703432 264.593899 258.047057 264.593899 258.405308 
C 264.593899 258.763558 264.736233 259.107184 264.989554 259.360505 
C 265.242875 259.613826 265.586501 259.756161 265.944751 259.756161 
z
" clip-path="url(#p2946831f29)" style="fill: #800080; fill-opacity: 0.8; stroke: #800080; stroke-opacity: 0.8"/>
    <path d="M 273.120395 263.772025 
C 273.479802 263.772025 273.824538 263.629231 274.078678 263.375091 
C 274.332818 263.120951 274.475612 262.776216 274.475612 262.416808 
C 274.475612 262.0574 274.332818 261.712664 274.078678 261.458524 
C 273.824538 261.204385 273.479802 261.06159 273.120395 261.06159 
C 272.760987 261.06159 272.416251 261.204385 272.162111 261.458524 
C 271.907971 261.712664 271.765177 262.0574 271.765177 262.416808 
C 271.765177 262.776216 271.907971 263.120951 272.162111 263.375091 
C 272.416251 263.629231 272.760987 263.772025 273.120395 263.772025 
z
" clip-path="url(#p2946831f29)" style="fill: #800080; fill-opacity: 0.8; stroke: #800080; stroke-opacity: 0.8"/>
    <path d="M 280.296038 258.381113 
C 280.677315 258.381113 281.043028 258.22963 281.312632 257.960026 
C 281.582236 257.690422 281.73372 257.324709 281.73372 256.943431 
C 281.73372 256.562154 281.582236 256.196441 281.312632 255.926837 
C 281.043028 255.657233 280.677315 255.505749 280.296038 255.505749 
C 279.91476 255.505749 279.549047 255.657233 279.279443 255.926837 
C 279.009839 256.196441 278.858356 256.562154 278.858356 256.943431 
C 278.858356 257.324709 279.009839 257.690422 279.279443 257.960026 
C 279.549047 258.22963 279.91476 258.381113 280.296038 258.381113 
z
" clip-path="url(#p2946831f29)" style="fill: #800080; fill-opacity: 0.8; stroke: #800080; stroke-opacity: 0.8"/>
    <path d="M 287.471681 255.160514 
C 287.891829 255.160514 288.294824 254.993587 288.591914 254.696498 
C 288.889003 254.399409 289.055929 253.996413 289.055929 253.576265 
C 289.055929 253.156118 288.889003 252.753122 288.591914 252.456033 
C 288.294824 252.158944 287.891829 251.992017 287.471681 251.992017 
C 287.051533 251.992017 286.648537 252.158944 286.351448 252.456033 
C 286.054359 252.753122 285.887433 253.156118 285.887433 253.576265 
C 285.887433 253.996413 286.054359 254.399409 286.351448 254.696498 
C 286.648537 254.993587 287.051533 255.160514 287.471681 255.160514 
z
" clip-path="url(#p2946831f29)" style="fill: #800080; fill-opacity: 0.8; stroke: #800080; stroke-opacity: 0.8"/>
    <path d="M 294.647324 241.46017 
C 295.108924 241.46017 295.551681 241.276774 295.878082 240.950374 
C 296.204482 240.623973 296.387878 240.181216 296.387878 239.719616 
C 296.387878 239.258016 296.204482 238.815259 295.878082 238.488859 
C 295.551681 238.162458 295.108924 237.979062 294.647324 237.979062 
C 294.185724 237.979062 293.742967 238.162458 293.416567 238.488859 
C 293.090166 238.815259 292.90677 239.258016 292.90677 239.719616 
C 292.90677 240.181216 293.090166 240.623973 293.416567 240.950374 
C 293.742967 241.276774 294.185724 241.46017 294.647324 241.46017 
z
" clip-path="url(#p2946831f29)" style="fill: #800080; fill-opacity: 0.8; stroke: #800080; stroke-opacity: 0.8"/>
    <path d="M 301.822967 249.192436 
C 302.304388 249.192436 302.766155 249.001166 303.106571 248.66075 
C 303.446986 248.320335 303.638257 247.858567 303.638257 247.377147 
C 303.638257 246.895727 303.446986 246.433959 303.106571 246.093544 
C 302.766155 245.753128 302.304388 245.561858 301.822967 245.561858 
C 301.341547 245.561858 300.87978 245.753128 300.539364 246.093544 
C 300.198948 246.433959 300.007678 246.895727 300.007678 247.377147 
C 300.007678 247.858567 300.198948 248.320335 300.539364 248.66075 
C 300.87978 249.001166 301.341547 249.192436 301.822967 249.192436 
z
" clip-path="url(#p2946831f29)" style="fill: #800080; fill-opacity: 0.8; stroke: #800080; stroke-opacity: 0.8"/>
    <path d="M 308.998611 249.562949 
C 309.472641 249.562949 309.92732 249.374615 310.26251 249.039425 
C 310.5977 248.704235 310.786034 248.249556 310.786034 247.775526 
C 310.786034 247.301495 310.5977 246.846816 310.26251 246.511627 
C 309.92732 246.176437 309.472641 245.988102 308.998611 245.988102 
C 308.52458 245.988102 308.069901 246.176437 307.734712 246.511627 
C 307.399522 246.846816 307.211187 247.301495 307.211187 247.775526 
C 307.211187 248.249556 307.399522 248.704235 307.734712 249.039425 
C 308.069901 249.374615 308.52458 249.562949 308.998611 249.562949 
z
" clip-path="url(#p2946831f29)" style="fill: #800080; fill-opacity: 0.8; stroke: #800080; stroke-opacity: 0.8"/>
    <path d="M 316.174254 242.901622 
C 316.655243 242.901622 317.116596 242.710523 317.456707 242.370413 
C 317.796817 242.030303 317.987916 241.568949 317.987916 241.08796 
C 317.987916 240.606971 317.796817 240.145618 317.456707 239.805508 
C 317.116596 239.465397 316.655243 239.274298 316.174254 239.274298 
C 315.693265 239.274298 315.231912 239.465397 314.891801 239.805508 
C 314.551691 240.145618 314.360592 240.606971 314.360592 241.08796 
C 314.360592 241.568949 314.551691 242.030303 314.891801 242.370413 
C 315.231912 242.710523 315.693265 242.901622 316.174254 242.901622 
z
" clip-path="url(#p2946831f29)" style="fill: #800080; fill-opacity: 0.8; stroke: #800080; stroke-opacity: 0.8"/>
    <path d="M 323.349897 216.871712 
C 323.852424 216.871712 324.334436 216.672056 324.689776 216.316716 
C 325.045116 215.961376 325.244772 215.479363 325.244772 214.976837 
C 325.244772 214.47431 325.045116 213.992298 324.689776 213.636958 
C 324.334436 213.281618 323.852424 213.081962 323.349897 213.081962 
C 322.84737 213.081962 322.365358 213.281618 322.010018 213.636958 
C 321.654678 213.992298 321.455022 214.47431 321.455022 214.976837 
C 321.455022 215.479363 321.654678 215.961376 322.010018 216.316716 
C 322.365358 216.672056 322.84737 216.871712 323.349897 216.871712 
z
" clip-path="url(#p2946831f29)" style="fill: #800080; fill-opacity: 0.8; stroke: #800080; stroke-opacity: 0.8"/>
    <path d="M 330.52554 214.300788 
C 331.055032 214.300788 331.562909 214.090418 331.937316 213.716011 
C 332.311723 213.341604 332.522092 212.833727 332.522092 212.304235 
C 332.522092 211.774744 332.311723 211.266867 331.937316 210.89246 
C 331.562909 210.518053 331.055032 210.307683 330.52554 210.307683 
C 329.996048 210.307683 329.488172 210.518053 329.113765 210.89246 
C 328.739357 211.266867 328.528988 211.774744 328.528988 212.304235 
C 328.528988 212.833727 328.739357 213.341604 329.113765 213.716011 
C 329.488172 214.090418 329.996048 214.300788 330.52554 214.300788 
z
" clip-path="url(#p2946831f29)" style="fill: #800080; fill-opacity: 0.8; stroke: #800080; stroke-opacity: 0.8"/>
    <path d="M 337.701184 195.888376 
C 338.254459 195.888376 338.785147 195.668557 339.176372 195.277333 
C 339.567597 194.886108 339.787415 194.355419 339.787415 193.802144 
C 339.787415 193.248869 339.567597 192.71818 339.176372 192.326956 
C 338.785147 191.935731 338.254459 191.715913 337.701184 191.715913 
C 337.147908 191.715913 336.61722 191.935731 336.225995 192.326956 
C 335.83477 192.71818 335.614952 193.248869 335.614952 193.802144 
C 335.614952 194.355419 335.83477 194.886108 336.225995 195.277333 
C 336.61722 195.668557 337.147908 195.888376 337.701184 195.888376 
z
" clip-path="url(#p2946831f29)" style="fill: #800080; fill-opacity: 0.8; stroke: #800080; stroke-opacity: 0.8"/>
    <path d="M 344.876827 195.893337 
C 345.44382 195.893337 345.987667 195.668068 346.388592 195.267143 
C 346.789516 194.866218 347.014785 194.322371 347.014785 193.755378 
C 347.014785 193.188385 346.789516 192.644538 346.388592 192.243613 
C 345.987667 191.842689 345.44382 191.61742 344.876827 191.61742 
C 344.309834 191.61742 343.765987 191.842689 343.365062 192.243613 
C 342.964137 192.644538 342.738868 193.188385 342.738868 193.755378 
C 342.738868 194.322371 342.964137 194.866218 343.365062 195.267143 
C 343.765987 195.668068 344.309834 195.893337 344.876827 195.893337 
z
" clip-path="url(#p2946831f29)" style="fill: #800080; fill-opacity: 0.8; stroke: #800080; stroke-opacity: 0.8"/>
    <path d="M 352.05247 197.028388 
C 352.653598 197.028388 353.230186 196.789557 353.655248 196.364495 
C 354.08031 195.939434 354.319141 195.362845 354.319141 194.761717 
C 354.319141 194.160589 354.08031 193.584001 353.655248 193.158939 
C 353.230186 192.733878 352.653598 192.495047 352.05247 192.495047 
C 351.451342 192.495047 350.874754 192.733878 350.449692 193.158939 
C 350.02463 193.584001 349.785799 194.160589 349.785799 194.761717 
C 349.785799 195.362845 350.02463 195.939434 350.449692 196.364495 
C 350.874754 196.789557 351.451342 197.028388 352.05247 197.028388 
z
" clip-path="url(#p2946831f29)" style="fill: #800080; fill-opacity: 0.8; stroke: #800080; stroke-opacity: 0.8"/>
    <path d="M 359.228113 191.775123 
C 359.846274 191.775123 360.439199 191.529525 360.876305 191.09242 
C 361.31341 190.655314 361.559008 190.062389 361.559008 189.444228 
C 361.559008 188.826068 361.31341 188.233142 360.876305 187.796037 
C 360.439199 187.358931 359.846274 187.113333 359.228113 187.113333 
C 358.609953 187.113333 358.017027 187.358931 357.579922 187.796037 
C 357.142816 188.233142 356.897218 188.826068 356.897218 189.444228 
C 356.897218 190.062389 357.142816 190.655314 357.579922 191.09242 
C 358.017027 191.529525 358.609953 191.775123 359.228113 191.775123 
z
" clip-path="url(#p2946831f29)" style="fill: #800080; fill-opacity: 0.8; stroke: #800080; stroke-opacity: 0.8"/>
    <path d="M 366.403756 189.949804 
C 367.068849 189.949804 367.706791 189.68556 368.177082 189.215268 
C 368.647374 188.744977 368.911618 188.107035 368.911618 187.441942 
C 368.911618 186.77685 368.647374 186.138908 368.177082 185.668616 
C 367.706791 185.198325 367.068849 184.934081 366.403756 184.934081 
C 365.738664 184.934081 365.100722 185.198325 364.63043 185.668616 
C 364.160139 186.138908 363.895895 186.77685 363.895895 187.441942 
C 363.895895 188.107035 364.160139 188.744977 364.63043 189.215268 
C 365.100722 189.68556 365.738664 189.949804 366.403756 189.949804 
z
" clip-path="url(#p2946831f29)" style="fill: #800080; fill-opacity: 0.8; stroke: #800080; stroke-opacity: 0.8"/>
    <path d="M 373.5794 175.025484 
C 374.292996 175.025484 374.977461 174.74197 375.48205 174.237381 
C 375.986639 173.732792 376.270154 173.048327 376.270154 172.33473 
C 376.270154 171.621134 375.986639 170.936669 375.48205 170.43208 
C 374.977461 169.927491 374.292996 169.643976 373.5794 169.643976 
C 372.865803 169.643976 372.181338 169.927491 371.676749 170.43208 
C 371.17216 170.936669 370.888646 171.621134 370.888646 172.33473 
C 370.888646 173.048327 371.17216 173.732792 371.676749 174.237381 
C 372.181338 174.74197 372.865803 175.025484 373.5794 175.025484 
z
" clip-path="url(#p2946831f29)" style="fill: #800080; fill-opacity: 0.8; stroke: #800080; stroke-opacity: 0.8"/>
    <path d="M 380.755043 164.812886 
C 381.51405 164.812886 382.242071 164.51133 382.77877 163.974631 
C 383.315469 163.437932 383.617026 162.70991 383.617026 161.950904 
C 383.617026 161.191897 383.315469 160.463875 382.77877 159.927176 
C 382.242071 159.390478 381.51405 159.088921 380.755043 159.088921 
C 379.996036 159.088921 379.268014 159.390478 378.731316 159.927176 
C 378.194617 160.463875 377.89306 161.191897 377.89306 161.950904 
C 377.89306 162.70991 378.194617 163.437932 378.731316 163.974631 
C 379.268014 164.51133 379.996036 164.812886 380.755043 164.812886 
z
" clip-path="url(#p2946831f29)" style="fill: #800080; fill-opacity: 0.8; stroke: #800080; stroke-opacity: 0.8"/>
    <path d="M 387.930686 147.465684 
C 388.708877 147.465684 389.4553 147.156505 390.005564 146.606241 
C 390.555828 146.055977 390.865007 145.309554 390.865007 144.531363 
C 390.865007 143.753173 390.555828 143.00675 390.005564 142.456486 
C 389.4553 141.906222 388.708877 141.597043 387.930686 141.597043 
C 387.152495 141.597043 386.406072 141.906222 385.855808 142.456486 
C 385.305544 143.00675 384.996366 143.753173 384.996366 144.531363 
C 384.996366 145.309554 385.305544 146.055977 385.855808 146.606241 
C 386.406072 147.156505 387.152495 147.465684 387.930686 147.465684 
z
" clip-path="url(#p2946831f29)" style="fill: #800080; fill-opacity: 0.8; stroke: #800080; stroke-opacity: 0.8"/>
    <path d="M 395.106329 133.071238 
C 395.894859 133.071238 396.6512 132.757951 397.208774 132.200376 
C 397.766349 131.642801 398.079636 130.886461 398.079636 130.097931 
C 398.079636 129.309401 397.766349 128.553061 397.208774 127.995486 
C 396.6512 127.437911 395.894859 127.124625 395.106329 127.124625 
C 394.317799 127.124625 393.561459 127.437911 393.003884 127.995486 
C 392.446309 128.553061 392.133023 129.309401 392.133023 130.097931 
C 392.133023 130.886461 392.446309 131.642801 393.003884 132.200376 
C 393.561459 132.757951 394.317799 133.071238 395.106329 133.071238 
z
" clip-path="url(#p2946831f29)" style="fill: #800080; fill-opacity: 0.8; stroke: #800080; stroke-opacity: 0.8"/>
    <path d="M 402.281973 118.778816 
C 403.077582 118.778816 403.840712 118.462717 404.403293 117.900136 
C 404.965874 117.337556 405.281973 116.574425 405.281973 115.778816 
C 405.281973 114.983207 404.965874 114.220076 404.403293 113.657496 
C 403.840712 113.094915 403.077582 112.778816 402.281973 112.778816 
C 401.486363 112.778816 400.723233 113.094915 400.160652 113.657496 
C 399.598071 114.220076 399.281973 114.983207 399.281973 115.778816 
C 399.281973 116.574425 399.598071 117.337556 400.160652 117.900136 
C 400.723233 118.462717 401.486363 118.778816 402.281973 118.778816 
z
" clip-path="url(#p2946831f29)" style="fill: #800080; fill-opacity: 0.8; stroke: #800080; stroke-opacity: 0.8"/>
    <path d="M 409.457616 101.055454 
C 410.178163 101.055454 410.869295 100.769178 411.378799 100.259674 
C 411.888303 99.75017 412.174579 99.059038 412.174579 98.338491 
C 412.174579 97.617944 411.888303 96.926811 411.378799 96.417308 
C 410.869295 95.907804 410.178163 95.621527 409.457616 95.621527 
C 408.737069 95.621527 408.045936 95.907804 407.536433 96.417308 
C 407.026929 96.926811 406.740652 97.617944 406.740652 98.338491 
C 406.740652 99.059038 407.026929 99.75017 407.536433 100.259674 
C 408.045936 100.769178 408.737069 101.055454 409.457616 101.055454 
z
" clip-path="url(#p2946831f29)" style="fill: #800080; fill-opacity: 0.8; stroke: #800080; stroke-opacity: 0.8"/>
    <path d="M 416.633259 89.845756 
C 417.34976 89.845756 418.037011 89.561087 418.543653 89.054444 
C 419.050296 88.547802 419.334965 87.860551 419.334965 87.14405 
C 419.334965 86.42755 419.050296 85.740298 418.543653 85.233656 
C 418.037011 84.727013 417.34976 84.442345 416.633259 84.442345 
C 415.916758 84.442345 415.229507 84.727013 414.722865 85.233656 
C 414.216222 85.740298 413.931554 86.42755 413.931554 87.14405 
C 413.931554 87.860551 414.216222 88.547802 414.722865 89.054444 
C 415.229507 89.561087 415.916758 89.845756 416.633259 89.845756 
z
" clip-path="url(#p2946831f29)" style="fill: #800080; fill-opacity: 0.8; stroke: #800080; stroke-opacity: 0.8"/>
    <path d="M 423.808902 71.140596 
C 424.538614 71.140596 425.238537 70.850678 425.754521 70.334694 
C 426.270505 69.81871 426.560423 69.118787 426.560423 68.389075 
C 426.560423 67.659363 426.270505 66.959441 425.754521 66.443456 
C 425.238537 65.927472 424.538614 65.637555 423.808902 65.637555 
C 423.07919 65.637555 422.379267 65.927472 421.863283 66.443456 
C 421.347299 66.959441 421.057382 67.659363 421.057382 68.389075 
C 421.057382 69.118787 421.347299 69.81871 421.863283 70.334694 
C 422.379267 70.850678 423.07919 71.140596 423.808902 71.140596 
z
" clip-path="url(#p2946831f29)" style="fill: #800080; fill-opacity: 0.8; stroke: #800080; stroke-opacity: 0.8"/>
    <path d="M 430.984545 41.364692 
C 431.67024 41.364692 432.327942 41.092263 432.812801 40.607404 
C 433.297661 40.122545 433.57009 39.464842 433.57009 38.779148 
C 433.57009 38.093453 433.297661 37.435751 432.812801 36.950892 
C 432.327942 36.466033 431.67024 36.193603 430.984545 36.193603 
C 430.298851 36.193603 429.641149 36.466033 429.15629 36.950892 
C 428.67143 37.435751 428.399001 38.093453 428.399001 38.779148 
C 428.399001 39.464842 428.67143 40.122545 429.15629 40.607404 
C 429.641149 41.092263 430.298851 41.364692 430.984545 41.364692 
z
" clip-path="url(#p2946831f29)" style="fill: #800080; fill-opacity: 0.8; stroke: #800080; stroke-opacity: 0.8"/>
   </g>
   <g id="PolyCollection_1">
    <defs>
     <path id="m8d57dc60e4" d="M 50.675455 -84.086564 
L 50.675455 -41.162898 
L 54.516961 -42.898435 
L 58.358466 -44.636505 
L 62.199972 -46.374575 
L 66.041478 -48.112645 
L 69.882984 -49.850714 
L 73.72449 -51.588784 
L 77.565996 -53.326854 
L 81.407502 -55.064924 
L 85.249008 -56.83849 
L 89.090514 -58.633428 
L 92.93202 -60.428366 
L 96.773526 -62.223304 
L 100.615032 -63.911474 
L 104.456538 -65.484167 
L 108.298044 -67.215196 
L 112.13955 -68.7848 
L 115.981056 -70.395934 
L 119.822562 -71.982569 
L 123.664068 -73.57409 
L 127.505574 -75.167529 
L 131.34708 -76.821776 
L 135.188586 -78.524543 
L 139.030092 -80.024818 
L 142.871598 -81.528521 
L 146.713104 -83.116425 
L 150.55461 -84.66024 
L 154.396116 -86.296707 
L 158.237622 -88.073256 
L 162.079128 -89.475901 
L 165.920634 -91.130067 
L 169.76214 -92.656635 
L 173.603646 -94.242629 
L 177.445152 -95.828622 
L 181.286657 -97.403979 
L 185.128163 -98.794701 
L 188.969669 -100.39225 
L 192.811175 -101.877548 
L 196.652681 -103.290291 
L 200.494187 -104.566608 
L 204.335693 -106.13518 
L 208.177199 -107.287642 
L 212.018705 -108.655167 
L 215.860211 -109.985037 
L 219.701717 -111.461364 
L 223.543223 -112.463771 
L 227.384729 -113.600335 
L 231.226235 -114.668051 
L 235.067741 -115.801671 
L 238.909247 -117.107679 
L 242.750753 -118.203007 
L 246.592259 -119.236566 
L 250.433765 -120.225343 
L 254.275271 -121.059196 
L 258.116777 -121.828129 
L 261.958283 -122.680337 
L 265.799789 -123.540388 
L 269.641295 -124.422044 
L 273.482801 -125.24217 
L 277.324307 -126.068268 
L 281.165813 -126.99965 
L 285.007319 -127.945367 
L 288.848825 -128.802838 
L 292.690331 -129.66031 
L 296.531837 -130.517781 
L 300.373343 -131.259847 
L 304.214848 -132.027693 
L 308.056354 -133.010653 
L 311.89786 -133.947666 
L 315.739366 -134.805137 
L 319.580872 -135.591481 
L 323.422378 -136.349437 
L 327.263884 -137.007975 
L 331.10539 -137.715718 
L 334.946896 -138.599173 
L 338.788402 -139.381257 
L 342.629908 -140.139212 
L 346.471414 -140.931618 
L 350.31292 -141.755618 
L 354.154426 -142.579618 
L 357.995932 -143.387178 
L 361.837438 -144.144399 
L 365.678944 -145.052054 
L 369.52045 -145.868315 
L 373.361956 -146.641349 
L 377.203462 -147.413706 
L 381.044968 -148.182178 
L 384.886474 -148.95065 
L 388.72798 -149.719122 
L 392.569486 -150.487595 
L 396.410992 -151.256067 
L 400.252498 -152.024539 
L 404.094004 -152.793011 
L 407.93551 -153.561483 
L 411.777016 -154.329955 
L 415.618522 -155.098427 
L 419.460028 -155.866899 
L 423.301534 -156.635372 
L 427.143039 -157.403844 
L 430.984545 -158.144957 
L 430.984545 -218.750099 
L 430.984545 -218.750099 
L 427.143039 -217.074506 
L 423.301534 -215.474568 
L 419.460028 -213.795771 
L 415.618522 -212.142722 
L 411.777016 -210.500182 
L 407.93551 -208.833275 
L 404.094004 -207.156101 
L 400.252498 -205.437079 
L 396.410992 -203.589126 
L 392.569486 -201.854269 
L 388.72798 -200.149822 
L 384.886474 -198.584122 
L 381.044968 -197.087532 
L 377.203462 -195.411598 
L 373.361956 -193.731346 
L 369.52045 -192.051896 
L 365.678944 -190.380005 
L 361.837438 -188.707187 
L 357.995932 -187.026266 
L 354.154426 -185.342436 
L 350.31292 -183.662263 
L 346.471414 -181.990368 
L 342.629908 -180.335947 
L 338.788402 -178.700291 
L 334.946896 -176.961167 
L 331.10539 -175.271027 
L 327.263884 -173.753639 
L 323.422378 -172.247146 
L 319.580872 -170.733886 
L 315.739366 -169.160915 
L 311.89786 -167.486888 
L 308.056354 -165.84825 
L 304.214848 -164.348962 
L 300.373343 -162.752317 
L 296.531837 -161.089499 
L 292.690331 -159.45428 
L 288.848825 -157.933266 
L 285.007319 -156.331207 
L 281.165813 -154.69647 
L 277.324307 -153.059541 
L 273.482801 -151.504697 
L 269.641295 -149.983116 
L 265.799789 -148.69842 
L 261.958283 -147.152675 
L 258.116777 -145.688976 
L 254.275271 -144.309403 
L 250.433765 -142.924533 
L 246.592259 -141.393782 
L 242.750753 -139.771042 
L 238.909247 -138.201731 
L 235.067741 -136.713662 
L 231.226235 -135.594866 
L 227.384729 -134.201239 
L 223.543223 -132.897051 
L 219.701717 -131.47858 
L 215.860211 -130.186094 
L 212.018705 -128.928292 
L 208.177199 -127.544815 
L 204.335693 -126.14156 
L 200.494187 -124.803807 
L 196.652681 -123.523774 
L 192.811175 -122.218851 
L 188.969669 -120.913586 
L 185.128163 -119.515872 
L 181.286657 -118.377276 
L 177.445152 -117.173438 
L 173.603646 -116.02377 
L 169.76214 -114.829007 
L 165.920634 -113.568213 
L 162.079128 -112.250475 
L 158.237622 -111.052262 
L 154.396116 -110.040364 
L 150.55461 -108.816428 
L 146.713104 -107.556646 
L 142.871598 -106.422411 
L 139.030092 -105.288312 
L 135.188586 -104.2527 
L 131.34708 -103.107913 
L 127.505574 -101.970918 
L 123.664068 -101.093996 
L 119.822562 -100.050686 
L 115.981056 -99.071612 
L 112.13955 -98.085488 
L 108.298044 -97.075749 
L 104.456538 -96.251441 
L 100.615032 -95.347239 
L 96.773526 -94.499215 
L 92.93202 -93.556155 
L 89.090514 -92.76834 
L 85.249008 -91.822272 
L 81.407502 -90.897863 
L 77.565996 -90.08625 
L 73.72449 -89.161979 
L 69.882984 -88.453228 
L 66.041478 -87.487897 
L 62.199972 -86.641624 
L 58.358466 -85.834576 
L 54.516961 -84.956645 
L 50.675455 -84.086564 
z
" style="stroke: #ffffff; stroke-opacity: 0.15"/>
    </defs>
    <g clip-path="url(#p2946831f29)">
     <use xlink:href="#m8d57dc60e4" x="0" y="345.6" style="fill: #800080; fill-opacity: 0.15; stroke: #ffffff; stroke-opacity: 0.15"/>
    </g>
   </g>
   <g id="line2d_1">
    <path d="M 50.675455 279.770197 
L 54.516961 278.506019 
L 58.358466 277.241842 
L 62.199972 275.977665 
L 66.041478 274.713487 
L 69.882984 273.44931 
L 73.72449 272.185133 
L 77.565996 270.920955 
L 81.407502 269.656778 
L 85.249008 268.392601 
L 89.090514 267.128423 
L 92.93202 265.864246 
L 96.773526 264.600069 
L 100.615032 263.335891 
L 104.456538 262.071714 
L 108.298044 260.807537 
L 112.13955 259.543359 
L 115.981056 258.279182 
L 119.822562 257.015005 
L 123.664068 255.750828 
L 127.505574 254.48665 
L 131.34708 253.222473 
L 135.188586 251.958296 
L 139.030092 250.694118 
L 142.871598 249.429941 
L 146.713104 248.165764 
L 150.55461 246.901586 
L 154.396116 245.637409 
L 158.237622 244.373232 
L 162.079128 243.109054 
L 165.920634 241.844877 
L 169.76214 240.5807 
L 173.603646 239.316522 
L 177.445152 238.052345 
L 181.286657 236.788168 
L 185.128163 235.52399 
L 188.969669 234.259813 
L 192.811175 232.995636 
L 196.652681 231.731459 
L 200.494187 230.467281 
L 204.335693 229.203104 
L 208.177199 227.938927 
L 212.018705 226.674749 
L 215.860211 225.410572 
L 219.701717 224.146395 
L 223.543223 222.882217 
L 227.384729 221.61804 
L 231.226235 220.353863 
L 235.067741 219.089685 
L 238.909247 217.825508 
L 242.750753 216.561331 
L 246.592259 215.297153 
L 250.433765 214.032976 
L 254.275271 212.768799 
L 258.116777 211.504621 
L 261.958283 210.240444 
L 265.799789 208.976267 
L 269.641295 207.71209 
L 273.482801 206.447912 
L 277.324307 205.183735 
L 281.165813 203.919558 
L 285.007319 202.65538 
L 288.848825 201.391203 
L 292.690331 200.127026 
L 296.531837 198.862848 
L 300.373343 197.598671 
L 304.214848 196.334494 
L 308.056354 195.070316 
L 311.89786 193.806139 
L 315.739366 192.541962 
L 319.580872 191.277784 
L 323.422378 190.013607 
L 327.263884 188.74943 
L 331.10539 187.485252 
L 334.946896 186.221075 
L 338.788402 184.956898 
L 342.629908 183.692721 
L 346.471414 182.428543 
L 350.31292 181.164366 
L 354.154426 179.900189 
L 357.995932 178.636011 
L 361.837438 177.371834 
L 365.678944 176.107657 
L 369.52045 174.843479 
L 373.361956 173.579302 
L 377.203462 172.315125 
L 381.044968 171.050947 
L 384.886474 169.78677 
L 388.72798 168.522593 
L 392.569486 167.258415 
L 396.410992 165.994238 
L 400.252498 164.730061 
L 404.094004 163.465883 
L 407.93551 162.201706 
L 411.777016 160.937529 
L 415.618522 159.673352 
L 419.460028 158.409174 
L 423.301534 157.144997 
L 427.143039 155.88082 
L 430.984545 154.616642 
" clip-path="url(#p2946831f29)" style="fill: none; stroke: #800080; stroke-width: 2.25; stroke-linecap: round"/>
   </g>
   <g id="patch_3">
    <path d="M 31.66 317.72 
L 31.66 25.49625 
" style="fill: none; stroke: #ffffff; stroke-width: 0.8; stroke-linejoin: miter; stroke-linecap: square"/>
   </g>
   <g id="patch_4">
    <path d="M 450 317.72 
L 450 25.49625 
" style="fill: none; stroke: #ffffff; stroke-width: 0.8; stroke-linejoin: miter; stroke-linecap: square"/>
   </g>
   <g id="patch_5">
    <path d="M 31.66 317.72 
L 450 317.72 
" style="fill: none; stroke: #ffffff; stroke-width: 0.8; stroke-linejoin: miter; stroke-linecap: square"/>
   </g>
   <g id="patch_6">
    <path d="M 31.66 25.49625 
L 450 25.49625 
" style="fill: none; stroke: #ffffff; stroke-width: 0.8; stroke-linejoin: miter; stroke-linecap: square"/>
   </g>
   <g id="text_15">
    <!-- Yearly average ratings from ranked games -->
    <g style="fill: #262626" transform="translate(127.998125 19.49625) scale(0.12 -0.12)">
     <defs>
      <path id="ArialMT-59" d="M 1784 0 
L 1784 1941 
L 19 4581 
L 756 4581 
L 1659 3200 
Q 1909 2813 2125 2425 
Q 2331 2784 2625 3234 
L 3513 4581 
L 4219 4581 
L 2391 1941 
L 2391 0 
L 1784 0 
z
" transform="scale(0.015625)"/>
      <path id="ArialMT-65" d="M 2694 1069 
L 3275 997 
Q 3138 488 2766 206 
Q 2394 -75 1816 -75 
Q 1088 -75 661 373 
Q 234 822 234 1631 
Q 234 2469 665 2931 
Q 1097 3394 1784 3394 
Q 2450 3394 2872 2941 
Q 3294 2488 3294 1666 
Q 3294 1616 3291 1516 
L 816 1516 
Q 847 969 1125 678 
Q 1403 388 1819 388 
Q 2128 388 2347 550 
Q 2566 713 2694 1069 
z
M 847 1978 
L 2700 1978 
Q 2663 2397 2488 2606 
Q 2219 2931 1791 2931 
Q 1403 2931 1139 2672 
Q 875 2413 847 1978 
z
" transform="scale(0.015625)"/>
      <path id="ArialMT-61" d="M 2588 409 
Q 2275 144 1986 34 
Q 1697 -75 1366 -75 
Q 819 -75 525 192 
Q 231 459 231 875 
Q 231 1119 342 1320 
Q 453 1522 633 1644 
Q 813 1766 1038 1828 
Q 1203 1872 1538 1913 
Q 2219 1994 2541 2106 
Q 2544 2222 2544 2253 
Q 2544 2597 2384 2738 
Q 2169 2928 1744 2928 
Q 1347 2928 1158 2789 
Q 969 2650 878 2297 
L 328 2372 
Q 403 2725 575 2942 
Q 747 3159 1072 3276 
Q 1397 3394 1825 3394 
Q 2250 3394 2515 3294 
Q 2781 3194 2906 3042 
Q 3031 2891 3081 2659 
Q 3109 2516 3109 2141 
L 3109 1391 
Q 3109 606 3145 398 
Q 3181 191 3288 0 
L 2700 0 
Q 2613 175 2588 409 
z
M 2541 1666 
Q 2234 1541 1622 1453 
Q 1275 1403 1131 1340 
Q 988 1278 909 1158 
Q 831 1038 831 891 
Q 831 666 1001 516 
Q 1172 366 1500 366 
Q 1825 366 2078 508 
Q 2331 650 2450 897 
Q 2541 1088 2541 1459 
L 2541 1666 
z
" transform="scale(0.015625)"/>
      <path id="ArialMT-72" d="M 416 0 
L 416 3319 
L 922 3319 
L 922 2816 
Q 1116 3169 1280 3281 
Q 1444 3394 1641 3394 
Q 1925 3394 2219 3213 
L 2025 2691 
Q 1819 2813 1613 2813 
Q 1428 2813 1281 2702 
Q 1134 2591 1072 2394 
Q 978 2094 978 1738 
L 978 0 
L 416 0 
z
" transform="scale(0.015625)"/>
      <path id="ArialMT-6c" d="M 409 0 
L 409 4581 
L 972 4581 
L 972 0 
L 409 0 
z
" transform="scale(0.015625)"/>
      <path id="ArialMT-79" d="M 397 -1278 
L 334 -750 
Q 519 -800 656 -800 
Q 844 -800 956 -737 
Q 1069 -675 1141 -563 
Q 1194 -478 1313 -144 
Q 1328 -97 1363 -6 
L 103 3319 
L 709 3319 
L 1400 1397 
Q 1534 1031 1641 628 
Q 1738 1016 1872 1384 
L 2581 3319 
L 3144 3319 
L 1881 -56 
Q 1678 -603 1566 -809 
Q 1416 -1088 1222 -1217 
Q 1028 -1347 759 -1347 
Q 597 -1347 397 -1278 
z
" transform="scale(0.015625)"/>
      <path id="ArialMT-20" transform="scale(0.015625)"/>
      <path id="ArialMT-76" d="M 1344 0 
L 81 3319 
L 675 3319 
L 1388 1331 
Q 1503 1009 1600 663 
Q 1675 925 1809 1294 
L 2547 3319 
L 3125 3319 
L 1869 0 
L 1344 0 
z
" transform="scale(0.015625)"/>
      <path id="ArialMT-67" d="M 319 -275 
L 866 -356 
Q 900 -609 1056 -725 
Q 1266 -881 1628 -881 
Q 2019 -881 2231 -725 
Q 2444 -569 2519 -288 
Q 2563 -116 2559 434 
Q 2191 0 1641 0 
Q 956 0 581 494 
Q 206 988 206 1678 
Q 206 2153 378 2554 
Q 550 2956 876 3175 
Q 1203 3394 1644 3394 
Q 2231 3394 2613 2919 
L 2613 3319 
L 3131 3319 
L 3131 450 
Q 3131 -325 2973 -648 
Q 2816 -972 2473 -1159 
Q 2131 -1347 1631 -1347 
Q 1038 -1347 672 -1080 
Q 306 -813 319 -275 
z
M 784 1719 
Q 784 1066 1043 766 
Q 1303 466 1694 466 
Q 2081 466 2343 764 
Q 2606 1063 2606 1700 
Q 2606 2309 2336 2618 
Q 2066 2928 1684 2928 
Q 1309 2928 1046 2623 
Q 784 2319 784 1719 
z
" transform="scale(0.015625)"/>
      <path id="ArialMT-74" d="M 1650 503 
L 1731 6 
Q 1494 -44 1306 -44 
Q 1000 -44 831 53 
Q 663 150 594 308 
Q 525 466 525 972 
L 525 2881 
L 113 2881 
L 113 3319 
L 525 3319 
L 525 4141 
L 1084 4478 
L 1084 3319 
L 1650 3319 
L 1650 2881 
L 1084 2881 
L 1084 941 
Q 1084 700 1114 631 
Q 1144 563 1211 522 
Q 1278 481 1403 481 
Q 1497 481 1650 503 
z
" transform="scale(0.015625)"/>
      <path id="ArialMT-69" d="M 425 3934 
L 425 4581 
L 988 4581 
L 988 3934 
L 425 3934 
z
M 425 0 
L 425 3319 
L 988 3319 
L 988 0 
L 425 0 
z
" transform="scale(0.015625)"/>
      <path id="ArialMT-6e" d="M 422 0 
L 422 3319 
L 928 3319 
L 928 2847 
Q 1294 3394 1984 3394 
Q 2284 3394 2536 3286 
Q 2788 3178 2913 3003 
Q 3038 2828 3088 2588 
Q 3119 2431 3119 2041 
L 3119 0 
L 2556 0 
L 2556 2019 
Q 2556 2363 2490 2533 
Q 2425 2703 2258 2804 
Q 2091 2906 1866 2906 
Q 1506 2906 1245 2678 
Q 984 2450 984 1813 
L 984 0 
L 422 0 
z
" transform="scale(0.015625)"/>
      <path id="ArialMT-73" d="M 197 991 
L 753 1078 
Q 800 744 1014 566 
Q 1228 388 1613 388 
Q 2000 388 2187 545 
Q 2375 703 2375 916 
Q 2375 1106 2209 1216 
Q 2094 1291 1634 1406 
Q 1016 1563 777 1677 
Q 538 1791 414 1992 
Q 291 2194 291 2438 
Q 291 2659 392 2848 
Q 494 3038 669 3163 
Q 800 3259 1026 3326 
Q 1253 3394 1513 3394 
Q 1903 3394 2198 3281 
Q 2494 3169 2634 2976 
Q 2775 2784 2828 2463 
L 2278 2388 
Q 2241 2644 2061 2787 
Q 1881 2931 1553 2931 
Q 1166 2931 1000 2803 
Q 834 2675 834 2503 
Q 834 2394 903 2306 
Q 972 2216 1119 2156 
Q 1203 2125 1616 2013 
Q 2213 1853 2448 1751 
Q 2684 1650 2818 1456 
Q 2953 1263 2953 975 
Q 2953 694 2789 445 
Q 2625 197 2315 61 
Q 2006 -75 1616 -75 
Q 969 -75 630 194 
Q 291 463 197 991 
z
" transform="scale(0.015625)"/>
      <path id="ArialMT-66" d="M 556 0 
L 556 2881 
L 59 2881 
L 59 3319 
L 556 3319 
L 556 3672 
Q 556 4006 616 4169 
Q 697 4388 901 4523 
Q 1106 4659 1475 4659 
Q 1713 4659 2000 4603 
L 1916 4113 
Q 1741 4144 1584 4144 
Q 1328 4144 1222 4034 
Q 1116 3925 1116 3625 
L 1116 3319 
L 1763 3319 
L 1763 2881 
L 1116 2881 
L 1116 0 
L 556 0 
z
" transform="scale(0.015625)"/>
      <path id="ArialMT-6f" d="M 213 1659 
Q 213 2581 725 3025 
Q 1153 3394 1769 3394 
Q 2453 3394 2887 2945 
Q 3322 2497 3322 1706 
Q 3322 1066 3130 698 
Q 2938 331 2570 128 
Q 2203 -75 1769 -75 
Q 1072 -75 642 372 
Q 213 819 213 1659 
z
M 791 1659 
Q 791 1022 1069 705 
Q 1347 388 1769 388 
Q 2188 388 2466 706 
Q 2744 1025 2744 1678 
Q 2744 2294 2464 2611 
Q 2184 2928 1769 2928 
Q 1347 2928 1069 2612 
Q 791 2297 791 1659 
z
" transform="scale(0.015625)"/>
      <path id="ArialMT-6d" d="M 422 0 
L 422 3319 
L 925 3319 
L 925 2853 
Q 1081 3097 1340 3245 
Q 1600 3394 1931 3394 
Q 2300 3394 2536 3241 
Q 2772 3088 2869 2813 
Q 3263 3394 3894 3394 
Q 4388 3394 4653 3120 
Q 4919 2847 4919 2278 
L 4919 0 
L 4359 0 
L 4359 2091 
Q 4359 2428 4304 2576 
Q 4250 2725 4106 2815 
Q 3963 2906 3769 2906 
Q 3419 2906 3187 2673 
Q 2956 2441 2956 1928 
L 2956 0 
L 2394 0 
L 2394 2156 
Q 2394 2531 2256 2718 
Q 2119 2906 1806 2906 
Q 1569 2906 1367 2781 
Q 1166 2656 1075 2415 
Q 984 2175 984 1722 
L 984 0 
L 422 0 
z
" transform="scale(0.015625)"/>
      <path id="ArialMT-6b" d="M 425 0 
L 425 4581 
L 988 4581 
L 988 1969 
L 2319 3319 
L 3047 3319 
L 1778 2088 
L 3175 0 
L 2481 0 
L 1384 1697 
L 988 1316 
L 988 0 
L 425 0 
z
" transform="scale(0.015625)"/>
      <path id="ArialMT-64" d="M 2575 0 
L 2575 419 
Q 2259 -75 1647 -75 
Q 1250 -75 917 144 
Q 584 363 401 755 
Q 219 1147 219 1656 
Q 219 2153 384 2558 
Q 550 2963 881 3178 
Q 1213 3394 1622 3394 
Q 1922 3394 2156 3267 
Q 2391 3141 2538 2938 
L 2538 4581 
L 3097 4581 
L 3097 0 
L 2575 0 
z
M 797 1656 
Q 797 1019 1065 703 
Q 1334 388 1700 388 
Q 2069 388 2326 689 
Q 2584 991 2584 1609 
Q 2584 2291 2321 2609 
Q 2059 2928 1675 2928 
Q 1300 2928 1048 2622 
Q 797 2316 797 1656 
z
" transform="scale(0.015625)"/>
     </defs>
     <use xlink:href="#ArialMT-59"/>
     <use xlink:href="#ArialMT-65" x="57.574219"/>
     <use xlink:href="#ArialMT-61" x="113.189453"/>
     <use xlink:href="#ArialMT-72" x="168.804688"/>
     <use xlink:href="#ArialMT-6c" x="202.105469"/>
     <use xlink:href="#ArialMT-79" x="224.322266"/>
     <use xlink:href="#ArialMT-20" x="274.322266"/>
     <use xlink:href="#ArialMT-61" x="302.105469"/>
     <use xlink:href="#ArialMT-76" x="357.720703"/>
     <use xlink:href="#ArialMT-65" x="407.720703"/>
     <use xlink:href="#ArialMT-72" x="463.335938"/>
     <use xlink:href="#ArialMT-61" x="496.636719"/>
     <use xlink:href="#ArialMT-67" x="552.251953"/>
     <use xlink:href="#ArialMT-65" x="607.867188"/>
     <use xlink:href="#ArialMT-20" x="663.482422"/>
     <use xlink:href="#ArialMT-72" x="691.265625"/>
     <use xlink:href="#ArialMT-61" x="724.566406"/>
     <use xlink:href="#ArialMT-74" x="780.181641"/>
     <use xlink:href="#ArialMT-69" x="807.964844"/>
     <use xlink:href="#ArialMT-6e" x="830.181641"/>
     <use xlink:href="#ArialMT-67" x="885.796875"/>
     <use xlink:href="#ArialMT-73" x="941.412109"/>
     <use xlink:href="#ArialMT-20" x="991.412109"/>
     <use xlink:href="#ArialMT-66" x="1019.195312"/>
     <use xlink:href="#ArialMT-72" x="1046.978516"/>
     <use xlink:href="#ArialMT-6f" x="1080.279297"/>
     <use xlink:href="#ArialMT-6d" x="1135.894531"/>
     <use xlink:href="#ArialMT-20" x="1219.195312"/>
     <use xlink:href="#ArialMT-72" x="1246.978516"/>
     <use xlink:href="#ArialMT-61" x="1280.279297"/>
     <use xlink:href="#ArialMT-6e" x="1335.894531"/>
     <use xlink:href="#ArialMT-6b" x="1391.509766"/>
     <use xlink:href="#ArialMT-65" x="1441.509766"/>
     <use xlink:href="#ArialMT-64" x="1497.125"/>
     <use xlink:href="#ArialMT-20" x="1552.740234"/>
     <use xlink:href="#ArialMT-67" x="1580.523438"/>
     <use xlink:href="#ArialMT-61" x="1636.138672"/>
     <use xlink:href="#ArialMT-6d" x="1691.753906"/>
     <use xlink:href="#ArialMT-65" x="1775.054688"/>
     <use xlink:href="#ArialMT-73" x="1830.669922"/>
    </g>
   </g>
  </g>
 </g>
 <defs>
  <clipPath id="p2946831f29">
   <rect x="31.66" y="25.49625" width="418.34" height="292.22375"/>
  </clipPath>
 </defs>
</svg>
