<?xml version="1.0" encoding="utf-8" standalone="no"?>
<!DOCTYPE svg PUBLIC "-//W3C//DTD SVG 1.1//EN"
  "http://www.w3.org/Graphics/SVG/1.1/DTD/svg11.dtd">
<svg xmlns:xlink="http://www.w3.org/1999/xlink" width="460.8pt" height="345.6pt" viewBox="0 0 460.8 345.6" xmlns="http://www.w3.org/2000/svg" version="1.1">
 <metadata>
  <rdf:RDF xmlns:dc="http://purl.org/dc/elements/1.1/" xmlns:cc="http://creativecommons.org/ns#" xmlns:rdf="http://www.w3.org/1999/02/22-rdf-syntax-ns#">
   <cc:Work>
    <dc:type rdf:resource="http://purl.org/dc/dcmitype/StillImage"/>
    <dc:date>2024-08-19T22:01:49.669238</dc:date>
    <dc:format>image/svg+xml</dc:format>
    <dc:creator>
     <cc:Agent>
      <dc:title>Matplotlib v3.9.2, https://matplotlib.org/</dc:title>
     </cc:Agent>
    </dc:creator>
   </cc:Work>
  </rdf:RDF>
 </metadata>
 <defs>
  <style type="text/css">*{stroke-linejoin: round; stroke-linecap: butt}</style>
 </defs>
 <g id="figure_1">
  <g id="patch_1">
   <path d="M 0 345.6 
L 460.8 345.6 
L 460.8 0 
L 0 0 
z
" style="fill: #ffffff"/>
  </g>
  <g id="axes_1">
   <g id="patch_2">
    <path d="M 37.24 317.72 
L 450 317.72 
L 450 25.49625 
L 37.24 25.49625 
z
" style="fill: #eaeaf2"/>
   </g>
   <g id="matplotlib.axis_1">
    <g id="xtick_1">
     <g id="text_1">
      <!-- 1970 -->
      <g style="fill: #262626" transform="translate(44.879943 331.877812) scale(0.1 -0.1)">
       <defs>
        <path id="ArialMT-31" d="M 2384 0 
L 1822 0 
L 1822 3584 
Q 1619 3391 1289 3197 
Q 959 3003 697 2906 
L 697 3450 
Q 1169 3672 1522 3987 
Q 1875 4303 2022 4600 
L 2384 4600 
L 2384 0 
z
" transform="scale(0.015625)"/>
        <path id="ArialMT-39" d="M 350 1059 
L 891 1109 
Q 959 728 1153 556 
Q 1347 384 1650 384 
Q 1909 384 2104 503 
Q 2300 622 2425 820 
Q 2550 1019 2634 1356 
Q 2719 1694 2719 2044 
Q 2719 2081 2716 2156 
Q 2547 1888 2255 1720 
Q 1963 1553 1622 1553 
Q 1053 1553 659 1965 
Q 266 2378 266 3053 
Q 266 3750 677 4175 
Q 1088 4600 1706 4600 
Q 2153 4600 2523 4359 
Q 2894 4119 3086 3673 
Q 3278 3228 3278 2384 
Q 3278 1506 3087 986 
Q 2897 466 2520 194 
Q 2144 -78 1638 -78 
Q 1100 -78 759 220 
Q 419 519 350 1059 
z
M 2653 3081 
Q 2653 3566 2395 3850 
Q 2138 4134 1775 4134 
Q 1400 4134 1122 3828 
Q 844 3522 844 3034 
Q 844 2597 1108 2323 
Q 1372 2050 1759 2050 
Q 2150 2050 2401 2323 
Q 2653 2597 2653 3081 
z
" transform="scale(0.015625)"/>
        <path id="ArialMT-37" d="M 303 3981 
L 303 4522 
L 3269 4522 
L 3269 4084 
Q 2831 3619 2401 2847 
Q 1972 2075 1738 1259 
Q 1569 684 1522 0 
L 944 0 
Q 953 541 1156 1306 
Q 1359 2072 1739 2783 
Q 2119 3494 2547 3981 
L 303 3981 
z
" transform="scale(0.015625)"/>
        <path id="ArialMT-30" d="M 266 2259 
Q 266 3072 433 3567 
Q 600 4063 929 4331 
Q 1259 4600 1759 4600 
Q 2128 4600 2406 4451 
Q 2684 4303 2865 4023 
Q 3047 3744 3150 3342 
Q 3253 2941 3253 2259 
Q 3253 1453 3087 958 
Q 2922 463 2592 192 
Q 2263 -78 1759 -78 
Q 1097 -78 719 397 
Q 266 969 266 2259 
z
M 844 2259 
Q 844 1131 1108 757 
Q 1372 384 1759 384 
Q 2147 384 2411 759 
Q 2675 1134 2675 2259 
Q 2675 3391 2411 3762 
Q 2147 4134 1753 4134 
Q 1366 4134 1134 3806 
Q 844 3388 844 2259 
z
" transform="scale(0.015625)"/>
       </defs>
       <use xlink:href="#ArialMT-31"/>
       <use xlink:href="#ArialMT-39" x="55.615234"/>
       <use xlink:href="#ArialMT-37" x="111.230469"/>
       <use xlink:href="#ArialMT-30" x="166.845703"/>
      </g>
     </g>
    </g>
    <g id="xtick_2">
     <g id="text_2">
      <!-- 1980 -->
      <g style="fill: #262626" transform="translate(115.679257 331.877812) scale(0.1 -0.1)">
       <defs>
        <path id="ArialMT-38" d="M 1131 2484 
Q 781 2613 612 2850 
Q 444 3088 444 3419 
Q 444 3919 803 4259 
Q 1163 4600 1759 4600 
Q 2359 4600 2725 4251 
Q 3091 3903 3091 3403 
Q 3091 3084 2923 2848 
Q 2756 2613 2416 2484 
Q 2838 2347 3058 2040 
Q 3278 1734 3278 1309 
Q 3278 722 2862 322 
Q 2447 -78 1769 -78 
Q 1091 -78 675 323 
Q 259 725 259 1325 
Q 259 1772 486 2073 
Q 713 2375 1131 2484 
z
M 1019 3438 
Q 1019 3113 1228 2906 
Q 1438 2700 1772 2700 
Q 2097 2700 2305 2904 
Q 2513 3109 2513 3406 
Q 2513 3716 2298 3927 
Q 2084 4138 1766 4138 
Q 1444 4138 1231 3931 
Q 1019 3725 1019 3438 
z
M 838 1322 
Q 838 1081 952 856 
Q 1066 631 1291 507 
Q 1516 384 1775 384 
Q 2178 384 2440 643 
Q 2703 903 2703 1303 
Q 2703 1709 2433 1975 
Q 2163 2241 1756 2241 
Q 1359 2241 1098 1978 
Q 838 1716 838 1322 
z
" transform="scale(0.015625)"/>
       </defs>
       <use xlink:href="#ArialMT-31"/>
       <use xlink:href="#ArialMT-39" x="55.615234"/>
       <use xlink:href="#ArialMT-38" x="111.230469"/>
       <use xlink:href="#ArialMT-30" x="166.845703"/>
      </g>
     </g>
    </g>
    <g id="xtick_3">
     <g id="text_3">
      <!-- 1990 -->
      <g style="fill: #262626" transform="translate(186.478571 331.877812) scale(0.1 -0.1)">
       <use xlink:href="#ArialMT-31"/>
       <use xlink:href="#ArialMT-39" x="55.615234"/>
       <use xlink:href="#ArialMT-39" x="111.230469"/>
       <use xlink:href="#ArialMT-30" x="166.845703"/>
      </g>
     </g>
    </g>
    <g id="xtick_4">
     <g id="text_4">
      <!-- 2000 -->
      <g style="fill: #262626" transform="translate(257.277885 331.877812) scale(0.1 -0.1)">
       <defs>
        <path id="ArialMT-32" d="M 3222 541 
L 3222 0 
L 194 0 
Q 188 203 259 391 
Q 375 700 629 1000 
Q 884 1300 1366 1694 
Q 2113 2306 2375 2664 
Q 2638 3022 2638 3341 
Q 2638 3675 2398 3904 
Q 2159 4134 1775 4134 
Q 1369 4134 1125 3890 
Q 881 3647 878 3216 
L 300 3275 
Q 359 3922 746 4261 
Q 1134 4600 1788 4600 
Q 2447 4600 2831 4234 
Q 3216 3869 3216 3328 
Q 3216 3053 3103 2787 
Q 2991 2522 2730 2228 
Q 2469 1934 1863 1422 
Q 1356 997 1212 845 
Q 1069 694 975 541 
L 3222 541 
z
" transform="scale(0.015625)"/>
       </defs>
       <use xlink:href="#ArialMT-32"/>
       <use xlink:href="#ArialMT-30" x="55.615234"/>
       <use xlink:href="#ArialMT-30" x="111.230469"/>
       <use xlink:href="#ArialMT-30" x="166.845703"/>
      </g>
     </g>
    </g>
    <g id="xtick_5">
     <g id="text_5">
      <!-- 2010 -->
      <g style="fill: #262626" transform="translate(328.077199 331.877812) scale(0.1 -0.1)">
       <use xlink:href="#ArialMT-32"/>
       <use xlink:href="#ArialMT-30" x="55.615234"/>
       <use xlink:href="#ArialMT-31" x="111.230469"/>
       <use xlink:href="#ArialMT-30" x="166.845703"/>
      </g>
     </g>
    </g>
    <g id="xtick_6">
     <g id="text_6">
      <!-- 2020 -->
      <g style="fill: #262626" transform="translate(398.876513 331.877812) scale(0.1 -0.1)">
       <use xlink:href="#ArialMT-32"/>
       <use xlink:href="#ArialMT-30" x="55.615234"/>
       <use xlink:href="#ArialMT-32" x="111.230469"/>
       <use xlink:href="#ArialMT-30" x="166.845703"/>
      </g>
     </g>
    </g>
   </g>
   <g id="matplotlib.axis_2">
    <g id="ytick_1">
     <g id="text_7">
      <!-- 5.75 -->
      <g style="fill: #262626" transform="translate(10.779063 298.452333) scale(0.1 -0.1)">
       <defs>
        <path id="ArialMT-35" d="M 266 1200 
L 856 1250 
Q 922 819 1161 601 
Q 1400 384 1738 384 
Q 2144 384 2425 690 
Q 2706 997 2706 1503 
Q 2706 1984 2436 2262 
Q 2166 2541 1728 2541 
Q 1456 2541 1237 2417 
Q 1019 2294 894 2097 
L 366 2166 
L 809 4519 
L 3088 4519 
L 3088 3981 
L 1259 3981 
L 1013 2750 
Q 1425 3038 1878 3038 
Q 2478 3038 2890 2622 
Q 3303 2206 3303 1553 
Q 3303 931 2941 478 
Q 2500 -78 1738 -78 
Q 1113 -78 717 272 
Q 322 622 266 1200 
z
" transform="scale(0.015625)"/>
        <path id="ArialMT-2e" d="M 581 0 
L 581 641 
L 1222 641 
L 1222 0 
L 581 0 
z
" transform="scale(0.015625)"/>
       </defs>
       <use xlink:href="#ArialMT-35"/>
       <use xlink:href="#ArialMT-2e" x="55.615234"/>
       <use xlink:href="#ArialMT-37" x="83.398438"/>
       <use xlink:href="#ArialMT-35" x="139.013672"/>
      </g>
     </g>
    </g>
    <g id="ytick_2">
     <g id="text_8">
      <!-- 6.00 -->
      <g style="fill: #262626" transform="translate(10.779063 264.090177) scale(0.1 -0.1)">
       <defs>
        <path id="ArialMT-36" d="M 3184 3459 
L 2625 3416 
Q 2550 3747 2413 3897 
Q 2184 4138 1850 4138 
Q 1581 4138 1378 3988 
Q 1113 3794 959 3422 
Q 806 3050 800 2363 
Q 1003 2672 1297 2822 
Q 1591 2972 1913 2972 
Q 2475 2972 2870 2558 
Q 3266 2144 3266 1488 
Q 3266 1056 3080 686 
Q 2894 316 2569 119 
Q 2244 -78 1831 -78 
Q 1128 -78 684 439 
Q 241 956 241 2144 
Q 241 3472 731 4075 
Q 1159 4600 1884 4600 
Q 2425 4600 2770 4297 
Q 3116 3994 3184 3459 
z
M 888 1484 
Q 888 1194 1011 928 
Q 1134 663 1356 523 
Q 1578 384 1822 384 
Q 2178 384 2434 671 
Q 2691 959 2691 1453 
Q 2691 1928 2437 2201 
Q 2184 2475 1800 2475 
Q 1419 2475 1153 2201 
Q 888 1928 888 1484 
z
" transform="scale(0.015625)"/>
       </defs>
       <use xlink:href="#ArialMT-36"/>
       <use xlink:href="#ArialMT-2e" x="55.615234"/>
       <use xlink:href="#ArialMT-30" x="83.398438"/>
       <use xlink:href="#ArialMT-30" x="139.013672"/>
      </g>
     </g>
    </g>
    <g id="ytick_3">
     <g id="text_9">
      <!-- 6.25 -->
      <g style="fill: #262626" transform="translate(10.779063 229.72802) scale(0.1 -0.1)">
       <use xlink:href="#ArialMT-36"/>
       <use xlink:href="#ArialMT-2e" x="55.615234"/>
       <use xlink:href="#ArialMT-32" x="83.398438"/>
       <use xlink:href="#ArialMT-35" x="139.013672"/>
      </g>
     </g>
    </g>
    <g id="ytick_4">
     <g id="text_10">
      <!-- 6.50 -->
      <g style="fill: #262626" transform="translate(10.779063 195.365864) scale(0.1 -0.1)">
       <use xlink:href="#ArialMT-36"/>
       <use xlink:href="#ArialMT-2e" x="55.615234"/>
       <use xlink:href="#ArialMT-35" x="83.398438"/>
       <use xlink:href="#ArialMT-30" x="139.013672"/>
      </g>
     </g>
    </g>
    <g id="ytick_5">
     <g id="text_11">
      <!-- 6.75 -->
      <g style="fill: #262626" transform="translate(10.779063 161.003708) scale(0.1 -0.1)">
       <use xlink:href="#ArialMT-36"/>
       <use xlink:href="#ArialMT-2e" x="55.615234"/>
       <use xlink:href="#ArialMT-37" x="83.398438"/>
       <use xlink:href="#ArialMT-35" x="139.013672"/>
      </g>
     </g>
    </g>
    <g id="ytick_6">
     <g id="text_12">
      <!-- 7.00 -->
      <g style="fill: #262626" transform="translate(10.779063 126.641551) scale(0.1 -0.1)">
       <use xlink:href="#ArialMT-37"/>
       <use xlink:href="#ArialMT-2e" x="55.615234"/>
       <use xlink:href="#ArialMT-30" x="83.398438"/>
       <use xlink:href="#ArialMT-30" x="139.013672"/>
      </g>
     </g>
    </g>
    <g id="ytick_7">
     <g id="text_13">
      <!-- 7.25 -->
      <g style="fill: #262626" transform="translate(10.779063 92.279395) scale(0.1 -0.1)">
       <use xlink:href="#ArialMT-37"/>
       <use xlink:href="#ArialMT-2e" x="55.615234"/>
       <use xlink:href="#ArialMT-32" x="83.398438"/>
       <use xlink:href="#ArialMT-35" x="139.013672"/>
      </g>
     </g>
    </g>
    <g id="ytick_8">
     <g id="text_14">
      <!-- 7.50 -->
      <g style="fill: #262626" transform="translate(10.779063 57.917238) scale(0.1 -0.1)">
       <use xlink:href="#ArialMT-37"/>
       <use xlink:href="#ArialMT-2e" x="55.615234"/>
       <use xlink:href="#ArialMT-35" x="83.398438"/>
       <use xlink:href="#ArialMT-30" x="139.013672"/>
      </g>
     </g>
    </g>
   </g>
   <g id="PathCollection_1">
    <path d="M 56.001818 286.448314 
C 56.564399 286.448314 57.104014 286.224799 57.501818 285.826994 
C 57.899623 285.429189 58.123139 284.889575 58.123139 284.326994 
C 58.123139 283.764413 57.899623 283.224799 57.501818 282.826994 
C 57.104014 282.429189 56.564399 282.205674 56.001818 282.205674 
C 55.439237 282.205674 54.899623 282.429189 54.501818 282.826994 
C 54.104014 283.224799 53.880498 283.764413 53.880498 284.326994 
C 53.880498 284.889575 54.104014 285.429189 54.501818 285.826994 
C 54.899623 286.224799 55.439237 286.448314 56.001818 286.448314 
z
" clip-path="url(#pedbc07c9ed)" style="fill: #800080; stroke: #ffffff; stroke-width: 0.345591"/>
    <path d="M 63.08175 306.625065 
C 63.662004 306.625065 64.218571 306.394528 64.628873 305.984226 
C 65.039175 305.573924 65.269713 305.017357 65.269713 304.437102 
C 65.269713 303.856848 65.039175 303.300281 64.628873 302.889979 
C 64.218571 302.479677 63.662004 302.249139 63.08175 302.249139 
C 62.501495 302.249139 61.944928 302.479677 61.534626 302.889979 
C 61.124324 303.300281 60.893786 303.856848 60.893786 304.437102 
C 60.893786 305.017357 61.124324 305.573924 61.534626 305.984226 
C 61.944928 306.394528 62.501495 306.625065 63.08175 306.625065 
z
" clip-path="url(#pedbc07c9ed)" style="fill: #800080; stroke: #ffffff; stroke-width: 0.345591"/>
    <path d="M 70.161681 266.088435 
C 70.729832 266.088435 71.274789 265.862707 71.676533 265.460963 
C 72.078276 265.05922 72.304005 264.514263 72.304005 263.946112 
C 72.304005 263.377961 72.078276 262.833003 71.676533 262.43126 
C 71.274789 262.029517 70.729832 261.803788 70.161681 261.803788 
C 69.59353 261.803788 69.048573 262.029517 68.646829 262.43126 
C 68.245086 262.833003 68.019357 263.377961 68.019357 263.946112 
C 68.019357 264.514263 68.245086 265.05922 68.646829 265.460963 
C 69.048573 265.862707 69.59353 266.088435 70.161681 266.088435 
z
" clip-path="url(#pedbc07c9ed)" style="fill: #800080; stroke: #ffffff; stroke-width: 0.345591"/>
    <path d="M 77.241612 251.726324 
C 77.8101 251.726324 78.35538 251.500461 78.757362 251.09848 
C 79.159343 250.696498 79.385206 250.151218 79.385206 249.58273 
C 79.385206 249.014243 79.159343 248.468962 78.757362 248.066981 
C 78.35538 247.664999 77.8101 247.439137 77.241612 247.439137 
C 76.673125 247.439137 76.127844 247.664999 75.725863 248.066981 
C 75.323881 248.468962 75.098019 249.014243 75.098019 249.58273 
C 75.098019 250.151218 75.323881 250.696498 75.725863 251.09848 
C 76.127844 251.500461 76.673125 251.726324 77.241612 251.726324 
z
" clip-path="url(#pedbc07c9ed)" style="fill: #800080; stroke: #ffffff; stroke-width: 0.345591"/>
    <path d="M 84.321544 258.869424 
C 84.8962 258.869424 85.447398 258.641111 85.853742 258.234767 
C 86.260085 257.828423 86.488399 257.277226 86.488399 256.702569 
C 86.488399 256.127912 86.260085 255.576715 85.853742 255.170371 
C 85.447398 254.764028 84.8962 254.535714 84.321544 254.535714 
C 83.746887 254.535714 83.19569 254.764028 82.789346 255.170371 
C 82.383002 255.576715 82.154689 256.127912 82.154689 256.702569 
C 82.154689 257.277226 82.383002 257.828423 82.789346 258.234767 
C 83.19569 258.641111 83.746887 258.869424 84.321544 258.869424 
z
" clip-path="url(#pedbc07c9ed)" style="fill: #800080; stroke: #ffffff; stroke-width: 0.345591"/>
    <path d="M 91.401475 278.909178 
C 91.973512 278.909178 92.522198 278.681906 92.926689 278.277414 
C 93.331181 277.872923 93.558453 277.324237 93.558453 276.7522 
C 93.558453 276.180163 93.331181 275.631478 92.926689 275.226986 
C 92.522198 274.822495 91.973512 274.595222 91.401475 274.595222 
C 90.829438 274.595222 90.280753 274.822495 89.876261 275.226986 
C 89.47177 275.631478 89.244497 276.180163 89.244497 276.7522 
C 89.244497 277.324237 89.47177 277.872923 89.876261 278.277414 
C 90.280753 278.681906 90.829438 278.909178 91.401475 278.909178 
z
" clip-path="url(#pedbc07c9ed)" style="fill: #800080; stroke: #ffffff; stroke-width: 0.345591"/>
    <path d="M 98.481407 231.868198 
C 99.046004 231.868198 99.587554 231.643881 99.986785 231.24465 
C 100.386016 230.845419 100.610333 230.30387 100.610333 229.739272 
C 100.610333 229.174674 100.386016 228.633125 99.986785 228.233894 
C 99.587554 227.834663 99.046004 227.610346 98.481407 227.610346 
C 97.916809 227.610346 97.375259 227.834663 96.976028 228.233894 
C 96.576798 228.633125 96.35248 229.174674 96.35248 229.739272 
C 96.35248 230.30387 96.576798 230.845419 96.976028 231.24465 
C 97.375259 231.643881 97.916809 231.868198 98.481407 231.868198 
z
" clip-path="url(#pedbc07c9ed)" style="fill: #800080; stroke: #ffffff; stroke-width: 0.345591"/>
    <path d="M 105.561338 209.831096 
C 106.14891 209.831096 106.712495 209.597651 107.127972 209.182175 
C 107.543448 208.766699 107.776892 208.203113 107.776892 207.615541 
C 107.776892 207.02797 107.543448 206.464384 107.127972 206.048908 
C 106.712495 205.633432 106.14891 205.399987 105.561338 205.399987 
C 104.973766 205.399987 104.41018 205.633432 103.994704 206.048908 
C 103.579228 206.464384 103.345783 207.02797 103.345783 207.615541 
C 103.345783 208.203113 103.579228 208.766699 103.994704 209.182175 
C 104.41018 209.597651 104.973766 209.831096 105.561338 209.831096 
z
" clip-path="url(#pedbc07c9ed)" style="fill: #800080; stroke: #ffffff; stroke-width: 0.345591"/>
    <path d="M 112.641269 275.193117 
C 113.210172 275.193117 113.75585 274.967089 114.158124 274.564815 
C 114.560399 274.16254 114.786426 273.616862 114.786426 273.04796 
C 114.786426 272.479057 114.560399 271.933379 114.158124 271.531105 
C 113.75585 271.12883 113.210172 270.902803 112.641269 270.902803 
C 112.072367 270.902803 111.526689 271.12883 111.124414 271.531105 
C 110.72214 271.933379 110.496112 272.479057 110.496112 273.04796 
C 110.496112 273.616862 110.72214 274.16254 111.124414 274.564815 
C 111.526689 274.967089 112.072367 275.193117 112.641269 275.193117 
z
" clip-path="url(#pedbc07c9ed)" style="fill: #800080; stroke: #ffffff; stroke-width: 0.345591"/>
    <path d="M 119.721201 216.298903 
C 120.305353 216.298903 120.865658 216.066817 121.278716 215.653759 
C 121.691774 215.240701 121.92386 214.680396 121.92386 214.096244 
C 121.92386 213.512092 121.691774 212.951787 121.278716 212.538729 
C 120.865658 212.125671 120.305353 211.893585 119.721201 211.893585 
C 119.137049 211.893585 118.576743 212.125671 118.163686 212.538729 
C 117.750628 212.951787 117.518542 213.512092 117.518542 214.096244 
C 117.518542 214.680396 117.750628 215.240701 118.163686 215.653759 
C 118.576743 216.066817 119.137049 216.298903 119.721201 216.298903 
z
" clip-path="url(#pedbc07c9ed)" style="fill: #800080; stroke: #ffffff; stroke-width: 0.345591"/>
    <path d="M 126.801132 165.558381 
C 127.383829 165.558381 127.942739 165.326873 128.354769 164.914844 
C 128.766798 164.502815 128.998306 163.943905 128.998306 163.361207 
C 128.998306 162.77851 128.766798 162.2196 128.354769 161.807571 
C 127.942739 161.395542 127.383829 161.164034 126.801132 161.164034 
C 126.218435 161.164034 125.659525 161.395542 125.247496 161.807571 
C 124.835466 162.2196 124.603958 162.77851 124.603958 163.361207 
C 124.603958 163.943905 124.835466 164.502815 125.247496 164.914844 
C 125.659525 165.326873 126.218435 165.558381 126.801132 165.558381 
z
" clip-path="url(#pedbc07c9ed)" style="fill: #800080; stroke: #ffffff; stroke-width: 0.345591"/>
    <path d="M 133.881063 235.97889 
C 134.464146 235.97889 135.023426 235.747228 135.435728 235.334926 
C 135.84803 234.922625 136.079691 234.363345 136.079691 233.780262 
C 136.079691 233.197179 135.84803 232.637899 135.435728 232.225597 
C 135.023426 231.813295 134.464146 231.581634 133.881063 231.581634 
C 133.297981 231.581634 132.738701 231.813295 132.326399 232.225597 
C 131.914097 232.637899 131.682436 233.197179 131.682436 233.780262 
C 131.682436 234.363345 131.914097 234.922625 132.326399 235.334926 
C 132.738701 235.747228 133.297981 235.97889 133.881063 235.97889 
z
" clip-path="url(#pedbc07c9ed)" style="fill: #800080; stroke: #ffffff; stroke-width: 0.345591"/>
    <path d="M 140.960995 171.11885 
C 141.566106 171.11885 142.146515 170.878437 142.574393 170.450559 
C 143.002271 170.022681 143.242684 169.442272 143.242684 168.837161 
C 143.242684 168.23205 143.002271 167.651641 142.574393 167.223763 
C 142.146515 166.795884 141.566106 166.555471 140.960995 166.555471 
C 140.355884 166.555471 139.775475 166.795884 139.347597 167.223763 
C 138.919719 167.651641 138.679305 168.23205 138.679305 168.837161 
C 138.679305 169.442272 138.919719 170.022681 139.347597 170.450559 
C 139.775475 170.878437 140.355884 171.11885 140.960995 171.11885 
z
" clip-path="url(#pedbc07c9ed)" style="fill: #800080; stroke: #ffffff; stroke-width: 0.345591"/>
    <path d="M 148.040926 227.301841 
C 148.634602 227.301841 149.204043 227.065971 149.623835 226.646179 
C 150.043627 226.226386 150.279497 225.656946 150.279497 225.06327 
C 150.279497 224.469594 150.043627 223.900154 149.623835 223.480361 
C 149.204043 223.060569 148.634602 222.824699 148.040926 222.824699 
C 147.44725 222.824699 146.87781 223.060569 146.458018 223.480361 
C 146.038225 223.900154 145.802355 224.469594 145.802355 225.06327 
C 145.802355 225.656946 146.038225 226.226386 146.458018 226.646179 
C 146.87781 227.065971 147.44725 227.301841 148.040926 227.301841 
z
" clip-path="url(#pedbc07c9ed)" style="fill: #800080; stroke: #ffffff; stroke-width: 0.345591"/>
    <path d="M 155.120858 208.624673 
C 155.697229 208.624673 156.250072 208.395678 156.657628 207.988122 
C 157.065184 207.580566 157.294179 207.027723 157.294179 206.451352 
C 157.294179 205.87498 157.065184 205.322138 156.657628 204.914581 
C 156.250072 204.507025 155.697229 204.27803 155.120858 204.27803 
C 154.544486 204.27803 153.991644 204.507025 153.584087 204.914581 
C 153.176531 205.322138 152.947536 205.87498 152.947536 206.451352 
C 152.947536 207.027723 153.176531 207.580566 153.584087 207.988122 
C 153.991644 208.395678 154.544486 208.624673 155.120858 208.624673 
z
" clip-path="url(#pedbc07c9ed)" style="fill: #800080; stroke: #ffffff; stroke-width: 0.345591"/>
    <path d="M 162.200789 199.983335 
C 162.782643 199.983335 163.340745 199.752161 163.752178 199.340728 
C 164.163611 198.929295 164.394785 198.371194 164.394785 197.789339 
C 164.394785 197.207485 164.163611 196.649383 163.752178 196.23795 
C 163.340745 195.826517 162.782643 195.595344 162.200789 195.595344 
C 161.618935 195.595344 161.060833 195.826517 160.6494 196.23795 
C 160.237967 196.649383 160.006794 197.207485 160.006794 197.789339 
C 160.006794 198.371194 160.237967 198.929295 160.6494 199.340728 
C 161.060833 199.752161 161.618935 199.983335 162.200789 199.983335 
z
" clip-path="url(#pedbc07c9ed)" style="fill: #800080; stroke: #ffffff; stroke-width: 0.345591"/>
    <path d="M 169.28072 182.42186 
C 169.876516 182.42186 170.447989 182.185148 170.869279 181.763857 
C 171.29057 181.342566 171.527282 180.771093 171.527282 180.175298 
C 171.527282 179.579503 171.29057 179.00803 170.869279 178.586739 
C 170.447989 178.165448 169.876516 177.928736 169.28072 177.928736 
C 168.684925 177.928736 168.113452 178.165448 167.692161 178.586739 
C 167.270871 179.00803 167.034159 179.579503 167.034159 180.175298 
C 167.034159 180.771093 167.270871 181.342566 167.692161 181.763857 
C 168.113452 182.185148 168.684925 182.42186 169.28072 182.42186 
z
" clip-path="url(#pedbc07c9ed)" style="fill: #800080; stroke: #ffffff; stroke-width: 0.345591"/>
    <path d="M 176.360652 225.264311 
C 176.941426 225.264311 177.498491 225.033567 177.909161 224.622897 
C 178.31983 224.212228 178.550574 223.655163 178.550574 223.074388 
C 178.550574 222.493614 178.31983 221.936549 177.909161 221.525879 
C 177.498491 221.11521 176.941426 220.884466 176.360652 220.884466 
C 175.779878 220.884466 175.222812 221.11521 174.812143 221.525879 
C 174.401473 221.936549 174.170729 222.493614 174.170729 223.074388 
C 174.170729 223.655163 174.401473 224.212228 174.812143 224.622897 
C 175.222812 225.033567 175.779878 225.264311 176.360652 225.264311 
z
" clip-path="url(#pedbc07c9ed)" style="fill: #800080; stroke: #ffffff; stroke-width: 0.345591"/>
    <path d="M 183.440583 224.764873 
C 184.029244 224.764873 184.593875 224.530996 185.010121 224.114749 
C 185.426368 223.698503 185.660245 223.133872 185.660245 222.545211 
C 185.660245 221.95655 185.426368 221.391919 185.010121 220.975673 
C 184.593875 220.559427 184.029244 220.325549 183.440583 220.325549 
C 182.851922 220.325549 182.287292 220.559427 181.871045 220.975673 
C 181.454799 221.391919 181.220921 221.95655 181.220921 222.545211 
C 181.220921 223.133872 181.454799 223.698503 181.871045 224.114749 
C 182.287292 224.530996 182.851922 224.764873 183.440583 224.764873 
z
" clip-path="url(#pedbc07c9ed)" style="fill: #800080; stroke: #ffffff; stroke-width: 0.345591"/>
    <path d="M 190.520515 200.329999 
C 191.112289 200.329999 191.679905 200.094884 192.098353 199.676437 
C 192.5168 199.257989 192.751915 198.690373 192.751915 198.098599 
C 192.751915 197.506824 192.5168 196.939208 192.098353 196.52076 
C 191.679905 196.102313 191.112289 195.867198 190.520515 195.867198 
C 189.92874 195.867198 189.361124 196.102313 188.942676 196.52076 
C 188.524229 196.939208 188.289114 197.506824 188.289114 198.098599 
C 188.289114 198.690373 188.524229 199.257989 188.942676 199.676437 
C 189.361124 200.094884 189.92874 200.329999 190.520515 200.329999 
z
" clip-path="url(#pedbc07c9ed)" style="fill: #800080; stroke: #ffffff; stroke-width: 0.345591"/>
    <path d="M 197.600446 219.874135 
C 198.184649 219.874135 198.745004 219.642029 199.158098 219.228935 
C 199.571192 218.815841 199.803298 218.255486 199.803298 217.671283 
C 199.803298 217.08708 199.571192 216.526725 199.158098 216.113631 
C 198.745004 215.700537 198.184649 215.46843 197.600446 215.46843 
C 197.016243 215.46843 196.455888 215.700537 196.042794 216.113631 
C 195.6297 216.526725 195.397594 217.08708 195.397594 217.671283 
C 195.397594 218.255486 195.6297 218.815841 196.042794 219.228935 
C 196.455888 219.642029 197.016243 219.874135 197.600446 219.874135 
z
" clip-path="url(#pedbc07c9ed)" style="fill: #800080; stroke: #ffffff; stroke-width: 0.345591"/>
    <path d="M 204.680377 187.911473 
C 205.273598 187.911473 205.842602 187.675784 206.262073 187.256313 
C 206.681544 186.836842 206.917233 186.267838 206.917233 185.674617 
C 206.917233 185.081396 206.681544 184.512392 206.262073 184.092922 
C 205.842602 183.673451 205.273598 183.437762 204.680377 183.437762 
C 204.087156 183.437762 203.518152 183.673451 203.098682 184.092922 
C 202.679211 184.512392 202.443522 185.081396 202.443522 185.674617 
C 202.443522 186.267838 202.679211 186.836842 203.098682 187.256313 
C 203.518152 187.675784 204.087156 187.911473 204.680377 187.911473 
z
" clip-path="url(#pedbc07c9ed)" style="fill: #800080; stroke: #ffffff; stroke-width: 0.345591"/>
    <path d="M 211.760309 175.9797 
C 212.363045 175.9797 212.941176 175.740231 213.367375 175.314032 
C 213.793574 174.887833 214.033043 174.309702 214.033043 173.706966 
C 214.033043 173.104229 213.793574 172.526098 213.367375 172.099899 
C 212.941176 171.6737 212.363045 171.434231 211.760309 171.434231 
C 211.157572 171.434231 210.579442 171.6737 210.153243 172.099899 
C 209.727044 172.526098 209.487574 173.104229 209.487574 173.706966 
C 209.487574 174.309702 209.727044 174.887833 210.153243 175.314032 
C 210.579442 175.740231 211.157572 175.9797 211.760309 175.9797 
z
" clip-path="url(#pedbc07c9ed)" style="fill: #800080; stroke: #ffffff; stroke-width: 0.345591"/>
    <path d="M 218.84024 159.75049 
C 219.447907 159.75049 220.030767 159.509062 220.460453 159.079376 
C 220.890138 158.649691 221.131567 158.06683 221.131567 157.459163 
C 221.131567 156.851497 220.890138 156.268636 220.460453 155.838951 
C 220.030767 155.409265 219.447907 155.167837 218.84024 155.167837 
C 218.232573 155.167837 217.649713 155.409265 217.220027 155.838951 
C 216.790342 156.268636 216.548913 156.851497 216.548913 157.459163 
C 216.548913 158.06683 216.790342 158.649691 217.220027 159.079376 
C 217.649713 159.509062 218.232573 159.75049 218.84024 159.75049 
z
" clip-path="url(#pedbc07c9ed)" style="fill: #800080; stroke: #ffffff; stroke-width: 0.345591"/>
    <path d="M 225.920172 173.907486 
C 226.536895 173.907486 227.128442 173.662459 227.564531 173.22637 
C 228.000621 172.79028 228.245648 172.198733 228.245648 171.58201 
C 228.245648 170.965286 228.000621 170.373739 227.564531 169.93765 
C 227.128442 169.501561 226.536895 169.256534 225.920172 169.256534 
C 225.303448 169.256534 224.711901 169.501561 224.275812 169.93765 
C 223.839722 170.373739 223.594695 170.965286 223.594695 171.58201 
C 223.594695 172.198733 223.839722 172.79028 224.275812 173.22637 
C 224.711901 173.662459 225.303448 173.907486 225.920172 173.907486 
z
" clip-path="url(#pedbc07c9ed)" style="fill: #800080; stroke: #ffffff; stroke-width: 0.345591"/>
    <path d="M 233.000103 130.882951 
C 233.682343 130.882951 234.336731 130.611894 234.819147 130.129478 
C 235.301564 129.647062 235.57262 128.992673 235.57262 128.310433 
C 235.57262 127.628194 235.301564 126.973805 234.819147 126.491389 
C 234.336731 126.008973 233.682343 125.737916 233.000103 125.737916 
C 232.317863 125.737916 231.663475 126.008973 231.181058 126.491389 
C 230.698642 126.973805 230.427585 127.628194 230.427585 128.310433 
C 230.427585 128.992673 230.698642 129.647062 231.181058 130.129478 
C 231.663475 130.611894 232.317863 130.882951 233.000103 130.882951 
z
" clip-path="url(#pedbc07c9ed)" style="fill: #800080; stroke: #ffffff; stroke-width: 0.345591"/>
    <path d="M 240.080034 216.775601 
C 240.687085 216.775601 241.269354 216.534417 241.698604 216.105168 
C 242.127853 215.675918 242.369037 215.093649 242.369037 214.486598 
C 242.369037 213.879548 242.127853 213.297278 241.698604 212.868029 
C 241.269354 212.438779 240.687085 212.197595 240.080034 212.197595 
C 239.472984 212.197595 238.890714 212.438779 238.461465 212.868029 
C 238.032215 213.297278 237.791031 213.879548 237.791031 214.486598 
C 237.791031 215.093649 238.032215 215.675918 238.461465 216.105168 
C 238.890714 216.534417 239.472984 216.775601 240.080034 216.775601 
z
" clip-path="url(#pedbc07c9ed)" style="fill: #800080; stroke: #ffffff; stroke-width: 0.345591"/>
    <path d="M 247.159966 164.763714 
C 247.827539 164.763714 248.46786 164.498484 248.939905 164.026439 
C 249.411951 163.554393 249.677181 162.914072 249.677181 162.246499 
C 249.677181 161.578926 249.411951 160.938605 248.939905 160.466559 
C 248.46786 159.994514 247.827539 159.729284 247.159966 159.729284 
C 246.492392 159.729284 245.852071 159.994514 245.380026 160.466559 
C 244.90798 160.938605 244.642751 161.578926 244.642751 162.246499 
C 244.642751 162.914072 244.90798 163.554393 245.380026 164.026439 
C 245.852071 164.498484 246.492392 164.763714 247.159966 164.763714 
z
" clip-path="url(#pedbc07c9ed)" style="fill: #800080; stroke: #ffffff; stroke-width: 0.345591"/>
    <path d="M 254.239897 194.03585 
C 254.875678 194.03585 255.485505 193.783251 255.93507 193.333686 
C 256.384635 192.884121 256.637233 192.274294 256.637233 191.638513 
C 256.637233 191.002732 256.384635 190.392906 255.93507 189.94334 
C 255.485505 189.493775 254.875678 189.241177 254.239897 189.241177 
C 253.604116 189.241177 252.994289 189.493775 252.544724 189.94334 
C 252.095159 190.392906 251.842561 191.002732 251.842561 191.638513 
C 251.842561 192.274294 252.095159 192.884121 252.544724 193.333686 
C 252.994289 193.783251 253.604116 194.03585 254.239897 194.03585 
z
" clip-path="url(#pedbc07c9ed)" style="fill: #800080; stroke: #ffffff; stroke-width: 0.345591"/>
    <path d="M 261.319828 147.993609 
C 262.007086 147.993609 262.666288 147.720559 263.152253 147.234594 
C 263.638217 146.74863 263.911268 146.089428 263.911268 145.40217 
C 263.911268 144.714912 263.638217 144.05571 263.152253 143.569746 
C 262.666288 143.083781 262.007086 142.810731 261.319828 142.810731 
C 260.632571 142.810731 259.973369 143.083781 259.487404 143.569746 
C 259.00144 144.05571 258.728389 144.714912 258.728389 145.40217 
C 258.728389 146.089428 259.00144 146.74863 259.487404 147.234594 
C 259.973369 147.720559 260.632571 147.993609 261.319828 147.993609 
z
" clip-path="url(#pedbc07c9ed)" style="fill: #800080; stroke: #ffffff; stroke-width: 0.345591"/>
    <path d="M 268.39976 133.386441 
C 269.129897 133.386441 269.830229 133.096354 270.346514 132.580069 
C 270.862799 132.063784 271.152886 131.363453 271.152886 130.633315 
C 271.152886 129.903178 270.862799 129.202846 270.346514 128.686561 
C 269.830229 128.170276 269.129897 127.880189 268.39976 127.880189 
C 267.669622 127.880189 266.969291 128.170276 266.453006 128.686561 
C 265.936721 129.202846 265.646634 129.903178 265.646634 130.633315 
C 265.646634 131.363453 265.936721 132.063784 266.453006 132.580069 
C 266.969291 133.096354 267.669622 133.386441 268.39976 133.386441 
z
" clip-path="url(#pedbc07c9ed)" style="fill: #800080; stroke: #ffffff; stroke-width: 0.345591"/>
    <path d="M 275.479691 207.358405 
C 276.161676 207.358405 276.81582 207.08745 277.298056 206.605214 
C 277.780292 206.122978 278.051248 205.468833 278.051248 204.786849 
C 278.051248 204.104864 277.780292 203.45072 277.298056 202.968484 
C 276.81582 202.486248 276.161676 202.215292 275.479691 202.215292 
C 274.797707 202.215292 274.143562 202.486248 273.661326 202.968484 
C 273.17909 203.45072 272.908135 204.104864 272.908135 204.786849 
C 272.908135 205.468833 273.17909 206.122978 273.661326 206.605214 
C 274.143562 207.08745 274.797707 207.358405 275.479691 207.358405 
z
" clip-path="url(#pedbc07c9ed)" style="fill: #800080; stroke: #ffffff; stroke-width: 0.345591"/>
    <path d="M 282.559623 157.195294 
C 283.261693 157.195294 283.935103 156.916359 284.431541 156.41992 
C 284.92798 155.923482 285.206915 155.250072 285.206915 154.548002 
C 285.206915 153.845931 284.92798 153.172522 284.431541 152.676083 
C 283.935103 152.179644 283.261693 151.900709 282.559623 151.900709 
C 281.857552 151.900709 281.184143 152.179644 280.687704 152.676083 
C 280.191266 153.172522 279.91233 153.845931 279.91233 154.548002 
C 279.91233 155.250072 280.191266 155.923482 280.687704 156.41992 
C 281.184143 156.916359 281.857552 157.195294 282.559623 157.195294 
z
" clip-path="url(#pedbc07c9ed)" style="fill: #800080; stroke: #ffffff; stroke-width: 0.345591"/>
    <path d="M 289.639554 179.894791 
C 290.344502 179.894791 291.020673 179.614712 291.519147 179.116239 
C 292.01762 178.617765 292.297699 177.941595 292.297699 177.236646 
C 292.297699 176.531698 292.01762 175.855527 291.519147 175.357054 
C 291.020673 174.85858 290.344502 174.578501 289.639554 174.578501 
C 288.934606 174.578501 288.258435 174.85858 287.759962 175.357054 
C 287.261488 175.855527 286.981409 176.531698 286.981409 177.236646 
C 286.981409 177.941595 287.261488 178.617765 287.759962 179.116239 
C 288.258435 179.614712 288.934606 179.894791 289.639554 179.894791 
z
" clip-path="url(#pedbc07c9ed)" style="fill: #800080; stroke: #ffffff; stroke-width: 0.345591"/>
    <path d="M 296.719485 130.010814 
C 297.550259 130.010814 298.347119 129.680744 298.934565 129.093298 
C 299.522011 128.505852 299.852081 127.708993 299.852081 126.878219 
C 299.852081 126.047445 299.522011 125.250585 298.934565 124.663139 
C 298.347119 124.075693 297.550259 123.745623 296.719485 123.745623 
C 295.888711 123.745623 295.091852 124.075693 294.504406 124.663139 
C 293.91696 125.250585 293.58689 126.047445 293.58689 126.878219 
C 293.58689 127.708993 293.91696 128.505852 294.504406 129.093298 
C 295.091852 129.680744 295.888711 130.010814 296.719485 130.010814 
z
" clip-path="url(#pedbc07c9ed)" style="fill: #800080; stroke: #ffffff; stroke-width: 0.345591"/>
    <path d="M 303.799417 129.127633 
C 304.637279 129.127633 305.440938 128.794747 306.033396 128.202288 
C 306.625855 127.60983 306.958741 126.806171 306.958741 125.968309 
C 306.958741 125.130446 306.625855 124.326788 306.033396 123.734329 
C 305.440938 123.141871 304.637279 122.808985 303.799417 122.808985 
C 302.961554 122.808985 302.157896 123.141871 301.565437 123.734329 
C 300.972979 124.326788 300.640093 125.130446 300.640093 125.968309 
C 300.640093 126.806171 300.972979 127.60983 301.565437 128.202288 
C 302.157896 128.794747 302.961554 129.127633 303.799417 129.127633 
z
" clip-path="url(#pedbc07c9ed)" style="fill: #800080; stroke: #ffffff; stroke-width: 0.345591"/>
    <path d="M 310.879348 153.179846 
C 311.617354 153.179846 312.325232 152.886634 312.84708 152.364785 
C 313.368929 151.842936 313.662141 151.135058 313.662141 150.397053 
C 313.662141 149.659048 313.368929 148.95117 312.84708 148.429321 
C 312.325232 147.907473 311.617354 147.61426 310.879348 147.61426 
C 310.141343 147.61426 309.433465 147.907473 308.911616 148.429321 
C 308.389768 148.95117 308.096555 149.659048 308.096555 150.397053 
C 308.096555 151.135058 308.389768 151.842936 308.911616 152.364785 
C 309.433465 152.886634 310.141343 153.179846 310.879348 153.179846 
z
" clip-path="url(#pedbc07c9ed)" style="fill: #800080; stroke: #ffffff; stroke-width: 0.345591"/>
    <path d="M 317.95928 124.00859 
C 318.796292 124.00859 319.599135 123.676041 320.190993 123.084184 
C 320.78285 122.492327 321.115398 121.689484 321.115398 120.852471 
C 321.115398 120.015459 320.78285 119.212615 320.190993 118.620758 
C 319.599135 118.028901 318.796292 117.696352 317.95928 117.696352 
C 317.122267 117.696352 316.319424 118.028901 315.727567 118.620758 
C 315.135709 119.212615 314.803161 120.015459 314.803161 120.852471 
C 314.803161 121.689484 315.135709 122.492327 315.727567 123.084184 
C 316.319424 123.676041 317.122267 124.00859 317.95928 124.00859 
z
" clip-path="url(#pedbc07c9ed)" style="fill: #800080; stroke: #ffffff; stroke-width: 0.345591"/>
    <path d="M 325.039211 114.504528 
C 325.92812 114.504528 326.780742 114.15136 327.409296 113.522806 
C 328.03785 112.894253 328.391017 112.041631 328.391017 111.152722 
C 328.391017 110.263812 328.03785 109.411191 327.409296 108.782637 
C 326.780742 108.154083 325.92812 107.800915 325.039211 107.800915 
C 324.150302 107.800915 323.29768 108.154083 322.669126 108.782637 
C 322.040572 109.411191 321.687405 110.263812 321.687405 111.152722 
C 321.687405 112.041631 322.040572 112.894253 322.669126 113.522806 
C 323.29768 114.15136 324.150302 114.504528 325.039211 114.504528 
z
" clip-path="url(#pedbc07c9ed)" style="fill: #800080; stroke: #ffffff; stroke-width: 0.345591"/>
    <path d="M 332.119142 128.831327 
C 332.98705 128.831327 333.819527 128.486504 334.433231 127.8728 
C 335.046934 127.259097 335.391758 126.42662 335.391758 125.558712 
C 335.391758 124.690804 335.046934 123.858327 334.433231 123.244623 
C 333.819527 122.63092 332.98705 122.286097 332.119142 122.286097 
C 331.251235 122.286097 330.418757 122.63092 329.805054 123.244623 
C 329.19135 123.858327 328.846527 124.690804 328.846527 125.558712 
C 328.846527 126.42662 329.19135 127.259097 329.805054 127.8728 
C 330.418757 128.486504 331.251235 128.831327 332.119142 128.831327 
z
" clip-path="url(#pedbc07c9ed)" style="fill: #800080; stroke: #ffffff; stroke-width: 0.345591"/>
    <path d="M 339.199074 123.693366 
C 340.080434 123.693366 340.925814 123.343198 341.54903 122.719982 
C 342.172245 122.096767 342.522413 121.251386 342.522413 120.370026 
C 342.522413 119.488666 342.172245 118.643286 341.54903 118.02007 
C 340.925814 117.396855 340.080434 117.046687 339.199074 117.046687 
C 338.317714 117.046687 337.472333 117.396855 336.849118 118.02007 
C 336.225902 118.643286 335.875734 119.488666 335.875734 120.370026 
C 335.875734 121.251386 336.225902 122.096767 336.849118 122.719982 
C 337.472333 123.343198 338.317714 123.693366 339.199074 123.693366 
z
" clip-path="url(#pedbc07c9ed)" style="fill: #800080; stroke: #ffffff; stroke-width: 0.345591"/>
    <path d="M 346.279005 106.017841 
C 347.246489 106.017841 348.174478 105.633456 348.858592 104.949341 
C 349.542707 104.265227 349.927092 103.337238 349.927092 102.369754 
C 349.927092 101.40227 349.542707 100.474282 348.858592 99.790167 
C 348.174478 99.106053 347.246489 98.721667 346.279005 98.721667 
C 345.311521 98.721667 344.383533 99.106053 343.699418 99.790167 
C 343.015304 100.474282 342.630918 101.40227 342.630918 102.369754 
C 342.630918 103.337238 343.015304 104.265227 343.699418 104.949341 
C 344.383533 105.633456 345.311521 106.017841 346.279005 106.017841 
z
" clip-path="url(#pedbc07c9ed)" style="fill: #800080; stroke: #ffffff; stroke-width: 0.345591"/>
    <path d="M 353.358937 107.28955 
C 354.374983 107.28955 355.349552 106.88587 356.068006 106.167417 
C 356.786459 105.448963 357.190139 104.474394 357.190139 103.458347 
C 357.190139 102.442301 356.786459 101.467732 356.068006 100.749278 
C 355.349552 100.030825 354.374983 99.627145 353.358937 99.627145 
C 352.34289 99.627145 351.368321 100.030825 350.649867 100.749278 
C 349.931414 101.467732 349.527734 102.442301 349.527734 103.458347 
C 349.527734 104.474394 349.931414 105.448963 350.649867 106.167417 
C 351.368321 106.88587 352.34289 107.28955 353.358937 107.28955 
z
" clip-path="url(#pedbc07c9ed)" style="fill: #800080; stroke: #ffffff; stroke-width: 0.345591"/>
    <path d="M 360.438868 123.416557 
C 361.36164 123.416557 362.246743 123.049936 362.899242 122.397437 
C 363.55174 121.744938 363.918362 120.859836 363.918362 119.937063 
C 363.918362 119.014291 363.55174 118.129188 362.899242 117.47669 
C 362.246743 116.824191 361.36164 116.457569 360.438868 116.457569 
C 359.516095 116.457569 358.630993 116.824191 357.978494 117.47669 
C 357.325996 118.129188 356.959374 119.014291 356.959374 119.937063 
C 356.959374 120.859836 357.325996 121.744938 357.978494 122.397437 
C 358.630993 123.049936 359.516095 123.416557 360.438868 123.416557 
z
" clip-path="url(#pedbc07c9ed)" style="fill: #800080; stroke: #ffffff; stroke-width: 0.345591"/>
    <path d="M 367.518799 103.541076 
C 368.579251 103.541076 369.596412 103.119754 370.346264 102.369901 
C 371.096117 101.620049 371.517439 100.602888 371.517439 99.542436 
C 371.517439 98.481985 371.096117 97.464824 370.346264 96.714971 
C 369.596412 95.965118 368.579251 95.543797 367.518799 95.543797 
C 366.458348 95.543797 365.441187 95.965118 364.691334 96.714971 
C 363.941482 97.464824 363.52016 98.481985 363.52016 99.542436 
C 363.52016 100.602888 363.941482 101.620049 364.691334 102.369901 
C 365.441187 103.119754 366.458348 103.541076 367.518799 103.541076 
z
" clip-path="url(#pedbc07c9ed)" style="fill: #800080; stroke: #ffffff; stroke-width: 0.345591"/>
    <path d="M 374.598731 89.641051 
C 375.716453 89.641051 376.788546 89.196975 377.578895 88.406627 
C 378.369244 87.616278 378.813319 86.544184 378.813319 85.426462 
C 378.813319 84.30874 378.369244 83.236647 377.578895 82.446298 
C 376.788546 81.655949 375.716453 81.211874 374.598731 81.211874 
C 373.481009 81.211874 372.408915 81.655949 371.618566 82.446298 
C 370.828218 83.236647 370.384142 84.30874 370.384142 85.426462 
C 370.384142 86.544184 370.828218 87.616278 371.618566 88.406627 
C 372.408915 89.196975 373.481009 89.641051 374.598731 89.641051 
z
" clip-path="url(#pedbc07c9ed)" style="fill: #800080; stroke: #ffffff; stroke-width: 0.345591"/>
    <path d="M 381.678662 77.926867 
C 382.803824 77.926867 383.883053 77.479835 384.678662 76.684226 
C 385.474271 75.888617 385.921303 74.809388 385.921303 73.684226 
C 385.921303 72.559065 385.474271 71.479835 384.678662 70.684226 
C 383.883053 69.888617 382.803824 69.441586 381.678662 69.441586 
C 380.553501 69.441586 379.474271 69.888617 378.678662 70.684226 
C 377.883053 71.479835 377.436021 72.559065 377.436021 73.684226 
C 377.436021 74.809388 377.883053 75.888617 378.678662 76.684226 
C 379.474271 77.479835 380.553501 77.926867 381.678662 77.926867 
z
" clip-path="url(#pedbc07c9ed)" style="fill: #800080; stroke: #ffffff; stroke-width: 0.345591"/>
    <path d="M 388.758593 83.762625 
C 389.873831 83.762625 390.943541 83.319537 391.732132 82.530945 
C 392.520724 81.742353 392.963813 80.672643 392.963813 79.557406 
C 392.963813 78.442169 392.520724 77.372459 391.732132 76.583867 
C 390.943541 75.795275 389.873831 75.352187 388.758593 75.352187 
C 387.643356 75.352187 386.573646 75.795275 385.785055 76.583867 
C 384.996463 77.372459 384.553374 78.442169 384.553374 79.557406 
C 384.553374 80.672643 384.996463 81.742353 385.785055 82.530945 
C 386.573646 83.319537 387.643356 83.762625 388.758593 83.762625 
z
" clip-path="url(#pedbc07c9ed)" style="fill: #800080; stroke: #ffffff; stroke-width: 0.345591"/>
    <path d="M 395.838525 77.592205 
C 396.917217 77.592205 397.951874 77.163636 398.714625 76.400886 
C 399.477375 75.638135 399.905944 74.603478 399.905944 73.524786 
C 399.905944 72.446094 399.477375 71.411437 398.714625 70.648686 
C 397.951874 69.885935 396.917217 69.457367 395.838525 69.457367 
C 394.759833 69.457367 393.725176 69.885935 392.962425 70.648686 
C 392.199675 71.411437 391.771106 72.446094 391.771106 73.524786 
C 391.771106 74.603478 392.199675 75.638135 392.962425 76.400886 
C 393.725176 77.163636 394.759833 77.592205 395.838525 77.592205 
z
" clip-path="url(#pedbc07c9ed)" style="fill: #800080; stroke: #ffffff; stroke-width: 0.345591"/>
    <path d="M 402.918456 69.545473 
C 403.978793 69.545473 404.995843 69.124197 405.745614 68.374426 
C 406.495385 67.624655 406.916661 66.607604 406.916661 65.547268 
C 406.916661 64.486931 406.495385 63.469881 405.745614 62.72011 
C 404.995843 61.970338 403.978793 61.549062 402.918456 61.549062 
C 401.85812 61.549062 400.841069 61.970338 400.091298 62.72011 
C 399.341527 63.469881 398.920251 64.486931 398.920251 65.547268 
C 398.920251 66.607604 399.341527 67.624655 400.091298 68.374426 
C 400.841069 69.124197 401.85812 69.545473 402.918456 69.545473 
z
" clip-path="url(#pedbc07c9ed)" style="fill: #800080; stroke: #ffffff; stroke-width: 0.345591"/>
    <path d="M 409.998388 61.23343 
C 410.924442 61.23343 411.812693 60.865505 412.467513 60.210685 
C 413.122332 59.555865 413.490258 58.667615 413.490258 57.74156 
C 413.490258 56.815505 413.122332 55.927255 412.467513 55.272435 
C 411.812693 54.617616 410.924442 54.24969 409.998388 54.24969 
C 409.072333 54.24969 408.184082 54.617616 407.529263 55.272435 
C 406.874443 55.927255 406.506518 56.815505 406.506518 57.74156 
C 406.506518 58.667615 406.874443 59.555865 407.529263 60.210685 
C 408.184082 60.865505 409.072333 61.23343 409.998388 61.23343 
z
" clip-path="url(#pedbc07c9ed)" style="fill: #800080; stroke: #ffffff; stroke-width: 0.345591"/>
    <path d="M 417.078319 60.708446 
C 417.956276 60.708446 418.798392 60.35963 419.419201 59.738821 
C 420.04001 59.118011 420.388826 58.275895 420.388826 57.397939 
C 420.388826 56.519982 420.04001 55.677866 419.419201 55.057057 
C 418.798392 54.436247 417.956276 54.087432 417.078319 54.087432 
C 416.200362 54.087432 415.358246 54.436247 414.737437 55.057057 
C 414.116628 55.677866 413.767812 56.519982 413.767812 57.397939 
C 413.767812 58.275895 414.116628 59.118011 414.737437 59.738821 
C 415.358246 60.35963 416.200362 60.708446 417.078319 60.708446 
z
" clip-path="url(#pedbc07c9ed)" style="fill: #800080; stroke: #ffffff; stroke-width: 0.345591"/>
    <path d="M 424.15825 54.13008 
C 424.976771 54.13008 425.761877 53.804878 426.340659 53.226097 
C 426.91944 52.647315 427.244642 51.862209 427.244642 51.043689 
C 427.244642 50.225168 426.91944 49.440062 426.340659 48.86128 
C 425.761877 48.282499 424.976771 47.957297 424.15825 47.957297 
C 423.33973 47.957297 422.554624 48.282499 421.975842 48.86128 
C 421.397061 49.440062 421.071859 50.225168 421.071859 51.043689 
C 421.071859 51.862209 421.397061 52.647315 421.975842 53.226097 
C 422.554624 53.804878 423.33973 54.13008 424.15825 54.13008 
z
" clip-path="url(#pedbc07c9ed)" style="fill: #800080; stroke: #ffffff; stroke-width: 0.345591"/>
    <path d="M 431.238182 41.435322 
C 431.942607 41.435322 432.618276 41.155451 433.116381 40.657346 
C 433.614485 40.159242 433.894356 39.483573 433.894356 38.779148 
C 433.894356 38.074722 433.614485 37.399053 433.116381 36.900949 
C 432.618276 36.402845 431.942607 36.122974 431.238182 36.122974 
C 430.533756 36.122974 429.858087 36.402845 429.359983 36.900949 
C 428.861879 37.399053 428.582008 38.074722 428.582008 38.779148 
C 428.582008 39.483573 428.861879 40.159242 429.359983 40.657346 
C 429.858087 41.155451 430.533756 41.435322 431.238182 41.435322 
z
" clip-path="url(#pedbc07c9ed)" style="fill: #800080; stroke: #ffffff; stroke-width: 0.345591"/>
   </g>
   <g id="patch_3">
    <path d="M 37.24 317.72 
L 37.24 25.49625 
" style="fill: none; stroke: #ffffff; stroke-width: 0.8; stroke-linejoin: miter; stroke-linecap: square"/>
   </g>
   <g id="patch_4">
    <path d="M 450 317.72 
L 450 25.49625 
" style="fill: none; stroke: #ffffff; stroke-width: 0.8; stroke-linejoin: miter; stroke-linecap: square"/>
   </g>
   <g id="patch_5">
    <path d="M 37.24 317.72 
L 450 317.72 
" style="fill: none; stroke: #ffffff; stroke-width: 0.8; stroke-linejoin: miter; stroke-linecap: square"/>
   </g>
   <g id="patch_6">
    <path d="M 37.24 25.49625 
L 450 25.49625 
" style="fill: none; stroke: #ffffff; stroke-width: 0.8; stroke-linejoin: miter; stroke-linecap: square"/>
   </g>
   <g id="text_15">
    <!-- Yearly average ratings -->
    <g style="fill: #262626" transform="translate(184.139375 19.49625) scale(0.12 -0.12)">
     <defs>
      <path id="ArialMT-59" d="M 1784 0 
L 1784 1941 
L 19 4581 
L 756 4581 
L 1659 3200 
Q 1909 2813 2125 2425 
Q 2331 2784 2625 3234 
L 3513 4581 
L 4219 4581 
L 2391 1941 
L 2391 0 
L 1784 0 
z
" transform="scale(0.015625)"/>
      <path id="ArialMT-65" d="M 2694 1069 
L 3275 997 
Q 3138 488 2766 206 
Q 2394 -75 1816 -75 
Q 1088 -75 661 373 
Q 234 822 234 1631 
Q 234 2469 665 2931 
Q 1097 3394 1784 3394 
Q 2450 3394 2872 2941 
Q 3294 2488 3294 1666 
Q 3294 1616 3291 1516 
L 816 1516 
Q 847 969 1125 678 
Q 1403 388 1819 388 
Q 2128 388 2347 550 
Q 2566 713 2694 1069 
z
M 847 1978 
L 2700 1978 
Q 2663 2397 2488 2606 
Q 2219 2931 1791 2931 
Q 1403 2931 1139 2672 
Q 875 2413 847 1978 
z
" transform="scale(0.015625)"/>
      <path id="ArialMT-61" d="M 2588 409 
Q 2275 144 1986 34 
Q 1697 -75 1366 -75 
Q 819 -75 525 192 
Q 231 459 231 875 
Q 231 1119 342 1320 
Q 453 1522 633 1644 
Q 813 1766 1038 1828 
Q 1203 1872 1538 1913 
Q 2219 1994 2541 2106 
Q 2544 2222 2544 2253 
Q 2544 2597 2384 2738 
Q 2169 2928 1744 2928 
Q 1347 2928 1158 2789 
Q 969 2650 878 2297 
L 328 2372 
Q 403 2725 575 2942 
Q 747 3159 1072 3276 
Q 1397 3394 1825 3394 
Q 2250 3394 2515 3294 
Q 2781 3194 2906 3042 
Q 3031 2891 3081 2659 
Q 3109 2516 3109 2141 
L 3109 1391 
Q 3109 606 3145 398 
Q 3181 191 3288 0 
L 2700 0 
Q 2613 175 2588 409 
z
M 2541 1666 
Q 2234 1541 1622 1453 
Q 1275 1403 1131 1340 
Q 988 1278 909 1158 
Q 831 1038 831 891 
Q 831 666 1001 516 
Q 1172 366 1500 366 
Q 1825 366 2078 508 
Q 2331 650 2450 897 
Q 2541 1088 2541 1459 
L 2541 1666 
z
" transform="scale(0.015625)"/>
      <path id="ArialMT-72" d="M 416 0 
L 416 3319 
L 922 3319 
L 922 2816 
Q 1116 3169 1280 3281 
Q 1444 3394 1641 3394 
Q 1925 3394 2219 3213 
L 2025 2691 
Q 1819 2813 1613 2813 
Q 1428 2813 1281 2702 
Q 1134 2591 1072 2394 
Q 978 2094 978 1738 
L 978 0 
L 416 0 
z
" transform="scale(0.015625)"/>
      <path id="ArialMT-6c" d="M 409 0 
L 409 4581 
L 972 4581 
L 972 0 
L 409 0 
z
" transform="scale(0.015625)"/>
      <path id="ArialMT-79" d="M 397 -1278 
L 334 -750 
Q 519 -800 656 -800 
Q 844 -800 956 -737 
Q 1069 -675 1141 -563 
Q 1194 -478 1313 -144 
Q 1328 -97 1363 -6 
L 103 3319 
L 709 3319 
L 1400 1397 
Q 1534 1031 1641 628 
Q 1738 1016 1872 1384 
L 2581 3319 
L 3144 3319 
L 1881 -56 
Q 1678 -603 1566 -809 
Q 1416 -1088 1222 -1217 
Q 1028 -1347 759 -1347 
Q 597 -1347 397 -1278 
z
" transform="scale(0.015625)"/>
      <path id="ArialMT-20" transform="scale(0.015625)"/>
      <path id="ArialMT-76" d="M 1344 0 
L 81 3319 
L 675 3319 
L 1388 1331 
Q 1503 1009 1600 663 
Q 1675 925 1809 1294 
L 2547 3319 
L 3125 3319 
L 1869 0 
L 1344 0 
z
" transform="scale(0.015625)"/>
      <path id="ArialMT-67" d="M 319 -275 
L 866 -356 
Q 900 -609 1056 -725 
Q 1266 -881 1628 -881 
Q 2019 -881 2231 -725 
Q 2444 -569 2519 -288 
Q 2563 -116 2559 434 
Q 2191 0 1641 0 
Q 956 0 581 494 
Q 206 988 206 1678 
Q 206 2153 378 2554 
Q 550 2956 876 3175 
Q 1203 3394 1644 3394 
Q 2231 3394 2613 2919 
L 2613 3319 
L 3131 3319 
L 3131 450 
Q 3131 -325 2973 -648 
Q 2816 -972 2473 -1159 
Q 2131 -1347 1631 -1347 
Q 1038 -1347 672 -1080 
Q 306 -813 319 -275 
z
M 784 1719 
Q 784 1066 1043 766 
Q 1303 466 1694 466 
Q 2081 466 2343 764 
Q 2606 1063 2606 1700 
Q 2606 2309 2336 2618 
Q 2066 2928 1684 2928 
Q 1309 2928 1046 2623 
Q 784 2319 784 1719 
z
" transform="scale(0.015625)"/>
      <path id="ArialMT-74" d="M 1650 503 
L 1731 6 
Q 1494 -44 1306 -44 
Q 1000 -44 831 53 
Q 663 150 594 308 
Q 525 466 525 972 
L 525 2881 
L 113 2881 
L 113 3319 
L 525 3319 
L 525 4141 
L 1084 4478 
L 1084 3319 
L 1650 3319 
L 1650 2881 
L 1084 2881 
L 1084 941 
Q 1084 700 1114 631 
Q 1144 563 1211 522 
Q 1278 481 1403 481 
Q 1497 481 1650 503 
z
" transform="scale(0.015625)"/>
      <path id="ArialMT-69" d="M 425 3934 
L 425 4581 
L 988 4581 
L 988 3934 
L 425 3934 
z
M 425 0 
L 425 3319 
L 988 3319 
L 988 0 
L 425 0 
z
" transform="scale(0.015625)"/>
      <path id="ArialMT-6e" d="M 422 0 
L 422 3319 
L 928 3319 
L 928 2847 
Q 1294 3394 1984 3394 
Q 2284 3394 2536 3286 
Q 2788 3178 2913 3003 
Q 3038 2828 3088 2588 
Q 3119 2431 3119 2041 
L 3119 0 
L 2556 0 
L 2556 2019 
Q 2556 2363 2490 2533 
Q 2425 2703 2258 2804 
Q 2091 2906 1866 2906 
Q 1506 2906 1245 2678 
Q 984 2450 984 1813 
L 984 0 
L 422 0 
z
" transform="scale(0.015625)"/>
      <path id="ArialMT-73" d="M 197 991 
L 753 1078 
Q 800 744 1014 566 
Q 1228 388 1613 388 
Q 2000 388 2187 545 
Q 2375 703 2375 916 
Q 2375 1106 2209 1216 
Q 2094 1291 1634 1406 
Q 1016 1563 777 1677 
Q 538 1791 414 1992 
Q 291 2194 291 2438 
Q 291 2659 392 2848 
Q 494 3038 669 3163 
Q 800 3259 1026 3326 
Q 1253 3394 1513 3394 
Q 1903 3394 2198 3281 
Q 2494 3169 2634 2976 
Q 2775 2784 2828 2463 
L 2278 2388 
Q 2241 2644 2061 2787 
Q 1881 2931 1553 2931 
Q 1166 2931 1000 2803 
Q 834 2675 834 2503 
Q 834 2394 903 2306 
Q 972 2216 1119 2156 
Q 1203 2125 1616 2013 
Q 2213 1853 2448 1751 
Q 2684 1650 2818 1456 
Q 2953 1263 2953 975 
Q 2953 694 2789 445 
Q 2625 197 2315 61 
Q 2006 -75 1616 -75 
Q 969 -75 630 194 
Q 291 463 197 991 
z
" transform="scale(0.015625)"/>
     </defs>
     <use xlink:href="#ArialMT-59"/>
     <use xlink:href="#ArialMT-65" x="57.574219"/>
     <use xlink:href="#ArialMT-61" x="113.189453"/>
     <use xlink:href="#ArialMT-72" x="168.804688"/>
     <use xlink:href="#ArialMT-6c" x="202.105469"/>
     <use xlink:href="#ArialMT-79" x="224.322266"/>
     <use xlink:href="#ArialMT-20" x="274.322266"/>
     <use xlink:href="#ArialMT-61" x="302.105469"/>
     <use xlink:href="#ArialMT-76" x="357.720703"/>
     <use xlink:href="#ArialMT-65" x="407.720703"/>
     <use xlink:href="#ArialMT-72" x="463.335938"/>
     <use xlink:href="#ArialMT-61" x="496.636719"/>
     <use xlink:href="#ArialMT-67" x="552.251953"/>
     <use xlink:href="#ArialMT-65" x="607.867188"/>
     <use xlink:href="#ArialMT-20" x="663.482422"/>
     <use xlink:href="#ArialMT-72" x="691.265625"/>
     <use xlink:href="#ArialMT-61" x="724.566406"/>
     <use xlink:href="#ArialMT-74" x="780.181641"/>
     <use xlink:href="#ArialMT-69" x="807.964844"/>
     <use xlink:href="#ArialMT-6e" x="830.181641"/>
     <use xlink:href="#ArialMT-67" x="885.796875"/>
     <use xlink:href="#ArialMT-73" x="941.412109"/>
    </g>
   </g>
  </g>
 </g>
 <defs>
  <clipPath id="pedbc07c9ed">
   <rect x="37.24" y="25.49625" width="412.76" height="292.22375"/>
  </clipPath>
 </defs>
</svg>
