<?xml version="1.0" encoding="utf-8" standalone="no"?>
<!DOCTYPE svg PUBLIC "-//W3C//DTD SVG 1.1//EN"
  "http://www.w3.org/Graphics/SVG/1.1/DTD/svg11.dtd">
<svg xmlns:xlink="http://www.w3.org/1999/xlink" width="460.8pt" height="345.6pt" viewBox="0 0 460.8 345.6" xmlns="http://www.w3.org/2000/svg" version="1.1">
 <metadata>
  <rdf:RDF xmlns:dc="http://purl.org/dc/elements/1.1/" xmlns:cc="http://creativecommons.org/ns#" xmlns:rdf="http://www.w3.org/1999/02/22-rdf-syntax-ns#">
   <cc:Work>
    <dc:type rdf:resource="http://purl.org/dc/dcmitype/StillImage"/>
    <dc:date>2024-08-19T08:31:33.560842</dc:date>
    <dc:format>image/svg+xml</dc:format>
    <dc:creator>
     <cc:Agent>
      <dc:title>Matplotlib v3.9.2, https://matplotlib.org/</dc:title>
     </cc:Agent>
    </dc:creator>
   </cc:Work>
  </rdf:RDF>
 </metadata>
 <defs>
  <style type="text/css">*{stroke-linejoin: round; stroke-linecap: butt}</style>
 </defs>
 <g id="figure_1">
  <g id="patch_1">
   <path d="M 0 345.6 
L 460.8 345.6 
L 460.8 0 
L 0 0 
z
" style="fill: #ffffff"/>
  </g>
  <g id="axes_1">
   <g id="patch_2">
    <path d="M 31.66 317.72 
L 450 317.72 
L 450 25.49625 
L 31.66 25.49625 
z
" style="fill: #eaeaf2"/>
   </g>
   <g id="matplotlib.axis_1">
    <g id="xtick_1">
     <g id="text_1">
      <!-- 1970 -->
      <g style="fill: #262626" transform="translate(39.55358 331.877812) scale(0.1 -0.1)">
       <defs>
        <path id="ArialMT-31" d="M 2384 0 
L 1822 0 
L 1822 3584 
Q 1619 3391 1289 3197 
Q 959 3003 697 2906 
L 697 3450 
Q 1169 3672 1522 3987 
Q 1875 4303 2022 4600 
L 2384 4600 
L 2384 0 
z
" transform="scale(0.015625)"/>
        <path id="ArialMT-39" d="M 350 1059 
L 891 1109 
Q 959 728 1153 556 
Q 1347 384 1650 384 
Q 1909 384 2104 503 
Q 2300 622 2425 820 
Q 2550 1019 2634 1356 
Q 2719 1694 2719 2044 
Q 2719 2081 2716 2156 
Q 2547 1888 2255 1720 
Q 1963 1553 1622 1553 
Q 1053 1553 659 1965 
Q 266 2378 266 3053 
Q 266 3750 677 4175 
Q 1088 4600 1706 4600 
Q 2153 4600 2523 4359 
Q 2894 4119 3086 3673 
Q 3278 3228 3278 2384 
Q 3278 1506 3087 986 
Q 2897 466 2520 194 
Q 2144 -78 1638 -78 
Q 1100 -78 759 220 
Q 419 519 350 1059 
z
M 2653 3081 
Q 2653 3566 2395 3850 
Q 2138 4134 1775 4134 
Q 1400 4134 1122 3828 
Q 844 3522 844 3034 
Q 844 2597 1108 2323 
Q 1372 2050 1759 2050 
Q 2150 2050 2401 2323 
Q 2653 2597 2653 3081 
z
" transform="scale(0.015625)"/>
        <path id="ArialMT-37" d="M 303 3981 
L 303 4522 
L 3269 4522 
L 3269 4084 
Q 2831 3619 2401 2847 
Q 1972 2075 1738 1259 
Q 1569 684 1522 0 
L 944 0 
Q 953 541 1156 1306 
Q 1359 2072 1739 2783 
Q 2119 3494 2547 3981 
L 303 3981 
z
" transform="scale(0.015625)"/>
        <path id="ArialMT-30" d="M 266 2259 
Q 266 3072 433 3567 
Q 600 4063 929 4331 
Q 1259 4600 1759 4600 
Q 2128 4600 2406 4451 
Q 2684 4303 2865 4023 
Q 3047 3744 3150 3342 
Q 3253 2941 3253 2259 
Q 3253 1453 3087 958 
Q 2922 463 2592 192 
Q 2263 -78 1759 -78 
Q 1097 -78 719 397 
Q 266 969 266 2259 
z
M 844 2259 
Q 844 1131 1108 757 
Q 1372 384 1759 384 
Q 2147 384 2411 759 
Q 2675 1134 2675 2259 
Q 2675 3391 2411 3762 
Q 2147 4134 1753 4134 
Q 1366 4134 1134 3806 
Q 844 3388 844 2259 
z
" transform="scale(0.015625)"/>
       </defs>
       <use xlink:href="#ArialMT-31"/>
       <use xlink:href="#ArialMT-39" x="55.615234"/>
       <use xlink:href="#ArialMT-37" x="111.230469"/>
       <use xlink:href="#ArialMT-30" x="166.845703"/>
      </g>
     </g>
    </g>
    <g id="xtick_2">
     <g id="text_2">
      <!-- 1980 -->
      <g style="fill: #262626" transform="translate(111.310012 331.877812) scale(0.1 -0.1)">
       <defs>
        <path id="ArialMT-38" d="M 1131 2484 
Q 781 2613 612 2850 
Q 444 3088 444 3419 
Q 444 3919 803 4259 
Q 1163 4600 1759 4600 
Q 2359 4600 2725 4251 
Q 3091 3903 3091 3403 
Q 3091 3084 2923 2848 
Q 2756 2613 2416 2484 
Q 2838 2347 3058 2040 
Q 3278 1734 3278 1309 
Q 3278 722 2862 322 
Q 2447 -78 1769 -78 
Q 1091 -78 675 323 
Q 259 725 259 1325 
Q 259 1772 486 2073 
Q 713 2375 1131 2484 
z
M 1019 3438 
Q 1019 3113 1228 2906 
Q 1438 2700 1772 2700 
Q 2097 2700 2305 2904 
Q 2513 3109 2513 3406 
Q 2513 3716 2298 3927 
Q 2084 4138 1766 4138 
Q 1444 4138 1231 3931 
Q 1019 3725 1019 3438 
z
M 838 1322 
Q 838 1081 952 856 
Q 1066 631 1291 507 
Q 1516 384 1775 384 
Q 2178 384 2440 643 
Q 2703 903 2703 1303 
Q 2703 1709 2433 1975 
Q 2163 2241 1756 2241 
Q 1359 2241 1098 1978 
Q 838 1716 838 1322 
z
" transform="scale(0.015625)"/>
       </defs>
       <use xlink:href="#ArialMT-31"/>
       <use xlink:href="#ArialMT-39" x="55.615234"/>
       <use xlink:href="#ArialMT-38" x="111.230469"/>
       <use xlink:href="#ArialMT-30" x="166.845703"/>
      </g>
     </g>
    </g>
    <g id="xtick_3">
     <g id="text_3">
      <!-- 1990 -->
      <g style="fill: #262626" transform="translate(183.066444 331.877812) scale(0.1 -0.1)">
       <use xlink:href="#ArialMT-31"/>
       <use xlink:href="#ArialMT-39" x="55.615234"/>
       <use xlink:href="#ArialMT-39" x="111.230469"/>
       <use xlink:href="#ArialMT-30" x="166.845703"/>
      </g>
     </g>
    </g>
    <g id="xtick_4">
     <g id="text_4">
      <!-- 2000 -->
      <g style="fill: #262626" transform="translate(254.822876 331.877812) scale(0.1 -0.1)">
       <defs>
        <path id="ArialMT-32" d="M 3222 541 
L 3222 0 
L 194 0 
Q 188 203 259 391 
Q 375 700 629 1000 
Q 884 1300 1366 1694 
Q 2113 2306 2375 2664 
Q 2638 3022 2638 3341 
Q 2638 3675 2398 3904 
Q 2159 4134 1775 4134 
Q 1369 4134 1125 3890 
Q 881 3647 878 3216 
L 300 3275 
Q 359 3922 746 4261 
Q 1134 4600 1788 4600 
Q 2447 4600 2831 4234 
Q 3216 3869 3216 3328 
Q 3216 3053 3103 2787 
Q 2991 2522 2730 2228 
Q 2469 1934 1863 1422 
Q 1356 997 1212 845 
Q 1069 694 975 541 
L 3222 541 
z
" transform="scale(0.015625)"/>
       </defs>
       <use xlink:href="#ArialMT-32"/>
       <use xlink:href="#ArialMT-30" x="55.615234"/>
       <use xlink:href="#ArialMT-30" x="111.230469"/>
       <use xlink:href="#ArialMT-30" x="166.845703"/>
      </g>
     </g>
    </g>
    <g id="xtick_5">
     <g id="text_5">
      <!-- 2010 -->
      <g style="fill: #262626" transform="translate(326.579309 331.877812) scale(0.1 -0.1)">
       <use xlink:href="#ArialMT-32"/>
       <use xlink:href="#ArialMT-30" x="55.615234"/>
       <use xlink:href="#ArialMT-31" x="111.230469"/>
       <use xlink:href="#ArialMT-30" x="166.845703"/>
      </g>
     </g>
    </g>
    <g id="xtick_6">
     <g id="text_6">
      <!-- 2020 -->
      <g style="fill: #262626" transform="translate(398.335741 331.877812) scale(0.1 -0.1)">
       <use xlink:href="#ArialMT-32"/>
       <use xlink:href="#ArialMT-30" x="55.615234"/>
       <use xlink:href="#ArialMT-32" x="111.230469"/>
       <use xlink:href="#ArialMT-30" x="166.845703"/>
      </g>
     </g>
    </g>
   </g>
   <g id="matplotlib.axis_2">
    <g id="ytick_1">
     <g id="text_7">
      <!-- 5.8 -->
      <g style="fill: #262626" transform="translate(10.76 291.947752) scale(0.1 -0.1)">
       <defs>
        <path id="ArialMT-35" d="M 266 1200 
L 856 1250 
Q 922 819 1161 601 
Q 1400 384 1738 384 
Q 2144 384 2425 690 
Q 2706 997 2706 1503 
Q 2706 1984 2436 2262 
Q 2166 2541 1728 2541 
Q 1456 2541 1237 2417 
Q 1019 2294 894 2097 
L 366 2166 
L 809 4519 
L 3088 4519 
L 3088 3981 
L 1259 3981 
L 1013 2750 
Q 1425 3038 1878 3038 
Q 2478 3038 2890 2622 
Q 3303 2206 3303 1553 
Q 3303 931 2941 478 
Q 2500 -78 1738 -78 
Q 1113 -78 717 272 
Q 322 622 266 1200 
z
" transform="scale(0.015625)"/>
        <path id="ArialMT-2e" d="M 581 0 
L 581 641 
L 1222 641 
L 1222 0 
L 581 0 
z
" transform="scale(0.015625)"/>
       </defs>
       <use xlink:href="#ArialMT-35"/>
       <use xlink:href="#ArialMT-2e" x="55.615234"/>
       <use xlink:href="#ArialMT-38" x="83.398438"/>
      </g>
     </g>
    </g>
    <g id="ytick_2">
     <g id="text_8">
      <!-- 6.0 -->
      <g style="fill: #262626" transform="translate(10.76 257.242508) scale(0.1 -0.1)">
       <defs>
        <path id="ArialMT-36" d="M 3184 3459 
L 2625 3416 
Q 2550 3747 2413 3897 
Q 2184 4138 1850 4138 
Q 1581 4138 1378 3988 
Q 1113 3794 959 3422 
Q 806 3050 800 2363 
Q 1003 2672 1297 2822 
Q 1591 2972 1913 2972 
Q 2475 2972 2870 2558 
Q 3266 2144 3266 1488 
Q 3266 1056 3080 686 
Q 2894 316 2569 119 
Q 2244 -78 1831 -78 
Q 1128 -78 684 439 
Q 241 956 241 2144 
Q 241 3472 731 4075 
Q 1159 4600 1884 4600 
Q 2425 4600 2770 4297 
Q 3116 3994 3184 3459 
z
M 888 1484 
Q 888 1194 1011 928 
Q 1134 663 1356 523 
Q 1578 384 1822 384 
Q 2178 384 2434 671 
Q 2691 959 2691 1453 
Q 2691 1928 2437 2201 
Q 2184 2475 1800 2475 
Q 1419 2475 1153 2201 
Q 888 1928 888 1484 
z
" transform="scale(0.015625)"/>
       </defs>
       <use xlink:href="#ArialMT-36"/>
       <use xlink:href="#ArialMT-2e" x="55.615234"/>
       <use xlink:href="#ArialMT-30" x="83.398438"/>
      </g>
     </g>
    </g>
    <g id="ytick_3">
     <g id="text_9">
      <!-- 6.2 -->
      <g style="fill: #262626" transform="translate(10.76 222.537265) scale(0.1 -0.1)">
       <use xlink:href="#ArialMT-36"/>
       <use xlink:href="#ArialMT-2e" x="55.615234"/>
       <use xlink:href="#ArialMT-32" x="83.398438"/>
      </g>
     </g>
    </g>
    <g id="ytick_4">
     <g id="text_10">
      <!-- 6.4 -->
      <g style="fill: #262626" transform="translate(10.76 187.832022) scale(0.1 -0.1)">
       <defs>
        <path id="ArialMT-34" d="M 2069 0 
L 2069 1097 
L 81 1097 
L 81 1613 
L 2172 4581 
L 2631 4581 
L 2631 1613 
L 3250 1613 
L 3250 1097 
L 2631 1097 
L 2631 0 
L 2069 0 
z
M 2069 1613 
L 2069 3678 
L 634 1613 
L 2069 1613 
z
" transform="scale(0.015625)"/>
       </defs>
       <use xlink:href="#ArialMT-36"/>
       <use xlink:href="#ArialMT-2e" x="55.615234"/>
       <use xlink:href="#ArialMT-34" x="83.398438"/>
      </g>
     </g>
    </g>
    <g id="ytick_5">
     <g id="text_11">
      <!-- 6.6 -->
      <g style="fill: #262626" transform="translate(10.76 153.126779) scale(0.1 -0.1)">
       <use xlink:href="#ArialMT-36"/>
       <use xlink:href="#ArialMT-2e" x="55.615234"/>
       <use xlink:href="#ArialMT-36" x="83.398438"/>
      </g>
     </g>
    </g>
    <g id="ytick_6">
     <g id="text_12">
      <!-- 6.8 -->
      <g style="fill: #262626" transform="translate(10.76 118.421536) scale(0.1 -0.1)">
       <use xlink:href="#ArialMT-36"/>
       <use xlink:href="#ArialMT-2e" x="55.615234"/>
       <use xlink:href="#ArialMT-38" x="83.398438"/>
      </g>
     </g>
    </g>
    <g id="ytick_7">
     <g id="text_13">
      <!-- 7.0 -->
      <g style="fill: #262626" transform="translate(10.76 83.716292) scale(0.1 -0.1)">
       <use xlink:href="#ArialMT-37"/>
       <use xlink:href="#ArialMT-2e" x="55.615234"/>
       <use xlink:href="#ArialMT-30" x="83.398438"/>
      </g>
     </g>
    </g>
    <g id="ytick_8">
     <g id="text_14">
      <!-- 7.2 -->
      <g style="fill: #262626" transform="translate(10.76 49.011049) scale(0.1 -0.1)">
       <use xlink:href="#ArialMT-37"/>
       <use xlink:href="#ArialMT-2e" x="55.615234"/>
       <use xlink:href="#ArialMT-32" x="83.398438"/>
      </g>
     </g>
    </g>
   </g>
   <g id="PathCollection_1">
    <path d="M 50.675455 241.882317 
C 50.805994 241.882317 50.931204 241.830453 51.02351 241.738148 
C 51.115815 241.645843 51.167679 241.520632 51.167679 241.390093 
C 51.167679 241.259553 51.115815 241.134343 51.02351 241.042038 
C 50.931204 240.949732 50.805994 240.897868 50.675455 240.897868 
C 50.544915 240.897868 50.419705 240.949732 50.327399 241.042038 
C 50.235094 241.134343 50.18323 241.259553 50.18323 241.390093 
C 50.18323 241.520632 50.235094 241.645843 50.327399 241.738148 
C 50.419705 241.830453 50.544915 241.882317 50.675455 241.882317 
z
" clip-path="url(#p47b57527fa)" style="fill: #800080; fill-opacity: 0.8; stroke: #800080; stroke-opacity: 0.8"/>
    <path d="M 57.851098 234.844995 
C 57.980035 234.844995 58.10371 234.793768 58.194882 234.702595 
C 58.286055 234.611422 58.337282 234.487748 58.337282 234.358811 
C 58.337282 234.229873 58.286055 234.106199 58.194882 234.015026 
C 58.10371 233.923853 57.980035 233.872626 57.851098 233.872626 
C 57.72216 233.872626 57.598486 233.923853 57.507313 234.015026 
C 57.416141 234.106199 57.364913 234.229873 57.364913 234.358811 
C 57.364913 234.487748 57.416141 234.611422 57.507313 234.702595 
C 57.598486 234.793768 57.72216 234.844995 57.851098 234.844995 
z
" clip-path="url(#p47b57527fa)" style="fill: #800080; fill-opacity: 0.8; stroke: #800080; stroke-opacity: 0.8"/>
    <path d="M 65.026741 251.208181 
C 65.196087 251.208181 65.358519 251.140899 65.478265 251.021154 
C 65.598011 250.901408 65.665292 250.738975 65.665292 250.56963 
C 65.665292 250.400284 65.598011 250.237851 65.478265 250.118106 
C 65.358519 249.99836 65.196087 249.931078 65.026741 249.931078 
C 64.857395 249.931078 64.694963 249.99836 64.575217 250.118106 
C 64.455471 250.237851 64.38819 250.400284 64.38819 250.56963 
C 64.38819 250.738975 64.455471 250.901408 64.575217 251.021154 
C 64.694963 251.140899 64.857395 251.208181 65.026741 251.208181 
z
" clip-path="url(#p47b57527fa)" style="fill: #800080; fill-opacity: 0.8; stroke: #800080; stroke-opacity: 0.8"/>
    <path d="M 72.202384 263.855145 
C 72.380113 263.855145 72.550586 263.784533 72.676258 263.65886 
C 72.801931 263.533187 72.872544 263.362714 72.872544 263.184986 
C 72.872544 263.007257 72.801931 262.836784 72.676258 262.711111 
C 72.550586 262.585438 72.380113 262.514826 72.202384 262.514826 
C 72.024656 262.514826 71.854183 262.585438 71.72851 262.711111 
C 71.602837 262.836784 71.532225 263.007257 71.532225 263.184986 
C 71.532225 263.362714 71.602837 263.533187 71.72851 263.65886 
C 71.854183 263.784533 72.024656 263.855145 72.202384 263.855145 
z
" clip-path="url(#p47b57527fa)" style="fill: #800080; fill-opacity: 0.8; stroke: #800080; stroke-opacity: 0.8"/>
    <path d="M 79.378027 235.360405 
C 79.555756 235.360405 79.726229 235.289793 79.851902 235.16412 
C 79.977575 235.038447 80.048187 234.867974 80.048187 234.690246 
C 80.048187 234.512517 79.977575 234.342044 79.851902 234.216371 
C 79.726229 234.090698 79.555756 234.020086 79.378027 234.020086 
C 79.200299 234.020086 79.029826 234.090698 78.904153 234.216371 
C 78.77848 234.342044 78.707868 234.512517 78.707868 234.690246 
C 78.707868 234.867974 78.77848 235.038447 78.904153 235.16412 
C 79.029826 235.289793 79.200299 235.360405 79.378027 235.360405 
z
" clip-path="url(#p47b57527fa)" style="fill: #800080; fill-opacity: 0.8; stroke: #800080; stroke-opacity: 0.8"/>
    <path d="M 86.553671 240.038791 
C 86.782512 240.038791 87.002012 239.947871 87.163828 239.786055 
C 87.325643 239.62424 87.416563 239.40474 87.416563 239.175898 
C 87.416563 238.947057 87.325643 238.727557 87.163828 238.565741 
C 87.002012 238.403926 86.782512 238.313006 86.553671 238.313006 
C 86.324829 238.313006 86.105329 238.403926 85.943514 238.565741 
C 85.781698 238.727557 85.690778 238.947057 85.690778 239.175898 
C 85.690778 239.40474 85.781698 239.62424 85.943514 239.786055 
C 86.105329 239.947871 86.324829 240.038791 86.553671 240.038791 
z
" clip-path="url(#p47b57527fa)" style="fill: #800080; fill-opacity: 0.8; stroke: #800080; stroke-opacity: 0.8"/>
    <path d="M 93.729314 236.006061 
C 93.901096 236.006061 94.065866 235.937811 94.187335 235.816343 
C 94.308804 235.694874 94.377054 235.530104 94.377054 235.358322 
C 94.377054 235.186539 94.308804 235.021769 94.187335 234.9003 
C 94.065866 234.778832 93.901096 234.710582 93.729314 234.710582 
C 93.557531 234.710582 93.392761 234.778832 93.271293 234.9003 
C 93.149824 235.021769 93.081574 235.186539 93.081574 235.358322 
C 93.081574 235.530104 93.149824 235.694874 93.271293 235.816343 
C 93.392761 235.937811 93.557531 236.006061 93.729314 236.006061 
z
" clip-path="url(#p47b57527fa)" style="fill: #800080; fill-opacity: 0.8; stroke: #800080; stroke-opacity: 0.8"/>
    <path d="M 100.904957 236.191105 
C 101.121672 236.191105 101.32954 236.105004 101.482781 235.951763 
C 101.636022 235.798522 101.722124 235.590654 101.722124 235.373939 
C 101.722124 235.157224 101.636022 234.949356 101.482781 234.796115 
C 101.32954 234.642874 101.121672 234.556772 100.904957 234.556772 
C 100.688242 234.556772 100.480374 234.642874 100.327133 234.796115 
C 100.173892 234.949356 100.087791 235.157224 100.087791 235.373939 
C 100.087791 235.590654 100.173892 235.798522 100.327133 235.951763 
C 100.480374 236.105004 100.688242 236.191105 100.904957 236.191105 
z
" clip-path="url(#p47b57527fa)" style="fill: #800080; fill-opacity: 0.8; stroke: #800080; stroke-opacity: 0.8"/>
    <path d="M 108.0806 245.800432 
C 108.287504 245.800432 108.485962 245.718229 108.632265 245.571926 
C 108.778568 245.425623 108.860772 245.227165 108.860772 245.020261 
C 108.860772 244.813357 108.778568 244.6149 108.632265 244.468597 
C 108.485962 244.322294 108.287504 244.24009 108.0806 244.24009 
C 107.873697 244.24009 107.675239 244.322294 107.528936 244.468597 
C 107.382633 244.6149 107.300429 244.813357 107.300429 245.020261 
C 107.300429 245.227165 107.382633 245.425623 107.528936 245.571926 
C 107.675239 245.718229 107.873697 245.800432 108.0806 245.800432 
z
" clip-path="url(#p47b57527fa)" style="fill: #800080; fill-opacity: 0.8; stroke: #800080; stroke-opacity: 0.8"/>
    <path d="M 115.256244 207.605046 
C 115.496601 207.605046 115.727146 207.509551 115.897104 207.339593 
C 116.067063 207.169634 116.162558 206.939089 116.162558 206.698732 
C 116.162558 206.458374 116.067063 206.227829 115.897104 206.057871 
C 115.727146 205.887913 115.496601 205.792418 115.256244 205.792418 
C 115.015886 205.792418 114.785341 205.887913 114.615383 206.057871 
C 114.445425 206.227829 114.34993 206.458374 114.34993 206.698732 
C 114.34993 206.939089 114.445425 207.169634 114.615383 207.339593 
C 114.785341 207.509551 115.015886 207.605046 115.256244 207.605046 
z
" clip-path="url(#p47b57527fa)" style="fill: #800080; fill-opacity: 0.8; stroke: #800080; stroke-opacity: 0.8"/>
    <path d="M 122.431887 218.092413 
C 122.666114 218.092413 122.890779 217.999354 123.056402 217.83373 
C 123.222026 217.668107 123.315085 217.443442 123.315085 217.209215 
C 123.315085 216.974988 123.222026 216.750323 123.056402 216.584699 
C 122.890779 216.419076 122.666114 216.326016 122.431887 216.326016 
C 122.19766 216.326016 121.972995 216.419076 121.807371 216.584699 
C 121.641748 216.750323 121.548688 216.974988 121.548688 217.209215 
C 121.548688 217.443442 121.641748 217.668107 121.807371 217.83373 
C 121.972995 217.999354 122.19766 218.092413 122.431887 218.092413 
z
" clip-path="url(#p47b57527fa)" style="fill: #800080; fill-opacity: 0.8; stroke: #800080; stroke-opacity: 0.8"/>
    <path d="M 129.60753 237.84731 
C 129.865405 237.84731 130.112754 237.744855 130.295099 237.56251 
C 130.477444 237.380164 130.579899 237.132816 130.579899 236.874941 
C 130.579899 236.617065 130.477444 236.369717 130.295099 236.187372 
C 130.112754 236.005026 129.865405 235.902571 129.60753 235.902571 
C 129.349655 235.902571 129.102306 236.005026 128.919961 236.187372 
C 128.737616 236.369717 128.635161 236.617065 128.635161 236.874941 
C 128.635161 237.132816 128.737616 237.380164 128.919961 237.56251 
C 129.102306 237.744855 129.349655 237.84731 129.60753 237.84731 
z
" clip-path="url(#p47b57527fa)" style="fill: #800080; fill-opacity: 0.8; stroke: #800080; stroke-opacity: 0.8"/>
    <path d="M 136.783173 242.324749 
C 137.020923 242.324749 137.248966 242.23029 137.417081 242.062176 
C 137.585195 241.894062 137.679654 241.666018 137.679654 241.428269 
C 137.679654 241.190519 137.585195 240.962475 137.417081 240.794361 
C 137.248966 240.626247 137.020923 240.531788 136.783173 240.531788 
C 136.545424 240.531788 136.31738 240.626247 136.149266 240.794361 
C 135.981152 240.962475 135.886693 241.190519 135.886693 241.428269 
C 135.886693 241.666018 135.981152 241.894062 136.149266 242.062176 
C 136.31738 242.23029 136.545424 242.324749 136.783173 242.324749 
z
" clip-path="url(#p47b57527fa)" style="fill: #800080; fill-opacity: 0.8; stroke: #800080; stroke-opacity: 0.8"/>
    <path d="M 143.958816 235.095335 
C 144.204307 235.095335 144.439775 234.997801 144.613363 234.824213 
C 144.78695 234.650626 144.884485 234.415157 144.884485 234.169667 
C 144.884485 233.924177 144.78695 233.688708 144.613363 233.515121 
C 144.439775 233.341533 144.204307 233.243999 143.958816 233.243999 
C 143.713326 233.243999 143.477858 233.341533 143.30427 233.515121 
C 143.130683 233.688708 143.033148 233.924177 143.033148 234.169667 
C 143.033148 234.415157 143.130683 234.650626 143.30427 234.824213 
C 143.477858 234.997801 143.713326 235.095335 143.958816 235.095335 
z
" clip-path="url(#p47b57527fa)" style="fill: #800080; fill-opacity: 0.8; stroke: #800080; stroke-opacity: 0.8"/>
    <path d="M 151.13446 269.09617 
C 151.347305 269.09617 151.55146 269.011606 151.701965 268.861102 
C 151.852469 268.710598 151.937033 268.506442 151.937033 268.293597 
C 151.937033 268.080753 151.852469 267.876597 151.701965 267.726093 
C 151.55146 267.575589 151.347305 267.491024 151.13446 267.491024 
C 150.921615 267.491024 150.717459 267.575589 150.566955 267.726093 
C 150.416451 267.876597 150.331887 268.080753 150.331887 268.293597 
C 150.331887 268.506442 150.416451 268.710598 150.566955 268.861102 
C 150.717459 269.011606 150.921615 269.09617 151.13446 269.09617 
z
" clip-path="url(#p47b57527fa)" style="fill: #800080; fill-opacity: 0.8; stroke: #800080; stroke-opacity: 0.8"/>
    <path d="M 158.310103 236.044654 
C 158.548725 236.044654 158.777605 235.949849 158.946336 235.781118 
C 159.115068 235.612387 159.209873 235.383506 159.209873 235.144884 
C 159.209873 234.906262 159.115068 234.677382 158.946336 234.508651 
C 158.777605 234.33992 158.548725 234.245114 158.310103 234.245114 
C 158.071481 234.245114 157.8426 234.33992 157.673869 234.508651 
C 157.505138 234.677382 157.410333 234.906262 157.410333 235.144884 
C 157.410333 235.383506 157.505138 235.612387 157.673869 235.781118 
C 157.8426 235.949849 158.071481 236.044654 158.310103 236.044654 
z
" clip-path="url(#p47b57527fa)" style="fill: #800080; fill-opacity: 0.8; stroke: #800080; stroke-opacity: 0.8"/>
    <path d="M 165.485746 246.825472 
C 165.740378 246.825472 165.984614 246.724306 166.164666 246.544254 
C 166.344718 246.364202 166.445884 246.119965 166.445884 245.865334 
C 166.445884 245.610702 166.344718 245.366466 166.164666 245.186414 
C 165.984614 245.006362 165.740378 244.905196 165.485746 244.905196 
C 165.231115 244.905196 164.986878 245.006362 164.806826 245.186414 
C 164.626774 245.366466 164.525608 245.610702 164.525608 245.865334 
C 164.525608 246.119965 164.626774 246.364202 164.806826 246.544254 
C 164.986878 246.724306 165.231115 246.825472 165.485746 246.825472 
z
" clip-path="url(#p47b57527fa)" style="fill: #800080; fill-opacity: 0.8; stroke: #800080; stroke-opacity: 0.8"/>
    <path d="M 172.661389 258.184154 
C 172.908567 258.184154 173.145653 258.08595 173.320434 257.911169 
C 173.495215 257.736388 173.59342 257.499302 173.59342 257.252124 
C 173.59342 257.004947 173.495215 256.76786 173.320434 256.593079 
C 173.145653 256.418299 172.908567 256.320094 172.661389 256.320094 
C 172.414212 256.320094 172.177125 256.418299 172.002345 256.593079 
C 171.827564 256.76786 171.729359 257.004947 171.729359 257.252124 
C 171.729359 257.499302 171.827564 257.736388 172.002345 257.911169 
C 172.177125 258.08595 172.414212 258.184154 172.661389 258.184154 
z
" clip-path="url(#p47b57527fa)" style="fill: #800080; fill-opacity: 0.8; stroke: #800080; stroke-opacity: 0.8"/>
    <path d="M 179.837033 291.02015 
C 180.07997 291.02015 180.31299 290.92363 180.484772 290.751847 
C 180.656555 290.580065 180.753075 290.347045 180.753075 290.104107 
C 180.753075 289.86117 180.656555 289.62815 180.484772 289.456368 
C 180.31299 289.284585 180.07997 289.188065 179.837033 289.188065 
C 179.594095 289.188065 179.361076 289.284585 179.189293 289.456368 
C 179.01751 289.62815 178.92099 289.86117 178.92099 290.104107 
C 178.92099 290.347045 179.01751 290.580065 179.189293 290.751847 
C 179.361076 290.92363 179.594095 291.02015 179.837033 291.02015 
z
" clip-path="url(#p47b57527fa)" style="fill: #800080; fill-opacity: 0.8; stroke: #800080; stroke-opacity: 0.8"/>
    <path d="M 187.012676 263.187012 
C 187.253896 263.187012 187.485269 263.091174 187.655838 262.920605 
C 187.826406 262.750037 187.922244 262.518664 187.922244 262.277443 
C 187.922244 262.036223 187.826406 261.80485 187.655838 261.634282 
C 187.485269 261.463713 187.253896 261.367875 187.012676 261.367875 
C 186.771455 261.367875 186.540082 261.463713 186.369514 261.634282 
C 186.198945 261.80485 186.103108 262.036223 186.103108 262.277443 
C 186.103108 262.518664 186.198945 262.750037 186.369514 262.920605 
C 186.540082 263.091174 186.771455 263.187012 187.012676 263.187012 
z
" clip-path="url(#p47b57527fa)" style="fill: #800080; fill-opacity: 0.8; stroke: #800080; stroke-opacity: 0.8"/>
    <path d="M 194.188319 252.852426 
C 194.442133 252.852426 194.685586 252.751584 194.86506 252.57211 
C 195.044533 252.392637 195.145375 252.149184 195.145375 251.89537 
C 195.145375 251.641556 195.044533 251.398103 194.86506 251.218629 
C 194.685586 251.039156 194.442133 250.938314 194.188319 250.938314 
C 193.934505 250.938314 193.691052 251.039156 193.511579 251.218629 
C 193.332105 251.398103 193.231263 251.641556 193.231263 251.89537 
C 193.231263 252.149184 193.332105 252.392637 193.511579 252.57211 
C 193.691052 252.751584 193.934505 252.852426 194.188319 252.852426 
z
" clip-path="url(#p47b57527fa)" style="fill: #800080; fill-opacity: 0.8; stroke: #800080; stroke-opacity: 0.8"/>
    <path d="M 201.363962 259.887462 
C 201.63672 259.887462 201.898342 259.779094 202.091211 259.586225 
C 202.284079 259.393357 202.392447 259.131734 202.392447 258.858977 
C 202.392447 258.58622 202.284079 258.324597 202.091211 258.131729 
C 201.898342 257.93886 201.63672 257.830492 201.363962 257.830492 
C 201.091205 257.830492 200.829582 257.93886 200.636714 258.131729 
C 200.443845 258.324597 200.335478 258.58622 200.335478 258.858977 
C 200.335478 259.131734 200.443845 259.393357 200.636714 259.586225 
C 200.829582 259.779094 201.091205 259.887462 201.363962 259.887462 
z
" clip-path="url(#p47b57527fa)" style="fill: #800080; fill-opacity: 0.8; stroke: #800080; stroke-opacity: 0.8"/>
    <path d="M 208.539605 225.700717 
C 208.835741 225.700717 209.119788 225.583061 209.329188 225.373661 
C 209.538588 225.164262 209.656244 224.880215 209.656244 224.584079 
C 209.656244 224.287943 209.538588 224.003896 209.329188 223.794496 
C 209.119788 223.585097 208.835741 223.46744 208.539605 223.46744 
C 208.24347 223.46744 207.959423 223.585097 207.750023 223.794496 
C 207.540623 224.003896 207.422967 224.287943 207.422967 224.584079 
C 207.422967 224.880215 207.540623 225.164262 207.750023 225.373661 
C 207.959423 225.583061 208.24347 225.700717 208.539605 225.700717 
z
" clip-path="url(#p47b57527fa)" style="fill: #800080; fill-opacity: 0.8; stroke: #800080; stroke-opacity: 0.8"/>
    <path d="M 215.715249 241.092389 
C 215.998472 241.092389 216.270133 240.979863 216.470402 240.779595 
C 216.670671 240.579326 216.783196 240.307665 216.783196 240.024442 
C 216.783196 239.741218 216.670671 239.469557 216.470402 239.269289 
C 216.270133 239.06902 215.998472 238.956494 215.715249 238.956494 
C 215.432026 238.956494 215.160365 239.06902 214.960096 239.269289 
C 214.759827 239.469557 214.647301 239.741218 214.647301 240.024442 
C 214.647301 240.307665 214.759827 240.579326 214.960096 240.779595 
C 215.160365 240.979863 215.432026 241.092389 215.715249 241.092389 
z
" clip-path="url(#p47b57527fa)" style="fill: #800080; fill-opacity: 0.8; stroke: #800080; stroke-opacity: 0.8"/>
    <path d="M 222.890892 248.267698 
C 223.174115 248.267698 223.445776 248.155172 223.646045 247.954904 
C 223.846314 247.754635 223.95884 247.482974 223.95884 247.199751 
C 223.95884 246.916528 223.846314 246.644866 223.646045 246.444598 
C 223.445776 246.244329 223.174115 246.131803 222.890892 246.131803 
C 222.607669 246.131803 222.336008 246.244329 222.135739 246.444598 
C 221.93547 246.644866 221.822944 246.916528 221.822944 247.199751 
C 221.822944 247.482974 221.93547 247.754635 222.135739 247.954904 
C 222.336008 248.155172 222.607669 248.267698 222.890892 248.267698 
z
" clip-path="url(#p47b57527fa)" style="fill: #800080; fill-opacity: 0.8; stroke: #800080; stroke-opacity: 0.8"/>
    <path d="M 230.066535 228.804339 
C 230.370292 228.804339 230.661649 228.683655 230.876438 228.468866 
C 231.091226 228.254077 231.21191 227.96272 231.21191 227.658963 
C 231.21191 227.355206 231.091226 227.063849 230.876438 226.849061 
C 230.661649 226.634272 230.370292 226.513588 230.066535 226.513588 
C 229.762778 226.513588 229.471421 226.634272 229.256633 226.849061 
C 229.041844 227.063849 228.92116 227.355206 228.92116 227.658963 
C 228.92116 227.96272 229.041844 228.254077 229.256633 228.468866 
C 229.471421 228.683655 229.762778 228.804339 230.066535 228.804339 
z
" clip-path="url(#p47b57527fa)" style="fill: #800080; fill-opacity: 0.8; stroke: #800080; stroke-opacity: 0.8"/>
    <path d="M 237.242178 265.369644 
C 237.54866 265.369644 237.84263 265.247878 238.059345 265.031162 
C 238.27606 264.814447 238.397826 264.520477 238.397826 264.213996 
C 238.397826 263.907515 238.27606 263.613545 238.059345 263.39683 
C 237.84263 263.180115 237.54866 263.058348 237.242178 263.058348 
C 236.935697 263.058348 236.641727 263.180115 236.425012 263.39683 
C 236.208297 263.613545 236.086531 263.907515 236.086531 264.213996 
C 236.086531 264.520477 236.208297 264.814447 236.425012 265.031162 
C 236.641727 265.247878 236.935697 265.369644 237.242178 265.369644 
z
" clip-path="url(#p47b57527fa)" style="fill: #800080; fill-opacity: 0.8; stroke: #800080; stroke-opacity: 0.8"/>
    <path d="M 244.417822 237.722497 
C 244.732334 237.722497 245.034008 237.597539 245.256402 237.375145 
C 245.478796 237.152751 245.603754 236.851077 245.603754 236.536565 
C 245.603754 236.222052 245.478796 235.920378 245.256402 235.697984 
C 245.034008 235.47559 244.732334 235.350633 244.417822 235.350633 
C 244.103309 235.350633 243.801635 235.47559 243.579241 235.697984 
C 243.356847 235.920378 243.23189 236.222052 243.23189 236.536565 
C 243.23189 236.851077 243.356847 237.152751 243.579241 237.375145 
C 243.801635 237.597539 244.103309 237.722497 244.417822 237.722497 
z
" clip-path="url(#p47b57527fa)" style="fill: #800080; fill-opacity: 0.8; stroke: #800080; stroke-opacity: 0.8"/>
    <path d="M 251.593465 260.426903 
C 251.920926 260.426903 252.235019 260.296802 252.466569 260.065252 
C 252.698119 259.833702 252.828221 259.519608 252.828221 259.192147 
C 252.828221 258.864686 252.698119 258.550593 252.466569 258.319043 
C 252.235019 258.087493 251.920926 257.957391 251.593465 257.957391 
C 251.266004 257.957391 250.95191 258.087493 250.72036 258.319043 
C 250.48881 258.550593 250.358709 258.864686 250.358709 259.192147 
C 250.358709 259.519608 250.48881 259.833702 250.72036 260.065252 
C 250.95191 260.296802 251.266004 260.426903 251.593465 260.426903 
z
" clip-path="url(#p47b57527fa)" style="fill: #800080; fill-opacity: 0.8; stroke: #800080; stroke-opacity: 0.8"/>
    <path d="M 258.769108 242.063249 
C 259.111461 242.063249 259.439839 241.927231 259.681919 241.68515 
C 259.923999 241.44307 260.060018 241.114693 260.060018 240.77234 
C 260.060018 240.429986 259.923999 240.101609 259.681919 239.859529 
C 259.439839 239.617448 259.111461 239.48143 258.769108 239.48143 
C 258.426755 239.48143 258.098377 239.617448 257.856297 239.859529 
C 257.614217 240.101609 257.478198 240.429986 257.478198 240.77234 
C 257.478198 241.114693 257.614217 241.44307 257.856297 241.68515 
C 258.098377 241.927231 258.426755 242.063249 258.769108 242.063249 
z
" clip-path="url(#p47b57527fa)" style="fill: #800080; fill-opacity: 0.8; stroke: #800080; stroke-opacity: 0.8"/>
    <path d="M 265.944751 259.379908 
C 266.301958 259.379908 266.644582 259.237989 266.897165 258.985406 
C 267.149748 258.732823 267.291667 258.390198 267.291667 258.032992 
C 267.291667 257.675786 267.149748 257.333162 266.897165 257.080579 
C 266.644582 256.827996 266.301958 256.686076 265.944751 256.686076 
C 265.587545 256.686076 265.244921 256.827996 264.992338 257.080579 
C 264.739755 257.333162 264.597835 257.675786 264.597835 258.032992 
C 264.597835 258.390198 264.739755 258.732823 264.992338 258.985406 
C 265.244921 259.237989 265.587545 259.379908 265.944751 259.379908 
z
" clip-path="url(#p47b57527fa)" style="fill: #800080; fill-opacity: 0.8; stroke: #800080; stroke-opacity: 0.8"/>
    <path d="M 273.120395 264.410503 
C 273.47992 264.410503 273.824769 264.267662 274.078992 264.013439 
C 274.333216 263.759216 274.476057 263.414367 274.476057 263.054841 
C 274.476057 262.695315 274.333216 262.350466 274.078992 262.096243 
C 273.824769 261.84202 273.47992 261.699179 273.120395 261.699179 
C 272.760869 261.699179 272.41602 261.84202 272.161797 262.096243 
C 271.907573 262.350466 271.764732 262.695315 271.764732 263.054841 
C 271.764732 263.414367 271.907573 263.759216 272.161797 264.013439 
C 272.41602 264.267662 272.760869 264.410503 273.120395 264.410503 
z
" clip-path="url(#p47b57527fa)" style="fill: #800080; fill-opacity: 0.8; stroke: #800080; stroke-opacity: 0.8"/>
    <path d="M 280.296038 258.657308 
C 280.677441 258.657308 281.043273 258.505775 281.312966 258.236083 
C 281.582659 257.96639 281.734192 257.600557 281.734192 257.219154 
C 281.734192 256.837751 281.582659 256.471919 281.312966 256.202226 
C 281.043273 255.932533 280.677441 255.781 280.296038 255.781 
C 279.914635 255.781 279.548802 255.932533 279.279109 256.202226 
C 279.009417 256.471919 278.857884 256.837751 278.857884 257.219154 
C 278.857884 257.600557 279.009417 257.96639 279.279109 258.236083 
C 279.548802 258.505775 279.914635 258.657308 280.296038 258.657308 
z
" clip-path="url(#p47b57527fa)" style="fill: #800080; fill-opacity: 0.8; stroke: #800080; stroke-opacity: 0.8"/>
    <path d="M 287.471681 255.234358 
C 287.891472 255.234358 288.294125 255.067573 288.590962 254.770737 
C 288.887799 254.4739 289.054584 254.071246 289.054584 253.651455 
C 289.054584 253.231665 288.887799 252.829011 288.590962 252.532174 
C 288.294125 252.235337 287.891472 252.068553 287.471681 252.068553 
C 287.05189 252.068553 286.649237 252.235337 286.3524 252.532174 
C 286.055563 252.829011 285.888778 253.231665 285.888778 253.651455 
C 285.888778 254.071246 286.055563 254.4739 286.3524 254.770737 
C 286.649237 255.067573 287.05189 255.234358 287.471681 255.234358 
z
" clip-path="url(#p47b57527fa)" style="fill: #800080; fill-opacity: 0.8; stroke: #800080; stroke-opacity: 0.8"/>
    <path d="M 294.647324 241.531344 
C 295.108626 241.531344 295.551096 241.348067 295.877285 241.021877 
C 296.203474 240.695688 296.386751 240.253218 296.386751 239.791916 
C 296.386751 239.330615 296.203474 238.888145 295.877285 238.561956 
C 295.551096 238.235766 295.108626 238.052489 294.647324 238.052489 
C 294.186023 238.052489 293.743553 238.235766 293.417363 238.561956 
C 293.091174 238.888145 292.907897 239.330615 292.907897 239.791916 
C 292.907897 240.253218 293.091174 240.695688 293.417363 241.021877 
C 293.743553 241.348067 294.186023 241.531344 294.647324 241.531344 
z
" clip-path="url(#p47b57527fa)" style="fill: #800080; fill-opacity: 0.8; stroke: #800080; stroke-opacity: 0.8"/>
    <path d="M 301.822967 249.858864 
C 302.304977 249.858864 302.76731 249.66736 303.108142 249.326528 
C 303.448975 248.985695 303.640479 248.523362 303.640479 248.041353 
C 303.640479 247.559343 303.448975 247.09701 303.108142 246.756178 
C 302.76731 246.415346 302.304977 246.223841 301.822967 246.223841 
C 301.340958 246.223841 300.878625 246.415346 300.537793 246.756178 
C 300.19696 247.09701 300.005456 247.559343 300.005456 248.041353 
C 300.005456 248.523362 300.19696 248.985695 300.537793 249.326528 
C 300.878625 249.66736 301.340958 249.858864 301.822967 249.858864 
z
" clip-path="url(#p47b57527fa)" style="fill: #800080; fill-opacity: 0.8; stroke: #800080; stroke-opacity: 0.8"/>
    <path d="M 308.998611 249.341916 
C 309.471919 249.341916 309.925906 249.153869 310.260585 248.819189 
C 310.595265 248.48451 310.783313 248.030523 310.783313 247.557215 
C 310.783313 247.083906 310.595265 246.629919 310.260585 246.29524 
C 309.925906 245.96056 309.471919 245.772513 308.998611 245.772513 
C 308.525302 245.772513 308.071315 245.96056 307.736636 246.29524 
C 307.401956 246.629919 307.213909 247.083906 307.213909 247.557215 
C 307.213909 248.030523 307.401956 248.48451 307.736636 248.819189 
C 308.071315 249.153869 308.525302 249.341916 308.998611 249.341916 
z
" clip-path="url(#p47b57527fa)" style="fill: #800080; fill-opacity: 0.8; stroke: #800080; stroke-opacity: 0.8"/>
    <path d="M 316.174254 243.566804 
C 316.656264 243.566804 317.118596 243.375299 317.459429 243.034467 
C 317.800261 242.693635 317.991766 242.231302 317.991766 241.749292 
C 317.991766 241.267282 317.800261 240.80495 317.459429 240.464117 
C 317.118596 240.123285 316.656264 239.93178 316.174254 239.93178 
C 315.692244 239.93178 315.229911 240.123285 314.889079 240.464117 
C 314.548247 240.80495 314.356742 241.267282 314.356742 241.749292 
C 314.356742 242.231302 314.548247 242.693635 314.889079 243.034467 
C 315.229911 243.375299 315.692244 243.566804 316.174254 243.566804 
z
" clip-path="url(#p47b57527fa)" style="fill: #800080; fill-opacity: 0.8; stroke: #800080; stroke-opacity: 0.8"/>
    <path d="M 323.349897 216.769225 
C 323.852175 216.769225 324.333949 216.569667 324.689113 216.214503 
C 325.044277 215.859339 325.243835 215.377565 325.243835 214.875287 
C 325.243835 214.373009 325.044277 213.891235 324.689113 213.536071 
C 324.333949 213.180907 323.852175 212.98135 323.349897 212.98135 
C 322.847619 212.98135 322.365845 213.180907 322.010681 213.536071 
C 321.655517 213.891235 321.45596 214.373009 321.45596 214.875287 
C 321.45596 215.377565 321.655517 215.859339 322.010681 216.214503 
C 322.365845 216.569667 322.847619 216.769225 323.349897 216.769225 
z
" clip-path="url(#p47b57527fa)" style="fill: #800080; fill-opacity: 0.8; stroke: #800080; stroke-opacity: 0.8"/>
    <path d="M 330.52554 214.99989 
C 331.055598 214.99989 331.564018 214.789296 331.938825 214.414489 
C 332.313632 214.039681 332.524227 213.531262 332.524227 213.001204 
C 332.524227 212.471146 332.313632 211.962727 331.938825 211.587919 
C 331.564018 211.213112 331.055598 211.002518 330.52554 211.002518 
C 329.995482 211.002518 329.487063 211.213112 329.112256 211.587919 
C 328.737448 211.962727 328.526854 212.471146 328.526854 213.001204 
C 328.526854 213.531262 328.737448 214.039681 329.112256 214.414489 
C 329.487063 214.789296 329.995482 214.99989 330.52554 214.99989 
z
" clip-path="url(#p47b57527fa)" style="fill: #800080; fill-opacity: 0.8; stroke: #800080; stroke-opacity: 0.8"/>
    <path d="M 337.701184 197.075136 
C 338.255766 197.075136 338.787708 196.854799 339.179857 196.46265 
C 339.572005 196.070501 339.792343 195.538559 339.792343 194.983977 
C 339.792343 194.429395 339.572005 193.897452 339.179857 193.505304 
C 338.787708 193.113155 338.255766 192.892817 337.701184 192.892817 
C 337.146602 192.892817 336.614659 193.113155 336.22251 193.505304 
C 335.830362 193.897452 335.610024 194.429395 335.610024 194.983977 
C 335.610024 195.538559 335.830362 196.070501 336.22251 196.46265 
C 336.614659 196.854799 337.146602 197.075136 337.701184 197.075136 
z
" clip-path="url(#p47b57527fa)" style="fill: #800080; fill-opacity: 0.8; stroke: #800080; stroke-opacity: 0.8"/>
    <path d="M 344.876827 195.724721 
C 345.443273 195.724721 345.986595 195.49967 346.387133 195.099132 
C 346.787671 194.698594 347.012722 194.155272 347.012722 193.588826 
C 347.012722 193.02238 346.787671 192.479058 346.387133 192.07852 
C 345.986595 191.677982 345.443273 191.452931 344.876827 191.452931 
C 344.310381 191.452931 343.767059 191.677982 343.366521 192.07852 
C 342.965983 192.479058 342.740931 193.02238 342.740931 193.588826 
C 342.740931 194.155272 342.965983 194.698594 343.366521 195.099132 
C 343.767059 195.49967 344.310381 195.724721 344.876827 195.724721 
z
" clip-path="url(#p47b57527fa)" style="fill: #800080; fill-opacity: 0.8; stroke: #800080; stroke-opacity: 0.8"/>
    <path d="M 352.05247 197.6774 
C 352.654486 197.6774 353.231926 197.438217 353.657616 197.012527 
C 354.083306 196.586837 354.322489 196.009397 354.322489 195.407381 
C 354.322489 194.805365 354.083306 194.227925 353.657616 193.802235 
C 353.231926 193.376545 352.654486 193.137362 352.05247 193.137362 
C 351.450454 193.137362 350.873014 193.376545 350.447324 193.802235 
C 350.021634 194.227925 349.782451 194.805365 349.782451 195.407381 
C 349.782451 196.009397 350.021634 196.586837 350.447324 197.012527 
C 350.873014 197.438217 351.450454 197.6774 352.05247 197.6774 
z
" clip-path="url(#p47b57527fa)" style="fill: #800080; fill-opacity: 0.8; stroke: #800080; stroke-opacity: 0.8"/>
    <path d="M 359.228113 191.976235 
C 359.846477 191.976235 360.439597 191.730557 360.876846 191.293308 
C 361.314095 190.856059 361.559773 190.262939 361.559773 189.644575 
C 361.559773 189.026212 361.314095 188.433092 360.876846 187.995843 
C 360.439597 187.558594 359.846477 187.312915 359.228113 187.312915 
C 358.60975 187.312915 358.01663 187.558594 357.579381 187.995843 
C 357.142132 188.433092 356.896453 189.026212 356.896453 189.644575 
C 356.896453 190.262939 357.142132 190.856059 357.579381 191.293308 
C 358.01663 191.730557 358.60975 191.976235 359.228113 191.976235 
z
" clip-path="url(#p47b57527fa)" style="fill: #800080; fill-opacity: 0.8; stroke: #800080; stroke-opacity: 0.8"/>
    <path d="M 366.403756 190.278619 
C 367.06938 190.278619 367.70783 190.014164 368.178497 189.543498 
C 368.649164 189.072831 368.913619 188.43438 368.913619 187.768757 
C 368.913619 187.103134 368.649164 186.464683 368.178497 185.994016 
C 367.70783 185.523349 367.06938 185.258894 366.403756 185.258894 
C 365.738133 185.258894 365.099682 185.523349 364.629016 185.994016 
C 364.158349 186.464683 363.893894 187.103134 363.893894 187.768757 
C 363.893894 188.43438 364.158349 189.072831 364.629016 189.543498 
C 365.099682 190.014164 365.738133 190.278619 366.403756 190.278619 
z
" clip-path="url(#p47b57527fa)" style="fill: #800080; fill-opacity: 0.8; stroke: #800080; stroke-opacity: 0.8"/>
    <path d="M 373.5794 175.351287 
C 374.294103 175.351287 374.97963 175.067332 375.485002 174.561961 
C 375.990373 174.056589 376.274328 173.371062 376.274328 172.656359 
C 376.274328 171.941655 375.990373 171.256128 375.485002 170.750756 
C 374.97963 170.245385 374.294103 169.96143 373.5794 169.96143 
C 372.864696 169.96143 372.179169 170.245385 371.673797 170.750756 
C 371.168426 171.256128 370.884471 171.941655 370.884471 172.656359 
C 370.884471 173.371062 371.168426 174.056589 371.673797 174.561961 
C 372.179169 175.067332 372.864696 175.351287 373.5794 175.351287 
z
" clip-path="url(#p47b57527fa)" style="fill: #800080; fill-opacity: 0.8; stroke: #800080; stroke-opacity: 0.8"/>
    <path d="M 380.755043 164.727356 
C 381.513751 164.727356 382.241487 164.425918 382.777974 163.88943 
C 383.314462 163.352942 383.6159 162.625207 383.6159 161.866499 
C 383.6159 161.10779 383.314462 160.380055 382.777974 159.843567 
C 382.241487 159.307079 381.513751 159.005641 380.755043 159.005641 
C 379.996335 159.005641 379.268599 159.307079 378.732111 159.843567 
C 378.195624 160.380055 377.894186 161.10779 377.894186 161.866499 
C 377.894186 162.625207 378.195624 163.352942 378.732111 163.88943 
C 379.268599 164.425918 379.996335 164.727356 380.755043 164.727356 
z
" clip-path="url(#p47b57527fa)" style="fill: #800080; fill-opacity: 0.8; stroke: #800080; stroke-opacity: 0.8"/>
    <path d="M 387.930686 147.548799 
C 388.708865 147.548799 389.455277 147.239625 390.005533 146.689369 
C 390.555789 146.139113 390.864963 145.392701 390.864963 144.614522 
C 390.864963 143.836343 390.555789 143.089931 390.005533 142.539675 
C 389.455277 141.989419 388.708865 141.680245 387.930686 141.680245 
C 387.152507 141.680245 386.406095 141.989419 385.855839 142.539675 
C 385.305583 143.089931 384.996409 143.836343 384.996409 144.614522 
C 384.996409 145.392701 385.305583 146.139113 385.855839 146.689369 
C 386.406095 147.239625 387.152507 147.548799 387.930686 147.548799 
z
" clip-path="url(#p47b57527fa)" style="fill: #800080; fill-opacity: 0.8; stroke: #800080; stroke-opacity: 0.8"/>
    <path d="M 395.106329 132.950875 
C 395.894855 132.950875 396.65119 132.63759 397.208762 132.080019 
C 397.766334 131.522447 398.079618 130.766111 398.079618 129.977586 
C 398.079618 129.18906 397.766334 128.432725 397.208762 127.875153 
C 396.65119 127.317581 395.894855 127.004297 395.106329 127.004297 
C 394.317804 127.004297 393.561468 127.317581 393.003897 127.875153 
C 392.446325 128.432725 392.13304 129.18906 392.13304 129.977586 
C 392.13304 130.766111 392.446325 131.522447 393.003897 132.080019 
C 393.561468 132.63759 394.317804 132.950875 395.106329 132.950875 
z
" clip-path="url(#p47b57527fa)" style="fill: #800080; fill-opacity: 0.8; stroke: #800080; stroke-opacity: 0.8"/>
    <path d="M 402.281973 118.547146 
C 403.077582 118.547146 403.840712 118.231047 404.403293 117.668466 
C 404.965874 117.105885 405.281973 116.342755 405.281973 115.547146 
C 405.281973 114.751536 404.965874 113.988406 404.403293 113.425825 
C 403.840712 112.863245 403.077582 112.547146 402.281973 112.547146 
C 401.486363 112.547146 400.723233 112.863245 400.160652 113.425825 
C 399.598071 113.988406 399.281973 114.751536 399.281973 115.547146 
C 399.281973 116.342755 399.598071 117.105885 400.160652 117.668466 
C 400.723233 118.231047 401.486363 118.547146 402.281973 118.547146 
z
" clip-path="url(#p47b57527fa)" style="fill: #800080; fill-opacity: 0.8; stroke: #800080; stroke-opacity: 0.8"/>
    <path d="M 409.457616 100.80197 
C 410.178111 100.80197 410.869194 100.515715 411.378661 100.006248 
C 411.888128 99.49678 412.174384 98.805698 412.174384 98.085203 
C 412.174384 97.364707 411.888128 96.673625 411.378661 96.164158 
C 410.869194 95.654691 410.178111 95.368435 409.457616 95.368435 
C 408.737121 95.368435 408.046038 95.654691 407.536571 96.164158 
C 407.027104 96.673625 406.740848 97.364707 406.740848 98.085203 
C 406.740848 98.805698 407.027104 99.49678 407.536571 100.006248 
C 408.046038 100.515715 408.737121 100.80197 409.457616 100.80197 
z
" clip-path="url(#p47b57527fa)" style="fill: #800080; fill-opacity: 0.8; stroke: #800080; stroke-opacity: 0.8"/>
    <path d="M 416.633259 89.802943 
C 417.350285 89.802943 418.03804 89.518066 418.545053 89.011052 
C 419.052067 88.504038 419.336944 87.816284 419.336944 87.099258 
C 419.336944 86.382232 419.052067 85.694477 418.545053 85.187464 
C 418.03804 84.68045 417.350285 84.395572 416.633259 84.395572 
C 415.916233 84.395572 415.228479 84.68045 414.721465 85.187464 
C 414.214451 85.694477 413.929574 86.382232 413.929574 87.099258 
C 413.929574 87.816284 414.214451 88.504038 414.721465 89.011052 
C 415.228479 89.518066 415.916233 89.802943 416.633259 89.802943 
z
" clip-path="url(#p47b57527fa)" style="fill: #800080; fill-opacity: 0.8; stroke: #800080; stroke-opacity: 0.8"/>
    <path d="M 423.808902 71.242068 
C 424.539138 71.242068 425.239564 70.951942 425.755919 70.435588 
C 426.272274 69.919233 426.562399 69.218807 426.562399 68.488571 
C 426.562399 67.758335 426.272274 67.057909 425.755919 66.541555 
C 425.239564 66.0252 424.539138 65.735074 423.808902 65.735074 
C 423.078666 65.735074 422.378241 66.0252 421.861886 66.541555 
C 421.345531 67.057909 421.055405 67.758335 421.055405 68.488571 
C 421.055405 69.218807 421.345531 69.919233 421.861886 70.435588 
C 422.378241 70.951942 423.078666 71.242068 423.808902 71.242068 
z
" clip-path="url(#p47b57527fa)" style="fill: #800080; fill-opacity: 0.8; stroke: #800080; stroke-opacity: 0.8"/>
    <path d="M 430.984545 41.366683 
C 431.670768 41.366683 432.328977 41.094044 432.814209 40.608811 
C 433.299442 40.123579 433.572081 39.46537 433.572081 38.779148 
C 433.572081 38.092925 433.299442 37.434717 432.814209 36.949484 
C 432.328977 36.464252 431.670768 36.191613 430.984545 36.191613 
C 430.298323 36.191613 429.640114 36.464252 429.154882 36.949484 
C 428.669649 37.434717 428.39701 38.092925 428.39701 38.779148 
C 428.39701 39.46537 428.669649 40.123579 429.154882 40.608811 
C 429.640114 41.094044 430.298323 41.366683 430.984545 41.366683 
z
" clip-path="url(#p47b57527fa)" style="fill: #800080; fill-opacity: 0.8; stroke: #800080; stroke-opacity: 0.8"/>
   </g>
   <g id="PolyCollection_1">
    <defs>
     <path id="m38bdab602a" d="M 50.675455 -83.403009 
L 50.675455 -41.162898 
L 54.516961 -42.897036 
L 58.358466 -44.631251 
L 62.199972 -46.370006 
L 66.041478 -48.108761 
L 69.882984 -49.847515 
L 73.72449 -51.58627 
L 77.565996 -53.325025 
L 81.407502 -55.063779 
L 85.249008 -56.802534 
L 89.090514 -58.433217 
L 92.93202 -60.226829 
L 96.773526 -62.005571 
L 100.615032 -63.738089 
L 104.456538 -65.357877 
L 108.298044 -66.839084 
L 112.13955 -68.533401 
L 115.981056 -70.359258 
L 119.822562 -71.945067 
L 123.664068 -73.523047 
L 127.505574 -75.036084 
L 131.34708 -76.549121 
L 135.188586 -78.118877 
L 139.030092 -79.856899 
L 142.871598 -81.48723 
L 146.713104 -83.02979 
L 150.55461 -84.590404 
L 154.396116 -86.255177 
L 158.237622 -87.675825 
L 162.079128 -89.381922 
L 165.920634 -90.837699 
L 169.76214 -92.474393 
L 173.603646 -93.971235 
L 177.445152 -95.472119 
L 181.286657 -97.00699 
L 185.128163 -98.471352 
L 188.969669 -100.154455 
L 192.811175 -101.66599 
L 196.652681 -102.958387 
L 200.494187 -104.452008 
L 204.335693 -105.763028 
L 208.177199 -107.017101 
L 212.018705 -108.372629 
L 215.860211 -109.655106 
L 219.701717 -111.165942 
L 223.543223 -112.267851 
L 227.384729 -113.396754 
L 231.226235 -114.524168 
L 235.067741 -115.550124 
L 238.909247 -116.881214 
L 242.750753 -117.943876 
L 246.592259 -119.085952 
L 250.433765 -119.972636 
L 254.275271 -120.801818 
L 258.116777 -121.635636 
L 261.958283 -122.46872 
L 265.799789 -123.325219 
L 269.641295 -124.257407 
L 273.482801 -125.172593 
L 277.324307 -126.034039 
L 281.165813 -126.881697 
L 285.007319 -127.871928 
L 288.848825 -128.758295 
L 292.690331 -129.494911 
L 296.531837 -130.232415 
L 300.373343 -130.97311 
L 304.214848 -131.886082 
L 308.056354 -132.878522 
L 311.89786 -133.873281 
L 315.739366 -134.774871 
L 319.580872 -135.538979 
L 323.422378 -136.303295 
L 327.263884 -137.067611 
L 331.10539 -137.831927 
L 334.946896 -138.550618 
L 338.788402 -139.353253 
L 342.629908 -140.114994 
L 346.471414 -140.877869 
L 350.31292 -141.640744 
L 354.154426 -142.43028 
L 357.995932 -143.257108 
L 361.837438 -144.00592 
L 365.678944 -144.920261 
L 369.52045 -145.727375 
L 373.361956 -146.499212 
L 377.203462 -147.271049 
L 381.044968 -148.042886 
L 384.886474 -148.814724 
L 388.72798 -149.586561 
L 392.569486 -150.358398 
L 396.410992 -151.130235 
L 400.252498 -151.902072 
L 404.094004 -152.673909 
L 407.93551 -153.445746 
L 411.777016 -154.217583 
L 415.618522 -154.98942 
L 419.460028 -155.761258 
L 423.301534 -156.533095 
L 427.143039 -157.304932 
L 430.984545 -158.076769 
L 430.984545 -218.843361 
L 430.984545 -218.843361 
L 427.143039 -217.191233 
L 423.301534 -215.539105 
L 419.460028 -213.902946 
L 415.618522 -212.236794 
L 411.777016 -210.587488 
L 407.93551 -208.936064 
L 404.094004 -207.284352 
L 400.252498 -205.44611 
L 396.410992 -203.643758 
L 392.569486 -201.932123 
L 388.72798 -200.220488 
L 384.886474 -198.622324 
L 381.044968 -197.176909 
L 377.203462 -195.495609 
L 373.361956 -193.792219 
L 369.52045 -192.119369 
L 365.678944 -190.438372 
L 361.837438 -188.754256 
L 357.995932 -187.061308 
L 354.154426 -185.300584 
L 350.31292 -183.664973 
L 346.471414 -182.001482 
L 342.629908 -180.31378 
L 338.788402 -178.663991 
L 334.946896 -176.943902 
L 331.10539 -175.142944 
L 327.263884 -173.592083 
L 323.422378 -172.070983 
L 319.580872 -170.549883 
L 315.739366 -169.028783 
L 311.89786 -167.502663 
L 308.056354 -165.852978 
L 304.214848 -164.343023 
L 300.373343 -162.620016 
L 296.531837 -160.957897 
L 292.690331 -159.341211 
L 288.848825 -157.742207 
L 285.007319 -156.164295 
L 281.165813 -154.477416 
L 277.324307 -152.849034 
L 273.482801 -151.288282 
L 269.641295 -149.827801 
L 265.799789 -148.537901 
L 261.958283 -146.962955 
L 258.116777 -145.388349 
L 254.275271 -143.99967 
L 250.433765 -142.605912 
L 246.592259 -141.115016 
L 242.750753 -139.570314 
L 238.909247 -137.940201 
L 235.067741 -136.417321 
L 231.226235 -135.13691 
L 227.384729 -133.907326 
L 223.543223 -132.522653 
L 219.701717 -131.227582 
L 215.860211 -129.859017 
L 212.018705 -128.60352 
L 208.177199 -127.254744 
L 204.335693 -125.795572 
L 200.494187 -124.440147 
L 196.652681 -123.133261 
L 192.811175 -121.869198 
L 188.969669 -120.548654 
L 185.128163 -119.203743 
L 181.286657 -118.016898 
L 177.445152 -116.756578 
L 173.603646 -115.704135 
L 169.76214 -114.416792 
L 165.920634 -113.120909 
L 162.079128 -111.823876 
L 158.237622 -110.602147 
L 154.396116 -109.523473 
L 150.55461 -108.489986 
L 146.713104 -107.180712 
L 142.871598 -106.039233 
L 139.030092 -104.87202 
L 135.188586 -103.794735 
L 131.34708 -102.723737 
L 127.505574 -101.583443 
L 123.664068 -100.628829 
L 119.822562 -99.55068 
L 115.981056 -98.599044 
L 112.13955 -97.489906 
L 108.298044 -96.604409 
L 104.456538 -95.715235 
L 100.615032 -94.786889 
L 96.773526 -93.879933 
L 92.93202 -92.992969 
L 89.090514 -92.170112 
L 85.249008 -91.301806 
L 81.407502 -90.463562 
L 77.565996 -89.607586 
L 73.72449 -88.702988 
L 69.882984 -87.899892 
L 66.041478 -86.968986 
L 62.199972 -86.058096 
L 58.358466 -85.250536 
L 54.516961 -84.330678 
L 50.675455 -83.403009 
z
" style="stroke: #ffffff; stroke-opacity: 0.15"/>
    </defs>
    <g clip-path="url(#p47b57527fa)">
     <use xlink:href="#m38bdab602a" x="0" y="345.6" style="fill: #800080; fill-opacity: 0.15; stroke: #ffffff; stroke-opacity: 0.15"/>
    </g>
   </g>
   <g id="line2d_1">
    <path d="M 50.675455 280.304013 
L 54.516961 279.033696 
L 58.358466 277.763379 
L 62.199972 276.493062 
L 66.041478 275.222745 
L 69.882984 273.952428 
L 73.72449 272.682111 
L 77.565996 271.411795 
L 81.407502 270.141478 
L 85.249008 268.871161 
L 89.090514 267.600844 
L 92.93202 266.330527 
L 96.773526 265.06021 
L 100.615032 263.789893 
L 104.456538 262.519576 
L 108.298044 261.249259 
L 112.13955 259.978943 
L 115.981056 258.708626 
L 119.822562 257.438309 
L 123.664068 256.167992 
L 127.505574 254.897675 
L 131.34708 253.627358 
L 135.188586 252.357041 
L 139.030092 251.086724 
L 142.871598 249.816407 
L 146.713104 248.546091 
L 150.55461 247.275774 
L 154.396116 246.005457 
L 158.237622 244.73514 
L 162.079128 243.464823 
L 165.920634 242.194506 
L 169.76214 240.924189 
L 173.603646 239.653872 
L 177.445152 238.383555 
L 181.286657 237.113239 
L 185.128163 235.842922 
L 188.969669 234.572605 
L 192.811175 233.302288 
L 196.652681 232.031971 
L 200.494187 230.761654 
L 204.335693 229.491337 
L 208.177199 228.22102 
L 212.018705 226.950703 
L 215.860211 225.680386 
L 219.701717 224.41007 
L 223.543223 223.139753 
L 227.384729 221.869436 
L 231.226235 220.599119 
L 235.067741 219.328802 
L 238.909247 218.058485 
L 242.750753 216.788168 
L 246.592259 215.517851 
L 250.433765 214.247534 
L 254.275271 212.977218 
L 258.116777 211.706901 
L 261.958283 210.436584 
L 265.799789 209.166267 
L 269.641295 207.89595 
L 273.482801 206.625633 
L 277.324307 205.355316 
L 281.165813 204.084999 
L 285.007319 202.814682 
L 288.848825 201.544366 
L 292.690331 200.274049 
L 296.531837 199.003732 
L 300.373343 197.733415 
L 304.214848 196.463098 
L 308.056354 195.192781 
L 311.89786 193.922464 
L 315.739366 192.652147 
L 319.580872 191.38183 
L 323.422378 190.111514 
L 327.263884 188.841197 
L 331.10539 187.57088 
L 334.946896 186.300563 
L 338.788402 185.030246 
L 342.629908 183.759929 
L 346.471414 182.489612 
L 350.31292 181.219295 
L 354.154426 179.948978 
L 357.995932 178.678662 
L 361.837438 177.408345 
L 365.678944 176.138028 
L 369.52045 174.867711 
L 373.361956 173.597394 
L 377.203462 172.327077 
L 381.044968 171.05676 
L 384.886474 169.786443 
L 388.72798 168.516126 
L 392.569486 167.245809 
L 396.410992 165.975493 
L 400.252498 164.705176 
L 404.094004 163.434859 
L 407.93551 162.164542 
L 411.777016 160.894225 
L 415.618522 159.623908 
L 419.460028 158.353591 
L 423.301534 157.083274 
L 427.143039 155.812957 
L 430.984545 154.542641 
" clip-path="url(#p47b57527fa)" style="fill: none; stroke: #800080; stroke-width: 2.25; stroke-linecap: round"/>
   </g>
   <g id="patch_3">
    <path d="M 31.66 317.72 
L 31.66 25.49625 
" style="fill: none; stroke: #ffffff; stroke-width: 0.8; stroke-linejoin: miter; stroke-linecap: square"/>
   </g>
   <g id="patch_4">
    <path d="M 450 317.72 
L 450 25.49625 
" style="fill: none; stroke: #ffffff; stroke-width: 0.8; stroke-linejoin: miter; stroke-linecap: square"/>
   </g>
   <g id="patch_5">
    <path d="M 31.66 317.72 
L 450 317.72 
" style="fill: none; stroke: #ffffff; stroke-width: 0.8; stroke-linejoin: miter; stroke-linecap: square"/>
   </g>
   <g id="patch_6">
    <path d="M 31.66 25.49625 
L 450 25.49625 
" style="fill: none; stroke: #ffffff; stroke-width: 0.8; stroke-linejoin: miter; stroke-linecap: square"/>
   </g>
   <g id="text_15">
    <!-- Yearly average ratings from ranked games -->
    <g style="fill: #262626" transform="translate(127.998125 19.49625) scale(0.12 -0.12)">
     <defs>
      <path id="ArialMT-59" d="M 1784 0 
L 1784 1941 
L 19 4581 
L 756 4581 
L 1659 3200 
Q 1909 2813 2125 2425 
Q 2331 2784 2625 3234 
L 3513 4581 
L 4219 4581 
L 2391 1941 
L 2391 0 
L 1784 0 
z
" transform="scale(0.015625)"/>
      <path id="ArialMT-65" d="M 2694 1069 
L 3275 997 
Q 3138 488 2766 206 
Q 2394 -75 1816 -75 
Q 1088 -75 661 373 
Q 234 822 234 1631 
Q 234 2469 665 2931 
Q 1097 3394 1784 3394 
Q 2450 3394 2872 2941 
Q 3294 2488 3294 1666 
Q 3294 1616 3291 1516 
L 816 1516 
Q 847 969 1125 678 
Q 1403 388 1819 388 
Q 2128 388 2347 550 
Q 2566 713 2694 1069 
z
M 847 1978 
L 2700 1978 
Q 2663 2397 2488 2606 
Q 2219 2931 1791 2931 
Q 1403 2931 1139 2672 
Q 875 2413 847 1978 
z
" transform="scale(0.015625)"/>
      <path id="ArialMT-61" d="M 2588 409 
Q 2275 144 1986 34 
Q 1697 -75 1366 -75 
Q 819 -75 525 192 
Q 231 459 231 875 
Q 231 1119 342 1320 
Q 453 1522 633 1644 
Q 813 1766 1038 1828 
Q 1203 1872 1538 1913 
Q 2219 1994 2541 2106 
Q 2544 2222 2544 2253 
Q 2544 2597 2384 2738 
Q 2169 2928 1744 2928 
Q 1347 2928 1158 2789 
Q 969 2650 878 2297 
L 328 2372 
Q 403 2725 575 2942 
Q 747 3159 1072 3276 
Q 1397 3394 1825 3394 
Q 2250 3394 2515 3294 
Q 2781 3194 2906 3042 
Q 3031 2891 3081 2659 
Q 3109 2516 3109 2141 
L 3109 1391 
Q 3109 606 3145 398 
Q 3181 191 3288 0 
L 2700 0 
Q 2613 175 2588 409 
z
M 2541 1666 
Q 2234 1541 1622 1453 
Q 1275 1403 1131 1340 
Q 988 1278 909 1158 
Q 831 1038 831 891 
Q 831 666 1001 516 
Q 1172 366 1500 366 
Q 1825 366 2078 508 
Q 2331 650 2450 897 
Q 2541 1088 2541 1459 
L 2541 1666 
z
" transform="scale(0.015625)"/>
      <path id="ArialMT-72" d="M 416 0 
L 416 3319 
L 922 3319 
L 922 2816 
Q 1116 3169 1280 3281 
Q 1444 3394 1641 3394 
Q 1925 3394 2219 3213 
L 2025 2691 
Q 1819 2813 1613 2813 
Q 1428 2813 1281 2702 
Q 1134 2591 1072 2394 
Q 978 2094 978 1738 
L 978 0 
L 416 0 
z
" transform="scale(0.015625)"/>
      <path id="ArialMT-6c" d="M 409 0 
L 409 4581 
L 972 4581 
L 972 0 
L 409 0 
z
" transform="scale(0.015625)"/>
      <path id="ArialMT-79" d="M 397 -1278 
L 334 -750 
Q 519 -800 656 -800 
Q 844 -800 956 -737 
Q 1069 -675 1141 -563 
Q 1194 -478 1313 -144 
Q 1328 -97 1363 -6 
L 103 3319 
L 709 3319 
L 1400 1397 
Q 1534 1031 1641 628 
Q 1738 1016 1872 1384 
L 2581 3319 
L 3144 3319 
L 1881 -56 
Q 1678 -603 1566 -809 
Q 1416 -1088 1222 -1217 
Q 1028 -1347 759 -1347 
Q 597 -1347 397 -1278 
z
" transform="scale(0.015625)"/>
      <path id="ArialMT-20" transform="scale(0.015625)"/>
      <path id="ArialMT-76" d="M 1344 0 
L 81 3319 
L 675 3319 
L 1388 1331 
Q 1503 1009 1600 663 
Q 1675 925 1809 1294 
L 2547 3319 
L 3125 3319 
L 1869 0 
L 1344 0 
z
" transform="scale(0.015625)"/>
      <path id="ArialMT-67" d="M 319 -275 
L 866 -356 
Q 900 -609 1056 -725 
Q 1266 -881 1628 -881 
Q 2019 -881 2231 -725 
Q 2444 -569 2519 -288 
Q 2563 -116 2559 434 
Q 2191 0 1641 0 
Q 956 0 581 494 
Q 206 988 206 1678 
Q 206 2153 378 2554 
Q 550 2956 876 3175 
Q 1203 3394 1644 3394 
Q 2231 3394 2613 2919 
L 2613 3319 
L 3131 3319 
L 3131 450 
Q 3131 -325 2973 -648 
Q 2816 -972 2473 -1159 
Q 2131 -1347 1631 -1347 
Q 1038 -1347 672 -1080 
Q 306 -813 319 -275 
z
M 784 1719 
Q 784 1066 1043 766 
Q 1303 466 1694 466 
Q 2081 466 2343 764 
Q 2606 1063 2606 1700 
Q 2606 2309 2336 2618 
Q 2066 2928 1684 2928 
Q 1309 2928 1046 2623 
Q 784 2319 784 1719 
z
" transform="scale(0.015625)"/>
      <path id="ArialMT-74" d="M 1650 503 
L 1731 6 
Q 1494 -44 1306 -44 
Q 1000 -44 831 53 
Q 663 150 594 308 
Q 525 466 525 972 
L 525 2881 
L 113 2881 
L 113 3319 
L 525 3319 
L 525 4141 
L 1084 4478 
L 1084 3319 
L 1650 3319 
L 1650 2881 
L 1084 2881 
L 1084 941 
Q 1084 700 1114 631 
Q 1144 563 1211 522 
Q 1278 481 1403 481 
Q 1497 481 1650 503 
z
" transform="scale(0.015625)"/>
      <path id="ArialMT-69" d="M 425 3934 
L 425 4581 
L 988 4581 
L 988 3934 
L 425 3934 
z
M 425 0 
L 425 3319 
L 988 3319 
L 988 0 
L 425 0 
z
" transform="scale(0.015625)"/>
      <path id="ArialMT-6e" d="M 422 0 
L 422 3319 
L 928 3319 
L 928 2847 
Q 1294 3394 1984 3394 
Q 2284 3394 2536 3286 
Q 2788 3178 2913 3003 
Q 3038 2828 3088 2588 
Q 3119 2431 3119 2041 
L 3119 0 
L 2556 0 
L 2556 2019 
Q 2556 2363 2490 2533 
Q 2425 2703 2258 2804 
Q 2091 2906 1866 2906 
Q 1506 2906 1245 2678 
Q 984 2450 984 1813 
L 984 0 
L 422 0 
z
" transform="scale(0.015625)"/>
      <path id="ArialMT-73" d="M 197 991 
L 753 1078 
Q 800 744 1014 566 
Q 1228 388 1613 388 
Q 2000 388 2187 545 
Q 2375 703 2375 916 
Q 2375 1106 2209 1216 
Q 2094 1291 1634 1406 
Q 1016 1563 777 1677 
Q 538 1791 414 1992 
Q 291 2194 291 2438 
Q 291 2659 392 2848 
Q 494 3038 669 3163 
Q 800 3259 1026 3326 
Q 1253 3394 1513 3394 
Q 1903 3394 2198 3281 
Q 2494 3169 2634 2976 
Q 2775 2784 2828 2463 
L 2278 2388 
Q 2241 2644 2061 2787 
Q 1881 2931 1553 2931 
Q 1166 2931 1000 2803 
Q 834 2675 834 2503 
Q 834 2394 903 2306 
Q 972 2216 1119 2156 
Q 1203 2125 1616 2013 
Q 2213 1853 2448 1751 
Q 2684 1650 2818 1456 
Q 2953 1263 2953 975 
Q 2953 694 2789 445 
Q 2625 197 2315 61 
Q 2006 -75 1616 -75 
Q 969 -75 630 194 
Q 291 463 197 991 
z
" transform="scale(0.015625)"/>
      <path id="ArialMT-66" d="M 556 0 
L 556 2881 
L 59 2881 
L 59 3319 
L 556 3319 
L 556 3672 
Q 556 4006 616 4169 
Q 697 4388 901 4523 
Q 1106 4659 1475 4659 
Q 1713 4659 2000 4603 
L 1916 4113 
Q 1741 4144 1584 4144 
Q 1328 4144 1222 4034 
Q 1116 3925 1116 3625 
L 1116 3319 
L 1763 3319 
L 1763 2881 
L 1116 2881 
L 1116 0 
L 556 0 
z
" transform="scale(0.015625)"/>
      <path id="ArialMT-6f" d="M 213 1659 
Q 213 2581 725 3025 
Q 1153 3394 1769 3394 
Q 2453 3394 2887 2945 
Q 3322 2497 3322 1706 
Q 3322 1066 3130 698 
Q 2938 331 2570 128 
Q 2203 -75 1769 -75 
Q 1072 -75 642 372 
Q 213 819 213 1659 
z
M 791 1659 
Q 791 1022 1069 705 
Q 1347 388 1769 388 
Q 2188 388 2466 706 
Q 2744 1025 2744 1678 
Q 2744 2294 2464 2611 
Q 2184 2928 1769 2928 
Q 1347 2928 1069 2612 
Q 791 2297 791 1659 
z
" transform="scale(0.015625)"/>
      <path id="ArialMT-6d" d="M 422 0 
L 422 3319 
L 925 3319 
L 925 2853 
Q 1081 3097 1340 3245 
Q 1600 3394 1931 3394 
Q 2300 3394 2536 3241 
Q 2772 3088 2869 2813 
Q 3263 3394 3894 3394 
Q 4388 3394 4653 3120 
Q 4919 2847 4919 2278 
L 4919 0 
L 4359 0 
L 4359 2091 
Q 4359 2428 4304 2576 
Q 4250 2725 4106 2815 
Q 3963 2906 3769 2906 
Q 3419 2906 3187 2673 
Q 2956 2441 2956 1928 
L 2956 0 
L 2394 0 
L 2394 2156 
Q 2394 2531 2256 2718 
Q 2119 2906 1806 2906 
Q 1569 2906 1367 2781 
Q 1166 2656 1075 2415 
Q 984 2175 984 1722 
L 984 0 
L 422 0 
z
" transform="scale(0.015625)"/>
      <path id="ArialMT-6b" d="M 425 0 
L 425 4581 
L 988 4581 
L 988 1969 
L 2319 3319 
L 3047 3319 
L 1778 2088 
L 3175 0 
L 2481 0 
L 1384 1697 
L 988 1316 
L 988 0 
L 425 0 
z
" transform="scale(0.015625)"/>
      <path id="ArialMT-64" d="M 2575 0 
L 2575 419 
Q 2259 -75 1647 -75 
Q 1250 -75 917 144 
Q 584 363 401 755 
Q 219 1147 219 1656 
Q 219 2153 384 2558 
Q 550 2963 881 3178 
Q 1213 3394 1622 3394 
Q 1922 3394 2156 3267 
Q 2391 3141 2538 2938 
L 2538 4581 
L 3097 4581 
L 3097 0 
L 2575 0 
z
M 797 1656 
Q 797 1019 1065 703 
Q 1334 388 1700 388 
Q 2069 388 2326 689 
Q 2584 991 2584 1609 
Q 2584 2291 2321 2609 
Q 2059 2928 1675 2928 
Q 1300 2928 1048 2622 
Q 797 2316 797 1656 
z
" transform="scale(0.015625)"/>
     </defs>
     <use xlink:href="#ArialMT-59"/>
     <use xlink:href="#ArialMT-65" x="57.574219"/>
     <use xlink:href="#ArialMT-61" x="113.189453"/>
     <use xlink:href="#ArialMT-72" x="168.804688"/>
     <use xlink:href="#ArialMT-6c" x="202.105469"/>
     <use xlink:href="#ArialMT-79" x="224.322266"/>
     <use xlink:href="#ArialMT-20" x="274.322266"/>
     <use xlink:href="#ArialMT-61" x="302.105469"/>
     <use xlink:href="#ArialMT-76" x="357.720703"/>
     <use xlink:href="#ArialMT-65" x="407.720703"/>
     <use xlink:href="#ArialMT-72" x="463.335938"/>
     <use xlink:href="#ArialMT-61" x="496.636719"/>
     <use xlink:href="#ArialMT-67" x="552.251953"/>
     <use xlink:href="#ArialMT-65" x="607.867188"/>
     <use xlink:href="#ArialMT-20" x="663.482422"/>
     <use xlink:href="#ArialMT-72" x="691.265625"/>
     <use xlink:href="#ArialMT-61" x="724.566406"/>
     <use xlink:href="#ArialMT-74" x="780.181641"/>
     <use xlink:href="#ArialMT-69" x="807.964844"/>
     <use xlink:href="#ArialMT-6e" x="830.181641"/>
     <use xlink:href="#ArialMT-67" x="885.796875"/>
     <use xlink:href="#ArialMT-73" x="941.412109"/>
     <use xlink:href="#ArialMT-20" x="991.412109"/>
     <use xlink:href="#ArialMT-66" x="1019.195312"/>
     <use xlink:href="#ArialMT-72" x="1046.978516"/>
     <use xlink:href="#ArialMT-6f" x="1080.279297"/>
     <use xlink:href="#ArialMT-6d" x="1135.894531"/>
     <use xlink:href="#ArialMT-20" x="1219.195312"/>
     <use xlink:href="#ArialMT-72" x="1246.978516"/>
     <use xlink:href="#ArialMT-61" x="1280.279297"/>
     <use xlink:href="#ArialMT-6e" x="1335.894531"/>
     <use xlink:href="#ArialMT-6b" x="1391.509766"/>
     <use xlink:href="#ArialMT-65" x="1441.509766"/>
     <use xlink:href="#ArialMT-64" x="1497.125"/>
     <use xlink:href="#ArialMT-20" x="1552.740234"/>
     <use xlink:href="#ArialMT-67" x="1580.523438"/>
     <use xlink:href="#ArialMT-61" x="1636.138672"/>
     <use xlink:href="#ArialMT-6d" x="1691.753906"/>
     <use xlink:href="#ArialMT-65" x="1775.054688"/>
     <use xlink:href="#ArialMT-73" x="1830.669922"/>
    </g>
   </g>
  </g>
 </g>
 <defs>
  <clipPath id="p47b57527fa">
   <rect x="31.66" y="25.49625" width="418.34" height="292.22375"/>
  </clipPath>
 </defs>
</svg>
