<?xml version="1.0" encoding="utf-8" standalone="no"?>
<!DOCTYPE svg PUBLIC "-//W3C//DTD SVG 1.1//EN"
  "http://www.w3.org/Graphics/SVG/1.1/DTD/svg11.dtd">
<svg xmlns:xlink="http://www.w3.org/1999/xlink" width="460.8pt" height="345.6pt" viewBox="0 0 460.8 345.6" xmlns="http://www.w3.org/2000/svg" version="1.1">
 <metadata>
  <rdf:RDF xmlns:dc="http://purl.org/dc/elements/1.1/" xmlns:cc="http://creativecommons.org/ns#" xmlns:rdf="http://www.w3.org/1999/02/22-rdf-syntax-ns#">
   <cc:Work>
    <dc:type rdf:resource="http://purl.org/dc/dcmitype/StillImage"/>
    <dc:date>2024-08-18T00:06:06.703319</dc:date>
    <dc:format>image/svg+xml</dc:format>
    <dc:creator>
     <cc:Agent>
      <dc:title>Matplotlib v3.9.2, https://matplotlib.org/</dc:title>
     </cc:Agent>
    </dc:creator>
   </cc:Work>
  </rdf:RDF>
 </metadata>
 <defs>
  <style type="text/css">*{stroke-linejoin: round; stroke-linecap: butt}</style>
 </defs>
 <g id="figure_1">
  <g id="patch_1">
   <path d="M 0 345.6 
L 460.8 345.6 
L 460.8 0 
L 0 0 
z
" style="fill: #ffffff"/>
  </g>
  <g id="axes_1">
   <g id="patch_2">
    <path d="M 37.24 317.72 
L 450 317.72 
L 450 25.49625 
L 37.24 25.49625 
z
" style="fill: #eaeaf2"/>
   </g>
   <g id="matplotlib.axis_1">
    <g id="xtick_1">
     <g id="text_1">
      <!-- 1970 -->
      <g style="fill: #262626" transform="translate(44.879943 331.877812) scale(0.1 -0.1)">
       <defs>
        <path id="ArialMT-31" d="M 2384 0 
L 1822 0 
L 1822 3584 
Q 1619 3391 1289 3197 
Q 959 3003 697 2906 
L 697 3450 
Q 1169 3672 1522 3987 
Q 1875 4303 2022 4600 
L 2384 4600 
L 2384 0 
z
" transform="scale(0.015625)"/>
        <path id="ArialMT-39" d="M 350 1059 
L 891 1109 
Q 959 728 1153 556 
Q 1347 384 1650 384 
Q 1909 384 2104 503 
Q 2300 622 2425 820 
Q 2550 1019 2634 1356 
Q 2719 1694 2719 2044 
Q 2719 2081 2716 2156 
Q 2547 1888 2255 1720 
Q 1963 1553 1622 1553 
Q 1053 1553 659 1965 
Q 266 2378 266 3053 
Q 266 3750 677 4175 
Q 1088 4600 1706 4600 
Q 2153 4600 2523 4359 
Q 2894 4119 3086 3673 
Q 3278 3228 3278 2384 
Q 3278 1506 3087 986 
Q 2897 466 2520 194 
Q 2144 -78 1638 -78 
Q 1100 -78 759 220 
Q 419 519 350 1059 
z
M 2653 3081 
Q 2653 3566 2395 3850 
Q 2138 4134 1775 4134 
Q 1400 4134 1122 3828 
Q 844 3522 844 3034 
Q 844 2597 1108 2323 
Q 1372 2050 1759 2050 
Q 2150 2050 2401 2323 
Q 2653 2597 2653 3081 
z
" transform="scale(0.015625)"/>
        <path id="ArialMT-37" d="M 303 3981 
L 303 4522 
L 3269 4522 
L 3269 4084 
Q 2831 3619 2401 2847 
Q 1972 2075 1738 1259 
Q 1569 684 1522 0 
L 944 0 
Q 953 541 1156 1306 
Q 1359 2072 1739 2783 
Q 2119 3494 2547 3981 
L 303 3981 
z
" transform="scale(0.015625)"/>
        <path id="ArialMT-30" d="M 266 2259 
Q 266 3072 433 3567 
Q 600 4063 929 4331 
Q 1259 4600 1759 4600 
Q 2128 4600 2406 4451 
Q 2684 4303 2865 4023 
Q 3047 3744 3150 3342 
Q 3253 2941 3253 2259 
Q 3253 1453 3087 958 
Q 2922 463 2592 192 
Q 2263 -78 1759 -78 
Q 1097 -78 719 397 
Q 266 969 266 2259 
z
M 844 2259 
Q 844 1131 1108 757 
Q 1372 384 1759 384 
Q 2147 384 2411 759 
Q 2675 1134 2675 2259 
Q 2675 3391 2411 3762 
Q 2147 4134 1753 4134 
Q 1366 4134 1134 3806 
Q 844 3388 844 2259 
z
" transform="scale(0.015625)"/>
       </defs>
       <use xlink:href="#ArialMT-31"/>
       <use xlink:href="#ArialMT-39" x="55.615234"/>
       <use xlink:href="#ArialMT-37" x="111.230469"/>
       <use xlink:href="#ArialMT-30" x="166.845703"/>
      </g>
     </g>
    </g>
    <g id="xtick_2">
     <g id="text_2">
      <!-- 1980 -->
      <g style="fill: #262626" transform="translate(115.679257 331.877812) scale(0.1 -0.1)">
       <defs>
        <path id="ArialMT-38" d="M 1131 2484 
Q 781 2613 612 2850 
Q 444 3088 444 3419 
Q 444 3919 803 4259 
Q 1163 4600 1759 4600 
Q 2359 4600 2725 4251 
Q 3091 3903 3091 3403 
Q 3091 3084 2923 2848 
Q 2756 2613 2416 2484 
Q 2838 2347 3058 2040 
Q 3278 1734 3278 1309 
Q 3278 722 2862 322 
Q 2447 -78 1769 -78 
Q 1091 -78 675 323 
Q 259 725 259 1325 
Q 259 1772 486 2073 
Q 713 2375 1131 2484 
z
M 1019 3438 
Q 1019 3113 1228 2906 
Q 1438 2700 1772 2700 
Q 2097 2700 2305 2904 
Q 2513 3109 2513 3406 
Q 2513 3716 2298 3927 
Q 2084 4138 1766 4138 
Q 1444 4138 1231 3931 
Q 1019 3725 1019 3438 
z
M 838 1322 
Q 838 1081 952 856 
Q 1066 631 1291 507 
Q 1516 384 1775 384 
Q 2178 384 2440 643 
Q 2703 903 2703 1303 
Q 2703 1709 2433 1975 
Q 2163 2241 1756 2241 
Q 1359 2241 1098 1978 
Q 838 1716 838 1322 
z
" transform="scale(0.015625)"/>
       </defs>
       <use xlink:href="#ArialMT-31"/>
       <use xlink:href="#ArialMT-39" x="55.615234"/>
       <use xlink:href="#ArialMT-38" x="111.230469"/>
       <use xlink:href="#ArialMT-30" x="166.845703"/>
      </g>
     </g>
    </g>
    <g id="xtick_3">
     <g id="text_3">
      <!-- 1990 -->
      <g style="fill: #262626" transform="translate(186.478571 331.877812) scale(0.1 -0.1)">
       <use xlink:href="#ArialMT-31"/>
       <use xlink:href="#ArialMT-39" x="55.615234"/>
       <use xlink:href="#ArialMT-39" x="111.230469"/>
       <use xlink:href="#ArialMT-30" x="166.845703"/>
      </g>
     </g>
    </g>
    <g id="xtick_4">
     <g id="text_4">
      <!-- 2000 -->
      <g style="fill: #262626" transform="translate(257.277885 331.877812) scale(0.1 -0.1)">
       <defs>
        <path id="ArialMT-32" d="M 3222 541 
L 3222 0 
L 194 0 
Q 188 203 259 391 
Q 375 700 629 1000 
Q 884 1300 1366 1694 
Q 2113 2306 2375 2664 
Q 2638 3022 2638 3341 
Q 2638 3675 2398 3904 
Q 2159 4134 1775 4134 
Q 1369 4134 1125 3890 
Q 881 3647 878 3216 
L 300 3275 
Q 359 3922 746 4261 
Q 1134 4600 1788 4600 
Q 2447 4600 2831 4234 
Q 3216 3869 3216 3328 
Q 3216 3053 3103 2787 
Q 2991 2522 2730 2228 
Q 2469 1934 1863 1422 
Q 1356 997 1212 845 
Q 1069 694 975 541 
L 3222 541 
z
" transform="scale(0.015625)"/>
       </defs>
       <use xlink:href="#ArialMT-32"/>
       <use xlink:href="#ArialMT-30" x="55.615234"/>
       <use xlink:href="#ArialMT-30" x="111.230469"/>
       <use xlink:href="#ArialMT-30" x="166.845703"/>
      </g>
     </g>
    </g>
    <g id="xtick_5">
     <g id="text_5">
      <!-- 2010 -->
      <g style="fill: #262626" transform="translate(328.077199 331.877812) scale(0.1 -0.1)">
       <use xlink:href="#ArialMT-32"/>
       <use xlink:href="#ArialMT-30" x="55.615234"/>
       <use xlink:href="#ArialMT-31" x="111.230469"/>
       <use xlink:href="#ArialMT-30" x="166.845703"/>
      </g>
     </g>
    </g>
    <g id="xtick_6">
     <g id="text_6">
      <!-- 2020 -->
      <g style="fill: #262626" transform="translate(398.876513 331.877812) scale(0.1 -0.1)">
       <use xlink:href="#ArialMT-32"/>
       <use xlink:href="#ArialMT-30" x="55.615234"/>
       <use xlink:href="#ArialMT-32" x="111.230469"/>
       <use xlink:href="#ArialMT-30" x="166.845703"/>
      </g>
     </g>
    </g>
   </g>
   <g id="matplotlib.axis_2">
    <g id="ytick_1">
     <g id="text_7">
      <!-- 5.75 -->
      <g style="fill: #262626" transform="translate(10.779063 298.452356) scale(0.1 -0.1)">
       <defs>
        <path id="ArialMT-35" d="M 266 1200 
L 856 1250 
Q 922 819 1161 601 
Q 1400 384 1738 384 
Q 2144 384 2425 690 
Q 2706 997 2706 1503 
Q 2706 1984 2436 2262 
Q 2166 2541 1728 2541 
Q 1456 2541 1237 2417 
Q 1019 2294 894 2097 
L 366 2166 
L 809 4519 
L 3088 4519 
L 3088 3981 
L 1259 3981 
L 1013 2750 
Q 1425 3038 1878 3038 
Q 2478 3038 2890 2622 
Q 3303 2206 3303 1553 
Q 3303 931 2941 478 
Q 2500 -78 1738 -78 
Q 1113 -78 717 272 
Q 322 622 266 1200 
z
" transform="scale(0.015625)"/>
        <path id="ArialMT-2e" d="M 581 0 
L 581 641 
L 1222 641 
L 1222 0 
L 581 0 
z
" transform="scale(0.015625)"/>
       </defs>
       <use xlink:href="#ArialMT-35"/>
       <use xlink:href="#ArialMT-2e" x="55.615234"/>
       <use xlink:href="#ArialMT-37" x="83.398438"/>
       <use xlink:href="#ArialMT-35" x="139.013672"/>
      </g>
     </g>
    </g>
    <g id="ytick_2">
     <g id="text_8">
      <!-- 6.00 -->
      <g style="fill: #262626" transform="translate(10.779063 264.09013) scale(0.1 -0.1)">
       <defs>
        <path id="ArialMT-36" d="M 3184 3459 
L 2625 3416 
Q 2550 3747 2413 3897 
Q 2184 4138 1850 4138 
Q 1581 4138 1378 3988 
Q 1113 3794 959 3422 
Q 806 3050 800 2363 
Q 1003 2672 1297 2822 
Q 1591 2972 1913 2972 
Q 2475 2972 2870 2558 
Q 3266 2144 3266 1488 
Q 3266 1056 3080 686 
Q 2894 316 2569 119 
Q 2244 -78 1831 -78 
Q 1128 -78 684 439 
Q 241 956 241 2144 
Q 241 3472 731 4075 
Q 1159 4600 1884 4600 
Q 2425 4600 2770 4297 
Q 3116 3994 3184 3459 
z
M 888 1484 
Q 888 1194 1011 928 
Q 1134 663 1356 523 
Q 1578 384 1822 384 
Q 2178 384 2434 671 
Q 2691 959 2691 1453 
Q 2691 1928 2437 2201 
Q 2184 2475 1800 2475 
Q 1419 2475 1153 2201 
Q 888 1928 888 1484 
z
" transform="scale(0.015625)"/>
       </defs>
       <use xlink:href="#ArialMT-36"/>
       <use xlink:href="#ArialMT-2e" x="55.615234"/>
       <use xlink:href="#ArialMT-30" x="83.398438"/>
       <use xlink:href="#ArialMT-30" x="139.013672"/>
      </g>
     </g>
    </g>
    <g id="ytick_3">
     <g id="text_9">
      <!-- 6.25 -->
      <g style="fill: #262626" transform="translate(10.779063 229.727903) scale(0.1 -0.1)">
       <use xlink:href="#ArialMT-36"/>
       <use xlink:href="#ArialMT-2e" x="55.615234"/>
       <use xlink:href="#ArialMT-32" x="83.398438"/>
       <use xlink:href="#ArialMT-35" x="139.013672"/>
      </g>
     </g>
    </g>
    <g id="ytick_4">
     <g id="text_10">
      <!-- 6.50 -->
      <g style="fill: #262626" transform="translate(10.779063 195.365676) scale(0.1 -0.1)">
       <use xlink:href="#ArialMT-36"/>
       <use xlink:href="#ArialMT-2e" x="55.615234"/>
       <use xlink:href="#ArialMT-35" x="83.398438"/>
       <use xlink:href="#ArialMT-30" x="139.013672"/>
      </g>
     </g>
    </g>
    <g id="ytick_5">
     <g id="text_11">
      <!-- 6.75 -->
      <g style="fill: #262626" transform="translate(10.779063 161.003449) scale(0.1 -0.1)">
       <use xlink:href="#ArialMT-36"/>
       <use xlink:href="#ArialMT-2e" x="55.615234"/>
       <use xlink:href="#ArialMT-37" x="83.398438"/>
       <use xlink:href="#ArialMT-35" x="139.013672"/>
      </g>
     </g>
    </g>
    <g id="ytick_6">
     <g id="text_12">
      <!-- 7.00 -->
      <g style="fill: #262626" transform="translate(10.779063 126.641222) scale(0.1 -0.1)">
       <use xlink:href="#ArialMT-37"/>
       <use xlink:href="#ArialMT-2e" x="55.615234"/>
       <use xlink:href="#ArialMT-30" x="83.398438"/>
       <use xlink:href="#ArialMT-30" x="139.013672"/>
      </g>
     </g>
    </g>
    <g id="ytick_7">
     <g id="text_13">
      <!-- 7.25 -->
      <g style="fill: #262626" transform="translate(10.779063 92.278996) scale(0.1 -0.1)">
       <use xlink:href="#ArialMT-37"/>
       <use xlink:href="#ArialMT-2e" x="55.615234"/>
       <use xlink:href="#ArialMT-32" x="83.398438"/>
       <use xlink:href="#ArialMT-35" x="139.013672"/>
      </g>
     </g>
    </g>
    <g id="ytick_8">
     <g id="text_14">
      <!-- 7.50 -->
      <g style="fill: #262626" transform="translate(10.779063 57.916769) scale(0.1 -0.1)">
       <use xlink:href="#ArialMT-37"/>
       <use xlink:href="#ArialMT-2e" x="55.615234"/>
       <use xlink:href="#ArialMT-35" x="83.398438"/>
       <use xlink:href="#ArialMT-30" x="139.013672"/>
      </g>
     </g>
    </g>
   </g>
   <g id="PathCollection_1">
    <path d="M 56.001818 286.448184 
C 56.564399 286.448184 57.104014 286.224669 57.501818 285.826864 
C 57.899623 285.429059 58.123139 284.889445 58.123139 284.326864 
C 58.123139 283.764283 57.899623 283.224669 57.501818 282.826864 
C 57.104014 282.429059 56.564399 282.205544 56.001818 282.205544 
C 55.439237 282.205544 54.899623 282.429059 54.501818 282.826864 
C 54.104014 283.224669 53.880498 283.764283 53.880498 284.326864 
C 53.880498 284.889445 54.104014 285.429059 54.501818 285.826864 
C 54.899623 286.224669 55.439237 286.448184 56.001818 286.448184 
z
" clip-path="url(#p5c561d460c)" style="fill: #800080; stroke: #ffffff; stroke-width: 0.345591"/>
    <path d="M 63.08175 306.625065 
C 63.662004 306.625065 64.218571 306.394528 64.628873 305.984226 
C 65.039175 305.573924 65.269713 305.017357 65.269713 304.437102 
C 65.269713 303.856848 65.039175 303.300281 64.628873 302.889979 
C 64.218571 302.479677 63.662004 302.249139 63.08175 302.249139 
C 62.501495 302.249139 61.944928 302.479677 61.534626 302.889979 
C 61.124324 303.300281 60.893786 303.856848 60.893786 304.437102 
C 60.893786 305.017357 61.124324 305.573924 61.534626 305.984226 
C 61.944928 306.394528 62.501495 306.625065 63.08175 306.625065 
z
" clip-path="url(#p5c561d460c)" style="fill: #800080; stroke: #ffffff; stroke-width: 0.345591"/>
    <path d="M 70.161681 266.088736 
C 70.729832 266.088736 71.274789 265.863007 71.676533 265.461264 
C 72.078276 265.05952 72.304005 264.514563 72.304005 263.946412 
C 72.304005 263.378261 72.078276 262.833304 71.676533 262.43156 
C 71.274789 262.029817 70.729832 261.804088 70.161681 261.804088 
C 69.59353 261.804088 69.048573 262.029817 68.646829 262.43156 
C 68.245086 262.833304 68.019357 263.378261 68.019357 263.946412 
C 68.019357 264.514563 68.245086 265.05952 68.646829 265.461264 
C 69.048573 265.863007 69.59353 266.088736 70.161681 266.088736 
z
" clip-path="url(#p5c561d460c)" style="fill: #800080; stroke: #ffffff; stroke-width: 0.345591"/>
    <path d="M 77.241612 251.726707 
C 77.8101 251.726707 78.35538 251.500845 78.757362 251.098863 
C 79.159343 250.696882 79.385206 250.151601 79.385206 249.583114 
C 79.385206 249.014626 79.159343 248.469346 78.757362 248.067364 
C 78.35538 247.665383 77.8101 247.43952 77.241612 247.43952 
C 76.673125 247.43952 76.127844 247.665383 75.725863 248.067364 
C 75.323881 248.469346 75.098019 249.014626 75.098019 249.583114 
C 75.098019 250.151601 75.323881 250.696882 75.725863 251.098863 
C 76.127844 251.500845 76.673125 251.726707 77.241612 251.726707 
z
" clip-path="url(#p5c561d460c)" style="fill: #800080; stroke: #ffffff; stroke-width: 0.345591"/>
    <path d="M 84.321544 258.869706 
C 84.8962 258.869706 85.447398 258.641392 85.853742 258.235048 
C 86.260085 257.828705 86.488399 257.277507 86.488399 256.702851 
C 86.488399 256.128194 86.260085 255.576996 85.853742 255.170653 
C 85.447398 254.764309 84.8962 254.535996 84.321544 254.535996 
C 83.746887 254.535996 83.19569 254.764309 82.789346 255.170653 
C 82.383002 255.576996 82.154689 256.128194 82.154689 256.702851 
C 82.154689 257.277507 82.383002 257.828705 82.789346 258.235048 
C 83.19569 258.641392 83.746887 258.869706 84.321544 258.869706 
z
" clip-path="url(#p5c561d460c)" style="fill: #800080; stroke: #ffffff; stroke-width: 0.345591"/>
    <path d="M 91.401475 278.909142 
C 91.973512 278.909142 92.522198 278.681869 92.926689 278.277378 
C 93.331181 277.872886 93.558453 277.324201 93.558453 276.752164 
C 93.558453 276.180126 93.331181 275.631441 92.926689 275.22695 
C 92.522198 274.822458 91.973512 274.595185 91.401475 274.595185 
C 90.829438 274.595185 90.280753 274.822458 89.876261 275.22695 
C 89.47177 275.631441 89.244497 276.180126 89.244497 276.752164 
C 89.244497 277.324201 89.47177 277.872886 89.876261 278.277378 
C 90.280753 278.681869 90.829438 278.909142 91.401475 278.909142 
z
" clip-path="url(#p5c561d460c)" style="fill: #800080; stroke: #ffffff; stroke-width: 0.345591"/>
    <path d="M 98.481407 231.868556 
C 99.046004 231.868556 99.587554 231.644239 99.986785 231.245008 
C 100.386016 230.845777 100.610333 230.304228 100.610333 229.73963 
C 100.610333 229.175032 100.386016 228.633483 99.986785 228.234252 
C 99.587554 227.835021 99.046004 227.610704 98.481407 227.610704 
C 97.916809 227.610704 97.375259 227.835021 96.976028 228.234252 
C 96.576798 228.633483 96.35248 229.175032 96.35248 229.73963 
C 96.35248 230.304228 96.576798 230.845777 96.976028 231.245008 
C 97.375259 231.644239 97.916809 231.868556 98.481407 231.868556 
z
" clip-path="url(#p5c561d460c)" style="fill: #800080; stroke: #ffffff; stroke-width: 0.345591"/>
    <path d="M 105.561338 209.83145 
C 106.14891 209.83145 106.712495 209.598005 107.127972 209.182529 
C 107.543448 208.767053 107.776892 208.203467 107.776892 207.615895 
C 107.776892 207.028323 107.543448 206.464737 107.127972 206.049261 
C 106.712495 205.633785 106.14891 205.40034 105.561338 205.40034 
C 104.973766 205.40034 104.41018 205.633785 103.994704 206.049261 
C 103.579228 206.464737 103.345783 207.028323 103.345783 207.615895 
C 103.345783 208.203467 103.579228 208.767053 103.994704 209.182529 
C 104.41018 209.598005 104.973766 209.83145 105.561338 209.83145 
z
" clip-path="url(#p5c561d460c)" style="fill: #800080; stroke: #ffffff; stroke-width: 0.345591"/>
    <path d="M 112.641269 275.193444 
C 113.210172 275.193444 113.75585 274.967416 114.158124 274.565142 
C 114.560399 274.162867 114.786426 273.617189 114.786426 273.048287 
C 114.786426 272.479384 114.560399 271.933706 114.158124 271.531432 
C 113.75585 271.129157 113.210172 270.90313 112.641269 270.90313 
C 112.072367 270.90313 111.526689 271.129157 111.124414 271.531432 
C 110.72214 271.933706 110.496112 272.479384 110.496112 273.048287 
C 110.496112 273.617189 110.72214 274.162867 111.124414 274.565142 
C 111.526689 274.967416 112.072367 275.193444 112.641269 275.193444 
z
" clip-path="url(#p5c561d460c)" style="fill: #800080; stroke: #ffffff; stroke-width: 0.345591"/>
    <path d="M 119.721201 216.298144 
C 120.305353 216.298144 120.865658 216.066058 121.278716 215.653 
C 121.691774 215.239942 121.92386 214.679637 121.92386 214.095485 
C 121.92386 213.511333 121.691774 212.951028 121.278716 212.53797 
C 120.865658 212.124912 120.305353 211.892826 119.721201 211.892826 
C 119.137049 211.892826 118.576743 212.124912 118.163686 212.53797 
C 117.750628 212.951028 117.518542 213.511333 117.518542 214.095485 
C 117.518542 214.679637 117.750628 215.239942 118.163686 215.653 
C 118.576743 216.066058 119.137049 216.298144 119.721201 216.298144 
z
" clip-path="url(#p5c561d460c)" style="fill: #800080; stroke: #ffffff; stroke-width: 0.345591"/>
    <path d="M 126.801132 165.558198 
C 127.383829 165.558198 127.942739 165.326689 128.354769 164.91466 
C 128.766798 164.502631 128.998306 163.943721 128.998306 163.361024 
C 128.998306 162.778326 128.766798 162.219417 128.354769 161.807387 
C 127.942739 161.395358 127.383829 161.16385 126.801132 161.16385 
C 126.218435 161.16385 125.659525 161.395358 125.247496 161.807387 
C 124.835466 162.219417 124.603958 162.778326 124.603958 163.361024 
C 124.603958 163.943721 124.835466 164.502631 125.247496 164.91466 
C 125.659525 165.326689 126.218435 165.558198 126.801132 165.558198 
z
" clip-path="url(#p5c561d460c)" style="fill: #800080; stroke: #ffffff; stroke-width: 0.345591"/>
    <path d="M 133.881063 235.978251 
C 134.464146 235.978251 135.023426 235.74659 135.435728 235.334288 
C 135.84803 234.921986 136.079691 234.362706 136.079691 233.779624 
C 136.079691 233.196541 135.84803 232.637261 135.435728 232.224959 
C 135.023426 231.812657 134.464146 231.580996 133.881063 231.580996 
C 133.297981 231.580996 132.738701 231.812657 132.326399 232.224959 
C 131.914097 232.637261 131.682436 233.196541 131.682436 233.779624 
C 131.682436 234.362706 131.914097 234.921986 132.326399 235.334288 
C 132.738701 235.74659 133.297981 235.978251 133.881063 235.978251 
z
" clip-path="url(#p5c561d460c)" style="fill: #800080; stroke: #ffffff; stroke-width: 0.345591"/>
    <path d="M 140.960995 171.118777 
C 141.566106 171.118777 142.146515 170.878364 142.574393 170.450486 
C 143.002271 170.022607 143.242684 169.442199 143.242684 168.837087 
C 143.242684 168.231976 143.002271 167.651568 142.574393 167.223689 
C 142.146515 166.795811 141.566106 166.555398 140.960995 166.555398 
C 140.355884 166.555398 139.775475 166.795811 139.347597 167.223689 
C 138.919719 167.651568 138.679305 168.231976 138.679305 168.837087 
C 138.679305 169.442199 138.919719 170.022607 139.347597 170.450486 
C 139.775475 170.878364 140.355884 171.118777 140.960995 171.118777 
z
" clip-path="url(#p5c561d460c)" style="fill: #800080; stroke: #ffffff; stroke-width: 0.345591"/>
    <path d="M 148.040926 227.301294 
C 148.634602 227.301294 149.204043 227.065424 149.623835 226.645631 
C 150.043627 226.225839 150.279497 225.656399 150.279497 225.062723 
C 150.279497 224.469047 150.043627 223.899606 149.623835 223.479814 
C 149.204043 223.060022 148.634602 222.824152 148.040926 222.824152 
C 147.44725 222.824152 146.87781 223.060022 146.458018 223.479814 
C 146.038225 223.899606 145.802355 224.469047 145.802355 225.062723 
C 145.802355 225.656399 146.038225 226.225839 146.458018 226.645631 
C 146.87781 227.065424 147.44725 227.301294 148.040926 227.301294 
z
" clip-path="url(#p5c561d460c)" style="fill: #800080; stroke: #ffffff; stroke-width: 0.345591"/>
    <path d="M 155.120858 208.624812 
C 155.697229 208.624812 156.250072 208.395817 156.657628 207.988261 
C 157.065184 207.580705 157.294179 207.027862 157.294179 206.451491 
C 157.294179 205.875119 157.065184 205.322276 156.657628 204.91472 
C 156.250072 204.507164 155.697229 204.278169 155.120858 204.278169 
C 154.544486 204.278169 153.991644 204.507164 153.584087 204.91472 
C 153.176531 205.322276 152.947536 205.875119 152.947536 206.451491 
C 152.947536 207.027862 153.176531 207.580705 153.584087 207.988261 
C 153.991644 208.395817 154.544486 208.624812 155.120858 208.624812 
z
" clip-path="url(#p5c561d460c)" style="fill: #800080; stroke: #ffffff; stroke-width: 0.345591"/>
    <path d="M 162.200789 199.98309 
C 162.782643 199.98309 163.340745 199.751916 163.752178 199.340483 
C 164.163611 198.92905 164.394785 198.370949 164.394785 197.789094 
C 164.394785 197.20724 164.163611 196.649138 163.752178 196.237705 
C 163.340745 195.826272 162.782643 195.595099 162.200789 195.595099 
C 161.618935 195.595099 161.060833 195.826272 160.6494 196.237705 
C 160.237967 196.649138 160.006794 197.20724 160.006794 197.789094 
C 160.006794 198.370949 160.237967 198.92905 160.6494 199.340483 
C 161.060833 199.751916 161.618935 199.98309 162.200789 199.98309 
z
" clip-path="url(#p5c561d460c)" style="fill: #800080; stroke: #ffffff; stroke-width: 0.345591"/>
    <path d="M 169.28072 182.422064 
C 169.876516 182.422064 170.447989 182.185352 170.869279 181.764061 
C 171.29057 181.34277 171.527282 180.771297 171.527282 180.175502 
C 171.527282 179.579707 171.29057 179.008234 170.869279 178.586943 
C 170.447989 178.165652 169.876516 177.92894 169.28072 177.92894 
C 168.684925 177.92894 168.113452 178.165652 167.692161 178.586943 
C 167.270871 179.008234 167.034159 179.579707 167.034159 180.175502 
C 167.034159 180.771297 167.270871 181.34277 167.692161 181.764061 
C 168.113452 182.185352 168.684925 182.422064 169.28072 182.422064 
z
" clip-path="url(#p5c561d460c)" style="fill: #800080; stroke: #ffffff; stroke-width: 0.345591"/>
    <path d="M 176.360652 225.264233 
C 176.941426 225.264233 177.498491 225.033489 177.909161 224.62282 
C 178.31983 224.21215 178.550574 223.655085 178.550574 223.074311 
C 178.550574 222.493536 178.31983 221.936471 177.909161 221.525802 
C 177.498491 221.115132 176.941426 220.884388 176.360652 220.884388 
C 175.779878 220.884388 175.222812 221.115132 174.812143 221.525802 
C 174.401473 221.936471 174.170729 222.493536 174.170729 223.074311 
C 174.170729 223.655085 174.401473 224.21215 174.812143 224.62282 
C 175.222812 225.033489 175.779878 225.264233 176.360652 225.264233 
z
" clip-path="url(#p5c561d460c)" style="fill: #800080; stroke: #ffffff; stroke-width: 0.345591"/>
    <path d="M 183.440583 224.764764 
C 184.029244 224.764764 184.593875 224.530886 185.010121 224.11464 
C 185.426368 223.698393 185.660245 223.133763 185.660245 222.545102 
C 185.660245 221.956441 185.426368 221.39181 185.010121 220.975564 
C 184.593875 220.559317 184.029244 220.32544 183.440583 220.32544 
C 182.851922 220.32544 182.287292 220.559317 181.871045 220.975564 
C 181.454799 221.39181 181.220921 221.956441 181.220921 222.545102 
C 181.220921 223.133763 181.454799 223.698393 181.871045 224.11464 
C 182.287292 224.530886 182.851922 224.764764 183.440583 224.764764 
z
" clip-path="url(#p5c561d460c)" style="fill: #800080; stroke: #ffffff; stroke-width: 0.345591"/>
    <path d="M 190.520515 200.329178 
C 191.112289 200.329178 191.679905 200.094064 192.098353 199.675616 
C 192.5168 199.257168 192.751915 198.689552 192.751915 198.097778 
C 192.751915 197.506003 192.5168 196.938387 192.098353 196.519939 
C 191.679905 196.101492 191.112289 195.866377 190.520515 195.866377 
C 189.92874 195.866377 189.361124 196.101492 188.942676 196.519939 
C 188.524229 196.938387 188.289114 197.506003 188.289114 198.097778 
C 188.289114 198.689552 188.524229 199.257168 188.942676 199.675616 
C 189.361124 200.094064 189.92874 200.329178 190.520515 200.329178 
z
" clip-path="url(#p5c561d460c)" style="fill: #800080; stroke: #ffffff; stroke-width: 0.345591"/>
    <path d="M 197.600446 219.873412 
C 198.184649 219.873412 198.745004 219.641305 199.158098 219.228211 
C 199.571192 218.815117 199.803298 218.254763 199.803298 217.670559 
C 199.803298 217.086356 199.571192 216.526001 199.158098 216.112907 
C 198.745004 215.699813 198.184649 215.467707 197.600446 215.467707 
C 197.016243 215.467707 196.455888 215.699813 196.042794 216.112907 
C 195.6297 216.526001 195.397594 217.086356 195.397594 217.670559 
C 195.397594 218.254763 195.6297 218.815117 196.042794 219.228211 
C 196.455888 219.641305 197.016243 219.873412 197.600446 219.873412 
z
" clip-path="url(#p5c561d460c)" style="fill: #800080; stroke: #ffffff; stroke-width: 0.345591"/>
    <path d="M 204.680377 187.911063 
C 205.273598 187.911063 205.842602 187.675374 206.262073 187.255903 
C 206.681544 186.836433 206.917233 186.267429 206.917233 185.674208 
C 206.917233 185.080987 206.681544 184.511983 206.262073 184.092512 
C 205.842602 183.673041 205.273598 183.437352 204.680377 183.437352 
C 204.087156 183.437352 203.518152 183.673041 203.098682 184.092512 
C 202.679211 184.511983 202.443522 185.080987 202.443522 185.674208 
C 202.443522 186.267429 202.679211 186.836433 203.098682 187.255903 
C 203.518152 187.675374 204.087156 187.911063 204.680377 187.911063 
z
" clip-path="url(#p5c561d460c)" style="fill: #800080; stroke: #ffffff; stroke-width: 0.345591"/>
    <path d="M 211.760309 175.980016 
C 212.363045 175.980016 212.941176 175.740547 213.367375 175.314348 
C 213.793574 174.888149 214.033043 174.310018 214.033043 173.707281 
C 214.033043 173.104545 213.793574 172.526414 213.367375 172.100215 
C 212.941176 171.674016 212.363045 171.434547 211.760309 171.434547 
C 211.157572 171.434547 210.579442 171.674016 210.153243 172.100215 
C 209.727044 172.526414 209.487574 173.104545 209.487574 173.707281 
C 209.487574 174.310018 209.727044 174.888149 210.153243 175.314348 
C 210.579442 175.740547 211.157572 175.980016 211.760309 175.980016 
z
" clip-path="url(#p5c561d460c)" style="fill: #800080; stroke: #ffffff; stroke-width: 0.345591"/>
    <path d="M 218.84024 159.749957 
C 219.447907 159.749957 220.030767 159.508528 220.460453 159.078843 
C 220.890138 158.649157 221.131567 158.066297 221.131567 157.45863 
C 221.131567 156.850963 220.890138 156.268103 220.460453 155.838417 
C 220.030767 155.408732 219.447907 155.167303 218.84024 155.167303 
C 218.232573 155.167303 217.649713 155.408732 217.220027 155.838417 
C 216.790342 156.268103 216.548913 156.850963 216.548913 157.45863 
C 216.548913 158.066297 216.790342 158.649157 217.220027 159.078843 
C 217.649713 159.508528 218.232573 159.749957 218.84024 159.749957 
z
" clip-path="url(#p5c561d460c)" style="fill: #800080; stroke: #ffffff; stroke-width: 0.345591"/>
    <path d="M 225.920172 173.907411 
C 226.536895 173.907411 227.128442 173.662384 227.564531 173.226295 
C 228.000621 172.790206 228.245648 172.198658 228.245648 171.581935 
C 228.245648 170.965212 228.000621 170.373664 227.564531 169.937575 
C 227.128442 169.501486 226.536895 169.256459 225.920172 169.256459 
C 225.303448 169.256459 224.711901 169.501486 224.275812 169.937575 
C 223.839722 170.373664 223.594695 170.965212 223.594695 171.581935 
C 223.594695 172.198658 223.839722 172.790206 224.275812 173.226295 
C 224.711901 173.662384 225.303448 173.907411 225.920172 173.907411 
z
" clip-path="url(#p5c561d460c)" style="fill: #800080; stroke: #ffffff; stroke-width: 0.345591"/>
    <path d="M 233.000103 130.883172 
C 233.682343 130.883172 234.336731 130.612115 234.819147 130.129699 
C 235.301564 129.647283 235.57262 128.992894 235.57262 128.310654 
C 235.57262 127.628415 235.301564 126.974026 234.819147 126.49161 
C 234.336731 126.009194 233.682343 125.738137 233.000103 125.738137 
C 232.317863 125.738137 231.663475 126.009194 231.181058 126.49161 
C 230.698642 126.974026 230.427585 127.628415 230.427585 128.310654 
C 230.427585 128.992894 230.698642 129.647283 231.181058 130.129699 
C 231.663475 130.612115 232.317863 130.883172 233.000103 130.883172 
z
" clip-path="url(#p5c561d460c)" style="fill: #800080; stroke: #ffffff; stroke-width: 0.345591"/>
    <path d="M 240.080034 216.775704 
C 240.687085 216.775704 241.269354 216.53452 241.698604 216.10527 
C 242.127853 215.676021 242.369037 215.093752 242.369037 214.486701 
C 242.369037 213.87965 242.127853 213.297381 241.698604 212.868131 
C 241.269354 212.438882 240.687085 212.197698 240.080034 212.197698 
C 239.472984 212.197698 238.890714 212.438882 238.461465 212.868131 
C 238.032215 213.297381 237.791031 213.87965 237.791031 214.486701 
C 237.791031 215.093752 238.032215 215.676021 238.461465 216.10527 
C 238.890714 216.53452 239.472984 216.775704 240.080034 216.775704 
z
" clip-path="url(#p5c561d460c)" style="fill: #800080; stroke: #ffffff; stroke-width: 0.345591"/>
    <path d="M 247.159966 164.764007 
C 247.827539 164.764007 248.46786 164.498778 248.939905 164.026732 
C 249.411951 163.554687 249.677181 162.914366 249.677181 162.246792 
C 249.677181 161.579219 249.411951 160.938898 248.939905 160.466853 
C 248.46786 159.994807 247.827539 159.729577 247.159966 159.729577 
C 246.492392 159.729577 245.852071 159.994807 245.380026 160.466853 
C 244.90798 160.938898 244.642751 161.579219 244.642751 162.246792 
C 244.642751 162.914366 244.90798 163.554687 245.380026 164.026732 
C 245.852071 164.498778 246.492392 164.764007 247.159966 164.764007 
z
" clip-path="url(#p5c561d460c)" style="fill: #800080; stroke: #ffffff; stroke-width: 0.345591"/>
    <path d="M 254.239897 194.035493 
C 254.875678 194.035493 255.485505 193.782895 255.93507 193.33333 
C 256.384635 192.883765 256.637233 192.273938 256.637233 191.638157 
C 256.637233 191.002376 256.384635 190.392549 255.93507 189.942984 
C 255.485505 189.493419 254.875678 189.240821 254.239897 189.240821 
C 253.604116 189.240821 252.994289 189.493419 252.544724 189.942984 
C 252.095159 190.392549 251.842561 191.002376 251.842561 191.638157 
C 251.842561 192.273938 252.095159 192.883765 252.544724 193.33333 
C 252.994289 193.782895 253.604116 194.035493 254.239897 194.035493 
z
" clip-path="url(#p5c561d460c)" style="fill: #800080; stroke: #ffffff; stroke-width: 0.345591"/>
    <path d="M 261.319828 147.993605 
C 262.007086 147.993605 262.666288 147.720554 263.152253 147.23459 
C 263.638217 146.748625 263.911268 146.089423 263.911268 145.402165 
C 263.911268 144.714908 263.638217 144.055706 263.152253 143.569741 
C 262.666288 143.083777 262.007086 142.810726 261.319828 142.810726 
C 260.632571 142.810726 259.973369 143.083777 259.487404 143.569741 
C 259.00144 144.055706 258.728389 144.714908 258.728389 145.402165 
C 258.728389 146.089423 259.00144 146.748625 259.487404 147.23459 
C 259.973369 147.720554 260.632571 147.993605 261.319828 147.993605 
z
" clip-path="url(#p5c561d460c)" style="fill: #800080; stroke: #ffffff; stroke-width: 0.345591"/>
    <path d="M 268.39976 133.385527 
C 269.129897 133.385527 269.830229 133.09544 270.346514 132.579155 
C 270.862799 132.06287 271.152886 131.362539 271.152886 130.632401 
C 271.152886 129.902264 270.862799 129.201933 270.346514 128.685647 
C 269.830229 128.169362 269.129897 127.879275 268.39976 127.879275 
C 267.669622 127.879275 266.969291 128.169362 266.453006 128.685647 
C 265.936721 129.201933 265.646634 129.902264 265.646634 130.632401 
C 265.646634 131.362539 265.936721 132.06287 266.453006 132.579155 
C 266.969291 133.09544 267.669622 133.385527 268.39976 133.385527 
z
" clip-path="url(#p5c561d460c)" style="fill: #800080; stroke: #ffffff; stroke-width: 0.345591"/>
    <path d="M 275.479691 207.358894 
C 276.161676 207.358894 276.81582 207.087939 277.298056 206.605703 
C 277.780292 206.123467 278.051248 205.469323 278.051248 204.787338 
C 278.051248 204.105353 277.780292 203.451209 277.298056 202.968973 
C 276.81582 202.486737 276.161676 202.215782 275.479691 202.215782 
C 274.797707 202.215782 274.143562 202.486737 273.661326 202.968973 
C 273.17909 203.451209 272.908135 204.105353 272.908135 204.787338 
C 272.908135 205.469323 273.17909 206.123467 273.661326 206.605703 
C 274.143562 207.087939 274.797707 207.358894 275.479691 207.358894 
z
" clip-path="url(#p5c561d460c)" style="fill: #800080; stroke: #ffffff; stroke-width: 0.345591"/>
    <path d="M 282.559623 157.195495 
C 283.261693 157.195495 283.935103 156.916559 284.431541 156.420121 
C 284.92798 155.923682 285.206915 155.250273 285.206915 154.548202 
C 285.206915 153.846132 284.92798 153.172722 284.431541 152.676284 
C 283.935103 152.179845 283.261693 151.90091 282.559623 151.90091 
C 281.857552 151.90091 281.184143 152.179845 280.687704 152.676284 
C 280.191266 153.172722 279.91233 153.846132 279.91233 154.548202 
C 279.91233 155.250273 280.191266 155.923682 280.687704 156.420121 
C 281.184143 156.916559 281.857552 157.195495 282.559623 157.195495 
z
" clip-path="url(#p5c561d460c)" style="fill: #800080; stroke: #ffffff; stroke-width: 0.345591"/>
    <path d="M 289.639554 179.894231 
C 290.344502 179.894231 291.020673 179.614152 291.519147 179.115679 
C 292.01762 178.617205 292.297699 177.941034 292.297699 177.236086 
C 292.297699 176.531138 292.01762 175.854967 291.519147 175.356494 
C 291.020673 174.85802 290.344502 174.577941 289.639554 174.577941 
C 288.934606 174.577941 288.258435 174.85802 287.759962 175.356494 
C 287.261488 175.854967 286.981409 176.531138 286.981409 177.236086 
C 286.981409 177.941034 287.261488 178.617205 287.759962 179.115679 
C 288.258435 179.614152 288.934606 179.894231 289.639554 179.894231 
z
" clip-path="url(#p5c561d460c)" style="fill: #800080; stroke: #ffffff; stroke-width: 0.345591"/>
    <path d="M 296.719485 130.010339 
C 297.550259 130.010339 298.347119 129.680269 298.934565 129.092823 
C 299.522011 128.505377 299.852081 127.708517 299.852081 126.877743 
C 299.852081 126.046969 299.522011 125.25011 298.934565 124.662664 
C 298.347119 124.075218 297.550259 123.745148 296.719485 123.745148 
C 295.888711 123.745148 295.091852 124.075218 294.504406 124.662664 
C 293.91696 125.25011 293.58689 126.046969 293.58689 126.877743 
C 293.58689 127.708517 293.91696 128.505377 294.504406 129.092823 
C 295.091852 129.680269 295.888711 130.010339 296.719485 130.010339 
z
" clip-path="url(#p5c561d460c)" style="fill: #800080; stroke: #ffffff; stroke-width: 0.345591"/>
    <path d="M 303.799417 129.127994 
C 304.637279 129.127994 305.440938 128.795108 306.033396 128.20265 
C 306.625855 127.610192 306.958741 126.806533 306.958741 125.96867 
C 306.958741 125.130808 306.625855 124.327149 306.033396 123.734691 
C 305.440938 123.142232 304.637279 122.809346 303.799417 122.809346 
C 302.961554 122.809346 302.157896 123.142232 301.565437 123.734691 
C 300.972979 124.327149 300.640093 125.130808 300.640093 125.96867 
C 300.640093 126.806533 300.972979 127.610192 301.565437 128.20265 
C 302.157896 128.795108 302.961554 129.127994 303.799417 129.127994 
z
" clip-path="url(#p5c561d460c)" style="fill: #800080; stroke: #ffffff; stroke-width: 0.345591"/>
    <path d="M 310.879348 153.17935 
C 311.617354 153.17935 312.325232 152.886137 312.84708 152.364289 
C 313.368929 151.84244 313.662141 151.134562 313.662141 150.396557 
C 313.662141 149.658552 313.368929 148.950674 312.84708 148.428825 
C 312.325232 147.906976 311.617354 147.613764 310.879348 147.613764 
C 310.141343 147.613764 309.433465 147.906976 308.911616 148.428825 
C 308.389768 148.950674 308.096555 149.658552 308.096555 150.396557 
C 308.096555 151.134562 308.389768 151.84244 308.911616 152.364289 
C 309.433465 152.886137 310.141343 153.17935 310.879348 153.17935 
z
" clip-path="url(#p5c561d460c)" style="fill: #800080; stroke: #ffffff; stroke-width: 0.345591"/>
    <path d="M 317.95928 124.008519 
C 318.796292 124.008519 319.599135 123.67597 320.190993 123.084113 
C 320.78285 122.492256 321.115398 121.689412 321.115398 120.8524 
C 321.115398 120.015387 320.78285 119.212544 320.190993 118.620687 
C 319.599135 118.02883 318.796292 117.696281 317.95928 117.696281 
C 317.122267 117.696281 316.319424 118.02883 315.727567 118.620687 
C 315.135709 119.212544 314.803161 120.015387 314.803161 120.8524 
C 314.803161 121.689412 315.135709 122.492256 315.727567 123.084113 
C 316.319424 123.67597 317.122267 124.008519 317.95928 124.008519 
z
" clip-path="url(#p5c561d460c)" style="fill: #800080; stroke: #ffffff; stroke-width: 0.345591"/>
    <path d="M 325.039211 114.504587 
C 325.92812 114.504587 326.780742 114.15142 327.409296 113.522866 
C 328.03785 112.894312 328.391017 112.041691 328.391017 111.152781 
C 328.391017 110.263872 328.03785 109.41125 327.409296 108.782696 
C 326.780742 108.154142 325.92812 107.800975 325.039211 107.800975 
C 324.150302 107.800975 323.29768 108.154142 322.669126 108.782696 
C 322.040572 109.41125 321.687405 110.263872 321.687405 111.152781 
C 321.687405 112.041691 322.040572 112.894312 322.669126 113.522866 
C 323.29768 114.15142 324.150302 114.504587 325.039211 114.504587 
z
" clip-path="url(#p5c561d460c)" style="fill: #800080; stroke: #ffffff; stroke-width: 0.345591"/>
    <path d="M 332.119142 128.830596 
C 332.98705 128.830596 333.819527 128.485773 334.433231 127.872069 
C 335.046934 127.258366 335.391758 126.425889 335.391758 125.557981 
C 335.391758 124.690073 335.046934 123.857596 334.433231 123.243892 
C 333.819527 122.630189 332.98705 122.285365 332.119142 122.285365 
C 331.251235 122.285365 330.418757 122.630189 329.805054 123.243892 
C 329.19135 123.857596 328.846527 124.690073 328.846527 125.557981 
C 328.846527 126.425889 329.19135 127.258366 329.805054 127.872069 
C 330.418757 128.485773 331.251235 128.830596 332.119142 128.830596 
z
" clip-path="url(#p5c561d460c)" style="fill: #800080; stroke: #ffffff; stroke-width: 0.345591"/>
    <path d="M 339.199074 123.692646 
C 340.080434 123.692646 340.925814 123.342478 341.54903 122.719263 
C 342.172245 122.096047 342.522413 121.250667 342.522413 120.369307 
C 342.522413 119.487947 342.172245 118.642566 341.54903 118.019351 
C 340.925814 117.396135 340.080434 117.045967 339.199074 117.045967 
C 338.317714 117.045967 337.472333 117.396135 336.849118 118.019351 
C 336.225902 118.642566 335.875734 119.487947 335.875734 120.369307 
C 335.875734 121.250667 336.225902 122.096047 336.849118 122.719263 
C 337.472333 123.342478 338.317714 123.692646 339.199074 123.692646 
z
" clip-path="url(#p5c561d460c)" style="fill: #800080; stroke: #ffffff; stroke-width: 0.345591"/>
    <path d="M 346.279005 106.017077 
C 347.246489 106.017077 348.174478 105.632691 348.858592 104.948577 
C 349.542707 104.264462 349.927092 103.336474 349.927092 102.36899 
C 349.927092 101.401506 349.542707 100.473517 348.858592 99.789402 
C 348.174478 99.105288 347.246489 98.720902 346.279005 98.720902 
C 345.311521 98.720902 344.383533 99.105288 343.699418 99.789402 
C 343.015304 100.473517 342.630918 101.401506 342.630918 102.36899 
C 342.630918 103.336474 343.015304 104.264462 343.699418 104.948577 
C 344.383533 105.632691 345.311521 106.017077 346.279005 106.017077 
z
" clip-path="url(#p5c561d460c)" style="fill: #800080; stroke: #ffffff; stroke-width: 0.345591"/>
    <path d="M 353.358937 107.28955 
C 354.374983 107.28955 355.349552 106.885871 356.068006 106.167417 
C 356.786459 105.448964 357.190139 104.474395 357.190139 103.458348 
C 357.190139 102.442301 356.786459 101.467732 356.068006 100.749279 
C 355.349552 100.030825 354.374983 99.627146 353.358937 99.627146 
C 352.34289 99.627146 351.368321 100.030825 350.649867 100.749279 
C 349.931414 101.467732 349.527734 102.442301 349.527734 103.458348 
C 349.527734 104.474395 349.931414 105.448964 350.649867 106.167417 
C 351.368321 106.885871 352.34289 107.28955 353.358937 107.28955 
z
" clip-path="url(#p5c561d460c)" style="fill: #800080; stroke: #ffffff; stroke-width: 0.345591"/>
    <path d="M 360.438868 123.41688 
C 361.36164 123.41688 362.246743 123.050258 362.899242 122.397759 
C 363.55174 121.745261 363.918362 120.860158 363.918362 119.937386 
C 363.918362 119.014613 363.55174 118.129511 362.899242 117.477012 
C 362.246743 116.824513 361.36164 116.457892 360.438868 116.457892 
C 359.516095 116.457892 358.630993 116.824513 357.978494 117.477012 
C 357.325996 118.129511 356.959374 119.014613 356.959374 119.937386 
C 356.959374 120.860158 357.325996 121.745261 357.978494 122.397759 
C 358.630993 123.050258 359.516095 123.41688 360.438868 123.41688 
z
" clip-path="url(#p5c561d460c)" style="fill: #800080; stroke: #ffffff; stroke-width: 0.345591"/>
    <path d="M 367.518799 103.540469 
C 368.579251 103.540469 369.596412 103.119147 370.346264 102.369294 
C 371.096117 101.619442 371.517439 100.602281 371.517439 99.541829 
C 371.517439 98.481378 371.096117 97.464217 370.346264 96.714364 
C 369.596412 95.964512 368.579251 95.54319 367.518799 95.54319 
C 366.458348 95.54319 365.441187 95.964512 364.691334 96.714364 
C 363.941482 97.464217 363.52016 98.481378 363.52016 99.541829 
C 363.52016 100.602281 363.941482 101.619442 364.691334 102.369294 
C 365.441187 103.119147 366.458348 103.540469 367.518799 103.540469 
z
" clip-path="url(#p5c561d460c)" style="fill: #800080; stroke: #ffffff; stroke-width: 0.345591"/>
    <path d="M 374.598731 89.64115 
C 375.716453 89.64115 376.788546 89.197074 377.578895 88.406726 
C 378.369244 87.616377 378.813319 86.544283 378.813319 85.426561 
C 378.813319 84.308839 378.369244 83.236746 377.578895 82.446397 
C 376.788546 81.656048 375.716453 81.211973 374.598731 81.211973 
C 373.481009 81.211973 372.408915 81.656048 371.618566 82.446397 
C 370.828218 83.236746 370.384142 84.308839 370.384142 85.426561 
C 370.384142 86.544283 370.828218 87.616377 371.618566 88.406726 
C 372.408915 89.197074 373.481009 89.64115 374.598731 89.64115 
z
" clip-path="url(#p5c561d460c)" style="fill: #800080; stroke: #ffffff; stroke-width: 0.345591"/>
    <path d="M 381.678662 77.926358 
C 382.803824 77.926358 383.883053 77.479326 384.678662 76.683717 
C 385.474271 75.888108 385.921303 74.808879 385.921303 73.683717 
C 385.921303 72.558556 385.474271 71.479326 384.678662 70.683717 
C 383.883053 69.888108 382.803824 69.441076 381.678662 69.441076 
C 380.553501 69.441076 379.474271 69.888108 378.678662 70.683717 
C 377.883053 71.479326 377.436021 72.558556 377.436021 73.683717 
C 377.436021 74.808879 377.883053 75.888108 378.678662 76.683717 
C 379.474271 77.479326 380.553501 77.926358 381.678662 77.926358 
z
" clip-path="url(#p5c561d460c)" style="fill: #800080; stroke: #ffffff; stroke-width: 0.345591"/>
    <path d="M 388.758593 83.762694 
C 389.873831 83.762694 390.943541 83.319605 391.732132 82.531013 
C 392.520724 81.742422 392.963813 80.672712 392.963813 79.557474 
C 392.963813 78.442237 392.520724 77.372527 391.732132 76.583936 
C 390.943541 75.795344 389.873831 75.352255 388.758593 75.352255 
C 387.643356 75.352255 386.573646 75.795344 385.785055 76.583936 
C 384.996463 77.372527 384.553374 78.442237 384.553374 79.557474 
C 384.553374 80.672712 384.996463 81.742422 385.785055 82.531013 
C 386.573646 83.319605 387.643356 83.762694 388.758593 83.762694 
z
" clip-path="url(#p5c561d460c)" style="fill: #800080; stroke: #ffffff; stroke-width: 0.345591"/>
    <path d="M 395.838525 77.591914 
C 396.917217 77.591914 397.951874 77.163345 398.714625 76.400594 
C 399.477375 75.637844 399.905944 74.603187 399.905944 73.524495 
C 399.905944 72.445802 399.477375 71.411145 398.714625 70.648395 
C 397.951874 69.885644 396.917217 69.457075 395.838525 69.457075 
C 394.759833 69.457075 393.725176 69.885644 392.962425 70.648395 
C 392.199675 71.411145 391.771106 72.445802 391.771106 73.524495 
C 391.771106 74.603187 392.199675 75.637844 392.962425 76.400594 
C 393.725176 77.163345 394.759833 77.591914 395.838525 77.591914 
z
" clip-path="url(#p5c561d460c)" style="fill: #800080; stroke: #ffffff; stroke-width: 0.345591"/>
    <path d="M 402.918456 69.544747 
C 403.978793 69.544747 404.995843 69.123471 405.745614 68.3737 
C 406.495385 67.623929 406.916661 66.606878 406.916661 65.546542 
C 406.916661 64.486205 406.495385 63.469155 405.745614 62.719384 
C 404.995843 61.969613 403.978793 61.548337 402.918456 61.548337 
C 401.85812 61.548337 400.841069 61.969613 400.091298 62.719384 
C 399.341527 63.469155 398.920251 64.486205 398.920251 65.546542 
C 398.920251 66.606878 399.341527 67.623929 400.091298 68.3737 
C 400.841069 69.123471 401.85812 69.544747 402.918456 69.544747 
z
" clip-path="url(#p5c561d460c)" style="fill: #800080; stroke: #ffffff; stroke-width: 0.345591"/>
    <path d="M 409.998388 61.232817 
C 410.924442 61.232817 411.812693 60.864892 412.467513 60.210072 
C 413.122332 59.555252 413.490258 58.667002 413.490258 57.740947 
C 413.490258 56.814892 413.122332 55.926642 412.467513 55.271822 
C 411.812693 54.617002 410.924442 54.249077 409.998388 54.249077 
C 409.072333 54.249077 408.184082 54.617002 407.529263 55.271822 
C 406.874443 55.926642 406.506518 56.814892 406.506518 57.740947 
C 406.506518 58.667002 406.874443 59.555252 407.529263 60.210072 
C 408.184082 60.864892 409.072333 61.232817 409.998388 61.232817 
z
" clip-path="url(#p5c561d460c)" style="fill: #800080; stroke: #ffffff; stroke-width: 0.345591"/>
    <path d="M 417.078319 60.708066 
C 417.956276 60.708066 418.798392 60.35925 419.419201 59.738441 
C 420.04001 59.117632 420.388826 58.275516 420.388826 57.397559 
C 420.388826 56.519602 420.04001 55.677486 419.419201 55.056677 
C 418.798392 54.435868 417.956276 54.087052 417.078319 54.087052 
C 416.200362 54.087052 415.358246 54.435868 414.737437 55.056677 
C 414.116628 55.677486 413.767812 56.519602 413.767812 57.397559 
C 413.767812 58.275516 414.116628 59.117632 414.737437 59.738441 
C 415.358246 60.35925 416.200362 60.708066 417.078319 60.708066 
z
" clip-path="url(#p5c561d460c)" style="fill: #800080; stroke: #ffffff; stroke-width: 0.345591"/>
    <path d="M 424.15825 54.129565 
C 424.976771 54.129565 425.761877 53.804363 426.340659 53.225582 
C 426.91944 52.6468 427.244642 51.861694 427.244642 51.043174 
C 427.244642 50.224653 426.91944 49.439547 426.340659 48.860766 
C 425.761877 48.281984 424.976771 47.956783 424.15825 47.956783 
C 423.33973 47.956783 422.554624 48.281984 421.975842 48.860766 
C 421.397061 49.439547 421.071859 50.224653 421.071859 51.043174 
C 421.071859 51.861694 421.397061 52.6468 421.975842 53.225582 
C 422.554624 53.804363 423.33973 54.129565 424.15825 54.129565 
z
" clip-path="url(#p5c561d460c)" style="fill: #800080; stroke: #ffffff; stroke-width: 0.345591"/>
    <path d="M 431.238182 41.435322 
C 431.942607 41.435322 432.618276 41.155451 433.116381 40.657346 
C 433.614485 40.159242 433.894356 39.483573 433.894356 38.779148 
C 433.894356 38.074722 433.614485 37.399053 433.116381 36.900949 
C 432.618276 36.402845 431.942607 36.122974 431.238182 36.122974 
C 430.533756 36.122974 429.858087 36.402845 429.359983 36.900949 
C 428.861879 37.399053 428.582008 38.074722 428.582008 38.779148 
C 428.582008 39.483573 428.861879 40.159242 429.359983 40.657346 
C 429.858087 41.155451 430.533756 41.435322 431.238182 41.435322 
z
" clip-path="url(#p5c561d460c)" style="fill: #800080; stroke: #ffffff; stroke-width: 0.345591"/>
   </g>
   <g id="patch_3">
    <path d="M 37.24 317.72 
L 37.24 25.49625 
" style="fill: none; stroke: #ffffff; stroke-width: 0.8; stroke-linejoin: miter; stroke-linecap: square"/>
   </g>
   <g id="patch_4">
    <path d="M 450 317.72 
L 450 25.49625 
" style="fill: none; stroke: #ffffff; stroke-width: 0.8; stroke-linejoin: miter; stroke-linecap: square"/>
   </g>
   <g id="patch_5">
    <path d="M 37.24 317.72 
L 450 317.72 
" style="fill: none; stroke: #ffffff; stroke-width: 0.8; stroke-linejoin: miter; stroke-linecap: square"/>
   </g>
   <g id="patch_6">
    <path d="M 37.24 25.49625 
L 450 25.49625 
" style="fill: none; stroke: #ffffff; stroke-width: 0.8; stroke-linejoin: miter; stroke-linecap: square"/>
   </g>
   <g id="text_15">
    <!-- Yearly average ratings -->
    <g style="fill: #262626" transform="translate(184.139375 19.49625) scale(0.12 -0.12)">
     <defs>
      <path id="ArialMT-59" d="M 1784 0 
L 1784 1941 
L 19 4581 
L 756 4581 
L 1659 3200 
Q 1909 2813 2125 2425 
Q 2331 2784 2625 3234 
L 3513 4581 
L 4219 4581 
L 2391 1941 
L 2391 0 
L 1784 0 
z
" transform="scale(0.015625)"/>
      <path id="ArialMT-65" d="M 2694 1069 
L 3275 997 
Q 3138 488 2766 206 
Q 2394 -75 1816 -75 
Q 1088 -75 661 373 
Q 234 822 234 1631 
Q 234 2469 665 2931 
Q 1097 3394 1784 3394 
Q 2450 3394 2872 2941 
Q 3294 2488 3294 1666 
Q 3294 1616 3291 1516 
L 816 1516 
Q 847 969 1125 678 
Q 1403 388 1819 388 
Q 2128 388 2347 550 
Q 2566 713 2694 1069 
z
M 847 1978 
L 2700 1978 
Q 2663 2397 2488 2606 
Q 2219 2931 1791 2931 
Q 1403 2931 1139 2672 
Q 875 2413 847 1978 
z
" transform="scale(0.015625)"/>
      <path id="ArialMT-61" d="M 2588 409 
Q 2275 144 1986 34 
Q 1697 -75 1366 -75 
Q 819 -75 525 192 
Q 231 459 231 875 
Q 231 1119 342 1320 
Q 453 1522 633 1644 
Q 813 1766 1038 1828 
Q 1203 1872 1538 1913 
Q 2219 1994 2541 2106 
Q 2544 2222 2544 2253 
Q 2544 2597 2384 2738 
Q 2169 2928 1744 2928 
Q 1347 2928 1158 2789 
Q 969 2650 878 2297 
L 328 2372 
Q 403 2725 575 2942 
Q 747 3159 1072 3276 
Q 1397 3394 1825 3394 
Q 2250 3394 2515 3294 
Q 2781 3194 2906 3042 
Q 3031 2891 3081 2659 
Q 3109 2516 3109 2141 
L 3109 1391 
Q 3109 606 3145 398 
Q 3181 191 3288 0 
L 2700 0 
Q 2613 175 2588 409 
z
M 2541 1666 
Q 2234 1541 1622 1453 
Q 1275 1403 1131 1340 
Q 988 1278 909 1158 
Q 831 1038 831 891 
Q 831 666 1001 516 
Q 1172 366 1500 366 
Q 1825 366 2078 508 
Q 2331 650 2450 897 
Q 2541 1088 2541 1459 
L 2541 1666 
z
" transform="scale(0.015625)"/>
      <path id="ArialMT-72" d="M 416 0 
L 416 3319 
L 922 3319 
L 922 2816 
Q 1116 3169 1280 3281 
Q 1444 3394 1641 3394 
Q 1925 3394 2219 3213 
L 2025 2691 
Q 1819 2813 1613 2813 
Q 1428 2813 1281 2702 
Q 1134 2591 1072 2394 
Q 978 2094 978 1738 
L 978 0 
L 416 0 
z
" transform="scale(0.015625)"/>
      <path id="ArialMT-6c" d="M 409 0 
L 409 4581 
L 972 4581 
L 972 0 
L 409 0 
z
" transform="scale(0.015625)"/>
      <path id="ArialMT-79" d="M 397 -1278 
L 334 -750 
Q 519 -800 656 -800 
Q 844 -800 956 -737 
Q 1069 -675 1141 -563 
Q 1194 -478 1313 -144 
Q 1328 -97 1363 -6 
L 103 3319 
L 709 3319 
L 1400 1397 
Q 1534 1031 1641 628 
Q 1738 1016 1872 1384 
L 2581 3319 
L 3144 3319 
L 1881 -56 
Q 1678 -603 1566 -809 
Q 1416 -1088 1222 -1217 
Q 1028 -1347 759 -1347 
Q 597 -1347 397 -1278 
z
" transform="scale(0.015625)"/>
      <path id="ArialMT-20" transform="scale(0.015625)"/>
      <path id="ArialMT-76" d="M 1344 0 
L 81 3319 
L 675 3319 
L 1388 1331 
Q 1503 1009 1600 663 
Q 1675 925 1809 1294 
L 2547 3319 
L 3125 3319 
L 1869 0 
L 1344 0 
z
" transform="scale(0.015625)"/>
      <path id="ArialMT-67" d="M 319 -275 
L 866 -356 
Q 900 -609 1056 -725 
Q 1266 -881 1628 -881 
Q 2019 -881 2231 -725 
Q 2444 -569 2519 -288 
Q 2563 -116 2559 434 
Q 2191 0 1641 0 
Q 956 0 581 494 
Q 206 988 206 1678 
Q 206 2153 378 2554 
Q 550 2956 876 3175 
Q 1203 3394 1644 3394 
Q 2231 3394 2613 2919 
L 2613 3319 
L 3131 3319 
L 3131 450 
Q 3131 -325 2973 -648 
Q 2816 -972 2473 -1159 
Q 2131 -1347 1631 -1347 
Q 1038 -1347 672 -1080 
Q 306 -813 319 -275 
z
M 784 1719 
Q 784 1066 1043 766 
Q 1303 466 1694 466 
Q 2081 466 2343 764 
Q 2606 1063 2606 1700 
Q 2606 2309 2336 2618 
Q 2066 2928 1684 2928 
Q 1309 2928 1046 2623 
Q 784 2319 784 1719 
z
" transform="scale(0.015625)"/>
      <path id="ArialMT-74" d="M 1650 503 
L 1731 6 
Q 1494 -44 1306 -44 
Q 1000 -44 831 53 
Q 663 150 594 308 
Q 525 466 525 972 
L 525 2881 
L 113 2881 
L 113 3319 
L 525 3319 
L 525 4141 
L 1084 4478 
L 1084 3319 
L 1650 3319 
L 1650 2881 
L 1084 2881 
L 1084 941 
Q 1084 700 1114 631 
Q 1144 563 1211 522 
Q 1278 481 1403 481 
Q 1497 481 1650 503 
z
" transform="scale(0.015625)"/>
      <path id="ArialMT-69" d="M 425 3934 
L 425 4581 
L 988 4581 
L 988 3934 
L 425 3934 
z
M 425 0 
L 425 3319 
L 988 3319 
L 988 0 
L 425 0 
z
" transform="scale(0.015625)"/>
      <path id="ArialMT-6e" d="M 422 0 
L 422 3319 
L 928 3319 
L 928 2847 
Q 1294 3394 1984 3394 
Q 2284 3394 2536 3286 
Q 2788 3178 2913 3003 
Q 3038 2828 3088 2588 
Q 3119 2431 3119 2041 
L 3119 0 
L 2556 0 
L 2556 2019 
Q 2556 2363 2490 2533 
Q 2425 2703 2258 2804 
Q 2091 2906 1866 2906 
Q 1506 2906 1245 2678 
Q 984 2450 984 1813 
L 984 0 
L 422 0 
z
" transform="scale(0.015625)"/>
      <path id="ArialMT-73" d="M 197 991 
L 753 1078 
Q 800 744 1014 566 
Q 1228 388 1613 388 
Q 2000 388 2187 545 
Q 2375 703 2375 916 
Q 2375 1106 2209 1216 
Q 2094 1291 1634 1406 
Q 1016 1563 777 1677 
Q 538 1791 414 1992 
Q 291 2194 291 2438 
Q 291 2659 392 2848 
Q 494 3038 669 3163 
Q 800 3259 1026 3326 
Q 1253 3394 1513 3394 
Q 1903 3394 2198 3281 
Q 2494 3169 2634 2976 
Q 2775 2784 2828 2463 
L 2278 2388 
Q 2241 2644 2061 2787 
Q 1881 2931 1553 2931 
Q 1166 2931 1000 2803 
Q 834 2675 834 2503 
Q 834 2394 903 2306 
Q 972 2216 1119 2156 
Q 1203 2125 1616 2013 
Q 2213 1853 2448 1751 
Q 2684 1650 2818 1456 
Q 2953 1263 2953 975 
Q 2953 694 2789 445 
Q 2625 197 2315 61 
Q 2006 -75 1616 -75 
Q 969 -75 630 194 
Q 291 463 197 991 
z
" transform="scale(0.015625)"/>
     </defs>
     <use xlink:href="#ArialMT-59"/>
     <use xlink:href="#ArialMT-65" x="57.574219"/>
     <use xlink:href="#ArialMT-61" x="113.189453"/>
     <use xlink:href="#ArialMT-72" x="168.804688"/>
     <use xlink:href="#ArialMT-6c" x="202.105469"/>
     <use xlink:href="#ArialMT-79" x="224.322266"/>
     <use xlink:href="#ArialMT-20" x="274.322266"/>
     <use xlink:href="#ArialMT-61" x="302.105469"/>
     <use xlink:href="#ArialMT-76" x="357.720703"/>
     <use xlink:href="#ArialMT-65" x="407.720703"/>
     <use xlink:href="#ArialMT-72" x="463.335938"/>
     <use xlink:href="#ArialMT-61" x="496.636719"/>
     <use xlink:href="#ArialMT-67" x="552.251953"/>
     <use xlink:href="#ArialMT-65" x="607.867188"/>
     <use xlink:href="#ArialMT-20" x="663.482422"/>
     <use xlink:href="#ArialMT-72" x="691.265625"/>
     <use xlink:href="#ArialMT-61" x="724.566406"/>
     <use xlink:href="#ArialMT-74" x="780.181641"/>
     <use xlink:href="#ArialMT-69" x="807.964844"/>
     <use xlink:href="#ArialMT-6e" x="830.181641"/>
     <use xlink:href="#ArialMT-67" x="885.796875"/>
     <use xlink:href="#ArialMT-73" x="941.412109"/>
    </g>
   </g>
  </g>
 </g>
 <defs>
  <clipPath id="p5c561d460c">
   <rect x="37.24" y="25.49625" width="412.76" height="292.22375"/>
  </clipPath>
 </defs>
</svg>
