<?xml version="1.0" encoding="utf-8" standalone="no"?>
<!DOCTYPE svg PUBLIC "-//W3C//DTD SVG 1.1//EN"
  "http://www.w3.org/Graphics/SVG/1.1/DTD/svg11.dtd">
<svg xmlns:xlink="http://www.w3.org/1999/xlink" width="460.8pt" height="345.6pt" viewBox="0 0 460.8 345.6" xmlns="http://www.w3.org/2000/svg" version="1.1">
 <metadata>
  <rdf:RDF xmlns:dc="http://purl.org/dc/elements/1.1/" xmlns:cc="http://creativecommons.org/ns#" xmlns:rdf="http://www.w3.org/1999/02/22-rdf-syntax-ns#">
   <cc:Work>
    <dc:type rdf:resource="http://purl.org/dc/dcmitype/StillImage"/>
    <dc:date>2024-08-17T23:55:46.903318</dc:date>
    <dc:format>image/svg+xml</dc:format>
    <dc:creator>
     <cc:Agent>
      <dc:title>Matplotlib v3.9.2, https://matplotlib.org/</dc:title>
     </cc:Agent>
    </dc:creator>
   </cc:Work>
  </rdf:RDF>
 </metadata>
 <defs>
  <style type="text/css">*{stroke-linejoin: round; stroke-linecap: butt}</style>
 </defs>
 <g id="figure_1">
  <g id="patch_1">
   <path d="M 0 345.6 
L 460.8 345.6 
L 460.8 0 
L 0 0 
z
" style="fill: #ffffff"/>
  </g>
  <g id="axes_1">
   <g id="patch_2">
    <path d="M 37.24 317.72 
L 450 317.72 
L 450 25.49625 
L 37.24 25.49625 
z
" style="fill: #eaeaf2"/>
   </g>
   <g id="matplotlib.axis_1">
    <g id="xtick_1">
     <g id="text_1">
      <!-- 1970 -->
      <g style="fill: #262626" transform="translate(44.879943 331.877812) scale(0.1 -0.1)">
       <defs>
        <path id="ArialMT-31" d="M 2384 0 
L 1822 0 
L 1822 3584 
Q 1619 3391 1289 3197 
Q 959 3003 697 2906 
L 697 3450 
Q 1169 3672 1522 3987 
Q 1875 4303 2022 4600 
L 2384 4600 
L 2384 0 
z
" transform="scale(0.015625)"/>
        <path id="ArialMT-39" d="M 350 1059 
L 891 1109 
Q 959 728 1153 556 
Q 1347 384 1650 384 
Q 1909 384 2104 503 
Q 2300 622 2425 820 
Q 2550 1019 2634 1356 
Q 2719 1694 2719 2044 
Q 2719 2081 2716 2156 
Q 2547 1888 2255 1720 
Q 1963 1553 1622 1553 
Q 1053 1553 659 1965 
Q 266 2378 266 3053 
Q 266 3750 677 4175 
Q 1088 4600 1706 4600 
Q 2153 4600 2523 4359 
Q 2894 4119 3086 3673 
Q 3278 3228 3278 2384 
Q 3278 1506 3087 986 
Q 2897 466 2520 194 
Q 2144 -78 1638 -78 
Q 1100 -78 759 220 
Q 419 519 350 1059 
z
M 2653 3081 
Q 2653 3566 2395 3850 
Q 2138 4134 1775 4134 
Q 1400 4134 1122 3828 
Q 844 3522 844 3034 
Q 844 2597 1108 2323 
Q 1372 2050 1759 2050 
Q 2150 2050 2401 2323 
Q 2653 2597 2653 3081 
z
" transform="scale(0.015625)"/>
        <path id="ArialMT-37" d="M 303 3981 
L 303 4522 
L 3269 4522 
L 3269 4084 
Q 2831 3619 2401 2847 
Q 1972 2075 1738 1259 
Q 1569 684 1522 0 
L 944 0 
Q 953 541 1156 1306 
Q 1359 2072 1739 2783 
Q 2119 3494 2547 3981 
L 303 3981 
z
" transform="scale(0.015625)"/>
        <path id="ArialMT-30" d="M 266 2259 
Q 266 3072 433 3567 
Q 600 4063 929 4331 
Q 1259 4600 1759 4600 
Q 2128 4600 2406 4451 
Q 2684 4303 2865 4023 
Q 3047 3744 3150 3342 
Q 3253 2941 3253 2259 
Q 3253 1453 3087 958 
Q 2922 463 2592 192 
Q 2263 -78 1759 -78 
Q 1097 -78 719 397 
Q 266 969 266 2259 
z
M 844 2259 
Q 844 1131 1108 757 
Q 1372 384 1759 384 
Q 2147 384 2411 759 
Q 2675 1134 2675 2259 
Q 2675 3391 2411 3762 
Q 2147 4134 1753 4134 
Q 1366 4134 1134 3806 
Q 844 3388 844 2259 
z
" transform="scale(0.015625)"/>
       </defs>
       <use xlink:href="#ArialMT-31"/>
       <use xlink:href="#ArialMT-39" x="55.615234"/>
       <use xlink:href="#ArialMT-37" x="111.230469"/>
       <use xlink:href="#ArialMT-30" x="166.845703"/>
      </g>
     </g>
    </g>
    <g id="xtick_2">
     <g id="text_2">
      <!-- 1980 -->
      <g style="fill: #262626" transform="translate(115.679257 331.877812) scale(0.1 -0.1)">
       <defs>
        <path id="ArialMT-38" d="M 1131 2484 
Q 781 2613 612 2850 
Q 444 3088 444 3419 
Q 444 3919 803 4259 
Q 1163 4600 1759 4600 
Q 2359 4600 2725 4251 
Q 3091 3903 3091 3403 
Q 3091 3084 2923 2848 
Q 2756 2613 2416 2484 
Q 2838 2347 3058 2040 
Q 3278 1734 3278 1309 
Q 3278 722 2862 322 
Q 2447 -78 1769 -78 
Q 1091 -78 675 323 
Q 259 725 259 1325 
Q 259 1772 486 2073 
Q 713 2375 1131 2484 
z
M 1019 3438 
Q 1019 3113 1228 2906 
Q 1438 2700 1772 2700 
Q 2097 2700 2305 2904 
Q 2513 3109 2513 3406 
Q 2513 3716 2298 3927 
Q 2084 4138 1766 4138 
Q 1444 4138 1231 3931 
Q 1019 3725 1019 3438 
z
M 838 1322 
Q 838 1081 952 856 
Q 1066 631 1291 507 
Q 1516 384 1775 384 
Q 2178 384 2440 643 
Q 2703 903 2703 1303 
Q 2703 1709 2433 1975 
Q 2163 2241 1756 2241 
Q 1359 2241 1098 1978 
Q 838 1716 838 1322 
z
" transform="scale(0.015625)"/>
       </defs>
       <use xlink:href="#ArialMT-31"/>
       <use xlink:href="#ArialMT-39" x="55.615234"/>
       <use xlink:href="#ArialMT-38" x="111.230469"/>
       <use xlink:href="#ArialMT-30" x="166.845703"/>
      </g>
     </g>
    </g>
    <g id="xtick_3">
     <g id="text_3">
      <!-- 1990 -->
      <g style="fill: #262626" transform="translate(186.478571 331.877812) scale(0.1 -0.1)">
       <use xlink:href="#ArialMT-31"/>
       <use xlink:href="#ArialMT-39" x="55.615234"/>
       <use xlink:href="#ArialMT-39" x="111.230469"/>
       <use xlink:href="#ArialMT-30" x="166.845703"/>
      </g>
     </g>
    </g>
    <g id="xtick_4">
     <g id="text_4">
      <!-- 2000 -->
      <g style="fill: #262626" transform="translate(257.277885 331.877812) scale(0.1 -0.1)">
       <defs>
        <path id="ArialMT-32" d="M 3222 541 
L 3222 0 
L 194 0 
Q 188 203 259 391 
Q 375 700 629 1000 
Q 884 1300 1366 1694 
Q 2113 2306 2375 2664 
Q 2638 3022 2638 3341 
Q 2638 3675 2398 3904 
Q 2159 4134 1775 4134 
Q 1369 4134 1125 3890 
Q 881 3647 878 3216 
L 300 3275 
Q 359 3922 746 4261 
Q 1134 4600 1788 4600 
Q 2447 4600 2831 4234 
Q 3216 3869 3216 3328 
Q 3216 3053 3103 2787 
Q 2991 2522 2730 2228 
Q 2469 1934 1863 1422 
Q 1356 997 1212 845 
Q 1069 694 975 541 
L 3222 541 
z
" transform="scale(0.015625)"/>
       </defs>
       <use xlink:href="#ArialMT-32"/>
       <use xlink:href="#ArialMT-30" x="55.615234"/>
       <use xlink:href="#ArialMT-30" x="111.230469"/>
       <use xlink:href="#ArialMT-30" x="166.845703"/>
      </g>
     </g>
    </g>
    <g id="xtick_5">
     <g id="text_5">
      <!-- 2010 -->
      <g style="fill: #262626" transform="translate(328.077199 331.877812) scale(0.1 -0.1)">
       <use xlink:href="#ArialMT-32"/>
       <use xlink:href="#ArialMT-30" x="55.615234"/>
       <use xlink:href="#ArialMT-31" x="111.230469"/>
       <use xlink:href="#ArialMT-30" x="166.845703"/>
      </g>
     </g>
    </g>
    <g id="xtick_6">
     <g id="text_6">
      <!-- 2020 -->
      <g style="fill: #262626" transform="translate(398.876513 331.877812) scale(0.1 -0.1)">
       <use xlink:href="#ArialMT-32"/>
       <use xlink:href="#ArialMT-30" x="55.615234"/>
       <use xlink:href="#ArialMT-32" x="111.230469"/>
       <use xlink:href="#ArialMT-30" x="166.845703"/>
      </g>
     </g>
    </g>
   </g>
   <g id="matplotlib.axis_2">
    <g id="ytick_1">
     <g id="text_7">
      <!-- 5.75 -->
      <g style="fill: #262626" transform="translate(10.779063 298.452356) scale(0.1 -0.1)">
       <defs>
        <path id="ArialMT-35" d="M 266 1200 
L 856 1250 
Q 922 819 1161 601 
Q 1400 384 1738 384 
Q 2144 384 2425 690 
Q 2706 997 2706 1503 
Q 2706 1984 2436 2262 
Q 2166 2541 1728 2541 
Q 1456 2541 1237 2417 
Q 1019 2294 894 2097 
L 366 2166 
L 809 4519 
L 3088 4519 
L 3088 3981 
L 1259 3981 
L 1013 2750 
Q 1425 3038 1878 3038 
Q 2478 3038 2890 2622 
Q 3303 2206 3303 1553 
Q 3303 931 2941 478 
Q 2500 -78 1738 -78 
Q 1113 -78 717 272 
Q 322 622 266 1200 
z
" transform="scale(0.015625)"/>
        <path id="ArialMT-2e" d="M 581 0 
L 581 641 
L 1222 641 
L 1222 0 
L 581 0 
z
" transform="scale(0.015625)"/>
       </defs>
       <use xlink:href="#ArialMT-35"/>
       <use xlink:href="#ArialMT-2e" x="55.615234"/>
       <use xlink:href="#ArialMT-37" x="83.398438"/>
       <use xlink:href="#ArialMT-35" x="139.013672"/>
      </g>
     </g>
    </g>
    <g id="ytick_2">
     <g id="text_8">
      <!-- 6.00 -->
      <g style="fill: #262626" transform="translate(10.779063 264.09013) scale(0.1 -0.1)">
       <defs>
        <path id="ArialMT-36" d="M 3184 3459 
L 2625 3416 
Q 2550 3747 2413 3897 
Q 2184 4138 1850 4138 
Q 1581 4138 1378 3988 
Q 1113 3794 959 3422 
Q 806 3050 800 2363 
Q 1003 2672 1297 2822 
Q 1591 2972 1913 2972 
Q 2475 2972 2870 2558 
Q 3266 2144 3266 1488 
Q 3266 1056 3080 686 
Q 2894 316 2569 119 
Q 2244 -78 1831 -78 
Q 1128 -78 684 439 
Q 241 956 241 2144 
Q 241 3472 731 4075 
Q 1159 4600 1884 4600 
Q 2425 4600 2770 4297 
Q 3116 3994 3184 3459 
z
M 888 1484 
Q 888 1194 1011 928 
Q 1134 663 1356 523 
Q 1578 384 1822 384 
Q 2178 384 2434 671 
Q 2691 959 2691 1453 
Q 2691 1928 2437 2201 
Q 2184 2475 1800 2475 
Q 1419 2475 1153 2201 
Q 888 1928 888 1484 
z
" transform="scale(0.015625)"/>
       </defs>
       <use xlink:href="#ArialMT-36"/>
       <use xlink:href="#ArialMT-2e" x="55.615234"/>
       <use xlink:href="#ArialMT-30" x="83.398438"/>
       <use xlink:href="#ArialMT-30" x="139.013672"/>
      </g>
     </g>
    </g>
    <g id="ytick_3">
     <g id="text_9">
      <!-- 6.25 -->
      <g style="fill: #262626" transform="translate(10.779063 229.727903) scale(0.1 -0.1)">
       <use xlink:href="#ArialMT-36"/>
       <use xlink:href="#ArialMT-2e" x="55.615234"/>
       <use xlink:href="#ArialMT-32" x="83.398438"/>
       <use xlink:href="#ArialMT-35" x="139.013672"/>
      </g>
     </g>
    </g>
    <g id="ytick_4">
     <g id="text_10">
      <!-- 6.50 -->
      <g style="fill: #262626" transform="translate(10.779063 195.365676) scale(0.1 -0.1)">
       <use xlink:href="#ArialMT-36"/>
       <use xlink:href="#ArialMT-2e" x="55.615234"/>
       <use xlink:href="#ArialMT-35" x="83.398438"/>
       <use xlink:href="#ArialMT-30" x="139.013672"/>
      </g>
     </g>
    </g>
    <g id="ytick_5">
     <g id="text_11">
      <!-- 6.75 -->
      <g style="fill: #262626" transform="translate(10.779063 161.003449) scale(0.1 -0.1)">
       <use xlink:href="#ArialMT-36"/>
       <use xlink:href="#ArialMT-2e" x="55.615234"/>
       <use xlink:href="#ArialMT-37" x="83.398438"/>
       <use xlink:href="#ArialMT-35" x="139.013672"/>
      </g>
     </g>
    </g>
    <g id="ytick_6">
     <g id="text_12">
      <!-- 7.00 -->
      <g style="fill: #262626" transform="translate(10.779063 126.641222) scale(0.1 -0.1)">
       <use xlink:href="#ArialMT-37"/>
       <use xlink:href="#ArialMT-2e" x="55.615234"/>
       <use xlink:href="#ArialMT-30" x="83.398438"/>
       <use xlink:href="#ArialMT-30" x="139.013672"/>
      </g>
     </g>
    </g>
    <g id="ytick_7">
     <g id="text_13">
      <!-- 7.25 -->
      <g style="fill: #262626" transform="translate(10.779063 92.278996) scale(0.1 -0.1)">
       <use xlink:href="#ArialMT-37"/>
       <use xlink:href="#ArialMT-2e" x="55.615234"/>
       <use xlink:href="#ArialMT-32" x="83.398438"/>
       <use xlink:href="#ArialMT-35" x="139.013672"/>
      </g>
     </g>
    </g>
    <g id="ytick_8">
     <g id="text_14">
      <!-- 7.50 -->
      <g style="fill: #262626" transform="translate(10.779063 57.916769) scale(0.1 -0.1)">
       <use xlink:href="#ArialMT-37"/>
       <use xlink:href="#ArialMT-2e" x="55.615234"/>
       <use xlink:href="#ArialMT-35" x="83.398438"/>
       <use xlink:href="#ArialMT-30" x="139.013672"/>
      </g>
     </g>
    </g>
   </g>
   <g id="PathCollection_1">
    <path d="M 56.001818 284.587023 
C 56.070813 284.587023 56.136991 284.559611 56.185778 284.510824 
C 56.234565 284.462037 56.261977 284.395859 56.261977 284.326864 
C 56.261977 284.257869 56.234565 284.191691 56.185778 284.142904 
C 56.136991 284.094117 56.070813 284.066705 56.001818 284.066705 
C 55.932823 284.066705 55.866645 284.094117 55.817858 284.142904 
C 55.769071 284.191691 55.74166 284.257869 55.74166 284.326864 
C 55.74166 284.395859 55.769071 284.462037 55.817858 284.510824 
C 55.866645 284.559611 55.932823 284.587023 56.001818 284.587023 
z
" clip-path="url(#p730df80c3c)" style="fill: #800080; fill-opacity: 0.8; stroke: #800080; stroke-opacity: 0.8"/>
    <path d="M 63.08175 304.944742 
C 63.216377 304.944742 63.345509 304.891254 63.440705 304.796058 
C 63.535901 304.700862 63.589389 304.57173 63.589389 304.437102 
C 63.589389 304.302475 63.535901 304.173343 63.440705 304.078147 
C 63.345509 303.982951 63.216377 303.929463 63.08175 303.929463 
C 62.947122 303.929463 62.81799 303.982951 62.722794 304.078147 
C 62.627598 304.173343 62.57411 304.302475 62.57411 304.437102 
C 62.57411 304.57173 62.627598 304.700862 62.722794 304.796058 
C 62.81799 304.891254 62.947122 304.944742 63.08175 304.944742 
z
" clip-path="url(#p730df80c3c)" style="fill: #800080; fill-opacity: 0.8; stroke: #800080; stroke-opacity: 0.8"/>
    <path d="M 70.161681 264.30269 
C 70.256167 264.30269 70.346796 264.26515 70.413608 264.198339 
C 70.480419 264.131527 70.517959 264.040898 70.517959 263.946412 
C 70.517959 263.851926 70.480419 263.761297 70.413608 263.694485 
C 70.346796 263.627674 70.256167 263.590134 70.161681 263.590134 
C 70.067195 263.590134 69.976566 263.627674 69.909754 263.694485 
C 69.842943 263.761297 69.805403 263.851926 69.805403 263.946412 
C 69.805403 264.040898 69.842943 264.131527 69.909754 264.198339 
C 69.976566 264.26515 70.067195 264.30269 70.161681 264.30269 
z
" clip-path="url(#p730df80c3c)" style="fill: #800080; fill-opacity: 0.8; stroke: #800080; stroke-opacity: 0.8"/>
    <path d="M 77.241612 249.94441 
C 77.337429 249.94441 77.429335 249.906342 77.497088 249.838589 
C 77.56484 249.770836 77.602909 249.678931 77.602909 249.583114 
C 77.602909 249.487297 77.56484 249.395391 77.497088 249.327639 
C 77.429335 249.259886 77.337429 249.221817 77.241612 249.221817 
C 77.145795 249.221817 77.05389 249.259886 76.986137 249.327639 
C 76.918384 249.395391 76.880316 249.487297 76.880316 249.583114 
C 76.880316 249.678931 76.918384 249.770836 76.986137 249.838589 
C 77.05389 249.906342 77.145795 249.94441 77.241612 249.94441 
z
" clip-path="url(#p730df80c3c)" style="fill: #800080; fill-opacity: 0.8; stroke: #800080; stroke-opacity: 0.8"/>
    <path d="M 84.321544 257.146559 
C 84.439217 257.146559 84.552086 257.099807 84.635293 257.0166 
C 84.7185 256.933393 84.765252 256.820524 84.765252 256.702851 
C 84.765252 256.585178 84.7185 256.472309 84.635293 256.389101 
C 84.552086 256.305894 84.439217 256.259142 84.321544 256.259142 
C 84.203871 256.259142 84.091002 256.305894 84.007794 256.389101 
C 83.924587 256.472309 83.877835 256.585178 83.877835 256.702851 
C 83.877835 256.820524 83.924587 256.933393 84.007794 257.0166 
C 84.091002 257.099807 84.203871 257.146559 84.321544 257.146559 
z
" clip-path="url(#p730df80c3c)" style="fill: #800080; fill-opacity: 0.8; stroke: #800080; stroke-opacity: 0.8"/>
    <path d="M 91.401475 277.162799 
C 91.510377 277.162799 91.614833 277.119532 91.691838 277.042526 
C 91.768843 276.965521 91.81211 276.861065 91.81211 276.752164 
C 91.81211 276.643262 91.768843 276.538806 91.691838 276.461801 
C 91.614833 276.384796 91.510377 276.341528 91.401475 276.341528 
C 91.292573 276.341528 91.188117 276.384796 91.111112 276.461801 
C 91.034107 276.538806 90.99084 276.643262 90.99084 276.752164 
C 90.99084 276.861065 91.034107 276.965521 91.111112 277.042526 
C 91.188117 277.119532 91.292573 277.162799 91.401475 277.162799 
z
" clip-path="url(#p730df80c3c)" style="fill: #800080; fill-opacity: 0.8; stroke: #800080; stroke-opacity: 0.8"/>
    <path d="M 98.481407 230.038078 
C 98.560556 230.038078 98.636474 230.006632 98.692441 229.950665 
C 98.748408 229.894698 98.779855 229.818779 98.779855 229.73963 
C 98.779855 229.660481 98.748408 229.584562 98.692441 229.528595 
C 98.636474 229.472628 98.560556 229.441182 98.481407 229.441182 
C 98.402257 229.441182 98.326339 229.472628 98.270372 229.528595 
C 98.214405 229.584562 98.182958 229.660481 98.182958 229.73963 
C 98.182958 229.818779 98.214405 229.894698 98.270372 229.950665 
C 98.326339 230.006632 98.402257 230.038078 98.481407 230.038078 
z
" clip-path="url(#p730df80c3c)" style="fill: #800080; fill-opacity: 0.8; stroke: #800080; stroke-opacity: 0.8"/>
    <path d="M 105.561338 208.197349 
C 105.715541 208.197349 105.863449 208.136083 105.972488 208.027045 
C 106.081526 207.918007 106.142791 207.770098 106.142791 207.615895 
C 106.142791 207.461692 106.081526 207.313783 105.972488 207.204745 
C 105.863449 207.095707 105.715541 207.034441 105.561338 207.034441 
C 105.407135 207.034441 105.259226 207.095707 105.150188 207.204745 
C 105.04115 207.313783 104.979884 207.461692 104.979884 207.615895 
C 104.979884 207.770098 105.04115 207.918007 105.150188 208.027045 
C 105.259226 208.136083 105.407135 208.197349 105.561338 208.197349 
z
" clip-path="url(#p730df80c3c)" style="fill: #800080; fill-opacity: 0.8; stroke: #800080; stroke-opacity: 0.8"/>
    <path d="M 112.641269 273.415671 
C 112.738701 273.415671 112.832155 273.376961 112.901049 273.308067 
C 112.969944 273.239172 113.008654 273.145718 113.008654 273.048287 
C 113.008654 272.950855 112.969944 272.857401 112.901049 272.788506 
C 112.832155 272.719612 112.738701 272.680902 112.641269 272.680902 
C 112.543838 272.680902 112.450384 272.719612 112.381489 272.788506 
C 112.312595 272.857401 112.273885 272.950855 112.273885 273.048287 
C 112.273885 273.145718 112.312595 273.239172 112.381489 273.308067 
C 112.450384 273.376961 112.543838 273.415671 112.641269 273.415671 
z
" clip-path="url(#p730df80c3c)" style="fill: #800080; fill-opacity: 0.8; stroke: #800080; stroke-opacity: 0.8"/>
    <path d="M 119.721201 214.643564 
C 119.866553 214.643564 120.005971 214.585815 120.108751 214.483035 
C 120.21153 214.380256 120.26928 214.240837 120.26928 214.095485 
C 120.26928 213.950133 120.21153 213.810714 120.108751 213.707935 
C 120.005971 213.605155 119.866553 213.547406 119.721201 213.547406 
C 119.575848 213.547406 119.43643 213.605155 119.33365 213.707935 
C 119.230871 213.810714 119.173122 213.950133 119.173122 214.095485 
C 119.173122 214.240837 119.230871 214.380256 119.33365 214.483035 
C 119.43643 214.585815 119.575848 214.643564 119.721201 214.643564 
z
" clip-path="url(#p730df80c3c)" style="fill: #800080; fill-opacity: 0.8; stroke: #800080; stroke-opacity: 0.8"/>
    <path d="M 126.801132 163.894336 
C 126.942568 163.894336 127.07823 163.838143 127.178241 163.738132 
C 127.278251 163.638122 127.334444 163.50246 127.334444 163.361024 
C 127.334444 163.219588 127.278251 163.083925 127.178241 162.983915 
C 127.07823 162.883905 126.942568 162.827712 126.801132 162.827712 
C 126.659696 162.827712 126.524034 162.883905 126.424023 162.983915 
C 126.324013 163.083925 126.26782 163.219588 126.26782 163.361024 
C 126.26782 163.50246 126.324013 163.638122 126.424023 163.738132 
C 126.524034 163.838143 126.659696 163.894336 126.801132 163.894336 
z
" clip-path="url(#p730df80c3c)" style="fill: #800080; fill-opacity: 0.8; stroke: #800080; stroke-opacity: 0.8"/>
    <path d="M 133.881063 234.316886 
C 134.023547 234.316886 134.160214 234.260277 134.260965 234.159525 
C 134.361716 234.058774 134.418326 233.922107 134.418326 233.779624 
C 134.418326 233.63714 134.361716 233.500473 134.260965 233.399722 
C 134.160214 233.298971 134.023547 233.242361 133.881063 233.242361 
C 133.73858 233.242361 133.601913 233.298971 133.501162 233.399722 
C 133.400411 233.500473 133.343801 233.63714 133.343801 233.779624 
C 133.343801 233.922107 133.400411 234.058774 133.501162 234.159525 
C 133.601913 234.260277 133.73858 234.316886 133.881063 234.316886 
z
" clip-path="url(#p730df80c3c)" style="fill: #800080; fill-opacity: 0.8; stroke: #800080; stroke-opacity: 0.8"/>
    <path d="M 140.960995 169.568443 
C 141.154952 169.568443 141.340992 169.491382 141.478141 169.354234 
C 141.61529 169.217085 141.69235 169.031045 141.69235 168.837087 
C 141.69235 168.64313 141.61529 168.45709 141.478141 168.319941 
C 141.340992 168.182793 141.154952 168.105732 140.960995 168.105732 
C 140.767037 168.105732 140.580997 168.182793 140.443849 168.319941 
C 140.3067 168.45709 140.22964 168.64313 140.22964 168.837087 
C 140.22964 169.031045 140.3067 169.217085 140.443849 169.354234 
C 140.580997 169.491382 140.767037 169.568443 140.960995 169.568443 
z
" clip-path="url(#p730df80c3c)" style="fill: #800080; fill-opacity: 0.8; stroke: #800080; stroke-opacity: 0.8"/>
    <path d="M 148.040926 225.699841 
C 148.209892 225.699841 148.37196 225.63271 148.491437 225.513233 
C 148.610914 225.393757 148.678044 225.231688 148.678044 225.062723 
C 148.678044 224.893757 148.610914 224.731689 148.491437 224.612212 
C 148.37196 224.492735 148.209892 224.425604 148.040926 224.425604 
C 147.871961 224.425604 147.709892 224.492735 147.590416 224.612212 
C 147.470939 224.731689 147.403808 224.893757 147.403808 225.062723 
C 147.403808 225.231688 147.470939 225.393757 147.590416 225.513233 
C 147.709892 225.63271 147.871961 225.699841 148.040926 225.699841 
z
" clip-path="url(#p730df80c3c)" style="fill: #800080; fill-opacity: 0.8; stroke: #800080; stroke-opacity: 0.8"/>
    <path d="M 155.120858 206.915653 
C 155.243955 206.915653 155.362027 206.866746 155.44907 206.779703 
C 155.536113 206.69266 155.58502 206.574588 155.58502 206.451491 
C 155.58502 206.328393 155.536113 206.210321 155.44907 206.123278 
C 155.362027 206.036235 155.243955 205.987328 155.120858 205.987328 
C 154.99776 205.987328 154.879688 206.036235 154.792645 206.123278 
C 154.705602 206.210321 154.656695 206.328393 154.656695 206.451491 
C 154.656695 206.574588 154.705602 206.69266 154.792645 206.779703 
C 154.879688 206.866746 154.99776 206.915653 155.120858 206.915653 
z
" clip-path="url(#p730df80c3c)" style="fill: #800080; fill-opacity: 0.8; stroke: #800080; stroke-opacity: 0.8"/>
    <path d="M 162.200789 198.313678 
C 162.33991 198.313678 162.473352 198.258404 162.571725 198.160031 
C 162.670099 198.061657 162.725372 197.928215 162.725372 197.789094 
C 162.725372 197.649973 162.670099 197.516531 162.571725 197.418158 
C 162.473352 197.319784 162.33991 197.264511 162.200789 197.264511 
C 162.061668 197.264511 161.928226 197.319784 161.829853 197.418158 
C 161.731479 197.516531 161.676206 197.649973 161.676206 197.789094 
C 161.676206 197.928215 161.731479 198.061657 161.829853 198.160031 
C 161.928226 198.258404 162.061668 198.313678 162.200789 198.313678 
z
" clip-path="url(#p730df80c3c)" style="fill: #800080; fill-opacity: 0.8; stroke: #800080; stroke-opacity: 0.8"/>
    <path d="M 169.28072 180.830966 
C 169.454551 180.830966 169.621286 180.761902 169.744203 180.638985 
C 169.867121 180.516068 169.936184 180.349333 169.936184 180.175502 
C 169.936184 180.001671 169.867121 179.834936 169.744203 179.712019 
C 169.621286 179.589102 169.454551 179.520038 169.28072 179.520038 
C 169.106889 179.520038 168.940155 179.589102 168.817237 179.712019 
C 168.69432 179.834936 168.625256 180.001671 168.625256 180.175502 
C 168.625256 180.349333 168.69432 180.516068 168.817237 180.638985 
C 168.940155 180.761902 169.106889 180.830966 169.28072 180.830966 
z
" clip-path="url(#p730df80c3c)" style="fill: #800080; fill-opacity: 0.8; stroke: #800080; stroke-opacity: 0.8"/>
    <path d="M 176.360652 223.58751 
C 176.496754 223.58751 176.6273 223.533436 176.723539 223.437197 
C 176.819777 223.340959 176.873851 223.210413 176.873851 223.074311 
C 176.873851 222.938209 176.819777 222.807663 176.723539 222.711424 
C 176.6273 222.615185 176.496754 222.561111 176.360652 222.561111 
C 176.22455 222.561111 176.094004 222.615185 175.997765 222.711424 
C 175.901526 222.807663 175.847452 222.938209 175.847452 223.074311 
C 175.847452 223.210413 175.901526 223.340959 175.997765 223.437197 
C 176.094004 223.533436 176.22455 223.58751 176.360652 223.58751 
z
" clip-path="url(#p730df80c3c)" style="fill: #800080; fill-opacity: 0.8; stroke: #800080; stroke-opacity: 0.8"/>
    <path d="M 183.440583 223.13683 
C 183.597511 223.13683 183.748033 223.074481 183.858998 222.963516 
C 183.969963 222.852552 184.032311 222.70203 184.032311 222.545102 
C 184.032311 222.388174 183.969963 222.237652 183.858998 222.126687 
C 183.748033 222.015722 183.597511 221.953374 183.440583 221.953374 
C 183.283655 221.953374 183.133133 222.015722 183.022169 222.126687 
C 182.911204 222.237652 182.848855 222.388174 182.848855 222.545102 
C 182.848855 222.70203 182.911204 222.852552 183.022169 222.963516 
C 183.133133 223.074481 183.283655 223.13683 183.440583 223.13683 
z
" clip-path="url(#p730df80c3c)" style="fill: #800080; fill-opacity: 0.8; stroke: #800080; stroke-opacity: 0.8"/>
    <path d="M 190.520515 198.718029 
C 190.685007 198.718029 190.842785 198.652675 190.959098 198.536362 
C 191.075412 198.420048 191.140766 198.26227 191.140766 198.097778 
C 191.140766 197.933285 191.075412 197.775508 190.959098 197.659194 
C 190.842785 197.54288 190.685007 197.477526 190.520515 197.477526 
C 190.356022 197.477526 190.198244 197.54288 190.081931 197.659194 
C 189.965617 197.775508 189.900263 197.933285 189.900263 198.097778 
C 189.900263 198.26227 189.965617 198.420048 190.081931 198.536362 
C 190.198244 198.652675 190.356022 198.718029 190.520515 198.718029 
z
" clip-path="url(#p730df80c3c)" style="fill: #800080; fill-opacity: 0.8; stroke: #800080; stroke-opacity: 0.8"/>
    <path d="M 197.600446 218.219152 
C 197.745935 218.219152 197.885484 218.161349 197.98836 218.058473 
C 198.091236 217.955597 198.149039 217.816048 198.149039 217.670559 
C 198.149039 217.525071 198.091236 217.385521 197.98836 217.282645 
C 197.885484 217.179769 197.745935 217.121966 197.600446 217.121966 
C 197.454957 217.121966 197.315408 217.179769 197.212532 217.282645 
C 197.109656 217.385521 197.051853 217.525071 197.051853 217.670559 
C 197.051853 217.816048 197.109656 217.955597 197.212532 218.058473 
C 197.315408 218.161349 197.454957 218.219152 197.600446 218.219152 
z
" clip-path="url(#p730df80c3c)" style="fill: #800080; fill-opacity: 0.8; stroke: #800080; stroke-opacity: 0.8"/>
    <path d="M 204.680377 186.307327 
C 204.848282 186.307327 205.009333 186.240617 205.12806 186.121891 
C 205.246787 186.003164 205.313496 185.842113 205.313496 185.674208 
C 205.313496 185.506303 205.246787 185.345252 205.12806 185.226525 
C 205.009333 185.107798 204.848282 185.041089 204.680377 185.041089 
C 204.512472 185.041089 204.351421 185.107798 204.232695 185.226525 
C 204.113968 185.345252 204.047258 185.506303 204.047258 185.674208 
C 204.047258 185.842113 204.113968 186.003164 204.232695 186.121891 
C 204.351421 186.240617 204.512472 186.307327 204.680377 186.307327 
z
" clip-path="url(#p730df80c3c)" style="fill: #800080; fill-opacity: 0.8; stroke: #800080; stroke-opacity: 0.8"/>
    <path d="M 211.760309 174.419949 
C 211.94931 174.419949 212.130597 174.344858 212.264241 174.211214 
C 212.397885 174.077569 212.472977 173.896283 212.472977 173.707281 
C 212.472977 173.51828 212.397885 173.336994 212.264241 173.203349 
C 212.130597 173.069705 211.94931 172.994614 211.760309 172.994614 
C 211.571307 172.994614 211.390021 173.069705 211.256376 173.203349 
C 211.122732 173.336994 211.047641 173.51828 211.047641 173.707281 
C 211.047641 173.896283 211.122732 174.077569 211.256376 174.211214 
C 211.390021 174.344858 211.571307 174.419949 211.760309 174.419949 
z
" clip-path="url(#p730df80c3c)" style="fill: #800080; fill-opacity: 0.8; stroke: #800080; stroke-opacity: 0.8"/>
    <path d="M 218.84024 158.209656 
C 219.039415 158.209656 219.230458 158.130524 219.371296 157.989686 
C 219.512134 157.848848 219.591266 157.657805 219.591266 157.45863 
C 219.591266 157.259456 219.512134 157.068412 219.371296 156.927574 
C 219.230458 156.786737 219.039415 156.707604 218.84024 156.707604 
C 218.641066 156.707604 218.450022 156.786737 218.309184 156.927574 
C 218.168347 157.068412 218.089214 157.259456 218.089214 157.45863 
C 218.089214 157.657805 218.168347 157.848848 218.309184 157.989686 
C 218.450022 158.130524 218.641066 158.209656 218.84024 158.209656 
z
" clip-path="url(#p730df80c3c)" style="fill: #800080; fill-opacity: 0.8; stroke: #800080; stroke-opacity: 0.8"/>
    <path d="M 225.920172 172.399466 
C 226.136983 172.399466 226.344944 172.313326 226.498253 172.160017 
C 226.651562 172.006708 226.737703 171.798747 226.737703 171.581935 
C 226.737703 171.365123 226.651562 171.157162 226.498253 171.003853 
C 226.344944 170.850544 226.136983 170.764404 225.920172 170.764404 
C 225.70336 170.764404 225.495399 170.850544 225.34209 171.003853 
C 225.188781 171.157162 225.10264 171.365123 225.10264 171.581935 
C 225.10264 171.798747 225.188781 172.006708 225.34209 172.160017 
C 225.495399 172.313326 225.70336 172.399466 225.920172 172.399466 
z
" clip-path="url(#p730df80c3c)" style="fill: #800080; fill-opacity: 0.8; stroke: #800080; stroke-opacity: 0.8"/>
    <path d="M 233.000103 129.522662 
C 233.321531 129.522662 233.629838 129.394957 233.857122 129.167673 
C 234.084406 128.940389 234.21211 128.632082 234.21211 128.310654 
C 234.21211 127.989226 234.084406 127.68092 233.857122 127.453636 
C 233.629838 127.226352 233.321531 127.098647 233.000103 127.098647 
C 232.678675 127.098647 232.370368 127.226352 232.143084 127.453636 
C 231.9158 127.68092 231.788095 127.989226 231.788095 128.310654 
C 231.788095 128.632082 231.9158 128.940389 232.143084 129.167673 
C 232.370368 129.394957 232.678675 129.522662 233.000103 129.522662 
z
" clip-path="url(#p730df80c3c)" style="fill: #800080; fill-opacity: 0.8; stroke: #800080; stroke-opacity: 0.8"/>
    <path d="M 240.080034 215.233024 
C 240.277961 215.233024 240.467809 215.154387 240.607764 215.014431 
C 240.74772 214.874475 240.826357 214.684628 240.826357 214.486701 
C 240.826357 214.288774 240.74772 214.098927 240.607764 213.958971 
C 240.467809 213.819015 240.277961 213.740378 240.080034 213.740378 
C 239.882107 213.740378 239.69226 213.819015 239.552304 213.958971 
C 239.412349 214.098927 239.333711 214.288774 239.333711 214.486701 
C 239.333711 214.684628 239.412349 214.874475 239.552304 215.014431 
C 239.69226 215.154387 239.882107 215.233024 240.080034 215.233024 
z
" clip-path="url(#p730df80c3c)" style="fill: #800080; fill-opacity: 0.8; stroke: #800080; stroke-opacity: 0.8"/>
    <path d="M 247.159966 163.379366 
C 247.460328 163.379366 247.748428 163.260031 247.960816 163.047643 
C 248.173204 162.835255 248.292539 162.547154 248.292539 162.246792 
C 248.292539 161.94643 248.173204 161.65833 247.960816 161.445942 
C 247.748428 161.233554 247.460328 161.114219 247.159966 161.114219 
C 246.859604 161.114219 246.571503 161.233554 246.359115 161.445942 
C 246.146727 161.65833 246.027392 161.94643 246.027392 162.246792 
C 246.027392 162.547154 246.146727 162.835255 246.359115 163.047643 
C 246.571503 163.260031 246.859604 163.379366 247.159966 163.379366 
z
" clip-path="url(#p730df80c3c)" style="fill: #800080; fill-opacity: 0.8; stroke: #800080; stroke-opacity: 0.8"/>
    <path d="M 254.239897 192.583097 
C 254.490498 192.583097 254.730869 192.483532 254.90807 192.30633 
C 255.085272 192.129129 255.184836 191.888758 255.184836 191.638157 
C 255.184836 191.387556 255.085272 191.147186 254.90807 190.969984 
C 254.730869 190.792783 254.490498 190.693218 254.239897 190.693218 
C 253.989296 190.693218 253.748926 190.792783 253.571724 190.969984 
C 253.394522 191.147186 253.294958 191.387556 253.294958 191.638157 
C 253.294958 191.888758 253.394522 192.129129 253.571724 192.30633 
C 253.748926 192.483532 253.989296 192.583097 254.239897 192.583097 
z
" clip-path="url(#p730df80c3c)" style="fill: #800080; fill-opacity: 0.8; stroke: #800080; stroke-opacity: 0.8"/>
    <path d="M 261.319828 146.640557 
C 261.648254 146.640557 261.963272 146.510072 262.195503 146.27784 
C 262.427735 146.045608 262.55822 145.730591 262.55822 145.402165 
C 262.55822 145.07374 262.427735 144.758722 262.195503 144.526491 
C 261.963272 144.294259 261.648254 144.163774 261.319828 144.163774 
C 260.991403 144.163774 260.676385 144.294259 260.444154 144.526491 
C 260.211922 144.758722 260.081437 145.07374 260.081437 145.402165 
C 260.081437 145.730591 260.211922 146.045608 260.444154 146.27784 
C 260.676385 146.510072 260.991403 146.640557 261.319828 146.640557 
z
" clip-path="url(#p730df80c3c)" style="fill: #800080; fill-opacity: 0.8; stroke: #800080; stroke-opacity: 0.8"/>
    <path d="M 268.39976 132.083393 
C 268.784567 132.083393 269.153666 131.930507 269.425766 131.658407 
C 269.697866 131.386307 269.850751 131.017209 269.850751 130.632401 
C 269.850751 130.247594 269.697866 129.878495 269.425766 129.606395 
C 269.153666 129.334295 268.784567 129.18141 268.39976 129.18141 
C 268.014952 129.18141 267.645854 129.334295 267.373754 129.606395 
C 267.101654 129.878495 266.948768 130.247594 266.948768 130.632401 
C 266.948768 131.017209 267.101654 131.386307 267.373754 131.658407 
C 267.645854 131.930507 268.014952 132.083393 268.39976 132.083393 
z
" clip-path="url(#p730df80c3c)" style="fill: #800080; fill-opacity: 0.8; stroke: #800080; stroke-opacity: 0.8"/>
    <path d="M 275.479691 205.997995 
C 275.800761 205.997995 276.108724 205.870433 276.335755 205.643402 
C 276.562786 205.416371 276.690348 205.108408 276.690348 204.787338 
C 276.690348 204.466268 276.562786 204.158305 276.335755 203.931274 
C 276.108724 203.704243 275.800761 203.576681 275.479691 203.576681 
C 275.158621 203.576681 274.850658 203.704243 274.623627 203.931274 
C 274.396597 204.158305 274.269034 204.466268 274.269034 204.787338 
C 274.269034 205.108408 274.396597 205.416371 274.623627 205.643402 
C 274.850658 205.870433 275.158621 205.997995 275.479691 205.997995 
z
" clip-path="url(#p730df80c3c)" style="fill: #800080; fill-opacity: 0.8; stroke: #800080; stroke-opacity: 0.8"/>
    <path d="M 282.559623 155.862437 
C 282.908162 155.862437 283.242473 155.723961 283.488927 155.477507 
C 283.735381 155.231052 283.873857 154.896741 283.873857 154.548202 
C 283.873857 154.199663 283.735381 153.865352 283.488927 153.618898 
C 283.242473 153.372444 282.908162 153.233968 282.559623 153.233968 
C 282.211084 153.233968 281.876773 153.372444 281.630318 153.618898 
C 281.383864 153.865352 281.245388 154.199663 281.245388 154.548202 
C 281.245388 154.896741 281.383864 155.231052 281.630318 155.477507 
C 281.876773 155.723961 282.211084 155.862437 282.559623 155.862437 
z
" clip-path="url(#p730df80c3c)" style="fill: #800080; fill-opacity: 0.8; stroke: #800080; stroke-opacity: 0.8"/>
    <path d="M 289.639554 178.564736 
C 289.991916 178.564736 290.329894 178.424741 290.579051 178.175583 
C 290.828209 177.926426 290.968204 177.588448 290.968204 177.236086 
C 290.968204 176.883724 290.828209 176.545746 290.579051 176.296589 
C 290.329894 176.047431 289.991916 175.907436 289.639554 175.907436 
C 289.287192 175.907436 288.949214 176.047431 288.700057 176.296589 
C 288.450899 176.545746 288.310904 176.883724 288.310904 177.236086 
C 288.310904 177.588448 288.450899 177.926426 288.700057 178.175583 
C 288.949214 178.424741 289.287192 178.564736 289.639554 178.564736 
z
" clip-path="url(#p730df80c3c)" style="fill: #800080; fill-opacity: 0.8; stroke: #800080; stroke-opacity: 0.8"/>
    <path d="M 296.719485 128.770664 
C 297.221494 128.770664 297.703009 128.571214 298.057982 128.21624 
C 298.412956 127.861267 298.612406 127.379752 298.612406 126.877743 
C 298.612406 126.375735 298.412956 125.89422 298.057982 125.539247 
C 297.703009 125.184273 297.221494 124.984823 296.719485 124.984823 
C 296.217477 124.984823 295.735962 125.184273 295.380989 125.539247 
C 295.026015 125.89422 294.826565 126.375735 294.826565 126.877743 
C 294.826565 127.379752 295.026015 127.861267 295.380989 128.21624 
C 295.735962 128.571214 296.217477 128.770664 296.719485 128.770664 
z
" clip-path="url(#p730df80c3c)" style="fill: #800080; fill-opacity: 0.8; stroke: #800080; stroke-opacity: 0.8"/>
    <path d="M 303.799417 127.890758 
C 304.30916 127.890758 304.798095 127.688235 305.158538 127.327792 
C 305.518981 126.967348 305.721505 126.478414 305.721505 125.96867 
C 305.721505 125.458927 305.518981 124.969992 305.158538 124.609549 
C 304.798095 124.249106 304.30916 124.046582 303.799417 124.046582 
C 303.289673 124.046582 302.800739 124.249106 302.440295 124.609549 
C 302.079852 124.969992 301.877329 125.458927 301.877329 125.96867 
C 301.877329 126.478414 302.079852 126.967348 302.440295 127.327792 
C 302.800739 127.688235 303.289673 127.890758 303.799417 127.890758 
z
" clip-path="url(#p730df80c3c)" style="fill: #800080; fill-opacity: 0.8; stroke: #800080; stroke-opacity: 0.8"/>
    <path d="M 310.879348 151.884523 
C 311.273962 151.884523 311.652466 151.727742 311.931499 151.448708 
C 312.210533 151.169674 312.367315 150.79117 312.367315 150.396557 
C 312.367315 150.001944 312.210533 149.623439 311.931499 149.344406 
C 311.652466 149.065372 311.273962 148.90859 310.879348 148.90859 
C 310.484735 148.90859 310.106231 149.065372 309.827197 149.344406 
C 309.548163 149.623439 309.391382 150.001944 309.391382 150.396557 
C 309.391382 150.79117 309.548163 151.169674 309.827197 151.448708 
C 310.106231 151.727742 310.484735 151.884523 310.879348 151.884523 
z
" clip-path="url(#p730df80c3c)" style="fill: #800080; fill-opacity: 0.8; stroke: #800080; stroke-opacity: 0.8"/>
    <path d="M 317.95928 122.771 
C 318.468098 122.771 318.956146 122.568845 319.315935 122.209055 
C 319.675724 121.849266 319.87788 121.361219 319.87788 120.8524 
C 319.87788 120.343581 319.675724 119.855534 319.315935 119.495745 
C 318.956146 119.135955 318.468098 118.9338 317.95928 118.9338 
C 317.450461 118.9338 316.962413 119.135955 316.602624 119.495745 
C 316.242835 119.855534 316.040679 120.343581 316.040679 120.8524 
C 316.040679 121.361219 316.242835 121.849266 316.602624 122.209055 
C 316.962413 122.568845 317.450461 122.771 317.95928 122.771 
z
" clip-path="url(#p730df80c3c)" style="fill: #800080; fill-opacity: 0.8; stroke: #800080; stroke-opacity: 0.8"/>
    <path d="M 325.039211 113.27967 
C 325.603268 113.27967 326.144299 113.055567 326.543148 112.656718 
C 326.941997 112.25787 327.1661 111.716839 327.1661 111.152781 
C 327.1661 110.588724 326.941997 110.047693 326.543148 109.648844 
C 326.144299 109.249995 325.603268 109.025893 325.039211 109.025893 
C 324.475154 109.025893 323.934123 109.249995 323.535274 109.648844 
C 323.136425 110.047693 322.912322 110.588724 322.912322 111.152781 
C 322.912322 111.716839 323.136425 112.25787 323.535274 112.656718 
C 323.934123 113.055567 324.475154 113.27967 325.039211 113.27967 
z
" clip-path="url(#p730df80c3c)" style="fill: #800080; fill-opacity: 0.8; stroke: #800080; stroke-opacity: 0.8"/>
    <path d="M 332.119142 127.601643 
C 332.661128 127.601643 333.180988 127.38631 333.56423 127.003068 
C 333.947472 126.619827 334.162805 126.099966 334.162805 125.557981 
C 334.162805 125.015995 333.947472 124.496135 333.56423 124.112893 
C 333.180988 123.729652 332.661128 123.514318 332.119142 123.514318 
C 331.577157 123.514318 331.057297 123.729652 330.674055 124.112893 
C 330.290813 124.496135 330.07548 125.015995 330.07548 125.557981 
C 330.07548 126.099966 330.290813 126.619827 330.674055 127.003068 
C 331.057297 127.38631 331.577157 127.601643 332.119142 127.601643 
z
" clip-path="url(#p730df80c3c)" style="fill: #800080; fill-opacity: 0.8; stroke: #800080; stroke-opacity: 0.8"/>
    <path d="M 339.199074 122.466431 
C 339.755237 122.466431 340.288697 122.245464 340.681964 121.852197 
C 341.075231 121.45893 341.296198 120.92547 341.296198 120.369307 
C 341.296198 119.813143 341.075231 119.279683 340.681964 118.886416 
C 340.288697 118.493149 339.755237 118.272183 339.199074 118.272183 
C 338.64291 118.272183 338.10945 118.493149 337.716183 118.886416 
C 337.322916 119.279683 337.10195 119.813143 337.10195 120.369307 
C 337.10195 120.92547 337.322916 121.45893 337.716183 121.852197 
C 338.10945 122.245464 338.64291 122.466431 339.199074 122.466431 
z
" clip-path="url(#p730df80c3c)" style="fill: #800080; fill-opacity: 0.8; stroke: #800080; stroke-opacity: 0.8"/>
    <path d="M 346.279005 104.797133 
C 346.922956 104.797133 347.54062 104.541288 347.995962 104.085946 
C 348.451304 103.630604 348.707149 103.012941 348.707149 102.36899 
C 348.707149 101.725038 348.451304 101.107375 347.995962 100.652033 
C 347.54062 100.196691 346.922956 99.940846 346.279005 99.940846 
C 345.635054 99.940846 345.017391 100.196691 344.562048 100.652033 
C 344.106706 101.107375 343.850862 101.725038 343.850862 102.36899 
C 343.850862 103.012941 344.106706 103.630604 344.562048 104.085946 
C 345.017391 104.541288 345.635054 104.797133 346.279005 104.797133 
z
" clip-path="url(#p730df80c3c)" style="fill: #800080; fill-opacity: 0.8; stroke: #800080; stroke-opacity: 0.8"/>
    <path d="M 353.358937 106.066424 
C 354.050606 106.066424 354.714041 105.791621 355.203125 105.302537 
C 355.69221 104.813452 355.967013 104.150018 355.967013 103.458348 
C 355.967013 102.766678 355.69221 102.103244 355.203125 101.61416 
C 354.714041 101.125075 354.050606 100.850272 353.358937 100.850272 
C 352.667267 100.850272 352.003833 101.125075 351.514748 101.61416 
C 351.025664 102.103244 350.75086 102.766678 350.75086 103.458348 
C 350.75086 104.150018 351.025664 104.813452 351.514748 105.302537 
C 352.003833 105.791621 352.667267 106.066424 353.358937 106.066424 
z
" clip-path="url(#p730df80c3c)" style="fill: #800080; fill-opacity: 0.8; stroke: #800080; stroke-opacity: 0.8"/>
    <path d="M 360.438868 122.19588 
C 361.037828 122.19588 361.612336 121.957911 362.035865 121.534382 
C 362.459393 121.110854 362.697362 120.536345 362.697362 119.937386 
C 362.697362 119.338426 362.459393 118.763917 362.035865 118.340389 
C 361.612336 117.916861 361.037828 117.678891 360.438868 117.678891 
C 359.839908 117.678891 359.2654 117.916861 358.841871 118.340389 
C 358.418343 118.763917 358.180374 119.338426 358.180374 119.937386 
C 358.180374 120.536345 358.418343 121.110854 358.841871 121.534382 
C 359.2654 121.957911 359.839908 122.19588 360.438868 122.19588 
z
" clip-path="url(#p730df80c3c)" style="fill: #800080; fill-opacity: 0.8; stroke: #800080; stroke-opacity: 0.8"/>
    <path d="M 367.518799 102.311214 
C 368.253249 102.311214 368.957716 102.019415 369.47705 101.50008 
C 369.996384 100.980746 370.288184 100.276279 370.288184 99.541829 
C 370.288184 98.80738 369.996384 98.102913 369.47705 97.583578 
C 368.957716 97.064244 368.253249 96.772444 367.518799 96.772444 
C 366.78435 96.772444 366.079883 97.064244 365.560548 97.583578 
C 365.041214 98.102913 364.749414 98.80738 364.749414 99.541829 
C 364.749414 100.276279 365.041214 100.980746 365.560548 101.50008 
C 366.079883 102.019415 366.78435 102.311214 367.518799 102.311214 
z
" clip-path="url(#p730df80c3c)" style="fill: #800080; fill-opacity: 0.8; stroke: #800080; stroke-opacity: 0.8"/>
    <path d="M 374.598731 88.400284 
C 375.387371 88.400284 376.143817 88.086954 376.70147 87.529301 
C 377.259123 86.971648 377.572454 86.215202 377.572454 85.426561 
C 377.572454 84.637921 377.259123 83.881475 376.70147 83.323822 
C 376.143817 82.766169 375.387371 82.452838 374.598731 82.452838 
C 373.81009 82.452838 373.053644 82.766169 372.495991 83.323822 
C 371.938338 83.881475 371.625008 84.637921 371.625008 85.426561 
C 371.625008 86.215202 371.938338 86.971648 372.495991 87.529301 
C 373.053644 88.086954 373.81009 88.400284 374.598731 88.400284 
z
" clip-path="url(#p730df80c3c)" style="fill: #800080; fill-opacity: 0.8; stroke: #800080; stroke-opacity: 0.8"/>
    <path d="M 381.678662 76.683717 
C 382.474271 76.683717 383.237402 76.367618 383.799982 75.805037 
C 384.362563 75.242457 384.678662 74.479326 384.678662 73.683717 
C 384.678662 72.888108 384.362563 72.124977 383.799982 71.562397 
C 383.237402 70.999816 382.474271 70.683717 381.678662 70.683717 
C 380.883053 70.683717 380.119922 70.999816 379.557342 71.562397 
C 378.994761 72.124977 378.678662 72.888108 378.678662 73.683717 
C 378.678662 74.479326 378.994761 75.242457 379.557342 75.805037 
C 380.119922 76.367618 380.883053 76.683717 381.678662 76.683717 
z
" clip-path="url(#p730df80c3c)" style="fill: #800080; fill-opacity: 0.8; stroke: #800080; stroke-opacity: 0.8"/>
    <path d="M 388.758593 82.522408 
C 389.544903 82.522408 390.299113 82.210004 390.855118 81.653999 
C 391.411123 81.097994 391.723527 80.343784 391.723527 79.557474 
C 391.723527 78.771165 391.411123 78.016955 390.855118 77.46095 
C 390.299113 76.904945 389.544903 76.592541 388.758593 76.592541 
C 387.972284 76.592541 387.218074 76.904945 386.662069 77.46095 
C 386.106064 78.016955 385.79366 78.771165 385.79366 79.557474 
C 385.79366 80.343784 386.106064 81.097994 386.662069 81.653999 
C 387.218074 82.210004 387.972284 82.522408 388.758593 82.522408 
z
" clip-path="url(#p730df80c3c)" style="fill: #800080; fill-opacity: 0.8; stroke: #800080; stroke-opacity: 0.8"/>
    <path d="M 395.838525 76.359378 
C 396.590345 76.359378 397.311473 76.060677 397.84309 75.52906 
C 398.374707 74.997443 398.673409 74.276315 398.673409 73.524495 
C 398.673409 72.772675 398.374707 72.051546 397.84309 71.519929 
C 397.311473 70.988312 396.590345 70.689611 395.838525 70.689611 
C 395.086705 70.689611 394.365576 70.988312 393.833959 71.519929 
C 393.302342 72.051546 393.003641 72.772675 393.003641 73.524495 
C 393.003641 74.276315 393.302342 74.997443 393.833959 75.52906 
C 394.365576 76.060677 395.086705 76.359378 395.838525 76.359378 
z
" clip-path="url(#p730df80c3c)" style="fill: #800080; fill-opacity: 0.8; stroke: #800080; stroke-opacity: 0.8"/>
    <path d="M 402.918456 68.315512 
C 403.652796 68.315512 404.357157 68.023756 404.876414 67.504499 
C 405.39567 66.985243 405.687426 66.280881 405.687426 65.546542 
C 405.687426 64.812202 405.39567 64.107841 404.876414 63.588584 
C 404.357157 63.069328 403.652796 62.777572 402.918456 62.777572 
C 402.184117 62.777572 401.479755 63.069328 400.960499 63.588584 
C 400.441242 64.107841 400.149486 64.812202 400.149486 65.546542 
C 400.149486 66.280881 400.441242 66.985243 400.960499 67.504499 
C 401.479755 68.023756 402.184117 68.315512 402.918456 68.315512 
z
" clip-path="url(#p730df80c3c)" style="fill: #800080; fill-opacity: 0.8; stroke: #800080; stroke-opacity: 0.8"/>
    <path d="M 409.998388 60.012044 
C 410.60069 60.012044 411.178404 59.772747 411.604296 59.346855 
C 412.030188 58.920963 412.269485 58.343249 412.269485 57.740947 
C 412.269485 57.138645 412.030188 56.560931 411.604296 56.135039 
C 411.178404 55.709147 410.60069 55.46985 409.998388 55.46985 
C 409.396086 55.46985 408.818371 55.709147 408.392479 56.135039 
C 407.966587 56.560931 407.72729 57.138645 407.72729 57.740947 
C 407.72729 58.343249 407.966587 58.920963 408.392479 59.346855 
C 408.818371 59.772747 409.396086 60.012044 409.998388 60.012044 
z
" clip-path="url(#p730df80c3c)" style="fill: #800080; fill-opacity: 0.8; stroke: #800080; stroke-opacity: 0.8"/>
    <path d="M 417.078319 59.48121 
C 417.63091 59.48121 418.160942 59.261664 418.551683 58.870923 
C 418.942424 58.480182 419.16197 57.95015 419.16197 57.397559 
C 419.16197 56.844968 418.942424 56.314936 418.551683 55.924195 
C 418.160942 55.533455 417.63091 55.313908 417.078319 55.313908 
C 416.525728 55.313908 415.995696 55.533455 415.604955 55.924195 
C 415.214214 56.314936 414.994668 56.844968 414.994668 57.397559 
C 414.994668 57.95015 415.214214 58.480182 415.604955 58.870923 
C 415.995696 59.261664 416.525728 59.48121 417.078319 59.48121 
z
" clip-path="url(#p730df80c3c)" style="fill: #800080; fill-opacity: 0.8; stroke: #800080; stroke-opacity: 0.8"/>
    <path d="M 424.15825 52.88519 
C 424.646759 52.88519 425.115325 52.691104 425.460753 52.345676 
C 425.806181 52.000249 426.000267 51.531682 426.000267 51.043174 
C 426.000267 50.554665 425.806181 50.086099 425.460753 49.740671 
C 425.115325 49.395243 424.646759 49.201157 424.15825 49.201157 
C 423.669742 49.201157 423.201176 49.395243 422.855748 49.740671 
C 422.51032 50.086099 422.316234 50.554665 422.316234 51.043174 
C 422.316234 51.531682 422.51032 52.000249 422.855748 52.345676 
C 423.201176 52.691104 423.669742 52.88519 424.15825 52.88519 
z
" clip-path="url(#p730df80c3c)" style="fill: #800080; fill-opacity: 0.8; stroke: #800080; stroke-opacity: 0.8"/>
    <path d="M 431.238182 40.105186 
C 431.589851 40.105186 431.927165 39.965467 432.175833 39.716799 
C 432.424501 39.468131 432.564221 39.130817 432.564221 38.779148 
C 432.564221 38.427478 432.424501 38.090165 432.175833 37.841497 
C 431.927165 37.592829 431.589851 37.453109 431.238182 37.453109 
C 430.886512 37.453109 430.549199 37.592829 430.300531 37.841497 
C 430.051863 38.090165 429.912143 38.427478 429.912143 38.779148 
C 429.912143 39.130817 430.051863 39.468131 430.300531 39.716799 
C 430.549199 39.965467 430.886512 40.105186 431.238182 40.105186 
z
" clip-path="url(#p730df80c3c)" style="fill: #800080; fill-opacity: 0.8; stroke: #800080; stroke-opacity: 0.8"/>
   </g>
   <g id="PolyCollection_1">
    <defs>
     <path id="mb7e66b9c2a" d="M 56.001818 -90.018512 
L 56.001818 -61.733734 
L 59.792084 -64.055623 
L 63.582351 -66.377513 
L 67.372617 -68.700177 
L 71.162883 -71.023206 
L 74.95315 -73.346235 
L 78.743416 -75.669264 
L 82.533682 -77.992293 
L 86.323949 -80.315322 
L 90.114215 -82.656791 
L 93.904481 -85.00178 
L 97.694747 -87.346768 
L 101.485014 -89.691757 
L 105.27528 -92.036745 
L 109.065546 -94.381734 
L 112.855813 -96.632305 
L 116.646079 -98.894587 
L 120.436345 -101.21507 
L 124.226612 -103.535553 
L 128.016878 -105.856035 
L 131.807144 -108.164182 
L 135.59741 -110.336906 
L 139.387677 -112.563276 
L 143.177943 -114.919342 
L 146.968209 -117.142497 
L 150.758476 -119.415611 
L 154.548742 -121.76674 
L 158.339008 -124.064904 
L 162.129275 -126.357368 
L 165.919541 -128.619829 
L 169.709807 -130.889812 
L 173.500073 -133.272092 
L 177.29034 -135.548744 
L 181.080606 -137.794289 
L 184.870872 -140.028395 
L 188.661139 -142.26396 
L 192.451405 -144.499525 
L 196.241671 -146.751937 
L 200.031938 -149.033672 
L 203.822204 -151.345997 
L 207.61247 -153.584286 
L 211.402736 -155.843618 
L 215.193003 -158.082265 
L 218.983269 -160.417449 
L 222.773535 -162.693624 
L 226.563802 -164.928829 
L 230.354068 -167.204901 
L 234.144334 -169.421295 
L 237.934601 -171.481587 
L 241.724867 -173.673729 
L 245.515133 -175.839177 
L 249.305399 -178.206508 
L 253.095666 -180.46379 
L 256.885932 -182.645466 
L 260.676198 -184.762407 
L 264.466465 -187.008302 
L 268.256731 -189.252793 
L 272.046997 -191.498211 
L 275.837264 -193.627788 
L 279.62753 -195.771985 
L 283.417796 -198.032935 
L 287.208062 -200.205696 
L 290.998329 -202.367519 
L 294.788595 -204.528963 
L 298.578861 -206.687828 
L 302.369128 -208.801979 
L 306.159394 -210.669498 
L 309.94966 -212.549742 
L 313.739927 -214.463469 
L 317.530193 -216.543851 
L 321.320459 -218.595532 
L 325.110725 -220.708528 
L 328.900992 -222.794204 
L 332.691258 -224.958875 
L 336.481524 -226.96024 
L 340.271791 -229.04973 
L 344.062057 -231.125648 
L 347.852323 -233.1022 
L 351.64259 -235.082377 
L 355.432856 -236.9861 
L 359.223122 -238.924899 
L 363.013388 -241.039709 
L 366.803655 -243.099332 
L 370.593921 -245.14996 
L 374.384187 -247.190603 
L 378.174454 -249.250569 
L 381.96472 -251.334189 
L 385.754986 -253.443768 
L 389.545253 -255.502577 
L 393.335519 -257.578645 
L 397.125785 -259.546475 
L 400.916051 -261.460883 
L 404.706318 -263.349408 
L 408.496584 -265.253133 
L 412.28685 -267.148293 
L 416.077117 -269.043454 
L 419.867383 -270.94096 
L 423.657649 -272.969769 
L 427.447916 -275.050417 
L 431.238182 -277.131064 
L 431.238182 -295.08641 
L 431.238182 -295.08641 
L 427.447916 -292.79862 
L 423.657649 -290.512899 
L 419.867383 -288.226144 
L 416.077117 -285.90048 
L 412.28685 -283.65225 
L 408.496584 -281.368689 
L 404.706318 -279.084272 
L 400.916051 -276.832393 
L 397.125785 -274.648711 
L 393.335519 -272.465029 
L 389.545253 -270.280532 
L 385.754986 -267.987661 
L 381.96472 -265.682693 
L 378.174454 -263.380421 
L 374.384187 -261.152149 
L 370.593921 -258.991218 
L 366.803655 -256.832037 
L 363.013388 -254.655549 
L 359.223122 -252.384273 
L 355.432856 -250.197595 
L 351.64259 -248.073838 
L 347.852323 -245.948331 
L 344.062057 -243.799647 
L 340.271791 -241.608721 
L 336.481524 -239.397831 
L 332.691258 -237.277321 
L 328.900992 -235.196892 
L 325.110725 -233.091853 
L 321.320459 -230.93377 
L 317.530193 -228.802597 
L 313.739927 -226.737018 
L 309.94966 -224.587124 
L 306.159394 -222.471997 
L 302.369128 -220.339034 
L 298.578861 -218.244362 
L 294.788595 -216.075423 
L 290.998329 -213.94731 
L 287.208062 -211.812166 
L 283.417796 -209.760028 
L 279.62753 -207.737227 
L 275.837264 -205.570202 
L 272.046997 -203.446517 
L 268.256731 -201.374066 
L 264.466465 -199.413809 
L 260.676198 -197.288093 
L 256.885932 -195.161497 
L 253.095666 -193.03793 
L 249.305399 -190.91348 
L 245.515133 -188.816257 
L 241.724867 -186.861185 
L 237.934601 -184.927524 
L 234.144334 -182.994332 
L 230.354068 -180.998823 
L 226.563802 -178.989358 
L 222.773535 -176.896558 
L 218.983269 -174.803213 
L 215.193003 -172.835178 
L 211.402736 -170.845572 
L 207.61247 -168.848999 
L 203.822204 -166.785213 
L 200.031938 -164.798494 
L 196.241671 -162.83743 
L 192.451405 -160.772413 
L 188.661139 -158.717198 
L 184.870872 -156.717616 
L 181.080606 -154.672738 
L 177.29034 -152.648061 
L 173.500073 -150.689785 
L 169.709807 -148.727158 
L 165.919541 -146.7299 
L 162.129275 -144.734207 
L 158.339008 -142.735277 
L 154.548742 -140.674449 
L 150.758476 -138.597826 
L 146.968209 -136.538777 
L 143.177943 -134.669774 
L 139.387677 -132.675586 
L 135.59741 -130.634349 
L 131.807144 -128.62966 
L 128.016878 -126.706184 
L 124.226612 -124.766106 
L 120.436345 -122.86408 
L 116.646079 -120.861185 
L 112.855813 -118.849509 
L 109.065546 -116.95491 
L 105.27528 -115.06403 
L 101.485014 -113.089988 
L 97.694747 -111.088022 
L 93.904481 -109.132585 
L 90.114215 -107.200796 
L 86.323949 -105.315096 
L 82.533682 -103.496963 
L 78.743416 -101.678663 
L 74.95315 -99.800272 
L 71.162883 -97.84392 
L 67.372617 -95.887347 
L 63.582351 -93.966896 
L 59.792084 -91.974864 
L 56.001818 -90.018512 
z
" style="stroke: #ffffff; stroke-opacity: 0.15"/>
    </defs>
    <g clip-path="url(#p730df80c3c)">
     <use xlink:href="#mb7e66b9c2a" x="0" y="345.6" style="fill: #800080; fill-opacity: 0.15; stroke: #ffffff; stroke-opacity: 0.15"/>
    </g>
   </g>
   <g id="line2d_1">
    <path d="M 56.001818 270.67565 
L 59.792084 268.531056 
L 63.582351 266.386462 
L 67.372617 264.241867 
L 71.162883 262.097273 
L 74.95315 259.952678 
L 78.743416 257.808084 
L 82.533682 255.66349 
L 86.323949 253.518895 
L 90.114215 251.374301 
L 93.904481 249.229706 
L 97.694747 247.085112 
L 101.485014 244.940517 
L 105.27528 242.795923 
L 109.065546 240.651329 
L 112.855813 238.506734 
L 116.646079 236.36214 
L 120.436345 234.217545 
L 124.226612 232.072951 
L 128.016878 229.928357 
L 131.807144 227.783762 
L 135.59741 225.639168 
L 139.387677 223.494573 
L 143.177943 221.349979 
L 146.968209 219.205385 
L 150.758476 217.06079 
L 154.548742 214.916196 
L 158.339008 212.771601 
L 162.129275 210.627007 
L 165.919541 208.482412 
L 169.709807 206.337818 
L 173.500073 204.193224 
L 177.29034 202.048629 
L 181.080606 199.904035 
L 184.870872 197.75944 
L 188.661139 195.614846 
L 192.451405 193.470252 
L 196.241671 191.325657 
L 200.031938 189.181063 
L 203.822204 187.036468 
L 207.61247 184.891874 
L 211.402736 182.747279 
L 215.193003 180.602685 
L 218.983269 178.458091 
L 222.773535 176.313496 
L 226.563802 174.168902 
L 230.354068 172.024307 
L 234.144334 169.879713 
L 237.934601 167.735119 
L 241.724867 165.590524 
L 245.515133 163.44593 
L 249.305399 161.301335 
L 253.095666 159.156741 
L 256.885932 157.012147 
L 260.676198 154.867552 
L 264.466465 152.722958 
L 268.256731 150.578363 
L 272.046997 148.433769 
L 275.837264 146.289174 
L 279.62753 144.14458 
L 283.417796 141.999986 
L 287.208062 139.855391 
L 290.998329 137.710797 
L 294.788595 135.566202 
L 298.578861 133.421608 
L 302.369128 131.277014 
L 306.159394 129.132419 
L 309.94966 126.987825 
L 313.739927 124.84323 
L 317.530193 122.698636 
L 321.320459 120.554042 
L 325.110725 118.409447 
L 328.900992 116.264853 
L 332.691258 114.120258 
L 336.481524 111.975664 
L 340.271791 109.831069 
L 344.062057 107.686475 
L 347.852323 105.541881 
L 351.64259 103.397286 
L 355.432856 101.252692 
L 359.223122 99.108097 
L 363.013388 96.963503 
L 366.803655 94.818909 
L 370.593921 92.674314 
L 374.384187 90.52972 
L 378.174454 88.385125 
L 381.96472 86.240531 
L 385.754986 84.095937 
L 389.545253 81.951342 
L 393.335519 79.806748 
L 397.125785 77.662153 
L 400.916051 75.517559 
L 404.706318 73.372964 
L 408.496584 71.22837 
L 412.28685 69.083776 
L 416.077117 66.939181 
L 419.867383 64.794587 
L 423.657649 62.649992 
L 427.447916 60.505398 
L 431.238182 58.360804 
" clip-path="url(#p730df80c3c)" style="fill: none; stroke: #800080; stroke-width: 2.25; stroke-linecap: round"/>
   </g>
   <g id="patch_3">
    <path d="M 37.24 317.72 
L 37.24 25.49625 
" style="fill: none; stroke: #ffffff; stroke-width: 0.8; stroke-linejoin: miter; stroke-linecap: square"/>
   </g>
   <g id="patch_4">
    <path d="M 450 317.72 
L 450 25.49625 
" style="fill: none; stroke: #ffffff; stroke-width: 0.8; stroke-linejoin: miter; stroke-linecap: square"/>
   </g>
   <g id="patch_5">
    <path d="M 37.24 317.72 
L 450 317.72 
" style="fill: none; stroke: #ffffff; stroke-width: 0.8; stroke-linejoin: miter; stroke-linecap: square"/>
   </g>
   <g id="patch_6">
    <path d="M 37.24 25.49625 
L 450 25.49625 
" style="fill: none; stroke: #ffffff; stroke-width: 0.8; stroke-linejoin: miter; stroke-linecap: square"/>
   </g>
   <g id="text_15">
    <!-- Yearly average ratings -->
    <g style="fill: #262626" transform="translate(184.139375 19.49625) scale(0.12 -0.12)">
     <defs>
      <path id="ArialMT-59" d="M 1784 0 
L 1784 1941 
L 19 4581 
L 756 4581 
L 1659 3200 
Q 1909 2813 2125 2425 
Q 2331 2784 2625 3234 
L 3513 4581 
L 4219 4581 
L 2391 1941 
L 2391 0 
L 1784 0 
z
" transform="scale(0.015625)"/>
      <path id="ArialMT-65" d="M 2694 1069 
L 3275 997 
Q 3138 488 2766 206 
Q 2394 -75 1816 -75 
Q 1088 -75 661 373 
Q 234 822 234 1631 
Q 234 2469 665 2931 
Q 1097 3394 1784 3394 
Q 2450 3394 2872 2941 
Q 3294 2488 3294 1666 
Q 3294 1616 3291 1516 
L 816 1516 
Q 847 969 1125 678 
Q 1403 388 1819 388 
Q 2128 388 2347 550 
Q 2566 713 2694 1069 
z
M 847 1978 
L 2700 1978 
Q 2663 2397 2488 2606 
Q 2219 2931 1791 2931 
Q 1403 2931 1139 2672 
Q 875 2413 847 1978 
z
" transform="scale(0.015625)"/>
      <path id="ArialMT-61" d="M 2588 409 
Q 2275 144 1986 34 
Q 1697 -75 1366 -75 
Q 819 -75 525 192 
Q 231 459 231 875 
Q 231 1119 342 1320 
Q 453 1522 633 1644 
Q 813 1766 1038 1828 
Q 1203 1872 1538 1913 
Q 2219 1994 2541 2106 
Q 2544 2222 2544 2253 
Q 2544 2597 2384 2738 
Q 2169 2928 1744 2928 
Q 1347 2928 1158 2789 
Q 969 2650 878 2297 
L 328 2372 
Q 403 2725 575 2942 
Q 747 3159 1072 3276 
Q 1397 3394 1825 3394 
Q 2250 3394 2515 3294 
Q 2781 3194 2906 3042 
Q 3031 2891 3081 2659 
Q 3109 2516 3109 2141 
L 3109 1391 
Q 3109 606 3145 398 
Q 3181 191 3288 0 
L 2700 0 
Q 2613 175 2588 409 
z
M 2541 1666 
Q 2234 1541 1622 1453 
Q 1275 1403 1131 1340 
Q 988 1278 909 1158 
Q 831 1038 831 891 
Q 831 666 1001 516 
Q 1172 366 1500 366 
Q 1825 366 2078 508 
Q 2331 650 2450 897 
Q 2541 1088 2541 1459 
L 2541 1666 
z
" transform="scale(0.015625)"/>
      <path id="ArialMT-72" d="M 416 0 
L 416 3319 
L 922 3319 
L 922 2816 
Q 1116 3169 1280 3281 
Q 1444 3394 1641 3394 
Q 1925 3394 2219 3213 
L 2025 2691 
Q 1819 2813 1613 2813 
Q 1428 2813 1281 2702 
Q 1134 2591 1072 2394 
Q 978 2094 978 1738 
L 978 0 
L 416 0 
z
" transform="scale(0.015625)"/>
      <path id="ArialMT-6c" d="M 409 0 
L 409 4581 
L 972 4581 
L 972 0 
L 409 0 
z
" transform="scale(0.015625)"/>
      <path id="ArialMT-79" d="M 397 -1278 
L 334 -750 
Q 519 -800 656 -800 
Q 844 -800 956 -737 
Q 1069 -675 1141 -563 
Q 1194 -478 1313 -144 
Q 1328 -97 1363 -6 
L 103 3319 
L 709 3319 
L 1400 1397 
Q 1534 1031 1641 628 
Q 1738 1016 1872 1384 
L 2581 3319 
L 3144 3319 
L 1881 -56 
Q 1678 -603 1566 -809 
Q 1416 -1088 1222 -1217 
Q 1028 -1347 759 -1347 
Q 597 -1347 397 -1278 
z
" transform="scale(0.015625)"/>
      <path id="ArialMT-20" transform="scale(0.015625)"/>
      <path id="ArialMT-76" d="M 1344 0 
L 81 3319 
L 675 3319 
L 1388 1331 
Q 1503 1009 1600 663 
Q 1675 925 1809 1294 
L 2547 3319 
L 3125 3319 
L 1869 0 
L 1344 0 
z
" transform="scale(0.015625)"/>
      <path id="ArialMT-67" d="M 319 -275 
L 866 -356 
Q 900 -609 1056 -725 
Q 1266 -881 1628 -881 
Q 2019 -881 2231 -725 
Q 2444 -569 2519 -288 
Q 2563 -116 2559 434 
Q 2191 0 1641 0 
Q 956 0 581 494 
Q 206 988 206 1678 
Q 206 2153 378 2554 
Q 550 2956 876 3175 
Q 1203 3394 1644 3394 
Q 2231 3394 2613 2919 
L 2613 3319 
L 3131 3319 
L 3131 450 
Q 3131 -325 2973 -648 
Q 2816 -972 2473 -1159 
Q 2131 -1347 1631 -1347 
Q 1038 -1347 672 -1080 
Q 306 -813 319 -275 
z
M 784 1719 
Q 784 1066 1043 766 
Q 1303 466 1694 466 
Q 2081 466 2343 764 
Q 2606 1063 2606 1700 
Q 2606 2309 2336 2618 
Q 2066 2928 1684 2928 
Q 1309 2928 1046 2623 
Q 784 2319 784 1719 
z
" transform="scale(0.015625)"/>
      <path id="ArialMT-74" d="M 1650 503 
L 1731 6 
Q 1494 -44 1306 -44 
Q 1000 -44 831 53 
Q 663 150 594 308 
Q 525 466 525 972 
L 525 2881 
L 113 2881 
L 113 3319 
L 525 3319 
L 525 4141 
L 1084 4478 
L 1084 3319 
L 1650 3319 
L 1650 2881 
L 1084 2881 
L 1084 941 
Q 1084 700 1114 631 
Q 1144 563 1211 522 
Q 1278 481 1403 481 
Q 1497 481 1650 503 
z
" transform="scale(0.015625)"/>
      <path id="ArialMT-69" d="M 425 3934 
L 425 4581 
L 988 4581 
L 988 3934 
L 425 3934 
z
M 425 0 
L 425 3319 
L 988 3319 
L 988 0 
L 425 0 
z
" transform="scale(0.015625)"/>
      <path id="ArialMT-6e" d="M 422 0 
L 422 3319 
L 928 3319 
L 928 2847 
Q 1294 3394 1984 3394 
Q 2284 3394 2536 3286 
Q 2788 3178 2913 3003 
Q 3038 2828 3088 2588 
Q 3119 2431 3119 2041 
L 3119 0 
L 2556 0 
L 2556 2019 
Q 2556 2363 2490 2533 
Q 2425 2703 2258 2804 
Q 2091 2906 1866 2906 
Q 1506 2906 1245 2678 
Q 984 2450 984 1813 
L 984 0 
L 422 0 
z
" transform="scale(0.015625)"/>
      <path id="ArialMT-73" d="M 197 991 
L 753 1078 
Q 800 744 1014 566 
Q 1228 388 1613 388 
Q 2000 388 2187 545 
Q 2375 703 2375 916 
Q 2375 1106 2209 1216 
Q 2094 1291 1634 1406 
Q 1016 1563 777 1677 
Q 538 1791 414 1992 
Q 291 2194 291 2438 
Q 291 2659 392 2848 
Q 494 3038 669 3163 
Q 800 3259 1026 3326 
Q 1253 3394 1513 3394 
Q 1903 3394 2198 3281 
Q 2494 3169 2634 2976 
Q 2775 2784 2828 2463 
L 2278 2388 
Q 2241 2644 2061 2787 
Q 1881 2931 1553 2931 
Q 1166 2931 1000 2803 
Q 834 2675 834 2503 
Q 834 2394 903 2306 
Q 972 2216 1119 2156 
Q 1203 2125 1616 2013 
Q 2213 1853 2448 1751 
Q 2684 1650 2818 1456 
Q 2953 1263 2953 975 
Q 2953 694 2789 445 
Q 2625 197 2315 61 
Q 2006 -75 1616 -75 
Q 969 -75 630 194 
Q 291 463 197 991 
z
" transform="scale(0.015625)"/>
     </defs>
     <use xlink:href="#ArialMT-59"/>
     <use xlink:href="#ArialMT-65" x="57.574219"/>
     <use xlink:href="#ArialMT-61" x="113.189453"/>
     <use xlink:href="#ArialMT-72" x="168.804688"/>
     <use xlink:href="#ArialMT-6c" x="202.105469"/>
     <use xlink:href="#ArialMT-79" x="224.322266"/>
     <use xlink:href="#ArialMT-20" x="274.322266"/>
     <use xlink:href="#ArialMT-61" x="302.105469"/>
     <use xlink:href="#ArialMT-76" x="357.720703"/>
     <use xlink:href="#ArialMT-65" x="407.720703"/>
     <use xlink:href="#ArialMT-72" x="463.335938"/>
     <use xlink:href="#ArialMT-61" x="496.636719"/>
     <use xlink:href="#ArialMT-67" x="552.251953"/>
     <use xlink:href="#ArialMT-65" x="607.867188"/>
     <use xlink:href="#ArialMT-20" x="663.482422"/>
     <use xlink:href="#ArialMT-72" x="691.265625"/>
     <use xlink:href="#ArialMT-61" x="724.566406"/>
     <use xlink:href="#ArialMT-74" x="780.181641"/>
     <use xlink:href="#ArialMT-69" x="807.964844"/>
     <use xlink:href="#ArialMT-6e" x="830.181641"/>
     <use xlink:href="#ArialMT-67" x="885.796875"/>
     <use xlink:href="#ArialMT-73" x="941.412109"/>
    </g>
   </g>
  </g>
 </g>
 <defs>
  <clipPath id="p730df80c3c">
   <rect x="37.24" y="25.49625" width="412.76" height="292.22375"/>
  </clipPath>
 </defs>
</svg>
