<?xml version="1.0" encoding="utf-8" standalone="no"?>
<!DOCTYPE svg PUBLIC "-//W3C//DTD SVG 1.1//EN"
  "http://www.w3.org/Graphics/SVG/1.1/DTD/svg11.dtd">
<svg xmlns:xlink="http://www.w3.org/1999/xlink" width="460.8pt" height="345.6pt" viewBox="0 0 460.8 345.6" xmlns="http://www.w3.org/2000/svg" version="1.1">
 <metadata>
  <rdf:RDF xmlns:dc="http://purl.org/dc/elements/1.1/" xmlns:cc="http://creativecommons.org/ns#" xmlns:rdf="http://www.w3.org/1999/02/22-rdf-syntax-ns#">
   <cc:Work>
    <dc:type rdf:resource="http://purl.org/dc/dcmitype/StillImage"/>
    <dc:date>2024-08-18T00:19:39.896693</dc:date>
    <dc:format>image/svg+xml</dc:format>
    <dc:creator>
     <cc:Agent>
      <dc:title>Matplotlib v3.9.2, https://matplotlib.org/</dc:title>
     </cc:Agent>
    </dc:creator>
   </cc:Work>
  </rdf:RDF>
 </metadata>
 <defs>
  <style type="text/css">*{stroke-linejoin: round; stroke-linecap: butt}</style>
 </defs>
 <g id="figure_1">
  <g id="patch_1">
   <path d="M 0 345.6 
L 460.8 345.6 
L 460.8 0 
L 0 0 
z
" style="fill: #ffffff"/>
  </g>
  <g id="axes_1">
   <g id="patch_2">
    <path d="M 37.24 317.72 
L 450 317.72 
L 450 25.49625 
L 37.24 25.49625 
z
" style="fill: #eaeaf2"/>
   </g>
   <g id="matplotlib.axis_1">
    <g id="xtick_1">
     <g id="text_1">
      <!-- 1970 -->
      <g style="fill: #262626" transform="translate(44.879943 331.877812) scale(0.1 -0.1)">
       <defs>
        <path id="ArialMT-31" d="M 2384 0 
L 1822 0 
L 1822 3584 
Q 1619 3391 1289 3197 
Q 959 3003 697 2906 
L 697 3450 
Q 1169 3672 1522 3987 
Q 1875 4303 2022 4600 
L 2384 4600 
L 2384 0 
z
" transform="scale(0.015625)"/>
        <path id="ArialMT-39" d="M 350 1059 
L 891 1109 
Q 959 728 1153 556 
Q 1347 384 1650 384 
Q 1909 384 2104 503 
Q 2300 622 2425 820 
Q 2550 1019 2634 1356 
Q 2719 1694 2719 2044 
Q 2719 2081 2716 2156 
Q 2547 1888 2255 1720 
Q 1963 1553 1622 1553 
Q 1053 1553 659 1965 
Q 266 2378 266 3053 
Q 266 3750 677 4175 
Q 1088 4600 1706 4600 
Q 2153 4600 2523 4359 
Q 2894 4119 3086 3673 
Q 3278 3228 3278 2384 
Q 3278 1506 3087 986 
Q 2897 466 2520 194 
Q 2144 -78 1638 -78 
Q 1100 -78 759 220 
Q 419 519 350 1059 
z
M 2653 3081 
Q 2653 3566 2395 3850 
Q 2138 4134 1775 4134 
Q 1400 4134 1122 3828 
Q 844 3522 844 3034 
Q 844 2597 1108 2323 
Q 1372 2050 1759 2050 
Q 2150 2050 2401 2323 
Q 2653 2597 2653 3081 
z
" transform="scale(0.015625)"/>
        <path id="ArialMT-37" d="M 303 3981 
L 303 4522 
L 3269 4522 
L 3269 4084 
Q 2831 3619 2401 2847 
Q 1972 2075 1738 1259 
Q 1569 684 1522 0 
L 944 0 
Q 953 541 1156 1306 
Q 1359 2072 1739 2783 
Q 2119 3494 2547 3981 
L 303 3981 
z
" transform="scale(0.015625)"/>
        <path id="ArialMT-30" d="M 266 2259 
Q 266 3072 433 3567 
Q 600 4063 929 4331 
Q 1259 4600 1759 4600 
Q 2128 4600 2406 4451 
Q 2684 4303 2865 4023 
Q 3047 3744 3150 3342 
Q 3253 2941 3253 2259 
Q 3253 1453 3087 958 
Q 2922 463 2592 192 
Q 2263 -78 1759 -78 
Q 1097 -78 719 397 
Q 266 969 266 2259 
z
M 844 2259 
Q 844 1131 1108 757 
Q 1372 384 1759 384 
Q 2147 384 2411 759 
Q 2675 1134 2675 2259 
Q 2675 3391 2411 3762 
Q 2147 4134 1753 4134 
Q 1366 4134 1134 3806 
Q 844 3388 844 2259 
z
" transform="scale(0.015625)"/>
       </defs>
       <use xlink:href="#ArialMT-31"/>
       <use xlink:href="#ArialMT-39" x="55.615234"/>
       <use xlink:href="#ArialMT-37" x="111.230469"/>
       <use xlink:href="#ArialMT-30" x="166.845703"/>
      </g>
     </g>
    </g>
    <g id="xtick_2">
     <g id="text_2">
      <!-- 1980 -->
      <g style="fill: #262626" transform="translate(115.679257 331.877812) scale(0.1 -0.1)">
       <defs>
        <path id="ArialMT-38" d="M 1131 2484 
Q 781 2613 612 2850 
Q 444 3088 444 3419 
Q 444 3919 803 4259 
Q 1163 4600 1759 4600 
Q 2359 4600 2725 4251 
Q 3091 3903 3091 3403 
Q 3091 3084 2923 2848 
Q 2756 2613 2416 2484 
Q 2838 2347 3058 2040 
Q 3278 1734 3278 1309 
Q 3278 722 2862 322 
Q 2447 -78 1769 -78 
Q 1091 -78 675 323 
Q 259 725 259 1325 
Q 259 1772 486 2073 
Q 713 2375 1131 2484 
z
M 1019 3438 
Q 1019 3113 1228 2906 
Q 1438 2700 1772 2700 
Q 2097 2700 2305 2904 
Q 2513 3109 2513 3406 
Q 2513 3716 2298 3927 
Q 2084 4138 1766 4138 
Q 1444 4138 1231 3931 
Q 1019 3725 1019 3438 
z
M 838 1322 
Q 838 1081 952 856 
Q 1066 631 1291 507 
Q 1516 384 1775 384 
Q 2178 384 2440 643 
Q 2703 903 2703 1303 
Q 2703 1709 2433 1975 
Q 2163 2241 1756 2241 
Q 1359 2241 1098 1978 
Q 838 1716 838 1322 
z
" transform="scale(0.015625)"/>
       </defs>
       <use xlink:href="#ArialMT-31"/>
       <use xlink:href="#ArialMT-39" x="55.615234"/>
       <use xlink:href="#ArialMT-38" x="111.230469"/>
       <use xlink:href="#ArialMT-30" x="166.845703"/>
      </g>
     </g>
    </g>
    <g id="xtick_3">
     <g id="text_3">
      <!-- 1990 -->
      <g style="fill: #262626" transform="translate(186.478571 331.877812) scale(0.1 -0.1)">
       <use xlink:href="#ArialMT-31"/>
       <use xlink:href="#ArialMT-39" x="55.615234"/>
       <use xlink:href="#ArialMT-39" x="111.230469"/>
       <use xlink:href="#ArialMT-30" x="166.845703"/>
      </g>
     </g>
    </g>
    <g id="xtick_4">
     <g id="text_4">
      <!-- 2000 -->
      <g style="fill: #262626" transform="translate(257.277885 331.877812) scale(0.1 -0.1)">
       <defs>
        <path id="ArialMT-32" d="M 3222 541 
L 3222 0 
L 194 0 
Q 188 203 259 391 
Q 375 700 629 1000 
Q 884 1300 1366 1694 
Q 2113 2306 2375 2664 
Q 2638 3022 2638 3341 
Q 2638 3675 2398 3904 
Q 2159 4134 1775 4134 
Q 1369 4134 1125 3890 
Q 881 3647 878 3216 
L 300 3275 
Q 359 3922 746 4261 
Q 1134 4600 1788 4600 
Q 2447 4600 2831 4234 
Q 3216 3869 3216 3328 
Q 3216 3053 3103 2787 
Q 2991 2522 2730 2228 
Q 2469 1934 1863 1422 
Q 1356 997 1212 845 
Q 1069 694 975 541 
L 3222 541 
z
" transform="scale(0.015625)"/>
       </defs>
       <use xlink:href="#ArialMT-32"/>
       <use xlink:href="#ArialMT-30" x="55.615234"/>
       <use xlink:href="#ArialMT-30" x="111.230469"/>
       <use xlink:href="#ArialMT-30" x="166.845703"/>
      </g>
     </g>
    </g>
    <g id="xtick_5">
     <g id="text_5">
      <!-- 2010 -->
      <g style="fill: #262626" transform="translate(328.077199 331.877812) scale(0.1 -0.1)">
       <use xlink:href="#ArialMT-32"/>
       <use xlink:href="#ArialMT-30" x="55.615234"/>
       <use xlink:href="#ArialMT-31" x="111.230469"/>
       <use xlink:href="#ArialMT-30" x="166.845703"/>
      </g>
     </g>
    </g>
    <g id="xtick_6">
     <g id="text_6">
      <!-- 2020 -->
      <g style="fill: #262626" transform="translate(398.876513 331.877812) scale(0.1 -0.1)">
       <use xlink:href="#ArialMT-32"/>
       <use xlink:href="#ArialMT-30" x="55.615234"/>
       <use xlink:href="#ArialMT-32" x="111.230469"/>
       <use xlink:href="#ArialMT-30" x="166.845703"/>
      </g>
     </g>
    </g>
   </g>
   <g id="matplotlib.axis_2">
    <g id="ytick_1">
     <g id="text_7">
      <!-- 5.75 -->
      <g style="fill: #262626" transform="translate(10.779063 298.452333) scale(0.1 -0.1)">
       <defs>
        <path id="ArialMT-35" d="M 266 1200 
L 856 1250 
Q 922 819 1161 601 
Q 1400 384 1738 384 
Q 2144 384 2425 690 
Q 2706 997 2706 1503 
Q 2706 1984 2436 2262 
Q 2166 2541 1728 2541 
Q 1456 2541 1237 2417 
Q 1019 2294 894 2097 
L 366 2166 
L 809 4519 
L 3088 4519 
L 3088 3981 
L 1259 3981 
L 1013 2750 
Q 1425 3038 1878 3038 
Q 2478 3038 2890 2622 
Q 3303 2206 3303 1553 
Q 3303 931 2941 478 
Q 2500 -78 1738 -78 
Q 1113 -78 717 272 
Q 322 622 266 1200 
z
" transform="scale(0.015625)"/>
        <path id="ArialMT-2e" d="M 581 0 
L 581 641 
L 1222 641 
L 1222 0 
L 581 0 
z
" transform="scale(0.015625)"/>
       </defs>
       <use xlink:href="#ArialMT-35"/>
       <use xlink:href="#ArialMT-2e" x="55.615234"/>
       <use xlink:href="#ArialMT-37" x="83.398438"/>
       <use xlink:href="#ArialMT-35" x="139.013672"/>
      </g>
     </g>
    </g>
    <g id="ytick_2">
     <g id="text_8">
      <!-- 6.00 -->
      <g style="fill: #262626" transform="translate(10.779063 264.090177) scale(0.1 -0.1)">
       <defs>
        <path id="ArialMT-36" d="M 3184 3459 
L 2625 3416 
Q 2550 3747 2413 3897 
Q 2184 4138 1850 4138 
Q 1581 4138 1378 3988 
Q 1113 3794 959 3422 
Q 806 3050 800 2363 
Q 1003 2672 1297 2822 
Q 1591 2972 1913 2972 
Q 2475 2972 2870 2558 
Q 3266 2144 3266 1488 
Q 3266 1056 3080 686 
Q 2894 316 2569 119 
Q 2244 -78 1831 -78 
Q 1128 -78 684 439 
Q 241 956 241 2144 
Q 241 3472 731 4075 
Q 1159 4600 1884 4600 
Q 2425 4600 2770 4297 
Q 3116 3994 3184 3459 
z
M 888 1484 
Q 888 1194 1011 928 
Q 1134 663 1356 523 
Q 1578 384 1822 384 
Q 2178 384 2434 671 
Q 2691 959 2691 1453 
Q 2691 1928 2437 2201 
Q 2184 2475 1800 2475 
Q 1419 2475 1153 2201 
Q 888 1928 888 1484 
z
" transform="scale(0.015625)"/>
       </defs>
       <use xlink:href="#ArialMT-36"/>
       <use xlink:href="#ArialMT-2e" x="55.615234"/>
       <use xlink:href="#ArialMT-30" x="83.398438"/>
       <use xlink:href="#ArialMT-30" x="139.013672"/>
      </g>
     </g>
    </g>
    <g id="ytick_3">
     <g id="text_9">
      <!-- 6.25 -->
      <g style="fill: #262626" transform="translate(10.779063 229.72802) scale(0.1 -0.1)">
       <use xlink:href="#ArialMT-36"/>
       <use xlink:href="#ArialMT-2e" x="55.615234"/>
       <use xlink:href="#ArialMT-32" x="83.398438"/>
       <use xlink:href="#ArialMT-35" x="139.013672"/>
      </g>
     </g>
    </g>
    <g id="ytick_4">
     <g id="text_10">
      <!-- 6.50 -->
      <g style="fill: #262626" transform="translate(10.779063 195.365864) scale(0.1 -0.1)">
       <use xlink:href="#ArialMT-36"/>
       <use xlink:href="#ArialMT-2e" x="55.615234"/>
       <use xlink:href="#ArialMT-35" x="83.398438"/>
       <use xlink:href="#ArialMT-30" x="139.013672"/>
      </g>
     </g>
    </g>
    <g id="ytick_5">
     <g id="text_11">
      <!-- 6.75 -->
      <g style="fill: #262626" transform="translate(10.779063 161.003708) scale(0.1 -0.1)">
       <use xlink:href="#ArialMT-36"/>
       <use xlink:href="#ArialMT-2e" x="55.615234"/>
       <use xlink:href="#ArialMT-37" x="83.398438"/>
       <use xlink:href="#ArialMT-35" x="139.013672"/>
      </g>
     </g>
    </g>
    <g id="ytick_6">
     <g id="text_12">
      <!-- 7.00 -->
      <g style="fill: #262626" transform="translate(10.779063 126.641551) scale(0.1 -0.1)">
       <use xlink:href="#ArialMT-37"/>
       <use xlink:href="#ArialMT-2e" x="55.615234"/>
       <use xlink:href="#ArialMT-30" x="83.398438"/>
       <use xlink:href="#ArialMT-30" x="139.013672"/>
      </g>
     </g>
    </g>
    <g id="ytick_7">
     <g id="text_13">
      <!-- 7.25 -->
      <g style="fill: #262626" transform="translate(10.779063 92.279395) scale(0.1 -0.1)">
       <use xlink:href="#ArialMT-37"/>
       <use xlink:href="#ArialMT-2e" x="55.615234"/>
       <use xlink:href="#ArialMT-32" x="83.398438"/>
       <use xlink:href="#ArialMT-35" x="139.013672"/>
      </g>
     </g>
    </g>
    <g id="ytick_8">
     <g id="text_14">
      <!-- 7.50 -->
      <g style="fill: #262626" transform="translate(10.779063 57.917238) scale(0.1 -0.1)">
       <use xlink:href="#ArialMT-37"/>
       <use xlink:href="#ArialMT-2e" x="55.615234"/>
       <use xlink:href="#ArialMT-35" x="83.398438"/>
       <use xlink:href="#ArialMT-30" x="139.013672"/>
      </g>
     </g>
    </g>
   </g>
   <g id="PathCollection_1">
    <path d="M 56.001818 284.587148 
C 56.070812 284.587148 56.136989 284.559736 56.185775 284.51095 
C 56.234561 284.462165 56.261972 284.395987 56.261972 284.326994 
C 56.261972 284.258 56.234561 284.191823 56.185775 284.143037 
C 56.136989 284.094252 56.070812 284.06684 56.001818 284.06684 
C 55.932825 284.06684 55.866648 284.094252 55.817862 284.143037 
C 55.769076 284.191823 55.741664 284.258 55.741664 284.326994 
C 55.741664 284.395987 55.769076 284.462165 55.817862 284.51095 
C 55.866648 284.559736 55.932825 284.587148 56.001818 284.587148 
z
" clip-path="url(#p0eda5ab3bb)" style="fill: #800080; fill-opacity: 0.8; stroke: #800080; stroke-opacity: 0.8"/>
    <path d="M 63.08175 304.944714 
C 63.21637 304.944714 63.345495 304.891229 63.440685 304.796038 
C 63.535876 304.700847 63.589362 304.571723 63.589362 304.437102 
C 63.589362 304.302482 63.535876 304.173357 63.440685 304.078166 
C 63.345495 303.982975 63.21637 303.92949 63.08175 303.92949 
C 62.947129 303.92949 62.818005 303.982975 62.722814 304.078166 
C 62.627623 304.173357 62.574138 304.302482 62.574138 304.437102 
C 62.574138 304.571723 62.627623 304.700847 62.722814 304.796038 
C 62.818005 304.891229 62.947129 304.944714 63.08175 304.944714 
z
" clip-path="url(#p0eda5ab3bb)" style="fill: #800080; fill-opacity: 0.8; stroke: #800080; stroke-opacity: 0.8"/>
    <path d="M 70.161681 264.302342 
C 70.256154 264.302342 70.346771 264.264807 70.413574 264.198004 
C 70.480377 264.131202 70.517911 264.040585 70.517911 263.946112 
C 70.517911 263.851638 70.480377 263.761022 70.413574 263.694219 
C 70.346771 263.627416 70.256154 263.589881 70.161681 263.589881 
C 70.067208 263.589881 69.976591 263.627416 69.909788 263.694219 
C 69.842985 263.761022 69.805451 263.851638 69.805451 263.946112 
C 69.805451 264.040585 69.842985 264.131202 69.909788 264.198004 
C 69.976591 264.264807 70.067208 264.302342 70.161681 264.302342 
z
" clip-path="url(#p0eda5ab3bb)" style="fill: #800080; fill-opacity: 0.8; stroke: #800080; stroke-opacity: 0.8"/>
    <path d="M 77.241612 249.943978 
C 77.337416 249.943978 77.429309 249.905915 77.497053 249.838171 
C 77.564797 249.770427 77.60286 249.678534 77.60286 249.58273 
C 77.60286 249.486926 77.564797 249.395033 77.497053 249.327289 
C 77.429309 249.259546 77.337416 249.221482 77.241612 249.221482 
C 77.145808 249.221482 77.053915 249.259546 76.986172 249.327289 
C 76.918428 249.395033 76.880365 249.486926 76.880365 249.58273 
C 76.880365 249.678534 76.918428 249.770427 76.986172 249.838171 
C 77.053915 249.905915 77.145808 249.943978 77.241612 249.943978 
z
" clip-path="url(#p0eda5ab3bb)" style="fill: #800080; fill-opacity: 0.8; stroke: #800080; stroke-opacity: 0.8"/>
    <path d="M 84.321544 257.146326 
C 84.439229 257.146326 84.552111 257.099569 84.635327 257.016352 
C 84.718543 256.933136 84.7653 256.820255 84.7653 256.702569 
C 84.7653 256.584883 84.718543 256.472002 84.635327 256.388786 
C 84.552111 256.305569 84.439229 256.258812 84.321544 256.258812 
C 84.203858 256.258812 84.090977 256.305569 84.00776 256.388786 
C 83.924544 256.472002 83.877787 256.584883 83.877787 256.702569 
C 83.877787 256.820255 83.924544 256.933136 84.00776 257.016352 
C 84.090977 257.099569 84.203858 257.146326 84.321544 257.146326 
z
" clip-path="url(#p0eda5ab3bb)" style="fill: #800080; fill-opacity: 0.8; stroke: #800080; stroke-opacity: 0.8"/>
    <path d="M 91.401475 277.162882 
C 91.510389 277.162882 91.614857 277.11961 91.691871 277.042596 
C 91.768885 276.965582 91.812157 276.861114 91.812157 276.7522 
C 91.812157 276.643286 91.768885 276.538818 91.691871 276.461804 
C 91.614857 276.38479 91.510389 276.341518 91.401475 276.341518 
C 91.292561 276.341518 91.188093 276.38479 91.111079 276.461804 
C 91.034065 276.538818 90.990793 276.643286 90.990793 276.7522 
C 90.990793 276.861114 91.034065 276.965582 91.111079 277.042596 
C 91.188093 277.11961 91.292561 277.162882 91.401475 277.162882 
z
" clip-path="url(#p0eda5ab3bb)" style="fill: #800080; fill-opacity: 0.8; stroke: #800080; stroke-opacity: 0.8"/>
    <path d="M 98.481407 230.037768 
C 98.560569 230.037768 98.636499 230.006317 98.692475 229.950341 
C 98.748451 229.894365 98.779903 229.818434 98.779903 229.739272 
C 98.779903 229.66011 98.748451 229.58418 98.692475 229.528204 
C 98.636499 229.472227 98.560569 229.440776 98.481407 229.440776 
C 98.402244 229.440776 98.326314 229.472227 98.270338 229.528204 
C 98.214362 229.58418 98.18291 229.66011 98.18291 229.739272 
C 98.18291 229.818434 98.214362 229.894365 98.270338 229.950341 
C 98.326314 230.006317 98.402244 230.037768 98.481407 230.037768 
z
" clip-path="url(#p0eda5ab3bb)" style="fill: #800080; fill-opacity: 0.8; stroke: #800080; stroke-opacity: 0.8"/>
    <path d="M 105.561338 208.197031 
C 105.715551 208.197031 105.863468 208.135762 105.972513 208.026717 
C 106.081558 207.917672 106.142827 207.769754 106.142827 207.615541 
C 106.142827 207.461329 106.081558 207.313411 105.972513 207.204366 
C 105.863468 207.095321 105.715551 207.034052 105.561338 207.034052 
C 105.407125 207.034052 105.259208 207.095321 105.150163 207.204366 
C 105.041118 207.313411 104.979848 207.461329 104.979848 207.615541 
C 104.979848 207.769754 105.041118 207.917672 105.150163 208.026717 
C 105.259208 208.135762 105.407125 208.197031 105.561338 208.197031 
z
" clip-path="url(#p0eda5ab3bb)" style="fill: #800080; fill-opacity: 0.8; stroke: #800080; stroke-opacity: 0.8"/>
    <path d="M 112.641269 273.415383 
C 112.738711 273.415383 112.832175 273.376669 112.901077 273.307767 
C 112.969979 273.238865 113.008693 273.145401 113.008693 273.04796 
C 113.008693 272.950518 112.969979 272.857054 112.901077 272.788152 
C 112.832175 272.71925 112.738711 272.680536 112.641269 272.680536 
C 112.543827 272.680536 112.450363 272.71925 112.381462 272.788152 
C 112.31256 272.857054 112.273846 272.950518 112.273846 273.04796 
C 112.273846 273.145401 112.31256 273.238865 112.381462 273.307767 
C 112.450363 273.376669 112.543827 273.415383 112.641269 273.415383 
z
" clip-path="url(#p0eda5ab3bb)" style="fill: #800080; fill-opacity: 0.8; stroke: #800080; stroke-opacity: 0.8"/>
    <path d="M 119.721201 214.64435 
C 119.86656 214.64435 120.005985 214.586598 120.10877 214.483813 
C 120.211555 214.381029 120.269307 214.241604 120.269307 214.096244 
C 120.269307 213.950885 120.211555 213.811459 120.10877 213.708675 
C 120.005985 213.60589 119.86656 213.548138 119.721201 213.548138 
C 119.575841 213.548138 119.436416 213.60589 119.333631 213.708675 
C 119.230847 213.811459 119.173095 213.950885 119.173095 214.096244 
C 119.173095 214.241604 119.230847 214.381029 119.333631 214.483813 
C 119.436416 214.586598 119.575841 214.64435 119.721201 214.64435 
z
" clip-path="url(#p0eda5ab3bb)" style="fill: #800080; fill-opacity: 0.8; stroke: #800080; stroke-opacity: 0.8"/>
    <path d="M 126.801132 163.894499 
C 126.942563 163.894499 127.07822 163.838308 127.178226 163.738302 
C 127.278233 163.638295 127.334424 163.502638 127.334424 163.361207 
C 127.334424 163.219777 127.278233 163.08412 127.178226 162.984113 
C 127.07822 162.884107 126.942563 162.827916 126.801132 162.827916 
C 126.659701 162.827916 126.524044 162.884107 126.424038 162.984113 
C 126.324031 163.08412 126.26784 163.219777 126.26784 163.361207 
C 126.26784 163.502638 126.324031 163.638295 126.424038 163.738302 
C 126.524044 163.838308 126.659701 163.894499 126.801132 163.894499 
z
" clip-path="url(#p0eda5ab3bb)" style="fill: #800080; fill-opacity: 0.8; stroke: #800080; stroke-opacity: 0.8"/>
    <path d="M 133.881063 234.317505 
C 134.023542 234.317505 134.160204 234.260897 134.260952 234.16015 
C 134.361699 234.059402 134.418306 233.92274 134.418306 233.780262 
C 134.418306 233.637783 134.361699 233.501121 134.260952 233.400374 
C 134.160204 233.299626 134.023542 233.243019 133.881063 233.243019 
C 133.738585 233.243019 133.601923 233.299626 133.501175 233.400374 
C 133.400428 233.501121 133.343821 233.637783 133.343821 233.780262 
C 133.343821 233.92274 133.400428 234.059402 133.501175 234.16015 
C 133.601923 234.260897 133.738585 234.317505 133.881063 234.317505 
z
" clip-path="url(#p0eda5ab3bb)" style="fill: #800080; fill-opacity: 0.8; stroke: #800080; stroke-opacity: 0.8"/>
    <path d="M 140.960995 169.568509 
C 141.154951 169.568509 141.340989 169.491449 141.478136 169.354302 
C 141.615283 169.217154 141.692343 169.031116 141.692343 168.837161 
C 141.692343 168.643205 141.615283 168.457167 141.478136 168.32002 
C 141.340989 168.182872 141.154951 168.105813 140.960995 168.105813 
C 140.767039 168.105813 140.581001 168.182872 140.443854 168.32002 
C 140.306706 168.457167 140.229647 168.643205 140.229647 168.837161 
C 140.229647 169.031116 140.306706 169.217154 140.443854 169.354302 
C 140.581001 169.491449 140.767039 169.568509 140.960995 169.568509 
z
" clip-path="url(#p0eda5ab3bb)" style="fill: #800080; fill-opacity: 0.8; stroke: #800080; stroke-opacity: 0.8"/>
    <path d="M 148.040926 225.700373 
C 148.209888 225.700373 148.371952 225.633244 148.491426 225.51377 
C 148.6109 225.394296 148.678029 225.232232 148.678029 225.06327 
C 148.678029 224.894308 148.6109 224.732244 148.491426 224.61277 
C 148.371952 224.493296 148.209888 224.426167 148.040926 224.426167 
C 147.871965 224.426167 147.7099 224.493296 147.590427 224.61277 
C 147.470953 224.732244 147.403823 224.894308 147.403823 225.06327 
C 147.403823 225.232232 147.470953 225.394296 147.590427 225.51377 
C 147.7099 225.633244 147.871965 225.700373 148.040926 225.700373 
z
" clip-path="url(#p0eda5ab3bb)" style="fill: #800080; fill-opacity: 0.8; stroke: #800080; stroke-opacity: 0.8"/>
    <path d="M 155.120858 206.915528 
C 155.243959 206.915528 155.362034 206.86662 155.44908 206.779574 
C 155.536126 206.692528 155.585034 206.574453 155.585034 206.451352 
C 155.585034 206.32825 155.536126 206.210175 155.44908 206.123129 
C 155.362034 206.036083 155.243959 205.987175 155.120858 205.987175 
C 154.997757 205.987175 154.879681 206.036083 154.792635 206.123129 
C 154.70559 206.210175 154.656681 206.32825 154.656681 206.451352 
C 154.656681 206.574453 154.70559 206.692528 154.792635 206.779574 
C 154.879681 206.86662 154.997757 206.915528 155.120858 206.915528 
z
" clip-path="url(#p0eda5ab3bb)" style="fill: #800080; fill-opacity: 0.8; stroke: #800080; stroke-opacity: 0.8"/>
    <path d="M 162.200789 198.313953 
C 162.339918 198.313953 162.473368 198.258677 162.571747 198.160297 
C 162.670127 198.061918 162.725403 197.928468 162.725403 197.789339 
C 162.725403 197.65021 162.670127 197.51676 162.571747 197.418381 
C 162.473368 197.320002 162.339918 197.264725 162.200789 197.264725 
C 162.06166 197.264725 161.92821 197.320002 161.829831 197.418381 
C 161.731452 197.51676 161.676175 197.65021 161.676175 197.789339 
C 161.676175 197.928468 161.731452 198.061918 161.829831 198.160297 
C 161.92821 198.258677 162.06166 198.313953 162.200789 198.313953 
z
" clip-path="url(#p0eda5ab3bb)" style="fill: #800080; fill-opacity: 0.8; stroke: #800080; stroke-opacity: 0.8"/>
    <path d="M 169.28072 180.830782 
C 169.454557 180.830782 169.621297 180.761716 169.744218 180.638795 
C 169.867139 180.515874 169.936205 180.349134 169.936205 180.175298 
C 169.936205 180.001461 169.867139 179.834721 169.744218 179.7118 
C 169.621297 179.588879 169.454557 179.519813 169.28072 179.519813 
C 169.106884 179.519813 168.940144 179.588879 168.817223 179.7118 
C 168.694302 179.834721 168.625236 180.001461 168.625236 180.175298 
C 168.625236 180.349134 168.694302 180.515874 168.817223 180.638795 
C 168.940144 180.761716 169.106884 180.830782 169.28072 180.830782 
z
" clip-path="url(#p0eda5ab3bb)" style="fill: #800080; fill-opacity: 0.8; stroke: #800080; stroke-opacity: 0.8"/>
    <path d="M 176.360652 223.587555 
C 176.496745 223.587555 176.627283 223.533485 176.723515 223.437252 
C 176.819748 223.341019 176.873818 223.210482 176.873818 223.074388 
C 176.873818 222.938295 176.819748 222.807757 176.723515 222.711525 
C 176.627283 222.615292 176.496745 222.561222 176.360652 222.561222 
C 176.224558 222.561222 176.094021 222.615292 175.997788 222.711525 
C 175.901556 222.807757 175.847485 222.938295 175.847485 223.074388 
C 175.847485 223.210482 175.901556 223.341019 175.997788 223.437252 
C 176.094021 223.533485 176.224558 223.587555 176.360652 223.587555 
z
" clip-path="url(#p0eda5ab3bb)" style="fill: #800080; fill-opacity: 0.8; stroke: #800080; stroke-opacity: 0.8"/>
    <path d="M 183.440583 223.136904 
C 183.597502 223.136904 183.748015 223.074559 183.858973 222.963601 
C 183.969931 222.852643 184.032276 222.70213 184.032276 222.545211 
C 184.032276 222.388292 183.969931 222.23778 183.858973 222.126821 
C 183.748015 222.015863 183.597502 221.953519 183.440583 221.953519 
C 183.283665 221.953519 183.133152 222.015863 183.022193 222.126821 
C 182.911235 222.23778 182.848891 222.388292 182.848891 222.545211 
C 182.848891 222.70213 182.911235 222.852643 183.022193 222.963601 
C 183.133152 223.074559 183.283665 223.136904 183.440583 223.136904 
z
" clip-path="url(#p0eda5ab3bb)" style="fill: #800080; fill-opacity: 0.8; stroke: #800080; stroke-opacity: 0.8"/>
    <path d="M 190.520515 198.718881 
C 190.685015 198.718881 190.842801 198.653524 190.95912 198.537204 
C 191.07544 198.420885 191.140797 198.263099 191.140797 198.098599 
C 191.140797 197.934098 191.07544 197.776312 190.95912 197.659993 
C 190.842801 197.543673 190.685015 197.478316 190.520515 197.478316 
C 190.356014 197.478316 190.198228 197.543673 190.081909 197.659993 
C 189.965589 197.776312 189.900232 197.934098 189.900232 198.098599 
C 189.900232 198.263099 189.965589 198.420885 190.081909 198.537204 
C 190.198228 198.653524 190.356014 198.718881 190.520515 198.718881 
z
" clip-path="url(#p0eda5ab3bb)" style="fill: #800080; fill-opacity: 0.8; stroke: #800080; stroke-opacity: 0.8"/>
    <path d="M 197.600446 218.219881 
C 197.745936 218.219881 197.885487 218.162077 197.988363 218.0592 
C 198.09124 217.956323 198.149044 217.816773 198.149044 217.671283 
C 198.149044 217.525793 198.09124 217.386242 197.988363 217.283365 
C 197.885487 217.180488 197.745936 217.122685 197.600446 217.122685 
C 197.454956 217.122685 197.315405 217.180488 197.212528 217.283365 
C 197.109652 217.386242 197.051848 217.525793 197.051848 217.671283 
C 197.051848 217.816773 197.109652 217.956323 197.212528 218.0592 
C 197.315405 218.162077 197.454956 218.219881 197.600446 218.219881 
z
" clip-path="url(#p0eda5ab3bb)" style="fill: #800080; fill-opacity: 0.8; stroke: #800080; stroke-opacity: 0.8"/>
    <path d="M 204.680377 186.307752 
C 204.848287 186.307752 205.009342 186.241041 205.128071 186.122311 
C 205.246801 186.003582 205.313512 185.842527 205.313512 185.674617 
C 205.313512 185.506708 205.246801 185.345653 205.128071 185.226923 
C 205.009342 185.108193 204.848287 185.041482 204.680377 185.041482 
C 204.512468 185.041482 204.351413 185.108193 204.232683 185.226923 
C 204.113953 185.345653 204.047242 185.506708 204.047242 185.674617 
C 204.047242 185.842527 204.113953 186.003582 204.232683 186.122311 
C 204.351413 186.241041 204.512468 186.307752 204.680377 186.307752 
z
" clip-path="url(#p0eda5ab3bb)" style="fill: #800080; fill-opacity: 0.8; stroke: #800080; stroke-opacity: 0.8"/>
    <path d="M 211.760309 174.419615 
C 211.949306 174.419615 212.130587 174.344526 212.264228 174.210885 
C 212.397869 174.077244 212.472959 173.895962 212.472959 173.706966 
C 212.472959 173.517969 212.397869 173.336687 212.264228 173.203046 
C 212.130587 173.069405 211.949306 172.994316 211.760309 172.994316 
C 211.571312 172.994316 211.39003 173.069405 211.256389 173.203046 
C 211.122748 173.336687 211.047659 173.517969 211.047659 173.706966 
C 211.047659 173.895962 211.122748 174.077244 211.256389 174.210885 
C 211.39003 174.344526 211.571312 174.419615 211.760309 174.419615 
z
" clip-path="url(#p0eda5ab3bb)" style="fill: #800080; fill-opacity: 0.8; stroke: #800080; stroke-opacity: 0.8"/>
    <path d="M 218.84024 158.210183 
C 219.039413 158.210183 219.230455 158.131051 219.371291 157.990214 
C 219.512127 157.849378 219.591259 157.658336 219.591259 157.459163 
C 219.591259 157.259991 219.512127 157.068949 219.371291 156.928113 
C 219.230455 156.787276 219.039413 156.708144 218.84024 156.708144 
C 218.641067 156.708144 218.450026 156.787276 218.309189 156.928113 
C 218.168353 157.068949 218.089221 157.259991 218.089221 157.459163 
C 218.089221 157.658336 218.168353 157.849378 218.309189 157.990214 
C 218.450026 158.131051 218.641067 158.210183 218.84024 158.210183 
z
" clip-path="url(#p0eda5ab3bb)" style="fill: #800080; fill-opacity: 0.8; stroke: #800080; stroke-opacity: 0.8"/>
    <path d="M 225.920172 172.39953 
C 226.136981 172.39953 226.344939 172.313391 226.498246 172.160084 
C 226.651553 172.006777 226.737692 171.798819 226.737692 171.58201 
C 226.737692 171.365201 226.651553 171.157242 226.498246 171.003935 
C 226.344939 170.850628 226.136981 170.764489 225.920172 170.764489 
C 225.703363 170.764489 225.495404 170.850628 225.342097 171.003935 
C 225.18879 171.157242 225.102651 171.365201 225.102651 171.58201 
C 225.102651 171.798819 225.18879 172.006777 225.342097 172.160084 
C 225.495404 172.313391 225.703363 172.39953 225.920172 172.39953 
z
" clip-path="url(#p0eda5ab3bb)" style="fill: #800080; fill-opacity: 0.8; stroke: #800080; stroke-opacity: 0.8"/>
    <path d="M 233.000103 129.522448 
C 233.321533 129.522448 233.629841 129.394743 233.857127 129.167457 
C 234.084412 128.940172 234.212118 128.631864 234.212118 128.310433 
C 234.212118 127.989003 234.084412 127.680695 233.857127 127.45341 
C 233.629841 127.226124 233.321533 127.098419 233.000103 127.098419 
C 232.678673 127.098419 232.370364 127.226124 232.143079 127.45341 
C 231.915794 127.680695 231.788088 127.989003 231.788088 128.310433 
C 231.788088 128.631864 231.915794 128.940172 232.143079 129.167457 
C 232.370364 129.394743 232.678673 129.522448 233.000103 129.522448 
z
" clip-path="url(#p0eda5ab3bb)" style="fill: #800080; fill-opacity: 0.8; stroke: #800080; stroke-opacity: 0.8"/>
    <path d="M 240.080034 215.232929 
C 240.277964 215.232929 240.467813 215.154291 240.60777 215.014334 
C 240.747727 214.874377 240.826365 214.684528 240.826365 214.486598 
C 240.826365 214.288669 240.747727 214.09882 240.60777 213.958863 
C 240.467813 213.818905 240.277964 213.740267 240.080034 213.740267 
C 239.882105 213.740267 239.692256 213.818905 239.552299 213.958863 
C 239.412341 214.09882 239.333703 214.288669 239.333703 214.486598 
C 239.333703 214.684528 239.412341 214.874377 239.552299 215.014334 
C 239.692256 215.154291 239.882105 215.232929 240.080034 215.232929 
z
" clip-path="url(#p0eda5ab3bb)" style="fill: #800080; fill-opacity: 0.8; stroke: #800080; stroke-opacity: 0.8"/>
    <path d="M 247.159966 163.379054 
C 247.460323 163.379054 247.748418 163.259721 247.960803 163.047336 
C 248.173187 162.834952 248.29252 162.546856 248.29252 162.246499 
C 248.29252 161.946142 248.173187 161.658047 247.960803 161.445662 
C 247.748418 161.233278 247.460323 161.113944 247.159966 161.113944 
C 246.859609 161.113944 246.571513 161.233278 246.359129 161.445662 
C 246.146744 161.658047 246.027411 161.946142 246.027411 162.246499 
C 246.027411 162.546856 246.146744 162.834952 246.359129 163.047336 
C 246.571513 163.259721 246.859609 163.379054 247.159966 163.379054 
z
" clip-path="url(#p0eda5ab3bb)" style="fill: #800080; fill-opacity: 0.8; stroke: #800080; stroke-opacity: 0.8"/>
    <path d="M 254.239897 192.583442 
C 254.490495 192.583442 254.730863 192.483878 254.908062 192.306679 
C 255.085262 192.129479 255.184826 191.889111 255.184826 191.638513 
C 255.184826 191.387915 255.085262 191.147547 254.908062 190.970348 
C 254.730863 190.793148 254.490495 190.693585 254.239897 190.693585 
C 253.989299 190.693585 253.748931 190.793148 253.571732 190.970348 
C 253.394532 191.147547 253.294969 191.387915 253.294969 191.638513 
C 253.294969 191.889111 253.394532 192.129479 253.571732 192.306679 
C 253.748931 192.483878 253.989299 192.583442 254.239897 192.583442 
z
" clip-path="url(#p0eda5ab3bb)" style="fill: #800080; fill-opacity: 0.8; stroke: #800080; stroke-opacity: 0.8"/>
    <path d="M 261.319828 146.640556 
C 261.648252 146.640556 261.963269 146.510072 262.1955 146.277841 
C 262.42773 146.045611 262.558215 145.730594 262.558215 145.40217 
C 262.558215 145.073746 262.42773 144.75873 262.1955 144.526499 
C 261.963269 144.294268 261.648252 144.163784 261.319828 144.163784 
C 260.991405 144.163784 260.676388 144.294268 260.444157 144.526499 
C 260.211927 144.75873 260.081442 145.073746 260.081442 145.40217 
C 260.081442 145.730594 260.211927 146.045611 260.444157 146.277841 
C 260.676388 146.510072 260.991405 146.640556 261.319828 146.640556 
z
" clip-path="url(#p0eda5ab3bb)" style="fill: #800080; fill-opacity: 0.8; stroke: #800080; stroke-opacity: 0.8"/>
    <path d="M 268.39976 132.084305 
C 268.784567 132.084305 269.153665 131.931419 269.425764 131.65932 
C 269.697864 131.38722 269.850749 131.018122 269.850749 130.633315 
C 269.850749 130.248508 269.697864 129.87941 269.425764 129.607311 
C 269.153665 129.335211 268.784567 129.182326 268.39976 129.182326 
C 268.014953 129.182326 267.645855 129.335211 267.373755 129.607311 
C 267.101656 129.87941 266.948771 130.248508 266.948771 130.633315 
C 266.948771 131.018122 267.101656 131.38722 267.373755 131.65932 
C 267.645855 131.931419 268.014953 132.084305 268.39976 132.084305 
z
" clip-path="url(#p0eda5ab3bb)" style="fill: #800080; fill-opacity: 0.8; stroke: #800080; stroke-opacity: 0.8"/>
    <path d="M 275.479691 205.997489 
C 275.800757 205.997489 276.108716 205.869928 276.335743 205.642901 
C 276.562771 205.415873 276.690332 205.107914 276.690332 204.786849 
C 276.690332 204.465783 276.562771 204.157824 276.335743 203.930797 
C 276.108716 203.703769 275.800757 203.576208 275.479691 203.576208 
C 275.158626 203.576208 274.850667 203.703769 274.623639 203.930797 
C 274.396612 204.157824 274.269051 204.465783 274.269051 204.786849 
C 274.269051 205.107914 274.396612 205.415873 274.623639 205.642901 
C 274.850667 205.869928 275.158626 205.997489 275.479691 205.997489 
z
" clip-path="url(#p0eda5ab3bb)" style="fill: #800080; fill-opacity: 0.8; stroke: #800080; stroke-opacity: 0.8"/>
    <path d="M 282.559623 155.862228 
C 282.908159 155.862228 283.242468 155.723752 283.488921 155.4773 
C 283.735374 155.230847 283.873849 154.896538 283.873849 154.548002 
C 283.873849 154.199465 283.735374 153.865156 283.488921 153.618703 
C 283.242468 153.372251 282.908159 153.233776 282.559623 153.233776 
C 282.211086 153.233776 281.876777 153.372251 281.630325 153.618703 
C 281.383872 153.865156 281.245397 154.199465 281.245397 154.548002 
C 281.245397 154.896538 281.383872 155.230847 281.630325 155.4773 
C 281.876777 155.723752 282.211086 155.862228 282.559623 155.862228 
z
" clip-path="url(#p0eda5ab3bb)" style="fill: #800080; fill-opacity: 0.8; stroke: #800080; stroke-opacity: 0.8"/>
    <path d="M 289.639554 178.565311 
C 289.99192 178.565311 290.329901 178.425314 290.579062 178.176154 
C 290.828222 177.926994 290.968219 177.589012 290.968219 177.236646 
C 290.968219 176.88428 290.828222 176.546299 290.579062 176.297138 
C 290.329901 176.047978 289.99192 175.907981 289.639554 175.907981 
C 289.287188 175.907981 288.949207 176.047978 288.700046 176.297138 
C 288.450886 176.546299 288.310889 176.88428 288.310889 177.236646 
C 288.310889 177.589012 288.450886 177.926994 288.700046 178.176154 
C 288.949207 178.425314 289.287188 178.565311 289.639554 178.565311 
z
" clip-path="url(#p0eda5ab3bb)" style="fill: #800080; fill-opacity: 0.8; stroke: #800080; stroke-opacity: 0.8"/>
    <path d="M 296.719485 128.771145 
C 297.221495 128.771145 297.703012 128.571694 298.057986 128.21672 
C 298.412961 127.861745 298.612412 127.380229 298.612412 126.878219 
C 298.612412 126.376209 298.412961 125.894692 298.057986 125.539718 
C 297.703012 125.184743 297.221495 124.985292 296.719485 124.985292 
C 296.217475 124.985292 295.735959 125.184743 295.380984 125.539718 
C 295.02601 125.894692 294.826559 126.376209 294.826559 126.878219 
C 294.826559 127.380229 295.02601 127.861745 295.380984 128.21672 
C 295.735959 128.571694 296.217475 128.771145 296.719485 128.771145 
z
" clip-path="url(#p0eda5ab3bb)" style="fill: #800080; fill-opacity: 0.8; stroke: #800080; stroke-opacity: 0.8"/>
    <path d="M 303.799417 127.890394 
C 304.30916 127.890394 304.798093 127.687871 305.158536 127.327428 
C 305.518979 126.966985 305.721502 126.478052 305.721502 125.968309 
C 305.721502 125.458566 305.518979 124.969632 305.158536 124.60919 
C 304.798093 124.248747 304.30916 124.046224 303.799417 124.046224 
C 303.289674 124.046224 302.80074 124.248747 302.440298 124.60919 
C 302.079855 124.969632 301.877332 125.458566 301.877332 125.968309 
C 301.877332 126.478052 302.079855 126.966985 302.440298 127.327428 
C 302.80074 127.687871 303.289674 127.890394 303.799417 127.890394 
z
" clip-path="url(#p0eda5ab3bb)" style="fill: #800080; fill-opacity: 0.8; stroke: #800080; stroke-opacity: 0.8"/>
    <path d="M 310.879348 151.885005 
C 311.273958 151.885005 311.652458 151.728225 311.931489 151.449194 
C 312.21052 151.170163 312.3673 150.791662 312.3673 150.397053 
C 312.3673 150.002444 312.21052 149.623943 311.931489 149.344912 
C 311.652458 149.065881 311.273958 148.909101 310.879348 148.909101 
C 310.484739 148.909101 310.106238 149.065881 309.827208 149.344912 
C 309.548177 149.623943 309.391397 150.002444 309.391397 150.397053 
C 309.391397 150.791662 309.548177 151.170163 309.827208 151.449194 
C 310.106238 151.728225 310.484739 151.885005 310.879348 151.885005 
z
" clip-path="url(#p0eda5ab3bb)" style="fill: #800080; fill-opacity: 0.8; stroke: #800080; stroke-opacity: 0.8"/>
    <path d="M 317.95928 122.771064 
C 318.468096 122.771064 318.956142 122.568909 319.31593 122.209121 
C 319.675718 121.849333 319.877873 121.361288 319.877873 120.852471 
C 319.877873 120.343654 319.675718 119.855609 319.31593 119.495821 
C 318.956142 119.136033 318.468096 118.933878 317.95928 118.933878 
C 317.450463 118.933878 316.962417 119.136033 316.602629 119.495821 
C 316.242841 119.855609 316.040686 120.343654 316.040686 120.852471 
C 316.040686 121.361288 316.242841 121.849333 316.602629 122.209121 
C 316.962417 122.568909 317.450463 122.771064 317.95928 122.771064 
z
" clip-path="url(#p0eda5ab3bb)" style="fill: #800080; fill-opacity: 0.8; stroke: #800080; stroke-opacity: 0.8"/>
    <path d="M 325.039211 113.279614 
C 325.603269 113.279614 326.144301 113.055511 326.543151 112.656661 
C 326.942 112.257812 327.166103 111.71678 327.166103 111.152722 
C 327.166103 110.588663 326.942 110.047631 326.543151 109.648782 
C 326.144301 109.249932 325.603269 109.025829 325.039211 109.025829 
C 324.475153 109.025829 323.934121 109.249932 323.535271 109.648782 
C 323.136422 110.047631 322.912319 110.588663 322.912319 111.152722 
C 322.912319 111.71678 323.136422 112.257812 323.535271 112.656661 
C 323.934121 113.055511 324.475153 113.279614 325.039211 113.279614 
z
" clip-path="url(#p0eda5ab3bb)" style="fill: #800080; fill-opacity: 0.8; stroke: #800080; stroke-opacity: 0.8"/>
    <path d="M 332.119142 127.60237 
C 332.661127 127.60237 333.180986 127.387038 333.564227 127.003797 
C 333.947468 126.620556 334.162801 126.100697 334.162801 125.558712 
C 334.162801 125.016727 333.947468 124.496868 333.564227 124.113627 
C 333.180986 123.730386 332.661127 123.515053 332.119142 123.515053 
C 331.577158 123.515053 331.057299 123.730386 330.674058 124.113627 
C 330.290817 124.496868 330.075484 125.016727 330.075484 125.558712 
C 330.075484 126.100697 330.290817 126.620556 330.674058 127.003797 
C 331.057299 127.387038 331.577158 127.60237 332.119142 127.60237 
z
" clip-path="url(#p0eda5ab3bb)" style="fill: #800080; fill-opacity: 0.8; stroke: #800080; stroke-opacity: 0.8"/>
    <path d="M 339.199074 122.467153 
C 339.755238 122.467153 340.288699 122.246186 340.681966 121.852919 
C 341.075234 121.459651 341.2962 120.926191 341.2962 120.370026 
C 341.2962 119.813862 341.075234 119.280402 340.681966 118.887134 
C 340.288699 118.493866 339.755238 118.2729 339.199074 118.2729 
C 338.642909 118.2729 338.109449 118.493866 337.716181 118.887134 
C 337.322914 119.280402 337.101947 119.813862 337.101947 120.370026 
C 337.101947 120.926191 337.322914 121.459651 337.716181 121.852919 
C 338.109449 122.246186 338.642909 122.467153 339.199074 122.467153 
z
" clip-path="url(#p0eda5ab3bb)" style="fill: #800080; fill-opacity: 0.8; stroke: #800080; stroke-opacity: 0.8"/>
    <path d="M 346.279005 104.797902 
C 346.922957 104.797902 347.540622 104.542057 347.995965 104.086714 
C 348.451308 103.631371 348.707153 103.013707 348.707153 102.369754 
C 348.707153 101.725802 348.451308 101.108138 347.995965 100.652795 
C 347.540622 100.197452 346.922957 99.941607 346.279005 99.941607 
C 345.635053 99.941607 345.017389 100.197452 344.562046 100.652795 
C 344.106703 101.108138 343.850858 101.725802 343.850858 102.369754 
C 343.850858 103.013707 344.106703 103.631371 344.562046 104.086714 
C 345.017389 104.542057 345.635053 104.797902 346.279005 104.797902 
z
" clip-path="url(#p0eda5ab3bb)" style="fill: #800080; fill-opacity: 0.8; stroke: #800080; stroke-opacity: 0.8"/>
    <path d="M 353.358937 106.066416 
C 354.050604 106.066416 354.714036 105.791613 355.203119 105.30253 
C 355.692202 104.813447 355.967005 104.150015 355.967005 103.458347 
C 355.967005 102.76668 355.692202 102.103248 355.203119 101.614165 
C 354.714036 101.125082 354.050604 100.850279 353.358937 100.850279 
C 352.667269 100.850279 352.003837 101.125082 351.514754 101.614165 
C 351.025671 102.103248 350.750868 102.76668 350.750868 103.458347 
C 350.750868 104.150015 351.025671 104.813447 351.514754 105.30253 
C 352.003837 105.791613 352.667269 106.066416 353.358937 106.066416 
z
" clip-path="url(#p0eda5ab3bb)" style="fill: #800080; fill-opacity: 0.8; stroke: #800080; stroke-opacity: 0.8"/>
    <path d="M 360.438868 122.195567 
C 361.03783 122.195567 361.612341 121.957597 362.035871 121.534067 
C 362.459402 121.110536 362.697372 120.536025 362.697372 119.937063 
C 362.697372 119.338101 362.459402 118.76359 362.035871 118.34006 
C 361.612341 117.916529 361.03783 117.678559 360.438868 117.678559 
C 359.839906 117.678559 359.265395 117.916529 358.841864 118.34006 
C 358.418334 118.76359 358.180364 119.338101 358.180364 119.937063 
C 358.180364 120.536025 358.418334 121.110536 358.841864 121.534067 
C 359.265395 121.957597 359.839906 122.195567 360.438868 122.195567 
z
" clip-path="url(#p0eda5ab3bb)" style="fill: #800080; fill-opacity: 0.8; stroke: #800080; stroke-opacity: 0.8"/>
    <path d="M 367.518799 102.311828 
C 368.253251 102.311828 368.957719 102.020027 369.477055 101.500692 
C 369.99639 100.981356 370.288191 100.276887 370.288191 99.542436 
C 370.288191 98.807985 369.99639 98.103516 369.477055 97.584181 
C 368.957719 97.064845 368.253251 96.773044 367.518799 96.773044 
C 366.784348 96.773044 366.079879 97.064845 365.560544 97.584181 
C 365.041208 98.103516 364.749408 98.807985 364.749408 99.542436 
C 364.749408 100.276887 365.041208 100.981356 365.560544 101.500692 
C 366.079879 102.020027 366.784348 102.311828 367.518799 102.311828 
z
" clip-path="url(#p0eda5ab3bb)" style="fill: #800080; fill-opacity: 0.8; stroke: #800080; stroke-opacity: 0.8"/>
    <path d="M 374.598731 88.400187 
C 375.387372 88.400187 376.143818 88.086857 376.701472 87.529203 
C 377.259125 86.97155 377.572456 86.215103 377.572456 85.426462 
C 377.572456 84.637821 377.259125 83.881375 376.701472 83.323721 
C 376.143818 82.766068 375.387372 82.452737 374.598731 82.452737 
C 373.81009 82.452737 373.053643 82.766068 372.49599 83.323721 
C 371.938336 83.881375 371.625006 84.637821 371.625006 85.426462 
C 371.625006 86.215103 371.938336 86.97155 372.49599 87.529203 
C 373.053643 88.086857 373.81009 88.400187 374.598731 88.400187 
z
" clip-path="url(#p0eda5ab3bb)" style="fill: #800080; fill-opacity: 0.8; stroke: #800080; stroke-opacity: 0.8"/>
    <path d="M 381.678662 76.684226 
C 382.474271 76.684226 383.237402 76.368127 383.799982 75.805547 
C 384.362563 75.242966 384.678662 74.479835 384.678662 73.684226 
C 384.678662 72.888617 384.362563 72.125487 383.799982 71.562906 
C 383.237402 71.000325 382.474271 70.684226 381.678662 70.684226 
C 380.883053 70.684226 380.119922 71.000325 379.557342 71.562906 
C 378.994761 72.125487 378.678662 72.888617 378.678662 73.684226 
C 378.678662 74.479835 378.994761 75.242966 379.557342 75.805547 
C 380.119922 76.368127 380.883053 76.684226 381.678662 76.684226 
z
" clip-path="url(#p0eda5ab3bb)" style="fill: #800080; fill-opacity: 0.8; stroke: #800080; stroke-opacity: 0.8"/>
    <path d="M 388.758593 82.522341 
C 389.544903 82.522341 390.299114 82.209937 390.855119 81.653932 
C 391.411124 81.097927 391.723529 80.343716 391.723529 79.557406 
C 391.723529 78.771096 391.411124 78.016885 390.855119 77.46088 
C 390.299114 76.904875 389.544903 76.592471 388.758593 76.592471 
C 387.972284 76.592471 387.218073 76.904875 386.662068 77.46088 
C 386.106063 78.016885 385.793658 78.771096 385.793658 79.557406 
C 385.793658 80.343716 386.106063 81.097927 386.662068 81.653932 
C 387.218073 82.209937 387.972284 82.522341 388.758593 82.522341 
z
" clip-path="url(#p0eda5ab3bb)" style="fill: #800080; fill-opacity: 0.8; stroke: #800080; stroke-opacity: 0.8"/>
    <path d="M 395.838525 76.359667 
C 396.590344 76.359667 397.311472 76.060966 397.843088 75.529349 
C 398.374705 74.997733 398.673406 74.276605 398.673406 73.524786 
C 398.673406 72.772967 398.374705 72.051839 397.843088 71.520222 
C 397.311472 70.988606 396.590344 70.689905 395.838525 70.689905 
C 395.086706 70.689905 394.365578 70.988606 393.833961 71.520222 
C 393.302345 72.051839 393.003644 72.772967 393.003644 73.524786 
C 393.003644 74.276605 393.302345 74.997733 393.833961 75.529349 
C 394.365578 76.060966 395.086706 76.359667 395.838525 76.359667 
z
" clip-path="url(#p0eda5ab3bb)" style="fill: #800080; fill-opacity: 0.8; stroke: #800080; stroke-opacity: 0.8"/>
    <path d="M 402.918456 68.316237 
C 403.652795 68.316237 404.357157 68.024481 404.876413 67.505224 
C 405.395669 66.985968 405.687425 66.281607 405.687425 65.547268 
C 405.687425 64.812928 405.395669 64.108567 404.876413 63.589311 
C 404.357157 63.070054 403.652795 62.778298 402.918456 62.778298 
C 402.184117 62.778298 401.479756 63.070054 400.960499 63.589311 
C 400.441243 64.108567 400.149487 64.812928 400.149487 65.547268 
C 400.149487 66.281607 400.441243 66.985968 400.960499 67.505224 
C 401.479756 68.024481 402.184117 68.316237 402.918456 68.316237 
z
" clip-path="url(#p0eda5ab3bb)" style="fill: #800080; fill-opacity: 0.8; stroke: #800080; stroke-opacity: 0.8"/>
    <path d="M 409.998388 60.012661 
C 410.600691 60.012661 411.178406 59.773364 411.604299 59.347471 
C 412.030191 58.921579 412.269489 58.343863 412.269489 57.74156 
C 412.269489 57.139257 412.030191 56.561542 411.604299 56.135649 
C 411.178406 55.709757 410.600691 55.470459 409.998388 55.470459 
C 409.396085 55.470459 408.818369 55.709757 408.392477 56.135649 
C 407.966584 56.561542 407.727287 57.139257 407.727287 57.74156 
C 407.727287 58.343863 407.966584 58.921579 408.392477 59.347471 
C 408.818369 59.773364 409.396085 60.012661 409.998388 60.012661 
z
" clip-path="url(#p0eda5ab3bb)" style="fill: #800080; fill-opacity: 0.8; stroke: #800080; stroke-opacity: 0.8"/>
    <path d="M 417.078319 59.481589 
C 417.63091 59.481589 418.160942 59.262043 418.551683 58.871302 
C 418.942423 58.480561 419.16197 57.950529 419.16197 57.397939 
C 419.16197 56.845348 418.942423 56.315316 418.551683 55.924575 
C 418.160942 55.533834 417.63091 55.314288 417.078319 55.314288 
C 416.525728 55.314288 415.995696 55.533834 415.604956 55.924575 
C 415.214215 56.315316 414.994668 56.845348 414.994668 57.397939 
C 414.994668 57.950529 415.214215 58.480561 415.604956 58.871302 
C 415.995696 59.262043 416.525728 59.481589 417.078319 59.481589 
z
" clip-path="url(#p0eda5ab3bb)" style="fill: #800080; fill-opacity: 0.8; stroke: #800080; stroke-opacity: 0.8"/>
    <path d="M 424.15825 52.885698 
C 424.646757 52.885698 425.115322 52.691613 425.460748 52.346186 
C 425.806174 52.00076 426.00026 51.532195 426.00026 51.043689 
C 426.00026 50.555182 425.806174 50.086617 425.460748 49.741191 
C 425.115322 49.395765 424.646757 49.201679 424.15825 49.201679 
C 423.669744 49.201679 423.201179 49.395765 422.855753 49.741191 
C 422.510326 50.086617 422.316241 50.555182 422.316241 51.043689 
C 422.316241 51.532195 422.510326 52.00076 422.855753 52.346186 
C 423.201179 52.691613 423.669744 52.885698 424.15825 52.885698 
z
" clip-path="url(#p0eda5ab3bb)" style="fill: #800080; fill-opacity: 0.8; stroke: #800080; stroke-opacity: 0.8"/>
    <path d="M 431.238182 40.105202 
C 431.589856 40.105202 431.927173 39.965481 432.175844 39.71681 
C 432.424515 39.468139 432.564236 39.130821 432.564236 38.779148 
C 432.564236 38.427474 432.424515 38.090157 432.175844 37.841486 
C 431.927173 37.592815 431.589856 37.453093 431.238182 37.453093 
C 430.886508 37.453093 430.549191 37.592815 430.30052 37.841486 
C 430.051849 38.090157 429.912128 38.427474 429.912128 38.779148 
C 429.912128 39.130821 430.051849 39.468139 430.30052 39.71681 
C 430.549191 39.965481 430.886508 40.105202 431.238182 40.105202 
z
" clip-path="url(#p0eda5ab3bb)" style="fill: #800080; fill-opacity: 0.8; stroke: #800080; stroke-opacity: 0.8"/>
   </g>
   <g id="PolyCollection_1">
    <defs>
     <path id="mf4e935d2cf" d="M 56.001818 -90.018518 
L 56.001818 -61.733616 
L 59.792084 -64.055503 
L 63.582351 -66.37739 
L 67.372617 -68.700049 
L 71.162883 -71.023076 
L 74.95315 -73.346103 
L 78.743416 -75.66913 
L 82.533682 -77.992157 
L 86.323949 -80.315184 
L 90.114215 -82.656677 
L 93.904481 -85.001664 
L 97.694747 -87.34665 
L 101.485014 -89.691636 
L 105.27528 -92.036623 
L 109.065546 -94.381609 
L 112.855813 -96.632309 
L 116.646079 -98.894436 
L 120.436345 -101.214917 
L 124.226612 -103.535397 
L 128.016878 -105.855878 
L 131.807144 -108.164149 
L 135.59741 -110.336864 
L 139.387677 -112.563082 
L 143.177943 -114.919279 
L 146.968209 -117.142459 
L 150.758476 -119.415452 
L 154.548742 -121.766579 
L 158.339008 -124.064628 
L 162.129275 -126.357335 
L 165.919541 -128.619693 
L 169.709807 -130.889668 
L 173.500073 -133.271947 
L 177.29034 -135.548716 
L 181.080606 -137.794264 
L 184.870872 -140.028369 
L 188.661139 -142.263932 
L 192.451405 -144.499494 
L 196.241671 -146.75179 
L 200.031938 -149.03363 
L 203.822204 -151.345953 
L 207.61247 -153.584191 
L 211.402736 -155.84343 
L 215.193003 -158.082134 
L 218.983269 -160.417336 
L 222.773535 -162.693424 
L 226.563802 -164.928588 
L 230.354068 -167.204654 
L 234.144334 -169.421108 
L 237.934601 -171.481471 
L 241.724867 -173.673578 
L 245.515133 -175.838961 
L 249.305399 -178.206288 
L 253.095666 -180.463541 
L 256.885932 -182.645339 
L 260.676198 -184.762172 
L 264.466465 -187.008062 
L 268.256731 -189.25255 
L 272.046997 -191.497965 
L 275.837264 -193.627662 
L 279.62753 -195.77181 
L 283.417796 -198.032734 
L 287.208062 -200.205415 
L 290.998329 -202.367233 
L 294.788595 -204.528675 
L 298.578861 -206.687535 
L 302.369128 -208.801675 
L 306.159394 -210.66928 
L 309.94966 -212.549519 
L 313.739927 -214.4632 
L 317.530193 -216.543578 
L 321.320459 -218.595299 
L 325.110725 -220.708244 
L 328.900992 -222.793916 
L 332.691258 -224.958608 
L 336.481524 -226.959945 
L 340.271791 -229.049476 
L 344.062057 -231.125342 
L 347.852323 -233.101983 
L 351.64259 -235.082084 
L 355.432856 -236.985803 
L 359.223122 -238.924478 
L 363.013388 -241.039509 
L 366.803655 -243.098898 
L 370.593921 -245.149669 
L 374.384187 -247.190367 
L 378.174454 -249.250308 
L 381.96472 -251.333924 
L 385.754986 -253.443387 
L 389.545253 -255.502212 
L 393.335519 -257.578367 
L 397.125785 -259.546094 
L 400.916051 -261.460426 
L 404.706318 -263.348985 
L 408.496584 -265.252663 
L 412.28685 -267.147817 
L 416.077117 -269.042971 
L 419.867383 -270.940475 
L 423.657649 -272.969503 
L 427.447916 -275.050147 
L 431.238182 -277.130791 
L 431.238182 -295.086064 
L 431.238182 -295.086064 
L 427.447916 -292.798278 
L 423.657649 -290.512562 
L 419.867383 -288.225811 
L 416.077117 -285.900012 
L 412.28685 -283.651892 
L 408.496584 -281.368363 
L 404.706318 -279.083951 
L 400.916051 -276.832029 
L 397.125785 -274.64835 
L 393.335519 -272.464671 
L 389.545253 -270.280181 
L 385.754986 -267.98732 
L 381.96472 -265.682357 
L 378.174454 -263.380066 
L 374.384187 -261.151766 
L 370.593921 -258.990885 
L 366.803655 -256.831725 
L 363.013388 -254.655322 
L 359.223122 -252.383935 
L 355.432856 -250.197339 
L 351.64259 -248.073487 
L 347.852323 -245.948053 
L 344.062057 -243.799401 
L 340.271791 -241.608421 
L 336.481524 -239.397534 
L 332.691258 -237.277039 
L 328.900992 -235.196621 
L 325.110725 -233.091577 
L 321.320459 -230.933499 
L 317.530193 -228.802334 
L 313.739927 -226.736795 
L 309.94966 -224.586885 
L 306.159394 -222.471778 
L 302.369128 -220.338818 
L 298.578861 -218.244152 
L 294.788595 -216.075213 
L 290.998329 -213.947137 
L 287.208062 -211.811959 
L 283.417796 -209.759839 
L 279.62753 -207.737038 
L 275.837264 -205.569966 
L 272.046997 -203.446351 
L 268.256731 -201.373906 
L 264.466465 -199.413645 
L 260.676198 -197.28793 
L 256.885932 -195.161336 
L 253.095666 -193.037775 
L 249.305399 -190.913328 
L 245.515133 -188.81611 
L 241.724867 -186.860995 
L 237.934601 -184.927333 
L 234.144334 -182.994147 
L 230.354068 -180.998653 
L 226.563802 -178.989156 
L 222.773535 -176.896361 
L 218.983269 -174.803021 
L 215.193003 -172.835008 
L 211.402736 -170.845512 
L 207.61247 -168.848824 
L 203.822204 -166.785008 
L 200.031938 -164.798282 
L 196.241671 -162.837224 
L 192.451405 -160.77238 
L 188.661139 -158.717041 
L 184.870872 -156.717463 
L 181.080606 -154.672628 
L 177.29034 -152.647953 
L 173.500073 -150.689681 
L 169.709807 -148.727019 
L 165.919541 -146.729764 
L 162.129275 -144.734074 
L 158.339008 -142.735147 
L 154.548742 -140.674291 
L 150.758476 -138.597671 
L 146.968209 -136.538755 
L 143.177943 -134.669757 
L 139.387677 -132.675442 
L 135.59741 -130.634209 
L 131.807144 -128.629552 
L 128.016878 -126.706174 
L 124.226612 -124.766145 
L 120.436345 -122.864081 
L 116.646079 -120.861108 
L 112.855813 -118.849419 
L 109.065546 -116.954892 
L 105.27528 -115.064014 
L 101.485014 -113.089972 
L 97.694747 -111.088208 
L 93.904481 -109.132517 
L 90.114215 -107.200731 
L 86.323949 -105.315016 
L 82.533682 -103.496886 
L 78.743416 -101.67859 
L 74.95315 -99.800261 
L 71.162883 -97.843912 
L 67.372617 -95.887343 
L 63.582351 -93.966974 
L 59.792084 -91.974867 
L 56.001818 -90.018518 
z
" style="stroke: #ffffff; stroke-opacity: 0.15"/>
    </defs>
    <g clip-path="url(#p0eda5ab3bb)">
     <use xlink:href="#mf4e935d2cf" x="0" y="345.6" style="fill: #800080; fill-opacity: 0.15; stroke: #ffffff; stroke-opacity: 0.15"/>
    </g>
   </g>
   <g id="line2d_1">
    <path d="M 56.001818 270.675618 
L 59.792084 268.531027 
L 63.582351 266.386437 
L 67.372617 264.241847 
L 71.162883 262.097256 
L 74.95315 259.952666 
L 78.743416 257.808076 
L 82.533682 255.663486 
L 86.323949 253.518895 
L 90.114215 251.374305 
L 93.904481 249.229715 
L 97.694747 247.085124 
L 101.485014 244.940534 
L 105.27528 242.795944 
L 109.065546 240.651353 
L 112.855813 238.506763 
L 116.646079 236.362173 
L 120.436345 234.217582 
L 124.226612 232.072992 
L 128.016878 229.928402 
L 131.807144 227.783812 
L 135.59741 225.639221 
L 139.387677 223.494631 
L 143.177943 221.350041 
L 146.968209 219.20545 
L 150.758476 217.06086 
L 154.548742 214.91627 
L 158.339008 212.771679 
L 162.129275 210.627089 
L 165.919541 208.482499 
L 169.709807 206.337909 
L 173.500073 204.193318 
L 177.29034 202.048728 
L 181.080606 199.904138 
L 184.870872 197.759547 
L 188.661139 195.614957 
L 192.451405 193.470367 
L 196.241671 191.325776 
L 200.031938 189.181186 
L 203.822204 187.036596 
L 207.61247 184.892006 
L 211.402736 182.747415 
L 215.193003 180.602825 
L 218.983269 178.458235 
L 222.773535 176.313644 
L 226.563802 174.169054 
L 230.354068 172.024464 
L 234.144334 169.879873 
L 237.934601 167.735283 
L 241.724867 165.590693 
L 245.515133 163.446102 
L 249.305399 161.301512 
L 253.095666 159.156922 
L 256.885932 157.012332 
L 260.676198 154.867741 
L 264.466465 152.723151 
L 268.256731 150.578561 
L 272.046997 148.43397 
L 275.837264 146.28938 
L 279.62753 144.14479 
L 283.417796 142.000199 
L 287.208062 139.855609 
L 290.998329 137.711019 
L 294.788595 135.566429 
L 298.578861 133.421838 
L 302.369128 131.277248 
L 306.159394 129.132658 
L 309.94966 126.988067 
L 313.739927 124.843477 
L 317.530193 122.698887 
L 321.320459 120.554296 
L 325.110725 118.409706 
L 328.900992 116.265116 
L 332.691258 114.120525 
L 336.481524 111.975935 
L 340.271791 109.831345 
L 344.062057 107.686755 
L 347.852323 105.542164 
L 351.64259 103.397574 
L 355.432856 101.252984 
L 359.223122 99.108393 
L 363.013388 96.963803 
L 366.803655 94.819213 
L 370.593921 92.674622 
L 374.384187 90.530032 
L 378.174454 88.385442 
L 381.96472 86.240852 
L 385.754986 84.096261 
L 389.545253 81.951671 
L 393.335519 79.807081 
L 397.125785 77.66249 
L 400.916051 75.5179 
L 404.706318 73.37331 
L 408.496584 71.228719 
L 412.28685 69.084129 
L 416.077117 66.939539 
L 419.867383 64.794949 
L 423.657649 62.650358 
L 427.447916 60.505768 
L 431.238182 58.361178 
" clip-path="url(#p0eda5ab3bb)" style="fill: none; stroke: #800080; stroke-width: 2.25; stroke-linecap: round"/>
   </g>
   <g id="patch_3">
    <path d="M 37.24 317.72 
L 37.24 25.49625 
" style="fill: none; stroke: #ffffff; stroke-width: 0.8; stroke-linejoin: miter; stroke-linecap: square"/>
   </g>
   <g id="patch_4">
    <path d="M 450 317.72 
L 450 25.49625 
" style="fill: none; stroke: #ffffff; stroke-width: 0.8; stroke-linejoin: miter; stroke-linecap: square"/>
   </g>
   <g id="patch_5">
    <path d="M 37.24 317.72 
L 450 317.72 
" style="fill: none; stroke: #ffffff; stroke-width: 0.8; stroke-linejoin: miter; stroke-linecap: square"/>
   </g>
   <g id="patch_6">
    <path d="M 37.24 25.49625 
L 450 25.49625 
" style="fill: none; stroke: #ffffff; stroke-width: 0.8; stroke-linejoin: miter; stroke-linecap: square"/>
   </g>
   <g id="text_15">
    <!-- Yearly average ratings -->
    <g style="fill: #262626" transform="translate(184.139375 19.49625) scale(0.12 -0.12)">
     <defs>
      <path id="ArialMT-59" d="M 1784 0 
L 1784 1941 
L 19 4581 
L 756 4581 
L 1659 3200 
Q 1909 2813 2125 2425 
Q 2331 2784 2625 3234 
L 3513 4581 
L 4219 4581 
L 2391 1941 
L 2391 0 
L 1784 0 
z
" transform="scale(0.015625)"/>
      <path id="ArialMT-65" d="M 2694 1069 
L 3275 997 
Q 3138 488 2766 206 
Q 2394 -75 1816 -75 
Q 1088 -75 661 373 
Q 234 822 234 1631 
Q 234 2469 665 2931 
Q 1097 3394 1784 3394 
Q 2450 3394 2872 2941 
Q 3294 2488 3294 1666 
Q 3294 1616 3291 1516 
L 816 1516 
Q 847 969 1125 678 
Q 1403 388 1819 388 
Q 2128 388 2347 550 
Q 2566 713 2694 1069 
z
M 847 1978 
L 2700 1978 
Q 2663 2397 2488 2606 
Q 2219 2931 1791 2931 
Q 1403 2931 1139 2672 
Q 875 2413 847 1978 
z
" transform="scale(0.015625)"/>
      <path id="ArialMT-61" d="M 2588 409 
Q 2275 144 1986 34 
Q 1697 -75 1366 -75 
Q 819 -75 525 192 
Q 231 459 231 875 
Q 231 1119 342 1320 
Q 453 1522 633 1644 
Q 813 1766 1038 1828 
Q 1203 1872 1538 1913 
Q 2219 1994 2541 2106 
Q 2544 2222 2544 2253 
Q 2544 2597 2384 2738 
Q 2169 2928 1744 2928 
Q 1347 2928 1158 2789 
Q 969 2650 878 2297 
L 328 2372 
Q 403 2725 575 2942 
Q 747 3159 1072 3276 
Q 1397 3394 1825 3394 
Q 2250 3394 2515 3294 
Q 2781 3194 2906 3042 
Q 3031 2891 3081 2659 
Q 3109 2516 3109 2141 
L 3109 1391 
Q 3109 606 3145 398 
Q 3181 191 3288 0 
L 2700 0 
Q 2613 175 2588 409 
z
M 2541 1666 
Q 2234 1541 1622 1453 
Q 1275 1403 1131 1340 
Q 988 1278 909 1158 
Q 831 1038 831 891 
Q 831 666 1001 516 
Q 1172 366 1500 366 
Q 1825 366 2078 508 
Q 2331 650 2450 897 
Q 2541 1088 2541 1459 
L 2541 1666 
z
" transform="scale(0.015625)"/>
      <path id="ArialMT-72" d="M 416 0 
L 416 3319 
L 922 3319 
L 922 2816 
Q 1116 3169 1280 3281 
Q 1444 3394 1641 3394 
Q 1925 3394 2219 3213 
L 2025 2691 
Q 1819 2813 1613 2813 
Q 1428 2813 1281 2702 
Q 1134 2591 1072 2394 
Q 978 2094 978 1738 
L 978 0 
L 416 0 
z
" transform="scale(0.015625)"/>
      <path id="ArialMT-6c" d="M 409 0 
L 409 4581 
L 972 4581 
L 972 0 
L 409 0 
z
" transform="scale(0.015625)"/>
      <path id="ArialMT-79" d="M 397 -1278 
L 334 -750 
Q 519 -800 656 -800 
Q 844 -800 956 -737 
Q 1069 -675 1141 -563 
Q 1194 -478 1313 -144 
Q 1328 -97 1363 -6 
L 103 3319 
L 709 3319 
L 1400 1397 
Q 1534 1031 1641 628 
Q 1738 1016 1872 1384 
L 2581 3319 
L 3144 3319 
L 1881 -56 
Q 1678 -603 1566 -809 
Q 1416 -1088 1222 -1217 
Q 1028 -1347 759 -1347 
Q 597 -1347 397 -1278 
z
" transform="scale(0.015625)"/>
      <path id="ArialMT-20" transform="scale(0.015625)"/>
      <path id="ArialMT-76" d="M 1344 0 
L 81 3319 
L 675 3319 
L 1388 1331 
Q 1503 1009 1600 663 
Q 1675 925 1809 1294 
L 2547 3319 
L 3125 3319 
L 1869 0 
L 1344 0 
z
" transform="scale(0.015625)"/>
      <path id="ArialMT-67" d="M 319 -275 
L 866 -356 
Q 900 -609 1056 -725 
Q 1266 -881 1628 -881 
Q 2019 -881 2231 -725 
Q 2444 -569 2519 -288 
Q 2563 -116 2559 434 
Q 2191 0 1641 0 
Q 956 0 581 494 
Q 206 988 206 1678 
Q 206 2153 378 2554 
Q 550 2956 876 3175 
Q 1203 3394 1644 3394 
Q 2231 3394 2613 2919 
L 2613 3319 
L 3131 3319 
L 3131 450 
Q 3131 -325 2973 -648 
Q 2816 -972 2473 -1159 
Q 2131 -1347 1631 -1347 
Q 1038 -1347 672 -1080 
Q 306 -813 319 -275 
z
M 784 1719 
Q 784 1066 1043 766 
Q 1303 466 1694 466 
Q 2081 466 2343 764 
Q 2606 1063 2606 1700 
Q 2606 2309 2336 2618 
Q 2066 2928 1684 2928 
Q 1309 2928 1046 2623 
Q 784 2319 784 1719 
z
" transform="scale(0.015625)"/>
      <path id="ArialMT-74" d="M 1650 503 
L 1731 6 
Q 1494 -44 1306 -44 
Q 1000 -44 831 53 
Q 663 150 594 308 
Q 525 466 525 972 
L 525 2881 
L 113 2881 
L 113 3319 
L 525 3319 
L 525 4141 
L 1084 4478 
L 1084 3319 
L 1650 3319 
L 1650 2881 
L 1084 2881 
L 1084 941 
Q 1084 700 1114 631 
Q 1144 563 1211 522 
Q 1278 481 1403 481 
Q 1497 481 1650 503 
z
" transform="scale(0.015625)"/>
      <path id="ArialMT-69" d="M 425 3934 
L 425 4581 
L 988 4581 
L 988 3934 
L 425 3934 
z
M 425 0 
L 425 3319 
L 988 3319 
L 988 0 
L 425 0 
z
" transform="scale(0.015625)"/>
      <path id="ArialMT-6e" d="M 422 0 
L 422 3319 
L 928 3319 
L 928 2847 
Q 1294 3394 1984 3394 
Q 2284 3394 2536 3286 
Q 2788 3178 2913 3003 
Q 3038 2828 3088 2588 
Q 3119 2431 3119 2041 
L 3119 0 
L 2556 0 
L 2556 2019 
Q 2556 2363 2490 2533 
Q 2425 2703 2258 2804 
Q 2091 2906 1866 2906 
Q 1506 2906 1245 2678 
Q 984 2450 984 1813 
L 984 0 
L 422 0 
z
" transform="scale(0.015625)"/>
      <path id="ArialMT-73" d="M 197 991 
L 753 1078 
Q 800 744 1014 566 
Q 1228 388 1613 388 
Q 2000 388 2187 545 
Q 2375 703 2375 916 
Q 2375 1106 2209 1216 
Q 2094 1291 1634 1406 
Q 1016 1563 777 1677 
Q 538 1791 414 1992 
Q 291 2194 291 2438 
Q 291 2659 392 2848 
Q 494 3038 669 3163 
Q 800 3259 1026 3326 
Q 1253 3394 1513 3394 
Q 1903 3394 2198 3281 
Q 2494 3169 2634 2976 
Q 2775 2784 2828 2463 
L 2278 2388 
Q 2241 2644 2061 2787 
Q 1881 2931 1553 2931 
Q 1166 2931 1000 2803 
Q 834 2675 834 2503 
Q 834 2394 903 2306 
Q 972 2216 1119 2156 
Q 1203 2125 1616 2013 
Q 2213 1853 2448 1751 
Q 2684 1650 2818 1456 
Q 2953 1263 2953 975 
Q 2953 694 2789 445 
Q 2625 197 2315 61 
Q 2006 -75 1616 -75 
Q 969 -75 630 194 
Q 291 463 197 991 
z
" transform="scale(0.015625)"/>
     </defs>
     <use xlink:href="#ArialMT-59"/>
     <use xlink:href="#ArialMT-65" x="57.574219"/>
     <use xlink:href="#ArialMT-61" x="113.189453"/>
     <use xlink:href="#ArialMT-72" x="168.804688"/>
     <use xlink:href="#ArialMT-6c" x="202.105469"/>
     <use xlink:href="#ArialMT-79" x="224.322266"/>
     <use xlink:href="#ArialMT-20" x="274.322266"/>
     <use xlink:href="#ArialMT-61" x="302.105469"/>
     <use xlink:href="#ArialMT-76" x="357.720703"/>
     <use xlink:href="#ArialMT-65" x="407.720703"/>
     <use xlink:href="#ArialMT-72" x="463.335938"/>
     <use xlink:href="#ArialMT-61" x="496.636719"/>
     <use xlink:href="#ArialMT-67" x="552.251953"/>
     <use xlink:href="#ArialMT-65" x="607.867188"/>
     <use xlink:href="#ArialMT-20" x="663.482422"/>
     <use xlink:href="#ArialMT-72" x="691.265625"/>
     <use xlink:href="#ArialMT-61" x="724.566406"/>
     <use xlink:href="#ArialMT-74" x="780.181641"/>
     <use xlink:href="#ArialMT-69" x="807.964844"/>
     <use xlink:href="#ArialMT-6e" x="830.181641"/>
     <use xlink:href="#ArialMT-67" x="885.796875"/>
     <use xlink:href="#ArialMT-73" x="941.412109"/>
    </g>
   </g>
  </g>
 </g>
 <defs>
  <clipPath id="p0eda5ab3bb">
   <rect x="37.24" y="25.49625" width="412.76" height="292.22375"/>
  </clipPath>
 </defs>
</svg>
