<?xml version="1.0" encoding="utf-8" standalone="no"?>
<!DOCTYPE svg PUBLIC "-//W3C//DTD SVG 1.1//EN"
  "http://www.w3.org/Graphics/SVG/1.1/DTD/svg11.dtd">
<svg xmlns:xlink="http://www.w3.org/1999/xlink" width="460.8pt" height="345.6pt" viewBox="0 0 460.8 345.6" xmlns="http://www.w3.org/2000/svg" version="1.1">
 <metadata>
  <rdf:RDF xmlns:dc="http://purl.org/dc/elements/1.1/" xmlns:cc="http://creativecommons.org/ns#" xmlns:rdf="http://www.w3.org/1999/02/22-rdf-syntax-ns#">
   <cc:Work>
    <dc:type rdf:resource="http://purl.org/dc/dcmitype/StillImage"/>
    <dc:date>2024-08-19T22:01:49.832765</dc:date>
    <dc:format>image/svg+xml</dc:format>
    <dc:creator>
     <cc:Agent>
      <dc:title>Matplotlib v3.9.2, https://matplotlib.org/</dc:title>
     </cc:Agent>
    </dc:creator>
   </cc:Work>
  </rdf:RDF>
 </metadata>
 <defs>
  <style type="text/css">*{stroke-linejoin: round; stroke-linecap: butt}</style>
 </defs>
 <g id="figure_1">
  <g id="patch_1">
   <path d="M 0 345.6 
L 460.8 345.6 
L 460.8 0 
L 0 0 
z
" style="fill: #ffffff"/>
  </g>
  <g id="axes_1">
   <g id="patch_2">
    <path d="M 37.24 317.72 
L 450 317.72 
L 450 25.49625 
L 37.24 25.49625 
z
" style="fill: #eaeaf2"/>
   </g>
   <g id="matplotlib.axis_1">
    <g id="xtick_1">
     <g id="text_1">
      <!-- 1970 -->
      <g style="fill: #262626" transform="translate(44.879943 331.877812) scale(0.1 -0.1)">
       <defs>
        <path id="ArialMT-31" d="M 2384 0 
L 1822 0 
L 1822 3584 
Q 1619 3391 1289 3197 
Q 959 3003 697 2906 
L 697 3450 
Q 1169 3672 1522 3987 
Q 1875 4303 2022 4600 
L 2384 4600 
L 2384 0 
z
" transform="scale(0.015625)"/>
        <path id="ArialMT-39" d="M 350 1059 
L 891 1109 
Q 959 728 1153 556 
Q 1347 384 1650 384 
Q 1909 384 2104 503 
Q 2300 622 2425 820 
Q 2550 1019 2634 1356 
Q 2719 1694 2719 2044 
Q 2719 2081 2716 2156 
Q 2547 1888 2255 1720 
Q 1963 1553 1622 1553 
Q 1053 1553 659 1965 
Q 266 2378 266 3053 
Q 266 3750 677 4175 
Q 1088 4600 1706 4600 
Q 2153 4600 2523 4359 
Q 2894 4119 3086 3673 
Q 3278 3228 3278 2384 
Q 3278 1506 3087 986 
Q 2897 466 2520 194 
Q 2144 -78 1638 -78 
Q 1100 -78 759 220 
Q 419 519 350 1059 
z
M 2653 3081 
Q 2653 3566 2395 3850 
Q 2138 4134 1775 4134 
Q 1400 4134 1122 3828 
Q 844 3522 844 3034 
Q 844 2597 1108 2323 
Q 1372 2050 1759 2050 
Q 2150 2050 2401 2323 
Q 2653 2597 2653 3081 
z
" transform="scale(0.015625)"/>
        <path id="ArialMT-37" d="M 303 3981 
L 303 4522 
L 3269 4522 
L 3269 4084 
Q 2831 3619 2401 2847 
Q 1972 2075 1738 1259 
Q 1569 684 1522 0 
L 944 0 
Q 953 541 1156 1306 
Q 1359 2072 1739 2783 
Q 2119 3494 2547 3981 
L 303 3981 
z
" transform="scale(0.015625)"/>
        <path id="ArialMT-30" d="M 266 2259 
Q 266 3072 433 3567 
Q 600 4063 929 4331 
Q 1259 4600 1759 4600 
Q 2128 4600 2406 4451 
Q 2684 4303 2865 4023 
Q 3047 3744 3150 3342 
Q 3253 2941 3253 2259 
Q 3253 1453 3087 958 
Q 2922 463 2592 192 
Q 2263 -78 1759 -78 
Q 1097 -78 719 397 
Q 266 969 266 2259 
z
M 844 2259 
Q 844 1131 1108 757 
Q 1372 384 1759 384 
Q 2147 384 2411 759 
Q 2675 1134 2675 2259 
Q 2675 3391 2411 3762 
Q 2147 4134 1753 4134 
Q 1366 4134 1134 3806 
Q 844 3388 844 2259 
z
" transform="scale(0.015625)"/>
       </defs>
       <use xlink:href="#ArialMT-31"/>
       <use xlink:href="#ArialMT-39" x="55.615234"/>
       <use xlink:href="#ArialMT-37" x="111.230469"/>
       <use xlink:href="#ArialMT-30" x="166.845703"/>
      </g>
     </g>
    </g>
    <g id="xtick_2">
     <g id="text_2">
      <!-- 1980 -->
      <g style="fill: #262626" transform="translate(115.679257 331.877812) scale(0.1 -0.1)">
       <defs>
        <path id="ArialMT-38" d="M 1131 2484 
Q 781 2613 612 2850 
Q 444 3088 444 3419 
Q 444 3919 803 4259 
Q 1163 4600 1759 4600 
Q 2359 4600 2725 4251 
Q 3091 3903 3091 3403 
Q 3091 3084 2923 2848 
Q 2756 2613 2416 2484 
Q 2838 2347 3058 2040 
Q 3278 1734 3278 1309 
Q 3278 722 2862 322 
Q 2447 -78 1769 -78 
Q 1091 -78 675 323 
Q 259 725 259 1325 
Q 259 1772 486 2073 
Q 713 2375 1131 2484 
z
M 1019 3438 
Q 1019 3113 1228 2906 
Q 1438 2700 1772 2700 
Q 2097 2700 2305 2904 
Q 2513 3109 2513 3406 
Q 2513 3716 2298 3927 
Q 2084 4138 1766 4138 
Q 1444 4138 1231 3931 
Q 1019 3725 1019 3438 
z
M 838 1322 
Q 838 1081 952 856 
Q 1066 631 1291 507 
Q 1516 384 1775 384 
Q 2178 384 2440 643 
Q 2703 903 2703 1303 
Q 2703 1709 2433 1975 
Q 2163 2241 1756 2241 
Q 1359 2241 1098 1978 
Q 838 1716 838 1322 
z
" transform="scale(0.015625)"/>
       </defs>
       <use xlink:href="#ArialMT-31"/>
       <use xlink:href="#ArialMT-39" x="55.615234"/>
       <use xlink:href="#ArialMT-38" x="111.230469"/>
       <use xlink:href="#ArialMT-30" x="166.845703"/>
      </g>
     </g>
    </g>
    <g id="xtick_3">
     <g id="text_3">
      <!-- 1990 -->
      <g style="fill: #262626" transform="translate(186.478571 331.877812) scale(0.1 -0.1)">
       <use xlink:href="#ArialMT-31"/>
       <use xlink:href="#ArialMT-39" x="55.615234"/>
       <use xlink:href="#ArialMT-39" x="111.230469"/>
       <use xlink:href="#ArialMT-30" x="166.845703"/>
      </g>
     </g>
    </g>
    <g id="xtick_4">
     <g id="text_4">
      <!-- 2000 -->
      <g style="fill: #262626" transform="translate(257.277885 331.877812) scale(0.1 -0.1)">
       <defs>
        <path id="ArialMT-32" d="M 3222 541 
L 3222 0 
L 194 0 
Q 188 203 259 391 
Q 375 700 629 1000 
Q 884 1300 1366 1694 
Q 2113 2306 2375 2664 
Q 2638 3022 2638 3341 
Q 2638 3675 2398 3904 
Q 2159 4134 1775 4134 
Q 1369 4134 1125 3890 
Q 881 3647 878 3216 
L 300 3275 
Q 359 3922 746 4261 
Q 1134 4600 1788 4600 
Q 2447 4600 2831 4234 
Q 3216 3869 3216 3328 
Q 3216 3053 3103 2787 
Q 2991 2522 2730 2228 
Q 2469 1934 1863 1422 
Q 1356 997 1212 845 
Q 1069 694 975 541 
L 3222 541 
z
" transform="scale(0.015625)"/>
       </defs>
       <use xlink:href="#ArialMT-32"/>
       <use xlink:href="#ArialMT-30" x="55.615234"/>
       <use xlink:href="#ArialMT-30" x="111.230469"/>
       <use xlink:href="#ArialMT-30" x="166.845703"/>
      </g>
     </g>
    </g>
    <g id="xtick_5">
     <g id="text_5">
      <!-- 2010 -->
      <g style="fill: #262626" transform="translate(328.077199 331.877812) scale(0.1 -0.1)">
       <use xlink:href="#ArialMT-32"/>
       <use xlink:href="#ArialMT-30" x="55.615234"/>
       <use xlink:href="#ArialMT-31" x="111.230469"/>
       <use xlink:href="#ArialMT-30" x="166.845703"/>
      </g>
     </g>
    </g>
    <g id="xtick_6">
     <g id="text_6">
      <!-- 2020 -->
      <g style="fill: #262626" transform="translate(398.876513 331.877812) scale(0.1 -0.1)">
       <use xlink:href="#ArialMT-32"/>
       <use xlink:href="#ArialMT-30" x="55.615234"/>
       <use xlink:href="#ArialMT-32" x="111.230469"/>
       <use xlink:href="#ArialMT-30" x="166.845703"/>
      </g>
     </g>
    </g>
   </g>
   <g id="matplotlib.axis_2">
    <g id="ytick_1">
     <g id="text_7">
      <!-- 5.75 -->
      <g style="fill: #262626" transform="translate(10.779063 298.452333) scale(0.1 -0.1)">
       <defs>
        <path id="ArialMT-35" d="M 266 1200 
L 856 1250 
Q 922 819 1161 601 
Q 1400 384 1738 384 
Q 2144 384 2425 690 
Q 2706 997 2706 1503 
Q 2706 1984 2436 2262 
Q 2166 2541 1728 2541 
Q 1456 2541 1237 2417 
Q 1019 2294 894 2097 
L 366 2166 
L 809 4519 
L 3088 4519 
L 3088 3981 
L 1259 3981 
L 1013 2750 
Q 1425 3038 1878 3038 
Q 2478 3038 2890 2622 
Q 3303 2206 3303 1553 
Q 3303 931 2941 478 
Q 2500 -78 1738 -78 
Q 1113 -78 717 272 
Q 322 622 266 1200 
z
" transform="scale(0.015625)"/>
        <path id="ArialMT-2e" d="M 581 0 
L 581 641 
L 1222 641 
L 1222 0 
L 581 0 
z
" transform="scale(0.015625)"/>
       </defs>
       <use xlink:href="#ArialMT-35"/>
       <use xlink:href="#ArialMT-2e" x="55.615234"/>
       <use xlink:href="#ArialMT-37" x="83.398438"/>
       <use xlink:href="#ArialMT-35" x="139.013672"/>
      </g>
     </g>
    </g>
    <g id="ytick_2">
     <g id="text_8">
      <!-- 6.00 -->
      <g style="fill: #262626" transform="translate(10.779063 264.090177) scale(0.1 -0.1)">
       <defs>
        <path id="ArialMT-36" d="M 3184 3459 
L 2625 3416 
Q 2550 3747 2413 3897 
Q 2184 4138 1850 4138 
Q 1581 4138 1378 3988 
Q 1113 3794 959 3422 
Q 806 3050 800 2363 
Q 1003 2672 1297 2822 
Q 1591 2972 1913 2972 
Q 2475 2972 2870 2558 
Q 3266 2144 3266 1488 
Q 3266 1056 3080 686 
Q 2894 316 2569 119 
Q 2244 -78 1831 -78 
Q 1128 -78 684 439 
Q 241 956 241 2144 
Q 241 3472 731 4075 
Q 1159 4600 1884 4600 
Q 2425 4600 2770 4297 
Q 3116 3994 3184 3459 
z
M 888 1484 
Q 888 1194 1011 928 
Q 1134 663 1356 523 
Q 1578 384 1822 384 
Q 2178 384 2434 671 
Q 2691 959 2691 1453 
Q 2691 1928 2437 2201 
Q 2184 2475 1800 2475 
Q 1419 2475 1153 2201 
Q 888 1928 888 1484 
z
" transform="scale(0.015625)"/>
       </defs>
       <use xlink:href="#ArialMT-36"/>
       <use xlink:href="#ArialMT-2e" x="55.615234"/>
       <use xlink:href="#ArialMT-30" x="83.398438"/>
       <use xlink:href="#ArialMT-30" x="139.013672"/>
      </g>
     </g>
    </g>
    <g id="ytick_3">
     <g id="text_9">
      <!-- 6.25 -->
      <g style="fill: #262626" transform="translate(10.779063 229.72802) scale(0.1 -0.1)">
       <use xlink:href="#ArialMT-36"/>
       <use xlink:href="#ArialMT-2e" x="55.615234"/>
       <use xlink:href="#ArialMT-32" x="83.398438"/>
       <use xlink:href="#ArialMT-35" x="139.013672"/>
      </g>
     </g>
    </g>
    <g id="ytick_4">
     <g id="text_10">
      <!-- 6.50 -->
      <g style="fill: #262626" transform="translate(10.779063 195.365864) scale(0.1 -0.1)">
       <use xlink:href="#ArialMT-36"/>
       <use xlink:href="#ArialMT-2e" x="55.615234"/>
       <use xlink:href="#ArialMT-35" x="83.398438"/>
       <use xlink:href="#ArialMT-30" x="139.013672"/>
      </g>
     </g>
    </g>
    <g id="ytick_5">
     <g id="text_11">
      <!-- 6.75 -->
      <g style="fill: #262626" transform="translate(10.779063 161.003708) scale(0.1 -0.1)">
       <use xlink:href="#ArialMT-36"/>
       <use xlink:href="#ArialMT-2e" x="55.615234"/>
       <use xlink:href="#ArialMT-37" x="83.398438"/>
       <use xlink:href="#ArialMT-35" x="139.013672"/>
      </g>
     </g>
    </g>
    <g id="ytick_6">
     <g id="text_12">
      <!-- 7.00 -->
      <g style="fill: #262626" transform="translate(10.779063 126.641551) scale(0.1 -0.1)">
       <use xlink:href="#ArialMT-37"/>
       <use xlink:href="#ArialMT-2e" x="55.615234"/>
       <use xlink:href="#ArialMT-30" x="83.398438"/>
       <use xlink:href="#ArialMT-30" x="139.013672"/>
      </g>
     </g>
    </g>
    <g id="ytick_7">
     <g id="text_13">
      <!-- 7.25 -->
      <g style="fill: #262626" transform="translate(10.779063 92.279395) scale(0.1 -0.1)">
       <use xlink:href="#ArialMT-37"/>
       <use xlink:href="#ArialMT-2e" x="55.615234"/>
       <use xlink:href="#ArialMT-32" x="83.398438"/>
       <use xlink:href="#ArialMT-35" x="139.013672"/>
      </g>
     </g>
    </g>
    <g id="ytick_8">
     <g id="text_14">
      <!-- 7.50 -->
      <g style="fill: #262626" transform="translate(10.779063 57.917238) scale(0.1 -0.1)">
       <use xlink:href="#ArialMT-37"/>
       <use xlink:href="#ArialMT-2e" x="55.615234"/>
       <use xlink:href="#ArialMT-35" x="83.398438"/>
       <use xlink:href="#ArialMT-30" x="139.013672"/>
      </g>
     </g>
    </g>
   </g>
   <g id="PathCollection_1">
    <path d="M 56.001818 284.587153 
C 56.070813 284.587153 56.136991 284.559741 56.185778 284.510954 
C 56.234565 284.462167 56.261977 284.395989 56.261977 284.326994 
C 56.261977 284.257999 56.234565 284.191821 56.185778 284.143034 
C 56.136991 284.094247 56.070813 284.066835 56.001818 284.066835 
C 55.932823 284.066835 55.866645 284.094247 55.817858 284.143034 
C 55.769071 284.191821 55.74166 284.257999 55.74166 284.326994 
C 55.74166 284.395989 55.769071 284.462167 55.817858 284.510954 
C 55.866645 284.559741 55.932823 284.587153 56.001818 284.587153 
z
" clip-path="url(#pa28246eb7f)" style="fill: #800080; fill-opacity: 0.8; stroke: #800080; stroke-opacity: 0.8"/>
    <path d="M 63.08175 304.944742 
C 63.216377 304.944742 63.345509 304.891254 63.440705 304.796058 
C 63.535901 304.700862 63.589389 304.57173 63.589389 304.437102 
C 63.589389 304.302475 63.535901 304.173343 63.440705 304.078147 
C 63.345509 303.982951 63.216377 303.929463 63.08175 303.929463 
C 62.947122 303.929463 62.81799 303.982951 62.722794 304.078147 
C 62.627598 304.173343 62.57411 304.302475 62.57411 304.437102 
C 62.57411 304.57173 62.627598 304.700862 62.722794 304.796058 
C 62.81799 304.891254 62.947122 304.944742 63.08175 304.944742 
z
" clip-path="url(#pa28246eb7f)" style="fill: #800080; fill-opacity: 0.8; stroke: #800080; stroke-opacity: 0.8"/>
    <path d="M 70.161681 264.30239 
C 70.256167 264.30239 70.346796 264.26485 70.413608 264.198038 
C 70.480419 264.131227 70.517959 264.040598 70.517959 263.946112 
C 70.517959 263.851626 70.480419 263.760997 70.413608 263.694185 
C 70.346796 263.627373 70.256167 263.589834 70.161681 263.589834 
C 70.067195 263.589834 69.976566 263.627373 69.909754 263.694185 
C 69.842943 263.760997 69.805403 263.851626 69.805403 263.946112 
C 69.805403 264.040598 69.842943 264.131227 69.909754 264.198038 
C 69.976566 264.26485 70.067195 264.30239 70.161681 264.30239 
z
" clip-path="url(#pa28246eb7f)" style="fill: #800080; fill-opacity: 0.8; stroke: #800080; stroke-opacity: 0.8"/>
    <path d="M 77.241612 249.944027 
C 77.337429 249.944027 77.429335 249.905958 77.497088 249.838205 
C 77.56484 249.770453 77.602909 249.678547 77.602909 249.58273 
C 77.602909 249.486913 77.56484 249.395008 77.497088 249.327255 
C 77.429335 249.259502 77.337429 249.221434 77.241612 249.221434 
C 77.145795 249.221434 77.05389 249.259502 76.986137 249.327255 
C 76.918384 249.395008 76.880316 249.486913 76.880316 249.58273 
C 76.880316 249.678547 76.918384 249.770453 76.986137 249.838205 
C 77.05389 249.905958 77.145795 249.944027 77.241612 249.944027 
z
" clip-path="url(#pa28246eb7f)" style="fill: #800080; fill-opacity: 0.8; stroke: #800080; stroke-opacity: 0.8"/>
    <path d="M 84.321544 257.146278 
C 84.439217 257.146278 84.552086 257.099526 84.635293 257.016318 
C 84.7185 256.933111 84.765252 256.820242 84.765252 256.702569 
C 84.765252 256.584896 84.7185 256.472027 84.635293 256.38882 
C 84.552086 256.305613 84.439217 256.258861 84.321544 256.258861 
C 84.203871 256.258861 84.091002 256.305613 84.007794 256.38882 
C 83.924587 256.472027 83.877835 256.584896 83.877835 256.702569 
C 83.877835 256.820242 83.924587 256.933111 84.007794 257.016318 
C 84.091002 257.099526 84.203871 257.146278 84.321544 257.146278 
z
" clip-path="url(#pa28246eb7f)" style="fill: #800080; fill-opacity: 0.8; stroke: #800080; stroke-opacity: 0.8"/>
    <path d="M 91.401475 277.162835 
C 91.510377 277.162835 91.614833 277.119568 91.691838 277.042563 
C 91.768843 276.965558 91.81211 276.861102 91.81211 276.7522 
C 91.81211 276.643298 91.768843 276.538842 91.691838 276.461837 
C 91.614833 276.384832 91.510377 276.341565 91.401475 276.341565 
C 91.292573 276.341565 91.188117 276.384832 91.111112 276.461837 
C 91.034107 276.538842 90.99084 276.643298 90.99084 276.7522 
C 90.99084 276.861102 91.034107 276.965558 91.111112 277.042563 
C 91.188117 277.119568 91.292573 277.162835 91.401475 277.162835 
z
" clip-path="url(#pa28246eb7f)" style="fill: #800080; fill-opacity: 0.8; stroke: #800080; stroke-opacity: 0.8"/>
    <path d="M 98.481407 230.03772 
C 98.560556 230.03772 98.636474 230.006274 98.692441 229.950307 
C 98.748408 229.89434 98.779855 229.818422 98.779855 229.739272 
C 98.779855 229.660123 98.748408 229.584205 98.692441 229.528237 
C 98.636474 229.47227 98.560556 229.440824 98.481407 229.440824 
C 98.402257 229.440824 98.326339 229.47227 98.270372 229.528237 
C 98.214405 229.584205 98.182958 229.660123 98.182958 229.739272 
C 98.182958 229.818422 98.214405 229.89434 98.270372 229.950307 
C 98.326339 230.006274 98.402257 230.03772 98.481407 230.03772 
z
" clip-path="url(#pa28246eb7f)" style="fill: #800080; fill-opacity: 0.8; stroke: #800080; stroke-opacity: 0.8"/>
    <path d="M 105.561338 208.196995 
C 105.715541 208.196995 105.863449 208.135729 105.972488 208.026691 
C 106.081526 207.917653 106.142791 207.769745 106.142791 207.615541 
C 106.142791 207.461338 106.081526 207.31343 105.972488 207.204392 
C 105.863449 207.095354 105.715541 207.034088 105.561338 207.034088 
C 105.407135 207.034088 105.259226 207.095354 105.150188 207.204392 
C 105.04115 207.31343 104.979884 207.461338 104.979884 207.615541 
C 104.979884 207.769745 105.04115 207.917653 105.150188 208.026691 
C 105.259226 208.135729 105.407135 208.196995 105.561338 208.196995 
z
" clip-path="url(#pa28246eb7f)" style="fill: #800080; fill-opacity: 0.8; stroke: #800080; stroke-opacity: 0.8"/>
    <path d="M 112.641269 273.415344 
C 112.738701 273.415344 112.832155 273.376634 112.901049 273.30774 
C 112.969944 273.238845 113.008654 273.145391 113.008654 273.04796 
C 113.008654 272.950528 112.969944 272.857074 112.901049 272.78818 
C 112.832155 272.719285 112.738701 272.680575 112.641269 272.680575 
C 112.543838 272.680575 112.450384 272.719285 112.381489 272.78818 
C 112.312595 272.857074 112.273885 272.950528 112.273885 273.04796 
C 112.273885 273.145391 112.312595 273.238845 112.381489 273.30774 
C 112.450384 273.376634 112.543838 273.415344 112.641269 273.415344 
z
" clip-path="url(#pa28246eb7f)" style="fill: #800080; fill-opacity: 0.8; stroke: #800080; stroke-opacity: 0.8"/>
    <path d="M 119.721201 214.644323 
C 119.866553 214.644323 120.005971 214.586574 120.108751 214.483794 
C 120.21153 214.381015 120.26928 214.241596 120.26928 214.096244 
C 120.26928 213.950892 120.21153 213.811473 120.108751 213.708694 
C 120.005971 213.605914 119.866553 213.548165 119.721201 213.548165 
C 119.575848 213.548165 119.43643 213.605914 119.33365 213.708694 
C 119.230871 213.811473 119.173122 213.950892 119.173122 214.096244 
C 119.173122 214.241596 119.230871 214.381015 119.33365 214.483794 
C 119.43643 214.586574 119.575848 214.644323 119.721201 214.644323 
z
" clip-path="url(#pa28246eb7f)" style="fill: #800080; fill-opacity: 0.8; stroke: #800080; stroke-opacity: 0.8"/>
    <path d="M 126.801132 163.89452 
C 126.942568 163.89452 127.07823 163.838327 127.178241 163.738316 
C 127.278251 163.638306 127.334444 163.502644 127.334444 163.361207 
C 127.334444 163.219771 127.278251 163.084109 127.178241 162.984099 
C 127.07823 162.884088 126.942568 162.827895 126.801132 162.827895 
C 126.659696 162.827895 126.524034 162.884088 126.424023 162.984099 
C 126.324013 163.084109 126.26782 163.219771 126.26782 163.361207 
C 126.26782 163.502644 126.324013 163.638306 126.424023 163.738316 
C 126.524034 163.838327 126.659696 163.89452 126.801132 163.89452 
z
" clip-path="url(#pa28246eb7f)" style="fill: #800080; fill-opacity: 0.8; stroke: #800080; stroke-opacity: 0.8"/>
    <path d="M 133.881063 234.317524 
C 134.023547 234.317524 134.160214 234.260915 134.260965 234.160164 
C 134.361716 234.059412 134.418326 233.922745 134.418326 233.780262 
C 134.418326 233.637778 134.361716 233.501111 134.260965 233.40036 
C 134.160214 233.299609 134.023547 233.243 133.881063 233.243 
C 133.73858 233.243 133.601913 233.299609 133.501162 233.40036 
C 133.400411 233.501111 133.343801 233.637778 133.343801 233.780262 
C 133.343801 233.922745 133.400411 234.059412 133.501162 234.160164 
C 133.601913 234.260915 133.73858 234.317524 133.881063 234.317524 
z
" clip-path="url(#pa28246eb7f)" style="fill: #800080; fill-opacity: 0.8; stroke: #800080; stroke-opacity: 0.8"/>
    <path d="M 140.960995 169.568516 
C 141.154952 169.568516 141.340992 169.491456 141.478141 169.354307 
C 141.61529 169.217158 141.69235 169.031118 141.69235 168.837161 
C 141.69235 168.643203 141.61529 168.457163 141.478141 168.320015 
C 141.340992 168.182866 141.154952 168.105806 140.960995 168.105806 
C 140.767037 168.105806 140.580997 168.182866 140.443849 168.320015 
C 140.3067 168.457163 140.22964 168.643203 140.22964 168.837161 
C 140.22964 169.031118 140.3067 169.217158 140.443849 169.354307 
C 140.580997 169.491456 140.767037 169.568516 140.960995 169.568516 
z
" clip-path="url(#pa28246eb7f)" style="fill: #800080; fill-opacity: 0.8; stroke: #800080; stroke-opacity: 0.8"/>
    <path d="M 148.040926 225.700388 
C 148.209892 225.700388 148.37196 225.633257 148.491437 225.513781 
C 148.610914 225.394304 148.678044 225.232236 148.678044 225.06327 
C 148.678044 224.894304 148.610914 224.732236 148.491437 224.612759 
C 148.37196 224.493283 148.209892 224.426152 148.040926 224.426152 
C 147.871961 224.426152 147.709892 224.493283 147.590416 224.612759 
C 147.470939 224.732236 147.403808 224.894304 147.403808 225.06327 
C 147.403808 225.232236 147.470939 225.394304 147.590416 225.513781 
C 147.709892 225.633257 147.871961 225.700388 148.040926 225.700388 
z
" clip-path="url(#pa28246eb7f)" style="fill: #800080; fill-opacity: 0.8; stroke: #800080; stroke-opacity: 0.8"/>
    <path d="M 155.120858 206.915514 
C 155.243955 206.915514 155.362027 206.866607 155.44907 206.779564 
C 155.536113 206.692521 155.58502 206.574449 155.58502 206.451352 
C 155.58502 206.328254 155.536113 206.210182 155.44907 206.123139 
C 155.362027 206.036096 155.243955 205.987189 155.120858 205.987189 
C 154.99776 205.987189 154.879688 206.036096 154.792645 206.123139 
C 154.705602 206.210182 154.656695 206.328254 154.656695 206.451352 
C 154.656695 206.574449 154.705602 206.692521 154.792645 206.779564 
C 154.879688 206.866607 154.99776 206.915514 155.120858 206.915514 
z
" clip-path="url(#pa28246eb7f)" style="fill: #800080; fill-opacity: 0.8; stroke: #800080; stroke-opacity: 0.8"/>
    <path d="M 162.200789 198.313923 
C 162.33991 198.313923 162.473352 198.258649 162.571725 198.160276 
C 162.670099 198.061902 162.725372 197.92846 162.725372 197.789339 
C 162.725372 197.650218 162.670099 197.516776 162.571725 197.418403 
C 162.473352 197.320029 162.33991 197.264756 162.200789 197.264756 
C 162.061668 197.264756 161.928226 197.320029 161.829853 197.418403 
C 161.731479 197.516776 161.676206 197.650218 161.676206 197.789339 
C 161.676206 197.92846 161.731479 198.061902 161.829853 198.160276 
C 161.928226 198.258649 162.061668 198.313923 162.200789 198.313923 
z
" clip-path="url(#pa28246eb7f)" style="fill: #800080; fill-opacity: 0.8; stroke: #800080; stroke-opacity: 0.8"/>
    <path d="M 169.28072 180.830762 
C 169.454551 180.830762 169.621286 180.761698 169.744203 180.638781 
C 169.867121 180.515864 169.936184 180.349129 169.936184 180.175298 
C 169.936184 180.001467 169.867121 179.834732 169.744203 179.711815 
C 169.621286 179.588898 169.454551 179.519834 169.28072 179.519834 
C 169.106889 179.519834 168.940155 179.588898 168.817237 179.711815 
C 168.69432 179.834732 168.625256 180.001467 168.625256 180.175298 
C 168.625256 180.349129 168.69432 180.515864 168.817237 180.638781 
C 168.940155 180.761698 169.106889 180.830762 169.28072 180.830762 
z
" clip-path="url(#pa28246eb7f)" style="fill: #800080; fill-opacity: 0.8; stroke: #800080; stroke-opacity: 0.8"/>
    <path d="M 176.360652 223.587588 
C 176.496754 223.587588 176.6273 223.533514 176.723539 223.437275 
C 176.819777 223.341036 176.873851 223.21049 176.873851 223.074388 
C 176.873851 222.938286 176.819777 222.80774 176.723539 222.711502 
C 176.6273 222.615263 176.496754 222.561189 176.360652 222.561189 
C 176.22455 222.561189 176.094004 222.615263 175.997765 222.711502 
C 175.901526 222.80774 175.847452 222.938286 175.847452 223.074388 
C 175.847452 223.21049 175.901526 223.341036 175.997765 223.437275 
C 176.094004 223.533514 176.22455 223.587588 176.360652 223.587588 
z
" clip-path="url(#pa28246eb7f)" style="fill: #800080; fill-opacity: 0.8; stroke: #800080; stroke-opacity: 0.8"/>
    <path d="M 183.440583 223.136939 
C 183.597511 223.136939 183.748033 223.074591 183.858998 222.963626 
C 183.969963 222.852661 184.032311 222.702139 184.032311 222.545211 
C 184.032311 222.388283 183.969963 222.237761 183.858998 222.126796 
C 183.748033 222.015832 183.597511 221.953483 183.440583 221.953483 
C 183.283655 221.953483 183.133133 222.015832 183.022169 222.126796 
C 182.911204 222.237761 182.848855 222.388283 182.848855 222.545211 
C 182.848855 222.702139 182.911204 222.852661 183.022169 222.963626 
C 183.133133 223.074591 183.283655 223.136939 183.440583 223.136939 
z
" clip-path="url(#pa28246eb7f)" style="fill: #800080; fill-opacity: 0.8; stroke: #800080; stroke-opacity: 0.8"/>
    <path d="M 190.520515 198.71885 
C 190.685007 198.71885 190.842785 198.653496 190.959098 198.537183 
C 191.075412 198.420869 191.140766 198.263091 191.140766 198.098599 
C 191.140766 197.934106 191.075412 197.776329 190.959098 197.660015 
C 190.842785 197.543701 190.685007 197.478347 190.520515 197.478347 
C 190.356022 197.478347 190.198244 197.543701 190.081931 197.660015 
C 189.965617 197.776329 189.900263 197.934106 189.900263 198.098599 
C 189.900263 198.263091 189.965617 198.420869 190.081931 198.537183 
C 190.198244 198.653496 190.356022 198.71885 190.520515 198.71885 
z
" clip-path="url(#pa28246eb7f)" style="fill: #800080; fill-opacity: 0.8; stroke: #800080; stroke-opacity: 0.8"/>
    <path d="M 197.600446 218.219876 
C 197.745935 218.219876 197.885484 218.162073 197.98836 218.059197 
C 198.091236 217.956321 198.149039 217.816771 198.149039 217.671283 
C 198.149039 217.525794 198.091236 217.386245 197.98836 217.283369 
C 197.885484 217.180493 197.745935 217.12269 197.600446 217.12269 
C 197.454957 217.12269 197.315408 217.180493 197.212532 217.283369 
C 197.109656 217.386245 197.051853 217.525794 197.051853 217.671283 
C 197.051853 217.816771 197.109656 217.956321 197.212532 218.059197 
C 197.315408 218.162073 197.454957 218.219876 197.600446 218.219876 
z
" clip-path="url(#pa28246eb7f)" style="fill: #800080; fill-opacity: 0.8; stroke: #800080; stroke-opacity: 0.8"/>
    <path d="M 204.680377 186.307736 
C 204.848282 186.307736 205.009333 186.241027 205.12806 186.1223 
C 205.246787 186.003573 205.313496 185.842522 205.313496 185.674617 
C 205.313496 185.506712 205.246787 185.345661 205.12806 185.226935 
C 205.009333 185.108208 204.848282 185.041498 204.680377 185.041498 
C 204.512472 185.041498 204.351421 185.108208 204.232695 185.226935 
C 204.113968 185.345661 204.047258 185.506712 204.047258 185.674617 
C 204.047258 185.842522 204.113968 186.003573 204.232695 186.1223 
C 204.351421 186.241027 204.512472 186.307736 204.680377 186.307736 
z
" clip-path="url(#pa28246eb7f)" style="fill: #800080; fill-opacity: 0.8; stroke: #800080; stroke-opacity: 0.8"/>
    <path d="M 211.760309 174.419633 
C 211.94931 174.419633 212.130597 174.344542 212.264241 174.210898 
C 212.397885 174.077253 212.472977 173.895967 212.472977 173.706966 
C 212.472977 173.517964 212.397885 173.336678 212.264241 173.203033 
C 212.130597 173.069389 211.94931 172.994298 211.760309 172.994298 
C 211.571307 172.994298 211.390021 173.069389 211.256376 173.203033 
C 211.122732 173.336678 211.047641 173.517964 211.047641 173.706966 
C 211.047641 173.895967 211.122732 174.077253 211.256376 174.210898 
C 211.390021 174.344542 211.571307 174.419633 211.760309 174.419633 
z
" clip-path="url(#pa28246eb7f)" style="fill: #800080; fill-opacity: 0.8; stroke: #800080; stroke-opacity: 0.8"/>
    <path d="M 218.84024 158.21019 
C 219.039415 158.21019 219.230458 158.131057 219.371296 157.990219 
C 219.512134 157.849382 219.591266 157.658338 219.591266 157.459163 
C 219.591266 157.259989 219.512134 157.068945 219.371296 156.928108 
C 219.230458 156.78727 219.039415 156.708137 218.84024 156.708137 
C 218.641066 156.708137 218.450022 156.78727 218.309184 156.928108 
C 218.168347 157.068945 218.089214 157.259989 218.089214 157.459163 
C 218.089214 157.658338 218.168347 157.849382 218.309184 157.990219 
C 218.450022 158.131057 218.641066 158.21019 218.84024 158.21019 
z
" clip-path="url(#pa28246eb7f)" style="fill: #800080; fill-opacity: 0.8; stroke: #800080; stroke-opacity: 0.8"/>
    <path d="M 225.920172 172.399541 
C 226.136983 172.399541 226.344944 172.313401 226.498253 172.160092 
C 226.651562 172.006782 226.737703 171.798822 226.737703 171.58201 
C 226.737703 171.365198 226.651562 171.157237 226.498253 171.003928 
C 226.344944 170.850619 226.136983 170.764479 225.920172 170.764479 
C 225.70336 170.764479 225.495399 170.850619 225.34209 171.003928 
C 225.188781 171.157237 225.10264 171.365198 225.10264 171.58201 
C 225.10264 171.798822 225.188781 172.006782 225.34209 172.160092 
C 225.495399 172.313401 225.70336 172.399541 225.920172 172.399541 
z
" clip-path="url(#pa28246eb7f)" style="fill: #800080; fill-opacity: 0.8; stroke: #800080; stroke-opacity: 0.8"/>
    <path d="M 233.000103 129.522441 
C 233.321531 129.522441 233.629838 129.394736 233.857122 129.167452 
C 234.084406 128.940168 234.21211 128.631862 234.21211 128.310433 
C 234.21211 127.989005 234.084406 127.680699 233.857122 127.453415 
C 233.629838 127.226131 233.321531 127.098426 233.000103 127.098426 
C 232.678675 127.098426 232.370368 127.226131 232.143084 127.453415 
C 231.9158 127.680699 231.788095 127.989005 231.788095 128.310433 
C 231.788095 128.631862 231.9158 128.940168 232.143084 129.167452 
C 232.370368 129.394736 232.678675 129.522441 233.000103 129.522441 
z
" clip-path="url(#pa28246eb7f)" style="fill: #800080; fill-opacity: 0.8; stroke: #800080; stroke-opacity: 0.8"/>
    <path d="M 240.080034 215.232921 
C 240.277961 215.232921 240.467809 215.154284 240.607764 215.014328 
C 240.74772 214.874373 240.826357 214.684525 240.826357 214.486598 
C 240.826357 214.288671 240.74772 214.098824 240.607764 213.958868 
C 240.467809 213.818913 240.277961 213.740275 240.080034 213.740275 
C 239.882107 213.740275 239.69226 213.818913 239.552304 213.958868 
C 239.412349 214.098824 239.333711 214.288671 239.333711 214.486598 
C 239.333711 214.684525 239.412349 214.874373 239.552304 215.014328 
C 239.69226 215.154284 239.882107 215.232921 240.080034 215.232921 
z
" clip-path="url(#pa28246eb7f)" style="fill: #800080; fill-opacity: 0.8; stroke: #800080; stroke-opacity: 0.8"/>
    <path d="M 247.159966 163.379073 
C 247.460328 163.379073 247.748428 163.259738 247.960816 163.04735 
C 248.173204 162.834962 248.292539 162.546861 248.292539 162.246499 
C 248.292539 161.946137 248.173204 161.658037 247.960816 161.445649 
C 247.748428 161.23326 247.460328 161.113925 247.159966 161.113925 
C 246.859604 161.113925 246.571503 161.23326 246.359115 161.445649 
C 246.146727 161.658037 246.027392 161.946137 246.027392 162.246499 
C 246.027392 162.546861 246.146727 162.834962 246.359115 163.04735 
C 246.571503 163.259738 246.859604 163.379073 247.159966 163.379073 
z
" clip-path="url(#pa28246eb7f)" style="fill: #800080; fill-opacity: 0.8; stroke: #800080; stroke-opacity: 0.8"/>
    <path d="M 254.239897 192.583453 
C 254.490498 192.583453 254.730869 192.483888 254.90807 192.306686 
C 255.085272 192.129485 255.184836 191.889114 255.184836 191.638513 
C 255.184836 191.387912 255.085272 191.147542 254.90807 190.97034 
C 254.730869 190.793139 254.490498 190.693574 254.239897 190.693574 
C 253.989296 190.693574 253.748926 190.793139 253.571724 190.97034 
C 253.394522 191.147542 253.294958 191.387912 253.294958 191.638513 
C 253.294958 191.889114 253.394522 192.129485 253.571724 192.306686 
C 253.748926 192.483888 253.989296 192.583453 254.239897 192.583453 
z
" clip-path="url(#pa28246eb7f)" style="fill: #800080; fill-opacity: 0.8; stroke: #800080; stroke-opacity: 0.8"/>
    <path d="M 261.319828 146.640561 
C 261.648254 146.640561 261.963272 146.510076 262.195503 146.277845 
C 262.427735 146.045613 262.55822 145.730595 262.55822 145.40217 
C 262.55822 145.073745 262.427735 144.758727 262.195503 144.526495 
C 261.963272 144.294264 261.648254 144.163779 261.319828 144.163779 
C 260.991403 144.163779 260.676385 144.294264 260.444154 144.526495 
C 260.211922 144.758727 260.081437 145.073745 260.081437 145.40217 
C 260.081437 145.730595 260.211922 146.045613 260.444154 146.277845 
C 260.676385 146.510076 260.991403 146.640561 261.319828 146.640561 
z
" clip-path="url(#pa28246eb7f)" style="fill: #800080; fill-opacity: 0.8; stroke: #800080; stroke-opacity: 0.8"/>
    <path d="M 268.39976 132.084307 
C 268.784567 132.084307 269.153666 131.931421 269.425766 131.659321 
C 269.697866 131.387221 269.850751 131.018123 269.850751 130.633315 
C 269.850751 130.248508 269.697866 129.879409 269.425766 129.607309 
C 269.153666 129.335209 268.784567 129.182324 268.39976 129.182324 
C 268.014952 129.182324 267.645854 129.335209 267.373754 129.607309 
C 267.101654 129.879409 266.948768 130.248508 266.948768 130.633315 
C 266.948768 131.018123 267.101654 131.387221 267.373754 131.659321 
C 267.645854 131.931421 268.014952 132.084307 268.39976 132.084307 
z
" clip-path="url(#pa28246eb7f)" style="fill: #800080; fill-opacity: 0.8; stroke: #800080; stroke-opacity: 0.8"/>
    <path d="M 275.479691 205.997506 
C 275.800761 205.997506 276.108724 205.869943 276.335755 205.642913 
C 276.562786 205.415882 276.690348 205.107919 276.690348 204.786849 
C 276.690348 204.465779 276.562786 204.157816 276.335755 203.930785 
C 276.108724 203.703754 275.800761 203.576192 275.479691 203.576192 
C 275.158621 203.576192 274.850658 203.703754 274.623627 203.930785 
C 274.396597 204.157816 274.269034 204.465779 274.269034 204.786849 
C 274.269034 205.107919 274.396597 205.415882 274.623627 205.642913 
C 274.850658 205.869943 275.158621 205.997506 275.479691 205.997506 
z
" clip-path="url(#pa28246eb7f)" style="fill: #800080; fill-opacity: 0.8; stroke: #800080; stroke-opacity: 0.8"/>
    <path d="M 282.559623 155.862236 
C 282.908162 155.862236 283.242473 155.72376 283.488927 155.477306 
C 283.735381 155.230852 283.873857 154.896541 283.873857 154.548002 
C 283.873857 154.199462 283.735381 153.865152 283.488927 153.618697 
C 283.242473 153.372243 282.908162 153.233767 282.559623 153.233767 
C 282.211084 153.233767 281.876773 153.372243 281.630318 153.618697 
C 281.383864 153.865152 281.245388 154.199462 281.245388 154.548002 
C 281.245388 154.896541 281.383864 155.230852 281.630318 155.477306 
C 281.876773 155.72376 282.211084 155.862236 282.559623 155.862236 
z
" clip-path="url(#pa28246eb7f)" style="fill: #800080; fill-opacity: 0.8; stroke: #800080; stroke-opacity: 0.8"/>
    <path d="M 289.639554 178.565296 
C 289.991916 178.565296 290.329894 178.425301 290.579051 178.176143 
C 290.828209 177.926986 290.968204 177.589008 290.968204 177.236646 
C 290.968204 176.884284 290.828209 176.546307 290.579051 176.297149 
C 290.329894 176.047992 289.991916 175.907997 289.639554 175.907997 
C 289.287192 175.907997 288.949214 176.047992 288.700057 176.297149 
C 288.450899 176.546307 288.310904 176.884284 288.310904 177.236646 
C 288.310904 177.589008 288.450899 177.926986 288.700057 178.176143 
C 288.949214 178.425301 289.287192 178.565296 289.639554 178.565296 
z
" clip-path="url(#pa28246eb7f)" style="fill: #800080; fill-opacity: 0.8; stroke: #800080; stroke-opacity: 0.8"/>
    <path d="M 296.719485 128.771139 
C 297.221494 128.771139 297.703009 128.571689 298.057982 128.216716 
C 298.412956 127.861742 298.612406 127.380227 298.612406 126.878219 
C 298.612406 126.37621 298.412956 125.894695 298.057982 125.539722 
C 297.703009 125.184748 297.221494 124.985298 296.719485 124.985298 
C 296.217477 124.985298 295.735962 125.184748 295.380989 125.539722 
C 295.026015 125.894695 294.826565 126.37621 294.826565 126.878219 
C 294.826565 127.380227 295.026015 127.861742 295.380989 128.216716 
C 295.735962 128.571689 296.217477 128.771139 296.719485 128.771139 
z
" clip-path="url(#pa28246eb7f)" style="fill: #800080; fill-opacity: 0.8; stroke: #800080; stroke-opacity: 0.8"/>
    <path d="M 303.799417 127.890397 
C 304.30916 127.890397 304.798095 127.687873 305.158538 127.32743 
C 305.518981 126.966987 305.721505 126.478053 305.721505 125.968309 
C 305.721505 125.458565 305.518981 124.969631 305.158538 124.609188 
C 304.798095 124.248744 304.30916 124.046221 303.799417 124.046221 
C 303.289673 124.046221 302.800739 124.248744 302.440295 124.609188 
C 302.079852 124.969631 301.877329 125.458565 301.877329 125.968309 
C 301.877329 126.478053 302.079852 126.966987 302.440295 127.32743 
C 302.800739 127.687873 303.289673 127.890397 303.799417 127.890397 
z
" clip-path="url(#pa28246eb7f)" style="fill: #800080; fill-opacity: 0.8; stroke: #800080; stroke-opacity: 0.8"/>
    <path d="M 310.879348 151.88502 
C 311.273962 151.88502 311.652466 151.728238 311.931499 151.449204 
C 312.210533 151.170171 312.367315 150.791666 312.367315 150.397053 
C 312.367315 150.00244 312.210533 149.623936 311.931499 149.344902 
C 311.652466 149.065868 311.273962 148.909087 310.879348 148.909087 
C 310.484735 148.909087 310.106231 149.065868 309.827197 149.344902 
C 309.548163 149.623936 309.391382 150.00244 309.391382 150.397053 
C 309.391382 150.791666 309.548163 151.170171 309.827197 151.449204 
C 310.106231 151.728238 310.484735 151.88502 310.879348 151.88502 
z
" clip-path="url(#pa28246eb7f)" style="fill: #800080; fill-opacity: 0.8; stroke: #800080; stroke-opacity: 0.8"/>
    <path d="M 317.95928 122.771071 
C 318.468098 122.771071 318.956146 122.568916 319.315935 122.209126 
C 319.675724 121.849337 319.87788 121.36129 319.87788 120.852471 
C 319.87788 120.343652 319.675724 119.855605 319.315935 119.495816 
C 318.956146 119.136026 318.468098 118.933871 317.95928 118.933871 
C 317.450461 118.933871 316.962413 119.136026 316.602624 119.495816 
C 316.242835 119.855605 316.040679 120.343652 316.040679 120.852471 
C 316.040679 121.36129 316.242835 121.849337 316.602624 122.209126 
C 316.962413 122.568916 317.450461 122.771071 317.95928 122.771071 
z
" clip-path="url(#pa28246eb7f)" style="fill: #800080; fill-opacity: 0.8; stroke: #800080; stroke-opacity: 0.8"/>
    <path d="M 325.039211 113.27961 
C 325.603268 113.27961 326.144299 113.055508 326.543148 112.656659 
C 326.941997 112.25781 327.1661 111.716779 327.1661 111.152722 
C 327.1661 110.588664 326.941997 110.047633 326.543148 109.648784 
C 326.144299 109.249935 325.603268 109.025833 325.039211 109.025833 
C 324.475154 109.025833 323.934123 109.249935 323.535274 109.648784 
C 323.136425 110.047633 322.912322 110.588664 322.912322 111.152722 
C 322.912322 111.716779 323.136425 112.25781 323.535274 112.656659 
C 323.934123 113.055508 324.475154 113.27961 325.039211 113.27961 
z
" clip-path="url(#pa28246eb7f)" style="fill: #800080; fill-opacity: 0.8; stroke: #800080; stroke-opacity: 0.8"/>
    <path d="M 332.119142 127.602374 
C 332.661128 127.602374 333.180988 127.387041 333.56423 127.003799 
C 333.947472 126.620558 334.162805 126.100698 334.162805 125.558712 
C 334.162805 125.016726 333.947472 124.496866 333.56423 124.113624 
C 333.180988 123.730383 332.661128 123.51505 332.119142 123.51505 
C 331.577157 123.51505 331.057297 123.730383 330.674055 124.113624 
C 330.290813 124.496866 330.07548 125.016726 330.07548 125.558712 
C 330.07548 126.100698 330.290813 126.620558 330.674055 127.003799 
C 331.057297 127.387041 331.577157 127.602374 332.119142 127.602374 
z
" clip-path="url(#pa28246eb7f)" style="fill: #800080; fill-opacity: 0.8; stroke: #800080; stroke-opacity: 0.8"/>
    <path d="M 339.199074 122.46715 
C 339.755237 122.46715 340.288697 122.246184 340.681964 121.852917 
C 341.075231 121.45965 341.296198 120.92619 341.296198 120.370026 
C 341.296198 119.813863 341.075231 119.280403 340.681964 118.887136 
C 340.288697 118.493869 339.755237 118.272903 339.199074 118.272903 
C 338.64291 118.272903 338.10945 118.493869 337.716183 118.887136 
C 337.322916 119.280403 337.10195 119.813863 337.10195 120.370026 
C 337.10195 120.92619 337.322916 121.45965 337.716183 121.852917 
C 338.10945 122.246184 338.64291 122.46715 339.199074 122.46715 
z
" clip-path="url(#pa28246eb7f)" style="fill: #800080; fill-opacity: 0.8; stroke: #800080; stroke-opacity: 0.8"/>
    <path d="M 346.279005 104.797898 
C 346.922956 104.797898 347.54062 104.542053 347.995962 104.086711 
C 348.451304 103.631369 348.707149 103.013706 348.707149 102.369754 
C 348.707149 101.725803 348.451304 101.10814 347.995962 100.652798 
C 347.54062 100.197455 346.922956 99.941611 346.279005 99.941611 
C 345.635054 99.941611 345.017391 100.197455 344.562048 100.652798 
C 344.106706 101.10814 343.850862 101.725803 343.850862 102.369754 
C 343.850862 103.013706 344.106706 103.631369 344.562048 104.086711 
C 345.017391 104.542053 345.635054 104.797898 346.279005 104.797898 
z
" clip-path="url(#pa28246eb7f)" style="fill: #800080; fill-opacity: 0.8; stroke: #800080; stroke-opacity: 0.8"/>
    <path d="M 353.358937 106.066424 
C 354.050606 106.066424 354.714041 105.79162 355.203125 105.302536 
C 355.69221 104.813451 355.967013 104.150017 355.967013 103.458347 
C 355.967013 102.766678 355.69221 102.103243 355.203125 101.614159 
C 354.714041 101.125074 354.050606 100.850271 353.358937 100.850271 
C 352.667267 100.850271 352.003833 101.125074 351.514748 101.614159 
C 351.025664 102.103243 350.75086 102.766678 350.75086 103.458347 
C 350.75086 104.150017 351.025664 104.813451 351.514748 105.302536 
C 352.003833 105.79162 352.667267 106.066424 353.358937 106.066424 
z
" clip-path="url(#pa28246eb7f)" style="fill: #800080; fill-opacity: 0.8; stroke: #800080; stroke-opacity: 0.8"/>
    <path d="M 360.438868 122.195558 
C 361.037828 122.195558 361.612336 121.957588 362.035865 121.53406 
C 362.459393 121.110531 362.697362 120.536023 362.697362 119.937063 
C 362.697362 119.338103 362.459393 118.763595 362.035865 118.340067 
C 361.612336 117.916538 361.037828 117.678569 360.438868 117.678569 
C 359.839908 117.678569 359.2654 117.916538 358.841871 118.340067 
C 358.418343 118.763595 358.180374 119.338103 358.180374 119.937063 
C 358.180374 120.536023 358.418343 121.110531 358.841871 121.53406 
C 359.2654 121.957588 359.839908 122.195558 360.438868 122.195558 
z
" clip-path="url(#pa28246eb7f)" style="fill: #800080; fill-opacity: 0.8; stroke: #800080; stroke-opacity: 0.8"/>
    <path d="M 367.518799 102.311821 
C 368.253249 102.311821 368.957716 102.020021 369.47705 101.500687 
C 369.996384 100.981353 370.288184 100.276886 370.288184 99.542436 
C 370.288184 98.807987 369.996384 98.103519 369.47705 97.584185 
C 368.957716 97.064851 368.253249 96.773051 367.518799 96.773051 
C 366.78435 96.773051 366.079883 97.064851 365.560548 97.584185 
C 365.041214 98.103519 364.749414 98.807987 364.749414 99.542436 
C 364.749414 100.276886 365.041214 100.981353 365.560548 101.500687 
C 366.079883 102.020021 366.78435 102.311821 367.518799 102.311821 
z
" clip-path="url(#pa28246eb7f)" style="fill: #800080; fill-opacity: 0.8; stroke: #800080; stroke-opacity: 0.8"/>
    <path d="M 374.598731 88.400185 
C 375.387371 88.400185 376.143817 88.086855 376.70147 87.529202 
C 377.259123 86.971549 377.572454 86.215103 377.572454 85.426462 
C 377.572454 84.637822 377.259123 83.881376 376.70147 83.323723 
C 376.143817 82.76607 375.387371 82.452739 374.598731 82.452739 
C 373.81009 82.452739 373.053644 82.76607 372.495991 83.323723 
C 371.938338 83.881376 371.625008 84.637822 371.625008 85.426462 
C 371.625008 86.215103 371.938338 86.971549 372.495991 87.529202 
C 373.053644 88.086855 373.81009 88.400185 374.598731 88.400185 
z
" clip-path="url(#pa28246eb7f)" style="fill: #800080; fill-opacity: 0.8; stroke: #800080; stroke-opacity: 0.8"/>
    <path d="M 381.678662 76.684226 
C 382.474271 76.684226 383.237402 76.368127 383.799982 75.805547 
C 384.362563 75.242966 384.678662 74.479835 384.678662 73.684226 
C 384.678662 72.888617 384.362563 72.125487 383.799982 71.562906 
C 383.237402 71.000325 382.474271 70.684226 381.678662 70.684226 
C 380.883053 70.684226 380.119922 71.000325 379.557342 71.562906 
C 378.994761 72.125487 378.678662 72.888617 378.678662 73.684226 
C 378.678662 74.479835 378.994761 75.242966 379.557342 75.805547 
C 380.119922 76.368127 380.883053 76.684226 381.678662 76.684226 
z
" clip-path="url(#pa28246eb7f)" style="fill: #800080; fill-opacity: 0.8; stroke: #800080; stroke-opacity: 0.8"/>
    <path d="M 388.758593 82.522339 
C 389.544903 82.522339 390.299113 82.209935 390.855118 81.65393 
C 391.411123 81.097926 391.723527 80.343715 391.723527 79.557406 
C 391.723527 78.771096 391.411123 78.016886 390.855118 77.460881 
C 390.299113 76.904877 389.544903 76.592473 388.758593 76.592473 
C 387.972284 76.592473 387.218074 76.904877 386.662069 77.460881 
C 386.106064 78.016886 385.79366 78.771096 385.79366 79.557406 
C 385.79366 80.343715 386.106064 81.097926 386.662069 81.65393 
C 387.218074 82.209935 387.972284 82.522339 388.758593 82.522339 
z
" clip-path="url(#pa28246eb7f)" style="fill: #800080; fill-opacity: 0.8; stroke: #800080; stroke-opacity: 0.8"/>
    <path d="M 395.838525 76.35967 
C 396.590345 76.35967 397.311473 76.060968 397.84309 75.529351 
C 398.374707 74.997734 398.673409 74.276606 398.673409 73.524786 
C 398.673409 72.772966 398.374707 72.051837 397.84309 71.52022 
C 397.311473 70.988603 396.590345 70.689902 395.838525 70.689902 
C 395.086705 70.689902 394.365576 70.988603 393.833959 71.52022 
C 393.302342 72.051837 393.003641 72.772966 393.003641 73.524786 
C 393.003641 74.276606 393.302342 74.997734 393.833959 75.529351 
C 394.365576 76.060968 395.086705 76.35967 395.838525 76.35967 
z
" clip-path="url(#pa28246eb7f)" style="fill: #800080; fill-opacity: 0.8; stroke: #800080; stroke-opacity: 0.8"/>
    <path d="M 402.918456 68.316238 
C 403.652796 68.316238 404.357157 68.024482 404.876414 67.505225 
C 405.39567 66.985969 405.687426 66.281607 405.687426 65.547268 
C 405.687426 64.812928 405.39567 64.108566 404.876414 63.58931 
C 404.357157 63.070054 403.652796 62.778297 402.918456 62.778297 
C 402.184117 62.778297 401.479755 63.070054 400.960499 63.58931 
C 400.441242 64.108566 400.149486 64.812928 400.149486 65.547268 
C 400.149486 66.281607 400.441242 66.985969 400.960499 67.505225 
C 401.479755 68.024482 402.184117 68.316238 402.918456 68.316238 
z
" clip-path="url(#pa28246eb7f)" style="fill: #800080; fill-opacity: 0.8; stroke: #800080; stroke-opacity: 0.8"/>
    <path d="M 409.998388 60.012658 
C 410.60069 60.012658 411.178404 59.77336 411.604296 59.347468 
C 412.030188 58.921577 412.269485 58.343862 412.269485 57.74156 
C 412.269485 57.139258 412.030188 56.561544 411.604296 56.135652 
C 411.178404 55.70976 410.60069 55.470463 409.998388 55.470463 
C 409.396086 55.470463 408.818371 55.70976 408.392479 56.135652 
C 407.966587 56.561544 407.72729 57.139258 407.72729 57.74156 
C 407.72729 58.343862 407.966587 58.921577 408.392479 59.347468 
C 408.818371 59.77336 409.396086 60.012658 409.998388 60.012658 
z
" clip-path="url(#pa28246eb7f)" style="fill: #800080; fill-opacity: 0.8; stroke: #800080; stroke-opacity: 0.8"/>
    <path d="M 417.078319 59.48159 
C 417.63091 59.48159 418.160942 59.262043 418.551683 58.871302 
C 418.942424 58.480562 419.16197 57.950529 419.16197 57.397939 
C 419.16197 56.845348 418.942424 56.315315 418.551683 55.924575 
C 418.160942 55.533834 417.63091 55.314287 417.078319 55.314287 
C 416.525728 55.314287 415.995696 55.533834 415.604955 55.924575 
C 415.214214 56.315315 414.994668 56.845348 414.994668 57.397939 
C 414.994668 57.950529 415.214214 58.480562 415.604955 58.871302 
C 415.995696 59.262043 416.525728 59.48159 417.078319 59.48159 
z
" clip-path="url(#pa28246eb7f)" style="fill: #800080; fill-opacity: 0.8; stroke: #800080; stroke-opacity: 0.8"/>
    <path d="M 424.15825 52.885705 
C 424.646759 52.885705 425.115325 52.691619 425.460753 52.346191 
C 425.806181 52.000763 426.000267 51.532197 426.000267 51.043689 
C 426.000267 50.55518 425.806181 50.086614 425.460753 49.741186 
C 425.115325 49.395758 424.646759 49.201672 424.15825 49.201672 
C 423.669742 49.201672 423.201176 49.395758 422.855748 49.741186 
C 422.51032 50.086614 422.316234 50.55518 422.316234 51.043689 
C 422.316234 51.532197 422.51032 52.000763 422.855748 52.346191 
C 423.201176 52.691619 423.669742 52.885705 424.15825 52.885705 
z
" clip-path="url(#pa28246eb7f)" style="fill: #800080; fill-opacity: 0.8; stroke: #800080; stroke-opacity: 0.8"/>
    <path d="M 431.238182 40.105186 
C 431.589851 40.105186 431.927165 39.965467 432.175833 39.716799 
C 432.424501 39.468131 432.564221 39.130817 432.564221 38.779148 
C 432.564221 38.427478 432.424501 38.090165 432.175833 37.841497 
C 431.927165 37.592829 431.589851 37.453109 431.238182 37.453109 
C 430.886512 37.453109 430.549199 37.592829 430.300531 37.841497 
C 430.051863 38.090165 429.912143 38.427478 429.912143 38.779148 
C 429.912143 39.130817 430.051863 39.468131 430.300531 39.716799 
C 430.549199 39.965467 430.886512 40.105186 431.238182 40.105186 
z
" clip-path="url(#pa28246eb7f)" style="fill: #800080; fill-opacity: 0.8; stroke: #800080; stroke-opacity: 0.8"/>
   </g>
   <g id="PolyCollection_1">
    <defs>
     <path id="m2cba264f15" d="M 56.001818 -90.018518 
L 56.001818 -61.733616 
L 59.792084 -64.055503 
L 63.582351 -66.37739 
L 67.372617 -68.700049 
L 71.162883 -71.023076 
L 74.95315 -73.346103 
L 78.743416 -75.66913 
L 82.533682 -77.992157 
L 86.323949 -80.315184 
L 90.114215 -82.656677 
L 93.904481 -85.001664 
L 97.694747 -87.34665 
L 101.485014 -89.691636 
L 105.27528 -92.036623 
L 109.065546 -94.381609 
L 112.855813 -96.632309 
L 116.646079 -98.894436 
L 120.436345 -101.214917 
L 124.226612 -103.535397 
L 128.016878 -105.855878 
L 131.807144 -108.164149 
L 135.59741 -110.336864 
L 139.387677 -112.563082 
L 143.177943 -114.919279 
L 146.968209 -117.142459 
L 150.758476 -119.415452 
L 154.548742 -121.766579 
L 158.339008 -124.064628 
L 162.129275 -126.357335 
L 165.919541 -128.619693 
L 169.709807 -130.889668 
L 173.500073 -133.271947 
L 177.29034 -135.548716 
L 181.080606 -137.794264 
L 184.870872 -140.028369 
L 188.661139 -142.263932 
L 192.451405 -144.499494 
L 196.241671 -146.75179 
L 200.031938 -149.03363 
L 203.822204 -151.345953 
L 207.61247 -153.584191 
L 211.402736 -155.84343 
L 215.193003 -158.082134 
L 218.983269 -160.417336 
L 222.773535 -162.693424 
L 226.563802 -164.928588 
L 230.354068 -167.204654 
L 234.144334 -169.421108 
L 237.934601 -171.481471 
L 241.724867 -173.673578 
L 245.515133 -175.838961 
L 249.305399 -178.206288 
L 253.095666 -180.463541 
L 256.885932 -182.645339 
L 260.676198 -184.762172 
L 264.466465 -187.008062 
L 268.256731 -189.25255 
L 272.046997 -191.497965 
L 275.837264 -193.627662 
L 279.62753 -195.77181 
L 283.417796 -198.032734 
L 287.208062 -200.205415 
L 290.998329 -202.367233 
L 294.788595 -204.528675 
L 298.578861 -206.687535 
L 302.369128 -208.801675 
L 306.159394 -210.66928 
L 309.94966 -212.549519 
L 313.739927 -214.4632 
L 317.530193 -216.543578 
L 321.320459 -218.595299 
L 325.110725 -220.708244 
L 328.900992 -222.793916 
L 332.691258 -224.958608 
L 336.481524 -226.959945 
L 340.271791 -229.049476 
L 344.062057 -231.125342 
L 347.852323 -233.101983 
L 351.64259 -235.082084 
L 355.432856 -236.985803 
L 359.223122 -238.924478 
L 363.013388 -241.039509 
L 366.803655 -243.098898 
L 370.593921 -245.149669 
L 374.384187 -247.190367 
L 378.174454 -249.250308 
L 381.96472 -251.333924 
L 385.754986 -253.443387 
L 389.545253 -255.502212 
L 393.335519 -257.578367 
L 397.125785 -259.546094 
L 400.916051 -261.460426 
L 404.706318 -263.348985 
L 408.496584 -265.252663 
L 412.28685 -267.147817 
L 416.077117 -269.042971 
L 419.867383 -270.940475 
L 423.657649 -272.969503 
L 427.447916 -275.050147 
L 431.238182 -277.130791 
L 431.238182 -295.086064 
L 431.238182 -295.086064 
L 427.447916 -292.798278 
L 423.657649 -290.512562 
L 419.867383 -288.225811 
L 416.077117 -285.900012 
L 412.28685 -283.651892 
L 408.496584 -281.368363 
L 404.706318 -279.083951 
L 400.916051 -276.832029 
L 397.125785 -274.64835 
L 393.335519 -272.464671 
L 389.545253 -270.280181 
L 385.754986 -267.98732 
L 381.96472 -265.682357 
L 378.174454 -263.380066 
L 374.384187 -261.151766 
L 370.593921 -258.990885 
L 366.803655 -256.831725 
L 363.013388 -254.655322 
L 359.223122 -252.383935 
L 355.432856 -250.197339 
L 351.64259 -248.073487 
L 347.852323 -245.948053 
L 344.062057 -243.799401 
L 340.271791 -241.608421 
L 336.481524 -239.397534 
L 332.691258 -237.277039 
L 328.900992 -235.196621 
L 325.110725 -233.091577 
L 321.320459 -230.933499 
L 317.530193 -228.802334 
L 313.739927 -226.736795 
L 309.94966 -224.586885 
L 306.159394 -222.471778 
L 302.369128 -220.338818 
L 298.578861 -218.244152 
L 294.788595 -216.075213 
L 290.998329 -213.947137 
L 287.208062 -211.811959 
L 283.417796 -209.759839 
L 279.62753 -207.737038 
L 275.837264 -205.569966 
L 272.046997 -203.446351 
L 268.256731 -201.373906 
L 264.466465 -199.413645 
L 260.676198 -197.28793 
L 256.885932 -195.161336 
L 253.095666 -193.037775 
L 249.305399 -190.913328 
L 245.515133 -188.81611 
L 241.724867 -186.860995 
L 237.934601 -184.927333 
L 234.144334 -182.994147 
L 230.354068 -180.998653 
L 226.563802 -178.989156 
L 222.773535 -176.896361 
L 218.983269 -174.803021 
L 215.193003 -172.835008 
L 211.402736 -170.845512 
L 207.61247 -168.848824 
L 203.822204 -166.785008 
L 200.031938 -164.798282 
L 196.241671 -162.837224 
L 192.451405 -160.77238 
L 188.661139 -158.717041 
L 184.870872 -156.717463 
L 181.080606 -154.672628 
L 177.29034 -152.647953 
L 173.500073 -150.689681 
L 169.709807 -148.727019 
L 165.919541 -146.729764 
L 162.129275 -144.734074 
L 158.339008 -142.735147 
L 154.548742 -140.674291 
L 150.758476 -138.597671 
L 146.968209 -136.538755 
L 143.177943 -134.669757 
L 139.387677 -132.675442 
L 135.59741 -130.634209 
L 131.807144 -128.629552 
L 128.016878 -126.706174 
L 124.226612 -124.766145 
L 120.436345 -122.864081 
L 116.646079 -120.861108 
L 112.855813 -118.849419 
L 109.065546 -116.954892 
L 105.27528 -115.064014 
L 101.485014 -113.089972 
L 97.694747 -111.088208 
L 93.904481 -109.132517 
L 90.114215 -107.200731 
L 86.323949 -105.315016 
L 82.533682 -103.496886 
L 78.743416 -101.67859 
L 74.95315 -99.800261 
L 71.162883 -97.843912 
L 67.372617 -95.887343 
L 63.582351 -93.966974 
L 59.792084 -91.974867 
L 56.001818 -90.018518 
z
" style="stroke: #ffffff; stroke-opacity: 0.15"/>
    </defs>
    <g clip-path="url(#pa28246eb7f)">
     <use xlink:href="#m2cba264f15" x="0" y="345.6" style="fill: #800080; fill-opacity: 0.15; stroke: #ffffff; stroke-opacity: 0.15"/>
    </g>
   </g>
   <g id="line2d_1">
    <path d="M 56.001818 270.675618 
L 59.792084 268.531027 
L 63.582351 266.386437 
L 67.372617 264.241847 
L 71.162883 262.097256 
L 74.95315 259.952666 
L 78.743416 257.808076 
L 82.533682 255.663486 
L 86.323949 253.518895 
L 90.114215 251.374305 
L 93.904481 249.229715 
L 97.694747 247.085124 
L 101.485014 244.940534 
L 105.27528 242.795944 
L 109.065546 240.651353 
L 112.855813 238.506763 
L 116.646079 236.362173 
L 120.436345 234.217582 
L 124.226612 232.072992 
L 128.016878 229.928402 
L 131.807144 227.783812 
L 135.59741 225.639221 
L 139.387677 223.494631 
L 143.177943 221.350041 
L 146.968209 219.20545 
L 150.758476 217.06086 
L 154.548742 214.91627 
L 158.339008 212.771679 
L 162.129275 210.627089 
L 165.919541 208.482499 
L 169.709807 206.337909 
L 173.500073 204.193318 
L 177.29034 202.048728 
L 181.080606 199.904138 
L 184.870872 197.759547 
L 188.661139 195.614957 
L 192.451405 193.470367 
L 196.241671 191.325776 
L 200.031938 189.181186 
L 203.822204 187.036596 
L 207.61247 184.892006 
L 211.402736 182.747415 
L 215.193003 180.602825 
L 218.983269 178.458235 
L 222.773535 176.313644 
L 226.563802 174.169054 
L 230.354068 172.024464 
L 234.144334 169.879873 
L 237.934601 167.735283 
L 241.724867 165.590693 
L 245.515133 163.446102 
L 249.305399 161.301512 
L 253.095666 159.156922 
L 256.885932 157.012332 
L 260.676198 154.867741 
L 264.466465 152.723151 
L 268.256731 150.578561 
L 272.046997 148.43397 
L 275.837264 146.28938 
L 279.62753 144.14479 
L 283.417796 142.000199 
L 287.208062 139.855609 
L 290.998329 137.711019 
L 294.788595 135.566429 
L 298.578861 133.421838 
L 302.369128 131.277248 
L 306.159394 129.132658 
L 309.94966 126.988067 
L 313.739927 124.843477 
L 317.530193 122.698887 
L 321.320459 120.554296 
L 325.110725 118.409706 
L 328.900992 116.265116 
L 332.691258 114.120525 
L 336.481524 111.975935 
L 340.271791 109.831345 
L 344.062057 107.686755 
L 347.852323 105.542164 
L 351.64259 103.397574 
L 355.432856 101.252984 
L 359.223122 99.108393 
L 363.013388 96.963803 
L 366.803655 94.819213 
L 370.593921 92.674622 
L 374.384187 90.530032 
L 378.174454 88.385442 
L 381.96472 86.240852 
L 385.754986 84.096261 
L 389.545253 81.951671 
L 393.335519 79.807081 
L 397.125785 77.66249 
L 400.916051 75.5179 
L 404.706318 73.37331 
L 408.496584 71.228719 
L 412.28685 69.084129 
L 416.077117 66.939539 
L 419.867383 64.794949 
L 423.657649 62.650358 
L 427.447916 60.505768 
L 431.238182 58.361178 
" clip-path="url(#pa28246eb7f)" style="fill: none; stroke: #800080; stroke-width: 2.25; stroke-linecap: round"/>
   </g>
   <g id="patch_3">
    <path d="M 37.24 317.72 
L 37.24 25.49625 
" style="fill: none; stroke: #ffffff; stroke-width: 0.8; stroke-linejoin: miter; stroke-linecap: square"/>
   </g>
   <g id="patch_4">
    <path d="M 450 317.72 
L 450 25.49625 
" style="fill: none; stroke: #ffffff; stroke-width: 0.8; stroke-linejoin: miter; stroke-linecap: square"/>
   </g>
   <g id="patch_5">
    <path d="M 37.24 317.72 
L 450 317.72 
" style="fill: none; stroke: #ffffff; stroke-width: 0.8; stroke-linejoin: miter; stroke-linecap: square"/>
   </g>
   <g id="patch_6">
    <path d="M 37.24 25.49625 
L 450 25.49625 
" style="fill: none; stroke: #ffffff; stroke-width: 0.8; stroke-linejoin: miter; stroke-linecap: square"/>
   </g>
   <g id="text_15">
    <!-- Yearly average ratings -->
    <g style="fill: #262626" transform="translate(184.139375 19.49625) scale(0.12 -0.12)">
     <defs>
      <path id="ArialMT-59" d="M 1784 0 
L 1784 1941 
L 19 4581 
L 756 4581 
L 1659 3200 
Q 1909 2813 2125 2425 
Q 2331 2784 2625 3234 
L 3513 4581 
L 4219 4581 
L 2391 1941 
L 2391 0 
L 1784 0 
z
" transform="scale(0.015625)"/>
      <path id="ArialMT-65" d="M 2694 1069 
L 3275 997 
Q 3138 488 2766 206 
Q 2394 -75 1816 -75 
Q 1088 -75 661 373 
Q 234 822 234 1631 
Q 234 2469 665 2931 
Q 1097 3394 1784 3394 
Q 2450 3394 2872 2941 
Q 3294 2488 3294 1666 
Q 3294 1616 3291 1516 
L 816 1516 
Q 847 969 1125 678 
Q 1403 388 1819 388 
Q 2128 388 2347 550 
Q 2566 713 2694 1069 
z
M 847 1978 
L 2700 1978 
Q 2663 2397 2488 2606 
Q 2219 2931 1791 2931 
Q 1403 2931 1139 2672 
Q 875 2413 847 1978 
z
" transform="scale(0.015625)"/>
      <path id="ArialMT-61" d="M 2588 409 
Q 2275 144 1986 34 
Q 1697 -75 1366 -75 
Q 819 -75 525 192 
Q 231 459 231 875 
Q 231 1119 342 1320 
Q 453 1522 633 1644 
Q 813 1766 1038 1828 
Q 1203 1872 1538 1913 
Q 2219 1994 2541 2106 
Q 2544 2222 2544 2253 
Q 2544 2597 2384 2738 
Q 2169 2928 1744 2928 
Q 1347 2928 1158 2789 
Q 969 2650 878 2297 
L 328 2372 
Q 403 2725 575 2942 
Q 747 3159 1072 3276 
Q 1397 3394 1825 3394 
Q 2250 3394 2515 3294 
Q 2781 3194 2906 3042 
Q 3031 2891 3081 2659 
Q 3109 2516 3109 2141 
L 3109 1391 
Q 3109 606 3145 398 
Q 3181 191 3288 0 
L 2700 0 
Q 2613 175 2588 409 
z
M 2541 1666 
Q 2234 1541 1622 1453 
Q 1275 1403 1131 1340 
Q 988 1278 909 1158 
Q 831 1038 831 891 
Q 831 666 1001 516 
Q 1172 366 1500 366 
Q 1825 366 2078 508 
Q 2331 650 2450 897 
Q 2541 1088 2541 1459 
L 2541 1666 
z
" transform="scale(0.015625)"/>
      <path id="ArialMT-72" d="M 416 0 
L 416 3319 
L 922 3319 
L 922 2816 
Q 1116 3169 1280 3281 
Q 1444 3394 1641 3394 
Q 1925 3394 2219 3213 
L 2025 2691 
Q 1819 2813 1613 2813 
Q 1428 2813 1281 2702 
Q 1134 2591 1072 2394 
Q 978 2094 978 1738 
L 978 0 
L 416 0 
z
" transform="scale(0.015625)"/>
      <path id="ArialMT-6c" d="M 409 0 
L 409 4581 
L 972 4581 
L 972 0 
L 409 0 
z
" transform="scale(0.015625)"/>
      <path id="ArialMT-79" d="M 397 -1278 
L 334 -750 
Q 519 -800 656 -800 
Q 844 -800 956 -737 
Q 1069 -675 1141 -563 
Q 1194 -478 1313 -144 
Q 1328 -97 1363 -6 
L 103 3319 
L 709 3319 
L 1400 1397 
Q 1534 1031 1641 628 
Q 1738 1016 1872 1384 
L 2581 3319 
L 3144 3319 
L 1881 -56 
Q 1678 -603 1566 -809 
Q 1416 -1088 1222 -1217 
Q 1028 -1347 759 -1347 
Q 597 -1347 397 -1278 
z
" transform="scale(0.015625)"/>
      <path id="ArialMT-20" transform="scale(0.015625)"/>
      <path id="ArialMT-76" d="M 1344 0 
L 81 3319 
L 675 3319 
L 1388 1331 
Q 1503 1009 1600 663 
Q 1675 925 1809 1294 
L 2547 3319 
L 3125 3319 
L 1869 0 
L 1344 0 
z
" transform="scale(0.015625)"/>
      <path id="ArialMT-67" d="M 319 -275 
L 866 -356 
Q 900 -609 1056 -725 
Q 1266 -881 1628 -881 
Q 2019 -881 2231 -725 
Q 2444 -569 2519 -288 
Q 2563 -116 2559 434 
Q 2191 0 1641 0 
Q 956 0 581 494 
Q 206 988 206 1678 
Q 206 2153 378 2554 
Q 550 2956 876 3175 
Q 1203 3394 1644 3394 
Q 2231 3394 2613 2919 
L 2613 3319 
L 3131 3319 
L 3131 450 
Q 3131 -325 2973 -648 
Q 2816 -972 2473 -1159 
Q 2131 -1347 1631 -1347 
Q 1038 -1347 672 -1080 
Q 306 -813 319 -275 
z
M 784 1719 
Q 784 1066 1043 766 
Q 1303 466 1694 466 
Q 2081 466 2343 764 
Q 2606 1063 2606 1700 
Q 2606 2309 2336 2618 
Q 2066 2928 1684 2928 
Q 1309 2928 1046 2623 
Q 784 2319 784 1719 
z
" transform="scale(0.015625)"/>
      <path id="ArialMT-74" d="M 1650 503 
L 1731 6 
Q 1494 -44 1306 -44 
Q 1000 -44 831 53 
Q 663 150 594 308 
Q 525 466 525 972 
L 525 2881 
L 113 2881 
L 113 3319 
L 525 3319 
L 525 4141 
L 1084 4478 
L 1084 3319 
L 1650 3319 
L 1650 2881 
L 1084 2881 
L 1084 941 
Q 1084 700 1114 631 
Q 1144 563 1211 522 
Q 1278 481 1403 481 
Q 1497 481 1650 503 
z
" transform="scale(0.015625)"/>
      <path id="ArialMT-69" d="M 425 3934 
L 425 4581 
L 988 4581 
L 988 3934 
L 425 3934 
z
M 425 0 
L 425 3319 
L 988 3319 
L 988 0 
L 425 0 
z
" transform="scale(0.015625)"/>
      <path id="ArialMT-6e" d="M 422 0 
L 422 3319 
L 928 3319 
L 928 2847 
Q 1294 3394 1984 3394 
Q 2284 3394 2536 3286 
Q 2788 3178 2913 3003 
Q 3038 2828 3088 2588 
Q 3119 2431 3119 2041 
L 3119 0 
L 2556 0 
L 2556 2019 
Q 2556 2363 2490 2533 
Q 2425 2703 2258 2804 
Q 2091 2906 1866 2906 
Q 1506 2906 1245 2678 
Q 984 2450 984 1813 
L 984 0 
L 422 0 
z
" transform="scale(0.015625)"/>
      <path id="ArialMT-73" d="M 197 991 
L 753 1078 
Q 800 744 1014 566 
Q 1228 388 1613 388 
Q 2000 388 2187 545 
Q 2375 703 2375 916 
Q 2375 1106 2209 1216 
Q 2094 1291 1634 1406 
Q 1016 1563 777 1677 
Q 538 1791 414 1992 
Q 291 2194 291 2438 
Q 291 2659 392 2848 
Q 494 3038 669 3163 
Q 800 3259 1026 3326 
Q 1253 3394 1513 3394 
Q 1903 3394 2198 3281 
Q 2494 3169 2634 2976 
Q 2775 2784 2828 2463 
L 2278 2388 
Q 2241 2644 2061 2787 
Q 1881 2931 1553 2931 
Q 1166 2931 1000 2803 
Q 834 2675 834 2503 
Q 834 2394 903 2306 
Q 972 2216 1119 2156 
Q 1203 2125 1616 2013 
Q 2213 1853 2448 1751 
Q 2684 1650 2818 1456 
Q 2953 1263 2953 975 
Q 2953 694 2789 445 
Q 2625 197 2315 61 
Q 2006 -75 1616 -75 
Q 969 -75 630 194 
Q 291 463 197 991 
z
" transform="scale(0.015625)"/>
     </defs>
     <use xlink:href="#ArialMT-59"/>
     <use xlink:href="#ArialMT-65" x="57.574219"/>
     <use xlink:href="#ArialMT-61" x="113.189453"/>
     <use xlink:href="#ArialMT-72" x="168.804688"/>
     <use xlink:href="#ArialMT-6c" x="202.105469"/>
     <use xlink:href="#ArialMT-79" x="224.322266"/>
     <use xlink:href="#ArialMT-20" x="274.322266"/>
     <use xlink:href="#ArialMT-61" x="302.105469"/>
     <use xlink:href="#ArialMT-76" x="357.720703"/>
     <use xlink:href="#ArialMT-65" x="407.720703"/>
     <use xlink:href="#ArialMT-72" x="463.335938"/>
     <use xlink:href="#ArialMT-61" x="496.636719"/>
     <use xlink:href="#ArialMT-67" x="552.251953"/>
     <use xlink:href="#ArialMT-65" x="607.867188"/>
     <use xlink:href="#ArialMT-20" x="663.482422"/>
     <use xlink:href="#ArialMT-72" x="691.265625"/>
     <use xlink:href="#ArialMT-61" x="724.566406"/>
     <use xlink:href="#ArialMT-74" x="780.181641"/>
     <use xlink:href="#ArialMT-69" x="807.964844"/>
     <use xlink:href="#ArialMT-6e" x="830.181641"/>
     <use xlink:href="#ArialMT-67" x="885.796875"/>
     <use xlink:href="#ArialMT-73" x="941.412109"/>
    </g>
   </g>
  </g>
 </g>
 <defs>
  <clipPath id="pa28246eb7f">
   <rect x="37.24" y="25.49625" width="412.76" height="292.22375"/>
  </clipPath>
 </defs>
</svg>
