<?xml version="1.0" encoding="utf-8" standalone="no"?>
<!DOCTYPE svg PUBLIC "-//W3C//DTD SVG 1.1//EN"
  "http://www.w3.org/Graphics/SVG/1.1/DTD/svg11.dtd">
<svg xmlns:xlink="http://www.w3.org/1999/xlink" width="460.8pt" height="345.6pt" viewBox="0 0 460.8 345.6" xmlns="http://www.w3.org/2000/svg" version="1.1">
 <metadata>
  <rdf:RDF xmlns:dc="http://purl.org/dc/elements/1.1/" xmlns:cc="http://creativecommons.org/ns#" xmlns:rdf="http://www.w3.org/1999/02/22-rdf-syntax-ns#">
   <cc:Work>
    <dc:type rdf:resource="http://purl.org/dc/dcmitype/StillImage"/>
    <dc:date>2024-08-19T08:31:33.392965</dc:date>
    <dc:format>image/svg+xml</dc:format>
    <dc:creator>
     <cc:Agent>
      <dc:title>Matplotlib v3.9.2, https://matplotlib.org/</dc:title>
     </cc:Agent>
    </dc:creator>
   </cc:Work>
  </rdf:RDF>
 </metadata>
 <defs>
  <style type="text/css">*{stroke-linejoin: round; stroke-linecap: butt}</style>
 </defs>
 <g id="figure_1">
  <g id="patch_1">
   <path d="M 0 345.6 
L 460.8 345.6 
L 460.8 0 
L 0 0 
z
" style="fill: #ffffff"/>
  </g>
  <g id="axes_1">
   <g id="patch_2">
    <path d="M 31.66 317.72 
L 450 317.72 
L 450 25.49625 
L 31.66 25.49625 
z
" style="fill: #eaeaf2"/>
   </g>
   <g id="matplotlib.axis_1">
    <g id="xtick_1">
     <g id="text_1">
      <!-- 1970 -->
      <g style="fill: #262626" transform="translate(39.55358 331.877812) scale(0.1 -0.1)">
       <defs>
        <path id="ArialMT-31" d="M 2384 0 
L 1822 0 
L 1822 3584 
Q 1619 3391 1289 3197 
Q 959 3003 697 2906 
L 697 3450 
Q 1169 3672 1522 3987 
Q 1875 4303 2022 4600 
L 2384 4600 
L 2384 0 
z
" transform="scale(0.015625)"/>
        <path id="ArialMT-39" d="M 350 1059 
L 891 1109 
Q 959 728 1153 556 
Q 1347 384 1650 384 
Q 1909 384 2104 503 
Q 2300 622 2425 820 
Q 2550 1019 2634 1356 
Q 2719 1694 2719 2044 
Q 2719 2081 2716 2156 
Q 2547 1888 2255 1720 
Q 1963 1553 1622 1553 
Q 1053 1553 659 1965 
Q 266 2378 266 3053 
Q 266 3750 677 4175 
Q 1088 4600 1706 4600 
Q 2153 4600 2523 4359 
Q 2894 4119 3086 3673 
Q 3278 3228 3278 2384 
Q 3278 1506 3087 986 
Q 2897 466 2520 194 
Q 2144 -78 1638 -78 
Q 1100 -78 759 220 
Q 419 519 350 1059 
z
M 2653 3081 
Q 2653 3566 2395 3850 
Q 2138 4134 1775 4134 
Q 1400 4134 1122 3828 
Q 844 3522 844 3034 
Q 844 2597 1108 2323 
Q 1372 2050 1759 2050 
Q 2150 2050 2401 2323 
Q 2653 2597 2653 3081 
z
" transform="scale(0.015625)"/>
        <path id="ArialMT-37" d="M 303 3981 
L 303 4522 
L 3269 4522 
L 3269 4084 
Q 2831 3619 2401 2847 
Q 1972 2075 1738 1259 
Q 1569 684 1522 0 
L 944 0 
Q 953 541 1156 1306 
Q 1359 2072 1739 2783 
Q 2119 3494 2547 3981 
L 303 3981 
z
" transform="scale(0.015625)"/>
        <path id="ArialMT-30" d="M 266 2259 
Q 266 3072 433 3567 
Q 600 4063 929 4331 
Q 1259 4600 1759 4600 
Q 2128 4600 2406 4451 
Q 2684 4303 2865 4023 
Q 3047 3744 3150 3342 
Q 3253 2941 3253 2259 
Q 3253 1453 3087 958 
Q 2922 463 2592 192 
Q 2263 -78 1759 -78 
Q 1097 -78 719 397 
Q 266 969 266 2259 
z
M 844 2259 
Q 844 1131 1108 757 
Q 1372 384 1759 384 
Q 2147 384 2411 759 
Q 2675 1134 2675 2259 
Q 2675 3391 2411 3762 
Q 2147 4134 1753 4134 
Q 1366 4134 1134 3806 
Q 844 3388 844 2259 
z
" transform="scale(0.015625)"/>
       </defs>
       <use xlink:href="#ArialMT-31"/>
       <use xlink:href="#ArialMT-39" x="55.615234"/>
       <use xlink:href="#ArialMT-37" x="111.230469"/>
       <use xlink:href="#ArialMT-30" x="166.845703"/>
      </g>
     </g>
    </g>
    <g id="xtick_2">
     <g id="text_2">
      <!-- 1980 -->
      <g style="fill: #262626" transform="translate(111.310012 331.877812) scale(0.1 -0.1)">
       <defs>
        <path id="ArialMT-38" d="M 1131 2484 
Q 781 2613 612 2850 
Q 444 3088 444 3419 
Q 444 3919 803 4259 
Q 1163 4600 1759 4600 
Q 2359 4600 2725 4251 
Q 3091 3903 3091 3403 
Q 3091 3084 2923 2848 
Q 2756 2613 2416 2484 
Q 2838 2347 3058 2040 
Q 3278 1734 3278 1309 
Q 3278 722 2862 322 
Q 2447 -78 1769 -78 
Q 1091 -78 675 323 
Q 259 725 259 1325 
Q 259 1772 486 2073 
Q 713 2375 1131 2484 
z
M 1019 3438 
Q 1019 3113 1228 2906 
Q 1438 2700 1772 2700 
Q 2097 2700 2305 2904 
Q 2513 3109 2513 3406 
Q 2513 3716 2298 3927 
Q 2084 4138 1766 4138 
Q 1444 4138 1231 3931 
Q 1019 3725 1019 3438 
z
M 838 1322 
Q 838 1081 952 856 
Q 1066 631 1291 507 
Q 1516 384 1775 384 
Q 2178 384 2440 643 
Q 2703 903 2703 1303 
Q 2703 1709 2433 1975 
Q 2163 2241 1756 2241 
Q 1359 2241 1098 1978 
Q 838 1716 838 1322 
z
" transform="scale(0.015625)"/>
       </defs>
       <use xlink:href="#ArialMT-31"/>
       <use xlink:href="#ArialMT-39" x="55.615234"/>
       <use xlink:href="#ArialMT-38" x="111.230469"/>
       <use xlink:href="#ArialMT-30" x="166.845703"/>
      </g>
     </g>
    </g>
    <g id="xtick_3">
     <g id="text_3">
      <!-- 1990 -->
      <g style="fill: #262626" transform="translate(183.066444 331.877812) scale(0.1 -0.1)">
       <use xlink:href="#ArialMT-31"/>
       <use xlink:href="#ArialMT-39" x="55.615234"/>
       <use xlink:href="#ArialMT-39" x="111.230469"/>
       <use xlink:href="#ArialMT-30" x="166.845703"/>
      </g>
     </g>
    </g>
    <g id="xtick_4">
     <g id="text_4">
      <!-- 2000 -->
      <g style="fill: #262626" transform="translate(254.822876 331.877812) scale(0.1 -0.1)">
       <defs>
        <path id="ArialMT-32" d="M 3222 541 
L 3222 0 
L 194 0 
Q 188 203 259 391 
Q 375 700 629 1000 
Q 884 1300 1366 1694 
Q 2113 2306 2375 2664 
Q 2638 3022 2638 3341 
Q 2638 3675 2398 3904 
Q 2159 4134 1775 4134 
Q 1369 4134 1125 3890 
Q 881 3647 878 3216 
L 300 3275 
Q 359 3922 746 4261 
Q 1134 4600 1788 4600 
Q 2447 4600 2831 4234 
Q 3216 3869 3216 3328 
Q 3216 3053 3103 2787 
Q 2991 2522 2730 2228 
Q 2469 1934 1863 1422 
Q 1356 997 1212 845 
Q 1069 694 975 541 
L 3222 541 
z
" transform="scale(0.015625)"/>
       </defs>
       <use xlink:href="#ArialMT-32"/>
       <use xlink:href="#ArialMT-30" x="55.615234"/>
       <use xlink:href="#ArialMT-30" x="111.230469"/>
       <use xlink:href="#ArialMT-30" x="166.845703"/>
      </g>
     </g>
    </g>
    <g id="xtick_5">
     <g id="text_5">
      <!-- 2010 -->
      <g style="fill: #262626" transform="translate(326.579309 331.877812) scale(0.1 -0.1)">
       <use xlink:href="#ArialMT-32"/>
       <use xlink:href="#ArialMT-30" x="55.615234"/>
       <use xlink:href="#ArialMT-31" x="111.230469"/>
       <use xlink:href="#ArialMT-30" x="166.845703"/>
      </g>
     </g>
    </g>
    <g id="xtick_6">
     <g id="text_6">
      <!-- 2020 -->
      <g style="fill: #262626" transform="translate(398.335741 331.877812) scale(0.1 -0.1)">
       <use xlink:href="#ArialMT-32"/>
       <use xlink:href="#ArialMT-30" x="55.615234"/>
       <use xlink:href="#ArialMT-32" x="111.230469"/>
       <use xlink:href="#ArialMT-30" x="166.845703"/>
      </g>
     </g>
    </g>
   </g>
   <g id="matplotlib.axis_2">
    <g id="ytick_1">
     <g id="text_7">
      <!-- 5.8 -->
      <g style="fill: #262626" transform="translate(10.76 306.181785) scale(0.1 -0.1)">
       <defs>
        <path id="ArialMT-35" d="M 266 1200 
L 856 1250 
Q 922 819 1161 601 
Q 1400 384 1738 384 
Q 2144 384 2425 690 
Q 2706 997 2706 1503 
Q 2706 1984 2436 2262 
Q 2166 2541 1728 2541 
Q 1456 2541 1237 2417 
Q 1019 2294 894 2097 
L 366 2166 
L 809 4519 
L 3088 4519 
L 3088 3981 
L 1259 3981 
L 1013 2750 
Q 1425 3038 1878 3038 
Q 2478 3038 2890 2622 
Q 3303 2206 3303 1553 
Q 3303 931 2941 478 
Q 2500 -78 1738 -78 
Q 1113 -78 717 272 
Q 322 622 266 1200 
z
" transform="scale(0.015625)"/>
        <path id="ArialMT-2e" d="M 581 0 
L 581 641 
L 1222 641 
L 1222 0 
L 581 0 
z
" transform="scale(0.015625)"/>
       </defs>
       <use xlink:href="#ArialMT-35"/>
       <use xlink:href="#ArialMT-2e" x="55.615234"/>
       <use xlink:href="#ArialMT-38" x="83.398438"/>
      </g>
     </g>
    </g>
    <g id="ytick_2">
     <g id="text_8">
      <!-- 6.0 -->
      <g style="fill: #262626" transform="translate(10.76 269.497311) scale(0.1 -0.1)">
       <defs>
        <path id="ArialMT-36" d="M 3184 3459 
L 2625 3416 
Q 2550 3747 2413 3897 
Q 2184 4138 1850 4138 
Q 1581 4138 1378 3988 
Q 1113 3794 959 3422 
Q 806 3050 800 2363 
Q 1003 2672 1297 2822 
Q 1591 2972 1913 2972 
Q 2475 2972 2870 2558 
Q 3266 2144 3266 1488 
Q 3266 1056 3080 686 
Q 2894 316 2569 119 
Q 2244 -78 1831 -78 
Q 1128 -78 684 439 
Q 241 956 241 2144 
Q 241 3472 731 4075 
Q 1159 4600 1884 4600 
Q 2425 4600 2770 4297 
Q 3116 3994 3184 3459 
z
M 888 1484 
Q 888 1194 1011 928 
Q 1134 663 1356 523 
Q 1578 384 1822 384 
Q 2178 384 2434 671 
Q 2691 959 2691 1453 
Q 2691 1928 2437 2201 
Q 2184 2475 1800 2475 
Q 1419 2475 1153 2201 
Q 888 1928 888 1484 
z
" transform="scale(0.015625)"/>
       </defs>
       <use xlink:href="#ArialMT-36"/>
       <use xlink:href="#ArialMT-2e" x="55.615234"/>
       <use xlink:href="#ArialMT-30" x="83.398438"/>
      </g>
     </g>
    </g>
    <g id="ytick_3">
     <g id="text_9">
      <!-- 6.2 -->
      <g style="fill: #262626" transform="translate(10.76 232.812837) scale(0.1 -0.1)">
       <use xlink:href="#ArialMT-36"/>
       <use xlink:href="#ArialMT-2e" x="55.615234"/>
       <use xlink:href="#ArialMT-32" x="83.398438"/>
      </g>
     </g>
    </g>
    <g id="ytick_4">
     <g id="text_10">
      <!-- 6.4 -->
      <g style="fill: #262626" transform="translate(10.76 196.128363) scale(0.1 -0.1)">
       <defs>
        <path id="ArialMT-34" d="M 2069 0 
L 2069 1097 
L 81 1097 
L 81 1613 
L 2172 4581 
L 2631 4581 
L 2631 1613 
L 3250 1613 
L 3250 1097 
L 2631 1097 
L 2631 0 
L 2069 0 
z
M 2069 1613 
L 2069 3678 
L 634 1613 
L 2069 1613 
z
" transform="scale(0.015625)"/>
       </defs>
       <use xlink:href="#ArialMT-36"/>
       <use xlink:href="#ArialMT-2e" x="55.615234"/>
       <use xlink:href="#ArialMT-34" x="83.398438"/>
      </g>
     </g>
    </g>
    <g id="ytick_5">
     <g id="text_11">
      <!-- 6.6 -->
      <g style="fill: #262626" transform="translate(10.76 159.443889) scale(0.1 -0.1)">
       <use xlink:href="#ArialMT-36"/>
       <use xlink:href="#ArialMT-2e" x="55.615234"/>
       <use xlink:href="#ArialMT-36" x="83.398438"/>
      </g>
     </g>
    </g>
    <g id="ytick_6">
     <g id="text_12">
      <!-- 6.8 -->
      <g style="fill: #262626" transform="translate(10.76 122.759415) scale(0.1 -0.1)">
       <use xlink:href="#ArialMT-36"/>
       <use xlink:href="#ArialMT-2e" x="55.615234"/>
       <use xlink:href="#ArialMT-38" x="83.398438"/>
      </g>
     </g>
    </g>
    <g id="ytick_7">
     <g id="text_13">
      <!-- 7.0 -->
      <g style="fill: #262626" transform="translate(10.76 86.074942) scale(0.1 -0.1)">
       <use xlink:href="#ArialMT-37"/>
       <use xlink:href="#ArialMT-2e" x="55.615234"/>
       <use xlink:href="#ArialMT-30" x="83.398438"/>
      </g>
     </g>
    </g>
    <g id="ytick_8">
     <g id="text_14">
      <!-- 7.2 -->
      <g style="fill: #262626" transform="translate(10.76 49.390468) scale(0.1 -0.1)">
       <use xlink:href="#ArialMT-37"/>
       <use xlink:href="#ArialMT-2e" x="55.615234"/>
       <use xlink:href="#ArialMT-32" x="83.398438"/>
      </g>
     </g>
    </g>
   </g>
   <g id="PathCollection_1">
    <path d="M 50.675455 255.068405 
C 51.238604 255.068405 51.778764 254.844664 52.176971 254.446457 
C 52.575178 254.04825 52.798919 253.50809 52.798919 252.944941 
C 52.798919 252.381791 52.575178 251.841631 52.176971 251.443424 
C 51.778764 251.045217 51.238604 250.821476 50.675455 250.821476 
C 50.112305 250.821476 49.572145 251.045217 49.173938 251.443424 
C 48.775731 251.841631 48.55199 252.381791 48.55199 252.944941 
C 48.55199 253.50809 48.775731 254.04825 49.173938 254.446457 
C 49.572145 254.844664 50.112305 255.068405 50.675455 255.068405 
z
" clip-path="url(#p08e9a11b70)" style="fill: #800080; stroke: #ffffff; stroke-width: 0.354227"/>
    <path d="M 57.851098 247.633986 
C 58.413679 247.633986 58.953293 247.410471 59.351098 247.012666 
C 59.748902 246.614861 59.972418 246.075247 59.972418 245.512666 
C 59.972418 244.950085 59.748902 244.410471 59.351098 244.012666 
C 58.953293 243.614861 58.413679 243.391346 57.851098 243.391346 
C 57.288517 243.391346 56.748902 243.614861 56.351098 244.012666 
C 55.953293 244.410471 55.729777 244.950085 55.729777 245.512666 
C 55.729777 246.075247 55.953293 246.614861 56.351098 247.012666 
C 56.748902 247.410471 57.288517 247.633986 57.851098 247.633986 
z
" clip-path="url(#p08e9a11b70)" style="fill: #800080; stroke: #ffffff; stroke-width: 0.354227"/>
    <path d="M 65.026741 264.830641 
C 65.605588 264.830641 66.160806 264.600662 66.570113 264.191355 
C 66.97942 263.782049 67.209398 263.226831 67.209398 262.647984 
C 67.209398 262.069136 66.97942 261.513919 66.570113 261.104612 
C 66.160806 260.695305 65.605588 260.465327 65.026741 260.465327 
C 64.447894 260.465327 63.892676 260.695305 63.483369 261.104612 
C 63.074062 261.513919 62.844084 262.069136 62.844084 262.647984 
C 62.844084 263.226831 63.074062 263.782049 63.483369 264.191355 
C 63.892676 264.600662 64.447894 264.830641 65.026741 264.830641 
z
" clip-path="url(#p08e9a11b70)" style="fill: #800080; stroke: #ffffff; stroke-width: 0.354227"/>
    <path d="M 72.202384 278.179996 
C 72.78509 278.179996 73.344008 277.948485 73.756043 277.536449 
C 74.168079 277.124414 74.39959 276.565496 74.39959 275.98279 
C 74.39959 275.400084 74.168079 274.841166 73.756043 274.429131 
C 73.344008 274.017096 72.78509 273.785584 72.202384 273.785584 
C 71.619678 273.785584 71.06076 274.017096 70.648725 274.429131 
C 70.23669 274.841166 70.005178 275.400084 70.005178 275.98279 
C 70.005178 276.565496 70.23669 277.124414 70.648725 277.536449 
C 71.06076 277.948485 71.619678 278.179996 72.202384 278.179996 
z
" clip-path="url(#p08e9a11b70)" style="fill: #800080; stroke: #ffffff; stroke-width: 0.354227"/>
    <path d="M 79.378027 248.060209 
C 79.960733 248.060209 80.519651 247.828697 80.931687 247.416662 
C 81.343722 247.004627 81.575233 246.445709 81.575233 245.863003 
C 81.575233 245.280297 81.343722 244.721379 80.931687 244.309344 
C 80.519651 243.897308 79.960733 243.665797 79.378027 243.665797 
C 78.795322 243.665797 78.236403 243.897308 77.824368 244.309344 
C 77.412333 244.721379 77.180821 245.280297 77.180821 245.863003 
C 77.180821 246.445709 77.412333 247.004627 77.824368 247.416662 
C 78.236403 247.828697 78.795322 248.060209 79.378027 248.060209 
z
" clip-path="url(#p08e9a11b70)" style="fill: #800080; stroke: #ffffff; stroke-width: 0.354227"/>
    <path d="M 86.553671 252.902921 
C 87.163227 252.902921 87.747899 252.660742 88.17892 252.229721 
C 88.609942 251.798699 88.852121 251.214027 88.852121 250.604471 
C 88.852121 249.994915 88.609942 249.410243 88.17892 248.979221 
C 87.747899 248.5482 87.163227 248.306021 86.553671 248.306021 
C 85.944115 248.306021 85.359442 248.5482 84.928421 248.979221 
C 84.4974 249.410243 84.255221 249.994915 84.255221 250.604471 
C 84.255221 251.214027 84.4974 251.798699 84.928421 252.229721 
C 85.359442 252.660742 85.944115 252.902921 86.553671 252.902921 
z
" clip-path="url(#p08e9a11b70)" style="fill: #800080; stroke: #ffffff; stroke-width: 0.354227"/>
    <path d="M 93.729314 248.756003 
C 94.309266 248.756003 94.865544 248.525585 95.275632 248.115497 
C 95.68572 247.705409 95.916138 247.149131 95.916138 246.569179 
C 95.916138 245.989226 95.68572 245.432949 95.275632 245.022861 
C 94.865544 244.612773 94.309266 244.382355 93.729314 244.382355 
C 93.149361 244.382355 92.593084 244.612773 92.182996 245.022861 
C 91.772908 245.432949 91.54249 245.989226 91.54249 246.569179 
C 91.54249 247.149131 91.772908 247.705409 92.182996 248.115497 
C 92.593084 248.525585 93.149361 248.756003 93.729314 248.756003 
z
" clip-path="url(#p08e9a11b70)" style="fill: #800080; stroke: #ffffff; stroke-width: 0.354227"/>
    <path d="M 100.904957 248.858247 
C 101.507647 248.858247 102.085734 248.618796 102.5119 248.19263 
C 102.938066 247.766464 103.177518 247.188377 103.177518 246.585687 
C 103.177518 245.982997 102.938066 245.40491 102.5119 244.978744 
C 102.085734 244.552578 101.507647 244.313126 100.904957 244.313126 
C 100.302267 244.313126 99.72418 244.552578 99.298014 244.978744 
C 98.871848 245.40491 98.632397 245.982997 98.632397 246.585687 
C 98.632397 247.188377 98.871848 247.766464 99.298014 248.19263 
C 99.72418 248.618796 100.302267 248.858247 100.904957 248.858247 
z
" clip-path="url(#p08e9a11b70)" style="fill: #800080; stroke: #ffffff; stroke-width: 0.354227"/>
    <path d="M 108.0806 259.03458 
C 108.677955 259.03458 109.250924 258.797248 109.673318 258.374854 
C 110.095712 257.952461 110.333043 257.379491 110.333043 256.782136 
C 110.333043 256.184782 110.095712 255.611812 109.673318 255.189419 
C 109.250924 254.767025 108.677955 254.529693 108.0806 254.529693 
C 107.483245 254.529693 106.910276 254.767025 106.487883 255.189419 
C 106.065489 255.611812 105.828157 256.184782 105.828157 256.782136 
C 105.828157 257.379491 106.065489 257.952461 106.487883 258.374854 
C 106.910276 258.797248 107.483245 259.03458 108.0806 259.03458 
z
" clip-path="url(#p08e9a11b70)" style="fill: #800080; stroke: #ffffff; stroke-width: 0.354227"/>
    <path d="M 115.256244 218.599192 
C 115.872589 218.599192 116.463774 218.354315 116.899596 217.918493 
C 117.335418 217.482671 117.580295 216.891486 117.580295 216.27514 
C 117.580295 215.658795 117.335418 215.06761 116.899596 214.631788 
C 116.463774 214.195966 115.872589 213.951089 115.256244 213.951089 
C 114.639898 213.951089 114.048713 214.195966 113.612891 214.631788 
C 113.177069 215.06761 112.932192 215.658795 112.932192 216.27514 
C 112.932192 216.891486 113.177069 217.482671 113.612891 217.918493 
C 114.048713 218.354315 114.639898 218.599192 115.256244 218.599192 
z
" clip-path="url(#p08e9a11b70)" style="fill: #800080; stroke: #ffffff; stroke-width: 0.354227"/>
    <path d="M 122.431887 229.695335 
C 123.044586 229.695335 123.632273 229.451907 124.065516 229.018663 
C 124.49876 228.585419 124.742188 227.997732 124.742188 227.385033 
C 124.742188 226.772334 124.49876 226.184647 124.065516 225.751404 
C 123.632273 225.31816 123.044586 225.074732 122.431887 225.074732 
C 121.819188 225.074732 121.231501 225.31816 120.798257 225.751404 
C 120.365014 226.184647 120.121586 226.772334 120.121586 227.385033 
C 120.121586 227.997732 120.365014 228.585419 120.798257 229.018663 
C 121.231501 229.451907 121.819188 229.695335 122.431887 229.695335 
z
" clip-path="url(#p08e9a11b70)" style="fill: #800080; stroke: #ffffff; stroke-width: 0.354227"/>
    <path d="M 129.60753 250.537112 
C 130.234688 250.537112 130.836244 250.287939 131.279711 249.844472 
C 131.723179 249.401004 131.972351 248.799448 131.972351 248.17229 
C 131.972351 247.545132 131.723179 246.943577 131.279711 246.500109 
C 130.836244 246.056642 130.234688 245.807469 129.60753 245.807469 
C 128.980372 245.807469 128.378816 246.056642 127.935349 246.500109 
C 127.491881 246.943577 127.242709 247.545132 127.242709 248.17229 
C 127.242709 248.799448 127.491881 249.401004 127.935349 249.844472 
C 128.378816 250.287939 128.980372 250.537112 129.60753 250.537112 
z
" clip-path="url(#p08e9a11b70)" style="fill: #800080; stroke: #ffffff; stroke-width: 0.354227"/>
    <path d="M 136.783173 255.303462 
C 137.397959 255.303462 137.987647 255.059205 138.422366 254.624486 
C 138.857085 254.189767 139.101342 253.600079 139.101342 252.985293 
C 139.101342 252.370508 138.857085 251.78082 138.422366 251.346101 
C 137.987647 250.911382 137.397959 250.667125 136.783173 250.667125 
C 136.168388 250.667125 135.5787 250.911382 135.143981 251.346101 
C 134.709262 251.78082 134.465005 252.370508 134.465005 252.985293 
C 134.465005 253.600079 134.709262 254.189767 135.143981 254.624486 
C 135.5787 255.059205 136.168388 255.303462 136.783173 255.303462 
z
" clip-path="url(#p08e9a11b70)" style="fill: #800080; stroke: #ffffff; stroke-width: 0.354227"/>
    <path d="M 143.958816 247.648508 
C 144.578271 247.648508 145.172437 247.402396 145.610457 246.964376 
C 146.048477 246.526356 146.294589 245.93219 146.294589 245.312736 
C 146.294589 244.693282 146.048477 244.099115 145.610457 243.661095 
C 145.172437 243.223075 144.578271 242.976963 143.958816 242.976963 
C 143.339362 242.976963 142.745196 243.223075 142.307176 243.661095 
C 141.869156 244.099115 141.623044 244.693282 141.623044 245.312736 
C 141.623044 245.93219 141.869156 246.526356 142.307176 246.964376 
C 142.745196 247.402396 143.339362 247.648508 143.958816 247.648508 
z
" clip-path="url(#p08e9a11b70)" style="fill: #800080; stroke: #ffffff; stroke-width: 0.354227"/>
    <path d="M 151.13446 283.64728 
C 151.735021 283.64728 152.311066 283.408674 152.735728 282.984013 
C 153.160389 282.559351 153.398995 281.983306 153.398995 281.382745 
C 153.398995 280.782183 153.160389 280.206138 152.735728 279.781477 
C 152.311066 279.356815 151.735021 279.11821 151.13446 279.11821 
C 150.533898 279.11821 149.957853 279.356815 149.533192 279.781477 
C 149.10853 280.206138 148.869925 280.782183 148.869925 281.382745 
C 148.869925 281.983306 149.10853 282.559351 149.533192 282.984013 
C 149.957853 283.408674 150.533898 283.64728 151.13446 283.64728 
z
" clip-path="url(#p08e9a11b70)" style="fill: #800080; stroke: #ffffff; stroke-width: 0.354227"/>
    <path d="M 158.310103 248.6637 
C 158.925409 248.6637 159.515596 248.419237 159.950683 247.98415 
C 160.38577 247.549063 160.630234 246.958875 160.630234 246.343569 
C 160.630234 245.728264 160.38577 245.138076 159.950683 244.702989 
C 159.515596 244.267902 158.925409 244.023439 158.310103 244.023439 
C 157.694797 244.023439 157.10461 244.267902 156.669523 244.702989 
C 156.234436 245.138076 155.989972 245.728264 155.989972 246.343569 
C 155.989972 246.958875 156.234436 247.549063 156.669523 247.98415 
C 157.10461 248.419237 157.694797 248.6637 158.310103 248.6637 
z
" clip-path="url(#p08e9a11b70)" style="fill: #800080; stroke: #ffffff; stroke-width: 0.354227"/>
    <path d="M 165.485746 260.032513 
C 166.110859 260.032513 166.710453 259.784153 167.152475 259.342132 
C 167.594496 258.90011 167.842856 258.300516 167.842856 257.675403 
C 167.842856 257.050291 167.594496 256.450696 167.152475 256.008675 
C 166.710453 255.566653 166.110859 255.318293 165.485746 255.318293 
C 164.860633 255.318293 164.261039 255.566653 163.819018 256.008675 
C 163.376996 256.450696 163.128636 257.050291 163.128636 257.675403 
C 163.128636 258.300516 163.376996 258.90011 163.819018 259.342132 
C 164.261039 259.784153 164.860633 260.032513 165.485746 260.032513 
z
" clip-path="url(#p08e9a11b70)" style="fill: #800080; stroke: #ffffff; stroke-width: 0.354227"/>
    <path d="M 172.661389 272.051246 
C 173.281876 272.051246 173.877033 271.804724 174.315783 271.365973 
C 174.754534 270.927223 175.001056 270.332066 175.001056 269.711579 
C 175.001056 269.091092 174.754534 268.495936 174.315783 268.057185 
C 173.877033 267.618435 173.281876 267.371913 172.661389 267.371913 
C 172.040903 267.371913 171.445746 267.618435 171.006995 268.057185 
C 170.568245 268.495936 170.321723 269.091092 170.321723 269.711579 
C 170.321723 270.332066 170.568245 270.927223 171.006995 271.365973 
C 171.445746 271.804724 172.040903 272.051246 172.661389 272.051246 
z
" clip-path="url(#p08e9a11b70)" style="fill: #800080; stroke: #ffffff; stroke-width: 0.354227"/>
    <path d="M 179.837033 306.767021 
C 180.454934 306.767021 181.047612 306.521526 181.484534 306.084604 
C 181.921457 305.647681 182.166952 305.055004 182.166952 304.437102 
C 182.166952 303.8192 181.921457 303.226523 181.484534 302.789601 
C 181.047612 302.352678 180.454934 302.107183 179.837033 302.107183 
C 179.219131 302.107183 178.626453 302.352678 178.189531 302.789601 
C 177.752608 303.226523 177.507113 303.8192 177.507113 304.437102 
C 177.507113 305.055004 177.752608 305.647681 178.189531 306.084604 
C 178.626453 306.521526 179.219131 306.767021 179.837033 306.767021 
z
" clip-path="url(#p08e9a11b70)" style="fill: #800080; stroke: #ffffff; stroke-width: 0.354227"/>
    <path d="M 187.012676 277.3495 
C 187.629541 277.3495 188.221223 277.104417 188.657412 276.668228 
C 189.093602 276.232038 189.338685 275.640356 189.338685 275.023491 
C 189.338685 274.406626 189.093602 273.814944 188.657412 273.378755 
C 188.221223 272.942565 187.629541 272.697482 187.012676 272.697482 
C 186.395811 272.697482 185.804128 272.942565 185.367939 273.378755 
C 184.93175 273.814944 184.686667 274.406626 184.686667 275.023491 
C 184.686667 275.640356 184.93175 276.232038 185.367939 276.668228 
C 185.804128 277.104417 186.395811 277.3495 187.012676 277.3495 
z
" clip-path="url(#p08e9a11b70)" style="fill: #800080; stroke: #ffffff; stroke-width: 0.354227"/>
    <path d="M 194.188319 266.404509 
C 194.81292 266.404509 195.412022 266.156353 195.853682 265.714693 
C 196.295341 265.273034 196.543497 264.673931 196.543497 264.049331 
C 196.543497 263.42473 196.295341 262.825628 195.853682 262.383968 
C 195.412022 261.942309 194.81292 261.694153 194.188319 261.694153 
C 193.563718 261.694153 192.964616 261.942309 192.522957 262.383968 
C 192.081297 262.825628 191.833141 263.42473 191.833141 264.049331 
C 191.833141 264.673931 192.081297 265.273034 192.522957 265.714693 
C 192.964616 266.156353 193.563718 266.404509 194.188319 266.404509 
z
" clip-path="url(#p08e9a11b70)" style="fill: #800080; stroke: #ffffff; stroke-width: 0.354227"/>
    <path d="M 201.363962 273.811183 
C 202.000745 273.811183 202.611532 273.558186 203.061805 273.107913 
C 203.512078 272.65764 203.765075 272.046853 203.765075 271.41007 
C 203.765075 270.773288 203.512078 270.162501 203.061805 269.712228 
C 202.611532 269.261954 202.000745 269.008958 201.363962 269.008958 
C 200.72718 269.008958 200.116393 269.261954 199.666119 269.712228 
C 199.215846 270.162501 198.96285 270.773288 198.96285 271.41007 
C 198.96285 272.046853 199.215846 272.65764 199.666119 273.107913 
C 200.116393 273.558186 200.72718 273.811183 201.363962 273.811183 
z
" clip-path="url(#p08e9a11b70)" style="fill: #800080; stroke: #ffffff; stroke-width: 0.354227"/>
    <path d="M 208.539605 237.641509 
C 209.192277 237.641509 209.818304 237.3822 210.279813 236.920691 
C 210.741321 236.459183 211.00063 235.833155 211.00063 235.180484 
C 211.00063 234.527813 210.741321 233.901785 210.279813 233.440277 
C 209.818304 232.978769 209.192277 232.719459 208.539605 232.719459 
C 207.886934 232.719459 207.260907 232.978769 206.799398 233.440277 
C 206.33789 233.901785 206.078581 234.527813 206.078581 235.180484 
C 206.078581 235.833155 206.33789 236.459183 206.799398 236.920691 
C 207.260907 237.3822 207.886934 237.641509 208.539605 237.641509 
z
" clip-path="url(#p08e9a11b70)" style="fill: #800080; stroke: #ffffff; stroke-width: 0.354227"/>
    <path d="M 215.715249 253.928912 
C 216.359031 253.928912 216.976532 253.673135 217.431755 253.217912 
C 217.886977 252.76269 218.142755 252.145189 218.142755 251.501406 
C 218.142755 250.857624 217.886977 250.240123 217.431755 249.784901 
C 216.976532 249.329678 216.359031 249.073901 215.715249 249.073901 
C 215.071467 249.073901 214.453966 249.329678 213.998743 249.784901 
C 213.54352 250.240123 213.287743 250.857624 213.287743 251.501406 
C 213.287743 252.145189 213.54352 252.76269 213.998743 253.217912 
C 214.453966 253.673135 215.071467 253.928912 215.715249 253.928912 
z
" clip-path="url(#p08e9a11b70)" style="fill: #800080; stroke: #ffffff; stroke-width: 0.354227"/>
    <path d="M 222.890892 261.513427 
C 223.534674 261.513427 224.152175 261.25765 224.607398 260.802427 
C 225.062621 260.347205 225.318398 259.729704 225.318398 259.085921 
C 225.318398 258.442139 225.062621 257.824638 224.607398 257.369416 
C 224.152175 256.914193 223.534674 256.658416 222.890892 256.658416 
C 222.24711 256.658416 221.629609 256.914193 221.174386 257.369416 
C 220.719163 257.824638 220.463386 258.442139 220.463386 259.085921 
C 220.463386 259.729704 220.719163 260.347205 221.174386 260.802427 
C 221.629609 261.25765 222.24711 261.513427 222.890892 261.513427 
z
" clip-path="url(#p08e9a11b70)" style="fill: #800080; stroke: #ffffff; stroke-width: 0.354227"/>
    <path d="M 230.066535 240.912014 
C 230.72458 240.912014 231.355761 240.65057 231.821069 240.185262 
C 232.286377 239.719954 232.54782 239.088773 232.54782 238.430728 
C 232.54782 237.772684 232.286377 237.141503 231.821069 236.676195 
C 231.355761 236.210887 230.72458 235.949443 230.066535 235.949443 
C 229.408491 235.949443 228.777309 236.210887 228.312001 236.676195 
C 227.846694 237.141503 227.58525 237.772684 227.58525 238.430728 
C 227.58525 239.088773 227.846694 239.719954 228.312001 240.185262 
C 228.777309 240.65057 229.408491 240.912014 230.066535 240.912014 
z
" clip-path="url(#p08e9a11b70)" style="fill: #800080; stroke: #ffffff; stroke-width: 0.354227"/>
    <path d="M 237.242178 279.559097 
C 237.902166 279.559097 238.535211 279.296881 239.001893 278.830199 
C 239.468574 278.363517 239.73079 277.730472 239.73079 277.070485 
C 239.73079 276.410497 239.468574 275.777452 239.001893 275.31077 
C 238.535211 274.844089 237.902166 274.581873 237.242178 274.581873 
C 236.582191 274.581873 235.949146 274.844089 235.482464 275.31077 
C 235.015782 275.777452 234.753566 276.410497 234.753566 277.070485 
C 234.753566 277.730472 235.015782 278.363517 235.482464 278.830199 
C 235.949146 279.296881 236.582191 279.559097 237.242178 279.559097 
z
" clip-path="url(#p08e9a11b70)" style="fill: #800080; stroke: #ffffff; stroke-width: 0.354227"/>
    <path d="M 244.417822 250.32508 
C 245.083604 250.32508 245.722208 250.060562 246.192987 249.589783 
C 246.663767 249.119003 246.928285 248.4804 246.928285 247.814617 
C 246.928285 247.148834 246.663767 246.51023 246.192987 246.039451 
C 245.722208 245.568672 245.083604 245.304153 244.417822 245.304153 
C 243.752039 245.304153 243.113435 245.568672 242.642656 246.039451 
C 242.171876 246.51023 241.907358 247.148834 241.907358 247.814617 
C 241.907358 248.4804 242.171876 249.119003 242.642656 249.589783 
C 243.113435 250.060562 243.752039 250.32508 244.417822 250.32508 
z
" clip-path="url(#p08e9a11b70)" style="fill: #800080; stroke: #ffffff; stroke-width: 0.354227"/>
    <path d="M 251.593465 274.308708 
C 252.268796 274.308708 252.916557 274.040396 253.394088 273.562865 
C 253.871619 273.085334 254.139931 272.437572 254.139931 271.762241 
C 254.139931 271.086911 253.871619 270.439149 253.394088 269.961618 
C 252.916557 269.484087 252.268796 269.215775 251.593465 269.215775 
C 250.918134 269.215775 250.270372 269.484087 249.792841 269.961618 
C 249.31531 270.439149 249.046998 271.086911 249.046998 271.762241 
C 249.046998 272.437572 249.31531 273.085334 249.792841 273.562865 
C 250.270372 274.040396 250.918134 274.308708 251.593465 274.308708 
z
" clip-path="url(#p08e9a11b70)" style="fill: #800080; stroke: #ffffff; stroke-width: 0.354227"/>
    <path d="M 258.769108 254.880966 
C 259.455721 254.880966 260.114305 254.608171 260.599814 254.122663 
C 261.085323 253.637154 261.358117 252.97857 261.358117 252.291957 
C 261.358117 251.605344 261.085323 250.94676 260.599814 250.461251 
C 260.114305 249.975742 259.455721 249.702948 258.769108 249.702948 
C 258.082495 249.702948 257.423911 249.975742 256.938402 250.461251 
C 256.452893 250.94676 256.180099 251.605344 256.180099 252.291957 
C 256.180099 252.97857 256.452893 253.637154 256.938402 254.122663 
C 257.423911 254.608171 258.082495 254.880966 258.769108 254.880966 
z
" clip-path="url(#p08e9a11b70)" style="fill: #800080; stroke: #ffffff; stroke-width: 0.354227"/>
    <path d="M 265.944751 273.169573 
C 266.642923 273.169573 267.312594 272.892186 267.806276 272.398504 
C 268.299958 271.904822 268.577344 271.235152 268.577344 270.53698 
C 268.577344 269.838808 268.299958 269.169138 267.806276 268.675456 
C 267.312594 268.181774 266.642923 267.904387 265.944751 267.904387 
C 265.246579 267.904387 264.576909 268.181774 264.083227 268.675456 
C 263.589545 269.169138 263.312158 269.838808 263.312158 270.53698 
C 263.312158 271.235152 263.589545 271.904822 264.083227 272.398504 
C 264.576909 272.892186 265.246579 273.169573 265.944751 273.169573 
z
" clip-path="url(#p08e9a11b70)" style="fill: #800080; stroke: #ffffff; stroke-width: 0.354227"/>
    <path d="M 273.120395 278.484723 
C 273.820398 278.484723 274.491825 278.206609 274.986803 277.711631 
C 275.48178 277.216654 275.759894 276.545227 275.759894 275.845223 
C 275.759894 275.14522 275.48178 274.473792 274.986803 273.978815 
C 274.491825 273.483838 273.820398 273.205724 273.120395 273.205724 
C 272.420391 273.205724 271.748964 273.483838 271.253986 273.978815 
C 270.759009 274.473792 270.480895 275.14522 270.480895 275.845223 
C 270.480895 276.545227 270.759009 277.216654 271.253986 277.711631 
C 271.748964 278.206609 272.420391 278.484723 273.120395 278.484723 
z
" clip-path="url(#p08e9a11b70)" style="fill: #800080; stroke: #ffffff; stroke-width: 0.354227"/>
    <path d="M 280.296038 272.382645 
C 281.013655 272.382645 281.701977 272.097533 282.209409 271.590101 
C 282.716842 271.082669 283.001954 270.394346 283.001954 269.676729 
C 283.001954 268.959112 282.716842 268.270789 282.209409 267.763357 
C 281.701977 267.255925 281.013655 266.970813 280.296038 266.970813 
C 279.57842 266.970813 278.890098 267.255925 278.382666 267.763357 
C 277.875234 268.270789 277.590122 268.959112 277.590122 269.676729 
C 277.590122 270.394346 277.875234 271.082669 278.382666 271.590101 
C 278.890098 272.097533 279.57842 272.382645 280.296038 272.382645 
z
" clip-path="url(#p08e9a11b70)" style="fill: #800080; stroke: #ffffff; stroke-width: 0.354227"/>
    <path d="M 287.471681 268.733217 
C 288.221583 268.733217 288.940872 268.435278 289.471133 267.905017 
C 290.001394 267.374756 290.299333 266.655467 290.299333 265.905565 
C 290.299333 265.155663 290.001394 264.436374 289.471133 263.906113 
C 288.940872 263.375852 288.221583 263.077913 287.471681 263.077913 
C 286.721779 263.077913 286.00249 263.375852 285.472229 263.906113 
C 284.941968 264.436374 284.644029 265.155663 284.644029 265.905565 
C 284.644029 266.655467 284.941968 267.374756 285.472229 267.905017 
C 286.00249 268.435278 286.721779 268.733217 287.471681 268.733217 
z
" clip-path="url(#p08e9a11b70)" style="fill: #800080; stroke: #ffffff; stroke-width: 0.354227"/>
    <path d="M 294.647324 254.221543 
C 295.433896 254.221543 296.188358 253.909035 296.744548 253.352844 
C 297.300738 252.796654 297.613247 252.042192 297.613247 251.25562 
C 297.613247 250.469049 297.300738 249.714587 296.744548 249.158397 
C 296.188358 248.602206 295.433896 248.289698 294.647324 248.289698 
C 293.860752 248.289698 293.106291 248.602206 292.5501 249.158397 
C 291.99391 249.714587 291.681402 250.469049 291.681402 251.25562 
C 291.681402 252.042192 291.99391 252.796654 292.5501 253.352844 
C 293.106291 253.909035 293.860752 254.221543 294.647324 254.221543 
z
" clip-path="url(#p08e9a11b70)" style="fill: #800080; stroke: #ffffff; stroke-width: 0.354227"/>
    <path d="M 301.822967 263.012714 
C 302.628441 263.012714 303.401032 262.692696 303.970588 262.12314 
C 304.540143 261.553585 304.860161 260.780993 304.860161 259.97552 
C 304.860161 259.170047 304.540143 258.397455 303.970588 257.8279 
C 303.401032 257.258344 302.628441 256.938326 301.822967 256.938326 
C 301.017494 256.938326 300.244903 257.258344 299.675347 257.8279 
C 299.105792 258.397455 298.785774 259.170047 298.785774 259.97552 
C 298.785774 260.780993 299.105792 261.553585 299.675347 262.12314 
C 300.244903 262.692696 301.017494 263.012714 301.822967 263.012714 
z
" clip-path="url(#p08e9a11b70)" style="fill: #800080; stroke: #ffffff; stroke-width: 0.354227"/>
    <path d="M 308.998611 262.470843 
C 309.796095 262.470843 310.561025 262.153999 311.124932 261.590092 
C 311.688838 261.026186 312.005683 260.261256 312.005683 259.463772 
C 312.005683 258.666287 311.688838 257.901357 311.124932 257.337451 
C 310.561025 256.773544 309.796095 256.4567 308.998611 256.4567 
C 308.201126 256.4567 307.436197 256.773544 306.87229 257.337451 
C 306.308383 257.901357 305.991539 258.666287 305.991539 259.463772 
C 305.991539 260.261256 306.308383 261.026186 306.87229 261.590092 
C 307.436197 262.153999 308.201126 262.470843 308.998611 262.470843 
z
" clip-path="url(#p08e9a11b70)" style="fill: #800080; stroke: #ffffff; stroke-width: 0.354227"/>
    <path d="M 316.174254 256.361818 
C 316.979727 256.361818 317.752319 256.041801 318.321874 255.472245 
C 318.89143 254.902689 319.211447 254.130098 319.211447 253.324625 
C 319.211447 252.519152 318.89143 251.74656 318.321874 251.177005 
C 317.752319 250.607449 316.979727 250.287431 316.174254 250.287431 
C 315.368781 250.287431 314.596189 250.607449 314.026634 251.177005 
C 313.457078 251.74656 313.13706 252.519152 313.13706 253.324625 
C 313.13706 254.130098 313.457078 254.902689 314.026634 255.472245 
C 314.596189 256.041801 315.368781 256.361818 316.174254 256.361818 
z
" clip-path="url(#p08e9a11b70)" style="fill: #800080; stroke: #ffffff; stroke-width: 0.354227"/>
    <path d="M 323.349897 228.026297 
C 324.174227 228.026297 324.964905 227.698788 325.547793 227.115899 
C 326.130682 226.53301 326.458192 225.742332 326.458192 224.918002 
C 326.458192 224.093673 326.130682 223.302995 325.547793 222.720106 
C 324.964905 222.137217 324.174227 221.809708 323.349897 221.809708 
C 322.525568 221.809708 321.73489 222.137217 321.152001 222.720106 
C 320.569112 223.302995 320.241602 224.093673 320.241602 224.918002 
C 320.241602 225.742332 320.569112 226.53301 321.152001 227.115899 
C 321.73489 227.698788 322.525568 228.026297 323.349897 228.026297 
z
" clip-path="url(#p08e9a11b70)" style="fill: #800080; stroke: #ffffff; stroke-width: 0.354227"/>
    <path d="M 330.52554 226.144784 
C 331.376244 226.144784 332.192219 225.806796 332.793757 225.205258 
C 333.395295 224.60372 333.733283 223.787744 333.733283 222.937041 
C 333.733283 222.086337 333.395295 221.270362 332.793757 220.668824 
C 332.192219 220.067286 331.376244 219.729298 330.52554 219.729298 
C 329.674837 219.729298 328.858862 220.067286 328.257323 220.668824 
C 327.655785 221.270362 327.317797 222.086337 327.317797 222.937041 
C 327.317797 223.787744 327.655785 224.60372 328.257323 225.205258 
C 328.858862 225.806796 329.674837 226.144784 330.52554 226.144784 
z
" clip-path="url(#p08e9a11b70)" style="fill: #800080; stroke: #ffffff; stroke-width: 0.354227"/>
    <path d="M 337.701184 207.189601 
C 338.575639 207.189601 339.414397 206.842176 340.03273 206.223843 
C 340.651063 205.605509 340.998488 204.766752 340.998488 203.892296 
C 340.998488 203.017841 340.651063 202.179083 340.03273 201.56075 
C 339.414397 200.942416 338.575639 200.594992 337.701184 200.594992 
C 336.826728 200.594992 335.98797 200.942416 335.369637 201.56075 
C 334.751304 202.179083 334.403879 203.017841 334.403879 203.892296 
C 334.403879 204.766752 334.751304 205.605509 335.369637 206.223843 
C 335.98797 206.842176 336.826728 207.189601 337.701184 207.189601 
z
" clip-path="url(#p08e9a11b70)" style="fill: #800080; stroke: #ffffff; stroke-width: 0.354227"/>
    <path d="M 344.876827 205.758766 
C 345.762919 205.758766 346.612839 205.406717 347.239402 204.780155 
C 347.865964 204.153593 348.218012 203.303673 348.218012 202.41758 
C 348.218012 201.531488 347.865964 200.681568 347.239402 200.055006 
C 346.612839 199.428443 345.762919 199.076395 344.876827 199.076395 
C 343.990734 199.076395 343.140814 199.428443 342.514252 200.055006 
C 341.88769 200.681568 341.535641 201.531488 341.535641 202.41758 
C 341.535641 203.303673 341.88769 204.153593 342.514252 204.780155 
C 343.140814 205.406717 343.990734 205.758766 344.876827 205.758766 
z
" clip-path="url(#p08e9a11b70)" style="fill: #800080; stroke: #ffffff; stroke-width: 0.354227"/>
    <path d="M 352.05247 207.81459 
C 352.973983 207.81459 353.857876 207.448469 354.509484 206.796861 
C 355.161092 206.145253 355.527213 205.261359 355.527213 204.339847 
C 355.527213 203.418334 355.161092 202.53444 354.509484 201.882833 
C 353.857876 201.231225 352.973983 200.865104 352.05247 200.865104 
C 351.130957 200.865104 350.247064 201.231225 349.595456 201.882833 
C 348.943848 202.53444 348.577727 203.418334 348.577727 204.339847 
C 348.577727 205.261359 348.943848 206.145253 349.595456 206.796861 
C 350.247064 207.448469 351.130957 207.81459 352.05247 207.81459 
z
" clip-path="url(#p08e9a11b70)" style="fill: #800080; stroke: #ffffff; stroke-width: 0.354227"/>
    <path d="M 359.228113 201.785449 
C 360.166152 201.785449 361.065898 201.412762 361.729192 200.749469 
C 362.392486 200.086175 362.765173 199.186429 362.765173 198.24839 
C 362.765173 197.310351 362.392486 196.410605 361.729192 195.747311 
C 361.065898 195.084017 360.166152 194.711331 359.228113 194.711331 
C 358.290074 194.711331 357.390328 195.084017 356.727035 195.747311 
C 356.063741 196.410605 355.691054 197.310351 355.691054 198.24839 
C 355.691054 199.186429 356.063741 200.086175 356.727035 200.749469 
C 357.390328 201.412762 358.290074 201.785449 359.228113 201.785449 
z
" clip-path="url(#p08e9a11b70)" style="fill: #800080; stroke: #ffffff; stroke-width: 0.354227"/>
    <path d="M 366.403756 199.985789 
C 367.390364 199.985789 368.336695 199.593806 369.034332 198.896169 
C 369.731968 198.198533 370.123952 197.252201 370.123952 196.265594 
C 370.123952 195.278987 369.731968 194.332656 369.034332 193.635019 
C 368.336695 192.937382 367.390364 192.545399 366.403756 192.545399 
C 365.417149 192.545399 364.470818 192.937382 363.773181 193.635019 
C 363.075545 194.332656 362.683561 195.278987 362.683561 196.265594 
C 362.683561 197.252201 363.075545 198.198533 363.773181 198.896169 
C 364.470818 199.593806 365.417149 199.985789 366.403756 199.985789 
z
" clip-path="url(#p08e9a11b70)" style="fill: #800080; stroke: #ffffff; stroke-width: 0.354227"/>
    <path d="M 373.5794 184.205886 
C 374.617549 184.205886 375.613319 183.793424 376.347401 183.059342 
C 377.081484 182.325259 377.493945 181.32949 377.493945 180.29134 
C 377.493945 179.25319 377.081484 178.257421 376.347401 177.523338 
C 375.613319 176.789255 374.617549 176.376794 373.5794 176.376794 
C 372.54125 176.376794 371.54548 176.789255 370.811398 177.523338 
C 370.077315 178.257421 369.664854 179.25319 369.664854 180.29134 
C 369.664854 181.32949 370.077315 182.325259 370.811398 183.059342 
C 371.54548 183.793424 372.54125 184.205886 373.5794 184.205886 
z
" clip-path="url(#p08e9a11b70)" style="fill: #800080; stroke: #ffffff; stroke-width: 0.354227"/>
    <path d="M 380.755043 172.978051 
C 381.840231 172.978051 382.881119 172.546901 383.648463 171.779557 
C 384.415807 171.012213 384.846957 169.971325 384.846957 168.886137 
C 384.846957 167.800949 384.415807 166.760061 383.648463 165.992717 
C 382.881119 165.225373 381.840231 164.794223 380.755043 164.794223 
C 379.669855 164.794223 378.628967 165.225373 377.861623 165.992717 
C 377.094278 166.760061 376.663129 167.800949 376.663129 168.886137 
C 376.663129 169.971325 377.094278 171.012213 377.861623 171.779557 
C 378.628967 172.546901 379.669855 172.978051 380.755043 172.978051 
z
" clip-path="url(#p08e9a11b70)" style="fill: #800080; stroke: #ffffff; stroke-width: 0.354227"/>
    <path d="M 387.930686 154.821519 
C 389.03691 154.821519 390.097975 154.382011 390.880194 153.599793 
C 391.662412 152.817574 392.10192 151.756509 392.10192 150.650285 
C 392.10192 149.544061 391.662412 148.482996 390.880194 147.700777 
C 390.097975 146.918559 389.03691 146.479051 387.930686 146.479051 
C 386.824462 146.479051 385.763397 146.918559 384.981178 147.700777 
C 384.19896 148.482996 383.759452 149.544061 383.759452 150.650285 
C 383.759452 151.756509 384.19896 152.817574 384.981178 153.599793 
C 385.763397 154.382011 386.824462 154.821519 387.930686 154.821519 
z
" clip-path="url(#p08e9a11b70)" style="fill: #800080; stroke: #ffffff; stroke-width: 0.354227"/>
    <path d="M 395.106329 139.392183 
C 396.223782 139.392183 397.295618 138.948214 398.085777 138.158056 
C 398.875936 137.367897 399.319904 136.296061 399.319904 135.178608 
C 399.319904 134.061155 398.875936 132.989319 398.085777 132.199161 
C 397.295618 131.409002 396.223782 130.965033 395.106329 130.965033 
C 393.988876 130.965033 392.917041 131.409002 392.126882 132.199161 
C 391.336723 132.989319 390.892754 134.061155 390.892754 135.178608 
C 390.892754 136.296061 391.336723 137.367897 392.126882 138.158056 
C 392.917041 138.948214 393.988876 139.392183 395.106329 139.392183 
z
" clip-path="url(#p08e9a11b70)" style="fill: #800080; stroke: #ffffff; stroke-width: 0.354227"/>
    <path d="M 402.281973 124.167845 
C 403.407134 124.167845 404.486363 123.720813 405.281973 122.925204 
C 406.077582 122.129595 406.524613 121.050365 406.524613 119.925204 
C 406.524613 118.800043 406.077582 117.720813 405.281973 116.925204 
C 404.486363 116.129595 403.407134 115.682563 402.281973 115.682563 
C 401.156811 115.682563 400.077582 116.129595 399.281973 116.925204 
C 398.486363 117.720813 398.039332 118.800043 398.039332 119.925204 
C 398.039332 121.050365 398.486363 122.129595 399.281973 122.925204 
C 400.077582 123.720813 401.156811 124.167845 402.281973 124.167845 
z
" clip-path="url(#p08e9a11b70)" style="fill: #800080; stroke: #ffffff; stroke-width: 0.354227"/>
    <path d="M 409.457616 105.405143 
C 410.501914 105.405143 411.503582 104.990238 412.242013 104.251808 
C 412.980443 103.513377 413.395348 102.51171 413.395348 101.467411 
C 413.395348 100.423112 412.980443 99.421445 412.242013 98.683014 
C 411.503582 97.944583 410.501914 97.529679 409.457616 97.529679 
C 408.413317 97.529679 407.41165 97.944583 406.673219 98.683014 
C 405.934788 99.421445 405.519884 100.423112 405.519884 101.467411 
C 405.519884 102.51171 405.934788 103.513377 406.673219 104.251808 
C 407.41165 104.990238 408.413317 105.405143 409.457616 105.405143 
z
" clip-path="url(#p08e9a11b70)" style="fill: #800080; stroke: #ffffff; stroke-width: 0.354227"/>
    <path d="M 416.633259 93.778777 
C 417.673873 93.778777 418.672006 93.365337 419.40783 92.629512 
C 420.143655 91.893687 420.557096 90.895554 420.557096 89.854941 
C 420.557096 88.814327 420.143655 87.816194 419.40783 87.080369 
C 418.672006 86.344544 417.673873 85.931104 416.633259 85.931104 
C 415.592645 85.931104 414.594512 86.344544 413.858688 87.080369 
C 413.122863 87.816194 412.709422 88.814327 412.709422 89.854941 
C 412.709422 90.895554 413.122863 91.893687 413.858688 92.629512 
C 414.594512 93.365337 415.592645 93.778777 416.633259 93.778777 
z
" clip-path="url(#p08e9a11b70)" style="fill: #800080; stroke: #ffffff; stroke-width: 0.354227"/>
    <path d="M 423.808902 74.159729 
C 424.863572 74.159729 425.875187 73.740705 426.620951 72.994941 
C 427.366715 72.249177 427.78574 71.237561 427.78574 70.182892 
C 427.78574 69.128222 427.366715 68.116607 426.620951 67.370843 
C 425.875187 66.625078 424.863572 66.206054 423.808902 66.206054 
C 422.754233 66.206054 421.742617 66.625078 420.996853 67.370843 
C 420.251089 68.116607 419.832064 69.128222 419.832064 70.182892 
C 419.832064 71.237561 420.251089 72.249177 420.996853 72.994941 
C 421.742617 73.740705 422.754233 74.159729 423.808902 74.159729 
z
" clip-path="url(#p08e9a11b70)" style="fill: #800080; stroke: #ffffff; stroke-width: 0.354227"/>
    <path d="M 430.984545 42.580432 
C 431.992658 42.580432 432.959616 42.179905 433.67246 41.467062 
C 434.385303 40.754219 434.78583 39.78726 434.78583 38.779148 
C 434.78583 37.771035 434.385303 36.804077 433.67246 36.091234 
C 432.959616 35.378391 431.992658 34.977863 430.984545 34.977863 
C 429.976433 34.977863 429.009475 35.378391 428.296631 36.091234 
C 427.583788 36.804077 427.183261 37.771035 427.183261 38.779148 
C 427.183261 39.78726 427.583788 40.754219 428.296631 41.467062 
C 429.009475 42.179905 429.976433 42.580432 430.984545 42.580432 
z
" clip-path="url(#p08e9a11b70)" style="fill: #800080; stroke: #ffffff; stroke-width: 0.354227"/>
   </g>
   <g id="patch_3">
    <path d="M 31.66 317.72 
L 31.66 25.49625 
" style="fill: none; stroke: #ffffff; stroke-width: 0.8; stroke-linejoin: miter; stroke-linecap: square"/>
   </g>
   <g id="patch_4">
    <path d="M 450 317.72 
L 450 25.49625 
" style="fill: none; stroke: #ffffff; stroke-width: 0.8; stroke-linejoin: miter; stroke-linecap: square"/>
   </g>
   <g id="patch_5">
    <path d="M 31.66 317.72 
L 450 317.72 
" style="fill: none; stroke: #ffffff; stroke-width: 0.8; stroke-linejoin: miter; stroke-linecap: square"/>
   </g>
   <g id="patch_6">
    <path d="M 31.66 25.49625 
L 450 25.49625 
" style="fill: none; stroke: #ffffff; stroke-width: 0.8; stroke-linejoin: miter; stroke-linecap: square"/>
   </g>
   <g id="text_15">
    <!-- Yearly average ratings from ranked games -->
    <g style="fill: #262626" transform="translate(127.998125 19.49625) scale(0.12 -0.12)">
     <defs>
      <path id="ArialMT-59" d="M 1784 0 
L 1784 1941 
L 19 4581 
L 756 4581 
L 1659 3200 
Q 1909 2813 2125 2425 
Q 2331 2784 2625 3234 
L 3513 4581 
L 4219 4581 
L 2391 1941 
L 2391 0 
L 1784 0 
z
" transform="scale(0.015625)"/>
      <path id="ArialMT-65" d="M 2694 1069 
L 3275 997 
Q 3138 488 2766 206 
Q 2394 -75 1816 -75 
Q 1088 -75 661 373 
Q 234 822 234 1631 
Q 234 2469 665 2931 
Q 1097 3394 1784 3394 
Q 2450 3394 2872 2941 
Q 3294 2488 3294 1666 
Q 3294 1616 3291 1516 
L 816 1516 
Q 847 969 1125 678 
Q 1403 388 1819 388 
Q 2128 388 2347 550 
Q 2566 713 2694 1069 
z
M 847 1978 
L 2700 1978 
Q 2663 2397 2488 2606 
Q 2219 2931 1791 2931 
Q 1403 2931 1139 2672 
Q 875 2413 847 1978 
z
" transform="scale(0.015625)"/>
      <path id="ArialMT-61" d="M 2588 409 
Q 2275 144 1986 34 
Q 1697 -75 1366 -75 
Q 819 -75 525 192 
Q 231 459 231 875 
Q 231 1119 342 1320 
Q 453 1522 633 1644 
Q 813 1766 1038 1828 
Q 1203 1872 1538 1913 
Q 2219 1994 2541 2106 
Q 2544 2222 2544 2253 
Q 2544 2597 2384 2738 
Q 2169 2928 1744 2928 
Q 1347 2928 1158 2789 
Q 969 2650 878 2297 
L 328 2372 
Q 403 2725 575 2942 
Q 747 3159 1072 3276 
Q 1397 3394 1825 3394 
Q 2250 3394 2515 3294 
Q 2781 3194 2906 3042 
Q 3031 2891 3081 2659 
Q 3109 2516 3109 2141 
L 3109 1391 
Q 3109 606 3145 398 
Q 3181 191 3288 0 
L 2700 0 
Q 2613 175 2588 409 
z
M 2541 1666 
Q 2234 1541 1622 1453 
Q 1275 1403 1131 1340 
Q 988 1278 909 1158 
Q 831 1038 831 891 
Q 831 666 1001 516 
Q 1172 366 1500 366 
Q 1825 366 2078 508 
Q 2331 650 2450 897 
Q 2541 1088 2541 1459 
L 2541 1666 
z
" transform="scale(0.015625)"/>
      <path id="ArialMT-72" d="M 416 0 
L 416 3319 
L 922 3319 
L 922 2816 
Q 1116 3169 1280 3281 
Q 1444 3394 1641 3394 
Q 1925 3394 2219 3213 
L 2025 2691 
Q 1819 2813 1613 2813 
Q 1428 2813 1281 2702 
Q 1134 2591 1072 2394 
Q 978 2094 978 1738 
L 978 0 
L 416 0 
z
" transform="scale(0.015625)"/>
      <path id="ArialMT-6c" d="M 409 0 
L 409 4581 
L 972 4581 
L 972 0 
L 409 0 
z
" transform="scale(0.015625)"/>
      <path id="ArialMT-79" d="M 397 -1278 
L 334 -750 
Q 519 -800 656 -800 
Q 844 -800 956 -737 
Q 1069 -675 1141 -563 
Q 1194 -478 1313 -144 
Q 1328 -97 1363 -6 
L 103 3319 
L 709 3319 
L 1400 1397 
Q 1534 1031 1641 628 
Q 1738 1016 1872 1384 
L 2581 3319 
L 3144 3319 
L 1881 -56 
Q 1678 -603 1566 -809 
Q 1416 -1088 1222 -1217 
Q 1028 -1347 759 -1347 
Q 597 -1347 397 -1278 
z
" transform="scale(0.015625)"/>
      <path id="ArialMT-20" transform="scale(0.015625)"/>
      <path id="ArialMT-76" d="M 1344 0 
L 81 3319 
L 675 3319 
L 1388 1331 
Q 1503 1009 1600 663 
Q 1675 925 1809 1294 
L 2547 3319 
L 3125 3319 
L 1869 0 
L 1344 0 
z
" transform="scale(0.015625)"/>
      <path id="ArialMT-67" d="M 319 -275 
L 866 -356 
Q 900 -609 1056 -725 
Q 1266 -881 1628 -881 
Q 2019 -881 2231 -725 
Q 2444 -569 2519 -288 
Q 2563 -116 2559 434 
Q 2191 0 1641 0 
Q 956 0 581 494 
Q 206 988 206 1678 
Q 206 2153 378 2554 
Q 550 2956 876 3175 
Q 1203 3394 1644 3394 
Q 2231 3394 2613 2919 
L 2613 3319 
L 3131 3319 
L 3131 450 
Q 3131 -325 2973 -648 
Q 2816 -972 2473 -1159 
Q 2131 -1347 1631 -1347 
Q 1038 -1347 672 -1080 
Q 306 -813 319 -275 
z
M 784 1719 
Q 784 1066 1043 766 
Q 1303 466 1694 466 
Q 2081 466 2343 764 
Q 2606 1063 2606 1700 
Q 2606 2309 2336 2618 
Q 2066 2928 1684 2928 
Q 1309 2928 1046 2623 
Q 784 2319 784 1719 
z
" transform="scale(0.015625)"/>
      <path id="ArialMT-74" d="M 1650 503 
L 1731 6 
Q 1494 -44 1306 -44 
Q 1000 -44 831 53 
Q 663 150 594 308 
Q 525 466 525 972 
L 525 2881 
L 113 2881 
L 113 3319 
L 525 3319 
L 525 4141 
L 1084 4478 
L 1084 3319 
L 1650 3319 
L 1650 2881 
L 1084 2881 
L 1084 941 
Q 1084 700 1114 631 
Q 1144 563 1211 522 
Q 1278 481 1403 481 
Q 1497 481 1650 503 
z
" transform="scale(0.015625)"/>
      <path id="ArialMT-69" d="M 425 3934 
L 425 4581 
L 988 4581 
L 988 3934 
L 425 3934 
z
M 425 0 
L 425 3319 
L 988 3319 
L 988 0 
L 425 0 
z
" transform="scale(0.015625)"/>
      <path id="ArialMT-6e" d="M 422 0 
L 422 3319 
L 928 3319 
L 928 2847 
Q 1294 3394 1984 3394 
Q 2284 3394 2536 3286 
Q 2788 3178 2913 3003 
Q 3038 2828 3088 2588 
Q 3119 2431 3119 2041 
L 3119 0 
L 2556 0 
L 2556 2019 
Q 2556 2363 2490 2533 
Q 2425 2703 2258 2804 
Q 2091 2906 1866 2906 
Q 1506 2906 1245 2678 
Q 984 2450 984 1813 
L 984 0 
L 422 0 
z
" transform="scale(0.015625)"/>
      <path id="ArialMT-73" d="M 197 991 
L 753 1078 
Q 800 744 1014 566 
Q 1228 388 1613 388 
Q 2000 388 2187 545 
Q 2375 703 2375 916 
Q 2375 1106 2209 1216 
Q 2094 1291 1634 1406 
Q 1016 1563 777 1677 
Q 538 1791 414 1992 
Q 291 2194 291 2438 
Q 291 2659 392 2848 
Q 494 3038 669 3163 
Q 800 3259 1026 3326 
Q 1253 3394 1513 3394 
Q 1903 3394 2198 3281 
Q 2494 3169 2634 2976 
Q 2775 2784 2828 2463 
L 2278 2388 
Q 2241 2644 2061 2787 
Q 1881 2931 1553 2931 
Q 1166 2931 1000 2803 
Q 834 2675 834 2503 
Q 834 2394 903 2306 
Q 972 2216 1119 2156 
Q 1203 2125 1616 2013 
Q 2213 1853 2448 1751 
Q 2684 1650 2818 1456 
Q 2953 1263 2953 975 
Q 2953 694 2789 445 
Q 2625 197 2315 61 
Q 2006 -75 1616 -75 
Q 969 -75 630 194 
Q 291 463 197 991 
z
" transform="scale(0.015625)"/>
      <path id="ArialMT-66" d="M 556 0 
L 556 2881 
L 59 2881 
L 59 3319 
L 556 3319 
L 556 3672 
Q 556 4006 616 4169 
Q 697 4388 901 4523 
Q 1106 4659 1475 4659 
Q 1713 4659 2000 4603 
L 1916 4113 
Q 1741 4144 1584 4144 
Q 1328 4144 1222 4034 
Q 1116 3925 1116 3625 
L 1116 3319 
L 1763 3319 
L 1763 2881 
L 1116 2881 
L 1116 0 
L 556 0 
z
" transform="scale(0.015625)"/>
      <path id="ArialMT-6f" d="M 213 1659 
Q 213 2581 725 3025 
Q 1153 3394 1769 3394 
Q 2453 3394 2887 2945 
Q 3322 2497 3322 1706 
Q 3322 1066 3130 698 
Q 2938 331 2570 128 
Q 2203 -75 1769 -75 
Q 1072 -75 642 372 
Q 213 819 213 1659 
z
M 791 1659 
Q 791 1022 1069 705 
Q 1347 388 1769 388 
Q 2188 388 2466 706 
Q 2744 1025 2744 1678 
Q 2744 2294 2464 2611 
Q 2184 2928 1769 2928 
Q 1347 2928 1069 2612 
Q 791 2297 791 1659 
z
" transform="scale(0.015625)"/>
      <path id="ArialMT-6d" d="M 422 0 
L 422 3319 
L 925 3319 
L 925 2853 
Q 1081 3097 1340 3245 
Q 1600 3394 1931 3394 
Q 2300 3394 2536 3241 
Q 2772 3088 2869 2813 
Q 3263 3394 3894 3394 
Q 4388 3394 4653 3120 
Q 4919 2847 4919 2278 
L 4919 0 
L 4359 0 
L 4359 2091 
Q 4359 2428 4304 2576 
Q 4250 2725 4106 2815 
Q 3963 2906 3769 2906 
Q 3419 2906 3187 2673 
Q 2956 2441 2956 1928 
L 2956 0 
L 2394 0 
L 2394 2156 
Q 2394 2531 2256 2718 
Q 2119 2906 1806 2906 
Q 1569 2906 1367 2781 
Q 1166 2656 1075 2415 
Q 984 2175 984 1722 
L 984 0 
L 422 0 
z
" transform="scale(0.015625)"/>
      <path id="ArialMT-6b" d="M 425 0 
L 425 4581 
L 988 4581 
L 988 1969 
L 2319 3319 
L 3047 3319 
L 1778 2088 
L 3175 0 
L 2481 0 
L 1384 1697 
L 988 1316 
L 988 0 
L 425 0 
z
" transform="scale(0.015625)"/>
      <path id="ArialMT-64" d="M 2575 0 
L 2575 419 
Q 2259 -75 1647 -75 
Q 1250 -75 917 144 
Q 584 363 401 755 
Q 219 1147 219 1656 
Q 219 2153 384 2558 
Q 550 2963 881 3178 
Q 1213 3394 1622 3394 
Q 1922 3394 2156 3267 
Q 2391 3141 2538 2938 
L 2538 4581 
L 3097 4581 
L 3097 0 
L 2575 0 
z
M 797 1656 
Q 797 1019 1065 703 
Q 1334 388 1700 388 
Q 2069 388 2326 689 
Q 2584 991 2584 1609 
Q 2584 2291 2321 2609 
Q 2059 2928 1675 2928 
Q 1300 2928 1048 2622 
Q 797 2316 797 1656 
z
" transform="scale(0.015625)"/>
     </defs>
     <use xlink:href="#ArialMT-59"/>
     <use xlink:href="#ArialMT-65" x="57.574219"/>
     <use xlink:href="#ArialMT-61" x="113.189453"/>
     <use xlink:href="#ArialMT-72" x="168.804688"/>
     <use xlink:href="#ArialMT-6c" x="202.105469"/>
     <use xlink:href="#ArialMT-79" x="224.322266"/>
     <use xlink:href="#ArialMT-20" x="274.322266"/>
     <use xlink:href="#ArialMT-61" x="302.105469"/>
     <use xlink:href="#ArialMT-76" x="357.720703"/>
     <use xlink:href="#ArialMT-65" x="407.720703"/>
     <use xlink:href="#ArialMT-72" x="463.335938"/>
     <use xlink:href="#ArialMT-61" x="496.636719"/>
     <use xlink:href="#ArialMT-67" x="552.251953"/>
     <use xlink:href="#ArialMT-65" x="607.867188"/>
     <use xlink:href="#ArialMT-20" x="663.482422"/>
     <use xlink:href="#ArialMT-72" x="691.265625"/>
     <use xlink:href="#ArialMT-61" x="724.566406"/>
     <use xlink:href="#ArialMT-74" x="780.181641"/>
     <use xlink:href="#ArialMT-69" x="807.964844"/>
     <use xlink:href="#ArialMT-6e" x="830.181641"/>
     <use xlink:href="#ArialMT-67" x="885.796875"/>
     <use xlink:href="#ArialMT-73" x="941.412109"/>
     <use xlink:href="#ArialMT-20" x="991.412109"/>
     <use xlink:href="#ArialMT-66" x="1019.195312"/>
     <use xlink:href="#ArialMT-72" x="1046.978516"/>
     <use xlink:href="#ArialMT-6f" x="1080.279297"/>
     <use xlink:href="#ArialMT-6d" x="1135.894531"/>
     <use xlink:href="#ArialMT-20" x="1219.195312"/>
     <use xlink:href="#ArialMT-72" x="1246.978516"/>
     <use xlink:href="#ArialMT-61" x="1280.279297"/>
     <use xlink:href="#ArialMT-6e" x="1335.894531"/>
     <use xlink:href="#ArialMT-6b" x="1391.509766"/>
     <use xlink:href="#ArialMT-65" x="1441.509766"/>
     <use xlink:href="#ArialMT-64" x="1497.125"/>
     <use xlink:href="#ArialMT-20" x="1552.740234"/>
     <use xlink:href="#ArialMT-67" x="1580.523438"/>
     <use xlink:href="#ArialMT-61" x="1636.138672"/>
     <use xlink:href="#ArialMT-6d" x="1691.753906"/>
     <use xlink:href="#ArialMT-65" x="1775.054688"/>
     <use xlink:href="#ArialMT-73" x="1830.669922"/>
    </g>
   </g>
  </g>
 </g>
 <defs>
  <clipPath id="p08e9a11b70">
   <rect x="31.66" y="25.49625" width="418.34" height="292.22375"/>
  </clipPath>
 </defs>
</svg>
