<?xml version="1.0" encoding="utf-8" standalone="no"?>
<!DOCTYPE svg PUBLIC "-//W3C//DTD SVG 1.1//EN"
  "http://www.w3.org/Graphics/SVG/1.1/DTD/svg11.dtd">
<svg xmlns:xlink="http://www.w3.org/1999/xlink" width="460.8pt" height="345.6pt" viewBox="0 0 460.8 345.6" xmlns="http://www.w3.org/2000/svg" version="1.1">
 <metadata>
  <rdf:RDF xmlns:dc="http://purl.org/dc/elements/1.1/" xmlns:cc="http://creativecommons.org/ns#" xmlns:rdf="http://www.w3.org/1999/02/22-rdf-syntax-ns#">
   <cc:Work>
    <dc:type rdf:resource="http://purl.org/dc/dcmitype/StillImage"/>
    <dc:date>2024-08-18T00:19:37.254763</dc:date>
    <dc:format>image/svg+xml</dc:format>
    <dc:creator>
     <cc:Agent>
      <dc:title>Matplotlib v3.9.2, https://matplotlib.org/</dc:title>
     </cc:Agent>
    </dc:creator>
   </cc:Work>
  </rdf:RDF>
 </metadata>
 <defs>
  <style type="text/css">*{stroke-linejoin: round; stroke-linecap: butt}</style>
 </defs>
 <g id="figure_1">
  <g id="patch_1">
   <path d="M 0 345.6 
L 460.8 345.6 
L 460.8 0 
L 0 0 
z
" style="fill: #ffffff"/>
  </g>
  <g id="axes_1">
   <g id="patch_2">
    <path d="M 31.66 317.72 
L 450 317.72 
L 450 25.49625 
L 31.66 25.49625 
z
" style="fill: #eaeaf2"/>
   </g>
   <g id="matplotlib.axis_1">
    <g id="xtick_1">
     <g id="text_1">
      <!-- 1970 -->
      <g style="fill: #262626" transform="translate(39.55358 331.877812) scale(0.1 -0.1)">
       <defs>
        <path id="ArialMT-31" d="M 2384 0 
L 1822 0 
L 1822 3584 
Q 1619 3391 1289 3197 
Q 959 3003 697 2906 
L 697 3450 
Q 1169 3672 1522 3987 
Q 1875 4303 2022 4600 
L 2384 4600 
L 2384 0 
z
" transform="scale(0.015625)"/>
        <path id="ArialMT-39" d="M 350 1059 
L 891 1109 
Q 959 728 1153 556 
Q 1347 384 1650 384 
Q 1909 384 2104 503 
Q 2300 622 2425 820 
Q 2550 1019 2634 1356 
Q 2719 1694 2719 2044 
Q 2719 2081 2716 2156 
Q 2547 1888 2255 1720 
Q 1963 1553 1622 1553 
Q 1053 1553 659 1965 
Q 266 2378 266 3053 
Q 266 3750 677 4175 
Q 1088 4600 1706 4600 
Q 2153 4600 2523 4359 
Q 2894 4119 3086 3673 
Q 3278 3228 3278 2384 
Q 3278 1506 3087 986 
Q 2897 466 2520 194 
Q 2144 -78 1638 -78 
Q 1100 -78 759 220 
Q 419 519 350 1059 
z
M 2653 3081 
Q 2653 3566 2395 3850 
Q 2138 4134 1775 4134 
Q 1400 4134 1122 3828 
Q 844 3522 844 3034 
Q 844 2597 1108 2323 
Q 1372 2050 1759 2050 
Q 2150 2050 2401 2323 
Q 2653 2597 2653 3081 
z
" transform="scale(0.015625)"/>
        <path id="ArialMT-37" d="M 303 3981 
L 303 4522 
L 3269 4522 
L 3269 4084 
Q 2831 3619 2401 2847 
Q 1972 2075 1738 1259 
Q 1569 684 1522 0 
L 944 0 
Q 953 541 1156 1306 
Q 1359 2072 1739 2783 
Q 2119 3494 2547 3981 
L 303 3981 
z
" transform="scale(0.015625)"/>
        <path id="ArialMT-30" d="M 266 2259 
Q 266 3072 433 3567 
Q 600 4063 929 4331 
Q 1259 4600 1759 4600 
Q 2128 4600 2406 4451 
Q 2684 4303 2865 4023 
Q 3047 3744 3150 3342 
Q 3253 2941 3253 2259 
Q 3253 1453 3087 958 
Q 2922 463 2592 192 
Q 2263 -78 1759 -78 
Q 1097 -78 719 397 
Q 266 969 266 2259 
z
M 844 2259 
Q 844 1131 1108 757 
Q 1372 384 1759 384 
Q 2147 384 2411 759 
Q 2675 1134 2675 2259 
Q 2675 3391 2411 3762 
Q 2147 4134 1753 4134 
Q 1366 4134 1134 3806 
Q 844 3388 844 2259 
z
" transform="scale(0.015625)"/>
       </defs>
       <use xlink:href="#ArialMT-31"/>
       <use xlink:href="#ArialMT-39" x="55.615234"/>
       <use xlink:href="#ArialMT-37" x="111.230469"/>
       <use xlink:href="#ArialMT-30" x="166.845703"/>
      </g>
     </g>
    </g>
    <g id="xtick_2">
     <g id="text_2">
      <!-- 1980 -->
      <g style="fill: #262626" transform="translate(111.310012 331.877812) scale(0.1 -0.1)">
       <defs>
        <path id="ArialMT-38" d="M 1131 2484 
Q 781 2613 612 2850 
Q 444 3088 444 3419 
Q 444 3919 803 4259 
Q 1163 4600 1759 4600 
Q 2359 4600 2725 4251 
Q 3091 3903 3091 3403 
Q 3091 3084 2923 2848 
Q 2756 2613 2416 2484 
Q 2838 2347 3058 2040 
Q 3278 1734 3278 1309 
Q 3278 722 2862 322 
Q 2447 -78 1769 -78 
Q 1091 -78 675 323 
Q 259 725 259 1325 
Q 259 1772 486 2073 
Q 713 2375 1131 2484 
z
M 1019 3438 
Q 1019 3113 1228 2906 
Q 1438 2700 1772 2700 
Q 2097 2700 2305 2904 
Q 2513 3109 2513 3406 
Q 2513 3716 2298 3927 
Q 2084 4138 1766 4138 
Q 1444 4138 1231 3931 
Q 1019 3725 1019 3438 
z
M 838 1322 
Q 838 1081 952 856 
Q 1066 631 1291 507 
Q 1516 384 1775 384 
Q 2178 384 2440 643 
Q 2703 903 2703 1303 
Q 2703 1709 2433 1975 
Q 2163 2241 1756 2241 
Q 1359 2241 1098 1978 
Q 838 1716 838 1322 
z
" transform="scale(0.015625)"/>
       </defs>
       <use xlink:href="#ArialMT-31"/>
       <use xlink:href="#ArialMT-39" x="55.615234"/>
       <use xlink:href="#ArialMT-38" x="111.230469"/>
       <use xlink:href="#ArialMT-30" x="166.845703"/>
      </g>
     </g>
    </g>
    <g id="xtick_3">
     <g id="text_3">
      <!-- 1990 -->
      <g style="fill: #262626" transform="translate(183.066444 331.877812) scale(0.1 -0.1)">
       <use xlink:href="#ArialMT-31"/>
       <use xlink:href="#ArialMT-39" x="55.615234"/>
       <use xlink:href="#ArialMT-39" x="111.230469"/>
       <use xlink:href="#ArialMT-30" x="166.845703"/>
      </g>
     </g>
    </g>
    <g id="xtick_4">
     <g id="text_4">
      <!-- 2000 -->
      <g style="fill: #262626" transform="translate(254.822876 331.877812) scale(0.1 -0.1)">
       <defs>
        <path id="ArialMT-32" d="M 3222 541 
L 3222 0 
L 194 0 
Q 188 203 259 391 
Q 375 700 629 1000 
Q 884 1300 1366 1694 
Q 2113 2306 2375 2664 
Q 2638 3022 2638 3341 
Q 2638 3675 2398 3904 
Q 2159 4134 1775 4134 
Q 1369 4134 1125 3890 
Q 881 3647 878 3216 
L 300 3275 
Q 359 3922 746 4261 
Q 1134 4600 1788 4600 
Q 2447 4600 2831 4234 
Q 3216 3869 3216 3328 
Q 3216 3053 3103 2787 
Q 2991 2522 2730 2228 
Q 2469 1934 1863 1422 
Q 1356 997 1212 845 
Q 1069 694 975 541 
L 3222 541 
z
" transform="scale(0.015625)"/>
       </defs>
       <use xlink:href="#ArialMT-32"/>
       <use xlink:href="#ArialMT-30" x="55.615234"/>
       <use xlink:href="#ArialMT-30" x="111.230469"/>
       <use xlink:href="#ArialMT-30" x="166.845703"/>
      </g>
     </g>
    </g>
    <g id="xtick_5">
     <g id="text_5">
      <!-- 2010 -->
      <g style="fill: #262626" transform="translate(326.579309 331.877812) scale(0.1 -0.1)">
       <use xlink:href="#ArialMT-32"/>
       <use xlink:href="#ArialMT-30" x="55.615234"/>
       <use xlink:href="#ArialMT-31" x="111.230469"/>
       <use xlink:href="#ArialMT-30" x="166.845703"/>
      </g>
     </g>
    </g>
    <g id="xtick_6">
     <g id="text_6">
      <!-- 2020 -->
      <g style="fill: #262626" transform="translate(398.335741 331.877812) scale(0.1 -0.1)">
       <use xlink:href="#ArialMT-32"/>
       <use xlink:href="#ArialMT-30" x="55.615234"/>
       <use xlink:href="#ArialMT-32" x="111.230469"/>
       <use xlink:href="#ArialMT-30" x="166.845703"/>
      </g>
     </g>
    </g>
   </g>
   <g id="matplotlib.axis_2">
    <g id="ytick_1">
     <g id="text_7">
      <!-- 5.8 -->
      <g style="fill: #262626" transform="translate(10.76 307.964328) scale(0.1 -0.1)">
       <defs>
        <path id="ArialMT-35" d="M 266 1200 
L 856 1250 
Q 922 819 1161 601 
Q 1400 384 1738 384 
Q 2144 384 2425 690 
Q 2706 997 2706 1503 
Q 2706 1984 2436 2262 
Q 2166 2541 1728 2541 
Q 1456 2541 1237 2417 
Q 1019 2294 894 2097 
L 366 2166 
L 809 4519 
L 3088 4519 
L 3088 3981 
L 1259 3981 
L 1013 2750 
Q 1425 3038 1878 3038 
Q 2478 3038 2890 2622 
Q 3303 2206 3303 1553 
Q 3303 931 2941 478 
Q 2500 -78 1738 -78 
Q 1113 -78 717 272 
Q 322 622 266 1200 
z
" transform="scale(0.015625)"/>
        <path id="ArialMT-2e" d="M 581 0 
L 581 641 
L 1222 641 
L 1222 0 
L 581 0 
z
" transform="scale(0.015625)"/>
       </defs>
       <use xlink:href="#ArialMT-35"/>
       <use xlink:href="#ArialMT-2e" x="55.615234"/>
       <use xlink:href="#ArialMT-38" x="83.398438"/>
      </g>
     </g>
    </g>
    <g id="ytick_2">
     <g id="text_8">
      <!-- 6.0 -->
      <g style="fill: #262626" transform="translate(10.76 271.049702) scale(0.1 -0.1)">
       <defs>
        <path id="ArialMT-36" d="M 3184 3459 
L 2625 3416 
Q 2550 3747 2413 3897 
Q 2184 4138 1850 4138 
Q 1581 4138 1378 3988 
Q 1113 3794 959 3422 
Q 806 3050 800 2363 
Q 1003 2672 1297 2822 
Q 1591 2972 1913 2972 
Q 2475 2972 2870 2558 
Q 3266 2144 3266 1488 
Q 3266 1056 3080 686 
Q 2894 316 2569 119 
Q 2244 -78 1831 -78 
Q 1128 -78 684 439 
Q 241 956 241 2144 
Q 241 3472 731 4075 
Q 1159 4600 1884 4600 
Q 2425 4600 2770 4297 
Q 3116 3994 3184 3459 
z
M 888 1484 
Q 888 1194 1011 928 
Q 1134 663 1356 523 
Q 1578 384 1822 384 
Q 2178 384 2434 671 
Q 2691 959 2691 1453 
Q 2691 1928 2437 2201 
Q 2184 2475 1800 2475 
Q 1419 2475 1153 2201 
Q 888 1928 888 1484 
z
" transform="scale(0.015625)"/>
       </defs>
       <use xlink:href="#ArialMT-36"/>
       <use xlink:href="#ArialMT-2e" x="55.615234"/>
       <use xlink:href="#ArialMT-30" x="83.398438"/>
      </g>
     </g>
    </g>
    <g id="ytick_3">
     <g id="text_9">
      <!-- 6.2 -->
      <g style="fill: #262626" transform="translate(10.76 234.135075) scale(0.1 -0.1)">
       <use xlink:href="#ArialMT-36"/>
       <use xlink:href="#ArialMT-2e" x="55.615234"/>
       <use xlink:href="#ArialMT-32" x="83.398438"/>
      </g>
     </g>
    </g>
    <g id="ytick_4">
     <g id="text_10">
      <!-- 6.4 -->
      <g style="fill: #262626" transform="translate(10.76 197.220449) scale(0.1 -0.1)">
       <defs>
        <path id="ArialMT-34" d="M 2069 0 
L 2069 1097 
L 81 1097 
L 81 1613 
L 2172 4581 
L 2631 4581 
L 2631 1613 
L 3250 1613 
L 3250 1097 
L 2631 1097 
L 2631 0 
L 2069 0 
z
M 2069 1613 
L 2069 3678 
L 634 1613 
L 2069 1613 
z
" transform="scale(0.015625)"/>
       </defs>
       <use xlink:href="#ArialMT-36"/>
       <use xlink:href="#ArialMT-2e" x="55.615234"/>
       <use xlink:href="#ArialMT-34" x="83.398438"/>
      </g>
     </g>
    </g>
    <g id="ytick_5">
     <g id="text_11">
      <!-- 6.6 -->
      <g style="fill: #262626" transform="translate(10.76 160.305822) scale(0.1 -0.1)">
       <use xlink:href="#ArialMT-36"/>
       <use xlink:href="#ArialMT-2e" x="55.615234"/>
       <use xlink:href="#ArialMT-36" x="83.398438"/>
      </g>
     </g>
    </g>
    <g id="ytick_6">
     <g id="text_12">
      <!-- 6.8 -->
      <g style="fill: #262626" transform="translate(10.76 123.391196) scale(0.1 -0.1)">
       <use xlink:href="#ArialMT-36"/>
       <use xlink:href="#ArialMT-2e" x="55.615234"/>
       <use xlink:href="#ArialMT-38" x="83.398438"/>
      </g>
     </g>
    </g>
    <g id="ytick_7">
     <g id="text_13">
      <!-- 7.0 -->
      <g style="fill: #262626" transform="translate(10.76 86.47657) scale(0.1 -0.1)">
       <use xlink:href="#ArialMT-37"/>
       <use xlink:href="#ArialMT-2e" x="55.615234"/>
       <use xlink:href="#ArialMT-30" x="83.398438"/>
      </g>
     </g>
    </g>
    <g id="ytick_8">
     <g id="text_14">
      <!-- 7.2 -->
      <g style="fill: #262626" transform="translate(10.76 49.561943) scale(0.1 -0.1)">
       <use xlink:href="#ArialMT-37"/>
       <use xlink:href="#ArialMT-2e" x="55.615234"/>
       <use xlink:href="#ArialMT-32" x="83.398438"/>
      </g>
     </g>
    </g>
   </g>
   <g id="PathCollection_1">
    <path d="M 50.675455 256.539414 
C 51.238607 256.539414 51.77877 256.315671 52.176979 255.917462 
C 52.575188 255.519253 52.79893 254.97909 52.79893 254.415938 
C 52.79893 253.852785 52.575188 253.312622 52.176979 252.914414 
C 51.77877 252.516205 51.238607 252.292462 50.675455 252.292462 
C 50.112302 252.292462 49.572139 252.516205 49.17393 252.914414 
C 48.775721 253.312622 48.551979 253.852785 48.551979 254.415938 
C 48.551979 254.97909 48.775721 255.519253 49.17393 255.917462 
C 49.572139 256.315671 50.112302 256.539414 50.675455 256.539414 
z
" clip-path="url(#p37e87104d7)" style="fill: #800080; stroke: #ffffff; stroke-width: 0.354209"/>
    <path d="M 57.851098 249.058355 
C 58.413679 249.058355 58.953293 248.834839 59.351098 248.437034 
C 59.748902 248.03923 59.972418 247.499615 59.972418 246.937034 
C 59.972418 246.374454 59.748902 245.834839 59.351098 245.437034 
C 58.953293 245.03923 58.413679 244.815714 57.851098 244.815714 
C 57.288517 244.815714 56.748902 245.03923 56.351098 245.437034 
C 55.953293 245.834839 55.729777 246.374454 55.729777 246.937034 
C 55.729777 247.499615 55.953293 248.03923 56.351098 248.437034 
C 56.748902 248.834839 57.288517 249.058355 57.851098 249.058355 
z
" clip-path="url(#p37e87104d7)" style="fill: #800080; stroke: #ffffff; stroke-width: 0.354209"/>
    <path d="M 65.026741 266.41597 
C 65.60557 266.41597 66.160769 266.185999 66.570063 265.776705 
C 66.979357 265.367411 67.209328 264.812212 67.209328 264.233383 
C 67.209328 263.654554 66.979357 263.099354 66.570063 262.690061 
C 66.160769 262.280767 65.60557 262.050796 65.026741 262.050796 
C 64.447912 262.050796 63.892713 262.280767 63.483419 262.690061 
C 63.074125 263.099354 62.844154 263.654554 62.844154 264.233383 
C 62.844154 264.812212 63.074125 265.367411 63.483419 265.776705 
C 63.892713 266.185999 64.447912 266.41597 65.026741 266.41597 
z
" clip-path="url(#p37e87104d7)" style="fill: #800080; stroke: #ffffff; stroke-width: 0.354209"/>
    <path d="M 72.202384 279.485119 
C 72.784514 279.485119 73.342879 279.253837 73.754507 278.842209 
C 74.166135 278.430581 74.397417 277.872216 74.397417 277.290086 
C 74.397417 276.707956 74.166135 276.149591 73.754507 275.737963 
C 73.342879 275.326335 72.784514 275.095053 72.202384 275.095053 
C 71.620255 275.095053 71.061889 275.326335 70.650261 275.737963 
C 70.238634 276.149591 70.007351 276.707956 70.007351 277.290086 
C 70.007351 277.872216 70.238634 278.430581 70.650261 278.842209 
C 71.061889 279.253837 71.620255 279.485119 72.202384 279.485119 
z
" clip-path="url(#p37e87104d7)" style="fill: #800080; stroke: #ffffff; stroke-width: 0.354209"/>
    <path d="M 79.378027 249.462691 
C 79.96071 249.462691 80.519605 249.231189 80.931623 248.819171 
C 81.343642 248.407152 81.575144 247.848257 81.575144 247.265575 
C 81.575144 246.682893 81.343642 246.123997 80.931623 245.711979 
C 80.519605 245.29996 79.96071 245.068458 79.378027 245.068458 
C 78.795345 245.068458 78.23645 245.29996 77.824432 245.711979 
C 77.412413 246.123997 77.180911 246.682893 77.180911 247.265575 
C 77.180911 247.848257 77.412413 248.407152 77.824432 248.819171 
C 78.23645 249.231189 78.795345 249.462691 79.378027 249.462691 
z
" clip-path="url(#p37e87104d7)" style="fill: #800080; stroke: #ffffff; stroke-width: 0.354209"/>
    <path d="M 86.553671 252.963506 
C 87.162643 252.963506 87.746755 252.721559 88.177364 252.290951 
C 88.607972 251.860342 88.84992 251.27623 88.84992 250.667257 
C 88.84992 250.058285 88.607972 249.474173 88.177364 249.043564 
C 87.746755 248.612956 87.162643 248.371008 86.553671 248.371008 
C 85.944698 248.371008 85.360586 248.612956 84.929977 249.043564 
C 84.499369 249.474173 84.257422 250.058285 84.257422 250.667257 
C 84.257422 251.27623 84.499369 251.860342 84.929977 252.290951 
C 85.360586 252.721559 85.944698 252.963506 86.553671 252.963506 
z
" clip-path="url(#p37e87104d7)" style="fill: #800080; stroke: #ffffff; stroke-width: 0.354209"/>
    <path d="M 93.729314 248.324329 
C 94.30869 248.324329 94.864414 248.094141 95.274095 247.68446 
C 95.683776 247.274779 95.913964 246.719055 95.913964 246.139679 
C 95.913964 245.560302 95.683776 245.004578 95.274095 244.594897 
C 94.864414 244.185217 94.30869 243.955028 93.729314 243.955028 
C 93.149938 243.955028 92.594213 244.185217 92.184533 244.594897 
C 91.774852 245.004578 91.544663 245.560302 91.544663 246.139679 
C 91.544663 246.719055 91.774852 247.274779 92.184533 247.68446 
C 92.594213 248.094141 93.149938 248.324329 93.729314 248.324329 
z
" clip-path="url(#p37e87104d7)" style="fill: #800080; stroke: #ffffff; stroke-width: 0.354209"/>
    <path d="M 100.904957 249.059729 
C 101.507062 249.059729 102.084587 248.82051 102.510339 248.394758 
C 102.936091 247.969006 103.17531 247.391481 103.17531 246.789376 
C 103.17531 246.187271 102.936091 245.609746 102.510339 245.183994 
C 102.084587 244.758242 101.507062 244.519023 100.904957 244.519023 
C 100.302852 244.519023 99.725327 244.758242 99.299575 245.183994 
C 98.873823 245.609746 98.634604 246.187271 98.634604 246.789376 
C 98.634604 247.391481 98.873823 247.969006 99.299575 248.394758 
C 99.725327 248.82051 100.302852 249.059729 100.904957 249.059729 
z
" clip-path="url(#p37e87104d7)" style="fill: #800080; stroke: #ffffff; stroke-width: 0.354209"/>
    <path d="M 108.0806 260.529475 
C 108.677909 260.529475 109.250833 260.292162 109.673194 259.869801 
C 110.095554 259.44744 110.332867 258.874516 110.332867 258.277208 
C 110.332867 257.679899 110.095554 257.106975 109.673194 256.684614 
C 109.250833 256.262254 108.677909 256.024941 108.0806 256.024941 
C 107.483292 256.024941 106.910368 256.262254 106.488007 256.684614 
C 106.065646 257.106975 105.828333 257.679899 105.828333 258.277208 
C 105.828333 258.874516 106.065646 259.44744 106.488007 259.869801 
C 106.910368 260.292162 107.483292 260.529475 108.0806 260.529475 
z
" clip-path="url(#p37e87104d7)" style="fill: #800080; stroke: #ffffff; stroke-width: 0.354209"/>
    <path d="M 115.256244 219.047931 
C 115.871999 219.047931 116.462618 218.803288 116.898023 218.367883 
C 117.333428 217.932478 117.57807 217.34186 117.57807 216.726104 
C 117.57807 216.110349 117.333428 215.51973 116.898023 215.084325 
C 116.462618 214.64892 115.871999 214.404278 115.256244 214.404278 
C 114.640488 214.404278 114.049869 214.64892 113.614464 215.084325 
C 113.179059 215.51973 112.934417 216.110349 112.934417 216.726104 
C 112.934417 217.34186 113.179059 217.932478 113.614464 218.367883 
C 114.049869 218.803288 114.640488 219.047931 115.256244 219.047931 
z
" clip-path="url(#p37e87104d7)" style="fill: #800080; stroke: #ffffff; stroke-width: 0.354209"/>
    <path d="M 122.431887 230.950363 
C 123.044523 230.950363 123.632149 230.706961 124.065348 230.273762 
C 124.498547 229.840562 124.74195 229.252936 124.74195 228.6403 
C 124.74195 228.027664 124.498547 227.440037 124.065348 227.006838 
C 123.632149 226.573639 123.044523 226.330236 122.431887 226.330236 
C 121.819251 226.330236 121.231624 226.573639 120.798425 227.006838 
C 120.365226 227.440037 120.121823 228.027664 120.121823 228.6403 
C 120.121823 229.252936 120.365226 229.840562 120.798425 230.273762 
C 121.231624 230.706961 121.819251 230.950363 122.431887 230.950363 
z
" clip-path="url(#p37e87104d7)" style="fill: #800080; stroke: #ffffff; stroke-width: 0.354209"/>
    <path d="M 129.60753 251.966785 
C 130.234607 251.966785 130.836084 251.717645 131.279494 251.274235 
C 131.722905 250.830825 131.972045 250.229347 131.972045 249.602271 
C 131.972045 248.975194 131.722905 248.373716 131.279494 247.930306 
C 130.836084 247.486896 130.234607 247.237756 129.60753 247.237756 
C 128.980453 247.237756 128.378976 247.486896 127.935566 247.930306 
C 127.492155 248.373716 127.243015 248.975194 127.243015 249.602271 
C 127.243015 250.229347 127.492155 250.830825 127.935566 251.274235 
C 128.378976 251.717645 128.980453 251.966785 129.60753 251.966785 
z
" clip-path="url(#p37e87104d7)" style="fill: #800080; stroke: #ffffff; stroke-width: 0.354209"/>
    <path d="M 136.783173 255.809138 
C 137.397891 255.809138 137.987514 255.564909 138.422185 255.130238 
C 138.856855 254.695567 139.101085 254.105944 139.101085 253.491226 
C 139.101085 252.876509 138.856855 252.286886 138.422185 251.852215 
C 137.987514 251.417544 137.397891 251.173314 136.783173 251.173314 
C 136.168456 251.173314 135.578833 251.417544 135.144162 251.852215 
C 134.709491 252.286886 134.465261 252.876509 134.465261 253.491226 
C 134.465261 254.105944 134.709491 254.695567 135.144162 255.130238 
C 135.578833 255.564909 136.168456 255.809138 136.783173 255.809138 
z
" clip-path="url(#p37e87104d7)" style="fill: #800080; stroke: #ffffff; stroke-width: 0.354209"/>
    <path d="M 143.958816 250.788063 
C 144.579226 250.788063 145.174308 250.541572 145.613004 250.102876 
C 146.0517 249.66418 146.298191 249.069098 146.298191 248.448688 
C 146.298191 247.828279 146.0517 247.233197 145.613004 246.794501 
C 145.174308 246.355805 144.579226 246.109314 143.958816 246.109314 
C 143.338407 246.109314 142.743325 246.355805 142.304629 246.794501 
C 141.865933 247.233197 141.619442 247.828279 141.619442 248.448688 
C 141.619442 249.069098 141.865933 249.66418 142.304629 250.102876 
C 142.743325 250.541572 143.338407 250.788063 143.958816 250.788063 
z
" clip-path="url(#p37e87104d7)" style="fill: #800080; stroke: #ffffff; stroke-width: 0.354209"/>
    <path d="M 151.13446 284.482374 
C 151.734439 284.482374 152.309926 284.243999 152.734175 283.81975 
C 153.158425 283.3955 153.396799 282.820014 153.396799 282.220034 
C 153.396799 281.620055 153.158425 281.044568 152.734175 280.620319 
C 152.309926 280.196069 151.734439 279.957695 151.13446 279.957695 
C 150.53448 279.957695 149.958994 280.196069 149.534744 280.620319 
C 149.110495 281.044568 148.87212 281.620055 148.87212 282.220034 
C 148.87212 282.820014 149.110495 283.3955 149.534744 283.81975 
C 149.958994 284.243999 150.53448 284.482374 151.13446 284.482374 
z
" clip-path="url(#p37e87104d7)" style="fill: #800080; stroke: #ffffff; stroke-width: 0.354209"/>
    <path d="M 158.310103 250.067196 
C 158.925344 250.067196 159.515468 249.822758 159.950509 249.387717 
C 160.38555 248.952676 160.629988 248.362551 160.629988 247.747311 
C 160.629988 247.13207 160.38555 246.541945 159.950509 246.106904 
C 159.515468 245.671863 158.925344 245.427426 158.310103 245.427426 
C 157.694862 245.427426 157.104737 245.671863 156.669697 246.106904 
C 156.234656 246.541945 155.990218 247.13207 155.990218 247.747311 
C 155.990218 248.362551 156.234656 248.952676 156.669697 249.387717 
C 157.104737 249.822758 157.694862 250.067196 158.310103 250.067196 
z
" clip-path="url(#p37e87104d7)" style="fill: #800080; stroke: #ffffff; stroke-width: 0.354209"/>
    <path d="M 165.485746 261.296647 
C 166.110782 261.296647 166.710303 261.048317 167.152271 260.60635 
C 167.594238 260.164382 167.842568 259.564862 167.842568 258.939825 
C 167.842568 258.314789 167.594238 257.715268 167.152271 257.273301 
C 166.710303 256.831333 166.110782 256.583004 165.485746 256.583004 
C 164.86071 256.583004 164.261189 256.831333 163.819222 257.273301 
C 163.377254 257.715268 163.128925 258.314789 163.128925 258.939825 
C 163.128925 259.564862 163.377254 260.164382 163.819222 260.60635 
C 164.261189 261.048317 164.86071 261.296647 165.485746 261.296647 
z
" clip-path="url(#p37e87104d7)" style="fill: #800080; stroke: #ffffff; stroke-width: 0.354209"/>
    <path d="M 172.661389 274.04593 
C 173.280768 274.04593 173.874863 273.799848 174.31283 273.361881 
C 174.750797 272.923914 174.996879 272.329819 174.996879 271.71044 
C 174.996879 271.091061 174.750797 270.496967 174.31283 270.059 
C 173.874863 269.621033 173.280768 269.374951 172.661389 269.374951 
C 172.04201 269.374951 171.447916 269.621033 171.009949 270.059 
C 170.571982 270.496967 170.3259 271.091061 170.3259 271.71044 
C 170.3259 272.329819 170.571982 272.923914 171.009949 273.361881 
C 171.447916 273.799848 172.04201 274.04593 172.661389 274.04593 
z
" clip-path="url(#p37e87104d7)" style="fill: #800080; stroke: #ffffff; stroke-width: 0.354209"/>
    <path d="M 179.837033 306.764803 
C 180.454346 306.764803 181.046459 306.519541 181.482965 306.083035 
C 181.919472 305.646529 182.164733 305.054416 182.164733 304.437102 
C 182.164733 303.819789 181.919472 303.227676 181.482965 302.79117 
C 181.046459 302.354663 180.454346 302.109402 179.837033 302.109402 
C 179.219719 302.109402 178.627606 302.354663 178.1911 302.79117 
C 177.754593 303.227676 177.509332 303.819789 177.509332 304.437102 
C 177.509332 305.054416 177.754593 305.646529 178.1911 306.083035 
C 178.627606 306.519541 179.219719 306.764803 179.837033 306.764803 
z
" clip-path="url(#p37e87104d7)" style="fill: #800080; stroke: #ffffff; stroke-width: 0.354209"/>
    <path d="M 187.012676 279.983241 
C 187.629989 279.983241 188.222102 279.73798 188.658609 279.301474 
C 189.095115 278.864967 189.340376 278.272854 189.340376 277.655541 
C 189.340376 277.038227 189.095115 276.446115 188.658609 276.009608 
C 188.222102 275.573102 187.629989 275.32784 187.012676 275.32784 
C 186.395362 275.32784 185.80325 275.573102 185.366743 276.009608 
C 184.930237 276.446115 184.684975 277.038227 184.684975 277.655541 
C 184.684975 278.272854 184.930237 278.864967 185.366743 279.301474 
C 185.80325 279.73798 186.395362 279.983241 187.012676 279.983241 
z
" clip-path="url(#p37e87104d7)" style="fill: #800080; stroke: #ffffff; stroke-width: 0.354209"/>
    <path d="M 194.188319 267.968869 
C 194.81284 267.968869 195.411867 267.720744 195.85347 267.279141 
C 196.295074 266.837538 196.543199 266.238511 196.543199 265.61399 
C 196.543199 264.989468 196.295074 264.390442 195.85347 263.948838 
C 195.411867 263.507235 194.81284 263.25911 194.188319 263.25911 
C 193.563798 263.25911 192.964771 263.507235 192.523168 263.948838 
C 192.081565 264.390442 191.83344 264.989468 191.83344 265.61399 
C 191.83344 266.238511 192.081565 266.837538 192.523168 267.279141 
C 192.964771 267.720744 193.563798 267.968869 194.188319 267.968869 
z
" clip-path="url(#p37e87104d7)" style="fill: #800080; stroke: #ffffff; stroke-width: 0.354209"/>
    <path d="M 201.363962 276.518069 
C 202.00115 276.518069 202.612326 276.264911 203.062886 275.814352 
C 203.513446 275.363792 203.766603 274.752616 203.766603 274.115428 
C 203.766603 273.47824 203.513446 272.867064 203.062886 272.416505 
C 202.612326 271.965945 202.00115 271.712787 201.363962 271.712787 
C 200.726774 271.712787 200.115599 271.965945 199.665039 272.416505 
C 199.214479 272.867064 198.961322 273.47824 198.961322 274.115428 
C 198.961322 274.752616 199.214479 275.363792 199.665039 275.814352 
C 200.115599 276.264911 200.726774 276.518069 201.363962 276.518069 
z
" clip-path="url(#p37e87104d7)" style="fill: #800080; stroke: #ffffff; stroke-width: 0.354209"/>
    <path d="M 208.539605 239.722319 
C 209.192656 239.722319 209.819047 239.46286 210.280824 239.001083 
C 210.7426 238.539307 211.00206 237.912916 211.00206 237.259865 
C 211.00206 236.606815 210.7426 235.980424 210.280824 235.518647 
C 209.819047 235.056871 209.192656 234.797411 208.539605 234.797411 
C 207.886555 234.797411 207.260164 235.056871 206.798387 235.518647 
C 206.336611 235.980424 206.077151 236.606815 206.077151 237.259865 
C 206.077151 237.912916 206.336611 238.539307 206.798387 239.001083 
C 207.260164 239.46286 207.886555 239.722319 208.539605 239.722319 
z
" clip-path="url(#p37e87104d7)" style="fill: #800080; stroke: #ffffff; stroke-width: 0.354209"/>
    <path d="M 215.715249 258.980509 
C 216.360911 258.980509 216.980216 258.723984 217.436769 258.267432 
C 217.893321 257.810879 218.149846 257.191574 218.149846 256.545912 
C 218.149846 255.900249 217.893321 255.280944 217.436769 254.824392 
C 216.980216 254.367839 216.360911 254.111315 215.715249 254.111315 
C 215.069586 254.111315 214.450281 254.367839 213.993729 254.824392 
C 213.537176 255.280944 213.280652 255.900249 213.280652 256.545912 
C 213.280652 257.191574 213.537176 257.810879 213.993729 258.267432 
C 214.450281 258.723984 215.069586 258.980509 215.715249 258.980509 
z
" clip-path="url(#p37e87104d7)" style="fill: #800080; stroke: #ffffff; stroke-width: 0.354209"/>
    <path d="M 222.890892 261.82464 
C 223.53358 261.82464 224.150032 261.569297 224.604481 261.114848 
C 225.058931 260.660398 225.314273 260.043946 225.314273 259.401258 
C 225.314273 258.75857 225.058931 258.142118 224.604481 257.687669 
C 224.150032 257.233219 223.53358 256.977877 222.890892 256.977877 
C 222.248204 256.977877 221.631752 257.233219 221.177302 257.687669 
C 220.722853 258.142118 220.46751 258.75857 220.46751 259.401258 
C 220.46751 260.043946 220.722853 260.660398 221.177302 261.114848 
C 221.631752 261.569297 222.248204 261.82464 222.890892 261.82464 
z
" clip-path="url(#p37e87104d7)" style="fill: #800080; stroke: #ffffff; stroke-width: 0.354209"/>
    <path d="M 230.066535 243.29187 
C 230.725435 243.29187 231.357436 243.030087 231.823349 242.564174 
C 232.289261 242.098262 232.551045 241.46626 232.551045 240.807361 
C 232.551045 240.148461 232.289261 239.51646 231.823349 239.050547 
C 231.357436 238.584635 230.725435 238.322851 230.066535 238.322851 
C 229.407636 238.322851 228.775634 238.584635 228.309722 239.050547 
C 227.843809 239.51646 227.582026 240.148461 227.582026 240.807361 
C 227.582026 241.46626 227.843809 242.098262 228.309722 242.564174 
C 228.775634 243.030087 229.407636 243.29187 230.066535 243.29187 
z
" clip-path="url(#p37e87104d7)" style="fill: #800080; stroke: #ffffff; stroke-width: 0.354209"/>
    <path d="M 237.242178 281.515045 
C 237.902527 281.515045 238.535918 281.252686 239.002854 280.785749 
C 239.469791 280.318813 239.73215 279.685422 239.73215 279.025073 
C 239.73215 278.364725 239.469791 277.731334 239.002854 277.264397 
C 238.535918 276.797461 237.902527 276.535102 237.242178 276.535102 
C 236.58183 276.535102 235.948439 276.797461 235.481502 277.264397 
C 235.014566 277.731334 234.752207 278.364725 234.752207 279.025073 
C 234.752207 279.685422 235.014566 280.318813 235.481502 280.785749 
C 235.948439 281.252686 236.58183 281.515045 237.242178 281.515045 
z
" clip-path="url(#p37e87104d7)" style="fill: #800080; stroke: #ffffff; stroke-width: 0.354209"/>
    <path d="M 244.417822 251.78003 
C 245.083479 251.78003 245.721962 251.515561 246.192653 251.044871 
C 246.663344 250.57418 246.927813 249.935696 246.927813 249.270039 
C 246.927813 248.604381 246.663344 247.965898 246.192653 247.495207 
C 245.721962 247.024516 245.083479 246.760048 244.417822 246.760048 
C 243.752164 246.760048 243.113681 247.024516 242.64299 247.495207 
C 242.172299 247.965898 241.90783 248.604381 241.90783 249.270039 
C 241.90783 249.935696 242.172299 250.57418 242.64299 251.044871 
C 243.113681 251.515561 243.752164 251.78003 244.417822 251.78003 
z
" clip-path="url(#p37e87104d7)" style="fill: #800080; stroke: #ffffff; stroke-width: 0.354209"/>
    <path d="M 251.593465 276.871654 
C 252.269601 276.871654 252.918136 276.603022 253.396236 276.124921 
C 253.874337 275.646821 254.142969 274.998286 254.142969 274.32215 
C 254.142969 273.646014 253.874337 272.997479 253.396236 272.519379 
C 252.918136 272.041278 252.269601 271.772646 251.593465 271.772646 
C 250.917329 271.772646 250.268794 272.041278 249.790693 272.519379 
C 249.312593 272.997479 249.043961 273.646014 249.043961 274.32215 
C 249.043961 274.998286 249.312593 275.646821 249.790693 276.124921 
C 250.268794 276.603022 250.917329 276.871654 251.593465 276.871654 
z
" clip-path="url(#p37e87104d7)" style="fill: #800080; stroke: #ffffff; stroke-width: 0.354209"/>
    <path d="M 258.769108 256.893528 
C 259.456032 256.893528 260.114914 256.620611 260.600642 256.134882 
C 261.08637 255.649154 261.359288 254.990272 261.359288 254.303348 
C 261.359288 253.616424 261.08637 252.957543 260.600642 252.471814 
C 260.114914 251.986086 259.456032 251.713168 258.769108 251.713168 
C 258.082184 251.713168 257.423303 251.986086 256.937574 252.471814 
C 256.451846 252.957543 256.178928 253.616424 256.178928 254.303348 
C 256.178928 254.990272 256.451846 255.649154 256.937574 256.134882 
C 257.423303 256.620611 258.082184 256.893528 258.769108 256.893528 
z
" clip-path="url(#p37e87104d7)" style="fill: #800080; stroke: #ffffff; stroke-width: 0.354209"/>
    <path d="M 265.944751 274.720781 
C 266.642757 274.720781 267.312268 274.443461 267.805833 273.949896 
C 268.299397 273.456332 268.576718 272.786821 268.576718 272.088815 
C 268.576718 271.39081 268.299397 270.721298 267.805833 270.227734 
C 267.312268 269.734169 266.642757 269.456849 265.944751 269.456849 
C 265.246746 269.456849 264.577235 269.734169 264.08367 270.227734 
C 263.590106 270.721298 263.312785 271.39081 263.312785 272.088815 
C 263.312785 272.786821 263.590106 273.456332 264.08367 273.949896 
C 264.577235 274.443461 265.246746 274.720781 265.944751 274.720781 
z
" clip-path="url(#p37e87104d7)" style="fill: #800080; stroke: #ffffff; stroke-width: 0.354209"/>
    <path d="M 273.120395 279.371671 
C 273.819775 279.371671 274.490604 279.093804 274.985141 278.599267 
C 275.479677 278.104731 275.757544 277.433901 275.757544 276.734521 
C 275.757544 276.035141 275.479677 275.364311 274.985141 274.869775 
C 274.490604 274.375238 273.819775 274.097371 273.120395 274.097371 
C 272.421014 274.097371 271.750185 274.375238 271.255648 274.869775 
C 270.761112 275.364311 270.483245 276.035141 270.483245 276.734521 
C 270.483245 277.433901 270.761112 278.104731 271.255648 278.599267 
C 271.750185 279.093804 272.421014 279.371671 273.120395 279.371671 
z
" clip-path="url(#p37e87104d7)" style="fill: #800080; stroke: #ffffff; stroke-width: 0.354209"/>
    <path d="M 280.296038 273.909927 
C 281.01347 273.909927 281.701614 273.624889 282.208915 273.117587 
C 282.716216 272.610286 283.001255 271.922142 283.001255 271.20471 
C 283.001255 270.487278 282.716216 269.799133 282.208915 269.291832 
C 281.701614 268.784531 281.01347 268.499492 280.296038 268.499492 
C 279.578606 268.499492 278.890461 268.784531 278.38316 269.291832 
C 277.875859 269.799133 277.59082 270.487278 277.59082 271.20471 
C 277.59082 271.922142 277.875859 272.610286 278.38316 273.117587 
C 278.890461 273.624889 279.578606 273.909927 280.296038 273.909927 
z
" clip-path="url(#p37e87104d7)" style="fill: #800080; stroke: #ffffff; stroke-width: 0.354209"/>
    <path d="M 287.471681 270.520713 
C 288.221789 270.520713 288.941276 270.222692 289.471683 269.692285 
C 290.00209 269.161878 290.300111 268.442392 290.300111 267.692283 
C 290.300111 266.942175 290.00209 266.222688 289.471683 265.692281 
C 288.941276 265.161875 288.221789 264.863853 287.471681 264.863853 
C 286.721573 264.863853 286.002086 265.161875 285.471679 265.692281 
C 284.941272 266.222688 284.643251 266.942175 284.643251 267.692283 
C 284.643251 268.442392 284.941272 269.161878 285.471679 269.692285 
C 286.002086 270.222692 286.721573 270.520713 287.471681 270.520713 
z
" clip-path="url(#p37e87104d7)" style="fill: #800080; stroke: #ffffff; stroke-width: 0.354209"/>
    <path d="M 294.647324 255.891057 
C 295.434041 255.891057 296.188643 255.578491 296.744936 255.022198 
C 297.301229 254.465905 297.613795 253.711304 297.613795 252.924587 
C 297.613795 252.13787 297.301229 251.383268 296.744936 250.826975 
C 296.188643 250.270682 295.434041 249.958116 294.647324 249.958116 
C 293.860607 249.958116 293.106006 250.270682 292.549713 250.826975 
C 291.99342 251.383268 291.680854 252.13787 291.680854 252.924587 
C 291.680854 253.711304 291.99342 254.465905 292.549713 255.022198 
C 293.106006 255.578491 293.860607 255.891057 294.647324 255.891057 
z
" clip-path="url(#p37e87104d7)" style="fill: #800080; stroke: #ffffff; stroke-width: 0.354209"/>
    <path d="M 301.822967 264.087832 
C 302.627764 264.087832 303.399707 263.768082 303.968785 263.199005 
C 304.537862 262.629928 304.857611 261.857985 304.857611 261.053188 
C 304.857611 260.248391 304.537862 259.476448 303.968785 258.90737 
C 303.399707 258.338293 302.627764 258.018544 301.822967 258.018544 
C 301.01817 258.018544 300.246228 258.338293 299.67715 258.90737 
C 299.108073 259.476448 298.788323 260.248391 298.788323 261.053188 
C 298.788323 261.857985 299.108073 262.629928 299.67715 263.199005 
C 300.246228 263.768082 301.01817 264.087832 301.822967 264.087832 
z
" clip-path="url(#p37e87104d7)" style="fill: #800080; stroke: #ffffff; stroke-width: 0.354209"/>
    <path d="M 308.998611 264.503384 
C 309.796625 264.503384 310.562061 264.18633 311.126342 263.622049 
C 311.690623 263.057768 312.007678 262.292331 312.007678 261.494317 
C 312.007678 260.696304 311.690623 259.930867 311.126342 259.366586 
C 310.562061 258.802305 309.796625 258.48525 308.998611 258.48525 
C 308.200597 258.48525 307.43516 258.802305 306.870879 259.366586 
C 306.306598 259.930867 305.989544 260.696304 305.989544 261.494317 
C 305.989544 262.292331 306.306598 263.057768 306.870879 263.622049 
C 307.43516 264.18633 308.200597 264.503384 308.998611 264.503384 
z
" clip-path="url(#p37e87104d7)" style="fill: #800080; stroke: #ffffff; stroke-width: 0.354209"/>
    <path d="M 316.174254 257.380805 
C 316.978657 257.380805 317.750222 257.061212 318.319021 256.492413 
C 318.88782 255.923614 319.207413 255.152049 319.207413 254.347646 
C 319.207413 253.543243 318.88782 252.771677 318.319021 252.202879 
C 317.750222 251.63408 316.978657 251.314487 316.174254 251.314487 
C 315.369851 251.314487 314.598286 251.63408 314.029487 252.202879 
C 313.460688 252.771677 313.141095 253.543243 313.141095 254.347646 
C 313.141095 255.152049 313.460688 255.923614 314.029487 256.492413 
C 314.598286 257.061212 315.369851 257.380805 316.174254 257.380805 
z
" clip-path="url(#p37e87104d7)" style="fill: #800080; stroke: #ffffff; stroke-width: 0.354209"/>
    <path d="M 323.349897 229.58759 
C 324.174318 229.58759 324.965085 229.260044 325.548039 228.67709 
C 326.130993 228.094136 326.458539 227.30337 326.458539 226.478949 
C 326.458539 225.654527 326.130993 224.863761 325.548039 224.280807 
C 324.965085 223.697853 324.174318 223.370307 323.349897 223.370307 
C 322.525476 223.370307 321.734709 223.697853 321.151756 224.280807 
C 320.568802 224.863761 320.241255 225.654527 320.241255 226.478949 
C 320.241255 227.30337 320.568802 228.094136 321.151756 228.67709 
C 321.734709 229.260044 322.525476 229.58759 323.349897 229.58759 
z
" clip-path="url(#p37e87104d7)" style="fill: #800080; stroke: #ffffff; stroke-width: 0.354209"/>
    <path d="M 330.52554 226.843471 
C 331.375543 226.843471 332.190847 226.505761 332.79189 225.904718 
C 333.392933 225.303675 333.730643 224.488371 333.730643 223.638368 
C 333.730643 222.788365 333.392933 221.973061 332.79189 221.372018 
C 332.190847 220.770975 331.375543 220.433265 330.52554 220.433265 
C 329.675537 220.433265 328.860234 220.770975 328.259191 221.372018 
C 327.658148 221.973061 327.320438 222.788365 327.320438 223.638368 
C 327.320438 224.488371 327.658148 225.303675 328.259191 225.904718 
C 328.860234 226.505761 329.675537 226.843471 330.52554 226.843471 
z
" clip-path="url(#p37e87104d7)" style="fill: #800080; stroke: #ffffff; stroke-width: 0.354209"/>
    <path d="M 337.701184 207.228897 
C 338.574196 207.228897 339.411571 206.882046 340.028884 206.264732 
C 340.646197 205.647419 340.993049 204.810045 340.993049 203.937032 
C 340.993049 203.064019 340.646197 202.226645 340.028884 201.609332 
C 339.411571 200.992018 338.574196 200.645166 337.701184 200.645166 
C 336.828171 200.645166 335.990797 200.992018 335.373483 201.609332 
C 334.75617 202.226645 334.409318 203.064019 334.409318 203.937032 
C 334.409318 204.810045 334.75617 205.647419 335.373483 206.264732 
C 335.990797 206.882046 336.828171 207.228897 337.701184 207.228897 
z
" clip-path="url(#p37e87104d7)" style="fill: #800080; stroke: #ffffff; stroke-width: 0.354209"/>
    <path d="M 344.876827 207.287473 
C 345.762927 207.287473 346.612853 206.935422 347.239421 206.308854 
C 347.865988 205.682287 348.218039 204.83236 348.218039 203.946261 
C 348.218039 203.060161 347.865988 202.210234 347.239421 201.583667 
C 346.612853 200.9571 345.762927 200.605048 344.876827 200.605048 
C 343.990727 200.605048 343.1408 200.9571 342.514233 201.583667 
C 341.887666 202.210234 341.535615 203.060161 341.535615 203.946261 
C 341.535615 204.83236 341.887666 205.682287 342.514233 206.308854 
C 343.1408 206.935422 343.990727 207.287473 344.876827 207.287473 
z
" clip-path="url(#p37e87104d7)" style="fill: #800080; stroke: #ffffff; stroke-width: 0.354209"/>
    <path d="M 352.05247 208.367464 
C 352.972898 208.367464 353.855751 208.001775 354.506592 207.350934 
C 355.157432 206.700093 355.523122 205.81724 355.523122 204.896812 
C 355.523122 203.976384 355.157432 203.093531 354.506592 202.442691 
C 353.855751 201.79185 352.972898 201.42616 352.05247 201.42616 
C 351.132042 201.42616 350.249189 201.79185 349.598348 202.442691 
C 348.947508 203.093531 348.581818 203.976384 348.581818 204.896812 
C 348.581818 205.81724 348.947508 206.700093 349.598348 207.350934 
C 350.249189 208.001775 351.132042 208.367464 352.05247 208.367464 
z
" clip-path="url(#p37e87104d7)" style="fill: #800080; stroke: #ffffff; stroke-width: 0.354209"/>
    <path d="M 359.228113 202.86802 
C 360.165405 202.86802 361.064434 202.49563 361.7272 201.832864 
C 362.389965 201.170099 362.762355 200.27107 362.762355 199.333778 
C 362.762355 198.396486 362.389965 197.497457 361.7272 196.834692 
C 361.064434 196.171926 360.165405 195.799536 359.228113 195.799536 
C 358.290821 195.799536 357.391792 196.171926 356.729027 196.834692 
C 356.066261 197.497457 355.693871 198.396486 355.693871 199.333778 
C 355.693871 200.27107 356.066261 201.170099 356.729027 201.832864 
C 357.391792 202.49563 358.290821 202.86802 359.228113 202.86802 
z
" clip-path="url(#p37e87104d7)" style="fill: #800080; stroke: #ffffff; stroke-width: 0.354209"/>
    <path d="M 366.403756 200.89709 
C 367.389591 200.89709 368.33518 200.505413 369.03227 199.808323 
C 369.72936 199.111233 370.121036 198.165644 370.121036 197.17981 
C 370.121036 196.193975 369.72936 195.248386 369.03227 194.551296 
C 368.33518 193.854206 367.389591 193.46253 366.403756 193.46253 
C 365.417922 193.46253 364.472333 193.854206 363.775243 194.551296 
C 363.078153 195.248386 362.686476 196.193975 362.686476 197.17981 
C 362.686476 198.165644 363.078153 199.111233 363.775243 199.808323 
C 364.472333 200.505413 365.417922 200.89709 366.403756 200.89709 
z
" clip-path="url(#p37e87104d7)" style="fill: #800080; stroke: #ffffff; stroke-width: 0.354209"/>
    <path d="M 373.5794 184.994221 
C 374.616129 184.994221 375.610535 184.582324 376.343613 183.849246 
C 377.076691 183.116168 377.488588 182.121761 377.488588 181.085032 
C 377.488588 180.048304 377.076691 179.053897 376.343613 178.320819 
C 375.610535 177.587741 374.616129 177.175844 373.5794 177.175844 
C 372.542671 177.175844 371.548264 177.587741 370.815186 178.320819 
C 370.082108 179.053897 369.670211 180.048304 369.670211 181.085032 
C 369.670211 182.121761 370.082108 183.116168 370.815186 183.849246 
C 371.548264 184.582324 372.542671 184.994221 373.5794 184.994221 
z
" clip-path="url(#p37e87104d7)" style="fill: #800080; stroke: #ffffff; stroke-width: 0.354209"/>
    <path d="M 380.755043 173.931843 
C 381.83999 173.931843 382.880647 173.500789 383.647821 172.733615 
C 384.414995 171.966442 384.846049 170.925785 384.846049 169.840837 
C 384.846049 168.75589 384.414995 167.715233 383.647821 166.948059 
C 382.880647 166.180886 381.83999 165.749831 380.755043 165.749831 
C 379.670095 165.749831 378.629439 166.180886 377.862265 166.948059 
C 377.095091 167.715233 376.664037 168.75589 376.664037 169.840837 
C 376.664037 170.925785 377.095091 171.966442 377.862265 172.733615 
C 378.629439 173.500789 379.670095 173.931843 380.755043 173.931843 
z
" clip-path="url(#p37e87104d7)" style="fill: #800080; stroke: #ffffff; stroke-width: 0.354209"/>
    <path d="M 387.930686 155.591435 
C 389.036358 155.591435 390.096893 155.152147 390.878721 154.370319 
C 391.660549 153.588491 392.099837 152.527956 392.099837 151.422284 
C 392.099837 150.316613 391.660549 149.256077 390.878721 148.474249 
C 390.096893 147.692421 389.036358 147.253133 387.930686 147.253133 
C 386.825014 147.253133 385.764479 147.692421 384.982651 148.474249 
C 384.200823 149.256077 383.761535 150.316613 383.761535 151.422284 
C 383.761535 152.527956 384.200823 153.588491 384.982651 154.370319 
C 385.764479 155.152147 386.825014 155.591435 387.930686 155.591435 
z
" clip-path="url(#p37e87104d7)" style="fill: #800080; stroke: #ffffff; stroke-width: 0.354209"/>
    <path d="M 395.106329 140.120363 
C 396.223219 140.120363 397.294514 139.676618 398.084274 138.886858 
C 398.874035 138.097097 399.31778 137.025802 399.31778 135.908913 
C 399.31778 134.792023 398.874035 133.720728 398.084274 132.930968 
C 397.294514 132.141207 396.223219 131.697462 395.106329 131.697462 
C 393.98944 131.697462 392.918145 132.141207 392.128384 132.930968 
C 391.338624 133.720728 390.894879 134.792023 390.894879 135.908913 
C 390.894879 137.025802 391.338624 138.097097 392.128384 138.886858 
C 392.918145 139.676618 393.98944 140.120363 395.106329 140.120363 
z
" clip-path="url(#p37e87104d7)" style="fill: #800080; stroke: #ffffff; stroke-width: 0.354209"/>
    <path d="M 402.281973 125.03686 
C 403.407134 125.03686 404.486363 124.589828 405.281973 123.794219 
C 406.077582 122.99861 406.524613 121.91938 406.524613 120.794219 
C 406.524613 119.669057 406.077582 118.589828 405.281973 117.794219 
C 404.486363 116.99861 403.407134 116.551578 402.281973 116.551578 
C 401.156811 116.551578 400.077582 116.99861 399.281973 117.794219 
C 398.486363 118.589828 398.039332 119.669057 398.039332 120.794219 
C 398.039332 121.91938 398.486363 122.99861 399.281973 123.794219 
C 400.077582 124.589828 401.156811 125.03686 402.281973 125.03686 
z
" clip-path="url(#p37e87104d7)" style="fill: #800080; stroke: #ffffff; stroke-width: 0.354209"/>
    <path d="M 409.457616 106.078258 
C 410.50172 106.078258 411.503202 105.663431 412.241495 104.925138 
C 412.979789 104.186844 413.394616 103.185363 413.394616 102.141258 
C 413.394616 101.097154 412.979789 100.095672 412.241495 99.357379 
C 411.503202 98.619085 410.50172 98.204258 409.457616 98.204258 
C 408.413511 98.204258 407.41203 98.619085 406.673736 99.357379 
C 405.935443 100.095672 405.520616 101.097154 405.520616 102.141258 
C 405.520616 103.185363 405.935443 104.186844 406.673736 104.925138 
C 407.41203 105.663431 408.413511 106.078258 409.457616 106.078258 
z
" clip-path="url(#p37e87104d7)" style="fill: #800080; stroke: #ffffff; stroke-width: 0.354209"/>
    <path d="M 416.633259 94.229775 
C 417.672763 94.229775 418.669832 93.816775 419.404873 93.081735 
C 420.139914 92.346694 420.552913 91.349625 420.552913 90.31012 
C 420.552913 89.270616 420.139914 88.273547 419.404873 87.538506 
C 418.669832 86.803466 417.672763 86.390466 416.633259 86.390466 
C 415.593755 86.390466 414.596686 86.803466 413.861645 87.538506 
C 413.126604 88.273547 412.713605 89.270616 412.713605 90.31012 
C 412.713605 91.349625 413.126604 92.346694 413.861645 93.081735 
C 414.596686 93.816775 415.593755 94.229775 416.633259 94.229775 
z
" clip-path="url(#p37e87104d7)" style="fill: #800080; stroke: #ffffff; stroke-width: 0.354209"/>
    <path d="M 423.808902 74.258415 
C 424.862457 74.258415 425.873003 73.839833 426.617978 73.094857 
C 427.362954 72.349882 427.781536 71.339336 427.781536 70.285781 
C 427.781536 69.232227 427.362954 68.221681 426.617978 67.476705 
C 425.873003 66.73173 424.862457 66.313148 423.808902 66.313148 
C 422.755348 66.313148 421.744802 66.73173 420.999826 67.476705 
C 420.25485 68.221681 419.836269 69.232227 419.836269 70.285781 
C 419.836269 71.339336 420.25485 72.349882 420.999826 73.094857 
C 421.744802 73.839833 422.755348 74.258415 423.808902 74.258415 
z
" clip-path="url(#p37e87104d7)" style="fill: #800080; stroke: #ffffff; stroke-width: 0.354209"/>
    <path d="M 430.984545 42.573885 
C 431.990921 42.573885 432.956214 42.174047 433.66783 41.462432 
C 434.379445 40.750817 434.779282 39.785524 434.779282 38.779148 
C 434.779282 37.772772 434.379445 36.807479 433.66783 36.095864 
C 432.956214 35.384248 431.990921 34.984411 430.984545 34.984411 
C 429.978169 34.984411 429.012877 35.384248 428.301261 36.095864 
C 427.589646 36.807479 427.189809 37.772772 427.189809 38.779148 
C 427.189809 39.785524 427.589646 40.750817 428.301261 41.462432 
C 429.012877 42.174047 429.978169 42.573885 430.984545 42.573885 
z
" clip-path="url(#p37e87104d7)" style="fill: #800080; stroke: #ffffff; stroke-width: 0.354209"/>
   </g>
   <g id="patch_3">
    <path d="M 31.66 317.72 
L 31.66 25.49625 
" style="fill: none; stroke: #ffffff; stroke-width: 0.8; stroke-linejoin: miter; stroke-linecap: square"/>
   </g>
   <g id="patch_4">
    <path d="M 450 317.72 
L 450 25.49625 
" style="fill: none; stroke: #ffffff; stroke-width: 0.8; stroke-linejoin: miter; stroke-linecap: square"/>
   </g>
   <g id="patch_5">
    <path d="M 31.66 317.72 
L 450 317.72 
" style="fill: none; stroke: #ffffff; stroke-width: 0.8; stroke-linejoin: miter; stroke-linecap: square"/>
   </g>
   <g id="patch_6">
    <path d="M 31.66 25.49625 
L 450 25.49625 
" style="fill: none; stroke: #ffffff; stroke-width: 0.8; stroke-linejoin: miter; stroke-linecap: square"/>
   </g>
   <g id="text_15">
    <!-- Yearly average ratings from ranked games -->
    <g style="fill: #262626" transform="translate(127.998125 19.49625) scale(0.12 -0.12)">
     <defs>
      <path id="ArialMT-59" d="M 1784 0 
L 1784 1941 
L 19 4581 
L 756 4581 
L 1659 3200 
Q 1909 2813 2125 2425 
Q 2331 2784 2625 3234 
L 3513 4581 
L 4219 4581 
L 2391 1941 
L 2391 0 
L 1784 0 
z
" transform="scale(0.015625)"/>
      <path id="ArialMT-65" d="M 2694 1069 
L 3275 997 
Q 3138 488 2766 206 
Q 2394 -75 1816 -75 
Q 1088 -75 661 373 
Q 234 822 234 1631 
Q 234 2469 665 2931 
Q 1097 3394 1784 3394 
Q 2450 3394 2872 2941 
Q 3294 2488 3294 1666 
Q 3294 1616 3291 1516 
L 816 1516 
Q 847 969 1125 678 
Q 1403 388 1819 388 
Q 2128 388 2347 550 
Q 2566 713 2694 1069 
z
M 847 1978 
L 2700 1978 
Q 2663 2397 2488 2606 
Q 2219 2931 1791 2931 
Q 1403 2931 1139 2672 
Q 875 2413 847 1978 
z
" transform="scale(0.015625)"/>
      <path id="ArialMT-61" d="M 2588 409 
Q 2275 144 1986 34 
Q 1697 -75 1366 -75 
Q 819 -75 525 192 
Q 231 459 231 875 
Q 231 1119 342 1320 
Q 453 1522 633 1644 
Q 813 1766 1038 1828 
Q 1203 1872 1538 1913 
Q 2219 1994 2541 2106 
Q 2544 2222 2544 2253 
Q 2544 2597 2384 2738 
Q 2169 2928 1744 2928 
Q 1347 2928 1158 2789 
Q 969 2650 878 2297 
L 328 2372 
Q 403 2725 575 2942 
Q 747 3159 1072 3276 
Q 1397 3394 1825 3394 
Q 2250 3394 2515 3294 
Q 2781 3194 2906 3042 
Q 3031 2891 3081 2659 
Q 3109 2516 3109 2141 
L 3109 1391 
Q 3109 606 3145 398 
Q 3181 191 3288 0 
L 2700 0 
Q 2613 175 2588 409 
z
M 2541 1666 
Q 2234 1541 1622 1453 
Q 1275 1403 1131 1340 
Q 988 1278 909 1158 
Q 831 1038 831 891 
Q 831 666 1001 516 
Q 1172 366 1500 366 
Q 1825 366 2078 508 
Q 2331 650 2450 897 
Q 2541 1088 2541 1459 
L 2541 1666 
z
" transform="scale(0.015625)"/>
      <path id="ArialMT-72" d="M 416 0 
L 416 3319 
L 922 3319 
L 922 2816 
Q 1116 3169 1280 3281 
Q 1444 3394 1641 3394 
Q 1925 3394 2219 3213 
L 2025 2691 
Q 1819 2813 1613 2813 
Q 1428 2813 1281 2702 
Q 1134 2591 1072 2394 
Q 978 2094 978 1738 
L 978 0 
L 416 0 
z
" transform="scale(0.015625)"/>
      <path id="ArialMT-6c" d="M 409 0 
L 409 4581 
L 972 4581 
L 972 0 
L 409 0 
z
" transform="scale(0.015625)"/>
      <path id="ArialMT-79" d="M 397 -1278 
L 334 -750 
Q 519 -800 656 -800 
Q 844 -800 956 -737 
Q 1069 -675 1141 -563 
Q 1194 -478 1313 -144 
Q 1328 -97 1363 -6 
L 103 3319 
L 709 3319 
L 1400 1397 
Q 1534 1031 1641 628 
Q 1738 1016 1872 1384 
L 2581 3319 
L 3144 3319 
L 1881 -56 
Q 1678 -603 1566 -809 
Q 1416 -1088 1222 -1217 
Q 1028 -1347 759 -1347 
Q 597 -1347 397 -1278 
z
" transform="scale(0.015625)"/>
      <path id="ArialMT-20" transform="scale(0.015625)"/>
      <path id="ArialMT-76" d="M 1344 0 
L 81 3319 
L 675 3319 
L 1388 1331 
Q 1503 1009 1600 663 
Q 1675 925 1809 1294 
L 2547 3319 
L 3125 3319 
L 1869 0 
L 1344 0 
z
" transform="scale(0.015625)"/>
      <path id="ArialMT-67" d="M 319 -275 
L 866 -356 
Q 900 -609 1056 -725 
Q 1266 -881 1628 -881 
Q 2019 -881 2231 -725 
Q 2444 -569 2519 -288 
Q 2563 -116 2559 434 
Q 2191 0 1641 0 
Q 956 0 581 494 
Q 206 988 206 1678 
Q 206 2153 378 2554 
Q 550 2956 876 3175 
Q 1203 3394 1644 3394 
Q 2231 3394 2613 2919 
L 2613 3319 
L 3131 3319 
L 3131 450 
Q 3131 -325 2973 -648 
Q 2816 -972 2473 -1159 
Q 2131 -1347 1631 -1347 
Q 1038 -1347 672 -1080 
Q 306 -813 319 -275 
z
M 784 1719 
Q 784 1066 1043 766 
Q 1303 466 1694 466 
Q 2081 466 2343 764 
Q 2606 1063 2606 1700 
Q 2606 2309 2336 2618 
Q 2066 2928 1684 2928 
Q 1309 2928 1046 2623 
Q 784 2319 784 1719 
z
" transform="scale(0.015625)"/>
      <path id="ArialMT-74" d="M 1650 503 
L 1731 6 
Q 1494 -44 1306 -44 
Q 1000 -44 831 53 
Q 663 150 594 308 
Q 525 466 525 972 
L 525 2881 
L 113 2881 
L 113 3319 
L 525 3319 
L 525 4141 
L 1084 4478 
L 1084 3319 
L 1650 3319 
L 1650 2881 
L 1084 2881 
L 1084 941 
Q 1084 700 1114 631 
Q 1144 563 1211 522 
Q 1278 481 1403 481 
Q 1497 481 1650 503 
z
" transform="scale(0.015625)"/>
      <path id="ArialMT-69" d="M 425 3934 
L 425 4581 
L 988 4581 
L 988 3934 
L 425 3934 
z
M 425 0 
L 425 3319 
L 988 3319 
L 988 0 
L 425 0 
z
" transform="scale(0.015625)"/>
      <path id="ArialMT-6e" d="M 422 0 
L 422 3319 
L 928 3319 
L 928 2847 
Q 1294 3394 1984 3394 
Q 2284 3394 2536 3286 
Q 2788 3178 2913 3003 
Q 3038 2828 3088 2588 
Q 3119 2431 3119 2041 
L 3119 0 
L 2556 0 
L 2556 2019 
Q 2556 2363 2490 2533 
Q 2425 2703 2258 2804 
Q 2091 2906 1866 2906 
Q 1506 2906 1245 2678 
Q 984 2450 984 1813 
L 984 0 
L 422 0 
z
" transform="scale(0.015625)"/>
      <path id="ArialMT-73" d="M 197 991 
L 753 1078 
Q 800 744 1014 566 
Q 1228 388 1613 388 
Q 2000 388 2187 545 
Q 2375 703 2375 916 
Q 2375 1106 2209 1216 
Q 2094 1291 1634 1406 
Q 1016 1563 777 1677 
Q 538 1791 414 1992 
Q 291 2194 291 2438 
Q 291 2659 392 2848 
Q 494 3038 669 3163 
Q 800 3259 1026 3326 
Q 1253 3394 1513 3394 
Q 1903 3394 2198 3281 
Q 2494 3169 2634 2976 
Q 2775 2784 2828 2463 
L 2278 2388 
Q 2241 2644 2061 2787 
Q 1881 2931 1553 2931 
Q 1166 2931 1000 2803 
Q 834 2675 834 2503 
Q 834 2394 903 2306 
Q 972 2216 1119 2156 
Q 1203 2125 1616 2013 
Q 2213 1853 2448 1751 
Q 2684 1650 2818 1456 
Q 2953 1263 2953 975 
Q 2953 694 2789 445 
Q 2625 197 2315 61 
Q 2006 -75 1616 -75 
Q 969 -75 630 194 
Q 291 463 197 991 
z
" transform="scale(0.015625)"/>
      <path id="ArialMT-66" d="M 556 0 
L 556 2881 
L 59 2881 
L 59 3319 
L 556 3319 
L 556 3672 
Q 556 4006 616 4169 
Q 697 4388 901 4523 
Q 1106 4659 1475 4659 
Q 1713 4659 2000 4603 
L 1916 4113 
Q 1741 4144 1584 4144 
Q 1328 4144 1222 4034 
Q 1116 3925 1116 3625 
L 1116 3319 
L 1763 3319 
L 1763 2881 
L 1116 2881 
L 1116 0 
L 556 0 
z
" transform="scale(0.015625)"/>
      <path id="ArialMT-6f" d="M 213 1659 
Q 213 2581 725 3025 
Q 1153 3394 1769 3394 
Q 2453 3394 2887 2945 
Q 3322 2497 3322 1706 
Q 3322 1066 3130 698 
Q 2938 331 2570 128 
Q 2203 -75 1769 -75 
Q 1072 -75 642 372 
Q 213 819 213 1659 
z
M 791 1659 
Q 791 1022 1069 705 
Q 1347 388 1769 388 
Q 2188 388 2466 706 
Q 2744 1025 2744 1678 
Q 2744 2294 2464 2611 
Q 2184 2928 1769 2928 
Q 1347 2928 1069 2612 
Q 791 2297 791 1659 
z
" transform="scale(0.015625)"/>
      <path id="ArialMT-6d" d="M 422 0 
L 422 3319 
L 925 3319 
L 925 2853 
Q 1081 3097 1340 3245 
Q 1600 3394 1931 3394 
Q 2300 3394 2536 3241 
Q 2772 3088 2869 2813 
Q 3263 3394 3894 3394 
Q 4388 3394 4653 3120 
Q 4919 2847 4919 2278 
L 4919 0 
L 4359 0 
L 4359 2091 
Q 4359 2428 4304 2576 
Q 4250 2725 4106 2815 
Q 3963 2906 3769 2906 
Q 3419 2906 3187 2673 
Q 2956 2441 2956 1928 
L 2956 0 
L 2394 0 
L 2394 2156 
Q 2394 2531 2256 2718 
Q 2119 2906 1806 2906 
Q 1569 2906 1367 2781 
Q 1166 2656 1075 2415 
Q 984 2175 984 1722 
L 984 0 
L 422 0 
z
" transform="scale(0.015625)"/>
      <path id="ArialMT-6b" d="M 425 0 
L 425 4581 
L 988 4581 
L 988 1969 
L 2319 3319 
L 3047 3319 
L 1778 2088 
L 3175 0 
L 2481 0 
L 1384 1697 
L 988 1316 
L 988 0 
L 425 0 
z
" transform="scale(0.015625)"/>
      <path id="ArialMT-64" d="M 2575 0 
L 2575 419 
Q 2259 -75 1647 -75 
Q 1250 -75 917 144 
Q 584 363 401 755 
Q 219 1147 219 1656 
Q 219 2153 384 2558 
Q 550 2963 881 3178 
Q 1213 3394 1622 3394 
Q 1922 3394 2156 3267 
Q 2391 3141 2538 2938 
L 2538 4581 
L 3097 4581 
L 3097 0 
L 2575 0 
z
M 797 1656 
Q 797 1019 1065 703 
Q 1334 388 1700 388 
Q 2069 388 2326 689 
Q 2584 991 2584 1609 
Q 2584 2291 2321 2609 
Q 2059 2928 1675 2928 
Q 1300 2928 1048 2622 
Q 797 2316 797 1656 
z
" transform="scale(0.015625)"/>
     </defs>
     <use xlink:href="#ArialMT-59"/>
     <use xlink:href="#ArialMT-65" x="57.574219"/>
     <use xlink:href="#ArialMT-61" x="113.189453"/>
     <use xlink:href="#ArialMT-72" x="168.804688"/>
     <use xlink:href="#ArialMT-6c" x="202.105469"/>
     <use xlink:href="#ArialMT-79" x="224.322266"/>
     <use xlink:href="#ArialMT-20" x="274.322266"/>
     <use xlink:href="#ArialMT-61" x="302.105469"/>
     <use xlink:href="#ArialMT-76" x="357.720703"/>
     <use xlink:href="#ArialMT-65" x="407.720703"/>
     <use xlink:href="#ArialMT-72" x="463.335938"/>
     <use xlink:href="#ArialMT-61" x="496.636719"/>
     <use xlink:href="#ArialMT-67" x="552.251953"/>
     <use xlink:href="#ArialMT-65" x="607.867188"/>
     <use xlink:href="#ArialMT-20" x="663.482422"/>
     <use xlink:href="#ArialMT-72" x="691.265625"/>
     <use xlink:href="#ArialMT-61" x="724.566406"/>
     <use xlink:href="#ArialMT-74" x="780.181641"/>
     <use xlink:href="#ArialMT-69" x="807.964844"/>
     <use xlink:href="#ArialMT-6e" x="830.181641"/>
     <use xlink:href="#ArialMT-67" x="885.796875"/>
     <use xlink:href="#ArialMT-73" x="941.412109"/>
     <use xlink:href="#ArialMT-20" x="991.412109"/>
     <use xlink:href="#ArialMT-66" x="1019.195312"/>
     <use xlink:href="#ArialMT-72" x="1046.978516"/>
     <use xlink:href="#ArialMT-6f" x="1080.279297"/>
     <use xlink:href="#ArialMT-6d" x="1135.894531"/>
     <use xlink:href="#ArialMT-20" x="1219.195312"/>
     <use xlink:href="#ArialMT-72" x="1246.978516"/>
     <use xlink:href="#ArialMT-61" x="1280.279297"/>
     <use xlink:href="#ArialMT-6e" x="1335.894531"/>
     <use xlink:href="#ArialMT-6b" x="1391.509766"/>
     <use xlink:href="#ArialMT-65" x="1441.509766"/>
     <use xlink:href="#ArialMT-64" x="1497.125"/>
     <use xlink:href="#ArialMT-20" x="1552.740234"/>
     <use xlink:href="#ArialMT-67" x="1580.523438"/>
     <use xlink:href="#ArialMT-61" x="1636.138672"/>
     <use xlink:href="#ArialMT-6d" x="1691.753906"/>
     <use xlink:href="#ArialMT-65" x="1775.054688"/>
     <use xlink:href="#ArialMT-73" x="1830.669922"/>
    </g>
   </g>
  </g>
 </g>
 <defs>
  <clipPath id="p37e87104d7">
   <rect x="31.66" y="25.49625" width="418.34" height="292.22375"/>
  </clipPath>
 </defs>
</svg>
