<?xml version="1.0" encoding="utf-8" standalone="no"?>
<!DOCTYPE svg PUBLIC "-//W3C//DTD SVG 1.1//EN"
  "http://www.w3.org/Graphics/SVG/1.1/DTD/svg11.dtd">
<svg xmlns:xlink="http://www.w3.org/1999/xlink" width="460.8pt" height="345.6pt" viewBox="0 0 460.8 345.6" xmlns="http://www.w3.org/2000/svg" version="1.1">
 <metadata>
  <rdf:RDF xmlns:dc="http://purl.org/dc/elements/1.1/" xmlns:cc="http://creativecommons.org/ns#" xmlns:rdf="http://www.w3.org/1999/02/22-rdf-syntax-ns#">
   <cc:Work>
    <dc:type rdf:resource="http://purl.org/dc/dcmitype/StillImage"/>
    <dc:date>2024-08-18T00:05:38.955049</dc:date>
    <dc:format>image/svg+xml</dc:format>
    <dc:creator>
     <cc:Agent>
      <dc:title>Matplotlib v3.9.2, https://matplotlib.org/</dc:title>
     </cc:Agent>
    </dc:creator>
   </cc:Work>
  </rdf:RDF>
 </metadata>
 <defs>
  <style type="text/css">*{stroke-linejoin: round; stroke-linecap: butt}</style>
 </defs>
 <g id="figure_1">
  <g id="patch_1">
   <path d="M 0 345.6 
L 460.8 345.6 
L 460.8 0 
L 0 0 
z
" style="fill: #ffffff"/>
  </g>
  <g id="axes_1">
   <g id="patch_2">
    <path d="M 31.66 317.72 
L 450 317.72 
L 450 25.49625 
L 31.66 25.49625 
z
" style="fill: #eaeaf2"/>
   </g>
   <g id="matplotlib.axis_1">
    <g id="xtick_1">
     <g id="text_1">
      <!-- 1970 -->
      <g style="fill: #262626" transform="translate(39.55358 331.877812) scale(0.1 -0.1)">
       <defs>
        <path id="ArialMT-31" d="M 2384 0 
L 1822 0 
L 1822 3584 
Q 1619 3391 1289 3197 
Q 959 3003 697 2906 
L 697 3450 
Q 1169 3672 1522 3987 
Q 1875 4303 2022 4600 
L 2384 4600 
L 2384 0 
z
" transform="scale(0.015625)"/>
        <path id="ArialMT-39" d="M 350 1059 
L 891 1109 
Q 959 728 1153 556 
Q 1347 384 1650 384 
Q 1909 384 2104 503 
Q 2300 622 2425 820 
Q 2550 1019 2634 1356 
Q 2719 1694 2719 2044 
Q 2719 2081 2716 2156 
Q 2547 1888 2255 1720 
Q 1963 1553 1622 1553 
Q 1053 1553 659 1965 
Q 266 2378 266 3053 
Q 266 3750 677 4175 
Q 1088 4600 1706 4600 
Q 2153 4600 2523 4359 
Q 2894 4119 3086 3673 
Q 3278 3228 3278 2384 
Q 3278 1506 3087 986 
Q 2897 466 2520 194 
Q 2144 -78 1638 -78 
Q 1100 -78 759 220 
Q 419 519 350 1059 
z
M 2653 3081 
Q 2653 3566 2395 3850 
Q 2138 4134 1775 4134 
Q 1400 4134 1122 3828 
Q 844 3522 844 3034 
Q 844 2597 1108 2323 
Q 1372 2050 1759 2050 
Q 2150 2050 2401 2323 
Q 2653 2597 2653 3081 
z
" transform="scale(0.015625)"/>
        <path id="ArialMT-37" d="M 303 3981 
L 303 4522 
L 3269 4522 
L 3269 4084 
Q 2831 3619 2401 2847 
Q 1972 2075 1738 1259 
Q 1569 684 1522 0 
L 944 0 
Q 953 541 1156 1306 
Q 1359 2072 1739 2783 
Q 2119 3494 2547 3981 
L 303 3981 
z
" transform="scale(0.015625)"/>
        <path id="ArialMT-30" d="M 266 2259 
Q 266 3072 433 3567 
Q 600 4063 929 4331 
Q 1259 4600 1759 4600 
Q 2128 4600 2406 4451 
Q 2684 4303 2865 4023 
Q 3047 3744 3150 3342 
Q 3253 2941 3253 2259 
Q 3253 1453 3087 958 
Q 2922 463 2592 192 
Q 2263 -78 1759 -78 
Q 1097 -78 719 397 
Q 266 969 266 2259 
z
M 844 2259 
Q 844 1131 1108 757 
Q 1372 384 1759 384 
Q 2147 384 2411 759 
Q 2675 1134 2675 2259 
Q 2675 3391 2411 3762 
Q 2147 4134 1753 4134 
Q 1366 4134 1134 3806 
Q 844 3388 844 2259 
z
" transform="scale(0.015625)"/>
       </defs>
       <use xlink:href="#ArialMT-31"/>
       <use xlink:href="#ArialMT-39" x="55.615234"/>
       <use xlink:href="#ArialMT-37" x="111.230469"/>
       <use xlink:href="#ArialMT-30" x="166.845703"/>
      </g>
     </g>
    </g>
    <g id="xtick_2">
     <g id="text_2">
      <!-- 1980 -->
      <g style="fill: #262626" transform="translate(111.310012 331.877812) scale(0.1 -0.1)">
       <defs>
        <path id="ArialMT-38" d="M 1131 2484 
Q 781 2613 612 2850 
Q 444 3088 444 3419 
Q 444 3919 803 4259 
Q 1163 4600 1759 4600 
Q 2359 4600 2725 4251 
Q 3091 3903 3091 3403 
Q 3091 3084 2923 2848 
Q 2756 2613 2416 2484 
Q 2838 2347 3058 2040 
Q 3278 1734 3278 1309 
Q 3278 722 2862 322 
Q 2447 -78 1769 -78 
Q 1091 -78 675 323 
Q 259 725 259 1325 
Q 259 1772 486 2073 
Q 713 2375 1131 2484 
z
M 1019 3438 
Q 1019 3113 1228 2906 
Q 1438 2700 1772 2700 
Q 2097 2700 2305 2904 
Q 2513 3109 2513 3406 
Q 2513 3716 2298 3927 
Q 2084 4138 1766 4138 
Q 1444 4138 1231 3931 
Q 1019 3725 1019 3438 
z
M 838 1322 
Q 838 1081 952 856 
Q 1066 631 1291 507 
Q 1516 384 1775 384 
Q 2178 384 2440 643 
Q 2703 903 2703 1303 
Q 2703 1709 2433 1975 
Q 2163 2241 1756 2241 
Q 1359 2241 1098 1978 
Q 838 1716 838 1322 
z
" transform="scale(0.015625)"/>
       </defs>
       <use xlink:href="#ArialMT-31"/>
       <use xlink:href="#ArialMT-39" x="55.615234"/>
       <use xlink:href="#ArialMT-38" x="111.230469"/>
       <use xlink:href="#ArialMT-30" x="166.845703"/>
      </g>
     </g>
    </g>
    <g id="xtick_3">
     <g id="text_3">
      <!-- 1990 -->
      <g style="fill: #262626" transform="translate(183.066444 331.877812) scale(0.1 -0.1)">
       <use xlink:href="#ArialMT-31"/>
       <use xlink:href="#ArialMT-39" x="55.615234"/>
       <use xlink:href="#ArialMT-39" x="111.230469"/>
       <use xlink:href="#ArialMT-30" x="166.845703"/>
      </g>
     </g>
    </g>
    <g id="xtick_4">
     <g id="text_4">
      <!-- 2000 -->
      <g style="fill: #262626" transform="translate(254.822876 331.877812) scale(0.1 -0.1)">
       <defs>
        <path id="ArialMT-32" d="M 3222 541 
L 3222 0 
L 194 0 
Q 188 203 259 391 
Q 375 700 629 1000 
Q 884 1300 1366 1694 
Q 2113 2306 2375 2664 
Q 2638 3022 2638 3341 
Q 2638 3675 2398 3904 
Q 2159 4134 1775 4134 
Q 1369 4134 1125 3890 
Q 881 3647 878 3216 
L 300 3275 
Q 359 3922 746 4261 
Q 1134 4600 1788 4600 
Q 2447 4600 2831 4234 
Q 3216 3869 3216 3328 
Q 3216 3053 3103 2787 
Q 2991 2522 2730 2228 
Q 2469 1934 1863 1422 
Q 1356 997 1212 845 
Q 1069 694 975 541 
L 3222 541 
z
" transform="scale(0.015625)"/>
       </defs>
       <use xlink:href="#ArialMT-32"/>
       <use xlink:href="#ArialMT-30" x="55.615234"/>
       <use xlink:href="#ArialMT-30" x="111.230469"/>
       <use xlink:href="#ArialMT-30" x="166.845703"/>
      </g>
     </g>
    </g>
    <g id="xtick_5">
     <g id="text_5">
      <!-- 2010 -->
      <g style="fill: #262626" transform="translate(326.579309 331.877812) scale(0.1 -0.1)">
       <use xlink:href="#ArialMT-32"/>
       <use xlink:href="#ArialMT-30" x="55.615234"/>
       <use xlink:href="#ArialMT-31" x="111.230469"/>
       <use xlink:href="#ArialMT-30" x="166.845703"/>
      </g>
     </g>
    </g>
    <g id="xtick_6">
     <g id="text_6">
      <!-- 2020 -->
      <g style="fill: #262626" transform="translate(398.335741 331.877812) scale(0.1 -0.1)">
       <use xlink:href="#ArialMT-32"/>
       <use xlink:href="#ArialMT-30" x="55.615234"/>
       <use xlink:href="#ArialMT-32" x="111.230469"/>
       <use xlink:href="#ArialMT-30" x="166.845703"/>
      </g>
     </g>
    </g>
   </g>
   <g id="matplotlib.axis_2">
    <g id="ytick_1">
     <g id="text_7">
      <!-- 5.8 -->
      <g style="fill: #262626" transform="translate(10.76 291.594432) scale(0.1 -0.1)">
       <defs>
        <path id="ArialMT-35" d="M 266 1200 
L 856 1250 
Q 922 819 1161 601 
Q 1400 384 1738 384 
Q 2144 384 2425 690 
Q 2706 997 2706 1503 
Q 2706 1984 2436 2262 
Q 2166 2541 1728 2541 
Q 1456 2541 1237 2417 
Q 1019 2294 894 2097 
L 366 2166 
L 809 4519 
L 3088 4519 
L 3088 3981 
L 1259 3981 
L 1013 2750 
Q 1425 3038 1878 3038 
Q 2478 3038 2890 2622 
Q 3303 2206 3303 1553 
Q 3303 931 2941 478 
Q 2500 -78 1738 -78 
Q 1113 -78 717 272 
Q 322 622 266 1200 
z
" transform="scale(0.015625)"/>
        <path id="ArialMT-2e" d="M 581 0 
L 581 641 
L 1222 641 
L 1222 0 
L 581 0 
z
" transform="scale(0.015625)"/>
       </defs>
       <use xlink:href="#ArialMT-35"/>
       <use xlink:href="#ArialMT-2e" x="55.615234"/>
       <use xlink:href="#ArialMT-38" x="83.398438"/>
      </g>
     </g>
    </g>
    <g id="ytick_2">
     <g id="text_8">
      <!-- 6.0 -->
      <g style="fill: #262626" transform="translate(10.76 256.954831) scale(0.1 -0.1)">
       <defs>
        <path id="ArialMT-36" d="M 3184 3459 
L 2625 3416 
Q 2550 3747 2413 3897 
Q 2184 4138 1850 4138 
Q 1581 4138 1378 3988 
Q 1113 3794 959 3422 
Q 806 3050 800 2363 
Q 1003 2672 1297 2822 
Q 1591 2972 1913 2972 
Q 2475 2972 2870 2558 
Q 3266 2144 3266 1488 
Q 3266 1056 3080 686 
Q 2894 316 2569 119 
Q 2244 -78 1831 -78 
Q 1128 -78 684 439 
Q 241 956 241 2144 
Q 241 3472 731 4075 
Q 1159 4600 1884 4600 
Q 2425 4600 2770 4297 
Q 3116 3994 3184 3459 
z
M 888 1484 
Q 888 1194 1011 928 
Q 1134 663 1356 523 
Q 1578 384 1822 384 
Q 2178 384 2434 671 
Q 2691 959 2691 1453 
Q 2691 1928 2437 2201 
Q 2184 2475 1800 2475 
Q 1419 2475 1153 2201 
Q 888 1928 888 1484 
z
" transform="scale(0.015625)"/>
       </defs>
       <use xlink:href="#ArialMT-36"/>
       <use xlink:href="#ArialMT-2e" x="55.615234"/>
       <use xlink:href="#ArialMT-30" x="83.398438"/>
      </g>
     </g>
    </g>
    <g id="ytick_3">
     <g id="text_9">
      <!-- 6.2 -->
      <g style="fill: #262626" transform="translate(10.76 222.31523) scale(0.1 -0.1)">
       <use xlink:href="#ArialMT-36"/>
       <use xlink:href="#ArialMT-2e" x="55.615234"/>
       <use xlink:href="#ArialMT-32" x="83.398438"/>
      </g>
     </g>
    </g>
    <g id="ytick_4">
     <g id="text_10">
      <!-- 6.4 -->
      <g style="fill: #262626" transform="translate(10.76 187.675629) scale(0.1 -0.1)">
       <defs>
        <path id="ArialMT-34" d="M 2069 0 
L 2069 1097 
L 81 1097 
L 81 1613 
L 2172 4581 
L 2631 4581 
L 2631 1613 
L 3250 1613 
L 3250 1097 
L 2631 1097 
L 2631 0 
L 2069 0 
z
M 2069 1613 
L 2069 3678 
L 634 1613 
L 2069 1613 
z
" transform="scale(0.015625)"/>
       </defs>
       <use xlink:href="#ArialMT-36"/>
       <use xlink:href="#ArialMT-2e" x="55.615234"/>
       <use xlink:href="#ArialMT-34" x="83.398438"/>
      </g>
     </g>
    </g>
    <g id="ytick_5">
     <g id="text_11">
      <!-- 6.6 -->
      <g style="fill: #262626" transform="translate(10.76 153.036028) scale(0.1 -0.1)">
       <use xlink:href="#ArialMT-36"/>
       <use xlink:href="#ArialMT-2e" x="55.615234"/>
       <use xlink:href="#ArialMT-36" x="83.398438"/>
      </g>
     </g>
    </g>
    <g id="ytick_6">
     <g id="text_12">
      <!-- 6.8 -->
      <g style="fill: #262626" transform="translate(10.76 118.396427) scale(0.1 -0.1)">
       <use xlink:href="#ArialMT-36"/>
       <use xlink:href="#ArialMT-2e" x="55.615234"/>
       <use xlink:href="#ArialMT-38" x="83.398438"/>
      </g>
     </g>
    </g>
    <g id="ytick_7">
     <g id="text_13">
      <!-- 7.0 -->
      <g style="fill: #262626" transform="translate(10.76 83.756826) scale(0.1 -0.1)">
       <use xlink:href="#ArialMT-37"/>
       <use xlink:href="#ArialMT-2e" x="55.615234"/>
       <use xlink:href="#ArialMT-30" x="83.398438"/>
      </g>
     </g>
    </g>
    <g id="ytick_8">
     <g id="text_14">
      <!-- 7.2 -->
      <g style="fill: #262626" transform="translate(10.76 49.117225) scale(0.1 -0.1)">
       <use xlink:href="#ArialMT-37"/>
       <use xlink:href="#ArialMT-2e" x="55.615234"/>
       <use xlink:href="#ArialMT-32" x="83.398438"/>
      </g>
     </g>
    </g>
   </g>
   <g id="PathCollection_1">
    <path d="M 50.675455 241.617236 
C 50.805908 241.617236 50.931037 241.565406 51.023282 241.473161 
C 51.115526 241.380916 51.167356 241.255788 51.167356 241.125334 
C 51.167356 240.99488 51.115526 240.869752 51.023282 240.777507 
C 50.931037 240.685262 50.805908 240.633433 50.675455 240.633433 
C 50.545001 240.633433 50.419872 240.685262 50.327628 240.777507 
C 50.235383 240.869752 50.183553 240.99488 50.183553 241.125334 
C 50.183553 241.255788 50.235383 241.380916 50.327628 241.473161 
C 50.419872 241.565406 50.545001 241.617236 50.675455 241.617236 
z
" clip-path="url(#p5872059bc3)" style="fill: #800080; fill-opacity: 0.8; stroke: #800080; stroke-opacity: 0.8"/>
    <path d="M 57.851098 234.593513 
C 57.979951 234.593513 58.103544 234.542319 58.194657 234.451206 
C 58.28577 234.360093 58.336964 234.2365 58.336964 234.107647 
C 58.336964 233.978794 58.28577 233.855201 58.194657 233.764088 
C 58.103544 233.672975 57.979951 233.621781 57.851098 233.621781 
C 57.722245 233.621781 57.598652 233.672975 57.507539 233.764088 
C 57.416426 233.855201 57.365232 233.978794 57.365232 234.107647 
C 57.365232 234.2365 57.416426 234.360093 57.507539 234.451206 
C 57.598652 234.542319 57.722245 234.593513 57.851098 234.593513 
z
" clip-path="url(#p5872059bc3)" style="fill: #800080; fill-opacity: 0.8; stroke: #800080; stroke-opacity: 0.8"/>
    <path d="M 65.026741 250.976817 
C 65.195976 250.976817 65.358302 250.909579 65.477969 250.789912 
C 65.597636 250.670245 65.664874 250.507919 65.664874 250.338684 
C 65.664874 250.16945 65.597636 250.007124 65.477969 249.887457 
C 65.358302 249.76779 65.195976 249.700552 65.026741 249.700552 
C 64.857506 249.700552 64.69518 249.76779 64.575513 249.887457 
C 64.455846 250.007124 64.388608 250.16945 64.388608 250.338684 
C 64.388608 250.507919 64.455846 250.670245 64.575513 250.789912 
C 64.69518 250.909579 64.857506 250.976817 65.026741 250.976817 
z
" clip-path="url(#p5872059bc3)" style="fill: #800080; fill-opacity: 0.8; stroke: #800080; stroke-opacity: 0.8"/>
    <path d="M 72.202384 263.255358 
C 72.378824 263.255358 72.54806 263.185258 72.672822 263.060496 
C 72.797583 262.935735 72.867683 262.766498 72.867683 262.590059 
C 72.867683 262.413619 72.797583 262.244383 72.672822 262.119621 
C 72.54806 261.99486 72.378824 261.92476 72.202384 261.92476 
C 72.025945 261.92476 71.856708 261.99486 71.731947 262.119621 
C 71.607185 262.244383 71.537085 262.413619 71.537085 262.590059 
C 71.537085 262.766498 71.607185 262.935735 71.731947 263.060496 
C 71.856708 263.185258 72.025945 263.255358 72.202384 263.255358 
z
" clip-path="url(#p5872059bc3)" style="fill: #800080; fill-opacity: 0.8; stroke: #800080; stroke-opacity: 0.8"/>
    <path d="M 79.378027 235.085021 
C 79.555639 235.085021 79.726 235.014455 79.851591 234.888865 
C 79.977181 234.763274 80.047747 234.592913 80.047747 234.415301 
C 80.047747 234.237689 79.977181 234.067328 79.851591 233.941738 
C 79.726 233.816147 79.555639 233.745581 79.378027 233.745581 
C 79.200416 233.745581 79.030055 233.816147 78.904464 233.941738 
C 78.778874 234.067328 78.708308 234.237689 78.708308 234.415301 
C 78.708308 234.592913 78.778874 234.763274 78.904464 234.888865 
C 79.030055 235.014455 79.200416 235.085021 79.378027 235.085021 
z
" clip-path="url(#p5872059bc3)" style="fill: #800080; fill-opacity: 0.8; stroke: #800080; stroke-opacity: 0.8"/>
    <path d="M 86.553671 238.466876 
C 86.781453 238.466876 86.999937 238.376377 87.161003 238.215311 
C 87.322069 238.054244 87.412568 237.835761 87.412568 237.607978 
C 87.412568 237.380196 87.322069 237.161713 87.161003 237.000646 
C 86.999937 236.83958 86.781453 236.749081 86.553671 236.749081 
C 86.325888 236.749081 86.107405 236.83958 85.946338 237.000646 
C 85.785272 237.161713 85.694773 237.380196 85.694773 237.607978 
C 85.694773 237.835761 85.785272 238.054244 85.946338 238.215311 
C 86.107405 238.376377 86.325888 238.466876 86.553671 238.466876 
z
" clip-path="url(#p5872059bc3)" style="fill: #800080; fill-opacity: 0.8; stroke: #800080; stroke-opacity: 0.8"/>
    <path d="M 93.729314 234.001924 
C 93.899771 234.001924 94.063269 233.934201 94.1838 233.81367 
C 94.304331 233.693139 94.372054 233.529641 94.372054 233.359184 
C 94.372054 233.188727 94.304331 233.025229 94.1838 232.904698 
C 94.063269 232.784167 93.899771 232.716444 93.729314 232.716444 
C 93.558857 232.716444 93.395359 232.784167 93.274828 232.904698 
C 93.154297 233.025229 93.086574 233.188727 93.086574 233.359184 
C 93.086574 233.529641 93.154297 233.693139 93.274828 233.81367 
C 93.395359 233.934201 93.558857 234.001924 93.729314 234.001924 
z
" clip-path="url(#p5872059bc3)" style="fill: #800080; fill-opacity: 0.8; stroke: #800080; stroke-opacity: 0.8"/>
    <path d="M 100.904957 234.781479 
C 101.12057 234.781479 101.32738 234.695815 101.479841 234.543354 
C 101.632302 234.390893 101.717966 234.184082 101.717966 233.96847 
C 101.717966 233.752857 101.632302 233.546047 101.479841 233.393586 
C 101.32738 233.241125 101.12057 233.155461 100.904957 233.155461 
C 100.689345 233.155461 100.482534 233.241125 100.330073 233.393586 
C 100.177612 233.546047 100.091948 233.752857 100.091948 233.96847 
C 100.091948 234.184082 100.177612 234.390893 100.330073 234.543354 
C 100.482534 234.695815 100.689345 234.781479 100.904957 234.781479 
z
" clip-path="url(#p5872059bc3)" style="fill: #800080; fill-opacity: 0.8; stroke: #800080; stroke-opacity: 0.8"/>
    <path d="M 108.0806 245.529315 
C 108.287368 245.529315 108.485696 245.447165 108.631903 245.300958 
C 108.77811 245.154751 108.86026 244.956423 108.86026 244.749655 
C 108.86026 244.542887 108.77811 244.34456 108.631903 244.198353 
C 108.485696 244.052146 108.287368 243.969996 108.0806 243.969996 
C 107.873832 243.969996 107.675505 244.052146 107.529298 244.198353 
C 107.383091 244.34456 107.300941 244.542887 107.300941 244.749655 
C 107.300941 244.956423 107.383091 245.154751 107.529298 245.300958 
C 107.675505 245.447165 107.873832 245.529315 108.0806 245.529315 
z
" clip-path="url(#p5872059bc3)" style="fill: #800080; fill-opacity: 0.8; stroke: #800080; stroke-opacity: 0.8"/>
    <path d="M 115.256244 206.66148 
C 115.495578 206.66148 115.725141 206.566391 115.894376 206.397157 
C 116.063611 206.227922 116.158699 205.998358 116.158699 205.759024 
C 116.158699 205.51969 116.063611 205.290126 115.894376 205.120891 
C 115.725141 204.951657 115.495578 204.856568 115.256244 204.856568 
C 115.01691 204.856568 114.787346 204.951657 114.618111 205.120891 
C 114.448876 205.290126 114.353788 205.51969 114.353788 205.759024 
C 114.353788 205.998358 114.448876 206.227922 114.618111 206.397157 
C 114.787346 206.566391 115.01691 206.66148 115.256244 206.66148 
z
" clip-path="url(#p5872059bc3)" style="fill: #800080; fill-opacity: 0.8; stroke: #800080; stroke-opacity: 0.8"/>
    <path d="M 122.431887 217.821358 
C 122.66596 217.821358 122.890478 217.728359 123.055993 217.562844 
C 123.221508 217.39733 123.314506 217.172812 123.314506 216.938738 
C 123.314506 216.704665 123.221508 216.480147 123.055993 216.314633 
C 122.890478 216.149118 122.66596 216.056119 122.431887 216.056119 
C 122.197813 216.056119 121.973296 216.149118 121.807781 216.314633 
C 121.642266 216.480147 121.549268 216.704665 121.549268 216.938738 
C 121.549268 217.172812 121.642266 217.39733 121.807781 217.562844 
C 121.973296 217.728359 122.197813 217.821358 122.431887 217.821358 
z
" clip-path="url(#p5872059bc3)" style="fill: #800080; fill-opacity: 0.8; stroke: #800080; stroke-opacity: 0.8"/>
    <path d="M 129.60753 237.579925 
C 129.865236 237.579925 130.112422 237.477537 130.294648 237.295311 
C 130.476874 237.113085 130.579262 236.865899 130.579262 236.608193 
C 130.579262 236.350487 130.476874 236.103301 130.294648 235.921075 
C 130.112422 235.738849 129.865236 235.636461 129.60753 235.636461 
C 129.349824 235.636461 129.102638 235.738849 128.920412 235.921075 
C 128.738186 236.103301 128.635798 236.350487 128.635798 236.608193 
C 128.635798 236.865899 128.738186 237.113085 128.920412 237.295311 
C 129.102638 237.477537 129.349824 237.579925 129.60753 237.579925 
z
" clip-path="url(#p5872059bc3)" style="fill: #800080; fill-opacity: 0.8; stroke: #800080; stroke-opacity: 0.8"/>
    <path d="M 136.783173 241.154615 
C 137.020767 241.154615 137.248661 241.060218 137.416665 240.892214 
C 137.584669 240.724211 137.679066 240.496316 137.679066 240.258723 
C 137.679066 240.02113 137.584669 239.793235 137.416665 239.625231 
C 137.248661 239.457228 137.020767 239.362831 136.783173 239.362831 
C 136.54558 239.362831 136.317686 239.457228 136.149682 239.625231 
C 135.981678 239.793235 135.887281 240.02113 135.887281 240.258723 
C 135.887281 240.496316 135.981678 240.724211 136.149682 240.892214 
C 136.317686 241.060218 136.54558 241.154615 136.783173 241.154615 
z
" clip-path="url(#p5872059bc3)" style="fill: #800080; fill-opacity: 0.8; stroke: #800080; stroke-opacity: 0.8"/>
    <path d="M 143.958816 236.457345 
C 144.205832 236.457345 144.442763 236.359205 144.617429 236.184539 
C 144.792095 236.009873 144.890235 235.772941 144.890235 235.525926 
C 144.890235 235.278911 144.792095 235.04198 144.617429 234.867314 
C 144.442763 234.692648 144.205832 234.594508 143.958816 234.594508 
C 143.711801 234.594508 143.47487 234.692648 143.300204 234.867314 
C 143.125538 235.04198 143.027398 235.278911 143.027398 235.525926 
C 143.027398 235.772941 143.125538 236.009873 143.300204 236.184539 
C 143.47487 236.359205 143.711801 236.457345 143.958816 236.457345 
z
" clip-path="url(#p5872059bc3)" style="fill: #800080; fill-opacity: 0.8; stroke: #800080; stroke-opacity: 0.8"/>
    <path d="M 151.13446 268.014087 
C 151.346187 268.014087 151.549271 267.929967 151.698985 267.780253 
C 151.848699 267.63054 151.932819 267.427456 151.932819 267.215728 
C 151.932819 267.004001 151.848699 266.800917 151.698985 266.651203 
C 151.549271 266.50149 151.346187 266.417369 151.13446 266.417369 
C 150.922732 266.417369 150.719648 266.50149 150.569935 266.651203 
C 150.420221 266.800917 150.336101 267.004001 150.336101 267.215728 
C 150.336101 267.427456 150.420221 267.63054 150.569935 267.780253 
C 150.719648 267.929967 150.922732 268.014087 151.13446 268.014087 
z
" clip-path="url(#p5872059bc3)" style="fill: #800080; fill-opacity: 0.8; stroke: #800080; stroke-opacity: 0.8"/>
    <path d="M 158.310103 235.766938 
C 158.548568 235.766938 158.777299 235.672195 158.945919 235.503575 
C 159.11454 235.334954 159.209283 235.106224 159.209283 234.867758 
C 159.209283 234.629293 159.11454 234.400563 158.945919 234.231942 
C 158.777299 234.063322 158.548568 233.968578 158.310103 233.968578 
C 158.071638 233.968578 157.842907 234.063322 157.674287 234.231942 
C 157.505666 234.400563 157.410923 234.629293 157.410923 234.867758 
C 157.410923 235.106224 157.505666 235.334954 157.674287 235.503575 
C 157.842907 235.672195 158.071638 235.766938 158.310103 235.766938 
z
" clip-path="url(#p5872059bc3)" style="fill: #800080; fill-opacity: 0.8; stroke: #800080; stroke-opacity: 0.8"/>
    <path d="M 165.485746 246.330576 
C 165.740211 246.330576 165.984287 246.229477 166.164221 246.049543 
C 166.344154 245.869609 166.445254 245.625533 166.445254 245.371068 
C 166.445254 245.116604 166.344154 244.872527 166.164221 244.692594 
C 165.984287 244.51266 165.740211 244.41156 165.485746 244.41156 
C 165.231282 244.41156 164.987205 244.51266 164.807271 244.692594 
C 164.627338 244.872527 164.526238 245.116604 164.526238 245.371068 
C 164.526238 245.625533 164.627338 245.869609 164.807271 246.049543 
C 164.987205 246.229477 165.231282 246.330576 165.485746 246.330576 
z
" clip-path="url(#p5872059bc3)" style="fill: #800080; fill-opacity: 0.8; stroke: #800080; stroke-opacity: 0.8"/>
    <path d="M 172.661389 258.278568 
C 172.906718 258.278568 173.142032 258.181097 173.315506 258.007623 
C 173.48898 257.83415 173.58645 257.598836 173.58645 257.353507 
C 173.58645 257.108178 173.48898 256.872864 173.315506 256.69939 
C 173.142032 256.525916 172.906718 256.428446 172.661389 256.428446 
C 172.41606 256.428446 172.180746 256.525916 172.007273 256.69939 
C 171.833799 256.872864 171.736328 257.108178 171.736328 257.353507 
C 171.736328 257.598836 171.833799 257.83415 172.007273 258.007623 
C 172.180746 258.181097 172.41606 258.278568 172.661389 258.278568 
z
" clip-path="url(#p5872059bc3)" style="fill: #800080; fill-opacity: 0.8; stroke: #800080; stroke-opacity: 0.8"/>
    <path d="M 179.837033 288.976872 
C 180.078954 288.976872 180.311 288.880756 180.482064 288.709691 
C 180.653128 288.538627 180.749245 288.306582 180.749245 288.06466 
C 180.749245 287.822739 180.653128 287.590693 180.482064 287.419629 
C 180.311 287.248564 180.078954 287.152448 179.837033 287.152448 
C 179.595111 287.152448 179.363065 287.248564 179.192001 287.419629 
C 179.020937 287.590693 178.92482 287.822739 178.92482 288.06466 
C 178.92482 288.306582 179.020937 288.538627 179.192001 288.709691 
C 179.363065 288.880756 179.595111 288.976872 179.837033 288.976872 
z
" clip-path="url(#p5872059bc3)" style="fill: #800080; fill-opacity: 0.8; stroke: #800080; stroke-opacity: 0.8"/>
    <path d="M 187.012676 263.844736 
C 187.254597 263.844736 187.486643 263.74862 187.657707 263.577555 
C 187.828772 263.406491 187.924888 263.174445 187.924888 262.932524 
C 187.924888 262.690602 187.828772 262.458557 187.657707 262.287493 
C 187.486643 262.116428 187.254597 262.020312 187.012676 262.020312 
C 186.770754 262.020312 186.538709 262.116428 186.367644 262.287493 
C 186.19658 262.458557 186.100464 262.690602 186.100464 262.932524 
C 186.100464 263.174445 186.19658 263.406491 186.367644 263.577555 
C 186.538709 263.74862 186.770754 263.844736 187.012676 263.844736 
z
" clip-path="url(#p5872059bc3)" style="fill: #800080; fill-opacity: 0.8; stroke: #800080; stroke-opacity: 0.8"/>
    <path d="M 194.188319 252.589198 
C 194.441967 252.589198 194.68526 252.488423 194.864616 252.309067 
C 195.043972 252.129711 195.144747 251.886418 195.144747 251.632771 
C 195.144747 251.379123 195.043972 251.13583 194.864616 250.956474 
C 194.68526 250.777118 194.441967 250.676343 194.188319 250.676343 
C 193.934671 250.676343 193.691378 250.777118 193.512022 250.956474 
C 193.332667 251.13583 193.231891 251.379123 193.231891 251.632771 
C 193.231891 251.886418 193.332667 252.129711 193.512022 252.309067 
C 193.691378 252.488423 193.934671 252.589198 194.188319 252.589198 
z
" clip-path="url(#p5872059bc3)" style="fill: #800080; fill-opacity: 0.8; stroke: #800080; stroke-opacity: 0.8"/>
    <path d="M 201.363962 260.64173 
C 201.637301 260.64173 201.899481 260.533131 202.092761 260.339852 
C 202.286041 260.146572 202.394639 259.884392 202.394639 259.611053 
C 202.394639 259.337714 202.286041 259.075534 202.092761 258.882254 
C 201.899481 258.688975 201.637301 258.580376 201.363962 258.580376 
C 201.090624 258.580376 200.828443 258.688975 200.635164 258.882254 
C 200.441884 259.075534 200.333285 259.337714 200.333285 259.611053 
C 200.333285 259.884392 200.441884 260.146572 200.635164 260.339852 
C 200.828443 260.533131 201.090624 260.64173 201.363962 260.64173 
z
" clip-path="url(#p5872059bc3)" style="fill: #800080; fill-opacity: 0.8; stroke: #800080; stroke-opacity: 0.8"/>
    <path d="M 208.539605 226.145553 
C 208.836248 226.145553 209.12078 226.027696 209.330538 225.817938 
C 209.540295 225.608181 209.658153 225.323648 209.658153 225.027006 
C 209.658153 224.730364 209.540295 224.445832 209.330538 224.236074 
C 209.12078 224.026316 208.836248 223.908459 208.539605 223.908459 
C 208.242963 223.908459 207.958431 224.026316 207.748673 224.236074 
C 207.538916 224.445832 207.421058 224.730364 207.421058 225.027006 
C 207.421058 225.323648 207.538916 225.608181 207.748673 225.817938 
C 207.958431 226.027696 208.242963 226.145553 208.539605 226.145553 
z
" clip-path="url(#p5872059bc3)" style="fill: #800080; fill-opacity: 0.8; stroke: #800080; stroke-opacity: 0.8"/>
    <path d="M 215.715249 244.202963 
C 216.001204 244.202963 216.275486 244.089352 216.477687 243.887151 
C 216.679887 243.68495 216.793499 243.410668 216.793499 243.124713 
C 216.793499 242.838758 216.679887 242.564476 216.477687 242.362275 
C 216.275486 242.160074 216.001204 242.046463 215.715249 242.046463 
C 215.429293 242.046463 215.155012 242.160074 214.952811 242.362275 
C 214.75061 242.564476 214.636999 242.838758 214.636999 243.124713 
C 214.636999 243.410668 214.75061 243.68495 214.952811 243.887151 
C 215.155012 244.089352 215.429293 244.202963 215.715249 244.202963 
z
" clip-path="url(#p5872059bc3)" style="fill: #800080; fill-opacity: 0.8; stroke: #800080; stroke-opacity: 0.8"/>
    <path d="M 222.890892 246.865883 
C 223.172459 246.865883 223.442531 246.754015 223.641629 246.554917 
C 223.840727 246.355819 223.952595 246.085746 223.952595 245.80418 
C 223.952595 245.522613 223.840727 245.25254 223.641629 245.053442 
C 223.442531 244.854344 223.172459 244.742477 222.890892 244.742477 
C 222.609325 244.742477 222.339252 244.854344 222.140155 245.053442 
C 221.941057 245.25254 221.829189 245.522613 221.829189 245.80418 
C 221.829189 246.085746 221.941057 246.355819 222.140155 246.554917 
C 222.339252 246.754015 222.609325 246.865883 222.890892 246.865883 
z
" clip-path="url(#p5872059bc3)" style="fill: #800080; fill-opacity: 0.8; stroke: #800080; stroke-opacity: 0.8"/>
    <path d="M 230.066535 229.504767 
C 230.371457 229.504767 230.663932 229.38362 230.879544 229.168008 
C 231.095157 228.952395 231.216303 228.659921 231.216303 228.354999 
C 231.216303 228.050077 231.095157 227.757602 230.879544 227.54199 
C 230.663932 227.326377 230.371457 227.20523 230.066535 227.20523 
C 229.761613 227.20523 229.469139 227.326377 229.253526 227.54199 
C 229.037914 227.757602 228.916767 228.050077 228.916767 228.354999 
C 228.916767 228.659921 229.037914 228.952395 229.253526 229.168008 
C 229.469139 229.38362 229.761613 229.504767 230.066535 229.504767 
z
" clip-path="url(#p5872059bc3)" style="fill: #800080; fill-opacity: 0.8; stroke: #800080; stroke-opacity: 0.8"/>
    <path d="M 237.242178 265.375409 
C 237.549136 265.375409 237.843562 265.253454 238.060614 265.036402 
C 238.277665 264.819351 238.39962 264.524925 238.39962 264.217967 
C 238.39962 263.91101 238.277665 263.616584 238.060614 263.399532 
C 237.843562 263.182481 237.549136 263.060525 237.242178 263.060525 
C 236.935221 263.060525 236.640795 263.182481 236.423743 263.399532 
C 236.206692 263.616584 236.084736 263.91101 236.084736 264.217967 
C 236.084736 264.524925 236.206692 264.819351 236.423743 265.036402 
C 236.640795 265.253454 236.935221 265.375409 237.242178 265.375409 
z
" clip-path="url(#p5872059bc3)" style="fill: #800080; fill-opacity: 0.8; stroke: #800080; stroke-opacity: 0.8"/>
    <path d="M 244.417822 237.481427 
C 244.732128 237.481427 245.033604 237.356552 245.255852 237.134303 
C 245.4781 236.912055 245.602976 236.610579 245.602976 236.296273 
C 245.602976 235.981966 245.4781 235.680491 245.255852 235.458242 
C 245.033604 235.235994 244.732128 235.111119 244.417822 235.111119 
C 244.103515 235.111119 243.802039 235.235994 243.579791 235.458242 
C 243.357543 235.680491 243.232668 235.981966 243.232668 236.296273 
C 243.232668 236.610579 243.357543 236.912055 243.579791 237.134303 
C 243.802039 237.356552 244.103515 237.481427 244.417822 237.481427 
z
" clip-path="url(#p5872059bc3)" style="fill: #800080; fill-opacity: 0.8; stroke: #800080; stroke-opacity: 0.8"/>
    <path d="M 251.593465 261.042955 
C 251.921977 261.042955 252.237079 260.912436 252.469372 260.680142 
C 252.701665 260.447849 252.832184 260.132748 252.832184 259.804235 
C 252.832184 259.475723 252.701665 259.160622 252.469372 258.928328 
C 252.237079 258.696035 251.921977 258.565516 251.593465 258.565516 
C 251.264953 258.565516 250.949851 258.696035 250.717558 258.928328 
C 250.485265 259.160622 250.354745 259.475723 250.354745 259.804235 
C 250.354745 260.132748 250.485265 260.447849 250.717558 260.680142 
C 250.949851 260.912436 251.264953 261.042955 251.593465 261.042955 
z
" clip-path="url(#p5872059bc3)" style="fill: #800080; fill-opacity: 0.8; stroke: #800080; stroke-opacity: 0.8"/>
    <path d="M 258.769108 242.31185 
C 259.111843 242.31185 259.440586 242.17568 259.682936 241.93333 
C 259.925286 241.69098 260.061456 241.362237 260.061456 241.019502 
C 260.061456 240.676767 259.925286 240.348024 259.682936 240.105674 
C 259.440586 239.863324 259.111843 239.727154 258.769108 239.727154 
C 258.426373 239.727154 258.09763 239.863324 257.85528 240.105674 
C 257.61293 240.348024 257.47676 240.676767 257.47676 241.019502 
C 257.47676 241.362237 257.61293 241.69098 257.85528 241.93333 
C 258.09763 242.17568 258.426373 242.31185 258.769108 242.31185 
z
" clip-path="url(#p5872059bc3)" style="fill: #800080; fill-opacity: 0.8; stroke: #800080; stroke-opacity: 0.8"/>
    <path d="M 265.944751 259.054728 
C 266.301723 259.054728 266.644123 258.912902 266.89654 258.660484 
C 267.148957 258.408067 267.290784 258.065668 267.290784 257.708696 
C 267.290784 257.351724 267.148957 257.009324 266.89654 256.756907 
C 266.644123 256.50449 266.301723 256.362663 265.944751 256.362663 
C 265.587779 256.362663 265.24538 256.50449 264.992963 256.756907 
C 264.740545 257.009324 264.598719 257.351724 264.598719 257.708696 
C 264.598719 258.065668 264.740545 258.408067 264.992963 258.660484 
C 265.24538 258.912902 265.587779 259.054728 265.944751 259.054728 
z
" clip-path="url(#p5872059bc3)" style="fill: #800080; fill-opacity: 0.8; stroke: #800080; stroke-opacity: 0.8"/>
    <path d="M 273.120395 263.42194 
C 273.479106 263.42194 273.823175 263.279423 274.076822 263.025775 
C 274.33047 262.772127 274.472988 262.428059 274.472988 262.069347 
C 274.472988 261.710635 274.33047 261.366567 274.076822 261.112919 
C 273.823175 260.859272 273.479106 260.716754 273.120395 260.716754 
C 272.761683 260.716754 272.417614 260.859272 272.163967 261.112919 
C 271.910319 261.366567 271.767801 261.710635 271.767801 262.069347 
C 271.767801 262.428059 271.910319 262.772127 272.163967 263.025775 
C 272.417614 263.279423 272.761683 263.42194 273.120395 263.42194 
z
" clip-path="url(#p5872059bc3)" style="fill: #800080; fill-opacity: 0.8; stroke: #800080; stroke-opacity: 0.8"/>
    <path d="M 280.296038 258.316683 
C 280.67719 258.316683 281.042783 258.16525 281.312299 257.895734 
C 281.581815 257.626219 281.733248 257.260626 281.733248 256.879473 
C 281.733248 256.49832 281.581815 256.132727 281.312299 255.863212 
C 281.042783 255.593696 280.67719 255.442263 280.296038 255.442263 
C 279.914885 255.442263 279.549292 255.593696 279.279777 255.863212 
C 279.010261 256.132727 278.858827 256.49832 278.858827 256.879473 
C 278.858827 257.260626 279.010261 257.626219 279.279777 257.895734 
C 279.549292 258.16525 279.914885 258.316683 280.296038 258.316683 
z
" clip-path="url(#p5872059bc3)" style="fill: #800080; fill-opacity: 0.8; stroke: #800080; stroke-opacity: 0.8"/>
    <path d="M 287.471681 255.167491 
C 287.891691 255.167491 288.294555 255.00062 288.591546 254.703628 
C 288.888538 254.406636 289.05541 254.003772 289.05541 253.583762 
C 289.05541 253.163753 288.888538 252.760889 288.591546 252.463897 
C 288.294555 252.166905 287.891691 252.000034 287.471681 252.000034 
C 287.051671 252.000034 286.648807 252.166905 286.351816 252.463897 
C 286.054824 252.760889 285.887952 253.163753 285.887952 253.583762 
C 285.887952 254.003772 286.054824 254.406636 286.351816 254.703628 
C 286.648807 255.00062 287.051671 255.167491 287.471681 255.167491 
z
" clip-path="url(#p5872059bc3)" style="fill: #800080; fill-opacity: 0.8; stroke: #800080; stroke-opacity: 0.8"/>
    <path d="M 294.647324 241.466014 
C 295.108773 241.466014 295.551384 241.282679 295.877678 240.956385 
C 296.203972 240.630092 296.387307 240.18748 296.387307 239.726031 
C 296.387307 239.264582 296.203972 238.821971 295.877678 238.495678 
C 295.551384 238.169384 295.108773 237.986048 294.647324 237.986048 
C 294.185875 237.986048 293.743264 238.169384 293.41697 238.495678 
C 293.090677 238.821971 292.907341 239.264582 292.907341 239.726031 
C 292.907341 240.18748 293.090677 240.630092 293.41697 240.956385 
C 293.743264 241.282679 294.185875 241.466014 294.647324 241.466014 
z
" clip-path="url(#p5872059bc3)" style="fill: #800080; fill-opacity: 0.8; stroke: #800080; stroke-opacity: 0.8"/>
    <path d="M 301.822967 249.16904 
C 302.30423 249.16904 302.765846 248.977832 303.10615 248.637528 
C 303.446454 248.297224 303.637662 247.835608 303.637662 247.354345 
C 303.637662 246.873083 303.446454 246.411467 303.10615 246.071163 
C 302.765846 245.730859 302.30423 245.539651 301.822967 245.539651 
C 301.341705 245.539651 300.880089 245.730859 300.539785 246.071163 
C 300.199481 246.411467 300.008273 246.873083 300.008273 247.354345 
C 300.008273 247.835608 300.199481 248.297224 300.539785 248.637528 
C 300.880089 248.977832 301.341705 249.16904 301.822967 249.16904 
z
" clip-path="url(#p5872059bc3)" style="fill: #800080; fill-opacity: 0.8; stroke: #800080; stroke-opacity: 0.8"/>
    <path d="M 308.998611 249.553836 
C 309.472485 249.553836 309.927015 249.365563 310.262095 249.030483 
C 310.597175 248.695403 310.785448 248.240873 310.785448 247.766999 
C 310.785448 247.293124 310.597175 246.838594 310.262095 246.503514 
C 309.927015 246.168434 309.472485 245.980162 308.998611 245.980162 
C 308.524736 245.980162 308.070206 246.168434 307.735126 246.503514 
C 307.400046 246.838594 307.211774 247.293124 307.211774 247.766999 
C 307.211774 248.240873 307.400046 248.695403 307.735126 249.030483 
C 308.070206 249.365563 308.524736 249.553836 308.998611 249.553836 
z
" clip-path="url(#p5872059bc3)" style="fill: #800080; fill-opacity: 0.8; stroke: #800080; stroke-opacity: 0.8"/>
    <path d="M 316.174254 242.875454 
C 316.655085 242.875454 317.116287 242.684417 317.456286 242.344418 
C 317.796285 242.00442 317.987321 241.543217 317.987321 241.062386 
C 317.987321 240.581555 317.796285 240.120353 317.456286 239.780354 
C 317.116287 239.440355 316.655085 239.249319 316.174254 239.249319 
C 315.693423 239.249319 315.232221 239.440355 314.892222 239.780354 
C 314.552223 240.120353 314.361187 240.581555 314.361187 241.062386 
C 314.361187 241.543217 314.552223 242.00442 314.892222 242.344418 
C 315.232221 242.684417 315.693423 242.875454 316.174254 242.875454 
z
" clip-path="url(#p5872059bc3)" style="fill: #800080; fill-opacity: 0.8; stroke: #800080; stroke-opacity: 0.8"/>
    <path d="M 323.349897 216.804839 
C 323.852259 216.804839 324.334113 216.605248 324.689337 216.250025 
C 325.04456 215.894801 325.244151 215.412947 325.244151 214.910585 
C 325.244151 214.408223 325.04456 213.926369 324.689337 213.571145 
C 324.334113 213.215922 323.852259 213.016331 323.349897 213.016331 
C 322.847535 213.016331 322.365681 213.215922 322.010458 213.571145 
C 321.655234 213.926369 321.455643 214.408223 321.455643 214.910585 
C 321.455643 215.412947 321.655234 215.894801 322.010458 216.250025 
C 322.365681 216.605248 322.847535 216.804839 323.349897 216.804839 
z
" clip-path="url(#p5872059bc3)" style="fill: #800080; fill-opacity: 0.8; stroke: #800080; stroke-opacity: 0.8"/>
    <path d="M 330.52554 214.240503 
C 331.054858 214.240503 331.562568 214.030203 331.936853 213.655919 
C 332.311137 213.281634 332.521438 212.773924 332.521438 212.244606 
C 332.521438 211.715288 332.311137 211.207578 331.936853 210.833293 
C 331.562568 210.459009 331.054858 210.248709 330.52554 210.248709 
C 329.996222 210.248709 329.488512 210.459009 329.114228 210.833293 
C 328.739943 211.207578 328.529643 211.715288 328.529643 212.244606 
C 328.529643 212.773924 328.739943 213.281634 329.114228 213.655919 
C 329.488512 214.030203 329.996222 214.240503 330.52554 214.240503 
z
" clip-path="url(#p5872059bc3)" style="fill: #800080; fill-opacity: 0.8; stroke: #800080; stroke-opacity: 0.8"/>
    <path d="M 337.701184 195.843288 
C 338.254277 195.843288 338.784792 195.623541 339.175888 195.232445 
C 339.566985 194.841349 339.786731 194.310834 339.786731 193.75774 
C 339.786731 193.204647 339.566985 192.674132 339.175888 192.283036 
C 338.784792 191.891939 338.254277 191.672193 337.701184 191.672193 
C 337.14809 191.672193 336.617575 191.891939 336.226479 192.283036 
C 335.835383 192.674132 335.615636 193.204647 335.615636 193.75774 
C 335.615636 194.310834 335.835383 194.841349 336.226479 195.232445 
C 336.617575 195.623541 337.14809 195.843288 337.701184 195.843288 
z
" clip-path="url(#p5872059bc3)" style="fill: #800080; fill-opacity: 0.8; stroke: #800080; stroke-opacity: 0.8"/>
    <path d="M 344.876827 195.903008 
C 345.443268 195.903008 345.986585 195.677958 346.387119 195.277424 
C 346.787654 194.87689 347.012703 194.333572 347.012703 193.767131 
C 347.012703 193.20069 346.787654 192.657373 346.387119 192.256839 
C 345.986585 191.856305 345.443268 191.631255 344.876827 191.631255 
C 344.310386 191.631255 343.767068 191.856305 343.366534 192.256839 
C 342.966 192.657373 342.740951 193.20069 342.740951 193.767131 
C 342.740951 194.333572 342.966 194.87689 343.366534 195.277424 
C 343.767068 195.677958 344.310386 195.903008 344.876827 195.903008 
z
" clip-path="url(#p5872059bc3)" style="fill: #800080; fill-opacity: 0.8; stroke: #800080; stroke-opacity: 0.8"/>
    <path d="M 352.05247 196.923747 
C 352.653401 196.923747 353.2298 196.684994 353.654722 196.260072 
C 354.079645 195.83515 354.318397 195.25875 354.318397 194.65782 
C 354.318397 194.056889 354.079645 193.480489 353.654722 193.055567 
C 353.2298 192.630645 352.653401 192.391892 352.05247 192.391892 
C 351.451539 192.391892 350.87514 192.630645 350.450217 193.055567 
C 350.025295 193.480489 349.786543 194.056889 349.786543 194.65782 
C 349.786543 195.25875 350.025295 195.83515 350.450217 196.260072 
C 350.87514 196.684994 351.451539 196.923747 352.05247 196.923747 
z
" clip-path="url(#p5872059bc3)" style="fill: #800080; fill-opacity: 0.8; stroke: #800080; stroke-opacity: 0.8"/>
    <path d="M 359.228113 191.766644 
C 359.845735 191.766644 360.438144 191.52126 360.874869 191.084535 
C 361.311593 190.647811 361.556977 190.055402 361.556977 189.43778 
C 361.556977 188.820158 361.311593 188.227749 360.874869 187.791025 
C 360.438144 187.3543 359.845735 187.108916 359.228113 187.108916 
C 358.610491 187.108916 358.018082 187.3543 357.581358 187.791025 
C 357.144633 188.227749 356.899249 188.820158 356.899249 189.43778 
C 356.899249 190.055402 357.144633 190.647811 357.581358 191.084535 
C 358.018082 191.52126 358.610491 191.766644 359.228113 191.766644 
z
" clip-path="url(#p5872059bc3)" style="fill: #800080; fill-opacity: 0.8; stroke: #800080; stroke-opacity: 0.8"/>
    <path d="M 366.403756 189.92461 
C 367.068631 189.92461 367.706364 189.660453 368.176501 189.190315 
C 368.646638 188.720178 368.910796 188.082446 368.910796 187.417571 
C 368.910796 186.752696 368.646638 186.114964 368.176501 185.644826 
C 367.706364 185.174689 367.068631 184.910532 366.403756 184.910532 
C 365.738882 184.910532 365.101149 185.174689 364.631012 185.644826 
C 364.160875 186.114964 363.896717 186.752696 363.896717 187.417571 
C 363.896717 188.082446 364.160875 188.720178 364.631012 189.190315 
C 365.101149 189.660453 365.738882 189.92461 366.403756 189.92461 
z
" clip-path="url(#p5872059bc3)" style="fill: #800080; fill-opacity: 0.8; stroke: #800080; stroke-opacity: 0.8"/>
    <path d="M 373.5794 175.00461 
C 374.292762 175.00461 374.977003 174.721188 375.481426 174.216764 
C 375.98585 173.712341 376.269271 173.0281 376.269271 172.314738 
C 376.269271 171.601375 375.98585 170.917135 375.481426 170.412711 
C 374.977003 169.908288 374.292762 169.624866 373.5794 169.624866 
C 372.866037 169.624866 372.181796 169.908288 371.677373 170.412711 
C 371.17295 170.917135 370.889528 171.601375 370.889528 172.314738 
C 370.889528 173.0281 371.17295 173.712341 371.677373 174.216764 
C 372.181796 174.721188 372.866037 175.00461 373.5794 175.00461 
z
" clip-path="url(#p5872059bc3)" style="fill: #800080; fill-opacity: 0.8; stroke: #800080; stroke-opacity: 0.8"/>
    <path d="M 380.755043 164.62219 
C 381.513527 164.62219 382.241048 164.320841 382.777377 163.784512 
C 383.313707 163.248183 383.615055 162.520662 383.615055 161.762178 
C 383.615055 161.003694 383.313707 160.276173 382.777377 159.739843 
C 382.241048 159.203514 381.513527 158.902165 380.755043 158.902165 
C 379.996559 158.902165 379.269038 159.203514 378.732709 159.739843 
C 378.196379 160.276173 377.89503 161.003694 377.89503 161.762178 
C 377.89503 162.520662 378.196379 163.248183 378.732709 163.784512 
C 379.269038 164.320841 379.996559 164.62219 380.755043 164.62219 
z
" clip-path="url(#p5872059bc3)" style="fill: #800080; fill-opacity: 0.8; stroke: #800080; stroke-opacity: 0.8"/>
    <path d="M 387.930686 147.41226 
C 388.708355 147.41226 389.454277 147.103289 390.004172 146.553394 
C 390.554067 146.003499 390.863038 145.257577 390.863038 144.479908 
C 390.863038 143.702239 390.554067 142.956317 390.004172 142.406422 
C 389.454277 141.856527 388.708355 141.547556 387.930686 141.547556 
C 387.153017 141.547556 386.407095 141.856527 385.8572 142.406422 
C 385.307305 142.956317 384.998334 143.702239 384.998334 144.479908 
C 384.998334 145.257577 385.307305 146.003499 385.8572 146.553394 
C 386.407095 147.103289 387.153017 147.41226 387.930686 147.41226 
z
" clip-path="url(#p5872059bc3)" style="fill: #800080; fill-opacity: 0.8; stroke: #800080; stroke-opacity: 0.8"/>
    <path d="M 395.106329 132.892744 
C 395.894338 132.892744 396.650177 132.579665 397.207383 132.022459 
C 397.764589 131.465253 398.077668 130.709414 398.077668 129.921406 
C 398.077668 129.133397 397.764589 128.377558 397.207383 127.820352 
C 396.650177 127.263146 395.894338 126.950067 395.106329 126.950067 
C 394.318321 126.950067 393.562482 127.263146 393.005276 127.820352 
C 392.44807 128.377558 392.134991 129.133397 392.134991 129.921406 
C 392.134991 130.709414 392.44807 131.465253 393.005276 132.022459 
C 393.562482 132.579665 394.318321 132.892744 395.106329 132.892744 
z
" clip-path="url(#p5872059bc3)" style="fill: #800080; fill-opacity: 0.8; stroke: #800080; stroke-opacity: 0.8"/>
    <path d="M 402.281973 118.739729 
C 403.077582 118.739729 403.840712 118.42363 404.403293 117.86105 
C 404.965874 117.298469 405.281973 116.535338 405.281973 115.739729 
C 405.281973 114.94412 404.965874 114.18099 404.403293 113.618409 
C 403.840712 113.055828 403.077582 112.739729 402.281973 112.739729 
C 401.486363 112.739729 400.723233 113.055828 400.160652 113.618409 
C 399.598071 114.18099 399.281973 114.94412 399.281973 115.739729 
C 399.281973 116.535338 399.598071 117.298469 400.160652 117.86105 
C 400.723233 118.42363 401.486363 118.739729 402.281973 118.739729 
z
" clip-path="url(#p5872059bc3)" style="fill: #800080; fill-opacity: 0.8; stroke: #800080; stroke-opacity: 0.8"/>
    <path d="M 409.457616 100.950923 
C 410.177927 100.950923 410.868832 100.664741 411.378169 100.155404 
C 411.887506 99.646068 412.173688 98.955162 412.173688 98.234851 
C 412.173688 97.51454 411.887506 96.823634 411.378169 96.314298 
C 410.868832 95.804961 410.177927 95.518779 409.457616 95.518779 
C 408.737305 95.518779 408.046399 95.804961 407.537063 96.314298 
C 407.027726 96.823634 406.741543 97.51454 406.741543 98.234851 
C 406.741543 98.955162 407.027726 99.646068 407.537063 100.155404 
C 408.046399 100.664741 408.737305 100.950923 409.457616 100.950923 
z
" clip-path="url(#p5872059bc3)" style="fill: #800080; fill-opacity: 0.8; stroke: #800080; stroke-opacity: 0.8"/>
    <path d="M 416.633259 89.833615 
C 417.349235 89.833615 418.035983 89.549155 418.542254 89.042883 
C 419.048526 88.536612 419.332986 87.849864 419.332986 87.133888 
C 419.332986 86.417912 419.048526 85.731165 418.542254 85.224893 
C 418.035983 84.718622 417.349235 84.434161 416.633259 84.434161 
C 415.917283 84.434161 415.230535 84.718622 414.724264 85.224893 
C 414.217992 85.731165 413.933532 86.417912 413.933532 87.133888 
C 413.933532 87.849864 414.217992 88.536612 414.724264 89.042883 
C 415.230535 89.549155 415.917283 89.833615 416.633259 89.833615 
z
" clip-path="url(#p5872059bc3)" style="fill: #800080; fill-opacity: 0.8; stroke: #800080; stroke-opacity: 0.8"/>
    <path d="M 423.808902 71.092944 
C 424.53809 71.092944 425.237511 70.803235 425.753124 70.287621 
C 426.268738 69.772007 426.558448 69.072587 426.558448 68.343399 
C 426.558448 67.614211 426.268738 66.91479 425.753124 66.399177 
C 425.237511 65.883563 424.53809 65.593853 423.808902 65.593853 
C 423.079714 65.593853 422.380294 65.883563 421.86468 66.399177 
C 421.349066 66.91479 421.059357 67.614211 421.059357 68.343399 
C 421.059357 69.072587 421.349066 69.772007 421.86468 70.287621 
C 422.380294 70.803235 423.079714 71.092944 423.808902 71.092944 
z
" clip-path="url(#p5872059bc3)" style="fill: #800080; fill-opacity: 0.8; stroke: #800080; stroke-opacity: 0.8"/>
    <path d="M 430.984545 41.360417 
C 431.669106 41.360417 432.325721 41.088438 432.809778 40.604381 
C 433.293836 40.120323 433.565815 39.463708 433.565815 38.779148 
C 433.565815 38.094587 433.293836 37.437972 432.809778 36.953915 
C 432.325721 36.469857 431.669106 36.197879 430.984545 36.197879 
C 430.299985 36.197879 429.64337 36.469857 429.159312 36.953915 
C 428.675255 37.437972 428.403276 38.094587 428.403276 38.779148 
C 428.403276 39.463708 428.675255 40.120323 429.159312 40.604381 
C 429.64337 41.088438 430.299985 41.360417 430.984545 41.360417 
z
" clip-path="url(#p5872059bc3)" style="fill: #800080; fill-opacity: 0.8; stroke: #800080; stroke-opacity: 0.8"/>
   </g>
   <g id="PolyCollection_1">
    <defs>
     <path id="m5410bff17a" d="M 50.675455 -84.059805 
L 50.675455 -41.162898 
L 54.516961 -42.899613 
L 58.358466 -44.638611 
L 62.199972 -46.37761 
L 66.041478 -48.116608 
L 69.882984 -49.855607 
L 73.72449 -51.594605 
L 77.565996 -53.333603 
L 81.407502 -55.072602 
L 85.249008 -56.846771 
L 89.090514 -58.642138 
L 92.93202 -60.437506 
L 96.773526 -62.232873 
L 100.615032 -63.897331 
L 104.456538 -65.496821 
L 108.298044 -67.229404 
L 112.13955 -68.73527 
L 115.981056 -70.43198 
L 119.822562 -72.019218 
L 123.664068 -73.607973 
L 127.505574 -75.202049 
L 131.34708 -76.796126 
L 135.188586 -78.419373 
L 139.030092 -80.001729 
L 142.871598 -81.568363 
L 146.713104 -83.132228 
L 150.55461 -84.674293 
L 154.396116 -86.339848 
L 158.237622 -88.110554 
L 162.079128 -89.520067 
L 165.920634 -91.155417 
L 169.76214 -92.701345 
L 173.603646 -94.287946 
L 177.445152 -95.861881 
L 181.286657 -97.356584 
L 185.128163 -98.774864 
L 188.969669 -100.423562 
L 192.811175 -101.837756 
L 196.652681 -103.234182 
L 200.494187 -104.512244 
L 204.335693 -106.137258 
L 208.177199 -107.254615 
L 212.018705 -108.702194 
L 215.860211 -109.987957 
L 219.701717 -111.486896 
L 223.543223 -112.54058 
L 227.384729 -113.575978 
L 231.226235 -114.670036 
L 235.067741 -115.822426 
L 238.909247 -117.145342 
L 242.750753 -118.231222 
L 246.592259 -119.251402 
L 250.433765 -120.246327 
L 254.275271 -121.08807 
L 258.116777 -121.856185 
L 261.958283 -122.722943 
L 265.799789 -123.573437 
L 269.641295 -124.488271 
L 273.482801 -125.307524 
L 277.324307 -126.133407 
L 281.165813 -127.042823 
L 285.007319 -127.973558 
L 288.848825 -128.83176 
L 292.690331 -129.689963 
L 296.531837 -130.548165 
L 300.373343 -131.282364 
L 304.214848 -132.11484 
L 308.056354 -133.099753 
L 311.89786 -133.980976 
L 315.739366 -134.839179 
L 319.580872 -135.662022 
L 323.422378 -136.421786 
L 327.263884 -137.133349 
L 331.10539 -137.812846 
L 334.946896 -138.697242 
L 338.788402 -139.460844 
L 342.629908 -140.220608 
L 346.471414 -141.022995 
L 350.31292 -141.848446 
L 354.154426 -142.673898 
L 357.995932 -143.447585 
L 361.837438 -144.20324 
L 365.678944 -145.146078 
L 369.52045 -145.919967 
L 373.361956 -146.693857 
L 377.203462 -147.467746 
L 381.044968 -148.241635 
L 384.886474 -149.015525 
L 388.72798 -149.789414 
L 392.569486 -150.563303 
L 396.410992 -151.337193 
L 400.252498 -152.111082 
L 404.094004 -152.882088 
L 407.93551 -153.652201 
L 411.777016 -154.422315 
L 415.618522 -155.192428 
L 419.460028 -155.962542 
L 423.301534 -156.722513 
L 427.143039 -157.463232 
L 430.984545 -158.203951 
L 430.984545 -218.78712 
L 430.984545 -218.78712 
L 427.143039 -217.126684 
L 423.301534 -215.519665 
L 419.460028 -213.871043 
L 415.618522 -212.196528 
L 411.777016 -210.553102 
L 407.93551 -208.89263 
L 404.094004 -207.214542 
L 400.252498 -205.499411 
L 396.410992 -203.649789 
L 392.569486 -201.931965 
L 388.72798 -200.226351 
L 384.886474 -198.656183 
L 381.044968 -197.141143 
L 377.203462 -195.46476 
L 373.361956 -193.783597 
L 369.52045 -192.112783 
L 365.678944 -190.430076 
L 361.837438 -188.755574 
L 357.995932 -187.074176 
L 354.154426 -185.389447 
L 350.31292 -183.708408 
L 346.471414 -182.035606 
L 342.629908 -180.401918 
L 338.788402 -178.723794 
L 334.946896 -177.00347 
L 331.10539 -175.312966 
L 327.263884 -173.81397 
L 323.422378 -172.312826 
L 319.580872 -170.798163 
L 315.739366 -169.211292 
L 311.89786 -167.536637 
L 308.056354 -165.872887 
L 304.214848 -164.371424 
L 300.373343 -162.792849 
L 296.531837 -161.130802 
L 292.690331 -159.500758 
L 288.848825 -157.971567 
L 285.007319 -156.35499 
L 281.165813 -154.71991 
L 277.324307 -153.081265 
L 273.482801 -151.523148 
L 269.641295 -150.037207 
L 265.799789 -148.751542 
L 261.958283 -147.130231 
L 258.116777 -145.720039 
L 254.275271 -144.339414 
L 250.433765 -142.954313 
L 246.592259 -141.434323 
L 242.750753 -139.810441 
L 238.909247 -138.225075 
L 235.067741 -136.760587 
L 231.226235 -135.629514 
L 227.384729 -134.258112 
L 223.543223 -132.901536 
L 219.701717 -131.486398 
L 215.860211 -130.228244 
L 212.018705 -128.97009 
L 208.177199 -127.584822 
L 204.335693 -126.151515 
L 200.494187 -124.828049 
L 196.652681 -123.547104 
L 192.811175 -122.267401 
L 188.969669 -120.895721 
L 185.128163 -119.478835 
L 181.286657 -118.408337 
L 177.445152 -117.186387 
L 173.603646 -116.070817 
L 169.76214 -114.827483 
L 165.920634 -113.552917 
L 162.079128 -112.266978 
L 158.237622 -111.083969 
L 154.396116 -110.078967 
L 150.55461 -108.853133 
L 146.713104 -107.581082 
L 142.871598 -106.399376 
L 139.030092 -105.308394 
L 135.188586 -104.243115 
L 131.34708 -103.144842 
L 127.505574 -102.008608 
L 123.664068 -101.11271 
L 119.822562 -100.057609 
L 115.981056 -99.065741 
L 112.13955 -98.073061 
L 108.298044 -97.105795 
L 104.456538 -96.22913 
L 100.615032 -95.350985 
L 96.773526 -94.492886 
L 92.93202 -93.546936 
L 89.090514 -92.798534 
L 85.249008 -91.851605 
L 81.407502 -90.886837 
L 77.565996 -90.084358 
L 73.72449 -89.160995 
L 69.882984 -88.429992 
L 66.041478 -87.493082 
L 62.199972 -86.626745 
L 58.358466 -85.809611 
L 54.516961 -84.933789 
L 50.675455 -84.059805 
z
" style="stroke: #ffffff; stroke-opacity: 0.15"/>
    </defs>
    <g clip-path="url(#p5872059bc3)">
     <use xlink:href="#m5410bff17a" x="0" y="345.6" style="fill: #800080; fill-opacity: 0.15; stroke: #ffffff; stroke-opacity: 0.15"/>
    </g>
   </g>
   <g id="line2d_1">
    <path d="M 50.675455 279.804874 
L 54.516961 278.539494 
L 58.358466 277.274115 
L 62.199972 276.008736 
L 66.041478 274.743356 
L 69.882984 273.477977 
L 73.72449 272.212598 
L 77.565996 270.947219 
L 81.407502 269.681839 
L 85.249008 268.41646 
L 89.090514 267.151081 
L 92.93202 265.885702 
L 96.773526 264.620322 
L 100.615032 263.354943 
L 104.456538 262.089564 
L 108.298044 260.824185 
L 112.13955 259.558805 
L 115.981056 258.293426 
L 119.822562 257.028047 
L 123.664068 255.762667 
L 127.505574 254.497288 
L 131.34708 253.231909 
L 135.188586 251.96653 
L 139.030092 250.70115 
L 142.871598 249.435771 
L 146.713104 248.170392 
L 150.55461 246.905013 
L 154.396116 245.639633 
L 158.237622 244.374254 
L 162.079128 243.108875 
L 165.920634 241.843495 
L 169.76214 240.578116 
L 173.603646 239.312737 
L 177.445152 238.047358 
L 181.286657 236.781978 
L 185.128163 235.516599 
L 188.969669 234.25122 
L 192.811175 232.985841 
L 196.652681 231.720461 
L 200.494187 230.455082 
L 204.335693 229.189703 
L 208.177199 227.924323 
L 212.018705 226.658944 
L 215.860211 225.393565 
L 219.701717 224.128186 
L 223.543223 222.862806 
L 227.384729 221.597427 
L 231.226235 220.332048 
L 235.067741 219.066669 
L 238.909247 217.801289 
L 242.750753 216.53591 
L 246.592259 215.270531 
L 250.433765 214.005151 
L 254.275271 212.739772 
L 258.116777 211.474393 
L 261.958283 210.209014 
L 265.799789 208.943634 
L 269.641295 207.678255 
L 273.482801 206.412876 
L 277.324307 205.147497 
L 281.165813 203.882117 
L 285.007319 202.616738 
L 288.848825 201.351359 
L 292.690331 200.085979 
L 296.531837 198.8206 
L 300.373343 197.555221 
L 304.214848 196.289842 
L 308.056354 195.024462 
L 311.89786 193.759083 
L 315.739366 192.493704 
L 319.580872 191.228325 
L 323.422378 189.962945 
L 327.263884 188.697566 
L 331.10539 187.432187 
L 334.946896 186.166807 
L 338.788402 184.901428 
L 342.629908 183.636049 
L 346.471414 182.37067 
L 350.31292 181.10529 
L 354.154426 179.839911 
L 357.995932 178.574532 
L 361.837438 177.309153 
L 365.678944 176.043773 
L 369.52045 174.778394 
L 373.361956 173.513015 
L 377.203462 172.247635 
L 381.044968 170.982256 
L 384.886474 169.716877 
L 388.72798 168.451498 
L 392.569486 167.186118 
L 396.410992 165.920739 
L 400.252498 164.65536 
L 404.094004 163.389981 
L 407.93551 162.124601 
L 411.777016 160.859222 
L 415.618522 159.593843 
L 419.460028 158.328463 
L 423.301534 157.063084 
L 427.143039 155.797705 
L 430.984545 154.532326 
" clip-path="url(#p5872059bc3)" style="fill: none; stroke: #800080; stroke-width: 2.25; stroke-linecap: round"/>
   </g>
   <g id="patch_3">
    <path d="M 31.66 317.72 
L 31.66 25.49625 
" style="fill: none; stroke: #ffffff; stroke-width: 0.8; stroke-linejoin: miter; stroke-linecap: square"/>
   </g>
   <g id="patch_4">
    <path d="M 450 317.72 
L 450 25.49625 
" style="fill: none; stroke: #ffffff; stroke-width: 0.8; stroke-linejoin: miter; stroke-linecap: square"/>
   </g>
   <g id="patch_5">
    <path d="M 31.66 317.72 
L 450 317.72 
" style="fill: none; stroke: #ffffff; stroke-width: 0.8; stroke-linejoin: miter; stroke-linecap: square"/>
   </g>
   <g id="patch_6">
    <path d="M 31.66 25.49625 
L 450 25.49625 
" style="fill: none; stroke: #ffffff; stroke-width: 0.8; stroke-linejoin: miter; stroke-linecap: square"/>
   </g>
   <g id="text_15">
    <!-- Yearly average ratings from ranked games -->
    <g style="fill: #262626" transform="translate(127.998125 19.49625) scale(0.12 -0.12)">
     <defs>
      <path id="ArialMT-59" d="M 1784 0 
L 1784 1941 
L 19 4581 
L 756 4581 
L 1659 3200 
Q 1909 2813 2125 2425 
Q 2331 2784 2625 3234 
L 3513 4581 
L 4219 4581 
L 2391 1941 
L 2391 0 
L 1784 0 
z
" transform="scale(0.015625)"/>
      <path id="ArialMT-65" d="M 2694 1069 
L 3275 997 
Q 3138 488 2766 206 
Q 2394 -75 1816 -75 
Q 1088 -75 661 373 
Q 234 822 234 1631 
Q 234 2469 665 2931 
Q 1097 3394 1784 3394 
Q 2450 3394 2872 2941 
Q 3294 2488 3294 1666 
Q 3294 1616 3291 1516 
L 816 1516 
Q 847 969 1125 678 
Q 1403 388 1819 388 
Q 2128 388 2347 550 
Q 2566 713 2694 1069 
z
M 847 1978 
L 2700 1978 
Q 2663 2397 2488 2606 
Q 2219 2931 1791 2931 
Q 1403 2931 1139 2672 
Q 875 2413 847 1978 
z
" transform="scale(0.015625)"/>
      <path id="ArialMT-61" d="M 2588 409 
Q 2275 144 1986 34 
Q 1697 -75 1366 -75 
Q 819 -75 525 192 
Q 231 459 231 875 
Q 231 1119 342 1320 
Q 453 1522 633 1644 
Q 813 1766 1038 1828 
Q 1203 1872 1538 1913 
Q 2219 1994 2541 2106 
Q 2544 2222 2544 2253 
Q 2544 2597 2384 2738 
Q 2169 2928 1744 2928 
Q 1347 2928 1158 2789 
Q 969 2650 878 2297 
L 328 2372 
Q 403 2725 575 2942 
Q 747 3159 1072 3276 
Q 1397 3394 1825 3394 
Q 2250 3394 2515 3294 
Q 2781 3194 2906 3042 
Q 3031 2891 3081 2659 
Q 3109 2516 3109 2141 
L 3109 1391 
Q 3109 606 3145 398 
Q 3181 191 3288 0 
L 2700 0 
Q 2613 175 2588 409 
z
M 2541 1666 
Q 2234 1541 1622 1453 
Q 1275 1403 1131 1340 
Q 988 1278 909 1158 
Q 831 1038 831 891 
Q 831 666 1001 516 
Q 1172 366 1500 366 
Q 1825 366 2078 508 
Q 2331 650 2450 897 
Q 2541 1088 2541 1459 
L 2541 1666 
z
" transform="scale(0.015625)"/>
      <path id="ArialMT-72" d="M 416 0 
L 416 3319 
L 922 3319 
L 922 2816 
Q 1116 3169 1280 3281 
Q 1444 3394 1641 3394 
Q 1925 3394 2219 3213 
L 2025 2691 
Q 1819 2813 1613 2813 
Q 1428 2813 1281 2702 
Q 1134 2591 1072 2394 
Q 978 2094 978 1738 
L 978 0 
L 416 0 
z
" transform="scale(0.015625)"/>
      <path id="ArialMT-6c" d="M 409 0 
L 409 4581 
L 972 4581 
L 972 0 
L 409 0 
z
" transform="scale(0.015625)"/>
      <path id="ArialMT-79" d="M 397 -1278 
L 334 -750 
Q 519 -800 656 -800 
Q 844 -800 956 -737 
Q 1069 -675 1141 -563 
Q 1194 -478 1313 -144 
Q 1328 -97 1363 -6 
L 103 3319 
L 709 3319 
L 1400 1397 
Q 1534 1031 1641 628 
Q 1738 1016 1872 1384 
L 2581 3319 
L 3144 3319 
L 1881 -56 
Q 1678 -603 1566 -809 
Q 1416 -1088 1222 -1217 
Q 1028 -1347 759 -1347 
Q 597 -1347 397 -1278 
z
" transform="scale(0.015625)"/>
      <path id="ArialMT-20" transform="scale(0.015625)"/>
      <path id="ArialMT-76" d="M 1344 0 
L 81 3319 
L 675 3319 
L 1388 1331 
Q 1503 1009 1600 663 
Q 1675 925 1809 1294 
L 2547 3319 
L 3125 3319 
L 1869 0 
L 1344 0 
z
" transform="scale(0.015625)"/>
      <path id="ArialMT-67" d="M 319 -275 
L 866 -356 
Q 900 -609 1056 -725 
Q 1266 -881 1628 -881 
Q 2019 -881 2231 -725 
Q 2444 -569 2519 -288 
Q 2563 -116 2559 434 
Q 2191 0 1641 0 
Q 956 0 581 494 
Q 206 988 206 1678 
Q 206 2153 378 2554 
Q 550 2956 876 3175 
Q 1203 3394 1644 3394 
Q 2231 3394 2613 2919 
L 2613 3319 
L 3131 3319 
L 3131 450 
Q 3131 -325 2973 -648 
Q 2816 -972 2473 -1159 
Q 2131 -1347 1631 -1347 
Q 1038 -1347 672 -1080 
Q 306 -813 319 -275 
z
M 784 1719 
Q 784 1066 1043 766 
Q 1303 466 1694 466 
Q 2081 466 2343 764 
Q 2606 1063 2606 1700 
Q 2606 2309 2336 2618 
Q 2066 2928 1684 2928 
Q 1309 2928 1046 2623 
Q 784 2319 784 1719 
z
" transform="scale(0.015625)"/>
      <path id="ArialMT-74" d="M 1650 503 
L 1731 6 
Q 1494 -44 1306 -44 
Q 1000 -44 831 53 
Q 663 150 594 308 
Q 525 466 525 972 
L 525 2881 
L 113 2881 
L 113 3319 
L 525 3319 
L 525 4141 
L 1084 4478 
L 1084 3319 
L 1650 3319 
L 1650 2881 
L 1084 2881 
L 1084 941 
Q 1084 700 1114 631 
Q 1144 563 1211 522 
Q 1278 481 1403 481 
Q 1497 481 1650 503 
z
" transform="scale(0.015625)"/>
      <path id="ArialMT-69" d="M 425 3934 
L 425 4581 
L 988 4581 
L 988 3934 
L 425 3934 
z
M 425 0 
L 425 3319 
L 988 3319 
L 988 0 
L 425 0 
z
" transform="scale(0.015625)"/>
      <path id="ArialMT-6e" d="M 422 0 
L 422 3319 
L 928 3319 
L 928 2847 
Q 1294 3394 1984 3394 
Q 2284 3394 2536 3286 
Q 2788 3178 2913 3003 
Q 3038 2828 3088 2588 
Q 3119 2431 3119 2041 
L 3119 0 
L 2556 0 
L 2556 2019 
Q 2556 2363 2490 2533 
Q 2425 2703 2258 2804 
Q 2091 2906 1866 2906 
Q 1506 2906 1245 2678 
Q 984 2450 984 1813 
L 984 0 
L 422 0 
z
" transform="scale(0.015625)"/>
      <path id="ArialMT-73" d="M 197 991 
L 753 1078 
Q 800 744 1014 566 
Q 1228 388 1613 388 
Q 2000 388 2187 545 
Q 2375 703 2375 916 
Q 2375 1106 2209 1216 
Q 2094 1291 1634 1406 
Q 1016 1563 777 1677 
Q 538 1791 414 1992 
Q 291 2194 291 2438 
Q 291 2659 392 2848 
Q 494 3038 669 3163 
Q 800 3259 1026 3326 
Q 1253 3394 1513 3394 
Q 1903 3394 2198 3281 
Q 2494 3169 2634 2976 
Q 2775 2784 2828 2463 
L 2278 2388 
Q 2241 2644 2061 2787 
Q 1881 2931 1553 2931 
Q 1166 2931 1000 2803 
Q 834 2675 834 2503 
Q 834 2394 903 2306 
Q 972 2216 1119 2156 
Q 1203 2125 1616 2013 
Q 2213 1853 2448 1751 
Q 2684 1650 2818 1456 
Q 2953 1263 2953 975 
Q 2953 694 2789 445 
Q 2625 197 2315 61 
Q 2006 -75 1616 -75 
Q 969 -75 630 194 
Q 291 463 197 991 
z
" transform="scale(0.015625)"/>
      <path id="ArialMT-66" d="M 556 0 
L 556 2881 
L 59 2881 
L 59 3319 
L 556 3319 
L 556 3672 
Q 556 4006 616 4169 
Q 697 4388 901 4523 
Q 1106 4659 1475 4659 
Q 1713 4659 2000 4603 
L 1916 4113 
Q 1741 4144 1584 4144 
Q 1328 4144 1222 4034 
Q 1116 3925 1116 3625 
L 1116 3319 
L 1763 3319 
L 1763 2881 
L 1116 2881 
L 1116 0 
L 556 0 
z
" transform="scale(0.015625)"/>
      <path id="ArialMT-6f" d="M 213 1659 
Q 213 2581 725 3025 
Q 1153 3394 1769 3394 
Q 2453 3394 2887 2945 
Q 3322 2497 3322 1706 
Q 3322 1066 3130 698 
Q 2938 331 2570 128 
Q 2203 -75 1769 -75 
Q 1072 -75 642 372 
Q 213 819 213 1659 
z
M 791 1659 
Q 791 1022 1069 705 
Q 1347 388 1769 388 
Q 2188 388 2466 706 
Q 2744 1025 2744 1678 
Q 2744 2294 2464 2611 
Q 2184 2928 1769 2928 
Q 1347 2928 1069 2612 
Q 791 2297 791 1659 
z
" transform="scale(0.015625)"/>
      <path id="ArialMT-6d" d="M 422 0 
L 422 3319 
L 925 3319 
L 925 2853 
Q 1081 3097 1340 3245 
Q 1600 3394 1931 3394 
Q 2300 3394 2536 3241 
Q 2772 3088 2869 2813 
Q 3263 3394 3894 3394 
Q 4388 3394 4653 3120 
Q 4919 2847 4919 2278 
L 4919 0 
L 4359 0 
L 4359 2091 
Q 4359 2428 4304 2576 
Q 4250 2725 4106 2815 
Q 3963 2906 3769 2906 
Q 3419 2906 3187 2673 
Q 2956 2441 2956 1928 
L 2956 0 
L 2394 0 
L 2394 2156 
Q 2394 2531 2256 2718 
Q 2119 2906 1806 2906 
Q 1569 2906 1367 2781 
Q 1166 2656 1075 2415 
Q 984 2175 984 1722 
L 984 0 
L 422 0 
z
" transform="scale(0.015625)"/>
      <path id="ArialMT-6b" d="M 425 0 
L 425 4581 
L 988 4581 
L 988 1969 
L 2319 3319 
L 3047 3319 
L 1778 2088 
L 3175 0 
L 2481 0 
L 1384 1697 
L 988 1316 
L 988 0 
L 425 0 
z
" transform="scale(0.015625)"/>
      <path id="ArialMT-64" d="M 2575 0 
L 2575 419 
Q 2259 -75 1647 -75 
Q 1250 -75 917 144 
Q 584 363 401 755 
Q 219 1147 219 1656 
Q 219 2153 384 2558 
Q 550 2963 881 3178 
Q 1213 3394 1622 3394 
Q 1922 3394 2156 3267 
Q 2391 3141 2538 2938 
L 2538 4581 
L 3097 4581 
L 3097 0 
L 2575 0 
z
M 797 1656 
Q 797 1019 1065 703 
Q 1334 388 1700 388 
Q 2069 388 2326 689 
Q 2584 991 2584 1609 
Q 2584 2291 2321 2609 
Q 2059 2928 1675 2928 
Q 1300 2928 1048 2622 
Q 797 2316 797 1656 
z
" transform="scale(0.015625)"/>
     </defs>
     <use xlink:href="#ArialMT-59"/>
     <use xlink:href="#ArialMT-65" x="57.574219"/>
     <use xlink:href="#ArialMT-61" x="113.189453"/>
     <use xlink:href="#ArialMT-72" x="168.804688"/>
     <use xlink:href="#ArialMT-6c" x="202.105469"/>
     <use xlink:href="#ArialMT-79" x="224.322266"/>
     <use xlink:href="#ArialMT-20" x="274.322266"/>
     <use xlink:href="#ArialMT-61" x="302.105469"/>
     <use xlink:href="#ArialMT-76" x="357.720703"/>
     <use xlink:href="#ArialMT-65" x="407.720703"/>
     <use xlink:href="#ArialMT-72" x="463.335938"/>
     <use xlink:href="#ArialMT-61" x="496.636719"/>
     <use xlink:href="#ArialMT-67" x="552.251953"/>
     <use xlink:href="#ArialMT-65" x="607.867188"/>
     <use xlink:href="#ArialMT-20" x="663.482422"/>
     <use xlink:href="#ArialMT-72" x="691.265625"/>
     <use xlink:href="#ArialMT-61" x="724.566406"/>
     <use xlink:href="#ArialMT-74" x="780.181641"/>
     <use xlink:href="#ArialMT-69" x="807.964844"/>
     <use xlink:href="#ArialMT-6e" x="830.181641"/>
     <use xlink:href="#ArialMT-67" x="885.796875"/>
     <use xlink:href="#ArialMT-73" x="941.412109"/>
     <use xlink:href="#ArialMT-20" x="991.412109"/>
     <use xlink:href="#ArialMT-66" x="1019.195312"/>
     <use xlink:href="#ArialMT-72" x="1046.978516"/>
     <use xlink:href="#ArialMT-6f" x="1080.279297"/>
     <use xlink:href="#ArialMT-6d" x="1135.894531"/>
     <use xlink:href="#ArialMT-20" x="1219.195312"/>
     <use xlink:href="#ArialMT-72" x="1246.978516"/>
     <use xlink:href="#ArialMT-61" x="1280.279297"/>
     <use xlink:href="#ArialMT-6e" x="1335.894531"/>
     <use xlink:href="#ArialMT-6b" x="1391.509766"/>
     <use xlink:href="#ArialMT-65" x="1441.509766"/>
     <use xlink:href="#ArialMT-64" x="1497.125"/>
     <use xlink:href="#ArialMT-20" x="1552.740234"/>
     <use xlink:href="#ArialMT-67" x="1580.523438"/>
     <use xlink:href="#ArialMT-61" x="1636.138672"/>
     <use xlink:href="#ArialMT-6d" x="1691.753906"/>
     <use xlink:href="#ArialMT-65" x="1775.054688"/>
     <use xlink:href="#ArialMT-73" x="1830.669922"/>
    </g>
   </g>
  </g>
 </g>
 <defs>
  <clipPath id="p5872059bc3">
   <rect x="31.66" y="25.49625" width="418.34" height="292.22375"/>
  </clipPath>
 </defs>
</svg>
