<?xml version="1.0" encoding="utf-8" standalone="no"?>
<!DOCTYPE svg PUBLIC "-//W3C//DTD SVG 1.1//EN"
  "http://www.w3.org/Graphics/SVG/1.1/DTD/svg11.dtd">
<svg xmlns:xlink="http://www.w3.org/1999/xlink" width="460.8pt" height="345.6pt" viewBox="0 0 460.8 345.6" xmlns="http://www.w3.org/2000/svg" version="1.1">
 <metadata>
  <rdf:RDF xmlns:dc="http://purl.org/dc/elements/1.1/" xmlns:cc="http://creativecommons.org/ns#" xmlns:rdf="http://www.w3.org/1999/02/22-rdf-syntax-ns#">
   <cc:Work>
    <dc:type rdf:resource="http://purl.org/dc/dcmitype/StillImage"/>
    <dc:date>2024-08-18T00:19:37.748899</dc:date>
    <dc:format>image/svg+xml</dc:format>
    <dc:creator>
     <cc:Agent>
      <dc:title>Matplotlib v3.9.2, https://matplotlib.org/</dc:title>
     </cc:Agent>
    </dc:creator>
   </cc:Work>
  </rdf:RDF>
 </metadata>
 <defs>
  <style type="text/css">*{stroke-linejoin: round; stroke-linecap: butt}</style>
 </defs>
 <g id="figure_1">
  <g id="patch_1">
   <path d="M 0 345.6 
L 460.8 345.6 
L 460.8 0 
L 0 0 
z
" style="fill: #ffffff"/>
  </g>
  <g id="axes_1">
   <g id="patch_2">
    <path d="M 31.66 317.72 
L 450 317.72 
L 450 25.49625 
L 31.66 25.49625 
z
" style="fill: #eaeaf2"/>
   </g>
   <g id="matplotlib.axis_1">
    <g id="xtick_1">
     <g id="text_1">
      <!-- 1970 -->
      <g style="fill: #262626" transform="translate(39.55358 331.877812) scale(0.1 -0.1)">
       <defs>
        <path id="ArialMT-31" d="M 2384 0 
L 1822 0 
L 1822 3584 
Q 1619 3391 1289 3197 
Q 959 3003 697 2906 
L 697 3450 
Q 1169 3672 1522 3987 
Q 1875 4303 2022 4600 
L 2384 4600 
L 2384 0 
z
" transform="scale(0.015625)"/>
        <path id="ArialMT-39" d="M 350 1059 
L 891 1109 
Q 959 728 1153 556 
Q 1347 384 1650 384 
Q 1909 384 2104 503 
Q 2300 622 2425 820 
Q 2550 1019 2634 1356 
Q 2719 1694 2719 2044 
Q 2719 2081 2716 2156 
Q 2547 1888 2255 1720 
Q 1963 1553 1622 1553 
Q 1053 1553 659 1965 
Q 266 2378 266 3053 
Q 266 3750 677 4175 
Q 1088 4600 1706 4600 
Q 2153 4600 2523 4359 
Q 2894 4119 3086 3673 
Q 3278 3228 3278 2384 
Q 3278 1506 3087 986 
Q 2897 466 2520 194 
Q 2144 -78 1638 -78 
Q 1100 -78 759 220 
Q 419 519 350 1059 
z
M 2653 3081 
Q 2653 3566 2395 3850 
Q 2138 4134 1775 4134 
Q 1400 4134 1122 3828 
Q 844 3522 844 3034 
Q 844 2597 1108 2323 
Q 1372 2050 1759 2050 
Q 2150 2050 2401 2323 
Q 2653 2597 2653 3081 
z
" transform="scale(0.015625)"/>
        <path id="ArialMT-37" d="M 303 3981 
L 303 4522 
L 3269 4522 
L 3269 4084 
Q 2831 3619 2401 2847 
Q 1972 2075 1738 1259 
Q 1569 684 1522 0 
L 944 0 
Q 953 541 1156 1306 
Q 1359 2072 1739 2783 
Q 2119 3494 2547 3981 
L 303 3981 
z
" transform="scale(0.015625)"/>
        <path id="ArialMT-30" d="M 266 2259 
Q 266 3072 433 3567 
Q 600 4063 929 4331 
Q 1259 4600 1759 4600 
Q 2128 4600 2406 4451 
Q 2684 4303 2865 4023 
Q 3047 3744 3150 3342 
Q 3253 2941 3253 2259 
Q 3253 1453 3087 958 
Q 2922 463 2592 192 
Q 2263 -78 1759 -78 
Q 1097 -78 719 397 
Q 266 969 266 2259 
z
M 844 2259 
Q 844 1131 1108 757 
Q 1372 384 1759 384 
Q 2147 384 2411 759 
Q 2675 1134 2675 2259 
Q 2675 3391 2411 3762 
Q 2147 4134 1753 4134 
Q 1366 4134 1134 3806 
Q 844 3388 844 2259 
z
" transform="scale(0.015625)"/>
       </defs>
       <use xlink:href="#ArialMT-31"/>
       <use xlink:href="#ArialMT-39" x="55.615234"/>
       <use xlink:href="#ArialMT-37" x="111.230469"/>
       <use xlink:href="#ArialMT-30" x="166.845703"/>
      </g>
     </g>
    </g>
    <g id="xtick_2">
     <g id="text_2">
      <!-- 1980 -->
      <g style="fill: #262626" transform="translate(111.310012 331.877812) scale(0.1 -0.1)">
       <defs>
        <path id="ArialMT-38" d="M 1131 2484 
Q 781 2613 612 2850 
Q 444 3088 444 3419 
Q 444 3919 803 4259 
Q 1163 4600 1759 4600 
Q 2359 4600 2725 4251 
Q 3091 3903 3091 3403 
Q 3091 3084 2923 2848 
Q 2756 2613 2416 2484 
Q 2838 2347 3058 2040 
Q 3278 1734 3278 1309 
Q 3278 722 2862 322 
Q 2447 -78 1769 -78 
Q 1091 -78 675 323 
Q 259 725 259 1325 
Q 259 1772 486 2073 
Q 713 2375 1131 2484 
z
M 1019 3438 
Q 1019 3113 1228 2906 
Q 1438 2700 1772 2700 
Q 2097 2700 2305 2904 
Q 2513 3109 2513 3406 
Q 2513 3716 2298 3927 
Q 2084 4138 1766 4138 
Q 1444 4138 1231 3931 
Q 1019 3725 1019 3438 
z
M 838 1322 
Q 838 1081 952 856 
Q 1066 631 1291 507 
Q 1516 384 1775 384 
Q 2178 384 2440 643 
Q 2703 903 2703 1303 
Q 2703 1709 2433 1975 
Q 2163 2241 1756 2241 
Q 1359 2241 1098 1978 
Q 838 1716 838 1322 
z
" transform="scale(0.015625)"/>
       </defs>
       <use xlink:href="#ArialMT-31"/>
       <use xlink:href="#ArialMT-39" x="55.615234"/>
       <use xlink:href="#ArialMT-38" x="111.230469"/>
       <use xlink:href="#ArialMT-30" x="166.845703"/>
      </g>
     </g>
    </g>
    <g id="xtick_3">
     <g id="text_3">
      <!-- 1990 -->
      <g style="fill: #262626" transform="translate(183.066444 331.877812) scale(0.1 -0.1)">
       <use xlink:href="#ArialMT-31"/>
       <use xlink:href="#ArialMT-39" x="55.615234"/>
       <use xlink:href="#ArialMT-39" x="111.230469"/>
       <use xlink:href="#ArialMT-30" x="166.845703"/>
      </g>
     </g>
    </g>
    <g id="xtick_4">
     <g id="text_4">
      <!-- 2000 -->
      <g style="fill: #262626" transform="translate(254.822876 331.877812) scale(0.1 -0.1)">
       <defs>
        <path id="ArialMT-32" d="M 3222 541 
L 3222 0 
L 194 0 
Q 188 203 259 391 
Q 375 700 629 1000 
Q 884 1300 1366 1694 
Q 2113 2306 2375 2664 
Q 2638 3022 2638 3341 
Q 2638 3675 2398 3904 
Q 2159 4134 1775 4134 
Q 1369 4134 1125 3890 
Q 881 3647 878 3216 
L 300 3275 
Q 359 3922 746 4261 
Q 1134 4600 1788 4600 
Q 2447 4600 2831 4234 
Q 3216 3869 3216 3328 
Q 3216 3053 3103 2787 
Q 2991 2522 2730 2228 
Q 2469 1934 1863 1422 
Q 1356 997 1212 845 
Q 1069 694 975 541 
L 3222 541 
z
" transform="scale(0.015625)"/>
       </defs>
       <use xlink:href="#ArialMT-32"/>
       <use xlink:href="#ArialMT-30" x="55.615234"/>
       <use xlink:href="#ArialMT-30" x="111.230469"/>
       <use xlink:href="#ArialMT-30" x="166.845703"/>
      </g>
     </g>
    </g>
    <g id="xtick_5">
     <g id="text_5">
      <!-- 2010 -->
      <g style="fill: #262626" transform="translate(326.579309 331.877812) scale(0.1 -0.1)">
       <use xlink:href="#ArialMT-32"/>
       <use xlink:href="#ArialMT-30" x="55.615234"/>
       <use xlink:href="#ArialMT-31" x="111.230469"/>
       <use xlink:href="#ArialMT-30" x="166.845703"/>
      </g>
     </g>
    </g>
    <g id="xtick_6">
     <g id="text_6">
      <!-- 2020 -->
      <g style="fill: #262626" transform="translate(398.335741 331.877812) scale(0.1 -0.1)">
       <use xlink:href="#ArialMT-32"/>
       <use xlink:href="#ArialMT-30" x="55.615234"/>
       <use xlink:href="#ArialMT-32" x="111.230469"/>
       <use xlink:href="#ArialMT-30" x="166.845703"/>
      </g>
     </g>
    </g>
   </g>
   <g id="matplotlib.axis_2">
    <g id="ytick_1">
     <g id="text_7">
      <!-- 5.8 -->
      <g style="fill: #262626" transform="translate(10.76 291.594374) scale(0.1 -0.1)">
       <defs>
        <path id="ArialMT-35" d="M 266 1200 
L 856 1250 
Q 922 819 1161 601 
Q 1400 384 1738 384 
Q 2144 384 2425 690 
Q 2706 997 2706 1503 
Q 2706 1984 2436 2262 
Q 2166 2541 1728 2541 
Q 1456 2541 1237 2417 
Q 1019 2294 894 2097 
L 366 2166 
L 809 4519 
L 3088 4519 
L 3088 3981 
L 1259 3981 
L 1013 2750 
Q 1425 3038 1878 3038 
Q 2478 3038 2890 2622 
Q 3303 2206 3303 1553 
Q 3303 931 2941 478 
Q 2500 -78 1738 -78 
Q 1113 -78 717 272 
Q 322 622 266 1200 
z
" transform="scale(0.015625)"/>
        <path id="ArialMT-2e" d="M 581 0 
L 581 641 
L 1222 641 
L 1222 0 
L 581 0 
z
" transform="scale(0.015625)"/>
       </defs>
       <use xlink:href="#ArialMT-35"/>
       <use xlink:href="#ArialMT-2e" x="55.615234"/>
       <use xlink:href="#ArialMT-38" x="83.398438"/>
      </g>
     </g>
    </g>
    <g id="ytick_2">
     <g id="text_8">
      <!-- 6.0 -->
      <g style="fill: #262626" transform="translate(10.76 256.954885) scale(0.1 -0.1)">
       <defs>
        <path id="ArialMT-36" d="M 3184 3459 
L 2625 3416 
Q 2550 3747 2413 3897 
Q 2184 4138 1850 4138 
Q 1581 4138 1378 3988 
Q 1113 3794 959 3422 
Q 806 3050 800 2363 
Q 1003 2672 1297 2822 
Q 1591 2972 1913 2972 
Q 2475 2972 2870 2558 
Q 3266 2144 3266 1488 
Q 3266 1056 3080 686 
Q 2894 316 2569 119 
Q 2244 -78 1831 -78 
Q 1128 -78 684 439 
Q 241 956 241 2144 
Q 241 3472 731 4075 
Q 1159 4600 1884 4600 
Q 2425 4600 2770 4297 
Q 3116 3994 3184 3459 
z
M 888 1484 
Q 888 1194 1011 928 
Q 1134 663 1356 523 
Q 1578 384 1822 384 
Q 2178 384 2434 671 
Q 2691 959 2691 1453 
Q 2691 1928 2437 2201 
Q 2184 2475 1800 2475 
Q 1419 2475 1153 2201 
Q 888 1928 888 1484 
z
" transform="scale(0.015625)"/>
       </defs>
       <use xlink:href="#ArialMT-36"/>
       <use xlink:href="#ArialMT-2e" x="55.615234"/>
       <use xlink:href="#ArialMT-30" x="83.398438"/>
      </g>
     </g>
    </g>
    <g id="ytick_3">
     <g id="text_9">
      <!-- 6.2 -->
      <g style="fill: #262626" transform="translate(10.76 222.315396) scale(0.1 -0.1)">
       <use xlink:href="#ArialMT-36"/>
       <use xlink:href="#ArialMT-2e" x="55.615234"/>
       <use xlink:href="#ArialMT-32" x="83.398438"/>
      </g>
     </g>
    </g>
    <g id="ytick_4">
     <g id="text_10">
      <!-- 6.4 -->
      <g style="fill: #262626" transform="translate(10.76 187.675907) scale(0.1 -0.1)">
       <defs>
        <path id="ArialMT-34" d="M 2069 0 
L 2069 1097 
L 81 1097 
L 81 1613 
L 2172 4581 
L 2631 4581 
L 2631 1613 
L 3250 1613 
L 3250 1097 
L 2631 1097 
L 2631 0 
L 2069 0 
z
M 2069 1613 
L 2069 3678 
L 634 1613 
L 2069 1613 
z
" transform="scale(0.015625)"/>
       </defs>
       <use xlink:href="#ArialMT-36"/>
       <use xlink:href="#ArialMT-2e" x="55.615234"/>
       <use xlink:href="#ArialMT-34" x="83.398438"/>
      </g>
     </g>
    </g>
    <g id="ytick_5">
     <g id="text_11">
      <!-- 6.6 -->
      <g style="fill: #262626" transform="translate(10.76 153.036418) scale(0.1 -0.1)">
       <use xlink:href="#ArialMT-36"/>
       <use xlink:href="#ArialMT-2e" x="55.615234"/>
       <use xlink:href="#ArialMT-36" x="83.398438"/>
      </g>
     </g>
    </g>
    <g id="ytick_6">
     <g id="text_12">
      <!-- 6.8 -->
      <g style="fill: #262626" transform="translate(10.76 118.396929) scale(0.1 -0.1)">
       <use xlink:href="#ArialMT-36"/>
       <use xlink:href="#ArialMT-2e" x="55.615234"/>
       <use xlink:href="#ArialMT-38" x="83.398438"/>
      </g>
     </g>
    </g>
    <g id="ytick_7">
     <g id="text_13">
      <!-- 7.0 -->
      <g style="fill: #262626" transform="translate(10.76 83.757439) scale(0.1 -0.1)">
       <use xlink:href="#ArialMT-37"/>
       <use xlink:href="#ArialMT-2e" x="55.615234"/>
       <use xlink:href="#ArialMT-30" x="83.398438"/>
      </g>
     </g>
    </g>
    <g id="ytick_8">
     <g id="text_14">
      <!-- 7.2 -->
      <g style="fill: #262626" transform="translate(10.76 49.11795) scale(0.1 -0.1)">
       <use xlink:href="#ArialMT-37"/>
       <use xlink:href="#ArialMT-2e" x="55.615234"/>
       <use xlink:href="#ArialMT-32" x="83.398438"/>
      </g>
     </g>
    </g>
   </g>
   <g id="PathCollection_1">
    <path d="M 50.675455 241.617669 
C 50.80592 241.617669 50.931059 241.565834 51.023312 241.473581 
C 51.115565 241.381329 51.1674 241.256189 51.1674 241.125724 
C 51.1674 240.995258 51.115565 240.870119 51.023312 240.777866 
C 50.931059 240.685613 50.80592 240.633779 50.675455 240.633779 
C 50.544989 240.633779 50.41985 240.685613 50.327597 240.777866 
C 50.235344 240.870119 50.183509 240.995258 50.183509 241.125724 
C 50.183509 241.256189 50.235344 241.381329 50.327597 241.473581 
C 50.41985 241.565834 50.544989 241.617669 50.675455 241.617669 
z
" clip-path="url(#pec6dfe46bb)" style="fill: #800080; fill-opacity: 0.8; stroke: #800080; stroke-opacity: 0.8"/>
    <path d="M 57.851098 234.593634 
C 57.979952 234.593634 58.103546 234.542439 58.19466 234.451325 
C 58.285774 234.360212 58.336968 234.236618 58.336968 234.107763 
C 58.336968 233.978909 58.285774 233.855315 58.19466 233.764201 
C 58.103546 233.673087 57.979952 233.621893 57.851098 233.621893 
C 57.722243 233.621893 57.598649 233.673087 57.507536 233.764201 
C 57.416422 233.855315 57.365227 233.978909 57.365227 234.107763 
C 57.365227 234.236618 57.416422 234.360212 57.507536 234.451325 
C 57.598649 234.542439 57.722243 234.593634 57.851098 234.593634 
z
" clip-path="url(#pec6dfe46bb)" style="fill: #800080; fill-opacity: 0.8; stroke: #800080; stroke-opacity: 0.8"/>
    <path d="M 65.026741 250.976257 
C 65.195983 250.976257 65.358317 250.909017 65.477989 250.789344 
C 65.597662 250.669672 65.664902 250.507338 65.664902 250.338096 
C 65.664902 250.168853 65.597662 250.00652 65.477989 249.886848 
C 65.358317 249.767175 65.195983 249.699934 65.026741 249.699934 
C 64.857499 249.699934 64.695165 249.767175 64.575493 249.886848 
C 64.45582 250.00652 64.38858 250.168853 64.38858 250.338096 
C 64.38858 250.507338 64.45582 250.669672 64.575493 250.789344 
C 64.695165 250.909017 64.857499 250.976257 65.026741 250.976257 
z
" clip-path="url(#pec6dfe46bb)" style="fill: #800080; fill-opacity: 0.8; stroke: #800080; stroke-opacity: 0.8"/>
    <path d="M 72.202384 263.25538 
C 72.378823 263.25538 72.548059 263.18528 72.67282 263.060519 
C 72.797581 262.935758 72.867681 262.766522 72.867681 262.590083 
C 72.867681 262.413644 72.797581 262.244408 72.67282 262.119647 
C 72.548059 261.994886 72.378823 261.924786 72.202384 261.924786 
C 72.025945 261.924786 71.856709 261.994886 71.731948 262.119647 
C 71.607187 262.244408 71.537087 262.413644 71.537087 262.590083 
C 71.537087 262.766522 71.607187 262.935758 71.731948 263.060519 
C 71.856709 263.18528 72.025945 263.25538 72.202384 263.25538 
z
" clip-path="url(#pec6dfe46bb)" style="fill: #800080; fill-opacity: 0.8; stroke: #800080; stroke-opacity: 0.8"/>
    <path d="M 79.378027 235.085801 
C 79.555646 235.085801 79.726014 235.015232 79.85161 234.889637 
C 79.977205 234.764041 80.047774 234.593673 80.047774 234.416055 
C 80.047774 234.238436 79.977205 234.068068 79.85161 233.942473 
C 79.726014 233.816877 79.555646 233.746308 79.378027 233.746308 
C 79.200409 233.746308 79.030041 233.816877 78.904445 233.942473 
C 78.77885 234.068068 78.708281 234.238436 78.708281 234.416055 
C 78.708281 234.593673 78.77885 234.764041 78.904445 234.889637 
C 79.030041 235.015232 79.200409 235.085801 79.378027 235.085801 
z
" clip-path="url(#pec6dfe46bb)" style="fill: #800080; fill-opacity: 0.8; stroke: #800080; stroke-opacity: 0.8"/>
    <path d="M 86.553671 238.466996 
C 86.781457 238.466996 86.999944 238.376495 87.161013 238.215426 
C 87.322082 238.054357 87.412583 237.83587 87.412583 237.608084 
C 87.412583 237.380297 87.322082 237.16181 87.161013 237.000741 
C 86.999944 236.839672 86.781457 236.749172 86.553671 236.749172 
C 86.325885 236.749172 86.107397 236.839672 85.946328 237.000741 
C 85.785259 237.16181 85.694759 237.380297 85.694759 237.608084 
C 85.694759 237.83587 85.785259 238.054357 85.946328 238.215426 
C 86.107397 238.376495 86.325885 238.466996 86.553671 238.466996 
z
" clip-path="url(#pec6dfe46bb)" style="fill: #800080; fill-opacity: 0.8; stroke: #800080; stroke-opacity: 0.8"/>
    <path d="M 93.729314 234.002279 
C 93.899767 234.002279 94.063263 233.934557 94.183792 233.814028 
C 94.304321 233.693499 94.372042 233.530004 94.372042 233.35955 
C 94.372042 233.189097 94.304321 233.025601 94.183792 232.905073 
C 94.063263 232.784544 93.899767 232.716822 93.729314 232.716822 
C 93.55886 232.716822 93.395365 232.784544 93.274836 232.905073 
C 93.154307 233.025601 93.086585 233.189097 93.086585 233.35955 
C 93.086585 233.530004 93.154307 233.693499 93.274836 233.814028 
C 93.395365 233.934557 93.55886 234.002279 93.729314 234.002279 
z
" clip-path="url(#pec6dfe46bb)" style="fill: #800080; fill-opacity: 0.8; stroke: #800080; stroke-opacity: 0.8"/>
    <path d="M 100.904957 234.7822 
C 101.120566 234.7822 101.327373 234.696538 101.479831 234.544079 
C 101.632289 234.391621 101.717952 234.184814 101.717952 233.969205 
C 101.717952 233.753597 101.632289 233.54679 101.479831 233.394331 
C 101.327373 233.241873 101.120566 233.156211 100.904957 233.156211 
C 100.689348 233.156211 100.482542 233.241873 100.330083 233.394331 
C 100.177625 233.54679 100.091963 233.753597 100.091963 233.969205 
C 100.091963 234.184814 100.177625 234.391621 100.330083 234.544079 
C 100.482542 234.696538 100.689348 234.7822 100.904957 234.7822 
z
" clip-path="url(#pec6dfe46bb)" style="fill: #800080; fill-opacity: 0.8; stroke: #800080; stroke-opacity: 0.8"/>
    <path d="M 108.0806 245.528668 
C 108.287367 245.528668 108.485693 245.446519 108.631899 245.300313 
C 108.778105 245.154107 108.860254 244.955781 108.860254 244.749014 
C 108.860254 244.542248 108.778105 244.343922 108.631899 244.197716 
C 108.485693 244.05151 108.287367 243.969361 108.0806 243.969361 
C 107.873834 243.969361 107.675508 244.05151 107.529302 244.197716 
C 107.383096 244.343922 107.300947 244.542248 107.300947 244.749014 
C 107.300947 244.955781 107.383096 245.154107 107.529302 245.300313 
C 107.675508 245.446519 107.873834 245.528668 108.0806 245.528668 
z
" clip-path="url(#pec6dfe46bb)" style="fill: #800080; fill-opacity: 0.8; stroke: #800080; stroke-opacity: 0.8"/>
    <path d="M 115.256244 206.661252 
C 115.495575 206.661252 115.725137 206.566164 115.89437 206.396931 
C 116.063603 206.227698 116.15869 205.998137 116.15869 205.758805 
C 116.15869 205.519474 116.063603 205.289912 115.89437 205.120679 
C 115.725137 204.951446 115.495575 204.856359 115.256244 204.856359 
C 115.016912 204.856359 114.78735 204.951446 114.618117 205.120679 
C 114.448884 205.289912 114.353797 205.519474 114.353797 205.758805 
C 114.353797 205.998137 114.448884 206.227698 114.618117 206.396931 
C 114.78735 206.566164 115.016912 206.661252 115.256244 206.661252 
z
" clip-path="url(#pec6dfe46bb)" style="fill: #800080; fill-opacity: 0.8; stroke: #800080; stroke-opacity: 0.8"/>
    <path d="M 122.431887 217.821333 
C 122.665964 217.821333 122.890485 217.728333 123.056002 217.562816 
C 123.221519 217.397298 123.314519 217.172777 123.314519 216.9387 
C 123.314519 216.704624 123.221519 216.480102 123.056002 216.314585 
C 122.890485 216.149068 122.665964 216.056068 122.431887 216.056068 
C 122.19781 216.056068 121.973289 216.149068 121.807771 216.314585 
C 121.642254 216.480102 121.549254 216.704624 121.549254 216.9387 
C 121.549254 217.172777 121.642254 217.397298 121.807771 217.562816 
C 121.973289 217.728333 122.19781 217.821333 122.431887 217.821333 
z
" clip-path="url(#pec6dfe46bb)" style="fill: #800080; fill-opacity: 0.8; stroke: #800080; stroke-opacity: 0.8"/>
    <path d="M 129.60753 237.580475 
C 129.865239 237.580475 130.112427 237.478086 130.294654 237.295859 
C 130.476882 237.113631 130.579271 236.866443 130.579271 236.608734 
C 130.579271 236.351026 130.476882 236.103837 130.294654 235.92161 
C 130.112427 235.739382 129.865239 235.636994 129.60753 235.636994 
C 129.349821 235.636994 129.102633 235.739382 128.920406 235.92161 
C 128.738178 236.103837 128.635789 236.351026 128.635789 236.608734 
C 128.635789 236.866443 128.738178 237.113631 128.920406 237.295859 
C 129.102633 237.478086 129.349821 237.580475 129.60753 237.580475 
z
" clip-path="url(#pec6dfe46bb)" style="fill: #800080; fill-opacity: 0.8; stroke: #800080; stroke-opacity: 0.8"/>
    <path d="M 136.783173 241.153895 
C 137.020766 241.153895 137.24866 241.059498 137.416664 240.891495 
C 137.584667 240.723491 137.679064 240.495597 137.679064 240.258005 
C 137.679064 240.020412 137.584667 239.792518 137.416664 239.624514 
C 137.24866 239.456511 137.020766 239.362114 136.783173 239.362114 
C 136.54558 239.362114 136.317687 239.456511 136.149683 239.624514 
C 135.981679 239.792518 135.887283 240.020412 135.887283 240.258005 
C 135.887283 240.495597 135.981679 240.723491 136.149683 240.891495 
C 136.317687 241.059498 136.54558 241.153895 136.783173 241.153895 
z
" clip-path="url(#pec6dfe46bb)" style="fill: #800080; fill-opacity: 0.8; stroke: #800080; stroke-opacity: 0.8"/>
    <path d="M 143.958816 236.457652 
C 144.205827 236.457652 144.442754 236.359514 144.617417 236.184851 
C 144.79208 236.010188 144.890219 235.773261 144.890219 235.52625 
C 144.890219 235.27924 144.79208 235.042312 144.617417 234.86765 
C 144.442754 234.692987 144.205827 234.594848 143.958816 234.594848 
C 143.711806 234.594848 143.474879 234.692987 143.300216 234.86765 
C 143.125553 235.042312 143.027414 235.27924 143.027414 235.52625 
C 143.027414 235.773261 143.125553 236.010188 143.300216 236.184851 
C 143.474879 236.359514 143.711806 236.457652 143.958816 236.457652 
z
" clip-path="url(#pec6dfe46bb)" style="fill: #800080; fill-opacity: 0.8; stroke: #800080; stroke-opacity: 0.8"/>
    <path d="M 151.13446 268.014548 
C 151.346187 268.014548 151.549272 267.930427 151.698986 267.780713 
C 151.8487 267.630999 151.932821 267.427915 151.932821 267.216187 
C 151.932821 267.004459 151.8487 266.801375 151.698986 266.651661 
C 151.549272 266.501946 151.346187 266.417826 151.13446 266.417826 
C 150.922732 266.417826 150.719647 266.501946 150.569933 266.651661 
C 150.420219 266.801375 150.336099 267.004459 150.336099 267.216187 
C 150.336099 267.427915 150.420219 267.630999 150.569933 267.780713 
C 150.719647 267.930427 150.922732 268.014548 151.13446 268.014548 
z
" clip-path="url(#pec6dfe46bb)" style="fill: #800080; fill-opacity: 0.8; stroke: #800080; stroke-opacity: 0.8"/>
    <path d="M 158.310103 235.7673 
C 158.548573 235.7673 158.777309 235.672554 158.945933 235.50393 
C 159.114557 235.335306 159.209303 235.106571 159.209303 234.8681 
C 159.209303 234.629629 159.114557 234.400894 158.945933 234.23227 
C 158.777309 234.063646 158.548573 233.9689 158.310103 233.9689 
C 158.071632 233.9689 157.842897 234.063646 157.674273 234.23227 
C 157.505649 234.400894 157.410903 234.629629 157.410903 234.8681 
C 157.410903 235.106571 157.505649 235.335306 157.674273 235.50393 
C 157.842897 235.672554 158.071632 235.7673 158.310103 235.7673 
z
" clip-path="url(#pec6dfe46bb)" style="fill: #800080; fill-opacity: 0.8; stroke: #800080; stroke-opacity: 0.8"/>
    <path d="M 165.485746 246.330324 
C 165.740217 246.330324 165.984299 246.229222 166.164237 246.049284 
C 166.344175 245.869346 166.445277 245.625264 166.445277 245.370793 
C 166.445277 245.116322 166.344175 244.87224 166.164237 244.692302 
C 165.984299 244.512364 165.740217 244.411262 165.485746 244.411262 
C 165.231276 244.411262 164.987193 244.512364 164.807255 244.692302 
C 164.627317 244.87224 164.526215 245.116322 164.526215 245.370793 
C 164.526215 245.625264 164.627317 245.869346 164.807255 246.049284 
C 164.987193 246.229222 165.231276 246.330324 165.485746 246.330324 
z
" clip-path="url(#pec6dfe46bb)" style="fill: #800080; fill-opacity: 0.8; stroke: #800080; stroke-opacity: 0.8"/>
    <path d="M 172.661389 258.279376 
C 172.906716 258.279376 173.142027 258.181907 173.315499 258.008434 
C 173.488971 257.834962 173.586441 257.599651 173.586441 257.354324 
C 173.586441 257.108998 173.488971 256.873686 173.315499 256.700214 
C 173.142027 256.526742 172.906716 256.429273 172.661389 256.429273 
C 172.416063 256.429273 172.180751 256.526742 172.007279 256.700214 
C 171.833807 256.873686 171.736338 257.108998 171.736338 257.354324 
C 171.736338 257.599651 171.833807 257.834962 172.007279 258.008434 
C 172.180751 258.181907 172.416063 258.279376 172.661389 258.279376 
z
" clip-path="url(#pec6dfe46bb)" style="fill: #800080; fill-opacity: 0.8; stroke: #800080; stroke-opacity: 0.8"/>
    <path d="M 179.837033 288.976181 
C 180.078955 288.976181 180.311002 288.880064 180.482067 288.708998 
C 180.653133 288.537933 180.74925 288.305886 180.74925 288.063964 
C 180.74925 287.822041 180.653133 287.589994 180.482067 287.418929 
C 180.311002 287.247863 180.078955 287.151746 179.837033 287.151746 
C 179.59511 287.151746 179.363063 287.247863 179.191998 287.418929 
C 179.020932 287.589994 178.924816 287.822041 178.924816 288.063964 
C 178.924816 288.305886 179.020932 288.537933 179.191998 288.708998 
C 179.363063 288.880064 179.59511 288.976181 179.837033 288.976181 
z
" clip-path="url(#pec6dfe46bb)" style="fill: #800080; fill-opacity: 0.8; stroke: #800080; stroke-opacity: 0.8"/>
    <path d="M 187.012676 263.845231 
C 187.254599 263.845231 187.486645 263.749114 187.657711 263.578049 
C 187.828776 263.406984 187.924893 263.174937 187.924893 262.933014 
C 187.924893 262.691091 187.828776 262.459045 187.657711 262.287979 
C 187.486645 262.116914 187.254599 262.020797 187.012676 262.020797 
C 186.770753 262.020797 186.538706 262.116914 186.367641 262.287979 
C 186.196576 262.459045 186.100459 262.691091 186.100459 262.933014 
C 186.100459 263.174937 186.196576 263.406984 186.367641 263.578049 
C 186.538706 263.749114 186.770753 263.845231 187.012676 263.845231 
z
" clip-path="url(#pec6dfe46bb)" style="fill: #800080; fill-opacity: 0.8; stroke: #800080; stroke-opacity: 0.8"/>
    <path d="M 194.188319 252.590044 
C 194.441967 252.590044 194.685261 252.489268 194.864618 252.309912 
C 195.043974 252.130555 195.14475 251.887261 195.14475 251.633613 
C 195.14475 251.379964 195.043974 251.136671 194.864618 250.957314 
C 194.685261 250.777957 194.441967 250.677182 194.188319 250.677182 
C 193.934671 250.677182 193.691377 250.777957 193.51202 250.957314 
C 193.332664 251.136671 193.231888 251.379964 193.231888 251.633613 
C 193.231888 251.887261 193.332664 252.130555 193.51202 252.309912 
C 193.691377 252.489268 193.934671 252.590044 194.188319 252.590044 
z
" clip-path="url(#pec6dfe46bb)" style="fill: #800080; fill-opacity: 0.8; stroke: #800080; stroke-opacity: 0.8"/>
    <path d="M 201.363962 260.641752 
C 201.637298 260.641752 201.899475 260.533155 202.092752 260.339877 
C 202.28603 260.1466 202.394627 259.884423 202.394627 259.611087 
C 202.394627 259.337752 202.28603 259.075574 202.092752 258.882297 
C 201.899475 258.68902 201.637298 258.580422 201.363962 258.580422 
C 201.090627 258.580422 200.82845 258.68902 200.635172 258.882297 
C 200.441895 259.075574 200.333297 259.337752 200.333297 259.611087 
C 200.333297 259.884423 200.441895 260.1466 200.635172 260.339877 
C 200.82845 260.533155 201.090627 260.641752 201.363962 260.641752 
z
" clip-path="url(#pec6dfe46bb)" style="fill: #800080; fill-opacity: 0.8; stroke: #800080; stroke-opacity: 0.8"/>
    <path d="M 208.539605 226.145583 
C 208.836251 226.145583 209.120788 226.027724 209.330548 225.817964 
C 209.540308 225.608203 209.658167 225.323667 209.658167 225.027021 
C 209.658167 224.730375 209.540308 224.445839 209.330548 224.236079 
C 209.120788 224.026318 208.836251 223.90846 208.539605 223.90846 
C 208.242959 223.90846 207.958423 224.026318 207.748663 224.236079 
C 207.538903 224.445839 207.421044 224.730375 207.421044 225.027021 
C 207.421044 225.323667 207.538903 225.608203 207.748663 225.817964 
C 207.958423 226.027724 208.242959 226.145583 208.539605 226.145583 
z
" clip-path="url(#pec6dfe46bb)" style="fill: #800080; fill-opacity: 0.8; stroke: #800080; stroke-opacity: 0.8"/>
    <path d="M 215.715249 244.202671 
C 216.001204 244.202671 216.275485 244.08906 216.477686 243.886859 
C 216.679886 243.684659 216.793497 243.410377 216.793497 243.124422 
C 216.793497 242.838467 216.679886 242.564186 216.477686 242.361985 
C 216.275485 242.159785 216.001204 242.046174 215.715249 242.046174 
C 215.429294 242.046174 215.155012 242.159785 214.952812 242.361985 
C 214.750611 242.564186 214.637 242.838467 214.637 243.124422 
C 214.637 243.410377 214.750611 243.684659 214.952812 243.886859 
C 215.155012 244.08906 215.429294 244.202671 215.715249 244.202671 
z
" clip-path="url(#pec6dfe46bb)" style="fill: #800080; fill-opacity: 0.8; stroke: #800080; stroke-opacity: 0.8"/>
    <path d="M 222.890892 246.865507 
C 223.172463 246.865507 223.44254 246.753637 223.641642 246.554536 
C 223.840743 246.355435 223.952612 246.085358 223.952612 245.803787 
C 223.952612 245.522215 223.840743 245.252138 223.641642 245.053037 
C 223.44254 244.853936 223.172463 244.742066 222.890892 244.742066 
C 222.60932 244.742066 222.339243 244.853936 222.140142 245.053037 
C 221.941041 245.252138 221.829172 245.522215 221.829172 245.803787 
C 221.829172 246.085358 221.941041 246.355435 222.140142 246.554536 
C 222.339243 246.753637 222.60932 246.865507 222.890892 246.865507 
z
" clip-path="url(#pec6dfe46bb)" style="fill: #800080; fill-opacity: 0.8; stroke: #800080; stroke-opacity: 0.8"/>
    <path d="M 230.066535 229.505663 
C 230.371462 229.505663 230.663941 229.384514 230.879557 229.168898 
C 231.095173 228.953282 231.216322 228.660803 231.216322 228.355876 
C 231.216322 228.050949 231.095173 227.75847 230.879557 227.542854 
C 230.663941 227.327238 230.371462 227.206089 230.066535 227.206089 
C 229.761608 227.206089 229.469129 227.327238 229.253513 227.542854 
C 229.037897 227.75847 228.916748 228.050949 228.916748 228.355876 
C 228.916748 228.660803 229.037897 228.953282 229.253513 229.168898 
C 229.469129 229.384514 229.761608 229.505663 230.066535 229.505663 
z
" clip-path="url(#pec6dfe46bb)" style="fill: #800080; fill-opacity: 0.8; stroke: #800080; stroke-opacity: 0.8"/>
    <path d="M 237.242178 265.375572 
C 237.549133 265.375572 237.843557 265.253617 238.060607 265.036568 
C 238.277657 264.819518 238.399611 264.525094 238.399611 264.218139 
C 238.399611 263.911184 238.277657 263.616761 238.060607 263.399711 
C 237.843557 263.182661 237.549133 263.060707 237.242178 263.060707 
C 236.935224 263.060707 236.6408 263.182661 236.42375 263.399711 
C 236.2067 263.616761 236.084746 263.911184 236.084746 264.218139 
C 236.084746 264.525094 236.2067 264.819518 236.42375 265.036568 
C 236.6408 265.253617 236.935224 265.375572 237.242178 265.375572 
z
" clip-path="url(#pec6dfe46bb)" style="fill: #800080; fill-opacity: 0.8; stroke: #800080; stroke-opacity: 0.8"/>
    <path d="M 244.417822 237.48215 
C 244.732133 237.48215 245.033613 237.357273 245.255864 237.135021 
C 245.478115 236.91277 245.602992 236.61129 245.602992 236.296979 
C 245.602992 235.982668 245.478115 235.681188 245.255864 235.458937 
C 245.033613 235.236685 244.732133 235.111808 244.417822 235.111808 
C 244.103511 235.111808 243.802031 235.236685 243.579779 235.458937 
C 243.357528 235.681188 243.232651 235.982668 243.232651 236.296979 
C 243.232651 236.61129 243.357528 236.91277 243.579779 237.135021 
C 243.802031 237.357273 244.103511 237.48215 244.417822 237.48215 
z
" clip-path="url(#pec6dfe46bb)" style="fill: #800080; fill-opacity: 0.8; stroke: #800080; stroke-opacity: 0.8"/>
    <path d="M 251.593465 261.043781 
C 251.921975 261.043781 252.237075 260.913263 252.469367 260.680971 
C 252.701659 260.448679 252.832178 260.133579 252.832178 259.805068 
C 252.832178 259.476558 252.701659 259.161458 252.469367 258.929166 
C 252.237075 258.696874 251.921975 258.566355 251.593465 258.566355 
C 251.264954 258.566355 250.949854 258.696874 250.717562 258.929166 
C 250.48527 259.161458 250.354752 259.476558 250.354752 259.805068 
C 250.354752 260.133579 250.48527 260.448679 250.717562 260.680971 
C 250.949854 260.913263 251.264954 261.043781 251.593465 261.043781 
z
" clip-path="url(#pec6dfe46bb)" style="fill: #800080; fill-opacity: 0.8; stroke: #800080; stroke-opacity: 0.8"/>
    <path d="M 258.769108 242.312408 
C 259.111839 242.312408 259.440579 242.17624 259.682927 241.933892 
C 259.925275 241.691545 260.061443 241.362805 260.061443 241.020073 
C 260.061443 240.677342 259.925275 240.348602 259.682927 240.106254 
C 259.440579 239.863907 259.111839 239.727738 258.769108 239.727738 
C 258.426377 239.727738 258.097637 239.863907 257.855289 240.106254 
C 257.612942 240.348602 257.476773 240.677342 257.476773 241.020073 
C 257.476773 241.362805 257.612942 241.691545 257.855289 241.933892 
C 258.097637 242.17624 258.426377 242.312408 258.769108 242.312408 
z
" clip-path="url(#pec6dfe46bb)" style="fill: #800080; fill-opacity: 0.8; stroke: #800080; stroke-opacity: 0.8"/>
    <path d="M 265.944751 259.055407 
C 266.301722 259.055407 266.64412 258.913581 266.896536 258.661164 
C 267.148953 258.408748 267.290779 258.06635 267.290779 257.709379 
C 267.290779 257.352409 267.148953 257.01001 266.896536 256.757594 
C 266.64412 256.505178 266.301722 256.363352 265.944751 256.363352 
C 265.587781 256.363352 265.245382 256.505178 264.992966 256.757594 
C 264.74055 257.01001 264.598724 257.352409 264.598724 257.709379 
C 264.598724 258.06635 264.74055 258.408748 264.992966 258.661164 
C 265.245382 258.913581 265.587781 259.055407 265.944751 259.055407 
z
" clip-path="url(#pec6dfe46bb)" style="fill: #800080; fill-opacity: 0.8; stroke: #800080; stroke-opacity: 0.8"/>
    <path d="M 273.120395 263.421356 
C 273.479108 263.421356 273.823177 263.278838 274.076825 263.02519 
C 274.330474 262.771541 274.472992 262.427472 274.472992 262.068759 
C 274.472992 261.710046 274.330474 261.365976 274.076825 261.112328 
C 273.823177 260.85868 273.479108 260.716161 273.120395 260.716161 
C 272.761681 260.716161 272.417612 260.85868 272.163964 261.112328 
C 271.910315 261.365976 271.767797 261.710046 271.767797 262.068759 
C 271.767797 262.427472 271.910315 262.771541 272.163964 263.02519 
C 272.417612 263.278838 272.761681 263.421356 273.120395 263.421356 
z
" clip-path="url(#pec6dfe46bb)" style="fill: #800080; fill-opacity: 0.8; stroke: #800080; stroke-opacity: 0.8"/>
    <path d="M 280.296038 258.316979 
C 280.677192 258.316979 281.042786 258.165545 281.312303 257.896029 
C 281.58182 257.626512 281.733254 257.260918 281.733254 256.879763 
C 281.733254 256.498609 281.58182 256.133015 281.312303 255.863498 
C 281.042786 255.593981 280.677192 255.442547 280.296038 255.442547 
C 279.914884 255.442547 279.549289 255.593981 279.279773 255.863498 
C 279.010256 256.133015 278.858822 256.498609 278.858822 256.879763 
C 278.858822 257.260918 279.010256 257.626512 279.279773 257.896029 
C 279.549289 258.165545 279.914884 258.316979 280.296038 258.316979 
z
" clip-path="url(#pec6dfe46bb)" style="fill: #800080; fill-opacity: 0.8; stroke: #800080; stroke-opacity: 0.8"/>
    <path d="M 287.471681 255.167549 
C 287.891692 255.167549 288.294557 255.000677 288.591549 254.703684 
C 288.888542 254.406692 289.055414 254.003827 289.055414 253.583816 
C 289.055414 253.163805 288.888542 252.76094 288.591549 252.463948 
C 288.294557 252.166955 287.891692 252.000083 287.471681 252.000083 
C 287.05167 252.000083 286.648805 252.166955 286.351813 252.463948 
C 286.05482 252.76094 285.887948 253.163805 285.887948 253.583816 
C 285.887948 254.003827 286.05482 254.406692 286.351813 254.703684 
C 286.648805 255.000677 287.05167 255.167549 287.471681 255.167549 
z
" clip-path="url(#pec6dfe46bb)" style="fill: #800080; fill-opacity: 0.8; stroke: #800080; stroke-opacity: 0.8"/>
    <path d="M 294.647324 241.466263 
C 295.108771 241.466263 295.55138 241.282928 295.877672 240.956636 
C 296.203964 240.630344 296.387298 240.187735 296.387298 239.726288 
C 296.387298 239.264842 296.203964 238.822233 295.877672 238.495941 
C 295.55138 238.169649 295.108771 237.986314 294.647324 237.986314 
C 294.185878 237.986314 293.743269 238.169649 293.416977 238.495941 
C 293.090685 238.822233 292.90735 239.264842 292.90735 239.726288 
C 292.90735 240.187735 293.090685 240.630344 293.416977 240.956636 
C 293.743269 241.282928 294.185878 241.466263 294.647324 241.466263 
z
" clip-path="url(#pec6dfe46bb)" style="fill: #800080; fill-opacity: 0.8; stroke: #800080; stroke-opacity: 0.8"/>
    <path d="M 301.822967 249.168594 
C 302.304229 249.168594 302.765844 248.977387 303.106147 248.637084 
C 303.44645 248.29678 303.637657 247.835165 303.637657 247.353904 
C 303.637657 246.872642 303.44645 246.411027 303.106147 246.070724 
C 302.765844 245.730421 302.304229 245.539214 301.822967 245.539214 
C 301.341706 245.539214 300.880091 245.730421 300.539788 246.070724 
C 300.199485 246.411027 300.008277 246.872642 300.008277 247.353904 
C 300.008277 247.835165 300.199485 248.29678 300.539788 248.637084 
C 300.880091 248.977387 301.341706 249.168594 301.822967 249.168594 
z
" clip-path="url(#pec6dfe46bb)" style="fill: #800080; fill-opacity: 0.8; stroke: #800080; stroke-opacity: 0.8"/>
    <path d="M 308.998611 249.554673 
C 309.472483 249.554673 309.92701 249.366401 310.262088 249.031323 
C 310.597166 248.696245 310.785437 248.241718 310.785437 247.767846 
C 310.785437 247.293974 310.597166 246.839447 310.262088 246.504368 
C 309.92701 246.16929 309.472483 245.981019 308.998611 245.981019 
C 308.524739 245.981019 308.070211 246.16929 307.735133 246.504368 
C 307.400055 246.839447 307.211784 247.293974 307.211784 247.767846 
C 307.211784 248.241718 307.400055 248.696245 307.735133 249.031323 
C 308.070211 249.366401 308.524739 249.554673 308.998611 249.554673 
z
" clip-path="url(#pec6dfe46bb)" style="fill: #800080; fill-opacity: 0.8; stroke: #800080; stroke-opacity: 0.8"/>
    <path d="M 316.174254 242.874718 
C 316.655088 242.874718 317.116292 242.683681 317.456293 242.34368 
C 317.796294 242.003679 317.987331 241.542474 317.987331 241.061641 
C 317.987331 240.580807 317.796294 240.119602 317.456293 239.779601 
C 317.116292 239.4396 316.655088 239.248563 316.174254 239.248563 
C 315.69342 239.248563 315.232215 239.4396 314.892214 239.779601 
C 314.552214 240.119602 314.361176 240.580807 314.361176 241.061641 
C 314.361176 241.542474 314.552214 242.003679 314.892214 242.34368 
C 315.232215 242.683681 315.69342 242.874718 316.174254 242.874718 
z
" clip-path="url(#pec6dfe46bb)" style="fill: #800080; fill-opacity: 0.8; stroke: #800080; stroke-opacity: 0.8"/>
    <path d="M 323.349897 216.804815 
C 323.85226 216.804815 324.334115 216.605225 324.689339 216.25 
C 325.044563 215.894776 325.244154 215.412921 325.244154 214.910558 
C 325.244154 214.408195 325.044563 213.92634 324.689339 213.571116 
C 324.334115 213.215892 323.85226 213.016301 323.349897 213.016301 
C 322.847534 213.016301 322.365679 213.215892 322.010455 213.571116 
C 321.655231 213.92634 321.45564 214.408195 321.45564 214.910558 
C 321.45564 215.412921 321.655231 215.894776 322.010455 216.25 
C 322.365679 216.605225 322.847534 216.804815 323.349897 216.804815 
z
" clip-path="url(#pec6dfe46bb)" style="fill: #800080; fill-opacity: 0.8; stroke: #800080; stroke-opacity: 0.8"/>
    <path d="M 330.52554 214.24094 
C 331.054857 214.24094 331.562565 214.030641 331.936848 213.656358 
C 332.311131 213.282074 332.521431 212.774366 332.521431 212.24505 
C 332.521431 211.715733 332.311131 211.208025 331.936848 210.833742 
C 331.562565 210.459458 331.054857 210.249159 330.52554 210.249159 
C 329.996224 210.249159 329.488516 210.459458 329.114232 210.833742 
C 328.739949 211.208025 328.52965 211.715733 328.52965 212.24505 
C 328.52965 212.774366 328.739949 213.282074 329.114232 213.656358 
C 329.488516 214.030641 329.996224 214.24094 330.52554 214.24094 
z
" clip-path="url(#pec6dfe46bb)" style="fill: #800080; fill-opacity: 0.8; stroke: #800080; stroke-opacity: 0.8"/>
    <path d="M 337.701184 195.843505 
C 338.254278 195.843505 338.784793 195.623758 339.17589 195.232661 
C 339.566987 194.841564 339.786734 194.311049 339.786734 193.757954 
C 339.786734 193.20486 339.566987 192.674344 339.17589 192.283248 
C 338.784793 191.892151 338.254278 191.672404 337.701184 191.672404 
C 337.148089 191.672404 336.617574 191.892151 336.226477 192.283248 
C 335.83538 192.674344 335.615633 193.20486 335.615633 193.757954 
C 335.615633 194.311049 335.83538 194.841564 336.226477 195.232661 
C 336.617574 195.623758 337.148089 195.843505 337.701184 195.843505 
z
" clip-path="url(#pec6dfe46bb)" style="fill: #800080; fill-opacity: 0.8; stroke: #800080; stroke-opacity: 0.8"/>
    <path d="M 344.876827 195.9025 
C 345.44327 195.9025 345.98659 195.67745 346.387126 195.276914 
C 346.787663 194.876378 347.012713 194.333058 347.012713 193.766614 
C 347.012713 193.20017 346.787663 192.656851 346.387126 192.256314 
C 345.98659 191.855778 345.44327 191.630728 344.876827 191.630728 
C 344.310383 191.630728 343.767063 191.855778 343.366527 192.256314 
C 342.965991 192.656851 342.740941 193.20017 342.740941 193.766614 
C 342.740941 194.333058 342.965991 194.876378 343.366527 195.276914 
C 343.767063 195.67745 344.310383 195.9025 344.876827 195.9025 
z
" clip-path="url(#pec6dfe46bb)" style="fill: #800080; fill-opacity: 0.8; stroke: #800080; stroke-opacity: 0.8"/>
    <path d="M 352.05247 196.924505 
C 352.6534 196.924505 353.229798 196.685753 353.65472 196.260831 
C 354.079642 195.835909 354.318394 195.259511 354.318394 194.658581 
C 354.318394 194.057651 354.079642 193.481253 353.65472 193.056331 
C 353.229798 192.631409 352.6534 192.392657 352.05247 192.392657 
C 351.45154 192.392657 350.875142 192.631409 350.45022 193.056331 
C 350.025298 193.481253 349.786546 194.057651 349.786546 194.658581 
C 349.786546 195.259511 350.025298 195.835909 350.45022 196.260831 
C 350.875142 196.685753 351.45154 196.924505 352.05247 196.924505 
z
" clip-path="url(#pec6dfe46bb)" style="fill: #800080; fill-opacity: 0.8; stroke: #800080; stroke-opacity: 0.8"/>
    <path d="M 359.228113 191.767268 
C 359.845734 191.767268 360.438141 191.521885 360.874865 191.085161 
C 361.311588 190.648438 361.556971 190.05603 361.556971 189.43841 
C 361.556971 188.82079 361.311588 188.228382 360.874865 187.791659 
C 360.438141 187.354935 359.845734 187.109552 359.228113 187.109552 
C 358.610493 187.109552 358.018085 187.354935 357.581362 187.791659 
C 357.144638 188.228382 356.899255 188.82079 356.899255 189.43841 
C 356.899255 190.05603 357.144638 190.648438 357.581362 191.085161 
C 358.018085 191.521885 358.610493 191.767268 359.228113 191.767268 
z
" clip-path="url(#pec6dfe46bb)" style="fill: #800080; fill-opacity: 0.8; stroke: #800080; stroke-opacity: 0.8"/>
    <path d="M 366.403756 189.924234 
C 367.068631 189.924234 367.706363 189.660077 368.1765 189.189939 
C 368.646637 188.719802 368.910795 188.08207 368.910795 187.417196 
C 368.910795 186.752321 368.646637 186.114589 368.1765 185.644452 
C 367.706363 185.174315 367.068631 184.910158 366.403756 184.910158 
C 365.738882 184.910158 365.10115 185.174315 364.631013 185.644452 
C 364.160876 186.114589 363.896718 186.752321 363.896718 187.417196 
C 363.896718 188.08207 364.160876 188.719802 364.631013 189.189939 
C 365.10115 189.660077 365.738882 189.924234 366.403756 189.924234 
z
" clip-path="url(#pec6dfe46bb)" style="fill: #800080; fill-opacity: 0.8; stroke: #800080; stroke-opacity: 0.8"/>
    <path d="M 373.5794 175.004243 
C 374.29276 175.004243 374.976999 174.720822 375.481421 174.2164 
C 375.985843 173.711978 376.269264 173.027739 376.269264 172.314378 
C 376.269264 171.601018 375.985843 170.916779 375.481421 170.412357 
C 374.976999 169.907935 374.29276 169.624514 373.5794 169.624514 
C 372.866039 169.624514 372.1818 169.907935 371.677378 170.412357 
C 371.172956 170.916779 370.889535 171.601018 370.889535 172.314378 
C 370.889535 173.027739 371.172956 173.711978 371.677378 174.2164 
C 372.1818 174.720822 372.866039 175.004243 373.5794 175.004243 
z
" clip-path="url(#pec6dfe46bb)" style="fill: #800080; fill-opacity: 0.8; stroke: #800080; stroke-opacity: 0.8"/>
    <path d="M 380.755043 164.623199 
C 381.513526 164.623199 382.241046 164.32185 382.777374 163.785522 
C 383.313703 163.249193 383.615052 162.521673 383.615052 161.76319 
C 383.615052 161.004707 383.313703 160.277187 382.777374 159.740859 
C 382.241046 159.20453 381.513526 158.903181 380.755043 158.903181 
C 379.99656 158.903181 379.26904 159.20453 378.732711 159.740859 
C 378.196383 160.277187 377.895034 161.004707 377.895034 161.76319 
C 377.895034 162.521673 378.196383 163.249193 378.732711 163.785522 
C 379.26904 164.32185 379.99656 164.623199 380.755043 164.623199 
z
" clip-path="url(#pec6dfe46bb)" style="fill: #800080; fill-opacity: 0.8; stroke: #800080; stroke-opacity: 0.8"/>
    <path d="M 387.930686 147.412169 
C 388.708355 147.412169 389.454277 147.103198 390.004172 146.553303 
C 390.554067 146.003408 390.863038 145.257486 390.863038 144.479817 
C 390.863038 143.702148 390.554067 142.956226 390.004172 142.406331 
C 389.454277 141.856436 388.708355 141.547465 387.930686 141.547465 
C 387.153017 141.547465 386.407095 141.856436 385.8572 142.406331 
C 385.307305 142.956226 384.998334 143.702148 384.998334 144.479817 
C 384.998334 145.257486 385.307305 146.003408 385.8572 146.553303 
C 386.407095 147.103198 387.153017 147.412169 387.930686 147.412169 
z
" clip-path="url(#pec6dfe46bb)" style="fill: #800080; fill-opacity: 0.8; stroke: #800080; stroke-opacity: 0.8"/>
    <path d="M 395.106329 132.893905 
C 395.894336 132.893905 396.650174 132.580826 397.207379 132.023621 
C 397.764584 131.466416 398.077662 130.710578 398.077662 129.922572 
C 398.077662 129.134565 397.764584 128.378727 397.207379 127.821522 
C 396.650174 127.264317 395.894336 126.951239 395.106329 126.951239 
C 394.318323 126.951239 393.562484 127.264317 393.00528 127.821522 
C 392.448075 128.378727 392.134996 129.134565 392.134996 129.922572 
C 392.134996 130.710578 392.448075 131.466416 393.00528 132.023621 
C 393.562484 132.580826 394.318323 132.893905 395.106329 132.893905 
z
" clip-path="url(#pec6dfe46bb)" style="fill: #800080; fill-opacity: 0.8; stroke: #800080; stroke-opacity: 0.8"/>
    <path d="M 402.281973 118.739433 
C 403.077582 118.739433 403.840712 118.423334 404.403293 117.860753 
C 404.965874 117.298172 405.281973 116.535042 405.281973 115.739433 
C 405.281973 114.943823 404.965874 114.180693 404.403293 113.618112 
C 403.840712 113.055532 403.077582 112.739433 402.281973 112.739433 
C 401.486363 112.739433 400.723233 113.055532 400.160652 113.618112 
C 399.598071 114.180693 399.281973 114.943823 399.281973 115.739433 
C 399.281973 116.535042 399.598071 117.298172 400.160652 117.860753 
C 400.723233 118.423334 401.486363 118.739433 402.281973 118.739433 
z
" clip-path="url(#pec6dfe46bb)" style="fill: #800080; fill-opacity: 0.8; stroke: #800080; stroke-opacity: 0.8"/>
    <path d="M 409.457616 100.952168 
C 410.177926 100.952168 410.86883 100.665986 411.378166 100.15665 
C 411.887502 99.647314 412.173685 98.956409 412.173685 98.236099 
C 412.173685 97.515789 411.887502 96.824884 411.378166 96.315548 
C 410.86883 95.806212 410.177926 95.52003 409.457616 95.52003 
C 408.737306 95.52003 408.046401 95.806212 407.537065 96.315548 
C 407.027729 96.824884 406.741547 97.515789 406.741547 98.236099 
C 406.741547 98.956409 407.027729 99.647314 407.537065 100.15665 
C 408.046401 100.665986 408.737306 100.952168 409.457616 100.952168 
z
" clip-path="url(#pec6dfe46bb)" style="fill: #800080; fill-opacity: 0.8; stroke: #800080; stroke-opacity: 0.8"/>
    <path d="M 416.633259 89.833876 
C 417.349237 89.833876 418.035986 89.549415 418.542259 89.043142 
C 419.048531 88.53687 419.332992 87.85012 419.332992 87.134143 
C 419.332992 86.418165 419.048531 85.731416 418.542259 85.225143 
C 418.035986 84.71887 417.349237 84.434409 416.633259 84.434409 
C 415.917281 84.434409 415.230532 84.71887 414.724259 85.225143 
C 414.217987 85.731416 413.933526 86.418165 413.933526 87.134143 
C 413.933526 87.85012 414.217987 88.53687 414.724259 89.043142 
C 415.230532 89.549415 415.917281 89.833876 416.633259 89.833876 
z
" clip-path="url(#pec6dfe46bb)" style="fill: #800080; fill-opacity: 0.8; stroke: #800080; stroke-opacity: 0.8"/>
    <path d="M 423.808902 71.093497 
C 424.53809 71.093497 425.237511 70.803788 425.753124 70.288174 
C 426.268738 69.77256 426.558448 69.07314 426.558448 68.343952 
C 426.558448 67.614764 426.268738 66.915343 425.753124 66.39973 
C 425.237511 65.884116 424.53809 65.594406 423.808902 65.594406 
C 423.079714 65.594406 422.380294 65.884116 421.86468 66.39973 
C 421.349066 66.915343 421.059357 67.614764 421.059357 68.343952 
C 421.059357 69.07314 421.349066 69.77256 421.86468 70.288174 
C 422.380294 70.803788 423.079714 71.093497 423.808902 71.093497 
z
" clip-path="url(#pec6dfe46bb)" style="fill: #800080; fill-opacity: 0.8; stroke: #800080; stroke-opacity: 0.8"/>
    <path d="M 430.984545 41.360421 
C 431.669107 41.360421 432.325723 41.088441 432.809781 40.604383 
C 433.293839 40.120325 433.565818 39.463709 433.565818 38.779148 
C 433.565818 38.094586 433.293839 37.43797 432.809781 36.953912 
C 432.325723 36.469854 431.669107 36.197875 430.984545 36.197875 
C 430.299984 36.197875 429.643368 36.469854 429.15931 36.953912 
C 428.675252 37.43797 428.403273 38.094586 428.403273 38.779148 
C 428.403273 39.463709 428.675252 40.120325 429.15931 40.604383 
C 429.643368 41.088441 430.299984 41.360421 430.984545 41.360421 
z
" clip-path="url(#pec6dfe46bb)" style="fill: #800080; fill-opacity: 0.8; stroke: #800080; stroke-opacity: 0.8"/>
   </g>
   <g id="PolyCollection_1">
    <defs>
     <path id="mfd05b23c05" d="M 50.675455 -84.059846 
L 50.675455 -41.162898 
L 54.516961 -42.89961 
L 58.358466 -44.638604 
L 62.199972 -46.377598 
L 66.041478 -48.116592 
L 69.882984 -49.855586 
L 73.72449 -51.59458 
L 77.565996 -53.333574 
L 81.407502 -55.072568 
L 85.249008 -56.846648 
L 89.090514 -58.642015 
L 92.93202 -60.437381 
L 96.773526 -62.232748 
L 100.615032 -63.89731 
L 104.456538 -65.496763 
L 108.298044 -67.229342 
L 112.13955 -68.735334 
L 115.981056 -70.431978 
L 119.822562 -72.019212 
L 123.664068 -73.607954 
L 127.505574 -75.202027 
L 131.34708 -76.796099 
L 135.188586 -78.419084 
L 139.030092 -80.00147 
L 142.871598 -81.568327 
L 146.713104 -83.13201 
L 150.55461 -84.674049 
L 154.396116 -86.339808 
L 158.237622 -88.110295 
L 162.079128 -89.520012 
L 165.920634 -91.155231 
L 169.76214 -92.701283 
L 173.603646 -94.28788 
L 177.445152 -95.861755 
L 181.286657 -97.356458 
L 185.128163 -98.774686 
L 188.969669 -100.423508 
L 192.811175 -101.837622 
L 196.652681 -103.233933 
L 200.494187 -104.512002 
L 204.335693 -106.137071 
L 208.177199 -107.254447 
L 212.018705 -108.701941 
L 215.860211 -109.987701 
L 219.701717 -111.486643 
L 223.543223 -112.540387 
L 227.384729 -113.575841 
L 231.226235 -114.669839 
L 235.067741 -115.822247 
L 238.909247 -117.145157 
L 242.750753 -118.231146 
L 246.592259 -119.251202 
L 250.433765 -120.24622 
L 254.275271 -121.08779 
L 258.116777 -121.855906 
L 261.958283 -122.722888 
L 265.799789 -123.573403 
L 269.641295 -124.488242 
L 273.482801 -125.30744 
L 277.324307 -126.133321 
L 281.165813 -127.04259 
L 285.007319 -127.973455 
L 288.848825 -128.831657 
L 292.690331 -129.68986 
L 296.531837 -130.548063 
L 300.373343 -131.282074 
L 304.214848 -132.114503 
L 308.056354 -133.099419 
L 311.89786 -133.980875 
L 315.739366 -134.839078 
L 319.580872 -135.661848 
L 323.422378 -136.42161 
L 327.263884 -137.133027 
L 331.10539 -137.812567 
L 334.946896 -138.696965 
L 338.788402 -139.460659 
L 342.629908 -140.220422 
L 346.471414 -141.022795 
L 350.31292 -141.84824 
L 354.154426 -142.673685 
L 357.995932 -143.447387 
L 361.837438 -144.202983 
L 365.678944 -145.146043 
L 369.52045 -145.919936 
L 373.361956 -146.693828 
L 377.203462 -147.46772 
L 381.044968 -148.241612 
L 384.886474 -149.015504 
L 388.72798 -149.789397 
L 392.569486 -150.563289 
L 396.410992 -151.337181 
L 400.252498 -152.111073 
L 404.094004 -152.881928 
L 407.93551 -153.652041 
L 411.777016 -154.422155 
L 415.618522 -155.192268 
L 419.460028 -155.962381 
L 423.301534 -156.722417 
L 427.143039 -157.463136 
L 430.984545 -158.203854 
L 430.984545 -218.787048 
L 430.984545 -218.787048 
L 427.143039 -217.126371 
L 423.301534 -215.519403 
L 419.460028 -213.870607 
L 415.618522 -212.196217 
L 411.777016 -210.552791 
L 407.93551 -208.892319 
L 404.094004 -207.214233 
L 400.252498 -205.499063 
L 396.410992 -203.649444 
L 392.569486 -201.931556 
L 388.72798 -200.225947 
L 384.886474 -198.655852 
L 381.044968 -197.14084 
L 377.203462 -195.46446 
L 373.361956 -193.783298 
L 369.52045 -192.112487 
L 365.678944 -190.429775 
L 361.837438 -188.755278 
L 357.995932 -187.073885 
L 354.154426 -185.389157 
L 350.31292 -183.708115 
L 346.471414 -182.035313 
L 342.629908 -180.401657 
L 338.788402 -178.72351 
L 334.946896 -177.003185 
L 331.10539 -175.31268 
L 327.263884 -173.813671 
L 323.422378 -172.312509 
L 319.580872 -170.797852 
L 315.739366 -169.211211 
L 311.89786 -167.536554 
L 308.056354 -165.872707 
L 304.214848 -164.371249 
L 300.373343 -162.792618 
L 296.531837 -161.130567 
L 292.690331 -159.500483 
L 288.848825 -157.97126 
L 285.007319 -156.354668 
L 281.165813 -154.719586 
L 277.324307 -153.080943 
L 273.482801 -151.523073 
L 269.641295 -150.03681 
L 265.799789 -148.751146 
L 261.958283 -147.130009 
L 258.116777 -145.719891 
L 254.275271 -144.339271 
L 250.433765 -142.954176 
L 246.592259 -141.434146 
L 242.750753 -139.810271 
L 238.909247 -138.224815 
L 235.067741 -136.760474 
L 231.226235 -135.629418 
L 227.384729 -134.25801 
L 223.543223 -132.901366 
L 219.701717 -131.486286 
L 215.860211 -130.228133 
L 212.018705 -128.969981 
L 208.177199 -127.584666 
L 204.335693 -126.151333 
L 200.494187 -124.827807 
L 196.652681 -123.546869 
L 192.811175 -122.267166 
L 188.969669 -120.895524 
L 185.128163 -119.47866 
L 181.286657 -118.408207 
L 177.445152 -117.186319 
L 173.603646 -116.07075 
L 169.76214 -114.827195 
L 165.920634 -113.552812 
L 162.079128 -112.266898 
L 158.237622 -111.08389 
L 154.396116 -110.078709 
L 150.55461 -108.85306 
L 146.713104 -107.580811 
L 142.871598 -106.399305 
L 139.030092 -105.308271 
L 135.188586 -104.243134 
L 131.34708 -103.144791 
L 127.505574 -102.008444 
L 123.664068 -101.112559 
L 119.822562 -100.057559 
L 115.981056 -99.065663 
L 112.13955 -98.073035 
L 108.298044 -97.105483 
L 104.456538 -96.229069 
L 100.615032 -95.350985 
L 96.773526 -94.492772 
L 92.93202 -93.546824 
L 89.090514 -92.798373 
L 85.249008 -91.851313 
L 81.407502 -90.886681 
L 77.565996 -90.084367 
L 73.72449 -89.16067 
L 69.882984 -88.429786 
L 66.041478 -87.492872 
L 62.199972 -86.626748 
L 58.358466 -85.809641 
L 54.516961 -84.933822 
L 50.675455 -84.059846 
z
" style="stroke: #ffffff; stroke-opacity: 0.15"/>
    </defs>
    <g clip-path="url(#pec6dfe46bb)">
     <use xlink:href="#mfd05b23c05" x="0" y="345.6" style="fill: #800080; fill-opacity: 0.15; stroke: #ffffff; stroke-opacity: 0.15"/>
    </g>
   </g>
   <g id="line2d_1">
    <path d="M 50.675455 279.80496 
L 54.516961 278.539583 
L 58.358466 277.274206 
L 62.199972 276.008829 
L 66.041478 274.743452 
L 69.882984 273.478075 
L 73.72449 272.212698 
L 77.565996 270.947321 
L 81.407502 269.681944 
L 85.249008 268.416567 
L 89.090514 267.15119 
L 92.93202 265.885812 
L 96.773526 264.620435 
L 100.615032 263.355058 
L 104.456538 262.089681 
L 108.298044 260.824304 
L 112.13955 259.558927 
L 115.981056 258.29355 
L 119.822562 257.028173 
L 123.664068 255.762796 
L 127.505574 254.497419 
L 131.34708 253.232042 
L 135.188586 251.966665 
L 139.030092 250.701288 
L 142.871598 249.435911 
L 146.713104 248.170534 
L 150.55461 246.905157 
L 154.396116 245.63978 
L 158.237622 244.374403 
L 162.079128 243.109026 
L 165.920634 241.843649 
L 169.76214 240.578272 
L 173.603646 239.312895 
L 177.445152 238.047518 
L 181.286657 236.782141 
L 185.128163 235.516764 
L 188.969669 234.251386 
L 192.811175 232.986009 
L 196.652681 231.720632 
L 200.494187 230.455255 
L 204.335693 229.189878 
L 208.177199 227.924501 
L 212.018705 226.659124 
L 215.860211 225.393747 
L 219.701717 224.12837 
L 223.543223 222.862993 
L 227.384729 221.597616 
L 231.226235 220.332239 
L 235.067741 219.066862 
L 238.909247 217.801485 
L 242.750753 216.536108 
L 246.592259 215.270731 
L 250.433765 214.005354 
L 254.275271 212.739977 
L 258.116777 211.4746 
L 261.958283 210.209223 
L 265.799789 208.943846 
L 269.641295 207.678469 
L 273.482801 206.413092 
L 277.324307 205.147715 
L 281.165813 203.882338 
L 285.007319 202.61696 
L 288.848825 201.351583 
L 292.690331 200.086206 
L 296.531837 198.820829 
L 300.373343 197.555452 
L 304.214848 196.290075 
L 308.056354 195.024698 
L 311.89786 193.759321 
L 315.739366 192.493944 
L 319.580872 191.228567 
L 323.422378 189.96319 
L 327.263884 188.697813 
L 331.10539 187.432436 
L 334.946896 186.167059 
L 338.788402 184.901682 
L 342.629908 183.636305 
L 346.471414 182.370928 
L 350.31292 181.105551 
L 354.154426 179.840174 
L 357.995932 178.574797 
L 361.837438 177.30942 
L 365.678944 176.044043 
L 369.52045 174.778666 
L 373.361956 173.513289 
L 377.203462 172.247911 
L 381.044968 170.982534 
L 384.886474 169.717157 
L 388.72798 168.45178 
L 392.569486 167.186403 
L 396.410992 165.921026 
L 400.252498 164.655649 
L 404.094004 163.390272 
L 407.93551 162.124895 
L 411.777016 160.859518 
L 415.618522 159.594141 
L 419.460028 158.328764 
L 423.301534 157.063387 
L 427.143039 155.79801 
L 430.984545 154.532633 
" clip-path="url(#pec6dfe46bb)" style="fill: none; stroke: #800080; stroke-width: 2.25; stroke-linecap: round"/>
   </g>
   <g id="patch_3">
    <path d="M 31.66 317.72 
L 31.66 25.49625 
" style="fill: none; stroke: #ffffff; stroke-width: 0.8; stroke-linejoin: miter; stroke-linecap: square"/>
   </g>
   <g id="patch_4">
    <path d="M 450 317.72 
L 450 25.49625 
" style="fill: none; stroke: #ffffff; stroke-width: 0.8; stroke-linejoin: miter; stroke-linecap: square"/>
   </g>
   <g id="patch_5">
    <path d="M 31.66 317.72 
L 450 317.72 
" style="fill: none; stroke: #ffffff; stroke-width: 0.8; stroke-linejoin: miter; stroke-linecap: square"/>
   </g>
   <g id="patch_6">
    <path d="M 31.66 25.49625 
L 450 25.49625 
" style="fill: none; stroke: #ffffff; stroke-width: 0.8; stroke-linejoin: miter; stroke-linecap: square"/>
   </g>
   <g id="text_15">
    <!-- Yearly average ratings from ranked games -->
    <g style="fill: #262626" transform="translate(127.998125 19.49625) scale(0.12 -0.12)">
     <defs>
      <path id="ArialMT-59" d="M 1784 0 
L 1784 1941 
L 19 4581 
L 756 4581 
L 1659 3200 
Q 1909 2813 2125 2425 
Q 2331 2784 2625 3234 
L 3513 4581 
L 4219 4581 
L 2391 1941 
L 2391 0 
L 1784 0 
z
" transform="scale(0.015625)"/>
      <path id="ArialMT-65" d="M 2694 1069 
L 3275 997 
Q 3138 488 2766 206 
Q 2394 -75 1816 -75 
Q 1088 -75 661 373 
Q 234 822 234 1631 
Q 234 2469 665 2931 
Q 1097 3394 1784 3394 
Q 2450 3394 2872 2941 
Q 3294 2488 3294 1666 
Q 3294 1616 3291 1516 
L 816 1516 
Q 847 969 1125 678 
Q 1403 388 1819 388 
Q 2128 388 2347 550 
Q 2566 713 2694 1069 
z
M 847 1978 
L 2700 1978 
Q 2663 2397 2488 2606 
Q 2219 2931 1791 2931 
Q 1403 2931 1139 2672 
Q 875 2413 847 1978 
z
" transform="scale(0.015625)"/>
      <path id="ArialMT-61" d="M 2588 409 
Q 2275 144 1986 34 
Q 1697 -75 1366 -75 
Q 819 -75 525 192 
Q 231 459 231 875 
Q 231 1119 342 1320 
Q 453 1522 633 1644 
Q 813 1766 1038 1828 
Q 1203 1872 1538 1913 
Q 2219 1994 2541 2106 
Q 2544 2222 2544 2253 
Q 2544 2597 2384 2738 
Q 2169 2928 1744 2928 
Q 1347 2928 1158 2789 
Q 969 2650 878 2297 
L 328 2372 
Q 403 2725 575 2942 
Q 747 3159 1072 3276 
Q 1397 3394 1825 3394 
Q 2250 3394 2515 3294 
Q 2781 3194 2906 3042 
Q 3031 2891 3081 2659 
Q 3109 2516 3109 2141 
L 3109 1391 
Q 3109 606 3145 398 
Q 3181 191 3288 0 
L 2700 0 
Q 2613 175 2588 409 
z
M 2541 1666 
Q 2234 1541 1622 1453 
Q 1275 1403 1131 1340 
Q 988 1278 909 1158 
Q 831 1038 831 891 
Q 831 666 1001 516 
Q 1172 366 1500 366 
Q 1825 366 2078 508 
Q 2331 650 2450 897 
Q 2541 1088 2541 1459 
L 2541 1666 
z
" transform="scale(0.015625)"/>
      <path id="ArialMT-72" d="M 416 0 
L 416 3319 
L 922 3319 
L 922 2816 
Q 1116 3169 1280 3281 
Q 1444 3394 1641 3394 
Q 1925 3394 2219 3213 
L 2025 2691 
Q 1819 2813 1613 2813 
Q 1428 2813 1281 2702 
Q 1134 2591 1072 2394 
Q 978 2094 978 1738 
L 978 0 
L 416 0 
z
" transform="scale(0.015625)"/>
      <path id="ArialMT-6c" d="M 409 0 
L 409 4581 
L 972 4581 
L 972 0 
L 409 0 
z
" transform="scale(0.015625)"/>
      <path id="ArialMT-79" d="M 397 -1278 
L 334 -750 
Q 519 -800 656 -800 
Q 844 -800 956 -737 
Q 1069 -675 1141 -563 
Q 1194 -478 1313 -144 
Q 1328 -97 1363 -6 
L 103 3319 
L 709 3319 
L 1400 1397 
Q 1534 1031 1641 628 
Q 1738 1016 1872 1384 
L 2581 3319 
L 3144 3319 
L 1881 -56 
Q 1678 -603 1566 -809 
Q 1416 -1088 1222 -1217 
Q 1028 -1347 759 -1347 
Q 597 -1347 397 -1278 
z
" transform="scale(0.015625)"/>
      <path id="ArialMT-20" transform="scale(0.015625)"/>
      <path id="ArialMT-76" d="M 1344 0 
L 81 3319 
L 675 3319 
L 1388 1331 
Q 1503 1009 1600 663 
Q 1675 925 1809 1294 
L 2547 3319 
L 3125 3319 
L 1869 0 
L 1344 0 
z
" transform="scale(0.015625)"/>
      <path id="ArialMT-67" d="M 319 -275 
L 866 -356 
Q 900 -609 1056 -725 
Q 1266 -881 1628 -881 
Q 2019 -881 2231 -725 
Q 2444 -569 2519 -288 
Q 2563 -116 2559 434 
Q 2191 0 1641 0 
Q 956 0 581 494 
Q 206 988 206 1678 
Q 206 2153 378 2554 
Q 550 2956 876 3175 
Q 1203 3394 1644 3394 
Q 2231 3394 2613 2919 
L 2613 3319 
L 3131 3319 
L 3131 450 
Q 3131 -325 2973 -648 
Q 2816 -972 2473 -1159 
Q 2131 -1347 1631 -1347 
Q 1038 -1347 672 -1080 
Q 306 -813 319 -275 
z
M 784 1719 
Q 784 1066 1043 766 
Q 1303 466 1694 466 
Q 2081 466 2343 764 
Q 2606 1063 2606 1700 
Q 2606 2309 2336 2618 
Q 2066 2928 1684 2928 
Q 1309 2928 1046 2623 
Q 784 2319 784 1719 
z
" transform="scale(0.015625)"/>
      <path id="ArialMT-74" d="M 1650 503 
L 1731 6 
Q 1494 -44 1306 -44 
Q 1000 -44 831 53 
Q 663 150 594 308 
Q 525 466 525 972 
L 525 2881 
L 113 2881 
L 113 3319 
L 525 3319 
L 525 4141 
L 1084 4478 
L 1084 3319 
L 1650 3319 
L 1650 2881 
L 1084 2881 
L 1084 941 
Q 1084 700 1114 631 
Q 1144 563 1211 522 
Q 1278 481 1403 481 
Q 1497 481 1650 503 
z
" transform="scale(0.015625)"/>
      <path id="ArialMT-69" d="M 425 3934 
L 425 4581 
L 988 4581 
L 988 3934 
L 425 3934 
z
M 425 0 
L 425 3319 
L 988 3319 
L 988 0 
L 425 0 
z
" transform="scale(0.015625)"/>
      <path id="ArialMT-6e" d="M 422 0 
L 422 3319 
L 928 3319 
L 928 2847 
Q 1294 3394 1984 3394 
Q 2284 3394 2536 3286 
Q 2788 3178 2913 3003 
Q 3038 2828 3088 2588 
Q 3119 2431 3119 2041 
L 3119 0 
L 2556 0 
L 2556 2019 
Q 2556 2363 2490 2533 
Q 2425 2703 2258 2804 
Q 2091 2906 1866 2906 
Q 1506 2906 1245 2678 
Q 984 2450 984 1813 
L 984 0 
L 422 0 
z
" transform="scale(0.015625)"/>
      <path id="ArialMT-73" d="M 197 991 
L 753 1078 
Q 800 744 1014 566 
Q 1228 388 1613 388 
Q 2000 388 2187 545 
Q 2375 703 2375 916 
Q 2375 1106 2209 1216 
Q 2094 1291 1634 1406 
Q 1016 1563 777 1677 
Q 538 1791 414 1992 
Q 291 2194 291 2438 
Q 291 2659 392 2848 
Q 494 3038 669 3163 
Q 800 3259 1026 3326 
Q 1253 3394 1513 3394 
Q 1903 3394 2198 3281 
Q 2494 3169 2634 2976 
Q 2775 2784 2828 2463 
L 2278 2388 
Q 2241 2644 2061 2787 
Q 1881 2931 1553 2931 
Q 1166 2931 1000 2803 
Q 834 2675 834 2503 
Q 834 2394 903 2306 
Q 972 2216 1119 2156 
Q 1203 2125 1616 2013 
Q 2213 1853 2448 1751 
Q 2684 1650 2818 1456 
Q 2953 1263 2953 975 
Q 2953 694 2789 445 
Q 2625 197 2315 61 
Q 2006 -75 1616 -75 
Q 969 -75 630 194 
Q 291 463 197 991 
z
" transform="scale(0.015625)"/>
      <path id="ArialMT-66" d="M 556 0 
L 556 2881 
L 59 2881 
L 59 3319 
L 556 3319 
L 556 3672 
Q 556 4006 616 4169 
Q 697 4388 901 4523 
Q 1106 4659 1475 4659 
Q 1713 4659 2000 4603 
L 1916 4113 
Q 1741 4144 1584 4144 
Q 1328 4144 1222 4034 
Q 1116 3925 1116 3625 
L 1116 3319 
L 1763 3319 
L 1763 2881 
L 1116 2881 
L 1116 0 
L 556 0 
z
" transform="scale(0.015625)"/>
      <path id="ArialMT-6f" d="M 213 1659 
Q 213 2581 725 3025 
Q 1153 3394 1769 3394 
Q 2453 3394 2887 2945 
Q 3322 2497 3322 1706 
Q 3322 1066 3130 698 
Q 2938 331 2570 128 
Q 2203 -75 1769 -75 
Q 1072 -75 642 372 
Q 213 819 213 1659 
z
M 791 1659 
Q 791 1022 1069 705 
Q 1347 388 1769 388 
Q 2188 388 2466 706 
Q 2744 1025 2744 1678 
Q 2744 2294 2464 2611 
Q 2184 2928 1769 2928 
Q 1347 2928 1069 2612 
Q 791 2297 791 1659 
z
" transform="scale(0.015625)"/>
      <path id="ArialMT-6d" d="M 422 0 
L 422 3319 
L 925 3319 
L 925 2853 
Q 1081 3097 1340 3245 
Q 1600 3394 1931 3394 
Q 2300 3394 2536 3241 
Q 2772 3088 2869 2813 
Q 3263 3394 3894 3394 
Q 4388 3394 4653 3120 
Q 4919 2847 4919 2278 
L 4919 0 
L 4359 0 
L 4359 2091 
Q 4359 2428 4304 2576 
Q 4250 2725 4106 2815 
Q 3963 2906 3769 2906 
Q 3419 2906 3187 2673 
Q 2956 2441 2956 1928 
L 2956 0 
L 2394 0 
L 2394 2156 
Q 2394 2531 2256 2718 
Q 2119 2906 1806 2906 
Q 1569 2906 1367 2781 
Q 1166 2656 1075 2415 
Q 984 2175 984 1722 
L 984 0 
L 422 0 
z
" transform="scale(0.015625)"/>
      <path id="ArialMT-6b" d="M 425 0 
L 425 4581 
L 988 4581 
L 988 1969 
L 2319 3319 
L 3047 3319 
L 1778 2088 
L 3175 0 
L 2481 0 
L 1384 1697 
L 988 1316 
L 988 0 
L 425 0 
z
" transform="scale(0.015625)"/>
      <path id="ArialMT-64" d="M 2575 0 
L 2575 419 
Q 2259 -75 1647 -75 
Q 1250 -75 917 144 
Q 584 363 401 755 
Q 219 1147 219 1656 
Q 219 2153 384 2558 
Q 550 2963 881 3178 
Q 1213 3394 1622 3394 
Q 1922 3394 2156 3267 
Q 2391 3141 2538 2938 
L 2538 4581 
L 3097 4581 
L 3097 0 
L 2575 0 
z
M 797 1656 
Q 797 1019 1065 703 
Q 1334 388 1700 388 
Q 2069 388 2326 689 
Q 2584 991 2584 1609 
Q 2584 2291 2321 2609 
Q 2059 2928 1675 2928 
Q 1300 2928 1048 2622 
Q 797 2316 797 1656 
z
" transform="scale(0.015625)"/>
     </defs>
     <use xlink:href="#ArialMT-59"/>
     <use xlink:href="#ArialMT-65" x="57.574219"/>
     <use xlink:href="#ArialMT-61" x="113.189453"/>
     <use xlink:href="#ArialMT-72" x="168.804688"/>
     <use xlink:href="#ArialMT-6c" x="202.105469"/>
     <use xlink:href="#ArialMT-79" x="224.322266"/>
     <use xlink:href="#ArialMT-20" x="274.322266"/>
     <use xlink:href="#ArialMT-61" x="302.105469"/>
     <use xlink:href="#ArialMT-76" x="357.720703"/>
     <use xlink:href="#ArialMT-65" x="407.720703"/>
     <use xlink:href="#ArialMT-72" x="463.335938"/>
     <use xlink:href="#ArialMT-61" x="496.636719"/>
     <use xlink:href="#ArialMT-67" x="552.251953"/>
     <use xlink:href="#ArialMT-65" x="607.867188"/>
     <use xlink:href="#ArialMT-20" x="663.482422"/>
     <use xlink:href="#ArialMT-72" x="691.265625"/>
     <use xlink:href="#ArialMT-61" x="724.566406"/>
     <use xlink:href="#ArialMT-74" x="780.181641"/>
     <use xlink:href="#ArialMT-69" x="807.964844"/>
     <use xlink:href="#ArialMT-6e" x="830.181641"/>
     <use xlink:href="#ArialMT-67" x="885.796875"/>
     <use xlink:href="#ArialMT-73" x="941.412109"/>
     <use xlink:href="#ArialMT-20" x="991.412109"/>
     <use xlink:href="#ArialMT-66" x="1019.195312"/>
     <use xlink:href="#ArialMT-72" x="1046.978516"/>
     <use xlink:href="#ArialMT-6f" x="1080.279297"/>
     <use xlink:href="#ArialMT-6d" x="1135.894531"/>
     <use xlink:href="#ArialMT-20" x="1219.195312"/>
     <use xlink:href="#ArialMT-72" x="1246.978516"/>
     <use xlink:href="#ArialMT-61" x="1280.279297"/>
     <use xlink:href="#ArialMT-6e" x="1335.894531"/>
     <use xlink:href="#ArialMT-6b" x="1391.509766"/>
     <use xlink:href="#ArialMT-65" x="1441.509766"/>
     <use xlink:href="#ArialMT-64" x="1497.125"/>
     <use xlink:href="#ArialMT-20" x="1552.740234"/>
     <use xlink:href="#ArialMT-67" x="1580.523438"/>
     <use xlink:href="#ArialMT-61" x="1636.138672"/>
     <use xlink:href="#ArialMT-6d" x="1691.753906"/>
     <use xlink:href="#ArialMT-65" x="1775.054688"/>
     <use xlink:href="#ArialMT-73" x="1830.669922"/>
    </g>
   </g>
  </g>
 </g>
 <defs>
  <clipPath id="pec6dfe46bb">
   <rect x="31.66" y="25.49625" width="418.34" height="292.22375"/>
  </clipPath>
 </defs>
</svg>
