<?xml version="1.0" encoding="utf-8" standalone="no"?>
<!DOCTYPE svg PUBLIC "-//W3C//DTD SVG 1.1//EN"
  "http://www.w3.org/Graphics/SVG/1.1/DTD/svg11.dtd">
<svg xmlns:xlink="http://www.w3.org/1999/xlink" width="460.8pt" height="345.6pt" viewBox="0 0 460.8 345.6" xmlns="http://www.w3.org/2000/svg" version="1.1">
 <metadata>
  <rdf:RDF xmlns:dc="http://purl.org/dc/elements/1.1/" xmlns:cc="http://creativecommons.org/ns#" xmlns:rdf="http://www.w3.org/1999/02/22-rdf-syntax-ns#">
   <cc:Work>
    <dc:type rdf:resource="http://purl.org/dc/dcmitype/StillImage"/>
    <dc:date>2024-08-19T15:44:52.808973</dc:date>
    <dc:format>image/svg+xml</dc:format>
    <dc:creator>
     <cc:Agent>
      <dc:title>Matplotlib v3.9.2, https://matplotlib.org/</dc:title>
     </cc:Agent>
    </dc:creator>
   </cc:Work>
  </rdf:RDF>
 </metadata>
 <defs>
  <style type="text/css">*{stroke-linejoin: round; stroke-linecap: butt}</style>
 </defs>
 <g id="figure_1">
  <g id="patch_1">
   <path d="M 0 345.6 
L 460.8 345.6 
L 460.8 0 
L 0 0 
z
" style="fill: #ffffff"/>
  </g>
  <g id="axes_1">
   <g id="patch_2">
    <path d="M 31.66 317.72 
L 450 317.72 
L 450 25.49625 
L 31.66 25.49625 
z
" style="fill: #eaeaf2"/>
   </g>
   <g id="matplotlib.axis_1">
    <g id="xtick_1">
     <g id="text_1">
      <!-- 1970 -->
      <g style="fill: #262626" transform="translate(39.55358 331.877812) scale(0.1 -0.1)">
       <defs>
        <path id="ArialMT-31" d="M 2384 0 
L 1822 0 
L 1822 3584 
Q 1619 3391 1289 3197 
Q 959 3003 697 2906 
L 697 3450 
Q 1169 3672 1522 3987 
Q 1875 4303 2022 4600 
L 2384 4600 
L 2384 0 
z
" transform="scale(0.015625)"/>
        <path id="ArialMT-39" d="M 350 1059 
L 891 1109 
Q 959 728 1153 556 
Q 1347 384 1650 384 
Q 1909 384 2104 503 
Q 2300 622 2425 820 
Q 2550 1019 2634 1356 
Q 2719 1694 2719 2044 
Q 2719 2081 2716 2156 
Q 2547 1888 2255 1720 
Q 1963 1553 1622 1553 
Q 1053 1553 659 1965 
Q 266 2378 266 3053 
Q 266 3750 677 4175 
Q 1088 4600 1706 4600 
Q 2153 4600 2523 4359 
Q 2894 4119 3086 3673 
Q 3278 3228 3278 2384 
Q 3278 1506 3087 986 
Q 2897 466 2520 194 
Q 2144 -78 1638 -78 
Q 1100 -78 759 220 
Q 419 519 350 1059 
z
M 2653 3081 
Q 2653 3566 2395 3850 
Q 2138 4134 1775 4134 
Q 1400 4134 1122 3828 
Q 844 3522 844 3034 
Q 844 2597 1108 2323 
Q 1372 2050 1759 2050 
Q 2150 2050 2401 2323 
Q 2653 2597 2653 3081 
z
" transform="scale(0.015625)"/>
        <path id="ArialMT-37" d="M 303 3981 
L 303 4522 
L 3269 4522 
L 3269 4084 
Q 2831 3619 2401 2847 
Q 1972 2075 1738 1259 
Q 1569 684 1522 0 
L 944 0 
Q 953 541 1156 1306 
Q 1359 2072 1739 2783 
Q 2119 3494 2547 3981 
L 303 3981 
z
" transform="scale(0.015625)"/>
        <path id="ArialMT-30" d="M 266 2259 
Q 266 3072 433 3567 
Q 600 4063 929 4331 
Q 1259 4600 1759 4600 
Q 2128 4600 2406 4451 
Q 2684 4303 2865 4023 
Q 3047 3744 3150 3342 
Q 3253 2941 3253 2259 
Q 3253 1453 3087 958 
Q 2922 463 2592 192 
Q 2263 -78 1759 -78 
Q 1097 -78 719 397 
Q 266 969 266 2259 
z
M 844 2259 
Q 844 1131 1108 757 
Q 1372 384 1759 384 
Q 2147 384 2411 759 
Q 2675 1134 2675 2259 
Q 2675 3391 2411 3762 
Q 2147 4134 1753 4134 
Q 1366 4134 1134 3806 
Q 844 3388 844 2259 
z
" transform="scale(0.015625)"/>
       </defs>
       <use xlink:href="#ArialMT-31"/>
       <use xlink:href="#ArialMT-39" x="55.615234"/>
       <use xlink:href="#ArialMT-37" x="111.230469"/>
       <use xlink:href="#ArialMT-30" x="166.845703"/>
      </g>
     </g>
    </g>
    <g id="xtick_2">
     <g id="text_2">
      <!-- 1980 -->
      <g style="fill: #262626" transform="translate(111.310012 331.877812) scale(0.1 -0.1)">
       <defs>
        <path id="ArialMT-38" d="M 1131 2484 
Q 781 2613 612 2850 
Q 444 3088 444 3419 
Q 444 3919 803 4259 
Q 1163 4600 1759 4600 
Q 2359 4600 2725 4251 
Q 3091 3903 3091 3403 
Q 3091 3084 2923 2848 
Q 2756 2613 2416 2484 
Q 2838 2347 3058 2040 
Q 3278 1734 3278 1309 
Q 3278 722 2862 322 
Q 2447 -78 1769 -78 
Q 1091 -78 675 323 
Q 259 725 259 1325 
Q 259 1772 486 2073 
Q 713 2375 1131 2484 
z
M 1019 3438 
Q 1019 3113 1228 2906 
Q 1438 2700 1772 2700 
Q 2097 2700 2305 2904 
Q 2513 3109 2513 3406 
Q 2513 3716 2298 3927 
Q 2084 4138 1766 4138 
Q 1444 4138 1231 3931 
Q 1019 3725 1019 3438 
z
M 838 1322 
Q 838 1081 952 856 
Q 1066 631 1291 507 
Q 1516 384 1775 384 
Q 2178 384 2440 643 
Q 2703 903 2703 1303 
Q 2703 1709 2433 1975 
Q 2163 2241 1756 2241 
Q 1359 2241 1098 1978 
Q 838 1716 838 1322 
z
" transform="scale(0.015625)"/>
       </defs>
       <use xlink:href="#ArialMT-31"/>
       <use xlink:href="#ArialMT-39" x="55.615234"/>
       <use xlink:href="#ArialMT-38" x="111.230469"/>
       <use xlink:href="#ArialMT-30" x="166.845703"/>
      </g>
     </g>
    </g>
    <g id="xtick_3">
     <g id="text_3">
      <!-- 1990 -->
      <g style="fill: #262626" transform="translate(183.066444 331.877812) scale(0.1 -0.1)">
       <use xlink:href="#ArialMT-31"/>
       <use xlink:href="#ArialMT-39" x="55.615234"/>
       <use xlink:href="#ArialMT-39" x="111.230469"/>
       <use xlink:href="#ArialMT-30" x="166.845703"/>
      </g>
     </g>
    </g>
    <g id="xtick_4">
     <g id="text_4">
      <!-- 2000 -->
      <g style="fill: #262626" transform="translate(254.822876 331.877812) scale(0.1 -0.1)">
       <defs>
        <path id="ArialMT-32" d="M 3222 541 
L 3222 0 
L 194 0 
Q 188 203 259 391 
Q 375 700 629 1000 
Q 884 1300 1366 1694 
Q 2113 2306 2375 2664 
Q 2638 3022 2638 3341 
Q 2638 3675 2398 3904 
Q 2159 4134 1775 4134 
Q 1369 4134 1125 3890 
Q 881 3647 878 3216 
L 300 3275 
Q 359 3922 746 4261 
Q 1134 4600 1788 4600 
Q 2447 4600 2831 4234 
Q 3216 3869 3216 3328 
Q 3216 3053 3103 2787 
Q 2991 2522 2730 2228 
Q 2469 1934 1863 1422 
Q 1356 997 1212 845 
Q 1069 694 975 541 
L 3222 541 
z
" transform="scale(0.015625)"/>
       </defs>
       <use xlink:href="#ArialMT-32"/>
       <use xlink:href="#ArialMT-30" x="55.615234"/>
       <use xlink:href="#ArialMT-30" x="111.230469"/>
       <use xlink:href="#ArialMT-30" x="166.845703"/>
      </g>
     </g>
    </g>
    <g id="xtick_5">
     <g id="text_5">
      <!-- 2010 -->
      <g style="fill: #262626" transform="translate(326.579309 331.877812) scale(0.1 -0.1)">
       <use xlink:href="#ArialMT-32"/>
       <use xlink:href="#ArialMT-30" x="55.615234"/>
       <use xlink:href="#ArialMT-31" x="111.230469"/>
       <use xlink:href="#ArialMT-30" x="166.845703"/>
      </g>
     </g>
    </g>
    <g id="xtick_6">
     <g id="text_6">
      <!-- 2020 -->
      <g style="fill: #262626" transform="translate(398.335741 331.877812) scale(0.1 -0.1)">
       <use xlink:href="#ArialMT-32"/>
       <use xlink:href="#ArialMT-30" x="55.615234"/>
       <use xlink:href="#ArialMT-32" x="111.230469"/>
       <use xlink:href="#ArialMT-30" x="166.845703"/>
      </g>
     </g>
    </g>
   </g>
   <g id="matplotlib.axis_2">
    <g id="ytick_1">
     <g id="text_7">
      <!-- 5.8 -->
      <g style="fill: #262626" transform="translate(10.76 307.990177) scale(0.1 -0.1)">
       <defs>
        <path id="ArialMT-35" d="M 266 1200 
L 856 1250 
Q 922 819 1161 601 
Q 1400 384 1738 384 
Q 2144 384 2425 690 
Q 2706 997 2706 1503 
Q 2706 1984 2436 2262 
Q 2166 2541 1728 2541 
Q 1456 2541 1237 2417 
Q 1019 2294 894 2097 
L 366 2166 
L 809 4519 
L 3088 4519 
L 3088 3981 
L 1259 3981 
L 1013 2750 
Q 1425 3038 1878 3038 
Q 2478 3038 2890 2622 
Q 3303 2206 3303 1553 
Q 3303 931 2941 478 
Q 2500 -78 1738 -78 
Q 1113 -78 717 272 
Q 322 622 266 1200 
z
" transform="scale(0.015625)"/>
        <path id="ArialMT-2e" d="M 581 0 
L 581 641 
L 1222 641 
L 1222 0 
L 581 0 
z
" transform="scale(0.015625)"/>
       </defs>
       <use xlink:href="#ArialMT-35"/>
       <use xlink:href="#ArialMT-2e" x="55.615234"/>
       <use xlink:href="#ArialMT-38" x="83.398438"/>
      </g>
     </g>
    </g>
    <g id="ytick_2">
     <g id="text_8">
      <!-- 6.0 -->
      <g style="fill: #262626" transform="translate(10.76 271.087344) scale(0.1 -0.1)">
       <defs>
        <path id="ArialMT-36" d="M 3184 3459 
L 2625 3416 
Q 2550 3747 2413 3897 
Q 2184 4138 1850 4138 
Q 1581 4138 1378 3988 
Q 1113 3794 959 3422 
Q 806 3050 800 2363 
Q 1003 2672 1297 2822 
Q 1591 2972 1913 2972 
Q 2475 2972 2870 2558 
Q 3266 2144 3266 1488 
Q 3266 1056 3080 686 
Q 2894 316 2569 119 
Q 2244 -78 1831 -78 
Q 1128 -78 684 439 
Q 241 956 241 2144 
Q 241 3472 731 4075 
Q 1159 4600 1884 4600 
Q 2425 4600 2770 4297 
Q 3116 3994 3184 3459 
z
M 888 1484 
Q 888 1194 1011 928 
Q 1134 663 1356 523 
Q 1578 384 1822 384 
Q 2178 384 2434 671 
Q 2691 959 2691 1453 
Q 2691 1928 2437 2201 
Q 2184 2475 1800 2475 
Q 1419 2475 1153 2201 
Q 888 1928 888 1484 
z
" transform="scale(0.015625)"/>
       </defs>
       <use xlink:href="#ArialMT-36"/>
       <use xlink:href="#ArialMT-2e" x="55.615234"/>
       <use xlink:href="#ArialMT-30" x="83.398438"/>
      </g>
     </g>
    </g>
    <g id="ytick_3">
     <g id="text_9">
      <!-- 6.2 -->
      <g style="fill: #262626" transform="translate(10.76 234.184512) scale(0.1 -0.1)">
       <use xlink:href="#ArialMT-36"/>
       <use xlink:href="#ArialMT-2e" x="55.615234"/>
       <use xlink:href="#ArialMT-32" x="83.398438"/>
      </g>
     </g>
    </g>
    <g id="ytick_4">
     <g id="text_10">
      <!-- 6.4 -->
      <g style="fill: #262626" transform="translate(10.76 197.28168) scale(0.1 -0.1)">
       <defs>
        <path id="ArialMT-34" d="M 2069 0 
L 2069 1097 
L 81 1097 
L 81 1613 
L 2172 4581 
L 2631 4581 
L 2631 1613 
L 3250 1613 
L 3250 1097 
L 2631 1097 
L 2631 0 
L 2069 0 
z
M 2069 1613 
L 2069 3678 
L 634 1613 
L 2069 1613 
z
" transform="scale(0.015625)"/>
       </defs>
       <use xlink:href="#ArialMT-36"/>
       <use xlink:href="#ArialMT-2e" x="55.615234"/>
       <use xlink:href="#ArialMT-34" x="83.398438"/>
      </g>
     </g>
    </g>
    <g id="ytick_5">
     <g id="text_11">
      <!-- 6.6 -->
      <g style="fill: #262626" transform="translate(10.76 160.378847) scale(0.1 -0.1)">
       <use xlink:href="#ArialMT-36"/>
       <use xlink:href="#ArialMT-2e" x="55.615234"/>
       <use xlink:href="#ArialMT-36" x="83.398438"/>
      </g>
     </g>
    </g>
    <g id="ytick_6">
     <g id="text_12">
      <!-- 6.8 -->
      <g style="fill: #262626" transform="translate(10.76 123.476015) scale(0.1 -0.1)">
       <use xlink:href="#ArialMT-36"/>
       <use xlink:href="#ArialMT-2e" x="55.615234"/>
       <use xlink:href="#ArialMT-38" x="83.398438"/>
      </g>
     </g>
    </g>
    <g id="ytick_7">
     <g id="text_13">
      <!-- 7.0 -->
      <g style="fill: #262626" transform="translate(10.76 86.573183) scale(0.1 -0.1)">
       <use xlink:href="#ArialMT-37"/>
       <use xlink:href="#ArialMT-2e" x="55.615234"/>
       <use xlink:href="#ArialMT-30" x="83.398438"/>
      </g>
     </g>
    </g>
    <g id="ytick_8">
     <g id="text_14">
      <!-- 7.2 -->
      <g style="fill: #262626" transform="translate(10.76 49.67035) scale(0.1 -0.1)">
       <use xlink:href="#ArialMT-37"/>
       <use xlink:href="#ArialMT-2e" x="55.615234"/>
       <use xlink:href="#ArialMT-32" x="83.398438"/>
      </g>
     </g>
    </g>
   </g>
   <g id="PathCollection_1">
    <path d="M 50.675455 256.581215 
C 51.238604 256.581215 51.778763 256.357473 52.17697 255.959267 
C 52.575176 255.56106 52.798918 255.0209 52.798918 254.457751 
C 52.798918 253.894602 52.575176 253.354442 52.17697 252.956236 
C 51.778763 252.558029 51.238604 252.334288 50.675455 252.334288 
C 50.112305 252.334288 49.572146 252.558029 49.173939 252.956236 
C 48.775733 253.354442 48.551991 253.894602 48.551991 254.457751 
C 48.551991 255.0209 48.775733 255.56106 49.173939 255.959267 
C 49.572146 256.357473 50.112305 256.581215 50.675455 256.581215 
z
" clip-path="url(#pa118263879)" style="fill: #800080; stroke: #ffffff; stroke-width: 0.354218"/>
    <path d="M 57.851098 249.102558 
C 58.413679 249.102558 58.953293 248.879042 59.351098 248.481237 
C 59.748902 248.083433 59.972418 247.543818 59.972418 246.981237 
C 59.972418 246.418657 59.748902 245.879042 59.351098 245.481237 
C 58.953293 245.083433 58.413679 244.859917 57.851098 244.859917 
C 57.288517 244.859917 56.748902 245.083433 56.351098 245.481237 
C 55.953293 245.879042 55.729777 246.418657 55.729777 246.981237 
C 55.729777 247.543818 55.953293 248.083433 56.351098 248.481237 
C 56.748902 248.879042 57.288517 249.102558 57.851098 249.102558 
z
" clip-path="url(#pa118263879)" style="fill: #800080; stroke: #ffffff; stroke-width: 0.354218"/>
    <path d="M 65.026741 266.401167 
C 65.605578 266.401167 66.160785 266.171193 66.570084 265.761893 
C 66.979383 265.352594 67.209357 264.797387 67.209357 264.21855 
C 67.209357 263.639714 66.979383 263.084507 66.570084 262.675208 
C 66.160785 262.265908 65.605578 262.035934 65.026741 262.035934 
C 64.447904 262.035934 63.892697 262.265908 63.483398 262.675208 
C 63.074099 263.084507 62.844125 263.639714 62.844125 264.21855 
C 62.844125 264.797387 63.074099 265.352594 63.483398 265.761893 
C 63.892697 266.171193 64.447904 266.401167 65.026741 266.401167 
z
" clip-path="url(#pa118263879)" style="fill: #800080; stroke: #ffffff; stroke-width: 0.354218"/>
    <path d="M 72.202384 279.322246 
C 72.784527 279.322246 73.342906 279.090958 73.754543 278.67932 
C 74.166181 278.267683 74.397469 277.709304 74.397469 277.127161 
C 74.397469 276.545018 74.166181 275.986639 73.754543 275.575002 
C 73.342906 275.163365 72.784527 274.932077 72.202384 274.932077 
C 71.620241 274.932077 71.061862 275.163365 70.650225 275.575002 
C 70.238588 275.986639 70.0073 276.545018 70.0073 277.127161 
C 70.0073 277.709304 70.238588 278.267683 70.650225 278.67932 
C 71.061862 279.090958 71.620241 279.322246 72.202384 279.322246 
z
" clip-path="url(#pa118263879)" style="fill: #800080; stroke: #ffffff; stroke-width: 0.354218"/>
    <path d="M 79.378027 249.530815 
C 79.96072 249.530815 80.519625 249.299309 80.931651 248.887283 
C 81.343677 248.475257 81.575183 247.916352 81.575183 247.33366 
C 81.575183 246.750967 81.343677 246.192062 80.931651 245.780036 
C 80.519625 245.36801 79.96072 245.136504 79.378027 245.136504 
C 78.795335 245.136504 78.23643 245.36801 77.824404 245.780036 
C 77.412378 246.192062 77.180872 246.750967 77.180872 247.33366 
C 77.180872 247.916352 77.412378 248.475257 77.824404 248.887283 
C 78.23643 249.299309 78.795335 249.530815 79.378027 249.530815 
z
" clip-path="url(#pa118263879)" style="fill: #800080; stroke: #ffffff; stroke-width: 0.354218"/>
    <path d="M 86.553671 252.991863 
C 87.162671 252.991863 87.746811 252.749904 88.177439 252.319276 
C 88.608068 251.888648 88.850026 251.304508 88.850026 250.695508 
C 88.850026 250.086507 88.608068 249.502368 88.177439 249.071739 
C 87.746811 248.641111 87.162671 248.399152 86.553671 248.399152 
C 85.94467 248.399152 85.360531 248.641111 84.929902 249.071739 
C 84.499274 249.502368 84.257315 250.086507 84.257315 250.695508 
C 84.257315 251.304508 84.499274 251.888648 84.929902 252.319276 
C 85.360531 252.749904 85.94467 252.991863 86.553671 252.991863 
z
" clip-path="url(#pa118263879)" style="fill: #800080; stroke: #ffffff; stroke-width: 0.354218"/>
    <path d="M 93.729314 248.368836 
C 94.308703 248.368836 94.86444 248.138642 95.27413 247.728952 
C 95.683819 247.319262 95.914013 246.763525 95.914013 246.184136 
C 95.914013 245.604747 95.683819 245.049011 95.27413 244.639321 
C 94.86444 244.229631 94.308703 243.999437 93.729314 243.999437 
C 93.149925 243.999437 92.594188 244.229631 92.184498 244.639321 
C 91.774808 245.049011 91.544615 245.604747 91.544615 246.184136 
C 91.544615 246.763525 91.774808 247.319262 92.184498 247.728952 
C 92.594188 248.138642 93.149925 248.368836 93.729314 248.368836 
z
" clip-path="url(#pa118263879)" style="fill: #800080; stroke: #ffffff; stroke-width: 0.354218"/>
    <path d="M 100.904957 249.120692 
C 101.50709 249.120692 102.084642 248.881462 102.510414 248.45569 
C 102.936187 248.029917 103.175417 247.452365 103.175417 246.850232 
C 103.175417 246.2481 102.936187 245.670547 102.510414 245.244775 
C 102.084642 244.819003 101.50709 244.579773 100.904957 244.579773 
C 100.302824 244.579773 99.725272 244.819003 99.2995 245.244775 
C 98.873728 245.670547 98.634498 246.2481 98.634498 246.850232 
C 98.634498 247.452365 98.873728 248.029917 99.2995 248.45569 
C 99.725272 248.881462 100.302824 249.120692 100.904957 249.120692 
z
" clip-path="url(#pa118263879)" style="fill: #800080; stroke: #ffffff; stroke-width: 0.354218"/>
    <path d="M 108.0806 260.570145 
C 108.677932 260.570145 109.25088 260.332822 109.673257 259.910445 
C 110.095635 259.488067 110.332958 258.91512 110.332958 258.317788 
C 110.332958 257.720455 110.095635 257.147508 109.673257 256.72513 
C 109.25088 256.302753 108.677932 256.06543 108.0806 256.06543 
C 107.483268 256.06543 106.910321 256.302753 106.487943 256.72513 
C 106.065566 257.147508 105.828243 257.720455 105.828243 258.317788 
C 105.828243 258.91512 106.065566 259.488067 106.487943 259.910445 
C 106.910321 260.332822 107.483268 260.570145 108.0806 260.570145 
z
" clip-path="url(#pa118263879)" style="fill: #800080; stroke: #ffffff; stroke-width: 0.354218"/>
    <path d="M 115.256244 219.07609 
C 115.872035 219.07609 116.462688 218.831433 116.898119 218.396003 
C 117.333549 217.960572 117.578206 217.369919 117.578206 216.754128 
C 117.578206 216.138336 117.333549 215.547683 116.898119 215.112252 
C 116.462688 214.676822 115.872035 214.432165 115.256244 214.432165 
C 114.640452 214.432165 114.049799 214.676822 113.614368 215.112252 
C 113.178938 215.547683 112.934281 216.138336 112.934281 216.754128 
C 112.934281 217.369919 113.178938 217.960572 113.614368 218.396003 
C 114.049799 218.831433 114.640452 219.07609 115.256244 219.07609 
z
" clip-path="url(#pa118263879)" style="fill: #800080; stroke: #ffffff; stroke-width: 0.354218"/>
    <path d="M 122.431887 231.055882 
C 123.044553 231.055882 123.632209 230.812467 124.06543 230.379246 
C 124.498651 229.946025 124.742066 229.35837 124.742066 228.745703 
C 124.742066 228.133036 124.498651 227.54538 124.06543 227.11216 
C 123.632209 226.678939 123.044553 226.435524 122.431887 226.435524 
C 121.81922 226.435524 121.231564 226.678939 120.798344 227.11216 
C 120.365123 227.54538 120.121708 228.133036 120.121708 228.745703 
C 120.121708 229.35837 120.365123 229.946025 120.798344 230.379246 
C 121.231564 230.812467 121.81922 231.055882 122.431887 231.055882 
z
" clip-path="url(#pa118263879)" style="fill: #800080; stroke: #ffffff; stroke-width: 0.354218"/>
    <path d="M 129.60753 252.021359 
C 130.234647 252.021359 130.836163 251.772202 131.279601 251.328764 
C 131.72304 250.885326 131.972196 250.28381 131.972196 249.656693 
C 131.972196 249.029576 131.72304 248.42806 131.279601 247.984622 
C 130.836163 247.541183 130.234647 247.292027 129.60753 247.292027 
C 128.980413 247.292027 128.378897 247.541183 127.935459 247.984622 
C 127.49202 248.42806 127.242864 249.029576 127.242864 249.656693 
C 127.242864 250.28381 127.49202 250.885326 127.935459 251.328764 
C 128.378897 251.772202 128.980413 252.021359 129.60753 252.021359 
z
" clip-path="url(#pa118263879)" style="fill: #800080; stroke: #ffffff; stroke-width: 0.354218"/>
    <path d="M 136.783173 255.879054 
C 137.397925 255.879054 137.987581 255.63481 138.422276 255.200115 
C 138.856971 254.76542 139.101215 254.175764 139.101215 253.561012 
C 139.101215 252.946261 138.856971 252.356605 138.422276 251.92191 
C 137.987581 251.487215 137.397925 251.242971 136.783173 251.242971 
C 136.168422 251.242971 135.578766 251.487215 135.144071 251.92191 
C 134.709375 252.356605 134.465132 252.946261 134.465132 253.561012 
C 134.465132 254.175764 134.709375 254.76542 135.144071 255.200115 
C 135.578766 255.63481 136.168422 255.879054 136.783173 255.879054 
z
" clip-path="url(#pa118263879)" style="fill: #800080; stroke: #ffffff; stroke-width: 0.354218"/>
    <path d="M 143.958816 250.793187 
C 144.579266 250.793187 145.174387 250.546679 145.613111 250.107955 
C 146.051835 249.669231 146.298343 249.07411 146.298343 248.45366 
C 146.298343 247.833211 146.051835 247.23809 145.613111 246.799366 
C 145.174387 246.360642 144.579266 246.114134 143.958816 246.114134 
C 143.338367 246.114134 142.743246 246.360642 142.304522 246.799366 
C 141.865798 247.23809 141.61929 247.833211 141.61929 248.45366 
C 141.61929 249.07411 141.865798 249.669231 142.304522 250.107955 
C 142.743246 250.546679 143.338367 250.793187 143.958816 250.793187 
z
" clip-path="url(#pa118263879)" style="fill: #800080; stroke: #ffffff; stroke-width: 0.354218"/>
    <path d="M 151.13446 284.515397 
C 151.734464 284.515397 152.309974 284.277012 152.734241 283.852746 
C 153.158508 283.428479 153.396892 282.852969 153.396892 282.252965 
C 153.396892 281.652961 153.158508 281.077451 152.734241 280.653184 
C 152.309974 280.228917 151.734464 279.990533 151.13446 279.990533 
C 150.534456 279.990533 149.958946 280.228917 149.534679 280.653184 
C 149.110412 281.077451 148.872028 281.652961 148.872028 282.252965 
C 148.872028 282.852969 149.110412 283.428479 149.534679 283.852746 
C 149.958946 284.277012 150.534456 284.515397 151.13446 284.515397 
z
" clip-path="url(#pa118263879)" style="fill: #800080; stroke: #ffffff; stroke-width: 0.354218"/>
    <path d="M 158.310103 250.137089 
C 158.925375 250.137089 159.51553 249.892639 159.950593 249.457576 
C 160.385655 249.022513 160.630106 248.432359 160.630106 247.817087 
C 160.630106 247.201815 160.385655 246.61166 159.950593 246.176597 
C 159.51553 245.741534 158.925375 245.497084 158.310103 245.497084 
C 157.694831 245.497084 157.104676 245.741534 156.669613 246.176597 
C 156.23455 246.61166 155.9901 247.201815 155.9901 247.817087 
C 155.9901 248.432359 156.23455 249.022513 156.669613 249.457576 
C 157.104676 249.892639 157.694831 250.137089 158.310103 250.137089 
z
" clip-path="url(#pa118263879)" style="fill: #800080; stroke: #ffffff; stroke-width: 0.354218"/>
    <path d="M 165.485746 261.37221 
C 166.110819 261.37221 166.710375 261.123866 167.152368 260.681873 
C 167.594361 260.23988 167.842705 259.640324 167.842705 259.015251 
C 167.842705 258.390178 167.594361 257.790623 167.152368 257.348629 
C 166.710375 256.906636 166.110819 256.658292 165.485746 256.658292 
C 164.860673 256.658292 164.261118 256.906636 163.819124 257.348629 
C 163.377131 257.790623 163.128787 258.390178 163.128787 259.015251 
C 163.128787 259.640324 163.377131 260.23988 163.819124 260.681873 
C 164.261118 261.123866 164.860673 261.37221 165.485746 261.37221 
z
" clip-path="url(#pa118263879)" style="fill: #800080; stroke: #ffffff; stroke-width: 0.354218"/>
    <path d="M 172.661389 272.929251 
C 173.281323 272.929251 173.875949 272.682948 174.314309 272.244589 
C 174.752668 271.80623 174.998971 271.211603 174.998971 270.59167 
C 174.998971 269.971736 174.752668 269.377109 174.314309 268.93875 
C 173.875949 268.500391 173.281323 268.254088 172.661389 268.254088 
C 172.041456 268.254088 171.446829 268.500391 171.00847 268.93875 
C 170.57011 269.377109 170.323808 269.971736 170.323808 270.59167 
C 170.323808 271.211603 170.57011 271.80623 171.00847 272.244589 
C 171.446829 272.682948 172.041456 272.929251 172.661389 272.929251 
z
" clip-path="url(#pa118263879)" style="fill: #800080; stroke: #ffffff; stroke-width: 0.354218"/>
    <path d="M 179.837033 306.764934 
C 180.454381 306.764934 181.046527 306.519659 181.483058 306.083128 
C 181.919589 305.646597 182.164864 305.05445 182.164864 304.437102 
C 182.164864 303.819754 181.919589 303.227608 181.483058 302.791077 
C 181.046527 302.354546 180.454381 302.109271 179.837033 302.109271 
C 179.219684 302.109271 178.627538 302.354546 178.191007 302.791077 
C 177.754476 303.227608 177.509201 303.819754 177.509201 304.437102 
C 177.509201 305.05445 177.754476 305.646597 178.191007 306.083128 
C 178.627538 306.519659 179.219684 306.764934 179.837033 306.764934 
z
" clip-path="url(#pa118263879)" style="fill: #800080; stroke: #ffffff; stroke-width: 0.354218"/>
    <path d="M 187.012676 281.947887 
C 187.630542 281.947887 188.223185 281.702406 188.660083 281.265509 
C 189.09698 280.828612 189.342461 280.235969 189.342461 279.618102 
C 189.342461 279.000236 189.09698 278.407593 188.660083 277.970696 
C 188.223185 277.533798 187.630542 277.288318 187.012676 277.288318 
C 186.39481 277.288318 185.802166 277.533798 185.365269 277.970696 
C 184.928372 278.407593 184.682891 279.000236 184.682891 279.618102 
C 184.682891 280.235969 184.928372 280.828612 185.365269 281.265509 
C 185.802166 281.702406 186.39481 281.947887 187.012676 281.947887 
z
" clip-path="url(#pa118263879)" style="fill: #800080; stroke: #ffffff; stroke-width: 0.354218"/>
    <path d="M 194.188319 267.983267 
C 194.81288 267.983267 195.411944 267.735126 195.853576 267.293495 
C 196.295207 266.851864 196.543347 266.252799 196.543347 265.628239 
C 196.543347 265.003678 196.295207 264.404613 195.853576 263.962982 
C 195.411944 263.521351 194.81288 263.27321 194.188319 263.27321 
C 193.563758 263.27321 192.964694 263.521351 192.523062 263.962982 
C 192.081431 264.404613 191.833291 265.003678 191.833291 265.628239 
C 191.833291 266.252799 192.081431 266.851864 192.523062 267.293495 
C 192.964694 267.735126 193.563758 267.983267 194.188319 267.983267 
z
" clip-path="url(#pa118263879)" style="fill: #800080; stroke: #ffffff; stroke-width: 0.354218"/>
    <path d="M 201.363962 276.564847 
C 202.0012 276.564847 202.612424 276.31167 203.063019 275.861075 
C 203.513614 275.41048 203.766791 274.799256 203.766791 274.162019 
C 203.766791 273.524781 203.513614 272.913557 203.063019 272.462962 
C 202.612424 272.012367 202.0012 271.75919 201.363962 271.75919 
C 200.726725 271.75919 200.115501 272.012367 199.664906 272.462962 
C 199.214311 272.913557 198.961134 273.524781 198.961134 274.162019 
C 198.961134 274.799256 199.214311 275.41048 199.664906 275.861075 
C 200.115501 276.31167 200.726725 276.564847 201.363962 276.564847 
z
" clip-path="url(#pa118263879)" style="fill: #800080; stroke: #ffffff; stroke-width: 0.354218"/>
    <path d="M 208.539605 239.743987 
C 209.19271 239.743987 209.819154 239.484506 210.280968 239.022691 
C 210.742783 238.560876 211.002265 237.934433 211.002265 237.281328 
C 211.002265 236.628223 210.742783 236.00178 210.280968 235.539965 
C 209.819154 235.07815 209.19271 234.818669 208.539605 234.818669 
C 207.886501 234.818669 207.260057 235.07815 206.798243 235.539965 
C 206.336428 236.00178 206.076946 236.628223 206.076946 237.281328 
C 206.076946 237.934433 206.336428 238.560876 206.798243 239.022691 
C 207.260057 239.484506 207.886501 239.743987 208.539605 239.743987 
z
" clip-path="url(#pa118263879)" style="fill: #800080; stroke: #ffffff; stroke-width: 0.354218"/>
    <path d="M 215.715249 259.012616 
C 216.360964 259.012616 216.98032 258.75607 217.43691 258.29948 
C 217.8935 257.84289 218.150045 257.223535 218.150045 256.577819 
C 218.150045 255.932103 217.8935 255.312748 217.43691 254.856158 
C 216.98032 254.399568 216.360964 254.143022 215.715249 254.143022 
C 215.069533 254.143022 214.450177 254.399568 213.993588 254.856158 
C 213.536998 255.312748 213.280452 255.932103 213.280452 256.577819 
C 213.280452 257.223535 213.536998 257.84289 213.993588 258.29948 
C 214.450177 258.75607 215.069533 259.012616 215.715249 259.012616 
z
" clip-path="url(#pa118263879)" style="fill: #800080; stroke: #ffffff; stroke-width: 0.354218"/>
    <path d="M 222.890892 261.865041 
C 223.533628 261.865041 224.150126 261.609679 224.604609 261.155196 
C 225.059092 260.700713 225.314454 260.084215 225.314454 259.441479 
C 225.314454 258.798743 225.059092 258.182245 224.604609 257.727762 
C 224.150126 257.273279 223.533628 257.017917 222.890892 257.017917 
C 222.248156 257.017917 221.631658 257.273279 221.177175 257.727762 
C 220.722692 258.182245 220.46733 258.798743 220.46733 259.441479 
C 220.46733 260.084215 220.722692 260.700713 221.177175 261.155196 
C 221.631658 261.609679 222.248156 261.865041 222.890892 261.865041 
z
" clip-path="url(#pa118263879)" style="fill: #800080; stroke: #ffffff; stroke-width: 0.354218"/>
    <path d="M 230.066535 243.338246 
C 230.725492 243.338246 231.357548 243.07644 231.823501 242.610488 
C 232.289453 242.144535 232.551259 241.512479 232.551259 240.853522 
C 232.551259 240.194566 232.289453 239.562509 231.823501 239.096557 
C 231.357548 238.630604 230.725492 238.368798 230.066535 238.368798 
C 229.407579 238.368798 228.775522 238.630604 228.30957 239.096557 
C 227.843617 239.562509 227.581811 240.194566 227.581811 240.853522 
C 227.581811 241.512479 227.843617 242.144535 228.30957 242.610488 
C 228.775522 243.07644 229.407579 243.338246 230.066535 243.338246 
z
" clip-path="url(#pa118263879)" style="fill: #800080; stroke: #ffffff; stroke-width: 0.354218"/>
    <path d="M 237.242178 281.532628 
C 237.90259 281.532628 238.536041 281.270244 239.003023 280.803263 
C 239.470004 280.336281 239.732388 279.70283 239.732388 279.042418 
C 239.732388 278.382007 239.470004 277.748555 239.003023 277.281574 
C 238.536041 276.814592 237.90259 276.552208 237.242178 276.552208 
C 236.581767 276.552208 235.948315 276.814592 235.481334 277.281574 
C 235.014353 277.748555 234.751968 278.382007 234.751968 279.042418 
C 234.751968 279.70283 235.014353 280.336281 235.481334 280.803263 
C 235.948315 281.270244 236.581767 281.532628 237.242178 281.532628 
z
" clip-path="url(#pa118263879)" style="fill: #800080; stroke: #ffffff; stroke-width: 0.354218"/>
    <path d="M 244.417822 252.703817 
C 245.084021 252.703817 245.723023 252.439133 246.194097 251.968059 
C 246.665171 251.496986 246.929855 250.857983 246.929855 250.191784 
C 246.929855 249.525585 246.665171 248.886582 246.194097 248.415508 
C 245.723023 247.944434 245.084021 247.679751 244.417822 247.679751 
C 243.751623 247.679751 243.11262 247.944434 242.641546 248.415508 
C 242.170472 248.886582 241.905789 249.525585 241.905789 250.191784 
C 241.905789 250.857983 242.170472 251.496986 242.641546 251.968059 
C 243.11262 252.439133 243.751623 252.703817 244.417822 252.703817 
z
" clip-path="url(#pa118263879)" style="fill: #800080; stroke: #ffffff; stroke-width: 0.354218"/>
    <path d="M 251.593465 278.069755 
C 252.270146 278.069755 252.919203 277.800907 253.397688 277.322421 
C 253.876174 276.843936 254.145022 276.194879 254.145022 275.518198 
C 254.145022 274.841517 253.876174 274.19246 253.397688 273.713974 
C 252.919203 273.235489 252.270146 272.96664 251.593465 272.96664 
C 250.916784 272.96664 250.267727 273.235489 249.789241 273.713974 
C 249.310756 274.19246 249.041908 274.841517 249.041908 275.518198 
C 249.041908 276.194879 249.310756 276.843936 249.789241 277.322421 
C 250.267727 277.800907 250.916784 278.069755 251.593465 278.069755 
z
" clip-path="url(#pa118263879)" style="fill: #800080; stroke: #ffffff; stroke-width: 0.354218"/>
    <path d="M 258.769108 256.876632 
C 259.456111 256.876632 260.115069 256.603683 260.600853 256.117898 
C 261.086638 255.632114 261.359587 254.973156 261.359587 254.286153 
C 261.359587 253.59915 261.086638 252.940193 260.600853 252.454408 
C 260.115069 251.968624 259.456111 251.695675 258.769108 251.695675 
C 258.082105 251.695675 257.423148 251.968624 256.937363 252.454408 
C 256.451579 252.940193 256.178629 253.59915 256.178629 254.286153 
C 256.178629 254.973156 256.451579 255.632114 256.937363 256.117898 
C 257.423148 256.603683 258.082105 256.876632 258.769108 256.876632 
z
" clip-path="url(#pa118263879)" style="fill: #800080; stroke: #ffffff; stroke-width: 0.354218"/>
    <path d="M 265.944751 275.605912 
C 266.643299 275.605912 267.31333 275.328376 267.807277 274.834428 
C 268.301225 274.340481 268.578761 273.67045 268.578761 272.971902 
C 268.578761 272.273355 268.301225 271.603324 267.807277 271.109376 
C 267.31333 270.615429 266.643299 270.337893 265.944751 270.337893 
C 265.246204 270.337893 264.576173 270.615429 264.082225 271.109376 
C 263.588278 271.603324 263.310742 272.273355 263.310742 272.971902 
C 263.310742 273.67045 263.588278 274.340481 264.082225 274.834428 
C 264.576173 275.328376 265.246204 275.605912 265.944751 275.605912 
z
" clip-path="url(#pa118263879)" style="fill: #800080; stroke: #ffffff; stroke-width: 0.354218"/>
    <path d="M 273.120395 279.377142 
C 273.819857 279.377142 274.490766 279.099243 274.985361 278.604648 
C 275.479956 278.110053 275.757855 277.439144 275.757855 276.739681 
C 275.757855 276.040219 275.479956 275.36931 274.985361 274.874715 
C 274.490766 274.38012 273.819857 274.102221 273.120395 274.102221 
C 272.420932 274.102221 271.750023 274.38012 271.255428 274.874715 
C 270.760833 275.36931 270.482934 276.040219 270.482934 276.739681 
C 270.482934 277.439144 270.760833 278.110053 271.255428 278.604648 
C 271.750023 279.099243 272.420932 279.377142 273.120395 279.377142 
z
" clip-path="url(#pa118263879)" style="fill: #800080; stroke: #ffffff; stroke-width: 0.354218"/>
    <path d="M 280.296038 273.989162 
C 281.013562 273.989162 281.701795 273.704087 282.209161 273.196721 
C 282.716527 272.689355 283.001603 272.001122 283.001603 271.283598 
C 283.001603 270.566074 282.716527 269.877841 282.209161 269.370474 
C 281.701795 268.863108 281.013562 268.578033 280.296038 268.578033 
C 279.578514 268.578033 278.890281 268.863108 278.382915 269.370474 
C 277.875548 269.877841 277.590473 270.566074 277.590473 271.283598 
C 277.590473 272.001122 277.875548 272.689355 278.382915 273.196721 
C 278.890281 273.704087 279.578514 273.989162 280.296038 273.989162 
z
" clip-path="url(#pa118263879)" style="fill: #800080; stroke: #ffffff; stroke-width: 0.354218"/>
    <path d="M 287.471681 270.558699 
C 288.221899 270.558699 288.941491 270.260634 289.471976 269.73015 
C 290.00246 269.199665 290.300525 268.480073 290.300525 267.729855 
C 290.300525 266.979637 290.00246 266.260045 289.471976 265.72956 
C 288.941491 265.199076 288.221899 264.901011 287.471681 264.901011 
C 286.721463 264.901011 286.001871 265.199076 285.471386 265.72956 
C 284.940902 266.260045 284.642837 266.979637 284.642837 267.729855 
C 284.642837 268.480073 284.940902 269.199665 285.471386 269.73015 
C 286.001871 270.260634 286.721463 270.558699 287.471681 270.558699 
z
" clip-path="url(#pa118263879)" style="fill: #800080; stroke: #ffffff; stroke-width: 0.354218"/>
    <path d="M 294.647324 255.891406 
C 295.434173 255.891406 296.188901 255.578788 296.745287 255.022402 
C 297.301673 254.466015 297.614292 253.711288 297.614292 252.924439 
C 297.614292 252.13759 297.301673 251.382862 296.745287 250.826476 
C 296.188901 250.270089 295.434173 249.957471 294.647324 249.957471 
C 293.860475 249.957471 293.105747 250.270089 292.549361 250.826476 
C 291.992975 251.382862 291.680356 252.13759 291.680356 252.924439 
C 291.680356 253.711288 291.992975 254.466015 292.549361 255.022402 
C 293.105747 255.578788 293.860475 255.891406 294.647324 255.891406 
z
" clip-path="url(#pa118263879)" style="fill: #800080; stroke: #ffffff; stroke-width: 0.354218"/>
    <path d="M 301.822967 264.118826 
C 302.627904 264.118826 303.399981 263.799021 303.969158 263.229845 
C 304.538334 262.660669 304.858139 261.888592 304.858139 261.083655 
C 304.858139 260.278718 304.538334 259.506641 303.969158 258.937465 
C 303.399981 258.368288 302.627904 258.048484 301.822967 258.048484 
C 301.018031 258.048484 300.245954 258.368288 299.676777 258.937465 
C 299.107601 259.506641 298.787796 260.278718 298.787796 261.083655 
C 298.787796 261.888592 299.107601 262.660669 299.676777 263.229845 
C 300.245954 263.799021 301.018031 264.118826 301.822967 264.118826 
z
" clip-path="url(#pa118263879)" style="fill: #800080; stroke: #ffffff; stroke-width: 0.354218"/>
    <path d="M 308.998611 264.525005 
C 309.796762 264.525005 310.562332 264.207896 311.12671 263.643517 
C 311.691089 263.079139 312.008198 262.31357 312.008198 261.515418 
C 312.008198 260.717266 311.691089 259.951697 311.12671 259.387319 
C 310.562332 258.82294 309.796762 258.505831 308.998611 258.505831 
C 308.200459 258.505831 307.43489 258.82294 306.870511 259.387319 
C 306.306133 259.951697 305.989024 260.717266 305.989024 261.515418 
C 305.989024 262.31357 306.306133 263.079139 306.870511 263.643517 
C 307.43489 264.207896 308.200459 264.525005 308.998611 264.525005 
z
" clip-path="url(#pa118263879)" style="fill: #800080; stroke: #ffffff; stroke-width: 0.354218"/>
    <path d="M 316.174254 257.430534 
C 316.978793 257.430534 317.750489 257.110887 318.319384 256.541992 
C 318.888279 255.973097 319.207926 255.201401 319.207926 254.396862 
C 319.207926 253.592322 318.888279 252.820627 318.319384 252.251731 
C 317.750489 251.682836 316.978793 251.363189 316.174254 251.363189 
C 315.369715 251.363189 314.598019 251.682836 314.029124 252.251731 
C 313.460228 252.820627 313.140582 253.592322 313.140582 254.396862 
C 313.140582 255.201401 313.460228 255.973097 314.029124 256.541992 
C 314.598019 257.110887 315.369715 257.430534 316.174254 257.430534 
z
" clip-path="url(#pa118263879)" style="fill: #800080; stroke: #ffffff; stroke-width: 0.354218"/>
    <path d="M 323.349897 229.675789 
C 324.174466 229.675789 324.965374 229.348184 325.548432 228.765126 
C 326.131491 228.182068 326.459096 227.39116 326.459096 226.566591 
C 326.459096 225.742022 326.131491 224.951114 325.548432 224.368055 
C 324.965374 223.784997 324.174466 223.457392 323.349897 223.457392 
C 322.525328 223.457392 321.73442 223.784997 321.151362 224.368055 
C 320.568303 224.951114 320.240698 225.742022 320.240698 226.566591 
C 320.240698 227.39116 320.568303 228.182068 321.151362 228.765126 
C 321.73442 229.348184 322.525328 229.675789 323.349897 229.675789 
z
" clip-path="url(#pa118263879)" style="fill: #800080; stroke: #ffffff; stroke-width: 0.354218"/>
    <path d="M 330.52554 226.917873 
C 331.375706 226.917873 332.191166 226.580098 332.792324 225.97894 
C 333.393482 225.377782 333.731257 224.562322 333.731257 223.712157 
C 333.731257 222.861991 333.393482 222.046531 332.792324 221.445373 
C 332.191166 220.844215 331.375706 220.50644 330.52554 220.50644 
C 329.675374 220.50644 328.859915 220.844215 328.258757 221.445373 
C 327.657598 222.046531 327.319824 222.861991 327.319824 223.712157 
C 327.319824 224.562322 327.657598 225.377782 328.258757 225.97894 
C 328.859915 226.580098 329.675374 226.917873 330.52554 226.917873 
z
" clip-path="url(#pa118263879)" style="fill: #800080; stroke: #ffffff; stroke-width: 0.354218"/>
    <path d="M 337.701184 207.307782 
C 338.574368 207.307782 339.411906 206.960862 340.029341 206.343427 
C 340.646775 205.725993 340.993695 204.888454 340.993695 204.01527 
C 340.993695 203.142085 340.646775 202.304547 340.029341 201.687112 
C 339.411906 201.069678 338.574368 200.722758 337.701184 200.722758 
C 336.827999 200.722758 335.990461 201.069678 335.373026 201.687112 
C 334.755592 202.304547 334.408672 203.142085 334.408672 204.01527 
C 334.408672 204.888454 334.755592 205.725993 335.373026 206.343427 
C 335.990461 206.960862 336.827999 207.307782 337.701184 207.307782 
z
" clip-path="url(#pa118263879)" style="fill: #800080; stroke: #ffffff; stroke-width: 0.354218"/>
    <path d="M 344.876827 207.310532 
C 345.763463 207.310532 346.613905 206.958267 347.240851 206.331321 
C 347.867798 205.704374 348.220062 204.853933 348.220062 203.967296 
C 348.220062 203.08066 347.867798 202.230218 347.240851 201.603272 
C 346.613905 200.976325 345.763463 200.624061 344.876827 200.624061 
C 343.99019 200.624061 343.139749 200.976325 342.512802 201.603272 
C 341.885856 202.230218 341.533591 203.08066 341.533591 203.967296 
C 341.533591 204.853933 341.885856 205.704374 342.512802 206.331321 
C 343.139749 206.958267 343.99019 207.310532 344.876827 207.310532 
z
" clip-path="url(#pa118263879)" style="fill: #800080; stroke: #ffffff; stroke-width: 0.354218"/>
    <path d="M 352.05247 208.508867 
C 352.973093 208.508867 353.856134 208.143099 354.507112 207.492121 
C 355.158091 206.841142 355.523859 205.958101 355.523859 205.037478 
C 355.523859 204.116855 355.158091 203.233815 354.507112 202.582836 
C 353.856134 201.931857 352.973093 201.56609 352.05247 201.56609 
C 351.131847 201.56609 350.248806 201.931857 349.597828 202.582836 
C 348.946849 203.233815 348.581081 204.116855 348.581081 205.037478 
C 348.581081 205.958101 348.946849 206.841142 349.597828 207.492121 
C 350.248806 208.143099 351.131847 208.508867 352.05247 208.508867 
z
" clip-path="url(#pa118263879)" style="fill: #800080; stroke: #ffffff; stroke-width: 0.354218"/>
    <path d="M 359.228113 202.911035 
C 360.16595 202.911035 361.065502 202.538428 361.728652 201.875278 
C 362.391803 201.212127 362.764409 200.312575 362.764409 199.374739 
C 362.764409 198.436902 362.391803 197.53735 361.728652 196.8742 
C 361.065502 196.211049 360.16595 195.838442 359.228113 195.838442 
C 358.290276 195.838442 357.390725 196.211049 356.727574 196.8742 
C 356.064423 197.53735 355.691817 198.436902 355.691817 199.374739 
C 355.691817 200.312575 356.064423 201.212127 356.727574 201.875278 
C 357.390725 202.538428 358.290276 202.911035 359.228113 202.911035 
z
" clip-path="url(#pa118263879)" style="fill: #800080; stroke: #ffffff; stroke-width: 0.354218"/>
    <path d="M 366.403756 200.961726 
C 367.389815 200.961726 368.33562 200.569961 369.032869 199.872712 
C 369.730117 199.175463 370.121882 198.229659 370.121882 197.2436 
C 370.121882 196.257542 369.730117 195.311737 369.032869 194.614488 
C 368.33562 193.917239 367.389815 193.525474 366.403756 193.525474 
C 365.417698 193.525474 364.471893 193.917239 363.774644 194.614488 
C 363.077396 195.311737 362.68563 196.257542 362.68563 197.2436 
C 362.68563 198.229659 363.077396 199.175463 363.774644 199.872712 
C 364.471893 200.569961 365.417698 200.961726 366.403756 200.961726 
z
" clip-path="url(#pa118263879)" style="fill: #800080; stroke: #ffffff; stroke-width: 0.354218"/>
    <path d="M 373.5794 185.060401 
C 374.616377 185.060401 375.611022 184.648405 376.344276 183.915151 
C 377.07753 183.181898 377.489525 182.187252 377.489525 181.150275 
C 377.489525 180.113297 377.07753 179.118652 376.344276 178.385398 
C 375.611022 177.652145 374.616377 177.240149 373.5794 177.240149 
C 372.542422 177.240149 371.547777 177.652145 370.814523 178.385398 
C 370.081269 179.118652 369.669274 180.113297 369.669274 181.150275 
C 369.669274 182.187252 370.081269 183.181898 370.814523 183.915151 
C 371.547777 184.648405 372.542422 185.060401 373.5794 185.060401 
z
" clip-path="url(#pa118263879)" style="fill: #800080; stroke: #ffffff; stroke-width: 0.354218"/>
    <path d="M 380.755043 174.218683 
C 381.840553 174.218683 382.88175 173.787405 383.649322 173.019833 
C 384.416894 172.252261 384.848172 171.211064 384.848172 170.125554 
C 384.848172 169.040043 384.416894 167.998846 383.649322 167.231274 
C 382.88175 166.463702 381.840553 166.032425 380.755043 166.032425 
C 379.669532 166.032425 378.628335 166.463702 377.860764 167.231274 
C 377.093192 167.998846 376.661914 169.040043 376.661914 170.125554 
C 376.661914 171.211064 377.093192 172.252261 377.860764 173.019833 
C 378.628335 173.787405 379.669532 174.218683 380.755043 174.218683 
z
" clip-path="url(#pa118263879)" style="fill: #800080; stroke: #ffffff; stroke-width: 0.354218"/>
    <path d="M 387.930686 156.050231 
C 389.036923 156.050231 390.098 155.610718 390.880228 154.82849 
C 391.662456 154.046263 392.101968 152.985185 392.101968 151.878948 
C 392.101968 150.772711 391.662456 149.711634 390.880228 148.929406 
C 390.098 148.147179 389.036923 147.707666 387.930686 147.707666 
C 386.824449 147.707666 385.763372 148.147179 384.981144 148.929406 
C 384.198916 149.711634 383.759404 150.772711 383.759404 151.878948 
C 383.759404 152.985185 384.198916 154.046263 384.981144 154.82849 
C 385.763372 155.610718 386.824449 156.050231 387.930686 156.050231 
z
" clip-path="url(#pa118263879)" style="fill: #800080; stroke: #ffffff; stroke-width: 0.354218"/>
    <path d="M 395.106329 140.201104 
C 396.223501 140.201104 397.295067 139.757247 398.085027 138.967287 
C 398.874987 138.177327 399.318844 137.105761 399.318844 135.988589 
C 399.318844 134.871417 398.874987 133.799851 398.085027 133.009891 
C 397.295067 132.219931 396.223501 131.776074 395.106329 131.776074 
C 393.989157 131.776074 392.917591 132.219931 392.127631 133.009891 
C 391.337671 133.799851 390.893814 134.871417 390.893814 135.988589 
C 390.893814 137.105761 391.337671 138.177327 392.127631 138.967287 
C 392.917591 139.757247 393.989157 140.201104 395.106329 140.201104 
z
" clip-path="url(#pa118263879)" style="fill: #800080; stroke: #ffffff; stroke-width: 0.354218"/>
    <path d="M 402.281973 125.134281 
C 403.407134 125.134281 404.486363 124.687249 405.281973 123.89164 
C 406.077582 123.096031 406.524613 122.016801 406.524613 120.89164 
C 406.524613 119.766478 406.077582 118.687249 405.281973 117.89164 
C 404.486363 117.096031 403.407134 116.648999 402.281973 116.648999 
C 401.156811 116.648999 400.077582 117.096031 399.281973 117.89164 
C 398.486363 118.687249 398.039332 119.766478 398.039332 120.89164 
C 398.039332 122.016801 398.486363 123.096031 399.281973 123.89164 
C 400.077582 124.687249 401.156811 125.134281 402.281973 125.134281 
z
" clip-path="url(#pa118263879)" style="fill: #800080; stroke: #ffffff; stroke-width: 0.354218"/>
    <path d="M 409.457616 106.228713 
C 410.501971 106.228713 411.503693 105.813786 412.242164 105.075315 
C 412.980634 104.336844 413.395561 103.335123 413.395561 102.290767 
C 413.395561 101.246412 412.980634 100.24469 412.242164 99.50622 
C 411.503693 98.767749 410.501971 98.352822 409.457616 98.352822 
C 408.413261 98.352822 407.411539 98.767749 406.673068 99.50622 
C 405.934597 100.24469 405.519671 101.246412 405.519671 102.290767 
C 405.519671 103.335123 405.934597 104.336844 406.673068 105.075315 
C 407.411539 105.813786 408.413261 106.228713 409.457616 106.228713 
z
" clip-path="url(#pa118263879)" style="fill: #800080; stroke: #ffffff; stroke-width: 0.354218"/>
    <path d="M 416.633259 94.30581 
C 417.673317 94.30581 418.670917 93.89259 419.406349 93.157158 
C 420.141781 92.421726 420.555 91.424126 420.555 90.384068 
C 420.555 89.344011 420.141781 88.346411 419.406349 87.610979 
C 418.670917 86.875547 417.673317 86.462327 416.633259 86.462327 
C 415.593201 86.462327 414.595601 86.875547 413.860169 87.610979 
C 413.124737 88.346411 412.711518 89.344011 412.711518 90.384068 
C 412.711518 91.424126 413.124737 92.421726 413.860169 93.157158 
C 414.595601 93.89259 415.593201 94.30581 416.633259 94.30581 
z
" clip-path="url(#pa118263879)" style="fill: #800080; stroke: #ffffff; stroke-width: 0.354218"/>
    <path d="M 423.808902 74.363004 
C 424.863014 74.363004 425.874094 73.944201 426.619464 73.198831 
C 427.364834 72.453461 427.783637 71.442381 427.783637 70.388269 
C 427.783637 69.334157 427.364834 68.323077 426.619464 67.577707 
C 425.874094 66.832337 424.863014 66.413534 423.808902 66.413534 
C 422.75479 66.413534 421.74371 66.832337 420.99834 67.577707 
C 420.25297 68.323077 419.834167 69.334157 419.834167 70.388269 
C 419.834167 71.442381 420.25297 72.453461 420.99834 73.198831 
C 421.74371 73.944201 422.75479 74.363004 423.808902 74.363004 
z
" clip-path="url(#pa118263879)" style="fill: #800080; stroke: #ffffff; stroke-width: 0.354218"/>
    <path d="M 430.984545 42.578353 
C 431.992107 42.578353 432.958536 42.178045 433.670989 41.465592 
C 434.383443 40.753138 434.783751 39.786709 434.783751 38.779148 
C 434.783751 37.771587 434.383443 36.805157 433.670989 36.092704 
C 432.958536 35.380251 431.992107 34.979942 430.984545 34.979942 
C 429.976984 34.979942 429.010555 35.380251 428.298101 36.092704 
C 427.585648 36.805157 427.18534 37.771587 427.18534 38.779148 
C 427.18534 39.786709 427.585648 40.753138 428.298101 41.465592 
C 429.010555 42.178045 429.976984 42.578353 430.984545 42.578353 
z
" clip-path="url(#pa118263879)" style="fill: #800080; stroke: #ffffff; stroke-width: 0.354218"/>
   </g>
   <g id="patch_3">
    <path d="M 31.66 317.72 
L 31.66 25.49625 
" style="fill: none; stroke: #ffffff; stroke-width: 0.8; stroke-linejoin: miter; stroke-linecap: square"/>
   </g>
   <g id="patch_4">
    <path d="M 450 317.72 
L 450 25.49625 
" style="fill: none; stroke: #ffffff; stroke-width: 0.8; stroke-linejoin: miter; stroke-linecap: square"/>
   </g>
   <g id="patch_5">
    <path d="M 31.66 317.72 
L 450 317.72 
" style="fill: none; stroke: #ffffff; stroke-width: 0.8; stroke-linejoin: miter; stroke-linecap: square"/>
   </g>
   <g id="patch_6">
    <path d="M 31.66 25.49625 
L 450 25.49625 
" style="fill: none; stroke: #ffffff; stroke-width: 0.8; stroke-linejoin: miter; stroke-linecap: square"/>
   </g>
   <g id="text_15">
    <!-- Yearly average ratings from ranked games -->
    <g style="fill: #262626" transform="translate(127.998125 19.49625) scale(0.12 -0.12)">
     <defs>
      <path id="ArialMT-59" d="M 1784 0 
L 1784 1941 
L 19 4581 
L 756 4581 
L 1659 3200 
Q 1909 2813 2125 2425 
Q 2331 2784 2625 3234 
L 3513 4581 
L 4219 4581 
L 2391 1941 
L 2391 0 
L 1784 0 
z
" transform="scale(0.015625)"/>
      <path id="ArialMT-65" d="M 2694 1069 
L 3275 997 
Q 3138 488 2766 206 
Q 2394 -75 1816 -75 
Q 1088 -75 661 373 
Q 234 822 234 1631 
Q 234 2469 665 2931 
Q 1097 3394 1784 3394 
Q 2450 3394 2872 2941 
Q 3294 2488 3294 1666 
Q 3294 1616 3291 1516 
L 816 1516 
Q 847 969 1125 678 
Q 1403 388 1819 388 
Q 2128 388 2347 550 
Q 2566 713 2694 1069 
z
M 847 1978 
L 2700 1978 
Q 2663 2397 2488 2606 
Q 2219 2931 1791 2931 
Q 1403 2931 1139 2672 
Q 875 2413 847 1978 
z
" transform="scale(0.015625)"/>
      <path id="ArialMT-61" d="M 2588 409 
Q 2275 144 1986 34 
Q 1697 -75 1366 -75 
Q 819 -75 525 192 
Q 231 459 231 875 
Q 231 1119 342 1320 
Q 453 1522 633 1644 
Q 813 1766 1038 1828 
Q 1203 1872 1538 1913 
Q 2219 1994 2541 2106 
Q 2544 2222 2544 2253 
Q 2544 2597 2384 2738 
Q 2169 2928 1744 2928 
Q 1347 2928 1158 2789 
Q 969 2650 878 2297 
L 328 2372 
Q 403 2725 575 2942 
Q 747 3159 1072 3276 
Q 1397 3394 1825 3394 
Q 2250 3394 2515 3294 
Q 2781 3194 2906 3042 
Q 3031 2891 3081 2659 
Q 3109 2516 3109 2141 
L 3109 1391 
Q 3109 606 3145 398 
Q 3181 191 3288 0 
L 2700 0 
Q 2613 175 2588 409 
z
M 2541 1666 
Q 2234 1541 1622 1453 
Q 1275 1403 1131 1340 
Q 988 1278 909 1158 
Q 831 1038 831 891 
Q 831 666 1001 516 
Q 1172 366 1500 366 
Q 1825 366 2078 508 
Q 2331 650 2450 897 
Q 2541 1088 2541 1459 
L 2541 1666 
z
" transform="scale(0.015625)"/>
      <path id="ArialMT-72" d="M 416 0 
L 416 3319 
L 922 3319 
L 922 2816 
Q 1116 3169 1280 3281 
Q 1444 3394 1641 3394 
Q 1925 3394 2219 3213 
L 2025 2691 
Q 1819 2813 1613 2813 
Q 1428 2813 1281 2702 
Q 1134 2591 1072 2394 
Q 978 2094 978 1738 
L 978 0 
L 416 0 
z
" transform="scale(0.015625)"/>
      <path id="ArialMT-6c" d="M 409 0 
L 409 4581 
L 972 4581 
L 972 0 
L 409 0 
z
" transform="scale(0.015625)"/>
      <path id="ArialMT-79" d="M 397 -1278 
L 334 -750 
Q 519 -800 656 -800 
Q 844 -800 956 -737 
Q 1069 -675 1141 -563 
Q 1194 -478 1313 -144 
Q 1328 -97 1363 -6 
L 103 3319 
L 709 3319 
L 1400 1397 
Q 1534 1031 1641 628 
Q 1738 1016 1872 1384 
L 2581 3319 
L 3144 3319 
L 1881 -56 
Q 1678 -603 1566 -809 
Q 1416 -1088 1222 -1217 
Q 1028 -1347 759 -1347 
Q 597 -1347 397 -1278 
z
" transform="scale(0.015625)"/>
      <path id="ArialMT-20" transform="scale(0.015625)"/>
      <path id="ArialMT-76" d="M 1344 0 
L 81 3319 
L 675 3319 
L 1388 1331 
Q 1503 1009 1600 663 
Q 1675 925 1809 1294 
L 2547 3319 
L 3125 3319 
L 1869 0 
L 1344 0 
z
" transform="scale(0.015625)"/>
      <path id="ArialMT-67" d="M 319 -275 
L 866 -356 
Q 900 -609 1056 -725 
Q 1266 -881 1628 -881 
Q 2019 -881 2231 -725 
Q 2444 -569 2519 -288 
Q 2563 -116 2559 434 
Q 2191 0 1641 0 
Q 956 0 581 494 
Q 206 988 206 1678 
Q 206 2153 378 2554 
Q 550 2956 876 3175 
Q 1203 3394 1644 3394 
Q 2231 3394 2613 2919 
L 2613 3319 
L 3131 3319 
L 3131 450 
Q 3131 -325 2973 -648 
Q 2816 -972 2473 -1159 
Q 2131 -1347 1631 -1347 
Q 1038 -1347 672 -1080 
Q 306 -813 319 -275 
z
M 784 1719 
Q 784 1066 1043 766 
Q 1303 466 1694 466 
Q 2081 466 2343 764 
Q 2606 1063 2606 1700 
Q 2606 2309 2336 2618 
Q 2066 2928 1684 2928 
Q 1309 2928 1046 2623 
Q 784 2319 784 1719 
z
" transform="scale(0.015625)"/>
      <path id="ArialMT-74" d="M 1650 503 
L 1731 6 
Q 1494 -44 1306 -44 
Q 1000 -44 831 53 
Q 663 150 594 308 
Q 525 466 525 972 
L 525 2881 
L 113 2881 
L 113 3319 
L 525 3319 
L 525 4141 
L 1084 4478 
L 1084 3319 
L 1650 3319 
L 1650 2881 
L 1084 2881 
L 1084 941 
Q 1084 700 1114 631 
Q 1144 563 1211 522 
Q 1278 481 1403 481 
Q 1497 481 1650 503 
z
" transform="scale(0.015625)"/>
      <path id="ArialMT-69" d="M 425 3934 
L 425 4581 
L 988 4581 
L 988 3934 
L 425 3934 
z
M 425 0 
L 425 3319 
L 988 3319 
L 988 0 
L 425 0 
z
" transform="scale(0.015625)"/>
      <path id="ArialMT-6e" d="M 422 0 
L 422 3319 
L 928 3319 
L 928 2847 
Q 1294 3394 1984 3394 
Q 2284 3394 2536 3286 
Q 2788 3178 2913 3003 
Q 3038 2828 3088 2588 
Q 3119 2431 3119 2041 
L 3119 0 
L 2556 0 
L 2556 2019 
Q 2556 2363 2490 2533 
Q 2425 2703 2258 2804 
Q 2091 2906 1866 2906 
Q 1506 2906 1245 2678 
Q 984 2450 984 1813 
L 984 0 
L 422 0 
z
" transform="scale(0.015625)"/>
      <path id="ArialMT-73" d="M 197 991 
L 753 1078 
Q 800 744 1014 566 
Q 1228 388 1613 388 
Q 2000 388 2187 545 
Q 2375 703 2375 916 
Q 2375 1106 2209 1216 
Q 2094 1291 1634 1406 
Q 1016 1563 777 1677 
Q 538 1791 414 1992 
Q 291 2194 291 2438 
Q 291 2659 392 2848 
Q 494 3038 669 3163 
Q 800 3259 1026 3326 
Q 1253 3394 1513 3394 
Q 1903 3394 2198 3281 
Q 2494 3169 2634 2976 
Q 2775 2784 2828 2463 
L 2278 2388 
Q 2241 2644 2061 2787 
Q 1881 2931 1553 2931 
Q 1166 2931 1000 2803 
Q 834 2675 834 2503 
Q 834 2394 903 2306 
Q 972 2216 1119 2156 
Q 1203 2125 1616 2013 
Q 2213 1853 2448 1751 
Q 2684 1650 2818 1456 
Q 2953 1263 2953 975 
Q 2953 694 2789 445 
Q 2625 197 2315 61 
Q 2006 -75 1616 -75 
Q 969 -75 630 194 
Q 291 463 197 991 
z
" transform="scale(0.015625)"/>
      <path id="ArialMT-66" d="M 556 0 
L 556 2881 
L 59 2881 
L 59 3319 
L 556 3319 
L 556 3672 
Q 556 4006 616 4169 
Q 697 4388 901 4523 
Q 1106 4659 1475 4659 
Q 1713 4659 2000 4603 
L 1916 4113 
Q 1741 4144 1584 4144 
Q 1328 4144 1222 4034 
Q 1116 3925 1116 3625 
L 1116 3319 
L 1763 3319 
L 1763 2881 
L 1116 2881 
L 1116 0 
L 556 0 
z
" transform="scale(0.015625)"/>
      <path id="ArialMT-6f" d="M 213 1659 
Q 213 2581 725 3025 
Q 1153 3394 1769 3394 
Q 2453 3394 2887 2945 
Q 3322 2497 3322 1706 
Q 3322 1066 3130 698 
Q 2938 331 2570 128 
Q 2203 -75 1769 -75 
Q 1072 -75 642 372 
Q 213 819 213 1659 
z
M 791 1659 
Q 791 1022 1069 705 
Q 1347 388 1769 388 
Q 2188 388 2466 706 
Q 2744 1025 2744 1678 
Q 2744 2294 2464 2611 
Q 2184 2928 1769 2928 
Q 1347 2928 1069 2612 
Q 791 2297 791 1659 
z
" transform="scale(0.015625)"/>
      <path id="ArialMT-6d" d="M 422 0 
L 422 3319 
L 925 3319 
L 925 2853 
Q 1081 3097 1340 3245 
Q 1600 3394 1931 3394 
Q 2300 3394 2536 3241 
Q 2772 3088 2869 2813 
Q 3263 3394 3894 3394 
Q 4388 3394 4653 3120 
Q 4919 2847 4919 2278 
L 4919 0 
L 4359 0 
L 4359 2091 
Q 4359 2428 4304 2576 
Q 4250 2725 4106 2815 
Q 3963 2906 3769 2906 
Q 3419 2906 3187 2673 
Q 2956 2441 2956 1928 
L 2956 0 
L 2394 0 
L 2394 2156 
Q 2394 2531 2256 2718 
Q 2119 2906 1806 2906 
Q 1569 2906 1367 2781 
Q 1166 2656 1075 2415 
Q 984 2175 984 1722 
L 984 0 
L 422 0 
z
" transform="scale(0.015625)"/>
      <path id="ArialMT-6b" d="M 425 0 
L 425 4581 
L 988 4581 
L 988 1969 
L 2319 3319 
L 3047 3319 
L 1778 2088 
L 3175 0 
L 2481 0 
L 1384 1697 
L 988 1316 
L 988 0 
L 425 0 
z
" transform="scale(0.015625)"/>
      <path id="ArialMT-64" d="M 2575 0 
L 2575 419 
Q 2259 -75 1647 -75 
Q 1250 -75 917 144 
Q 584 363 401 755 
Q 219 1147 219 1656 
Q 219 2153 384 2558 
Q 550 2963 881 3178 
Q 1213 3394 1622 3394 
Q 1922 3394 2156 3267 
Q 2391 3141 2538 2938 
L 2538 4581 
L 3097 4581 
L 3097 0 
L 2575 0 
z
M 797 1656 
Q 797 1019 1065 703 
Q 1334 388 1700 388 
Q 2069 388 2326 689 
Q 2584 991 2584 1609 
Q 2584 2291 2321 2609 
Q 2059 2928 1675 2928 
Q 1300 2928 1048 2622 
Q 797 2316 797 1656 
z
" transform="scale(0.015625)"/>
     </defs>
     <use xlink:href="#ArialMT-59"/>
     <use xlink:href="#ArialMT-65" x="57.574219"/>
     <use xlink:href="#ArialMT-61" x="113.189453"/>
     <use xlink:href="#ArialMT-72" x="168.804688"/>
     <use xlink:href="#ArialMT-6c" x="202.105469"/>
     <use xlink:href="#ArialMT-79" x="224.322266"/>
     <use xlink:href="#ArialMT-20" x="274.322266"/>
     <use xlink:href="#ArialMT-61" x="302.105469"/>
     <use xlink:href="#ArialMT-76" x="357.720703"/>
     <use xlink:href="#ArialMT-65" x="407.720703"/>
     <use xlink:href="#ArialMT-72" x="463.335938"/>
     <use xlink:href="#ArialMT-61" x="496.636719"/>
     <use xlink:href="#ArialMT-67" x="552.251953"/>
     <use xlink:href="#ArialMT-65" x="607.867188"/>
     <use xlink:href="#ArialMT-20" x="663.482422"/>
     <use xlink:href="#ArialMT-72" x="691.265625"/>
     <use xlink:href="#ArialMT-61" x="724.566406"/>
     <use xlink:href="#ArialMT-74" x="780.181641"/>
     <use xlink:href="#ArialMT-69" x="807.964844"/>
     <use xlink:href="#ArialMT-6e" x="830.181641"/>
     <use xlink:href="#ArialMT-67" x="885.796875"/>
     <use xlink:href="#ArialMT-73" x="941.412109"/>
     <use xlink:href="#ArialMT-20" x="991.412109"/>
     <use xlink:href="#ArialMT-66" x="1019.195312"/>
     <use xlink:href="#ArialMT-72" x="1046.978516"/>
     <use xlink:href="#ArialMT-6f" x="1080.279297"/>
     <use xlink:href="#ArialMT-6d" x="1135.894531"/>
     <use xlink:href="#ArialMT-20" x="1219.195312"/>
     <use xlink:href="#ArialMT-72" x="1246.978516"/>
     <use xlink:href="#ArialMT-61" x="1280.279297"/>
     <use xlink:href="#ArialMT-6e" x="1335.894531"/>
     <use xlink:href="#ArialMT-6b" x="1391.509766"/>
     <use xlink:href="#ArialMT-65" x="1441.509766"/>
     <use xlink:href="#ArialMT-64" x="1497.125"/>
     <use xlink:href="#ArialMT-20" x="1552.740234"/>
     <use xlink:href="#ArialMT-67" x="1580.523438"/>
     <use xlink:href="#ArialMT-61" x="1636.138672"/>
     <use xlink:href="#ArialMT-6d" x="1691.753906"/>
     <use xlink:href="#ArialMT-65" x="1775.054688"/>
     <use xlink:href="#ArialMT-73" x="1830.669922"/>
    </g>
   </g>
  </g>
 </g>
 <defs>
  <clipPath id="pa118263879">
   <rect x="31.66" y="25.49625" width="418.34" height="292.22375"/>
  </clipPath>
 </defs>
</svg>
