<?xml version="1.0" encoding="utf-8" standalone="no"?>
<!DOCTYPE svg PUBLIC "-//W3C//DTD SVG 1.1//EN"
  "http://www.w3.org/Graphics/SVG/1.1/DTD/svg11.dtd">
<svg xmlns:xlink="http://www.w3.org/1999/xlink" width="460.8pt" height="345.6pt" viewBox="0 0 460.8 345.6" xmlns="http://www.w3.org/2000/svg" version="1.1">
 <metadata>
  <rdf:RDF xmlns:dc="http://purl.org/dc/elements/1.1/" xmlns:cc="http://creativecommons.org/ns#" xmlns:rdf="http://www.w3.org/1999/02/22-rdf-syntax-ns#">
   <cc:Work>
    <dc:type rdf:resource="http://purl.org/dc/dcmitype/StillImage"/>
    <dc:date>2024-08-17T23:40:04.148740</dc:date>
    <dc:format>image/svg+xml</dc:format>
    <dc:creator>
     <cc:Agent>
      <dc:title>Matplotlib v3.9.2, https://matplotlib.org/</dc:title>
     </cc:Agent>
    </dc:creator>
   </cc:Work>
  </rdf:RDF>
 </metadata>
 <defs>
  <style type="text/css">*{stroke-linejoin: round; stroke-linecap: butt}</style>
 </defs>
 <g id="figure_1">
  <g id="patch_1">
   <path d="M 0 345.6 
L 460.8 345.6 
L 460.8 0 
L 0 0 
z
" style="fill: #ffffff"/>
  </g>
  <g id="axes_1">
   <g id="patch_2">
    <path d="M 31.66 317.72 
L 450 317.72 
L 450 25.49625 
L 31.66 25.49625 
z
" style="fill: #eaeaf2"/>
   </g>
   <g id="matplotlib.axis_1">
    <g id="xtick_1">
     <g id="text_1">
      <!-- 1970 -->
      <g style="fill: #262626" transform="translate(39.55358 331.877812) scale(0.1 -0.1)">
       <defs>
        <path id="ArialMT-31" d="M 2384 0 
L 1822 0 
L 1822 3584 
Q 1619 3391 1289 3197 
Q 959 3003 697 2906 
L 697 3450 
Q 1169 3672 1522 3987 
Q 1875 4303 2022 4600 
L 2384 4600 
L 2384 0 
z
" transform="scale(0.015625)"/>
        <path id="ArialMT-39" d="M 350 1059 
L 891 1109 
Q 959 728 1153 556 
Q 1347 384 1650 384 
Q 1909 384 2104 503 
Q 2300 622 2425 820 
Q 2550 1019 2634 1356 
Q 2719 1694 2719 2044 
Q 2719 2081 2716 2156 
Q 2547 1888 2255 1720 
Q 1963 1553 1622 1553 
Q 1053 1553 659 1965 
Q 266 2378 266 3053 
Q 266 3750 677 4175 
Q 1088 4600 1706 4600 
Q 2153 4600 2523 4359 
Q 2894 4119 3086 3673 
Q 3278 3228 3278 2384 
Q 3278 1506 3087 986 
Q 2897 466 2520 194 
Q 2144 -78 1638 -78 
Q 1100 -78 759 220 
Q 419 519 350 1059 
z
M 2653 3081 
Q 2653 3566 2395 3850 
Q 2138 4134 1775 4134 
Q 1400 4134 1122 3828 
Q 844 3522 844 3034 
Q 844 2597 1108 2323 
Q 1372 2050 1759 2050 
Q 2150 2050 2401 2323 
Q 2653 2597 2653 3081 
z
" transform="scale(0.015625)"/>
        <path id="ArialMT-37" d="M 303 3981 
L 303 4522 
L 3269 4522 
L 3269 4084 
Q 2831 3619 2401 2847 
Q 1972 2075 1738 1259 
Q 1569 684 1522 0 
L 944 0 
Q 953 541 1156 1306 
Q 1359 2072 1739 2783 
Q 2119 3494 2547 3981 
L 303 3981 
z
" transform="scale(0.015625)"/>
        <path id="ArialMT-30" d="M 266 2259 
Q 266 3072 433 3567 
Q 600 4063 929 4331 
Q 1259 4600 1759 4600 
Q 2128 4600 2406 4451 
Q 2684 4303 2865 4023 
Q 3047 3744 3150 3342 
Q 3253 2941 3253 2259 
Q 3253 1453 3087 958 
Q 2922 463 2592 192 
Q 2263 -78 1759 -78 
Q 1097 -78 719 397 
Q 266 969 266 2259 
z
M 844 2259 
Q 844 1131 1108 757 
Q 1372 384 1759 384 
Q 2147 384 2411 759 
Q 2675 1134 2675 2259 
Q 2675 3391 2411 3762 
Q 2147 4134 1753 4134 
Q 1366 4134 1134 3806 
Q 844 3388 844 2259 
z
" transform="scale(0.015625)"/>
       </defs>
       <use xlink:href="#ArialMT-31"/>
       <use xlink:href="#ArialMT-39" x="55.615234"/>
       <use xlink:href="#ArialMT-37" x="111.230469"/>
       <use xlink:href="#ArialMT-30" x="166.845703"/>
      </g>
     </g>
    </g>
    <g id="xtick_2">
     <g id="text_2">
      <!-- 1980 -->
      <g style="fill: #262626" transform="translate(111.310012 331.877812) scale(0.1 -0.1)">
       <defs>
        <path id="ArialMT-38" d="M 1131 2484 
Q 781 2613 612 2850 
Q 444 3088 444 3419 
Q 444 3919 803 4259 
Q 1163 4600 1759 4600 
Q 2359 4600 2725 4251 
Q 3091 3903 3091 3403 
Q 3091 3084 2923 2848 
Q 2756 2613 2416 2484 
Q 2838 2347 3058 2040 
Q 3278 1734 3278 1309 
Q 3278 722 2862 322 
Q 2447 -78 1769 -78 
Q 1091 -78 675 323 
Q 259 725 259 1325 
Q 259 1772 486 2073 
Q 713 2375 1131 2484 
z
M 1019 3438 
Q 1019 3113 1228 2906 
Q 1438 2700 1772 2700 
Q 2097 2700 2305 2904 
Q 2513 3109 2513 3406 
Q 2513 3716 2298 3927 
Q 2084 4138 1766 4138 
Q 1444 4138 1231 3931 
Q 1019 3725 1019 3438 
z
M 838 1322 
Q 838 1081 952 856 
Q 1066 631 1291 507 
Q 1516 384 1775 384 
Q 2178 384 2440 643 
Q 2703 903 2703 1303 
Q 2703 1709 2433 1975 
Q 2163 2241 1756 2241 
Q 1359 2241 1098 1978 
Q 838 1716 838 1322 
z
" transform="scale(0.015625)"/>
       </defs>
       <use xlink:href="#ArialMT-31"/>
       <use xlink:href="#ArialMT-39" x="55.615234"/>
       <use xlink:href="#ArialMT-38" x="111.230469"/>
       <use xlink:href="#ArialMT-30" x="166.845703"/>
      </g>
     </g>
    </g>
    <g id="xtick_3">
     <g id="text_3">
      <!-- 1990 -->
      <g style="fill: #262626" transform="translate(183.066444 331.877812) scale(0.1 -0.1)">
       <use xlink:href="#ArialMT-31"/>
       <use xlink:href="#ArialMT-39" x="55.615234"/>
       <use xlink:href="#ArialMT-39" x="111.230469"/>
       <use xlink:href="#ArialMT-30" x="166.845703"/>
      </g>
     </g>
    </g>
    <g id="xtick_4">
     <g id="text_4">
      <!-- 2000 -->
      <g style="fill: #262626" transform="translate(254.822876 331.877812) scale(0.1 -0.1)">
       <defs>
        <path id="ArialMT-32" d="M 3222 541 
L 3222 0 
L 194 0 
Q 188 203 259 391 
Q 375 700 629 1000 
Q 884 1300 1366 1694 
Q 2113 2306 2375 2664 
Q 2638 3022 2638 3341 
Q 2638 3675 2398 3904 
Q 2159 4134 1775 4134 
Q 1369 4134 1125 3890 
Q 881 3647 878 3216 
L 300 3275 
Q 359 3922 746 4261 
Q 1134 4600 1788 4600 
Q 2447 4600 2831 4234 
Q 3216 3869 3216 3328 
Q 3216 3053 3103 2787 
Q 2991 2522 2730 2228 
Q 2469 1934 1863 1422 
Q 1356 997 1212 845 
Q 1069 694 975 541 
L 3222 541 
z
" transform="scale(0.015625)"/>
       </defs>
       <use xlink:href="#ArialMT-32"/>
       <use xlink:href="#ArialMT-30" x="55.615234"/>
       <use xlink:href="#ArialMT-30" x="111.230469"/>
       <use xlink:href="#ArialMT-30" x="166.845703"/>
      </g>
     </g>
    </g>
    <g id="xtick_5">
     <g id="text_5">
      <!-- 2010 -->
      <g style="fill: #262626" transform="translate(326.579309 331.877812) scale(0.1 -0.1)">
       <use xlink:href="#ArialMT-32"/>
       <use xlink:href="#ArialMT-30" x="55.615234"/>
       <use xlink:href="#ArialMT-31" x="111.230469"/>
       <use xlink:href="#ArialMT-30" x="166.845703"/>
      </g>
     </g>
    </g>
    <g id="xtick_6">
     <g id="text_6">
      <!-- 2020 -->
      <g style="fill: #262626" transform="translate(398.335741 331.877812) scale(0.1 -0.1)">
       <use xlink:href="#ArialMT-32"/>
       <use xlink:href="#ArialMT-30" x="55.615234"/>
       <use xlink:href="#ArialMT-32" x="111.230469"/>
       <use xlink:href="#ArialMT-30" x="166.845703"/>
      </g>
     </g>
    </g>
   </g>
   <g id="matplotlib.axis_2">
    <g id="ytick_1">
     <g id="text_7">
      <!-- 5.8 -->
      <g style="fill: #262626" transform="translate(10.76 307.963647) scale(0.1 -0.1)">
       <defs>
        <path id="ArialMT-35" d="M 266 1200 
L 856 1250 
Q 922 819 1161 601 
Q 1400 384 1738 384 
Q 2144 384 2425 690 
Q 2706 997 2706 1503 
Q 2706 1984 2436 2262 
Q 2166 2541 1728 2541 
Q 1456 2541 1237 2417 
Q 1019 2294 894 2097 
L 366 2166 
L 809 4519 
L 3088 4519 
L 3088 3981 
L 1259 3981 
L 1013 2750 
Q 1425 3038 1878 3038 
Q 2478 3038 2890 2622 
Q 3303 2206 3303 1553 
Q 3303 931 2941 478 
Q 2500 -78 1738 -78 
Q 1113 -78 717 272 
Q 322 622 266 1200 
z
" transform="scale(0.015625)"/>
        <path id="ArialMT-2e" d="M 581 0 
L 581 641 
L 1222 641 
L 1222 0 
L 581 0 
z
" transform="scale(0.015625)"/>
       </defs>
       <use xlink:href="#ArialMT-35"/>
       <use xlink:href="#ArialMT-2e" x="55.615234"/>
       <use xlink:href="#ArialMT-38" x="83.398438"/>
      </g>
     </g>
    </g>
    <g id="ytick_2">
     <g id="text_8">
      <!-- 6.0 -->
      <g style="fill: #262626" transform="translate(10.76 271.049005) scale(0.1 -0.1)">
       <defs>
        <path id="ArialMT-36" d="M 3184 3459 
L 2625 3416 
Q 2550 3747 2413 3897 
Q 2184 4138 1850 4138 
Q 1581 4138 1378 3988 
Q 1113 3794 959 3422 
Q 806 3050 800 2363 
Q 1003 2672 1297 2822 
Q 1591 2972 1913 2972 
Q 2475 2972 2870 2558 
Q 3266 2144 3266 1488 
Q 3266 1056 3080 686 
Q 2894 316 2569 119 
Q 2244 -78 1831 -78 
Q 1128 -78 684 439 
Q 241 956 241 2144 
Q 241 3472 731 4075 
Q 1159 4600 1884 4600 
Q 2425 4600 2770 4297 
Q 3116 3994 3184 3459 
z
M 888 1484 
Q 888 1194 1011 928 
Q 1134 663 1356 523 
Q 1578 384 1822 384 
Q 2178 384 2434 671 
Q 2691 959 2691 1453 
Q 2691 1928 2437 2201 
Q 2184 2475 1800 2475 
Q 1419 2475 1153 2201 
Q 888 1928 888 1484 
z
" transform="scale(0.015625)"/>
       </defs>
       <use xlink:href="#ArialMT-36"/>
       <use xlink:href="#ArialMT-2e" x="55.615234"/>
       <use xlink:href="#ArialMT-30" x="83.398438"/>
      </g>
     </g>
    </g>
    <g id="ytick_3">
     <g id="text_9">
      <!-- 6.2 -->
      <g style="fill: #262626" transform="translate(10.76 234.134362) scale(0.1 -0.1)">
       <use xlink:href="#ArialMT-36"/>
       <use xlink:href="#ArialMT-2e" x="55.615234"/>
       <use xlink:href="#ArialMT-32" x="83.398438"/>
      </g>
     </g>
    </g>
    <g id="ytick_4">
     <g id="text_10">
      <!-- 6.4 -->
      <g style="fill: #262626" transform="translate(10.76 197.21972) scale(0.1 -0.1)">
       <defs>
        <path id="ArialMT-34" d="M 2069 0 
L 2069 1097 
L 81 1097 
L 81 1613 
L 2172 4581 
L 2631 4581 
L 2631 1613 
L 3250 1613 
L 3250 1097 
L 2631 1097 
L 2631 0 
L 2069 0 
z
M 2069 1613 
L 2069 3678 
L 634 1613 
L 2069 1613 
z
" transform="scale(0.015625)"/>
       </defs>
       <use xlink:href="#ArialMT-36"/>
       <use xlink:href="#ArialMT-2e" x="55.615234"/>
       <use xlink:href="#ArialMT-34" x="83.398438"/>
      </g>
     </g>
    </g>
    <g id="ytick_5">
     <g id="text_11">
      <!-- 6.6 -->
      <g style="fill: #262626" transform="translate(10.76 160.305078) scale(0.1 -0.1)">
       <use xlink:href="#ArialMT-36"/>
       <use xlink:href="#ArialMT-2e" x="55.615234"/>
       <use xlink:href="#ArialMT-36" x="83.398438"/>
      </g>
     </g>
    </g>
    <g id="ytick_6">
     <g id="text_12">
      <!-- 6.8 -->
      <g style="fill: #262626" transform="translate(10.76 123.390435) scale(0.1 -0.1)">
       <use xlink:href="#ArialMT-36"/>
       <use xlink:href="#ArialMT-2e" x="55.615234"/>
       <use xlink:href="#ArialMT-38" x="83.398438"/>
      </g>
     </g>
    </g>
    <g id="ytick_7">
     <g id="text_13">
      <!-- 7.0 -->
      <g style="fill: #262626" transform="translate(10.76 86.475793) scale(0.1 -0.1)">
       <use xlink:href="#ArialMT-37"/>
       <use xlink:href="#ArialMT-2e" x="55.615234"/>
       <use xlink:href="#ArialMT-30" x="83.398438"/>
      </g>
     </g>
    </g>
    <g id="ytick_8">
     <g id="text_14">
      <!-- 7.2 -->
      <g style="fill: #262626" transform="translate(10.76 49.56115) scale(0.1 -0.1)">
       <use xlink:href="#ArialMT-37"/>
       <use xlink:href="#ArialMT-2e" x="55.615234"/>
       <use xlink:href="#ArialMT-32" x="83.398438"/>
      </g>
     </g>
    </g>
   </g>
   <g id="PathCollection_1">
    <path d="M 50.675455 256.538382 
C 51.238603 256.538382 51.778763 256.314641 52.176969 255.916435 
C 52.575175 255.518228 52.798917 254.978069 52.798917 254.41492 
C 52.798917 253.851772 52.575175 253.311612 52.176969 252.913406 
C 51.778763 252.5152 51.238603 252.291458 50.675455 252.291458 
C 50.112306 252.291458 49.572146 252.5152 49.17394 252.913406 
C 48.775734 253.311612 48.551993 253.851772 48.551993 254.41492 
C 48.551993 254.978069 48.775734 255.518228 49.17394 255.916435 
C 49.572146 256.314641 50.112306 256.538382 50.675455 256.538382 
z
" clip-path="url(#p8afa269ee3)" style="fill: #800080; stroke: #ffffff; stroke-width: 0.354208"/>
    <path d="M 57.851098 249.057649 
C 58.413679 249.057649 58.953293 248.834133 59.351098 248.436329 
C 59.748902 248.038524 59.972418 247.49891 59.972418 246.936329 
C 59.972418 246.373748 59.748902 245.834133 59.351098 245.436329 
C 58.953293 245.038524 58.413679 244.815008 57.851098 244.815008 
C 57.288517 244.815008 56.748902 245.038524 56.351098 245.436329 
C 55.953293 245.834133 55.729777 246.373748 55.729777 246.936329 
C 55.729777 247.49891 55.953293 248.038524 56.351098 248.436329 
C 56.748902 248.834133 57.288517 249.057649 57.851098 249.057649 
z
" clip-path="url(#p8afa269ee3)" style="fill: #800080; stroke: #ffffff; stroke-width: 0.354208"/>
    <path d="M 65.026741 266.415956 
C 65.605567 266.415956 66.160763 266.185986 66.570055 265.776694 
C 66.979347 265.367402 67.209317 264.812206 67.209317 264.23338 
C 67.209317 263.654554 66.979347 263.099358 66.570055 262.690066 
C 66.160763 262.280774 65.605567 262.050804 65.026741 262.050804 
C 64.447915 262.050804 63.892719 262.280774 63.483427 262.690066 
C 63.074135 263.099358 62.844165 263.654554 62.844165 264.23338 
C 62.844165 264.812206 63.074135 265.367402 63.483427 265.776694 
C 63.892719 266.185986 64.447915 266.415956 65.026741 266.415956 
z
" clip-path="url(#p8afa269ee3)" style="fill: #800080; stroke: #ffffff; stroke-width: 0.354208"/>
    <path d="M 72.202384 279.484429 
C 72.784514 279.484429 73.342881 279.253146 73.754509 278.841518 
C 74.166137 278.42989 74.39742 277.871524 74.39742 277.289394 
C 74.39742 276.707263 74.166137 276.148897 73.754509 275.737269 
C 73.342881 275.325641 72.784514 275.094358 72.202384 275.094358 
C 71.620254 275.094358 71.061888 275.325641 70.65026 275.737269 
C 70.238631 276.148897 70.007348 276.707263 70.007348 277.289394 
C 70.007348 277.871524 70.238631 278.42989 70.65026 278.841518 
C 71.061888 279.253146 71.620254 279.484429 72.202384 279.484429 
z
" clip-path="url(#p8afa269ee3)" style="fill: #800080; stroke: #ffffff; stroke-width: 0.354208"/>
    <path d="M 79.378027 249.461295 
C 79.960707 249.461295 80.519599 249.229794 80.931616 248.817777 
C 81.343632 248.405761 81.575133 247.846868 81.575133 247.264189 
C 81.575133 246.68151 81.343632 246.122617 80.931616 245.710601 
C 80.519599 245.298584 79.960707 245.067084 79.378027 245.067084 
C 78.795348 245.067084 78.236456 245.298584 77.824439 245.710601 
C 77.412423 246.122617 77.180922 246.68151 77.180922 247.264189 
C 77.180922 247.846868 77.412423 248.405761 77.824439 248.817777 
C 78.236456 249.229794 78.795348 249.461295 79.378027 249.461295 
z
" clip-path="url(#p8afa269ee3)" style="fill: #800080; stroke: #ffffff; stroke-width: 0.354208"/>
    <path d="M 86.553671 252.962795 
C 87.162641 252.962795 87.746752 252.720849 88.177359 252.290242 
C 88.607966 251.859635 88.849913 251.275524 88.849913 250.666553 
C 88.849913 250.057583 88.607966 249.473472 88.177359 249.042865 
C 87.746752 248.612258 87.162641 248.370311 86.553671 248.370311 
C 85.9447 248.370311 85.36059 248.612258 84.929982 249.042865 
C 84.499375 249.473472 84.257429 250.057583 84.257429 250.666553 
C 84.257429 251.275524 84.499375 251.859635 84.929982 252.290242 
C 85.36059 252.720849 85.9447 252.962795 86.553671 252.962795 
z
" clip-path="url(#p8afa269ee3)" style="fill: #800080; stroke: #ffffff; stroke-width: 0.354208"/>
    <path d="M 93.729314 248.323366 
C 94.308692 248.323366 94.864418 248.093177 95.2741 247.683495 
C 95.683782 247.273813 95.913971 246.718087 95.913971 246.138709 
C 95.913971 245.559331 95.683782 245.003605 95.2741 244.593923 
C 94.864418 244.184241 94.308692 243.954052 93.729314 243.954052 
C 93.149936 243.954052 92.59421 244.184241 92.184528 244.593923 
C 91.774846 245.003605 91.544657 245.559331 91.544657 246.138709 
C 91.544657 246.718087 91.774846 247.273813 92.184528 247.683495 
C 92.59421 248.093177 93.149936 248.323366 93.729314 248.323366 
z
" clip-path="url(#p8afa269ee3)" style="fill: #800080; stroke: #ffffff; stroke-width: 0.354208"/>
    <path d="M 100.904957 249.058373 
C 101.507064 249.058373 102.084592 248.819154 102.510346 248.3934 
C 102.9361 247.967646 103.17532 247.390118 103.17532 246.788011 
C 103.17532 246.185904 102.9361 245.608376 102.510346 245.182622 
C 102.084592 244.756868 101.507064 244.517649 100.904957 244.517649 
C 100.30285 244.517649 99.725323 244.756868 99.299568 245.182622 
C 98.873814 245.608376 98.634595 246.185904 98.634595 246.788011 
C 98.634595 247.390118 98.873814 247.967646 99.299568 248.3934 
C 99.725323 248.819154 100.30285 249.058373 100.904957 249.058373 
z
" clip-path="url(#p8afa269ee3)" style="fill: #800080; stroke: #ffffff; stroke-width: 0.354208"/>
    <path d="M 108.0806 260.529549 
C 108.67791 260.529549 109.250835 260.292236 109.673197 259.869874 
C 110.095558 259.447512 110.332872 258.874587 110.332872 258.277277 
C 110.332872 257.679968 110.095558 257.107043 109.673197 256.684681 
C 109.250835 256.262319 108.67791 256.025006 108.0806 256.025006 
C 107.483291 256.025006 106.910365 256.262319 106.488004 256.684681 
C 106.065642 257.107043 105.828329 257.679968 105.828329 258.277277 
C 105.828329 258.874587 106.065642 259.447512 106.488004 259.869874 
C 106.910365 260.292236 107.483291 260.529549 108.0806 260.529549 
z
" clip-path="url(#p8afa269ee3)" style="fill: #800080; stroke: #ffffff; stroke-width: 0.354208"/>
    <path d="M 115.256244 219.047673 
C 115.872001 219.047673 116.462621 218.80303 116.898028 218.367624 
C 117.333434 217.932218 117.578077 217.341598 117.578077 216.72584 
C 117.578077 216.110083 117.333434 215.519462 116.898028 215.084056 
C 116.462621 214.64865 115.872001 214.404007 115.256244 214.404007 
C 114.640486 214.404007 114.049866 214.64865 113.61446 215.084056 
C 113.179053 215.519462 112.93441 216.110083 112.93441 216.72584 
C 112.93441 217.341598 113.179053 217.932218 113.61446 218.367624 
C 114.049866 218.80303 114.640486 219.047673 115.256244 219.047673 
z
" clip-path="url(#p8afa269ee3)" style="fill: #800080; stroke: #ffffff; stroke-width: 0.354208"/>
    <path d="M 122.431887 230.949867 
C 123.044521 230.949867 123.632146 230.706465 124.065344 230.273267 
C 124.498542 229.840069 124.741944 229.252444 124.741944 228.63981 
C 124.741944 228.027176 124.498542 227.439551 124.065344 227.006353 
C 123.632146 226.573155 123.044521 226.329753 122.431887 226.329753 
C 121.819252 226.329753 121.231628 226.573155 120.79843 227.006353 
C 120.365232 227.439551 120.12183 228.027176 120.12183 228.63981 
C 120.12183 229.252444 120.365232 229.840069 120.79843 230.273267 
C 121.231628 230.706465 121.819252 230.949867 122.431887 230.949867 
z
" clip-path="url(#p8afa269ee3)" style="fill: #800080; stroke: #ffffff; stroke-width: 0.354208"/>
    <path d="M 129.60753 251.965615 
C 130.234605 251.965615 130.836082 251.716475 131.279491 251.273066 
C 131.722901 250.829657 131.97204 250.22818 131.97204 249.601105 
C 131.97204 248.974029 131.722901 248.372553 131.279491 247.929143 
C 130.836082 247.485734 130.234605 247.236594 129.60753 247.236594 
C 128.980455 247.236594 128.378978 247.485734 127.935569 247.929143 
C 127.492159 248.372553 127.24302 248.974029 127.24302 249.601105 
C 127.24302 250.22818 127.492159 250.829657 127.935569 251.273066 
C 128.378978 251.716475 128.980455 251.965615 129.60753 251.965615 
z
" clip-path="url(#p8afa269ee3)" style="fill: #800080; stroke: #ffffff; stroke-width: 0.354208"/>
    <path d="M 136.783173 255.809307 
C 137.397891 255.809307 137.987515 255.565076 138.422186 255.130405 
C 138.856858 254.695734 139.101088 254.10611 139.101088 253.491392 
C 139.101088 252.876674 138.856858 252.28705 138.422186 251.852379 
C 137.987515 251.417708 137.397891 251.173478 136.783173 251.173478 
C 136.168455 251.173478 135.578832 251.417708 135.14416 251.852379 
C 134.709489 252.28705 134.465259 252.876674 134.465259 253.491392 
C 134.465259 254.10611 134.709489 254.695734 135.14416 255.130405 
C 135.578832 255.565076 136.168455 255.809307 136.783173 255.809307 
z
" clip-path="url(#p8afa269ee3)" style="fill: #800080; stroke: #ffffff; stroke-width: 0.354208"/>
    <path d="M 143.958816 250.787143 
C 144.579229 250.787143 145.174314 250.540651 145.613012 250.101953 
C 146.05171 249.663255 146.298203 249.06817 146.298203 248.447757 
C 146.298203 247.827345 146.05171 247.232259 145.613012 246.793562 
C 145.174314 246.354864 144.579229 246.108371 143.958816 246.108371 
C 143.338404 246.108371 142.743319 246.354864 142.304621 246.793562 
C 141.865923 247.232259 141.61943 247.827345 141.61943 248.447757 
C 141.61943 249.06817 141.865923 249.663255 142.304621 250.101953 
C 142.743319 250.540651 143.338404 250.787143 143.958816 250.787143 
z
" clip-path="url(#p8afa269ee3)" style="fill: #800080; stroke: #ffffff; stroke-width: 0.354208"/>
    <path d="M 151.13446 284.481205 
C 151.734439 284.481205 152.309926 284.242831 152.734176 283.818581 
C 153.158425 283.394332 153.3968 282.818845 153.3968 282.218866 
C 153.3968 281.618886 153.158425 281.043399 152.734176 280.61915 
C 152.309926 280.1949 151.734439 279.956526 151.13446 279.956526 
C 150.53448 279.956526 149.958993 280.1949 149.534744 280.61915 
C 149.110494 281.043399 148.87212 281.618886 148.87212 282.218866 
C 148.87212 282.818845 149.110494 283.394332 149.534744 283.818581 
C 149.958993 284.242831 150.53448 284.481205 151.13446 284.481205 
z
" clip-path="url(#p8afa269ee3)" style="fill: #800080; stroke: #ffffff; stroke-width: 0.354208"/>
    <path d="M 158.310103 250.066237 
C 158.925341 250.066237 159.515463 249.821801 159.950502 249.386762 
C 160.385541 248.951723 160.629978 248.361601 160.629978 247.746363 
C 160.629978 247.131125 160.385541 246.541003 159.950502 246.105964 
C 159.515463 245.670925 158.925341 245.426488 158.310103 245.426488 
C 157.694865 245.426488 157.104743 245.670925 156.669704 246.105964 
C 156.234665 246.541003 155.990228 247.131125 155.990228 247.746363 
C 155.990228 248.361601 156.234665 248.951723 156.669704 249.386762 
C 157.104743 249.821801 157.694865 250.066237 158.310103 250.066237 
z
" clip-path="url(#p8afa269ee3)" style="fill: #800080; stroke: #ffffff; stroke-width: 0.354208"/>
    <path d="M 165.485746 261.296312 
C 166.110779 261.296312 166.710296 261.047984 167.152261 260.606019 
C 167.594226 260.164054 167.842554 259.564536 167.842554 258.939503 
C 167.842554 258.314471 167.594226 257.714953 167.152261 257.272988 
C 166.710296 256.831023 166.110779 256.582695 165.485746 256.582695 
C 164.860713 256.582695 164.261196 256.831023 163.819231 257.272988 
C 163.377266 257.714953 163.128938 258.314471 163.128938 258.939503 
C 163.128938 259.564536 163.377266 260.164054 163.819231 260.606019 
C 164.261196 261.047984 164.860713 261.296312 165.485746 261.296312 
z
" clip-path="url(#p8afa269ee3)" style="fill: #800080; stroke: #ffffff; stroke-width: 0.354208"/>
    <path d="M 172.661389 274.044415 
C 173.28077 274.044415 173.874867 273.798332 174.312835 273.360364 
C 174.750804 272.922395 174.996886 272.328299 174.996886 271.708918 
C 174.996886 271.089537 174.750804 270.495441 174.312835 270.057472 
C 173.874867 269.619504 173.28077 269.373421 172.661389 269.373421 
C 172.042008 269.373421 171.447912 269.619504 171.009944 270.057472 
C 170.571975 270.495441 170.325893 271.089537 170.325893 271.708918 
C 170.325893 272.328299 170.571975 272.922395 171.009944 273.360364 
C 171.447912 273.798332 172.042008 274.044415 172.661389 274.044415 
z
" clip-path="url(#p8afa269ee3)" style="fill: #800080; stroke: #ffffff; stroke-width: 0.354208"/>
    <path d="M 179.837033 306.764801 
C 180.454346 306.764801 181.046458 306.51954 181.482964 306.083034 
C 181.91947 305.646528 182.164731 305.054415 182.164731 304.437102 
C 182.164731 303.819789 181.91947 303.227677 181.482964 302.791171 
C 181.046458 302.354664 180.454346 302.109403 179.837033 302.109403 
C 179.21972 302.109403 178.627607 302.354664 178.191101 302.791171 
C 177.754595 303.227677 177.509334 303.819789 177.509334 304.437102 
C 177.509334 305.054415 177.754595 305.646528 178.191101 306.083034 
C 178.627607 306.51954 179.21972 306.764801 179.837033 306.764801 
z
" clip-path="url(#p8afa269ee3)" style="fill: #800080; stroke: #ffffff; stroke-width: 0.354208"/>
    <path d="M 187.012676 279.98205 
C 187.629989 279.98205 188.222101 279.736789 188.658607 279.300283 
C 189.095114 278.863777 189.340375 278.271664 189.340375 277.654351 
C 189.340375 277.037038 189.095114 276.444926 188.658607 276.008419 
C 188.222101 275.571913 187.629989 275.326652 187.012676 275.326652 
C 186.395363 275.326652 185.80325 275.571913 185.366744 276.008419 
C 184.930238 276.444926 184.684977 277.037038 184.684977 277.654351 
C 184.684977 278.271664 184.930238 278.863777 185.366744 279.300283 
C 185.80325 279.736789 186.395363 279.98205 187.012676 279.98205 
z
" clip-path="url(#p8afa269ee3)" style="fill: #800080; stroke: #ffffff; stroke-width: 0.354208"/>
    <path d="M 194.188319 267.967337 
C 194.81284 267.967337 195.411867 267.719213 195.85347 267.277609 
C 196.295073 266.836006 196.543198 266.23698 196.543198 265.612459 
C 196.543198 264.987937 196.295073 264.388911 195.85347 263.947308 
C 195.411867 263.505705 194.81284 263.25758 194.188319 263.25758 
C 193.563798 263.25758 192.964771 263.505705 192.523168 263.947308 
C 192.081565 264.388911 191.83344 264.987937 191.83344 265.612459 
C 191.83344 266.23698 192.081565 266.836006 192.523168 267.277609 
C 192.964771 267.719213 193.563798 267.967337 194.188319 267.967337 
z
" clip-path="url(#p8afa269ee3)" style="fill: #800080; stroke: #ffffff; stroke-width: 0.354208"/>
    <path d="M 201.363962 276.517384 
C 202.001153 276.517384 202.612331 276.264226 203.062892 275.813664 
C 203.513454 275.363103 203.766612 274.751925 203.766612 274.114734 
C 203.766612 273.477544 203.513454 272.866366 203.062892 272.415804 
C 202.612331 271.965243 202.001153 271.712084 201.363962 271.712084 
C 200.726772 271.712084 200.115594 271.965243 199.665032 272.415804 
C 199.214471 272.866366 198.961312 273.477544 198.961312 274.114734 
C 198.961312 274.751925 199.214471 275.363103 199.665032 275.813664 
C 200.115594 276.264226 200.726772 276.517384 201.363962 276.517384 
z
" clip-path="url(#p8afa269ee3)" style="fill: #800080; stroke: #ffffff; stroke-width: 0.354208"/>
    <path d="M 208.539605 239.72174 
C 209.192654 239.72174 209.819042 239.462281 210.280817 239.000506 
C 210.742592 238.538732 211.002051 237.912343 211.002051 237.259295 
C 211.002051 236.606246 210.742592 235.979858 210.280817 235.518083 
C 209.819042 235.056308 209.192654 234.796849 208.539605 234.796849 
C 207.886557 234.796849 207.260169 235.056308 206.798394 235.518083 
C 206.336619 235.979858 206.07716 236.606246 206.07716 237.259295 
C 206.07716 237.912343 206.336619 238.538732 206.798394 239.000506 
C 207.260169 239.462281 207.886557 239.72174 208.539605 239.72174 
z
" clip-path="url(#p8afa269ee3)" style="fill: #800080; stroke: #ffffff; stroke-width: 0.354208"/>
    <path d="M 215.715249 258.980212 
C 216.360912 258.980212 216.980217 258.723687 217.43677 258.267135 
C 217.893323 257.810582 218.149848 257.191276 218.149848 256.545613 
C 218.149848 255.89995 217.893323 255.280644 217.43677 254.824092 
C 216.980217 254.367539 216.360912 254.111014 215.715249 254.111014 
C 215.069585 254.111014 214.45028 254.367539 213.993727 254.824092 
C 213.537174 255.280644 213.28065 255.89995 213.28065 256.545613 
C 213.28065 257.191276 213.537174 257.810582 213.993727 258.267135 
C 214.45028 258.723687 215.069585 258.980212 215.715249 258.980212 
z
" clip-path="url(#p8afa269ee3)" style="fill: #800080; stroke: #ffffff; stroke-width: 0.354208"/>
    <path d="M 222.890892 261.824431 
C 223.533577 261.824431 224.150027 261.56909 224.604474 261.114642 
C 225.058921 260.660195 225.314263 260.043746 225.314263 259.40106 
C 225.314263 258.758375 225.058921 258.141925 224.604474 257.687478 
C 224.150027 257.233031 223.533577 256.977689 222.890892 256.977689 
C 222.248206 256.977689 221.631757 257.233031 221.17731 257.687478 
C 220.722863 258.141925 220.467521 258.758375 220.467521 259.40106 
C 220.467521 260.043746 220.722863 260.660195 221.17731 261.114642 
C 221.631757 261.56909 222.248206 261.824431 222.890892 261.824431 
z
" clip-path="url(#p8afa269ee3)" style="fill: #800080; stroke: #ffffff; stroke-width: 0.354208"/>
    <path d="M 230.066535 243.290359 
C 230.725432 243.290359 231.35743 243.028576 231.82334 242.562666 
C 232.28925 242.096756 232.551033 241.464758 232.551033 240.805861 
C 232.551033 240.146965 232.28925 239.514967 231.82334 239.049056 
C 231.35743 238.583146 230.725432 238.321364 230.066535 238.321364 
C 229.407639 238.321364 228.77564 238.583146 228.30973 239.049056 
C 227.84382 239.514967 227.582038 240.146965 227.582038 240.805861 
C 227.582038 241.464758 227.84382 242.096756 228.30973 242.562666 
C 228.77564 243.028576 229.407639 243.290359 230.066535 243.290359 
z
" clip-path="url(#p8afa269ee3)" style="fill: #800080; stroke: #ffffff; stroke-width: 0.354208"/>
    <path d="M 237.242178 281.514199 
C 237.902529 281.514199 238.535922 281.251839 239.00286 280.784901 
C 239.469798 280.317963 239.732158 279.684569 239.732158 279.024219 
C 239.732158 278.363869 239.469798 277.730476 239.00286 277.263537 
C 238.535922 276.796599 237.902529 276.534239 237.242178 276.534239 
C 236.581828 276.534239 235.948435 276.796599 235.481497 277.263537 
C 235.014558 277.730476 234.752198 278.363869 234.752198 279.024219 
C 234.752198 279.684569 235.014558 280.317963 235.481497 280.784901 
C 235.948435 281.251839 236.581828 281.514199 237.242178 281.514199 
z
" clip-path="url(#p8afa269ee3)" style="fill: #800080; stroke: #ffffff; stroke-width: 0.354208"/>
    <path d="M 244.417822 251.778678 
C 245.083476 251.778678 245.721957 251.514211 246.192646 251.043522 
C 246.663334 250.572833 246.927802 249.934353 246.927802 249.268698 
C 246.927802 248.603044 246.663334 247.964563 246.192646 247.493874 
C 245.721957 247.023186 245.083476 246.758718 244.417822 246.758718 
C 243.752167 246.758718 243.113686 247.023186 242.642998 247.493874 
C 242.172309 247.964563 241.907842 248.603044 241.907842 249.268698 
C 241.907842 249.934353 242.172309 250.572833 242.642998 251.043522 
C 243.113686 251.514211 243.752167 251.778678 244.417822 251.778678 
z
" clip-path="url(#p8afa269ee3)" style="fill: #800080; stroke: #ffffff; stroke-width: 0.354208"/>
    <path d="M 251.593465 276.870114 
C 252.269603 276.870114 252.918139 276.601482 253.39624 276.12338 
C 253.874342 275.645278 254.142975 274.996742 254.142975 274.320604 
C 254.142975 273.644467 253.874342 272.99593 253.39624 272.517829 
C 252.918139 272.039727 252.269603 271.771095 251.593465 271.771095 
C 250.917327 271.771095 250.268791 272.039727 249.790689 272.517829 
C 249.312588 272.99593 249.043955 273.644467 249.043955 274.320604 
C 249.043955 274.996742 249.312588 275.645278 249.790689 276.12338 
C 250.268791 276.601482 250.917327 276.870114 251.593465 276.870114 
z
" clip-path="url(#p8afa269ee3)" style="fill: #800080; stroke: #ffffff; stroke-width: 0.354208"/>
    <path d="M 258.769108 256.892328 
C 259.456035 256.892328 260.114919 256.619409 260.60065 256.133679 
C 261.08638 255.647948 261.359299 254.989064 261.359299 254.302137 
C 261.359299 253.61521 261.08638 252.956326 260.60065 252.470595 
C 260.114919 251.984865 259.456035 251.711946 258.769108 251.711946 
C 258.082181 251.711946 257.423297 251.984865 256.937566 252.470595 
C 256.451836 252.956326 256.178917 253.61521 256.178917 254.302137 
C 256.178917 254.989064 256.451836 255.647948 256.937566 256.133679 
C 257.423297 256.619409 258.082181 256.892328 258.769108 256.892328 
z
" clip-path="url(#p8afa269ee3)" style="fill: #800080; stroke: #ffffff; stroke-width: 0.354208"/>
    <path d="M 265.944751 274.719406 
C 266.642758 274.719406 267.312271 274.442085 267.805836 273.94852 
C 268.299401 273.454954 268.576723 272.785442 268.576723 272.087435 
C 268.576723 271.389428 268.299401 270.719916 267.805836 270.22635 
C 267.312271 269.732785 266.642758 269.455464 265.944751 269.455464 
C 265.246744 269.455464 264.577232 269.732785 264.083667 270.22635 
C 263.590101 270.719916 263.31278 271.389428 263.31278 272.087435 
C 263.31278 272.785442 263.590101 273.454954 264.083667 273.94852 
C 264.577232 274.442085 265.246744 274.719406 265.944751 274.719406 
z
" clip-path="url(#p8afa269ee3)" style="fill: #800080; stroke: #ffffff; stroke-width: 0.354208"/>
    <path d="M 273.120395 279.37163 
C 273.819774 279.37163 274.490603 279.093764 274.985139 278.599228 
C 275.479675 278.104692 275.757542 277.433863 275.757542 276.734483 
C 275.757542 276.035103 275.479675 275.364274 274.985139 274.869738 
C 274.490603 274.375202 273.819774 274.097336 273.120395 274.097336 
C 272.421015 274.097336 271.750186 274.375202 271.25565 274.869738 
C 270.761114 275.364274 270.483247 276.035103 270.483247 276.734483 
C 270.483247 277.433863 270.761114 278.104692 271.25565 278.599228 
C 271.750186 279.093764 272.421015 279.37163 273.120395 279.37163 
z
" clip-path="url(#p8afa269ee3)" style="fill: #800080; stroke: #ffffff; stroke-width: 0.354208"/>
    <path d="M 280.296038 273.908965 
C 281.013469 273.908965 281.701612 273.623926 282.208913 273.116626 
C 282.716213 272.609326 283.001252 271.921182 283.001252 271.203751 
C 283.001252 270.48632 282.716213 269.798176 282.208913 269.290876 
C 281.701612 268.783576 281.013469 268.498537 280.296038 268.498537 
C 279.578607 268.498537 278.890463 268.783576 278.383163 269.290876 
C 277.875862 269.798176 277.590824 270.48632 277.590824 271.203751 
C 277.590824 271.921182 277.875862 272.609326 278.383163 273.116626 
C 278.890463 273.623926 279.578607 273.908965 280.296038 273.908965 
z
" clip-path="url(#p8afa269ee3)" style="fill: #800080; stroke: #ffffff; stroke-width: 0.354208"/>
    <path d="M 287.471681 270.520014 
C 288.221789 270.520014 288.941275 270.221993 289.471681 269.691586 
C 290.002087 269.16118 290.300108 268.441694 290.300108 267.691586 
C 290.300108 266.941479 290.002087 266.221993 289.471681 265.691586 
C 288.941275 265.16118 288.221789 264.863159 287.471681 264.863159 
C 286.721573 264.863159 286.002087 265.16118 285.471681 265.691586 
C 284.941275 266.221993 284.643254 266.941479 284.643254 267.691586 
C 284.643254 268.441694 284.941275 269.16118 285.471681 269.691586 
C 286.002087 270.221993 286.721573 270.520014 287.471681 270.520014 
z
" clip-path="url(#p8afa269ee3)" style="fill: #800080; stroke: #ffffff; stroke-width: 0.354208"/>
    <path d="M 294.647324 255.890194 
C 295.434044 255.890194 296.188647 255.577627 296.744942 255.021332 
C 297.301237 254.465038 297.613804 253.710434 297.613804 252.923715 
C 297.613804 252.136995 297.301237 251.382392 296.744942 250.826097 
C 296.188647 250.269802 295.434044 249.957235 294.647324 249.957235 
C 293.860605 249.957235 293.106001 250.269802 292.549706 250.826097 
C 291.993412 251.382392 291.680845 252.136995 291.680845 252.923715 
C 291.680845 253.710434 291.993412 254.465038 292.549706 255.021332 
C 293.106001 255.577627 293.860605 255.890194 294.647324 255.890194 
z
" clip-path="url(#p8afa269ee3)" style="fill: #800080; stroke: #ffffff; stroke-width: 0.354208"/>
    <path d="M 301.822967 264.087686 
C 302.627766 264.087686 303.39971 263.767936 303.968788 263.198858 
C 304.537866 262.629779 304.857616 261.857835 304.857616 261.053037 
C 304.857616 260.248239 304.537866 259.476295 303.968788 258.907217 
C 303.39971 258.338138 302.627766 258.018389 301.822967 258.018389 
C 301.018169 258.018389 300.246225 258.338138 299.677147 258.907217 
C 299.108069 259.476295 298.788319 260.248239 298.788319 261.053037 
C 298.788319 261.857835 299.108069 262.629779 299.677147 263.198858 
C 300.246225 263.767936 301.018169 264.087686 301.822967 264.087686 
z
" clip-path="url(#p8afa269ee3)" style="fill: #800080; stroke: #ffffff; stroke-width: 0.354208"/>
    <path d="M 308.998611 264.50187 
C 309.796627 264.50187 310.562067 264.184814 311.12635 263.620531 
C 311.690632 263.056248 312.007688 262.290809 312.007688 261.492792 
C 312.007688 260.694776 311.690632 259.929336 311.12635 259.365054 
C 310.562067 258.800771 309.796627 258.483715 308.998611 258.483715 
C 308.200594 258.483715 307.435155 258.800771 306.870872 259.365054 
C 306.306589 259.929336 305.989533 260.694776 305.989533 261.492792 
C 305.989533 262.290809 306.306589 263.056248 306.870872 263.620531 
C 307.435155 264.184814 308.200594 264.50187 308.998611 264.50187 
z
" clip-path="url(#p8afa269ee3)" style="fill: #800080; stroke: #ffffff; stroke-width: 0.354208"/>
    <path d="M 316.174254 257.380988 
C 316.978655 257.380988 317.750218 257.061396 318.319015 256.492599 
C 318.887812 255.923802 319.207404 255.152239 319.207404 254.347838 
C 319.207404 253.543437 318.887812 252.771874 318.319015 252.203077 
C 317.750218 251.63428 316.978655 251.314688 316.174254 251.314688 
C 315.369853 251.314688 314.59829 251.63428 314.029493 252.203077 
C 313.460696 252.771874 313.141104 253.543437 313.141104 254.347838 
C 313.141104 255.152239 313.460696 255.923802 314.029493 256.492599 
C 314.59829 257.061396 315.369853 257.380988 316.174254 257.380988 
z
" clip-path="url(#p8afa269ee3)" style="fill: #800080; stroke: #ffffff; stroke-width: 0.354208"/>
    <path d="M 323.349897 229.587092 
C 324.174318 229.587092 324.965083 229.259546 325.548037 228.676592 
C 326.13099 228.093639 326.458536 227.302873 326.458536 226.478453 
C 326.458536 225.654032 326.13099 224.863266 325.548037 224.280313 
C 324.965083 223.697359 324.174318 223.369814 323.349897 223.369814 
C 322.525476 223.369814 321.734711 223.697359 321.151757 224.280313 
C 320.568804 224.863266 320.241258 225.654032 320.241258 226.478453 
C 320.241258 227.302873 320.568804 228.093639 321.151757 228.676592 
C 321.734711 229.259546 322.525476 229.587092 323.349897 229.587092 
z
" clip-path="url(#p8afa269ee3)" style="fill: #800080; stroke: #ffffff; stroke-width: 0.354208"/>
    <path d="M 330.52554 226.842488 
C 331.375545 226.842488 332.190851 226.504778 332.791895 225.903733 
C 333.392939 225.302689 333.73065 224.487384 333.73065 223.637379 
C 333.73065 222.787374 333.392939 221.972068 332.791895 221.371024 
C 332.190851 220.76998 331.375545 220.432269 330.52554 220.432269 
C 329.675535 220.432269 328.86023 220.76998 328.259186 221.371024 
C 327.658141 221.972068 327.320431 222.787374 327.320431 223.637379 
C 327.320431 224.487384 327.658141 225.302689 328.259186 225.903733 
C 328.86023 226.504778 329.675535 226.842488 330.52554 226.842488 
z
" clip-path="url(#p8afa269ee3)" style="fill: #800080; stroke: #ffffff; stroke-width: 0.354208"/>
    <path d="M 337.701184 207.228206 
C 338.574196 207.228206 339.411569 206.881354 340.028882 206.264041 
C 340.646195 205.646728 340.993047 204.809355 340.993047 203.936343 
C 340.993047 203.06333 340.646195 202.225957 340.028882 201.608644 
C 339.411569 200.991331 338.574196 200.644479 337.701184 200.644479 
C 336.828171 200.644479 335.990798 200.991331 335.373485 201.608644 
C 334.756172 202.225957 334.40932 203.06333 334.40932 203.936343 
C 334.40932 204.809355 334.756172 205.646728 335.373485 206.264041 
C 335.990798 206.881354 336.828171 207.228206 337.701184 207.228206 
z
" clip-path="url(#p8afa269ee3)" style="fill: #800080; stroke: #ffffff; stroke-width: 0.354208"/>
    <path d="M 344.876827 207.287553 
C 345.762924 207.287553 346.612848 206.935503 347.239414 206.308938 
C 347.865979 205.682372 348.21803 204.832448 348.21803 203.94635 
C 348.21803 203.060253 347.865979 202.210329 347.239414 201.583763 
C 346.612848 200.957198 345.762924 200.605148 344.876827 200.605148 
C 343.990729 200.605148 343.140805 200.957198 342.51424 201.583763 
C 341.887674 202.210329 341.535624 203.060253 341.535624 203.94635 
C 341.535624 204.832448 341.887674 205.682372 342.51424 206.308938 
C 343.140805 206.935503 343.990729 207.287553 344.876827 207.287553 
z
" clip-path="url(#p8afa269ee3)" style="fill: #800080; stroke: #ffffff; stroke-width: 0.354208"/>
    <path d="M 352.05247 208.366193 
C 352.972899 208.366193 353.855753 208.000503 354.506595 207.349661 
C 355.157436 206.69882 355.523126 205.815965 355.523126 204.895537 
C 355.523126 203.975108 355.157436 203.092254 354.506595 202.441412 
C 353.855753 201.790571 352.972899 201.42488 352.05247 201.42488 
C 351.132041 201.42488 350.249187 201.790571 349.598345 202.441412 
C 348.947504 203.092254 348.581814 203.975108 348.581814 204.895537 
C 348.581814 205.815965 348.947504 206.69882 349.598345 207.349661 
C 350.249187 208.000503 351.132041 208.366193 352.05247 208.366193 
z
" clip-path="url(#p8afa269ee3)" style="fill: #800080; stroke: #ffffff; stroke-width: 0.354208"/>
    <path d="M 359.228113 202.866906 
C 360.165407 202.866906 361.064437 202.494515 361.727204 201.831749 
C 362.389971 201.168982 362.762361 200.269952 362.762361 199.332658 
C 362.762361 198.395364 362.389971 197.496334 361.727204 196.833567 
C 361.064437 196.170801 360.165407 195.79841 359.228113 195.79841 
C 358.29082 195.79841 357.391789 196.170801 356.729022 196.833567 
C 356.066256 197.496334 355.693865 198.395364 355.693865 199.332658 
C 355.693865 200.269952 356.066256 201.168982 356.729022 201.831749 
C 357.391789 202.494515 358.29082 202.866906 359.228113 202.866906 
z
" clip-path="url(#p8afa269ee3)" style="fill: #800080; stroke: #ffffff; stroke-width: 0.354208"/>
    <path d="M 366.403756 200.897048 
C 367.389591 200.897048 368.335181 200.505372 369.032271 199.808282 
C 369.729362 199.111191 370.121038 198.165601 370.121038 197.179767 
C 370.121038 196.193932 369.729362 195.248342 369.032271 194.551252 
C 368.335181 193.854162 367.389591 193.462485 366.403756 193.462485 
C 365.417922 193.462485 364.472332 193.854162 363.775241 194.551252 
C 363.078151 195.248342 362.686475 196.193932 362.686475 197.179767 
C 362.686475 198.165601 363.078151 199.111191 363.775241 199.808282 
C 364.472332 200.505372 365.417922 200.897048 366.403756 200.897048 
z
" clip-path="url(#p8afa269ee3)" style="fill: #800080; stroke: #ffffff; stroke-width: 0.354208"/>
    <path d="M 373.5794 184.994214 
C 374.616131 184.994214 375.61054 184.582317 376.343619 183.849237 
C 377.076699 183.116158 377.488596 182.121749 377.488596 181.085018 
C 377.488596 180.048287 377.076699 179.053878 376.343619 178.320798 
C 375.61054 177.587719 374.616131 177.175821 373.5794 177.175821 
C 372.542669 177.175821 371.54826 177.587719 370.81518 178.320798 
C 370.082101 179.053878 369.670203 180.048287 369.670203 181.085018 
C 369.670203 182.121749 370.082101 183.116158 370.81518 183.849237 
C 371.54826 184.582317 372.542669 184.994214 373.5794 184.994214 
z
" clip-path="url(#p8afa269ee3)" style="fill: #800080; stroke: #ffffff; stroke-width: 0.354208"/>
    <path d="M 380.755043 173.930402 
C 381.839991 173.930402 382.880649 173.499348 383.647824 172.732173 
C 384.414998 171.964999 384.846053 170.924341 384.846053 169.839392 
C 384.846053 168.754444 384.414998 167.713786 383.647824 166.946611 
C 382.880649 166.179437 381.839991 165.748382 380.755043 165.748382 
C 379.670094 165.748382 378.629436 166.179437 377.862262 166.946611 
C 377.095087 167.713786 376.664033 168.754444 376.664033 169.839392 
C 376.664033 170.924341 377.095087 171.964999 377.862262 172.732173 
C 378.629436 173.499348 379.670094 173.930402 380.755043 173.930402 
z
" clip-path="url(#p8afa269ee3)" style="fill: #800080; stroke: #ffffff; stroke-width: 0.354208"/>
    <path d="M 387.930686 155.591218 
C 389.036358 155.591218 390.096893 155.151929 390.878721 154.370102 
C 391.660549 153.588274 392.099837 152.527738 392.099837 151.422067 
C 392.099837 150.316395 391.660549 149.25586 390.878721 148.474032 
C 390.096893 147.692204 389.036358 147.252916 387.930686 147.252916 
C 386.825014 147.252916 385.764479 147.692204 384.982651 148.474032 
C 384.200823 149.25586 383.761535 150.316395 383.761535 151.422067 
C 383.761535 152.527738 384.200823 153.588274 384.982651 154.370102 
C 385.764479 155.151929 386.825014 155.591218 387.930686 155.591218 
z
" clip-path="url(#p8afa269ee3)" style="fill: #800080; stroke: #ffffff; stroke-width: 0.354208"/>
    <path d="M 395.106329 140.118855 
C 396.223221 140.118855 397.294517 139.675109 398.084279 138.885348 
C 398.87404 138.095587 399.317786 137.02429 399.317786 135.907399 
C 399.317786 134.790507 398.87404 133.719211 398.084279 132.929449 
C 397.294517 132.139688 396.223221 131.695942 395.106329 131.695942 
C 393.989438 131.695942 392.918141 132.139688 392.12838 132.929449 
C 391.338619 133.719211 390.894873 134.790507 390.894873 135.907399 
C 390.894873 137.02429 391.338619 138.095587 392.12838 138.885348 
C 392.918141 139.675109 393.989438 140.118855 395.106329 140.118855 
z
" clip-path="url(#p8afa269ee3)" style="fill: #800080; stroke: #ffffff; stroke-width: 0.354208"/>
    <path d="M 402.281973 125.036946 
C 403.407134 125.036946 404.486363 124.589915 405.281973 123.794306 
C 406.077582 122.998696 406.524613 121.919467 406.524613 120.794306 
C 406.524613 119.669144 406.077582 118.589915 405.281973 117.794306 
C 404.486363 116.998696 403.407134 116.551665 402.281973 116.551665 
C 401.156811 116.551665 400.077582 116.998696 399.281973 117.794306 
C 398.486363 118.589915 398.039332 119.669144 398.039332 120.794306 
C 398.039332 121.919467 398.486363 122.998696 399.281973 123.794306 
C 400.077582 124.589915 401.156811 125.036946 402.281973 125.036946 
z
" clip-path="url(#p8afa269ee3)" style="fill: #800080; stroke: #ffffff; stroke-width: 0.354208"/>
    <path d="M 409.457616 106.076755 
C 410.501721 106.076755 411.503204 105.661928 412.241498 104.923633 
C 412.979792 104.185339 413.39462 103.183857 413.39462 102.139751 
C 413.39462 101.095646 412.979792 100.094163 412.241498 99.355869 
C 411.503204 98.617575 410.501721 98.202747 409.457616 98.202747 
C 408.41351 98.202747 407.412028 98.617575 406.673734 99.355869 
C 405.935439 100.094163 405.520612 101.095646 405.520612 102.139751 
C 405.520612 103.183857 405.935439 104.185339 406.673734 104.923633 
C 407.412028 105.661928 408.41351 106.076755 409.457616 106.076755 
z
" clip-path="url(#p8afa269ee3)" style="fill: #800080; stroke: #ffffff; stroke-width: 0.354208"/>
    <path d="M 416.633259 94.229353 
C 417.672762 94.229353 418.669829 93.816354 419.404868 93.081315 
C 420.139908 92.346275 420.552906 91.349208 420.552906 90.309705 
C 420.552906 89.270203 420.139908 88.273135 419.404868 87.538096 
C 418.669829 86.803057 417.672762 86.390058 416.633259 86.390058 
C 415.593756 86.390058 414.596689 86.803057 413.86165 87.538096 
C 413.12661 88.273135 412.713612 89.270203 412.713612 90.309705 
C 412.713612 91.349208 413.12661 92.346275 413.86165 93.081315 
C 414.596689 93.816354 415.593756 94.229353 416.633259 94.229353 
z
" clip-path="url(#p8afa269ee3)" style="fill: #800080; stroke: #ffffff; stroke-width: 0.354208"/>
    <path d="M 423.808902 74.257738 
C 424.862457 74.257738 425.873003 73.839156 426.617978 73.09418 
C 427.362954 72.349205 427.781536 71.338659 427.781536 70.285104 
C 427.781536 69.231549 427.362954 68.221004 426.617978 67.476028 
C 425.873003 66.731052 424.862457 66.31247 423.808902 66.31247 
C 422.755347 66.31247 421.744802 66.731052 420.999826 67.476028 
C 420.25485 68.221004 419.836269 69.231549 419.836269 70.285104 
C 419.836269 71.338659 420.25485 72.349205 420.999826 73.09418 
C 421.744802 73.839156 422.755347 74.257738 423.808902 74.257738 
z
" clip-path="url(#p8afa269ee3)" style="fill: #800080; stroke: #ffffff; stroke-width: 0.354208"/>
    <path d="M 430.984545 42.573881 
C 431.99092 42.573881 432.956212 42.174044 433.667827 41.462429 
C 434.379442 40.750815 434.779279 39.785523 434.779279 38.779148 
C 434.779279 37.772773 434.379442 36.807481 433.667827 36.095866 
C 432.956212 35.384252 431.99092 34.984415 430.984545 34.984415 
C 429.97817 34.984415 429.012878 35.384252 428.301264 36.095866 
C 427.589649 36.807481 427.189812 37.772773 427.189812 38.779148 
C 427.189812 39.785523 427.589649 40.750815 428.301264 41.462429 
C 429.012878 42.174044 429.97817 42.573881 430.984545 42.573881 
z
" clip-path="url(#p8afa269ee3)" style="fill: #800080; stroke: #ffffff; stroke-width: 0.354208"/>
   </g>
   <g id="patch_3">
    <path d="M 31.66 317.72 
L 31.66 25.49625 
" style="fill: none; stroke: #ffffff; stroke-width: 0.8; stroke-linejoin: miter; stroke-linecap: square"/>
   </g>
   <g id="patch_4">
    <path d="M 450 317.72 
L 450 25.49625 
" style="fill: none; stroke: #ffffff; stroke-width: 0.8; stroke-linejoin: miter; stroke-linecap: square"/>
   </g>
   <g id="patch_5">
    <path d="M 31.66 317.72 
L 450 317.72 
" style="fill: none; stroke: #ffffff; stroke-width: 0.8; stroke-linejoin: miter; stroke-linecap: square"/>
   </g>
   <g id="patch_6">
    <path d="M 31.66 25.49625 
L 450 25.49625 
" style="fill: none; stroke: #ffffff; stroke-width: 0.8; stroke-linejoin: miter; stroke-linecap: square"/>
   </g>
   <g id="text_15">
    <!-- Yearly average ratings from ranked games -->
    <g style="fill: #262626" transform="translate(127.998125 19.49625) scale(0.12 -0.12)">
     <defs>
      <path id="ArialMT-59" d="M 1784 0 
L 1784 1941 
L 19 4581 
L 756 4581 
L 1659 3200 
Q 1909 2813 2125 2425 
Q 2331 2784 2625 3234 
L 3513 4581 
L 4219 4581 
L 2391 1941 
L 2391 0 
L 1784 0 
z
" transform="scale(0.015625)"/>
      <path id="ArialMT-65" d="M 2694 1069 
L 3275 997 
Q 3138 488 2766 206 
Q 2394 -75 1816 -75 
Q 1088 -75 661 373 
Q 234 822 234 1631 
Q 234 2469 665 2931 
Q 1097 3394 1784 3394 
Q 2450 3394 2872 2941 
Q 3294 2488 3294 1666 
Q 3294 1616 3291 1516 
L 816 1516 
Q 847 969 1125 678 
Q 1403 388 1819 388 
Q 2128 388 2347 550 
Q 2566 713 2694 1069 
z
M 847 1978 
L 2700 1978 
Q 2663 2397 2488 2606 
Q 2219 2931 1791 2931 
Q 1403 2931 1139 2672 
Q 875 2413 847 1978 
z
" transform="scale(0.015625)"/>
      <path id="ArialMT-61" d="M 2588 409 
Q 2275 144 1986 34 
Q 1697 -75 1366 -75 
Q 819 -75 525 192 
Q 231 459 231 875 
Q 231 1119 342 1320 
Q 453 1522 633 1644 
Q 813 1766 1038 1828 
Q 1203 1872 1538 1913 
Q 2219 1994 2541 2106 
Q 2544 2222 2544 2253 
Q 2544 2597 2384 2738 
Q 2169 2928 1744 2928 
Q 1347 2928 1158 2789 
Q 969 2650 878 2297 
L 328 2372 
Q 403 2725 575 2942 
Q 747 3159 1072 3276 
Q 1397 3394 1825 3394 
Q 2250 3394 2515 3294 
Q 2781 3194 2906 3042 
Q 3031 2891 3081 2659 
Q 3109 2516 3109 2141 
L 3109 1391 
Q 3109 606 3145 398 
Q 3181 191 3288 0 
L 2700 0 
Q 2613 175 2588 409 
z
M 2541 1666 
Q 2234 1541 1622 1453 
Q 1275 1403 1131 1340 
Q 988 1278 909 1158 
Q 831 1038 831 891 
Q 831 666 1001 516 
Q 1172 366 1500 366 
Q 1825 366 2078 508 
Q 2331 650 2450 897 
Q 2541 1088 2541 1459 
L 2541 1666 
z
" transform="scale(0.015625)"/>
      <path id="ArialMT-72" d="M 416 0 
L 416 3319 
L 922 3319 
L 922 2816 
Q 1116 3169 1280 3281 
Q 1444 3394 1641 3394 
Q 1925 3394 2219 3213 
L 2025 2691 
Q 1819 2813 1613 2813 
Q 1428 2813 1281 2702 
Q 1134 2591 1072 2394 
Q 978 2094 978 1738 
L 978 0 
L 416 0 
z
" transform="scale(0.015625)"/>
      <path id="ArialMT-6c" d="M 409 0 
L 409 4581 
L 972 4581 
L 972 0 
L 409 0 
z
" transform="scale(0.015625)"/>
      <path id="ArialMT-79" d="M 397 -1278 
L 334 -750 
Q 519 -800 656 -800 
Q 844 -800 956 -737 
Q 1069 -675 1141 -563 
Q 1194 -478 1313 -144 
Q 1328 -97 1363 -6 
L 103 3319 
L 709 3319 
L 1400 1397 
Q 1534 1031 1641 628 
Q 1738 1016 1872 1384 
L 2581 3319 
L 3144 3319 
L 1881 -56 
Q 1678 -603 1566 -809 
Q 1416 -1088 1222 -1217 
Q 1028 -1347 759 -1347 
Q 597 -1347 397 -1278 
z
" transform="scale(0.015625)"/>
      <path id="ArialMT-20" transform="scale(0.015625)"/>
      <path id="ArialMT-76" d="M 1344 0 
L 81 3319 
L 675 3319 
L 1388 1331 
Q 1503 1009 1600 663 
Q 1675 925 1809 1294 
L 2547 3319 
L 3125 3319 
L 1869 0 
L 1344 0 
z
" transform="scale(0.015625)"/>
      <path id="ArialMT-67" d="M 319 -275 
L 866 -356 
Q 900 -609 1056 -725 
Q 1266 -881 1628 -881 
Q 2019 -881 2231 -725 
Q 2444 -569 2519 -288 
Q 2563 -116 2559 434 
Q 2191 0 1641 0 
Q 956 0 581 494 
Q 206 988 206 1678 
Q 206 2153 378 2554 
Q 550 2956 876 3175 
Q 1203 3394 1644 3394 
Q 2231 3394 2613 2919 
L 2613 3319 
L 3131 3319 
L 3131 450 
Q 3131 -325 2973 -648 
Q 2816 -972 2473 -1159 
Q 2131 -1347 1631 -1347 
Q 1038 -1347 672 -1080 
Q 306 -813 319 -275 
z
M 784 1719 
Q 784 1066 1043 766 
Q 1303 466 1694 466 
Q 2081 466 2343 764 
Q 2606 1063 2606 1700 
Q 2606 2309 2336 2618 
Q 2066 2928 1684 2928 
Q 1309 2928 1046 2623 
Q 784 2319 784 1719 
z
" transform="scale(0.015625)"/>
      <path id="ArialMT-74" d="M 1650 503 
L 1731 6 
Q 1494 -44 1306 -44 
Q 1000 -44 831 53 
Q 663 150 594 308 
Q 525 466 525 972 
L 525 2881 
L 113 2881 
L 113 3319 
L 525 3319 
L 525 4141 
L 1084 4478 
L 1084 3319 
L 1650 3319 
L 1650 2881 
L 1084 2881 
L 1084 941 
Q 1084 700 1114 631 
Q 1144 563 1211 522 
Q 1278 481 1403 481 
Q 1497 481 1650 503 
z
" transform="scale(0.015625)"/>
      <path id="ArialMT-69" d="M 425 3934 
L 425 4581 
L 988 4581 
L 988 3934 
L 425 3934 
z
M 425 0 
L 425 3319 
L 988 3319 
L 988 0 
L 425 0 
z
" transform="scale(0.015625)"/>
      <path id="ArialMT-6e" d="M 422 0 
L 422 3319 
L 928 3319 
L 928 2847 
Q 1294 3394 1984 3394 
Q 2284 3394 2536 3286 
Q 2788 3178 2913 3003 
Q 3038 2828 3088 2588 
Q 3119 2431 3119 2041 
L 3119 0 
L 2556 0 
L 2556 2019 
Q 2556 2363 2490 2533 
Q 2425 2703 2258 2804 
Q 2091 2906 1866 2906 
Q 1506 2906 1245 2678 
Q 984 2450 984 1813 
L 984 0 
L 422 0 
z
" transform="scale(0.015625)"/>
      <path id="ArialMT-73" d="M 197 991 
L 753 1078 
Q 800 744 1014 566 
Q 1228 388 1613 388 
Q 2000 388 2187 545 
Q 2375 703 2375 916 
Q 2375 1106 2209 1216 
Q 2094 1291 1634 1406 
Q 1016 1563 777 1677 
Q 538 1791 414 1992 
Q 291 2194 291 2438 
Q 291 2659 392 2848 
Q 494 3038 669 3163 
Q 800 3259 1026 3326 
Q 1253 3394 1513 3394 
Q 1903 3394 2198 3281 
Q 2494 3169 2634 2976 
Q 2775 2784 2828 2463 
L 2278 2388 
Q 2241 2644 2061 2787 
Q 1881 2931 1553 2931 
Q 1166 2931 1000 2803 
Q 834 2675 834 2503 
Q 834 2394 903 2306 
Q 972 2216 1119 2156 
Q 1203 2125 1616 2013 
Q 2213 1853 2448 1751 
Q 2684 1650 2818 1456 
Q 2953 1263 2953 975 
Q 2953 694 2789 445 
Q 2625 197 2315 61 
Q 2006 -75 1616 -75 
Q 969 -75 630 194 
Q 291 463 197 991 
z
" transform="scale(0.015625)"/>
      <path id="ArialMT-66" d="M 556 0 
L 556 2881 
L 59 2881 
L 59 3319 
L 556 3319 
L 556 3672 
Q 556 4006 616 4169 
Q 697 4388 901 4523 
Q 1106 4659 1475 4659 
Q 1713 4659 2000 4603 
L 1916 4113 
Q 1741 4144 1584 4144 
Q 1328 4144 1222 4034 
Q 1116 3925 1116 3625 
L 1116 3319 
L 1763 3319 
L 1763 2881 
L 1116 2881 
L 1116 0 
L 556 0 
z
" transform="scale(0.015625)"/>
      <path id="ArialMT-6f" d="M 213 1659 
Q 213 2581 725 3025 
Q 1153 3394 1769 3394 
Q 2453 3394 2887 2945 
Q 3322 2497 3322 1706 
Q 3322 1066 3130 698 
Q 2938 331 2570 128 
Q 2203 -75 1769 -75 
Q 1072 -75 642 372 
Q 213 819 213 1659 
z
M 791 1659 
Q 791 1022 1069 705 
Q 1347 388 1769 388 
Q 2188 388 2466 706 
Q 2744 1025 2744 1678 
Q 2744 2294 2464 2611 
Q 2184 2928 1769 2928 
Q 1347 2928 1069 2612 
Q 791 2297 791 1659 
z
" transform="scale(0.015625)"/>
      <path id="ArialMT-6d" d="M 422 0 
L 422 3319 
L 925 3319 
L 925 2853 
Q 1081 3097 1340 3245 
Q 1600 3394 1931 3394 
Q 2300 3394 2536 3241 
Q 2772 3088 2869 2813 
Q 3263 3394 3894 3394 
Q 4388 3394 4653 3120 
Q 4919 2847 4919 2278 
L 4919 0 
L 4359 0 
L 4359 2091 
Q 4359 2428 4304 2576 
Q 4250 2725 4106 2815 
Q 3963 2906 3769 2906 
Q 3419 2906 3187 2673 
Q 2956 2441 2956 1928 
L 2956 0 
L 2394 0 
L 2394 2156 
Q 2394 2531 2256 2718 
Q 2119 2906 1806 2906 
Q 1569 2906 1367 2781 
Q 1166 2656 1075 2415 
Q 984 2175 984 1722 
L 984 0 
L 422 0 
z
" transform="scale(0.015625)"/>
      <path id="ArialMT-6b" d="M 425 0 
L 425 4581 
L 988 4581 
L 988 1969 
L 2319 3319 
L 3047 3319 
L 1778 2088 
L 3175 0 
L 2481 0 
L 1384 1697 
L 988 1316 
L 988 0 
L 425 0 
z
" transform="scale(0.015625)"/>
      <path id="ArialMT-64" d="M 2575 0 
L 2575 419 
Q 2259 -75 1647 -75 
Q 1250 -75 917 144 
Q 584 363 401 755 
Q 219 1147 219 1656 
Q 219 2153 384 2558 
Q 550 2963 881 3178 
Q 1213 3394 1622 3394 
Q 1922 3394 2156 3267 
Q 2391 3141 2538 2938 
L 2538 4581 
L 3097 4581 
L 3097 0 
L 2575 0 
z
M 797 1656 
Q 797 1019 1065 703 
Q 1334 388 1700 388 
Q 2069 388 2326 689 
Q 2584 991 2584 1609 
Q 2584 2291 2321 2609 
Q 2059 2928 1675 2928 
Q 1300 2928 1048 2622 
Q 797 2316 797 1656 
z
" transform="scale(0.015625)"/>
     </defs>
     <use xlink:href="#ArialMT-59"/>
     <use xlink:href="#ArialMT-65" x="57.574219"/>
     <use xlink:href="#ArialMT-61" x="113.189453"/>
     <use xlink:href="#ArialMT-72" x="168.804688"/>
     <use xlink:href="#ArialMT-6c" x="202.105469"/>
     <use xlink:href="#ArialMT-79" x="224.322266"/>
     <use xlink:href="#ArialMT-20" x="274.322266"/>
     <use xlink:href="#ArialMT-61" x="302.105469"/>
     <use xlink:href="#ArialMT-76" x="357.720703"/>
     <use xlink:href="#ArialMT-65" x="407.720703"/>
     <use xlink:href="#ArialMT-72" x="463.335938"/>
     <use xlink:href="#ArialMT-61" x="496.636719"/>
     <use xlink:href="#ArialMT-67" x="552.251953"/>
     <use xlink:href="#ArialMT-65" x="607.867188"/>
     <use xlink:href="#ArialMT-20" x="663.482422"/>
     <use xlink:href="#ArialMT-72" x="691.265625"/>
     <use xlink:href="#ArialMT-61" x="724.566406"/>
     <use xlink:href="#ArialMT-74" x="780.181641"/>
     <use xlink:href="#ArialMT-69" x="807.964844"/>
     <use xlink:href="#ArialMT-6e" x="830.181641"/>
     <use xlink:href="#ArialMT-67" x="885.796875"/>
     <use xlink:href="#ArialMT-73" x="941.412109"/>
     <use xlink:href="#ArialMT-20" x="991.412109"/>
     <use xlink:href="#ArialMT-66" x="1019.195312"/>
     <use xlink:href="#ArialMT-72" x="1046.978516"/>
     <use xlink:href="#ArialMT-6f" x="1080.279297"/>
     <use xlink:href="#ArialMT-6d" x="1135.894531"/>
     <use xlink:href="#ArialMT-20" x="1219.195312"/>
     <use xlink:href="#ArialMT-72" x="1246.978516"/>
     <use xlink:href="#ArialMT-61" x="1280.279297"/>
     <use xlink:href="#ArialMT-6e" x="1335.894531"/>
     <use xlink:href="#ArialMT-6b" x="1391.509766"/>
     <use xlink:href="#ArialMT-65" x="1441.509766"/>
     <use xlink:href="#ArialMT-64" x="1497.125"/>
     <use xlink:href="#ArialMT-20" x="1552.740234"/>
     <use xlink:href="#ArialMT-67" x="1580.523438"/>
     <use xlink:href="#ArialMT-61" x="1636.138672"/>
     <use xlink:href="#ArialMT-6d" x="1691.753906"/>
     <use xlink:href="#ArialMT-65" x="1775.054688"/>
     <use xlink:href="#ArialMT-73" x="1830.669922"/>
    </g>
   </g>
  </g>
 </g>
 <defs>
  <clipPath id="p8afa269ee3">
   <rect x="31.66" y="25.49625" width="418.34" height="292.22375"/>
  </clipPath>
 </defs>
</svg>
