<?xml version="1.0" encoding="utf-8" standalone="no"?>
<!DOCTYPE svg PUBLIC "-//W3C//DTD SVG 1.1//EN"
  "http://www.w3.org/Graphics/SVG/1.1/DTD/svg11.dtd">
<svg xmlns:xlink="http://www.w3.org/1999/xlink" width="432pt" height="288pt" viewBox="0 0 432 288" xmlns="http://www.w3.org/2000/svg" version="1.1">
 <metadata>
  <rdf:RDF xmlns:dc="http://purl.org/dc/elements/1.1/" xmlns:cc="http://creativecommons.org/ns#" xmlns:rdf="http://www.w3.org/1999/02/22-rdf-syntax-ns#">
   <cc:Work>
    <dc:type rdf:resource="http://purl.org/dc/dcmitype/StillImage"/>
    <dc:date>2024-08-12T23:09:17.792634</dc:date>
    <dc:format>image/svg+xml</dc:format>
    <dc:creator>
     <cc:Agent>
      <dc:title>Matplotlib v3.9.1.post1, https://matplotlib.org/</dc:title>
     </cc:Agent>
    </dc:creator>
   </cc:Work>
  </rdf:RDF>
 </metadata>
 <defs>
  <style type="text/css">*{stroke-linejoin: round; stroke-linecap: butt}</style>
 </defs>
 <g id="figure_1">
  <g id="patch_1">
   <path d="M 0 288 
L 432 288 
L 432 0 
L 0 0 
z
" style="fill: #ffffff"/>
  </g>
  <g id="axes_1">
   <g id="patch_2">
    <path d="M 37.24 260.12 
L 421.2 260.12 
L 421.2 25.49625 
L 37.24 25.49625 
z
" style="fill: #eaeaf2"/>
   </g>
   <g id="matplotlib.axis_1">
    <g id="xtick_1">
     <g id="text_1">
      <!-- 1970 -->
      <g style="fill: #262626" transform="translate(43.570852 274.277812) scale(0.1 -0.1)">
       <defs>
        <path id="ArialMT-31" d="M 2384 0 
L 1822 0 
L 1822 3584 
Q 1619 3391 1289 3197 
Q 959 3003 697 2906 
L 697 3450 
Q 1169 3672 1522 3987 
Q 1875 4303 2022 4600 
L 2384 4600 
L 2384 0 
z
" transform="scale(0.015625)"/>
        <path id="ArialMT-39" d="M 350 1059 
L 891 1109 
Q 959 728 1153 556 
Q 1347 384 1650 384 
Q 1909 384 2104 503 
Q 2300 622 2425 820 
Q 2550 1019 2634 1356 
Q 2719 1694 2719 2044 
Q 2719 2081 2716 2156 
Q 2547 1888 2255 1720 
Q 1963 1553 1622 1553 
Q 1053 1553 659 1965 
Q 266 2378 266 3053 
Q 266 3750 677 4175 
Q 1088 4600 1706 4600 
Q 2153 4600 2523 4359 
Q 2894 4119 3086 3673 
Q 3278 3228 3278 2384 
Q 3278 1506 3087 986 
Q 2897 466 2520 194 
Q 2144 -78 1638 -78 
Q 1100 -78 759 220 
Q 419 519 350 1059 
z
M 2653 3081 
Q 2653 3566 2395 3850 
Q 2138 4134 1775 4134 
Q 1400 4134 1122 3828 
Q 844 3522 844 3034 
Q 844 2597 1108 2323 
Q 1372 2050 1759 2050 
Q 2150 2050 2401 2323 
Q 2653 2597 2653 3081 
z
" transform="scale(0.015625)"/>
        <path id="ArialMT-37" d="M 303 3981 
L 303 4522 
L 3269 4522 
L 3269 4084 
Q 2831 3619 2401 2847 
Q 1972 2075 1738 1259 
Q 1569 684 1522 0 
L 944 0 
Q 953 541 1156 1306 
Q 1359 2072 1739 2783 
Q 2119 3494 2547 3981 
L 303 3981 
z
" transform="scale(0.015625)"/>
        <path id="ArialMT-30" d="M 266 2259 
Q 266 3072 433 3567 
Q 600 4063 929 4331 
Q 1259 4600 1759 4600 
Q 2128 4600 2406 4451 
Q 2684 4303 2865 4023 
Q 3047 3744 3150 3342 
Q 3253 2941 3253 2259 
Q 3253 1453 3087 958 
Q 2922 463 2592 192 
Q 2263 -78 1759 -78 
Q 1097 -78 719 397 
Q 266 969 266 2259 
z
M 844 2259 
Q 844 1131 1108 757 
Q 1372 384 1759 384 
Q 2147 384 2411 759 
Q 2675 1134 2675 2259 
Q 2675 3391 2411 3762 
Q 2147 4134 1753 4134 
Q 1366 4134 1134 3806 
Q 844 3388 844 2259 
z
" transform="scale(0.015625)"/>
       </defs>
       <use xlink:href="#ArialMT-31"/>
       <use xlink:href="#ArialMT-39" x="55.615234"/>
       <use xlink:href="#ArialMT-37" x="111.230469"/>
       <use xlink:href="#ArialMT-30" x="166.845703"/>
      </g>
     </g>
    </g>
    <g id="xtick_2">
     <g id="text_2">
      <!-- 1980 -->
      <g style="fill: #262626" transform="translate(109.4302 274.277812) scale(0.1 -0.1)">
       <defs>
        <path id="ArialMT-38" d="M 1131 2484 
Q 781 2613 612 2850 
Q 444 3088 444 3419 
Q 444 3919 803 4259 
Q 1163 4600 1759 4600 
Q 2359 4600 2725 4251 
Q 3091 3903 3091 3403 
Q 3091 3084 2923 2848 
Q 2756 2613 2416 2484 
Q 2838 2347 3058 2040 
Q 3278 1734 3278 1309 
Q 3278 722 2862 322 
Q 2447 -78 1769 -78 
Q 1091 -78 675 323 
Q 259 725 259 1325 
Q 259 1772 486 2073 
Q 713 2375 1131 2484 
z
M 1019 3438 
Q 1019 3113 1228 2906 
Q 1438 2700 1772 2700 
Q 2097 2700 2305 2904 
Q 2513 3109 2513 3406 
Q 2513 3716 2298 3927 
Q 2084 4138 1766 4138 
Q 1444 4138 1231 3931 
Q 1019 3725 1019 3438 
z
M 838 1322 
Q 838 1081 952 856 
Q 1066 631 1291 507 
Q 1516 384 1775 384 
Q 2178 384 2440 643 
Q 2703 903 2703 1303 
Q 2703 1709 2433 1975 
Q 2163 2241 1756 2241 
Q 1359 2241 1098 1978 
Q 838 1716 838 1322 
z
" transform="scale(0.015625)"/>
       </defs>
       <use xlink:href="#ArialMT-31"/>
       <use xlink:href="#ArialMT-39" x="55.615234"/>
       <use xlink:href="#ArialMT-38" x="111.230469"/>
       <use xlink:href="#ArialMT-30" x="166.845703"/>
      </g>
     </g>
    </g>
    <g id="xtick_3">
     <g id="text_3">
      <!-- 1990 -->
      <g style="fill: #262626" transform="translate(175.289549 274.277812) scale(0.1 -0.1)">
       <use xlink:href="#ArialMT-31"/>
       <use xlink:href="#ArialMT-39" x="55.615234"/>
       <use xlink:href="#ArialMT-39" x="111.230469"/>
       <use xlink:href="#ArialMT-30" x="166.845703"/>
      </g>
     </g>
    </g>
    <g id="xtick_4">
     <g id="text_4">
      <!-- 2000 -->
      <g style="fill: #262626" transform="translate(241.148897 274.277812) scale(0.1 -0.1)">
       <defs>
        <path id="ArialMT-32" d="M 3222 541 
L 3222 0 
L 194 0 
Q 188 203 259 391 
Q 375 700 629 1000 
Q 884 1300 1366 1694 
Q 2113 2306 2375 2664 
Q 2638 3022 2638 3341 
Q 2638 3675 2398 3904 
Q 2159 4134 1775 4134 
Q 1369 4134 1125 3890 
Q 881 3647 878 3216 
L 300 3275 
Q 359 3922 746 4261 
Q 1134 4600 1788 4600 
Q 2447 4600 2831 4234 
Q 3216 3869 3216 3328 
Q 3216 3053 3103 2787 
Q 2991 2522 2730 2228 
Q 2469 1934 1863 1422 
Q 1356 997 1212 845 
Q 1069 694 975 541 
L 3222 541 
z
" transform="scale(0.015625)"/>
       </defs>
       <use xlink:href="#ArialMT-32"/>
       <use xlink:href="#ArialMT-30" x="55.615234"/>
       <use xlink:href="#ArialMT-30" x="111.230469"/>
       <use xlink:href="#ArialMT-30" x="166.845703"/>
      </g>
     </g>
    </g>
    <g id="xtick_5">
     <g id="text_5">
      <!-- 2010 -->
      <g style="fill: #262626" transform="translate(307.008245 274.277812) scale(0.1 -0.1)">
       <use xlink:href="#ArialMT-32"/>
       <use xlink:href="#ArialMT-30" x="55.615234"/>
       <use xlink:href="#ArialMT-31" x="111.230469"/>
       <use xlink:href="#ArialMT-30" x="166.845703"/>
      </g>
     </g>
    </g>
    <g id="xtick_6">
     <g id="text_6">
      <!-- 2020 -->
      <g style="fill: #262626" transform="translate(372.867593 274.277812) scale(0.1 -0.1)">
       <use xlink:href="#ArialMT-32"/>
       <use xlink:href="#ArialMT-30" x="55.615234"/>
       <use xlink:href="#ArialMT-32" x="111.230469"/>
       <use xlink:href="#ArialMT-30" x="166.845703"/>
      </g>
     </g>
    </g>
   </g>
   <g id="matplotlib.axis_2">
    <g id="ytick_1">
     <g id="text_7">
      <!-- 5.75 -->
      <g style="fill: #262626" transform="translate(10.779063 245.352708) scale(0.1 -0.1)">
       <defs>
        <path id="ArialMT-35" d="M 266 1200 
L 856 1250 
Q 922 819 1161 601 
Q 1400 384 1738 384 
Q 2144 384 2425 690 
Q 2706 997 2706 1503 
Q 2706 1984 2436 2262 
Q 2166 2541 1728 2541 
Q 1456 2541 1237 2417 
Q 1019 2294 894 2097 
L 366 2166 
L 809 4519 
L 3088 4519 
L 3088 3981 
L 1259 3981 
L 1013 2750 
Q 1425 3038 1878 3038 
Q 2478 3038 2890 2622 
Q 3303 2206 3303 1553 
Q 3303 931 2941 478 
Q 2500 -78 1738 -78 
Q 1113 -78 717 272 
Q 322 622 266 1200 
z
" transform="scale(0.015625)"/>
        <path id="ArialMT-2e" d="M 581 0 
L 581 641 
L 1222 641 
L 1222 0 
L 581 0 
z
" transform="scale(0.015625)"/>
       </defs>
       <use xlink:href="#ArialMT-35"/>
       <use xlink:href="#ArialMT-2e" x="55.615234"/>
       <use xlink:href="#ArialMT-37" x="83.398438"/>
       <use xlink:href="#ArialMT-35" x="139.013672"/>
      </g>
     </g>
    </g>
    <g id="ytick_2">
     <g id="text_8">
      <!-- 6.00 -->
      <g style="fill: #262626" transform="translate(10.779063 217.800819) scale(0.1 -0.1)">
       <defs>
        <path id="ArialMT-36" d="M 3184 3459 
L 2625 3416 
Q 2550 3747 2413 3897 
Q 2184 4138 1850 4138 
Q 1581 4138 1378 3988 
Q 1113 3794 959 3422 
Q 806 3050 800 2363 
Q 1003 2672 1297 2822 
Q 1591 2972 1913 2972 
Q 2475 2972 2870 2558 
Q 3266 2144 3266 1488 
Q 3266 1056 3080 686 
Q 2894 316 2569 119 
Q 2244 -78 1831 -78 
Q 1128 -78 684 439 
Q 241 956 241 2144 
Q 241 3472 731 4075 
Q 1159 4600 1884 4600 
Q 2425 4600 2770 4297 
Q 3116 3994 3184 3459 
z
M 888 1484 
Q 888 1194 1011 928 
Q 1134 663 1356 523 
Q 1578 384 1822 384 
Q 2178 384 2434 671 
Q 2691 959 2691 1453 
Q 2691 1928 2437 2201 
Q 2184 2475 1800 2475 
Q 1419 2475 1153 2201 
Q 888 1928 888 1484 
z
" transform="scale(0.015625)"/>
       </defs>
       <use xlink:href="#ArialMT-36"/>
       <use xlink:href="#ArialMT-2e" x="55.615234"/>
       <use xlink:href="#ArialMT-30" x="83.398438"/>
       <use xlink:href="#ArialMT-30" x="139.013672"/>
      </g>
     </g>
    </g>
    <g id="ytick_3">
     <g id="text_9">
      <!-- 6.25 -->
      <g style="fill: #262626" transform="translate(10.779063 190.248929) scale(0.1 -0.1)">
       <use xlink:href="#ArialMT-36"/>
       <use xlink:href="#ArialMT-2e" x="55.615234"/>
       <use xlink:href="#ArialMT-32" x="83.398438"/>
       <use xlink:href="#ArialMT-35" x="139.013672"/>
      </g>
     </g>
    </g>
    <g id="ytick_4">
     <g id="text_10">
      <!-- 6.50 -->
      <g style="fill: #262626" transform="translate(10.779063 162.697039) scale(0.1 -0.1)">
       <use xlink:href="#ArialMT-36"/>
       <use xlink:href="#ArialMT-2e" x="55.615234"/>
       <use xlink:href="#ArialMT-35" x="83.398438"/>
       <use xlink:href="#ArialMT-30" x="139.013672"/>
      </g>
     </g>
    </g>
    <g id="ytick_5">
     <g id="text_11">
      <!-- 6.75 -->
      <g style="fill: #262626" transform="translate(10.779063 135.14515) scale(0.1 -0.1)">
       <use xlink:href="#ArialMT-36"/>
       <use xlink:href="#ArialMT-2e" x="55.615234"/>
       <use xlink:href="#ArialMT-37" x="83.398438"/>
       <use xlink:href="#ArialMT-35" x="139.013672"/>
      </g>
     </g>
    </g>
    <g id="ytick_6">
     <g id="text_12">
      <!-- 7.00 -->
      <g style="fill: #262626" transform="translate(10.779063 107.59326) scale(0.1 -0.1)">
       <use xlink:href="#ArialMT-37"/>
       <use xlink:href="#ArialMT-2e" x="55.615234"/>
       <use xlink:href="#ArialMT-30" x="83.398438"/>
       <use xlink:href="#ArialMT-30" x="139.013672"/>
      </g>
     </g>
    </g>
    <g id="ytick_7">
     <g id="text_13">
      <!-- 7.25 -->
      <g style="fill: #262626" transform="translate(10.779063 80.041371) scale(0.1 -0.1)">
       <use xlink:href="#ArialMT-37"/>
       <use xlink:href="#ArialMT-2e" x="55.615234"/>
       <use xlink:href="#ArialMT-32" x="83.398438"/>
       <use xlink:href="#ArialMT-35" x="139.013672"/>
      </g>
     </g>
    </g>
    <g id="ytick_8">
     <g id="text_14">
      <!-- 7.50 -->
      <g style="fill: #262626" transform="translate(10.779063 52.489481) scale(0.1 -0.1)">
       <use xlink:href="#ArialMT-37"/>
       <use xlink:href="#ArialMT-2e" x="55.615234"/>
       <use xlink:href="#ArialMT-35" x="83.398438"/>
       <use xlink:href="#ArialMT-30" x="139.013672"/>
      </g>
     </g>
    </g>
   </g>
   <g id="PathCollection_1">
    <defs>
     <path id="m70e1300377" d="M 0 3 
C 0.795609 3 1.55874 2.683901 2.12132 2.12132 
C 2.683901 1.55874 3 0.795609 3 0 
C 3 -0.795609 2.683901 -1.55874 2.12132 -2.12132 
C 1.55874 -2.683901 0.795609 -3 0 -3 
C -0.795609 -3 -1.55874 -2.683901 -2.12132 -2.12132 
C -2.683901 -1.55874 -3 -0.795609 -3 0 
C -3 0.795609 -2.683901 1.55874 -2.12132 2.12132 
C -1.55874 2.683901 -0.795609 3 0 3 
z
" style="stroke: #800080; stroke-opacity: 0.8"/>
    </defs>
    <g clip-path="url(#p99f0e86c96)">
     <use xlink:href="#m70e1300377" x="54.692727" y="233.346818" style="fill: #800080; fill-opacity: 0.8; stroke: #800080; stroke-opacity: 0.8"/>
     <use xlink:href="#m70e1300377" x="61.278662" y="249.455284" style="fill: #800080; fill-opacity: 0.8; stroke: #800080; stroke-opacity: 0.8"/>
     <use xlink:href="#m70e1300377" x="67.864597" y="216.980893" style="fill: #800080; fill-opacity: 0.8; stroke: #800080; stroke-opacity: 0.8"/>
     <use xlink:href="#m70e1300377" x="74.450532" y="205.465548" style="fill: #800080; fill-opacity: 0.8; stroke: #800080; stroke-opacity: 0.8"/>
     <use xlink:href="#m70e1300377" x="81.036467" y="211.141738" style="fill: #800080; fill-opacity: 0.8; stroke: #800080; stroke-opacity: 0.8"/>
     <use xlink:href="#m70e1300377" x="87.622401" y="227.321448" style="fill: #800080; fill-opacity: 0.8; stroke: #800080; stroke-opacity: 0.8"/>
     <use xlink:href="#m70e1300377" x="94.208336" y="189.530642" style="fill: #800080; fill-opacity: 0.8; stroke: #800080; stroke-opacity: 0.8"/>
     <use xlink:href="#m70e1300377" x="100.794271" y="171.809198" style="fill: #800080; fill-opacity: 0.8; stroke: #800080; stroke-opacity: 0.8"/>
     <use xlink:href="#m70e1300377" x="107.380206" y="224.3036" style="fill: #800080; fill-opacity: 0.8; stroke: #800080; stroke-opacity: 0.8"/>
     <use xlink:href="#m70e1300377" x="113.966141" y="176.972497" style="fill: #800080; fill-opacity: 0.8; stroke: #800080; stroke-opacity: 0.8"/>
     <use xlink:href="#m70e1300377" x="120.552075" y="136.391096" style="fill: #800080; fill-opacity: 0.8; stroke: #800080; stroke-opacity: 0.8"/>
     <use xlink:href="#m70e1300377" x="127.13801" y="192.818571" style="fill: #800080; fill-opacity: 0.8; stroke: #800080; stroke-opacity: 0.8"/>
     <use xlink:href="#m70e1300377" x="133.723945" y="140.744901" style="fill: #800080; fill-opacity: 0.8; stroke: #800080; stroke-opacity: 0.8"/>
     <use xlink:href="#m70e1300377" x="140.30988" y="185.779923" style="fill: #800080; fill-opacity: 0.8; stroke: #800080; stroke-opacity: 0.8"/>
     <use xlink:href="#m70e1300377" x="146.895815" y="170.896512" style="fill: #800080; fill-opacity: 0.8; stroke: #800080; stroke-opacity: 0.8"/>
     <use xlink:href="#m70e1300377" x="153.48175" y="163.961344" style="fill: #800080; fill-opacity: 0.8; stroke: #800080; stroke-opacity: 0.8"/>
     <use xlink:href="#m70e1300377" x="160.067684" y="149.815668" style="fill: #800080; fill-opacity: 0.8; stroke: #800080; stroke-opacity: 0.8"/>
     <use xlink:href="#m70e1300377" x="166.653619" y="184.232015" style="fill: #800080; fill-opacity: 0.8; stroke: #800080; stroke-opacity: 0.8"/>
     <use xlink:href="#m70e1300377" x="173.239554" y="183.804284" style="fill: #800080; fill-opacity: 0.8; stroke: #800080; stroke-opacity: 0.8"/>
     <use xlink:href="#m70e1300377" x="179.825489" y="164.20778" style="fill: #800080; fill-opacity: 0.8; stroke: #800080; stroke-opacity: 0.8"/>
     <use xlink:href="#m70e1300377" x="186.411424" y="179.894532" style="fill: #800080; fill-opacity: 0.8; stroke: #800080; stroke-opacity: 0.8"/>
     <use xlink:href="#m70e1300377" x="192.997358" y="154.240669" style="fill: #800080; fill-opacity: 0.8; stroke: #800080; stroke-opacity: 0.8"/>
     <use xlink:href="#m70e1300377" x="199.583293" y="144.663585" style="fill: #800080; fill-opacity: 0.8; stroke: #800080; stroke-opacity: 0.8"/>
     <use xlink:href="#m70e1300377" x="206.169228" y="131.595932" style="fill: #800080; fill-opacity: 0.8; stroke: #800080; stroke-opacity: 0.8"/>
     <use xlink:href="#m70e1300377" x="212.755163" y="142.944802" style="fill: #800080; fill-opacity: 0.8; stroke: #800080; stroke-opacity: 0.8"/>
     <use xlink:href="#m70e1300377" x="219.341098" y="108.24484" style="fill: #800080; fill-opacity: 0.8; stroke: #800080; stroke-opacity: 0.8"/>
     <use xlink:href="#m70e1300377" x="225.927033" y="177.373561" style="fill: #800080; fill-opacity: 0.8; stroke: #800080; stroke-opacity: 0.8"/>
     <use xlink:href="#m70e1300377" x="232.512967" y="135.460443" style="fill: #800080; fill-opacity: 0.8; stroke: #800080; stroke-opacity: 0.8"/>
     <use xlink:href="#m70e1300377" x="239.098902" y="159.036415" style="fill: #800080; fill-opacity: 0.8; stroke: #800080; stroke-opacity: 0.8"/>
     <use xlink:href="#m70e1300377" x="245.684837" y="121.948846" style="fill: #800080; fill-opacity: 0.8; stroke: #800080; stroke-opacity: 0.8"/>
     <use xlink:href="#m70e1300377" x="252.270772" y="110.079413" style="fill: #800080; fill-opacity: 0.8; stroke: #800080; stroke-opacity: 0.8"/>
     <use xlink:href="#m70e1300377" x="258.856707" y="169.580155" style="fill: #800080; fill-opacity: 0.8; stroke: #800080; stroke-opacity: 0.8"/>
     <use xlink:href="#m70e1300377" x="265.442642" y="129.265896" style="fill: #800080; fill-opacity: 0.8; stroke: #800080; stroke-opacity: 0.8"/>
     <use xlink:href="#m70e1300377" x="272.028576" y="147.465092" style="fill: #800080; fill-opacity: 0.8; stroke: #800080; stroke-opacity: 0.8"/>
     <use xlink:href="#m70e1300377" x="278.614511" y="107.079831" style="fill: #800080; fill-opacity: 0.8; stroke: #800080; stroke-opacity: 0.8"/>
     <use xlink:href="#m70e1300377" x="285.200446" y="106.340712" style="fill: #800080; fill-opacity: 0.8; stroke: #800080; stroke-opacity: 0.8"/>
     <use xlink:href="#m70e1300377" x="291.786381" y="125.929732" style="fill: #800080; fill-opacity: 0.8; stroke: #800080; stroke-opacity: 0.8"/>
     <use xlink:href="#m70e1300377" x="298.372316" y="102.236834" style="fill: #800080; fill-opacity: 0.8; stroke: #800080; stroke-opacity: 0.8"/>
     <use xlink:href="#m70e1300377" x="304.95825" y="94.458431" style="fill: #800080; fill-opacity: 0.8; stroke: #800080; stroke-opacity: 0.8"/>
     <use xlink:href="#m70e1300377" x="311.544185" y="105.999636" style="fill: #800080; fill-opacity: 0.8; stroke: #800080; stroke-opacity: 0.8"/>
     <use xlink:href="#m70e1300377" x="318.13012" y="101.853084" style="fill: #800080; fill-opacity: 0.8; stroke: #800080; stroke-opacity: 0.8"/>
     <use xlink:href="#m70e1300377" x="324.716055" y="87.416567" style="fill: #800080; fill-opacity: 0.8; stroke: #800080; stroke-opacity: 0.8"/>
     <use xlink:href="#m70e1300377" x="331.30199" y="88.283147" style="fill: #800080; fill-opacity: 0.8; stroke: #800080; stroke-opacity: 0.8"/>
     <use xlink:href="#m70e1300377" x="337.887925" y="101.506764" style="fill: #800080; fill-opacity: 0.8; stroke: #800080; stroke-opacity: 0.8"/>
     <use xlink:href="#m70e1300377" x="344.473859" y="85.147574" style="fill: #800080; fill-opacity: 0.8; stroke: #800080; stroke-opacity: 0.8"/>
     <use xlink:href="#m70e1300377" x="351.059794" y="73.823281" style="fill: #800080; fill-opacity: 0.8; stroke: #800080; stroke-opacity: 0.8"/>
     <use xlink:href="#m70e1300377" x="357.645729" y="64.409177" style="fill: #800080; fill-opacity: 0.8; stroke: #800080; stroke-opacity: 0.8"/>
     <use xlink:href="#m70e1300377" x="364.231664" y="69.107665" style="fill: #800080; fill-opacity: 0.8; stroke: #800080; stroke-opacity: 0.8"/>
     <use xlink:href="#m70e1300377" x="370.817599" y="64.267169" style="fill: #800080; fill-opacity: 0.8; stroke: #800080; stroke-opacity: 0.8"/>
     <use xlink:href="#m70e1300377" x="377.403533" y="57.85869" style="fill: #800080; fill-opacity: 0.8; stroke: #800080; stroke-opacity: 0.8"/>
     <use xlink:href="#m70e1300377" x="383.989468" y="51.579726" style="fill: #800080; fill-opacity: 0.8; stroke: #800080; stroke-opacity: 0.8"/>
     <use xlink:href="#m70e1300377" x="390.575403" y="51.272533" style="fill: #800080; fill-opacity: 0.8; stroke: #800080; stroke-opacity: 0.8"/>
     <use xlink:href="#m70e1300377" x="397.161338" y="46.135119" style="fill: #800080; fill-opacity: 0.8; stroke: #800080; stroke-opacity: 0.8"/>
     <use xlink:href="#m70e1300377" x="403.747273" y="36.160966" style="fill: #800080; fill-opacity: 0.8; stroke: #800080; stroke-opacity: 0.8"/>
    </g>
   </g>
   <g id="PolyCollection_1">
    <defs>
     <path id="maabfdbdc8b" d="M 54.692727 -77.658243 
L 54.692727 -55.003135 
L 58.218531 -56.865587 
L 61.744334 -58.728039 
L 65.270138 -60.590672 
L 68.795941 -62.454048 
L 72.321745 -64.317424 
L 75.847548 -66.1808 
L 79.373352 -68.044176 
L 82.899155 -69.907552 
L 86.424959 -71.783986 
L 89.950762 -73.665166 
L 93.476566 -75.546347 
L 97.002369 -77.427527 
L 100.528173 -79.308707 
L 104.053976 -81.189888 
L 107.57978 -83.000039 
L 111.105583 -84.810695 
L 114.631387 -86.672027 
L 118.15719 -88.533359 
L 121.682994 -90.394691 
L 125.208797 -92.256022 
L 128.734601 -93.99941 
L 132.260404 -95.783724 
L 135.786208 -97.664978 
L 139.312011 -99.447996 
L 142.837815 -101.272977 
L 146.363618 -103.159217 
L 149.889421 -105.011036 
L 153.415225 -106.845899 
L 156.941028 -108.66117 
L 160.466832 -110.488274 
L 163.992635 -112.399462 
L 167.518439 -114.223673 
L 171.044242 -116.022327 
L 174.570046 -117.814745 
L 178.095849 -119.608242 
L 181.621653 -121.401739 
L 185.147456 -123.206304 
L 188.67326 -125.038818 
L 192.199063 -126.893055 
L 195.724867 -128.682373 
L 199.25067 -130.50478 
L 202.776474 -132.2918 
L 206.302277 -134.165942 
L 209.828081 -135.998742 
L 213.353884 -137.781236 
L 216.879688 -139.625669 
L 220.405491 -141.38644 
L 223.931295 -143.042743 
L 227.457098 -144.798687 
L 230.982902 -146.539496 
L 234.508705 -148.438897 
L 238.034509 -150.253896 
L 241.560312 -151.99368 
L 245.086116 -153.69384 
L 248.611919 -155.49546 
L 252.137723 -157.29589 
L 255.663526 -159.096977 
L 259.18933 -160.805432 
L 262.715133 -162.528089 
L 266.240937 -164.353214 
L 269.76674 -166.090562 
L 273.292544 -167.824573 
L 276.818347 -169.554639 
L 280.344151 -171.290017 
L 283.869954 -172.973444 
L 287.395758 -174.46465 
L 290.921561 -175.972573 
L 294.447365 -177.512676 
L 297.973168 -179.181653 
L 301.498972 -180.828828 
L 305.024775 -182.522751 
L 308.550579 -184.195796 
L 312.076382 -185.948634 
L 315.602185 -187.53699 
L 319.127989 -189.207938 
L 322.653792 -190.878598 
L 326.179596 -192.467777 
L 329.705399 -194.046965 
L 333.231203 -195.573853 
L 336.757006 -197.148982 
L 340.28281 -198.833846 
L 343.808613 -200.497575 
L 347.334417 -202.150904 
L 350.86022 -203.768024 
L 354.386024 -205.410889 
L 357.911827 -207.081955 
L 361.437631 -208.783669 
L 364.963434 -210.438201 
L 368.489238 -212.090097 
L 372.015041 -213.682275 
L 375.540845 -215.210923 
L 379.066648 -216.729114 
L 382.592452 -218.252318 
L 386.118255 -219.772411 
L 389.644059 -221.292504 
L 393.169862 -222.814463 
L 396.695666 -224.444938 
L 400.221469 -226.113716 
L 403.747273 -227.782493 
L 403.747273 -242.231602 
L 403.747273 -242.231602 
L 400.221469 -240.390087 
L 396.695666 -238.556474 
L 393.169862 -236.721245 
L 389.644059 -234.855674 
L 386.118255 -233.052595 
L 382.592452 -231.218488 
L 379.066648 -229.38552 
L 375.540845 -227.552552 
L 372.015041 -225.79177 
L 368.489238 -224.040108 
L 364.963434 -222.287979 
L 361.437631 -220.478354 
L 357.911827 -218.638689 
L 354.386024 -216.792261 
L 350.86022 -214.977235 
L 347.334417 -213.225675 
L 343.808613 -211.511451 
L 340.28281 -209.775326 
L 336.757006 -207.98104 
L 333.231203 -206.188017 
L 329.705399 -204.496322 
L 326.179596 -202.812319 
L 322.653792 -201.056399 
L 319.127989 -199.338423 
L 315.602185 -197.56422 
L 312.076382 -195.843883 
L 308.550579 -194.180716 
L 305.024775 -192.452313 
L 301.498972 -190.7301 
L 297.973168 -189.027963 
L 294.447365 -187.369612 
L 290.921561 -185.659016 
L 287.395758 -183.949148 
L 283.869954 -182.237855 
L 280.344151 -180.557495 
L 276.818347 -178.818041 
L 273.292544 -177.11638 
L 269.76674 -175.397944 
L 266.240937 -173.755927 
L 262.715133 -172.132611 
L 259.18933 -170.403865 
L 255.663526 -168.698811 
L 252.137723 -167.018002 
L 248.611919 -165.455449 
L 245.086116 -163.750094 
L 241.560312 -162.043668 
L 238.034509 -160.339327 
L 234.508705 -158.634886 
L 230.982902 -156.943737 
L 227.457098 -155.384129 
L 223.931295 -153.832486 
L 220.405491 -152.281684 
L 216.879688 -150.674542 
L 213.353884 -149.06812 
L 209.828081 -147.389128 
L 206.302277 -145.709807 
L 202.776474 -144.128574 
L 199.25067 -142.536331 
L 195.724867 -140.932067 
L 192.199063 -139.267877 
L 188.67326 -137.674448 
L 185.147456 -136.101482 
L 181.621653 -134.457407 
L 178.095849 -132.798083 
L 174.570046 -131.193759 
L 171.044242 -129.552973 
L 167.518439 -127.918427 
L 163.992635 -126.346919 
L 160.466832 -124.77541 
L 156.941028 -123.180364 
L 153.415225 -121.578951 
L 149.889421 -119.975628 
L 146.363618 -118.332094 
L 142.837815 -116.666106 
L 139.312011 -115.005442 
L 135.786208 -113.506152 
L 132.260404 -111.902773 
L 128.734601 -110.264698 
L 125.208797 -108.663788 
L 121.682994 -107.111108 
L 118.15719 -105.567716 
L 114.631387 -104.028159 
L 111.105583 -102.421413 
L 107.57978 -100.81809 
L 104.053976 -99.298457 
L 100.528173 -97.782152 
L 97.002369 -96.204883 
L 93.476566 -94.596852 
L 89.950762 -93.008313 
L 86.424959 -91.458291 
L 82.899155 -89.965277 
L 79.373352 -88.506782 
L 75.847548 -87.048286 
L 72.321745 -85.5081 
L 68.795941 -83.938129 
L 65.270138 -82.368767 
L 61.744334 -80.862533 
L 58.218531 -79.256208 
L 54.692727 -77.658243 
z
" style="stroke: #ffffff; stroke-opacity: 0.15"/>
    </defs>
    <g clip-path="url(#p99f0e86c96)">
     <use xlink:href="#maabfdbdc8b" x="0" y="288" style="fill: #800080; fill-opacity: 0.15; stroke: #ffffff; stroke-opacity: 0.15"/>
    </g>
   </g>
   <g id="line2d_1">
    <path d="M 54.692727 222.416629 
L 58.218531 220.696143 
L 61.744334 218.975658 
L 65.270138 217.255173 
L 68.795941 215.534687 
L 72.321745 213.814202 
L 75.847548 212.093716 
L 79.373352 210.373231 
L 82.899155 208.652746 
L 86.424959 206.93226 
L 89.950762 205.211775 
L 93.476566 203.49129 
L 97.002369 201.770804 
L 100.528173 200.050319 
L 104.053976 198.329834 
L 107.57978 196.609348 
L 111.105583 194.888863 
L 114.631387 193.168377 
L 118.15719 191.447892 
L 121.682994 189.727407 
L 125.208797 188.006921 
L 128.734601 186.286436 
L 132.260404 184.565951 
L 135.786208 182.845465 
L 139.312011 181.12498 
L 142.837815 179.404495 
L 146.363618 177.684009 
L 149.889421 175.963524 
L 153.415225 174.243039 
L 156.941028 172.522553 
L 160.466832 170.802068 
L 163.992635 169.081582 
L 167.518439 167.361097 
L 171.044242 165.640612 
L 174.570046 163.920126 
L 178.095849 162.199641 
L 181.621653 160.479156 
L 185.147456 158.75867 
L 188.67326 157.038185 
L 192.199063 155.3177 
L 195.724867 153.597214 
L 199.25067 151.876729 
L 202.776474 150.156243 
L 206.302277 148.435758 
L 209.828081 146.715273 
L 213.353884 144.994787 
L 216.879688 143.274302 
L 220.405491 141.553817 
L 223.931295 139.833331 
L 227.457098 138.112846 
L 230.982902 136.392361 
L 234.508705 134.671875 
L 238.034509 132.95139 
L 241.560312 131.230904 
L 245.086116 129.510419 
L 248.611919 127.789934 
L 252.137723 126.069448 
L 255.663526 124.348963 
L 259.18933 122.628478 
L 262.715133 120.907992 
L 266.240937 119.187507 
L 269.76674 117.467022 
L 273.292544 115.746536 
L 276.818347 114.026051 
L 280.344151 112.305566 
L 283.869954 110.58508 
L 287.395758 108.864595 
L 290.921561 107.144109 
L 294.447365 105.423624 
L 297.973168 103.703139 
L 301.498972 101.982653 
L 305.024775 100.262168 
L 308.550579 98.541683 
L 312.076382 96.821197 
L 315.602185 95.100712 
L 319.127989 93.380227 
L 322.653792 91.659741 
L 326.179596 89.939256 
L 329.705399 88.21877 
L 333.231203 86.498285 
L 336.757006 84.7778 
L 340.28281 83.057314 
L 343.808613 81.336829 
L 347.334417 79.616344 
L 350.86022 77.895858 
L 354.386024 76.175373 
L 357.911827 74.454888 
L 361.437631 72.734402 
L 364.963434 71.013917 
L 368.489238 69.293432 
L 372.015041 67.572946 
L 375.540845 65.852461 
L 379.066648 64.131975 
L 382.592452 62.41149 
L 386.118255 60.691005 
L 389.644059 58.970519 
L 393.169862 57.250034 
L 396.695666 55.529549 
L 400.221469 53.809063 
L 403.747273 52.088578 
" clip-path="url(#p99f0e86c96)" style="fill: none; stroke: #800080; stroke-width: 2.25; stroke-linecap: round"/>
   </g>
   <g id="patch_3">
    <path d="M 37.24 260.12 
L 37.24 25.49625 
" style="fill: none; stroke: #ffffff; stroke-width: 0.8; stroke-linejoin: miter; stroke-linecap: square"/>
   </g>
   <g id="patch_4">
    <path d="M 421.2 260.12 
L 421.2 25.49625 
" style="fill: none; stroke: #ffffff; stroke-width: 0.8; stroke-linejoin: miter; stroke-linecap: square"/>
   </g>
   <g id="patch_5">
    <path d="M 37.24 260.12 
L 421.2 260.12 
" style="fill: none; stroke: #ffffff; stroke-width: 0.8; stroke-linejoin: miter; stroke-linecap: square"/>
   </g>
   <g id="patch_6">
    <path d="M 37.24 25.49625 
L 421.2 25.49625 
" style="fill: none; stroke: #ffffff; stroke-width: 0.8; stroke-linejoin: miter; stroke-linecap: square"/>
   </g>
   <g id="text_15">
    <!-- Yearly average ratings -->
    <g style="fill: #262626" transform="translate(169.739375 19.49625) scale(0.12 -0.12)">
     <defs>
      <path id="ArialMT-59" d="M 1784 0 
L 1784 1941 
L 19 4581 
L 756 4581 
L 1659 3200 
Q 1909 2813 2125 2425 
Q 2331 2784 2625 3234 
L 3513 4581 
L 4219 4581 
L 2391 1941 
L 2391 0 
L 1784 0 
z
" transform="scale(0.015625)"/>
      <path id="ArialMT-65" d="M 2694 1069 
L 3275 997 
Q 3138 488 2766 206 
Q 2394 -75 1816 -75 
Q 1088 -75 661 373 
Q 234 822 234 1631 
Q 234 2469 665 2931 
Q 1097 3394 1784 3394 
Q 2450 3394 2872 2941 
Q 3294 2488 3294 1666 
Q 3294 1616 3291 1516 
L 816 1516 
Q 847 969 1125 678 
Q 1403 388 1819 388 
Q 2128 388 2347 550 
Q 2566 713 2694 1069 
z
M 847 1978 
L 2700 1978 
Q 2663 2397 2488 2606 
Q 2219 2931 1791 2931 
Q 1403 2931 1139 2672 
Q 875 2413 847 1978 
z
" transform="scale(0.015625)"/>
      <path id="ArialMT-61" d="M 2588 409 
Q 2275 144 1986 34 
Q 1697 -75 1366 -75 
Q 819 -75 525 192 
Q 231 459 231 875 
Q 231 1119 342 1320 
Q 453 1522 633 1644 
Q 813 1766 1038 1828 
Q 1203 1872 1538 1913 
Q 2219 1994 2541 2106 
Q 2544 2222 2544 2253 
Q 2544 2597 2384 2738 
Q 2169 2928 1744 2928 
Q 1347 2928 1158 2789 
Q 969 2650 878 2297 
L 328 2372 
Q 403 2725 575 2942 
Q 747 3159 1072 3276 
Q 1397 3394 1825 3394 
Q 2250 3394 2515 3294 
Q 2781 3194 2906 3042 
Q 3031 2891 3081 2659 
Q 3109 2516 3109 2141 
L 3109 1391 
Q 3109 606 3145 398 
Q 3181 191 3288 0 
L 2700 0 
Q 2613 175 2588 409 
z
M 2541 1666 
Q 2234 1541 1622 1453 
Q 1275 1403 1131 1340 
Q 988 1278 909 1158 
Q 831 1038 831 891 
Q 831 666 1001 516 
Q 1172 366 1500 366 
Q 1825 366 2078 508 
Q 2331 650 2450 897 
Q 2541 1088 2541 1459 
L 2541 1666 
z
" transform="scale(0.015625)"/>
      <path id="ArialMT-72" d="M 416 0 
L 416 3319 
L 922 3319 
L 922 2816 
Q 1116 3169 1280 3281 
Q 1444 3394 1641 3394 
Q 1925 3394 2219 3213 
L 2025 2691 
Q 1819 2813 1613 2813 
Q 1428 2813 1281 2702 
Q 1134 2591 1072 2394 
Q 978 2094 978 1738 
L 978 0 
L 416 0 
z
" transform="scale(0.015625)"/>
      <path id="ArialMT-6c" d="M 409 0 
L 409 4581 
L 972 4581 
L 972 0 
L 409 0 
z
" transform="scale(0.015625)"/>
      <path id="ArialMT-79" d="M 397 -1278 
L 334 -750 
Q 519 -800 656 -800 
Q 844 -800 956 -737 
Q 1069 -675 1141 -563 
Q 1194 -478 1313 -144 
Q 1328 -97 1363 -6 
L 103 3319 
L 709 3319 
L 1400 1397 
Q 1534 1031 1641 628 
Q 1738 1016 1872 1384 
L 2581 3319 
L 3144 3319 
L 1881 -56 
Q 1678 -603 1566 -809 
Q 1416 -1088 1222 -1217 
Q 1028 -1347 759 -1347 
Q 597 -1347 397 -1278 
z
" transform="scale(0.015625)"/>
      <path id="ArialMT-20" transform="scale(0.015625)"/>
      <path id="ArialMT-76" d="M 1344 0 
L 81 3319 
L 675 3319 
L 1388 1331 
Q 1503 1009 1600 663 
Q 1675 925 1809 1294 
L 2547 3319 
L 3125 3319 
L 1869 0 
L 1344 0 
z
" transform="scale(0.015625)"/>
      <path id="ArialMT-67" d="M 319 -275 
L 866 -356 
Q 900 -609 1056 -725 
Q 1266 -881 1628 -881 
Q 2019 -881 2231 -725 
Q 2444 -569 2519 -288 
Q 2563 -116 2559 434 
Q 2191 0 1641 0 
Q 956 0 581 494 
Q 206 988 206 1678 
Q 206 2153 378 2554 
Q 550 2956 876 3175 
Q 1203 3394 1644 3394 
Q 2231 3394 2613 2919 
L 2613 3319 
L 3131 3319 
L 3131 450 
Q 3131 -325 2973 -648 
Q 2816 -972 2473 -1159 
Q 2131 -1347 1631 -1347 
Q 1038 -1347 672 -1080 
Q 306 -813 319 -275 
z
M 784 1719 
Q 784 1066 1043 766 
Q 1303 466 1694 466 
Q 2081 466 2343 764 
Q 2606 1063 2606 1700 
Q 2606 2309 2336 2618 
Q 2066 2928 1684 2928 
Q 1309 2928 1046 2623 
Q 784 2319 784 1719 
z
" transform="scale(0.015625)"/>
      <path id="ArialMT-74" d="M 1650 503 
L 1731 6 
Q 1494 -44 1306 -44 
Q 1000 -44 831 53 
Q 663 150 594 308 
Q 525 466 525 972 
L 525 2881 
L 113 2881 
L 113 3319 
L 525 3319 
L 525 4141 
L 1084 4478 
L 1084 3319 
L 1650 3319 
L 1650 2881 
L 1084 2881 
L 1084 941 
Q 1084 700 1114 631 
Q 1144 563 1211 522 
Q 1278 481 1403 481 
Q 1497 481 1650 503 
z
" transform="scale(0.015625)"/>
      <path id="ArialMT-69" d="M 425 3934 
L 425 4581 
L 988 4581 
L 988 3934 
L 425 3934 
z
M 425 0 
L 425 3319 
L 988 3319 
L 988 0 
L 425 0 
z
" transform="scale(0.015625)"/>
      <path id="ArialMT-6e" d="M 422 0 
L 422 3319 
L 928 3319 
L 928 2847 
Q 1294 3394 1984 3394 
Q 2284 3394 2536 3286 
Q 2788 3178 2913 3003 
Q 3038 2828 3088 2588 
Q 3119 2431 3119 2041 
L 3119 0 
L 2556 0 
L 2556 2019 
Q 2556 2363 2490 2533 
Q 2425 2703 2258 2804 
Q 2091 2906 1866 2906 
Q 1506 2906 1245 2678 
Q 984 2450 984 1813 
L 984 0 
L 422 0 
z
" transform="scale(0.015625)"/>
      <path id="ArialMT-73" d="M 197 991 
L 753 1078 
Q 800 744 1014 566 
Q 1228 388 1613 388 
Q 2000 388 2187 545 
Q 2375 703 2375 916 
Q 2375 1106 2209 1216 
Q 2094 1291 1634 1406 
Q 1016 1563 777 1677 
Q 538 1791 414 1992 
Q 291 2194 291 2438 
Q 291 2659 392 2848 
Q 494 3038 669 3163 
Q 800 3259 1026 3326 
Q 1253 3394 1513 3394 
Q 1903 3394 2198 3281 
Q 2494 3169 2634 2976 
Q 2775 2784 2828 2463 
L 2278 2388 
Q 2241 2644 2061 2787 
Q 1881 2931 1553 2931 
Q 1166 2931 1000 2803 
Q 834 2675 834 2503 
Q 834 2394 903 2306 
Q 972 2216 1119 2156 
Q 1203 2125 1616 2013 
Q 2213 1853 2448 1751 
Q 2684 1650 2818 1456 
Q 2953 1263 2953 975 
Q 2953 694 2789 445 
Q 2625 197 2315 61 
Q 2006 -75 1616 -75 
Q 969 -75 630 194 
Q 291 463 197 991 
z
" transform="scale(0.015625)"/>
     </defs>
     <use xlink:href="#ArialMT-59"/>
     <use xlink:href="#ArialMT-65" x="57.574219"/>
     <use xlink:href="#ArialMT-61" x="113.189453"/>
     <use xlink:href="#ArialMT-72" x="168.804688"/>
     <use xlink:href="#ArialMT-6c" x="202.105469"/>
     <use xlink:href="#ArialMT-79" x="224.322266"/>
     <use xlink:href="#ArialMT-20" x="274.322266"/>
     <use xlink:href="#ArialMT-61" x="302.105469"/>
     <use xlink:href="#ArialMT-76" x="357.720703"/>
     <use xlink:href="#ArialMT-65" x="407.720703"/>
     <use xlink:href="#ArialMT-72" x="463.335938"/>
     <use xlink:href="#ArialMT-61" x="496.636719"/>
     <use xlink:href="#ArialMT-67" x="552.251953"/>
     <use xlink:href="#ArialMT-65" x="607.867188"/>
     <use xlink:href="#ArialMT-20" x="663.482422"/>
     <use xlink:href="#ArialMT-72" x="691.265625"/>
     <use xlink:href="#ArialMT-61" x="724.566406"/>
     <use xlink:href="#ArialMT-74" x="780.181641"/>
     <use xlink:href="#ArialMT-69" x="807.964844"/>
     <use xlink:href="#ArialMT-6e" x="830.181641"/>
     <use xlink:href="#ArialMT-67" x="885.796875"/>
     <use xlink:href="#ArialMT-73" x="941.412109"/>
    </g>
   </g>
  </g>
 </g>
 <defs>
  <clipPath id="p99f0e86c96">
   <rect x="37.24" y="25.49625" width="383.96" height="234.62375"/>
  </clipPath>
 </defs>
</svg>
