<?xml version="1.0" encoding="utf-8" standalone="no"?>
<!DOCTYPE svg PUBLIC "-//W3C//DTD SVG 1.1//EN"
  "http://www.w3.org/Graphics/SVG/1.1/DTD/svg11.dtd">
<svg xmlns:xlink="http://www.w3.org/1999/xlink" width="460.8pt" height="345.6pt" viewBox="0 0 460.8 345.6" xmlns="http://www.w3.org/2000/svg" version="1.1">
 <metadata>
  <rdf:RDF xmlns:dc="http://purl.org/dc/elements/1.1/" xmlns:cc="http://creativecommons.org/ns#" xmlns:rdf="http://www.w3.org/1999/02/22-rdf-syntax-ns#">
   <cc:Work>
    <dc:type rdf:resource="http://purl.org/dc/dcmitype/StillImage"/>
    <dc:date>2024-08-19T22:01:49.036712</dc:date>
    <dc:format>image/svg+xml</dc:format>
    <dc:creator>
     <cc:Agent>
      <dc:title>Matplotlib v3.9.2, https://matplotlib.org/</dc:title>
     </cc:Agent>
    </dc:creator>
   </cc:Work>
  </rdf:RDF>
 </metadata>
 <defs>
  <style type="text/css">*{stroke-linejoin: round; stroke-linecap: butt}</style>
 </defs>
 <g id="figure_1">
  <g id="patch_1">
   <path d="M 0 345.6 
L 460.8 345.6 
L 460.8 0 
L 0 0 
z
" style="fill: #ffffff"/>
  </g>
  <g id="axes_1">
   <g id="patch_2">
    <path d="M 31.66 317.72 
L 450 317.72 
L 450 25.49625 
L 31.66 25.49625 
z
" style="fill: #eaeaf2"/>
   </g>
   <g id="matplotlib.axis_1">
    <g id="xtick_1">
     <g id="text_1">
      <!-- 1970 -->
      <g style="fill: #262626" transform="translate(39.55358 331.877812) scale(0.1 -0.1)">
       <defs>
        <path id="ArialMT-31" d="M 2384 0 
L 1822 0 
L 1822 3584 
Q 1619 3391 1289 3197 
Q 959 3003 697 2906 
L 697 3450 
Q 1169 3672 1522 3987 
Q 1875 4303 2022 4600 
L 2384 4600 
L 2384 0 
z
" transform="scale(0.015625)"/>
        <path id="ArialMT-39" d="M 350 1059 
L 891 1109 
Q 959 728 1153 556 
Q 1347 384 1650 384 
Q 1909 384 2104 503 
Q 2300 622 2425 820 
Q 2550 1019 2634 1356 
Q 2719 1694 2719 2044 
Q 2719 2081 2716 2156 
Q 2547 1888 2255 1720 
Q 1963 1553 1622 1553 
Q 1053 1553 659 1965 
Q 266 2378 266 3053 
Q 266 3750 677 4175 
Q 1088 4600 1706 4600 
Q 2153 4600 2523 4359 
Q 2894 4119 3086 3673 
Q 3278 3228 3278 2384 
Q 3278 1506 3087 986 
Q 2897 466 2520 194 
Q 2144 -78 1638 -78 
Q 1100 -78 759 220 
Q 419 519 350 1059 
z
M 2653 3081 
Q 2653 3566 2395 3850 
Q 2138 4134 1775 4134 
Q 1400 4134 1122 3828 
Q 844 3522 844 3034 
Q 844 2597 1108 2323 
Q 1372 2050 1759 2050 
Q 2150 2050 2401 2323 
Q 2653 2597 2653 3081 
z
" transform="scale(0.015625)"/>
        <path id="ArialMT-37" d="M 303 3981 
L 303 4522 
L 3269 4522 
L 3269 4084 
Q 2831 3619 2401 2847 
Q 1972 2075 1738 1259 
Q 1569 684 1522 0 
L 944 0 
Q 953 541 1156 1306 
Q 1359 2072 1739 2783 
Q 2119 3494 2547 3981 
L 303 3981 
z
" transform="scale(0.015625)"/>
        <path id="ArialMT-30" d="M 266 2259 
Q 266 3072 433 3567 
Q 600 4063 929 4331 
Q 1259 4600 1759 4600 
Q 2128 4600 2406 4451 
Q 2684 4303 2865 4023 
Q 3047 3744 3150 3342 
Q 3253 2941 3253 2259 
Q 3253 1453 3087 958 
Q 2922 463 2592 192 
Q 2263 -78 1759 -78 
Q 1097 -78 719 397 
Q 266 969 266 2259 
z
M 844 2259 
Q 844 1131 1108 757 
Q 1372 384 1759 384 
Q 2147 384 2411 759 
Q 2675 1134 2675 2259 
Q 2675 3391 2411 3762 
Q 2147 4134 1753 4134 
Q 1366 4134 1134 3806 
Q 844 3388 844 2259 
z
" transform="scale(0.015625)"/>
       </defs>
       <use xlink:href="#ArialMT-31"/>
       <use xlink:href="#ArialMT-39" x="55.615234"/>
       <use xlink:href="#ArialMT-37" x="111.230469"/>
       <use xlink:href="#ArialMT-30" x="166.845703"/>
      </g>
     </g>
    </g>
    <g id="xtick_2">
     <g id="text_2">
      <!-- 1980 -->
      <g style="fill: #262626" transform="translate(111.310012 331.877812) scale(0.1 -0.1)">
       <defs>
        <path id="ArialMT-38" d="M 1131 2484 
Q 781 2613 612 2850 
Q 444 3088 444 3419 
Q 444 3919 803 4259 
Q 1163 4600 1759 4600 
Q 2359 4600 2725 4251 
Q 3091 3903 3091 3403 
Q 3091 3084 2923 2848 
Q 2756 2613 2416 2484 
Q 2838 2347 3058 2040 
Q 3278 1734 3278 1309 
Q 3278 722 2862 322 
Q 2447 -78 1769 -78 
Q 1091 -78 675 323 
Q 259 725 259 1325 
Q 259 1772 486 2073 
Q 713 2375 1131 2484 
z
M 1019 3438 
Q 1019 3113 1228 2906 
Q 1438 2700 1772 2700 
Q 2097 2700 2305 2904 
Q 2513 3109 2513 3406 
Q 2513 3716 2298 3927 
Q 2084 4138 1766 4138 
Q 1444 4138 1231 3931 
Q 1019 3725 1019 3438 
z
M 838 1322 
Q 838 1081 952 856 
Q 1066 631 1291 507 
Q 1516 384 1775 384 
Q 2178 384 2440 643 
Q 2703 903 2703 1303 
Q 2703 1709 2433 1975 
Q 2163 2241 1756 2241 
Q 1359 2241 1098 1978 
Q 838 1716 838 1322 
z
" transform="scale(0.015625)"/>
       </defs>
       <use xlink:href="#ArialMT-31"/>
       <use xlink:href="#ArialMT-39" x="55.615234"/>
       <use xlink:href="#ArialMT-38" x="111.230469"/>
       <use xlink:href="#ArialMT-30" x="166.845703"/>
      </g>
     </g>
    </g>
    <g id="xtick_3">
     <g id="text_3">
      <!-- 1990 -->
      <g style="fill: #262626" transform="translate(183.066444 331.877812) scale(0.1 -0.1)">
       <use xlink:href="#ArialMT-31"/>
       <use xlink:href="#ArialMT-39" x="55.615234"/>
       <use xlink:href="#ArialMT-39" x="111.230469"/>
       <use xlink:href="#ArialMT-30" x="166.845703"/>
      </g>
     </g>
    </g>
    <g id="xtick_4">
     <g id="text_4">
      <!-- 2000 -->
      <g style="fill: #262626" transform="translate(254.822876 331.877812) scale(0.1 -0.1)">
       <defs>
        <path id="ArialMT-32" d="M 3222 541 
L 3222 0 
L 194 0 
Q 188 203 259 391 
Q 375 700 629 1000 
Q 884 1300 1366 1694 
Q 2113 2306 2375 2664 
Q 2638 3022 2638 3341 
Q 2638 3675 2398 3904 
Q 2159 4134 1775 4134 
Q 1369 4134 1125 3890 
Q 881 3647 878 3216 
L 300 3275 
Q 359 3922 746 4261 
Q 1134 4600 1788 4600 
Q 2447 4600 2831 4234 
Q 3216 3869 3216 3328 
Q 3216 3053 3103 2787 
Q 2991 2522 2730 2228 
Q 2469 1934 1863 1422 
Q 1356 997 1212 845 
Q 1069 694 975 541 
L 3222 541 
z
" transform="scale(0.015625)"/>
       </defs>
       <use xlink:href="#ArialMT-32"/>
       <use xlink:href="#ArialMT-30" x="55.615234"/>
       <use xlink:href="#ArialMT-30" x="111.230469"/>
       <use xlink:href="#ArialMT-30" x="166.845703"/>
      </g>
     </g>
    </g>
    <g id="xtick_5">
     <g id="text_5">
      <!-- 2010 -->
      <g style="fill: #262626" transform="translate(326.579309 331.877812) scale(0.1 -0.1)">
       <use xlink:href="#ArialMT-32"/>
       <use xlink:href="#ArialMT-30" x="55.615234"/>
       <use xlink:href="#ArialMT-31" x="111.230469"/>
       <use xlink:href="#ArialMT-30" x="166.845703"/>
      </g>
     </g>
    </g>
    <g id="xtick_6">
     <g id="text_6">
      <!-- 2020 -->
      <g style="fill: #262626" transform="translate(398.335741 331.877812) scale(0.1 -0.1)">
       <use xlink:href="#ArialMT-32"/>
       <use xlink:href="#ArialMT-30" x="55.615234"/>
       <use xlink:href="#ArialMT-32" x="111.230469"/>
       <use xlink:href="#ArialMT-30" x="166.845703"/>
      </g>
     </g>
    </g>
   </g>
   <g id="matplotlib.axis_2">
    <g id="ytick_1">
     <g id="text_7">
      <!-- 5.8 -->
      <g style="fill: #262626" transform="translate(10.76 308.028931) scale(0.1 -0.1)">
       <defs>
        <path id="ArialMT-35" d="M 266 1200 
L 856 1250 
Q 922 819 1161 601 
Q 1400 384 1738 384 
Q 2144 384 2425 690 
Q 2706 997 2706 1503 
Q 2706 1984 2436 2262 
Q 2166 2541 1728 2541 
Q 1456 2541 1237 2417 
Q 1019 2294 894 2097 
L 366 2166 
L 809 4519 
L 3088 4519 
L 3088 3981 
L 1259 3981 
L 1013 2750 
Q 1425 3038 1878 3038 
Q 2478 3038 2890 2622 
Q 3303 2206 3303 1553 
Q 3303 931 2941 478 
Q 2500 -78 1738 -78 
Q 1113 -78 717 272 
Q 322 622 266 1200 
z
" transform="scale(0.015625)"/>
        <path id="ArialMT-2e" d="M 581 0 
L 581 641 
L 1222 641 
L 1222 0 
L 581 0 
z
" transform="scale(0.015625)"/>
       </defs>
       <use xlink:href="#ArialMT-35"/>
       <use xlink:href="#ArialMT-2e" x="55.615234"/>
       <use xlink:href="#ArialMT-38" x="83.398438"/>
      </g>
     </g>
    </g>
    <g id="ytick_2">
     <g id="text_8">
      <!-- 6.0 -->
      <g style="fill: #262626" transform="translate(10.76 271.107635) scale(0.1 -0.1)">
       <defs>
        <path id="ArialMT-36" d="M 3184 3459 
L 2625 3416 
Q 2550 3747 2413 3897 
Q 2184 4138 1850 4138 
Q 1581 4138 1378 3988 
Q 1113 3794 959 3422 
Q 806 3050 800 2363 
Q 1003 2672 1297 2822 
Q 1591 2972 1913 2972 
Q 2475 2972 2870 2558 
Q 3266 2144 3266 1488 
Q 3266 1056 3080 686 
Q 2894 316 2569 119 
Q 2244 -78 1831 -78 
Q 1128 -78 684 439 
Q 241 956 241 2144 
Q 241 3472 731 4075 
Q 1159 4600 1884 4600 
Q 2425 4600 2770 4297 
Q 3116 3994 3184 3459 
z
M 888 1484 
Q 888 1194 1011 928 
Q 1134 663 1356 523 
Q 1578 384 1822 384 
Q 2178 384 2434 671 
Q 2691 959 2691 1453 
Q 2691 1928 2437 2201 
Q 2184 2475 1800 2475 
Q 1419 2475 1153 2201 
Q 888 1928 888 1484 
z
" transform="scale(0.015625)"/>
       </defs>
       <use xlink:href="#ArialMT-36"/>
       <use xlink:href="#ArialMT-2e" x="55.615234"/>
       <use xlink:href="#ArialMT-30" x="83.398438"/>
      </g>
     </g>
    </g>
    <g id="ytick_3">
     <g id="text_9">
      <!-- 6.2 -->
      <g style="fill: #262626" transform="translate(10.76 234.186339) scale(0.1 -0.1)">
       <use xlink:href="#ArialMT-36"/>
       <use xlink:href="#ArialMT-2e" x="55.615234"/>
       <use xlink:href="#ArialMT-32" x="83.398438"/>
      </g>
     </g>
    </g>
    <g id="ytick_4">
     <g id="text_10">
      <!-- 6.4 -->
      <g style="fill: #262626" transform="translate(10.76 197.265043) scale(0.1 -0.1)">
       <defs>
        <path id="ArialMT-34" d="M 2069 0 
L 2069 1097 
L 81 1097 
L 81 1613 
L 2172 4581 
L 2631 4581 
L 2631 1613 
L 3250 1613 
L 3250 1097 
L 2631 1097 
L 2631 0 
L 2069 0 
z
M 2069 1613 
L 2069 3678 
L 634 1613 
L 2069 1613 
z
" transform="scale(0.015625)"/>
       </defs>
       <use xlink:href="#ArialMT-36"/>
       <use xlink:href="#ArialMT-2e" x="55.615234"/>
       <use xlink:href="#ArialMT-34" x="83.398438"/>
      </g>
     </g>
    </g>
    <g id="ytick_5">
     <g id="text_11">
      <!-- 6.6 -->
      <g style="fill: #262626" transform="translate(10.76 160.343747) scale(0.1 -0.1)">
       <use xlink:href="#ArialMT-36"/>
       <use xlink:href="#ArialMT-2e" x="55.615234"/>
       <use xlink:href="#ArialMT-36" x="83.398438"/>
      </g>
     </g>
    </g>
    <g id="ytick_6">
     <g id="text_12">
      <!-- 6.8 -->
      <g style="fill: #262626" transform="translate(10.76 123.422451) scale(0.1 -0.1)">
       <use xlink:href="#ArialMT-36"/>
       <use xlink:href="#ArialMT-2e" x="55.615234"/>
       <use xlink:href="#ArialMT-38" x="83.398438"/>
      </g>
     </g>
    </g>
    <g id="ytick_7">
     <g id="text_13">
      <!-- 7.0 -->
      <g style="fill: #262626" transform="translate(10.76 86.501155) scale(0.1 -0.1)">
       <use xlink:href="#ArialMT-37"/>
       <use xlink:href="#ArialMT-2e" x="55.615234"/>
       <use xlink:href="#ArialMT-30" x="83.398438"/>
      </g>
     </g>
    </g>
    <g id="ytick_8">
     <g id="text_14">
      <!-- 7.2 -->
      <g style="fill: #262626" transform="translate(10.76 49.579859) scale(0.1 -0.1)">
       <use xlink:href="#ArialMT-37"/>
       <use xlink:href="#ArialMT-2e" x="55.615234"/>
       <use xlink:href="#ArialMT-32" x="83.398438"/>
      </g>
     </g>
    </g>
   </g>
   <g id="PathCollection_1">
    <path d="M 50.675455 256.594976 
C 51.238604 256.594976 51.778763 256.371234 52.17697 255.973028 
C 52.575176 255.574821 52.798918 255.034662 52.798918 254.471512 
C 52.798918 253.908363 52.575176 253.368204 52.17697 252.969997 
C 51.778763 252.571791 51.238604 252.348049 50.675455 252.348049 
C 50.112305 252.348049 49.572146 252.571791 49.173939 252.969997 
C 48.775733 253.368204 48.551991 253.908363 48.551991 254.471512 
C 48.551991 255.034662 48.775733 255.574821 49.173939 255.973028 
C 49.572146 256.371234 50.112305 256.594976 50.675455 256.594976 
z
" clip-path="url(#p5f3a6776ac)" style="fill: #800080; stroke: #ffffff; stroke-width: 0.354218"/>
    <path d="M 57.851098 249.112578 
C 58.413679 249.112578 58.953293 248.889063 59.351098 248.491258 
C 59.748902 248.093453 59.972418 247.553839 59.972418 246.991258 
C 59.972418 246.428677 59.748902 245.889063 59.351098 245.491258 
C 58.953293 245.093453 58.413679 244.869938 57.851098 244.869938 
C 57.288517 244.869938 56.748902 245.093453 56.351098 245.491258 
C 55.953293 245.889063 55.729777 246.428677 55.729777 246.991258 
C 55.729777 247.553839 55.953293 248.093453 56.351098 248.491258 
C 56.748902 248.889063 57.288517 249.112578 57.851098 249.112578 
z
" clip-path="url(#p5f3a6776ac)" style="fill: #800080; stroke: #ffffff; stroke-width: 0.354218"/>
    <path d="M 65.026741 266.419812 
C 65.605578 266.419812 66.160785 266.189837 66.570084 265.780538 
C 66.979383 265.371239 67.209357 264.816032 67.209357 264.237195 
C 67.209357 263.658359 66.979383 263.103152 66.570084 262.693852 
C 66.160785 262.284553 65.605578 262.054579 65.026741 262.054579 
C 64.447904 262.054579 63.892697 262.284553 63.483398 262.693852 
C 63.074099 263.103152 62.844125 263.658359 62.844125 264.237195 
C 62.844125 264.816032 63.074099 265.371239 63.483398 265.780538 
C 63.892697 266.189837 64.447904 266.419812 65.026741 266.419812 
z
" clip-path="url(#p5f3a6776ac)" style="fill: #800080; stroke: #ffffff; stroke-width: 0.354218"/>
    <path d="M 72.202384 279.347349 
C 72.784527 279.347349 73.342906 279.116061 73.754543 278.704424 
C 74.166181 278.292786 74.397469 277.734408 74.397469 277.152265 
C 74.397469 276.570121 74.166181 276.011743 73.754543 275.600105 
C 73.342906 275.188468 72.784527 274.95718 72.202384 274.95718 
C 71.620241 274.95718 71.061862 275.188468 70.650225 275.600105 
C 70.238588 276.011743 70.0073 276.570121 70.0073 277.152265 
C 70.0073 277.734408 70.238588 278.292786 70.650225 278.704424 
C 71.061862 279.116061 71.620241 279.347349 72.202384 279.347349 
z
" clip-path="url(#p5f3a6776ac)" style="fill: #800080; stroke: #ffffff; stroke-width: 0.354218"/>
    <path d="M 79.378027 249.541012 
C 79.96072 249.541012 80.519625 249.309506 80.931651 248.89748 
C 81.343677 248.485454 81.575183 247.926549 81.575183 247.343856 
C 81.575183 246.761164 81.343677 246.202258 80.931651 245.790233 
C 80.519625 245.378207 79.96072 245.146701 79.378027 245.146701 
C 78.795335 245.146701 78.23643 245.378207 77.824404 245.790233 
C 77.412378 246.202258 77.180872 246.761164 77.180872 247.343856 
C 77.180872 247.926549 77.412378 248.485454 77.824404 248.89748 
C 78.23643 249.309506 78.795335 249.541012 79.378027 249.541012 
z
" clip-path="url(#p5f3a6776ac)" style="fill: #800080; stroke: #ffffff; stroke-width: 0.354218"/>
    <path d="M 86.553671 253.003742 
C 87.162671 253.003742 87.746811 252.761783 88.177439 252.331155 
C 88.608068 251.900526 88.850026 251.316387 88.850026 250.707386 
C 88.850026 250.098386 88.608068 249.514246 88.177439 249.083618 
C 87.746811 248.652989 87.162671 248.411031 86.553671 248.411031 
C 85.94467 248.411031 85.360531 248.652989 84.929902 249.083618 
C 84.499274 249.514246 84.257315 250.098386 84.257315 250.707386 
C 84.257315 251.316387 84.499274 251.900526 84.929902 252.331155 
C 85.360531 252.761783 85.94467 253.003742 86.553671 253.003742 
z
" clip-path="url(#p5f3a6776ac)" style="fill: #800080; stroke: #ffffff; stroke-width: 0.354218"/>
    <path d="M 93.729314 248.378457 
C 94.308703 248.378457 94.86444 248.148264 95.27413 247.738574 
C 95.683819 247.328884 95.914013 246.773147 95.914013 246.193758 
C 95.914013 245.614369 95.683819 245.058632 95.27413 244.648942 
C 94.86444 244.239252 94.308703 244.009059 93.729314 244.009059 
C 93.149925 244.009059 92.594188 244.239252 92.184498 244.648942 
C 91.774808 245.058632 91.544615 245.614369 91.544615 246.193758 
C 91.544615 246.773147 91.774808 247.328884 92.184498 247.738574 
C 92.594188 248.148264 93.149925 248.378457 93.729314 248.378457 
z
" clip-path="url(#p5f3a6776ac)" style="fill: #800080; stroke: #ffffff; stroke-width: 0.354218"/>
    <path d="M 100.904957 249.178645 
C 101.50709 249.178645 102.084642 248.939415 102.510414 248.513642 
C 102.936187 248.08787 103.175417 247.510318 103.175417 246.908185 
C 103.175417 246.306052 102.936187 245.7285 102.510414 245.302728 
C 102.084642 244.876955 101.50709 244.637725 100.904957 244.637725 
C 100.302824 244.637725 99.725272 244.876955 99.2995 245.302728 
C 98.873728 245.7285 98.634498 246.306052 98.634498 246.908185 
C 98.634498 247.510318 98.873728 248.08787 99.2995 248.513642 
C 99.725272 248.939415 100.302824 249.178645 100.904957 249.178645 
z
" clip-path="url(#p5f3a6776ac)" style="fill: #800080; stroke: #ffffff; stroke-width: 0.354218"/>
    <path d="M 108.0806 260.497226 
C 108.677932 260.497226 109.25088 260.259904 109.673257 259.837526 
C 110.095635 259.415148 110.332958 258.842201 110.332958 258.244869 
C 110.332958 257.647537 110.095635 257.074589 109.673257 256.652212 
C 109.25088 256.229834 108.677932 255.992512 108.0806 255.992512 
C 107.483268 255.992512 106.910321 256.229834 106.487943 256.652212 
C 106.065566 257.074589 105.828243 257.647537 105.828243 258.244869 
C 105.828243 258.842201 106.065566 259.415148 106.487943 259.837526 
C 106.910321 260.259904 107.483268 260.497226 108.0806 260.497226 
z
" clip-path="url(#p5f3a6776ac)" style="fill: #800080; stroke: #ffffff; stroke-width: 0.354218"/>
    <path d="M 115.256244 219.070987 
C 115.872035 219.070987 116.462688 218.82633 116.898119 218.3909 
C 117.333549 217.955469 117.578206 217.364816 117.578206 216.749024 
C 117.578206 216.133233 117.333549 215.54258 116.898119 215.107149 
C 116.462688 214.671719 115.872035 214.427062 115.256244 214.427062 
C 114.640452 214.427062 114.049799 214.671719 113.614368 215.107149 
C 113.178938 215.54258 112.934281 216.133233 112.934281 216.749024 
C 112.934281 217.364816 113.178938 217.955469 113.614368 218.3909 
C 114.049799 218.82633 114.640452 219.070987 115.256244 219.070987 
z
" clip-path="url(#p5f3a6776ac)" style="fill: #800080; stroke: #ffffff; stroke-width: 0.354218"/>
    <path d="M 122.431887 231.029088 
C 123.044553 231.029088 123.632209 230.785673 124.06543 230.352452 
C 124.498651 229.919231 124.742066 229.331575 124.742066 228.718909 
C 124.742066 228.106242 124.498651 227.518586 124.06543 227.085365 
C 123.632209 226.652145 123.044553 226.40873 122.431887 226.40873 
C 121.81922 226.40873 121.231564 226.652145 120.798344 227.085365 
C 120.365123 227.518586 120.121708 228.106242 120.121708 228.718909 
C 120.121708 229.331575 120.365123 229.919231 120.798344 230.352452 
C 121.231564 230.785673 121.81922 231.029088 122.431887 231.029088 
z
" clip-path="url(#p5f3a6776ac)" style="fill: #800080; stroke: #ffffff; stroke-width: 0.354218"/>
    <path d="M 129.60753 252.032718 
C 130.234647 252.032718 130.836163 251.783562 131.279601 251.340123 
C 131.72304 250.896685 131.972196 250.295169 131.972196 249.668052 
C 131.972196 249.040935 131.72304 248.439419 131.279601 247.995981 
C 130.836163 247.552542 130.234647 247.303386 129.60753 247.303386 
C 128.980413 247.303386 128.378897 247.552542 127.935459 247.995981 
C 127.49202 248.439419 127.242864 249.040935 127.242864 249.668052 
C 127.242864 250.295169 127.49202 250.896685 127.935459 251.340123 
C 128.378897 251.783562 128.980413 252.032718 129.60753 252.032718 
z
" clip-path="url(#p5f3a6776ac)" style="fill: #800080; stroke: #ffffff; stroke-width: 0.354218"/>
    <path d="M 136.783173 255.892366 
C 137.397925 255.892366 137.987581 255.648123 138.422276 255.213428 
C 138.856971 254.778733 139.101215 254.189077 139.101215 253.574325 
C 139.101215 252.959573 138.856971 252.369917 138.422276 251.935222 
C 137.987581 251.500527 137.397925 251.256284 136.783173 251.256284 
C 136.168422 251.256284 135.578766 251.500527 135.144071 251.935222 
C 134.709375 252.369917 134.465132 252.959573 134.465132 253.574325 
C 134.465132 254.189077 134.709375 254.778733 135.144071 255.213428 
C 135.578766 255.648123 136.168422 255.892366 136.783173 255.892366 
z
" clip-path="url(#p5f3a6776ac)" style="fill: #800080; stroke: #ffffff; stroke-width: 0.354218"/>
    <path d="M 143.958816 250.816866 
C 144.579266 250.816866 145.174387 250.570359 145.613111 250.131635 
C 146.051835 249.692911 146.298343 249.09779 146.298343 248.47734 
C 146.298343 247.85689 146.051835 247.261769 145.613111 246.823045 
C 145.174387 246.384321 144.579266 246.137814 143.958816 246.137814 
C 143.338367 246.137814 142.743246 246.384321 142.304522 246.823045 
C 141.865798 247.261769 141.61929 247.85689 141.61929 248.47734 
C 141.61929 249.09779 141.865798 249.692911 142.304522 250.131635 
C 142.743246 250.570359 143.338367 250.816866 143.958816 250.816866 
z
" clip-path="url(#p5f3a6776ac)" style="fill: #800080; stroke: #ffffff; stroke-width: 0.354218"/>
    <path d="M 151.13446 284.491375 
C 151.734464 284.491375 152.309974 284.252991 152.734241 283.828724 
C 153.158508 283.404457 153.396892 282.828947 153.396892 282.228943 
C 153.396892 281.628939 153.158508 281.053429 152.734241 280.629162 
C 152.309974 280.204895 151.734464 279.966511 151.13446 279.966511 
C 150.534456 279.966511 149.958946 280.204895 149.534679 280.629162 
C 149.110412 281.053429 148.872028 281.628939 148.872028 282.228943 
C 148.872028 282.828947 149.110412 283.404457 149.534679 283.828724 
C 149.958946 284.252991 150.534456 284.491375 151.13446 284.491375 
z
" clip-path="url(#p5f3a6776ac)" style="fill: #800080; stroke: #ffffff; stroke-width: 0.354218"/>
    <path d="M 158.310103 250.147528 
C 158.925375 250.147528 159.51553 249.903078 159.950593 249.468015 
C 160.385655 249.032952 160.630106 248.442797 160.630106 247.827525 
C 160.630106 247.212253 160.385655 246.622099 159.950593 246.187036 
C 159.51553 245.751973 158.925375 245.507523 158.310103 245.507523 
C 157.694831 245.507523 157.104676 245.751973 156.669613 246.187036 
C 156.23455 246.622099 155.9901 247.212253 155.9901 247.827525 
C 155.9901 248.442797 156.23455 249.032952 156.669613 249.468015 
C 157.104676 249.903078 157.694831 250.147528 158.310103 250.147528 
z
" clip-path="url(#p5f3a6776ac)" style="fill: #800080; stroke: #ffffff; stroke-width: 0.354218"/>
    <path d="M 165.485746 261.401174 
C 166.110819 261.401174 166.710375 261.15283 167.152368 260.710837 
C 167.594361 260.268843 167.842705 259.669288 167.842705 259.044215 
C 167.842705 258.419142 167.594361 257.819587 167.152368 257.377593 
C 166.710375 256.9356 166.110819 256.687256 165.485746 256.687256 
C 164.860673 256.687256 164.261118 256.9356 163.819124 257.377593 
C 163.377131 257.819587 163.128787 258.419142 163.128787 259.044215 
C 163.128787 259.669288 163.377131 260.268843 163.819124 260.710837 
C 164.261118 261.15283 164.860673 261.401174 165.485746 261.401174 
z
" clip-path="url(#p5f3a6776ac)" style="fill: #800080; stroke: #ffffff; stroke-width: 0.354218"/>
    <path d="M 172.661389 272.951084 
C 173.281323 272.951084 173.875949 272.704782 174.314309 272.266423 
C 174.752668 271.828063 174.998971 271.233437 174.998971 270.613503 
C 174.998971 269.993569 174.752668 269.398943 174.314309 268.960584 
C 173.875949 268.522224 173.281323 268.275922 172.661389 268.275922 
C 172.041456 268.275922 171.446829 268.522224 171.00847 268.960584 
C 170.57011 269.398943 170.323808 269.993569 170.323808 270.613503 
C 170.323808 271.233437 170.57011 271.828063 171.00847 272.266423 
C 171.446829 272.704782 172.041456 272.951084 172.661389 272.951084 
z
" clip-path="url(#p5f3a6776ac)" style="fill: #800080; stroke: #ffffff; stroke-width: 0.354218"/>
    <path d="M 179.837033 306.764934 
C 180.454381 306.764934 181.046527 306.519659 181.483058 306.083128 
C 181.919589 305.646597 182.164864 305.05445 182.164864 304.437102 
C 182.164864 303.819754 181.919589 303.227608 181.483058 302.791077 
C 181.046527 302.354546 180.454381 302.109271 179.837033 302.109271 
C 179.219684 302.109271 178.627538 302.354546 178.191007 302.791077 
C 177.754476 303.227608 177.509201 303.819754 177.509201 304.437102 
C 177.509201 305.05445 177.754476 305.646597 178.191007 306.083128 
C 178.627538 306.519659 179.219684 306.764934 179.837033 306.764934 
z
" clip-path="url(#p5f3a6776ac)" style="fill: #800080; stroke: #ffffff; stroke-width: 0.354218"/>
    <path d="M 187.012676 279.93792 
C 187.630024 279.93792 188.22217 279.692645 188.658701 279.256114 
C 189.095233 278.819583 189.340508 278.227437 189.340508 277.610089 
C 189.340508 276.99274 189.095233 276.400594 188.658701 275.964063 
C 188.22217 275.527532 187.630024 275.282257 187.012676 275.282257 
C 186.395328 275.282257 185.803181 275.527532 185.36665 275.964063 
C 184.930119 276.400594 184.684844 276.99274 184.684844 277.610089 
C 184.684844 278.227437 184.930119 278.819583 185.36665 279.256114 
C 185.803181 279.692645 186.395328 279.93792 187.012676 279.93792 
z
" clip-path="url(#p5f3a6776ac)" style="fill: #800080; stroke: #ffffff; stroke-width: 0.354218"/>
    <path d="M 194.188319 268.002617 
C 194.81288 268.002617 195.411944 267.754477 195.853576 267.312845 
C 196.295207 266.871214 196.543347 266.27215 196.543347 265.647589 
C 196.543347 265.023028 196.295207 264.423963 195.853576 263.982332 
C 195.411944 263.540701 194.81288 263.29256 194.188319 263.29256 
C 193.563758 263.29256 192.964694 263.540701 192.523062 263.982332 
C 192.081431 264.423963 191.833291 265.023028 191.833291 265.647589 
C 191.833291 266.27215 192.081431 266.871214 192.523062 267.312845 
C 192.964694 267.754477 193.563758 268.002617 194.188319 268.002617 
z
" clip-path="url(#p5f3a6776ac)" style="fill: #800080; stroke: #ffffff; stroke-width: 0.354218"/>
    <path d="M 201.363962 276.597697 
C 202.0012 276.597697 202.612424 276.34452 203.063019 275.893925 
C 203.513614 275.44333 203.766791 274.832106 203.766791 274.194869 
C 203.766791 273.557631 203.513614 272.946407 203.063019 272.495812 
C 202.612424 272.045217 202.0012 271.79204 201.363962 271.79204 
C 200.726725 271.79204 200.115501 272.045217 199.664906 272.495812 
C 199.214311 272.946407 198.961134 273.557631 198.961134 274.194869 
C 198.961134 274.832106 199.214311 275.44333 199.664906 275.893925 
C 200.115501 276.34452 200.726725 276.597697 201.363962 276.597697 
z
" clip-path="url(#p5f3a6776ac)" style="fill: #800080; stroke: #ffffff; stroke-width: 0.354218"/>
    <path d="M 208.539605 239.730694 
C 209.19271 239.730694 209.819154 239.471212 210.280968 239.009398 
C 210.742783 238.547583 211.002265 237.921139 211.002265 237.268035 
C 211.002265 236.61493 210.742783 235.988487 210.280968 235.526672 
C 209.819154 235.064857 209.19271 234.805376 208.539605 234.805376 
C 207.886501 234.805376 207.260057 235.064857 206.798243 235.526672 
C 206.336428 235.988487 206.076946 236.61493 206.076946 237.268035 
C 206.076946 237.921139 206.336428 238.547583 206.798243 239.009398 
C 207.260057 239.471212 207.886501 239.730694 208.539605 239.730694 
z
" clip-path="url(#p5f3a6776ac)" style="fill: #800080; stroke: #ffffff; stroke-width: 0.354218"/>
    <path d="M 215.715249 259.036668 
C 216.360964 259.036668 216.98032 258.780122 217.43691 258.323532 
C 217.8935 257.866943 218.150045 257.247587 218.150045 256.601871 
C 218.150045 255.956156 217.8935 255.3368 217.43691 254.88021 
C 216.98032 254.42362 216.360964 254.167075 215.715249 254.167075 
C 215.069533 254.167075 214.450177 254.42362 213.993588 254.88021 
C 213.536998 255.3368 213.280452 255.956156 213.280452 256.601871 
C 213.280452 257.247587 213.536998 257.866943 213.993588 258.323532 
C 214.450177 258.780122 215.069533 259.036668 215.715249 259.036668 
z
" clip-path="url(#p5f3a6776ac)" style="fill: #800080; stroke: #ffffff; stroke-width: 0.354218"/>
    <path d="M 222.890892 261.892372 
C 223.533628 261.892372 224.150126 261.63701 224.604609 261.182527 
C 225.059092 260.728044 225.314454 260.111546 225.314454 259.46881 
C 225.314454 258.826074 225.059092 258.209576 224.604609 257.755093 
C 224.150126 257.30061 223.533628 257.045248 222.890892 257.045248 
C 222.248156 257.045248 221.631658 257.30061 221.177175 257.755093 
C 220.722692 258.209576 220.46733 258.826074 220.46733 259.46881 
C 220.46733 260.111546 220.722692 260.728044 221.177175 261.182527 
C 221.631658 261.63701 222.248156 261.892372 222.890892 261.892372 
z
" clip-path="url(#p5f3a6776ac)" style="fill: #800080; stroke: #ffffff; stroke-width: 0.354218"/>
    <path d="M 230.066535 243.302741 
C 230.725492 243.302741 231.357548 243.040935 231.823501 242.574983 
C 232.289453 242.10903 232.551259 241.476974 232.551259 240.818017 
C 232.551259 240.159061 232.289453 239.527005 231.823501 239.061052 
C 231.357548 238.595099 230.725492 238.333293 230.066535 238.333293 
C 229.407579 238.333293 228.775522 238.595099 228.30957 239.061052 
C 227.843617 239.527005 227.581811 240.159061 227.581811 240.818017 
C 227.581811 241.476974 227.843617 242.10903 228.30957 242.574983 
C 228.775522 243.040935 229.407579 243.302741 230.066535 243.302741 
z
" clip-path="url(#p5f3a6776ac)" style="fill: #800080; stroke: #ffffff; stroke-width: 0.354218"/>
    <path d="M 237.242178 281.56792 
C 237.90259 281.56792 238.536041 281.305536 239.003023 280.838554 
C 239.470004 280.371573 239.732388 279.738122 239.732388 279.07771 
C 239.732388 278.417299 239.470004 277.783847 239.003023 277.316866 
C 238.536041 276.849884 237.90259 276.5875 237.242178 276.5875 
C 236.581767 276.5875 235.948315 276.849884 235.481334 277.316866 
C 235.014353 277.783847 234.751968 278.417299 234.751968 279.07771 
C 234.751968 279.738122 235.014353 280.371573 235.481334 280.838554 
C 235.948315 281.305536 236.581767 281.56792 237.242178 281.56792 
z
" clip-path="url(#p5f3a6776ac)" style="fill: #800080; stroke: #ffffff; stroke-width: 0.354218"/>
    <path d="M 244.417822 251.810907 
C 245.08354 251.810907 245.722082 251.546414 246.192816 251.07568 
C 246.663551 250.604946 246.928043 249.966404 246.928043 249.300685 
C 246.928043 248.634966 246.663551 247.996424 246.192816 247.52569 
C 245.722082 247.054956 245.08354 246.790463 244.417822 246.790463 
C 243.752103 246.790463 243.113561 247.054956 242.642827 247.52569 
C 242.172093 247.996424 241.9076 248.634966 241.9076 249.300685 
C 241.9076 249.966404 242.172093 250.604946 242.642827 251.07568 
C 243.113561 251.546414 243.752103 251.810907 244.417822 251.810907 
z
" clip-path="url(#p5f3a6776ac)" style="fill: #800080; stroke: #ffffff; stroke-width: 0.354218"/>
    <path d="M 251.593465 276.958786 
C 252.269673 276.958786 252.918276 276.690126 253.396427 276.211975 
C 253.874579 275.733824 254.143239 275.08522 254.143239 274.409012 
C 254.143239 273.732804 253.874579 273.084201 253.396427 272.60605 
C 252.918276 272.127899 252.269673 271.859238 251.593465 271.859238 
C 250.917257 271.859238 250.268654 272.127899 249.790502 272.60605 
C 249.312351 273.084201 249.043691 273.732804 249.043691 274.409012 
C 249.043691 275.08522 249.312351 275.733824 249.790502 276.211975 
C 250.268654 276.690126 250.917257 276.958786 251.593465 276.958786 
z
" clip-path="url(#p5f3a6776ac)" style="fill: #800080; stroke: #ffffff; stroke-width: 0.354218"/>
    <path d="M 258.769108 256.890307 
C 259.456111 256.890307 260.115069 256.617358 260.600853 256.131573 
C 261.086638 255.645789 261.359587 254.986831 261.359587 254.299828 
C 261.359587 253.612826 261.086638 252.953868 260.600853 252.468083 
C 260.115069 251.982299 259.456111 251.70935 258.769108 251.70935 
C 258.082105 251.70935 257.423148 251.982299 256.937363 252.468083 
C 256.451579 252.953868 256.178629 253.612826 256.178629 254.299828 
C 256.178629 254.986831 256.451579 255.645789 256.937363 256.131573 
C 257.423148 256.617358 258.082105 256.890307 258.769108 256.890307 
z
" clip-path="url(#p5f3a6776ac)" style="fill: #800080; stroke: #ffffff; stroke-width: 0.354218"/>
    <path d="M 265.944751 275.494054 
C 266.643757 275.494054 267.314226 275.216336 267.808498 274.722064 
C 268.302769 274.227793 268.580487 273.557323 268.580487 272.858318 
C 268.580487 272.159313 268.302769 271.488843 267.808498 270.994571 
C 267.314226 270.5003 266.643757 270.222582 265.944751 270.222582 
C 265.245746 270.222582 264.575276 270.5003 264.081005 270.994571 
C 263.586733 271.488843 263.309016 272.159313 263.309016 272.858318 
C 263.309016 273.557323 263.586733 274.227793 264.081005 274.722064 
C 264.575276 275.216336 265.245746 275.494054 265.944751 275.494054 
z
" clip-path="url(#p5f3a6776ac)" style="fill: #800080; stroke: #ffffff; stroke-width: 0.354218"/>
    <path d="M 273.120395 279.772989 
C 273.820315 279.772989 274.491662 279.494908 274.98658 278.999989 
C 275.481498 278.505071 275.759579 277.833724 275.759579 277.133804 
C 275.759579 276.433884 275.481498 275.762537 274.98658 275.267618 
C 274.491662 274.7727 273.820315 274.494619 273.120395 274.494619 
C 272.420475 274.494619 271.749127 274.7727 271.254209 275.267618 
C 270.759291 275.762537 270.48121 276.433884 270.48121 277.133804 
C 270.48121 277.833724 270.759291 278.505071 271.254209 278.999989 
C 271.749127 279.494908 272.420475 279.772989 273.120395 279.772989 
z
" clip-path="url(#p5f3a6776ac)" style="fill: #800080; stroke: #ffffff; stroke-width: 0.354218"/>
    <path d="M 280.296038 274.005804 
C 281.013562 274.005804 281.701795 273.720729 282.209161 273.213362 
C 282.716527 272.705996 283.001603 272.017763 283.001603 271.300239 
C 283.001603 270.582715 282.716527 269.894482 282.209161 269.387116 
C 281.701795 268.87975 281.013562 268.594674 280.296038 268.594674 
C 279.578514 268.594674 278.890281 268.87975 278.382915 269.387116 
C 277.875548 269.894482 277.590473 270.582715 277.590473 271.300239 
C 277.590473 272.017763 277.875548 272.705996 278.382915 273.213362 
C 278.890281 273.720729 279.578514 274.005804 280.296038 274.005804 
z
" clip-path="url(#p5f3a6776ac)" style="fill: #800080; stroke: #ffffff; stroke-width: 0.354218"/>
    <path d="M 287.471681 270.540333 
C 288.221899 270.540333 288.941491 270.242268 289.471976 269.711784 
C 290.00246 269.1813 290.300525 268.461707 290.300525 267.711489 
C 290.300525 266.961271 290.00246 266.241679 289.471976 265.711194 
C 288.941491 265.18071 288.221899 264.882645 287.471681 264.882645 
C 286.721463 264.882645 286.001871 265.18071 285.471386 265.711194 
C 284.940902 266.241679 284.642837 266.961271 284.642837 267.711489 
C 284.642837 268.461707 284.940902 269.1813 285.471386 269.711784 
C 286.001871 270.242268 286.721463 270.540333 287.471681 270.540333 
z
" clip-path="url(#p5f3a6776ac)" style="fill: #800080; stroke: #ffffff; stroke-width: 0.354218"/>
    <path d="M 294.647324 255.909939 
C 295.434173 255.909939 296.188901 255.59732 296.745287 255.040934 
C 297.301673 254.484548 297.614292 253.72982 297.614292 252.942971 
C 297.614292 252.156122 297.301673 251.401394 296.745287 250.845008 
C 296.188901 250.288622 295.434173 249.976003 294.647324 249.976003 
C 293.860475 249.976003 293.105747 250.288622 292.549361 250.845008 
C 291.992975 251.401394 291.680356 252.156122 291.680356 252.942971 
C 291.680356 253.72982 291.992975 254.484548 292.549361 255.040934 
C 293.105747 255.59732 293.860475 255.909939 294.647324 255.909939 
z
" clip-path="url(#p5f3a6776ac)" style="fill: #800080; stroke: #ffffff; stroke-width: 0.354218"/>
    <path d="M 301.822967 264.139594 
C 302.627904 264.139594 303.399981 263.81979 303.969158 263.250613 
C 304.538334 262.681437 304.858139 261.90936 304.858139 261.104423 
C 304.858139 260.299486 304.538334 259.527409 303.969158 258.958233 
C 303.399981 258.389057 302.627904 258.069252 301.822967 258.069252 
C 301.018031 258.069252 300.245954 258.389057 299.676777 258.958233 
C 299.107601 259.527409 298.787796 260.299486 298.787796 261.104423 
C 298.787796 261.90936 299.107601 262.681437 299.676777 263.250613 
C 300.245954 263.81979 301.018031 264.139594 301.822967 264.139594 
z
" clip-path="url(#p5f3a6776ac)" style="fill: #800080; stroke: #ffffff; stroke-width: 0.354218"/>
    <path d="M 308.998611 264.538605 
C 309.796762 264.538605 310.562332 264.221496 311.12671 263.657118 
C 311.691089 263.092739 312.008198 262.32717 312.008198 261.529018 
C 312.008198 260.730866 311.691089 259.965297 311.12671 259.400919 
C 310.562332 258.83654 309.796762 258.519431 308.998611 258.519431 
C 308.200459 258.519431 307.43489 258.83654 306.870511 259.400919 
C 306.306133 259.965297 305.989024 260.730866 305.989024 261.529018 
C 305.989024 262.32717 306.306133 263.092739 306.870511 263.657118 
C 307.43489 264.221496 308.200459 264.538605 308.998611 264.538605 
z
" clip-path="url(#p5f3a6776ac)" style="fill: #800080; stroke: #ffffff; stroke-width: 0.354218"/>
    <path d="M 316.174254 257.435034 
C 316.978793 257.435034 317.750489 257.115387 318.319384 256.546492 
C 318.888279 255.977597 319.207926 255.205901 319.207926 254.401362 
C 319.207926 253.596823 318.888279 252.825127 318.319384 252.256232 
C 317.750489 251.687337 316.978793 251.36769 316.174254 251.36769 
C 315.369715 251.36769 314.598019 251.687337 314.029124 252.256232 
C 313.460228 252.825127 313.140582 253.596823 313.140582 254.401362 
C 313.140582 255.205901 313.460228 255.977597 314.029124 256.546492 
C 314.598019 257.115387 315.369715 257.435034 316.174254 257.435034 
z
" clip-path="url(#p5f3a6776ac)" style="fill: #800080; stroke: #ffffff; stroke-width: 0.354218"/>
    <path d="M 323.349897 229.681134 
C 324.174466 229.681134 324.965374 229.353529 325.548432 228.770471 
C 326.131491 228.187412 326.459096 227.396504 326.459096 226.571935 
C 326.459096 225.747366 326.131491 224.956458 325.548432 224.3734 
C 324.965374 223.790341 324.174466 223.462737 323.349897 223.462737 
C 322.525328 223.462737 321.73442 223.790341 321.151362 224.3734 
C 320.568303 224.956458 320.240698 225.747366 320.240698 226.571935 
C 320.240698 227.396504 320.568303 228.187412 321.151362 228.770471 
C 321.73442 229.353529 322.525328 229.681134 323.349897 229.681134 
z
" clip-path="url(#p5f3a6776ac)" style="fill: #800080; stroke: #ffffff; stroke-width: 0.354218"/>
    <path d="M 330.52554 226.929174 
C 331.375706 226.929174 332.191166 226.591399 332.792324 225.990241 
C 333.393482 225.389083 333.731257 224.573623 333.731257 223.723457 
C 333.731257 222.873291 333.393482 222.057832 332.792324 221.456673 
C 332.191166 220.855515 331.375706 220.517741 330.52554 220.517741 
C 329.675374 220.517741 328.859915 220.855515 328.258757 221.456673 
C 327.657598 222.057832 327.319824 222.873291 327.319824 223.723457 
C 327.319824 224.573623 327.657598 225.389083 328.258757 225.990241 
C 328.859915 226.591399 329.675374 226.929174 330.52554 226.929174 
z
" clip-path="url(#p5f3a6776ac)" style="fill: #800080; stroke: #ffffff; stroke-width: 0.354218"/>
    <path d="M 337.701184 207.296305 
C 338.574368 207.296305 339.411906 206.949385 340.029341 206.33195 
C 340.646775 205.714516 340.993695 204.876977 340.993695 204.003793 
C 340.993695 203.130609 340.646775 202.29307 340.029341 201.675636 
C 339.411906 201.058201 338.574368 200.711281 337.701184 200.711281 
C 336.827999 200.711281 335.990461 201.058201 335.373026 201.675636 
C 334.755592 202.29307 334.408672 203.130609 334.408672 204.003793 
C 334.408672 204.876977 334.755592 205.714516 335.373026 206.33195 
C 335.990461 206.949385 336.827999 207.296305 337.701184 207.296305 
z
" clip-path="url(#p5f3a6776ac)" style="fill: #800080; stroke: #ffffff; stroke-width: 0.354218"/>
    <path d="M 344.876827 207.297185 
C 345.763463 207.297185 346.613905 206.94492 347.240851 206.317974 
C 347.867798 205.691027 348.220062 204.840586 348.220062 203.953949 
C 348.220062 203.067313 347.867798 202.216871 347.240851 201.589925 
C 346.613905 200.962978 345.763463 200.610714 344.876827 200.610714 
C 343.99019 200.610714 343.139749 200.962978 342.512802 201.589925 
C 341.885856 202.216871 341.533591 203.067313 341.533591 203.953949 
C 341.533591 204.840586 341.885856 205.691027 342.512802 206.317974 
C 343.139749 206.94492 343.99019 207.297185 344.876827 207.297185 
z
" clip-path="url(#p5f3a6776ac)" style="fill: #800080; stroke: #ffffff; stroke-width: 0.354218"/>
    <path d="M 352.05247 208.497902 
C 352.973093 208.497902 353.856134 208.132134 354.507112 207.481155 
C 355.158091 206.830177 355.523859 205.947136 355.523859 205.026513 
C 355.523859 204.10589 355.158091 203.222849 354.507112 202.571871 
C 353.856134 201.920892 352.973093 201.555124 352.05247 201.555124 
C 351.131847 201.555124 350.248806 201.920892 349.597828 202.571871 
C 348.946849 203.222849 348.581081 204.10589 348.581081 205.026513 
C 348.581081 205.947136 348.946849 206.830177 349.597828 207.481155 
C 350.248806 208.132134 351.131847 208.497902 352.05247 208.497902 
z
" clip-path="url(#p5f3a6776ac)" style="fill: #800080; stroke: #ffffff; stroke-width: 0.354218"/>
    <path d="M 359.228113 202.89539 
C 360.16595 202.89539 361.065502 202.522784 361.728652 201.859633 
C 362.391803 201.196482 362.764409 200.296931 362.764409 199.359094 
C 362.764409 198.421257 362.391803 197.521706 361.728652 196.858555 
C 361.065502 196.195404 360.16595 195.822798 359.228113 195.822798 
C 358.290276 195.822798 357.390725 196.195404 356.727574 196.858555 
C 356.064423 197.521706 355.691817 198.421257 355.691817 199.359094 
C 355.691817 200.296931 356.064423 201.196482 356.727574 201.859633 
C 357.390725 202.522784 358.290276 202.89539 359.228113 202.89539 
z
" clip-path="url(#p5f3a6776ac)" style="fill: #800080; stroke: #ffffff; stroke-width: 0.354218"/>
    <path d="M 366.403756 200.943169 
C 367.389815 200.943169 368.33562 200.551404 369.032869 199.854155 
C 369.730117 199.156907 370.121882 198.211102 370.121882 197.225043 
C 370.121882 196.238985 369.730117 195.29318 369.032869 194.595931 
C 368.33562 193.898682 367.389815 193.506917 366.403756 193.506917 
C 365.417698 193.506917 364.471893 193.898682 363.774644 194.595931 
C 363.077396 195.29318 362.68563 196.238985 362.68563 197.225043 
C 362.68563 198.211102 363.077396 199.156907 363.774644 199.854155 
C 364.471893 200.551404 365.417698 200.943169 366.403756 200.943169 
z
" clip-path="url(#p5f3a6776ac)" style="fill: #800080; stroke: #ffffff; stroke-width: 0.354218"/>
    <path d="M 373.5794 185.033792 
C 374.616377 185.033792 375.611022 184.621796 376.344276 183.888542 
C 377.07753 183.155289 377.489525 182.160643 377.489525 181.123666 
C 377.489525 180.086689 377.07753 179.092043 376.344276 178.35879 
C 375.611022 177.625536 374.616377 177.21354 373.5794 177.21354 
C 372.542422 177.21354 371.547777 177.625536 370.814523 178.35879 
C 370.081269 179.092043 369.669274 180.086689 369.669274 181.123666 
C 369.669274 182.160643 370.081269 183.155289 370.814523 183.888542 
C 371.547777 184.621796 372.542422 185.033792 373.5794 185.033792 
z
" clip-path="url(#p5f3a6776ac)" style="fill: #800080; stroke: #ffffff; stroke-width: 0.354218"/>
    <path d="M 380.755043 174.149637 
C 381.840553 174.149637 382.88175 173.718359 383.649322 172.950787 
C 384.416894 172.183215 384.848172 171.142018 384.848172 170.056508 
C 384.848172 168.970997 384.416894 167.9298 383.649322 167.162228 
C 382.88175 166.394656 381.840553 165.963378 380.755043 165.963378 
C 379.669532 165.963378 378.628335 166.394656 377.860764 167.162228 
C 377.093192 167.9298 376.661914 168.970997 376.661914 170.056508 
C 376.661914 171.142018 377.093192 172.183215 377.860764 172.950787 
C 378.628335 173.718359 379.669532 174.149637 380.755043 174.149637 
z
" clip-path="url(#p5f3a6776ac)" style="fill: #800080; stroke: #ffffff; stroke-width: 0.354218"/>
    <path d="M 387.930686 155.661916 
C 389.036923 155.661916 390.098 155.222404 390.880228 154.440176 
C 391.662456 153.657948 392.101968 152.596871 392.101968 151.490634 
C 392.101968 150.384397 391.662456 149.32332 390.880228 148.541092 
C 390.098 147.758864 389.036923 147.319352 387.930686 147.319352 
C 386.824449 147.319352 385.763372 147.758864 384.981144 148.541092 
C 384.198916 149.32332 383.759404 150.384397 383.759404 151.490634 
C 383.759404 152.596871 384.198916 153.657948 384.981144 154.440176 
C 385.763372 155.222404 386.824449 155.661916 387.930686 155.661916 
z
" clip-path="url(#p5f3a6776ac)" style="fill: #800080; stroke: #ffffff; stroke-width: 0.354218"/>
    <path d="M 395.106329 140.320971 
C 396.223788 140.320971 397.295628 139.877 398.085791 139.086837 
C 398.875953 138.296675 399.319924 137.224834 399.319924 136.107376 
C 399.319924 134.989918 398.875953 133.918077 398.085791 133.127915 
C 397.295628 132.337752 396.223788 131.893781 395.106329 131.893781 
C 393.988871 131.893781 392.91703 132.337752 392.126868 133.127915 
C 391.336706 133.918077 390.892735 134.989918 390.892735 136.107376 
C 390.892735 137.224834 391.336706 138.296675 392.126868 139.086837 
C 392.91703 139.877 393.988871 140.320971 395.106329 140.320971 
z
" clip-path="url(#p5f3a6776ac)" style="fill: #800080; stroke: #ffffff; stroke-width: 0.354218"/>
    <path d="M 402.281973 125.088599 
C 403.407134 125.088599 404.486363 124.641568 405.281973 123.845958 
C 406.077582 123.050349 406.524613 121.97112 406.524613 120.845958 
C 406.524613 119.720797 406.077582 118.641568 405.281973 117.845958 
C 404.486363 117.050349 403.407134 116.603318 402.281973 116.603318 
C 401.156811 116.603318 400.077582 117.050349 399.281973 117.845958 
C 398.486363 118.641568 398.039332 119.720797 398.039332 120.845958 
C 398.039332 121.97112 398.486363 123.050349 399.281973 123.845958 
C 400.077582 124.641568 401.156811 125.088599 402.281973 125.088599 
z
" clip-path="url(#p5f3a6776ac)" style="fill: #800080; stroke: #ffffff; stroke-width: 0.354218"/>
    <path d="M 409.457616 106.195877 
C 410.501971 106.195877 411.503693 105.78095 412.242164 105.04248 
C 412.980634 104.304009 413.395561 103.302287 413.395561 102.257932 
C 413.395561 101.213577 412.980634 100.211855 412.242164 99.473384 
C 411.503693 98.734913 410.501971 98.319987 409.457616 98.319987 
C 408.413261 98.319987 407.411539 98.734913 406.673068 99.473384 
C 405.934597 100.211855 405.519671 101.213577 405.519671 102.257932 
C 405.519671 103.302287 405.934597 104.304009 406.673068 105.04248 
C 407.411539 105.78095 408.413261 106.195877 409.457616 106.195877 
z
" clip-path="url(#p5f3a6776ac)" style="fill: #800080; stroke: #ffffff; stroke-width: 0.354218"/>
    <path d="M 416.633259 94.248556 
C 417.673317 94.248556 418.670917 93.835337 419.406349 93.099905 
C 420.141781 92.364473 420.555 91.366873 420.555 90.326815 
C 420.555 89.286757 420.141781 88.289157 419.406349 87.553725 
C 418.670917 86.818293 417.673317 86.405074 416.633259 86.405074 
C 415.593201 86.405074 414.595601 86.818293 413.860169 87.553725 
C 413.124737 88.289157 412.711518 89.286757 412.711518 90.326815 
C 412.711518 91.366873 413.124737 92.364473 413.860169 93.099905 
C 414.595601 93.835337 415.593201 94.248556 416.633259 94.248556 
z
" clip-path="url(#p5f3a6776ac)" style="fill: #800080; stroke: #ffffff; stroke-width: 0.354218"/>
    <path d="M 423.808902 74.31236 
C 424.863014 74.31236 425.874094 73.893557 426.619464 73.148187 
C 427.364834 72.402818 427.783637 71.391737 427.783637 70.337625 
C 427.783637 69.283513 427.364834 68.272433 426.619464 67.527063 
C 425.874094 66.781694 424.863014 66.362891 423.808902 66.362891 
C 422.75479 66.362891 421.74371 66.781694 420.99834 67.527063 
C 420.25297 68.272433 419.834167 69.283513 419.834167 70.337625 
C 419.834167 71.391737 420.25297 72.402818 420.99834 73.148187 
C 421.74371 73.893557 422.75479 74.31236 423.808902 74.31236 
z
" clip-path="url(#p5f3a6776ac)" style="fill: #800080; stroke: #ffffff; stroke-width: 0.354218"/>
    <path d="M 430.984545 42.578353 
C 431.992107 42.578353 432.958536 42.178045 433.670989 41.465592 
C 434.383443 40.753138 434.783751 39.786709 434.783751 38.779148 
C 434.783751 37.771587 434.383443 36.805157 433.670989 36.092704 
C 432.958536 35.380251 431.992107 34.979942 430.984545 34.979942 
C 429.976984 34.979942 429.010555 35.380251 428.298101 36.092704 
C 427.585648 36.805157 427.18534 37.771587 427.18534 38.779148 
C 427.18534 39.786709 427.585648 40.753138 428.298101 41.465592 
C 429.010555 42.178045 429.976984 42.578353 430.984545 42.578353 
z
" clip-path="url(#p5f3a6776ac)" style="fill: #800080; stroke: #ffffff; stroke-width: 0.354218"/>
   </g>
   <g id="patch_3">
    <path d="M 31.66 317.72 
L 31.66 25.49625 
" style="fill: none; stroke: #ffffff; stroke-width: 0.8; stroke-linejoin: miter; stroke-linecap: square"/>
   </g>
   <g id="patch_4">
    <path d="M 450 317.72 
L 450 25.49625 
" style="fill: none; stroke: #ffffff; stroke-width: 0.8; stroke-linejoin: miter; stroke-linecap: square"/>
   </g>
   <g id="patch_5">
    <path d="M 31.66 317.72 
L 450 317.72 
" style="fill: none; stroke: #ffffff; stroke-width: 0.8; stroke-linejoin: miter; stroke-linecap: square"/>
   </g>
   <g id="patch_6">
    <path d="M 31.66 25.49625 
L 450 25.49625 
" style="fill: none; stroke: #ffffff; stroke-width: 0.8; stroke-linejoin: miter; stroke-linecap: square"/>
   </g>
   <g id="text_15">
    <!-- Yearly average ratings from ranked games -->
    <g style="fill: #262626" transform="translate(127.998125 19.49625) scale(0.12 -0.12)">
     <defs>
      <path id="ArialMT-59" d="M 1784 0 
L 1784 1941 
L 19 4581 
L 756 4581 
L 1659 3200 
Q 1909 2813 2125 2425 
Q 2331 2784 2625 3234 
L 3513 4581 
L 4219 4581 
L 2391 1941 
L 2391 0 
L 1784 0 
z
" transform="scale(0.015625)"/>
      <path id="ArialMT-65" d="M 2694 1069 
L 3275 997 
Q 3138 488 2766 206 
Q 2394 -75 1816 -75 
Q 1088 -75 661 373 
Q 234 822 234 1631 
Q 234 2469 665 2931 
Q 1097 3394 1784 3394 
Q 2450 3394 2872 2941 
Q 3294 2488 3294 1666 
Q 3294 1616 3291 1516 
L 816 1516 
Q 847 969 1125 678 
Q 1403 388 1819 388 
Q 2128 388 2347 550 
Q 2566 713 2694 1069 
z
M 847 1978 
L 2700 1978 
Q 2663 2397 2488 2606 
Q 2219 2931 1791 2931 
Q 1403 2931 1139 2672 
Q 875 2413 847 1978 
z
" transform="scale(0.015625)"/>
      <path id="ArialMT-61" d="M 2588 409 
Q 2275 144 1986 34 
Q 1697 -75 1366 -75 
Q 819 -75 525 192 
Q 231 459 231 875 
Q 231 1119 342 1320 
Q 453 1522 633 1644 
Q 813 1766 1038 1828 
Q 1203 1872 1538 1913 
Q 2219 1994 2541 2106 
Q 2544 2222 2544 2253 
Q 2544 2597 2384 2738 
Q 2169 2928 1744 2928 
Q 1347 2928 1158 2789 
Q 969 2650 878 2297 
L 328 2372 
Q 403 2725 575 2942 
Q 747 3159 1072 3276 
Q 1397 3394 1825 3394 
Q 2250 3394 2515 3294 
Q 2781 3194 2906 3042 
Q 3031 2891 3081 2659 
Q 3109 2516 3109 2141 
L 3109 1391 
Q 3109 606 3145 398 
Q 3181 191 3288 0 
L 2700 0 
Q 2613 175 2588 409 
z
M 2541 1666 
Q 2234 1541 1622 1453 
Q 1275 1403 1131 1340 
Q 988 1278 909 1158 
Q 831 1038 831 891 
Q 831 666 1001 516 
Q 1172 366 1500 366 
Q 1825 366 2078 508 
Q 2331 650 2450 897 
Q 2541 1088 2541 1459 
L 2541 1666 
z
" transform="scale(0.015625)"/>
      <path id="ArialMT-72" d="M 416 0 
L 416 3319 
L 922 3319 
L 922 2816 
Q 1116 3169 1280 3281 
Q 1444 3394 1641 3394 
Q 1925 3394 2219 3213 
L 2025 2691 
Q 1819 2813 1613 2813 
Q 1428 2813 1281 2702 
Q 1134 2591 1072 2394 
Q 978 2094 978 1738 
L 978 0 
L 416 0 
z
" transform="scale(0.015625)"/>
      <path id="ArialMT-6c" d="M 409 0 
L 409 4581 
L 972 4581 
L 972 0 
L 409 0 
z
" transform="scale(0.015625)"/>
      <path id="ArialMT-79" d="M 397 -1278 
L 334 -750 
Q 519 -800 656 -800 
Q 844 -800 956 -737 
Q 1069 -675 1141 -563 
Q 1194 -478 1313 -144 
Q 1328 -97 1363 -6 
L 103 3319 
L 709 3319 
L 1400 1397 
Q 1534 1031 1641 628 
Q 1738 1016 1872 1384 
L 2581 3319 
L 3144 3319 
L 1881 -56 
Q 1678 -603 1566 -809 
Q 1416 -1088 1222 -1217 
Q 1028 -1347 759 -1347 
Q 597 -1347 397 -1278 
z
" transform="scale(0.015625)"/>
      <path id="ArialMT-20" transform="scale(0.015625)"/>
      <path id="ArialMT-76" d="M 1344 0 
L 81 3319 
L 675 3319 
L 1388 1331 
Q 1503 1009 1600 663 
Q 1675 925 1809 1294 
L 2547 3319 
L 3125 3319 
L 1869 0 
L 1344 0 
z
" transform="scale(0.015625)"/>
      <path id="ArialMT-67" d="M 319 -275 
L 866 -356 
Q 900 -609 1056 -725 
Q 1266 -881 1628 -881 
Q 2019 -881 2231 -725 
Q 2444 -569 2519 -288 
Q 2563 -116 2559 434 
Q 2191 0 1641 0 
Q 956 0 581 494 
Q 206 988 206 1678 
Q 206 2153 378 2554 
Q 550 2956 876 3175 
Q 1203 3394 1644 3394 
Q 2231 3394 2613 2919 
L 2613 3319 
L 3131 3319 
L 3131 450 
Q 3131 -325 2973 -648 
Q 2816 -972 2473 -1159 
Q 2131 -1347 1631 -1347 
Q 1038 -1347 672 -1080 
Q 306 -813 319 -275 
z
M 784 1719 
Q 784 1066 1043 766 
Q 1303 466 1694 466 
Q 2081 466 2343 764 
Q 2606 1063 2606 1700 
Q 2606 2309 2336 2618 
Q 2066 2928 1684 2928 
Q 1309 2928 1046 2623 
Q 784 2319 784 1719 
z
" transform="scale(0.015625)"/>
      <path id="ArialMT-74" d="M 1650 503 
L 1731 6 
Q 1494 -44 1306 -44 
Q 1000 -44 831 53 
Q 663 150 594 308 
Q 525 466 525 972 
L 525 2881 
L 113 2881 
L 113 3319 
L 525 3319 
L 525 4141 
L 1084 4478 
L 1084 3319 
L 1650 3319 
L 1650 2881 
L 1084 2881 
L 1084 941 
Q 1084 700 1114 631 
Q 1144 563 1211 522 
Q 1278 481 1403 481 
Q 1497 481 1650 503 
z
" transform="scale(0.015625)"/>
      <path id="ArialMT-69" d="M 425 3934 
L 425 4581 
L 988 4581 
L 988 3934 
L 425 3934 
z
M 425 0 
L 425 3319 
L 988 3319 
L 988 0 
L 425 0 
z
" transform="scale(0.015625)"/>
      <path id="ArialMT-6e" d="M 422 0 
L 422 3319 
L 928 3319 
L 928 2847 
Q 1294 3394 1984 3394 
Q 2284 3394 2536 3286 
Q 2788 3178 2913 3003 
Q 3038 2828 3088 2588 
Q 3119 2431 3119 2041 
L 3119 0 
L 2556 0 
L 2556 2019 
Q 2556 2363 2490 2533 
Q 2425 2703 2258 2804 
Q 2091 2906 1866 2906 
Q 1506 2906 1245 2678 
Q 984 2450 984 1813 
L 984 0 
L 422 0 
z
" transform="scale(0.015625)"/>
      <path id="ArialMT-73" d="M 197 991 
L 753 1078 
Q 800 744 1014 566 
Q 1228 388 1613 388 
Q 2000 388 2187 545 
Q 2375 703 2375 916 
Q 2375 1106 2209 1216 
Q 2094 1291 1634 1406 
Q 1016 1563 777 1677 
Q 538 1791 414 1992 
Q 291 2194 291 2438 
Q 291 2659 392 2848 
Q 494 3038 669 3163 
Q 800 3259 1026 3326 
Q 1253 3394 1513 3394 
Q 1903 3394 2198 3281 
Q 2494 3169 2634 2976 
Q 2775 2784 2828 2463 
L 2278 2388 
Q 2241 2644 2061 2787 
Q 1881 2931 1553 2931 
Q 1166 2931 1000 2803 
Q 834 2675 834 2503 
Q 834 2394 903 2306 
Q 972 2216 1119 2156 
Q 1203 2125 1616 2013 
Q 2213 1853 2448 1751 
Q 2684 1650 2818 1456 
Q 2953 1263 2953 975 
Q 2953 694 2789 445 
Q 2625 197 2315 61 
Q 2006 -75 1616 -75 
Q 969 -75 630 194 
Q 291 463 197 991 
z
" transform="scale(0.015625)"/>
      <path id="ArialMT-66" d="M 556 0 
L 556 2881 
L 59 2881 
L 59 3319 
L 556 3319 
L 556 3672 
Q 556 4006 616 4169 
Q 697 4388 901 4523 
Q 1106 4659 1475 4659 
Q 1713 4659 2000 4603 
L 1916 4113 
Q 1741 4144 1584 4144 
Q 1328 4144 1222 4034 
Q 1116 3925 1116 3625 
L 1116 3319 
L 1763 3319 
L 1763 2881 
L 1116 2881 
L 1116 0 
L 556 0 
z
" transform="scale(0.015625)"/>
      <path id="ArialMT-6f" d="M 213 1659 
Q 213 2581 725 3025 
Q 1153 3394 1769 3394 
Q 2453 3394 2887 2945 
Q 3322 2497 3322 1706 
Q 3322 1066 3130 698 
Q 2938 331 2570 128 
Q 2203 -75 1769 -75 
Q 1072 -75 642 372 
Q 213 819 213 1659 
z
M 791 1659 
Q 791 1022 1069 705 
Q 1347 388 1769 388 
Q 2188 388 2466 706 
Q 2744 1025 2744 1678 
Q 2744 2294 2464 2611 
Q 2184 2928 1769 2928 
Q 1347 2928 1069 2612 
Q 791 2297 791 1659 
z
" transform="scale(0.015625)"/>
      <path id="ArialMT-6d" d="M 422 0 
L 422 3319 
L 925 3319 
L 925 2853 
Q 1081 3097 1340 3245 
Q 1600 3394 1931 3394 
Q 2300 3394 2536 3241 
Q 2772 3088 2869 2813 
Q 3263 3394 3894 3394 
Q 4388 3394 4653 3120 
Q 4919 2847 4919 2278 
L 4919 0 
L 4359 0 
L 4359 2091 
Q 4359 2428 4304 2576 
Q 4250 2725 4106 2815 
Q 3963 2906 3769 2906 
Q 3419 2906 3187 2673 
Q 2956 2441 2956 1928 
L 2956 0 
L 2394 0 
L 2394 2156 
Q 2394 2531 2256 2718 
Q 2119 2906 1806 2906 
Q 1569 2906 1367 2781 
Q 1166 2656 1075 2415 
Q 984 2175 984 1722 
L 984 0 
L 422 0 
z
" transform="scale(0.015625)"/>
      <path id="ArialMT-6b" d="M 425 0 
L 425 4581 
L 988 4581 
L 988 1969 
L 2319 3319 
L 3047 3319 
L 1778 2088 
L 3175 0 
L 2481 0 
L 1384 1697 
L 988 1316 
L 988 0 
L 425 0 
z
" transform="scale(0.015625)"/>
      <path id="ArialMT-64" d="M 2575 0 
L 2575 419 
Q 2259 -75 1647 -75 
Q 1250 -75 917 144 
Q 584 363 401 755 
Q 219 1147 219 1656 
Q 219 2153 384 2558 
Q 550 2963 881 3178 
Q 1213 3394 1622 3394 
Q 1922 3394 2156 3267 
Q 2391 3141 2538 2938 
L 2538 4581 
L 3097 4581 
L 3097 0 
L 2575 0 
z
M 797 1656 
Q 797 1019 1065 703 
Q 1334 388 1700 388 
Q 2069 388 2326 689 
Q 2584 991 2584 1609 
Q 2584 2291 2321 2609 
Q 2059 2928 1675 2928 
Q 1300 2928 1048 2622 
Q 797 2316 797 1656 
z
" transform="scale(0.015625)"/>
     </defs>
     <use xlink:href="#ArialMT-59"/>
     <use xlink:href="#ArialMT-65" x="57.574219"/>
     <use xlink:href="#ArialMT-61" x="113.189453"/>
     <use xlink:href="#ArialMT-72" x="168.804688"/>
     <use xlink:href="#ArialMT-6c" x="202.105469"/>
     <use xlink:href="#ArialMT-79" x="224.322266"/>
     <use xlink:href="#ArialMT-20" x="274.322266"/>
     <use xlink:href="#ArialMT-61" x="302.105469"/>
     <use xlink:href="#ArialMT-76" x="357.720703"/>
     <use xlink:href="#ArialMT-65" x="407.720703"/>
     <use xlink:href="#ArialMT-72" x="463.335938"/>
     <use xlink:href="#ArialMT-61" x="496.636719"/>
     <use xlink:href="#ArialMT-67" x="552.251953"/>
     <use xlink:href="#ArialMT-65" x="607.867188"/>
     <use xlink:href="#ArialMT-20" x="663.482422"/>
     <use xlink:href="#ArialMT-72" x="691.265625"/>
     <use xlink:href="#ArialMT-61" x="724.566406"/>
     <use xlink:href="#ArialMT-74" x="780.181641"/>
     <use xlink:href="#ArialMT-69" x="807.964844"/>
     <use xlink:href="#ArialMT-6e" x="830.181641"/>
     <use xlink:href="#ArialMT-67" x="885.796875"/>
     <use xlink:href="#ArialMT-73" x="941.412109"/>
     <use xlink:href="#ArialMT-20" x="991.412109"/>
     <use xlink:href="#ArialMT-66" x="1019.195312"/>
     <use xlink:href="#ArialMT-72" x="1046.978516"/>
     <use xlink:href="#ArialMT-6f" x="1080.279297"/>
     <use xlink:href="#ArialMT-6d" x="1135.894531"/>
     <use xlink:href="#ArialMT-20" x="1219.195312"/>
     <use xlink:href="#ArialMT-72" x="1246.978516"/>
     <use xlink:href="#ArialMT-61" x="1280.279297"/>
     <use xlink:href="#ArialMT-6e" x="1335.894531"/>
     <use xlink:href="#ArialMT-6b" x="1391.509766"/>
     <use xlink:href="#ArialMT-65" x="1441.509766"/>
     <use xlink:href="#ArialMT-64" x="1497.125"/>
     <use xlink:href="#ArialMT-20" x="1552.740234"/>
     <use xlink:href="#ArialMT-67" x="1580.523438"/>
     <use xlink:href="#ArialMT-61" x="1636.138672"/>
     <use xlink:href="#ArialMT-6d" x="1691.753906"/>
     <use xlink:href="#ArialMT-65" x="1775.054688"/>
     <use xlink:href="#ArialMT-73" x="1830.669922"/>
    </g>
   </g>
  </g>
 </g>
 <defs>
  <clipPath id="p5f3a6776ac">
   <rect x="31.66" y="25.49625" width="418.34" height="292.22375"/>
  </clipPath>
 </defs>
</svg>
