<?xml version="1.0" encoding="utf-8" standalone="no"?>
<!DOCTYPE svg PUBLIC "-//W3C//DTD SVG 1.1//EN"
  "http://www.w3.org/Graphics/SVG/1.1/DTD/svg11.dtd">
<svg xmlns:xlink="http://www.w3.org/1999/xlink" width="460.8pt" height="345.6pt" viewBox="0 0 460.8 345.6" xmlns="http://www.w3.org/2000/svg" version="1.1">
 <metadata>
  <rdf:RDF xmlns:dc="http://purl.org/dc/elements/1.1/" xmlns:cc="http://creativecommons.org/ns#" xmlns:rdf="http://www.w3.org/1999/02/22-rdf-syntax-ns#">
   <cc:Work>
    <dc:type rdf:resource="http://purl.org/dc/dcmitype/StillImage"/>
    <dc:date>2024-08-18T00:19:39.225978</dc:date>
    <dc:format>image/svg+xml</dc:format>
    <dc:creator>
     <cc:Agent>
      <dc:title>Matplotlib v3.9.2, https://matplotlib.org/</dc:title>
     </cc:Agent>
    </dc:creator>
   </cc:Work>
  </rdf:RDF>
 </metadata>
 <defs>
  <style type="text/css">*{stroke-linejoin: round; stroke-linecap: butt}</style>
 </defs>
 <g id="figure_1">
  <g id="patch_1">
   <path d="M 0 345.6 
L 460.8 345.6 
L 460.8 0 
L 0 0 
z
" style="fill: #ffffff"/>
  </g>
  <g id="axes_1">
   <g id="patch_2">
    <path d="M 37.24 317.72 
L 450 317.72 
L 450 25.49625 
L 37.24 25.49625 
z
" style="fill: #eaeaf2"/>
   </g>
   <g id="matplotlib.axis_1">
    <g id="xtick_1">
     <g id="text_1">
      <!-- 1970 -->
      <g style="fill: #262626" transform="translate(44.879943 331.877812) scale(0.1 -0.1)">
       <defs>
        <path id="ArialMT-31" d="M 2384 0 
L 1822 0 
L 1822 3584 
Q 1619 3391 1289 3197 
Q 959 3003 697 2906 
L 697 3450 
Q 1169 3672 1522 3987 
Q 1875 4303 2022 4600 
L 2384 4600 
L 2384 0 
z
" transform="scale(0.015625)"/>
        <path id="ArialMT-39" d="M 350 1059 
L 891 1109 
Q 959 728 1153 556 
Q 1347 384 1650 384 
Q 1909 384 2104 503 
Q 2300 622 2425 820 
Q 2550 1019 2634 1356 
Q 2719 1694 2719 2044 
Q 2719 2081 2716 2156 
Q 2547 1888 2255 1720 
Q 1963 1553 1622 1553 
Q 1053 1553 659 1965 
Q 266 2378 266 3053 
Q 266 3750 677 4175 
Q 1088 4600 1706 4600 
Q 2153 4600 2523 4359 
Q 2894 4119 3086 3673 
Q 3278 3228 3278 2384 
Q 3278 1506 3087 986 
Q 2897 466 2520 194 
Q 2144 -78 1638 -78 
Q 1100 -78 759 220 
Q 419 519 350 1059 
z
M 2653 3081 
Q 2653 3566 2395 3850 
Q 2138 4134 1775 4134 
Q 1400 4134 1122 3828 
Q 844 3522 844 3034 
Q 844 2597 1108 2323 
Q 1372 2050 1759 2050 
Q 2150 2050 2401 2323 
Q 2653 2597 2653 3081 
z
" transform="scale(0.015625)"/>
        <path id="ArialMT-37" d="M 303 3981 
L 303 4522 
L 3269 4522 
L 3269 4084 
Q 2831 3619 2401 2847 
Q 1972 2075 1738 1259 
Q 1569 684 1522 0 
L 944 0 
Q 953 541 1156 1306 
Q 1359 2072 1739 2783 
Q 2119 3494 2547 3981 
L 303 3981 
z
" transform="scale(0.015625)"/>
        <path id="ArialMT-30" d="M 266 2259 
Q 266 3072 433 3567 
Q 600 4063 929 4331 
Q 1259 4600 1759 4600 
Q 2128 4600 2406 4451 
Q 2684 4303 2865 4023 
Q 3047 3744 3150 3342 
Q 3253 2941 3253 2259 
Q 3253 1453 3087 958 
Q 2922 463 2592 192 
Q 2263 -78 1759 -78 
Q 1097 -78 719 397 
Q 266 969 266 2259 
z
M 844 2259 
Q 844 1131 1108 757 
Q 1372 384 1759 384 
Q 2147 384 2411 759 
Q 2675 1134 2675 2259 
Q 2675 3391 2411 3762 
Q 2147 4134 1753 4134 
Q 1366 4134 1134 3806 
Q 844 3388 844 2259 
z
" transform="scale(0.015625)"/>
       </defs>
       <use xlink:href="#ArialMT-31"/>
       <use xlink:href="#ArialMT-39" x="55.615234"/>
       <use xlink:href="#ArialMT-37" x="111.230469"/>
       <use xlink:href="#ArialMT-30" x="166.845703"/>
      </g>
     </g>
    </g>
    <g id="xtick_2">
     <g id="text_2">
      <!-- 1980 -->
      <g style="fill: #262626" transform="translate(115.679257 331.877812) scale(0.1 -0.1)">
       <defs>
        <path id="ArialMT-38" d="M 1131 2484 
Q 781 2613 612 2850 
Q 444 3088 444 3419 
Q 444 3919 803 4259 
Q 1163 4600 1759 4600 
Q 2359 4600 2725 4251 
Q 3091 3903 3091 3403 
Q 3091 3084 2923 2848 
Q 2756 2613 2416 2484 
Q 2838 2347 3058 2040 
Q 3278 1734 3278 1309 
Q 3278 722 2862 322 
Q 2447 -78 1769 -78 
Q 1091 -78 675 323 
Q 259 725 259 1325 
Q 259 1772 486 2073 
Q 713 2375 1131 2484 
z
M 1019 3438 
Q 1019 3113 1228 2906 
Q 1438 2700 1772 2700 
Q 2097 2700 2305 2904 
Q 2513 3109 2513 3406 
Q 2513 3716 2298 3927 
Q 2084 4138 1766 4138 
Q 1444 4138 1231 3931 
Q 1019 3725 1019 3438 
z
M 838 1322 
Q 838 1081 952 856 
Q 1066 631 1291 507 
Q 1516 384 1775 384 
Q 2178 384 2440 643 
Q 2703 903 2703 1303 
Q 2703 1709 2433 1975 
Q 2163 2241 1756 2241 
Q 1359 2241 1098 1978 
Q 838 1716 838 1322 
z
" transform="scale(0.015625)"/>
       </defs>
       <use xlink:href="#ArialMT-31"/>
       <use xlink:href="#ArialMT-39" x="55.615234"/>
       <use xlink:href="#ArialMT-38" x="111.230469"/>
       <use xlink:href="#ArialMT-30" x="166.845703"/>
      </g>
     </g>
    </g>
    <g id="xtick_3">
     <g id="text_3">
      <!-- 1990 -->
      <g style="fill: #262626" transform="translate(186.478571 331.877812) scale(0.1 -0.1)">
       <use xlink:href="#ArialMT-31"/>
       <use xlink:href="#ArialMT-39" x="55.615234"/>
       <use xlink:href="#ArialMT-39" x="111.230469"/>
       <use xlink:href="#ArialMT-30" x="166.845703"/>
      </g>
     </g>
    </g>
    <g id="xtick_4">
     <g id="text_4">
      <!-- 2000 -->
      <g style="fill: #262626" transform="translate(257.277885 331.877812) scale(0.1 -0.1)">
       <defs>
        <path id="ArialMT-32" d="M 3222 541 
L 3222 0 
L 194 0 
Q 188 203 259 391 
Q 375 700 629 1000 
Q 884 1300 1366 1694 
Q 2113 2306 2375 2664 
Q 2638 3022 2638 3341 
Q 2638 3675 2398 3904 
Q 2159 4134 1775 4134 
Q 1369 4134 1125 3890 
Q 881 3647 878 3216 
L 300 3275 
Q 359 3922 746 4261 
Q 1134 4600 1788 4600 
Q 2447 4600 2831 4234 
Q 3216 3869 3216 3328 
Q 3216 3053 3103 2787 
Q 2991 2522 2730 2228 
Q 2469 1934 1863 1422 
Q 1356 997 1212 845 
Q 1069 694 975 541 
L 3222 541 
z
" transform="scale(0.015625)"/>
       </defs>
       <use xlink:href="#ArialMT-32"/>
       <use xlink:href="#ArialMT-30" x="55.615234"/>
       <use xlink:href="#ArialMT-30" x="111.230469"/>
       <use xlink:href="#ArialMT-30" x="166.845703"/>
      </g>
     </g>
    </g>
    <g id="xtick_5">
     <g id="text_5">
      <!-- 2010 -->
      <g style="fill: #262626" transform="translate(328.077199 331.877812) scale(0.1 -0.1)">
       <use xlink:href="#ArialMT-32"/>
       <use xlink:href="#ArialMT-30" x="55.615234"/>
       <use xlink:href="#ArialMT-31" x="111.230469"/>
       <use xlink:href="#ArialMT-30" x="166.845703"/>
      </g>
     </g>
    </g>
    <g id="xtick_6">
     <g id="text_6">
      <!-- 2020 -->
      <g style="fill: #262626" transform="translate(398.876513 331.877812) scale(0.1 -0.1)">
       <use xlink:href="#ArialMT-32"/>
       <use xlink:href="#ArialMT-30" x="55.615234"/>
       <use xlink:href="#ArialMT-32" x="111.230469"/>
       <use xlink:href="#ArialMT-30" x="166.845703"/>
      </g>
     </g>
    </g>
   </g>
   <g id="matplotlib.axis_2">
    <g id="ytick_1">
     <g id="text_7">
      <!-- 5.75 -->
      <g style="fill: #262626" transform="translate(10.779063 298.452333) scale(0.1 -0.1)">
       <defs>
        <path id="ArialMT-35" d="M 266 1200 
L 856 1250 
Q 922 819 1161 601 
Q 1400 384 1738 384 
Q 2144 384 2425 690 
Q 2706 997 2706 1503 
Q 2706 1984 2436 2262 
Q 2166 2541 1728 2541 
Q 1456 2541 1237 2417 
Q 1019 2294 894 2097 
L 366 2166 
L 809 4519 
L 3088 4519 
L 3088 3981 
L 1259 3981 
L 1013 2750 
Q 1425 3038 1878 3038 
Q 2478 3038 2890 2622 
Q 3303 2206 3303 1553 
Q 3303 931 2941 478 
Q 2500 -78 1738 -78 
Q 1113 -78 717 272 
Q 322 622 266 1200 
z
" transform="scale(0.015625)"/>
        <path id="ArialMT-2e" d="M 581 0 
L 581 641 
L 1222 641 
L 1222 0 
L 581 0 
z
" transform="scale(0.015625)"/>
       </defs>
       <use xlink:href="#ArialMT-35"/>
       <use xlink:href="#ArialMT-2e" x="55.615234"/>
       <use xlink:href="#ArialMT-37" x="83.398438"/>
       <use xlink:href="#ArialMT-35" x="139.013672"/>
      </g>
     </g>
    </g>
    <g id="ytick_2">
     <g id="text_8">
      <!-- 6.00 -->
      <g style="fill: #262626" transform="translate(10.779063 264.090177) scale(0.1 -0.1)">
       <defs>
        <path id="ArialMT-36" d="M 3184 3459 
L 2625 3416 
Q 2550 3747 2413 3897 
Q 2184 4138 1850 4138 
Q 1581 4138 1378 3988 
Q 1113 3794 959 3422 
Q 806 3050 800 2363 
Q 1003 2672 1297 2822 
Q 1591 2972 1913 2972 
Q 2475 2972 2870 2558 
Q 3266 2144 3266 1488 
Q 3266 1056 3080 686 
Q 2894 316 2569 119 
Q 2244 -78 1831 -78 
Q 1128 -78 684 439 
Q 241 956 241 2144 
Q 241 3472 731 4075 
Q 1159 4600 1884 4600 
Q 2425 4600 2770 4297 
Q 3116 3994 3184 3459 
z
M 888 1484 
Q 888 1194 1011 928 
Q 1134 663 1356 523 
Q 1578 384 1822 384 
Q 2178 384 2434 671 
Q 2691 959 2691 1453 
Q 2691 1928 2437 2201 
Q 2184 2475 1800 2475 
Q 1419 2475 1153 2201 
Q 888 1928 888 1484 
z
" transform="scale(0.015625)"/>
       </defs>
       <use xlink:href="#ArialMT-36"/>
       <use xlink:href="#ArialMT-2e" x="55.615234"/>
       <use xlink:href="#ArialMT-30" x="83.398438"/>
       <use xlink:href="#ArialMT-30" x="139.013672"/>
      </g>
     </g>
    </g>
    <g id="ytick_3">
     <g id="text_9">
      <!-- 6.25 -->
      <g style="fill: #262626" transform="translate(10.779063 229.72802) scale(0.1 -0.1)">
       <use xlink:href="#ArialMT-36"/>
       <use xlink:href="#ArialMT-2e" x="55.615234"/>
       <use xlink:href="#ArialMT-32" x="83.398438"/>
       <use xlink:href="#ArialMT-35" x="139.013672"/>
      </g>
     </g>
    </g>
    <g id="ytick_4">
     <g id="text_10">
      <!-- 6.50 -->
      <g style="fill: #262626" transform="translate(10.779063 195.365864) scale(0.1 -0.1)">
       <use xlink:href="#ArialMT-36"/>
       <use xlink:href="#ArialMT-2e" x="55.615234"/>
       <use xlink:href="#ArialMT-35" x="83.398438"/>
       <use xlink:href="#ArialMT-30" x="139.013672"/>
      </g>
     </g>
    </g>
    <g id="ytick_5">
     <g id="text_11">
      <!-- 6.75 -->
      <g style="fill: #262626" transform="translate(10.779063 161.003708) scale(0.1 -0.1)">
       <use xlink:href="#ArialMT-36"/>
       <use xlink:href="#ArialMT-2e" x="55.615234"/>
       <use xlink:href="#ArialMT-37" x="83.398438"/>
       <use xlink:href="#ArialMT-35" x="139.013672"/>
      </g>
     </g>
    </g>
    <g id="ytick_6">
     <g id="text_12">
      <!-- 7.00 -->
      <g style="fill: #262626" transform="translate(10.779063 126.641551) scale(0.1 -0.1)">
       <use xlink:href="#ArialMT-37"/>
       <use xlink:href="#ArialMT-2e" x="55.615234"/>
       <use xlink:href="#ArialMT-30" x="83.398438"/>
       <use xlink:href="#ArialMT-30" x="139.013672"/>
      </g>
     </g>
    </g>
    <g id="ytick_7">
     <g id="text_13">
      <!-- 7.25 -->
      <g style="fill: #262626" transform="translate(10.779063 92.279395) scale(0.1 -0.1)">
       <use xlink:href="#ArialMT-37"/>
       <use xlink:href="#ArialMT-2e" x="55.615234"/>
       <use xlink:href="#ArialMT-32" x="83.398438"/>
       <use xlink:href="#ArialMT-35" x="139.013672"/>
      </g>
     </g>
    </g>
    <g id="ytick_8">
     <g id="text_14">
      <!-- 7.50 -->
      <g style="fill: #262626" transform="translate(10.779063 57.917238) scale(0.1 -0.1)">
       <use xlink:href="#ArialMT-37"/>
       <use xlink:href="#ArialMT-2e" x="55.615234"/>
       <use xlink:href="#ArialMT-35" x="83.398438"/>
       <use xlink:href="#ArialMT-30" x="139.013672"/>
      </g>
     </g>
    </g>
   </g>
   <g id="PathCollection_1">
    <path d="M 56.001818 286.448314 
C 56.564399 286.448314 57.104014 286.224799 57.501818 285.826994 
C 57.899623 285.429189 58.123139 284.889575 58.123139 284.326994 
C 58.123139 283.764413 57.899623 283.224799 57.501818 282.826994 
C 57.104014 282.429189 56.564399 282.205674 56.001818 282.205674 
C 55.439237 282.205674 54.899623 282.429189 54.501818 282.826994 
C 54.104014 283.224799 53.880498 283.764413 53.880498 284.326994 
C 53.880498 284.889575 54.104014 285.429189 54.501818 285.826994 
C 54.899623 286.224799 55.439237 286.448314 56.001818 286.448314 
z
" clip-path="url(#pf0eeaaaa1b)" style="fill: #800080; stroke: #ffffff; stroke-width: 0.345594"/>
    <path d="M 63.08175 306.625057 
C 63.662002 306.625057 64.218567 306.39452 64.628867 305.98422 
C 65.039167 305.573919 65.269704 305.017355 65.269704 304.437102 
C 65.269704 303.85685 65.039167 303.300285 64.628867 302.889985 
C 64.218567 302.479685 63.662002 302.249148 63.08175 302.249148 
C 62.501497 302.249148 61.944933 302.479685 61.534632 302.889985 
C 61.124332 303.300285 60.893795 303.85685 60.893795 304.437102 
C 60.893795 305.017355 61.124332 305.573919 61.534632 305.98422 
C 61.944933 306.39452 62.501497 306.625057 63.08175 306.625057 
z
" clip-path="url(#pf0eeaaaa1b)" style="fill: #800080; stroke: #ffffff; stroke-width: 0.345594"/>
    <path d="M 70.161681 266.088424 
C 70.729829 266.088424 71.274783 265.862697 71.676525 265.460955 
C 72.078266 265.059214 72.303994 264.51426 72.303994 263.946112 
C 72.303994 263.377964 72.078266 262.833009 71.676525 262.431268 
C 71.274783 262.029527 70.729829 261.803799 70.161681 261.803799 
C 69.593533 261.803799 69.048578 262.029527 68.646837 262.431268 
C 68.245096 262.833009 68.019368 263.377964 68.019368 263.946112 
C 68.019368 264.51426 68.245096 265.059214 68.646837 265.460955 
C 69.048578 265.862697 69.593533 266.088424 70.161681 266.088424 
z
" clip-path="url(#pf0eeaaaa1b)" style="fill: #800080; stroke: #ffffff; stroke-width: 0.345594"/>
    <path d="M 77.241612 251.726312 
C 77.810097 251.726312 78.355374 251.500451 78.757354 251.098472 
C 79.159333 250.696492 79.385194 250.151215 79.385194 249.58273 
C 79.385194 249.014246 79.159333 248.468968 78.757354 248.066989 
C 78.355374 247.66501 77.810097 247.439148 77.241612 247.439148 
C 76.673128 247.439148 76.12785 247.66501 75.725871 248.066989 
C 75.323892 248.468968 75.09803 249.014246 75.09803 249.58273 
C 75.09803 250.151215 75.323892 250.696492 75.725871 251.098472 
C 76.12785 251.500451 76.673128 251.726312 77.241612 251.726312 
z
" clip-path="url(#pf0eeaaaa1b)" style="fill: #800080; stroke: #ffffff; stroke-width: 0.345594"/>
    <path d="M 84.321544 258.86944 
C 84.896205 258.86944 85.447406 258.641125 85.853753 258.234778 
C 86.260099 257.828432 86.488414 257.27723 86.488414 256.702569 
C 86.488414 256.127908 86.260099 255.576707 85.853753 255.17036 
C 85.447406 254.764014 84.896205 254.535698 84.321544 254.535698 
C 83.746883 254.535698 83.195681 254.764014 82.789335 255.17036 
C 82.382988 255.576707 82.154673 256.127908 82.154673 256.702569 
C 82.154673 257.27723 82.382988 257.828432 82.789335 258.234778 
C 83.195681 258.641125 83.746883 258.86944 84.321544 258.86944 
z
" clip-path="url(#pf0eeaaaa1b)" style="fill: #800080; stroke: #ffffff; stroke-width: 0.345594"/>
    <path d="M 91.401475 278.909193 
C 91.973516 278.909193 92.522205 278.681918 92.926699 278.277424 
C 93.331194 277.87293 93.558468 277.324241 93.558468 276.7522 
C 93.558468 276.180159 93.331194 275.63147 92.926699 275.226976 
C 92.522205 274.822482 91.973516 274.595207 91.401475 274.595207 
C 90.829434 274.595207 90.280745 274.822482 89.876251 275.226976 
C 89.471757 275.63147 89.244482 276.180159 89.244482 276.7522 
C 89.244482 277.324241 89.471757 277.87293 89.876251 278.277424 
C 90.280745 278.681918 90.829434 278.909193 91.401475 278.909193 
z
" clip-path="url(#pf0eeaaaa1b)" style="fill: #800080; stroke: #ffffff; stroke-width: 0.345594"/>
    <path d="M 98.481407 231.868209 
C 99.046007 231.868209 99.587559 231.643891 99.986792 231.244658 
C 100.386025 230.845425 100.610344 230.303873 100.610344 229.739272 
C 100.610344 229.174671 100.386025 228.633119 99.986792 228.233886 
C 99.587559 227.834653 99.046007 227.610335 98.481407 227.610335 
C 97.916806 227.610335 97.375254 227.834653 96.976021 228.233886 
C 96.576788 228.633119 96.352469 229.174671 96.352469 229.739272 
C 96.352469 230.303873 96.576788 230.845425 96.976021 231.244658 
C 97.375254 231.643891 97.916806 231.868209 98.481407 231.868209 
z
" clip-path="url(#pf0eeaaaa1b)" style="fill: #800080; stroke: #ffffff; stroke-width: 0.345594"/>
    <path d="M 105.561338 209.831111 
C 106.148914 209.831111 106.712503 209.597665 107.127982 209.182186 
C 107.543461 208.766707 107.776908 208.203117 107.776908 207.615541 
C 107.776908 207.027966 107.543461 206.464376 107.127982 206.048897 
C 106.712503 205.633418 106.148914 205.399972 105.561338 205.399972 
C 104.973762 205.399972 104.410173 205.633418 103.994694 206.048897 
C 103.579215 206.464376 103.345768 207.027966 103.345768 207.615541 
C 103.345768 208.203117 103.579215 208.766707 103.994694 209.182186 
C 104.410173 209.597665 104.973762 209.831111 105.561338 209.831111 
z
" clip-path="url(#pf0eeaaaa1b)" style="fill: #800080; stroke: #ffffff; stroke-width: 0.345594"/>
    <path d="M 112.641269 275.193128 
C 113.210174 275.193128 113.755855 274.967099 114.158132 274.564822 
C 114.560409 274.162546 114.786437 273.616865 114.786437 273.04796 
C 114.786437 272.479054 114.560409 271.933374 114.158132 271.531097 
C 113.755855 271.12882 113.210174 270.902792 112.641269 270.902792 
C 112.072364 270.902792 111.526683 271.12882 111.124407 271.531097 
C 110.72213 271.933374 110.496101 272.479054 110.496101 273.04796 
C 110.496101 273.616865 110.72213 274.162546 111.124407 274.564822 
C 111.526683 274.967099 112.072364 275.193128 112.641269 275.193128 
z
" clip-path="url(#pf0eeaaaa1b)" style="fill: #800080; stroke: #ffffff; stroke-width: 0.345594"/>
    <path d="M 119.721201 216.298914 
C 120.305356 216.298914 120.865664 216.066827 121.278724 215.653767 
C 121.691783 215.240707 121.923871 214.680399 121.923871 214.096244 
C 121.923871 213.512089 121.691783 212.951781 121.278724 212.538721 
C 120.865664 212.125661 120.305356 211.893574 119.721201 211.893574 
C 119.137046 211.893574 118.576738 212.125661 118.163678 212.538721 
C 117.750618 212.951781 117.518531 213.512089 117.518531 214.096244 
C 117.518531 214.680399 117.750618 215.240707 118.163678 215.653767 
C 118.576738 216.066827 119.137046 216.298914 119.721201 216.298914 
z
" clip-path="url(#pf0eeaaaa1b)" style="fill: #800080; stroke: #ffffff; stroke-width: 0.345594"/>
    <path d="M 126.801132 165.558375 
C 127.383828 165.558375 127.942736 165.326867 128.354764 164.914839 
C 128.766792 164.502811 128.998299 163.943903 128.998299 163.361207 
C 128.998299 162.778512 128.766792 162.219604 128.354764 161.807576 
C 127.942736 161.395548 127.383828 161.16404 126.801132 161.16404 
C 126.218437 161.16404 125.659528 161.395548 125.2475 161.807576 
C 124.835472 162.219604 124.603965 162.778512 124.603965 163.361207 
C 124.603965 163.943903 124.835472 164.502811 125.2475 164.914839 
C 125.659528 165.326867 126.218437 165.558375 126.801132 165.558375 
z
" clip-path="url(#pf0eeaaaa1b)" style="fill: #800080; stroke: #ffffff; stroke-width: 0.345594"/>
    <path d="M 133.881063 235.978883 
C 134.464145 235.978883 135.023423 235.747223 135.435724 235.334922 
C 135.848024 234.922621 136.079685 234.363343 136.079685 233.780262 
C 136.079685 233.197181 135.848024 232.637902 135.435724 232.225602 
C 135.023423 231.813301 134.464145 231.58164 133.881063 231.58164 
C 133.297982 231.58164 132.738704 231.813301 132.326403 232.225602 
C 131.914103 232.637902 131.682442 233.197181 131.682442 233.780262 
C 131.682442 234.363343 131.914103 234.922621 132.326403 235.334922 
C 132.738704 235.747223 133.297982 235.978883 133.881063 235.978883 
z
" clip-path="url(#pf0eeaaaa1b)" style="fill: #800080; stroke: #ffffff; stroke-width: 0.345594"/>
    <path d="M 140.960995 171.118848 
C 141.566105 171.118848 142.146513 170.878435 142.574391 170.450557 
C 143.002269 170.022679 143.242682 169.442271 143.242682 168.837161 
C 143.242682 168.23205 143.002269 167.651642 142.574391 167.223764 
C 142.146513 166.795887 141.566105 166.555474 140.960995 166.555474 
C 140.355884 166.555474 139.775476 166.795887 139.347599 167.223764 
C 138.919721 167.651642 138.679308 168.23205 138.679308 168.837161 
C 138.679308 169.442271 138.919721 170.022679 139.347599 170.450557 
C 139.775476 170.878435 140.355884 171.118848 140.960995 171.118848 
z
" clip-path="url(#pf0eeaaaa1b)" style="fill: #800080; stroke: #ffffff; stroke-width: 0.345594"/>
    <path d="M 148.040926 227.301835 
C 148.634601 227.301835 149.20404 227.065966 149.623831 226.646175 
C 150.043622 226.226383 150.279491 225.656944 150.279491 225.06327 
C 150.279491 224.469596 150.043622 223.900157 149.623831 223.480365 
C 149.20404 223.060574 148.634601 222.824705 148.040926 222.824705 
C 147.447252 222.824705 146.877813 223.060574 146.458022 223.480365 
C 146.03823 223.900157 145.802361 224.469596 145.802361 225.06327 
C 145.802361 225.656944 146.03823 226.226383 146.458022 226.646175 
C 146.877813 227.065966 147.447252 227.301835 148.040926 227.301835 
z
" clip-path="url(#pf0eeaaaa1b)" style="fill: #800080; stroke: #ffffff; stroke-width: 0.345594"/>
    <path d="M 155.120858 208.624678 
C 155.697231 208.624678 156.250075 208.395683 156.657632 207.988126 
C 157.065189 207.580568 157.294184 207.027725 157.294184 206.451352 
C 157.294184 205.874979 157.065189 205.322135 156.657632 204.914577 
C 156.250075 204.50702 155.697231 204.278025 155.120858 204.278025 
C 154.544485 204.278025 153.991641 204.50702 153.584083 204.914577 
C 153.176526 205.322135 152.947531 205.874979 152.947531 206.451352 
C 152.947531 207.027725 153.176526 207.580568 153.584083 207.988126 
C 153.991641 208.395683 154.544485 208.624678 155.120858 208.624678 
z
" clip-path="url(#pf0eeaaaa1b)" style="fill: #800080; stroke: #ffffff; stroke-width: 0.345594"/>
    <path d="M 162.200789 199.983347 
C 162.782647 199.983347 163.340751 199.752172 163.752187 199.340737 
C 164.163622 198.929301 164.394796 198.371197 164.394796 197.789339 
C 164.394796 197.207482 164.163622 196.649377 163.752187 196.237942 
C 163.340751 195.826506 162.782647 195.595332 162.200789 195.595332 
C 161.618931 195.595332 161.060827 195.826506 160.649391 196.237942 
C 160.237956 196.649377 160.006782 197.207482 160.006782 197.789339 
C 160.006782 198.371197 160.237956 198.929301 160.649391 199.340737 
C 161.060827 199.752172 161.618931 199.983347 162.200789 199.983347 
z
" clip-path="url(#pf0eeaaaa1b)" style="fill: #800080; stroke: #ffffff; stroke-width: 0.345594"/>
    <path d="M 169.28072 182.421869 
C 169.876518 182.421869 170.447994 182.185156 170.869286 181.763864 
C 171.290579 181.342571 171.527292 180.771096 171.527292 180.175298 
C 171.527292 179.5795 171.290579 179.008024 170.869286 178.586732 
C 170.447994 178.165439 169.876518 177.928726 169.28072 177.928726 
C 168.684923 177.928726 168.113447 178.165439 167.692154 178.586732 
C 167.270862 179.008024 167.034149 179.5795 167.034149 180.175298 
C 167.034149 180.771096 167.270862 181.342571 167.692154 181.763864 
C 168.113447 182.185156 168.684923 182.421869 169.28072 182.421869 
z
" clip-path="url(#pf0eeaaaa1b)" style="fill: #800080; stroke: #ffffff; stroke-width: 0.345594"/>
    <path d="M 176.360652 225.2643 
C 176.941423 225.2643 177.498486 225.033557 177.909153 224.62289 
C 178.319821 224.212222 178.550564 223.65516 178.550564 223.074388 
C 178.550564 222.493617 178.319821 221.936554 177.909153 221.525887 
C 177.498486 221.115219 176.941423 220.884477 176.360652 220.884477 
C 175.77988 220.884477 175.222818 221.115219 174.81215 221.525887 
C 174.401483 221.936554 174.17074 222.493617 174.17074 223.074388 
C 174.17074 223.65516 174.401483 224.212222 174.81215 224.62289 
C 175.222818 225.033557 175.77988 225.2643 176.360652 225.2643 
z
" clip-path="url(#pf0eeaaaa1b)" style="fill: #800080; stroke: #ffffff; stroke-width: 0.345594"/>
    <path d="M 183.440583 224.76486 
C 184.029241 224.76486 184.593868 224.530984 185.010112 224.11474 
C 185.426356 223.698496 185.660232 223.133869 185.660232 222.545211 
C 185.660232 221.956553 185.426356 221.391926 185.010112 220.975683 
C 184.593868 220.559439 184.029241 220.325563 183.440583 220.325563 
C 182.851926 220.325563 182.287298 220.559439 181.871055 220.975683 
C 181.454811 221.391926 181.220935 221.956553 181.220935 222.545211 
C 181.220935 223.133869 181.454811 223.698496 181.871055 224.11474 
C 182.287298 224.530984 182.851926 224.76486 183.440583 224.76486 
z
" clip-path="url(#pf0eeaaaa1b)" style="fill: #800080; stroke: #ffffff; stroke-width: 0.345594"/>
    <path d="M 190.520515 200.330013 
C 191.112293 200.330013 191.679912 200.094897 192.098363 199.676447 
C 192.516813 199.257996 192.751929 198.690377 192.751929 198.098599 
C 192.751929 197.506821 192.516813 196.939201 192.098363 196.520751 
C 191.679912 196.1023 191.112293 195.867185 190.520515 195.867185 
C 189.928737 195.867185 189.361117 196.1023 188.942667 196.520751 
C 188.524216 196.939201 188.289101 197.506821 188.289101 198.098599 
C 188.289101 198.690377 188.524216 199.257996 188.942667 199.676447 
C 189.361117 200.094897 189.928737 200.330013 190.520515 200.330013 
z
" clip-path="url(#pf0eeaaaa1b)" style="fill: #800080; stroke: #ffffff; stroke-width: 0.345594"/>
    <path d="M 197.600446 219.874138 
C 198.18465 219.874138 198.745005 219.642031 199.1581 219.228937 
C 199.571195 218.815842 199.803301 218.255487 199.803301 217.671283 
C 199.803301 217.087079 199.571195 216.526724 199.1581 216.113629 
C 198.745005 215.700534 198.18465 215.468428 197.600446 215.468428 
C 197.016242 215.468428 196.455887 215.700534 196.042792 216.113629 
C 195.629697 216.526724 195.397591 217.087079 195.397591 217.671283 
C 195.397591 218.255487 195.629697 218.815842 196.042792 219.228937 
C 196.455887 219.642031 197.016242 219.874138 197.600446 219.874138 
z
" clip-path="url(#pf0eeaaaa1b)" style="fill: #800080; stroke: #ffffff; stroke-width: 0.345594"/>
    <path d="M 204.680377 187.91148 
C 205.2736 187.91148 205.842606 187.67579 206.262078 187.256318 
C 206.68155 186.836846 206.917241 186.26784 206.917241 185.674617 
C 206.917241 185.081394 206.68155 184.512388 206.262078 184.092916 
C 205.842606 183.673444 205.2736 183.437754 204.680377 183.437754 
C 204.087154 183.437754 203.518148 183.673444 203.098676 184.092916 
C 202.679204 184.512388 202.443514 185.081394 202.443514 185.674617 
C 202.443514 186.26784 202.679204 186.836846 203.098676 187.256318 
C 203.518148 187.67579 204.087154 187.91148 204.680377 187.91148 
z
" clip-path="url(#pf0eeaaaa1b)" style="fill: #800080; stroke: #ffffff; stroke-width: 0.345594"/>
    <path d="M 211.760309 175.979693 
C 212.363043 175.979693 212.941172 175.740224 213.367369 175.314026 
C 213.793567 174.887829 214.033036 174.3097 214.033036 173.706966 
C 214.033036 173.104231 213.793567 172.526102 213.367369 172.099905 
C 212.941172 171.673707 212.363043 171.434239 211.760309 171.434239 
C 211.157575 171.434239 210.579446 171.673707 210.153248 172.099905 
C 209.727051 172.526102 209.487582 173.104231 209.487582 173.706966 
C 209.487582 174.3097 209.727051 174.887829 210.153248 175.314026 
C 210.579446 175.740224 211.157575 175.979693 211.760309 175.979693 
z
" clip-path="url(#pf0eeaaaa1b)" style="fill: #800080; stroke: #ffffff; stroke-width: 0.345594"/>
    <path d="M 218.84024 159.750488 
C 219.447906 159.750488 220.030766 159.509059 220.460451 159.079374 
C 220.890136 158.649689 221.131564 158.06683 221.131564 157.459163 
C 221.131564 156.851497 220.890136 156.268638 220.460451 155.838953 
C 220.030766 155.409268 219.447906 155.167839 218.84024 155.167839 
C 218.232574 155.167839 217.649714 155.409268 217.220029 155.838953 
C 216.790344 156.268638 216.548916 156.851497 216.548916 157.459163 
C 216.548916 158.06683 216.790344 158.649689 217.220029 159.079374 
C 217.649714 159.509059 218.232574 159.750488 218.84024 159.750488 
z
" clip-path="url(#pf0eeaaaa1b)" style="fill: #800080; stroke: #ffffff; stroke-width: 0.345594"/>
    <path d="M 225.920172 173.907481 
C 226.536894 173.907481 227.12844 173.662455 227.564528 173.226366 
C 228.000617 172.790278 228.245643 172.198732 228.245643 171.58201 
C 228.245643 170.965288 228.000617 170.373742 227.564528 169.937653 
C 227.12844 169.501565 226.536894 169.256538 225.920172 169.256538 
C 225.303449 169.256538 224.711903 169.501565 224.275815 169.937653 
C 223.839727 170.373742 223.5947 170.965288 223.5947 171.58201 
C 223.5947 172.198732 223.839727 172.790278 224.275815 173.226366 
C 224.711903 173.662455 225.303449 173.907481 225.920172 173.907481 
z
" clip-path="url(#pf0eeaaaa1b)" style="fill: #800080; stroke: #ffffff; stroke-width: 0.345594"/>
    <path d="M 233.000103 130.882957 
C 233.682344 130.882957 234.336734 130.6119 234.819152 130.129482 
C 235.301569 129.647065 235.572626 128.992675 235.572626 128.310433 
C 235.572626 127.628192 235.301569 126.973802 234.819152 126.491385 
C 234.336734 126.008967 233.682344 125.73791 233.000103 125.73791 
C 232.317862 125.73791 231.663472 126.008967 231.181054 126.491385 
C 230.698637 126.973802 230.42758 127.628192 230.42758 128.310433 
C 230.42758 128.992675 230.698637 129.647065 231.181054 130.129482 
C 231.663472 130.6119 232.317862 130.882957 233.000103 130.882957 
z
" clip-path="url(#pf0eeaaaa1b)" style="fill: #800080; stroke: #ffffff; stroke-width: 0.345594"/>
    <path d="M 240.080034 216.775606 
C 240.687086 216.775606 241.269357 216.534422 241.698607 216.105171 
C 242.127858 215.675921 242.369042 215.09365 242.369042 214.486598 
C 242.369042 213.879546 242.127858 213.297276 241.698607 212.868025 
C 241.269357 212.438775 240.687086 212.19759 240.080034 212.19759 
C 239.472982 212.19759 238.890712 212.438775 238.461461 212.868025 
C 238.032211 213.297276 237.791027 213.879546 237.791027 214.486598 
C 237.791027 215.09365 238.032211 215.675921 238.461461 216.105171 
C 238.890712 216.534422 239.472982 216.775606 240.080034 216.775606 
z
" clip-path="url(#pf0eeaaaa1b)" style="fill: #800080; stroke: #ffffff; stroke-width: 0.345594"/>
    <path d="M 247.159966 164.763702 
C 247.827536 164.763702 248.467854 164.498473 248.939897 164.02643 
C 249.41194 163.554387 249.677168 162.914069 249.677168 162.246499 
C 249.677168 161.578929 249.41194 160.938611 248.939897 160.466568 
C 248.467854 159.994525 247.827536 159.729296 247.159966 159.729296 
C 246.492396 159.729296 245.852078 159.994525 245.380035 160.466568 
C 244.907991 160.938611 244.642763 161.578929 244.642763 162.246499 
C 244.642763 162.914069 244.907991 163.554387 245.380035 164.02643 
C 245.852078 164.498473 246.492396 164.763702 247.159966 164.763702 
z
" clip-path="url(#pf0eeaaaa1b)" style="fill: #800080; stroke: #ffffff; stroke-width: 0.345594"/>
    <path d="M 254.239897 194.035844 
C 254.875677 194.035844 255.485502 193.783246 255.935066 193.333682 
C 256.38463 192.884118 256.637228 192.274293 256.637228 191.638513 
C 256.637228 191.002734 256.38463 190.392908 255.935066 189.943344 
C 255.485502 189.493781 254.875677 189.241183 254.239897 189.241183 
C 253.604118 189.241183 252.994292 189.493781 252.544728 189.943344 
C 252.095164 190.392908 251.842567 191.002734 251.842567 191.638513 
C 251.842567 192.274293 252.095164 192.884118 252.544728 193.333682 
C 252.994292 193.783246 253.604118 194.035844 254.239897 194.035844 
z
" clip-path="url(#pf0eeaaaa1b)" style="fill: #800080; stroke: #ffffff; stroke-width: 0.345594"/>
    <path d="M 261.319828 147.993606 
C 262.007085 147.993606 262.666286 147.720556 263.15225 147.234592 
C 263.638214 146.748628 263.911265 146.089427 263.911265 145.40217 
C 263.911265 144.714913 263.638214 144.055712 263.15225 143.569748 
C 262.666286 143.083784 262.007085 142.810734 261.319828 142.810734 
C 260.632572 142.810734 259.97337 143.083784 259.487406 143.569748 
C 259.001442 144.055712 258.728392 144.714913 258.728392 145.40217 
C 258.728392 146.089427 259.001442 146.748628 259.487406 147.234592 
C 259.97337 147.720556 260.632572 147.993606 261.319828 147.993606 
z
" clip-path="url(#pf0eeaaaa1b)" style="fill: #800080; stroke: #ffffff; stroke-width: 0.345594"/>
    <path d="M 268.39976 133.38644 
C 269.129897 133.38644 269.830228 133.096353 270.346513 132.580068 
C 270.862798 132.063783 271.152884 131.363452 271.152884 130.633315 
C 271.152884 129.903178 270.862798 129.202847 270.346513 128.686562 
C 269.830228 128.170277 269.129897 127.880191 268.39976 127.880191 
C 267.669623 127.880191 266.969292 128.170277 266.453007 128.686562 
C 265.936722 129.202847 265.646635 129.903178 265.646635 130.633315 
C 265.646635 131.363452 265.936722 132.063783 266.453007 132.580068 
C 266.969292 133.096353 267.669623 133.38644 268.39976 133.38644 
z
" clip-path="url(#pf0eeaaaa1b)" style="fill: #800080; stroke: #ffffff; stroke-width: 0.345594"/>
    <path d="M 275.479691 207.358394 
C 276.161673 207.358394 276.815814 207.08744 277.298048 206.605206 
C 277.780282 206.122972 278.051236 205.46883 278.051236 204.786849 
C 278.051236 204.104867 277.780282 203.450726 277.298048 202.968492 
C 276.815814 202.486258 276.161673 202.215304 275.479691 202.215304 
C 274.79771 202.215304 274.143568 202.486258 273.661334 202.968492 
C 273.1791 203.450726 272.908146 204.104867 272.908146 204.786849 
C 272.908146 205.46883 273.1791 206.122972 273.661334 206.605206 
C 274.143568 207.08744 274.79771 207.358394 275.479691 207.358394 
z
" clip-path="url(#pf0eeaaaa1b)" style="fill: #800080; stroke: #ffffff; stroke-width: 0.345594"/>
    <path d="M 282.559623 157.195288 
C 283.261691 157.195288 283.935099 156.916353 284.431537 156.419916 
C 284.927974 155.923478 285.206909 155.25007 285.206909 154.548002 
C 285.206909 153.845933 284.927974 153.172525 284.431537 152.676087 
C 283.935099 152.17965 283.261691 151.900715 282.559623 151.900715 
C 281.857554 151.900715 281.184146 152.17965 280.687708 152.676087 
C 280.191271 153.172525 279.912336 153.845933 279.912336 154.548002 
C 279.912336 155.25007 280.191271 155.923478 280.687708 156.419916 
C 281.184146 156.916353 281.857554 157.195288 282.559623 157.195288 
z
" clip-path="url(#pf0eeaaaa1b)" style="fill: #800080; stroke: #ffffff; stroke-width: 0.345594"/>
    <path d="M 289.639554 179.894803 
C 290.344506 179.894803 291.020679 179.614723 291.519155 179.116247 
C 292.017631 178.617771 292.297711 177.941598 292.297711 177.236646 
C 292.297711 176.531695 292.017631 175.855521 291.519155 175.357045 
C 291.020679 174.858569 290.344506 174.578489 289.639554 174.578489 
C 288.934602 174.578489 288.258429 174.858569 287.759953 175.357045 
C 287.261477 175.855521 286.981397 176.531695 286.981397 177.236646 
C 286.981397 177.941598 287.261477 178.617771 287.759953 179.116247 
C 288.258429 179.614723 288.934602 179.894803 289.639554 179.894803 
z
" clip-path="url(#pf0eeaaaa1b)" style="fill: #800080; stroke: #ffffff; stroke-width: 0.345594"/>
    <path d="M 296.719485 130.01082 
C 297.550261 130.01082 298.347122 129.680749 298.934569 129.093302 
C 299.522016 128.505855 299.852087 127.708994 299.852087 126.878219 
C 299.852087 126.047443 299.522016 125.250582 298.934569 124.663135 
C 298.347122 124.075688 297.550261 123.745618 296.719485 123.745618 
C 295.88871 123.745618 295.091849 124.075688 294.504402 124.663135 
C 293.916955 125.250582 293.586884 126.047443 293.586884 126.878219 
C 293.586884 127.708994 293.916955 128.505855 294.504402 129.093302 
C 295.091849 129.680749 295.88871 130.01082 296.719485 130.01082 
z
" clip-path="url(#pf0eeaaaa1b)" style="fill: #800080; stroke: #ffffff; stroke-width: 0.345594"/>
    <path d="M 303.799417 129.127631 
C 304.637279 129.127631 305.440937 128.794745 306.033395 128.202287 
C 306.625853 127.609829 306.958739 126.806171 306.958739 125.968309 
C 306.958739 125.130447 306.625853 124.326789 306.033395 123.734331 
C 305.440937 123.141873 304.637279 122.808987 303.799417 122.808987 
C 302.961555 122.808987 302.157897 123.141873 301.565439 123.734331 
C 300.972981 124.326789 300.640095 125.130447 300.640095 125.968309 
C 300.640095 126.806171 300.972981 127.609829 301.565439 128.202287 
C 302.157897 128.794745 302.961555 129.127631 303.799417 129.127631 
z
" clip-path="url(#pf0eeaaaa1b)" style="fill: #800080; stroke: #ffffff; stroke-width: 0.345594"/>
    <path d="M 310.879348 153.179835 
C 311.617351 153.179835 312.325226 152.886623 312.847072 152.364777 
C 313.368918 151.84293 313.66213 151.135055 313.66213 150.397053 
C 313.66213 149.659051 313.368918 148.951176 312.847072 148.429329 
C 312.325226 147.907483 311.617351 147.614271 310.879348 147.614271 
C 310.141346 147.614271 309.433471 147.907483 308.911624 148.429329 
C 308.389778 148.951176 308.096567 149.659051 308.096567 150.397053 
C 308.096567 151.135055 308.389778 151.84293 308.911624 152.364777 
C 309.433471 152.886623 310.141346 153.179835 310.879348 153.179835 
z
" clip-path="url(#pf0eeaaaa1b)" style="fill: #800080; stroke: #ffffff; stroke-width: 0.345594"/>
    <path d="M 317.95928 124.008584 
C 318.79629 124.008584 319.599132 123.676036 320.190988 123.08418 
C 320.782844 122.492324 321.115392 121.689482 321.115392 120.852471 
C 321.115392 120.01546 320.782844 119.212618 320.190988 118.620762 
C 319.599132 118.028906 318.79629 117.696358 317.95928 117.696358 
C 317.122269 117.696358 316.319427 118.028906 315.727571 118.620762 
C 315.135715 119.212618 314.803167 120.01546 314.803167 120.852471 
C 314.803167 121.689482 315.135715 122.492324 315.727571 123.08418 
C 316.319427 123.676036 317.122269 124.008584 317.95928 124.008584 
z
" clip-path="url(#pf0eeaaaa1b)" style="fill: #800080; stroke: #ffffff; stroke-width: 0.345594"/>
    <path d="M 325.039211 114.504531 
C 325.928121 114.504531 326.780744 114.151364 327.409298 113.522809 
C 328.037853 112.894254 328.391021 112.041632 328.391021 111.152722 
C 328.391021 110.263811 328.037853 109.411189 327.409298 108.782634 
C 326.780744 108.154079 325.928121 107.800912 325.039211 107.800912 
C 324.150301 107.800912 323.297678 108.154079 322.669123 108.782634 
C 322.040569 109.411189 321.687401 110.263811 321.687401 111.152722 
C 321.687401 112.041632 322.040569 112.894254 322.669123 113.522809 
C 323.297678 114.151364 324.150301 114.504531 325.039211 114.504531 
z
" clip-path="url(#pf0eeaaaa1b)" style="fill: #800080; stroke: #ffffff; stroke-width: 0.345594"/>
    <path d="M 332.119142 128.831324 
C 332.987049 128.831324 333.819526 128.486501 334.433228 127.872798 
C 335.046931 127.259095 335.391754 126.426619 335.391754 125.558712 
C 335.391754 124.690805 335.046931 123.858329 334.433228 123.244626 
C 333.819526 122.630923 332.987049 122.2861 332.119142 122.2861 
C 331.251236 122.2861 330.418759 122.630923 329.805056 123.244626 
C 329.191353 123.858329 328.84653 124.690805 328.84653 125.558712 
C 328.84653 126.426619 329.191353 127.259095 329.805056 127.872798 
C 330.418759 128.486501 331.251236 128.831324 332.119142 128.831324 
z
" clip-path="url(#pf0eeaaaa1b)" style="fill: #800080; stroke: #ffffff; stroke-width: 0.345594"/>
    <path d="M 339.199074 123.693369 
C 340.080434 123.693369 340.925816 123.343201 341.549032 122.719984 
C 342.172248 122.096768 342.522416 121.251387 342.522416 120.370026 
C 342.522416 119.488666 342.172248 118.643284 341.549032 118.020068 
C 340.925816 117.396852 340.080434 117.046684 339.199074 117.046684 
C 338.317713 117.046684 337.472332 117.396852 336.849116 118.020068 
C 336.2259 118.643284 335.875731 119.488666 335.875731 120.370026 
C 335.875731 121.251387 336.2259 122.096768 336.849116 122.719984 
C 337.472332 123.343201 338.317713 123.693369 339.199074 123.693369 
z
" clip-path="url(#pf0eeaaaa1b)" style="fill: #800080; stroke: #ffffff; stroke-width: 0.345594"/>
    <path d="M 346.279005 106.017846 
C 347.24649 106.017846 348.17448 105.63346 348.858595 104.949344 
C 349.542711 104.265229 349.927096 103.337239 349.927096 102.369754 
C 349.927096 101.402269 349.542711 100.47428 348.858595 99.790164 
C 348.17448 99.106049 347.24649 98.721663 346.279005 98.721663 
C 345.31152 98.721663 344.38353 99.106049 343.699415 99.790164 
C 343.0153 100.47428 342.630914 101.402269 342.630914 102.369754 
C 342.630914 103.337239 343.0153 104.265229 343.699415 104.949344 
C 344.38353 105.63346 345.31152 106.017846 346.279005 106.017846 
z
" clip-path="url(#pf0eeaaaa1b)" style="fill: #800080; stroke: #ffffff; stroke-width: 0.345594"/>
    <path d="M 353.358937 107.289542 
C 354.374981 107.289542 355.349548 106.885863 356.068 106.167411 
C 356.786452 105.448959 357.190131 104.474392 357.190131 103.458347 
C 357.190131 102.442303 356.786452 101.467736 356.068 100.749284 
C 355.349548 100.030832 354.374981 99.627153 353.358937 99.627153 
C 352.342892 99.627153 351.368325 100.030832 350.649873 100.749284 
C 349.931421 101.467736 349.527742 102.442303 349.527742 103.458347 
C 349.527742 104.474392 349.931421 105.448959 350.649873 106.167411 
C 351.368325 106.885863 352.342892 107.289542 353.358937 107.289542 
z
" clip-path="url(#pf0eeaaaa1b)" style="fill: #800080; stroke: #ffffff; stroke-width: 0.345594"/>
    <path d="M 360.438868 123.416567 
C 361.361643 123.416567 362.246748 123.049944 362.899248 122.397444 
C 363.551749 121.744943 363.918371 120.859838 363.918371 119.937063 
C 363.918371 119.014288 363.551749 118.129183 362.899248 117.476683 
C 362.246748 116.824182 361.361643 116.45756 360.438868 116.45756 
C 359.516093 116.45756 358.630988 116.824182 357.978487 117.476683 
C 357.325987 118.129183 356.959364 119.014288 356.959364 119.937063 
C 356.959364 120.859838 357.325987 121.744943 357.978487 122.397444 
C 358.630988 123.049944 359.516093 123.416567 360.438868 123.416567 
z
" clip-path="url(#pf0eeaaaa1b)" style="fill: #800080; stroke: #ffffff; stroke-width: 0.345594"/>
    <path d="M 367.518799 103.541083 
C 368.579253 103.541083 369.596416 103.11976 370.346269 102.369906 
C 371.096123 101.620052 371.517446 100.60289 371.517446 99.542436 
C 371.517446 98.481983 371.096123 97.46482 370.346269 96.714966 
C 369.596416 95.965112 368.579253 95.54379 367.518799 95.54379 
C 366.458346 95.54379 365.441183 95.965112 364.691329 96.714966 
C 363.941475 97.46482 363.520153 98.481983 363.520153 99.542436 
C 363.520153 100.60289 363.941475 101.620052 364.691329 102.369906 
C 365.441183 103.11976 366.458346 103.541083 367.518799 103.541083 
z
" clip-path="url(#pf0eeaaaa1b)" style="fill: #800080; stroke: #ffffff; stroke-width: 0.345594"/>
    <path d="M 374.598731 89.641053 
C 375.716453 89.641053 376.788547 89.196977 377.578896 88.406628 
C 378.369246 87.616279 378.813322 86.544185 378.813322 85.426462 
C 378.813322 84.30874 378.369246 83.236646 377.578896 82.446297 
C 376.788547 81.655947 375.716453 81.211871 374.598731 81.211871 
C 373.481008 81.211871 372.408914 81.655947 371.618565 82.446297 
C 370.828216 83.236646 370.38414 84.30874 370.38414 85.426462 
C 370.38414 86.544185 370.828216 87.616279 371.618565 88.406628 
C 372.408914 89.196977 373.481008 89.641053 374.598731 89.641053 
z
" clip-path="url(#pf0eeaaaa1b)" style="fill: #800080; stroke: #ffffff; stroke-width: 0.345594"/>
    <path d="M 381.678662 77.926867 
C 382.803824 77.926867 383.883053 77.479835 384.678662 76.684226 
C 385.474271 75.888617 385.921303 74.809388 385.921303 73.684226 
C 385.921303 72.559065 385.474271 71.479835 384.678662 70.684226 
C 383.883053 69.888617 382.803824 69.441586 381.678662 69.441586 
C 380.553501 69.441586 379.474271 69.888617 378.678662 70.684226 
C 377.883053 71.479835 377.436021 72.559065 377.436021 73.684226 
C 377.436021 74.809388 377.883053 75.888617 378.678662 76.684226 
C 379.474271 77.479835 380.553501 77.926867 381.678662 77.926867 
z
" clip-path="url(#pf0eeaaaa1b)" style="fill: #800080; stroke: #ffffff; stroke-width: 0.345594"/>
    <path d="M 388.758593 83.762627 
C 389.873831 83.762627 390.943542 83.319538 391.732134 82.530946 
C 392.520726 81.742354 392.963814 80.672644 392.963814 79.557406 
C 392.963814 78.442168 392.520726 77.372458 391.732134 76.583866 
C 390.943542 75.795274 389.873831 75.352185 388.758593 75.352185 
C 387.643356 75.352185 386.573645 75.795274 385.785053 76.583866 
C 384.996461 77.372458 384.553373 78.442168 384.553373 79.557406 
C 384.553373 80.672644 384.996461 81.742354 385.785053 82.530946 
C 386.573645 83.319538 387.643356 83.762627 388.758593 83.762627 
z
" clip-path="url(#pf0eeaaaa1b)" style="fill: #800080; stroke: #ffffff; stroke-width: 0.345594"/>
    <path d="M 395.838525 77.592202 
C 396.917216 77.592202 397.951872 77.163633 398.714622 76.400883 
C 399.477372 75.638133 399.905941 74.603477 399.905941 73.524786 
C 399.905941 72.446094 399.477372 71.411438 398.714622 70.648688 
C 397.951872 69.885938 396.917216 69.45737 395.838525 69.45737 
C 394.759833 69.45737 393.725177 69.885938 392.962427 70.648688 
C 392.199677 71.411438 391.771109 72.446094 391.771109 73.524786 
C 391.771109 74.603477 392.199677 75.638133 392.962427 76.400883 
C 393.725177 77.163633 394.759833 77.592202 395.838525 77.592202 
z
" clip-path="url(#pf0eeaaaa1b)" style="fill: #800080; stroke: #ffffff; stroke-width: 0.345594"/>
    <path d="M 402.918456 69.545472 
C 403.978792 69.545472 404.995843 69.124196 405.745614 68.374425 
C 406.495384 67.624654 406.91666 66.607604 406.91666 65.547268 
C 406.91666 64.486931 406.495384 63.469881 405.745614 62.72011 
C 404.995843 61.970339 403.978792 61.549063 402.918456 61.549063 
C 401.85812 61.549063 400.84107 61.970339 400.091299 62.72011 
C 399.341528 63.469881 398.920252 64.486931 398.920252 65.547268 
C 398.920252 66.607604 399.341528 67.624654 400.091299 68.374425 
C 400.84107 69.124196 401.85812 69.545472 402.918456 69.545472 
z
" clip-path="url(#pf0eeaaaa1b)" style="fill: #800080; stroke: #ffffff; stroke-width: 0.345594"/>
    <path d="M 409.998388 61.233434 
C 410.924443 61.233434 411.812695 60.865508 412.467515 60.210688 
C 413.122336 59.555867 413.490261 58.667616 413.490261 57.74156 
C 413.490261 56.815504 413.122336 55.927253 412.467515 55.272432 
C 411.812695 54.617612 410.924443 54.249686 409.998388 54.249686 
C 409.072332 54.249686 408.18408 54.617612 407.52926 55.272432 
C 406.87444 55.927253 406.506514 56.815504 406.506514 57.74156 
C 406.506514 58.667616 406.87444 59.555867 407.52926 60.210688 
C 408.18408 60.865508 409.072332 61.233434 409.998388 61.233434 
z
" clip-path="url(#pf0eeaaaa1b)" style="fill: #800080; stroke: #ffffff; stroke-width: 0.345594"/>
    <path d="M 417.078319 60.708445 
C 417.956276 60.708445 418.798392 60.359629 419.419201 59.73882 
C 420.04001 59.118011 420.388826 58.275895 420.388826 57.397939 
C 420.388826 56.519982 420.04001 55.677866 419.419201 55.057057 
C 418.798392 54.436248 417.956276 54.087432 417.078319 54.087432 
C 416.200362 54.087432 415.358246 54.436248 414.737437 55.057057 
C 414.116628 55.677866 413.767812 56.519982 413.767812 57.397939 
C 413.767812 58.275895 414.116628 59.118011 414.737437 59.73882 
C 415.358246 60.359629 416.200362 60.708445 417.078319 60.708445 
z
" clip-path="url(#pf0eeaaaa1b)" style="fill: #800080; stroke: #ffffff; stroke-width: 0.345594"/>
    <path d="M 424.15825 54.130074 
C 424.976769 54.130074 425.761874 53.804873 426.340654 53.226093 
C 426.919435 52.647312 427.244636 51.862208 427.244636 51.043689 
C 427.244636 50.22517 426.919435 49.440065 426.340654 48.861285 
C 425.761874 48.282504 424.976769 47.957303 424.15825 47.957303 
C 423.339731 47.957303 422.554627 48.282504 421.975846 48.861285 
C 421.397066 49.440065 421.071865 50.22517 421.071865 51.043689 
C 421.071865 51.862208 421.397066 52.647312 421.975846 53.226093 
C 422.554627 53.804873 423.339731 54.130074 424.15825 54.130074 
z
" clip-path="url(#pf0eeaaaa1b)" style="fill: #800080; stroke: #ffffff; stroke-width: 0.345594"/>
    <path d="M 431.238182 41.435334 
C 431.942611 41.435334 432.618283 41.155462 433.116389 40.657355 
C 433.614496 40.159249 433.894368 39.483577 433.894368 38.779148 
C 433.894368 38.074719 433.614496 37.399047 433.116389 36.90094 
C 432.618283 36.402834 431.942611 36.122961 431.238182 36.122961 
C 430.533753 36.122961 429.858081 36.402834 429.359974 36.90094 
C 428.861868 37.399047 428.581995 38.074719 428.581995 38.779148 
C 428.581995 39.483577 428.861868 40.159249 429.359974 40.657355 
C 429.858081 41.155462 430.533753 41.435334 431.238182 41.435334 
z
" clip-path="url(#pf0eeaaaa1b)" style="fill: #800080; stroke: #ffffff; stroke-width: 0.345594"/>
   </g>
   <g id="patch_3">
    <path d="M 37.24 317.72 
L 37.24 25.49625 
" style="fill: none; stroke: #ffffff; stroke-width: 0.8; stroke-linejoin: miter; stroke-linecap: square"/>
   </g>
   <g id="patch_4">
    <path d="M 450 317.72 
L 450 25.49625 
" style="fill: none; stroke: #ffffff; stroke-width: 0.8; stroke-linejoin: miter; stroke-linecap: square"/>
   </g>
   <g id="patch_5">
    <path d="M 37.24 317.72 
L 450 317.72 
" style="fill: none; stroke: #ffffff; stroke-width: 0.8; stroke-linejoin: miter; stroke-linecap: square"/>
   </g>
   <g id="patch_6">
    <path d="M 37.24 25.49625 
L 450 25.49625 
" style="fill: none; stroke: #ffffff; stroke-width: 0.8; stroke-linejoin: miter; stroke-linecap: square"/>
   </g>
   <g id="text_15">
    <!-- Yearly average ratings -->
    <g style="fill: #262626" transform="translate(184.139375 19.49625) scale(0.12 -0.12)">
     <defs>
      <path id="ArialMT-59" d="M 1784 0 
L 1784 1941 
L 19 4581 
L 756 4581 
L 1659 3200 
Q 1909 2813 2125 2425 
Q 2331 2784 2625 3234 
L 3513 4581 
L 4219 4581 
L 2391 1941 
L 2391 0 
L 1784 0 
z
" transform="scale(0.015625)"/>
      <path id="ArialMT-65" d="M 2694 1069 
L 3275 997 
Q 3138 488 2766 206 
Q 2394 -75 1816 -75 
Q 1088 -75 661 373 
Q 234 822 234 1631 
Q 234 2469 665 2931 
Q 1097 3394 1784 3394 
Q 2450 3394 2872 2941 
Q 3294 2488 3294 1666 
Q 3294 1616 3291 1516 
L 816 1516 
Q 847 969 1125 678 
Q 1403 388 1819 388 
Q 2128 388 2347 550 
Q 2566 713 2694 1069 
z
M 847 1978 
L 2700 1978 
Q 2663 2397 2488 2606 
Q 2219 2931 1791 2931 
Q 1403 2931 1139 2672 
Q 875 2413 847 1978 
z
" transform="scale(0.015625)"/>
      <path id="ArialMT-61" d="M 2588 409 
Q 2275 144 1986 34 
Q 1697 -75 1366 -75 
Q 819 -75 525 192 
Q 231 459 231 875 
Q 231 1119 342 1320 
Q 453 1522 633 1644 
Q 813 1766 1038 1828 
Q 1203 1872 1538 1913 
Q 2219 1994 2541 2106 
Q 2544 2222 2544 2253 
Q 2544 2597 2384 2738 
Q 2169 2928 1744 2928 
Q 1347 2928 1158 2789 
Q 969 2650 878 2297 
L 328 2372 
Q 403 2725 575 2942 
Q 747 3159 1072 3276 
Q 1397 3394 1825 3394 
Q 2250 3394 2515 3294 
Q 2781 3194 2906 3042 
Q 3031 2891 3081 2659 
Q 3109 2516 3109 2141 
L 3109 1391 
Q 3109 606 3145 398 
Q 3181 191 3288 0 
L 2700 0 
Q 2613 175 2588 409 
z
M 2541 1666 
Q 2234 1541 1622 1453 
Q 1275 1403 1131 1340 
Q 988 1278 909 1158 
Q 831 1038 831 891 
Q 831 666 1001 516 
Q 1172 366 1500 366 
Q 1825 366 2078 508 
Q 2331 650 2450 897 
Q 2541 1088 2541 1459 
L 2541 1666 
z
" transform="scale(0.015625)"/>
      <path id="ArialMT-72" d="M 416 0 
L 416 3319 
L 922 3319 
L 922 2816 
Q 1116 3169 1280 3281 
Q 1444 3394 1641 3394 
Q 1925 3394 2219 3213 
L 2025 2691 
Q 1819 2813 1613 2813 
Q 1428 2813 1281 2702 
Q 1134 2591 1072 2394 
Q 978 2094 978 1738 
L 978 0 
L 416 0 
z
" transform="scale(0.015625)"/>
      <path id="ArialMT-6c" d="M 409 0 
L 409 4581 
L 972 4581 
L 972 0 
L 409 0 
z
" transform="scale(0.015625)"/>
      <path id="ArialMT-79" d="M 397 -1278 
L 334 -750 
Q 519 -800 656 -800 
Q 844 -800 956 -737 
Q 1069 -675 1141 -563 
Q 1194 -478 1313 -144 
Q 1328 -97 1363 -6 
L 103 3319 
L 709 3319 
L 1400 1397 
Q 1534 1031 1641 628 
Q 1738 1016 1872 1384 
L 2581 3319 
L 3144 3319 
L 1881 -56 
Q 1678 -603 1566 -809 
Q 1416 -1088 1222 -1217 
Q 1028 -1347 759 -1347 
Q 597 -1347 397 -1278 
z
" transform="scale(0.015625)"/>
      <path id="ArialMT-20" transform="scale(0.015625)"/>
      <path id="ArialMT-76" d="M 1344 0 
L 81 3319 
L 675 3319 
L 1388 1331 
Q 1503 1009 1600 663 
Q 1675 925 1809 1294 
L 2547 3319 
L 3125 3319 
L 1869 0 
L 1344 0 
z
" transform="scale(0.015625)"/>
      <path id="ArialMT-67" d="M 319 -275 
L 866 -356 
Q 900 -609 1056 -725 
Q 1266 -881 1628 -881 
Q 2019 -881 2231 -725 
Q 2444 -569 2519 -288 
Q 2563 -116 2559 434 
Q 2191 0 1641 0 
Q 956 0 581 494 
Q 206 988 206 1678 
Q 206 2153 378 2554 
Q 550 2956 876 3175 
Q 1203 3394 1644 3394 
Q 2231 3394 2613 2919 
L 2613 3319 
L 3131 3319 
L 3131 450 
Q 3131 -325 2973 -648 
Q 2816 -972 2473 -1159 
Q 2131 -1347 1631 -1347 
Q 1038 -1347 672 -1080 
Q 306 -813 319 -275 
z
M 784 1719 
Q 784 1066 1043 766 
Q 1303 466 1694 466 
Q 2081 466 2343 764 
Q 2606 1063 2606 1700 
Q 2606 2309 2336 2618 
Q 2066 2928 1684 2928 
Q 1309 2928 1046 2623 
Q 784 2319 784 1719 
z
" transform="scale(0.015625)"/>
      <path id="ArialMT-74" d="M 1650 503 
L 1731 6 
Q 1494 -44 1306 -44 
Q 1000 -44 831 53 
Q 663 150 594 308 
Q 525 466 525 972 
L 525 2881 
L 113 2881 
L 113 3319 
L 525 3319 
L 525 4141 
L 1084 4478 
L 1084 3319 
L 1650 3319 
L 1650 2881 
L 1084 2881 
L 1084 941 
Q 1084 700 1114 631 
Q 1144 563 1211 522 
Q 1278 481 1403 481 
Q 1497 481 1650 503 
z
" transform="scale(0.015625)"/>
      <path id="ArialMT-69" d="M 425 3934 
L 425 4581 
L 988 4581 
L 988 3934 
L 425 3934 
z
M 425 0 
L 425 3319 
L 988 3319 
L 988 0 
L 425 0 
z
" transform="scale(0.015625)"/>
      <path id="ArialMT-6e" d="M 422 0 
L 422 3319 
L 928 3319 
L 928 2847 
Q 1294 3394 1984 3394 
Q 2284 3394 2536 3286 
Q 2788 3178 2913 3003 
Q 3038 2828 3088 2588 
Q 3119 2431 3119 2041 
L 3119 0 
L 2556 0 
L 2556 2019 
Q 2556 2363 2490 2533 
Q 2425 2703 2258 2804 
Q 2091 2906 1866 2906 
Q 1506 2906 1245 2678 
Q 984 2450 984 1813 
L 984 0 
L 422 0 
z
" transform="scale(0.015625)"/>
      <path id="ArialMT-73" d="M 197 991 
L 753 1078 
Q 800 744 1014 566 
Q 1228 388 1613 388 
Q 2000 388 2187 545 
Q 2375 703 2375 916 
Q 2375 1106 2209 1216 
Q 2094 1291 1634 1406 
Q 1016 1563 777 1677 
Q 538 1791 414 1992 
Q 291 2194 291 2438 
Q 291 2659 392 2848 
Q 494 3038 669 3163 
Q 800 3259 1026 3326 
Q 1253 3394 1513 3394 
Q 1903 3394 2198 3281 
Q 2494 3169 2634 2976 
Q 2775 2784 2828 2463 
L 2278 2388 
Q 2241 2644 2061 2787 
Q 1881 2931 1553 2931 
Q 1166 2931 1000 2803 
Q 834 2675 834 2503 
Q 834 2394 903 2306 
Q 972 2216 1119 2156 
Q 1203 2125 1616 2013 
Q 2213 1853 2448 1751 
Q 2684 1650 2818 1456 
Q 2953 1263 2953 975 
Q 2953 694 2789 445 
Q 2625 197 2315 61 
Q 2006 -75 1616 -75 
Q 969 -75 630 194 
Q 291 463 197 991 
z
" transform="scale(0.015625)"/>
     </defs>
     <use xlink:href="#ArialMT-59"/>
     <use xlink:href="#ArialMT-65" x="57.574219"/>
     <use xlink:href="#ArialMT-61" x="113.189453"/>
     <use xlink:href="#ArialMT-72" x="168.804688"/>
     <use xlink:href="#ArialMT-6c" x="202.105469"/>
     <use xlink:href="#ArialMT-79" x="224.322266"/>
     <use xlink:href="#ArialMT-20" x="274.322266"/>
     <use xlink:href="#ArialMT-61" x="302.105469"/>
     <use xlink:href="#ArialMT-76" x="357.720703"/>
     <use xlink:href="#ArialMT-65" x="407.720703"/>
     <use xlink:href="#ArialMT-72" x="463.335938"/>
     <use xlink:href="#ArialMT-61" x="496.636719"/>
     <use xlink:href="#ArialMT-67" x="552.251953"/>
     <use xlink:href="#ArialMT-65" x="607.867188"/>
     <use xlink:href="#ArialMT-20" x="663.482422"/>
     <use xlink:href="#ArialMT-72" x="691.265625"/>
     <use xlink:href="#ArialMT-61" x="724.566406"/>
     <use xlink:href="#ArialMT-74" x="780.181641"/>
     <use xlink:href="#ArialMT-69" x="807.964844"/>
     <use xlink:href="#ArialMT-6e" x="830.181641"/>
     <use xlink:href="#ArialMT-67" x="885.796875"/>
     <use xlink:href="#ArialMT-73" x="941.412109"/>
    </g>
   </g>
  </g>
 </g>
 <defs>
  <clipPath id="pf0eeaaaa1b">
   <rect x="37.24" y="25.49625" width="412.76" height="292.22375"/>
  </clipPath>
 </defs>
</svg>
