<?xml version="1.0" encoding="utf-8" standalone="no"?>
<!DOCTYPE svg PUBLIC "-//W3C//DTD SVG 1.1//EN"
  "http://www.w3.org/Graphics/SVG/1.1/DTD/svg11.dtd">
<svg xmlns:xlink="http://www.w3.org/1999/xlink" width="432pt" height="288pt" viewBox="0 0 432 288" xmlns="http://www.w3.org/2000/svg" version="1.1">
 <metadata>
  <rdf:RDF xmlns:dc="http://purl.org/dc/elements/1.1/" xmlns:cc="http://creativecommons.org/ns#" xmlns:rdf="http://www.w3.org/1999/02/22-rdf-syntax-ns#">
   <cc:Work>
    <dc:type rdf:resource="http://purl.org/dc/dcmitype/StillImage"/>
    <dc:date>2024-08-13T21:39:57.097984</dc:date>
    <dc:format>image/svg+xml</dc:format>
    <dc:creator>
     <cc:Agent>
      <dc:title>Matplotlib v3.9.2, https://matplotlib.org/</dc:title>
     </cc:Agent>
    </dc:creator>
   </cc:Work>
  </rdf:RDF>
 </metadata>
 <defs>
  <style type="text/css">*{stroke-linejoin: round; stroke-linecap: butt}</style>
 </defs>
 <g id="figure_1">
  <g id="patch_1">
   <path d="M 0 288 
L 432 288 
L 432 0 
L 0 0 
z
" style="fill: #ffffff"/>
  </g>
  <g id="axes_1">
   <g id="patch_2">
    <path d="M 37.15 260.12 
L 421.2 260.12 
L 421.2 25.44 
L 37.15 25.44 
z
" style="fill: #eaeaf2"/>
   </g>
   <g id="matplotlib.axis_1">
    <g id="xtick_1">
     <g id="text_1">
      <!-- 1970 -->
      <g style="fill: #262626" transform="translate(43.484943 274.277812) scale(0.1 -0.1)">
       <defs>
        <path id="ArialMT-31" d="M 2384 0 
L 1822 0 
L 1822 3584 
Q 1619 3391 1289 3197 
Q 959 3003 697 2906 
L 697 3450 
Q 1169 3672 1522 3987 
Q 1875 4303 2022 4600 
L 2384 4600 
L 2384 0 
z
" transform="scale(0.015625)"/>
        <path id="ArialMT-39" d="M 350 1059 
L 891 1109 
Q 959 728 1153 556 
Q 1347 384 1650 384 
Q 1909 384 2104 503 
Q 2300 622 2425 820 
Q 2550 1019 2634 1356 
Q 2719 1694 2719 2044 
Q 2719 2081 2716 2156 
Q 2547 1888 2255 1720 
Q 1963 1553 1622 1553 
Q 1053 1553 659 1965 
Q 266 2378 266 3053 
Q 266 3750 677 4175 
Q 1088 4600 1706 4600 
Q 2153 4600 2523 4359 
Q 2894 4119 3086 3673 
Q 3278 3228 3278 2384 
Q 3278 1506 3087 986 
Q 2897 466 2520 194 
Q 2144 -78 1638 -78 
Q 1100 -78 759 220 
Q 419 519 350 1059 
z
M 2653 3081 
Q 2653 3566 2395 3850 
Q 2138 4134 1775 4134 
Q 1400 4134 1122 3828 
Q 844 3522 844 3034 
Q 844 2597 1108 2323 
Q 1372 2050 1759 2050 
Q 2150 2050 2401 2323 
Q 2653 2597 2653 3081 
z
" transform="scale(0.015625)"/>
        <path id="ArialMT-37" d="M 303 3981 
L 303 4522 
L 3269 4522 
L 3269 4084 
Q 2831 3619 2401 2847 
Q 1972 2075 1738 1259 
Q 1569 684 1522 0 
L 944 0 
Q 953 541 1156 1306 
Q 1359 2072 1739 2783 
Q 2119 3494 2547 3981 
L 303 3981 
z
" transform="scale(0.015625)"/>
        <path id="ArialMT-30" d="M 266 2259 
Q 266 3072 433 3567 
Q 600 4063 929 4331 
Q 1259 4600 1759 4600 
Q 2128 4600 2406 4451 
Q 2684 4303 2865 4023 
Q 3047 3744 3150 3342 
Q 3253 2941 3253 2259 
Q 3253 1453 3087 958 
Q 2922 463 2592 192 
Q 2263 -78 1759 -78 
Q 1097 -78 719 397 
Q 266 969 266 2259 
z
M 844 2259 
Q 844 1131 1108 757 
Q 1372 384 1759 384 
Q 2147 384 2411 759 
Q 2675 1134 2675 2259 
Q 2675 3391 2411 3762 
Q 2147 4134 1753 4134 
Q 1366 4134 1134 3806 
Q 844 3388 844 2259 
z
" transform="scale(0.015625)"/>
       </defs>
       <use xlink:href="#ArialMT-31"/>
       <use xlink:href="#ArialMT-39" x="55.615234"/>
       <use xlink:href="#ArialMT-37" x="111.230469"/>
       <use xlink:href="#ArialMT-30" x="166.845703"/>
      </g>
     </g>
    </g>
    <g id="xtick_2">
     <g id="text_2">
      <!-- 1980 -->
      <g style="fill: #262626" transform="translate(109.359729 274.277812) scale(0.1 -0.1)">
       <defs>
        <path id="ArialMT-38" d="M 1131 2484 
Q 781 2613 612 2850 
Q 444 3088 444 3419 
Q 444 3919 803 4259 
Q 1163 4600 1759 4600 
Q 2359 4600 2725 4251 
Q 3091 3903 3091 3403 
Q 3091 3084 2923 2848 
Q 2756 2613 2416 2484 
Q 2838 2347 3058 2040 
Q 3278 1734 3278 1309 
Q 3278 722 2862 322 
Q 2447 -78 1769 -78 
Q 1091 -78 675 323 
Q 259 725 259 1325 
Q 259 1772 486 2073 
Q 713 2375 1131 2484 
z
M 1019 3438 
Q 1019 3113 1228 2906 
Q 1438 2700 1772 2700 
Q 2097 2700 2305 2904 
Q 2513 3109 2513 3406 
Q 2513 3716 2298 3927 
Q 2084 4138 1766 4138 
Q 1444 4138 1231 3931 
Q 1019 3725 1019 3438 
z
M 838 1322 
Q 838 1081 952 856 
Q 1066 631 1291 507 
Q 1516 384 1775 384 
Q 2178 384 2440 643 
Q 2703 903 2703 1303 
Q 2703 1709 2433 1975 
Q 2163 2241 1756 2241 
Q 1359 2241 1098 1978 
Q 838 1716 838 1322 
z
" transform="scale(0.015625)"/>
       </defs>
       <use xlink:href="#ArialMT-31"/>
       <use xlink:href="#ArialMT-39" x="55.615234"/>
       <use xlink:href="#ArialMT-38" x="111.230469"/>
       <use xlink:href="#ArialMT-30" x="166.845703"/>
      </g>
     </g>
    </g>
    <g id="xtick_3">
     <g id="text_3">
      <!-- 1990 -->
      <g style="fill: #262626" transform="translate(175.234514 274.277812) scale(0.1 -0.1)">
       <use xlink:href="#ArialMT-31"/>
       <use xlink:href="#ArialMT-39" x="55.615234"/>
       <use xlink:href="#ArialMT-39" x="111.230469"/>
       <use xlink:href="#ArialMT-30" x="166.845703"/>
      </g>
     </g>
    </g>
    <g id="xtick_4">
     <g id="text_4">
      <!-- 2000 -->
      <g style="fill: #262626" transform="translate(241.1093 274.277812) scale(0.1 -0.1)">
       <defs>
        <path id="ArialMT-32" d="M 3222 541 
L 3222 0 
L 194 0 
Q 188 203 259 391 
Q 375 700 629 1000 
Q 884 1300 1366 1694 
Q 2113 2306 2375 2664 
Q 2638 3022 2638 3341 
Q 2638 3675 2398 3904 
Q 2159 4134 1775 4134 
Q 1369 4134 1125 3890 
Q 881 3647 878 3216 
L 300 3275 
Q 359 3922 746 4261 
Q 1134 4600 1788 4600 
Q 2447 4600 2831 4234 
Q 3216 3869 3216 3328 
Q 3216 3053 3103 2787 
Q 2991 2522 2730 2228 
Q 2469 1934 1863 1422 
Q 1356 997 1212 845 
Q 1069 694 975 541 
L 3222 541 
z
" transform="scale(0.015625)"/>
       </defs>
       <use xlink:href="#ArialMT-32"/>
       <use xlink:href="#ArialMT-30" x="55.615234"/>
       <use xlink:href="#ArialMT-30" x="111.230469"/>
       <use xlink:href="#ArialMT-30" x="166.845703"/>
      </g>
     </g>
    </g>
    <g id="xtick_5">
     <g id="text_5">
      <!-- 2010 -->
      <g style="fill: #262626" transform="translate(306.984086 274.277812) scale(0.1 -0.1)">
       <use xlink:href="#ArialMT-32"/>
       <use xlink:href="#ArialMT-30" x="55.615234"/>
       <use xlink:href="#ArialMT-31" x="111.230469"/>
       <use xlink:href="#ArialMT-30" x="166.845703"/>
      </g>
     </g>
    </g>
    <g id="xtick_6">
     <g id="text_6">
      <!-- 2020 -->
      <g style="fill: #262626" transform="translate(372.858871 274.277812) scale(0.1 -0.1)">
       <use xlink:href="#ArialMT-32"/>
       <use xlink:href="#ArialMT-30" x="55.615234"/>
       <use xlink:href="#ArialMT-32" x="111.230469"/>
       <use xlink:href="#ArialMT-30" x="166.845703"/>
      </g>
     </g>
    </g>
   </g>
   <g id="matplotlib.axis_2">
    <g id="ytick_1">
     <g id="text_7">
      <!-- 5.50 -->
      <g style="fill: #262626" transform="translate(10.689063 255.423339) scale(0.1 -0.1)">
       <defs>
        <path id="ArialMT-35" d="M 266 1200 
L 856 1250 
Q 922 819 1161 601 
Q 1400 384 1738 384 
Q 2144 384 2425 690 
Q 2706 997 2706 1503 
Q 2706 1984 2436 2262 
Q 2166 2541 1728 2541 
Q 1456 2541 1237 2417 
Q 1019 2294 894 2097 
L 366 2166 
L 809 4519 
L 3088 4519 
L 3088 3981 
L 1259 3981 
L 1013 2750 
Q 1425 3038 1878 3038 
Q 2478 3038 2890 2622 
Q 3303 2206 3303 1553 
Q 3303 931 2941 478 
Q 2500 -78 1738 -78 
Q 1113 -78 717 272 
Q 322 622 266 1200 
z
" transform="scale(0.015625)"/>
        <path id="ArialMT-2e" d="M 581 0 
L 581 641 
L 1222 641 
L 1222 0 
L 581 0 
z
" transform="scale(0.015625)"/>
       </defs>
       <use xlink:href="#ArialMT-35"/>
       <use xlink:href="#ArialMT-2e" x="55.615234"/>
       <use xlink:href="#ArialMT-35" x="83.398438"/>
       <use xlink:href="#ArialMT-30" x="139.013672"/>
      </g>
     </g>
    </g>
    <g id="ytick_2">
     <g id="text_8">
      <!-- 5.55 -->
      <g style="fill: #262626" transform="translate(10.689063 210.241228) scale(0.1 -0.1)">
       <use xlink:href="#ArialMT-35"/>
       <use xlink:href="#ArialMT-2e" x="55.615234"/>
       <use xlink:href="#ArialMT-35" x="83.398438"/>
       <use xlink:href="#ArialMT-35" x="139.013672"/>
      </g>
     </g>
    </g>
    <g id="ytick_3">
     <g id="text_9">
      <!-- 5.60 -->
      <g style="fill: #262626" transform="translate(10.689063 165.059116) scale(0.1 -0.1)">
       <defs>
        <path id="ArialMT-36" d="M 3184 3459 
L 2625 3416 
Q 2550 3747 2413 3897 
Q 2184 4138 1850 4138 
Q 1581 4138 1378 3988 
Q 1113 3794 959 3422 
Q 806 3050 800 2363 
Q 1003 2672 1297 2822 
Q 1591 2972 1913 2972 
Q 2475 2972 2870 2558 
Q 3266 2144 3266 1488 
Q 3266 1056 3080 686 
Q 2894 316 2569 119 
Q 2244 -78 1831 -78 
Q 1128 -78 684 439 
Q 241 956 241 2144 
Q 241 3472 731 4075 
Q 1159 4600 1884 4600 
Q 2425 4600 2770 4297 
Q 3116 3994 3184 3459 
z
M 888 1484 
Q 888 1194 1011 928 
Q 1134 663 1356 523 
Q 1578 384 1822 384 
Q 2178 384 2434 671 
Q 2691 959 2691 1453 
Q 2691 1928 2437 2201 
Q 2184 2475 1800 2475 
Q 1419 2475 1153 2201 
Q 888 1928 888 1484 
z
" transform="scale(0.015625)"/>
       </defs>
       <use xlink:href="#ArialMT-35"/>
       <use xlink:href="#ArialMT-2e" x="55.615234"/>
       <use xlink:href="#ArialMT-36" x="83.398438"/>
       <use xlink:href="#ArialMT-30" x="139.013672"/>
      </g>
     </g>
    </g>
    <g id="ytick_4">
     <g id="text_10">
      <!-- 5.65 -->
      <g style="fill: #262626" transform="translate(10.689063 119.877005) scale(0.1 -0.1)">
       <use xlink:href="#ArialMT-35"/>
       <use xlink:href="#ArialMT-2e" x="55.615234"/>
       <use xlink:href="#ArialMT-36" x="83.398438"/>
       <use xlink:href="#ArialMT-35" x="139.013672"/>
      </g>
     </g>
    </g>
    <g id="ytick_5">
     <g id="text_11">
      <!-- 5.70 -->
      <g style="fill: #262626" transform="translate(10.689063 74.694894) scale(0.1 -0.1)">
       <use xlink:href="#ArialMT-35"/>
       <use xlink:href="#ArialMT-2e" x="55.615234"/>
       <use xlink:href="#ArialMT-37" x="83.398438"/>
       <use xlink:href="#ArialMT-30" x="139.013672"/>
      </g>
     </g>
    </g>
    <g id="ytick_6">
     <g id="text_12">
      <!-- 5.75 -->
      <g style="fill: #262626" transform="translate(10.689063 29.512782) scale(0.1 -0.1)">
       <use xlink:href="#ArialMT-35"/>
       <use xlink:href="#ArialMT-2e" x="55.615234"/>
       <use xlink:href="#ArialMT-37" x="83.398438"/>
       <use xlink:href="#ArialMT-35" x="139.013672"/>
      </g>
     </g>
    </g>
   </g>
   <g id="PathCollection_1">
    <path d="M 54.606818 230.693486 
C 54.737401 230.693486 54.862652 230.641605 54.954988 230.549269 
C 55.047323 230.456933 55.099204 230.331682 55.099204 230.2011 
C 55.099204 230.070517 55.047323 229.945266 54.954988 229.85293 
C 54.862652 229.760594 54.737401 229.708713 54.606818 229.708713 
C 54.476236 229.708713 54.350984 229.760594 54.258649 229.85293 
C 54.166313 229.945266 54.114432 230.070517 54.114432 230.2011 
C 54.114432 230.331682 54.166313 230.456933 54.258649 230.549269 
C 54.350984 230.641605 54.476236 230.693486 54.606818 230.693486 
z
" clip-path="url(#p919883118a)" style="fill: #800080; fill-opacity: 0.8; stroke: #800080; stroke-opacity: 0.8"/>
    <path d="M 61.194297 201.071672 
C 61.323277 201.071672 61.446992 201.020428 61.538194 200.929225 
C 61.629397 200.838022 61.680641 200.714308 61.680641 200.585328 
C 61.680641 200.456348 61.629397 200.332633 61.538194 200.24143 
C 61.446992 200.150227 61.323277 200.098983 61.194297 200.098983 
C 61.065317 200.098983 60.941602 200.150227 60.850399 200.24143 
C 60.759197 200.332633 60.707952 200.456348 60.707952 200.585328 
C 60.707952 200.714308 60.759197 200.838022 60.850399 200.929225 
C 60.941602 201.020428 61.065317 201.071672 61.194297 201.071672 
z
" clip-path="url(#p919883118a)" style="fill: #800080; fill-opacity: 0.8; stroke: #800080; stroke-opacity: 0.8"/>
    <path d="M 67.781775 223.566643 
C 67.951177 223.566643 68.113663 223.499339 68.233448 223.379554 
C 68.353233 223.259769 68.420536 223.097283 68.420536 222.927882 
C 68.420536 222.75848 68.353233 222.595994 68.233448 222.476209 
C 68.113663 222.356424 67.951177 222.28912 67.781775 222.28912 
C 67.612374 222.28912 67.449888 222.356424 67.330103 222.476209 
C 67.210318 222.595994 67.143014 222.75848 67.143014 222.927882 
C 67.143014 223.097283 67.210318 223.259769 67.330103 223.379554 
C 67.449888 223.499339 67.612374 223.566643 67.781775 223.566643 
z
" clip-path="url(#p919883118a)" style="fill: #800080; fill-opacity: 0.8; stroke: #800080; stroke-opacity: 0.8"/>
    <path d="M 74.369254 218.497294 
C 74.545867 218.497294 74.71527 218.427125 74.840155 218.30224 
C 74.965039 218.177356 75.035208 218.007953 75.035208 217.831339 
C 75.035208 217.654726 74.965039 217.485323 74.840155 217.360439 
C 74.71527 217.235554 74.545867 217.165385 74.369254 217.165385 
C 74.192641 217.165385 74.023237 217.235554 73.898353 217.360439 
C 73.773469 217.485323 73.703299 217.654726 73.703299 217.831339 
C 73.703299 218.007953 73.773469 218.177356 73.898353 218.30224 
C 74.023237 218.427125 74.192641 218.497294 74.369254 218.497294 
z
" clip-path="url(#p919883118a)" style="fill: #800080; fill-opacity: 0.8; stroke: #800080; stroke-opacity: 0.8"/>
    <path d="M 80.956732 186.180339 
C 81.134519 186.180339 81.305048 186.109703 81.430762 185.983989 
C 81.556477 185.858275 81.627112 185.687746 81.627112 185.509959 
C 81.627112 185.332173 81.556477 185.161644 81.430762 185.03593 
C 81.305048 184.910215 81.134519 184.83958 80.956732 184.83958 
C 80.778946 184.83958 80.608417 184.910215 80.482703 185.03593 
C 80.356988 185.161644 80.286353 185.332173 80.286353 185.509959 
C 80.286353 185.687746 80.356988 185.858275 80.482703 185.983989 
C 80.608417 186.109703 80.778946 186.180339 80.956732 186.180339 
z
" clip-path="url(#p919883118a)" style="fill: #800080; fill-opacity: 0.8; stroke: #800080; stroke-opacity: 0.8"/>
    <path d="M 87.544211 226.382886 
C 87.772218 226.382886 87.990916 226.292298 88.152141 226.131073 
C 88.313367 225.969848 88.403955 225.751149 88.403955 225.523142 
C 88.403955 225.295135 88.313367 225.076437 88.152141 224.915212 
C 87.990916 224.753987 87.772218 224.663399 87.544211 224.663399 
C 87.316204 224.663399 87.097506 224.753987 86.93628 224.915212 
C 86.775055 225.076437 86.684467 225.295135 86.684467 225.523142 
C 86.684467 225.751149 86.775055 225.969848 86.93628 226.131073 
C 87.097506 226.292298 87.316204 226.382886 87.544211 226.382886 
z
" clip-path="url(#p919883118a)" style="fill: #800080; fill-opacity: 0.8; stroke: #800080; stroke-opacity: 0.8"/>
    <path d="M 94.13169 209.810075 
C 94.302314 209.810075 94.465973 209.742285 94.586623 209.621635 
C 94.707273 209.500985 94.775063 209.337326 94.775063 209.166701 
C 94.775063 208.996077 94.707273 208.832418 94.586623 208.711768 
C 94.465973 208.591118 94.302314 208.523328 94.13169 208.523328 
C 93.961065 208.523328 93.797406 208.591118 93.676756 208.711768 
C 93.556106 208.832418 93.488316 208.996077 93.488316 209.166701 
C 93.488316 209.337326 93.556106 209.500985 93.676756 209.621635 
C 93.797406 209.742285 93.961065 209.810075 94.13169 209.810075 
z
" clip-path="url(#p919883118a)" style="fill: #800080; fill-opacity: 0.8; stroke: #800080; stroke-opacity: 0.8"/>
    <path d="M 100.719168 172.84727 
C 100.934993 172.84727 101.142007 172.761522 101.294619 172.608911 
C 101.44723 172.4563 101.532978 172.249285 101.532978 172.03346 
C 101.532978 171.817636 101.44723 171.610621 101.294619 171.45801 
C 101.142007 171.305399 100.934993 171.219651 100.719168 171.219651 
C 100.503343 171.219651 100.296329 171.305399 100.143718 171.45801 
C 99.991106 171.610621 99.905358 171.817636 99.905358 172.03346 
C 99.905358 172.249285 99.991106 172.4563 100.143718 172.608911 
C 100.296329 172.761522 100.503343 172.84727 100.719168 172.84727 
z
" clip-path="url(#p919883118a)" style="fill: #800080; fill-opacity: 0.8; stroke: #800080; stroke-opacity: 0.8"/>
    <path d="M 107.306647 230.235589 
C 107.513618 230.235589 107.712141 230.153358 107.858492 230.007007 
C 108.004843 229.860656 108.087074 229.662133 108.087074 229.455161 
C 108.087074 229.24819 108.004843 229.049667 107.858492 228.903316 
C 107.712141 228.756965 107.513618 228.674734 107.306647 228.674734 
C 107.099675 228.674734 106.901152 228.756965 106.754801 228.903316 
C 106.60845 229.049667 106.526219 229.24819 106.526219 229.455161 
C 106.526219 229.662133 106.60845 229.860656 106.754801 230.007007 
C 106.901152 230.153358 107.099675 230.235589 107.306647 230.235589 
z
" clip-path="url(#p919883118a)" style="fill: #800080; fill-opacity: 0.8; stroke: #800080; stroke-opacity: 0.8"/>
    <path d="M 113.894125 176.560261 
C 114.133695 176.560261 114.363485 176.465079 114.532886 176.295677 
C 114.702288 176.126276 114.79747 175.896486 114.79747 175.656916 
C 114.79747 175.417346 114.702288 175.187556 114.532886 175.018155 
C 114.363485 174.848754 114.133695 174.753571 113.894125 174.753571 
C 113.654555 174.753571 113.424766 174.848754 113.255364 175.018155 
C 113.085963 175.187556 112.990781 175.417346 112.990781 175.656916 
C 112.990781 175.896486 113.085963 176.126276 113.255364 176.295677 
C 113.424766 176.465079 113.654555 176.560261 113.894125 176.560261 
z
" clip-path="url(#p919883118a)" style="fill: #800080; fill-opacity: 0.8; stroke: #800080; stroke-opacity: 0.8"/>
    <path d="M 120.481604 185.036904 
C 120.715908 185.036904 120.940647 184.943814 121.106324 184.778136 
C 121.272002 184.612458 121.365092 184.387719 121.365092 184.153415 
C 121.365092 183.919111 121.272002 183.694372 121.106324 183.528694 
C 120.940647 183.363017 120.715908 183.269927 120.481604 183.269927 
C 120.2473 183.269927 120.022561 183.363017 119.856883 183.528694 
C 119.691205 183.694372 119.598115 183.919111 119.598115 184.153415 
C 119.598115 184.387719 119.691205 184.612458 119.856883 184.778136 
C 120.022561 184.943814 120.2473 185.036904 120.481604 185.036904 
z
" clip-path="url(#p919883118a)" style="fill: #800080; fill-opacity: 0.8; stroke: #800080; stroke-opacity: 0.8"/>
    <path d="M 127.069082 203.72755 
C 127.326235 203.72755 127.57289 203.625382 127.754724 203.443547 
C 127.936559 203.261713 128.038727 203.015058 128.038727 202.757905 
C 128.038727 202.500752 127.936559 202.254097 127.754724 202.072263 
C 127.57289 201.890429 127.326235 201.788261 127.069082 201.788261 
C 126.81193 201.788261 126.565275 201.890429 126.38344 202.072263 
C 126.201606 202.254097 126.099438 202.500752 126.099438 202.757905 
C 126.099438 203.015058 126.201606 203.261713 126.38344 203.443547 
C 126.565275 203.625382 126.81193 203.72755 127.069082 203.72755 
z
" clip-path="url(#p919883118a)" style="fill: #800080; fill-opacity: 0.8; stroke: #800080; stroke-opacity: 0.8"/>
    <path d="M 133.656561 190.085377 
C 133.893512 190.085377 134.120791 189.991235 134.288341 189.823685 
C 134.455891 189.656135 134.550033 189.428857 134.550033 189.191905 
C 134.550033 188.954954 134.455891 188.727675 134.288341 188.560125 
C 134.120791 188.392575 133.893512 188.298433 133.656561 188.298433 
C 133.419609 188.298433 133.192331 188.392575 133.024781 188.560125 
C 132.857231 188.727675 132.763089 188.954954 132.763089 189.191905 
C 132.763089 189.428857 132.857231 189.656135 133.024781 189.823685 
C 133.192331 189.991235 133.419609 190.085377 133.656561 190.085377 
z
" clip-path="url(#p919883118a)" style="fill: #800080; fill-opacity: 0.8; stroke: #800080; stroke-opacity: 0.8"/>
    <path d="M 140.244039 188.292368 
C 140.491298 188.292368 140.728463 188.194131 140.903301 188.019293 
C 141.078139 187.844455 141.176376 187.60729 141.176376 187.360032 
C 141.176376 187.112773 141.078139 186.875609 140.903301 186.70077 
C 140.728463 186.525932 140.491298 186.427695 140.244039 186.427695 
C 139.996781 186.427695 139.759616 186.525932 139.584778 186.70077 
C 139.40994 186.875609 139.311703 187.112773 139.311703 187.360032 
C 139.311703 187.60729 139.40994 187.844455 139.584778 188.019293 
C 139.759616 188.194131 139.996781 188.292368 140.244039 188.292368 
z
" clip-path="url(#p919883118a)" style="fill: #800080; fill-opacity: 0.8; stroke: #800080; stroke-opacity: 0.8"/>
    <path d="M 146.831518 205.60398 
C 147.043454 205.60398 147.246738 205.519777 147.396599 205.369916 
C 147.54646 205.220055 147.630663 205.016771 147.630663 204.804835 
C 147.630663 204.592899 147.54646 204.389615 147.396599 204.239754 
C 147.246738 204.089892 147.043454 204.005689 146.831518 204.005689 
C 146.619582 204.005689 146.416298 204.089892 146.266437 204.239754 
C 146.116576 204.389615 146.032373 204.592899 146.032373 204.804835 
C 146.032373 205.016771 146.116576 205.220055 146.266437 205.369916 
C 146.416298 205.519777 146.619582 205.60398 146.831518 205.60398 
z
" clip-path="url(#p919883118a)" style="fill: #800080; fill-opacity: 0.8; stroke: #800080; stroke-opacity: 0.8"/>
    <path d="M 153.418997 177.959859 
C 153.657697 177.959859 153.886653 177.865023 154.055439 177.696236 
C 154.224226 177.52745 154.319062 177.298494 154.319062 177.059794 
C 154.319062 176.821093 154.224226 176.592138 154.055439 176.423351 
C 153.886653 176.254565 153.657697 176.159728 153.418997 176.159728 
C 153.180296 176.159728 152.951341 176.254565 152.782554 176.423351 
C 152.613767 176.592138 152.518931 176.821093 152.518931 177.059794 
C 152.518931 177.298494 152.613767 177.52745 152.782554 177.696236 
C 152.951341 177.865023 153.180296 177.959859 153.418997 177.959859 
z
" clip-path="url(#p919883118a)" style="fill: #800080; fill-opacity: 0.8; stroke: #800080; stroke-opacity: 0.8"/>
    <path d="M 160.006475 164.415933 
C 160.26119 164.415933 160.505507 164.314733 160.685618 164.134622 
C 160.865729 163.954512 160.966928 163.710195 160.966928 163.455479 
C 160.966928 163.200764 160.865729 162.956447 160.685618 162.776336 
C 160.505507 162.596226 160.26119 162.495026 160.006475 162.495026 
C 159.75176 162.495026 159.507443 162.596226 159.327332 162.776336 
C 159.147221 162.956447 159.046022 163.200764 159.046022 163.455479 
C 159.046022 163.710195 159.147221 163.954512 159.327332 164.134622 
C 159.507443 164.314733 159.75176 164.415933 160.006475 164.415933 
z
" clip-path="url(#p919883118a)" style="fill: #800080; fill-opacity: 0.8; stroke: #800080; stroke-opacity: 0.8"/>
    <path d="M 166.593954 197.411413 
C 166.839524 197.411413 167.07507 197.313846 167.248715 197.140202 
C 167.42236 196.966557 167.519926 196.731011 167.519926 196.48544 
C 167.519926 196.23987 167.42236 196.004324 167.248715 195.830679 
C 167.07507 195.657035 166.839524 195.559468 166.593954 195.559468 
C 166.348383 195.559468 166.112837 195.657035 165.939192 195.830679 
C 165.765548 196.004324 165.667982 196.23987 165.667982 196.48544 
C 165.667982 196.731011 165.765548 196.966557 165.939192 197.140202 
C 166.112837 197.313846 166.348383 197.411413 166.593954 197.411413 
z
" clip-path="url(#p919883118a)" style="fill: #800080; fill-opacity: 0.8; stroke: #800080; stroke-opacity: 0.8"/>
    <path d="M 173.181432 194.789856 
C 173.423592 194.789856 173.655866 194.693645 173.827099 194.522412 
C 173.998332 194.351179 174.094543 194.118905 174.094543 193.876745 
C 174.094543 193.634586 173.998332 193.402311 173.827099 193.231078 
C 173.655866 193.059846 173.423592 192.963635 173.181432 192.963635 
C 172.939272 192.963635 172.706998 193.059846 172.535765 193.231078 
C 172.364533 193.402311 172.268321 193.634586 172.268321 193.876745 
C 172.268321 194.118905 172.364533 194.351179 172.535765 194.522412 
C 172.706998 194.693645 172.939272 194.789856 173.181432 194.789856 
z
" clip-path="url(#p919883118a)" style="fill: #800080; fill-opacity: 0.8; stroke: #800080; stroke-opacity: 0.8"/>
    <path d="M 179.768911 183.356539 
C 180.011071 183.356539 180.243345 183.260328 180.414578 183.089095 
C 180.585811 182.917862 180.682022 182.685588 180.682022 182.443428 
C 180.682022 182.201268 180.585811 181.968994 180.414578 181.797761 
C 180.243345 181.626528 180.011071 181.530317 179.768911 181.530317 
C 179.526751 181.530317 179.294477 181.626528 179.123244 181.797761 
C 178.952011 181.968994 178.8558 182.201268 178.8558 182.443428 
C 178.8558 182.685588 178.952011 182.917862 179.123244 183.089095 
C 179.294477 183.260328 179.526751 183.356539 179.768911 183.356539 
z
" clip-path="url(#p919883118a)" style="fill: #800080; fill-opacity: 0.8; stroke: #800080; stroke-opacity: 0.8"/>
    <path d="M 186.356389 189.803365 
C 186.610287 189.803365 186.85382 189.70249 187.033352 189.522958 
C 187.212885 189.343425 187.313759 189.099892 187.313759 188.845995 
C 187.313759 188.592097 187.212885 188.348565 187.033352 188.169032 
C 186.85382 187.989499 186.610287 187.888625 186.356389 187.888625 
C 186.102492 187.888625 185.858959 187.989499 185.679427 188.169032 
C 185.499894 188.348565 185.399019 188.592097 185.399019 188.845995 
C 185.399019 189.099892 185.499894 189.343425 185.679427 189.522958 
C 185.858959 189.70249 186.102492 189.803365 186.356389 189.803365 
z
" clip-path="url(#p919883118a)" style="fill: #800080; fill-opacity: 0.8; stroke: #800080; stroke-opacity: 0.8"/>
    <path d="M 192.943868 187.844006 
C 193.217476 187.844006 193.479914 187.735301 193.673385 187.541831 
C 193.866855 187.34836 193.97556 187.085922 193.97556 186.812314 
C 193.97556 186.538706 193.866855 186.276267 193.673385 186.082797 
C 193.479914 185.889327 193.217476 185.780622 192.943868 185.780622 
C 192.67026 185.780622 192.407821 185.889327 192.214351 186.082797 
C 192.020881 186.276267 191.912176 186.538706 191.912176 186.812314 
C 191.912176 187.085922 192.020881 187.34836 192.214351 187.541831 
C 192.407821 187.735301 192.67026 187.844006 192.943868 187.844006 
z
" clip-path="url(#p919883118a)" style="fill: #800080; fill-opacity: 0.8; stroke: #800080; stroke-opacity: 0.8"/>
    <path d="M 199.531346 176.128918 
C 199.828281 176.128918 200.113094 176.010944 200.323058 175.80098 
C 200.533022 175.591016 200.650995 175.306203 200.650995 175.009269 
C 200.650995 174.712334 200.533022 174.427522 200.323058 174.217557 
C 200.113094 174.007593 199.828281 173.88962 199.531346 173.88962 
C 199.234412 173.88962 198.949599 174.007593 198.739635 174.217557 
C 198.529671 174.427522 198.411698 174.712334 198.411698 175.009269 
C 198.411698 175.306203 198.529671 175.591016 198.739635 175.80098 
C 198.949599 176.010944 199.234412 176.128918 199.531346 176.128918 
z
" clip-path="url(#p919883118a)" style="fill: #800080; fill-opacity: 0.8; stroke: #800080; stroke-opacity: 0.8"/>
    <path d="M 206.118825 187.444086 
C 206.405062 187.444086 206.679614 187.330363 206.882014 187.127963 
C 207.084414 186.925563 207.198137 186.651011 207.198137 186.364774 
C 207.198137 186.078537 207.084414 185.803985 206.882014 185.601585 
C 206.679614 185.399185 206.405062 185.285462 206.118825 185.285462 
C 205.832588 185.285462 205.558036 185.399185 205.355636 185.601585 
C 205.153236 185.803985 205.039513 186.078537 205.039513 186.364774 
C 205.039513 186.651011 205.153236 186.925563 205.355636 187.127963 
C 205.558036 187.330363 205.832588 187.444086 206.118825 187.444086 
z
" clip-path="url(#p919883118a)" style="fill: #800080; fill-opacity: 0.8; stroke: #800080; stroke-opacity: 0.8"/>
    <path d="M 212.706304 173.78881 
C 212.988148 173.78881 213.258486 173.676832 213.45778 173.477538 
C 213.657074 173.278244 213.769052 173.007906 213.769052 172.726061 
C 213.769052 172.444217 213.657074 172.173878 213.45778 171.974584 
C 213.258486 171.77529 212.988148 171.663313 212.706304 171.663313 
C 212.424459 171.663313 212.154121 171.77529 211.954827 171.974584 
C 211.755533 172.173878 211.643555 172.444217 211.643555 172.726061 
C 211.643555 173.007906 211.755533 173.278244 211.954827 173.477538 
C 212.154121 173.676832 212.424459 173.78881 212.706304 173.78881 
z
" clip-path="url(#p919883118a)" style="fill: #800080; fill-opacity: 0.8; stroke: #800080; stroke-opacity: 0.8"/>
    <path d="M 219.293782 149.883301 
C 219.599005 149.883301 219.891767 149.762035 220.107592 149.54621 
C 220.323417 149.330385 220.444683 149.037623 220.444683 148.7324 
C 220.444683 148.427178 220.323417 148.134415 220.107592 147.91859 
C 219.891767 147.702765 219.599005 147.581499 219.293782 147.581499 
C 218.98856 147.581499 218.695797 147.702765 218.479972 147.91859 
C 218.264147 148.134415 218.142881 148.427178 218.142881 148.7324 
C 218.142881 149.037623 218.264147 149.330385 218.479972 149.54621 
C 218.695797 149.762035 218.98856 149.883301 219.293782 149.883301 
z
" clip-path="url(#p919883118a)" style="fill: #800080; fill-opacity: 0.8; stroke: #800080; stroke-opacity: 0.8"/>
    <path d="M 225.881261 185.78318 
C 226.18852 185.78318 226.483237 185.661104 226.700502 185.443839 
C 226.917767 185.226573 227.039843 184.931857 227.039843 184.624597 
C 227.039843 184.317338 226.917767 184.022621 226.700502 183.805356 
C 226.483237 183.588091 226.18852 183.466015 225.881261 183.466015 
C 225.574001 183.466015 225.279285 183.588091 225.062019 183.805356 
C 224.844754 184.022621 224.722679 184.317338 224.722679 184.624597 
C 224.722679 184.931857 224.844754 185.226573 225.062019 185.443839 
C 225.279285 185.661104 225.574001 185.78318 225.881261 185.78318 
z
" clip-path="url(#p919883118a)" style="fill: #800080; fill-opacity: 0.8; stroke: #800080; stroke-opacity: 0.8"/>
    <path d="M 232.468739 171.066466 
C 232.784016 171.066466 233.086422 170.941206 233.309356 170.718272 
C 233.53229 170.495338 233.65755 170.192932 233.65755 169.877655 
C 233.65755 169.562379 233.53229 169.259973 233.309356 169.037039 
C 233.086422 168.814105 232.784016 168.688844 232.468739 168.688844 
C 232.153463 168.688844 231.851057 168.814105 231.628123 169.037039 
C 231.405189 169.259973 231.279928 169.562379 231.279928 169.877655 
C 231.279928 170.192932 231.405189 170.495338 231.628123 170.718272 
C 231.851057 170.941206 232.153463 171.066466 232.468739 171.066466 
z
" clip-path="url(#p919883118a)" style="fill: #800080; fill-opacity: 0.8; stroke: #800080; stroke-opacity: 0.8"/>
    <path d="M 239.056218 170.519278 
C 239.385054 170.519278 239.700466 170.38863 239.932988 170.156108 
C 240.16551 169.923585 240.296158 169.608174 240.296158 169.279338 
C 240.296158 168.950502 240.16551 168.63509 239.932988 168.402568 
C 239.700466 168.170046 239.385054 168.039398 239.056218 168.039398 
C 238.727382 168.039398 238.41197 168.170046 238.179448 168.402568 
C 237.946926 168.63509 237.816278 168.950502 237.816278 169.279338 
C 237.816278 169.608174 237.946926 169.923585 238.179448 170.156108 
C 238.41197 170.38863 238.727382 170.519278 239.056218 170.519278 
z
" clip-path="url(#p919883118a)" style="fill: #800080; fill-opacity: 0.8; stroke: #800080; stroke-opacity: 0.8"/>
    <path d="M 245.643696 122.390922 
C 245.986769 122.390922 246.315836 122.254618 246.558425 122.01203 
C 246.801014 121.769441 246.937318 121.440374 246.937318 121.097301 
C 246.937318 120.754229 246.801014 120.425162 246.558425 120.182573 
C 246.315836 119.939984 245.986769 119.80368 245.643696 119.80368 
C 245.300624 119.80368 244.971557 119.939984 244.728968 120.182573 
C 244.486379 120.425162 244.350075 120.754229 244.350075 121.097301 
C 244.350075 121.440374 244.486379 121.769441 244.728968 122.01203 
C 244.971557 122.254618 245.300624 122.390922 245.643696 122.390922 
z
" clip-path="url(#p919883118a)" style="fill: #800080; fill-opacity: 0.8; stroke: #800080; stroke-opacity: 0.8"/>
    <path d="M 252.231175 151.810198 
C 252.588499 151.810198 252.931235 151.668231 253.183901 151.415566 
C 253.436567 151.1629 253.578533 150.820163 253.578533 150.462839 
C 253.578533 150.105516 253.436567 149.762779 253.183901 149.510113 
C 252.931235 149.257447 252.588499 149.115481 252.231175 149.115481 
C 251.873851 149.115481 251.531115 149.257447 251.278449 149.510113 
C 251.025783 149.762779 250.883817 150.105516 250.883817 150.462839 
C 250.883817 150.820163 251.025783 151.1629 251.278449 151.415566 
C 251.531115 151.668231 251.873851 151.810198 252.231175 151.810198 
z
" clip-path="url(#p919883118a)" style="fill: #800080; fill-opacity: 0.8; stroke: #800080; stroke-opacity: 0.8"/>
    <path d="M 258.818654 158.339244 
C 259.177719 158.339244 259.522126 158.196586 259.776023 157.942689 
C 260.029921 157.688791 260.172579 157.344384 260.172579 156.985319 
C 260.172579 156.626254 260.029921 156.281846 259.776023 156.027949 
C 259.522126 155.774051 259.177719 155.631393 258.818654 155.631393 
C 258.459588 155.631393 258.115181 155.774051 257.861284 156.027949 
C 257.607386 156.281846 257.464728 156.626254 257.464728 156.985319 
C 257.464728 157.344384 257.607386 157.688791 257.861284 157.942689 
C 258.115181 158.196586 258.459588 158.339244 258.818654 158.339244 
z
" clip-path="url(#p919883118a)" style="fill: #800080; fill-opacity: 0.8; stroke: #800080; stroke-opacity: 0.8"/>
    <path d="M 265.406132 148.729072 
C 265.78766 148.729072 266.153613 148.577489 266.423394 148.307708 
C 266.693176 148.037927 266.844758 147.671974 266.844758 147.290445 
C 266.844758 146.908917 266.693176 146.542964 266.423394 146.273183 
C 266.153613 146.003402 265.78766 145.851819 265.406132 145.851819 
C 265.024604 145.851819 264.658651 146.003402 264.38887 146.273183 
C 264.119089 146.542964 263.967506 146.908917 263.967506 147.290445 
C 263.967506 147.671974 264.119089 148.037927 264.38887 148.307708 
C 264.658651 148.577489 265.024604 148.729072 265.406132 148.729072 
z
" clip-path="url(#p919883118a)" style="fill: #800080; fill-opacity: 0.8; stroke: #800080; stroke-opacity: 0.8"/>
    <path d="M 271.993611 143.091861 
C 272.413539 143.091861 272.816325 142.925022 273.11326 142.628087 
C 273.410194 142.331153 273.577033 141.928367 273.577033 141.508438 
C 273.577033 141.08851 273.410194 140.685724 273.11326 140.388789 
C 272.816325 140.091855 272.413539 139.925016 271.993611 139.925016 
C 271.573682 139.925016 271.170896 140.091855 270.873962 140.388789 
C 270.577027 140.685724 270.410188 141.08851 270.410188 141.508438 
C 270.410188 141.928367 270.577027 142.331153 270.873962 142.628087 
C 271.170896 142.925022 271.573682 143.091861 271.993611 143.091861 
z
" clip-path="url(#p919883118a)" style="fill: #800080; fill-opacity: 0.8; stroke: #800080; stroke-opacity: 0.8"/>
    <path d="M 278.581089 117.395092 
C 279.042993 117.395092 279.48604 117.211576 279.812655 116.884961 
C 280.13927 116.558346 280.322786 116.115298 280.322786 115.653395 
C 280.322786 115.191492 280.13927 114.748444 279.812655 114.421829 
C 279.48604 114.095214 279.042993 113.911698 278.581089 113.911698 
C 278.119186 113.911698 277.676138 114.095214 277.349523 114.421829 
C 277.022908 114.748444 276.839392 115.191492 276.839392 115.653395 
C 276.839392 116.115298 277.022908 116.558346 277.349523 116.884961 
C 277.676138 117.211576 278.119186 117.395092 278.581089 117.395092 
z
" clip-path="url(#p919883118a)" style="fill: #800080; fill-opacity: 0.8; stroke: #800080; stroke-opacity: 0.8"/>
    <path d="M 285.168568 119.714578 
C 285.650304 119.714578 286.112375 119.523182 286.453014 119.182543 
C 286.793653 118.841904 286.985049 118.379833 286.985049 117.898096 
C 286.985049 117.41636 286.793653 116.954289 286.453014 116.61365 
C 286.112375 116.27301 285.650304 116.081614 285.168568 116.081614 
C 284.686831 116.081614 284.22476 116.27301 283.884121 116.61365 
C 283.543482 116.954289 283.352086 117.41636 283.352086 117.898096 
C 283.352086 118.379833 283.543482 118.841904 283.884121 119.182543 
C 284.22476 119.523182 284.686831 119.714578 285.168568 119.714578 
z
" clip-path="url(#p919883118a)" style="fill: #800080; fill-opacity: 0.8; stroke: #800080; stroke-opacity: 0.8"/>
    <path d="M 291.756046 139.72233 
C 292.230388 139.72233 292.685365 139.533872 293.020776 139.198462 
C 293.356186 138.863052 293.544644 138.408074 293.544644 137.933732 
C 293.544644 137.459391 293.356186 137.004413 293.020776 136.669003 
C 292.685365 136.333593 292.230388 136.145135 291.756046 136.145135 
C 291.281705 136.145135 290.826727 136.333593 290.491317 136.669003 
C 290.155907 137.004413 289.967449 137.459391 289.967449 137.933732 
C 289.967449 138.408074 290.155907 138.863052 290.491317 139.198462 
C 290.826727 139.533872 291.281705 139.72233 291.756046 139.72233 
z
" clip-path="url(#p919883118a)" style="fill: #800080; fill-opacity: 0.8; stroke: #800080; stroke-opacity: 0.8"/>
    <path d="M 298.343525 111.023335 
C 298.82483 111.023335 299.286486 110.832111 299.62682 110.491777 
C 299.967154 110.151443 300.158378 109.689787 300.158378 109.208482 
C 300.158378 108.727177 299.967154 108.265521 299.62682 107.925187 
C 299.286486 107.584853 298.82483 107.393629 298.343525 107.393629 
C 297.86222 107.393629 297.400564 107.584853 297.06023 107.925187 
C 296.719896 108.265521 296.528672 108.727177 296.528672 109.208482 
C 296.528672 109.689787 296.719896 110.151443 297.06023 110.491777 
C 297.400564 110.832111 297.86222 111.023335 298.343525 111.023335 
z
" clip-path="url(#p919883118a)" style="fill: #800080; fill-opacity: 0.8; stroke: #800080; stroke-opacity: 0.8"/>
    <path d="M 304.931003 105.867231 
C 305.43386 105.867231 305.916189 105.667443 306.271762 105.31187 
C 306.627336 104.956297 306.827123 104.473968 306.827123 103.971111 
C 306.827123 103.468254 306.627336 102.985925 306.271762 102.630352 
C 305.916189 102.274779 305.43386 102.074991 304.931003 102.074991 
C 304.428147 102.074991 303.945818 102.274779 303.590244 102.630352 
C 303.234671 102.985925 303.034884 103.468254 303.034884 103.971111 
C 303.034884 104.473968 303.234671 104.956297 303.590244 105.31187 
C 303.945818 105.667443 304.428147 105.867231 304.931003 105.867231 
z
" clip-path="url(#p919883118a)" style="fill: #800080; fill-opacity: 0.8; stroke: #800080; stroke-opacity: 0.8"/>
    <path d="M 311.518482 94.803942 
C 312.048322 94.803942 312.556532 94.593434 312.931185 94.218781 
C 313.305838 93.844128 313.516346 93.335918 313.516346 92.806078 
C 313.516346 92.276239 313.305838 91.768029 312.931185 91.393376 
C 312.556532 91.018722 312.048322 90.808215 311.518482 90.808215 
C 310.988642 90.808215 310.480432 91.018722 310.105779 91.393376 
C 309.731126 91.768029 309.520618 92.276239 309.520618 92.806078 
C 309.520618 93.335918 309.731126 93.844128 310.105779 94.218781 
C 310.480432 94.593434 310.988642 94.803942 311.518482 94.803942 
z
" clip-path="url(#p919883118a)" style="fill: #800080; fill-opacity: 0.8; stroke: #800080; stroke-opacity: 0.8"/>
    <path d="M 318.105961 94.31841 
C 318.659599 94.31841 319.190636 94.098447 319.582118 93.706966 
C 319.973599 93.315484 320.193562 92.784447 320.193562 92.230808 
C 320.193562 91.67717 319.973599 91.146132 319.582118 90.754651 
C 319.190636 90.363169 318.659599 90.143206 318.105961 90.143206 
C 317.552322 90.143206 317.021285 90.363169 316.629803 90.754651 
C 316.238322 91.146132 316.018359 91.67717 316.018359 92.230808 
C 316.018359 92.784447 316.238322 93.315484 316.629803 93.706966 
C 317.021285 94.098447 317.552322 94.31841 318.105961 94.31841 
z
" clip-path="url(#p919883118a)" style="fill: #800080; fill-opacity: 0.8; stroke: #800080; stroke-opacity: 0.8"/>
    <path d="M 324.693439 73.223574 
C 325.260438 73.223574 325.804291 72.998302 326.205219 72.597374 
C 326.606148 72.196445 326.831419 71.652592 326.831419 71.085593 
C 326.831419 70.518594 326.606148 69.974742 326.205219 69.573813 
C 325.804291 69.172884 325.260438 68.947613 324.693439 68.947613 
C 324.12644 68.947613 323.582588 69.172884 323.181659 69.573813 
C 322.78073 69.974742 322.555459 70.518594 322.555459 71.085593 
C 322.555459 71.652592 322.78073 72.196445 323.181659 72.597374 
C 323.582588 72.998302 324.12644 73.223574 324.693439 73.223574 
z
" clip-path="url(#p919883118a)" style="fill: #800080; fill-opacity: 0.8; stroke: #800080; stroke-opacity: 0.8"/>
    <path d="M 331.280918 73.821908 
C 331.881749 73.821908 332.458052 73.583195 332.882904 73.158343 
C 333.307756 72.733491 333.546468 72.157188 333.546468 71.556357 
C 333.546468 70.955526 333.307756 70.379222 332.882904 69.954371 
C 332.458052 69.529519 331.881749 69.290806 331.280918 69.290806 
C 330.680087 69.290806 330.103783 69.529519 329.678931 69.954371 
C 329.25408 70.379222 329.015367 70.955526 329.015367 71.556357 
C 329.015367 72.157188 329.25408 72.733491 329.678931 73.158343 
C 330.103783 73.583195 330.680087 73.821908 331.280918 73.821908 
z
" clip-path="url(#p919883118a)" style="fill: #800080; fill-opacity: 0.8; stroke: #800080; stroke-opacity: 0.8"/>
    <path d="M 337.868396 84.48161 
C 338.486627 84.48161 339.079619 84.235985 339.516774 83.79883 
C 339.953929 83.361675 340.199554 82.768683 340.199554 82.150452 
C 340.199554 81.532222 339.953929 80.93923 339.516774 80.502075 
C 339.079619 80.06492 338.486627 79.819294 337.868396 79.819294 
C 337.250166 79.819294 336.657174 80.06492 336.220019 80.502075 
C 335.782864 80.93923 335.537238 81.532222 335.537238 82.150452 
C 335.537238 82.768683 335.782864 83.361675 336.220019 83.79883 
C 336.657174 84.235985 337.250166 84.48161 337.868396 84.48161 
z
" clip-path="url(#p919883118a)" style="fill: #800080; fill-opacity: 0.8; stroke: #800080; stroke-opacity: 0.8"/>
    <path d="M 344.455875 75.173991 
C 345.121404 75.173991 345.759765 74.909574 346.230366 74.438973 
C 346.700966 73.968373 346.965384 73.330012 346.965384 72.664482 
C 346.965384 71.998953 346.700966 71.360592 346.230366 70.889992 
C 345.759765 70.419391 345.121404 70.154974 344.455875 70.154974 
C 343.790345 70.154974 343.151984 70.419391 342.681384 70.889992 
C 342.210784 71.360592 341.946366 71.998953 341.946366 72.664482 
C 341.946366 73.330012 342.210784 73.968373 342.681384 74.438973 
C 343.151984 74.909574 343.790345 75.173991 344.455875 75.173991 
z
" clip-path="url(#p919883118a)" style="fill: #800080; fill-opacity: 0.8; stroke: #800080; stroke-opacity: 0.8"/>
    <path d="M 351.043353 55.497221 
C 351.756836 55.497221 352.441192 55.213751 352.9457 54.709243 
C 353.450208 54.204735 353.733678 53.520379 353.733678 52.806897 
C 353.733678 52.093414 353.450208 51.409058 352.9457 50.90455 
C 352.441192 50.400042 351.756836 50.116572 351.043353 50.116572 
C 350.329871 50.116572 349.645515 50.400042 349.141007 50.90455 
C 348.636499 51.409058 348.353029 52.093414 348.353029 52.806897 
C 348.353029 53.520379 348.636499 54.204735 349.141007 54.709243 
C 349.645515 55.213751 350.329871 55.497221 351.043353 55.497221 
z
" clip-path="url(#p919883118a)" style="fill: #800080; fill-opacity: 0.8; stroke: #800080; stroke-opacity: 0.8"/>
    <path d="M 357.630832 65.379873 
C 358.390063 65.379873 359.118301 65.078227 359.655158 64.541369 
C 360.192016 64.004512 360.493662 63.276274 360.493662 62.517043 
C 360.493662 61.757811 360.192016 61.029574 359.655158 60.492716 
C 359.118301 59.955859 358.390063 59.654213 357.630832 59.654213 
C 356.871601 59.654213 356.143363 59.955859 355.606505 60.492716 
C 355.069648 61.029574 354.768002 61.757811 354.768002 62.517043 
C 354.768002 63.276274 355.069648 64.004512 355.606505 64.541369 
C 356.143363 65.078227 356.871601 65.379873 357.630832 65.379873 
z
" clip-path="url(#p919883118a)" style="fill: #800080; fill-opacity: 0.8; stroke: #800080; stroke-opacity: 0.8"/>
    <path d="M 364.21831 50.0044 
C 364.996478 50.0044 365.742879 49.695231 366.293127 49.144983 
C 366.843374 48.594736 367.152544 47.848335 367.152544 47.070167 
C 367.152544 46.291999 366.843374 45.545599 366.293127 44.995351 
C 365.742879 44.445103 364.996478 44.135934 364.21831 44.135934 
C 363.440143 44.135934 362.693742 44.445103 362.143494 44.995351 
C 361.593247 45.545599 361.284077 46.291999 361.284077 47.070167 
C 361.284077 47.848335 361.593247 48.594736 362.143494 49.144983 
C 362.693742 49.695231 363.440143 50.0044 364.21831 50.0044 
z
" clip-path="url(#p919883118a)" style="fill: #800080; fill-opacity: 0.8; stroke: #800080; stroke-opacity: 0.8"/>
    <path d="M 370.805789 53.44269 
C 371.594837 53.44269 372.351674 53.129198 372.909615 52.571257 
C 373.467556 52.013315 373.781048 51.256479 373.781048 50.467431 
C 373.781048 49.678383 373.467556 48.921546 372.909615 48.363605 
C 372.351674 47.805663 371.594837 47.492171 370.805789 47.492171 
C 370.016741 47.492171 369.259904 47.805663 368.701963 48.363605 
C 368.144022 48.921546 367.83053 49.678383 367.83053 50.467431 
C 367.83053 51.256479 368.144022 52.013315 368.701963 52.571257 
C 369.259904 53.129198 370.016741 53.44269 370.805789 53.44269 
z
" clip-path="url(#p919883118a)" style="fill: #800080; fill-opacity: 0.8; stroke: #800080; stroke-opacity: 0.8"/>
    <path d="M 377.393268 39.107273 
C 378.188877 39.107273 378.952007 38.791174 379.514588 38.228593 
C 380.077169 37.666012 380.393268 36.902882 380.393268 36.107273 
C 380.393268 35.311663 380.077169 34.548533 379.514588 33.985952 
C 378.952007 33.423372 378.188877 33.107273 377.393268 33.107273 
C 376.597658 33.107273 375.834528 33.423372 375.271947 33.985952 
C 374.709367 34.548533 374.393268 35.311663 374.393268 36.107273 
C 374.393268 36.902882 374.709367 37.666012 375.271947 38.228593 
C 375.834528 38.791174 376.597658 39.107273 377.393268 39.107273 
z
" clip-path="url(#p919883118a)" style="fill: #800080; fill-opacity: 0.8; stroke: #800080; stroke-opacity: 0.8"/>
    <path d="M 383.980746 47.311029 
C 384.701767 47.311029 385.393353 47.024564 385.903191 46.514726 
C 386.41303 46.004888 386.699494 45.313301 386.699494 44.592281 
C 386.699494 43.871261 386.41303 43.179674 385.903191 42.669836 
C 385.393353 42.159997 384.701767 41.873533 383.980746 41.873533 
C 383.259726 41.873533 382.568139 42.159997 382.058301 42.669836 
C 381.548463 43.179674 381.261998 43.871261 381.261998 44.592281 
C 381.261998 45.313301 381.548463 46.004888 382.058301 46.514726 
C 382.568139 47.024564 383.259726 47.311029 383.980746 47.311029 
z
" clip-path="url(#p919883118a)" style="fill: #800080; fill-opacity: 0.8; stroke: #800080; stroke-opacity: 0.8"/>
    <path d="M 390.568225 45.315935 
C 391.284616 45.315935 391.971762 45.03131 392.478326 44.524745 
C 392.984891 44.01818 393.269517 43.331034 393.269517 42.614643 
C 393.269517 41.898252 392.984891 41.211106 392.478326 40.704541 
C 391.971762 40.197976 391.284616 39.913351 390.568225 39.913351 
C 389.851834 39.913351 389.164688 40.197976 388.658123 40.704541 
C 388.151558 41.211106 387.866933 41.898252 387.866933 42.614643 
C 387.866933 43.331034 388.151558 44.01818 388.658123 44.524745 
C 389.164688 45.03131 389.851834 45.315935 390.568225 45.315935 
z
" clip-path="url(#p919883118a)" style="fill: #800080; fill-opacity: 0.8; stroke: #800080; stroke-opacity: 0.8"/>
    <path d="M 397.155703 53.71441 
C 397.88561 53.71441 398.585719 53.424415 399.101841 52.908293 
C 399.617962 52.392172 399.907957 51.692062 399.907957 50.962156 
C 399.907957 50.23225 399.617962 49.53214 399.101841 49.016018 
C 398.585719 48.499897 397.88561 48.209902 397.155703 48.209902 
C 396.425797 48.209902 395.725688 48.499897 395.209566 49.016018 
C 394.693444 49.53214 394.403449 50.23225 394.403449 50.962156 
C 394.403449 51.692062 394.693444 52.392172 395.209566 52.908293 
C 395.725688 53.424415 396.425797 53.71441 397.155703 53.71441 
z
" clip-path="url(#p919883118a)" style="fill: #800080; fill-opacity: 0.8; stroke: #800080; stroke-opacity: 0.8"/>
    <path d="M 403.743182 80.369319 
C 404.427202 80.369319 405.083298 80.097555 405.566973 79.61388 
C 406.050649 79.130205 406.322413 78.474108 406.322413 77.790088 
C 406.322413 77.106068 406.050649 76.449972 405.566973 75.966297 
C 405.083298 75.482622 404.427202 75.210857 403.743182 75.210857 
C 403.059162 75.210857 402.403065 75.482622 401.91939 75.966297 
C 401.435715 76.449972 401.163951 77.106068 401.163951 77.790088 
C 401.163951 78.474108 401.435715 79.130205 401.91939 79.61388 
C 402.403065 80.097555 403.059162 80.369319 403.743182 80.369319 
z
" clip-path="url(#p919883118a)" style="fill: #800080; fill-opacity: 0.8; stroke: #800080; stroke-opacity: 0.8"/>
   </g>
   <g id="PolyCollection_1">
    <defs>
     <path id="md14ea892dd" d="M 54.606818 -61.430971 
L 54.606818 -38.547273 
L 58.133448 -40.615343 
L 61.660078 -42.676426 
L 65.186708 -44.748746 
L 68.713338 -46.814419 
L 72.239968 -48.880415 
L 75.766598 -50.947677 
L 79.293228 -53.0156 
L 82.819858 -55.083772 
L 86.346488 -57.151944 
L 89.873118 -59.220116 
L 93.399747 -61.296687 
L 96.926377 -63.403135 
L 100.453007 -65.509582 
L 103.979637 -67.543668 
L 107.506267 -69.55656 
L 111.032897 -71.622275 
L 114.559527 -73.689852 
L 118.086157 -75.735747 
L 121.612787 -77.793707 
L 125.139417 -79.803529 
L 128.666047 -81.83791 
L 132.192677 -83.905984 
L 135.719307 -85.976134 
L 139.245937 -88.039415 
L 142.772567 -90.053023 
L 146.299197 -92.006837 
L 149.825826 -94.035 
L 153.352456 -96.035611 
L 156.879086 -98.094617 
L 160.405716 -100.129762 
L 163.932346 -102.145514 
L 167.458976 -104.160691 
L 170.985606 -106.138416 
L 174.512236 -108.187764 
L 178.038866 -110.202733 
L 181.565496 -112.219253 
L 185.092126 -114.175237 
L 188.618756 -116.093497 
L 192.145386 -118.149318 
L 195.672016 -120.169705 
L 199.198646 -122.162554 
L 202.725275 -124.12442 
L 206.251905 -126.064543 
L 209.778535 -127.961238 
L 213.305165 -129.850128 
L 216.831795 -131.68981 
L 220.358425 -133.53623 
L 223.885055 -135.345119 
L 227.411685 -137.181007 
L 230.938315 -139.130467 
L 234.464945 -140.954374 
L 237.991575 -142.867229 
L 241.518205 -144.697673 
L 245.044835 -146.389728 
L 248.571465 -148.08253 
L 252.098095 -149.883269 
L 255.624725 -151.710221 
L 259.151354 -153.537172 
L 262.677984 -155.364124 
L 266.204614 -157.240998 
L 269.731244 -158.975068 
L 273.257874 -160.703123 
L 276.784504 -162.529868 
L 280.311134 -164.218776 
L 283.837764 -165.882739 
L 287.364394 -167.531233 
L 290.891024 -169.225873 
L 294.417654 -170.895026 
L 297.944284 -172.566973 
L 301.470914 -174.268875 
L 304.997544 -175.972174 
L 308.524174 -177.771693 
L 312.050803 -179.587418 
L 315.577433 -181.403142 
L 319.104063 -183.220574 
L 322.630693 -185.055346 
L 326.157323 -186.847913 
L 329.683953 -188.660898 
L 333.210583 -190.381211 
L 336.737213 -192.097309 
L 340.263843 -193.814839 
L 343.790473 -195.53744 
L 347.317103 -197.244495 
L 350.843733 -198.961307 
L 354.370363 -200.717173 
L 357.896993 -202.487468 
L 361.423623 -204.193594 
L 364.950253 -205.889677 
L 368.476882 -207.585761 
L 372.003512 -209.281844 
L 375.530142 -210.977928 
L 379.056772 -212.684821 
L 382.583402 -214.369216 
L 386.110032 -216.063802 
L 389.636662 -217.759488 
L 393.163292 -219.476291 
L 396.689922 -221.231376 
L 400.216552 -222.897264 
L 403.743182 -224.554718 
L 403.743182 -245.848367 
L 403.743182 -245.848367 
L 400.216552 -243.779819 
L 396.689922 -241.692544 
L 393.163292 -239.635149 
L 389.636662 -237.670329 
L 386.110032 -235.659607 
L 382.583402 -233.705853 
L 379.056772 -231.650797 
L 375.530142 -229.67101 
L 372.003512 -227.759354 
L 368.476882 -225.732149 
L 364.950253 -223.763746 
L 361.423623 -221.640066 
L 357.896993 -219.53676 
L 354.370363 -217.555273 
L 350.843733 -215.507577 
L 347.317103 -213.482187 
L 343.790473 -211.518582 
L 340.263843 -209.442146 
L 336.737213 -207.506117 
L 333.210583 -205.551523 
L 329.683953 -203.606206 
L 326.157323 -201.633732 
L 322.630693 -199.713238 
L 319.104063 -197.76425 
L 315.577433 -195.767903 
L 312.050803 -193.842969 
L 308.524174 -191.940495 
L 304.997544 -190.039038 
L 301.470914 -188.130905 
L 297.944284 -186.160181 
L 294.417654 -184.185727 
L 290.891024 -182.257381 
L 287.364394 -180.323153 
L 283.837764 -178.408433 
L 280.311134 -176.518484 
L 276.784504 -174.56132 
L 273.257874 -172.603014 
L 269.731244 -170.686465 
L 266.204614 -168.775357 
L 262.677984 -166.939893 
L 259.151354 -165.117257 
L 255.624725 -163.255683 
L 252.098095 -161.33098 
L 248.571465 -159.418798 
L 245.044835 -157.473014 
L 241.518205 -155.513571 
L 237.991575 -153.676649 
L 234.464945 -151.8086 
L 230.938315 -149.864438 
L 227.411685 -148.074322 
L 223.885055 -146.250544 
L 220.358425 -144.396331 
L 216.831795 -142.551141 
L 213.305165 -140.67256 
L 209.778535 -138.82945 
L 206.251905 -137.016002 
L 202.725275 -135.200509 
L 199.198646 -133.339251 
L 195.672016 -131.535941 
L 192.145386 -129.759917 
L 188.618756 -127.91336 
L 185.092126 -126.123137 
L 181.565496 -124.362253 
L 178.038866 -122.564042 
L 174.512236 -120.781848 
L 170.985606 -118.998958 
L 167.458976 -117.217875 
L 163.932346 -115.391453 
L 160.405716 -113.558919 
L 156.879086 -111.792421 
L 153.352456 -110.066601 
L 149.825826 -108.303718 
L 146.299197 -106.522814 
L 142.772567 -104.738836 
L 139.245937 -102.961302 
L 135.719307 -101.172153 
L 132.192677 -99.401429 
L 128.666047 -97.661919 
L 125.139417 -95.91479 
L 121.612787 -94.17194 
L 118.086157 -92.405546 
L 114.559527 -90.71173 
L 111.032897 -88.99562 
L 107.506267 -87.290932 
L 103.979637 -85.566785 
L 100.453007 -83.842639 
L 96.926377 -82.118492 
L 93.399747 -80.394346 
L 89.873118 -78.6702 
L 86.346488 -76.946053 
L 82.819858 -75.221907 
L 79.293228 -73.497761 
L 75.766598 -71.773614 
L 72.239968 -70.049468 
L 68.713338 -68.407226 
L 65.186708 -66.775482 
L 61.660078 -65.074152 
L 58.133448 -63.252561 
L 54.606818 -61.430971 
z
" style="stroke: #ffffff; stroke-opacity: 0.15"/>
    </defs>
    <g clip-path="url(#p919883118a)">
     <use xlink:href="#md14ea892dd" x="0" y="288" style="fill: #800080; fill-opacity: 0.15; stroke: #ffffff; stroke-opacity: 0.15"/>
    </g>
   </g>
   <g id="line2d_1">
    <path d="M 54.606818 237.167512 
L 58.133448 235.287653 
L 61.660078 233.407794 
L 65.186708 231.527936 
L 68.713338 229.648077 
L 72.239968 227.768218 
L 75.766598 225.88836 
L 79.293228 224.008501 
L 82.819858 222.128642 
L 86.346488 220.248783 
L 89.873118 218.368925 
L 93.399747 216.489066 
L 96.926377 214.609207 
L 100.453007 212.729349 
L 103.979637 210.84949 
L 107.506267 208.969631 
L 111.032897 207.089772 
L 114.559527 205.209914 
L 118.086157 203.330055 
L 121.612787 201.450196 
L 125.139417 199.570337 
L 128.666047 197.690479 
L 132.192677 195.81062 
L 135.719307 193.930761 
L 139.245937 192.050903 
L 142.772567 190.171044 
L 146.299197 188.291185 
L 149.825826 186.411326 
L 153.352456 184.531468 
L 156.879086 182.651609 
L 160.405716 180.77175 
L 163.932346 178.891892 
L 167.458976 177.012033 
L 170.985606 175.132174 
L 174.512236 173.252315 
L 178.038866 171.372457 
L 181.565496 169.492598 
L 185.092126 167.612739 
L 188.618756 165.73288 
L 192.145386 163.853022 
L 195.672016 161.973163 
L 199.198646 160.093304 
L 202.725275 158.213446 
L 206.251905 156.333587 
L 209.778535 154.453728 
L 213.305165 152.573869 
L 216.831795 150.694011 
L 220.358425 148.814152 
L 223.885055 146.934293 
L 227.411685 145.054435 
L 230.938315 143.174576 
L 234.464945 141.294717 
L 237.991575 139.414858 
L 241.518205 137.535 
L 245.044835 135.655141 
L 248.571465 133.775282 
L 252.098095 131.895424 
L 255.624725 130.015565 
L 259.151354 128.135706 
L 262.677984 126.255847 
L 266.204614 124.375989 
L 269.731244 122.49613 
L 273.257874 120.616271 
L 276.784504 118.736412 
L 280.311134 116.856554 
L 283.837764 114.976695 
L 287.364394 113.096836 
L 290.891024 111.216978 
L 294.417654 109.337119 
L 297.944284 107.45726 
L 301.470914 105.577401 
L 304.997544 103.697543 
L 308.524174 101.817684 
L 312.050803 99.937825 
L 315.577433 98.057967 
L 319.104063 96.178108 
L 322.630693 94.298249 
L 326.157323 92.41839 
L 329.683953 90.538532 
L 333.210583 88.658673 
L 336.737213 86.778814 
L 340.263843 84.898955 
L 343.790473 83.019097 
L 347.317103 81.139238 
L 350.843733 79.259379 
L 354.370363 77.379521 
L 357.896993 75.499662 
L 361.423623 73.619803 
L 364.950253 71.739944 
L 368.476882 69.860086 
L 372.003512 67.980227 
L 375.530142 66.100368 
L 379.056772 64.22051 
L 382.583402 62.340651 
L 386.110032 60.460792 
L 389.636662 58.580933 
L 393.163292 56.701075 
L 396.689922 54.821216 
L 400.216552 52.941357 
L 403.743182 51.061498 
" clip-path="url(#p919883118a)" style="fill: none; stroke: #800080; stroke-width: 2.25; stroke-linecap: round"/>
   </g>
   <g id="patch_3">
    <path d="M 37.15 260.12 
L 37.15 25.44 
" style="fill: none; stroke: #ffffff; stroke-width: 0.8; stroke-linejoin: miter; stroke-linecap: square"/>
   </g>
   <g id="patch_4">
    <path d="M 421.2 260.12 
L 421.2 25.44 
" style="fill: none; stroke: #ffffff; stroke-width: 0.8; stroke-linejoin: miter; stroke-linecap: square"/>
   </g>
   <g id="patch_5">
    <path d="M 37.15 260.12 
L 421.2 260.12 
" style="fill: none; stroke: #ffffff; stroke-width: 0.8; stroke-linejoin: miter; stroke-linecap: square"/>
   </g>
   <g id="patch_6">
    <path d="M 37.15 25.44 
L 421.2 25.44 
" style="fill: none; stroke: #ffffff; stroke-width: 0.8; stroke-linejoin: miter; stroke-linecap: square"/>
   </g>
   <g id="text_13">
    <!-- Yearly average geek score from ranked games -->
    <g style="fill: #262626" transform="translate(105.003125 19.44) scale(0.12 -0.12)">
     <defs>
      <path id="ArialMT-59" d="M 1784 0 
L 1784 1941 
L 19 4581 
L 756 4581 
L 1659 3200 
Q 1909 2813 2125 2425 
Q 2331 2784 2625 3234 
L 3513 4581 
L 4219 4581 
L 2391 1941 
L 2391 0 
L 1784 0 
z
" transform="scale(0.015625)"/>
      <path id="ArialMT-65" d="M 2694 1069 
L 3275 997 
Q 3138 488 2766 206 
Q 2394 -75 1816 -75 
Q 1088 -75 661 373 
Q 234 822 234 1631 
Q 234 2469 665 2931 
Q 1097 3394 1784 3394 
Q 2450 3394 2872 2941 
Q 3294 2488 3294 1666 
Q 3294 1616 3291 1516 
L 816 1516 
Q 847 969 1125 678 
Q 1403 388 1819 388 
Q 2128 388 2347 550 
Q 2566 713 2694 1069 
z
M 847 1978 
L 2700 1978 
Q 2663 2397 2488 2606 
Q 2219 2931 1791 2931 
Q 1403 2931 1139 2672 
Q 875 2413 847 1978 
z
" transform="scale(0.015625)"/>
      <path id="ArialMT-61" d="M 2588 409 
Q 2275 144 1986 34 
Q 1697 -75 1366 -75 
Q 819 -75 525 192 
Q 231 459 231 875 
Q 231 1119 342 1320 
Q 453 1522 633 1644 
Q 813 1766 1038 1828 
Q 1203 1872 1538 1913 
Q 2219 1994 2541 2106 
Q 2544 2222 2544 2253 
Q 2544 2597 2384 2738 
Q 2169 2928 1744 2928 
Q 1347 2928 1158 2789 
Q 969 2650 878 2297 
L 328 2372 
Q 403 2725 575 2942 
Q 747 3159 1072 3276 
Q 1397 3394 1825 3394 
Q 2250 3394 2515 3294 
Q 2781 3194 2906 3042 
Q 3031 2891 3081 2659 
Q 3109 2516 3109 2141 
L 3109 1391 
Q 3109 606 3145 398 
Q 3181 191 3288 0 
L 2700 0 
Q 2613 175 2588 409 
z
M 2541 1666 
Q 2234 1541 1622 1453 
Q 1275 1403 1131 1340 
Q 988 1278 909 1158 
Q 831 1038 831 891 
Q 831 666 1001 516 
Q 1172 366 1500 366 
Q 1825 366 2078 508 
Q 2331 650 2450 897 
Q 2541 1088 2541 1459 
L 2541 1666 
z
" transform="scale(0.015625)"/>
      <path id="ArialMT-72" d="M 416 0 
L 416 3319 
L 922 3319 
L 922 2816 
Q 1116 3169 1280 3281 
Q 1444 3394 1641 3394 
Q 1925 3394 2219 3213 
L 2025 2691 
Q 1819 2813 1613 2813 
Q 1428 2813 1281 2702 
Q 1134 2591 1072 2394 
Q 978 2094 978 1738 
L 978 0 
L 416 0 
z
" transform="scale(0.015625)"/>
      <path id="ArialMT-6c" d="M 409 0 
L 409 4581 
L 972 4581 
L 972 0 
L 409 0 
z
" transform="scale(0.015625)"/>
      <path id="ArialMT-79" d="M 397 -1278 
L 334 -750 
Q 519 -800 656 -800 
Q 844 -800 956 -737 
Q 1069 -675 1141 -563 
Q 1194 -478 1313 -144 
Q 1328 -97 1363 -6 
L 103 3319 
L 709 3319 
L 1400 1397 
Q 1534 1031 1641 628 
Q 1738 1016 1872 1384 
L 2581 3319 
L 3144 3319 
L 1881 -56 
Q 1678 -603 1566 -809 
Q 1416 -1088 1222 -1217 
Q 1028 -1347 759 -1347 
Q 597 -1347 397 -1278 
z
" transform="scale(0.015625)"/>
      <path id="ArialMT-20" transform="scale(0.015625)"/>
      <path id="ArialMT-76" d="M 1344 0 
L 81 3319 
L 675 3319 
L 1388 1331 
Q 1503 1009 1600 663 
Q 1675 925 1809 1294 
L 2547 3319 
L 3125 3319 
L 1869 0 
L 1344 0 
z
" transform="scale(0.015625)"/>
      <path id="ArialMT-67" d="M 319 -275 
L 866 -356 
Q 900 -609 1056 -725 
Q 1266 -881 1628 -881 
Q 2019 -881 2231 -725 
Q 2444 -569 2519 -288 
Q 2563 -116 2559 434 
Q 2191 0 1641 0 
Q 956 0 581 494 
Q 206 988 206 1678 
Q 206 2153 378 2554 
Q 550 2956 876 3175 
Q 1203 3394 1644 3394 
Q 2231 3394 2613 2919 
L 2613 3319 
L 3131 3319 
L 3131 450 
Q 3131 -325 2973 -648 
Q 2816 -972 2473 -1159 
Q 2131 -1347 1631 -1347 
Q 1038 -1347 672 -1080 
Q 306 -813 319 -275 
z
M 784 1719 
Q 784 1066 1043 766 
Q 1303 466 1694 466 
Q 2081 466 2343 764 
Q 2606 1063 2606 1700 
Q 2606 2309 2336 2618 
Q 2066 2928 1684 2928 
Q 1309 2928 1046 2623 
Q 784 2319 784 1719 
z
" transform="scale(0.015625)"/>
      <path id="ArialMT-6b" d="M 425 0 
L 425 4581 
L 988 4581 
L 988 1969 
L 2319 3319 
L 3047 3319 
L 1778 2088 
L 3175 0 
L 2481 0 
L 1384 1697 
L 988 1316 
L 988 0 
L 425 0 
z
" transform="scale(0.015625)"/>
      <path id="ArialMT-73" d="M 197 991 
L 753 1078 
Q 800 744 1014 566 
Q 1228 388 1613 388 
Q 2000 388 2187 545 
Q 2375 703 2375 916 
Q 2375 1106 2209 1216 
Q 2094 1291 1634 1406 
Q 1016 1563 777 1677 
Q 538 1791 414 1992 
Q 291 2194 291 2438 
Q 291 2659 392 2848 
Q 494 3038 669 3163 
Q 800 3259 1026 3326 
Q 1253 3394 1513 3394 
Q 1903 3394 2198 3281 
Q 2494 3169 2634 2976 
Q 2775 2784 2828 2463 
L 2278 2388 
Q 2241 2644 2061 2787 
Q 1881 2931 1553 2931 
Q 1166 2931 1000 2803 
Q 834 2675 834 2503 
Q 834 2394 903 2306 
Q 972 2216 1119 2156 
Q 1203 2125 1616 2013 
Q 2213 1853 2448 1751 
Q 2684 1650 2818 1456 
Q 2953 1263 2953 975 
Q 2953 694 2789 445 
Q 2625 197 2315 61 
Q 2006 -75 1616 -75 
Q 969 -75 630 194 
Q 291 463 197 991 
z
" transform="scale(0.015625)"/>
      <path id="ArialMT-63" d="M 2588 1216 
L 3141 1144 
Q 3050 572 2676 248 
Q 2303 -75 1759 -75 
Q 1078 -75 664 370 
Q 250 816 250 1647 
Q 250 2184 428 2587 
Q 606 2991 970 3192 
Q 1334 3394 1763 3394 
Q 2303 3394 2647 3120 
Q 2991 2847 3088 2344 
L 2541 2259 
Q 2463 2594 2264 2762 
Q 2066 2931 1784 2931 
Q 1359 2931 1093 2626 
Q 828 2322 828 1663 
Q 828 994 1084 691 
Q 1341 388 1753 388 
Q 2084 388 2306 591 
Q 2528 794 2588 1216 
z
" transform="scale(0.015625)"/>
      <path id="ArialMT-6f" d="M 213 1659 
Q 213 2581 725 3025 
Q 1153 3394 1769 3394 
Q 2453 3394 2887 2945 
Q 3322 2497 3322 1706 
Q 3322 1066 3130 698 
Q 2938 331 2570 128 
Q 2203 -75 1769 -75 
Q 1072 -75 642 372 
Q 213 819 213 1659 
z
M 791 1659 
Q 791 1022 1069 705 
Q 1347 388 1769 388 
Q 2188 388 2466 706 
Q 2744 1025 2744 1678 
Q 2744 2294 2464 2611 
Q 2184 2928 1769 2928 
Q 1347 2928 1069 2612 
Q 791 2297 791 1659 
z
" transform="scale(0.015625)"/>
      <path id="ArialMT-66" d="M 556 0 
L 556 2881 
L 59 2881 
L 59 3319 
L 556 3319 
L 556 3672 
Q 556 4006 616 4169 
Q 697 4388 901 4523 
Q 1106 4659 1475 4659 
Q 1713 4659 2000 4603 
L 1916 4113 
Q 1741 4144 1584 4144 
Q 1328 4144 1222 4034 
Q 1116 3925 1116 3625 
L 1116 3319 
L 1763 3319 
L 1763 2881 
L 1116 2881 
L 1116 0 
L 556 0 
z
" transform="scale(0.015625)"/>
      <path id="ArialMT-6d" d="M 422 0 
L 422 3319 
L 925 3319 
L 925 2853 
Q 1081 3097 1340 3245 
Q 1600 3394 1931 3394 
Q 2300 3394 2536 3241 
Q 2772 3088 2869 2813 
Q 3263 3394 3894 3394 
Q 4388 3394 4653 3120 
Q 4919 2847 4919 2278 
L 4919 0 
L 4359 0 
L 4359 2091 
Q 4359 2428 4304 2576 
Q 4250 2725 4106 2815 
Q 3963 2906 3769 2906 
Q 3419 2906 3187 2673 
Q 2956 2441 2956 1928 
L 2956 0 
L 2394 0 
L 2394 2156 
Q 2394 2531 2256 2718 
Q 2119 2906 1806 2906 
Q 1569 2906 1367 2781 
Q 1166 2656 1075 2415 
Q 984 2175 984 1722 
L 984 0 
L 422 0 
z
" transform="scale(0.015625)"/>
      <path id="ArialMT-6e" d="M 422 0 
L 422 3319 
L 928 3319 
L 928 2847 
Q 1294 3394 1984 3394 
Q 2284 3394 2536 3286 
Q 2788 3178 2913 3003 
Q 3038 2828 3088 2588 
Q 3119 2431 3119 2041 
L 3119 0 
L 2556 0 
L 2556 2019 
Q 2556 2363 2490 2533 
Q 2425 2703 2258 2804 
Q 2091 2906 1866 2906 
Q 1506 2906 1245 2678 
Q 984 2450 984 1813 
L 984 0 
L 422 0 
z
" transform="scale(0.015625)"/>
      <path id="ArialMT-64" d="M 2575 0 
L 2575 419 
Q 2259 -75 1647 -75 
Q 1250 -75 917 144 
Q 584 363 401 755 
Q 219 1147 219 1656 
Q 219 2153 384 2558 
Q 550 2963 881 3178 
Q 1213 3394 1622 3394 
Q 1922 3394 2156 3267 
Q 2391 3141 2538 2938 
L 2538 4581 
L 3097 4581 
L 3097 0 
L 2575 0 
z
M 797 1656 
Q 797 1019 1065 703 
Q 1334 388 1700 388 
Q 2069 388 2326 689 
Q 2584 991 2584 1609 
Q 2584 2291 2321 2609 
Q 2059 2928 1675 2928 
Q 1300 2928 1048 2622 
Q 797 2316 797 1656 
z
" transform="scale(0.015625)"/>
     </defs>
     <use xlink:href="#ArialMT-59"/>
     <use xlink:href="#ArialMT-65" x="57.574219"/>
     <use xlink:href="#ArialMT-61" x="113.189453"/>
     <use xlink:href="#ArialMT-72" x="168.804688"/>
     <use xlink:href="#ArialMT-6c" x="202.105469"/>
     <use xlink:href="#ArialMT-79" x="224.322266"/>
     <use xlink:href="#ArialMT-20" x="274.322266"/>
     <use xlink:href="#ArialMT-61" x="302.105469"/>
     <use xlink:href="#ArialMT-76" x="357.720703"/>
     <use xlink:href="#ArialMT-65" x="407.720703"/>
     <use xlink:href="#ArialMT-72" x="463.335938"/>
     <use xlink:href="#ArialMT-61" x="496.636719"/>
     <use xlink:href="#ArialMT-67" x="552.251953"/>
     <use xlink:href="#ArialMT-65" x="607.867188"/>
     <use xlink:href="#ArialMT-20" x="663.482422"/>
     <use xlink:href="#ArialMT-67" x="691.265625"/>
     <use xlink:href="#ArialMT-65" x="746.880859"/>
     <use xlink:href="#ArialMT-65" x="802.496094"/>
     <use xlink:href="#ArialMT-6b" x="858.111328"/>
     <use xlink:href="#ArialMT-20" x="908.111328"/>
     <use xlink:href="#ArialMT-73" x="935.894531"/>
     <use xlink:href="#ArialMT-63" x="985.894531"/>
     <use xlink:href="#ArialMT-6f" x="1035.894531"/>
     <use xlink:href="#ArialMT-72" x="1091.509766"/>
     <use xlink:href="#ArialMT-65" x="1124.810547"/>
     <use xlink:href="#ArialMT-20" x="1180.425781"/>
     <use xlink:href="#ArialMT-66" x="1208.208984"/>
     <use xlink:href="#ArialMT-72" x="1235.992188"/>
     <use xlink:href="#ArialMT-6f" x="1269.292969"/>
     <use xlink:href="#ArialMT-6d" x="1324.908203"/>
     <use xlink:href="#ArialMT-20" x="1408.208984"/>
     <use xlink:href="#ArialMT-72" x="1435.992188"/>
     <use xlink:href="#ArialMT-61" x="1469.292969"/>
     <use xlink:href="#ArialMT-6e" x="1524.908203"/>
     <use xlink:href="#ArialMT-6b" x="1580.523438"/>
     <use xlink:href="#ArialMT-65" x="1630.523438"/>
     <use xlink:href="#ArialMT-64" x="1686.138672"/>
     <use xlink:href="#ArialMT-20" x="1741.753906"/>
     <use xlink:href="#ArialMT-67" x="1769.537109"/>
     <use xlink:href="#ArialMT-61" x="1825.152344"/>
     <use xlink:href="#ArialMT-6d" x="1880.767578"/>
     <use xlink:href="#ArialMT-65" x="1964.068359"/>
     <use xlink:href="#ArialMT-73" x="2019.683594"/>
    </g>
   </g>
  </g>
 </g>
 <defs>
  <clipPath id="p919883118a">
   <rect x="37.15" y="25.44" width="384.05" height="234.68"/>
  </clipPath>
 </defs>
</svg>
