<?xml version="1.0" encoding="utf-8" standalone="no"?>
<!DOCTYPE svg PUBLIC "-//W3C//DTD SVG 1.1//EN"
  "http://www.w3.org/Graphics/SVG/1.1/DTD/svg11.dtd">
<svg xmlns:xlink="http://www.w3.org/1999/xlink" width="460.8pt" height="345.6pt" viewBox="0 0 460.8 345.6" xmlns="http://www.w3.org/2000/svg" version="1.1">
 <metadata>
  <rdf:RDF xmlns:dc="http://purl.org/dc/elements/1.1/" xmlns:cc="http://creativecommons.org/ns#" xmlns:rdf="http://www.w3.org/1999/02/22-rdf-syntax-ns#">
   <cc:Work>
    <dc:type rdf:resource="http://purl.org/dc/dcmitype/StillImage"/>
    <dc:date>2024-08-19T22:01:49.513605</dc:date>
    <dc:format>image/svg+xml</dc:format>
    <dc:creator>
     <cc:Agent>
      <dc:title>Matplotlib v3.9.2, https://matplotlib.org/</dc:title>
     </cc:Agent>
    </dc:creator>
   </cc:Work>
  </rdf:RDF>
 </metadata>
 <defs>
  <style type="text/css">*{stroke-linejoin: round; stroke-linecap: butt}</style>
 </defs>
 <g id="figure_1">
  <g id="patch_1">
   <path d="M 0 345.6 
L 460.8 345.6 
L 460.8 0 
L 0 0 
z
" style="fill: #ffffff"/>
  </g>
  <g id="axes_1">
   <g id="patch_2">
    <path d="M 37.15 317.72 
L 450 317.72 
L 450 25.44 
L 37.15 25.44 
z
" style="fill: #eaeaf2"/>
   </g>
   <g id="matplotlib.axis_1">
    <g id="xtick_1">
     <g id="text_1">
      <!-- 1970 -->
      <g style="fill: #262626" transform="translate(44.794034 331.877812) scale(0.1 -0.1)">
       <defs>
        <path id="ArialMT-31" d="M 2384 0 
L 1822 0 
L 1822 3584 
Q 1619 3391 1289 3197 
Q 959 3003 697 2906 
L 697 3450 
Q 1169 3672 1522 3987 
Q 1875 4303 2022 4600 
L 2384 4600 
L 2384 0 
z
" transform="scale(0.015625)"/>
        <path id="ArialMT-39" d="M 350 1059 
L 891 1109 
Q 959 728 1153 556 
Q 1347 384 1650 384 
Q 1909 384 2104 503 
Q 2300 622 2425 820 
Q 2550 1019 2634 1356 
Q 2719 1694 2719 2044 
Q 2719 2081 2716 2156 
Q 2547 1888 2255 1720 
Q 1963 1553 1622 1553 
Q 1053 1553 659 1965 
Q 266 2378 266 3053 
Q 266 3750 677 4175 
Q 1088 4600 1706 4600 
Q 2153 4600 2523 4359 
Q 2894 4119 3086 3673 
Q 3278 3228 3278 2384 
Q 3278 1506 3087 986 
Q 2897 466 2520 194 
Q 2144 -78 1638 -78 
Q 1100 -78 759 220 
Q 419 519 350 1059 
z
M 2653 3081 
Q 2653 3566 2395 3850 
Q 2138 4134 1775 4134 
Q 1400 4134 1122 3828 
Q 844 3522 844 3034 
Q 844 2597 1108 2323 
Q 1372 2050 1759 2050 
Q 2150 2050 2401 2323 
Q 2653 2597 2653 3081 
z
" transform="scale(0.015625)"/>
        <path id="ArialMT-37" d="M 303 3981 
L 303 4522 
L 3269 4522 
L 3269 4084 
Q 2831 3619 2401 2847 
Q 1972 2075 1738 1259 
Q 1569 684 1522 0 
L 944 0 
Q 953 541 1156 1306 
Q 1359 2072 1739 2783 
Q 2119 3494 2547 3981 
L 303 3981 
z
" transform="scale(0.015625)"/>
        <path id="ArialMT-30" d="M 266 2259 
Q 266 3072 433 3567 
Q 600 4063 929 4331 
Q 1259 4600 1759 4600 
Q 2128 4600 2406 4451 
Q 2684 4303 2865 4023 
Q 3047 3744 3150 3342 
Q 3253 2941 3253 2259 
Q 3253 1453 3087 958 
Q 2922 463 2592 192 
Q 2263 -78 1759 -78 
Q 1097 -78 719 397 
Q 266 969 266 2259 
z
M 844 2259 
Q 844 1131 1108 757 
Q 1372 384 1759 384 
Q 2147 384 2411 759 
Q 2675 1134 2675 2259 
Q 2675 3391 2411 3762 
Q 2147 4134 1753 4134 
Q 1366 4134 1134 3806 
Q 844 3388 844 2259 
z
" transform="scale(0.015625)"/>
       </defs>
       <use xlink:href="#ArialMT-31"/>
       <use xlink:href="#ArialMT-39" x="55.615234"/>
       <use xlink:href="#ArialMT-37" x="111.230469"/>
       <use xlink:href="#ArialMT-30" x="166.845703"/>
      </g>
     </g>
    </g>
    <g id="xtick_2">
     <g id="text_2">
      <!-- 1980 -->
      <g style="fill: #262626" transform="translate(115.608785 331.877812) scale(0.1 -0.1)">
       <defs>
        <path id="ArialMT-38" d="M 1131 2484 
Q 781 2613 612 2850 
Q 444 3088 444 3419 
Q 444 3919 803 4259 
Q 1163 4600 1759 4600 
Q 2359 4600 2725 4251 
Q 3091 3903 3091 3403 
Q 3091 3084 2923 2848 
Q 2756 2613 2416 2484 
Q 2838 2347 3058 2040 
Q 3278 1734 3278 1309 
Q 3278 722 2862 322 
Q 2447 -78 1769 -78 
Q 1091 -78 675 323 
Q 259 725 259 1325 
Q 259 1772 486 2073 
Q 713 2375 1131 2484 
z
M 1019 3438 
Q 1019 3113 1228 2906 
Q 1438 2700 1772 2700 
Q 2097 2700 2305 2904 
Q 2513 3109 2513 3406 
Q 2513 3716 2298 3927 
Q 2084 4138 1766 4138 
Q 1444 4138 1231 3931 
Q 1019 3725 1019 3438 
z
M 838 1322 
Q 838 1081 952 856 
Q 1066 631 1291 507 
Q 1516 384 1775 384 
Q 2178 384 2440 643 
Q 2703 903 2703 1303 
Q 2703 1709 2433 1975 
Q 2163 2241 1756 2241 
Q 1359 2241 1098 1978 
Q 838 1716 838 1322 
z
" transform="scale(0.015625)"/>
       </defs>
       <use xlink:href="#ArialMT-31"/>
       <use xlink:href="#ArialMT-39" x="55.615234"/>
       <use xlink:href="#ArialMT-38" x="111.230469"/>
       <use xlink:href="#ArialMT-30" x="166.845703"/>
      </g>
     </g>
    </g>
    <g id="xtick_3">
     <g id="text_3">
      <!-- 1990 -->
      <g style="fill: #262626" transform="translate(186.423537 331.877812) scale(0.1 -0.1)">
       <use xlink:href="#ArialMT-31"/>
       <use xlink:href="#ArialMT-39" x="55.615234"/>
       <use xlink:href="#ArialMT-39" x="111.230469"/>
       <use xlink:href="#ArialMT-30" x="166.845703"/>
      </g>
     </g>
    </g>
    <g id="xtick_4">
     <g id="text_4">
      <!-- 2000 -->
      <g style="fill: #262626" transform="translate(257.238288 331.877812) scale(0.1 -0.1)">
       <defs>
        <path id="ArialMT-32" d="M 3222 541 
L 3222 0 
L 194 0 
Q 188 203 259 391 
Q 375 700 629 1000 
Q 884 1300 1366 1694 
Q 2113 2306 2375 2664 
Q 2638 3022 2638 3341 
Q 2638 3675 2398 3904 
Q 2159 4134 1775 4134 
Q 1369 4134 1125 3890 
Q 881 3647 878 3216 
L 300 3275 
Q 359 3922 746 4261 
Q 1134 4600 1788 4600 
Q 2447 4600 2831 4234 
Q 3216 3869 3216 3328 
Q 3216 3053 3103 2787 
Q 2991 2522 2730 2228 
Q 2469 1934 1863 1422 
Q 1356 997 1212 845 
Q 1069 694 975 541 
L 3222 541 
z
" transform="scale(0.015625)"/>
       </defs>
       <use xlink:href="#ArialMT-32"/>
       <use xlink:href="#ArialMT-30" x="55.615234"/>
       <use xlink:href="#ArialMT-30" x="111.230469"/>
       <use xlink:href="#ArialMT-30" x="166.845703"/>
      </g>
     </g>
    </g>
    <g id="xtick_5">
     <g id="text_5">
      <!-- 2010 -->
      <g style="fill: #262626" transform="translate(328.053039 331.877812) scale(0.1 -0.1)">
       <use xlink:href="#ArialMT-32"/>
       <use xlink:href="#ArialMT-30" x="55.615234"/>
       <use xlink:href="#ArialMT-31" x="111.230469"/>
       <use xlink:href="#ArialMT-30" x="166.845703"/>
      </g>
     </g>
    </g>
    <g id="xtick_6">
     <g id="text_6">
      <!-- 2020 -->
      <g style="fill: #262626" transform="translate(398.867791 331.877812) scale(0.1 -0.1)">
       <use xlink:href="#ArialMT-32"/>
       <use xlink:href="#ArialMT-30" x="55.615234"/>
       <use xlink:href="#ArialMT-32" x="111.230469"/>
       <use xlink:href="#ArialMT-30" x="166.845703"/>
      </g>
     </g>
    </g>
   </g>
   <g id="matplotlib.axis_2">
    <g id="ytick_1">
     <g id="text_7">
      <!-- 5.50 -->
      <g style="fill: #262626" transform="translate(10.689062 310.965283) scale(0.1 -0.1)">
       <defs>
        <path id="ArialMT-35" d="M 266 1200 
L 856 1250 
Q 922 819 1161 601 
Q 1400 384 1738 384 
Q 2144 384 2425 690 
Q 2706 997 2706 1503 
Q 2706 1984 2436 2262 
Q 2166 2541 1728 2541 
Q 1456 2541 1237 2417 
Q 1019 2294 894 2097 
L 366 2166 
L 809 4519 
L 3088 4519 
L 3088 3981 
L 1259 3981 
L 1013 2750 
Q 1425 3038 1878 3038 
Q 2478 3038 2890 2622 
Q 3303 2206 3303 1553 
Q 3303 931 2941 478 
Q 2500 -78 1738 -78 
Q 1113 -78 717 272 
Q 322 622 266 1200 
z
" transform="scale(0.015625)"/>
        <path id="ArialMT-2e" d="M 581 0 
L 581 641 
L 1222 641 
L 1222 0 
L 581 0 
z
" transform="scale(0.015625)"/>
       </defs>
       <use xlink:href="#ArialMT-35"/>
       <use xlink:href="#ArialMT-2e" x="55.615234"/>
       <use xlink:href="#ArialMT-35" x="83.398438"/>
       <use xlink:href="#ArialMT-30" x="139.013672"/>
      </g>
     </g>
    </g>
    <g id="ytick_2">
     <g id="text_8">
      <!-- 5.55 -->
      <g style="fill: #262626" transform="translate(10.689062 254.654044) scale(0.1 -0.1)">
       <use xlink:href="#ArialMT-35"/>
       <use xlink:href="#ArialMT-2e" x="55.615234"/>
       <use xlink:href="#ArialMT-35" x="83.398438"/>
       <use xlink:href="#ArialMT-35" x="139.013672"/>
      </g>
     </g>
    </g>
    <g id="ytick_3">
     <g id="text_9">
      <!-- 5.60 -->
      <g style="fill: #262626" transform="translate(10.689062 198.342805) scale(0.1 -0.1)">
       <defs>
        <path id="ArialMT-36" d="M 3184 3459 
L 2625 3416 
Q 2550 3747 2413 3897 
Q 2184 4138 1850 4138 
Q 1581 4138 1378 3988 
Q 1113 3794 959 3422 
Q 806 3050 800 2363 
Q 1003 2672 1297 2822 
Q 1591 2972 1913 2972 
Q 2475 2972 2870 2558 
Q 3266 2144 3266 1488 
Q 3266 1056 3080 686 
Q 2894 316 2569 119 
Q 2244 -78 1831 -78 
Q 1128 -78 684 439 
Q 241 956 241 2144 
Q 241 3472 731 4075 
Q 1159 4600 1884 4600 
Q 2425 4600 2770 4297 
Q 3116 3994 3184 3459 
z
M 888 1484 
Q 888 1194 1011 928 
Q 1134 663 1356 523 
Q 1578 384 1822 384 
Q 2178 384 2434 671 
Q 2691 959 2691 1453 
Q 2691 1928 2437 2201 
Q 2184 2475 1800 2475 
Q 1419 2475 1153 2201 
Q 888 1928 888 1484 
z
" transform="scale(0.015625)"/>
       </defs>
       <use xlink:href="#ArialMT-35"/>
       <use xlink:href="#ArialMT-2e" x="55.615234"/>
       <use xlink:href="#ArialMT-36" x="83.398438"/>
       <use xlink:href="#ArialMT-30" x="139.013672"/>
      </g>
     </g>
    </g>
    <g id="ytick_4">
     <g id="text_10">
      <!-- 5.65 -->
      <g style="fill: #262626" transform="translate(10.689062 142.031566) scale(0.1 -0.1)">
       <use xlink:href="#ArialMT-35"/>
       <use xlink:href="#ArialMT-2e" x="55.615234"/>
       <use xlink:href="#ArialMT-36" x="83.398438"/>
       <use xlink:href="#ArialMT-35" x="139.013672"/>
      </g>
     </g>
    </g>
    <g id="ytick_5">
     <g id="text_11">
      <!-- 5.70 -->
      <g style="fill: #262626" transform="translate(10.689062 85.720326) scale(0.1 -0.1)">
       <use xlink:href="#ArialMT-35"/>
       <use xlink:href="#ArialMT-2e" x="55.615234"/>
       <use xlink:href="#ArialMT-37" x="83.398438"/>
       <use xlink:href="#ArialMT-30" x="139.013672"/>
      </g>
     </g>
    </g>
    <g id="ytick_6">
     <g id="text_12">
      <!-- 5.75 -->
      <g style="fill: #262626" transform="translate(10.689062 29.409087) scale(0.1 -0.1)">
       <use xlink:href="#ArialMT-35"/>
       <use xlink:href="#ArialMT-2e" x="55.615234"/>
       <use xlink:href="#ArialMT-37" x="83.398438"/>
       <use xlink:href="#ArialMT-35" x="139.013672"/>
      </g>
     </g>
    </g>
   </g>
   <g id="PathCollection_1">
    <path d="M 55.915909 280.849045 
C 56.046406 280.849045 56.171575 280.797198 56.26385 280.704923 
C 56.356125 280.612648 56.407972 280.487479 56.407972 280.356982 
C 56.407972 280.226486 56.356125 280.101316 56.26385 280.009041 
C 56.171575 279.916766 56.046406 279.864919 55.915909 279.864919 
C 55.785412 279.864919 55.660243 279.916766 55.567968 280.009041 
C 55.475693 280.101316 55.423846 280.226486 55.423846 280.356982 
C 55.423846 280.487479 55.475693 280.612648 55.567968 280.704923 
C 55.660243 280.797198 55.785412 280.849045 55.915909 280.849045 
z
" clip-path="url(#p472cc08f89)" style="fill: #800080; fill-opacity: 0.8; stroke: #800080; stroke-opacity: 0.8"/>
    <path d="M 62.997384 244.015457 
C 63.12628 244.015457 63.249913 243.964246 63.341056 243.873103 
C 63.432199 243.781961 63.483409 243.658327 63.483409 243.529432 
C 63.483409 243.400536 63.432199 243.276903 63.341056 243.18576 
C 63.249913 243.094617 63.12628 243.043407 62.997384 243.043407 
C 62.868489 243.043407 62.744855 243.094617 62.653713 243.18576 
C 62.56257 243.276903 62.511359 243.400536 62.511359 243.529432 
C 62.511359 243.658327 62.56257 243.781961 62.653713 243.873103 
C 62.744855 243.964246 62.868489 244.015457 62.997384 244.015457 
z
" clip-path="url(#p472cc08f89)" style="fill: #800080; fill-opacity: 0.8; stroke: #800080; stroke-opacity: 0.8"/>
    <path d="M 70.078859 271.996788 
C 70.24815 271.996788 70.410529 271.929528 70.530235 271.809822 
C 70.649941 271.690116 70.717201 271.527736 70.717201 271.358446 
C 70.717201 271.189156 70.649941 271.026777 70.530235 270.90707 
C 70.410529 270.787364 70.24815 270.720104 70.078859 270.720104 
C 69.909569 270.720104 69.74719 270.787364 69.627483 270.90707 
C 69.507777 271.026777 69.440518 271.189156 69.440518 271.358446 
C 69.440518 271.527736 69.507777 271.690116 69.627483 271.809822 
C 69.74719 271.929528 69.909569 271.996788 70.078859 271.996788 
z
" clip-path="url(#p472cc08f89)" style="fill: #800080; fill-opacity: 0.8; stroke: #800080; stroke-opacity: 0.8"/>
    <path d="M 77.160334 265.660794 
C 77.336832 265.660794 77.506124 265.59067 77.630926 265.465868 
C 77.755729 265.341066 77.825852 265.171773 77.825852 264.995276 
C 77.825852 264.818779 77.755729 264.649487 77.630926 264.524684 
C 77.506124 264.399882 77.336832 264.329759 77.160334 264.329759 
C 76.983837 264.329759 76.814545 264.399882 76.689743 264.524684 
C 76.56494 264.649487 76.494817 264.818779 76.494817 264.995276 
C 76.494817 265.171773 76.56494 265.341066 76.689743 265.465868 
C 76.814545 265.59067 76.983837 265.660794 77.160334 265.660794 
z
" clip-path="url(#p472cc08f89)" style="fill: #800080; fill-opacity: 0.8; stroke: #800080; stroke-opacity: 0.8"/>
    <path d="M 84.24181 225.357631 
C 84.41948 225.357631 84.589897 225.287042 84.715528 225.16141 
C 84.84116 225.035778 84.911749 224.865361 84.911749 224.687691 
C 84.911749 224.510021 84.84116 224.339604 84.715528 224.213972 
C 84.589897 224.088341 84.41948 224.017752 84.24181 224.017752 
C 84.06414 224.017752 83.893723 224.088341 83.768091 224.213972 
C 83.642459 224.339604 83.57187 224.510021 83.57187 224.687691 
C 83.57187 224.865361 83.642459 225.035778 83.768091 225.16141 
C 83.893723 225.287042 84.06414 225.357631 84.24181 225.357631 
z
" clip-path="url(#p472cc08f89)" style="fill: #800080; fill-opacity: 0.8; stroke: #800080; stroke-opacity: 0.8"/>
    <path d="M 91.323285 275.382317 
C 91.551142 275.382317 91.769697 275.291789 91.930816 275.130669 
C 92.091935 274.96955 92.182464 274.750995 92.182464 274.523138 
C 92.182464 274.295281 92.091935 274.076726 91.930816 273.915606 
C 91.769697 273.754487 91.551142 273.663959 91.323285 273.663959 
C 91.095428 273.663959 90.876872 273.754487 90.715753 273.915606 
C 90.554634 274.076726 90.464105 274.295281 90.464105 274.523138 
C 90.464105 274.750995 90.554634 274.96955 90.715753 275.130669 
C 90.876872 275.291789 91.095428 275.382317 91.323285 275.382317 
z
" clip-path="url(#p472cc08f89)" style="fill: #800080; fill-opacity: 0.8; stroke: #800080; stroke-opacity: 0.8"/>
    <path d="M 98.40476 254.860256 
C 98.575272 254.860256 98.738824 254.79251 98.859395 254.67194 
C 98.979965 254.551369 99.047711 254.387818 99.047711 254.217305 
C 99.047711 254.046792 98.979965 253.883241 98.859395 253.76267 
C 98.738824 253.642099 98.575272 253.574354 98.40476 253.574354 
C 98.234247 253.574354 98.070696 253.642099 97.950125 253.76267 
C 97.829554 253.883241 97.761809 254.046792 97.761809 254.217305 
C 97.761809 254.387818 97.829554 254.551369 97.950125 254.67194 
C 98.070696 254.79251 98.234247 254.860256 98.40476 254.860256 
z
" clip-path="url(#p472cc08f89)" style="fill: #800080; fill-opacity: 0.8; stroke: #800080; stroke-opacity: 0.8"/>
    <path d="M 105.486235 208.708955 
C 105.701918 208.708955 105.908797 208.623263 106.061308 208.470752 
C 106.213819 208.318241 106.299511 208.111363 106.299511 207.89568 
C 106.299511 207.679996 106.213819 207.473118 106.061308 207.320607 
C 105.908797 207.168096 105.701918 207.082404 105.486235 207.082404 
C 105.270552 207.082404 105.063673 207.168096 104.911162 207.320607 
C 104.758651 207.473118 104.672959 207.679996 104.672959 207.89568 
C 104.672959 208.111363 104.758651 208.318241 104.911162 208.470752 
C 105.063673 208.623263 105.270552 208.708955 105.486235 208.708955 
z
" clip-path="url(#p472cc08f89)" style="fill: #800080; fill-opacity: 0.8; stroke: #800080; stroke-opacity: 0.8"/>
    <path d="M 112.56771 280.24718 
C 112.774546 280.24718 112.972938 280.165003 113.119193 280.018748 
C 113.265449 279.872493 113.347625 279.674101 113.347625 279.467265 
C 113.347625 279.260429 113.265449 279.062036 113.119193 278.915781 
C 112.972938 278.769526 112.774546 278.687349 112.56771 278.687349 
C 112.360874 278.687349 112.162482 278.769526 112.016227 278.915781 
C 111.869972 279.062036 111.787795 279.260429 111.787795 279.467265 
C 111.787795 279.674101 111.869972 279.872493 112.016227 280.018748 
C 112.162482 280.165003 112.360874 280.24718 112.56771 280.24718 
z
" clip-path="url(#p472cc08f89)" style="fill: #800080; fill-opacity: 0.8; stroke: #800080; stroke-opacity: 0.8"/>
    <path d="M 119.649185 213.314593 
C 119.888598 213.314593 120.118237 213.219473 120.287527 213.050183 
C 120.456817 212.880893 120.551937 212.651253 120.551937 212.411841 
C 120.551937 212.172428 120.456817 211.942789 120.287527 211.773499 
C 120.118237 211.604209 119.888598 211.509089 119.649185 211.509089 
C 119.409773 211.509089 119.180134 211.604209 119.010843 211.773499 
C 118.841553 211.942789 118.746434 212.172428 118.746434 212.411841 
C 118.746434 212.651253 118.841553 212.880893 119.010843 213.050183 
C 119.180134 213.219473 119.409773 213.314593 119.649185 213.314593 
z
" clip-path="url(#p472cc08f89)" style="fill: #800080; fill-opacity: 0.8; stroke: #800080; stroke-opacity: 0.8"/>
    <path d="M 126.73066 223.87 
C 126.96481 223.87 127.189402 223.776971 127.354971 223.611402 
C 127.52054 223.445833 127.613569 223.221242 127.613569 222.987092 
C 127.613569 222.752942 127.52054 222.52835 127.354971 222.362781 
C 127.189402 222.197212 126.96481 222.104183 126.73066 222.104183 
C 126.49651 222.104183 126.271919 222.197212 126.10635 222.362781 
C 125.940781 222.52835 125.847752 222.752942 125.847752 222.987092 
C 125.847752 223.221242 125.940781 223.445833 126.10635 223.611402 
C 126.271919 223.776971 126.49651 223.87 126.73066 223.87 
z
" clip-path="url(#p472cc08f89)" style="fill: #800080; fill-opacity: 0.8; stroke: #800080; stroke-opacity: 0.8"/>
    <path d="M 133.812136 247.587338 
C 134.069926 247.587338 134.317193 247.484917 134.499479 247.302631 
C 134.681765 247.120345 134.784186 246.873078 134.784186 246.615288 
C 134.784186 246.357497 134.681765 246.11023 134.499479 245.927944 
C 134.317193 245.745659 134.069926 245.643237 133.812136 245.643237 
C 133.554345 245.643237 133.307078 245.745659 133.124792 245.927944 
C 132.942507 246.11023 132.840085 246.357497 132.840085 246.615288 
C 132.840085 246.873078 132.942507 247.120345 133.124792 247.302631 
C 133.307078 247.484917 133.554345 247.587338 133.812136 247.587338 
z
" clip-path="url(#p472cc08f89)" style="fill: #800080; fill-opacity: 0.8; stroke: #800080; stroke-opacity: 0.8"/>
    <path d="M 140.893611 230.7082 
C 141.131282 230.7082 141.359251 230.613772 141.52731 230.445713 
C 141.695369 230.277654 141.789797 230.049685 141.789797 229.812014 
C 141.789797 229.574343 141.695369 229.346374 141.52731 229.178315 
C 141.359251 229.010256 141.131282 228.915828 140.893611 228.915828 
C 140.655939 228.915828 140.42797 229.010256 140.259911 229.178315 
C 140.091852 229.346374 139.997424 229.574343 139.997424 229.812014 
C 139.997424 230.049685 140.091852 230.277654 140.259911 230.445713 
C 140.42797 230.613772 140.655939 230.7082 140.893611 230.7082 
z
" clip-path="url(#p472cc08f89)" style="fill: #800080; fill-opacity: 0.8; stroke: #800080; stroke-opacity: 0.8"/>
    <path d="M 147.975086 227.961963 
C 148.222182 227.961963 148.459191 227.863791 148.633914 227.689067 
C 148.808638 227.514344 148.90681 227.277335 148.90681 227.030239 
C 148.90681 226.783142 148.808638 226.546133 148.633914 226.37141 
C 148.459191 226.196687 148.222182 226.098514 147.975086 226.098514 
C 147.72799 226.098514 147.490981 226.196687 147.316257 226.37141 
C 147.141534 226.546133 147.043361 226.783142 147.043361 227.030239 
C 147.043361 227.277335 147.141534 227.514344 147.316257 227.689067 
C 147.490981 227.863791 147.72799 227.961963 147.975086 227.961963 
z
" clip-path="url(#p472cc08f89)" style="fill: #800080; fill-opacity: 0.8; stroke: #800080; stroke-opacity: 0.8"/>
    <path d="M 155.056561 249.553736 
C 155.268358 249.553736 155.471508 249.469588 155.621271 249.319825 
C 155.771034 249.170062 155.855182 248.966911 155.855182 248.755115 
C 155.855182 248.543318 155.771034 248.340167 155.621271 248.190405 
C 155.471508 248.040642 155.268358 247.956494 155.056561 247.956494 
C 154.844764 247.956494 154.641614 248.040642 154.491851 248.190405 
C 154.342088 248.340167 154.25794 248.543318 154.25794 248.755115 
C 154.25794 248.966911 154.342088 249.170062 154.491851 249.319825 
C 154.641614 249.469588 154.844764 249.553736 155.056561 249.553736 
z
" clip-path="url(#p472cc08f89)" style="fill: #800080; fill-opacity: 0.8; stroke: #800080; stroke-opacity: 0.8"/>
    <path d="M 162.138036 215.068227 
C 162.37658 215.068227 162.605385 214.973452 162.774061 214.804776 
C 162.942737 214.636101 163.037511 214.407295 163.037511 214.168752 
C 163.037511 213.930208 162.942737 213.701403 162.774061 213.532727 
C 162.605385 213.364051 162.37658 213.269277 162.138036 213.269277 
C 161.899492 213.269277 161.670687 213.364051 161.502011 213.532727 
C 161.333335 213.701403 161.238561 213.930208 161.238561 214.168752 
C 161.238561 214.407295 161.333335 214.636101 161.502011 214.804776 
C 161.670687 214.973452 161.899492 215.068227 162.138036 215.068227 
z
" clip-path="url(#p472cc08f89)" style="fill: #800080; fill-opacity: 0.8; stroke: #800080; stroke-opacity: 0.8"/>
    <path d="M 169.219511 198.167629 
C 169.474059 198.167629 169.718216 198.066496 169.898208 197.886504 
C 170.078201 197.706511 170.179334 197.462354 170.179334 197.207806 
C 170.179334 196.953258 170.078201 196.709102 169.898208 196.529109 
C 169.718216 196.349117 169.474059 196.247984 169.219511 196.247984 
C 168.964963 196.247984 168.720807 196.349117 168.540814 196.529109 
C 168.360821 196.709102 168.259688 196.953258 168.259688 197.207806 
C 168.259688 197.462354 168.360821 197.706511 168.540814 197.886504 
C 168.720807 198.066496 168.964963 198.167629 169.219511 198.167629 
z
" clip-path="url(#p472cc08f89)" style="fill: #800080; fill-opacity: 0.8; stroke: #800080; stroke-opacity: 0.8"/>
    <path d="M 176.300986 239.671526 
C 176.547241 239.671526 176.783442 239.573688 176.95757 239.39956 
C 177.131698 239.225432 177.229536 238.989231 177.229536 238.742976 
C 177.229536 238.496722 177.131698 238.260521 176.95757 238.086393 
C 176.783442 237.912264 176.547241 237.814427 176.300986 237.814427 
C 176.054732 237.814427 175.81853 237.912264 175.644402 238.086393 
C 175.470274 238.260521 175.372436 238.496722 175.372436 238.742976 
C 175.372436 238.989231 175.470274 239.225432 175.644402 239.39956 
C 175.81853 239.573688 176.054732 239.671526 176.300986 239.671526 
z
" clip-path="url(#p472cc08f89)" style="fill: #800080; fill-opacity: 0.8; stroke: #800080; stroke-opacity: 0.8"/>
    <path d="M 183.382461 236.040306 
C 183.624462 236.040306 183.856584 235.944158 184.027704 235.773038 
C 184.198825 235.601917 184.294973 235.369796 184.294973 235.127795 
C 184.294973 234.885794 184.198825 234.653672 184.027704 234.482552 
C 183.856584 234.311431 183.624462 234.215283 183.382461 234.215283 
C 183.140461 234.215283 182.908339 234.311431 182.737218 234.482552 
C 182.566098 234.653672 182.46995 234.885794 182.46995 235.127795 
C 182.46995 235.369796 182.566098 235.601917 182.737218 235.773038 
C 182.908339 235.944158 183.140461 236.040306 183.382461 236.040306 
z
" clip-path="url(#p472cc08f89)" style="fill: #800080; fill-opacity: 0.8; stroke: #800080; stroke-opacity: 0.8"/>
    <path d="M 190.463937 221.759776 
C 190.705937 221.759776 190.938059 221.663628 191.10918 221.492508 
C 191.2803 221.321387 191.376448 221.089265 191.376448 220.847265 
C 191.376448 220.605264 191.2803 220.373142 191.10918 220.202022 
C 190.938059 220.030901 190.705937 219.934753 190.463937 219.934753 
C 190.221936 219.934753 189.989814 220.030901 189.818693 220.202022 
C 189.647573 220.373142 189.551425 220.605264 189.551425 220.847265 
C 189.551425 221.089265 189.647573 221.321387 189.818693 221.492508 
C 189.989814 221.663628 190.221936 221.759776 190.463937 221.759776 
z
" clip-path="url(#p472cc08f89)" style="fill: #800080; fill-opacity: 0.8; stroke: #800080; stroke-opacity: 0.8"/>
    <path d="M 197.545412 229.78894 
C 197.799142 229.78894 198.042515 229.688132 198.22193 229.508717 
C 198.401345 229.329302 198.502153 229.085929 198.502153 228.832198 
C 198.502153 228.578467 198.401345 228.335095 198.22193 228.15568 
C 198.042515 227.976265 197.799142 227.875457 197.545412 227.875457 
C 197.291681 227.875457 197.048308 227.976265 196.868893 228.15568 
C 196.689478 228.335095 196.58867 228.578467 196.58867 228.832198 
C 196.58867 229.085929 196.689478 229.329302 196.868893 229.508717 
C 197.048308 229.688132 197.291681 229.78894 197.545412 229.78894 
z
" clip-path="url(#p472cc08f89)" style="fill: #800080; fill-opacity: 0.8; stroke: #800080; stroke-opacity: 0.8"/>
    <path d="M 204.626887 227.362994 
C 204.900315 227.362994 205.162581 227.25436 205.355925 227.061017 
C 205.549268 226.867674 205.657902 226.605408 205.657902 226.331979 
C 205.657902 226.058551 205.549268 225.796285 205.355925 225.602942 
C 205.162581 225.409598 204.900315 225.300964 204.626887 225.300964 
C 204.353458 225.300964 204.091192 225.409598 203.897849 225.602942 
C 203.704506 225.796285 203.595872 226.058551 203.595872 226.331979 
C 203.595872 226.605408 203.704506 226.867674 203.897849 227.061017 
C 204.091192 227.25436 204.353458 227.362994 204.626887 227.362994 
z
" clip-path="url(#p472cc08f89)" style="fill: #800080; fill-opacity: 0.8; stroke: #800080; stroke-opacity: 0.8"/>
    <path d="M 211.708362 212.708611 
C 212.005101 212.708611 212.289727 212.590715 212.499554 212.380889 
C 212.70938 212.171062 212.827276 211.886436 212.827276 211.589697 
C 212.827276 211.292957 212.70938 211.008332 212.499554 210.798505 
C 212.289727 210.588679 212.005101 210.470783 211.708362 210.470783 
C 211.411622 210.470783 211.126997 210.588679 210.91717 210.798505 
C 210.707344 211.008332 210.589448 211.292957 210.589448 211.589697 
C 210.589448 211.886436 210.707344 212.171062 210.91717 212.380889 
C 211.126997 212.590715 211.411622 212.708611 211.708362 212.708611 
z
" clip-path="url(#p472cc08f89)" style="fill: #800080; fill-opacity: 0.8; stroke: #800080; stroke-opacity: 0.8"/>
    <path d="M 218.789837 226.847471 
C 219.075886 226.847471 219.350258 226.733822 219.552525 226.531555 
C 219.754792 226.329288 219.868441 226.054916 219.868441 225.768867 
C 219.868441 225.482818 219.754792 225.208446 219.552525 225.006179 
C 219.350258 224.803912 219.075886 224.690263 218.789837 224.690263 
C 218.503788 224.690263 218.229416 224.803912 218.027149 225.006179 
C 217.824882 225.208446 217.711233 225.482818 217.711233 225.768867 
C 217.711233 226.054916 217.824882 226.329288 218.027149 226.531555 
C 218.229416 226.733822 218.503788 226.847471 218.789837 226.847471 
z
" clip-path="url(#p472cc08f89)" style="fill: #800080; fill-opacity: 0.8; stroke: #800080; stroke-opacity: 0.8"/>
    <path d="M 225.871312 209.836186 
C 226.152971 209.836186 226.423133 209.724282 226.622296 209.525118 
C 226.821459 209.325955 226.933363 209.055794 226.933363 208.774135 
C 226.933363 208.492476 226.821459 208.222314 226.622296 208.023151 
C 226.423133 207.823988 226.152971 207.712084 225.871312 207.712084 
C 225.589653 207.712084 225.319492 207.823988 225.120329 208.023151 
C 224.921165 208.222314 224.809261 208.492476 224.809261 208.774135 
C 224.809261 209.055794 224.921165 209.325955 225.120329 209.525118 
C 225.319492 209.724282 225.589653 209.836186 225.871312 209.836186 
z
" clip-path="url(#p472cc08f89)" style="fill: #800080; fill-opacity: 0.8; stroke: #800080; stroke-opacity: 0.8"/>
    <path d="M 232.952787 180.01175 
C 233.257809 180.01175 233.55038 179.890563 233.766063 179.67488 
C 233.981746 179.459197 234.102933 179.166627 234.102933 178.861605 
C 234.102933 178.556582 233.981746 178.264012 233.766063 178.048329 
C 233.55038 177.832646 233.257809 177.711459 232.952787 177.711459 
C 232.647765 177.711459 232.355195 177.832646 232.139512 178.048329 
C 231.923828 178.264012 231.802642 178.556582 231.802642 178.861605 
C 231.802642 179.166627 231.923828 179.459197 232.139512 179.67488 
C 232.355195 179.890563 232.647765 180.01175 232.952787 180.01175 
z
" clip-path="url(#p472cc08f89)" style="fill: #800080; fill-opacity: 0.8; stroke: #800080; stroke-opacity: 0.8"/>
    <path d="M 240.034262 224.741813 
C 240.34132 224.741813 240.635843 224.619817 240.852966 224.402694 
C 241.070089 224.185572 241.192084 223.891049 241.192084 223.583991 
C 241.192084 223.276933 241.070089 222.98241 240.852966 222.765287 
C 240.635843 222.548164 240.34132 222.426169 240.034262 222.426169 
C 239.727205 222.426169 239.432682 222.548164 239.215559 222.765287 
C 238.998436 222.98241 238.876441 223.276933 238.876441 223.583991 
C 238.876441 223.891049 238.998436 224.185572 239.215559 224.402694 
C 239.432682 224.619817 239.727205 224.741813 240.034262 224.741813 
z
" clip-path="url(#p472cc08f89)" style="fill: #800080; fill-opacity: 0.8; stroke: #800080; stroke-opacity: 0.8"/>
    <path d="M 247.115738 202.639217 
C 247.430147 202.639217 247.731722 202.5143 247.954043 202.291979 
C 248.176364 202.069658 248.30128 201.768083 248.30128 201.453674 
C 248.30128 201.139264 248.176364 200.83769 247.954043 200.615368 
C 247.731722 200.393047 247.430147 200.268131 247.115738 200.268131 
C 246.801328 200.268131 246.499753 200.393047 246.277432 200.615368 
C 246.055111 200.83769 245.930195 201.139264 245.930195 201.453674 
C 245.930195 201.768083 246.055111 202.069658 246.277432 202.291979 
C 246.499753 202.5143 246.801328 202.639217 247.115738 202.639217 
z
" clip-path="url(#p472cc08f89)" style="fill: #800080; fill-opacity: 0.8; stroke: #800080; stroke-opacity: 0.8"/>
    <path d="M 254.197213 205.688558 
C 254.525833 205.688558 254.841038 205.557996 255.073407 205.325626 
C 255.305776 205.093257 255.436339 204.778052 255.436339 204.449432 
C 255.436339 204.120812 255.305776 203.805607 255.073407 203.573237 
C 254.841038 203.340868 254.525833 203.210306 254.197213 203.210306 
C 253.868593 203.210306 253.553388 203.340868 253.321018 203.573237 
C 253.088649 203.805607 252.958087 204.120812 252.958087 204.449432 
C 252.958087 204.778052 253.088649 205.093257 253.321018 205.325626 
C 253.553388 205.557996 253.868593 205.688558 254.197213 205.688558 
z
" clip-path="url(#p472cc08f89)" style="fill: #800080; fill-opacity: 0.8; stroke: #800080; stroke-opacity: 0.8"/>
    <path d="M 261.278688 145.703161 
C 261.621535 145.703161 261.950386 145.566946 262.192816 145.324516 
C 262.435245 145.082087 262.57146 144.753236 262.57146 144.410388 
C 262.57146 144.067541 262.435245 143.73869 262.192816 143.49626 
C 261.950386 143.253831 261.621535 143.117616 261.278688 143.117616 
C 260.935841 143.117616 260.606989 143.253831 260.36456 143.49626 
C 260.12213 143.73869 259.985916 144.067541 259.985916 144.410388 
C 259.985916 144.753236 260.12213 145.082087 260.36456 145.324516 
C 260.606989 145.566946 260.935841 145.703161 261.278688 145.703161 
z
" clip-path="url(#p472cc08f89)" style="fill: #800080; fill-opacity: 0.8; stroke: #800080; stroke-opacity: 0.8"/>
    <path d="M 268.360163 183.253264 
C 268.718413 183.253264 269.062039 183.11093 269.31536 182.857609 
C 269.568681 182.604287 269.711016 182.260662 269.711016 181.902412 
C 269.711016 181.544161 269.568681 181.200536 269.31536 180.947214 
C 269.062039 180.693893 268.718413 180.551559 268.360163 180.551559 
C 268.001913 180.551559 267.658287 180.693893 267.404966 180.947214 
C 267.151645 181.200536 267.00931 181.544161 267.00931 181.902412 
C 267.00931 182.260662 267.151645 182.604287 267.404966 182.857609 
C 267.658287 183.11093 268.001913 183.253264 268.360163 183.253264 
z
" clip-path="url(#p472cc08f89)" style="fill: #800080; fill-opacity: 0.8; stroke: #800080; stroke-opacity: 0.8"/>
    <path d="M 275.441638 190.915957 
C 275.801046 190.915957 276.145782 190.773163 276.399921 190.519023 
C 276.654061 190.264884 276.796855 189.920148 276.796855 189.56074 
C 276.796855 189.201332 276.654061 188.856596 276.399921 188.602457 
C 276.145782 188.348317 275.801046 188.205523 275.441638 188.205523 
C 275.08223 188.205523 274.737494 188.348317 274.483355 188.602457 
C 274.229215 188.856596 274.086421 189.201332 274.086421 189.56074 
C 274.086421 189.920148 274.229215 190.264884 274.483355 190.519023 
C 274.737494 190.773163 275.08223 190.915957 275.441638 190.915957 
z
" clip-path="url(#p472cc08f89)" style="fill: #800080; fill-opacity: 0.8; stroke: #800080; stroke-opacity: 0.8"/>
    <path d="M 282.523113 178.5649 
C 282.904391 178.5649 283.270104 178.413417 283.539708 178.143813 
C 283.809312 177.874209 283.960795 177.508496 283.960795 177.127218 
C 283.960795 176.745941 283.809312 176.380228 283.539708 176.110624 
C 283.270104 175.84102 282.904391 175.689537 282.523113 175.689537 
C 282.141836 175.689537 281.776123 175.84102 281.506519 176.110624 
C 281.236915 176.380228 281.085431 176.745941 281.085431 177.127218 
C 281.085431 177.508496 281.236915 177.874209 281.506519 178.143813 
C 281.776123 178.413417 282.141836 178.5649 282.523113 178.5649 
z
" clip-path="url(#p472cc08f89)" style="fill: #800080; fill-opacity: 0.8; stroke: #800080; stroke-opacity: 0.8"/>
    <path d="M 289.604588 171.830233 
C 290.024736 171.830233 290.427732 171.663307 290.724821 171.366218 
C 291.02191 171.069128 291.188837 170.666133 291.188837 170.245985 
C 291.188837 169.825837 291.02191 169.422841 290.724821 169.125752 
C 290.427732 168.828663 290.024736 168.661737 289.604588 168.661737 
C 289.184441 168.661737 288.781445 168.828663 288.484356 169.125752 
C 288.187266 169.422841 288.02034 169.825837 288.02034 170.245985 
C 288.02034 170.666133 288.187266 171.069128 288.484356 171.366218 
C 288.781445 171.663307 289.184441 171.830233 289.604588 171.830233 
z
" clip-path="url(#p472cc08f89)" style="fill: #800080; fill-opacity: 0.8; stroke: #800080; stroke-opacity: 0.8"/>
    <path d="M 296.686063 139.393593 
C 297.147664 139.393593 297.59042 139.210198 297.916821 138.883797 
C 298.243222 138.557396 298.426617 138.11464 298.426617 137.65304 
C 298.426617 137.191439 298.243222 136.748683 297.916821 136.422282 
C 297.59042 136.095882 297.147664 135.912486 296.686063 135.912486 
C 296.224463 135.912486 295.781707 136.095882 295.455306 136.422282 
C 295.128905 136.748683 294.94551 137.191439 294.94551 137.65304 
C 294.94551 138.11464 295.128905 138.557396 295.455306 138.883797 
C 295.781707 139.210198 296.224463 139.393593 296.686063 139.393593 
z
" clip-path="url(#p472cc08f89)" style="fill: #800080; fill-opacity: 0.8; stroke: #800080; stroke-opacity: 0.8"/>
    <path d="M 303.767539 142.272629 
C 304.248959 142.272629 304.710726 142.081358 305.051142 141.740943 
C 305.391558 141.400527 305.582828 140.93876 305.582828 140.457339 
C 305.582828 139.975919 305.391558 139.514152 305.051142 139.173736 
C 304.710726 138.83332 304.248959 138.64205 303.767539 138.64205 
C 303.286118 138.64205 302.824351 138.83332 302.483935 139.173736 
C 302.14352 139.514152 301.952249 139.975919 301.952249 140.457339 
C 301.952249 140.93876 302.14352 141.400527 302.483935 141.740943 
C 302.824351 142.081358 303.286118 142.272629 303.767539 142.272629 
z
" clip-path="url(#p472cc08f89)" style="fill: #800080; fill-opacity: 0.8; stroke: #800080; stroke-opacity: 0.8"/>
    <path d="M 310.849014 167.201904 
C 311.323044 167.201904 311.777723 167.01357 312.112913 166.67838 
C 312.448103 166.34319 312.636437 165.888511 312.636437 165.414481 
C 312.636437 164.94045 312.448103 164.485772 312.112913 164.150582 
C 311.777723 163.815392 311.323044 163.627057 310.849014 163.627057 
C 310.374984 163.627057 309.920305 163.815392 309.585115 164.150582 
C 309.249925 164.485772 309.06159 164.94045 309.06159 165.414481 
C 309.06159 165.888511 309.249925 166.34319 309.585115 166.67838 
C 309.920305 167.01357 310.374984 167.201904 310.849014 167.201904 
z
" clip-path="url(#p472cc08f89)" style="fill: #800080; fill-opacity: 0.8; stroke: #800080; stroke-opacity: 0.8"/>
    <path d="M 317.930489 131.447981 
C 318.411478 131.447981 318.872831 131.256882 319.212942 130.916772 
C 319.553052 130.576662 319.744151 130.115308 319.744151 129.634319 
C 319.744151 129.15333 319.553052 128.691977 319.212942 128.351866 
C 318.872831 128.011756 318.411478 127.820657 317.930489 127.820657 
C 317.4495 127.820657 316.988147 128.011756 316.648036 128.351866 
C 316.307926 128.691977 316.116827 129.15333 316.116827 129.634319 
C 316.116827 130.115308 316.307926 130.576662 316.648036 130.916772 
C 316.988147 131.256882 317.4495 131.447981 317.930489 131.447981 
z
" clip-path="url(#p472cc08f89)" style="fill: #800080; fill-opacity: 0.8; stroke: #800080; stroke-opacity: 0.8"/>
    <path d="M 325.011964 124.974566 
C 325.514491 124.974566 325.996503 124.77491 326.351843 124.41957 
C 326.707183 124.06423 326.906839 123.582218 326.906839 123.079691 
C 326.906839 122.577164 326.707183 122.095152 326.351843 121.739812 
C 325.996503 121.384472 325.514491 121.184816 325.011964 121.184816 
C 324.509437 121.184816 324.027425 121.384472 323.672085 121.739812 
C 323.316745 122.095152 323.117089 122.577164 323.117089 123.079691 
C 323.117089 123.582218 323.316745 124.06423 323.672085 124.41957 
C 324.027425 124.77491 324.509437 124.974566 325.011964 124.974566 
z
" clip-path="url(#p472cc08f89)" style="fill: #800080; fill-opacity: 0.8; stroke: #800080; stroke-opacity: 0.8"/>
    <path d="M 332.093439 111.167367 
C 332.622931 111.167367 333.130807 110.956998 333.505215 110.58259 
C 333.879622 110.208183 334.089991 109.700307 334.089991 109.170815 
C 334.089991 108.641323 333.879622 108.133447 333.505215 107.759039 
C 333.130807 107.384632 332.622931 107.174263 332.093439 107.174263 
C 331.563947 107.174263 331.056071 107.384632 330.681664 107.759039 
C 330.307256 108.133447 330.096887 108.641323 330.096887 109.170815 
C 330.096887 109.700307 330.307256 110.208183 330.681664 110.58259 
C 331.056071 110.956998 331.563947 111.167367 332.093439 111.167367 
z
" clip-path="url(#p472cc08f89)" style="fill: #800080; fill-opacity: 0.8; stroke: #800080; stroke-opacity: 0.8"/>
    <path d="M 339.174914 110.513738 
C 339.728189 110.513738 340.258878 110.29392 340.650103 109.902695 
C 341.041327 109.51147 341.261146 108.980782 341.261146 108.427507 
C 341.261146 107.874231 341.041327 107.343543 340.650103 106.952318 
C 340.258878 106.561093 339.728189 106.341275 339.174914 106.341275 
C 338.621639 106.341275 338.09095 106.561093 337.699726 106.952318 
C 337.308501 107.343543 337.088683 107.874231 337.088683 108.427507 
C 337.088683 108.980782 337.308501 109.51147 337.699726 109.902695 
C 338.09095 110.29392 338.621639 110.513738 339.174914 110.513738 
z
" clip-path="url(#p472cc08f89)" style="fill: #800080; fill-opacity: 0.8; stroke: #800080; stroke-opacity: 0.8"/>
    <path d="M 346.256389 84.493361 
C 346.823383 84.493361 347.36723 84.268092 347.768154 83.867168 
C 348.169079 83.466243 348.394348 82.922396 348.394348 82.355403 
C 348.394348 81.78841 348.169079 81.244563 347.768154 80.843638 
C 347.36723 80.442713 346.823383 80.217444 346.256389 80.217444 
C 345.689396 80.217444 345.145549 80.442713 344.744624 80.843638 
C 344.3437 81.244563 344.118431 81.78841 344.118431 82.355403 
C 344.118431 82.922396 344.3437 83.466243 344.744624 83.867168 
C 345.145549 84.268092 345.689396 84.493361 346.256389 84.493361 
z
" clip-path="url(#p472cc08f89)" style="fill: #800080; fill-opacity: 0.8; stroke: #800080; stroke-opacity: 0.8"/>
    <path d="M 353.337864 85.444217 
C 353.938993 85.444217 354.515581 85.205387 354.940643 84.780325 
C 355.365704 84.355263 355.604535 83.778675 355.604535 83.177547 
C 355.604535 82.576419 355.365704 81.99983 354.940643 81.574769 
C 354.515581 81.149707 353.938993 80.910876 353.337864 80.910876 
C 352.736736 80.910876 352.160148 81.149707 351.735086 81.574769 
C 351.310025 81.99983 351.071194 82.576419 351.071194 83.177547 
C 351.071194 83.778675 351.310025 84.355263 351.735086 84.780325 
C 352.160148 85.205387 352.736736 85.444217 353.337864 85.444217 
z
" clip-path="url(#p472cc08f89)" style="fill: #800080; fill-opacity: 0.8; stroke: #800080; stroke-opacity: 0.8"/>
    <path d="M 360.41934 98.414978 
C 361.0375 98.414978 361.630426 98.16938 362.067531 97.732274 
C 362.504637 97.295169 362.750234 96.702243 362.750234 96.084083 
C 362.750234 95.465922 362.504637 94.872997 362.067531 94.435891 
C 361.630426 93.998786 361.0375 93.753188 360.41934 93.753188 
C 359.801179 93.753188 359.208254 93.998786 358.771148 94.435891 
C 358.334043 94.872997 358.088445 95.465922 358.088445 96.084083 
C 358.088445 96.702243 358.334043 97.295169 358.771148 97.732274 
C 359.208254 98.16938 359.801179 98.414978 360.41934 98.414978 
z
" clip-path="url(#p472cc08f89)" style="fill: #800080; fill-opacity: 0.8; stroke: #800080; stroke-opacity: 0.8"/>
    <path d="M 367.500815 86.552602 
C 368.165907 86.552602 368.803849 86.288357 369.274141 85.818066 
C 369.744432 85.347774 370.008676 84.709833 370.008676 84.04474 
C 370.008676 83.379647 369.744432 82.741705 369.274141 82.271414 
C 368.803849 81.801122 368.165907 81.536878 367.500815 81.536878 
C 366.835722 81.536878 366.19778 81.801122 365.727489 82.271414 
C 365.257197 82.741705 364.992953 83.379647 364.992953 84.04474 
C 364.992953 84.709833 365.257197 85.347774 365.727489 85.818066 
C 366.19778 86.288357 366.835722 86.552602 367.500815 86.552602 
z
" clip-path="url(#p472cc08f89)" style="fill: #800080; fill-opacity: 0.8; stroke: #800080; stroke-opacity: 0.8"/>
    <path d="M 374.58229 62.397776 
C 375.295886 62.397776 375.980352 62.114262 376.48494 61.609673 
C 376.989529 61.105084 377.273044 60.420619 377.273044 59.707022 
C 377.273044 58.993426 376.989529 58.308961 376.48494 57.804372 
C 375.980352 57.299783 375.295886 57.016268 374.58229 57.016268 
C 373.868694 57.016268 373.184228 57.299783 372.679639 57.804372 
C 372.175051 58.308961 371.891536 58.993426 371.891536 59.707022 
C 371.891536 60.420619 372.175051 61.105084 372.679639 61.609673 
C 373.184228 62.114262 373.868694 62.397776 374.58229 62.397776 
z
" clip-path="url(#p472cc08f89)" style="fill: #800080; fill-opacity: 0.8; stroke: #800080; stroke-opacity: 0.8"/>
    <path d="M 381.663765 74.41689 
C 382.422772 74.41689 383.150794 74.115333 383.687492 73.578634 
C 384.224191 73.041936 384.525748 72.313914 384.525748 71.554907 
C 384.525748 70.7959 384.224191 70.067878 383.687492 69.53118 
C 383.150794 68.994481 382.422772 68.692924 381.663765 68.692924 
C 380.904758 68.692924 380.176736 68.994481 379.640038 69.53118 
C 379.103339 70.067878 378.801782 70.7959 378.801782 71.554907 
C 378.801782 72.313914 379.103339 73.041936 379.640038 73.578634 
C 380.176736 74.115333 380.904758 74.41689 381.663765 74.41689 
z
" clip-path="url(#p472cc08f89)" style="fill: #800080; fill-opacity: 0.8; stroke: #800080; stroke-opacity: 0.8"/>
    <path d="M 388.74524 55.41098 
C 389.523431 55.41098 390.269854 55.101801 390.820118 54.551537 
C 391.370382 54.001273 391.679561 53.25485 391.679561 52.476659 
C 391.679561 51.698468 391.370382 50.952045 390.820118 50.401781 
C 390.269854 49.851517 389.523431 49.542339 388.74524 49.542339 
C 387.967049 49.542339 387.220626 49.851517 386.670362 50.401781 
C 386.120098 50.952045 385.81092 51.698468 385.81092 52.476659 
C 385.81092 53.25485 386.120098 54.001273 386.670362 54.551537 
C 387.220626 55.101801 387.967049 55.41098 388.74524 55.41098 
z
" clip-path="url(#p472cc08f89)" style="fill: #800080; fill-opacity: 0.8; stroke: #800080; stroke-opacity: 0.8"/>
    <path d="M 395.826715 59.312917 
C 396.615245 59.312917 397.371585 58.99963 397.92916 58.442055 
C 398.486735 57.88448 398.800022 57.12814 398.800022 56.33961 
C 398.800022 55.55108 398.486735 54.79474 397.92916 54.237165 
C 397.371585 53.67959 396.615245 53.366304 395.826715 53.366304 
C 395.038185 53.366304 394.281845 53.67959 393.72427 54.237165 
C 393.166695 54.79474 392.853409 55.55108 392.853409 56.33961 
C 392.853409 57.12814 393.166695 57.88448 393.72427 58.442055 
C 394.281845 58.99963 395.038185 59.312917 395.826715 59.312917 
z
" clip-path="url(#p472cc08f89)" style="fill: #800080; fill-opacity: 0.8; stroke: #800080; stroke-opacity: 0.8"/>
    <path d="M 402.90819 41.725455 
C 403.7038 41.725455 404.46693 41.409356 405.029511 40.846775 
C 405.592091 40.284194 405.90819 39.521064 405.90819 38.725455 
C 405.90819 37.929845 405.592091 37.166715 405.029511 36.604134 
C 404.46693 36.041553 403.7038 35.725455 402.90819 35.725455 
C 402.112581 35.725455 401.349451 36.041553 400.78687 36.604134 
C 400.224289 37.166715 399.90819 37.929845 399.90819 38.725455 
C 399.90819 39.521064 400.224289 40.284194 400.78687 40.846775 
C 401.349451 41.409356 402.112581 41.725455 402.90819 41.725455 
z
" clip-path="url(#p472cc08f89)" style="fill: #800080; fill-opacity: 0.8; stroke: #800080; stroke-opacity: 0.8"/>
    <path d="M 409.989666 51.600965 
C 410.710213 51.600965 411.401345 51.314689 411.910849 50.805185 
C 412.420352 50.295682 412.706629 49.604549 412.706629 48.884002 
C 412.706629 48.163455 412.420352 47.472323 411.910849 46.962819 
C 411.401345 46.453315 410.710213 46.167039 409.989666 46.167039 
C 409.269118 46.167039 408.577986 46.453315 408.068482 46.962819 
C 407.558979 47.472323 407.272702 48.163455 407.272702 48.884002 
C 407.272702 49.604549 407.558979 50.295682 408.068482 50.805185 
C 408.577986 51.314689 409.269118 51.600965 409.989666 51.600965 
z
" clip-path="url(#p472cc08f89)" style="fill: #800080; fill-opacity: 0.8; stroke: #800080; stroke-opacity: 0.8"/>
    <path d="M 417.071141 49.457143 
C 417.787641 49.457143 418.474892 49.172474 418.981535 48.665832 
C 419.488177 48.159189 419.772846 47.471938 419.772846 46.755437 
C 419.772846 46.038937 419.488177 45.351685 418.981535 44.845043 
C 418.474892 44.338401 417.787641 44.053732 417.071141 44.053732 
C 416.35464 44.053732 415.667389 44.338401 415.160746 44.845043 
C 414.654104 45.351685 414.369435 46.038937 414.369435 46.755437 
C 414.369435 47.471938 414.654104 48.159189 415.160746 48.665832 
C 415.667389 49.172474 416.35464 49.457143 417.071141 49.457143 
z
" clip-path="url(#p472cc08f89)" style="fill: #800080; fill-opacity: 0.8; stroke: #800080; stroke-opacity: 0.8"/>
    <path d="M 424.152616 59.597932 
C 424.882328 59.597932 425.582251 59.308014 426.098235 58.79203 
C 426.614219 58.276046 426.904136 57.576123 426.904136 56.846411 
C 426.904136 56.1167 426.614219 55.416777 426.098235 54.900792 
C 425.582251 54.384808 424.882328 54.094891 424.152616 54.094891 
C 423.422904 54.094891 422.722981 54.384808 422.206997 54.900792 
C 421.691013 55.416777 421.401095 56.1167 421.401095 56.846411 
C 421.401095 57.576123 421.691013 58.276046 422.206997 58.79203 
C 422.722981 59.308014 423.422904 59.597932 424.152616 59.597932 
z
" clip-path="url(#p472cc08f89)" style="fill: #800080; fill-opacity: 0.8; stroke: #800080; stroke-opacity: 0.8"/>
    <path d="M 431.234091 93.015979 
C 431.919785 93.015979 432.577488 92.743549 433.062347 92.25869 
C 433.547206 91.773831 433.819635 91.116129 433.819635 90.430434 
C 433.819635 89.74474 433.547206 89.087038 433.062347 88.602179 
C 432.577488 88.117319 431.919785 87.84489 431.234091 87.84489 
C 430.548397 87.84489 429.890694 88.117319 429.405835 88.602179 
C 428.920976 89.087038 428.648547 89.74474 428.648547 90.430434 
C 428.648547 91.116129 428.920976 91.773831 429.405835 92.25869 
C 429.890694 92.743549 430.548397 93.015979 431.234091 93.015979 
z
" clip-path="url(#p472cc08f89)" style="fill: #800080; fill-opacity: 0.8; stroke: #800080; stroke-opacity: 0.8"/>
   </g>
   <g id="PolyCollection_1">
    <defs>
     <path id="me13c322741" d="M 55.915909 -69.819233 
L 55.915909 -41.165455 
L 59.707002 -43.77968 
L 63.498095 -46.39817 
L 67.289187 -48.937671 
L 71.08028 -51.463566 
L 74.871373 -54.036382 
L 78.662466 -56.609816 
L 82.453558 -59.185732 
L 86.244651 -61.761647 
L 90.035744 -64.343219 
L 93.826837 -66.967244 
L 97.617929 -69.591268 
L 101.409022 -72.215293 
L 105.200115 -74.839317 
L 108.991208 -77.375289 
L 112.7823 -79.87485 
L 116.573393 -82.374543 
L 120.364486 -84.96009 
L 124.155579 -87.534719 
L 127.946671 -90.083531 
L 131.737764 -92.657148 
L 135.528857 -95.170648 
L 139.319949 -97.702412 
L 143.111042 -100.282679 
L 146.902135 -102.862946 
L 150.693228 -105.443543 
L 154.48432 -107.943525 
L 158.275413 -110.357075 
L 162.066506 -112.826823 
L 165.857599 -115.352837 
L 169.648691 -117.916716 
L 173.439784 -120.465406 
L 177.230877 -122.947287 
L 181.02197 -125.533758 
L 184.813062 -128.04452 
L 188.604155 -130.553104 
L 192.395248 -133.064969 
L 196.186341 -135.501649 
L 199.977433 -137.87928 
L 203.768526 -140.455609 
L 207.559619 -142.946645 
L 211.350712 -145.418744 
L 215.141804 -147.907739 
L 218.932897 -150.266372 
L 222.72399 -152.658833 
L 226.515083 -154.989779 
L 230.306175 -157.302916 
L 234.097268 -159.604523 
L 237.888361 -161.858985 
L 241.679454 -164.108899 
L 245.470546 -166.550007 
L 249.261639 -168.841543 
L 253.052732 -171.274688 
L 256.843825 -173.38294 
L 260.634917 -175.499108 
L 264.42601 -177.777567 
L 268.217103 -180.057021 
L 272.008196 -182.338258 
L 275.799288 -184.619495 
L 279.590381 -186.900732 
L 283.381474 -189.113344 
L 287.172567 -191.250572 
L 290.963659 -193.527851 
L 294.754752 -195.73779 
L 298.545845 -197.846428 
L 302.336938 -199.923845 
L 306.12803 -202.004146 
L 309.919123 -204.118281 
L 313.710216 -206.320201 
L 317.501309 -208.470416 
L 321.292401 -210.593301 
L 325.083494 -212.720351 
L 328.874587 -214.945245 
L 332.66568 -217.231143 
L 336.456772 -219.519598 
L 340.247865 -221.75202 
L 344.038958 -223.948948 
L 347.830051 -226.089448 
L 351.621143 -228.240323 
L 355.412236 -230.495186 
L 359.203329 -232.647494 
L 362.994421 -234.802272 
L 366.785514 -236.953232 
L 370.576607 -239.074206 
L 374.3677 -241.186243 
L 378.158792 -243.298279 
L 381.949885 -245.411677 
L 385.740978 -247.587145 
L 389.532071 -249.790347 
L 393.323163 -251.993549 
L 397.114256 -254.168595 
L 400.905349 -256.225412 
L 404.696442 -258.238958 
L 408.487534 -260.289494 
L 412.278627 -262.424745 
L 416.06972 -264.561481 
L 419.860813 -266.699027 
L 423.651905 -268.804983 
L 427.442998 -270.869296 
L 431.234091 -272.932104 
L 431.234091 -299.337033 
L 431.234091 -299.337033 
L 427.442998 -296.805619 
L 423.651905 -294.235391 
L 419.860813 -291.655819 
L 416.06972 -289.150457 
L 412.278627 -286.719935 
L 408.487534 -284.289413 
L 404.696442 -281.854762 
L 400.905349 -279.366949 
L 397.114256 -276.927538 
L 393.323163 -274.369792 
L 389.532071 -271.912183 
L 385.740978 -269.297856 
L 381.949885 -266.781766 
L 378.158792 -264.224066 
L 374.3677 -261.667343 
L 370.576607 -259.238934 
L 366.785514 -256.709995 
L 362.994421 -254.222784 
L 359.203329 -251.785887 
L 355.412236 -249.295134 
L 351.621143 -246.886951 
L 347.830051 -244.426228 
L 344.038958 -242.024238 
L 340.247865 -239.573497 
L 336.456772 -237.171671 
L 332.66568 -234.748595 
L 328.874587 -232.320721 
L 325.083494 -230.000119 
L 321.292401 -227.586991 
L 317.501309 -225.14141 
L 313.710216 -222.691652 
L 309.919123 -220.264525 
L 306.12803 -217.825082 
L 302.336938 -215.501125 
L 298.545845 -213.119374 
L 294.754752 -210.686176 
L 290.963659 -208.258249 
L 287.172567 -205.856317 
L 283.381474 -203.466006 
L 279.590381 -201.219488 
L 275.799288 -198.916578 
L 272.008196 -196.53801 
L 268.217103 -194.182835 
L 264.42601 -191.860554 
L 260.634917 -189.398591 
L 256.843825 -186.959275 
L 253.052732 -184.604651 
L 249.261639 -182.272276 
L 245.470546 -179.92341 
L 241.679454 -177.637792 
L 237.888361 -175.432044 
L 234.097268 -173.151437 
L 230.306175 -170.802196 
L 226.515083 -168.559956 
L 222.72399 -166.224866 
L 218.932897 -163.967338 
L 215.141804 -161.644882 
L 211.350712 -159.370924 
L 207.559619 -157.062697 
L 203.768526 -154.83347 
L 199.977433 -152.621968 
L 196.186341 -150.396679 
L 192.395248 -148.154699 
L 188.604155 -145.95358 
L 184.813062 -143.690279 
L 181.02197 -141.456665 
L 177.230877 -139.277853 
L 173.439784 -136.934272 
L 169.648691 -134.732629 
L 165.857599 -132.530985 
L 162.066506 -130.329342 
L 158.275413 -128.146236 
L 154.48432 -125.961203 
L 150.693228 -123.730353 
L 146.902135 -121.522979 
L 143.111042 -119.29599 
L 139.319949 -117.09852 
L 135.528857 -114.920252 
L 131.737764 -112.687817 
L 127.946671 -110.517295 
L 124.155579 -108.306392 
L 120.364486 -106.186509 
L 116.573393 -104.067355 
L 112.7823 -101.947265 
L 108.991208 -99.826011 
L 105.200115 -97.704757 
L 101.409022 -95.583503 
L 97.617929 -93.457868 
L 93.826837 -91.309474 
L 90.035744 -89.161079 
L 86.244651 -87.012684 
L 82.453558 -84.864289 
L 78.662466 -82.715894 
L 74.871373 -80.5675 
L 71.08028 -78.419105 
L 67.289187 -76.361985 
L 63.498095 -74.298243 
L 59.707002 -72.034704 
L 55.915909 -69.819233 
z
" style="stroke: #ffffff; stroke-opacity: 0.15"/>
    </defs>
    <g clip-path="url(#p472cc08f89)">
     <use xlink:href="#me13c322741" x="0" y="345.6" style="fill: #800080; fill-opacity: 0.15; stroke: #ffffff; stroke-opacity: 0.15"/>
    </g>
   </g>
   <g id="line2d_1">
    <path d="M 55.915909 289.061236 
L 59.707002 286.719127 
L 63.498095 284.377018 
L 67.289187 282.034908 
L 71.08028 279.692799 
L 74.871373 277.35069 
L 78.662466 275.00858 
L 82.453558 272.666471 
L 86.244651 270.324362 
L 90.035744 267.982253 
L 93.826837 265.640143 
L 97.617929 263.298034 
L 101.409022 260.955925 
L 105.200115 258.613815 
L 108.991208 256.271706 
L 112.7823 253.929597 
L 116.573393 251.587487 
L 120.364486 249.245378 
L 124.155579 246.903269 
L 127.946671 244.56116 
L 131.737764 242.21905 
L 135.528857 239.876941 
L 139.319949 237.534832 
L 143.111042 235.192722 
L 146.902135 232.850613 
L 150.693228 230.508504 
L 154.48432 228.166395 
L 158.275413 225.824285 
L 162.066506 223.482176 
L 165.857599 221.140067 
L 169.648691 218.797957 
L 173.439784 216.455848 
L 177.230877 214.113739 
L 181.02197 211.77163 
L 184.813062 209.42952 
L 188.604155 207.087411 
L 192.395248 204.745302 
L 196.186341 202.403192 
L 199.977433 200.061083 
L 203.768526 197.718974 
L 207.559619 195.376865 
L 211.350712 193.034755 
L 215.141804 190.692646 
L 218.932897 188.350537 
L 222.72399 186.008427 
L 226.515083 183.666318 
L 230.306175 181.324209 
L 234.097268 178.982099 
L 237.888361 176.63999 
L 241.679454 174.297881 
L 245.470546 171.955772 
L 249.261639 169.613662 
L 253.052732 167.271553 
L 256.843825 164.929444 
L 260.634917 162.587334 
L 264.42601 160.245225 
L 268.217103 157.903116 
L 272.008196 155.561007 
L 275.799288 153.218897 
L 279.590381 150.876788 
L 283.381474 148.534679 
L 287.172567 146.192569 
L 290.963659 143.85046 
L 294.754752 141.508351 
L 298.545845 139.166242 
L 302.336938 136.824132 
L 306.12803 134.482023 
L 309.919123 132.139914 
L 313.710216 129.797804 
L 317.501309 127.455695 
L 321.292401 125.113586 
L 325.083494 122.771477 
L 328.874587 120.429367 
L 332.66568 118.087258 
L 336.456772 115.745149 
L 340.247865 113.403039 
L 344.038958 111.06093 
L 347.830051 108.718821 
L 351.621143 106.376712 
L 355.412236 104.034602 
L 359.203329 101.692493 
L 362.994421 99.350384 
L 366.785514 97.008274 
L 370.576607 94.666165 
L 374.3677 92.324056 
L 378.158792 89.981946 
L 381.949885 87.639837 
L 385.740978 85.297728 
L 389.532071 82.955619 
L 393.323163 80.613509 
L 397.114256 78.2714 
L 400.905349 75.929291 
L 404.696442 73.587181 
L 408.487534 71.245072 
L 412.278627 68.902963 
L 416.06972 66.560854 
L 419.860813 64.218744 
L 423.651905 61.876635 
L 427.442998 59.534526 
L 431.234091 57.192416 
" clip-path="url(#p472cc08f89)" style="fill: none; stroke: #800080; stroke-width: 2.25; stroke-linecap: round"/>
   </g>
   <g id="patch_3">
    <path d="M 37.15 317.72 
L 37.15 25.44 
" style="fill: none; stroke: #ffffff; stroke-width: 0.8; stroke-linejoin: miter; stroke-linecap: square"/>
   </g>
   <g id="patch_4">
    <path d="M 450 317.72 
L 450 25.44 
" style="fill: none; stroke: #ffffff; stroke-width: 0.8; stroke-linejoin: miter; stroke-linecap: square"/>
   </g>
   <g id="patch_5">
    <path d="M 37.15 317.72 
L 450 317.72 
" style="fill: none; stroke: #ffffff; stroke-width: 0.8; stroke-linejoin: miter; stroke-linecap: square"/>
   </g>
   <g id="patch_6">
    <path d="M 37.15 25.44 
L 450 25.44 
" style="fill: none; stroke: #ffffff; stroke-width: 0.8; stroke-linejoin: miter; stroke-linecap: square"/>
   </g>
   <g id="text_13">
    <!-- Yearly average geek score from ranked games -->
    <g style="fill: #262626" transform="translate(119.403125 19.44) scale(0.12 -0.12)">
     <defs>
      <path id="ArialMT-59" d="M 1784 0 
L 1784 1941 
L 19 4581 
L 756 4581 
L 1659 3200 
Q 1909 2813 2125 2425 
Q 2331 2784 2625 3234 
L 3513 4581 
L 4219 4581 
L 2391 1941 
L 2391 0 
L 1784 0 
z
" transform="scale(0.015625)"/>
      <path id="ArialMT-65" d="M 2694 1069 
L 3275 997 
Q 3138 488 2766 206 
Q 2394 -75 1816 -75 
Q 1088 -75 661 373 
Q 234 822 234 1631 
Q 234 2469 665 2931 
Q 1097 3394 1784 3394 
Q 2450 3394 2872 2941 
Q 3294 2488 3294 1666 
Q 3294 1616 3291 1516 
L 816 1516 
Q 847 969 1125 678 
Q 1403 388 1819 388 
Q 2128 388 2347 550 
Q 2566 713 2694 1069 
z
M 847 1978 
L 2700 1978 
Q 2663 2397 2488 2606 
Q 2219 2931 1791 2931 
Q 1403 2931 1139 2672 
Q 875 2413 847 1978 
z
" transform="scale(0.015625)"/>
      <path id="ArialMT-61" d="M 2588 409 
Q 2275 144 1986 34 
Q 1697 -75 1366 -75 
Q 819 -75 525 192 
Q 231 459 231 875 
Q 231 1119 342 1320 
Q 453 1522 633 1644 
Q 813 1766 1038 1828 
Q 1203 1872 1538 1913 
Q 2219 1994 2541 2106 
Q 2544 2222 2544 2253 
Q 2544 2597 2384 2738 
Q 2169 2928 1744 2928 
Q 1347 2928 1158 2789 
Q 969 2650 878 2297 
L 328 2372 
Q 403 2725 575 2942 
Q 747 3159 1072 3276 
Q 1397 3394 1825 3394 
Q 2250 3394 2515 3294 
Q 2781 3194 2906 3042 
Q 3031 2891 3081 2659 
Q 3109 2516 3109 2141 
L 3109 1391 
Q 3109 606 3145 398 
Q 3181 191 3288 0 
L 2700 0 
Q 2613 175 2588 409 
z
M 2541 1666 
Q 2234 1541 1622 1453 
Q 1275 1403 1131 1340 
Q 988 1278 909 1158 
Q 831 1038 831 891 
Q 831 666 1001 516 
Q 1172 366 1500 366 
Q 1825 366 2078 508 
Q 2331 650 2450 897 
Q 2541 1088 2541 1459 
L 2541 1666 
z
" transform="scale(0.015625)"/>
      <path id="ArialMT-72" d="M 416 0 
L 416 3319 
L 922 3319 
L 922 2816 
Q 1116 3169 1280 3281 
Q 1444 3394 1641 3394 
Q 1925 3394 2219 3213 
L 2025 2691 
Q 1819 2813 1613 2813 
Q 1428 2813 1281 2702 
Q 1134 2591 1072 2394 
Q 978 2094 978 1738 
L 978 0 
L 416 0 
z
" transform="scale(0.015625)"/>
      <path id="ArialMT-6c" d="M 409 0 
L 409 4581 
L 972 4581 
L 972 0 
L 409 0 
z
" transform="scale(0.015625)"/>
      <path id="ArialMT-79" d="M 397 -1278 
L 334 -750 
Q 519 -800 656 -800 
Q 844 -800 956 -737 
Q 1069 -675 1141 -563 
Q 1194 -478 1313 -144 
Q 1328 -97 1363 -6 
L 103 3319 
L 709 3319 
L 1400 1397 
Q 1534 1031 1641 628 
Q 1738 1016 1872 1384 
L 2581 3319 
L 3144 3319 
L 1881 -56 
Q 1678 -603 1566 -809 
Q 1416 -1088 1222 -1217 
Q 1028 -1347 759 -1347 
Q 597 -1347 397 -1278 
z
" transform="scale(0.015625)"/>
      <path id="ArialMT-20" transform="scale(0.015625)"/>
      <path id="ArialMT-76" d="M 1344 0 
L 81 3319 
L 675 3319 
L 1388 1331 
Q 1503 1009 1600 663 
Q 1675 925 1809 1294 
L 2547 3319 
L 3125 3319 
L 1869 0 
L 1344 0 
z
" transform="scale(0.015625)"/>
      <path id="ArialMT-67" d="M 319 -275 
L 866 -356 
Q 900 -609 1056 -725 
Q 1266 -881 1628 -881 
Q 2019 -881 2231 -725 
Q 2444 -569 2519 -288 
Q 2563 -116 2559 434 
Q 2191 0 1641 0 
Q 956 0 581 494 
Q 206 988 206 1678 
Q 206 2153 378 2554 
Q 550 2956 876 3175 
Q 1203 3394 1644 3394 
Q 2231 3394 2613 2919 
L 2613 3319 
L 3131 3319 
L 3131 450 
Q 3131 -325 2973 -648 
Q 2816 -972 2473 -1159 
Q 2131 -1347 1631 -1347 
Q 1038 -1347 672 -1080 
Q 306 -813 319 -275 
z
M 784 1719 
Q 784 1066 1043 766 
Q 1303 466 1694 466 
Q 2081 466 2343 764 
Q 2606 1063 2606 1700 
Q 2606 2309 2336 2618 
Q 2066 2928 1684 2928 
Q 1309 2928 1046 2623 
Q 784 2319 784 1719 
z
" transform="scale(0.015625)"/>
      <path id="ArialMT-6b" d="M 425 0 
L 425 4581 
L 988 4581 
L 988 1969 
L 2319 3319 
L 3047 3319 
L 1778 2088 
L 3175 0 
L 2481 0 
L 1384 1697 
L 988 1316 
L 988 0 
L 425 0 
z
" transform="scale(0.015625)"/>
      <path id="ArialMT-73" d="M 197 991 
L 753 1078 
Q 800 744 1014 566 
Q 1228 388 1613 388 
Q 2000 388 2187 545 
Q 2375 703 2375 916 
Q 2375 1106 2209 1216 
Q 2094 1291 1634 1406 
Q 1016 1563 777 1677 
Q 538 1791 414 1992 
Q 291 2194 291 2438 
Q 291 2659 392 2848 
Q 494 3038 669 3163 
Q 800 3259 1026 3326 
Q 1253 3394 1513 3394 
Q 1903 3394 2198 3281 
Q 2494 3169 2634 2976 
Q 2775 2784 2828 2463 
L 2278 2388 
Q 2241 2644 2061 2787 
Q 1881 2931 1553 2931 
Q 1166 2931 1000 2803 
Q 834 2675 834 2503 
Q 834 2394 903 2306 
Q 972 2216 1119 2156 
Q 1203 2125 1616 2013 
Q 2213 1853 2448 1751 
Q 2684 1650 2818 1456 
Q 2953 1263 2953 975 
Q 2953 694 2789 445 
Q 2625 197 2315 61 
Q 2006 -75 1616 -75 
Q 969 -75 630 194 
Q 291 463 197 991 
z
" transform="scale(0.015625)"/>
      <path id="ArialMT-63" d="M 2588 1216 
L 3141 1144 
Q 3050 572 2676 248 
Q 2303 -75 1759 -75 
Q 1078 -75 664 370 
Q 250 816 250 1647 
Q 250 2184 428 2587 
Q 606 2991 970 3192 
Q 1334 3394 1763 3394 
Q 2303 3394 2647 3120 
Q 2991 2847 3088 2344 
L 2541 2259 
Q 2463 2594 2264 2762 
Q 2066 2931 1784 2931 
Q 1359 2931 1093 2626 
Q 828 2322 828 1663 
Q 828 994 1084 691 
Q 1341 388 1753 388 
Q 2084 388 2306 591 
Q 2528 794 2588 1216 
z
" transform="scale(0.015625)"/>
      <path id="ArialMT-6f" d="M 213 1659 
Q 213 2581 725 3025 
Q 1153 3394 1769 3394 
Q 2453 3394 2887 2945 
Q 3322 2497 3322 1706 
Q 3322 1066 3130 698 
Q 2938 331 2570 128 
Q 2203 -75 1769 -75 
Q 1072 -75 642 372 
Q 213 819 213 1659 
z
M 791 1659 
Q 791 1022 1069 705 
Q 1347 388 1769 388 
Q 2188 388 2466 706 
Q 2744 1025 2744 1678 
Q 2744 2294 2464 2611 
Q 2184 2928 1769 2928 
Q 1347 2928 1069 2612 
Q 791 2297 791 1659 
z
" transform="scale(0.015625)"/>
      <path id="ArialMT-66" d="M 556 0 
L 556 2881 
L 59 2881 
L 59 3319 
L 556 3319 
L 556 3672 
Q 556 4006 616 4169 
Q 697 4388 901 4523 
Q 1106 4659 1475 4659 
Q 1713 4659 2000 4603 
L 1916 4113 
Q 1741 4144 1584 4144 
Q 1328 4144 1222 4034 
Q 1116 3925 1116 3625 
L 1116 3319 
L 1763 3319 
L 1763 2881 
L 1116 2881 
L 1116 0 
L 556 0 
z
" transform="scale(0.015625)"/>
      <path id="ArialMT-6d" d="M 422 0 
L 422 3319 
L 925 3319 
L 925 2853 
Q 1081 3097 1340 3245 
Q 1600 3394 1931 3394 
Q 2300 3394 2536 3241 
Q 2772 3088 2869 2813 
Q 3263 3394 3894 3394 
Q 4388 3394 4653 3120 
Q 4919 2847 4919 2278 
L 4919 0 
L 4359 0 
L 4359 2091 
Q 4359 2428 4304 2576 
Q 4250 2725 4106 2815 
Q 3963 2906 3769 2906 
Q 3419 2906 3187 2673 
Q 2956 2441 2956 1928 
L 2956 0 
L 2394 0 
L 2394 2156 
Q 2394 2531 2256 2718 
Q 2119 2906 1806 2906 
Q 1569 2906 1367 2781 
Q 1166 2656 1075 2415 
Q 984 2175 984 1722 
L 984 0 
L 422 0 
z
" transform="scale(0.015625)"/>
      <path id="ArialMT-6e" d="M 422 0 
L 422 3319 
L 928 3319 
L 928 2847 
Q 1294 3394 1984 3394 
Q 2284 3394 2536 3286 
Q 2788 3178 2913 3003 
Q 3038 2828 3088 2588 
Q 3119 2431 3119 2041 
L 3119 0 
L 2556 0 
L 2556 2019 
Q 2556 2363 2490 2533 
Q 2425 2703 2258 2804 
Q 2091 2906 1866 2906 
Q 1506 2906 1245 2678 
Q 984 2450 984 1813 
L 984 0 
L 422 0 
z
" transform="scale(0.015625)"/>
      <path id="ArialMT-64" d="M 2575 0 
L 2575 419 
Q 2259 -75 1647 -75 
Q 1250 -75 917 144 
Q 584 363 401 755 
Q 219 1147 219 1656 
Q 219 2153 384 2558 
Q 550 2963 881 3178 
Q 1213 3394 1622 3394 
Q 1922 3394 2156 3267 
Q 2391 3141 2538 2938 
L 2538 4581 
L 3097 4581 
L 3097 0 
L 2575 0 
z
M 797 1656 
Q 797 1019 1065 703 
Q 1334 388 1700 388 
Q 2069 388 2326 689 
Q 2584 991 2584 1609 
Q 2584 2291 2321 2609 
Q 2059 2928 1675 2928 
Q 1300 2928 1048 2622 
Q 797 2316 797 1656 
z
" transform="scale(0.015625)"/>
     </defs>
     <use xlink:href="#ArialMT-59"/>
     <use xlink:href="#ArialMT-65" x="57.574219"/>
     <use xlink:href="#ArialMT-61" x="113.189453"/>
     <use xlink:href="#ArialMT-72" x="168.804688"/>
     <use xlink:href="#ArialMT-6c" x="202.105469"/>
     <use xlink:href="#ArialMT-79" x="224.322266"/>
     <use xlink:href="#ArialMT-20" x="274.322266"/>
     <use xlink:href="#ArialMT-61" x="302.105469"/>
     <use xlink:href="#ArialMT-76" x="357.720703"/>
     <use xlink:href="#ArialMT-65" x="407.720703"/>
     <use xlink:href="#ArialMT-72" x="463.335938"/>
     <use xlink:href="#ArialMT-61" x="496.636719"/>
     <use xlink:href="#ArialMT-67" x="552.251953"/>
     <use xlink:href="#ArialMT-65" x="607.867188"/>
     <use xlink:href="#ArialMT-20" x="663.482422"/>
     <use xlink:href="#ArialMT-67" x="691.265625"/>
     <use xlink:href="#ArialMT-65" x="746.880859"/>
     <use xlink:href="#ArialMT-65" x="802.496094"/>
     <use xlink:href="#ArialMT-6b" x="858.111328"/>
     <use xlink:href="#ArialMT-20" x="908.111328"/>
     <use xlink:href="#ArialMT-73" x="935.894531"/>
     <use xlink:href="#ArialMT-63" x="985.894531"/>
     <use xlink:href="#ArialMT-6f" x="1035.894531"/>
     <use xlink:href="#ArialMT-72" x="1091.509766"/>
     <use xlink:href="#ArialMT-65" x="1124.810547"/>
     <use xlink:href="#ArialMT-20" x="1180.425781"/>
     <use xlink:href="#ArialMT-66" x="1208.208984"/>
     <use xlink:href="#ArialMT-72" x="1235.992188"/>
     <use xlink:href="#ArialMT-6f" x="1269.292969"/>
     <use xlink:href="#ArialMT-6d" x="1324.908203"/>
     <use xlink:href="#ArialMT-20" x="1408.208984"/>
     <use xlink:href="#ArialMT-72" x="1435.992188"/>
     <use xlink:href="#ArialMT-61" x="1469.292969"/>
     <use xlink:href="#ArialMT-6e" x="1524.908203"/>
     <use xlink:href="#ArialMT-6b" x="1580.523438"/>
     <use xlink:href="#ArialMT-65" x="1630.523438"/>
     <use xlink:href="#ArialMT-64" x="1686.138672"/>
     <use xlink:href="#ArialMT-20" x="1741.753906"/>
     <use xlink:href="#ArialMT-67" x="1769.537109"/>
     <use xlink:href="#ArialMT-61" x="1825.152344"/>
     <use xlink:href="#ArialMT-6d" x="1880.767578"/>
     <use xlink:href="#ArialMT-65" x="1964.068359"/>
     <use xlink:href="#ArialMT-73" x="2019.683594"/>
    </g>
   </g>
  </g>
 </g>
 <defs>
  <clipPath id="p472cc08f89">
   <rect x="37.15" y="25.44" width="412.85" height="292.28"/>
  </clipPath>
 </defs>
</svg>
