<?xml version="1.0" encoding="utf-8" standalone="no"?>
<!DOCTYPE svg PUBLIC "-//W3C//DTD SVG 1.1//EN"
  "http://www.w3.org/Graphics/SVG/1.1/DTD/svg11.dtd">
<svg xmlns:xlink="http://www.w3.org/1999/xlink" width="432pt" height="288pt" viewBox="0 0 432 288" xmlns="http://www.w3.org/2000/svg" version="1.1">
 <metadata>
  <rdf:RDF xmlns:dc="http://purl.org/dc/elements/1.1/" xmlns:cc="http://creativecommons.org/ns#" xmlns:rdf="http://www.w3.org/1999/02/22-rdf-syntax-ns#">
   <cc:Work>
    <dc:type rdf:resource="http://purl.org/dc/dcmitype/StillImage"/>
    <dc:date>2024-08-12T23:40:56.124226</dc:date>
    <dc:format>image/svg+xml</dc:format>
    <dc:creator>
     <cc:Agent>
      <dc:title>Matplotlib v3.9.1.post1, https://matplotlib.org/</dc:title>
     </cc:Agent>
    </dc:creator>
   </cc:Work>
  </rdf:RDF>
 </metadata>
 <defs>
  <style type="text/css">*{stroke-linejoin: round; stroke-linecap: butt}</style>
 </defs>
 <g id="figure_1">
  <g id="patch_1">
   <path d="M 0 288 
L 432 288 
L 432 0 
L 0 0 
z
" style="fill: #ffffff"/>
  </g>
  <g id="axes_1">
   <g id="patch_2">
    <path d="M 37.15 260.12 
L 421.2 260.12 
L 421.2 25.44 
L 37.15 25.44 
z
" style="fill: #eaeaf2"/>
   </g>
   <g id="matplotlib.axis_1">
    <g id="xtick_1">
     <g id="text_1">
      <!-- 1970 -->
      <g style="fill: #262626" transform="translate(43.484943 274.277812) scale(0.1 -0.1)">
       <defs>
        <path id="ArialMT-31" d="M 2384 0 
L 1822 0 
L 1822 3584 
Q 1619 3391 1289 3197 
Q 959 3003 697 2906 
L 697 3450 
Q 1169 3672 1522 3987 
Q 1875 4303 2022 4600 
L 2384 4600 
L 2384 0 
z
" transform="scale(0.015625)"/>
        <path id="ArialMT-39" d="M 350 1059 
L 891 1109 
Q 959 728 1153 556 
Q 1347 384 1650 384 
Q 1909 384 2104 503 
Q 2300 622 2425 820 
Q 2550 1019 2634 1356 
Q 2719 1694 2719 2044 
Q 2719 2081 2716 2156 
Q 2547 1888 2255 1720 
Q 1963 1553 1622 1553 
Q 1053 1553 659 1965 
Q 266 2378 266 3053 
Q 266 3750 677 4175 
Q 1088 4600 1706 4600 
Q 2153 4600 2523 4359 
Q 2894 4119 3086 3673 
Q 3278 3228 3278 2384 
Q 3278 1506 3087 986 
Q 2897 466 2520 194 
Q 2144 -78 1638 -78 
Q 1100 -78 759 220 
Q 419 519 350 1059 
z
M 2653 3081 
Q 2653 3566 2395 3850 
Q 2138 4134 1775 4134 
Q 1400 4134 1122 3828 
Q 844 3522 844 3034 
Q 844 2597 1108 2323 
Q 1372 2050 1759 2050 
Q 2150 2050 2401 2323 
Q 2653 2597 2653 3081 
z
" transform="scale(0.015625)"/>
        <path id="ArialMT-37" d="M 303 3981 
L 303 4522 
L 3269 4522 
L 3269 4084 
Q 2831 3619 2401 2847 
Q 1972 2075 1738 1259 
Q 1569 684 1522 0 
L 944 0 
Q 953 541 1156 1306 
Q 1359 2072 1739 2783 
Q 2119 3494 2547 3981 
L 303 3981 
z
" transform="scale(0.015625)"/>
        <path id="ArialMT-30" d="M 266 2259 
Q 266 3072 433 3567 
Q 600 4063 929 4331 
Q 1259 4600 1759 4600 
Q 2128 4600 2406 4451 
Q 2684 4303 2865 4023 
Q 3047 3744 3150 3342 
Q 3253 2941 3253 2259 
Q 3253 1453 3087 958 
Q 2922 463 2592 192 
Q 2263 -78 1759 -78 
Q 1097 -78 719 397 
Q 266 969 266 2259 
z
M 844 2259 
Q 844 1131 1108 757 
Q 1372 384 1759 384 
Q 2147 384 2411 759 
Q 2675 1134 2675 2259 
Q 2675 3391 2411 3762 
Q 2147 4134 1753 4134 
Q 1366 4134 1134 3806 
Q 844 3388 844 2259 
z
" transform="scale(0.015625)"/>
       </defs>
       <use xlink:href="#ArialMT-31"/>
       <use xlink:href="#ArialMT-39" x="55.615234"/>
       <use xlink:href="#ArialMT-37" x="111.230469"/>
       <use xlink:href="#ArialMT-30" x="166.845703"/>
      </g>
     </g>
    </g>
    <g id="xtick_2">
     <g id="text_2">
      <!-- 1980 -->
      <g style="fill: #262626" transform="translate(109.359729 274.277812) scale(0.1 -0.1)">
       <defs>
        <path id="ArialMT-38" d="M 1131 2484 
Q 781 2613 612 2850 
Q 444 3088 444 3419 
Q 444 3919 803 4259 
Q 1163 4600 1759 4600 
Q 2359 4600 2725 4251 
Q 3091 3903 3091 3403 
Q 3091 3084 2923 2848 
Q 2756 2613 2416 2484 
Q 2838 2347 3058 2040 
Q 3278 1734 3278 1309 
Q 3278 722 2862 322 
Q 2447 -78 1769 -78 
Q 1091 -78 675 323 
Q 259 725 259 1325 
Q 259 1772 486 2073 
Q 713 2375 1131 2484 
z
M 1019 3438 
Q 1019 3113 1228 2906 
Q 1438 2700 1772 2700 
Q 2097 2700 2305 2904 
Q 2513 3109 2513 3406 
Q 2513 3716 2298 3927 
Q 2084 4138 1766 4138 
Q 1444 4138 1231 3931 
Q 1019 3725 1019 3438 
z
M 838 1322 
Q 838 1081 952 856 
Q 1066 631 1291 507 
Q 1516 384 1775 384 
Q 2178 384 2440 643 
Q 2703 903 2703 1303 
Q 2703 1709 2433 1975 
Q 2163 2241 1756 2241 
Q 1359 2241 1098 1978 
Q 838 1716 838 1322 
z
" transform="scale(0.015625)"/>
       </defs>
       <use xlink:href="#ArialMT-31"/>
       <use xlink:href="#ArialMT-39" x="55.615234"/>
       <use xlink:href="#ArialMT-38" x="111.230469"/>
       <use xlink:href="#ArialMT-30" x="166.845703"/>
      </g>
     </g>
    </g>
    <g id="xtick_3">
     <g id="text_3">
      <!-- 1990 -->
      <g style="fill: #262626" transform="translate(175.234514 274.277812) scale(0.1 -0.1)">
       <use xlink:href="#ArialMT-31"/>
       <use xlink:href="#ArialMT-39" x="55.615234"/>
       <use xlink:href="#ArialMT-39" x="111.230469"/>
       <use xlink:href="#ArialMT-30" x="166.845703"/>
      </g>
     </g>
    </g>
    <g id="xtick_4">
     <g id="text_4">
      <!-- 2000 -->
      <g style="fill: #262626" transform="translate(241.1093 274.277812) scale(0.1 -0.1)">
       <defs>
        <path id="ArialMT-32" d="M 3222 541 
L 3222 0 
L 194 0 
Q 188 203 259 391 
Q 375 700 629 1000 
Q 884 1300 1366 1694 
Q 2113 2306 2375 2664 
Q 2638 3022 2638 3341 
Q 2638 3675 2398 3904 
Q 2159 4134 1775 4134 
Q 1369 4134 1125 3890 
Q 881 3647 878 3216 
L 300 3275 
Q 359 3922 746 4261 
Q 1134 4600 1788 4600 
Q 2447 4600 2831 4234 
Q 3216 3869 3216 3328 
Q 3216 3053 3103 2787 
Q 2991 2522 2730 2228 
Q 2469 1934 1863 1422 
Q 1356 997 1212 845 
Q 1069 694 975 541 
L 3222 541 
z
" transform="scale(0.015625)"/>
       </defs>
       <use xlink:href="#ArialMT-32"/>
       <use xlink:href="#ArialMT-30" x="55.615234"/>
       <use xlink:href="#ArialMT-30" x="111.230469"/>
       <use xlink:href="#ArialMT-30" x="166.845703"/>
      </g>
     </g>
    </g>
    <g id="xtick_5">
     <g id="text_5">
      <!-- 2010 -->
      <g style="fill: #262626" transform="translate(306.984086 274.277812) scale(0.1 -0.1)">
       <use xlink:href="#ArialMT-32"/>
       <use xlink:href="#ArialMT-30" x="55.615234"/>
       <use xlink:href="#ArialMT-31" x="111.230469"/>
       <use xlink:href="#ArialMT-30" x="166.845703"/>
      </g>
     </g>
    </g>
    <g id="xtick_6">
     <g id="text_6">
      <!-- 2020 -->
      <g style="fill: #262626" transform="translate(372.858871 274.277812) scale(0.1 -0.1)">
       <use xlink:href="#ArialMT-32"/>
       <use xlink:href="#ArialMT-30" x="55.615234"/>
       <use xlink:href="#ArialMT-32" x="111.230469"/>
       <use xlink:href="#ArialMT-30" x="166.845703"/>
      </g>
     </g>
    </g>
   </g>
   <g id="matplotlib.axis_2">
    <g id="ytick_1">
     <g id="text_7">
      <!-- 5.50 -->
      <g style="fill: #262626" transform="translate(10.689063 254.257115) scale(0.1 -0.1)">
       <defs>
        <path id="ArialMT-35" d="M 266 1200 
L 856 1250 
Q 922 819 1161 601 
Q 1400 384 1738 384 
Q 2144 384 2425 690 
Q 2706 997 2706 1503 
Q 2706 1984 2436 2262 
Q 2166 2541 1728 2541 
Q 1456 2541 1237 2417 
Q 1019 2294 894 2097 
L 366 2166 
L 809 4519 
L 3088 4519 
L 3088 3981 
L 1259 3981 
L 1013 2750 
Q 1425 3038 1878 3038 
Q 2478 3038 2890 2622 
Q 3303 2206 3303 1553 
Q 3303 931 2941 478 
Q 2500 -78 1738 -78 
Q 1113 -78 717 272 
Q 322 622 266 1200 
z
" transform="scale(0.015625)"/>
        <path id="ArialMT-2e" d="M 581 0 
L 581 641 
L 1222 641 
L 1222 0 
L 581 0 
z
" transform="scale(0.015625)"/>
       </defs>
       <use xlink:href="#ArialMT-35"/>
       <use xlink:href="#ArialMT-2e" x="55.615234"/>
       <use xlink:href="#ArialMT-35" x="83.398438"/>
       <use xlink:href="#ArialMT-30" x="139.013672"/>
      </g>
     </g>
    </g>
    <g id="ytick_2">
     <g id="text_8">
      <!-- 5.55 -->
      <g style="fill: #262626" transform="translate(10.689063 209.316279) scale(0.1 -0.1)">
       <use xlink:href="#ArialMT-35"/>
       <use xlink:href="#ArialMT-2e" x="55.615234"/>
       <use xlink:href="#ArialMT-35" x="83.398438"/>
       <use xlink:href="#ArialMT-35" x="139.013672"/>
      </g>
     </g>
    </g>
    <g id="ytick_3">
     <g id="text_9">
      <!-- 5.60 -->
      <g style="fill: #262626" transform="translate(10.689063 164.375443) scale(0.1 -0.1)">
       <defs>
        <path id="ArialMT-36" d="M 3184 3459 
L 2625 3416 
Q 2550 3747 2413 3897 
Q 2184 4138 1850 4138 
Q 1581 4138 1378 3988 
Q 1113 3794 959 3422 
Q 806 3050 800 2363 
Q 1003 2672 1297 2822 
Q 1591 2972 1913 2972 
Q 2475 2972 2870 2558 
Q 3266 2144 3266 1488 
Q 3266 1056 3080 686 
Q 2894 316 2569 119 
Q 2244 -78 1831 -78 
Q 1128 -78 684 439 
Q 241 956 241 2144 
Q 241 3472 731 4075 
Q 1159 4600 1884 4600 
Q 2425 4600 2770 4297 
Q 3116 3994 3184 3459 
z
M 888 1484 
Q 888 1194 1011 928 
Q 1134 663 1356 523 
Q 1578 384 1822 384 
Q 2178 384 2434 671 
Q 2691 959 2691 1453 
Q 2691 1928 2437 2201 
Q 2184 2475 1800 2475 
Q 1419 2475 1153 2201 
Q 888 1928 888 1484 
z
" transform="scale(0.015625)"/>
       </defs>
       <use xlink:href="#ArialMT-35"/>
       <use xlink:href="#ArialMT-2e" x="55.615234"/>
       <use xlink:href="#ArialMT-36" x="83.398438"/>
       <use xlink:href="#ArialMT-30" x="139.013672"/>
      </g>
     </g>
    </g>
    <g id="ytick_4">
     <g id="text_10">
      <!-- 5.65 -->
      <g style="fill: #262626" transform="translate(10.689063 119.434607) scale(0.1 -0.1)">
       <use xlink:href="#ArialMT-35"/>
       <use xlink:href="#ArialMT-2e" x="55.615234"/>
       <use xlink:href="#ArialMT-36" x="83.398438"/>
       <use xlink:href="#ArialMT-35" x="139.013672"/>
      </g>
     </g>
    </g>
    <g id="ytick_5">
     <g id="text_11">
      <!-- 5.70 -->
      <g style="fill: #262626" transform="translate(10.689063 74.493772) scale(0.1 -0.1)">
       <use xlink:href="#ArialMT-35"/>
       <use xlink:href="#ArialMT-2e" x="55.615234"/>
       <use xlink:href="#ArialMT-37" x="83.398438"/>
       <use xlink:href="#ArialMT-30" x="139.013672"/>
      </g>
     </g>
    </g>
    <g id="ytick_6">
     <g id="text_12">
      <!-- 5.75 -->
      <g style="fill: #262626" transform="translate(10.689063 29.552936) scale(0.1 -0.1)">
       <use xlink:href="#ArialMT-35"/>
       <use xlink:href="#ArialMT-2e" x="55.615234"/>
       <use xlink:href="#ArialMT-37" x="83.398438"/>
       <use xlink:href="#ArialMT-35" x="139.013672"/>
      </g>
     </g>
    </g>
   </g>
   <g id="PathCollection_1">
    <path d="M 54.606818 229.664761 
C 54.737401 229.664761 54.862652 229.61288 54.954988 229.520544 
C 55.047323 229.428208 55.099204 229.302957 55.099204 229.172375 
C 55.099204 229.041792 55.047323 228.916541 54.954988 228.824205 
C 54.862652 228.731869 54.737401 228.679988 54.606818 228.679988 
C 54.476236 228.679988 54.350984 228.731869 54.258649 228.824205 
C 54.166313 228.916541 54.114432 229.041792 54.114432 229.172375 
C 54.114432 229.302957 54.166313 229.428208 54.258649 229.520544 
C 54.350984 229.61288 54.476236 229.664761 54.606818 229.664761 
z
" clip-path="url(#pb4942622a8)" style="fill: #800080; fill-opacity: 0.8; stroke: #800080; stroke-opacity: 0.8"/>
    <path d="M 61.194297 200.156704 
C 61.323277 200.156704 61.446992 200.10546 61.538194 200.014257 
C 61.629397 199.923055 61.680641 199.79934 61.680641 199.67036 
C 61.680641 199.54138 61.629397 199.417665 61.538194 199.326463 
C 61.446992 199.23526 61.323277 199.184016 61.194297 199.184016 
C 61.065317 199.184016 60.941602 199.23526 60.850399 199.326463 
C 60.759197 199.417665 60.707952 199.54138 60.707952 199.67036 
C 60.707952 199.79934 60.759197 199.923055 60.850399 200.014257 
C 60.941602 200.10546 61.065317 200.156704 61.194297 200.156704 
z
" clip-path="url(#pb4942622a8)" style="fill: #800080; fill-opacity: 0.8; stroke: #800080; stroke-opacity: 0.8"/>
    <path d="M 67.781775 222.580887 
C 67.951177 222.580887 68.113663 222.513584 68.233448 222.393799 
C 68.353233 222.274014 68.420536 222.111528 68.420536 221.942126 
C 68.420536 221.772725 68.353233 221.610239 68.233448 221.490454 
C 68.113663 221.370669 67.951177 221.303365 67.781775 221.303365 
C 67.612374 221.303365 67.449888 221.370669 67.330103 221.490454 
C 67.210318 221.610239 67.143014 221.772725 67.143014 221.942126 
C 67.143014 222.111528 67.210318 222.274014 67.330103 222.393799 
C 67.449888 222.513584 67.612374 222.580887 67.781775 222.580887 
z
" clip-path="url(#pb4942622a8)" style="fill: #800080; fill-opacity: 0.8; stroke: #800080; stroke-opacity: 0.8"/>
    <path d="M 74.369254 217.512702 
C 74.545867 217.512702 74.71527 217.442533 74.840155 217.317648 
C 74.965039 217.192764 75.035208 217.023361 75.035208 216.846747 
C 75.035208 216.670134 74.965039 216.500731 74.840155 216.375846 
C 74.71527 216.250962 74.545867 216.180793 74.369254 216.180793 
C 74.192641 216.180793 74.023237 216.250962 73.898353 216.375846 
C 73.773469 216.500731 73.703299 216.670134 73.703299 216.846747 
C 73.703299 217.023361 73.773469 217.192764 73.898353 217.317648 
C 74.023237 217.442533 74.192641 217.512702 74.369254 217.512702 
z
" clip-path="url(#pb4942622a8)" style="fill: #800080; fill-opacity: 0.8; stroke: #800080; stroke-opacity: 0.8"/>
    <path d="M 80.956732 185.368345 
C 81.134519 185.368345 81.305048 185.29771 81.430762 185.171996 
C 81.556477 185.046281 81.627112 184.875752 81.627112 184.697966 
C 81.627112 184.520179 81.556477 184.34965 81.430762 184.223936 
C 81.305048 184.098222 81.134519 184.027586 80.956732 184.027586 
C 80.778946 184.027586 80.608417 184.098222 80.482703 184.223936 
C 80.356988 184.34965 80.286353 184.520179 80.286353 184.697966 
C 80.286353 184.875752 80.356988 185.046281 80.482703 185.171996 
C 80.608417 185.29771 80.778946 185.368345 80.956732 185.368345 
z
" clip-path="url(#pb4942622a8)" style="fill: #800080; fill-opacity: 0.8; stroke: #800080; stroke-opacity: 0.8"/>
    <path d="M 87.544211 225.357219 
C 87.772218 225.357219 87.990916 225.266631 88.152141 225.105406 
C 88.313367 224.944181 88.403955 224.725482 88.403955 224.497475 
C 88.403955 224.269469 88.313367 224.05077 88.152141 223.889545 
C 87.990916 223.72832 87.772218 223.637732 87.544211 223.637732 
C 87.316204 223.637732 87.097506 223.72832 86.93628 223.889545 
C 86.775055 224.05077 86.684467 224.269469 86.684467 224.497475 
C 86.684467 224.725482 86.775055 224.944181 86.93628 225.105406 
C 87.097506 225.266631 87.316204 225.357219 87.544211 225.357219 
z
" clip-path="url(#pb4942622a8)" style="fill: #800080; fill-opacity: 0.8; stroke: #800080; stroke-opacity: 0.8"/>
    <path d="M 94.13169 208.871752 
C 94.302314 208.871752 94.465973 208.803962 94.586623 208.683313 
C 94.707273 208.562663 94.775063 208.399004 94.775063 208.228379 
C 94.775063 208.057755 94.707273 207.894095 94.586623 207.773446 
C 94.465973 207.652796 94.302314 207.585006 94.13169 207.585006 
C 93.961065 207.585006 93.797406 207.652796 93.676756 207.773446 
C 93.556106 207.894095 93.488316 208.057755 93.488316 208.228379 
C 93.488316 208.399004 93.556106 208.562663 93.676756 208.683313 
C 93.797406 208.803962 93.961065 208.871752 94.13169 208.871752 
z
" clip-path="url(#pb4942622a8)" style="fill: #800080; fill-opacity: 0.8; stroke: #800080; stroke-opacity: 0.8"/>
    <path d="M 100.719168 172.091192 
C 100.934993 172.091192 101.142007 172.005444 101.294619 171.852832 
C 101.44723 171.700221 101.532978 171.493207 101.532978 171.277382 
C 101.532978 171.061557 101.44723 170.854543 101.294619 170.701931 
C 101.142007 170.54932 100.934993 170.463572 100.719168 170.463572 
C 100.503343 170.463572 100.296329 170.54932 100.143718 170.701931 
C 99.991106 170.854543 99.905358 171.061557 99.905358 171.277382 
C 99.905358 171.493207 99.991106 171.700221 100.143718 171.852832 
C 100.296329 172.005444 100.503343 172.091192 100.719168 172.091192 
z
" clip-path="url(#pb4942622a8)" style="fill: #800080; fill-opacity: 0.8; stroke: #800080; stroke-opacity: 0.8"/>
    <path d="M 107.306647 236.450448 
C 107.514621 236.450448 107.714105 236.367819 107.861165 236.220759 
C 108.008224 236.073699 108.090853 235.874215 108.090853 235.666241 
C 108.090853 235.458267 108.008224 235.258783 107.861165 235.111723 
C 107.714105 234.964663 107.514621 234.882034 107.306647 234.882034 
C 107.098673 234.882034 106.899189 234.964663 106.752129 235.111723 
C 106.605069 235.258783 106.52244 235.458267 106.52244 235.666241 
C 106.52244 235.874215 106.605069 236.073699 106.752129 236.220759 
C 106.899189 236.367819 107.098673 236.450448 107.306647 236.450448 
z
" clip-path="url(#pb4942622a8)" style="fill: #800080; fill-opacity: 0.8; stroke: #800080; stroke-opacity: 0.8"/>
    <path d="M 113.894125 175.807396 
C 114.133695 175.807396 114.363485 175.712214 114.532886 175.542813 
C 114.702288 175.373411 114.79747 175.143621 114.79747 174.904052 
C 114.79747 174.664482 114.702288 174.434692 114.532886 174.26529 
C 114.363485 174.095889 114.133695 174.000707 113.894125 174.000707 
C 113.654555 174.000707 113.424766 174.095889 113.255364 174.26529 
C 113.085963 174.434692 112.990781 174.664482 112.990781 174.904052 
C 112.990781 175.143621 113.085963 175.373411 113.255364 175.542813 
C 113.424766 175.712214 113.654555 175.807396 113.894125 175.807396 
z
" clip-path="url(#pb4942622a8)" style="fill: #800080; fill-opacity: 0.8; stroke: #800080; stroke-opacity: 0.8"/>
    <path d="M 120.481604 184.232154 
C 120.715908 184.232154 120.940647 184.139064 121.106324 183.973386 
C 121.272002 183.807708 121.365092 183.582969 121.365092 183.348666 
C 121.365092 183.114362 121.272002 182.889623 121.106324 182.723945 
C 120.940647 182.558267 120.715908 182.465177 120.481604 182.465177 
C 120.2473 182.465177 120.022561 182.558267 119.856883 182.723945 
C 119.691205 182.889623 119.598115 183.114362 119.598115 183.348666 
C 119.598115 183.582969 119.691205 183.807708 119.856883 183.973386 
C 120.022561 184.139064 120.2473 184.232154 120.481604 184.232154 
z
" clip-path="url(#pb4942622a8)" style="fill: #800080; fill-opacity: 0.8; stroke: #800080; stroke-opacity: 0.8"/>
    <path d="M 127.069082 202.823451 
C 127.326235 202.823451 127.57289 202.721283 127.754724 202.539448 
C 127.936559 202.357614 128.038727 202.110959 128.038727 201.853806 
C 128.038727 201.596654 127.936559 201.349999 127.754724 201.168164 
C 127.57289 200.98633 127.326235 200.884162 127.069082 200.884162 
C 126.81193 200.884162 126.565275 200.98633 126.38344 201.168164 
C 126.201606 201.349999 126.099438 201.596654 126.099438 201.853806 
C 126.099438 202.110959 126.201606 202.357614 126.38344 202.539448 
C 126.565275 202.721283 126.81193 202.823451 127.069082 202.823451 
z
" clip-path="url(#pb4942622a8)" style="fill: #800080; fill-opacity: 0.8; stroke: #800080; stroke-opacity: 0.8"/>
    <path d="M 133.656561 189.240406 
C 133.893512 189.240406 134.120791 189.146264 134.288341 188.978714 
C 134.455891 188.811164 134.550033 188.583885 134.550033 188.346934 
C 134.550033 188.109982 134.455891 187.882704 134.288341 187.715154 
C 134.120791 187.547604 133.893512 187.453462 133.656561 187.453462 
C 133.419609 187.453462 133.192331 187.547604 133.024781 187.715154 
C 132.857231 187.882704 132.763089 188.109982 132.763089 188.346934 
C 132.763089 188.583885 132.857231 188.811164 133.024781 188.978714 
C 133.192331 189.146264 133.419609 189.240406 133.656561 189.240406 
z
" clip-path="url(#pb4942622a8)" style="fill: #800080; fill-opacity: 0.8; stroke: #800080; stroke-opacity: 0.8"/>
    <path d="M 140.244039 194.071222 
C 140.492138 194.071222 140.730108 193.972651 140.905539 193.797219 
C 141.080971 193.621788 141.179542 193.383818 141.179542 193.13572 
C 141.179542 192.887621 141.080971 192.649651 140.905539 192.47422 
C 140.730108 192.298788 140.492138 192.200217 140.244039 192.200217 
C 139.995941 192.200217 139.757971 192.298788 139.58254 192.47422 
C 139.407108 192.649651 139.308537 192.887621 139.308537 193.13572 
C 139.308537 193.383818 139.407108 193.621788 139.58254 193.797219 
C 139.757971 193.972651 139.995941 194.071222 140.244039 194.071222 
z
" clip-path="url(#pb4942622a8)" style="fill: #800080; fill-opacity: 0.8; stroke: #800080; stroke-opacity: 0.8"/>
    <path d="M 146.831518 204.697273 
C 147.043454 204.697273 147.246738 204.61307 147.396599 204.463209 
C 147.54646 204.313347 147.630663 204.110063 147.630663 203.898128 
C 147.630663 203.686192 147.54646 203.482908 147.396599 203.333046 
C 147.246738 203.183185 147.043454 203.098982 146.831518 203.098982 
C 146.619582 203.098982 146.416298 203.183185 146.266437 203.333046 
C 146.116576 203.482908 146.032373 203.686192 146.032373 203.898128 
C 146.032373 204.110063 146.116576 204.313347 146.266437 204.463209 
C 146.416298 204.61307 146.619582 204.697273 146.831518 204.697273 
z
" clip-path="url(#pb4942622a8)" style="fill: #800080; fill-opacity: 0.8; stroke: #800080; stroke-opacity: 0.8"/>
    <path d="M 153.418997 176.662575 
C 153.656824 176.662575 153.884943 176.568086 154.053112 176.399916 
C 154.221281 176.231747 154.315771 176.003628 154.315771 175.765801 
C 154.315771 175.527973 154.221281 175.299855 154.053112 175.131685 
C 153.884943 174.963516 153.656824 174.869026 153.418997 174.869026 
C 153.181169 174.869026 152.95305 174.963516 152.784881 175.131685 
C 152.616712 175.299855 152.522222 175.527973 152.522222 175.765801 
C 152.522222 176.003628 152.616712 176.231747 152.784881 176.399916 
C 152.95305 176.568086 153.181169 176.662575 153.418997 176.662575 
z
" clip-path="url(#pb4942622a8)" style="fill: #800080; fill-opacity: 0.8; stroke: #800080; stroke-opacity: 0.8"/>
    <path d="M 160.006475 163.721711 
C 160.26119 163.721711 160.505507 163.620512 160.685618 163.440401 
C 160.865729 163.26029 160.966928 163.015973 160.966928 162.761258 
C 160.966928 162.506543 160.865729 162.262226 160.685618 162.082115 
C 160.505507 161.902004 160.26119 161.800805 160.006475 161.800805 
C 159.75176 161.800805 159.507443 161.902004 159.327332 162.082115 
C 159.147221 162.262226 159.046022 162.506543 159.046022 162.761258 
C 159.046022 163.015973 159.147221 163.26029 159.327332 163.440401 
C 159.507443 163.620512 159.75176 163.721711 160.006475 163.721711 
z
" clip-path="url(#pb4942622a8)" style="fill: #800080; fill-opacity: 0.8; stroke: #800080; stroke-opacity: 0.8"/>
    <path d="M 166.593954 196.540809 
C 166.839524 196.540809 167.07507 196.443243 167.248715 196.269598 
C 167.42236 196.095953 167.519926 195.860408 167.519926 195.614837 
C 167.519926 195.369266 167.42236 195.13372 167.248715 194.960076 
C 167.07507 194.786431 166.839524 194.688865 166.593954 194.688865 
C 166.348383 194.688865 166.112837 194.786431 165.939192 194.960076 
C 165.765548 195.13372 165.667982 195.369266 165.667982 195.614837 
C 165.667982 195.860408 165.765548 196.095953 165.939192 196.269598 
C 166.112837 196.443243 166.348383 196.540809 166.593954 196.540809 
z
" clip-path="url(#pb4942622a8)" style="fill: #800080; fill-opacity: 0.8; stroke: #800080; stroke-opacity: 0.8"/>
    <path d="M 173.181432 193.91406 
C 173.423592 193.91406 173.655866 193.817848 173.827099 193.646616 
C 173.998332 193.475383 174.094543 193.243109 174.094543 193.000949 
C 174.094543 192.758789 173.998332 192.526515 173.827099 192.355282 
C 173.655866 192.184049 173.423592 192.087838 173.181432 192.087838 
C 172.939272 192.087838 172.706998 192.184049 172.535765 192.355282 
C 172.364533 192.526515 172.268321 192.758789 172.268321 193.000949 
C 172.268321 193.243109 172.364533 193.475383 172.535765 193.646616 
C 172.706998 193.817848 172.939272 193.91406 173.181432 193.91406 
z
" clip-path="url(#pb4942622a8)" style="fill: #800080; fill-opacity: 0.8; stroke: #800080; stroke-opacity: 0.8"/>
    <path d="M 179.768911 182.567295 
C 180.011071 182.567295 180.243345 182.471084 180.414578 182.299851 
C 180.585811 182.128619 180.682022 181.896344 180.682022 181.654185 
C 180.682022 181.412025 180.585811 181.179751 180.414578 181.008518 
C 180.243345 180.837285 180.011071 180.741074 179.768911 180.741074 
C 179.526751 180.741074 179.294477 180.837285 179.123244 181.008518 
C 178.952011 181.179751 178.8558 181.412025 178.8558 181.654185 
C 178.8558 181.896344 178.952011 182.128619 179.123244 182.299851 
C 179.294477 182.471084 179.526751 182.567295 179.768911 182.567295 
z
" clip-path="url(#pb4942622a8)" style="fill: #800080; fill-opacity: 0.8; stroke: #800080; stroke-opacity: 0.8"/>
    <path d="M 186.356389 189.482029 
C 186.611105 189.482029 186.855422 189.38083 187.035532 189.200719 
C 187.215643 189.020608 187.316843 188.776291 187.316843 188.521576 
C 187.316843 188.266861 187.215643 188.022544 187.035532 187.842433 
C 186.855422 187.662322 186.611105 187.561122 186.356389 187.561122 
C 186.101674 187.561122 185.857357 187.662322 185.677246 187.842433 
C 185.497136 188.022544 185.395936 188.266861 185.395936 188.521576 
C 185.395936 188.776291 185.497136 189.020608 185.677246 189.200719 
C 185.857357 189.38083 186.101674 189.482029 186.356389 189.482029 
z
" clip-path="url(#pb4942622a8)" style="fill: #800080; fill-opacity: 0.8; stroke: #800080; stroke-opacity: 0.8"/>
    <path d="M 192.943868 187.015071 
C 193.217476 187.015071 193.479914 186.906365 193.673385 186.712895 
C 193.866855 186.519425 193.97556 186.256987 193.97556 185.983379 
C 193.97556 185.709771 193.866855 185.447332 193.673385 185.253862 
C 193.479914 185.060392 193.217476 184.951686 192.943868 184.951686 
C 192.67026 184.951686 192.407821 185.060392 192.214351 185.253862 
C 192.020881 185.447332 191.912176 185.709771 191.912176 185.983379 
C 191.912176 186.256987 192.020881 186.519425 192.214351 186.712895 
C 192.407821 186.906365 192.67026 187.015071 192.943868 187.015071 
z
" clip-path="url(#pb4942622a8)" style="fill: #800080; fill-opacity: 0.8; stroke: #800080; stroke-opacity: 0.8"/>
    <path d="M 199.531346 175.385718 
C 199.828281 175.385718 200.113094 175.267744 200.323058 175.05778 
C 200.533022 174.847816 200.650995 174.563003 200.650995 174.266069 
C 200.650995 173.969134 200.533022 173.684322 200.323058 173.474357 
C 200.113094 173.264393 199.828281 173.14642 199.531346 173.14642 
C 199.234412 173.14642 198.949599 173.264393 198.739635 173.474357 
C 198.529671 173.684322 198.411698 173.969134 198.411698 174.266069 
C 198.411698 174.563003 198.529671 174.847816 198.739635 175.05778 
C 198.949599 175.267744 199.234412 175.385718 199.531346 175.385718 
z
" clip-path="url(#pb4942622a8)" style="fill: #800080; fill-opacity: 0.8; stroke: #800080; stroke-opacity: 0.8"/>
    <path d="M 206.118825 186.641215 
C 206.405062 186.641215 206.679614 186.527492 206.882014 186.325092 
C 207.084414 186.122692 207.198137 185.84814 207.198137 185.561903 
C 207.198137 185.275666 207.084414 185.001114 206.882014 184.798714 
C 206.679614 184.596314 206.405062 184.482591 206.118825 184.482591 
C 205.832588 184.482591 205.558036 184.596314 205.355636 184.798714 
C 205.153236 185.001114 205.039513 185.275666 205.039513 185.561903 
C 205.039513 185.84814 205.153236 186.122692 205.355636 186.325092 
C 205.558036 186.527492 205.832588 186.641215 206.118825 186.641215 
z
" clip-path="url(#pb4942622a8)" style="fill: #800080; fill-opacity: 0.8; stroke: #800080; stroke-opacity: 0.8"/>
    <path d="M 212.706304 173.040378 
C 212.988148 173.040378 213.258486 172.9284 213.45778 172.729106 
C 213.657074 172.529812 213.769052 172.259473 213.769052 171.977629 
C 213.769052 171.695784 213.657074 171.425446 213.45778 171.226152 
C 213.258486 171.026858 212.988148 170.91488 212.706304 170.91488 
C 212.424459 170.91488 212.154121 171.026858 211.954827 171.226152 
C 211.755533 171.425446 211.643555 171.695784 211.643555 171.977629 
C 211.643555 172.259473 211.755533 172.529812 211.954827 172.729106 
C 212.154121 172.9284 212.424459 173.040378 212.706304 173.040378 
z
" clip-path="url(#pb4942622a8)" style="fill: #800080; fill-opacity: 0.8; stroke: #800080; stroke-opacity: 0.8"/>
    <path d="M 219.293782 149.805992 
C 219.599685 149.805992 219.8931 149.684455 220.109407 149.468149 
C 220.325713 149.251843 220.447249 148.958428 220.447249 148.652525 
C 220.447249 148.346621 220.325713 148.053206 220.109407 147.8369 
C 219.8931 147.620594 219.599685 147.499057 219.293782 147.499057 
C 218.987879 147.499057 218.694464 147.620594 218.478158 147.8369 
C 218.261852 148.053206 218.140315 148.346621 218.140315 148.652525 
C 218.140315 148.958428 218.261852 149.251843 218.478158 149.468149 
C 218.694464 149.684455 218.987879 149.805992 219.293782 149.805992 
z
" clip-path="url(#pb4942622a8)" style="fill: #800080; fill-opacity: 0.8; stroke: #800080; stroke-opacity: 0.8"/>
    <path d="M 225.881261 184.609904 
C 226.187843 184.609904 226.481909 184.488098 226.698696 184.271312 
C 226.915482 184.054526 227.037288 183.760459 227.037288 183.453877 
C 227.037288 183.147295 226.915482 182.853228 226.698696 182.636442 
C 226.481909 182.419656 226.187843 182.29785 225.881261 182.29785 
C 225.574679 182.29785 225.280612 182.419656 225.063826 182.636442 
C 224.84704 182.853228 224.725233 183.147295 224.725233 183.453877 
C 224.725233 183.760459 224.84704 184.054526 225.063826 184.271312 
C 225.280612 184.488098 225.574679 184.609904 225.881261 184.609904 
z
" clip-path="url(#pb4942622a8)" style="fill: #800080; fill-opacity: 0.8; stroke: #800080; stroke-opacity: 0.8"/>
    <path d="M 232.468739 167.311558 
C 232.783355 167.311558 233.085128 167.186559 233.307595 166.964092 
C 233.530062 166.741625 233.655061 166.439852 233.655061 166.125236 
C 233.655061 165.81062 233.530062 165.508847 233.307595 165.28638 
C 233.085128 165.063913 232.783355 164.938915 232.468739 164.938915 
C 232.154123 164.938915 231.85235 165.063913 231.629883 165.28638 
C 231.407416 165.508847 231.282418 165.81062 231.282418 166.125236 
C 231.282418 166.439852 231.407416 166.741625 231.629883 166.964092 
C 231.85235 167.186559 232.154123 167.311558 232.468739 167.311558 
z
" clip-path="url(#pb4942622a8)" style="fill: #800080; fill-opacity: 0.8; stroke: #800080; stroke-opacity: 0.8"/>
    <path d="M 239.056218 169.80087 
C 239.385054 169.80087 239.700466 169.670223 239.932988 169.4377 
C 240.16551 169.205178 240.296158 168.889767 240.296158 168.560931 
C 240.296158 168.232095 240.16551 167.916683 239.932988 167.684161 
C 239.700466 167.451639 239.385054 167.320991 239.056218 167.320991 
C 238.727382 167.320991 238.41197 167.451639 238.179448 167.684161 
C 237.946926 167.916683 237.816278 168.232095 237.816278 168.560931 
C 237.816278 168.889767 237.946926 169.205178 238.179448 169.4377 
C 238.41197 169.670223 238.727382 169.80087 239.056218 169.80087 
z
" clip-path="url(#pb4942622a8)" style="fill: #800080; fill-opacity: 0.8; stroke: #800080; stroke-opacity: 0.8"/>
    <path d="M 245.643696 121.932425 
C 245.986769 121.932425 246.315836 121.796121 246.558425 121.553532 
C 246.801014 121.310943 246.937318 120.981876 246.937318 120.638804 
C 246.937318 120.295731 246.801014 119.966664 246.558425 119.724075 
C 246.315836 119.481486 245.986769 119.345182 245.643696 119.345182 
C 245.300624 119.345182 244.971557 119.481486 244.728968 119.724075 
C 244.486379 119.966664 244.350075 120.295731 244.350075 120.638804 
C 244.350075 120.981876 244.486379 121.310943 244.728968 121.553532 
C 244.971557 121.796121 245.300624 121.932425 245.643696 121.932425 
z
" clip-path="url(#pb4942622a8)" style="fill: #800080; fill-opacity: 0.8; stroke: #800080; stroke-opacity: 0.8"/>
    <path d="M 252.231175 151.18243 
C 252.588499 151.18243 252.931235 151.040464 253.183901 150.787798 
C 253.436567 150.535132 253.578533 150.192396 253.578533 149.835072 
C 253.578533 149.477748 253.436567 149.135012 253.183901 148.882346 
C 252.931235 148.62968 252.588499 148.487714 252.231175 148.487714 
C 251.873851 148.487714 251.531115 148.62968 251.278449 148.882346 
C 251.025783 149.135012 250.883817 149.477748 250.883817 149.835072 
C 250.883817 150.192396 251.025783 150.535132 251.278449 150.787798 
C 251.531115 151.040464 251.873851 151.18243 252.231175 151.18243 
z
" clip-path="url(#pb4942622a8)" style="fill: #800080; fill-opacity: 0.8; stroke: #800080; stroke-opacity: 0.8"/>
    <path d="M 258.818654 157.679574 
C 259.177719 157.679574 259.522126 157.536916 259.776023 157.283019 
C 260.029921 157.029121 260.172579 156.684714 260.172579 156.325649 
C 260.172579 155.966583 260.029921 155.622176 259.776023 155.368279 
C 259.522126 155.114381 259.177719 154.971723 258.818654 154.971723 
C 258.459588 154.971723 258.115181 155.114381 257.861284 155.368279 
C 257.607386 155.622176 257.464728 155.966583 257.464728 156.325649 
C 257.464728 156.684714 257.607386 157.029121 257.861284 157.283019 
C 258.115181 157.536916 258.459588 157.679574 258.818654 157.679574 
z
" clip-path="url(#pb4942622a8)" style="fill: #800080; fill-opacity: 0.8; stroke: #800080; stroke-opacity: 0.8"/>
    <path d="M 265.406132 148.118605 
C 265.78766 148.118605 266.153613 147.967022 266.423394 147.697241 
C 266.693176 147.42746 266.844758 147.061507 266.844758 146.679978 
C 266.844758 146.29845 266.693176 145.932497 266.423394 145.662716 
C 266.153613 145.392935 265.78766 145.241352 265.406132 145.241352 
C 265.024604 145.241352 264.658651 145.392935 264.38887 145.662716 
C 264.119089 145.932497 263.967506 146.29845 263.967506 146.679978 
C 263.967506 147.061507 264.119089 147.42746 264.38887 147.697241 
C 264.658651 147.967022 265.024604 148.118605 265.406132 148.118605 
z
" clip-path="url(#pb4942622a8)" style="fill: #800080; fill-opacity: 0.8; stroke: #800080; stroke-opacity: 0.8"/>
    <path d="M 271.993611 142.516958 
C 272.413539 142.516958 272.816325 142.350119 273.11326 142.053184 
C 273.410194 141.75625 273.577033 141.353464 273.577033 140.933536 
C 273.577033 140.513607 273.410194 140.110821 273.11326 139.813887 
C 272.816325 139.516952 272.413539 139.350113 271.993611 139.350113 
C 271.573682 139.350113 271.170896 139.516952 270.873962 139.813887 
C 270.577027 140.110821 270.410188 140.513607 270.410188 140.933536 
C 270.410188 141.353464 270.577027 141.75625 270.873962 142.053184 
C 271.170896 142.350119 271.573682 142.516958 271.993611 142.516958 
z
" clip-path="url(#pb4942622a8)" style="fill: #800080; fill-opacity: 0.8; stroke: #800080; stroke-opacity: 0.8"/>
    <path d="M 278.581089 117.245864 
C 279.043443 117.245864 279.486922 117.062169 279.813855 116.735235 
C 280.140788 116.408302 280.324483 115.964823 280.324483 115.50247 
C 280.324483 115.040116 280.140788 114.596637 279.813855 114.269704 
C 279.486922 113.942771 279.043443 113.759076 278.581089 113.759076 
C 278.118736 113.759076 277.675257 113.942771 277.348324 114.269704 
C 277.02139 114.596637 276.837695 115.040116 276.837695 115.50247 
C 276.837695 115.964823 277.02139 116.408302 277.348324 116.735235 
C 277.675257 117.062169 278.118736 117.245864 278.581089 117.245864 
z
" clip-path="url(#pb4942622a8)" style="fill: #800080; fill-opacity: 0.8; stroke: #800080; stroke-opacity: 0.8"/>
    <path d="M 285.168568 119.263636 
C 285.650304 119.263636 286.112375 119.07224 286.453014 118.731601 
C 286.793653 118.390962 286.985049 117.928891 286.985049 117.447154 
C 286.985049 116.965418 286.793653 116.503347 286.453014 116.162708 
C 286.112375 115.822069 285.650304 115.630673 285.168568 115.630673 
C 284.686831 115.630673 284.22476 115.822069 283.884121 116.162708 
C 283.543482 116.503347 283.352086 116.965418 283.352086 117.447154 
C 283.352086 117.928891 283.543482 118.390962 283.884121 118.731601 
C 284.22476 119.07224 284.686831 119.263636 285.168568 119.263636 
z
" clip-path="url(#pb4942622a8)" style="fill: #800080; fill-opacity: 0.8; stroke: #800080; stroke-opacity: 0.8"/>
    <path d="M 291.756046 139.167719 
C 292.230388 139.167719 292.685365 138.979261 293.020776 138.643851 
C 293.356186 138.308441 293.544644 137.853463 293.544644 137.379122 
C 293.544644 136.90478 293.356186 136.449803 293.020776 136.114393 
C 292.685365 135.778982 292.230388 135.590525 291.756046 135.590525 
C 291.281705 135.590525 290.826727 135.778982 290.491317 136.114393 
C 290.155907 136.449803 289.967449 136.90478 289.967449 137.379122 
C 289.967449 137.853463 290.155907 138.308441 290.491317 138.643851 
C 290.826727 138.979261 291.281705 139.167719 291.756046 139.167719 
z
" clip-path="url(#pb4942622a8)" style="fill: #800080; fill-opacity: 0.8; stroke: #800080; stroke-opacity: 0.8"/>
    <path d="M 298.343525 110.613956 
C 298.82483 110.613956 299.286486 110.422731 299.62682 110.082398 
C 299.967154 109.742064 300.158378 109.280407 300.158378 108.799102 
C 300.158378 108.317798 299.967154 107.856141 299.62682 107.515807 
C 299.286486 107.175474 298.82483 106.984249 298.343525 106.984249 
C 297.86222 106.984249 297.400564 107.175474 297.06023 107.515807 
C 296.719896 107.856141 296.528672 108.317798 296.528672 108.799102 
C 296.528672 109.280407 296.719896 109.742064 297.06023 110.082398 
C 297.400564 110.422731 297.86222 110.613956 298.343525 110.613956 
z
" clip-path="url(#pb4942622a8)" style="fill: #800080; fill-opacity: 0.8; stroke: #800080; stroke-opacity: 0.8"/>
    <path d="M 304.931003 104.963551 
C 305.433032 104.963551 305.914567 104.764093 306.269555 104.409105 
C 306.624544 104.054116 306.824002 103.572582 306.824002 103.070553 
C 306.824002 102.568524 306.624544 102.086989 306.269555 101.732001 
C 305.914567 101.377012 305.433032 101.177554 304.931003 101.177554 
C 304.428974 101.177554 303.94744 101.377012 303.592451 101.732001 
C 303.237463 102.086989 303.038005 102.568524 303.038005 103.070553 
C 303.038005 103.572582 303.237463 104.054116 303.592451 104.409105 
C 303.94744 104.764093 304.428974 104.963551 304.931003 104.963551 
z
" clip-path="url(#pb4942622a8)" style="fill: #800080; fill-opacity: 0.8; stroke: #800080; stroke-opacity: 0.8"/>
    <path d="M 311.518482 94.743754 
C 312.048714 94.743754 312.5573 94.533091 312.932231 94.15816 
C 313.307161 93.783229 313.517825 93.274643 313.517825 92.744411 
C 313.517825 92.214179 313.307161 91.705593 312.932231 91.330662 
C 312.5573 90.955732 312.048714 90.745068 311.518482 90.745068 
C 310.98825 90.745068 310.479664 90.955732 310.104733 91.330662 
C 309.729803 91.705593 309.519139 92.214179 309.519139 92.744411 
C 309.519139 93.274643 309.729803 93.783229 310.104733 94.15816 
C 310.479664 94.533091 310.98825 94.743754 311.518482 94.743754 
z
" clip-path="url(#pb4942622a8)" style="fill: #800080; fill-opacity: 0.8; stroke: #800080; stroke-opacity: 0.8"/>
    <path d="M 318.105961 94.008192 
C 318.659599 94.008192 319.190636 93.788229 319.582118 93.396748 
C 319.973599 93.005266 320.193562 92.474229 320.193562 91.92059 
C 320.193562 91.366952 319.973599 90.835914 319.582118 90.444433 
C 319.190636 90.052951 318.659599 89.832988 318.105961 89.832988 
C 317.552322 89.832988 317.021285 90.052951 316.629803 90.444433 
C 316.238322 90.835914 316.018359 91.366952 316.018359 91.92059 
C 316.018359 92.474229 316.238322 93.005266 316.629803 93.396748 
C 317.021285 93.788229 317.552322 94.008192 318.105961 94.008192 
z
" clip-path="url(#pb4942622a8)" style="fill: #800080; fill-opacity: 0.8; stroke: #800080; stroke-opacity: 0.8"/>
    <path d="M 324.693439 73.278352 
C 325.260805 73.278352 325.805009 73.052935 326.206197 72.651747 
C 326.607385 72.250559 326.832802 71.706355 326.832802 71.138989 
C 326.832802 70.571623 326.607385 70.027419 326.206197 69.626231 
C 325.805009 69.225043 325.260805 68.999626 324.693439 68.999626 
C 324.126074 68.999626 323.581869 69.225043 323.180681 69.626231 
C 322.779493 70.027419 322.554076 70.571623 322.554076 71.138989 
C 322.554076 71.706355 322.779493 72.250559 323.180681 72.651747 
C 323.581869 73.052935 324.126074 73.278352 324.693439 73.278352 
z
" clip-path="url(#pb4942622a8)" style="fill: #800080; fill-opacity: 0.8; stroke: #800080; stroke-opacity: 0.8"/>
    <path d="M 331.280918 73.390597 
C 331.881403 73.390597 332.457374 73.152022 332.881981 72.727415 
C 333.306588 72.302808 333.545163 71.726837 333.545163 71.126352 
C 333.545163 70.525867 333.306588 69.949895 332.881981 69.525288 
C 332.457374 69.100682 331.881403 68.862106 331.280918 68.862106 
C 330.680433 68.862106 330.104461 69.100682 329.679854 69.525288 
C 329.255248 69.949895 329.016672 70.525867 329.016672 71.126352 
C 329.016672 71.726837 329.255248 72.302808 329.679854 72.727415 
C 330.104461 73.152022 330.680433 73.390597 331.280918 73.390597 
z
" clip-path="url(#pb4942622a8)" style="fill: #800080; fill-opacity: 0.8; stroke: #800080; stroke-opacity: 0.8"/>
    <path d="M 337.868396 84.249926 
C 338.486627 84.249926 339.079619 84.004301 339.516774 83.567146 
C 339.953929 83.129991 340.199554 82.536999 340.199554 81.918768 
C 340.199554 81.300538 339.953929 80.707546 339.516774 80.270391 
C 339.079619 79.833236 338.486627 79.587611 337.868396 79.587611 
C 337.250166 79.587611 336.657174 79.833236 336.220019 80.270391 
C 335.782864 80.707546 335.537238 81.300538 335.537238 81.918768 
C 335.537238 82.536999 335.782864 83.129991 336.220019 83.567146 
C 336.657174 84.004301 337.250166 84.249926 337.868396 84.249926 
z
" clip-path="url(#pb4942622a8)" style="fill: #800080; fill-opacity: 0.8; stroke: #800080; stroke-opacity: 0.8"/>
    <path d="M 344.455875 74.79085 
C 345.121092 74.79085 345.759153 74.526557 346.229532 74.056177 
C 346.699912 73.585798 346.964205 72.947737 346.964205 72.28252 
C 346.964205 71.617303 346.699912 70.979242 346.229532 70.508862 
C 345.759153 70.038483 345.121092 69.774189 344.455875 69.774189 
C 343.790658 69.774189 343.152597 70.038483 342.682217 70.508862 
C 342.211838 70.979242 341.947544 71.617303 341.947544 72.28252 
C 341.947544 72.947737 342.211838 73.585798 342.682217 74.056177 
C 343.152597 74.526557 343.790658 74.79085 344.455875 74.79085 
z
" clip-path="url(#pb4942622a8)" style="fill: #800080; fill-opacity: 0.8; stroke: #800080; stroke-opacity: 0.8"/>
    <path d="M 351.043353 55.399011 
C 351.756836 55.399011 352.441192 55.115541 352.9457 54.611033 
C 353.450208 54.106525 353.733678 53.422169 353.733678 52.708687 
C 353.733678 51.995204 353.450208 51.310848 352.9457 50.80634 
C 352.441192 50.301832 351.756836 50.018362 351.043353 50.018362 
C 350.329871 50.018362 349.645515 50.301832 349.141007 50.80634 
C 348.636499 51.310848 348.353029 51.995204 348.353029 52.708687 
C 348.353029 53.422169 348.636499 54.106525 349.141007 54.611033 
C 349.645515 55.115541 350.329871 55.399011 351.043353 55.399011 
z
" clip-path="url(#pb4942622a8)" style="fill: #800080; fill-opacity: 0.8; stroke: #800080; stroke-opacity: 0.8"/>
    <path d="M 357.630832 65.637991 
C 358.389789 65.637991 359.117764 65.336454 359.654428 64.79979 
C 360.191092 64.263126 360.492629 63.535151 360.492629 62.776194 
C 360.492629 62.017236 360.191092 61.289262 359.654428 60.752598 
C 359.117764 60.215934 358.389789 59.914397 357.630832 59.914397 
C 356.871874 59.914397 356.1439 60.215934 355.607236 60.752598 
C 355.070572 61.289262 354.769035 62.017236 354.769035 62.776194 
C 354.769035 63.535151 355.070572 64.263126 355.607236 64.79979 
C 356.1439 65.336454 356.871874 65.637991 357.630832 65.637991 
z
" clip-path="url(#pb4942622a8)" style="fill: #800080; fill-opacity: 0.8; stroke: #800080; stroke-opacity: 0.8"/>
    <path d="M 364.21831 49.938475 
C 364.996478 49.938475 365.742879 49.629306 366.293127 49.079058 
C 366.843374 48.52881 367.152544 47.78241 367.152544 47.004242 
C 367.152544 46.226074 366.843374 45.479673 366.293127 44.929426 
C 365.742879 44.379178 364.996478 44.070009 364.21831 44.070009 
C 363.440143 44.070009 362.693742 44.379178 362.143494 44.929426 
C 361.593247 45.479673 361.284077 46.226074 361.284077 47.004242 
C 361.284077 47.78241 361.593247 48.52881 362.143494 49.079058 
C 362.693742 49.629306 363.440143 49.938475 364.21831 49.938475 
z
" clip-path="url(#pb4942622a8)" style="fill: #800080; fill-opacity: 0.8; stroke: #800080; stroke-opacity: 0.8"/>
    <path d="M 370.805789 53.514739 
C 371.595101 53.514739 372.35219 53.201143 372.910318 52.643015 
C 373.468445 52.084888 373.782042 51.327798 373.782042 50.538486 
C 373.782042 49.749175 373.468445 48.992085 372.910318 48.433958 
C 372.35219 47.87583 371.595101 47.562234 370.805789 47.562234 
C 370.016478 47.562234 369.259388 47.87583 368.70126 48.433958 
C 368.143133 48.992085 367.829536 49.749175 367.829536 50.538486 
C 367.829536 51.327798 368.143133 52.084888 368.70126 52.643015 
C 369.259388 53.201143 370.016478 53.514739 370.805789 53.514739 
z
" clip-path="url(#pb4942622a8)" style="fill: #800080; fill-opacity: 0.8; stroke: #800080; stroke-opacity: 0.8"/>
    <path d="M 377.393268 39.107273 
C 378.188877 39.107273 378.952007 38.791174 379.514588 38.228593 
C 380.077169 37.666012 380.393268 36.902882 380.393268 36.107273 
C 380.393268 35.311663 380.077169 34.548533 379.514588 33.985952 
C 378.952007 33.423372 378.188877 33.107273 377.393268 33.107273 
C 376.597658 33.107273 375.834528 33.423372 375.271947 33.985952 
C 374.709367 34.548533 374.393268 35.311663 374.393268 36.107273 
C 374.393268 36.902882 374.709367 37.666012 375.271947 38.228593 
C 375.834528 38.791174 376.597658 39.107273 377.393268 39.107273 
z
" clip-path="url(#pb4942622a8)" style="fill: #800080; fill-opacity: 0.8; stroke: #800080; stroke-opacity: 0.8"/>
    <path d="M 383.980746 47.328484 
C 384.701767 47.328484 385.393353 47.042019 385.903191 46.532181 
C 386.41303 46.022343 386.699494 45.330756 386.699494 44.609736 
C 386.699494 43.888716 386.41303 43.197129 385.903191 42.687291 
C 385.393353 42.177452 384.701767 41.890988 383.980746 41.890988 
C 383.259726 41.890988 382.568139 42.177452 382.058301 42.687291 
C 381.548463 43.197129 381.261998 43.888716 381.261998 44.609736 
C 381.261998 45.330756 381.548463 46.022343 382.058301 46.532181 
C 382.568139 47.042019 383.259726 47.328484 383.980746 47.328484 
z
" clip-path="url(#pb4942622a8)" style="fill: #800080; fill-opacity: 0.8; stroke: #800080; stroke-opacity: 0.8"/>
    <path d="M 390.568225 45.31727 
C 391.284616 45.31727 391.971762 45.032645 392.478326 44.52608 
C 392.984891 44.019515 393.269517 43.332369 393.269517 42.615978 
C 393.269517 41.899587 392.984891 41.212441 392.478326 40.705876 
C 391.971762 40.199311 391.284616 39.914686 390.568225 39.914686 
C 389.851834 39.914686 389.164688 40.199311 388.658123 40.705876 
C 388.151558 41.212441 387.866933 41.899587 387.866933 42.615978 
C 387.866933 43.332369 388.151558 44.019515 388.658123 44.52608 
C 389.164688 45.032645 389.851834 45.31727 390.568225 45.31727 
z
" clip-path="url(#pb4942622a8)" style="fill: #800080; fill-opacity: 0.8; stroke: #800080; stroke-opacity: 0.8"/>
    <path d="M 397.155703 53.572576 
C 397.885325 53.572576 398.585161 53.282694 399.101081 52.766774 
C 399.617001 52.250854 399.906883 51.551018 399.906883 50.821396 
C 399.906883 50.091775 399.617001 49.391939 399.101081 48.876019 
C 398.585161 48.360099 397.885325 48.070217 397.155703 48.070217 
C 396.426082 48.070217 395.726246 48.360099 395.210326 48.876019 
C 394.694405 49.391939 394.404524 50.091775 394.404524 50.821396 
C 394.404524 51.551018 394.694405 52.250854 395.210326 52.766774 
C 395.726246 53.282694 396.426082 53.572576 397.155703 53.572576 
z
" clip-path="url(#pb4942622a8)" style="fill: #800080; fill-opacity: 0.8; stroke: #800080; stroke-opacity: 0.8"/>
    <path d="M 403.743182 80.141314 
C 404.426898 80.141314 405.082702 79.869671 405.566163 79.386211 
C 406.049623 78.902751 406.321266 78.246946 406.321266 77.56323 
C 406.321266 76.879514 406.049623 76.22371 405.566163 75.74025 
C 405.082702 75.256789 404.426898 74.985146 403.743182 74.985146 
C 403.059466 74.985146 402.403661 75.256789 401.920201 75.74025 
C 401.436741 76.22371 401.165098 76.879514 401.165098 77.56323 
C 401.165098 78.246946 401.436741 78.902751 401.920201 79.386211 
C 402.403661 79.869671 403.059466 80.141314 403.743182 80.141314 
z
" clip-path="url(#pb4942622a8)" style="fill: #800080; fill-opacity: 0.8; stroke: #800080; stroke-opacity: 0.8"/>
   </g>
   <g id="PolyCollection_1">
    <defs>
     <path id="mfd61369181" d="M 54.606818 -62.175967 
L 54.606818 -38.547273 
L 58.133448 -40.620378 
L 61.660078 -42.698612 
L 65.186708 -44.773636 
L 68.713338 -46.849045 
L 72.239968 -48.924649 
L 75.766598 -51.000254 
L 79.293228 -53.075859 
L 82.819858 -55.159569 
L 86.346488 -57.244121 
L 89.873118 -59.322083 
L 93.399747 -61.380672 
L 96.926377 -63.452469 
L 100.453007 -65.527902 
L 103.979637 -67.603335 
L 107.506267 -69.678768 
L 111.032897 -71.754201 
L 114.559527 -73.831991 
L 118.086157 -75.909852 
L 121.612787 -77.979538 
L 125.139417 -80.046302 
L 128.666047 -82.021541 
L 132.192677 -84.019899 
L 135.719307 -86.076066 
L 139.245937 -88.074 
L 142.772567 -90.097012 
L 146.299197 -92.157067 
L 149.825826 -94.219982 
L 153.352456 -96.282281 
L 156.879086 -98.342932 
L 160.405716 -100.40495 
L 163.932346 -102.464642 
L 167.458976 -104.450643 
L 170.985606 -106.380629 
L 174.512236 -108.446037 
L 178.038866 -110.509702 
L 181.565496 -112.52715 
L 185.092126 -114.476804 
L 188.618756 -116.353481 
L 192.145386 -118.38117 
L 195.672016 -120.431653 
L 199.198646 -122.346473 
L 202.725275 -124.333529 
L 206.251905 -126.279699 
L 209.778535 -128.146516 
L 213.305165 -130.1145 
L 216.831795 -132.040008 
L 220.358425 -133.84165 
L 223.885055 -135.739659 
L 227.411685 -137.562406 
L 230.938315 -139.351313 
L 234.464945 -141.239471 
L 237.991575 -143.124904 
L 241.518205 -145.008502 
L 245.044835 -146.888422 
L 248.571465 -148.575926 
L 252.098095 -150.26343 
L 255.624725 -152.078614 
L 259.151354 -153.912681 
L 262.677984 -155.747351 
L 266.204614 -157.656394 
L 269.731244 -159.436202 
L 273.257874 -161.200584 
L 276.784504 -163.007348 
L 280.311134 -164.760273 
L 283.837764 -166.429519 
L 287.364394 -168.098765 
L 290.891024 -169.768011 
L 294.417654 -171.437541 
L 297.944284 -173.110178 
L 301.470914 -174.853683 
L 304.997544 -176.626686 
L 308.524174 -178.356787 
L 312.050803 -180.173964 
L 315.577433 -181.946321 
L 319.104063 -183.721223 
L 322.630693 -185.496386 
L 326.157323 -187.271549 
L 329.683953 -189.046712 
L 333.210583 -190.803008 
L 336.737213 -192.59588 
L 340.263843 -194.369824 
L 343.790473 -196.108781 
L 347.317103 -197.804086 
L 350.843733 -199.496859 
L 354.370363 -201.252523 
L 357.896993 -203.025464 
L 361.423623 -204.767204 
L 364.950253 -206.485925 
L 368.476882 -208.096991 
L 372.003512 -209.708442 
L 375.530142 -211.39635 
L 379.056772 -213.115439 
L 382.583402 -214.833451 
L 386.110032 -216.549524 
L 389.636662 -218.265597 
L 393.163292 -219.983512 
L 396.689922 -221.648902 
L 400.216552 -223.363256 
L 403.743182 -225.116423 
L 403.743182 -245.925583 
L 403.743182 -245.925583 
L 400.216552 -243.927911 
L 396.689922 -241.897443 
L 393.163292 -239.845877 
L 389.636662 -237.806945 
L 386.110032 -235.768012 
L 382.583402 -233.787408 
L 379.056772 -231.842538 
L 375.530142 -229.840908 
L 372.003512 -227.913203 
L 368.476882 -225.970908 
L 364.950253 -223.959731 
L 361.423623 -222.000425 
L 357.896993 -219.875448 
L 354.370363 -217.839647 
L 350.843733 -215.817271 
L 347.317103 -213.815657 
L 343.790473 -211.807947 
L 340.263843 -209.809311 
L 336.737213 -207.813914 
L 333.210583 -205.817081 
L 329.683953 -203.863335 
L 326.157323 -201.913838 
L 322.630693 -199.94121 
L 319.104063 -197.985329 
L 315.577433 -196.051611 
L 312.050803 -194.15427 
L 308.524174 -192.17539 
L 304.997544 -190.324803 
L 301.470914 -188.424114 
L 297.944284 -186.434256 
L 294.417654 -184.466659 
L 290.891024 -182.437363 
L 287.364394 -180.536921 
L 283.837764 -178.673025 
L 280.311134 -176.806429 
L 276.784504 -174.904568 
L 273.257874 -172.951689 
L 269.731244 -171.055013 
L 266.204614 -169.108705 
L 262.677984 -167.284243 
L 259.151354 -165.400626 
L 255.624725 -163.519935 
L 252.098095 -161.624886 
L 248.571465 -159.689124 
L 245.044835 -157.822693 
L 241.518205 -155.956263 
L 237.991575 -154.057905 
L 234.464945 -152.187397 
L 230.938315 -150.319584 
L 227.411685 -148.493962 
L 223.885055 -146.629395 
L 220.358425 -144.764186 
L 216.831795 -142.915674 
L 213.305165 -141.082947 
L 209.778535 -139.27617 
L 206.251905 -137.429904 
L 202.725275 -135.585707 
L 199.198646 -133.771421 
L 195.672016 -132.0277 
L 192.145386 -130.306955 
L 188.618756 -128.433158 
L 185.092126 -126.617238 
L 181.565496 -124.774312 
L 178.038866 -123.044514 
L 174.512236 -121.308198 
L 170.985606 -119.576644 
L 167.458976 -117.832762 
L 163.932346 -115.941398 
L 160.405716 -114.049067 
L 156.879086 -112.319179 
L 153.352456 -110.591623 
L 149.825826 -108.864068 
L 146.299197 -107.13578 
L 142.772567 -105.359837 
L 139.245937 -103.534724 
L 135.719307 -101.742668 
L 132.192677 -99.901867 
L 128.666047 -98.188763 
L 125.139417 -96.471904 
L 121.612787 -94.737306 
L 118.086157 -93.037341 
L 114.559527 -91.263459 
L 111.032897 -89.564744 
L 107.506267 -87.86612 
L 103.979637 -86.167496 
L 100.453007 -84.467818 
L 96.926377 -82.753428 
L 93.399747 -81.039037 
L 89.873118 -79.324646 
L 86.346488 -77.610255 
L 82.819858 -75.894488 
L 79.293228 -74.152134 
L 75.766598 -72.38218 
L 72.239968 -70.727858 
L 68.713338 -69.036195 
L 65.186708 -67.322446 
L 61.660078 -65.607353 
L 58.133448 -63.892259 
L 54.606818 -62.175967 
z
" style="stroke: #ffffff; stroke-opacity: 0.15"/>
    </defs>
    <g clip-path="url(#pb4942622a8)">
     <use xlink:href="#mfd61369181" x="0" y="288" style="fill: #800080; fill-opacity: 0.15; stroke: #ffffff; stroke-opacity: 0.15"/>
    </g>
   </g>
   <g id="line2d_1">
    <path d="M 54.606818 236.722316 
L 58.133448 234.843853 
L 61.660078 232.965391 
L 65.186708 231.086928 
L 68.713338 229.208466 
L 72.239968 227.330003 
L 75.766598 225.451541 
L 79.293228 223.573078 
L 82.819858 221.694616 
L 86.346488 219.816153 
L 89.873118 217.937691 
L 93.399747 216.059228 
L 96.926377 214.180766 
L 100.453007 212.302303 
L 103.979637 210.423841 
L 107.506267 208.545378 
L 111.032897 206.666916 
L 114.559527 204.788453 
L 118.086157 202.909991 
L 121.612787 201.031528 
L 125.139417 199.153066 
L 128.666047 197.274603 
L 132.192677 195.396141 
L 135.719307 193.517678 
L 139.245937 191.639216 
L 142.772567 189.760753 
L 146.299197 187.882291 
L 149.825826 186.003828 
L 153.352456 184.125366 
L 156.879086 182.246903 
L 160.405716 180.368441 
L 163.932346 178.489978 
L 167.458976 176.611516 
L 170.985606 174.733053 
L 174.512236 172.854591 
L 178.038866 170.976128 
L 181.565496 169.097666 
L 185.092126 167.219203 
L 188.618756 165.340741 
L 192.145386 163.462278 
L 195.672016 161.583816 
L 199.198646 159.705353 
L 202.725275 157.826891 
L 206.251905 155.948428 
L 209.778535 154.069966 
L 213.305165 152.191503 
L 216.831795 150.313041 
L 220.358425 148.434578 
L 223.885055 146.556116 
L 227.411685 144.677653 
L 230.938315 142.799191 
L 234.464945 140.920728 
L 237.991575 139.042266 
L 241.518205 137.163803 
L 245.044835 135.285341 
L 248.571465 133.406878 
L 252.098095 131.528416 
L 255.624725 129.649953 
L 259.151354 127.771491 
L 262.677984 125.893028 
L 266.204614 124.014566 
L 269.731244 122.136103 
L 273.257874 120.257641 
L 276.784504 118.379178 
L 280.311134 116.500716 
L 283.837764 114.622253 
L 287.364394 112.743791 
L 290.891024 110.865328 
L 294.417654 108.986866 
L 297.944284 107.108403 
L 301.470914 105.229941 
L 304.997544 103.351478 
L 308.524174 101.473016 
L 312.050803 99.594553 
L 315.577433 97.716091 
L 319.104063 95.837628 
L 322.630693 93.959166 
L 326.157323 92.080703 
L 329.683953 90.202241 
L 333.210583 88.323778 
L 336.737213 86.445316 
L 340.263843 84.566853 
L 343.790473 82.688391 
L 347.317103 80.809928 
L 350.843733 78.931466 
L 354.370363 77.053003 
L 357.896993 75.174541 
L 361.423623 73.296078 
L 364.950253 71.417616 
L 368.476882 69.539153 
L 372.003512 67.660691 
L 375.530142 65.782229 
L 379.056772 63.903766 
L 382.583402 62.025304 
L 386.110032 60.146841 
L 389.636662 58.268379 
L 393.163292 56.389916 
L 396.689922 54.511454 
L 400.216552 52.632991 
L 403.743182 50.754529 
" clip-path="url(#pb4942622a8)" style="fill: none; stroke: #800080; stroke-width: 2.25; stroke-linecap: round"/>
   </g>
   <g id="patch_3">
    <path d="M 37.15 260.12 
L 37.15 25.44 
" style="fill: none; stroke: #ffffff; stroke-width: 0.8; stroke-linejoin: miter; stroke-linecap: square"/>
   </g>
   <g id="patch_4">
    <path d="M 421.2 260.12 
L 421.2 25.44 
" style="fill: none; stroke: #ffffff; stroke-width: 0.8; stroke-linejoin: miter; stroke-linecap: square"/>
   </g>
   <g id="patch_5">
    <path d="M 37.15 260.12 
L 421.2 260.12 
" style="fill: none; stroke: #ffffff; stroke-width: 0.8; stroke-linejoin: miter; stroke-linecap: square"/>
   </g>
   <g id="patch_6">
    <path d="M 37.15 25.44 
L 421.2 25.44 
" style="fill: none; stroke: #ffffff; stroke-width: 0.8; stroke-linejoin: miter; stroke-linecap: square"/>
   </g>
   <g id="text_13">
    <!-- Yearly average geek score from ranked games -->
    <g style="fill: #262626" transform="translate(105.003125 19.44) scale(0.12 -0.12)">
     <defs>
      <path id="ArialMT-59" d="M 1784 0 
L 1784 1941 
L 19 4581 
L 756 4581 
L 1659 3200 
Q 1909 2813 2125 2425 
Q 2331 2784 2625 3234 
L 3513 4581 
L 4219 4581 
L 2391 1941 
L 2391 0 
L 1784 0 
z
" transform="scale(0.015625)"/>
      <path id="ArialMT-65" d="M 2694 1069 
L 3275 997 
Q 3138 488 2766 206 
Q 2394 -75 1816 -75 
Q 1088 -75 661 373 
Q 234 822 234 1631 
Q 234 2469 665 2931 
Q 1097 3394 1784 3394 
Q 2450 3394 2872 2941 
Q 3294 2488 3294 1666 
Q 3294 1616 3291 1516 
L 816 1516 
Q 847 969 1125 678 
Q 1403 388 1819 388 
Q 2128 388 2347 550 
Q 2566 713 2694 1069 
z
M 847 1978 
L 2700 1978 
Q 2663 2397 2488 2606 
Q 2219 2931 1791 2931 
Q 1403 2931 1139 2672 
Q 875 2413 847 1978 
z
" transform="scale(0.015625)"/>
      <path id="ArialMT-61" d="M 2588 409 
Q 2275 144 1986 34 
Q 1697 -75 1366 -75 
Q 819 -75 525 192 
Q 231 459 231 875 
Q 231 1119 342 1320 
Q 453 1522 633 1644 
Q 813 1766 1038 1828 
Q 1203 1872 1538 1913 
Q 2219 1994 2541 2106 
Q 2544 2222 2544 2253 
Q 2544 2597 2384 2738 
Q 2169 2928 1744 2928 
Q 1347 2928 1158 2789 
Q 969 2650 878 2297 
L 328 2372 
Q 403 2725 575 2942 
Q 747 3159 1072 3276 
Q 1397 3394 1825 3394 
Q 2250 3394 2515 3294 
Q 2781 3194 2906 3042 
Q 3031 2891 3081 2659 
Q 3109 2516 3109 2141 
L 3109 1391 
Q 3109 606 3145 398 
Q 3181 191 3288 0 
L 2700 0 
Q 2613 175 2588 409 
z
M 2541 1666 
Q 2234 1541 1622 1453 
Q 1275 1403 1131 1340 
Q 988 1278 909 1158 
Q 831 1038 831 891 
Q 831 666 1001 516 
Q 1172 366 1500 366 
Q 1825 366 2078 508 
Q 2331 650 2450 897 
Q 2541 1088 2541 1459 
L 2541 1666 
z
" transform="scale(0.015625)"/>
      <path id="ArialMT-72" d="M 416 0 
L 416 3319 
L 922 3319 
L 922 2816 
Q 1116 3169 1280 3281 
Q 1444 3394 1641 3394 
Q 1925 3394 2219 3213 
L 2025 2691 
Q 1819 2813 1613 2813 
Q 1428 2813 1281 2702 
Q 1134 2591 1072 2394 
Q 978 2094 978 1738 
L 978 0 
L 416 0 
z
" transform="scale(0.015625)"/>
      <path id="ArialMT-6c" d="M 409 0 
L 409 4581 
L 972 4581 
L 972 0 
L 409 0 
z
" transform="scale(0.015625)"/>
      <path id="ArialMT-79" d="M 397 -1278 
L 334 -750 
Q 519 -800 656 -800 
Q 844 -800 956 -737 
Q 1069 -675 1141 -563 
Q 1194 -478 1313 -144 
Q 1328 -97 1363 -6 
L 103 3319 
L 709 3319 
L 1400 1397 
Q 1534 1031 1641 628 
Q 1738 1016 1872 1384 
L 2581 3319 
L 3144 3319 
L 1881 -56 
Q 1678 -603 1566 -809 
Q 1416 -1088 1222 -1217 
Q 1028 -1347 759 -1347 
Q 597 -1347 397 -1278 
z
" transform="scale(0.015625)"/>
      <path id="ArialMT-20" transform="scale(0.015625)"/>
      <path id="ArialMT-76" d="M 1344 0 
L 81 3319 
L 675 3319 
L 1388 1331 
Q 1503 1009 1600 663 
Q 1675 925 1809 1294 
L 2547 3319 
L 3125 3319 
L 1869 0 
L 1344 0 
z
" transform="scale(0.015625)"/>
      <path id="ArialMT-67" d="M 319 -275 
L 866 -356 
Q 900 -609 1056 -725 
Q 1266 -881 1628 -881 
Q 2019 -881 2231 -725 
Q 2444 -569 2519 -288 
Q 2563 -116 2559 434 
Q 2191 0 1641 0 
Q 956 0 581 494 
Q 206 988 206 1678 
Q 206 2153 378 2554 
Q 550 2956 876 3175 
Q 1203 3394 1644 3394 
Q 2231 3394 2613 2919 
L 2613 3319 
L 3131 3319 
L 3131 450 
Q 3131 -325 2973 -648 
Q 2816 -972 2473 -1159 
Q 2131 -1347 1631 -1347 
Q 1038 -1347 672 -1080 
Q 306 -813 319 -275 
z
M 784 1719 
Q 784 1066 1043 766 
Q 1303 466 1694 466 
Q 2081 466 2343 764 
Q 2606 1063 2606 1700 
Q 2606 2309 2336 2618 
Q 2066 2928 1684 2928 
Q 1309 2928 1046 2623 
Q 784 2319 784 1719 
z
" transform="scale(0.015625)"/>
      <path id="ArialMT-6b" d="M 425 0 
L 425 4581 
L 988 4581 
L 988 1969 
L 2319 3319 
L 3047 3319 
L 1778 2088 
L 3175 0 
L 2481 0 
L 1384 1697 
L 988 1316 
L 988 0 
L 425 0 
z
" transform="scale(0.015625)"/>
      <path id="ArialMT-73" d="M 197 991 
L 753 1078 
Q 800 744 1014 566 
Q 1228 388 1613 388 
Q 2000 388 2187 545 
Q 2375 703 2375 916 
Q 2375 1106 2209 1216 
Q 2094 1291 1634 1406 
Q 1016 1563 777 1677 
Q 538 1791 414 1992 
Q 291 2194 291 2438 
Q 291 2659 392 2848 
Q 494 3038 669 3163 
Q 800 3259 1026 3326 
Q 1253 3394 1513 3394 
Q 1903 3394 2198 3281 
Q 2494 3169 2634 2976 
Q 2775 2784 2828 2463 
L 2278 2388 
Q 2241 2644 2061 2787 
Q 1881 2931 1553 2931 
Q 1166 2931 1000 2803 
Q 834 2675 834 2503 
Q 834 2394 903 2306 
Q 972 2216 1119 2156 
Q 1203 2125 1616 2013 
Q 2213 1853 2448 1751 
Q 2684 1650 2818 1456 
Q 2953 1263 2953 975 
Q 2953 694 2789 445 
Q 2625 197 2315 61 
Q 2006 -75 1616 -75 
Q 969 -75 630 194 
Q 291 463 197 991 
z
" transform="scale(0.015625)"/>
      <path id="ArialMT-63" d="M 2588 1216 
L 3141 1144 
Q 3050 572 2676 248 
Q 2303 -75 1759 -75 
Q 1078 -75 664 370 
Q 250 816 250 1647 
Q 250 2184 428 2587 
Q 606 2991 970 3192 
Q 1334 3394 1763 3394 
Q 2303 3394 2647 3120 
Q 2991 2847 3088 2344 
L 2541 2259 
Q 2463 2594 2264 2762 
Q 2066 2931 1784 2931 
Q 1359 2931 1093 2626 
Q 828 2322 828 1663 
Q 828 994 1084 691 
Q 1341 388 1753 388 
Q 2084 388 2306 591 
Q 2528 794 2588 1216 
z
" transform="scale(0.015625)"/>
      <path id="ArialMT-6f" d="M 213 1659 
Q 213 2581 725 3025 
Q 1153 3394 1769 3394 
Q 2453 3394 2887 2945 
Q 3322 2497 3322 1706 
Q 3322 1066 3130 698 
Q 2938 331 2570 128 
Q 2203 -75 1769 -75 
Q 1072 -75 642 372 
Q 213 819 213 1659 
z
M 791 1659 
Q 791 1022 1069 705 
Q 1347 388 1769 388 
Q 2188 388 2466 706 
Q 2744 1025 2744 1678 
Q 2744 2294 2464 2611 
Q 2184 2928 1769 2928 
Q 1347 2928 1069 2612 
Q 791 2297 791 1659 
z
" transform="scale(0.015625)"/>
      <path id="ArialMT-66" d="M 556 0 
L 556 2881 
L 59 2881 
L 59 3319 
L 556 3319 
L 556 3672 
Q 556 4006 616 4169 
Q 697 4388 901 4523 
Q 1106 4659 1475 4659 
Q 1713 4659 2000 4603 
L 1916 4113 
Q 1741 4144 1584 4144 
Q 1328 4144 1222 4034 
Q 1116 3925 1116 3625 
L 1116 3319 
L 1763 3319 
L 1763 2881 
L 1116 2881 
L 1116 0 
L 556 0 
z
" transform="scale(0.015625)"/>
      <path id="ArialMT-6d" d="M 422 0 
L 422 3319 
L 925 3319 
L 925 2853 
Q 1081 3097 1340 3245 
Q 1600 3394 1931 3394 
Q 2300 3394 2536 3241 
Q 2772 3088 2869 2813 
Q 3263 3394 3894 3394 
Q 4388 3394 4653 3120 
Q 4919 2847 4919 2278 
L 4919 0 
L 4359 0 
L 4359 2091 
Q 4359 2428 4304 2576 
Q 4250 2725 4106 2815 
Q 3963 2906 3769 2906 
Q 3419 2906 3187 2673 
Q 2956 2441 2956 1928 
L 2956 0 
L 2394 0 
L 2394 2156 
Q 2394 2531 2256 2718 
Q 2119 2906 1806 2906 
Q 1569 2906 1367 2781 
Q 1166 2656 1075 2415 
Q 984 2175 984 1722 
L 984 0 
L 422 0 
z
" transform="scale(0.015625)"/>
      <path id="ArialMT-6e" d="M 422 0 
L 422 3319 
L 928 3319 
L 928 2847 
Q 1294 3394 1984 3394 
Q 2284 3394 2536 3286 
Q 2788 3178 2913 3003 
Q 3038 2828 3088 2588 
Q 3119 2431 3119 2041 
L 3119 0 
L 2556 0 
L 2556 2019 
Q 2556 2363 2490 2533 
Q 2425 2703 2258 2804 
Q 2091 2906 1866 2906 
Q 1506 2906 1245 2678 
Q 984 2450 984 1813 
L 984 0 
L 422 0 
z
" transform="scale(0.015625)"/>
      <path id="ArialMT-64" d="M 2575 0 
L 2575 419 
Q 2259 -75 1647 -75 
Q 1250 -75 917 144 
Q 584 363 401 755 
Q 219 1147 219 1656 
Q 219 2153 384 2558 
Q 550 2963 881 3178 
Q 1213 3394 1622 3394 
Q 1922 3394 2156 3267 
Q 2391 3141 2538 2938 
L 2538 4581 
L 3097 4581 
L 3097 0 
L 2575 0 
z
M 797 1656 
Q 797 1019 1065 703 
Q 1334 388 1700 388 
Q 2069 388 2326 689 
Q 2584 991 2584 1609 
Q 2584 2291 2321 2609 
Q 2059 2928 1675 2928 
Q 1300 2928 1048 2622 
Q 797 2316 797 1656 
z
" transform="scale(0.015625)"/>
     </defs>
     <use xlink:href="#ArialMT-59"/>
     <use xlink:href="#ArialMT-65" x="57.574219"/>
     <use xlink:href="#ArialMT-61" x="113.189453"/>
     <use xlink:href="#ArialMT-72" x="168.804688"/>
     <use xlink:href="#ArialMT-6c" x="202.105469"/>
     <use xlink:href="#ArialMT-79" x="224.322266"/>
     <use xlink:href="#ArialMT-20" x="274.322266"/>
     <use xlink:href="#ArialMT-61" x="302.105469"/>
     <use xlink:href="#ArialMT-76" x="357.720703"/>
     <use xlink:href="#ArialMT-65" x="407.720703"/>
     <use xlink:href="#ArialMT-72" x="463.335938"/>
     <use xlink:href="#ArialMT-61" x="496.636719"/>
     <use xlink:href="#ArialMT-67" x="552.251953"/>
     <use xlink:href="#ArialMT-65" x="607.867188"/>
     <use xlink:href="#ArialMT-20" x="663.482422"/>
     <use xlink:href="#ArialMT-67" x="691.265625"/>
     <use xlink:href="#ArialMT-65" x="746.880859"/>
     <use xlink:href="#ArialMT-65" x="802.496094"/>
     <use xlink:href="#ArialMT-6b" x="858.111328"/>
     <use xlink:href="#ArialMT-20" x="908.111328"/>
     <use xlink:href="#ArialMT-73" x="935.894531"/>
     <use xlink:href="#ArialMT-63" x="985.894531"/>
     <use xlink:href="#ArialMT-6f" x="1035.894531"/>
     <use xlink:href="#ArialMT-72" x="1091.509766"/>
     <use xlink:href="#ArialMT-65" x="1124.810547"/>
     <use xlink:href="#ArialMT-20" x="1180.425781"/>
     <use xlink:href="#ArialMT-66" x="1208.208984"/>
     <use xlink:href="#ArialMT-72" x="1235.992188"/>
     <use xlink:href="#ArialMT-6f" x="1269.292969"/>
     <use xlink:href="#ArialMT-6d" x="1324.908203"/>
     <use xlink:href="#ArialMT-20" x="1408.208984"/>
     <use xlink:href="#ArialMT-72" x="1435.992188"/>
     <use xlink:href="#ArialMT-61" x="1469.292969"/>
     <use xlink:href="#ArialMT-6e" x="1524.908203"/>
     <use xlink:href="#ArialMT-6b" x="1580.523438"/>
     <use xlink:href="#ArialMT-65" x="1630.523438"/>
     <use xlink:href="#ArialMT-64" x="1686.138672"/>
     <use xlink:href="#ArialMT-20" x="1741.753906"/>
     <use xlink:href="#ArialMT-67" x="1769.537109"/>
     <use xlink:href="#ArialMT-61" x="1825.152344"/>
     <use xlink:href="#ArialMT-6d" x="1880.767578"/>
     <use xlink:href="#ArialMT-65" x="1964.068359"/>
     <use xlink:href="#ArialMT-73" x="2019.683594"/>
    </g>
   </g>
  </g>
 </g>
 <defs>
  <clipPath id="pb4942622a8">
   <rect x="37.15" y="25.44" width="384.05" height="234.68"/>
  </clipPath>
 </defs>
</svg>
