<?xml version="1.0" encoding="utf-8" standalone="no"?>
<!DOCTYPE svg PUBLIC "-//W3C//DTD SVG 1.1//EN"
  "http://www.w3.org/Graphics/SVG/1.1/DTD/svg11.dtd">
<svg xmlns:xlink="http://www.w3.org/1999/xlink" width="460.8pt" height="345.6pt" viewBox="0 0 460.8 345.6" xmlns="http://www.w3.org/2000/svg" version="1.1">
 <metadata>
  <rdf:RDF xmlns:dc="http://purl.org/dc/elements/1.1/" xmlns:cc="http://creativecommons.org/ns#" xmlns:rdf="http://www.w3.org/1999/02/22-rdf-syntax-ns#">
   <cc:Work>
    <dc:type rdf:resource="http://purl.org/dc/dcmitype/StillImage"/>
    <dc:date>2024-08-19T22:01:49.355086</dc:date>
    <dc:format>image/svg+xml</dc:format>
    <dc:creator>
     <cc:Agent>
      <dc:title>Matplotlib v3.9.2, https://matplotlib.org/</dc:title>
     </cc:Agent>
    </dc:creator>
   </cc:Work>
  </rdf:RDF>
 </metadata>
 <defs>
  <style type="text/css">*{stroke-linejoin: round; stroke-linecap: butt}</style>
 </defs>
 <g id="figure_1">
  <g id="patch_1">
   <path d="M 0 345.6 
L 460.8 345.6 
L 460.8 0 
L 0 0 
z
" style="fill: #ffffff"/>
  </g>
  <g id="axes_1">
   <g id="patch_2">
    <path d="M 37.15 317.72 
L 450 317.72 
L 450 25.44 
L 37.15 25.44 
z
" style="fill: #eaeaf2"/>
   </g>
   <g id="matplotlib.axis_1">
    <g id="xtick_1">
     <g id="text_1">
      <!-- 1970 -->
      <g style="fill: #262626" transform="translate(44.794034 331.877812) scale(0.1 -0.1)">
       <defs>
        <path id="ArialMT-31" d="M 2384 0 
L 1822 0 
L 1822 3584 
Q 1619 3391 1289 3197 
Q 959 3003 697 2906 
L 697 3450 
Q 1169 3672 1522 3987 
Q 1875 4303 2022 4600 
L 2384 4600 
L 2384 0 
z
" transform="scale(0.015625)"/>
        <path id="ArialMT-39" d="M 350 1059 
L 891 1109 
Q 959 728 1153 556 
Q 1347 384 1650 384 
Q 1909 384 2104 503 
Q 2300 622 2425 820 
Q 2550 1019 2634 1356 
Q 2719 1694 2719 2044 
Q 2719 2081 2716 2156 
Q 2547 1888 2255 1720 
Q 1963 1553 1622 1553 
Q 1053 1553 659 1965 
Q 266 2378 266 3053 
Q 266 3750 677 4175 
Q 1088 4600 1706 4600 
Q 2153 4600 2523 4359 
Q 2894 4119 3086 3673 
Q 3278 3228 3278 2384 
Q 3278 1506 3087 986 
Q 2897 466 2520 194 
Q 2144 -78 1638 -78 
Q 1100 -78 759 220 
Q 419 519 350 1059 
z
M 2653 3081 
Q 2653 3566 2395 3850 
Q 2138 4134 1775 4134 
Q 1400 4134 1122 3828 
Q 844 3522 844 3034 
Q 844 2597 1108 2323 
Q 1372 2050 1759 2050 
Q 2150 2050 2401 2323 
Q 2653 2597 2653 3081 
z
" transform="scale(0.015625)"/>
        <path id="ArialMT-37" d="M 303 3981 
L 303 4522 
L 3269 4522 
L 3269 4084 
Q 2831 3619 2401 2847 
Q 1972 2075 1738 1259 
Q 1569 684 1522 0 
L 944 0 
Q 953 541 1156 1306 
Q 1359 2072 1739 2783 
Q 2119 3494 2547 3981 
L 303 3981 
z
" transform="scale(0.015625)"/>
        <path id="ArialMT-30" d="M 266 2259 
Q 266 3072 433 3567 
Q 600 4063 929 4331 
Q 1259 4600 1759 4600 
Q 2128 4600 2406 4451 
Q 2684 4303 2865 4023 
Q 3047 3744 3150 3342 
Q 3253 2941 3253 2259 
Q 3253 1453 3087 958 
Q 2922 463 2592 192 
Q 2263 -78 1759 -78 
Q 1097 -78 719 397 
Q 266 969 266 2259 
z
M 844 2259 
Q 844 1131 1108 757 
Q 1372 384 1759 384 
Q 2147 384 2411 759 
Q 2675 1134 2675 2259 
Q 2675 3391 2411 3762 
Q 2147 4134 1753 4134 
Q 1366 4134 1134 3806 
Q 844 3388 844 2259 
z
" transform="scale(0.015625)"/>
       </defs>
       <use xlink:href="#ArialMT-31"/>
       <use xlink:href="#ArialMT-39" x="55.615234"/>
       <use xlink:href="#ArialMT-37" x="111.230469"/>
       <use xlink:href="#ArialMT-30" x="166.845703"/>
      </g>
     </g>
    </g>
    <g id="xtick_2">
     <g id="text_2">
      <!-- 1980 -->
      <g style="fill: #262626" transform="translate(115.608785 331.877812) scale(0.1 -0.1)">
       <defs>
        <path id="ArialMT-38" d="M 1131 2484 
Q 781 2613 612 2850 
Q 444 3088 444 3419 
Q 444 3919 803 4259 
Q 1163 4600 1759 4600 
Q 2359 4600 2725 4251 
Q 3091 3903 3091 3403 
Q 3091 3084 2923 2848 
Q 2756 2613 2416 2484 
Q 2838 2347 3058 2040 
Q 3278 1734 3278 1309 
Q 3278 722 2862 322 
Q 2447 -78 1769 -78 
Q 1091 -78 675 323 
Q 259 725 259 1325 
Q 259 1772 486 2073 
Q 713 2375 1131 2484 
z
M 1019 3438 
Q 1019 3113 1228 2906 
Q 1438 2700 1772 2700 
Q 2097 2700 2305 2904 
Q 2513 3109 2513 3406 
Q 2513 3716 2298 3927 
Q 2084 4138 1766 4138 
Q 1444 4138 1231 3931 
Q 1019 3725 1019 3438 
z
M 838 1322 
Q 838 1081 952 856 
Q 1066 631 1291 507 
Q 1516 384 1775 384 
Q 2178 384 2440 643 
Q 2703 903 2703 1303 
Q 2703 1709 2433 1975 
Q 2163 2241 1756 2241 
Q 1359 2241 1098 1978 
Q 838 1716 838 1322 
z
" transform="scale(0.015625)"/>
       </defs>
       <use xlink:href="#ArialMT-31"/>
       <use xlink:href="#ArialMT-39" x="55.615234"/>
       <use xlink:href="#ArialMT-38" x="111.230469"/>
       <use xlink:href="#ArialMT-30" x="166.845703"/>
      </g>
     </g>
    </g>
    <g id="xtick_3">
     <g id="text_3">
      <!-- 1990 -->
      <g style="fill: #262626" transform="translate(186.423537 331.877812) scale(0.1 -0.1)">
       <use xlink:href="#ArialMT-31"/>
       <use xlink:href="#ArialMT-39" x="55.615234"/>
       <use xlink:href="#ArialMT-39" x="111.230469"/>
       <use xlink:href="#ArialMT-30" x="166.845703"/>
      </g>
     </g>
    </g>
    <g id="xtick_4">
     <g id="text_4">
      <!-- 2000 -->
      <g style="fill: #262626" transform="translate(257.238288 331.877812) scale(0.1 -0.1)">
       <defs>
        <path id="ArialMT-32" d="M 3222 541 
L 3222 0 
L 194 0 
Q 188 203 259 391 
Q 375 700 629 1000 
Q 884 1300 1366 1694 
Q 2113 2306 2375 2664 
Q 2638 3022 2638 3341 
Q 2638 3675 2398 3904 
Q 2159 4134 1775 4134 
Q 1369 4134 1125 3890 
Q 881 3647 878 3216 
L 300 3275 
Q 359 3922 746 4261 
Q 1134 4600 1788 4600 
Q 2447 4600 2831 4234 
Q 3216 3869 3216 3328 
Q 3216 3053 3103 2787 
Q 2991 2522 2730 2228 
Q 2469 1934 1863 1422 
Q 1356 997 1212 845 
Q 1069 694 975 541 
L 3222 541 
z
" transform="scale(0.015625)"/>
       </defs>
       <use xlink:href="#ArialMT-32"/>
       <use xlink:href="#ArialMT-30" x="55.615234"/>
       <use xlink:href="#ArialMT-30" x="111.230469"/>
       <use xlink:href="#ArialMT-30" x="166.845703"/>
      </g>
     </g>
    </g>
    <g id="xtick_5">
     <g id="text_5">
      <!-- 2010 -->
      <g style="fill: #262626" transform="translate(328.053039 331.877812) scale(0.1 -0.1)">
       <use xlink:href="#ArialMT-32"/>
       <use xlink:href="#ArialMT-30" x="55.615234"/>
       <use xlink:href="#ArialMT-31" x="111.230469"/>
       <use xlink:href="#ArialMT-30" x="166.845703"/>
      </g>
     </g>
    </g>
    <g id="xtick_6">
     <g id="text_6">
      <!-- 2020 -->
      <g style="fill: #262626" transform="translate(398.867791 331.877812) scale(0.1 -0.1)">
       <use xlink:href="#ArialMT-32"/>
       <use xlink:href="#ArialMT-30" x="55.615234"/>
       <use xlink:href="#ArialMT-32" x="111.230469"/>
       <use xlink:href="#ArialMT-30" x="166.845703"/>
      </g>
     </g>
    </g>
   </g>
   <g id="matplotlib.axis_2">
    <g id="ytick_1">
     <g id="text_7">
      <!-- 5.55 -->
      <g style="fill: #262626" transform="translate(10.689062 275.813795) scale(0.1 -0.1)">
       <defs>
        <path id="ArialMT-35" d="M 266 1200 
L 856 1250 
Q 922 819 1161 601 
Q 1400 384 1738 384 
Q 2144 384 2425 690 
Q 2706 997 2706 1503 
Q 2706 1984 2436 2262 
Q 2166 2541 1728 2541 
Q 1456 2541 1237 2417 
Q 1019 2294 894 2097 
L 366 2166 
L 809 4519 
L 3088 4519 
L 3088 3981 
L 1259 3981 
L 1013 2750 
Q 1425 3038 1878 3038 
Q 2478 3038 2890 2622 
Q 3303 2206 3303 1553 
Q 3303 931 2941 478 
Q 2500 -78 1738 -78 
Q 1113 -78 717 272 
Q 322 622 266 1200 
z
" transform="scale(0.015625)"/>
        <path id="ArialMT-2e" d="M 581 0 
L 581 641 
L 1222 641 
L 1222 0 
L 581 0 
z
" transform="scale(0.015625)"/>
       </defs>
       <use xlink:href="#ArialMT-35"/>
       <use xlink:href="#ArialMT-2e" x="55.615234"/>
       <use xlink:href="#ArialMT-35" x="83.398438"/>
       <use xlink:href="#ArialMT-35" x="139.013672"/>
      </g>
     </g>
    </g>
    <g id="ytick_2">
     <g id="text_8">
      <!-- 5.60 -->
      <g style="fill: #262626" transform="translate(10.689062 213.891378) scale(0.1 -0.1)">
       <defs>
        <path id="ArialMT-36" d="M 3184 3459 
L 2625 3416 
Q 2550 3747 2413 3897 
Q 2184 4138 1850 4138 
Q 1581 4138 1378 3988 
Q 1113 3794 959 3422 
Q 806 3050 800 2363 
Q 1003 2672 1297 2822 
Q 1591 2972 1913 2972 
Q 2475 2972 2870 2558 
Q 3266 2144 3266 1488 
Q 3266 1056 3080 686 
Q 2894 316 2569 119 
Q 2244 -78 1831 -78 
Q 1128 -78 684 439 
Q 241 956 241 2144 
Q 241 3472 731 4075 
Q 1159 4600 1884 4600 
Q 2425 4600 2770 4297 
Q 3116 3994 3184 3459 
z
M 888 1484 
Q 888 1194 1011 928 
Q 1134 663 1356 523 
Q 1578 384 1822 384 
Q 2178 384 2434 671 
Q 2691 959 2691 1453 
Q 2691 1928 2437 2201 
Q 2184 2475 1800 2475 
Q 1419 2475 1153 2201 
Q 888 1928 888 1484 
z
" transform="scale(0.015625)"/>
       </defs>
       <use xlink:href="#ArialMT-35"/>
       <use xlink:href="#ArialMT-2e" x="55.615234"/>
       <use xlink:href="#ArialMT-36" x="83.398438"/>
       <use xlink:href="#ArialMT-30" x="139.013672"/>
      </g>
     </g>
    </g>
    <g id="ytick_3">
     <g id="text_9">
      <!-- 5.65 -->
      <g style="fill: #262626" transform="translate(10.689062 151.968961) scale(0.1 -0.1)">
       <use xlink:href="#ArialMT-35"/>
       <use xlink:href="#ArialMT-2e" x="55.615234"/>
       <use xlink:href="#ArialMT-36" x="83.398438"/>
       <use xlink:href="#ArialMT-35" x="139.013672"/>
      </g>
     </g>
    </g>
    <g id="ytick_4">
     <g id="text_10">
      <!-- 5.70 -->
      <g style="fill: #262626" transform="translate(10.689062 90.046544) scale(0.1 -0.1)">
       <use xlink:href="#ArialMT-35"/>
       <use xlink:href="#ArialMT-2e" x="55.615234"/>
       <use xlink:href="#ArialMT-37" x="83.398438"/>
       <use xlink:href="#ArialMT-30" x="139.013672"/>
      </g>
     </g>
    </g>
   </g>
   <g id="PathCollection_1">
    <path d="M 55.915909 306.558009 
C 56.479058 306.558009 57.019218 306.334267 57.417424 305.936061 
C 57.815631 305.537854 58.039373 304.997695 58.039373 304.434545 
C 58.039373 303.871396 57.815631 303.331237 57.417424 302.93303 
C 57.019218 302.534824 56.479058 302.311082 55.915909 302.311082 
C 55.35276 302.311082 54.8126 302.534824 54.414394 302.93303 
C 54.016187 303.331237 53.792446 303.871396 53.792446 304.434545 
C 53.792446 304.997695 54.016187 305.537854 54.414394 305.936061 
C 54.8126 306.334267 55.35276 306.558009 55.915909 306.558009 
z
" clip-path="url(#p7b5a3432b7)" style="fill: #800080; stroke: #ffffff; stroke-width: 0.354218"/>
    <path d="M 62.997384 266.058605 
C 63.559965 266.058605 64.09958 265.835089 64.497384 265.437285 
C 64.895189 265.03948 65.118705 264.499866 65.118705 263.937285 
C 65.118705 263.374704 64.895189 262.835089 64.497384 262.437285 
C 64.09958 262.03948 63.559965 261.815964 62.997384 261.815964 
C 62.434803 261.815964 61.895189 262.03948 61.497384 262.437285 
C 61.09958 262.835089 60.876064 263.374704 60.876064 263.937285 
C 60.876064 264.499866 61.09958 265.03948 61.497384 265.437285 
C 61.895189 265.835089 62.434803 266.058605 62.997384 266.058605 
z
" clip-path="url(#p7b5a3432b7)" style="fill: #800080; stroke: #ffffff; stroke-width: 0.354218"/>
    <path d="M 70.078859 296.72196 
C 70.657696 296.72196 71.212903 296.491985 71.622202 296.082686 
C 72.031501 295.673387 72.261476 295.11818 72.261476 294.539343 
C 72.261476 293.960507 72.031501 293.4053 71.622202 292.996 
C 71.212903 292.586701 70.657696 292.356727 70.078859 292.356727 
C 69.500023 292.356727 68.944816 292.586701 68.535517 292.996 
C 68.126217 293.4053 67.896243 293.960507 67.896243 294.539343 
C 67.896243 295.11818 68.126217 295.673387 68.535517 296.082686 
C 68.944816 296.491985 69.500023 296.72196 70.078859 296.72196 
z
" clip-path="url(#p7b5a3432b7)" style="fill: #800080; stroke: #ffffff; stroke-width: 0.354218"/>
    <path d="M 77.160334 289.737195 
C 77.742478 289.737195 78.300856 289.505907 78.712494 289.094269 
C 79.124131 288.682632 79.355419 288.124253 79.355419 287.54211 
C 79.355419 286.959967 79.124131 286.401588 78.712494 285.989951 
C 78.300856 285.578314 77.742478 285.347026 77.160334 285.347026 
C 76.578191 285.347026 76.019813 285.578314 75.608175 285.989951 
C 75.196538 286.401588 74.96525 286.959967 74.96525 287.54211 
C 74.96525 288.124253 75.196538 288.682632 75.608175 289.094269 
C 76.019813 289.505907 76.578191 289.737195 77.160334 289.737195 
z
" clip-path="url(#p7b5a3432b7)" style="fill: #800080; stroke: #ffffff; stroke-width: 0.354218"/>
    <path d="M 84.24181 245.4152 
C 84.824502 245.4152 85.383407 245.183694 85.795433 244.771668 
C 86.207459 244.359642 86.438965 243.800737 86.438965 243.218044 
C 86.438965 242.635352 86.207459 242.076446 85.795433 241.66442 
C 85.383407 241.252395 84.824502 241.020888 84.24181 241.020888 
C 83.659117 241.020888 83.100212 241.252395 82.688186 241.66442 
C 82.27616 242.076446 82.044654 242.635352 82.044654 243.218044 
C 82.044654 243.800737 82.27616 244.359642 82.688186 244.771668 
C 83.100212 245.183694 83.659117 245.4152 84.24181 245.4152 
z
" clip-path="url(#p7b5a3432b7)" style="fill: #800080; stroke: #ffffff; stroke-width: 0.354218"/>
    <path d="M 91.323285 300.315738 
C 91.932285 300.315738 92.516425 300.07378 92.947053 299.643152 
C 93.377682 299.212523 93.61964 298.628384 93.61964 298.019383 
C 93.61964 297.410383 93.377682 296.826243 92.947053 296.395615 
C 92.516425 295.964986 91.932285 295.723028 91.323285 295.723028 
C 90.714284 295.723028 90.130145 295.964986 89.699516 296.395615 
C 89.268888 296.826243 89.026929 297.410383 89.026929 298.019383 
C 89.026929 298.628384 89.268888 299.212523 89.699516 299.643152 
C 90.130145 300.07378 90.714284 300.315738 91.323285 300.315738 
z
" clip-path="url(#p7b5a3432b7)" style="fill: #800080; stroke: #ffffff; stroke-width: 0.354218"/>
    <path d="M 98.40476 277.874859 
C 98.984149 277.874859 99.539886 277.644665 99.949576 277.234975 
C 100.359265 276.825285 100.589459 276.269549 100.589459 275.69016 
C 100.589459 275.110771 100.359265 274.555034 99.949576 274.145344 
C 99.539886 273.735654 98.984149 273.50546 98.40476 273.50546 
C 97.825371 273.50546 97.269634 273.735654 96.859944 274.145344 
C 96.450254 274.555034 96.220061 275.110771 96.220061 275.69016 
C 96.220061 276.269549 96.450254 276.825285 96.859944 277.234975 
C 97.269634 277.644665 97.825371 277.874859 98.40476 277.874859 
z
" clip-path="url(#p7b5a3432b7)" style="fill: #800080; stroke: #ffffff; stroke-width: 0.354218"/>
    <path d="M 105.486235 227.023239 
C 106.088368 227.023239 106.66592 226.784009 107.091692 226.358237 
C 107.517465 225.932464 107.756695 225.354912 107.756695 224.752779 
C 107.756695 224.150646 107.517465 223.573094 107.091692 223.147322 
C 106.66592 222.72155 106.088368 222.48232 105.486235 222.48232 
C 104.884102 222.48232 104.30655 222.72155 103.880778 223.147322 
C 103.455005 223.573094 103.215775 224.150646 103.215775 224.752779 
C 103.215775 225.354912 103.455005 225.932464 103.880778 226.358237 
C 104.30655 226.784009 104.884102 227.023239 105.486235 227.023239 
z
" clip-path="url(#p7b5a3432b7)" style="fill: #800080; stroke: #ffffff; stroke-width: 0.354218"/>
    <path d="M 112.56771 305.708529 
C 113.165042 305.708529 113.73799 305.471206 114.160367 305.048828 
C 114.582745 304.626451 114.820067 304.053503 114.820067 303.456171 
C 114.820067 302.858839 114.582745 302.285892 114.160367 301.863514 
C 113.73799 301.441137 113.165042 301.203814 112.56771 301.203814 
C 111.970378 301.203814 111.397431 301.441137 110.975053 301.863514 
C 110.552675 302.285892 110.315353 302.858839 110.315353 303.456171 
C 110.315353 304.053503 110.552675 304.626451 110.975053 305.048828 
C 111.397431 305.471206 111.970378 305.708529 112.56771 305.708529 
z
" clip-path="url(#p7b5a3432b7)" style="fill: #800080; stroke: #ffffff; stroke-width: 0.354218"/>
    <path d="M 119.649185 232.04092 
C 120.264977 232.04092 120.85563 231.796263 121.291061 231.360833 
C 121.726491 230.925402 121.971148 230.334749 121.971148 229.718957 
C 121.971148 229.103166 121.726491 228.512512 121.291061 228.077082 
C 120.85563 227.641651 120.264977 227.396995 119.649185 227.396995 
C 119.033394 227.396995 118.44274 227.641651 118.00731 228.077082 
C 117.571879 228.512512 117.327223 229.103166 117.327223 229.718957 
C 117.327223 230.334749 117.571879 230.925402 118.00731 231.360833 
C 118.44274 231.796263 119.033394 232.04092 119.649185 232.04092 
z
" clip-path="url(#p7b5a3432b7)" style="fill: #800080; stroke: #ffffff; stroke-width: 0.354218"/>
    <path d="M 126.73066 243.658166 
C 127.343327 243.658166 127.930983 243.414751 128.364204 242.98153 
C 128.797424 242.54831 129.040839 241.960654 129.040839 241.347987 
C 129.040839 240.73532 128.797424 240.147665 128.364204 239.714444 
C 127.930983 239.281223 127.343327 239.037808 126.73066 239.037808 
C 126.117994 239.037808 125.530338 239.281223 125.097117 239.714444 
C 124.663896 240.147665 124.420481 240.73532 124.420481 241.347987 
C 124.420481 241.960654 124.663896 242.54831 125.097117 242.98153 
C 125.530338 243.414751 126.117994 243.658166 126.73066 243.658166 
z
" clip-path="url(#p7b5a3432b7)" style="fill: #800080; stroke: #ffffff; stroke-width: 0.354218"/>
    <path d="M 133.812136 269.695299 
C 134.439252 269.695299 135.040768 269.446143 135.484207 269.002704 
C 135.927645 268.559266 136.176801 267.95775 136.176801 267.330633 
C 136.176801 266.703517 135.927645 266.102001 135.484207 265.658562 
C 135.040768 265.215124 134.439252 264.965967 133.812136 264.965967 
C 133.185019 264.965967 132.583503 265.215124 132.140064 265.658562 
C 131.696626 266.102001 131.44747 266.703517 131.44747 267.330633 
C 131.44747 267.95775 131.696626 268.559266 132.140064 269.002704 
C 132.583503 269.446143 133.185019 269.695299 133.812136 269.695299 
z
" clip-path="url(#p7b5a3432b7)" style="fill: #800080; stroke: #ffffff; stroke-width: 0.354218"/>
    <path d="M 140.893611 251.171025 
C 141.508362 251.171025 142.098018 250.926782 142.532713 250.492087 
C 142.967408 250.057392 143.211652 249.467736 143.211652 248.852984 
C 143.211652 248.238232 142.967408 247.648576 142.532713 247.213881 
C 142.098018 246.779186 141.508362 246.534943 140.893611 246.534943 
C 140.278859 246.534943 139.689203 246.779186 139.254508 247.213881 
C 138.819813 247.648576 138.575569 248.238232 138.575569 248.852984 
C 138.575569 249.467736 138.819813 250.057392 139.254508 250.492087 
C 139.689203 250.926782 140.278859 251.171025 140.893611 251.171025 
z
" clip-path="url(#p7b5a3432b7)" style="fill: #800080; stroke: #ffffff; stroke-width: 0.354218"/>
    <path d="M 147.975086 248.133543 
C 148.595535 248.133543 149.190656 247.887036 149.629381 247.448311 
C 150.068105 247.009587 150.314612 246.414466 150.314612 245.794017 
C 150.314612 245.173567 150.068105 244.578446 149.629381 244.139722 
C 149.190656 243.700998 148.595535 243.45449 147.975086 243.45449 
C 147.354636 243.45449 146.759515 243.700998 146.320791 244.139722 
C 145.882067 244.578446 145.63556 245.173567 145.63556 245.794017 
C 145.63556 246.414466 145.882067 247.009587 146.320791 247.448311 
C 146.759515 247.887036 147.354636 248.133543 147.975086 248.133543 
z
" clip-path="url(#p7b5a3432b7)" style="fill: #800080; stroke: #ffffff; stroke-width: 0.354218"/>
    <path d="M 155.056561 271.946117 
C 155.656565 271.946117 156.232075 271.707733 156.656342 271.283466 
C 157.080609 270.859199 157.318993 270.283689 157.318993 269.683685 
C 157.318993 269.083681 157.080609 268.508171 156.656342 268.083904 
C 156.232075 267.659637 155.656565 267.421253 155.056561 267.421253 
C 154.456557 267.421253 153.881047 267.659637 153.45678 268.083904 
C 153.032513 268.508171 152.794129 269.083681 152.794129 269.683685 
C 152.794129 270.283689 153.032513 270.859199 153.45678 271.283466 
C 153.881047 271.707733 154.456557 271.946117 155.056561 271.946117 
z
" clip-path="url(#p7b5a3432b7)" style="fill: #800080; stroke: #ffffff; stroke-width: 0.354218"/>
    <path d="M 162.138036 233.970939 
C 162.753308 233.970939 163.343463 233.726489 163.778526 233.291426 
C 164.213589 232.856363 164.458039 232.266209 164.458039 231.650937 
C 164.458039 231.035665 164.213589 230.44551 163.778526 230.010447 
C 163.343463 229.575384 162.753308 229.330934 162.138036 229.330934 
C 161.522764 229.330934 160.932609 229.575384 160.497546 230.010447 
C 160.062483 230.44551 159.818033 231.035665 159.818033 231.650937 
C 159.818033 232.266209 160.062483 232.856363 160.497546 233.291426 
C 160.932609 233.726489 161.522764 233.970939 162.138036 233.970939 
z
" clip-path="url(#p7b5a3432b7)" style="fill: #800080; stroke: #ffffff; stroke-width: 0.354218"/>
    <path d="M 169.219511 215.356864 
C 169.844584 215.356864 170.44414 215.10852 170.886133 214.666526 
C 171.328126 214.224533 171.57647 213.624978 171.57647 212.999905 
C 171.57647 212.374832 171.328126 211.775276 170.886133 211.333283 
C 170.44414 210.89129 169.844584 210.642946 169.219511 210.642946 
C 168.594438 210.642946 167.994883 210.89129 167.552889 211.333283 
C 167.110896 211.775276 166.862552 212.374832 166.862552 212.999905 
C 166.862552 213.624978 167.110896 214.224533 167.552889 214.666526 
C 167.994883 215.10852 168.594438 215.356864 169.219511 215.356864 
z
" clip-path="url(#p7b5a3432b7)" style="fill: #800080; stroke: #ffffff; stroke-width: 0.354218"/>
    <path d="M 176.300986 261.011461 
C 176.92092 261.011461 177.515546 260.765158 177.953906 260.326799 
C 178.392265 259.888439 178.638567 259.293813 178.638567 258.673879 
C 178.638567 258.053946 178.392265 257.459319 177.953906 257.02096 
C 177.515546 256.5826 176.92092 256.336298 176.300986 256.336298 
C 175.681053 256.336298 175.086426 256.5826 174.648067 257.02096 
C 174.209707 257.459319 173.963405 258.053946 173.963405 258.673879 
C 173.963405 259.293813 174.209707 259.888439 174.648067 260.326799 
C 175.086426 260.765158 175.681053 261.011461 176.300986 261.011461 
z
" clip-path="url(#p7b5a3432b7)" style="fill: #800080; stroke: #ffffff; stroke-width: 0.354218"/>
    <path d="M 183.382461 257.026292 
C 183.99981 257.026292 184.591956 256.781017 185.028487 256.344486 
C 185.465018 255.907955 185.710293 255.315808 185.710293 254.69846 
C 185.710293 254.081112 185.465018 253.488966 185.028487 253.052435 
C 184.591956 252.615904 183.99981 252.370628 183.382461 252.370628 
C 182.765113 252.370628 182.172967 252.615904 181.736436 253.052435 
C 181.299905 253.488966 181.05463 254.081112 181.05463 254.69846 
C 181.05463 255.315808 181.299905 255.907955 181.736436 256.344486 
C 182.172967 256.781017 182.765113 257.026292 183.382461 257.026292 
z
" clip-path="url(#p7b5a3432b7)" style="fill: #800080; stroke: #ffffff; stroke-width: 0.354218"/>
    <path d="M 190.463937 241.322767 
C 191.081285 241.322767 191.673431 241.077492 192.109962 240.640961 
C 192.546493 240.20443 192.791768 239.612283 192.791768 238.994935 
C 192.791768 238.377587 192.546493 237.785441 192.109962 237.34891 
C 191.673431 236.912379 191.081285 236.667104 190.463937 236.667104 
C 189.846588 236.667104 189.254442 236.912379 188.817911 237.34891 
C 188.38138 237.785441 188.136105 238.377587 188.136105 238.994935 
C 188.136105 239.612283 188.38138 240.20443 188.817911 240.640961 
C 189.254442 241.077492 189.846588 241.322767 190.463937 241.322767 
z
" clip-path="url(#p7b5a3432b7)" style="fill: #800080; stroke: #ffffff; stroke-width: 0.354218"/>
    <path d="M 197.545412 250.130562 
C 198.169973 250.130562 198.769037 249.882422 199.210668 249.440791 
C 199.652299 248.999159 199.90044 248.400095 199.90044 247.775534 
C 199.90044 247.150973 199.652299 246.551909 199.210668 246.110277 
C 198.769037 245.668646 198.169973 245.420506 197.545412 245.420506 
C 196.920851 245.420506 196.321786 245.668646 195.880155 246.110277 
C 195.438524 246.551909 195.190383 247.150973 195.190383 247.775534 
C 195.190383 248.400095 195.438524 248.999159 195.880155 249.440791 
C 196.321786 249.882422 196.920851 250.130562 197.545412 250.130562 
z
" clip-path="url(#p7b5a3432b7)" style="fill: #800080; stroke: #ffffff; stroke-width: 0.354218"/>
    <path d="M 204.626887 247.429007 
C 205.264124 247.429007 205.875348 247.17583 206.325943 246.725235 
C 206.776538 246.27464 207.029715 245.663416 207.029715 245.026179 
C 207.029715 244.388941 206.776538 243.777717 206.325943 243.327122 
C 205.875348 242.876527 205.264124 242.62335 204.626887 242.62335 
C 203.989649 242.62335 203.378425 242.876527 202.92783 243.327122 
C 202.477235 243.777717 202.224058 244.388941 202.224058 245.026179 
C 202.224058 245.663416 202.477235 246.27464 202.92783 246.725235 
C 203.378425 247.17583 203.989649 247.429007 204.626887 247.429007 
z
" clip-path="url(#p7b5a3432b7)" style="fill: #800080; stroke: #ffffff; stroke-width: 0.354218"/>
    <path d="M 211.708362 231.277549 
C 212.361467 231.277549 212.98791 231.018068 213.449725 230.556253 
C 213.91154 230.094438 214.171021 229.467995 214.171021 228.81489 
C 214.171021 228.161785 213.91154 227.535342 213.449725 227.073527 
C 212.98791 226.611712 212.361467 226.352231 211.708362 226.352231 
C 211.055257 226.352231 210.428814 226.611712 209.966999 227.073527 
C 209.505184 227.535342 209.245703 228.161785 209.245703 228.81489 
C 209.245703 229.467995 209.505184 230.094438 209.966999 230.556253 
C 210.428814 231.018068 211.055257 231.277549 211.708362 231.277549 
z
" clip-path="url(#p7b5a3432b7)" style="fill: #800080; stroke: #ffffff; stroke-width: 0.354218"/>
    <path d="M 218.789837 246.841751 
C 219.435553 246.841751 220.054908 246.585206 220.511498 246.128616 
C 220.968088 245.672026 221.224634 245.05267 221.224634 244.406955 
C 221.224634 243.761239 220.968088 243.141883 220.511498 242.685293 
C 220.054908 242.228703 219.435553 241.972158 218.789837 241.972158 
C 218.144121 241.972158 217.524766 242.228703 217.068176 242.685293 
C 216.611586 243.141883 216.35504 243.761239 216.35504 244.406955 
C 216.35504 245.05267 216.611586 245.672026 217.068176 246.128616 
C 217.524766 246.585206 218.144121 246.841751 218.789837 246.841751 
z
" clip-path="url(#p7b5a3432b7)" style="fill: #800080; stroke: #ffffff; stroke-width: 0.354218"/>
    <path d="M 225.871312 228.142331 
C 226.514048 228.142331 227.130546 227.886969 227.585029 227.432486 
C 228.039512 226.978003 228.294874 226.361505 228.294874 225.718769 
C 228.294874 225.076033 228.039512 224.459535 227.585029 224.005052 
C 227.130546 223.550569 226.514048 223.295207 225.871312 223.295207 
C 225.228576 223.295207 224.612078 223.550569 224.157595 224.005052 
C 223.703112 224.459535 223.44775 225.076033 223.44775 225.718769 
C 223.44775 226.361505 223.703112 226.978003 224.157595 227.432486 
C 224.612078 227.886969 225.228576 228.142331 225.871312 228.142331 
z
" clip-path="url(#p7b5a3432b7)" style="fill: #800080; stroke: #ffffff; stroke-width: 0.354218"/>
    <path d="M 232.952787 195.310305 
C 233.611744 195.310305 234.2438 195.048499 234.709753 194.582547 
C 235.175705 194.116594 235.437512 193.484538 235.437512 192.825581 
C 235.437512 192.166625 235.175705 191.534569 234.709753 191.068616 
C 234.2438 190.602663 233.611744 190.340857 232.952787 190.340857 
C 232.293831 190.340857 231.661775 190.602663 231.195822 191.068616 
C 230.729869 191.534569 230.468063 192.166625 230.468063 192.825581 
C 230.468063 193.484538 230.729869 194.116594 231.195822 194.582547 
C 231.661775 195.048499 232.293831 195.310305 232.952787 195.310305 
z
" clip-path="url(#p7b5a3432b7)" style="fill: #800080; stroke: #ffffff; stroke-width: 0.354218"/>
    <path d="M 240.034262 244.494575 
C 240.694674 244.494575 241.328125 244.23219 241.795107 243.765209 
C 242.262088 243.298228 242.524472 242.664776 242.524472 242.004365 
C 242.524472 241.343953 242.262088 240.710502 241.795107 240.24352 
C 241.328125 239.776539 240.694674 239.514155 240.034262 239.514155 
C 239.373851 239.514155 238.740399 239.776539 238.273418 240.24352 
C 237.806437 240.710502 237.544052 241.343953 237.544052 242.004365 
C 237.544052 242.664776 237.806437 243.298228 238.273418 243.765209 
C 238.740399 244.23219 239.373851 244.494575 240.034262 244.494575 
z
" clip-path="url(#p7b5a3432b7)" style="fill: #800080; stroke: #ffffff; stroke-width: 0.354218"/>
    <path d="M 247.115738 220.179077 
C 247.781456 220.179077 248.419998 219.914584 248.890732 219.44385 
C 249.361466 218.973116 249.625959 218.334573 249.625959 217.668855 
C 249.625959 217.003136 249.361466 216.364594 248.890732 215.89386 
C 248.419998 215.423126 247.781456 215.158633 247.115738 215.158633 
C 246.450019 215.158633 245.811477 215.423126 245.340743 215.89386 
C 244.870009 216.364594 244.605516 217.003136 244.605516 217.668855 
C 244.605516 218.334573 244.870009 218.973116 245.340743 219.44385 
C 245.811477 219.914584 246.450019 220.179077 247.115738 220.179077 
z
" clip-path="url(#p7b5a3432b7)" style="fill: #800080; stroke: #ffffff; stroke-width: 0.354218"/>
    <path d="M 254.197213 223.512902 
C 254.873421 223.512902 255.522024 223.244241 256.000175 222.76609 
C 256.478326 222.287939 256.746987 221.639335 256.746987 220.963127 
C 256.746987 220.286919 256.478326 219.638316 256.000175 219.160165 
C 255.522024 218.682014 254.873421 218.413353 254.197213 218.413353 
C 253.521005 218.413353 252.872401 218.682014 252.39425 219.160165 
C 251.916099 219.638316 251.647439 220.286919 251.647439 220.963127 
C 251.647439 221.639335 251.916099 222.287939 252.39425 222.76609 
C 252.872401 223.244241 253.521005 223.512902 254.197213 223.512902 
z
" clip-path="url(#p7b5a3432b7)" style="fill: #800080; stroke: #ffffff; stroke-width: 0.354218"/>
    <path d="M 261.278688 157.531925 
C 261.965691 157.531925 262.624648 157.258976 263.110433 156.773192 
C 263.596217 156.287407 263.869166 155.62845 263.869166 154.941447 
C 263.869166 154.254444 263.596217 153.595486 263.110433 153.109702 
C 262.624648 152.623917 261.965691 152.350968 261.278688 152.350968 
C 260.591685 152.350968 259.932727 152.623917 259.446943 153.109702 
C 258.961158 153.595486 258.688209 154.254444 258.688209 154.941447 
C 258.688209 155.62845 258.961158 156.287407 259.446943 156.773192 
C 259.932727 157.258976 260.591685 157.531925 261.278688 157.531925 
z
" clip-path="url(#p7b5a3432b7)" style="fill: #800080; stroke: #ffffff; stroke-width: 0.354218"/>
    <path d="M 268.360163 198.805127 
C 269.059168 198.805127 269.729638 198.52741 270.22391 198.033138 
C 270.718181 197.538867 270.995899 196.868397 270.995899 196.169392 
C 270.995899 195.470386 270.718181 194.799917 270.22391 194.305645 
C 269.729638 193.811374 269.059168 193.533656 268.360163 193.533656 
C 267.661158 193.533656 266.990688 193.811374 266.496416 194.305645 
C 266.002145 194.799917 265.724427 195.470386 265.724427 196.169392 
C 265.724427 196.868397 266.002145 197.538867 266.496416 198.033138 
C 266.990688 198.52741 267.661158 198.805127 268.360163 198.805127 
z
" clip-path="url(#p7b5a3432b7)" style="fill: #800080; stroke: #ffffff; stroke-width: 0.354218"/>
    <path d="M 275.441638 207.230025 
C 276.141558 207.230025 276.812905 206.951944 277.307824 206.457026 
C 277.802742 205.962108 278.080823 205.29076 278.080823 204.59084 
C 278.080823 203.89092 277.802742 203.219573 277.307824 202.724655 
C 276.812905 202.229737 276.141558 201.951656 275.441638 201.951656 
C 274.741718 201.951656 274.070371 202.229737 273.575453 202.724655 
C 273.080534 203.219573 272.802453 203.89092 272.802453 204.59084 
C 272.802453 205.29076 273.080534 205.962108 273.575453 206.457026 
C 274.070371 206.951944 274.741718 207.230025 275.441638 207.230025 
z
" clip-path="url(#p7b5a3432b7)" style="fill: #800080; stroke: #ffffff; stroke-width: 0.354218"/>
    <path d="M 282.523113 193.623936 
C 283.240637 193.623936 283.92887 193.33886 284.436236 192.831494 
C 284.943603 192.324128 285.228678 191.635895 285.228678 190.918371 
C 285.228678 190.200847 284.943603 189.512614 284.436236 189.005248 
C 283.92887 188.497881 283.240637 188.212806 282.523113 188.212806 
C 281.805589 188.212806 281.117356 188.497881 280.60999 189.005248 
C 280.102624 189.512614 279.817548 190.200847 279.817548 190.918371 
C 279.817548 191.635895 280.102624 192.324128 280.60999 192.831494 
C 281.117356 193.33886 281.805589 193.623936 282.523113 193.623936 
z
" clip-path="url(#p7b5a3432b7)" style="fill: #800080; stroke: #ffffff; stroke-width: 0.354218"/>
    <path d="M 289.604588 186.180295 
C 290.354807 186.180295 291.074399 185.882231 291.604883 185.351746 
C 292.135368 184.821262 292.433432 184.10167 292.433432 183.351451 
C 292.433432 182.601233 292.135368 181.881641 291.604883 181.351157 
C 291.074399 180.820672 290.354807 180.522607 289.604588 180.522607 
C 288.85437 180.522607 288.134778 180.820672 287.604294 181.351157 
C 287.073809 181.881641 286.775744 182.601233 286.775744 183.351451 
C 286.775744 184.10167 287.073809 184.821262 287.604294 185.351746 
C 288.134778 185.882231 288.85437 186.180295 289.604588 186.180295 
z
" clip-path="url(#p7b5a3432b7)" style="fill: #800080; stroke: #ffffff; stroke-width: 0.354218"/>
    <path d="M 296.686063 150.477724 
C 297.472913 150.477724 298.22764 150.165106 298.784026 149.60872 
C 299.340413 149.052333 299.653031 148.297606 299.653031 147.510757 
C 299.653031 146.723908 299.340413 145.96918 298.784026 145.412794 
C 298.22764 144.856407 297.472913 144.543789 296.686063 144.543789 
C 295.899214 144.543789 295.144487 144.856407 294.5881 145.412794 
C 294.031714 145.96918 293.719096 146.723908 293.719096 147.510757 
C 293.719096 148.297606 294.031714 149.052333 294.5881 149.60872 
C 295.144487 150.165106 295.899214 150.477724 296.686063 150.477724 
z
" clip-path="url(#p7b5a3432b7)" style="fill: #800080; stroke: #ffffff; stroke-width: 0.354218"/>
    <path d="M 303.767539 153.629664 
C 304.572475 153.629664 305.344552 153.309859 305.913729 152.740683 
C 306.482905 152.171507 306.80271 151.39943 306.80271 150.594493 
C 306.80271 149.789556 306.482905 149.017479 305.913729 148.448303 
C 305.344552 147.879127 304.572475 147.559322 303.767539 147.559322 
C 302.962602 147.559322 302.190525 147.879127 301.621348 148.448303 
C 301.052172 149.017479 300.732367 149.789556 300.732367 150.594493 
C 300.732367 151.39943 301.052172 152.171507 301.621348 152.740683 
C 302.190525 153.309859 302.962602 153.629664 303.767539 153.629664 
z
" clip-path="url(#p7b5a3432b7)" style="fill: #800080; stroke: #ffffff; stroke-width: 0.354218"/>
    <path d="M 310.849014 181.048095 
C 311.647166 181.048095 312.412735 180.730986 312.977113 180.166608 
C 313.541492 179.602229 313.858601 178.83666 313.858601 178.038508 
C 313.858601 177.240356 313.541492 176.474787 312.977113 175.910409 
C 312.412735 175.34603 311.647166 175.028921 310.849014 175.028921 
C 310.050862 175.028921 309.285293 175.34603 308.720914 175.910409 
C 308.156536 176.474787 307.839427 177.240356 307.839427 178.038508 
C 307.839427 178.83666 308.156536 179.602229 308.720914 180.166608 
C 309.285293 180.730986 310.050862 181.048095 310.849014 181.048095 
z
" clip-path="url(#p7b5a3432b7)" style="fill: #800080; stroke: #ffffff; stroke-width: 0.354218"/>
    <path d="M 317.930489 141.726677 
C 318.735028 141.726677 319.506724 141.40703 320.075619 140.838135 
C 320.644514 140.269239 320.964161 139.497544 320.964161 138.693004 
C 320.964161 137.888465 320.644514 137.116769 320.075619 136.547874 
C 319.506724 135.978979 318.735028 135.659332 317.930489 135.659332 
C 317.12595 135.659332 316.354254 135.978979 315.785359 136.547874 
C 315.216463 137.116769 314.896817 137.888465 314.896817 138.693004 
C 314.896817 139.497544 315.216463 140.269239 315.785359 140.838135 
C 316.354254 141.40703 317.12595 141.726677 317.930489 141.726677 
z
" clip-path="url(#p7b5a3432b7)" style="fill: #800080; stroke: #ffffff; stroke-width: 0.354218"/>
    <path d="M 325.011964 134.594434 
C 325.836533 134.594434 326.627441 134.266829 327.210499 133.68377 
C 327.793558 133.100712 328.121163 132.309804 328.121163 131.485235 
C 328.121163 130.660666 327.793558 129.869758 327.210499 129.2867 
C 326.627441 128.703641 325.836533 128.376036 325.011964 128.376036 
C 324.187395 128.376036 323.396487 128.703641 322.813429 129.2867 
C 322.23037 129.869758 321.902765 130.660666 321.902765 131.485235 
C 321.902765 132.309804 322.23037 133.100712 322.813429 133.68377 
C 323.396487 134.266829 324.187395 134.594434 325.011964 134.594434 
z
" clip-path="url(#p7b5a3432b7)" style="fill: #800080; stroke: #ffffff; stroke-width: 0.354218"/>
    <path d="M 332.093439 119.396114 
C 332.943605 119.396114 333.759065 119.05834 334.360223 118.457182 
C 334.961381 117.856024 335.299155 117.040564 335.299155 116.190398 
C 335.299155 115.340232 334.961381 114.524772 334.360223 113.923614 
C 333.759065 113.322456 332.943605 112.984682 332.093439 112.984682 
C 331.243273 112.984682 330.427813 113.322456 329.826655 113.923614 
C 329.225497 114.524772 328.887723 115.340232 328.887723 116.190398 
C 328.887723 117.040564 329.225497 117.856024 329.826655 118.457182 
C 330.427813 119.05834 331.243273 119.396114 332.093439 119.396114 
z
" clip-path="url(#p7b5a3432b7)" style="fill: #800080; stroke: #ffffff; stroke-width: 0.354218"/>
    <path d="M 339.174914 118.665534 
C 340.048099 118.665534 340.885637 118.318614 341.503072 117.70118 
C 342.120506 117.083745 342.467426 116.246206 342.467426 115.373022 
C 342.467426 114.499838 342.120506 113.662299 341.503072 113.044865 
C 340.885637 112.42743 340.048099 112.08051 339.174914 112.08051 
C 338.30173 112.08051 337.464191 112.42743 336.846757 113.044865 
C 336.229322 113.662299 335.882403 114.499838 335.882403 115.373022 
C 335.882403 116.246206 336.229322 117.083745 336.846757 117.70118 
C 337.464191 118.318614 338.30173 118.665534 339.174914 118.665534 
z
" clip-path="url(#p7b5a3432b7)" style="fill: #800080; stroke: #ffffff; stroke-width: 0.354218"/>
    <path d="M 346.256389 90.046179 
C 347.143026 90.046179 347.993467 89.693914 348.620414 89.066968 
C 349.24736 88.440021 349.599625 87.58958 349.599625 86.702943 
C 349.599625 85.816307 349.24736 84.965865 348.620414 84.338919 
C 347.993467 83.711972 347.143026 83.359708 346.256389 83.359708 
C 345.369753 83.359708 344.519311 83.711972 343.892365 84.338919 
C 343.265418 84.965865 342.913154 85.816307 342.913154 86.702943 
C 342.913154 87.58958 343.265418 88.440021 343.892365 89.066968 
C 344.519311 89.693914 345.369753 90.046179 346.256389 90.046179 
z
" clip-path="url(#p7b5a3432b7)" style="fill: #800080; stroke: #ffffff; stroke-width: 0.354218"/>
    <path d="M 353.337864 91.078399 
C 354.258488 91.078399 355.141528 90.712632 355.792507 90.061653 
C 356.443486 89.410674 356.809253 88.527633 356.809253 87.60701 
C 356.809253 86.686387 356.443486 85.803347 355.792507 85.152368 
C 355.141528 84.501389 354.258488 84.135622 353.337864 84.135622 
C 352.417241 84.135622 351.534201 84.501389 350.883222 85.152368 
C 350.232243 85.803347 349.866476 86.686387 349.866476 87.60701 
C 349.866476 88.527633 350.232243 89.410674 350.883222 90.061653 
C 351.534201 90.712632 352.417241 91.078399 353.337864 91.078399 
z
" clip-path="url(#p7b5a3432b7)" style="fill: #800080; stroke: #ffffff; stroke-width: 0.354218"/>
    <path d="M 360.41934 105.335925 
C 361.357176 105.335925 362.256728 104.963318 362.919879 104.300167 
C 363.583029 103.637017 363.955636 102.737465 363.955636 101.799628 
C 363.955636 100.861792 363.583029 99.96224 362.919879 99.299089 
C 362.256728 98.635939 361.357176 98.263332 360.41934 98.263332 
C 359.481503 98.263332 358.581951 98.635939 357.918801 99.299089 
C 357.25565 99.96224 356.883043 100.861792 356.883043 101.799628 
C 356.883043 102.737465 357.25565 103.637017 357.918801 104.300167 
C 358.581951 104.963318 359.481503 105.335925 360.41934 105.335925 
z
" clip-path="url(#p7b5a3432b7)" style="fill: #800080; stroke: #ffffff; stroke-width: 0.354218"/>
    <path d="M 367.500815 92.278742 
C 368.486873 92.278742 369.432678 91.886976 370.129927 91.189728 
C 370.827176 90.492479 371.218941 89.546674 371.218941 88.560616 
C 371.218941 87.574557 370.827176 86.628752 370.129927 85.931504 
C 369.432678 85.234255 368.486873 84.84249 367.500815 84.84249 
C 366.514756 84.84249 365.568951 85.234255 364.871703 85.931504 
C 364.174454 86.628752 363.782689 87.574557 363.782689 88.560616 
C 363.782689 89.546674 364.174454 90.492479 364.871703 91.189728 
C 365.568951 91.886976 366.514756 92.278742 367.500815 92.278742 
z
" clip-path="url(#p7b5a3432b7)" style="fill: #800080; stroke: #ffffff; stroke-width: 0.354218"/>
    <path d="M 374.58229 65.707873 
C 375.619267 65.707873 376.613913 65.295877 377.347166 64.562624 
C 378.08042 63.82937 378.492416 62.834725 378.492416 61.797747 
C 378.492416 60.76077 378.08042 59.766124 377.347166 59.032871 
C 376.613913 58.299617 375.619267 57.887621 374.58229 57.887621 
C 373.545312 57.887621 372.550667 58.299617 371.817413 59.032871 
C 371.08416 59.766124 370.672164 60.76077 370.672164 61.797747 
C 370.672164 62.834725 371.08416 63.82937 371.817413 64.562624 
C 372.550667 65.295877 373.545312 65.707873 374.58229 65.707873 
z
" clip-path="url(#p7b5a3432b7)" style="fill: #800080; stroke: #ffffff; stroke-width: 0.354218"/>
    <path d="M 381.663765 78.919353 
C 382.749276 78.919353 383.790473 78.488075 384.558044 77.720503 
C 385.325616 76.952931 385.756894 75.911734 385.756894 74.826224 
C 385.756894 73.740713 385.325616 72.699516 384.558044 71.931944 
C 383.790473 71.164372 382.749276 70.733094 381.663765 70.733094 
C 380.578254 70.733094 379.537057 71.164372 378.769486 71.931944 
C 378.001914 72.699516 377.570636 73.740713 377.570636 74.826224 
C 377.570636 75.911734 378.001914 76.952931 378.769486 77.720503 
C 379.537057 78.488075 380.578254 78.919353 381.663765 78.919353 
z
" clip-path="url(#p7b5a3432b7)" style="fill: #800080; stroke: #ffffff; stroke-width: 0.354218"/>
    <path d="M 388.74524 58.018191 
C 389.851477 58.018191 390.912554 57.578678 391.694782 56.796451 
C 392.47701 56.014223 392.916522 54.953146 392.916522 53.846909 
C 392.916522 52.740672 392.47701 51.679594 391.694782 50.897367 
C 390.912554 50.115139 389.851477 49.675626 388.74524 49.675626 
C 387.639003 49.675626 386.577926 50.115139 385.795698 50.897367 
C 385.01347 51.679594 384.573958 52.740672 384.573958 53.846909 
C 384.573958 54.953146 385.01347 56.014223 385.795698 56.796451 
C 386.577926 57.578678 387.639003 58.018191 388.74524 58.018191 
z
" clip-path="url(#p7b5a3432b7)" style="fill: #800080; stroke: #ffffff; stroke-width: 0.354218"/>
    <path d="M 395.826715 62.308381 
C 396.944174 62.308381 398.016014 61.86441 398.806177 61.074248 
C 399.596339 60.284086 400.04031 59.212245 400.04031 58.094787 
C 400.04031 56.977328 399.596339 55.905488 398.806177 55.115325 
C 398.016014 54.325163 396.944174 53.881192 395.826715 53.881192 
C 394.709257 53.881192 393.637416 54.325163 392.847254 55.115325 
C 392.057092 55.905488 391.613121 56.977328 391.613121 58.094787 
C 391.613121 59.212245 392.057092 60.284086 392.847254 61.074248 
C 393.637416 61.86441 394.709257 62.308381 395.826715 62.308381 
z
" clip-path="url(#p7b5a3432b7)" style="fill: #800080; stroke: #ffffff; stroke-width: 0.354218"/>
    <path d="M 402.90819 42.968095 
C 404.033352 42.968095 405.112581 42.521064 405.90819 41.725455 
C 406.7038 40.929845 407.150831 39.850616 407.150831 38.725455 
C 407.150831 37.600293 406.7038 36.521064 405.90819 35.725455 
C 405.112581 34.929845 404.033352 34.482814 402.90819 34.482814 
C 401.783029 34.482814 400.7038 34.929845 399.90819 35.725455 
C 399.112581 36.521064 398.66555 37.600293 398.66555 38.725455 
C 398.66555 39.850616 399.112581 40.929845 399.90819 41.725455 
C 400.7038 42.521064 401.783029 42.968095 402.90819 42.968095 
z
" clip-path="url(#p7b5a3432b7)" style="fill: #800080; stroke: #ffffff; stroke-width: 0.354218"/>
    <path d="M 409.989666 53.834204 
C 411.034021 53.834204 412.035743 53.419277 412.774213 52.680806 
C 413.512684 51.942336 413.927611 50.940614 413.927611 49.896259 
C 413.927611 48.851903 413.512684 47.850181 412.774213 47.111711 
C 412.035743 46.37324 411.034021 45.958313 409.989666 45.958313 
C 408.94531 45.958313 407.943588 46.37324 407.205118 47.111711 
C 406.466647 47.850181 406.05172 48.851903 406.05172 49.896259 
C 406.05172 50.940614 406.466647 51.942336 407.205118 52.680806 
C 407.943588 53.419277 408.94531 53.834204 409.989666 53.834204 
z
" clip-path="url(#p7b5a3432b7)" style="fill: #800080; stroke: #ffffff; stroke-width: 0.354218"/>
    <path d="M 417.071141 51.477332 
C 418.111199 51.477332 419.108798 51.064113 419.84423 50.328681 
C 420.579662 49.593249 420.992882 48.595649 420.992882 47.555591 
C 420.992882 46.515533 420.579662 45.517933 419.84423 44.782501 
C 419.108798 44.047069 418.111199 43.63385 417.071141 43.63385 
C 416.031083 43.63385 415.033483 44.047069 414.298051 44.782501 
C 413.562619 45.517933 413.149399 46.515533 413.149399 47.555591 
C 413.149399 48.595649 413.562619 49.593249 414.298051 50.328681 
C 415.033483 51.064113 416.031083 51.477332 417.071141 51.477332 
z
" clip-path="url(#p7b5a3432b7)" style="fill: #800080; stroke: #ffffff; stroke-width: 0.354218"/>
    <path d="M 424.152616 62.626823 
C 425.206728 62.626823 426.217808 62.20802 426.963178 61.46265 
C 427.708548 60.717281 428.127351 59.7062 428.127351 58.652088 
C 428.127351 57.597976 427.708548 56.586896 426.963178 55.841526 
C 426.217808 55.096157 425.206728 54.677353 424.152616 54.677353 
C 423.098504 54.677353 422.087424 55.096157 421.342054 55.841526 
C 420.596684 56.586896 420.177881 57.597976 420.177881 58.652088 
C 420.177881 59.7062 420.596684 60.717281 421.342054 61.46265 
C 422.087424 62.20802 423.098504 62.626823 424.152616 62.626823 
z
" clip-path="url(#p7b5a3432b7)" style="fill: #800080; stroke: #ffffff; stroke-width: 0.354218"/>
    <path d="M 431.234091 99.381823 
C 432.241652 99.381823 433.208082 98.981515 433.920535 98.269062 
C 434.632988 97.556608 435.033296 96.590179 435.033296 95.582618 
C 435.033296 94.575057 434.632988 93.608627 433.920535 92.896174 
C 433.208082 92.183721 432.241652 91.783412 431.234091 91.783412 
C 430.22653 91.783412 429.2601 92.183721 428.547647 92.896174 
C 427.835194 93.608627 427.434885 94.575057 427.434885 95.582618 
C 427.434885 96.590179 427.835194 97.556608 428.547647 98.269062 
C 429.2601 98.981515 430.22653 99.381823 431.234091 99.381823 
z
" clip-path="url(#p7b5a3432b7)" style="fill: #800080; stroke: #ffffff; stroke-width: 0.354218"/>
   </g>
   <g id="patch_3">
    <path d="M 37.15 317.72 
L 37.15 25.44 
" style="fill: none; stroke: #ffffff; stroke-width: 0.8; stroke-linejoin: miter; stroke-linecap: square"/>
   </g>
   <g id="patch_4">
    <path d="M 450 317.72 
L 450 25.44 
" style="fill: none; stroke: #ffffff; stroke-width: 0.8; stroke-linejoin: miter; stroke-linecap: square"/>
   </g>
   <g id="patch_5">
    <path d="M 37.15 317.72 
L 450 317.72 
" style="fill: none; stroke: #ffffff; stroke-width: 0.8; stroke-linejoin: miter; stroke-linecap: square"/>
   </g>
   <g id="patch_6">
    <path d="M 37.15 25.44 
L 450 25.44 
" style="fill: none; stroke: #ffffff; stroke-width: 0.8; stroke-linejoin: miter; stroke-linecap: square"/>
   </g>
   <g id="text_11">
    <!-- Yearly average geek score from ranked games -->
    <g style="fill: #262626" transform="translate(119.403125 19.44) scale(0.12 -0.12)">
     <defs>
      <path id="ArialMT-59" d="M 1784 0 
L 1784 1941 
L 19 4581 
L 756 4581 
L 1659 3200 
Q 1909 2813 2125 2425 
Q 2331 2784 2625 3234 
L 3513 4581 
L 4219 4581 
L 2391 1941 
L 2391 0 
L 1784 0 
z
" transform="scale(0.015625)"/>
      <path id="ArialMT-65" d="M 2694 1069 
L 3275 997 
Q 3138 488 2766 206 
Q 2394 -75 1816 -75 
Q 1088 -75 661 373 
Q 234 822 234 1631 
Q 234 2469 665 2931 
Q 1097 3394 1784 3394 
Q 2450 3394 2872 2941 
Q 3294 2488 3294 1666 
Q 3294 1616 3291 1516 
L 816 1516 
Q 847 969 1125 678 
Q 1403 388 1819 388 
Q 2128 388 2347 550 
Q 2566 713 2694 1069 
z
M 847 1978 
L 2700 1978 
Q 2663 2397 2488 2606 
Q 2219 2931 1791 2931 
Q 1403 2931 1139 2672 
Q 875 2413 847 1978 
z
" transform="scale(0.015625)"/>
      <path id="ArialMT-61" d="M 2588 409 
Q 2275 144 1986 34 
Q 1697 -75 1366 -75 
Q 819 -75 525 192 
Q 231 459 231 875 
Q 231 1119 342 1320 
Q 453 1522 633 1644 
Q 813 1766 1038 1828 
Q 1203 1872 1538 1913 
Q 2219 1994 2541 2106 
Q 2544 2222 2544 2253 
Q 2544 2597 2384 2738 
Q 2169 2928 1744 2928 
Q 1347 2928 1158 2789 
Q 969 2650 878 2297 
L 328 2372 
Q 403 2725 575 2942 
Q 747 3159 1072 3276 
Q 1397 3394 1825 3394 
Q 2250 3394 2515 3294 
Q 2781 3194 2906 3042 
Q 3031 2891 3081 2659 
Q 3109 2516 3109 2141 
L 3109 1391 
Q 3109 606 3145 398 
Q 3181 191 3288 0 
L 2700 0 
Q 2613 175 2588 409 
z
M 2541 1666 
Q 2234 1541 1622 1453 
Q 1275 1403 1131 1340 
Q 988 1278 909 1158 
Q 831 1038 831 891 
Q 831 666 1001 516 
Q 1172 366 1500 366 
Q 1825 366 2078 508 
Q 2331 650 2450 897 
Q 2541 1088 2541 1459 
L 2541 1666 
z
" transform="scale(0.015625)"/>
      <path id="ArialMT-72" d="M 416 0 
L 416 3319 
L 922 3319 
L 922 2816 
Q 1116 3169 1280 3281 
Q 1444 3394 1641 3394 
Q 1925 3394 2219 3213 
L 2025 2691 
Q 1819 2813 1613 2813 
Q 1428 2813 1281 2702 
Q 1134 2591 1072 2394 
Q 978 2094 978 1738 
L 978 0 
L 416 0 
z
" transform="scale(0.015625)"/>
      <path id="ArialMT-6c" d="M 409 0 
L 409 4581 
L 972 4581 
L 972 0 
L 409 0 
z
" transform="scale(0.015625)"/>
      <path id="ArialMT-79" d="M 397 -1278 
L 334 -750 
Q 519 -800 656 -800 
Q 844 -800 956 -737 
Q 1069 -675 1141 -563 
Q 1194 -478 1313 -144 
Q 1328 -97 1363 -6 
L 103 3319 
L 709 3319 
L 1400 1397 
Q 1534 1031 1641 628 
Q 1738 1016 1872 1384 
L 2581 3319 
L 3144 3319 
L 1881 -56 
Q 1678 -603 1566 -809 
Q 1416 -1088 1222 -1217 
Q 1028 -1347 759 -1347 
Q 597 -1347 397 -1278 
z
" transform="scale(0.015625)"/>
      <path id="ArialMT-20" transform="scale(0.015625)"/>
      <path id="ArialMT-76" d="M 1344 0 
L 81 3319 
L 675 3319 
L 1388 1331 
Q 1503 1009 1600 663 
Q 1675 925 1809 1294 
L 2547 3319 
L 3125 3319 
L 1869 0 
L 1344 0 
z
" transform="scale(0.015625)"/>
      <path id="ArialMT-67" d="M 319 -275 
L 866 -356 
Q 900 -609 1056 -725 
Q 1266 -881 1628 -881 
Q 2019 -881 2231 -725 
Q 2444 -569 2519 -288 
Q 2563 -116 2559 434 
Q 2191 0 1641 0 
Q 956 0 581 494 
Q 206 988 206 1678 
Q 206 2153 378 2554 
Q 550 2956 876 3175 
Q 1203 3394 1644 3394 
Q 2231 3394 2613 2919 
L 2613 3319 
L 3131 3319 
L 3131 450 
Q 3131 -325 2973 -648 
Q 2816 -972 2473 -1159 
Q 2131 -1347 1631 -1347 
Q 1038 -1347 672 -1080 
Q 306 -813 319 -275 
z
M 784 1719 
Q 784 1066 1043 766 
Q 1303 466 1694 466 
Q 2081 466 2343 764 
Q 2606 1063 2606 1700 
Q 2606 2309 2336 2618 
Q 2066 2928 1684 2928 
Q 1309 2928 1046 2623 
Q 784 2319 784 1719 
z
" transform="scale(0.015625)"/>
      <path id="ArialMT-6b" d="M 425 0 
L 425 4581 
L 988 4581 
L 988 1969 
L 2319 3319 
L 3047 3319 
L 1778 2088 
L 3175 0 
L 2481 0 
L 1384 1697 
L 988 1316 
L 988 0 
L 425 0 
z
" transform="scale(0.015625)"/>
      <path id="ArialMT-73" d="M 197 991 
L 753 1078 
Q 800 744 1014 566 
Q 1228 388 1613 388 
Q 2000 388 2187 545 
Q 2375 703 2375 916 
Q 2375 1106 2209 1216 
Q 2094 1291 1634 1406 
Q 1016 1563 777 1677 
Q 538 1791 414 1992 
Q 291 2194 291 2438 
Q 291 2659 392 2848 
Q 494 3038 669 3163 
Q 800 3259 1026 3326 
Q 1253 3394 1513 3394 
Q 1903 3394 2198 3281 
Q 2494 3169 2634 2976 
Q 2775 2784 2828 2463 
L 2278 2388 
Q 2241 2644 2061 2787 
Q 1881 2931 1553 2931 
Q 1166 2931 1000 2803 
Q 834 2675 834 2503 
Q 834 2394 903 2306 
Q 972 2216 1119 2156 
Q 1203 2125 1616 2013 
Q 2213 1853 2448 1751 
Q 2684 1650 2818 1456 
Q 2953 1263 2953 975 
Q 2953 694 2789 445 
Q 2625 197 2315 61 
Q 2006 -75 1616 -75 
Q 969 -75 630 194 
Q 291 463 197 991 
z
" transform="scale(0.015625)"/>
      <path id="ArialMT-63" d="M 2588 1216 
L 3141 1144 
Q 3050 572 2676 248 
Q 2303 -75 1759 -75 
Q 1078 -75 664 370 
Q 250 816 250 1647 
Q 250 2184 428 2587 
Q 606 2991 970 3192 
Q 1334 3394 1763 3394 
Q 2303 3394 2647 3120 
Q 2991 2847 3088 2344 
L 2541 2259 
Q 2463 2594 2264 2762 
Q 2066 2931 1784 2931 
Q 1359 2931 1093 2626 
Q 828 2322 828 1663 
Q 828 994 1084 691 
Q 1341 388 1753 388 
Q 2084 388 2306 591 
Q 2528 794 2588 1216 
z
" transform="scale(0.015625)"/>
      <path id="ArialMT-6f" d="M 213 1659 
Q 213 2581 725 3025 
Q 1153 3394 1769 3394 
Q 2453 3394 2887 2945 
Q 3322 2497 3322 1706 
Q 3322 1066 3130 698 
Q 2938 331 2570 128 
Q 2203 -75 1769 -75 
Q 1072 -75 642 372 
Q 213 819 213 1659 
z
M 791 1659 
Q 791 1022 1069 705 
Q 1347 388 1769 388 
Q 2188 388 2466 706 
Q 2744 1025 2744 1678 
Q 2744 2294 2464 2611 
Q 2184 2928 1769 2928 
Q 1347 2928 1069 2612 
Q 791 2297 791 1659 
z
" transform="scale(0.015625)"/>
      <path id="ArialMT-66" d="M 556 0 
L 556 2881 
L 59 2881 
L 59 3319 
L 556 3319 
L 556 3672 
Q 556 4006 616 4169 
Q 697 4388 901 4523 
Q 1106 4659 1475 4659 
Q 1713 4659 2000 4603 
L 1916 4113 
Q 1741 4144 1584 4144 
Q 1328 4144 1222 4034 
Q 1116 3925 1116 3625 
L 1116 3319 
L 1763 3319 
L 1763 2881 
L 1116 2881 
L 1116 0 
L 556 0 
z
" transform="scale(0.015625)"/>
      <path id="ArialMT-6d" d="M 422 0 
L 422 3319 
L 925 3319 
L 925 2853 
Q 1081 3097 1340 3245 
Q 1600 3394 1931 3394 
Q 2300 3394 2536 3241 
Q 2772 3088 2869 2813 
Q 3263 3394 3894 3394 
Q 4388 3394 4653 3120 
Q 4919 2847 4919 2278 
L 4919 0 
L 4359 0 
L 4359 2091 
Q 4359 2428 4304 2576 
Q 4250 2725 4106 2815 
Q 3963 2906 3769 2906 
Q 3419 2906 3187 2673 
Q 2956 2441 2956 1928 
L 2956 0 
L 2394 0 
L 2394 2156 
Q 2394 2531 2256 2718 
Q 2119 2906 1806 2906 
Q 1569 2906 1367 2781 
Q 1166 2656 1075 2415 
Q 984 2175 984 1722 
L 984 0 
L 422 0 
z
" transform="scale(0.015625)"/>
      <path id="ArialMT-6e" d="M 422 0 
L 422 3319 
L 928 3319 
L 928 2847 
Q 1294 3394 1984 3394 
Q 2284 3394 2536 3286 
Q 2788 3178 2913 3003 
Q 3038 2828 3088 2588 
Q 3119 2431 3119 2041 
L 3119 0 
L 2556 0 
L 2556 2019 
Q 2556 2363 2490 2533 
Q 2425 2703 2258 2804 
Q 2091 2906 1866 2906 
Q 1506 2906 1245 2678 
Q 984 2450 984 1813 
L 984 0 
L 422 0 
z
" transform="scale(0.015625)"/>
      <path id="ArialMT-64" d="M 2575 0 
L 2575 419 
Q 2259 -75 1647 -75 
Q 1250 -75 917 144 
Q 584 363 401 755 
Q 219 1147 219 1656 
Q 219 2153 384 2558 
Q 550 2963 881 3178 
Q 1213 3394 1622 3394 
Q 1922 3394 2156 3267 
Q 2391 3141 2538 2938 
L 2538 4581 
L 3097 4581 
L 3097 0 
L 2575 0 
z
M 797 1656 
Q 797 1019 1065 703 
Q 1334 388 1700 388 
Q 2069 388 2326 689 
Q 2584 991 2584 1609 
Q 2584 2291 2321 2609 
Q 2059 2928 1675 2928 
Q 1300 2928 1048 2622 
Q 797 2316 797 1656 
z
" transform="scale(0.015625)"/>
     </defs>
     <use xlink:href="#ArialMT-59"/>
     <use xlink:href="#ArialMT-65" x="57.574219"/>
     <use xlink:href="#ArialMT-61" x="113.189453"/>
     <use xlink:href="#ArialMT-72" x="168.804688"/>
     <use xlink:href="#ArialMT-6c" x="202.105469"/>
     <use xlink:href="#ArialMT-79" x="224.322266"/>
     <use xlink:href="#ArialMT-20" x="274.322266"/>
     <use xlink:href="#ArialMT-61" x="302.105469"/>
     <use xlink:href="#ArialMT-76" x="357.720703"/>
     <use xlink:href="#ArialMT-65" x="407.720703"/>
     <use xlink:href="#ArialMT-72" x="463.335938"/>
     <use xlink:href="#ArialMT-61" x="496.636719"/>
     <use xlink:href="#ArialMT-67" x="552.251953"/>
     <use xlink:href="#ArialMT-65" x="607.867188"/>
     <use xlink:href="#ArialMT-20" x="663.482422"/>
     <use xlink:href="#ArialMT-67" x="691.265625"/>
     <use xlink:href="#ArialMT-65" x="746.880859"/>
     <use xlink:href="#ArialMT-65" x="802.496094"/>
     <use xlink:href="#ArialMT-6b" x="858.111328"/>
     <use xlink:href="#ArialMT-20" x="908.111328"/>
     <use xlink:href="#ArialMT-73" x="935.894531"/>
     <use xlink:href="#ArialMT-63" x="985.894531"/>
     <use xlink:href="#ArialMT-6f" x="1035.894531"/>
     <use xlink:href="#ArialMT-72" x="1091.509766"/>
     <use xlink:href="#ArialMT-65" x="1124.810547"/>
     <use xlink:href="#ArialMT-20" x="1180.425781"/>
     <use xlink:href="#ArialMT-66" x="1208.208984"/>
     <use xlink:href="#ArialMT-72" x="1235.992188"/>
     <use xlink:href="#ArialMT-6f" x="1269.292969"/>
     <use xlink:href="#ArialMT-6d" x="1324.908203"/>
     <use xlink:href="#ArialMT-20" x="1408.208984"/>
     <use xlink:href="#ArialMT-72" x="1435.992188"/>
     <use xlink:href="#ArialMT-61" x="1469.292969"/>
     <use xlink:href="#ArialMT-6e" x="1524.908203"/>
     <use xlink:href="#ArialMT-6b" x="1580.523438"/>
     <use xlink:href="#ArialMT-65" x="1630.523438"/>
     <use xlink:href="#ArialMT-64" x="1686.138672"/>
     <use xlink:href="#ArialMT-20" x="1741.753906"/>
     <use xlink:href="#ArialMT-67" x="1769.537109"/>
     <use xlink:href="#ArialMT-61" x="1825.152344"/>
     <use xlink:href="#ArialMT-6d" x="1880.767578"/>
     <use xlink:href="#ArialMT-65" x="1964.068359"/>
     <use xlink:href="#ArialMT-73" x="2019.683594"/>
    </g>
   </g>
  </g>
 </g>
 <defs>
  <clipPath id="p7b5a3432b7">
   <rect x="37.15" y="25.44" width="412.85" height="292.28"/>
  </clipPath>
 </defs>
</svg>
