<?xml version="1.0" encoding="utf-8" standalone="no"?>
<!DOCTYPE svg PUBLIC "-//W3C//DTD SVG 1.1//EN"
  "http://www.w3.org/Graphics/SVG/1.1/DTD/svg11.dtd">
<svg xmlns:xlink="http://www.w3.org/1999/xlink" width="460.8pt" height="345.6pt" viewBox="0 0 460.8 345.6" xmlns="http://www.w3.org/2000/svg" version="1.1">
 <metadata>
  <rdf:RDF xmlns:dc="http://purl.org/dc/elements/1.1/" xmlns:cc="http://creativecommons.org/ns#" xmlns:rdf="http://www.w3.org/1999/02/22-rdf-syntax-ns#">
   <cc:Work>
    <dc:type rdf:resource="http://purl.org/dc/dcmitype/StillImage"/>
    <dc:date>2024-08-18T00:19:38.725654</dc:date>
    <dc:format>image/svg+xml</dc:format>
    <dc:creator>
     <cc:Agent>
      <dc:title>Matplotlib v3.9.2, https://matplotlib.org/</dc:title>
     </cc:Agent>
    </dc:creator>
   </cc:Work>
  </rdf:RDF>
 </metadata>
 <defs>
  <style type="text/css">*{stroke-linejoin: round; stroke-linecap: butt}</style>
 </defs>
 <g id="figure_1">
  <g id="patch_1">
   <path d="M 0 345.6 
L 460.8 345.6 
L 460.8 0 
L 0 0 
z
" style="fill: #ffffff"/>
  </g>
  <g id="axes_1">
   <g id="patch_2">
    <path d="M 37.15 317.72 
L 450 317.72 
L 450 25.44 
L 37.15 25.44 
z
" style="fill: #eaeaf2"/>
   </g>
   <g id="matplotlib.axis_1">
    <g id="xtick_1">
     <g id="text_1">
      <!-- 1970 -->
      <g style="fill: #262626" transform="translate(44.794034 331.877812) scale(0.1 -0.1)">
       <defs>
        <path id="ArialMT-31" d="M 2384 0 
L 1822 0 
L 1822 3584 
Q 1619 3391 1289 3197 
Q 959 3003 697 2906 
L 697 3450 
Q 1169 3672 1522 3987 
Q 1875 4303 2022 4600 
L 2384 4600 
L 2384 0 
z
" transform="scale(0.015625)"/>
        <path id="ArialMT-39" d="M 350 1059 
L 891 1109 
Q 959 728 1153 556 
Q 1347 384 1650 384 
Q 1909 384 2104 503 
Q 2300 622 2425 820 
Q 2550 1019 2634 1356 
Q 2719 1694 2719 2044 
Q 2719 2081 2716 2156 
Q 2547 1888 2255 1720 
Q 1963 1553 1622 1553 
Q 1053 1553 659 1965 
Q 266 2378 266 3053 
Q 266 3750 677 4175 
Q 1088 4600 1706 4600 
Q 2153 4600 2523 4359 
Q 2894 4119 3086 3673 
Q 3278 3228 3278 2384 
Q 3278 1506 3087 986 
Q 2897 466 2520 194 
Q 2144 -78 1638 -78 
Q 1100 -78 759 220 
Q 419 519 350 1059 
z
M 2653 3081 
Q 2653 3566 2395 3850 
Q 2138 4134 1775 4134 
Q 1400 4134 1122 3828 
Q 844 3522 844 3034 
Q 844 2597 1108 2323 
Q 1372 2050 1759 2050 
Q 2150 2050 2401 2323 
Q 2653 2597 2653 3081 
z
" transform="scale(0.015625)"/>
        <path id="ArialMT-37" d="M 303 3981 
L 303 4522 
L 3269 4522 
L 3269 4084 
Q 2831 3619 2401 2847 
Q 1972 2075 1738 1259 
Q 1569 684 1522 0 
L 944 0 
Q 953 541 1156 1306 
Q 1359 2072 1739 2783 
Q 2119 3494 2547 3981 
L 303 3981 
z
" transform="scale(0.015625)"/>
        <path id="ArialMT-30" d="M 266 2259 
Q 266 3072 433 3567 
Q 600 4063 929 4331 
Q 1259 4600 1759 4600 
Q 2128 4600 2406 4451 
Q 2684 4303 2865 4023 
Q 3047 3744 3150 3342 
Q 3253 2941 3253 2259 
Q 3253 1453 3087 958 
Q 2922 463 2592 192 
Q 2263 -78 1759 -78 
Q 1097 -78 719 397 
Q 266 969 266 2259 
z
M 844 2259 
Q 844 1131 1108 757 
Q 1372 384 1759 384 
Q 2147 384 2411 759 
Q 2675 1134 2675 2259 
Q 2675 3391 2411 3762 
Q 2147 4134 1753 4134 
Q 1366 4134 1134 3806 
Q 844 3388 844 2259 
z
" transform="scale(0.015625)"/>
       </defs>
       <use xlink:href="#ArialMT-31"/>
       <use xlink:href="#ArialMT-39" x="55.615234"/>
       <use xlink:href="#ArialMT-37" x="111.230469"/>
       <use xlink:href="#ArialMT-30" x="166.845703"/>
      </g>
     </g>
    </g>
    <g id="xtick_2">
     <g id="text_2">
      <!-- 1980 -->
      <g style="fill: #262626" transform="translate(115.608785 331.877812) scale(0.1 -0.1)">
       <defs>
        <path id="ArialMT-38" d="M 1131 2484 
Q 781 2613 612 2850 
Q 444 3088 444 3419 
Q 444 3919 803 4259 
Q 1163 4600 1759 4600 
Q 2359 4600 2725 4251 
Q 3091 3903 3091 3403 
Q 3091 3084 2923 2848 
Q 2756 2613 2416 2484 
Q 2838 2347 3058 2040 
Q 3278 1734 3278 1309 
Q 3278 722 2862 322 
Q 2447 -78 1769 -78 
Q 1091 -78 675 323 
Q 259 725 259 1325 
Q 259 1772 486 2073 
Q 713 2375 1131 2484 
z
M 1019 3438 
Q 1019 3113 1228 2906 
Q 1438 2700 1772 2700 
Q 2097 2700 2305 2904 
Q 2513 3109 2513 3406 
Q 2513 3716 2298 3927 
Q 2084 4138 1766 4138 
Q 1444 4138 1231 3931 
Q 1019 3725 1019 3438 
z
M 838 1322 
Q 838 1081 952 856 
Q 1066 631 1291 507 
Q 1516 384 1775 384 
Q 2178 384 2440 643 
Q 2703 903 2703 1303 
Q 2703 1709 2433 1975 
Q 2163 2241 1756 2241 
Q 1359 2241 1098 1978 
Q 838 1716 838 1322 
z
" transform="scale(0.015625)"/>
       </defs>
       <use xlink:href="#ArialMT-31"/>
       <use xlink:href="#ArialMT-39" x="55.615234"/>
       <use xlink:href="#ArialMT-38" x="111.230469"/>
       <use xlink:href="#ArialMT-30" x="166.845703"/>
      </g>
     </g>
    </g>
    <g id="xtick_3">
     <g id="text_3">
      <!-- 1990 -->
      <g style="fill: #262626" transform="translate(186.423537 331.877812) scale(0.1 -0.1)">
       <use xlink:href="#ArialMT-31"/>
       <use xlink:href="#ArialMT-39" x="55.615234"/>
       <use xlink:href="#ArialMT-39" x="111.230469"/>
       <use xlink:href="#ArialMT-30" x="166.845703"/>
      </g>
     </g>
    </g>
    <g id="xtick_4">
     <g id="text_4">
      <!-- 2000 -->
      <g style="fill: #262626" transform="translate(257.238288 331.877812) scale(0.1 -0.1)">
       <defs>
        <path id="ArialMT-32" d="M 3222 541 
L 3222 0 
L 194 0 
Q 188 203 259 391 
Q 375 700 629 1000 
Q 884 1300 1366 1694 
Q 2113 2306 2375 2664 
Q 2638 3022 2638 3341 
Q 2638 3675 2398 3904 
Q 2159 4134 1775 4134 
Q 1369 4134 1125 3890 
Q 881 3647 878 3216 
L 300 3275 
Q 359 3922 746 4261 
Q 1134 4600 1788 4600 
Q 2447 4600 2831 4234 
Q 3216 3869 3216 3328 
Q 3216 3053 3103 2787 
Q 2991 2522 2730 2228 
Q 2469 1934 1863 1422 
Q 1356 997 1212 845 
Q 1069 694 975 541 
L 3222 541 
z
" transform="scale(0.015625)"/>
       </defs>
       <use xlink:href="#ArialMT-32"/>
       <use xlink:href="#ArialMT-30" x="55.615234"/>
       <use xlink:href="#ArialMT-30" x="111.230469"/>
       <use xlink:href="#ArialMT-30" x="166.845703"/>
      </g>
     </g>
    </g>
    <g id="xtick_5">
     <g id="text_5">
      <!-- 2010 -->
      <g style="fill: #262626" transform="translate(328.053039 331.877812) scale(0.1 -0.1)">
       <use xlink:href="#ArialMT-32"/>
       <use xlink:href="#ArialMT-30" x="55.615234"/>
       <use xlink:href="#ArialMT-31" x="111.230469"/>
       <use xlink:href="#ArialMT-30" x="166.845703"/>
      </g>
     </g>
    </g>
    <g id="xtick_6">
     <g id="text_6">
      <!-- 2020 -->
      <g style="fill: #262626" transform="translate(398.867791 331.877812) scale(0.1 -0.1)">
       <use xlink:href="#ArialMT-32"/>
       <use xlink:href="#ArialMT-30" x="55.615234"/>
       <use xlink:href="#ArialMT-32" x="111.230469"/>
       <use xlink:href="#ArialMT-30" x="166.845703"/>
      </g>
     </g>
    </g>
   </g>
   <g id="matplotlib.axis_2">
    <g id="ytick_1">
     <g id="text_7">
      <!-- 5.50 -->
      <g style="fill: #262626" transform="translate(10.689062 310.961935) scale(0.1 -0.1)">
       <defs>
        <path id="ArialMT-35" d="M 266 1200 
L 856 1250 
Q 922 819 1161 601 
Q 1400 384 1738 384 
Q 2144 384 2425 690 
Q 2706 997 2706 1503 
Q 2706 1984 2436 2262 
Q 2166 2541 1728 2541 
Q 1456 2541 1237 2417 
Q 1019 2294 894 2097 
L 366 2166 
L 809 4519 
L 3088 4519 
L 3088 3981 
L 1259 3981 
L 1013 2750 
Q 1425 3038 1878 3038 
Q 2478 3038 2890 2622 
Q 3303 2206 3303 1553 
Q 3303 931 2941 478 
Q 2500 -78 1738 -78 
Q 1113 -78 717 272 
Q 322 622 266 1200 
z
" transform="scale(0.015625)"/>
        <path id="ArialMT-2e" d="M 581 0 
L 581 641 
L 1222 641 
L 1222 0 
L 581 0 
z
" transform="scale(0.015625)"/>
       </defs>
       <use xlink:href="#ArialMT-35"/>
       <use xlink:href="#ArialMT-2e" x="55.615234"/>
       <use xlink:href="#ArialMT-35" x="83.398438"/>
       <use xlink:href="#ArialMT-30" x="139.013672"/>
      </g>
     </g>
    </g>
    <g id="ytick_2">
     <g id="text_8">
      <!-- 5.55 -->
      <g style="fill: #262626" transform="translate(10.689062 254.606511) scale(0.1 -0.1)">
       <use xlink:href="#ArialMT-35"/>
       <use xlink:href="#ArialMT-2e" x="55.615234"/>
       <use xlink:href="#ArialMT-35" x="83.398438"/>
       <use xlink:href="#ArialMT-35" x="139.013672"/>
      </g>
     </g>
    </g>
    <g id="ytick_3">
     <g id="text_9">
      <!-- 5.60 -->
      <g style="fill: #262626" transform="translate(10.689062 198.251088) scale(0.1 -0.1)">
       <defs>
        <path id="ArialMT-36" d="M 3184 3459 
L 2625 3416 
Q 2550 3747 2413 3897 
Q 2184 4138 1850 4138 
Q 1581 4138 1378 3988 
Q 1113 3794 959 3422 
Q 806 3050 800 2363 
Q 1003 2672 1297 2822 
Q 1591 2972 1913 2972 
Q 2475 2972 2870 2558 
Q 3266 2144 3266 1488 
Q 3266 1056 3080 686 
Q 2894 316 2569 119 
Q 2244 -78 1831 -78 
Q 1128 -78 684 439 
Q 241 956 241 2144 
Q 241 3472 731 4075 
Q 1159 4600 1884 4600 
Q 2425 4600 2770 4297 
Q 3116 3994 3184 3459 
z
M 888 1484 
Q 888 1194 1011 928 
Q 1134 663 1356 523 
Q 1578 384 1822 384 
Q 2178 384 2434 671 
Q 2691 959 2691 1453 
Q 2691 1928 2437 2201 
Q 2184 2475 1800 2475 
Q 1419 2475 1153 2201 
Q 888 1928 888 1484 
z
" transform="scale(0.015625)"/>
       </defs>
       <use xlink:href="#ArialMT-35"/>
       <use xlink:href="#ArialMT-2e" x="55.615234"/>
       <use xlink:href="#ArialMT-36" x="83.398438"/>
       <use xlink:href="#ArialMT-30" x="139.013672"/>
      </g>
     </g>
    </g>
    <g id="ytick_4">
     <g id="text_10">
      <!-- 5.65 -->
      <g style="fill: #262626" transform="translate(10.689062 141.895665) scale(0.1 -0.1)">
       <use xlink:href="#ArialMT-35"/>
       <use xlink:href="#ArialMT-2e" x="55.615234"/>
       <use xlink:href="#ArialMT-36" x="83.398438"/>
       <use xlink:href="#ArialMT-35" x="139.013672"/>
      </g>
     </g>
    </g>
    <g id="ytick_5">
     <g id="text_11">
      <!-- 5.70 -->
      <g style="fill: #262626" transform="translate(10.689062 85.540242) scale(0.1 -0.1)">
       <use xlink:href="#ArialMT-35"/>
       <use xlink:href="#ArialMT-2e" x="55.615234"/>
       <use xlink:href="#ArialMT-37" x="83.398438"/>
       <use xlink:href="#ArialMT-30" x="139.013672"/>
      </g>
     </g>
    </g>
    <g id="ytick_6">
     <g id="text_12">
      <!-- 5.75 -->
      <g style="fill: #262626" transform="translate(10.689062 29.184818) scale(0.1 -0.1)">
       <use xlink:href="#ArialMT-35"/>
       <use xlink:href="#ArialMT-2e" x="55.615234"/>
       <use xlink:href="#ArialMT-37" x="83.398438"/>
       <use xlink:href="#ArialMT-35" x="139.013672"/>
      </g>
     </g>
    </g>
   </g>
   <g id="PathCollection_1">
    <path d="M 55.915909 280.880726 
C 56.046374 280.880726 56.171514 280.828891 56.263767 280.736638 
C 56.35602 280.644385 56.407854 280.519246 56.407854 280.388781 
C 56.407854 280.258315 56.35602 280.133176 56.263767 280.040923 
C 56.171514 279.94867 56.046374 279.896836 55.915909 279.896836 
C 55.785444 279.896836 55.660304 279.94867 55.568051 280.040923 
C 55.475798 280.133176 55.423964 280.258315 55.423964 280.388781 
C 55.423964 280.519246 55.475798 280.644385 55.568051 280.736638 
C 55.660304 280.828891 55.785444 280.880726 55.915909 280.880726 
z
" clip-path="url(#p27ae30b335)" style="fill: #800080; fill-opacity: 0.8; stroke: #800080; stroke-opacity: 0.8"/>
    <path d="M 62.997384 243.928035 
C 63.126239 243.928035 63.249833 243.876841 63.340946 243.785727 
C 63.43206 243.694614 63.483255 243.571019 63.483255 243.442165 
C 63.483255 243.313311 63.43206 243.189717 63.340946 243.098603 
C 63.249833 243.007489 63.126239 242.956295 62.997384 242.956295 
C 62.86853 242.956295 62.744936 243.007489 62.653822 243.098603 
C 62.562708 243.189717 62.511514 243.313311 62.511514 243.442165 
C 62.511514 243.571019 62.562708 243.694614 62.653822 243.785727 
C 62.744936 243.876841 62.86853 243.928035 62.997384 243.928035 
z
" clip-path="url(#p27ae30b335)" style="fill: #800080; fill-opacity: 0.8; stroke: #800080; stroke-opacity: 0.8"/>
    <path d="M 70.078859 271.987532 
C 70.248102 271.987532 70.410435 271.920291 70.530108 271.800619 
C 70.64978 271.680947 70.717021 271.518613 70.717021 271.349371 
C 70.717021 271.180128 70.64978 271.017795 70.530108 270.898122 
C 70.410435 270.77845 70.248102 270.711209 70.078859 270.711209 
C 69.909617 270.711209 69.747284 270.77845 69.627611 270.898122 
C 69.507939 271.017795 69.440698 271.180128 69.440698 271.349371 
C 69.440698 271.518613 69.507939 271.680947 69.627611 271.800619 
C 69.747284 271.920291 69.909617 271.987532 70.078859 271.987532 
z
" clip-path="url(#p27ae30b335)" style="fill: #800080; fill-opacity: 0.8; stroke: #800080; stroke-opacity: 0.8"/>
    <path d="M 77.160334 265.635234 
C 77.336773 265.635234 77.506009 265.565134 77.63077 265.440373 
C 77.755532 265.315612 77.825631 265.146376 77.825631 264.969937 
C 77.825631 264.793498 77.755532 264.624262 77.63077 264.499501 
C 77.506009 264.37474 77.336773 264.30464 77.160334 264.30464 
C 76.983896 264.30464 76.81466 264.37474 76.689899 264.499501 
C 76.565137 264.624262 76.495038 264.793498 76.495038 264.969937 
C 76.495038 265.146376 76.565137 265.315612 76.689899 265.440373 
C 76.81466 265.565134 76.983896 265.635234 77.160334 265.635234 
z
" clip-path="url(#p27ae30b335)" style="fill: #800080; fill-opacity: 0.8; stroke: #800080; stroke-opacity: 0.8"/>
    <path d="M 84.24181 225.300471 
C 84.419428 225.300471 84.589796 225.229902 84.715392 225.104307 
C 84.840987 224.978711 84.911556 224.808344 84.911556 224.630725 
C 84.911556 224.453106 84.840987 224.282738 84.715392 224.157143 
C 84.589796 224.031547 84.419428 223.960979 84.24181 223.960979 
C 84.064191 223.960979 83.893823 224.031547 83.768228 224.157143 
C 83.642632 224.282738 83.572063 224.453106 83.572063 224.630725 
C 83.572063 224.808344 83.642632 224.978711 83.768228 225.104307 
C 83.893823 225.229902 84.064191 225.300471 84.24181 225.300471 
z
" clip-path="url(#p27ae30b335)" style="fill: #800080; fill-opacity: 0.8; stroke: #800080; stroke-opacity: 0.8"/>
    <path d="M 91.323285 275.375458 
C 91.551071 275.375458 91.769558 275.284957 91.930627 275.123888 
C 92.091696 274.962819 92.182197 274.744332 92.182197 274.516546 
C 92.182197 274.288759 92.091696 274.070272 91.930627 273.909203 
C 91.769558 273.748134 91.551071 273.657633 91.323285 273.657633 
C 91.095499 273.657633 90.877011 273.748134 90.715942 273.909203 
C 90.554873 274.070272 90.464373 274.288759 90.464373 274.516546 
C 90.464373 274.744332 90.554873 274.962819 90.715942 275.123888 
C 90.877011 275.284957 91.095499 275.375458 91.323285 275.375458 
z
" clip-path="url(#p27ae30b335)" style="fill: #800080; fill-opacity: 0.8; stroke: #800080; stroke-opacity: 0.8"/>
    <path d="M 98.40476 254.814966 
C 98.575213 254.814966 98.738709 254.747244 98.859238 254.626715 
C 98.979766 254.506187 99.047488 254.342691 99.047488 254.172238 
C 99.047488 254.001784 98.979766 253.838289 98.859238 253.71776 
C 98.738709 253.597231 98.575213 253.529509 98.40476 253.529509 
C 98.234306 253.529509 98.070811 253.597231 97.950282 253.71776 
C 97.829753 253.838289 97.762031 254.001784 97.762031 254.172238 
C 97.762031 254.342691 97.829753 254.506187 97.950282 254.626715 
C 98.070811 254.747244 98.234306 254.814966 98.40476 254.814966 
z
" clip-path="url(#p27ae30b335)" style="fill: #800080; fill-opacity: 0.8; stroke: #800080; stroke-opacity: 0.8"/>
    <path d="M 105.486235 208.627261 
C 105.701844 208.627261 105.908651 208.541599 106.061109 208.38914 
C 106.213567 208.236682 106.299229 208.029875 106.299229 207.814267 
C 106.299229 207.598658 106.213567 207.391851 106.061109 207.239393 
C 105.908651 207.086934 105.701844 207.001272 105.486235 207.001272 
C 105.270626 207.001272 105.063819 207.086934 104.911361 207.239393 
C 104.758903 207.391851 104.673241 207.598658 104.673241 207.814267 
C 104.673241 208.029875 104.758903 208.236682 104.911361 208.38914 
C 105.063819 208.541599 105.270626 208.627261 105.486235 208.627261 
z
" clip-path="url(#p27ae30b335)" style="fill: #800080; fill-opacity: 0.8; stroke: #800080; stroke-opacity: 0.8"/>
    <path d="M 112.56771 280.244205 
C 112.774477 280.244205 112.972803 280.162056 113.119009 280.01585 
C 113.265215 279.869644 113.347364 279.671318 113.347364 279.464552 
C 113.347364 279.257785 113.265215 279.059459 113.119009 278.913253 
C 112.972803 278.767047 112.774477 278.684898 112.56771 278.684898 
C 112.360944 278.684898 112.162618 278.767047 112.016412 278.913253 
C 111.870206 279.059459 111.788056 279.257785 111.788056 279.464552 
C 111.788056 279.671318 111.870206 279.869644 112.016412 280.01585 
C 112.162618 280.162056 112.360944 280.244205 112.56771 280.244205 
z
" clip-path="url(#p27ae30b335)" style="fill: #800080; fill-opacity: 0.8; stroke: #800080; stroke-opacity: 0.8"/>
    <path d="M 119.649185 213.236418 
C 119.888517 213.236418 120.118078 213.141331 120.287311 212.972098 
C 120.456544 212.802865 120.551632 212.573303 120.551632 212.333971 
C 120.551632 212.09464 120.456544 211.865078 120.287311 211.695845 
C 120.118078 211.526612 119.888517 211.431525 119.649185 211.431525 
C 119.409854 211.431525 119.180292 211.526612 119.011059 211.695845 
C 118.841826 211.865078 118.746739 212.09464 118.746739 212.333971 
C 118.746739 212.573303 118.841826 212.802865 119.011059 212.972098 
C 119.180292 213.141331 119.409854 213.236418 119.649185 213.236418 
z
" clip-path="url(#p27ae30b335)" style="fill: #800080; fill-opacity: 0.8; stroke: #800080; stroke-opacity: 0.8"/>
    <path d="M 126.73066 223.800152 
C 126.964737 223.800152 127.189258 223.707153 127.354776 223.541635 
C 127.520293 223.376118 127.613293 223.151597 127.613293 222.91752 
C 127.613293 222.683443 127.520293 222.458922 127.354776 222.293405 
C 127.189258 222.127887 126.964737 222.034888 126.73066 222.034888 
C 126.496584 222.034888 126.272062 222.127887 126.106545 222.293405 
C 125.941028 222.458922 125.848028 222.683443 125.848028 222.91752 
C 125.848028 223.151597 125.941028 223.376118 126.106545 223.541635 
C 126.272062 223.707153 126.496584 223.800152 126.73066 223.800152 
z
" clip-path="url(#p27ae30b335)" style="fill: #800080; fill-opacity: 0.8; stroke: #800080; stroke-opacity: 0.8"/>
    <path d="M 133.812136 247.513454 
C 134.069844 247.513454 134.317032 247.411065 134.49926 247.228838 
C 134.681487 247.04661 134.783876 246.799422 134.783876 246.541713 
C 134.783876 246.284005 134.681487 246.036816 134.49926 245.854589 
C 134.317032 245.672361 134.069844 245.569973 133.812136 245.569973 
C 133.554427 245.569973 133.307239 245.672361 133.125011 245.854589 
C 132.942784 246.036816 132.840395 246.284005 132.840395 246.541713 
C 132.840395 246.799422 132.942784 247.04661 133.125011 247.228838 
C 133.307239 247.411065 133.554427 247.513454 133.812136 247.513454 
z
" clip-path="url(#p27ae30b335)" style="fill: #800080; fill-opacity: 0.8; stroke: #800080; stroke-opacity: 0.8"/>
    <path d="M 140.893611 230.632417 
C 141.131204 230.632417 141.359097 230.53802 141.527101 230.370017 
C 141.695105 230.202013 141.789501 229.974119 141.789501 229.736526 
C 141.789501 229.498933 141.695105 229.271039 141.527101 229.103036 
C 141.359097 228.935032 141.131204 228.840636 140.893611 228.840636 
C 140.656018 228.840636 140.428124 228.935032 140.26012 229.103036 
C 140.092117 229.271039 139.99772 229.498933 139.99772 229.736526 
C 139.99772 229.974119 140.092117 230.202013 140.26012 230.370017 
C 140.428124 230.53802 140.656018 230.632417 140.893611 230.632417 
z
" clip-path="url(#p27ae30b335)" style="fill: #800080; fill-opacity: 0.8; stroke: #800080; stroke-opacity: 0.8"/>
    <path d="M 147.975086 227.895242 
C 148.222097 227.895242 148.459024 227.797103 148.633687 227.62244 
C 148.80835 227.447777 148.906488 227.21085 148.906488 226.963839 
C 148.906488 226.716829 148.80835 226.479902 148.633687 226.305239 
C 148.459024 226.130576 148.222097 226.032437 147.975086 226.032437 
C 147.728075 226.032437 147.491148 226.130576 147.316485 226.305239 
C 147.141822 226.479902 147.043684 226.716829 147.043684 226.963839 
C 147.043684 227.21085 147.141822 227.447777 147.316485 227.62244 
C 147.491148 227.797103 147.728075 227.895242 147.975086 227.895242 
z
" clip-path="url(#p27ae30b335)" style="fill: #800080; fill-opacity: 0.8; stroke: #800080; stroke-opacity: 0.8"/>
    <path d="M 155.056561 249.504122 
C 155.268289 249.504122 155.471373 249.420002 155.621087 249.270288 
C 155.770801 249.120574 155.854922 248.917489 155.854922 248.705762 
C 155.854922 248.494034 155.770801 248.290949 155.621087 248.141235 
C 155.471373 247.991521 155.268289 247.907401 155.056561 247.907401 
C 154.844833 247.907401 154.641749 247.991521 154.492035 248.141235 
C 154.34232 248.290949 154.2582 248.494034 154.2582 248.705762 
C 154.2582 248.917489 154.34232 249.120574 154.492035 249.270288 
C 154.641749 249.420002 154.844833 249.504122 155.056561 249.504122 
z
" clip-path="url(#p27ae30b335)" style="fill: #800080; fill-opacity: 0.8; stroke: #800080; stroke-opacity: 0.8"/>
    <path d="M 162.138036 214.99146 
C 162.376507 214.99146 162.605242 214.896715 162.773866 214.728091 
C 162.94249 214.559467 163.037236 214.330731 163.037236 214.092261 
C 163.037236 213.85379 162.94249 213.625055 162.773866 213.456431 
C 162.605242 213.287806 162.376507 213.193061 162.138036 213.193061 
C 161.899565 213.193061 161.67083 213.287806 161.502206 213.456431 
C 161.333582 213.625055 161.238836 213.85379 161.238836 214.092261 
C 161.238836 214.330731 161.333582 214.559467 161.502206 214.728091 
C 161.67083 214.896715 161.899565 214.99146 162.138036 214.99146 
z
" clip-path="url(#p27ae30b335)" style="fill: #800080; fill-opacity: 0.8; stroke: #800080; stroke-opacity: 0.8"/>
    <path d="M 169.219511 198.100081 
C 169.473982 198.100081 169.718064 197.998978 169.898002 197.81904 
C 170.07794 197.639102 170.179042 197.39502 170.179042 197.140549 
C 170.179042 196.886079 170.07794 196.641996 169.898002 196.462058 
C 169.718064 196.28212 169.473982 196.181018 169.219511 196.181018 
C 168.965041 196.181018 168.720958 196.28212 168.54102 196.462058 
C 168.361082 196.641996 168.25998 196.886079 168.25998 197.140549 
C 168.25998 197.39502 168.361082 197.639102 168.54102 197.81904 
C 168.720958 197.998978 168.965041 198.100081 169.219511 198.100081 
z
" clip-path="url(#p27ae30b335)" style="fill: #800080; fill-opacity: 0.8; stroke: #800080; stroke-opacity: 0.8"/>
    <path d="M 176.300986 239.261415 
C 176.546313 239.261415 176.781624 239.163946 176.955096 238.990474 
C 177.128568 238.817002 177.226038 238.58169 177.226038 238.336364 
C 177.226038 238.091037 177.128568 237.855726 176.955096 237.682254 
C 176.781624 237.508782 176.546313 237.411312 176.300986 237.411312 
C 176.05566 237.411312 175.820348 237.508782 175.646876 237.682254 
C 175.473404 237.855726 175.375935 238.091037 175.375935 238.336364 
C 175.375935 238.58169 175.473404 238.817002 175.646876 238.990474 
C 175.820348 239.163946 176.05566 239.261415 176.300986 239.261415 
z
" clip-path="url(#p27ae30b335)" style="fill: #800080; fill-opacity: 0.8; stroke: #800080; stroke-opacity: 0.8"/>
    <path d="M 183.382461 235.991237 
C 183.624384 235.991237 183.856431 235.89512 184.027496 235.724055 
C 184.198562 235.55299 184.294678 235.320943 184.294678 235.07902 
C 184.294678 234.837098 184.198562 234.605051 184.027496 234.433985 
C 183.856431 234.26292 183.624384 234.166803 183.382461 234.166803 
C 183.140539 234.166803 182.908492 234.26292 182.737427 234.433985 
C 182.566361 234.605051 182.470244 234.837098 182.470244 235.07902 
C 182.470244 235.320943 182.566361 235.55299 182.737427 235.724055 
C 182.908492 235.89512 183.140539 235.991237 183.382461 235.991237 
z
" clip-path="url(#p27ae30b335)" style="fill: #800080; fill-opacity: 0.8; stroke: #800080; stroke-opacity: 0.8"/>
    <path d="M 190.463937 221.710773 
C 190.705859 221.710773 190.937906 221.614656 191.108971 221.443591 
C 191.280037 221.272526 191.376154 221.040479 191.376154 220.798556 
C 191.376154 220.556633 191.280037 220.324586 191.108971 220.153521 
C 190.937906 219.982456 190.705859 219.886339 190.463937 219.886339 
C 190.222014 219.886339 189.989967 219.982456 189.818902 220.153521 
C 189.647836 220.324586 189.551719 220.556633 189.551719 220.798556 
C 189.551719 221.040479 189.647836 221.272526 189.818902 221.443591 
C 189.989967 221.614656 190.222014 221.710773 190.463937 221.710773 
z
" clip-path="url(#p27ae30b335)" style="fill: #800080; fill-opacity: 0.8; stroke: #800080; stroke-opacity: 0.8"/>
    <path d="M 197.545412 229.757457 
C 197.79906 229.757457 198.042354 229.656681 198.22171 229.477325 
C 198.401067 229.297968 198.501843 229.054675 198.501843 228.801026 
C 198.501843 228.547378 198.401067 228.304084 198.22171 228.124727 
C 198.042354 227.945371 197.79906 227.844595 197.545412 227.844595 
C 197.291763 227.844595 197.048469 227.945371 196.869113 228.124727 
C 196.689756 228.304084 196.588981 228.547378 196.588981 228.801026 
C 196.588981 229.054675 196.689756 229.297968 196.869113 229.477325 
C 197.048469 229.656681 197.291763 229.757457 197.545412 229.757457 
z
" clip-path="url(#p27ae30b335)" style="fill: #800080; fill-opacity: 0.8; stroke: #800080; stroke-opacity: 0.8"/>
    <path d="M 204.626887 227.295697 
C 204.900222 227.295697 205.162399 227.1871 205.355677 226.993822 
C 205.548954 226.800545 205.657552 226.538368 205.657552 226.265032 
C 205.657552 225.991697 205.548954 225.729519 205.355677 225.536242 
C 205.162399 225.342965 204.900222 225.234367 204.626887 225.234367 
C 204.353551 225.234367 204.091374 225.342965 203.898097 225.536242 
C 203.704819 225.729519 203.596222 225.991697 203.596222 226.265032 
C 203.596222 226.538368 203.704819 226.800545 203.898097 226.993822 
C 204.091374 227.1871 204.353551 227.295697 204.626887 227.295697 
z
" clip-path="url(#p27ae30b335)" style="fill: #800080; fill-opacity: 0.8; stroke: #800080; stroke-opacity: 0.8"/>
    <path d="M 211.708362 212.641015 
C 212.005008 212.641015 212.289544 212.523156 212.499304 212.313396 
C 212.709065 212.103635 212.826923 211.819099 212.826923 211.522453 
C 212.826923 211.225807 212.709065 210.941271 212.499304 210.731511 
C 212.289544 210.521751 212.005008 210.403892 211.708362 210.403892 
C 211.411716 210.403892 211.12718 210.521751 210.917419 210.731511 
C 210.707659 210.941271 210.5898 211.225807 210.5898 211.522453 
C 210.5898 211.819099 210.707659 212.103635 210.917419 212.313396 
C 211.12718 212.523156 211.411716 212.641015 211.708362 212.641015 
z
" clip-path="url(#p27ae30b335)" style="fill: #800080; fill-opacity: 0.8; stroke: #800080; stroke-opacity: 0.8"/>
    <path d="M 218.789837 226.790998 
C 219.075792 226.790998 219.350073 226.677386 219.552274 226.475186 
C 219.754475 226.272985 219.868086 225.998704 219.868086 225.712749 
C 219.868086 225.426794 219.754475 225.152513 219.552274 224.950312 
C 219.350073 224.748111 219.075792 224.6345 218.789837 224.6345 
C 218.503882 224.6345 218.229601 224.748111 218.0274 224.950312 
C 217.8252 225.152513 217.711588 225.426794 217.711588 225.712749 
C 217.711588 225.998704 217.8252 226.272985 218.0274 226.475186 
C 218.229601 226.677386 218.503882 226.790998 218.789837 226.790998 
z
" clip-path="url(#p27ae30b335)" style="fill: #800080; fill-opacity: 0.8; stroke: #800080; stroke-opacity: 0.8"/>
    <path d="M 225.871312 209.766403 
C 226.152884 209.766403 226.422961 209.654533 226.622062 209.455432 
C 226.821163 209.256331 226.933032 208.986254 226.933032 208.704682 
C 226.933032 208.423111 226.821163 208.153034 226.622062 207.953933 
C 226.422961 207.754831 226.152884 207.642962 225.871312 207.642962 
C 225.589741 207.642962 225.319664 207.754831 225.120563 207.953933 
C 224.921461 208.153034 224.809592 208.423111 224.809592 208.704682 
C 224.809592 208.986254 224.921461 209.256331 225.120563 209.455432 
C 225.319664 209.654533 225.589741 209.766403 225.871312 209.766403 
z
" clip-path="url(#p27ae30b335)" style="fill: #800080; fill-opacity: 0.8; stroke: #800080; stroke-opacity: 0.8"/>
    <path d="M 232.952787 179.929739 
C 233.257714 179.929739 233.550193 179.808591 233.765809 179.592975 
C 233.981425 179.377359 234.102574 179.08488 234.102574 178.779952 
C 234.102574 178.475025 233.981425 178.182546 233.765809 177.96693 
C 233.550193 177.751314 233.257714 177.630166 232.952787 177.630166 
C 232.64786 177.630166 232.355381 177.751314 232.139765 177.96693 
C 231.924149 178.182546 231.803 178.475025 231.803 178.779952 
C 231.803 179.08488 231.924149 179.377359 232.139765 179.592975 
C 232.355381 179.808591 232.64786 179.929739 232.952787 179.929739 
z
" clip-path="url(#p27ae30b335)" style="fill: #800080; fill-opacity: 0.8; stroke: #800080; stroke-opacity: 0.8"/>
    <path d="M 240.034262 224.694862 
C 240.341217 224.694862 240.635641 224.572908 240.852691 224.355858 
C 241.069741 224.138808 241.191695 223.844384 241.191695 223.53743 
C 241.191695 223.230475 241.069741 222.936051 240.852691 222.719001 
C 240.635641 222.501952 240.341217 222.379997 240.034262 222.379997 
C 239.727308 222.379997 239.432884 222.501952 239.215834 222.719001 
C 238.998784 222.936051 238.87683 223.230475 238.87683 223.53743 
C 238.87683 223.844384 238.998784 224.138808 239.215834 224.355858 
C 239.432884 224.572908 239.727308 224.694862 240.034262 224.694862 
z
" clip-path="url(#p27ae30b335)" style="fill: #800080; fill-opacity: 0.8; stroke: #800080; stroke-opacity: 0.8"/>
    <path d="M 247.115738 202.552377 
C 247.430049 202.552377 247.731528 202.4275 247.95378 202.205248 
C 248.176031 201.982997 248.300908 201.681517 248.300908 201.367206 
C 248.300908 201.052895 248.176031 200.751415 247.95378 200.529164 
C 247.731528 200.306912 247.430049 200.182035 247.115738 200.182035 
C 246.801427 200.182035 246.499947 200.306912 246.277695 200.529164 
C 246.055444 200.751415 245.930567 201.052895 245.930567 201.367206 
C 245.930567 201.681517 246.055444 201.982997 246.277695 202.205248 
C 246.499947 202.4275 246.801427 202.552377 247.115738 202.552377 
z
" clip-path="url(#p27ae30b335)" style="fill: #800080; fill-opacity: 0.8; stroke: #800080; stroke-opacity: 0.8"/>
    <path d="M 254.197213 205.604028 
C 254.525723 205.604028 254.840823 205.473509 255.073115 205.241217 
C 255.305407 205.008925 255.435926 204.693825 255.435926 204.365315 
C 255.435926 204.036804 255.305407 203.721704 255.073115 203.489412 
C 254.840823 203.25712 254.525723 203.126602 254.197213 203.126602 
C 253.868702 203.126602 253.553602 203.25712 253.32131 203.489412 
C 253.089018 203.721704 252.9585 204.036804 252.9585 204.365315 
C 252.9585 204.693825 253.089018 205.008925 253.32131 205.241217 
C 253.553602 205.473509 253.868702 205.604028 254.197213 205.604028 
z
" clip-path="url(#p27ae30b335)" style="fill: #800080; fill-opacity: 0.8; stroke: #800080; stroke-opacity: 0.8"/>
    <path d="M 261.278688 145.59404 
C 261.621419 145.59404 261.950159 145.457871 262.192507 145.215523 
C 262.434854 144.973176 262.571023 144.644436 262.571023 144.301705 
C 262.571023 143.958973 262.434854 143.630233 262.192507 143.387886 
C 261.950159 143.145538 261.621419 143.009369 261.278688 143.009369 
C 260.935957 143.009369 260.607217 143.145538 260.364869 143.387886 
C 260.122521 143.630233 259.986353 143.958973 259.986353 144.301705 
C 259.986353 144.644436 260.122521 144.973176 260.364869 145.215523 
C 260.607217 145.457871 260.935957 145.59404 261.278688 145.59404 
z
" clip-path="url(#p27ae30b335)" style="fill: #800080; fill-opacity: 0.8; stroke: #800080; stroke-opacity: 0.8"/>
    <path d="M 268.360163 182.31257 
C 268.717134 182.31257 269.059532 182.170744 269.311948 181.918328 
C 269.564364 181.665912 269.70619 181.323514 269.70619 180.966543 
C 269.70619 180.609572 269.564364 180.267174 269.311948 180.014758 
C 269.059532 179.762341 268.717134 179.620515 268.360163 179.620515 
C 268.003192 179.620515 267.660794 179.762341 267.408378 180.014758 
C 267.155961 180.267174 267.014135 180.609572 267.014135 180.966543 
C 267.014135 181.323514 267.155961 181.665912 267.408378 181.918328 
C 267.660794 182.170744 268.003192 182.31257 268.360163 182.31257 
z
" clip-path="url(#p27ae30b335)" style="fill: #800080; fill-opacity: 0.8; stroke: #800080; stroke-opacity: 0.8"/>
    <path d="M 275.441638 190.434321 
C 275.800351 190.434321 276.144421 190.291803 276.398069 190.038155 
C 276.651717 189.784506 276.794236 189.440437 276.794236 189.081724 
C 276.794236 188.723011 276.651717 188.378941 276.398069 188.125293 
C 276.144421 187.871645 275.800351 187.729126 275.441638 187.729126 
C 275.082925 187.729126 274.738856 187.871645 274.485207 188.125293 
C 274.231559 188.378941 274.089041 188.723011 274.089041 189.081724 
C 274.089041 189.440437 274.231559 189.784506 274.485207 190.038155 
C 274.738856 190.291803 275.082925 190.434321 275.441638 190.434321 
z
" clip-path="url(#p27ae30b335)" style="fill: #800080; fill-opacity: 0.8; stroke: #800080; stroke-opacity: 0.8"/>
    <path d="M 282.523113 178.447608 
C 282.904267 178.447608 283.269862 178.296174 283.539378 178.026657 
C 283.808895 177.757141 283.960329 177.391546 283.960329 177.010392 
C 283.960329 176.629238 283.808895 176.263644 283.539378 175.994127 
C 283.269862 175.72461 282.904267 175.573176 282.523113 175.573176 
C 282.141959 175.573176 281.776365 175.72461 281.506848 175.994127 
C 281.237331 176.263644 281.085897 176.629238 281.085897 177.010392 
C 281.085897 177.391546 281.237331 177.757141 281.506848 178.026657 
C 281.776365 178.296174 282.141959 178.447608 282.523113 178.447608 
z
" clip-path="url(#p27ae30b335)" style="fill: #800080; fill-opacity: 0.8; stroke: #800080; stroke-opacity: 0.8"/>
    <path d="M 289.604588 171.707492 
C 290.024599 171.707492 290.427464 171.54062 290.724457 171.243628 
C 291.021449 170.946635 291.188321 170.54377 291.188321 170.123759 
C 291.188321 169.703749 291.021449 169.300884 290.724457 169.003891 
C 290.427464 168.706899 290.024599 168.540027 289.604588 168.540027 
C 289.184577 168.540027 288.781713 168.706899 288.48472 169.003891 
C 288.187727 169.300884 288.020855 169.703749 288.020855 170.123759 
C 288.020855 170.54377 288.187727 170.946635 288.48472 171.243628 
C 288.781713 171.54062 289.184577 171.707492 289.604588 171.707492 
z
" clip-path="url(#p27ae30b335)" style="fill: #800080; fill-opacity: 0.8; stroke: #800080; stroke-opacity: 0.8"/>
    <path d="M 296.686063 139.256486 
C 297.14751 139.256486 297.590119 139.073151 297.916411 138.746859 
C 298.242703 138.420567 298.426038 137.977958 298.426038 137.516512 
C 298.426038 137.055065 298.242703 136.612456 297.916411 136.286164 
C 297.590119 135.959872 297.14751 135.776537 296.686063 135.776537 
C 296.224617 135.776537 295.782008 135.959872 295.455716 136.286164 
C 295.129424 136.612456 294.946089 137.055065 294.946089 137.516512 
C 294.946089 137.977958 295.129424 138.420567 295.455716 138.746859 
C 295.782008 139.073151 296.224617 139.256486 296.686063 139.256486 
z
" clip-path="url(#p27ae30b335)" style="fill: #800080; fill-opacity: 0.8; stroke: #800080; stroke-opacity: 0.8"/>
    <path d="M 303.767539 142.137702 
C 304.2488 142.137702 304.710415 141.946494 305.050718 141.606191 
C 305.391021 141.265888 305.582229 140.804273 305.582229 140.323012 
C 305.582229 139.84175 305.391021 139.380135 305.050718 139.039832 
C 304.710415 138.699529 304.2488 138.508322 303.767539 138.508322 
C 303.286277 138.508322 302.824662 138.699529 302.484359 139.039832 
C 302.144056 139.380135 301.952849 139.84175 301.952849 140.323012 
C 301.952849 140.804273 302.144056 141.265888 302.484359 141.606191 
C 302.824662 141.946494 303.286277 142.137702 303.767539 142.137702 
z
" clip-path="url(#p27ae30b335)" style="fill: #800080; fill-opacity: 0.8; stroke: #800080; stroke-opacity: 0.8"/>
    <path d="M 310.849014 167.086562 
C 311.322886 167.086562 311.777413 166.898291 312.112491 166.563213 
C 312.447569 166.228134 312.635841 165.773607 312.635841 165.299735 
C 312.635841 164.825863 312.447569 164.371336 312.112491 164.036258 
C 311.777413 163.70118 311.322886 163.512908 310.849014 163.512908 
C 310.375142 163.512908 309.920614 163.70118 309.585536 164.036258 
C 309.250458 164.371336 309.062187 164.825863 309.062187 165.299735 
C 309.062187 165.773607 309.250458 166.228134 309.585536 166.563213 
C 309.920614 166.898291 310.375142 167.086562 310.849014 167.086562 
z
" clip-path="url(#p27ae30b335)" style="fill: #800080; fill-opacity: 0.8; stroke: #800080; stroke-opacity: 0.8"/>
    <path d="M 317.930489 131.304577 
C 318.411323 131.304577 318.872527 131.113539 319.212528 130.773539 
C 319.552529 130.433538 319.743566 129.972333 319.743566 129.491499 
C 319.743566 129.010665 319.552529 128.549461 319.212528 128.20946 
C 318.872527 127.869459 318.411323 127.678422 317.930489 127.678422 
C 317.449655 127.678422 316.98845 127.869459 316.648449 128.20946 
C 316.308449 128.549461 316.117411 129.010665 316.117411 129.491499 
C 316.117411 129.972333 316.308449 130.433538 316.648449 130.773539 
C 316.98845 131.113539 317.449655 131.304577 317.930489 131.304577 
z
" clip-path="url(#p27ae30b335)" style="fill: #800080; fill-opacity: 0.8; stroke: #800080; stroke-opacity: 0.8"/>
    <path d="M 325.011964 124.825985 
C 325.514327 124.825985 325.996182 124.626394 326.351406 124.27117 
C 326.70663 123.915946 326.906221 123.434091 326.906221 122.931728 
C 326.906221 122.429365 326.70663 121.94751 326.351406 121.592286 
C 325.996182 121.237062 325.514327 121.037471 325.011964 121.037471 
C 324.509601 121.037471 324.027746 121.237062 323.672522 121.592286 
C 323.317298 121.94751 323.117707 122.429365 323.117707 122.931728 
C 323.117707 123.434091 323.317298 123.915946 323.672522 124.27117 
C 324.027746 124.626394 324.509601 124.825985 325.011964 124.825985 
z
" clip-path="url(#p27ae30b335)" style="fill: #800080; fill-opacity: 0.8; stroke: #800080; stroke-opacity: 0.8"/>
    <path d="M 332.093439 111.007829 
C 332.622756 111.007829 333.130464 110.79753 333.504747 110.423246 
C 333.87903 110.048963 334.08933 109.541255 334.08933 109.011938 
C 334.08933 108.482622 333.87903 107.974914 333.504747 107.600631 
C 333.130464 107.226347 332.622756 107.016048 332.093439 107.016048 
C 331.564123 107.016048 331.056414 107.226347 330.682131 107.600631 
C 330.307848 107.974914 330.097548 108.482622 330.097548 109.011938 
C 330.097548 109.541255 330.307848 110.048963 330.682131 110.423246 
C 331.056414 110.79753 331.564123 111.007829 332.093439 111.007829 
z
" clip-path="url(#p27ae30b335)" style="fill: #800080; fill-opacity: 0.8; stroke: #800080; stroke-opacity: 0.8"/>
    <path d="M 339.174914 110.376139 
C 339.728009 110.376139 340.258524 110.156393 340.649621 109.765296 
C 341.040718 109.374199 341.260465 108.843683 341.260465 108.290589 
C 341.260465 107.737495 341.040718 107.206979 340.649621 106.815882 
C 340.258524 106.424785 339.728009 106.205039 339.174914 106.205039 
C 338.62182 106.205039 338.091304 106.424785 337.700207 106.815882 
C 337.309111 107.206979 337.089364 107.737495 337.089364 108.290589 
C 337.089364 108.843683 337.309111 109.374199 337.700207 109.765296 
C 338.091304 110.156393 338.62182 110.376139 339.174914 110.376139 
z
" clip-path="url(#p27ae30b335)" style="fill: #800080; fill-opacity: 0.8; stroke: #800080; stroke-opacity: 0.8"/>
    <path d="M 346.256389 84.052137 
C 346.822833 84.052137 347.366153 83.827087 347.766689 83.426551 
C 348.167225 83.026014 348.392276 82.482695 348.392276 81.916251 
C 348.392276 81.349807 348.167225 80.806487 347.766689 80.405951 
C 347.366153 80.005415 346.822833 79.780365 346.256389 79.780365 
C 345.689946 79.780365 345.146626 80.005415 344.74609 80.405951 
C 344.345554 80.806487 344.120503 81.349807 344.120503 81.916251 
C 344.120503 82.482695 344.345554 83.026014 344.74609 83.426551 
C 345.146626 83.827087 345.689946 84.052137 346.256389 84.052137 
z
" clip-path="url(#p27ae30b335)" style="fill: #800080; fill-opacity: 0.8; stroke: #800080; stroke-opacity: 0.8"/>
    <path d="M 353.337864 85.27547 
C 353.938794 85.27547 354.515193 85.036718 354.940114 84.611796 
C 355.365036 84.186874 355.603788 83.610476 355.603788 83.009546 
C 355.603788 82.408616 355.365036 81.832218 354.940114 81.407296 
C 354.515193 80.982375 353.938794 80.743623 353.337864 80.743623 
C 352.736935 80.743623 352.160536 80.982375 351.735615 81.407296 
C 351.310693 81.832218 351.071941 82.408616 351.071941 83.009546 
C 351.071941 83.610476 351.310693 84.186874 351.735615 84.611796 
C 352.160536 85.036718 352.736935 85.27547 353.337864 85.27547 
z
" clip-path="url(#p27ae30b335)" style="fill: #800080; fill-opacity: 0.8; stroke: #800080; stroke-opacity: 0.8"/>
    <path d="M 360.41934 98.040917 
C 361.03696 98.040917 361.629367 97.795533 362.066091 97.35881 
C 362.502815 96.922086 362.748198 96.329679 362.748198 95.712059 
C 362.748198 95.094438 362.502815 94.502031 362.066091 94.065307 
C 361.629367 93.628584 361.03696 93.3832 360.41934 93.3832 
C 359.801719 93.3832 359.209312 93.628584 358.772588 94.065307 
C 358.335865 94.502031 358.090482 95.094438 358.090482 95.712059 
C 358.090482 96.329679 358.335865 96.922086 358.772588 97.35881 
C 359.209312 97.795533 359.801719 98.040917 360.41934 98.040917 
z
" clip-path="url(#p27ae30b335)" style="fill: #800080; fill-opacity: 0.8; stroke: #800080; stroke-opacity: 0.8"/>
    <path d="M 367.500815 86.384458 
C 368.165689 86.384458 368.803421 86.1203 369.273558 85.650163 
C 369.743695 85.180026 370.007853 84.542294 370.007853 83.87742 
C 370.007853 83.212545 369.743695 82.574813 369.273558 82.104676 
C 368.803421 81.634539 368.165689 81.370382 367.500815 81.370382 
C 366.83594 81.370382 366.198208 81.634539 365.728071 82.104676 
C 365.257934 82.574813 364.993777 83.212545 364.993777 83.87742 
C 364.993777 84.542294 365.257934 85.180026 365.728071 85.650163 
C 366.198208 86.1203 366.83594 86.384458 367.500815 86.384458 
z
" clip-path="url(#p27ae30b335)" style="fill: #800080; fill-opacity: 0.8; stroke: #800080; stroke-opacity: 0.8"/>
    <path d="M 374.58229 62.21047 
C 375.29565 62.21047 375.979889 61.927049 376.484311 61.422627 
C 376.988733 60.918205 377.272154 60.233966 377.272154 59.520606 
C 377.272154 58.807245 376.988733 58.123006 376.484311 57.618584 
C 375.979889 57.114162 375.29565 56.830741 374.58229 56.830741 
C 373.86893 56.830741 373.184691 57.114162 372.680269 57.618584 
C 372.175847 58.123006 371.892426 58.807245 371.892426 59.520606 
C 371.892426 60.233966 372.175847 60.918205 372.680269 61.422627 
C 373.184691 61.927049 373.86893 62.21047 374.58229 62.21047 
z
" clip-path="url(#p27ae30b335)" style="fill: #800080; fill-opacity: 0.8; stroke: #800080; stroke-opacity: 0.8"/>
    <path d="M 381.663765 74.068729 
C 382.422248 74.068729 383.149768 73.767381 383.686097 73.231052 
C 384.222425 72.694723 384.523774 71.967204 384.523774 71.208721 
C 384.523774 70.450237 384.222425 69.722718 383.686097 69.186389 
C 383.149768 68.65006 382.422248 68.348712 381.663765 68.348712 
C 380.905282 68.348712 380.177762 68.65006 379.641433 69.186389 
C 379.105105 69.722718 378.803756 70.450237 378.803756 71.208721 
C 378.803756 71.967204 379.105105 72.694723 379.641433 73.231052 
C 380.177762 73.767381 380.905282 74.068729 381.663765 74.068729 
z
" clip-path="url(#p27ae30b335)" style="fill: #800080; fill-opacity: 0.8; stroke: #800080; stroke-opacity: 0.8"/>
    <path d="M 388.74524 55.047855 
C 389.522909 55.047855 390.268831 54.738884 390.818726 54.188989 
C 391.368621 53.639094 391.677592 52.893172 391.677592 52.115503 
C 391.677592 51.337834 391.368621 50.591912 390.818726 50.042017 
C 390.268831 49.492122 389.522909 49.183151 388.74524 49.183151 
C 387.967571 49.183151 387.221649 49.492122 386.671754 50.042017 
C 386.121859 50.591912 385.812888 51.337834 385.812888 52.115503 
C 385.812888 52.893172 386.121859 53.639094 386.671754 54.188989 
C 387.221649 54.738884 387.967571 55.047855 388.74524 55.047855 
z
" clip-path="url(#p27ae30b335)" style="fill: #800080; fill-opacity: 0.8; stroke: #800080; stroke-opacity: 0.8"/>
    <path d="M 395.826715 58.986631 
C 396.614722 58.986631 397.37056 58.673553 397.927765 58.116348 
C 398.48497 57.559143 398.798048 56.803305 398.798048 56.015298 
C 398.798048 55.227292 398.48497 54.471454 397.927765 53.914249 
C 397.37056 53.357044 396.614722 53.043965 395.826715 53.043965 
C 395.038709 53.043965 394.28287 53.357044 393.725666 53.914249 
C 393.168461 54.471454 392.855382 55.227292 392.855382 56.015298 
C 392.855382 56.803305 393.168461 57.559143 393.725666 58.116348 
C 394.28287 58.673553 395.038709 58.986631 395.826715 58.986631 
z
" clip-path="url(#p27ae30b335)" style="fill: #800080; fill-opacity: 0.8; stroke: #800080; stroke-opacity: 0.8"/>
    <path d="M 402.90819 41.725455 
C 403.7038 41.725455 404.46693 41.409356 405.029511 40.846775 
C 405.592091 40.284194 405.90819 39.521064 405.90819 38.725455 
C 405.90819 37.929845 405.592091 37.166715 405.029511 36.604134 
C 404.46693 36.041553 403.7038 35.725455 402.90819 35.725455 
C 402.112581 35.725455 401.349451 36.041553 400.78687 36.604134 
C 400.224289 37.166715 399.90819 37.929845 399.90819 38.725455 
C 399.90819 39.521064 400.224289 40.284194 400.78687 40.846775 
C 401.349451 41.409356 402.112581 41.725455 402.90819 41.725455 
z
" clip-path="url(#p27ae30b335)" style="fill: #800080; fill-opacity: 0.8; stroke: #800080; stroke-opacity: 0.8"/>
    <path d="M 409.989666 51.461518 
C 410.709975 51.461518 411.40088 51.175336 411.910216 50.666 
C 412.419552 50.156664 412.705734 49.465759 412.705734 48.745449 
C 412.705734 48.025139 412.419552 47.334234 411.910216 46.824898 
C 411.40088 46.315562 410.709975 46.02938 409.989666 46.02938 
C 409.269356 46.02938 408.578451 46.315562 408.069115 46.824898 
C 407.559779 47.334234 407.273597 48.025139 407.273597 48.745449 
C 407.273597 49.465759 407.559779 50.156664 408.069115 50.666 
C 408.578451 51.175336 409.269356 51.461518 409.989666 51.461518 
z
" clip-path="url(#p27ae30b335)" style="fill: #800080; fill-opacity: 0.8; stroke: #800080; stroke-opacity: 0.8"/>
    <path d="M 417.071141 49.168423 
C 417.787118 49.168423 418.473868 48.883962 418.98014 48.377689 
C 419.486413 47.871417 419.770874 47.184667 419.770874 46.46869 
C 419.770874 45.752712 419.486413 45.065963 418.98014 44.55969 
C 418.473868 44.053417 417.787118 43.768956 417.071141 43.768956 
C 416.355163 43.768956 415.668414 44.053417 415.162141 44.55969 
C 414.655868 45.065963 414.371407 45.752712 414.371407 46.46869 
C 414.371407 47.184667 414.655868 47.871417 415.162141 48.377689 
C 415.668414 48.883962 416.355163 49.168423 417.071141 49.168423 
z
" clip-path="url(#p27ae30b335)" style="fill: #800080; fill-opacity: 0.8; stroke: #800080; stroke-opacity: 0.8"/>
    <path d="M 424.152616 59.407296 
C 424.881804 59.407296 425.581224 59.117586 426.096838 58.601972 
C 426.612452 58.086359 426.902161 57.386938 426.902161 56.65775 
C 426.902161 55.928562 426.612452 55.229142 426.096838 54.713528 
C 425.581224 54.197914 424.881804 53.908205 424.152616 53.908205 
C 423.423428 53.908205 422.724007 54.197914 422.208394 54.713528 
C 421.69278 55.229142 421.40307 55.928562 421.40307 56.65775 
C 421.40307 57.386938 421.69278 58.086359 422.208394 58.601972 
C 422.724007 59.117586 423.423428 59.407296 424.152616 59.407296 
z
" clip-path="url(#p27ae30b335)" style="fill: #800080; fill-opacity: 0.8; stroke: #800080; stroke-opacity: 0.8"/>
    <path d="M 431.234091 92.793042 
C 431.918652 92.793042 432.575268 92.521063 433.059327 92.037005 
C 433.543385 91.552947 433.815364 90.896331 433.815364 90.211769 
C 433.815364 89.527208 433.543385 88.870592 433.059327 88.386534 
C 432.575268 87.902476 431.918652 87.630496 431.234091 87.630496 
C 430.549529 87.630496 429.892913 87.902476 429.408855 88.386534 
C 428.924797 88.870592 428.652818 89.527208 428.652818 90.211769 
C 428.652818 90.896331 428.924797 91.552947 429.408855 92.037005 
C 429.892913 92.521063 430.549529 92.793042 431.234091 92.793042 
z
" clip-path="url(#p27ae30b335)" style="fill: #800080; fill-opacity: 0.8; stroke: #800080; stroke-opacity: 0.8"/>
   </g>
   <g id="PolyCollection_1">
    <defs>
     <path id="m06cb1a038a" d="M 55.915909 -69.833831 
L 55.915909 -41.165455 
L 59.707002 -43.75952 
L 63.498095 -46.380913 
L 67.289187 -48.966633 
L 71.08028 -51.478925 
L 74.871373 -54.055294 
L 78.662466 -56.631663 
L 82.453558 -59.211116 
L 86.244651 -61.790607 
L 90.035744 -64.370099 
L 93.826837 -66.991143 
L 97.617929 -69.618477 
L 101.409022 -72.24581 
L 105.200115 -74.873144 
L 108.991208 -77.416449 
L 112.7823 -79.919059 
L 116.573393 -82.421671 
L 120.364486 -85.015662 
L 124.155579 -87.613307 
L 127.946671 -90.152553 
L 131.737764 -92.729738 
L 135.528857 -95.227332 
L 139.319949 -97.784399 
L 143.111042 -100.367269 
L 146.902135 -102.950139 
L 150.693228 -105.527746 
L 154.48432 -108.034523 
L 158.275413 -110.441682 
L 162.066506 -112.923301 
L 165.857599 -115.437807 
L 169.648691 -118.004902 
L 173.439784 -120.572169 
L 177.230877 -123.045021 
L 181.02197 -125.635704 
L 184.813062 -128.141808 
L 188.604155 -130.652107 
L 192.395248 -133.166594 
L 196.186341 -135.592494 
L 199.977433 -137.984912 
L 203.768526 -140.562687 
L 207.559619 -143.067955 
L 211.350712 -145.527433 
L 215.141804 -148.011955 
L 218.932897 -150.389616 
L 222.72399 -152.790048 
L 226.515083 -155.140496 
L 230.306175 -157.441112 
L 234.097268 -159.735406 
L 237.888361 -162.001904 
L 241.679454 -164.264105 
L 245.470546 -166.70737 
L 249.261639 -168.976455 
L 253.052732 -171.458163 
L 256.843825 -173.5891 
L 260.634917 -175.702371 
L 264.42601 -177.956381 
L 268.217103 -180.238736 
L 272.008196 -182.522584 
L 275.799288 -184.806432 
L 279.590381 -187.090279 
L 283.381474 -189.308976 
L 287.172567 -191.432928 
L 290.963659 -193.712712 
L 294.754752 -195.917203 
L 298.545845 -198.038773 
L 302.336938 -200.120595 
L 306.12803 -202.201407 
L 309.919123 -204.287227 
L 313.710216 -206.491468 
L 317.501309 -208.660744 
L 321.292401 -210.785474 
L 325.083494 -212.914897 
L 328.874587 -215.135894 
L 332.66568 -217.42406 
L 336.456772 -219.714529 
L 340.247865 -221.938941 
L 344.038958 -224.147762 
L 347.830051 -226.312794 
L 351.621143 -228.456101 
L 355.412236 -230.655714 
L 359.203329 -232.809594 
L 362.994421 -234.965077 
L 366.785514 -237.118667 
L 370.576607 -239.271231 
L 374.3677 -241.425111 
L 378.158792 -243.57899 
L 381.949885 -245.700411 
L 385.740978 -247.848865 
L 389.532071 -250.042445 
L 393.323163 -252.195683 
L 397.114256 -254.348922 
L 400.905349 -256.502266 
L 404.696442 -258.535001 
L 408.487534 -260.559165 
L 412.278627 -262.697533 
L 416.06972 -264.837088 
L 419.860813 -266.976643 
L 423.651905 -269.056443 
L 427.442998 -271.223713 
L 431.234091 -273.324799 
L 431.234091 -299.65263 
L 431.234091 -299.65263 
L 427.442998 -297.099517 
L 423.651905 -294.528275 
L 419.860813 -291.925652 
L 416.06972 -289.439109 
L 412.278627 -286.928347 
L 408.487534 -284.496058 
L 404.696442 -282.058699 
L 400.905349 -279.570225 
L 397.114256 -277.176024 
L 393.323163 -274.652081 
L 389.532071 -272.119983 
L 385.740978 -269.547826 
L 381.949885 -266.975263 
L 378.158792 -264.466626 
L 374.3677 -261.849547 
L 370.576607 -259.411045 
L 366.785514 -256.96875 
L 362.994421 -254.435675 
L 359.203329 -251.981967 
L 355.412236 -249.500566 
L 351.621143 -247.094682 
L 347.830051 -244.642985 
L 344.038958 -242.228551 
L 340.247865 -239.794231 
L 336.456772 -237.351603 
L 332.66568 -234.931786 
L 328.874587 -232.497359 
L 325.083494 -230.172942 
L 321.292401 -227.77637 
L 317.501309 -225.315387 
L 313.710216 -222.89249 
L 309.919123 -220.454759 
L 306.12803 -218.004071 
L 302.336938 -215.679558 
L 298.545845 -213.311968 
L 294.754752 -210.86103 
L 290.963659 -208.408514 
L 287.172567 -206.032305 
L 283.381474 -203.649994 
L 279.590381 -201.378988 
L 275.799288 -199.069095 
L 272.008196 -196.725584 
L 268.217103 -194.356897 
L 264.42601 -192.031979 
L 260.634917 -189.558721 
L 256.843825 -187.112439 
L 253.052732 -184.739049 
L 249.261639 -182.429905 
L 245.470546 -180.05798 
L 241.679454 -177.789718 
L 237.888361 -175.575933 
L 234.097268 -173.275407 
L 230.306175 -170.944431 
L 226.515083 -168.676796 
L 222.72399 -166.369587 
L 218.932897 -164.063673 
L 215.141804 -161.802401 
L 211.350712 -159.507784 
L 207.559619 -157.227799 
L 203.768526 -154.960723 
L 199.977433 -152.736329 
L 196.186341 -150.533127 
L 192.395248 -148.288183 
L 188.604155 -146.081296 
L 184.813062 -143.766865 
L 181.02197 -141.604355 
L 177.230877 -139.385996 
L 173.439784 -137.030327 
L 169.648691 -134.82627 
L 165.857599 -132.622212 
L 162.066506 -130.418155 
L 158.275413 -128.245185 
L 154.48432 -126.079078 
L 150.693228 -123.820824 
L 146.902135 -121.609035 
L 143.111042 -119.397867 
L 139.319949 -117.178935 
L 135.528857 -114.991166 
L 131.737764 -112.761744 
L 127.946671 -110.584215 
L 124.155579 -108.380251 
L 120.364486 -106.251137 
L 116.573393 -104.124745 
L 112.7823 -102.001734 
L 108.991208 -99.878147 
L 105.200115 -97.754559 
L 101.409022 -95.630971 
L 97.617929 -93.496841 
L 93.826837 -91.346193 
L 90.035744 -89.195545 
L 86.244651 -87.044898 
L 82.453558 -84.89425 
L 78.662466 -82.743602 
L 74.871373 -80.592955 
L 71.08028 -78.442307 
L 67.289187 -76.403875 
L 63.498095 -74.338471 
L 59.707002 -72.075638 
L 55.915909 -69.833831 
z
" style="stroke: #ffffff; stroke-opacity: 0.15"/>
    </defs>
    <g clip-path="url(#p27ae30b335)">
     <use xlink:href="#m06cb1a038a" x="0" y="345.6" style="fill: #800080; fill-opacity: 0.15; stroke: #ffffff; stroke-opacity: 0.15"/>
    </g>
   </g>
   <g id="line2d_1">
    <path d="M 55.915909 289.038909 
L 59.707002 286.694309 
L 63.498095 284.349708 
L 67.289187 282.005108 
L 71.08028 279.660508 
L 74.871373 277.315907 
L 78.662466 274.971307 
L 82.453558 272.626706 
L 86.244651 270.282106 
L 90.035744 267.937505 
L 93.826837 265.592905 
L 97.617929 263.248305 
L 101.409022 260.903704 
L 105.200115 258.559104 
L 108.991208 256.214503 
L 112.7823 253.869903 
L 116.573393 251.525302 
L 120.364486 249.180702 
L 124.155579 246.836102 
L 127.946671 244.491501 
L 131.737764 242.146901 
L 135.528857 239.8023 
L 139.319949 237.4577 
L 143.111042 235.113099 
L 146.902135 232.768499 
L 150.693228 230.423899 
L 154.48432 228.079298 
L 158.275413 225.734698 
L 162.066506 223.390097 
L 165.857599 221.045497 
L 169.648691 218.700896 
L 173.439784 216.356296 
L 177.230877 214.011696 
L 181.02197 211.667095 
L 184.813062 209.322495 
L 188.604155 206.977894 
L 192.395248 204.633294 
L 196.186341 202.288693 
L 199.977433 199.944093 
L 203.768526 197.599493 
L 207.559619 195.254892 
L 211.350712 192.910292 
L 215.141804 190.565691 
L 218.932897 188.221091 
L 222.72399 185.87649 
L 226.515083 183.53189 
L 230.306175 181.18729 
L 234.097268 178.842689 
L 237.888361 176.498089 
L 241.679454 174.153488 
L 245.470546 171.808888 
L 249.261639 169.464287 
L 253.052732 167.119687 
L 256.843825 164.775087 
L 260.634917 162.430486 
L 264.42601 160.085886 
L 268.217103 157.741285 
L 272.008196 155.396685 
L 275.799288 153.052085 
L 279.590381 150.707484 
L 283.381474 148.362884 
L 287.172567 146.018283 
L 290.963659 143.673683 
L 294.754752 141.329082 
L 298.545845 138.984482 
L 302.336938 136.639882 
L 306.12803 134.295281 
L 309.919123 131.950681 
L 313.710216 129.60608 
L 317.501309 127.26148 
L 321.292401 124.916879 
L 325.083494 122.572279 
L 328.874587 120.227679 
L 332.66568 117.883078 
L 336.456772 115.538478 
L 340.247865 113.193877 
L 344.038958 110.849277 
L 347.830051 108.504676 
L 351.621143 106.160076 
L 355.412236 103.815476 
L 359.203329 101.470875 
L 362.994421 99.126275 
L 366.785514 96.781674 
L 370.576607 94.437074 
L 374.3677 92.092473 
L 378.158792 89.747873 
L 381.949885 87.403273 
L 385.740978 85.058672 
L 389.532071 82.714072 
L 393.323163 80.369471 
L 397.114256 78.024871 
L 400.905349 75.68027 
L 404.696442 73.33567 
L 408.487534 70.99107 
L 412.278627 68.646469 
L 416.06972 66.301869 
L 419.860813 63.957268 
L 423.651905 61.612668 
L 427.442998 59.268067 
L 431.234091 56.923467 
" clip-path="url(#p27ae30b335)" style="fill: none; stroke: #800080; stroke-width: 2.25; stroke-linecap: round"/>
   </g>
   <g id="patch_3">
    <path d="M 37.15 317.72 
L 37.15 25.44 
" style="fill: none; stroke: #ffffff; stroke-width: 0.8; stroke-linejoin: miter; stroke-linecap: square"/>
   </g>
   <g id="patch_4">
    <path d="M 450 317.72 
L 450 25.44 
" style="fill: none; stroke: #ffffff; stroke-width: 0.8; stroke-linejoin: miter; stroke-linecap: square"/>
   </g>
   <g id="patch_5">
    <path d="M 37.15 317.72 
L 450 317.72 
" style="fill: none; stroke: #ffffff; stroke-width: 0.8; stroke-linejoin: miter; stroke-linecap: square"/>
   </g>
   <g id="patch_6">
    <path d="M 37.15 25.44 
L 450 25.44 
" style="fill: none; stroke: #ffffff; stroke-width: 0.8; stroke-linejoin: miter; stroke-linecap: square"/>
   </g>
   <g id="text_13">
    <!-- Yearly average geek score from ranked games -->
    <g style="fill: #262626" transform="translate(119.403125 19.44) scale(0.12 -0.12)">
     <defs>
      <path id="ArialMT-59" d="M 1784 0 
L 1784 1941 
L 19 4581 
L 756 4581 
L 1659 3200 
Q 1909 2813 2125 2425 
Q 2331 2784 2625 3234 
L 3513 4581 
L 4219 4581 
L 2391 1941 
L 2391 0 
L 1784 0 
z
" transform="scale(0.015625)"/>
      <path id="ArialMT-65" d="M 2694 1069 
L 3275 997 
Q 3138 488 2766 206 
Q 2394 -75 1816 -75 
Q 1088 -75 661 373 
Q 234 822 234 1631 
Q 234 2469 665 2931 
Q 1097 3394 1784 3394 
Q 2450 3394 2872 2941 
Q 3294 2488 3294 1666 
Q 3294 1616 3291 1516 
L 816 1516 
Q 847 969 1125 678 
Q 1403 388 1819 388 
Q 2128 388 2347 550 
Q 2566 713 2694 1069 
z
M 847 1978 
L 2700 1978 
Q 2663 2397 2488 2606 
Q 2219 2931 1791 2931 
Q 1403 2931 1139 2672 
Q 875 2413 847 1978 
z
" transform="scale(0.015625)"/>
      <path id="ArialMT-61" d="M 2588 409 
Q 2275 144 1986 34 
Q 1697 -75 1366 -75 
Q 819 -75 525 192 
Q 231 459 231 875 
Q 231 1119 342 1320 
Q 453 1522 633 1644 
Q 813 1766 1038 1828 
Q 1203 1872 1538 1913 
Q 2219 1994 2541 2106 
Q 2544 2222 2544 2253 
Q 2544 2597 2384 2738 
Q 2169 2928 1744 2928 
Q 1347 2928 1158 2789 
Q 969 2650 878 2297 
L 328 2372 
Q 403 2725 575 2942 
Q 747 3159 1072 3276 
Q 1397 3394 1825 3394 
Q 2250 3394 2515 3294 
Q 2781 3194 2906 3042 
Q 3031 2891 3081 2659 
Q 3109 2516 3109 2141 
L 3109 1391 
Q 3109 606 3145 398 
Q 3181 191 3288 0 
L 2700 0 
Q 2613 175 2588 409 
z
M 2541 1666 
Q 2234 1541 1622 1453 
Q 1275 1403 1131 1340 
Q 988 1278 909 1158 
Q 831 1038 831 891 
Q 831 666 1001 516 
Q 1172 366 1500 366 
Q 1825 366 2078 508 
Q 2331 650 2450 897 
Q 2541 1088 2541 1459 
L 2541 1666 
z
" transform="scale(0.015625)"/>
      <path id="ArialMT-72" d="M 416 0 
L 416 3319 
L 922 3319 
L 922 2816 
Q 1116 3169 1280 3281 
Q 1444 3394 1641 3394 
Q 1925 3394 2219 3213 
L 2025 2691 
Q 1819 2813 1613 2813 
Q 1428 2813 1281 2702 
Q 1134 2591 1072 2394 
Q 978 2094 978 1738 
L 978 0 
L 416 0 
z
" transform="scale(0.015625)"/>
      <path id="ArialMT-6c" d="M 409 0 
L 409 4581 
L 972 4581 
L 972 0 
L 409 0 
z
" transform="scale(0.015625)"/>
      <path id="ArialMT-79" d="M 397 -1278 
L 334 -750 
Q 519 -800 656 -800 
Q 844 -800 956 -737 
Q 1069 -675 1141 -563 
Q 1194 -478 1313 -144 
Q 1328 -97 1363 -6 
L 103 3319 
L 709 3319 
L 1400 1397 
Q 1534 1031 1641 628 
Q 1738 1016 1872 1384 
L 2581 3319 
L 3144 3319 
L 1881 -56 
Q 1678 -603 1566 -809 
Q 1416 -1088 1222 -1217 
Q 1028 -1347 759 -1347 
Q 597 -1347 397 -1278 
z
" transform="scale(0.015625)"/>
      <path id="ArialMT-20" transform="scale(0.015625)"/>
      <path id="ArialMT-76" d="M 1344 0 
L 81 3319 
L 675 3319 
L 1388 1331 
Q 1503 1009 1600 663 
Q 1675 925 1809 1294 
L 2547 3319 
L 3125 3319 
L 1869 0 
L 1344 0 
z
" transform="scale(0.015625)"/>
      <path id="ArialMT-67" d="M 319 -275 
L 866 -356 
Q 900 -609 1056 -725 
Q 1266 -881 1628 -881 
Q 2019 -881 2231 -725 
Q 2444 -569 2519 -288 
Q 2563 -116 2559 434 
Q 2191 0 1641 0 
Q 956 0 581 494 
Q 206 988 206 1678 
Q 206 2153 378 2554 
Q 550 2956 876 3175 
Q 1203 3394 1644 3394 
Q 2231 3394 2613 2919 
L 2613 3319 
L 3131 3319 
L 3131 450 
Q 3131 -325 2973 -648 
Q 2816 -972 2473 -1159 
Q 2131 -1347 1631 -1347 
Q 1038 -1347 672 -1080 
Q 306 -813 319 -275 
z
M 784 1719 
Q 784 1066 1043 766 
Q 1303 466 1694 466 
Q 2081 466 2343 764 
Q 2606 1063 2606 1700 
Q 2606 2309 2336 2618 
Q 2066 2928 1684 2928 
Q 1309 2928 1046 2623 
Q 784 2319 784 1719 
z
" transform="scale(0.015625)"/>
      <path id="ArialMT-6b" d="M 425 0 
L 425 4581 
L 988 4581 
L 988 1969 
L 2319 3319 
L 3047 3319 
L 1778 2088 
L 3175 0 
L 2481 0 
L 1384 1697 
L 988 1316 
L 988 0 
L 425 0 
z
" transform="scale(0.015625)"/>
      <path id="ArialMT-73" d="M 197 991 
L 753 1078 
Q 800 744 1014 566 
Q 1228 388 1613 388 
Q 2000 388 2187 545 
Q 2375 703 2375 916 
Q 2375 1106 2209 1216 
Q 2094 1291 1634 1406 
Q 1016 1563 777 1677 
Q 538 1791 414 1992 
Q 291 2194 291 2438 
Q 291 2659 392 2848 
Q 494 3038 669 3163 
Q 800 3259 1026 3326 
Q 1253 3394 1513 3394 
Q 1903 3394 2198 3281 
Q 2494 3169 2634 2976 
Q 2775 2784 2828 2463 
L 2278 2388 
Q 2241 2644 2061 2787 
Q 1881 2931 1553 2931 
Q 1166 2931 1000 2803 
Q 834 2675 834 2503 
Q 834 2394 903 2306 
Q 972 2216 1119 2156 
Q 1203 2125 1616 2013 
Q 2213 1853 2448 1751 
Q 2684 1650 2818 1456 
Q 2953 1263 2953 975 
Q 2953 694 2789 445 
Q 2625 197 2315 61 
Q 2006 -75 1616 -75 
Q 969 -75 630 194 
Q 291 463 197 991 
z
" transform="scale(0.015625)"/>
      <path id="ArialMT-63" d="M 2588 1216 
L 3141 1144 
Q 3050 572 2676 248 
Q 2303 -75 1759 -75 
Q 1078 -75 664 370 
Q 250 816 250 1647 
Q 250 2184 428 2587 
Q 606 2991 970 3192 
Q 1334 3394 1763 3394 
Q 2303 3394 2647 3120 
Q 2991 2847 3088 2344 
L 2541 2259 
Q 2463 2594 2264 2762 
Q 2066 2931 1784 2931 
Q 1359 2931 1093 2626 
Q 828 2322 828 1663 
Q 828 994 1084 691 
Q 1341 388 1753 388 
Q 2084 388 2306 591 
Q 2528 794 2588 1216 
z
" transform="scale(0.015625)"/>
      <path id="ArialMT-6f" d="M 213 1659 
Q 213 2581 725 3025 
Q 1153 3394 1769 3394 
Q 2453 3394 2887 2945 
Q 3322 2497 3322 1706 
Q 3322 1066 3130 698 
Q 2938 331 2570 128 
Q 2203 -75 1769 -75 
Q 1072 -75 642 372 
Q 213 819 213 1659 
z
M 791 1659 
Q 791 1022 1069 705 
Q 1347 388 1769 388 
Q 2188 388 2466 706 
Q 2744 1025 2744 1678 
Q 2744 2294 2464 2611 
Q 2184 2928 1769 2928 
Q 1347 2928 1069 2612 
Q 791 2297 791 1659 
z
" transform="scale(0.015625)"/>
      <path id="ArialMT-66" d="M 556 0 
L 556 2881 
L 59 2881 
L 59 3319 
L 556 3319 
L 556 3672 
Q 556 4006 616 4169 
Q 697 4388 901 4523 
Q 1106 4659 1475 4659 
Q 1713 4659 2000 4603 
L 1916 4113 
Q 1741 4144 1584 4144 
Q 1328 4144 1222 4034 
Q 1116 3925 1116 3625 
L 1116 3319 
L 1763 3319 
L 1763 2881 
L 1116 2881 
L 1116 0 
L 556 0 
z
" transform="scale(0.015625)"/>
      <path id="ArialMT-6d" d="M 422 0 
L 422 3319 
L 925 3319 
L 925 2853 
Q 1081 3097 1340 3245 
Q 1600 3394 1931 3394 
Q 2300 3394 2536 3241 
Q 2772 3088 2869 2813 
Q 3263 3394 3894 3394 
Q 4388 3394 4653 3120 
Q 4919 2847 4919 2278 
L 4919 0 
L 4359 0 
L 4359 2091 
Q 4359 2428 4304 2576 
Q 4250 2725 4106 2815 
Q 3963 2906 3769 2906 
Q 3419 2906 3187 2673 
Q 2956 2441 2956 1928 
L 2956 0 
L 2394 0 
L 2394 2156 
Q 2394 2531 2256 2718 
Q 2119 2906 1806 2906 
Q 1569 2906 1367 2781 
Q 1166 2656 1075 2415 
Q 984 2175 984 1722 
L 984 0 
L 422 0 
z
" transform="scale(0.015625)"/>
      <path id="ArialMT-6e" d="M 422 0 
L 422 3319 
L 928 3319 
L 928 2847 
Q 1294 3394 1984 3394 
Q 2284 3394 2536 3286 
Q 2788 3178 2913 3003 
Q 3038 2828 3088 2588 
Q 3119 2431 3119 2041 
L 3119 0 
L 2556 0 
L 2556 2019 
Q 2556 2363 2490 2533 
Q 2425 2703 2258 2804 
Q 2091 2906 1866 2906 
Q 1506 2906 1245 2678 
Q 984 2450 984 1813 
L 984 0 
L 422 0 
z
" transform="scale(0.015625)"/>
      <path id="ArialMT-64" d="M 2575 0 
L 2575 419 
Q 2259 -75 1647 -75 
Q 1250 -75 917 144 
Q 584 363 401 755 
Q 219 1147 219 1656 
Q 219 2153 384 2558 
Q 550 2963 881 3178 
Q 1213 3394 1622 3394 
Q 1922 3394 2156 3267 
Q 2391 3141 2538 2938 
L 2538 4581 
L 3097 4581 
L 3097 0 
L 2575 0 
z
M 797 1656 
Q 797 1019 1065 703 
Q 1334 388 1700 388 
Q 2069 388 2326 689 
Q 2584 991 2584 1609 
Q 2584 2291 2321 2609 
Q 2059 2928 1675 2928 
Q 1300 2928 1048 2622 
Q 797 2316 797 1656 
z
" transform="scale(0.015625)"/>
     </defs>
     <use xlink:href="#ArialMT-59"/>
     <use xlink:href="#ArialMT-65" x="57.574219"/>
     <use xlink:href="#ArialMT-61" x="113.189453"/>
     <use xlink:href="#ArialMT-72" x="168.804688"/>
     <use xlink:href="#ArialMT-6c" x="202.105469"/>
     <use xlink:href="#ArialMT-79" x="224.322266"/>
     <use xlink:href="#ArialMT-20" x="274.322266"/>
     <use xlink:href="#ArialMT-61" x="302.105469"/>
     <use xlink:href="#ArialMT-76" x="357.720703"/>
     <use xlink:href="#ArialMT-65" x="407.720703"/>
     <use xlink:href="#ArialMT-72" x="463.335938"/>
     <use xlink:href="#ArialMT-61" x="496.636719"/>
     <use xlink:href="#ArialMT-67" x="552.251953"/>
     <use xlink:href="#ArialMT-65" x="607.867188"/>
     <use xlink:href="#ArialMT-20" x="663.482422"/>
     <use xlink:href="#ArialMT-67" x="691.265625"/>
     <use xlink:href="#ArialMT-65" x="746.880859"/>
     <use xlink:href="#ArialMT-65" x="802.496094"/>
     <use xlink:href="#ArialMT-6b" x="858.111328"/>
     <use xlink:href="#ArialMT-20" x="908.111328"/>
     <use xlink:href="#ArialMT-73" x="935.894531"/>
     <use xlink:href="#ArialMT-63" x="985.894531"/>
     <use xlink:href="#ArialMT-6f" x="1035.894531"/>
     <use xlink:href="#ArialMT-72" x="1091.509766"/>
     <use xlink:href="#ArialMT-65" x="1124.810547"/>
     <use xlink:href="#ArialMT-20" x="1180.425781"/>
     <use xlink:href="#ArialMT-66" x="1208.208984"/>
     <use xlink:href="#ArialMT-72" x="1235.992188"/>
     <use xlink:href="#ArialMT-6f" x="1269.292969"/>
     <use xlink:href="#ArialMT-6d" x="1324.908203"/>
     <use xlink:href="#ArialMT-20" x="1408.208984"/>
     <use xlink:href="#ArialMT-72" x="1435.992188"/>
     <use xlink:href="#ArialMT-61" x="1469.292969"/>
     <use xlink:href="#ArialMT-6e" x="1524.908203"/>
     <use xlink:href="#ArialMT-6b" x="1580.523438"/>
     <use xlink:href="#ArialMT-65" x="1630.523438"/>
     <use xlink:href="#ArialMT-64" x="1686.138672"/>
     <use xlink:href="#ArialMT-20" x="1741.753906"/>
     <use xlink:href="#ArialMT-67" x="1769.537109"/>
     <use xlink:href="#ArialMT-61" x="1825.152344"/>
     <use xlink:href="#ArialMT-6d" x="1880.767578"/>
     <use xlink:href="#ArialMT-65" x="1964.068359"/>
     <use xlink:href="#ArialMT-73" x="2019.683594"/>
    </g>
   </g>
  </g>
 </g>
 <defs>
  <clipPath id="p27ae30b335">
   <rect x="37.15" y="25.44" width="412.85" height="292.28"/>
  </clipPath>
 </defs>
</svg>
