<?xml version="1.0" encoding="utf-8" standalone="no"?>
<!DOCTYPE svg PUBLIC "-//W3C//DTD SVG 1.1//EN"
  "http://www.w3.org/Graphics/SVG/1.1/DTD/svg11.dtd">
<svg xmlns:xlink="http://www.w3.org/1999/xlink" width="460.8pt" height="345.6pt" viewBox="0 0 460.8 345.6" xmlns="http://www.w3.org/2000/svg" version="1.1">
 <metadata>
  <rdf:RDF xmlns:dc="http://purl.org/dc/elements/1.1/" xmlns:cc="http://creativecommons.org/ns#" xmlns:rdf="http://www.w3.org/1999/02/22-rdf-syntax-ns#">
   <cc:Work>
    <dc:type rdf:resource="http://purl.org/dc/dcmitype/StillImage"/>
    <dc:date>2024-08-19T08:31:33.861870</dc:date>
    <dc:format>image/svg+xml</dc:format>
    <dc:creator>
     <cc:Agent>
      <dc:title>Matplotlib v3.9.2, https://matplotlib.org/</dc:title>
     </cc:Agent>
    </dc:creator>
   </cc:Work>
  </rdf:RDF>
 </metadata>
 <defs>
  <style type="text/css">*{stroke-linejoin: round; stroke-linecap: butt}</style>
 </defs>
 <g id="figure_1">
  <g id="patch_1">
   <path d="M 0 345.6 
L 460.8 345.6 
L 460.8 0 
L 0 0 
z
" style="fill: #ffffff"/>
  </g>
  <g id="axes_1">
   <g id="patch_2">
    <path d="M 37.15 317.72 
L 450 317.72 
L 450 25.44 
L 37.15 25.44 
z
" style="fill: #eaeaf2"/>
   </g>
   <g id="matplotlib.axis_1">
    <g id="xtick_1">
     <g id="text_1">
      <!-- 1970 -->
      <g style="fill: #262626" transform="translate(44.794034 331.877812) scale(0.1 -0.1)">
       <defs>
        <path id="ArialMT-31" d="M 2384 0 
L 1822 0 
L 1822 3584 
Q 1619 3391 1289 3197 
Q 959 3003 697 2906 
L 697 3450 
Q 1169 3672 1522 3987 
Q 1875 4303 2022 4600 
L 2384 4600 
L 2384 0 
z
" transform="scale(0.015625)"/>
        <path id="ArialMT-39" d="M 350 1059 
L 891 1109 
Q 959 728 1153 556 
Q 1347 384 1650 384 
Q 1909 384 2104 503 
Q 2300 622 2425 820 
Q 2550 1019 2634 1356 
Q 2719 1694 2719 2044 
Q 2719 2081 2716 2156 
Q 2547 1888 2255 1720 
Q 1963 1553 1622 1553 
Q 1053 1553 659 1965 
Q 266 2378 266 3053 
Q 266 3750 677 4175 
Q 1088 4600 1706 4600 
Q 2153 4600 2523 4359 
Q 2894 4119 3086 3673 
Q 3278 3228 3278 2384 
Q 3278 1506 3087 986 
Q 2897 466 2520 194 
Q 2144 -78 1638 -78 
Q 1100 -78 759 220 
Q 419 519 350 1059 
z
M 2653 3081 
Q 2653 3566 2395 3850 
Q 2138 4134 1775 4134 
Q 1400 4134 1122 3828 
Q 844 3522 844 3034 
Q 844 2597 1108 2323 
Q 1372 2050 1759 2050 
Q 2150 2050 2401 2323 
Q 2653 2597 2653 3081 
z
" transform="scale(0.015625)"/>
        <path id="ArialMT-37" d="M 303 3981 
L 303 4522 
L 3269 4522 
L 3269 4084 
Q 2831 3619 2401 2847 
Q 1972 2075 1738 1259 
Q 1569 684 1522 0 
L 944 0 
Q 953 541 1156 1306 
Q 1359 2072 1739 2783 
Q 2119 3494 2547 3981 
L 303 3981 
z
" transform="scale(0.015625)"/>
        <path id="ArialMT-30" d="M 266 2259 
Q 266 3072 433 3567 
Q 600 4063 929 4331 
Q 1259 4600 1759 4600 
Q 2128 4600 2406 4451 
Q 2684 4303 2865 4023 
Q 3047 3744 3150 3342 
Q 3253 2941 3253 2259 
Q 3253 1453 3087 958 
Q 2922 463 2592 192 
Q 2263 -78 1759 -78 
Q 1097 -78 719 397 
Q 266 969 266 2259 
z
M 844 2259 
Q 844 1131 1108 757 
Q 1372 384 1759 384 
Q 2147 384 2411 759 
Q 2675 1134 2675 2259 
Q 2675 3391 2411 3762 
Q 2147 4134 1753 4134 
Q 1366 4134 1134 3806 
Q 844 3388 844 2259 
z
" transform="scale(0.015625)"/>
       </defs>
       <use xlink:href="#ArialMT-31"/>
       <use xlink:href="#ArialMT-39" x="55.615234"/>
       <use xlink:href="#ArialMT-37" x="111.230469"/>
       <use xlink:href="#ArialMT-30" x="166.845703"/>
      </g>
     </g>
    </g>
    <g id="xtick_2">
     <g id="text_2">
      <!-- 1980 -->
      <g style="fill: #262626" transform="translate(115.608785 331.877812) scale(0.1 -0.1)">
       <defs>
        <path id="ArialMT-38" d="M 1131 2484 
Q 781 2613 612 2850 
Q 444 3088 444 3419 
Q 444 3919 803 4259 
Q 1163 4600 1759 4600 
Q 2359 4600 2725 4251 
Q 3091 3903 3091 3403 
Q 3091 3084 2923 2848 
Q 2756 2613 2416 2484 
Q 2838 2347 3058 2040 
Q 3278 1734 3278 1309 
Q 3278 722 2862 322 
Q 2447 -78 1769 -78 
Q 1091 -78 675 323 
Q 259 725 259 1325 
Q 259 1772 486 2073 
Q 713 2375 1131 2484 
z
M 1019 3438 
Q 1019 3113 1228 2906 
Q 1438 2700 1772 2700 
Q 2097 2700 2305 2904 
Q 2513 3109 2513 3406 
Q 2513 3716 2298 3927 
Q 2084 4138 1766 4138 
Q 1444 4138 1231 3931 
Q 1019 3725 1019 3438 
z
M 838 1322 
Q 838 1081 952 856 
Q 1066 631 1291 507 
Q 1516 384 1775 384 
Q 2178 384 2440 643 
Q 2703 903 2703 1303 
Q 2703 1709 2433 1975 
Q 2163 2241 1756 2241 
Q 1359 2241 1098 1978 
Q 838 1716 838 1322 
z
" transform="scale(0.015625)"/>
       </defs>
       <use xlink:href="#ArialMT-31"/>
       <use xlink:href="#ArialMT-39" x="55.615234"/>
       <use xlink:href="#ArialMT-38" x="111.230469"/>
       <use xlink:href="#ArialMT-30" x="166.845703"/>
      </g>
     </g>
    </g>
    <g id="xtick_3">
     <g id="text_3">
      <!-- 1990 -->
      <g style="fill: #262626" transform="translate(186.423537 331.877812) scale(0.1 -0.1)">
       <use xlink:href="#ArialMT-31"/>
       <use xlink:href="#ArialMT-39" x="55.615234"/>
       <use xlink:href="#ArialMT-39" x="111.230469"/>
       <use xlink:href="#ArialMT-30" x="166.845703"/>
      </g>
     </g>
    </g>
    <g id="xtick_4">
     <g id="text_4">
      <!-- 2000 -->
      <g style="fill: #262626" transform="translate(257.238288 331.877812) scale(0.1 -0.1)">
       <defs>
        <path id="ArialMT-32" d="M 3222 541 
L 3222 0 
L 194 0 
Q 188 203 259 391 
Q 375 700 629 1000 
Q 884 1300 1366 1694 
Q 2113 2306 2375 2664 
Q 2638 3022 2638 3341 
Q 2638 3675 2398 3904 
Q 2159 4134 1775 4134 
Q 1369 4134 1125 3890 
Q 881 3647 878 3216 
L 300 3275 
Q 359 3922 746 4261 
Q 1134 4600 1788 4600 
Q 2447 4600 2831 4234 
Q 3216 3869 3216 3328 
Q 3216 3053 3103 2787 
Q 2991 2522 2730 2228 
Q 2469 1934 1863 1422 
Q 1356 997 1212 845 
Q 1069 694 975 541 
L 3222 541 
z
" transform="scale(0.015625)"/>
       </defs>
       <use xlink:href="#ArialMT-32"/>
       <use xlink:href="#ArialMT-30" x="55.615234"/>
       <use xlink:href="#ArialMT-30" x="111.230469"/>
       <use xlink:href="#ArialMT-30" x="166.845703"/>
      </g>
     </g>
    </g>
    <g id="xtick_5">
     <g id="text_5">
      <!-- 2010 -->
      <g style="fill: #262626" transform="translate(328.053039 331.877812) scale(0.1 -0.1)">
       <use xlink:href="#ArialMT-32"/>
       <use xlink:href="#ArialMT-30" x="55.615234"/>
       <use xlink:href="#ArialMT-31" x="111.230469"/>
       <use xlink:href="#ArialMT-30" x="166.845703"/>
      </g>
     </g>
    </g>
    <g id="xtick_6">
     <g id="text_6">
      <!-- 2020 -->
      <g style="fill: #262626" transform="translate(398.867791 331.877812) scale(0.1 -0.1)">
       <use xlink:href="#ArialMT-32"/>
       <use xlink:href="#ArialMT-30" x="55.615234"/>
       <use xlink:href="#ArialMT-32" x="111.230469"/>
       <use xlink:href="#ArialMT-30" x="166.845703"/>
      </g>
     </g>
    </g>
   </g>
   <g id="matplotlib.axis_2">
    <g id="ytick_1">
     <g id="text_7">
      <!-- 5.50 -->
      <g style="fill: #262626" transform="translate(10.689062 310.870166) scale(0.1 -0.1)">
       <defs>
        <path id="ArialMT-35" d="M 266 1200 
L 856 1250 
Q 922 819 1161 601 
Q 1400 384 1738 384 
Q 2144 384 2425 690 
Q 2706 997 2706 1503 
Q 2706 1984 2436 2262 
Q 2166 2541 1728 2541 
Q 1456 2541 1237 2417 
Q 1019 2294 894 2097 
L 366 2166 
L 809 4519 
L 3088 4519 
L 3088 3981 
L 1259 3981 
L 1013 2750 
Q 1425 3038 1878 3038 
Q 2478 3038 2890 2622 
Q 3303 2206 3303 1553 
Q 3303 931 2941 478 
Q 2500 -78 1738 -78 
Q 1113 -78 717 272 
Q 322 622 266 1200 
z
" transform="scale(0.015625)"/>
        <path id="ArialMT-2e" d="M 581 0 
L 581 641 
L 1222 641 
L 1222 0 
L 581 0 
z
" transform="scale(0.015625)"/>
       </defs>
       <use xlink:href="#ArialMT-35"/>
       <use xlink:href="#ArialMT-2e" x="55.615234"/>
       <use xlink:href="#ArialMT-35" x="83.398438"/>
       <use xlink:href="#ArialMT-30" x="139.013672"/>
      </g>
     </g>
    </g>
    <g id="ytick_2">
     <g id="text_8">
      <!-- 5.55 -->
      <g style="fill: #262626" transform="translate(10.689062 254.61895) scale(0.1 -0.1)">
       <use xlink:href="#ArialMT-35"/>
       <use xlink:href="#ArialMT-2e" x="55.615234"/>
       <use xlink:href="#ArialMT-35" x="83.398438"/>
       <use xlink:href="#ArialMT-35" x="139.013672"/>
      </g>
     </g>
    </g>
    <g id="ytick_3">
     <g id="text_9">
      <!-- 5.60 -->
      <g style="fill: #262626" transform="translate(10.689062 198.367734) scale(0.1 -0.1)">
       <defs>
        <path id="ArialMT-36" d="M 3184 3459 
L 2625 3416 
Q 2550 3747 2413 3897 
Q 2184 4138 1850 4138 
Q 1581 4138 1378 3988 
Q 1113 3794 959 3422 
Q 806 3050 800 2363 
Q 1003 2672 1297 2822 
Q 1591 2972 1913 2972 
Q 2475 2972 2870 2558 
Q 3266 2144 3266 1488 
Q 3266 1056 3080 686 
Q 2894 316 2569 119 
Q 2244 -78 1831 -78 
Q 1128 -78 684 439 
Q 241 956 241 2144 
Q 241 3472 731 4075 
Q 1159 4600 1884 4600 
Q 2425 4600 2770 4297 
Q 3116 3994 3184 3459 
z
M 888 1484 
Q 888 1194 1011 928 
Q 1134 663 1356 523 
Q 1578 384 1822 384 
Q 2178 384 2434 671 
Q 2691 959 2691 1453 
Q 2691 1928 2437 2201 
Q 2184 2475 1800 2475 
Q 1419 2475 1153 2201 
Q 888 1928 888 1484 
z
" transform="scale(0.015625)"/>
       </defs>
       <use xlink:href="#ArialMT-35"/>
       <use xlink:href="#ArialMT-2e" x="55.615234"/>
       <use xlink:href="#ArialMT-36" x="83.398438"/>
       <use xlink:href="#ArialMT-30" x="139.013672"/>
      </g>
     </g>
    </g>
    <g id="ytick_4">
     <g id="text_10">
      <!-- 5.65 -->
      <g style="fill: #262626" transform="translate(10.689062 142.116518) scale(0.1 -0.1)">
       <use xlink:href="#ArialMT-35"/>
       <use xlink:href="#ArialMT-2e" x="55.615234"/>
       <use xlink:href="#ArialMT-36" x="83.398438"/>
       <use xlink:href="#ArialMT-35" x="139.013672"/>
      </g>
     </g>
    </g>
    <g id="ytick_5">
     <g id="text_11">
      <!-- 5.70 -->
      <g style="fill: #262626" transform="translate(10.689062 85.865302) scale(0.1 -0.1)">
       <use xlink:href="#ArialMT-35"/>
       <use xlink:href="#ArialMT-2e" x="55.615234"/>
       <use xlink:href="#ArialMT-37" x="83.398438"/>
       <use xlink:href="#ArialMT-30" x="139.013672"/>
      </g>
     </g>
    </g>
    <g id="ytick_6">
     <g id="text_12">
      <!-- 5.75 -->
      <g style="fill: #262626" transform="translate(10.689062 29.614086) scale(0.1 -0.1)">
       <use xlink:href="#ArialMT-35"/>
       <use xlink:href="#ArialMT-2e" x="55.615234"/>
       <use xlink:href="#ArialMT-37" x="83.398438"/>
       <use xlink:href="#ArialMT-35" x="139.013672"/>
      </g>
     </g>
    </g>
   </g>
   <g id="PathCollection_1">
    <path d="M 55.915909 280.782901 
C 56.046449 280.782901 56.171659 280.731037 56.263964 280.638731 
C 56.35627 280.546426 56.408134 280.421216 56.408134 280.290676 
C 56.408134 280.160137 56.35627 280.034926 56.263964 279.942621 
C 56.171659 279.850315 56.046449 279.798452 55.915909 279.798452 
C 55.78537 279.798452 55.660159 279.850315 55.567854 279.942621 
C 55.475548 280.034926 55.423685 280.160137 55.423685 280.290676 
C 55.423685 280.421216 55.475548 280.546426 55.567854 280.638731 
C 55.660159 280.731037 55.78537 280.782901 55.915909 280.782901 
z
" clip-path="url(#paa60e118c9)" style="fill: #800080; fill-opacity: 0.8; stroke: #800080; stroke-opacity: 0.8"/>
    <path d="M 62.997384 243.988566 
C 63.126322 243.988566 63.249996 243.937338 63.341169 243.846165 
C 63.432341 243.754993 63.483569 243.631319 63.483569 243.502381 
C 63.483569 243.373443 63.432341 243.249769 63.341169 243.158596 
C 63.249996 243.067424 63.126322 243.016196 62.997384 243.016196 
C 62.868447 243.016196 62.744772 243.067424 62.6536 243.158596 
C 62.562427 243.249769 62.5112 243.373443 62.5112 243.502381 
C 62.5112 243.631319 62.562427 243.754993 62.6536 243.846165 
C 62.744772 243.937338 62.868447 243.988566 62.997384 243.988566 
z
" clip-path="url(#paa60e118c9)" style="fill: #800080; fill-opacity: 0.8; stroke: #800080; stroke-opacity: 0.8"/>
    <path d="M 70.078859 271.940283 
C 70.248205 271.940283 70.410638 271.873001 70.530383 271.753256 
C 70.650129 271.63351 70.717411 271.471078 70.717411 271.301732 
C 70.717411 271.132386 70.650129 270.969953 70.530383 270.850208 
C 70.410638 270.730462 70.248205 270.66318 70.078859 270.66318 
C 69.909514 270.66318 69.747081 270.730462 69.627335 270.850208 
C 69.50759 270.969953 69.440308 271.132386 69.440308 271.301732 
C 69.440308 271.471078 69.50759 271.63351 69.627335 271.753256 
C 69.747081 271.873001 69.909514 271.940283 70.078859 271.940283 
z
" clip-path="url(#paa60e118c9)" style="fill: #800080; fill-opacity: 0.8; stroke: #800080; stroke-opacity: 0.8"/>
    <path d="M 77.160334 266.211767 
C 77.338063 266.211767 77.508536 266.141154 77.634209 266.015482 
C 77.759882 265.889809 77.830494 265.719336 77.830494 265.541607 
C 77.830494 265.363879 77.759882 265.193406 77.634209 265.067733 
C 77.508536 264.94206 77.338063 264.871448 77.160334 264.871448 
C 76.982606 264.871448 76.812133 264.94206 76.68646 265.067733 
C 76.560787 265.193406 76.490175 265.363879 76.490175 265.541607 
C 76.490175 265.719336 76.560787 265.889809 76.68646 266.015482 
C 76.812133 266.141154 76.982606 266.211767 77.160334 266.211767 
z
" clip-path="url(#paa60e118c9)" style="fill: #800080; fill-opacity: 0.8; stroke: #800080; stroke-opacity: 0.8"/>
    <path d="M 84.24181 225.350883 
C 84.419538 225.350883 84.590011 225.280271 84.715684 225.154598 
C 84.841357 225.028925 84.911969 224.858452 84.911969 224.680724 
C 84.911969 224.502996 84.841357 224.332523 84.715684 224.20685 
C 84.590011 224.081177 84.419538 224.010565 84.24181 224.010565 
C 84.064081 224.010565 83.893608 224.081177 83.767935 224.20685 
C 83.642262 224.332523 83.57165 224.502996 83.57165 224.680724 
C 83.57165 224.858452 83.642262 225.028925 83.767935 225.154598 
C 83.893608 225.280271 84.064081 225.350883 84.24181 225.350883 
z
" clip-path="url(#paa60e118c9)" style="fill: #800080; fill-opacity: 0.8; stroke: #800080; stroke-opacity: 0.8"/>
    <path d="M 91.323285 275.753452 
C 91.552126 275.753452 91.771626 275.662532 91.933442 275.500716 
C 92.095257 275.338901 92.186177 275.119401 92.186177 274.890559 
C 92.186177 274.661718 92.095257 274.442218 91.933442 274.280402 
C 91.771626 274.118587 91.552126 274.027667 91.323285 274.027667 
C 91.094443 274.027667 90.874943 274.118587 90.713128 274.280402 
C 90.551312 274.442218 90.460392 274.661718 90.460392 274.890559 
C 90.460392 275.119401 90.551312 275.338901 90.713128 275.500716 
C 90.874943 275.662532 91.094443 275.753452 91.323285 275.753452 
z
" clip-path="url(#paa60e118c9)" style="fill: #800080; fill-opacity: 0.8; stroke: #800080; stroke-opacity: 0.8"/>
    <path d="M 98.40476 255.715371 
C 98.576542 255.715371 98.741312 255.647121 98.862781 255.525652 
C 98.98425 255.404183 99.0525 255.239413 99.0525 255.067631 
C 99.0525 254.895848 98.98425 254.731078 98.862781 254.60961 
C 98.741312 254.488141 98.576542 254.419891 98.40476 254.419891 
C 98.232977 254.419891 98.068207 254.488141 97.946739 254.60961 
C 97.82527 254.731078 97.75702 254.895848 97.75702 255.067631 
C 97.75702 255.239413 97.82527 255.404183 97.946739 255.525652 
C 98.068207 255.647121 98.232977 255.715371 98.40476 255.715371 
z
" clip-path="url(#paa60e118c9)" style="fill: #800080; fill-opacity: 0.8; stroke: #800080; stroke-opacity: 0.8"/>
    <path d="M 105.486235 209.646298 
C 105.70295 209.646298 105.910818 209.560196 106.064059 209.406955 
C 106.2173 209.253715 106.303401 209.045847 106.303401 208.829131 
C 106.303401 208.612416 106.2173 208.404548 106.064059 208.251308 
C 105.910818 208.098067 105.70295 208.011965 105.486235 208.011965 
C 105.26952 208.011965 105.061652 208.098067 104.908411 208.251308 
C 104.75517 208.404548 104.669069 208.612416 104.669069 208.829131 
C 104.669069 209.045847 104.75517 209.253715 104.908411 209.406955 
C 105.061652 209.560196 105.26952 209.646298 105.486235 209.646298 
z
" clip-path="url(#paa60e118c9)" style="fill: #800080; fill-opacity: 0.8; stroke: #800080; stroke-opacity: 0.8"/>
    <path d="M 112.56771 280.182078 
C 112.774614 280.182078 112.973071 280.099874 113.119374 279.953571 
C 113.265678 279.807268 113.347881 279.608811 113.347881 279.401907 
C 113.347881 279.195003 113.265678 278.996546 113.119374 278.850243 
C 112.973071 278.703939 112.774614 278.621736 112.56771 278.621736 
C 112.360806 278.621736 112.162349 278.703939 112.016046 278.850243 
C 111.869743 278.996546 111.787539 279.195003 111.787539 279.401907 
C 111.787539 279.608811 111.869743 279.807268 112.016046 279.953571 
C 112.162349 280.099874 112.360806 280.182078 112.56771 280.182078 
z
" clip-path="url(#paa60e118c9)" style="fill: #800080; fill-opacity: 0.8; stroke: #800080; stroke-opacity: 0.8"/>
    <path d="M 119.649185 213.999288 
C 119.889543 213.999288 120.120088 213.903793 120.290046 213.733834 
C 120.460004 213.563876 120.555499 213.333331 120.555499 213.092974 
C 120.555499 212.852616 120.460004 212.622071 120.290046 212.452113 
C 120.120088 212.282155 119.889543 212.18666 119.649185 212.18666 
C 119.408828 212.18666 119.178283 212.282155 119.008324 212.452113 
C 118.838366 212.622071 118.742871 212.852616 118.742871 213.092974 
C 118.742871 213.333331 118.838366 213.563876 119.008324 213.733834 
C 119.178283 213.903793 119.408828 213.999288 119.649185 213.999288 
z
" clip-path="url(#paa60e118c9)" style="fill: #800080; fill-opacity: 0.8; stroke: #800080; stroke-opacity: 0.8"/>
    <path d="M 126.73066 223.865136 
C 126.964887 223.865136 127.189552 223.772076 127.355176 223.606453 
C 127.520799 223.440829 127.613859 223.216164 127.613859 222.981937 
C 127.613859 222.74771 127.520799 222.523045 127.355176 222.357422 
C 127.189552 222.191798 126.964887 222.098739 126.73066 222.098739 
C 126.496433 222.098739 126.271768 222.191798 126.106145 222.357422 
C 125.940521 222.523045 125.847462 222.74771 125.847462 222.981937 
C 125.847462 223.216164 125.940521 223.440829 126.106145 223.606453 
C 126.271768 223.772076 126.496433 223.865136 126.73066 223.865136 
z
" clip-path="url(#paa60e118c9)" style="fill: #800080; fill-opacity: 0.8; stroke: #800080; stroke-opacity: 0.8"/>
    <path d="M 133.812136 247.557317 
C 134.070011 247.557317 134.317359 247.454862 134.499705 247.272517 
C 134.68205 247.090171 134.784505 246.842823 134.784505 246.584948 
C 134.784505 246.327072 134.68205 246.079724 134.499705 245.897379 
C 134.317359 245.715033 134.070011 245.612578 133.812136 245.612578 
C 133.55426 245.612578 133.306912 245.715033 133.124566 245.897379 
C 132.942221 246.079724 132.839766 246.327072 132.839766 246.584948 
C 132.839766 246.842823 132.942221 247.090171 133.124566 247.272517 
C 133.306912 247.454862 133.55426 247.557317 133.812136 247.557317 
z
" clip-path="url(#paa60e118c9)" style="fill: #800080; fill-opacity: 0.8; stroke: #800080; stroke-opacity: 0.8"/>
    <path d="M 140.893611 230.808567 
C 141.13136 230.808567 141.359404 230.714109 141.527518 230.545994 
C 141.695632 230.37788 141.790091 230.149837 141.790091 229.912087 
C 141.790091 229.674338 141.695632 229.446294 141.527518 229.27818 
C 141.359404 229.110066 141.13136 229.015607 140.893611 229.015607 
C 140.655861 229.015607 140.427818 229.110066 140.259703 229.27818 
C 140.091589 229.446294 139.99713 229.674338 139.99713 229.912087 
C 139.99713 230.149837 140.091589 230.37788 140.259703 230.545994 
C 140.427818 230.714109 140.655861 230.808567 140.893611 230.808567 
z
" clip-path="url(#paa60e118c9)" style="fill: #800080; fill-opacity: 0.8; stroke: #800080; stroke-opacity: 0.8"/>
    <path d="M 147.975086 226.663915 
C 148.220576 226.663915 148.456044 226.566381 148.629632 226.392793 
C 148.80322 226.219205 148.900754 225.983737 148.900754 225.738247 
C 148.900754 225.492757 148.80322 225.257288 148.629632 225.083701 
C 148.456044 224.910113 148.220576 224.812579 147.975086 224.812579 
C 147.729596 224.812579 147.494127 224.910113 147.32054 225.083701 
C 147.146952 225.257288 147.049418 225.492757 147.049418 225.738247 
C 147.049418 225.983737 147.146952 226.219205 147.32054 226.392793 
C 147.494127 226.566381 147.729596 226.663915 147.975086 226.663915 
z
" clip-path="url(#paa60e118c9)" style="fill: #800080; fill-opacity: 0.8; stroke: #800080; stroke-opacity: 0.8"/>
    <path d="M 155.056561 250.13258 
C 155.269406 250.13258 155.473562 250.048016 155.624066 249.897512 
C 155.77457 249.747008 155.859134 249.542852 155.859134 249.330007 
C 155.859134 249.117162 155.77457 248.913006 155.624066 248.762502 
C 155.473562 248.611998 155.269406 248.527434 155.056561 248.527434 
C 154.843716 248.527434 154.63956 248.611998 154.489056 248.762502 
C 154.338552 248.913006 154.253988 249.117162 154.253988 249.330007 
C 154.253988 249.542852 154.338552 249.747008 154.489056 249.897512 
C 154.63956 250.048016 154.843716 250.13258 155.056561 250.13258 
z
" clip-path="url(#paa60e118c9)" style="fill: #800080; fill-opacity: 0.8; stroke: #800080; stroke-opacity: 0.8"/>
    <path d="M 162.138036 215.072767 
C 162.376658 215.072767 162.605538 214.977962 162.77427 214.809231 
C 162.943001 214.640499 163.037806 214.411619 163.037806 214.172997 
C 163.037806 213.934375 162.943001 213.705494 162.77427 213.536763 
C 162.605538 213.368032 162.376658 213.273227 162.138036 213.273227 
C 161.899414 213.273227 161.670534 213.368032 161.501802 213.536763 
C 161.333071 213.705494 161.238266 213.934375 161.238266 214.172997 
C 161.238266 214.411619 161.333071 214.640499 161.501802 214.809231 
C 161.670534 214.977962 161.899414 215.072767 162.138036 215.072767 
z
" clip-path="url(#paa60e118c9)" style="fill: #800080; fill-opacity: 0.8; stroke: #800080; stroke-opacity: 0.8"/>
    <path d="M 169.219511 198.24652 
C 169.474143 198.24652 169.718379 198.145354 169.898431 197.965302 
C 170.078483 197.78525 170.179649 197.541013 170.179649 197.286382 
C 170.179649 197.03175 170.078483 196.787514 169.898431 196.607462 
C 169.718379 196.42741 169.474143 196.326244 169.219511 196.326244 
C 168.96488 196.326244 168.720643 196.42741 168.540591 196.607462 
C 168.360539 196.787514 168.259373 197.03175 168.259373 197.286382 
C 168.259373 197.541013 168.360539 197.78525 168.540591 197.965302 
C 168.720643 198.145354 168.96488 198.24652 169.219511 198.24652 
z
" clip-path="url(#paa60e118c9)" style="fill: #800080; fill-opacity: 0.8; stroke: #800080; stroke-opacity: 0.8"/>
    <path d="M 176.300986 240.20432 
C 176.548164 240.20432 176.78525 240.106115 176.960031 239.931334 
C 177.134812 239.756554 177.233016 239.519467 177.233016 239.272289 
C 177.233016 239.025112 177.134812 238.788025 176.960031 238.613245 
C 176.78525 238.438464 176.548164 238.340259 176.300986 238.340259 
C 176.053809 238.340259 175.816722 238.438464 175.641941 238.613245 
C 175.467161 238.788025 175.368956 239.025112 175.368956 239.272289 
C 175.368956 239.519467 175.467161 239.756554 175.641941 239.931334 
C 175.816722 240.106115 176.053809 240.20432 176.300986 240.20432 
z
" clip-path="url(#paa60e118c9)" style="fill: #800080; fill-opacity: 0.8; stroke: #800080; stroke-opacity: 0.8"/>
    <path d="M 183.382461 236.678256 
C 183.625399 236.678256 183.858418 236.581736 184.030201 236.409953 
C 184.201984 236.238171 184.298504 236.005151 184.298504 235.762214 
C 184.298504 235.519276 184.201984 235.286257 184.030201 235.114474 
C 183.858418 234.942691 183.625399 234.846171 183.382461 234.846171 
C 183.139524 234.846171 182.906504 234.942691 182.734722 235.114474 
C 182.562939 235.286257 182.466419 235.519276 182.466419 235.762214 
C 182.466419 236.005151 182.562939 236.238171 182.734722 236.409953 
C 182.906504 236.581736 183.139524 236.678256 183.382461 236.678256 
z
" clip-path="url(#paa60e118c9)" style="fill: #800080; fill-opacity: 0.8; stroke: #800080; stroke-opacity: 0.8"/>
    <path d="M 190.463937 221.056444 
C 190.705157 221.056444 190.93653 220.960607 191.107098 220.790038 
C 191.277667 220.619469 191.373505 220.388096 191.373505 220.146876 
C 191.373505 219.905656 191.277667 219.674283 191.107098 219.503714 
C 190.93653 219.333146 190.705157 219.237308 190.463937 219.237308 
C 190.222716 219.237308 189.991343 219.333146 189.820775 219.503714 
C 189.650206 219.674283 189.554368 219.905656 189.554368 220.146876 
C 189.554368 220.388096 189.650206 220.619469 189.820775 220.790038 
C 189.991343 220.960607 190.222716 221.056444 190.463937 221.056444 
z
" clip-path="url(#paa60e118c9)" style="fill: #800080; fill-opacity: 0.8; stroke: #800080; stroke-opacity: 0.8"/>
    <path d="M 197.545412 229.766619 
C 197.799226 229.766619 198.042678 229.665777 198.222152 229.486304 
C 198.401626 229.30683 198.502467 229.063377 198.502467 228.809563 
C 198.502467 228.555749 198.401626 228.312297 198.222152 228.132823 
C 198.042678 227.953349 197.799226 227.852508 197.545412 227.852508 
C 197.291598 227.852508 197.048145 227.953349 196.868671 228.132823 
C 196.689198 228.312297 196.588356 228.555749 196.588356 228.809563 
C 196.588356 229.063377 196.689198 229.30683 196.868671 229.486304 
C 197.048145 229.665777 197.291598 229.766619 197.545412 229.766619 
z
" clip-path="url(#paa60e118c9)" style="fill: #800080; fill-opacity: 0.8; stroke: #800080; stroke-opacity: 0.8"/>
    <path d="M 204.626887 226.789232 
C 204.899644 226.789232 205.161267 226.680864 205.354135 226.487996 
C 205.547004 226.295127 205.655371 226.033505 205.655371 225.760747 
C 205.655371 225.48799 205.547004 225.226367 205.354135 225.033499 
C 205.161267 224.84063 204.899644 224.732263 204.626887 224.732263 
C 204.354129 224.732263 204.092507 224.84063 203.899638 225.033499 
C 203.70677 225.226367 203.598402 225.48799 203.598402 225.760747 
C 203.598402 226.033505 203.70677 226.295127 203.899638 226.487996 
C 204.092507 226.680864 204.354129 226.789232 204.626887 226.789232 
z
" clip-path="url(#paa60e118c9)" style="fill: #800080; fill-opacity: 0.8; stroke: #800080; stroke-opacity: 0.8"/>
    <path d="M 211.708362 212.240819 
C 212.004498 212.240819 212.288545 212.123163 212.497944 211.913764 
C 212.707344 211.704364 212.825 211.420317 212.825 211.124181 
C 212.825 210.828045 212.707344 210.543998 212.497944 210.334599 
C 212.288545 210.125199 212.004498 210.007543 211.708362 210.007543 
C 211.412226 210.007543 211.128179 210.125199 210.918779 210.334599 
C 210.70938 210.543998 210.591724 210.828045 210.591724 211.124181 
C 210.591724 211.420317 210.70938 211.704364 210.918779 211.913764 
C 211.128179 212.123163 211.412226 212.240819 211.708362 212.240819 
z
" clip-path="url(#paa60e118c9)" style="fill: #800080; fill-opacity: 0.8; stroke: #800080; stroke-opacity: 0.8"/>
    <path d="M 218.789837 224.949904 
C 219.07306 224.949904 219.344721 224.837379 219.54499 224.63711 
C 219.745259 224.436841 219.857785 224.16518 219.857785 223.881957 
C 219.857785 223.598734 219.745259 223.327073 219.54499 223.126804 
C 219.344721 222.926535 219.07306 222.814009 218.789837 222.814009 
C 218.506614 222.814009 218.234953 222.926535 218.034684 223.126804 
C 217.834415 223.327073 217.721889 223.598734 217.721889 223.881957 
C 217.721889 224.16518 217.834415 224.436841 218.034684 224.63711 
C 218.234953 224.837379 218.506614 224.949904 218.789837 224.949904 
z
" clip-path="url(#paa60e118c9)" style="fill: #800080; fill-opacity: 0.8; stroke: #800080; stroke-opacity: 0.8"/>
    <path d="M 225.871312 210.954602 
C 226.154535 210.954602 226.426196 210.842076 226.626465 210.641807 
C 226.826734 210.441538 226.93926 210.169877 226.93926 209.886654 
C 226.93926 209.603431 226.826734 209.33177 226.626465 209.131501 
C 226.426196 208.931232 226.154535 208.818707 225.871312 208.818707 
C 225.588089 208.818707 225.316428 208.931232 225.116159 209.131501 
C 224.91589 209.33177 224.803365 209.603431 224.803365 209.886654 
C 224.803365 210.169877 224.91589 210.441538 225.116159 210.641807 
C 225.316428 210.842076 225.588089 210.954602 225.871312 210.954602 
z
" clip-path="url(#paa60e118c9)" style="fill: #800080; fill-opacity: 0.8; stroke: #800080; stroke-opacity: 0.8"/>
    <path d="M 232.952787 178.856334 
C 233.256544 178.856334 233.547901 178.73565 233.76269 178.520861 
C 233.977479 178.306073 234.098163 178.014716 234.098163 177.710959 
C 234.098163 177.407202 233.977479 177.115845 233.76269 176.901056 
C 233.547901 176.686268 233.256544 176.565584 232.952787 176.565584 
C 232.64903 176.565584 232.357673 176.686268 232.142885 176.901056 
C 231.928096 177.115845 231.807412 177.407202 231.807412 177.710959 
C 231.807412 178.014716 231.928096 178.306073 232.142885 178.520861 
C 232.357673 178.73565 232.64903 178.856334 232.952787 178.856334 
z
" clip-path="url(#paa60e118c9)" style="fill: #800080; fill-opacity: 0.8; stroke: #800080; stroke-opacity: 0.8"/>
    <path d="M 240.034262 224.36259 
C 240.340744 224.36259 240.634714 224.240824 240.851429 224.024109 
C 241.068144 223.807394 241.18991 223.513424 241.18991 223.206942 
C 241.18991 222.900461 241.068144 222.606491 240.851429 222.389776 
C 240.634714 222.173061 240.340744 222.051294 240.034262 222.051294 
C 239.727781 222.051294 239.433811 222.173061 239.217096 222.389776 
C 239.000381 222.606491 238.878615 222.900461 238.878615 223.206942 
C 238.878615 223.513424 239.000381 223.807394 239.217096 224.024109 
C 239.433811 224.240824 239.727781 224.36259 240.034262 224.36259 
z
" clip-path="url(#paa60e118c9)" style="fill: #800080; fill-opacity: 0.8; stroke: #800080; stroke-opacity: 0.8"/>
    <path d="M 247.115738 202.657404 
C 247.43025 202.657404 247.731924 202.532447 247.954318 202.310053 
C 248.176712 202.087659 248.30167 201.785985 248.30167 201.471472 
C 248.30167 201.15696 248.176712 200.855286 247.954318 200.632892 
C 247.731924 200.410498 247.43025 200.28554 247.115738 200.28554 
C 246.801225 200.28554 246.499551 200.410498 246.277157 200.632892 
C 246.054763 200.855286 245.929806 201.15696 245.929806 201.471472 
C 245.929806 201.785985 246.054763 202.087659 246.277157 202.310053 
C 246.499551 202.532447 246.801225 202.657404 247.115738 202.657404 
z
" clip-path="url(#paa60e118c9)" style="fill: #800080; fill-opacity: 0.8; stroke: #800080; stroke-opacity: 0.8"/>
    <path d="M 254.197213 204.855025 
C 254.524674 204.855025 254.838767 204.724923 255.070317 204.493373 
C 255.301867 204.261823 255.431969 203.94773 255.431969 203.620269 
C 255.431969 203.292808 255.301867 202.978714 255.070317 202.747164 
C 254.838767 202.515614 254.524674 202.385513 254.197213 202.385513 
C 253.869752 202.385513 253.555658 202.515614 253.324108 202.747164 
C 253.092558 202.978714 252.962457 203.292808 252.962457 203.620269 
C 252.962457 203.94773 253.092558 204.261823 253.324108 204.493373 
C 253.555658 204.724923 253.869752 204.855025 254.197213 204.855025 
z
" clip-path="url(#paa60e118c9)" style="fill: #800080; fill-opacity: 0.8; stroke: #800080; stroke-opacity: 0.8"/>
    <path d="M 261.278688 145.28489 
C 261.621041 145.28489 261.949419 145.148871 262.191499 144.906791 
C 262.433579 144.664711 262.569598 144.336333 262.569598 143.99398 
C 262.569598 143.651627 262.433579 143.323249 262.191499 143.081169 
C 261.949419 142.839089 261.621041 142.70307 261.278688 142.70307 
C 260.936335 142.70307 260.607957 142.839089 260.365877 143.081169 
C 260.123797 143.323249 259.987778 143.651627 259.987778 143.99398 
C 259.987778 144.336333 260.123797 144.664711 260.365877 144.906791 
C 260.607957 145.148871 260.936335 145.28489 261.278688 145.28489 
z
" clip-path="url(#paa60e118c9)" style="fill: #800080; fill-opacity: 0.8; stroke: #800080; stroke-opacity: 0.8"/>
    <path d="M 268.360163 182.444198 
C 268.717369 182.444198 269.059993 182.302278 269.312576 182.049695 
C 269.565159 181.797112 269.707079 181.454488 269.707079 181.097282 
C 269.707079 180.740076 269.565159 180.397452 269.312576 180.144869 
C 269.059993 179.892286 268.717369 179.750366 268.360163 179.750366 
C 268.002957 179.750366 267.660333 179.892286 267.40775 180.144869 
C 267.155167 180.397452 267.013247 180.740076 267.013247 181.097282 
C 267.013247 181.454488 267.155167 181.797112 267.40775 182.049695 
C 267.660333 182.302278 268.002957 182.444198 268.360163 182.444198 
z
" clip-path="url(#paa60e118c9)" style="fill: #800080; fill-opacity: 0.8; stroke: #800080; stroke-opacity: 0.8"/>
    <path d="M 275.441638 191.02563 
C 275.801164 191.02563 276.146013 190.882788 276.400236 190.628565 
C 276.654459 190.374342 276.7973 190.029493 276.7973 189.669967 
C 276.7973 189.310441 276.654459 188.965592 276.400236 188.711369 
C 276.146013 188.457146 275.801164 188.314305 275.441638 188.314305 
C 275.082112 188.314305 274.737263 188.457146 274.48304 188.711369 
C 274.228817 188.965592 274.085976 189.310441 274.085976 189.669967 
C 274.085976 190.029493 274.228817 190.374342 274.48304 190.628565 
C 274.737263 190.882788 275.082112 191.02563 275.441638 191.02563 
z
" clip-path="url(#paa60e118c9)" style="fill: #800080; fill-opacity: 0.8; stroke: #800080; stroke-opacity: 0.8"/>
    <path d="M 282.523113 178.609101 
C 282.904516 178.609101 283.270349 178.457568 283.540041 178.187875 
C 283.809734 177.918183 283.961267 177.55235 283.961267 177.170947 
C 283.961267 176.789544 283.809734 176.423711 283.540041 176.154019 
C 283.270349 175.884326 282.904516 175.732793 282.523113 175.732793 
C 282.14171 175.732793 281.775877 175.884326 281.506185 176.154019 
C 281.236492 176.423711 281.084959 176.789544 281.084959 177.170947 
C 281.084959 177.55235 281.236492 177.918183 281.506185 178.187875 
C 281.775877 178.457568 282.14171 178.609101 282.523113 178.609101 
z
" clip-path="url(#paa60e118c9)" style="fill: #800080; fill-opacity: 0.8; stroke: #800080; stroke-opacity: 0.8"/>
    <path d="M 289.604588 171.542444 
C 290.024379 171.542444 290.427033 171.375659 290.72387 171.078823 
C 291.020706 170.781986 291.187491 170.379332 291.187491 169.959541 
C 291.187491 169.539751 291.020706 169.137097 290.72387 168.84026 
C 290.427033 168.543423 290.024379 168.376639 289.604588 168.376639 
C 289.184798 168.376639 288.782144 168.543423 288.485307 168.84026 
C 288.18847 169.137097 288.021686 169.539751 288.021686 169.959541 
C 288.021686 170.379332 288.18847 170.781986 288.485307 171.078823 
C 288.782144 171.375659 289.184798 171.542444 289.604588 171.542444 
z
" clip-path="url(#paa60e118c9)" style="fill: #800080; fill-opacity: 0.8; stroke: #800080; stroke-opacity: 0.8"/>
    <path d="M 296.686063 139.107014 
C 297.147365 139.107014 297.589835 138.923737 297.916024 138.597548 
C 298.242214 138.271358 298.425491 137.828888 298.425491 137.367587 
C 298.425491 136.906285 298.242214 136.463815 297.916024 136.137626 
C 297.589835 135.811436 297.147365 135.628159 296.686063 135.628159 
C 296.224762 135.628159 295.782292 135.811436 295.456103 136.137626 
C 295.129913 136.463815 294.946636 136.906285 294.946636 137.367587 
C 294.946636 137.828888 295.129913 138.271358 295.456103 138.597548 
C 295.782292 138.923737 296.224762 139.107014 296.686063 139.107014 
z
" clip-path="url(#paa60e118c9)" style="fill: #800080; fill-opacity: 0.8; stroke: #800080; stroke-opacity: 0.8"/>
    <path d="M 303.767539 142.695174 
C 304.249548 142.695174 304.711881 142.50367 305.052713 142.162837 
C 305.393546 141.822005 305.58505 141.359672 305.58505 140.877663 
C 305.58505 140.395653 305.393546 139.93332 305.052713 139.592488 
C 304.711881 139.251655 304.249548 139.060151 303.767539 139.060151 
C 303.285529 139.060151 302.823196 139.251655 302.482364 139.592488 
C 302.141531 139.93332 301.950027 140.395653 301.950027 140.877663 
C 301.950027 141.359672 302.141531 141.822005 302.482364 142.162837 
C 302.823196 142.50367 303.285529 142.695174 303.767539 142.695174 
z
" clip-path="url(#paa60e118c9)" style="fill: #800080; fill-opacity: 0.8; stroke: #800080; stroke-opacity: 0.8"/>
    <path d="M 310.849014 166.692884 
C 311.322322 166.692884 311.776309 166.504837 312.110989 166.170157 
C 312.445668 165.835477 312.633716 165.381491 312.633716 164.908182 
C 312.633716 164.434874 312.445668 163.980887 312.110989 163.646207 
C 311.776309 163.311528 311.322322 163.12348 310.849014 163.12348 
C 310.375705 163.12348 309.921719 163.311528 309.587039 163.646207 
C 309.252359 163.980887 309.064312 164.434874 309.064312 164.908182 
C 309.064312 165.381491 309.252359 165.835477 309.587039 166.170157 
C 309.921719 166.504837 310.375705 166.692884 310.849014 166.692884 
z
" clip-path="url(#paa60e118c9)" style="fill: #800080; fill-opacity: 0.8; stroke: #800080; stroke-opacity: 0.8"/>
    <path d="M 317.930489 132.198697 
C 318.412499 132.198697 318.874831 132.007193 319.215664 131.666361 
C 319.556496 131.325528 319.748001 130.863195 319.748001 130.381186 
C 319.748001 129.899176 319.556496 129.436843 319.215664 129.096011 
C 318.874831 128.755179 318.412499 128.563674 317.930489 128.563674 
C 317.448479 128.563674 316.986146 128.755179 316.645314 129.096011 
C 316.304482 129.436843 316.112977 129.899176 316.112977 130.381186 
C 316.112977 130.863195 316.304482 131.325528 316.645314 131.666361 
C 316.986146 132.007193 317.448479 132.198697 317.930489 132.198697 
z
" clip-path="url(#paa60e118c9)" style="fill: #800080; fill-opacity: 0.8; stroke: #800080; stroke-opacity: 0.8"/>
    <path d="M 325.011964 124.759961 
C 325.514242 124.759961 325.996016 124.560404 326.35118 124.205239 
C 326.706344 123.850075 326.905902 123.368301 326.905902 122.866023 
C 326.905902 122.363745 326.706344 121.881971 326.35118 121.526807 
C 325.996016 121.171643 325.514242 120.972086 325.011964 120.972086 
C 324.509686 120.972086 324.027912 121.171643 323.672748 121.526807 
C 323.317584 121.881971 323.118026 122.363745 323.118026 122.866023 
C 323.118026 123.368301 323.317584 123.850075 323.672748 124.205239 
C 324.027912 124.560404 324.509686 124.759961 325.011964 124.759961 
z
" clip-path="url(#paa60e118c9)" style="fill: #800080; fill-opacity: 0.8; stroke: #800080; stroke-opacity: 0.8"/>
    <path d="M 332.093439 111.611923 
C 332.623497 111.611923 333.131916 111.401329 333.506724 111.026522 
C 333.881531 110.651714 334.092125 110.143295 334.092125 109.613237 
C 334.092125 109.083179 333.881531 108.57476 333.506724 108.199952 
C 333.131916 107.825145 332.623497 107.61455 332.093439 107.61455 
C 331.563381 107.61455 331.054962 107.825145 330.680154 108.199952 
C 330.305347 108.57476 330.094753 109.083179 330.094753 109.613237 
C 330.094753 110.143295 330.305347 110.651714 330.680154 111.026522 
C 331.054962 111.401329 331.563381 111.611923 332.093439 111.611923 
z
" clip-path="url(#paa60e118c9)" style="fill: #800080; fill-opacity: 0.8; stroke: #800080; stroke-opacity: 0.8"/>
    <path d="M 339.174914 111.546893 
C 339.729496 111.546893 340.261439 111.326555 340.653587 110.934406 
C 341.045736 110.542258 341.266074 110.010315 341.266074 109.455733 
C 341.266074 108.901151 341.045736 108.369209 340.653587 107.97706 
C 340.261439 107.584912 339.729496 107.364574 339.174914 107.364574 
C 338.620332 107.364574 338.08839 107.584912 337.696241 107.97706 
C 337.304092 108.369209 337.083755 108.901151 337.083755 109.455733 
C 337.083755 110.010315 337.304092 110.542258 337.696241 110.934406 
C 338.08839 111.326555 338.620332 111.546893 339.174914 111.546893 
z
" clip-path="url(#paa60e118c9)" style="fill: #800080; fill-opacity: 0.8; stroke: #800080; stroke-opacity: 0.8"/>
    <path d="M 346.256389 84.039783 
C 346.822835 84.039783 347.366158 83.814732 347.766695 83.414194 
C 348.167233 83.013656 348.392285 82.470334 348.392285 81.903888 
C 348.392285 81.337442 348.167233 80.79412 347.766695 80.393582 
C 347.366158 79.993044 346.822835 79.767993 346.256389 79.767993 
C 345.689943 79.767993 345.146621 79.993044 344.746083 80.393582 
C 344.345545 80.79412 344.120494 81.337442 344.120494 81.903888 
C 344.120494 82.470334 344.345545 83.013656 344.746083 83.414194 
C 345.146621 83.814732 345.689943 84.039783 346.256389 84.039783 
z
" clip-path="url(#paa60e118c9)" style="fill: #800080; fill-opacity: 0.8; stroke: #800080; stroke-opacity: 0.8"/>
    <path d="M 353.337864 86.1427 
C 353.939881 86.1427 354.517321 85.903516 354.943011 85.477826 
C 355.3687 85.052137 355.607884 84.474697 355.607884 83.87268 
C 355.607884 83.270664 355.3687 82.693224 354.943011 82.267534 
C 354.517321 81.841845 353.939881 81.602661 353.337864 81.602661 
C 352.735848 81.602661 352.158408 81.841845 351.732718 82.267534 
C 351.307029 82.693224 351.067845 83.270664 351.067845 83.87268 
C 351.067845 84.474697 351.307029 85.052137 351.732718 85.477826 
C 352.158408 85.903516 352.735848 86.1427 353.337864 86.1427 
z
" clip-path="url(#paa60e118c9)" style="fill: #800080; fill-opacity: 0.8; stroke: #800080; stroke-opacity: 0.8"/>
    <path d="M 360.41934 98.579608 
C 361.037703 98.579608 361.630823 98.333929 362.068072 97.896681 
C 362.505321 97.459432 362.751 96.866311 362.751 96.247948 
C 362.751 95.629584 362.505321 95.036464 362.068072 94.599215 
C 361.630823 94.161966 361.037703 93.916288 360.41934 93.916288 
C 359.800976 93.916288 359.207856 94.161966 358.770607 94.599215 
C 358.333358 95.036464 358.08768 95.629584 358.08768 96.247948 
C 358.08768 96.866311 358.333358 97.459432 358.770607 97.896681 
C 359.207856 98.333929 359.800976 98.579608 360.41934 98.579608 
z
" clip-path="url(#paa60e118c9)" style="fill: #800080; fill-opacity: 0.8; stroke: #800080; stroke-opacity: 0.8"/>
    <path d="M 367.500815 86.922554 
C 368.166438 86.922554 368.804889 86.6581 369.275555 86.187433 
C 369.746222 85.716766 370.010677 85.078315 370.010677 84.412692 
C 370.010677 83.747069 369.746222 83.108618 369.275555 82.637951 
C 368.804889 82.167285 368.166438 81.90283 367.500815 81.90283 
C 366.835191 81.90283 366.196741 82.167285 365.726074 82.637951 
C 365.255407 83.108618 364.990952 83.747069 364.990952 84.412692 
C 364.990952 85.078315 365.255407 85.716766 365.726074 86.187433 
C 366.196741 86.6581 366.835191 86.922554 367.500815 86.922554 
z
" clip-path="url(#paa60e118c9)" style="fill: #800080; fill-opacity: 0.8; stroke: #800080; stroke-opacity: 0.8"/>
    <path d="M 374.58229 63.155853 
C 375.296993 63.155853 375.98252 62.871898 376.487892 62.366527 
C 376.993264 61.861155 377.277218 61.175628 377.277218 60.460924 
C 377.277218 59.746221 376.993264 59.060694 376.487892 58.555322 
C 375.98252 58.049951 375.296993 57.765996 374.58229 57.765996 
C 373.867586 57.765996 373.182059 58.049951 372.676688 58.555322 
C 372.171316 59.060694 371.887361 59.746221 371.887361 60.460924 
C 371.887361 61.175628 372.171316 61.861155 372.676688 62.366527 
C 373.182059 62.871898 373.867586 63.155853 374.58229 63.155853 
z
" clip-path="url(#paa60e118c9)" style="fill: #800080; fill-opacity: 0.8; stroke: #800080; stroke-opacity: 0.8"/>
    <path d="M 381.663765 74.234518 
C 382.422473 74.234518 383.150209 73.93308 383.686697 73.396592 
C 384.223184 72.860104 384.524622 72.132368 384.524622 71.37366 
C 384.524622 70.614952 384.223184 69.887216 383.686697 69.350729 
C 383.150209 68.814241 382.422473 68.512803 381.663765 68.512803 
C 380.905057 68.512803 380.177321 68.814241 379.640833 69.350729 
C 379.104346 69.887216 378.802908 70.614952 378.802908 71.37366 
C 378.802908 72.132368 379.104346 72.860104 379.640833 73.396592 
C 380.177321 73.93308 380.905057 74.234518 381.663765 74.234518 
z
" clip-path="url(#paa60e118c9)" style="fill: #800080; fill-opacity: 0.8; stroke: #800080; stroke-opacity: 0.8"/>
    <path d="M 388.74524 55.418779 
C 389.523419 55.418779 390.269831 55.109605 390.820087 54.559349 
C 391.370343 54.009093 391.679517 53.262681 391.679517 52.484502 
C 391.679517 51.706323 391.370343 50.959911 390.820087 50.409655 
C 390.269831 49.859399 389.523419 49.550225 388.74524 49.550225 
C 387.967061 49.550225 387.220649 49.859399 386.670393 50.409655 
C 386.120137 50.959911 385.810963 51.706323 385.810963 52.484502 
C 385.810963 53.262681 386.120137 54.009093 386.670393 54.559349 
C 387.220649 55.109605 387.967061 55.418779 388.74524 55.418779 
z
" clip-path="url(#paa60e118c9)" style="fill: #800080; fill-opacity: 0.8; stroke: #800080; stroke-opacity: 0.8"/>
    <path d="M 395.826715 59.316624 
C 396.615241 59.316624 397.371576 59.00334 397.929148 58.445768 
C 398.48672 57.888196 398.800004 57.131861 398.800004 56.343335 
C 398.800004 55.55481 398.48672 54.798474 397.929148 54.240903 
C 397.371576 53.683331 396.615241 53.370047 395.826715 53.370047 
C 395.03819 53.370047 394.281854 53.683331 393.724283 54.240903 
C 393.166711 54.798474 392.853426 55.55481 392.853426 56.343335 
C 392.853426 57.131861 393.166711 57.888196 393.724283 58.445768 
C 394.281854 59.00334 395.03819 59.316624 395.826715 59.316624 
z
" clip-path="url(#paa60e118c9)" style="fill: #800080; fill-opacity: 0.8; stroke: #800080; stroke-opacity: 0.8"/>
    <path d="M 402.90819 41.725455 
C 403.7038 41.725455 404.46693 41.409356 405.029511 40.846775 
C 405.592091 40.284194 405.90819 39.521064 405.90819 38.725455 
C 405.90819 37.929845 405.592091 37.166715 405.029511 36.604134 
C 404.46693 36.041553 403.7038 35.725455 402.90819 35.725455 
C 402.112581 35.725455 401.349451 36.041553 400.78687 36.604134 
C 400.224289 37.166715 399.90819 37.929845 399.90819 38.725455 
C 399.90819 39.521064 400.224289 40.284194 400.78687 40.846775 
C 401.349451 41.409356 402.112581 41.725455 402.90819 41.725455 
z
" clip-path="url(#paa60e118c9)" style="fill: #800080; fill-opacity: 0.8; stroke: #800080; stroke-opacity: 0.8"/>
    <path d="M 409.989666 51.578691 
C 410.710161 51.578691 411.401243 51.292436 411.91071 50.782969 
C 412.420178 50.273502 412.706433 49.582419 412.706433 48.861924 
C 412.706433 48.141428 412.420178 47.450346 411.91071 46.940879 
C 411.401243 46.431412 410.710161 46.145156 409.989666 46.145156 
C 409.26917 46.145156 408.578088 46.431412 408.068621 46.940879 
C 407.559154 47.450346 407.272898 48.141428 407.272898 48.861924 
C 407.272898 49.582419 407.559154 50.273502 408.068621 50.782969 
C 408.578088 51.292436 409.26917 51.578691 409.989666 51.578691 
z
" clip-path="url(#paa60e118c9)" style="fill: #800080; fill-opacity: 0.8; stroke: #800080; stroke-opacity: 0.8"/>
    <path d="M 417.071141 49.855572 
C 417.788166 49.855572 418.475921 49.570695 418.982935 49.063681 
C 419.489949 48.556667 419.774826 47.868912 419.774826 47.151887 
C 419.774826 46.434861 419.489949 45.747106 418.982935 45.240092 
C 418.475921 44.733079 417.788166 44.448201 417.071141 44.448201 
C 416.354115 44.448201 415.66636 44.733079 415.159346 45.240092 
C 414.652333 45.747106 414.367455 46.434861 414.367455 47.151887 
C 414.367455 47.868912 414.652333 48.556667 415.159346 49.063681 
C 415.66636 49.570695 416.354115 49.855572 417.071141 49.855572 
z
" clip-path="url(#paa60e118c9)" style="fill: #800080; fill-opacity: 0.8; stroke: #800080; stroke-opacity: 0.8"/>
    <path d="M 424.152616 59.963101 
C 424.882852 59.963101 425.583277 59.672975 426.099632 59.156621 
C 426.615987 58.640266 426.906113 57.93984 426.906113 57.209604 
C 426.906113 56.479368 426.615987 55.778942 426.099632 55.262588 
C 425.583277 54.746233 424.882852 54.456107 424.152616 54.456107 
C 423.42238 54.456107 422.721954 54.746233 422.205599 55.262588 
C 421.689244 55.778942 421.399119 56.479368 421.399119 57.209604 
C 421.399119 57.93984 421.689244 58.640266 422.205599 59.156621 
C 422.721954 59.672975 423.42238 59.963101 424.152616 59.963101 
z
" clip-path="url(#paa60e118c9)" style="fill: #800080; fill-opacity: 0.8; stroke: #800080; stroke-opacity: 0.8"/>
    <path d="M 431.234091 93.356615 
C 431.920313 93.356615 432.578522 93.083976 433.063755 92.598743 
C 433.548987 92.113511 433.821626 91.455302 433.821626 90.769079 
C 433.821626 90.082857 433.548987 89.424648 433.063755 88.939416 
C 432.578522 88.454183 431.920313 88.181544 431.234091 88.181544 
C 430.547869 88.181544 429.88966 88.454183 429.404427 88.939416 
C 428.919195 89.424648 428.646556 90.082857 428.646556 90.769079 
C 428.646556 91.455302 428.919195 92.113511 429.404427 92.598743 
C 429.88966 93.083976 430.547869 93.356615 431.234091 93.356615 
z
" clip-path="url(#paa60e118c9)" style="fill: #800080; fill-opacity: 0.8; stroke: #800080; stroke-opacity: 0.8"/>
   </g>
   <g id="PolyCollection_1">
    <defs>
     <path id="mdac027ba65" d="M 55.915909 -69.801719 
L 55.915909 -41.165455 
L 59.707002 -43.749478 
L 63.498095 -46.333501 
L 67.289187 -48.915291 
L 71.08028 -51.497182 
L 74.871373 -54.081385 
L 78.662466 -56.665588 
L 82.453558 -59.249792 
L 86.244651 -61.872057 
L 90.035744 -64.49493 
L 93.826837 -67.117803 
L 97.617929 -69.740676 
L 101.409022 -72.319695 
L 105.200115 -74.891791 
L 108.991208 -77.463887 
L 112.7823 -79.98567 
L 116.573393 -82.498088 
L 120.364486 -85.081243 
L 124.155579 -87.655878 
L 127.946671 -90.245432 
L 131.737764 -92.827314 
L 135.528857 -95.409429 
L 139.319949 -97.920307 
L 143.111042 -100.401404 
L 146.902135 -102.950216 
L 150.693228 -105.47107 
L 154.48432 -107.938227 
L 158.275413 -110.39211 
L 162.066506 -112.884825 
L 165.857599 -115.449091 
L 169.648691 -117.959412 
L 173.439784 -120.460051 
L 177.230877 -122.910754 
L 181.02197 -125.515332 
L 184.813062 -128.017359 
L 188.604155 -130.577338 
L 192.395248 -133.089823 
L 196.186341 -135.611423 
L 199.977433 -137.932796 
L 203.768526 -140.440278 
L 207.559619 -142.994829 
L 211.350712 -145.493739 
L 215.141804 -147.939319 
L 218.932897 -150.344289 
L 222.72399 -152.674029 
L 226.515083 -155.018962 
L 230.306175 -157.344468 
L 234.097268 -159.642392 
L 237.888361 -161.876424 
L 241.679454 -164.106908 
L 245.470546 -166.546574 
L 249.261639 -168.9142 
L 253.052732 -171.223871 
L 256.843825 -173.386539 
L 260.634917 -175.586018 
L 264.42601 -177.789014 
L 268.217103 -180.03357 
L 272.008196 -182.312184 
L 275.799288 -184.590798 
L 279.590381 -186.86967 
L 283.381474 -189.127186 
L 287.172567 -191.224079 
L 290.963659 -193.578637 
L 294.754752 -195.711726 
L 298.545845 -197.833537 
L 302.336938 -199.909763 
L 306.12803 -202.000671 
L 309.919123 -204.198572 
L 313.710216 -206.334087 
L 317.501309 -208.414289 
L 321.292401 -210.494491 
L 325.083494 -212.61406 
L 328.874587 -214.902921 
L 332.66568 -217.192999 
L 336.456772 -219.483077 
L 340.247865 -221.764217 
L 344.038958 -223.905769 
L 347.830051 -226.088475 
L 351.621143 -228.26195 
L 355.412236 -230.414987 
L 359.203329 -232.568023 
L 362.994421 -234.72106 
L 366.785514 -236.876496 
L 370.576607 -239.029599 
L 374.3677 -241.181872 
L 378.158792 -243.33658 
L 381.949885 -245.494542 
L 385.740978 -247.674394 
L 389.532071 -249.797786 
L 393.323163 -251.950197 
L 397.114256 -254.102608 
L 400.905349 -256.255018 
L 404.696442 -258.345903 
L 408.487534 -260.36263 
L 412.278627 -262.467755 
L 416.06972 -264.581855 
L 419.860813 -266.677501 
L 423.651905 -268.807848 
L 427.442998 -270.920023 
L 431.234091 -273.035028 
L 431.234091 -299.229897 
L 431.234091 -299.229897 
L 427.442998 -296.648989 
L 423.651905 -294.130974 
L 419.860813 -291.637827 
L 416.06972 -289.040786 
L 412.278627 -286.644356 
L 408.487534 -284.247927 
L 404.696442 -281.769986 
L 400.905349 -279.368326 
L 397.114256 -276.914415 
L 393.323163 -274.344412 
L 389.532071 -271.785216 
L 385.740978 -269.203615 
L 381.949885 -266.631038 
L 378.158792 -264.116593 
L 374.3677 -261.57092 
L 370.576607 -259.142097 
L 366.785514 -256.711351 
L 362.994421 -254.14518 
L 359.203329 -251.724017 
L 355.412236 -249.24829 
L 351.621143 -246.821837 
L 347.830051 -244.375811 
L 344.038958 -241.952488 
L 340.247865 -239.518218 
L 336.456772 -237.131056 
L 332.66568 -234.701759 
L 328.874587 -232.283911 
L 325.083494 -229.912363 
L 321.292401 -227.497244 
L 317.501309 -225.056878 
L 313.710216 -222.632823 
L 309.919123 -220.17577 
L 306.12803 -217.742046 
L 302.336938 -215.390721 
L 298.545845 -213.013789 
L 294.754752 -210.616348 
L 290.963659 -208.166918 
L 287.172567 -205.77216 
L 283.381474 -203.392383 
L 279.590381 -201.072169 
L 275.799288 -198.815389 
L 272.008196 -196.480211 
L 268.217103 -194.111526 
L 264.42601 -191.791312 
L 260.634917 -189.396417 
L 256.843825 -186.852644 
L 253.052732 -184.480226 
L 249.261639 -182.148014 
L 245.470546 -179.869323 
L 241.679454 -177.527868 
L 237.888361 -175.355568 
L 234.097268 -173.046158 
L 230.306175 -170.695027 
L 226.515083 -168.42917 
L 222.72399 -166.133965 
L 218.932897 -163.781781 
L 215.141804 -161.613733 
L 211.350712 -159.308312 
L 207.559619 -157.046782 
L 203.768526 -154.831979 
L 199.977433 -152.563872 
L 196.186341 -150.356625 
L 192.395248 -148.112428 
L 188.604155 -145.892441 
L 184.813062 -143.627379 
L 181.02197 -141.435972 
L 177.230877 -139.228235 
L 173.439784 -136.999424 
L 169.648691 -134.783673 
L 165.857599 -132.559541 
L 162.066506 -130.335408 
L 158.275413 -128.110413 
L 154.48432 -125.885211 
L 150.693228 -123.662759 
L 146.902135 -121.435839 
L 143.111042 -119.213459 
L 139.319949 -117.053478 
L 135.528857 -114.903497 
L 131.737764 -112.654007 
L 127.946671 -110.512928 
L 124.155579 -108.306612 
L 120.364486 -106.118833 
L 116.573393 -104.03286 
L 112.7823 -101.838382 
L 108.991208 -99.642807 
L 105.200115 -97.488319 
L 101.409022 -95.365869 
L 97.617929 -93.243419 
L 93.826837 -91.120968 
L 90.035744 -88.998518 
L 86.244651 -86.876068 
L 82.453558 -84.753618 
L 78.662466 -82.631168 
L 74.871373 -80.508717 
L 71.08028 -78.386267 
L 67.289187 -76.264979 
L 63.498095 -74.143985 
L 59.707002 -71.948834 
L 55.915909 -69.801719 
z
" style="stroke: #ffffff; stroke-opacity: 0.15"/>
    </defs>
    <g clip-path="url(#paa60e118c9)">
     <use xlink:href="#mdac027ba65" x="0" y="345.6" style="fill: #800080; fill-opacity: 0.15; stroke: #ffffff; stroke-opacity: 0.15"/>
    </g>
   </g>
   <g id="line2d_1">
    <path d="M 55.915909 289.054328 
L 59.707002 286.712953 
L 63.498095 284.371578 
L 67.289187 282.030203 
L 71.08028 279.688829 
L 74.871373 277.347454 
L 78.662466 275.006079 
L 82.453558 272.664704 
L 86.244651 270.32333 
L 90.035744 267.981955 
L 93.826837 265.64058 
L 97.617929 263.299205 
L 101.409022 260.957831 
L 105.200115 258.616456 
L 108.991208 256.275081 
L 112.7823 253.933706 
L 116.573393 251.592332 
L 120.364486 249.250957 
L 124.155579 246.909582 
L 127.946671 244.568207 
L 131.737764 242.226832 
L 135.528857 239.885458 
L 139.319949 237.544083 
L 143.111042 235.202708 
L 146.902135 232.861333 
L 150.693228 230.519959 
L 154.48432 228.178584 
L 158.275413 225.837209 
L 162.066506 223.495834 
L 165.857599 221.15446 
L 169.648691 218.813085 
L 173.439784 216.47171 
L 177.230877 214.130335 
L 181.02197 211.788961 
L 184.813062 209.447586 
L 188.604155 207.106211 
L 192.395248 204.764836 
L 196.186341 202.423462 
L 199.977433 200.082087 
L 203.768526 197.740712 
L 207.559619 195.399337 
L 211.350712 193.057962 
L 215.141804 190.716588 
L 218.932897 188.375213 
L 222.72399 186.033838 
L 226.515083 183.692463 
L 230.306175 181.351089 
L 234.097268 179.009714 
L 237.888361 176.668339 
L 241.679454 174.326964 
L 245.470546 171.98559 
L 249.261639 169.644215 
L 253.052732 167.30284 
L 256.843825 164.961465 
L 260.634917 162.620091 
L 264.42601 160.278716 
L 268.217103 157.937341 
L 272.008196 155.595966 
L 275.799288 153.254592 
L 279.590381 150.913217 
L 283.381474 148.571842 
L 287.172567 146.230467 
L 290.963659 143.889093 
L 294.754752 141.547718 
L 298.545845 139.206343 
L 302.336938 136.864968 
L 306.12803 134.523593 
L 309.919123 132.182219 
L 313.710216 129.840844 
L 317.501309 127.499469 
L 321.292401 125.158094 
L 325.083494 122.81672 
L 328.874587 120.475345 
L 332.66568 118.13397 
L 336.456772 115.792595 
L 340.247865 113.451221 
L 344.038958 111.109846 
L 347.830051 108.768471 
L 351.621143 106.427096 
L 355.412236 104.085722 
L 359.203329 101.744347 
L 362.994421 99.402972 
L 366.785514 97.061597 
L 370.576607 94.720223 
L 374.3677 92.378848 
L 378.158792 90.037473 
L 381.949885 87.696098 
L 385.740978 85.354723 
L 389.532071 83.013349 
L 393.323163 80.671974 
L 397.114256 78.330599 
L 400.905349 75.989224 
L 404.696442 73.64785 
L 408.487534 71.306475 
L 412.278627 68.9651 
L 416.06972 66.623725 
L 419.860813 64.282351 
L 423.651905 61.940976 
L 427.442998 59.599601 
L 431.234091 57.258226 
" clip-path="url(#paa60e118c9)" style="fill: none; stroke: #800080; stroke-width: 2.25; stroke-linecap: round"/>
   </g>
   <g id="patch_3">
    <path d="M 37.15 317.72 
L 37.15 25.44 
" style="fill: none; stroke: #ffffff; stroke-width: 0.8; stroke-linejoin: miter; stroke-linecap: square"/>
   </g>
   <g id="patch_4">
    <path d="M 450 317.72 
L 450 25.44 
" style="fill: none; stroke: #ffffff; stroke-width: 0.8; stroke-linejoin: miter; stroke-linecap: square"/>
   </g>
   <g id="patch_5">
    <path d="M 37.15 317.72 
L 450 317.72 
" style="fill: none; stroke: #ffffff; stroke-width: 0.8; stroke-linejoin: miter; stroke-linecap: square"/>
   </g>
   <g id="patch_6">
    <path d="M 37.15 25.44 
L 450 25.44 
" style="fill: none; stroke: #ffffff; stroke-width: 0.8; stroke-linejoin: miter; stroke-linecap: square"/>
   </g>
   <g id="text_13">
    <!-- Yearly average geek score from ranked games -->
    <g style="fill: #262626" transform="translate(119.403125 19.44) scale(0.12 -0.12)">
     <defs>
      <path id="ArialMT-59" d="M 1784 0 
L 1784 1941 
L 19 4581 
L 756 4581 
L 1659 3200 
Q 1909 2813 2125 2425 
Q 2331 2784 2625 3234 
L 3513 4581 
L 4219 4581 
L 2391 1941 
L 2391 0 
L 1784 0 
z
" transform="scale(0.015625)"/>
      <path id="ArialMT-65" d="M 2694 1069 
L 3275 997 
Q 3138 488 2766 206 
Q 2394 -75 1816 -75 
Q 1088 -75 661 373 
Q 234 822 234 1631 
Q 234 2469 665 2931 
Q 1097 3394 1784 3394 
Q 2450 3394 2872 2941 
Q 3294 2488 3294 1666 
Q 3294 1616 3291 1516 
L 816 1516 
Q 847 969 1125 678 
Q 1403 388 1819 388 
Q 2128 388 2347 550 
Q 2566 713 2694 1069 
z
M 847 1978 
L 2700 1978 
Q 2663 2397 2488 2606 
Q 2219 2931 1791 2931 
Q 1403 2931 1139 2672 
Q 875 2413 847 1978 
z
" transform="scale(0.015625)"/>
      <path id="ArialMT-61" d="M 2588 409 
Q 2275 144 1986 34 
Q 1697 -75 1366 -75 
Q 819 -75 525 192 
Q 231 459 231 875 
Q 231 1119 342 1320 
Q 453 1522 633 1644 
Q 813 1766 1038 1828 
Q 1203 1872 1538 1913 
Q 2219 1994 2541 2106 
Q 2544 2222 2544 2253 
Q 2544 2597 2384 2738 
Q 2169 2928 1744 2928 
Q 1347 2928 1158 2789 
Q 969 2650 878 2297 
L 328 2372 
Q 403 2725 575 2942 
Q 747 3159 1072 3276 
Q 1397 3394 1825 3394 
Q 2250 3394 2515 3294 
Q 2781 3194 2906 3042 
Q 3031 2891 3081 2659 
Q 3109 2516 3109 2141 
L 3109 1391 
Q 3109 606 3145 398 
Q 3181 191 3288 0 
L 2700 0 
Q 2613 175 2588 409 
z
M 2541 1666 
Q 2234 1541 1622 1453 
Q 1275 1403 1131 1340 
Q 988 1278 909 1158 
Q 831 1038 831 891 
Q 831 666 1001 516 
Q 1172 366 1500 366 
Q 1825 366 2078 508 
Q 2331 650 2450 897 
Q 2541 1088 2541 1459 
L 2541 1666 
z
" transform="scale(0.015625)"/>
      <path id="ArialMT-72" d="M 416 0 
L 416 3319 
L 922 3319 
L 922 2816 
Q 1116 3169 1280 3281 
Q 1444 3394 1641 3394 
Q 1925 3394 2219 3213 
L 2025 2691 
Q 1819 2813 1613 2813 
Q 1428 2813 1281 2702 
Q 1134 2591 1072 2394 
Q 978 2094 978 1738 
L 978 0 
L 416 0 
z
" transform="scale(0.015625)"/>
      <path id="ArialMT-6c" d="M 409 0 
L 409 4581 
L 972 4581 
L 972 0 
L 409 0 
z
" transform="scale(0.015625)"/>
      <path id="ArialMT-79" d="M 397 -1278 
L 334 -750 
Q 519 -800 656 -800 
Q 844 -800 956 -737 
Q 1069 -675 1141 -563 
Q 1194 -478 1313 -144 
Q 1328 -97 1363 -6 
L 103 3319 
L 709 3319 
L 1400 1397 
Q 1534 1031 1641 628 
Q 1738 1016 1872 1384 
L 2581 3319 
L 3144 3319 
L 1881 -56 
Q 1678 -603 1566 -809 
Q 1416 -1088 1222 -1217 
Q 1028 -1347 759 -1347 
Q 597 -1347 397 -1278 
z
" transform="scale(0.015625)"/>
      <path id="ArialMT-20" transform="scale(0.015625)"/>
      <path id="ArialMT-76" d="M 1344 0 
L 81 3319 
L 675 3319 
L 1388 1331 
Q 1503 1009 1600 663 
Q 1675 925 1809 1294 
L 2547 3319 
L 3125 3319 
L 1869 0 
L 1344 0 
z
" transform="scale(0.015625)"/>
      <path id="ArialMT-67" d="M 319 -275 
L 866 -356 
Q 900 -609 1056 -725 
Q 1266 -881 1628 -881 
Q 2019 -881 2231 -725 
Q 2444 -569 2519 -288 
Q 2563 -116 2559 434 
Q 2191 0 1641 0 
Q 956 0 581 494 
Q 206 988 206 1678 
Q 206 2153 378 2554 
Q 550 2956 876 3175 
Q 1203 3394 1644 3394 
Q 2231 3394 2613 2919 
L 2613 3319 
L 3131 3319 
L 3131 450 
Q 3131 -325 2973 -648 
Q 2816 -972 2473 -1159 
Q 2131 -1347 1631 -1347 
Q 1038 -1347 672 -1080 
Q 306 -813 319 -275 
z
M 784 1719 
Q 784 1066 1043 766 
Q 1303 466 1694 466 
Q 2081 466 2343 764 
Q 2606 1063 2606 1700 
Q 2606 2309 2336 2618 
Q 2066 2928 1684 2928 
Q 1309 2928 1046 2623 
Q 784 2319 784 1719 
z
" transform="scale(0.015625)"/>
      <path id="ArialMT-6b" d="M 425 0 
L 425 4581 
L 988 4581 
L 988 1969 
L 2319 3319 
L 3047 3319 
L 1778 2088 
L 3175 0 
L 2481 0 
L 1384 1697 
L 988 1316 
L 988 0 
L 425 0 
z
" transform="scale(0.015625)"/>
      <path id="ArialMT-73" d="M 197 991 
L 753 1078 
Q 800 744 1014 566 
Q 1228 388 1613 388 
Q 2000 388 2187 545 
Q 2375 703 2375 916 
Q 2375 1106 2209 1216 
Q 2094 1291 1634 1406 
Q 1016 1563 777 1677 
Q 538 1791 414 1992 
Q 291 2194 291 2438 
Q 291 2659 392 2848 
Q 494 3038 669 3163 
Q 800 3259 1026 3326 
Q 1253 3394 1513 3394 
Q 1903 3394 2198 3281 
Q 2494 3169 2634 2976 
Q 2775 2784 2828 2463 
L 2278 2388 
Q 2241 2644 2061 2787 
Q 1881 2931 1553 2931 
Q 1166 2931 1000 2803 
Q 834 2675 834 2503 
Q 834 2394 903 2306 
Q 972 2216 1119 2156 
Q 1203 2125 1616 2013 
Q 2213 1853 2448 1751 
Q 2684 1650 2818 1456 
Q 2953 1263 2953 975 
Q 2953 694 2789 445 
Q 2625 197 2315 61 
Q 2006 -75 1616 -75 
Q 969 -75 630 194 
Q 291 463 197 991 
z
" transform="scale(0.015625)"/>
      <path id="ArialMT-63" d="M 2588 1216 
L 3141 1144 
Q 3050 572 2676 248 
Q 2303 -75 1759 -75 
Q 1078 -75 664 370 
Q 250 816 250 1647 
Q 250 2184 428 2587 
Q 606 2991 970 3192 
Q 1334 3394 1763 3394 
Q 2303 3394 2647 3120 
Q 2991 2847 3088 2344 
L 2541 2259 
Q 2463 2594 2264 2762 
Q 2066 2931 1784 2931 
Q 1359 2931 1093 2626 
Q 828 2322 828 1663 
Q 828 994 1084 691 
Q 1341 388 1753 388 
Q 2084 388 2306 591 
Q 2528 794 2588 1216 
z
" transform="scale(0.015625)"/>
      <path id="ArialMT-6f" d="M 213 1659 
Q 213 2581 725 3025 
Q 1153 3394 1769 3394 
Q 2453 3394 2887 2945 
Q 3322 2497 3322 1706 
Q 3322 1066 3130 698 
Q 2938 331 2570 128 
Q 2203 -75 1769 -75 
Q 1072 -75 642 372 
Q 213 819 213 1659 
z
M 791 1659 
Q 791 1022 1069 705 
Q 1347 388 1769 388 
Q 2188 388 2466 706 
Q 2744 1025 2744 1678 
Q 2744 2294 2464 2611 
Q 2184 2928 1769 2928 
Q 1347 2928 1069 2612 
Q 791 2297 791 1659 
z
" transform="scale(0.015625)"/>
      <path id="ArialMT-66" d="M 556 0 
L 556 2881 
L 59 2881 
L 59 3319 
L 556 3319 
L 556 3672 
Q 556 4006 616 4169 
Q 697 4388 901 4523 
Q 1106 4659 1475 4659 
Q 1713 4659 2000 4603 
L 1916 4113 
Q 1741 4144 1584 4144 
Q 1328 4144 1222 4034 
Q 1116 3925 1116 3625 
L 1116 3319 
L 1763 3319 
L 1763 2881 
L 1116 2881 
L 1116 0 
L 556 0 
z
" transform="scale(0.015625)"/>
      <path id="ArialMT-6d" d="M 422 0 
L 422 3319 
L 925 3319 
L 925 2853 
Q 1081 3097 1340 3245 
Q 1600 3394 1931 3394 
Q 2300 3394 2536 3241 
Q 2772 3088 2869 2813 
Q 3263 3394 3894 3394 
Q 4388 3394 4653 3120 
Q 4919 2847 4919 2278 
L 4919 0 
L 4359 0 
L 4359 2091 
Q 4359 2428 4304 2576 
Q 4250 2725 4106 2815 
Q 3963 2906 3769 2906 
Q 3419 2906 3187 2673 
Q 2956 2441 2956 1928 
L 2956 0 
L 2394 0 
L 2394 2156 
Q 2394 2531 2256 2718 
Q 2119 2906 1806 2906 
Q 1569 2906 1367 2781 
Q 1166 2656 1075 2415 
Q 984 2175 984 1722 
L 984 0 
L 422 0 
z
" transform="scale(0.015625)"/>
      <path id="ArialMT-6e" d="M 422 0 
L 422 3319 
L 928 3319 
L 928 2847 
Q 1294 3394 1984 3394 
Q 2284 3394 2536 3286 
Q 2788 3178 2913 3003 
Q 3038 2828 3088 2588 
Q 3119 2431 3119 2041 
L 3119 0 
L 2556 0 
L 2556 2019 
Q 2556 2363 2490 2533 
Q 2425 2703 2258 2804 
Q 2091 2906 1866 2906 
Q 1506 2906 1245 2678 
Q 984 2450 984 1813 
L 984 0 
L 422 0 
z
" transform="scale(0.015625)"/>
      <path id="ArialMT-64" d="M 2575 0 
L 2575 419 
Q 2259 -75 1647 -75 
Q 1250 -75 917 144 
Q 584 363 401 755 
Q 219 1147 219 1656 
Q 219 2153 384 2558 
Q 550 2963 881 3178 
Q 1213 3394 1622 3394 
Q 1922 3394 2156 3267 
Q 2391 3141 2538 2938 
L 2538 4581 
L 3097 4581 
L 3097 0 
L 2575 0 
z
M 797 1656 
Q 797 1019 1065 703 
Q 1334 388 1700 388 
Q 2069 388 2326 689 
Q 2584 991 2584 1609 
Q 2584 2291 2321 2609 
Q 2059 2928 1675 2928 
Q 1300 2928 1048 2622 
Q 797 2316 797 1656 
z
" transform="scale(0.015625)"/>
     </defs>
     <use xlink:href="#ArialMT-59"/>
     <use xlink:href="#ArialMT-65" x="57.574219"/>
     <use xlink:href="#ArialMT-61" x="113.189453"/>
     <use xlink:href="#ArialMT-72" x="168.804688"/>
     <use xlink:href="#ArialMT-6c" x="202.105469"/>
     <use xlink:href="#ArialMT-79" x="224.322266"/>
     <use xlink:href="#ArialMT-20" x="274.322266"/>
     <use xlink:href="#ArialMT-61" x="302.105469"/>
     <use xlink:href="#ArialMT-76" x="357.720703"/>
     <use xlink:href="#ArialMT-65" x="407.720703"/>
     <use xlink:href="#ArialMT-72" x="463.335938"/>
     <use xlink:href="#ArialMT-61" x="496.636719"/>
     <use xlink:href="#ArialMT-67" x="552.251953"/>
     <use xlink:href="#ArialMT-65" x="607.867188"/>
     <use xlink:href="#ArialMT-20" x="663.482422"/>
     <use xlink:href="#ArialMT-67" x="691.265625"/>
     <use xlink:href="#ArialMT-65" x="746.880859"/>
     <use xlink:href="#ArialMT-65" x="802.496094"/>
     <use xlink:href="#ArialMT-6b" x="858.111328"/>
     <use xlink:href="#ArialMT-20" x="908.111328"/>
     <use xlink:href="#ArialMT-73" x="935.894531"/>
     <use xlink:href="#ArialMT-63" x="985.894531"/>
     <use xlink:href="#ArialMT-6f" x="1035.894531"/>
     <use xlink:href="#ArialMT-72" x="1091.509766"/>
     <use xlink:href="#ArialMT-65" x="1124.810547"/>
     <use xlink:href="#ArialMT-20" x="1180.425781"/>
     <use xlink:href="#ArialMT-66" x="1208.208984"/>
     <use xlink:href="#ArialMT-72" x="1235.992188"/>
     <use xlink:href="#ArialMT-6f" x="1269.292969"/>
     <use xlink:href="#ArialMT-6d" x="1324.908203"/>
     <use xlink:href="#ArialMT-20" x="1408.208984"/>
     <use xlink:href="#ArialMT-72" x="1435.992188"/>
     <use xlink:href="#ArialMT-61" x="1469.292969"/>
     <use xlink:href="#ArialMT-6e" x="1524.908203"/>
     <use xlink:href="#ArialMT-6b" x="1580.523438"/>
     <use xlink:href="#ArialMT-65" x="1630.523438"/>
     <use xlink:href="#ArialMT-64" x="1686.138672"/>
     <use xlink:href="#ArialMT-20" x="1741.753906"/>
     <use xlink:href="#ArialMT-67" x="1769.537109"/>
     <use xlink:href="#ArialMT-61" x="1825.152344"/>
     <use xlink:href="#ArialMT-6d" x="1880.767578"/>
     <use xlink:href="#ArialMT-65" x="1964.068359"/>
     <use xlink:href="#ArialMT-73" x="2019.683594"/>
    </g>
   </g>
  </g>
 </g>
 <defs>
  <clipPath id="paa60e118c9">
   <rect x="37.15" y="25.44" width="412.85" height="292.28"/>
  </clipPath>
 </defs>
</svg>
