<?xml version="1.0" encoding="utf-8" standalone="no"?>
<!DOCTYPE svg PUBLIC "-//W3C//DTD SVG 1.1//EN"
  "http://www.w3.org/Graphics/SVG/1.1/DTD/svg11.dtd">
<svg xmlns:xlink="http://www.w3.org/1999/xlink" width="460.8pt" height="345.6pt" viewBox="0 0 460.8 345.6" xmlns="http://www.w3.org/2000/svg" version="1.1">
 <metadata>
  <rdf:RDF xmlns:dc="http://purl.org/dc/elements/1.1/" xmlns:cc="http://creativecommons.org/ns#" xmlns:rdf="http://www.w3.org/1999/02/22-rdf-syntax-ns#">
   <cc:Work>
    <dc:type rdf:resource="http://purl.org/dc/dcmitype/StillImage"/>
    <dc:date>2024-08-19T15:44:53.335585</dc:date>
    <dc:format>image/svg+xml</dc:format>
    <dc:creator>
     <cc:Agent>
      <dc:title>Matplotlib v3.9.2, https://matplotlib.org/</dc:title>
     </cc:Agent>
    </dc:creator>
   </cc:Work>
  </rdf:RDF>
 </metadata>
 <defs>
  <style type="text/css">*{stroke-linejoin: round; stroke-linecap: butt}</style>
 </defs>
 <g id="figure_1">
  <g id="patch_1">
   <path d="M 0 345.6 
L 460.8 345.6 
L 460.8 0 
L 0 0 
z
" style="fill: #ffffff"/>
  </g>
  <g id="axes_1">
   <g id="patch_2">
    <path d="M 37.15 317.72 
L 450 317.72 
L 450 25.44 
L 37.15 25.44 
z
" style="fill: #eaeaf2"/>
   </g>
   <g id="matplotlib.axis_1">
    <g id="xtick_1">
     <g id="text_1">
      <!-- 1970 -->
      <g style="fill: #262626" transform="translate(44.794034 331.877812) scale(0.1 -0.1)">
       <defs>
        <path id="ArialMT-31" d="M 2384 0 
L 1822 0 
L 1822 3584 
Q 1619 3391 1289 3197 
Q 959 3003 697 2906 
L 697 3450 
Q 1169 3672 1522 3987 
Q 1875 4303 2022 4600 
L 2384 4600 
L 2384 0 
z
" transform="scale(0.015625)"/>
        <path id="ArialMT-39" d="M 350 1059 
L 891 1109 
Q 959 728 1153 556 
Q 1347 384 1650 384 
Q 1909 384 2104 503 
Q 2300 622 2425 820 
Q 2550 1019 2634 1356 
Q 2719 1694 2719 2044 
Q 2719 2081 2716 2156 
Q 2547 1888 2255 1720 
Q 1963 1553 1622 1553 
Q 1053 1553 659 1965 
Q 266 2378 266 3053 
Q 266 3750 677 4175 
Q 1088 4600 1706 4600 
Q 2153 4600 2523 4359 
Q 2894 4119 3086 3673 
Q 3278 3228 3278 2384 
Q 3278 1506 3087 986 
Q 2897 466 2520 194 
Q 2144 -78 1638 -78 
Q 1100 -78 759 220 
Q 419 519 350 1059 
z
M 2653 3081 
Q 2653 3566 2395 3850 
Q 2138 4134 1775 4134 
Q 1400 4134 1122 3828 
Q 844 3522 844 3034 
Q 844 2597 1108 2323 
Q 1372 2050 1759 2050 
Q 2150 2050 2401 2323 
Q 2653 2597 2653 3081 
z
" transform="scale(0.015625)"/>
        <path id="ArialMT-37" d="M 303 3981 
L 303 4522 
L 3269 4522 
L 3269 4084 
Q 2831 3619 2401 2847 
Q 1972 2075 1738 1259 
Q 1569 684 1522 0 
L 944 0 
Q 953 541 1156 1306 
Q 1359 2072 1739 2783 
Q 2119 3494 2547 3981 
L 303 3981 
z
" transform="scale(0.015625)"/>
        <path id="ArialMT-30" d="M 266 2259 
Q 266 3072 433 3567 
Q 600 4063 929 4331 
Q 1259 4600 1759 4600 
Q 2128 4600 2406 4451 
Q 2684 4303 2865 4023 
Q 3047 3744 3150 3342 
Q 3253 2941 3253 2259 
Q 3253 1453 3087 958 
Q 2922 463 2592 192 
Q 2263 -78 1759 -78 
Q 1097 -78 719 397 
Q 266 969 266 2259 
z
M 844 2259 
Q 844 1131 1108 757 
Q 1372 384 1759 384 
Q 2147 384 2411 759 
Q 2675 1134 2675 2259 
Q 2675 3391 2411 3762 
Q 2147 4134 1753 4134 
Q 1366 4134 1134 3806 
Q 844 3388 844 2259 
z
" transform="scale(0.015625)"/>
       </defs>
       <use xlink:href="#ArialMT-31"/>
       <use xlink:href="#ArialMT-39" x="55.615234"/>
       <use xlink:href="#ArialMT-37" x="111.230469"/>
       <use xlink:href="#ArialMT-30" x="166.845703"/>
      </g>
     </g>
    </g>
    <g id="xtick_2">
     <g id="text_2">
      <!-- 1980 -->
      <g style="fill: #262626" transform="translate(115.608785 331.877812) scale(0.1 -0.1)">
       <defs>
        <path id="ArialMT-38" d="M 1131 2484 
Q 781 2613 612 2850 
Q 444 3088 444 3419 
Q 444 3919 803 4259 
Q 1163 4600 1759 4600 
Q 2359 4600 2725 4251 
Q 3091 3903 3091 3403 
Q 3091 3084 2923 2848 
Q 2756 2613 2416 2484 
Q 2838 2347 3058 2040 
Q 3278 1734 3278 1309 
Q 3278 722 2862 322 
Q 2447 -78 1769 -78 
Q 1091 -78 675 323 
Q 259 725 259 1325 
Q 259 1772 486 2073 
Q 713 2375 1131 2484 
z
M 1019 3438 
Q 1019 3113 1228 2906 
Q 1438 2700 1772 2700 
Q 2097 2700 2305 2904 
Q 2513 3109 2513 3406 
Q 2513 3716 2298 3927 
Q 2084 4138 1766 4138 
Q 1444 4138 1231 3931 
Q 1019 3725 1019 3438 
z
M 838 1322 
Q 838 1081 952 856 
Q 1066 631 1291 507 
Q 1516 384 1775 384 
Q 2178 384 2440 643 
Q 2703 903 2703 1303 
Q 2703 1709 2433 1975 
Q 2163 2241 1756 2241 
Q 1359 2241 1098 1978 
Q 838 1716 838 1322 
z
" transform="scale(0.015625)"/>
       </defs>
       <use xlink:href="#ArialMT-31"/>
       <use xlink:href="#ArialMT-39" x="55.615234"/>
       <use xlink:href="#ArialMT-38" x="111.230469"/>
       <use xlink:href="#ArialMT-30" x="166.845703"/>
      </g>
     </g>
    </g>
    <g id="xtick_3">
     <g id="text_3">
      <!-- 1990 -->
      <g style="fill: #262626" transform="translate(186.423537 331.877812) scale(0.1 -0.1)">
       <use xlink:href="#ArialMT-31"/>
       <use xlink:href="#ArialMT-39" x="55.615234"/>
       <use xlink:href="#ArialMT-39" x="111.230469"/>
       <use xlink:href="#ArialMT-30" x="166.845703"/>
      </g>
     </g>
    </g>
    <g id="xtick_4">
     <g id="text_4">
      <!-- 2000 -->
      <g style="fill: #262626" transform="translate(257.238288 331.877812) scale(0.1 -0.1)">
       <defs>
        <path id="ArialMT-32" d="M 3222 541 
L 3222 0 
L 194 0 
Q 188 203 259 391 
Q 375 700 629 1000 
Q 884 1300 1366 1694 
Q 2113 2306 2375 2664 
Q 2638 3022 2638 3341 
Q 2638 3675 2398 3904 
Q 2159 4134 1775 4134 
Q 1369 4134 1125 3890 
Q 881 3647 878 3216 
L 300 3275 
Q 359 3922 746 4261 
Q 1134 4600 1788 4600 
Q 2447 4600 2831 4234 
Q 3216 3869 3216 3328 
Q 3216 3053 3103 2787 
Q 2991 2522 2730 2228 
Q 2469 1934 1863 1422 
Q 1356 997 1212 845 
Q 1069 694 975 541 
L 3222 541 
z
" transform="scale(0.015625)"/>
       </defs>
       <use xlink:href="#ArialMT-32"/>
       <use xlink:href="#ArialMT-30" x="55.615234"/>
       <use xlink:href="#ArialMT-30" x="111.230469"/>
       <use xlink:href="#ArialMT-30" x="166.845703"/>
      </g>
     </g>
    </g>
    <g id="xtick_5">
     <g id="text_5">
      <!-- 2010 -->
      <g style="fill: #262626" transform="translate(328.053039 331.877812) scale(0.1 -0.1)">
       <use xlink:href="#ArialMT-32"/>
       <use xlink:href="#ArialMT-30" x="55.615234"/>
       <use xlink:href="#ArialMT-31" x="111.230469"/>
       <use xlink:href="#ArialMT-30" x="166.845703"/>
      </g>
     </g>
    </g>
    <g id="xtick_6">
     <g id="text_6">
      <!-- 2020 -->
      <g style="fill: #262626" transform="translate(398.867791 331.877812) scale(0.1 -0.1)">
       <use xlink:href="#ArialMT-32"/>
       <use xlink:href="#ArialMT-30" x="55.615234"/>
       <use xlink:href="#ArialMT-32" x="111.230469"/>
       <use xlink:href="#ArialMT-30" x="166.845703"/>
      </g>
     </g>
    </g>
   </g>
   <g id="matplotlib.axis_2">
    <g id="ytick_1">
     <g id="text_7">
      <!-- 5.50 -->
      <g style="fill: #262626" transform="translate(10.689062 310.943426) scale(0.1 -0.1)">
       <defs>
        <path id="ArialMT-35" d="M 266 1200 
L 856 1250 
Q 922 819 1161 601 
Q 1400 384 1738 384 
Q 2144 384 2425 690 
Q 2706 997 2706 1503 
Q 2706 1984 2436 2262 
Q 2166 2541 1728 2541 
Q 1456 2541 1237 2417 
Q 1019 2294 894 2097 
L 366 2166 
L 809 4519 
L 3088 4519 
L 3088 3981 
L 1259 3981 
L 1013 2750 
Q 1425 3038 1878 3038 
Q 2478 3038 2890 2622 
Q 3303 2206 3303 1553 
Q 3303 931 2941 478 
Q 2500 -78 1738 -78 
Q 1113 -78 717 272 
Q 322 622 266 1200 
z
" transform="scale(0.015625)"/>
        <path id="ArialMT-2e" d="M 581 0 
L 581 641 
L 1222 641 
L 1222 0 
L 581 0 
z
" transform="scale(0.015625)"/>
       </defs>
       <use xlink:href="#ArialMT-35"/>
       <use xlink:href="#ArialMT-2e" x="55.615234"/>
       <use xlink:href="#ArialMT-35" x="83.398438"/>
       <use xlink:href="#ArialMT-30" x="139.013672"/>
      </g>
     </g>
    </g>
    <g id="ytick_2">
     <g id="text_8">
      <!-- 5.55 -->
      <g style="fill: #262626" transform="translate(10.689062 254.636768) scale(0.1 -0.1)">
       <use xlink:href="#ArialMT-35"/>
       <use xlink:href="#ArialMT-2e" x="55.615234"/>
       <use xlink:href="#ArialMT-35" x="83.398438"/>
       <use xlink:href="#ArialMT-35" x="139.013672"/>
      </g>
     </g>
    </g>
    <g id="ytick_3">
     <g id="text_9">
      <!-- 5.60 -->
      <g style="fill: #262626" transform="translate(10.689062 198.33011) scale(0.1 -0.1)">
       <defs>
        <path id="ArialMT-36" d="M 3184 3459 
L 2625 3416 
Q 2550 3747 2413 3897 
Q 2184 4138 1850 4138 
Q 1581 4138 1378 3988 
Q 1113 3794 959 3422 
Q 806 3050 800 2363 
Q 1003 2672 1297 2822 
Q 1591 2972 1913 2972 
Q 2475 2972 2870 2558 
Q 3266 2144 3266 1488 
Q 3266 1056 3080 686 
Q 2894 316 2569 119 
Q 2244 -78 1831 -78 
Q 1128 -78 684 439 
Q 241 956 241 2144 
Q 241 3472 731 4075 
Q 1159 4600 1884 4600 
Q 2425 4600 2770 4297 
Q 3116 3994 3184 3459 
z
M 888 1484 
Q 888 1194 1011 928 
Q 1134 663 1356 523 
Q 1578 384 1822 384 
Q 2178 384 2434 671 
Q 2691 959 2691 1453 
Q 2691 1928 2437 2201 
Q 2184 2475 1800 2475 
Q 1419 2475 1153 2201 
Q 888 1928 888 1484 
z
" transform="scale(0.015625)"/>
       </defs>
       <use xlink:href="#ArialMT-35"/>
       <use xlink:href="#ArialMT-2e" x="55.615234"/>
       <use xlink:href="#ArialMT-36" x="83.398438"/>
       <use xlink:href="#ArialMT-30" x="139.013672"/>
      </g>
     </g>
    </g>
    <g id="ytick_4">
     <g id="text_10">
      <!-- 5.65 -->
      <g style="fill: #262626" transform="translate(10.689062 142.023452) scale(0.1 -0.1)">
       <use xlink:href="#ArialMT-35"/>
       <use xlink:href="#ArialMT-2e" x="55.615234"/>
       <use xlink:href="#ArialMT-36" x="83.398438"/>
       <use xlink:href="#ArialMT-35" x="139.013672"/>
      </g>
     </g>
    </g>
    <g id="ytick_5">
     <g id="text_11">
      <!-- 5.70 -->
      <g style="fill: #262626" transform="translate(10.689062 85.716794) scale(0.1 -0.1)">
       <use xlink:href="#ArialMT-35"/>
       <use xlink:href="#ArialMT-2e" x="55.615234"/>
       <use xlink:href="#ArialMT-37" x="83.398438"/>
       <use xlink:href="#ArialMT-30" x="139.013672"/>
      </g>
     </g>
    </g>
    <g id="ytick_6">
     <g id="text_12">
      <!-- 5.75 -->
      <g style="fill: #262626" transform="translate(10.689062 29.410136) scale(0.1 -0.1)">
       <use xlink:href="#ArialMT-35"/>
       <use xlink:href="#ArialMT-2e" x="55.615234"/>
       <use xlink:href="#ArialMT-37" x="83.398438"/>
       <use xlink:href="#ArialMT-35" x="139.013672"/>
      </g>
     </g>
    </g>
   </g>
   <g id="PathCollection_1">
    <path d="M 55.915909 280.829387 
C 56.046406 280.829387 56.171575 280.77754 56.26385 280.685265 
C 56.356125 280.59299 56.407972 280.46782 56.407972 280.337324 
C 56.407972 280.206827 56.356125 280.081658 56.26385 279.989383 
C 56.171575 279.897108 56.046406 279.845261 55.915909 279.845261 
C 55.785412 279.845261 55.660243 279.897108 55.567968 279.989383 
C 55.475693 280.081658 55.423846 280.206827 55.423846 280.337324 
C 55.423846 280.46782 55.475693 280.59299 55.567968 280.685265 
C 55.660243 280.77754 55.785412 280.829387 55.915909 280.829387 
z
" clip-path="url(#p788feb7fb3)" style="fill: #800080; fill-opacity: 0.8; stroke: #800080; stroke-opacity: 0.8"/>
    <path d="M 62.997384 243.998795 
C 63.12628 243.998795 63.249913 243.947584 63.341056 243.856441 
C 63.432199 243.765298 63.483409 243.641665 63.483409 243.51277 
C 63.483409 243.383874 63.432199 243.260241 63.341056 243.169098 
C 63.249913 243.077955 63.12628 243.026744 62.997384 243.026744 
C 62.868489 243.026744 62.744855 243.077955 62.653713 243.169098 
C 62.56257 243.260241 62.511359 243.383874 62.511359 243.51277 
C 62.511359 243.641665 62.56257 243.765298 62.653713 243.856441 
C 62.744855 243.947584 62.868489 243.998795 62.997384 243.998795 
z
" clip-path="url(#p788feb7fb3)" style="fill: #800080; fill-opacity: 0.8; stroke: #800080; stroke-opacity: 0.8"/>
    <path d="M 70.078859 271.977862 
C 70.24815 271.977862 70.410529 271.910602 70.530235 271.790896 
C 70.649941 271.671189 70.717201 271.50881 70.717201 271.33952 
C 70.717201 271.17023 70.649941 271.00785 70.530235 270.888144 
C 70.410529 270.768438 70.24815 270.701178 70.078859 270.701178 
C 69.909569 270.701178 69.74719 270.768438 69.627483 270.888144 
C 69.507777 271.00785 69.440518 271.17023 69.440518 271.33952 
C 69.440518 271.50881 69.507777 271.671189 69.627483 271.790896 
C 69.74719 271.910602 69.909569 271.977862 70.078859 271.977862 
z
" clip-path="url(#p788feb7fb3)" style="fill: #800080; fill-opacity: 0.8; stroke: #800080; stroke-opacity: 0.8"/>
    <path d="M 77.160334 265.642385 
C 77.336832 265.642385 77.506124 265.572262 77.630926 265.447459 
C 77.755729 265.322657 77.825852 265.153365 77.825852 264.976868 
C 77.825852 264.80037 77.755729 264.631078 77.630926 264.506276 
C 77.506124 264.381473 77.336832 264.31135 77.160334 264.31135 
C 76.983837 264.31135 76.814545 264.381473 76.689743 264.506276 
C 76.56494 264.631078 76.494817 264.80037 76.494817 264.976868 
C 76.494817 265.153365 76.56494 265.322657 76.689743 265.447459 
C 76.814545 265.572262 76.983837 265.642385 77.160334 265.642385 
z
" clip-path="url(#p788feb7fb3)" style="fill: #800080; fill-opacity: 0.8; stroke: #800080; stroke-opacity: 0.8"/>
    <path d="M 84.24181 225.342501 
C 84.41948 225.342501 84.589897 225.271912 84.715528 225.146281 
C 84.84116 225.020649 84.911749 224.850232 84.911749 224.672562 
C 84.911749 224.494892 84.84116 224.324475 84.715528 224.198843 
C 84.589897 224.073211 84.41948 224.002622 84.24181 224.002622 
C 84.06414 224.002622 83.893723 224.073211 83.768091 224.198843 
C 83.642459 224.324475 83.57187 224.494892 83.57187 224.672562 
C 83.57187 224.850232 83.642459 225.020649 83.768091 225.146281 
C 83.893723 225.271912 84.06414 225.342501 84.24181 225.342501 
z
" clip-path="url(#p788feb7fb3)" style="fill: #800080; fill-opacity: 0.8; stroke: #800080; stroke-opacity: 0.8"/>
    <path d="M 91.323285 275.363133 
C 91.551142 275.363133 91.769697 275.272605 91.930816 275.111486 
C 92.091935 274.950366 92.182464 274.731811 92.182464 274.503954 
C 92.182464 274.276097 92.091935 274.057542 91.930816 273.896423 
C 91.769697 273.735303 91.551142 273.644775 91.323285 273.644775 
C 91.095428 273.644775 90.876872 273.735303 90.715753 273.896423 
C 90.554634 274.057542 90.464105 274.276097 90.464105 274.503954 
C 90.464105 274.731811 90.554634 274.950366 90.715753 275.111486 
C 90.876872 275.272605 91.095428 275.363133 91.323285 275.363133 
z
" clip-path="url(#p788feb7fb3)" style="fill: #800080; fill-opacity: 0.8; stroke: #800080; stroke-opacity: 0.8"/>
    <path d="M 98.40476 254.842724 
C 98.575272 254.842724 98.738824 254.774979 98.859395 254.654408 
C 98.979965 254.533838 99.047711 254.370286 99.047711 254.199773 
C 99.047711 254.029261 98.979965 253.865709 98.859395 253.745138 
C 98.738824 253.624568 98.575272 253.556822 98.40476 253.556822 
C 98.234247 253.556822 98.070696 253.624568 97.950125 253.745138 
C 97.829554 253.865709 97.761809 254.029261 97.761809 254.199773 
C 97.761809 254.370286 97.829554 254.533838 97.950125 254.654408 
C 98.070696 254.774979 98.234247 254.842724 98.40476 254.842724 
z
" clip-path="url(#p788feb7fb3)" style="fill: #800080; fill-opacity: 0.8; stroke: #800080; stroke-opacity: 0.8"/>
    <path d="M 105.486235 208.695192 
C 105.701918 208.695192 105.908797 208.6095 106.061308 208.456989 
C 106.213819 208.304478 106.299511 208.0976 106.299511 207.881916 
C 106.299511 207.666233 106.213819 207.459355 106.061308 207.306844 
C 105.908797 207.154333 105.701918 207.068641 105.486235 207.068641 
C 105.270552 207.068641 105.063673 207.154333 104.911162 207.306844 
C 104.758651 207.459355 104.672959 207.666233 104.672959 207.881916 
C 104.672959 208.0976 104.758651 208.304478 104.911162 208.456989 
C 105.063673 208.6095 105.270552 208.695192 105.486235 208.695192 
z
" clip-path="url(#p788feb7fb3)" style="fill: #800080; fill-opacity: 0.8; stroke: #800080; stroke-opacity: 0.8"/>
    <path d="M 112.56771 280.227594 
C 112.774546 280.227594 112.972938 280.145417 113.119193 279.999162 
C 113.265449 279.852907 113.347625 279.654515 113.347625 279.447679 
C 113.347625 279.240843 113.265449 279.04245 113.119193 278.896195 
C 112.972938 278.74994 112.774546 278.667763 112.56771 278.667763 
C 112.360874 278.667763 112.162482 278.74994 112.016227 278.896195 
C 111.869972 279.04245 111.787795 279.240843 111.787795 279.447679 
C 111.787795 279.654515 111.869972 279.852907 112.016227 279.999162 
C 112.162482 280.145417 112.360874 280.227594 112.56771 280.227594 
z
" clip-path="url(#p788feb7fb3)" style="fill: #800080; fill-opacity: 0.8; stroke: #800080; stroke-opacity: 0.8"/>
    <path d="M 119.649185 213.300462 
C 119.888598 213.300462 120.118237 213.205342 120.287527 213.036052 
C 120.456817 212.866762 120.551937 212.637123 120.551937 212.39771 
C 120.551937 212.158298 120.456817 211.928659 120.287527 211.759368 
C 120.118237 211.590078 119.888598 211.494959 119.649185 211.494959 
C 119.409773 211.494959 119.180134 211.590078 119.010843 211.759368 
C 118.841553 211.928659 118.746434 212.158298 118.746434 212.39771 
C 118.746434 212.637123 118.841553 212.866762 119.010843 213.036052 
C 119.180134 213.205342 119.409773 213.300462 119.649185 213.300462 
z
" clip-path="url(#p788feb7fb3)" style="fill: #800080; fill-opacity: 0.8; stroke: #800080; stroke-opacity: 0.8"/>
    <path d="M 126.73066 223.855009 
C 126.96481 223.855009 127.189402 223.76198 127.354971 223.596411 
C 127.52054 223.430842 127.613569 223.206251 127.613569 222.972101 
C 127.613569 222.737951 127.52054 222.513359 127.354971 222.34779 
C 127.189402 222.182221 126.96481 222.089192 126.73066 222.089192 
C 126.49651 222.089192 126.271919 222.182221 126.10635 222.34779 
C 125.940781 222.513359 125.847752 222.737951 125.847752 222.972101 
C 125.847752 223.206251 125.940781 223.430842 126.10635 223.596411 
C 126.271919 223.76198 126.49651 223.855009 126.73066 223.855009 
z
" clip-path="url(#p788feb7fb3)" style="fill: #800080; fill-opacity: 0.8; stroke: #800080; stroke-opacity: 0.8"/>
    <path d="M 133.812136 247.570425 
C 134.069926 247.570425 134.317193 247.468003 134.499479 247.285718 
C 134.681765 247.103432 134.784186 246.856165 134.784186 246.598374 
C 134.784186 246.340584 134.681765 246.093317 134.499479 245.911031 
C 134.317193 245.728745 134.069926 245.626324 133.812136 245.626324 
C 133.554345 245.626324 133.307078 245.728745 133.124792 245.911031 
C 132.942507 246.093317 132.840085 246.340584 132.840085 246.598374 
C 132.840085 246.856165 132.942507 247.103432 133.124792 247.285718 
C 133.307078 247.468003 133.554345 247.570425 133.812136 247.570425 
z
" clip-path="url(#p788feb7fb3)" style="fill: #800080; fill-opacity: 0.8; stroke: #800080; stroke-opacity: 0.8"/>
    <path d="M 140.893611 230.692654 
C 141.131282 230.692654 141.359251 230.598226 141.52731 230.430167 
C 141.695369 230.262108 141.789797 230.034139 141.789797 229.796468 
C 141.789797 229.558796 141.695369 229.330827 141.52731 229.162768 
C 141.359251 228.994709 141.131282 228.900282 140.893611 228.900282 
C 140.655939 228.900282 140.42797 228.994709 140.259911 229.162768 
C 140.091852 229.330827 139.997424 229.558796 139.997424 229.796468 
C 139.997424 230.034139 140.091852 230.262108 140.259911 230.430167 
C 140.42797 230.598226 140.655939 230.692654 140.893611 230.692654 
z
" clip-path="url(#p788feb7fb3)" style="fill: #800080; fill-opacity: 0.8; stroke: #800080; stroke-opacity: 0.8"/>
    <path d="M 147.975086 227.946643 
C 148.222182 227.946643 148.459191 227.848471 148.633914 227.673747 
C 148.808638 227.499024 148.90681 227.262015 148.90681 227.014919 
C 148.90681 226.767823 148.808638 226.530814 148.633914 226.35609 
C 148.459191 226.181367 148.222182 226.083194 147.975086 226.083194 
C 147.72799 226.083194 147.490981 226.181367 147.316257 226.35609 
C 147.141534 226.530814 147.043361 226.767823 147.043361 227.014919 
C 147.043361 227.262015 147.141534 227.499024 147.316257 227.673747 
C 147.490981 227.848471 147.72799 227.946643 147.975086 227.946643 
z
" clip-path="url(#p788feb7fb3)" style="fill: #800080; fill-opacity: 0.8; stroke: #800080; stroke-opacity: 0.8"/>
    <path d="M 155.056561 249.536648 
C 155.268358 249.536648 155.471508 249.452501 155.621271 249.302738 
C 155.771034 249.152975 155.855182 248.949824 155.855182 248.738027 
C 155.855182 248.526231 155.771034 248.32308 155.621271 248.173317 
C 155.471508 248.023554 155.268358 247.939407 155.056561 247.939407 
C 154.844764 247.939407 154.641614 248.023554 154.491851 248.173317 
C 154.342088 248.32308 154.25794 248.526231 154.25794 248.738027 
C 154.25794 248.949824 154.342088 249.152975 154.491851 249.302738 
C 154.641614 249.452501 154.844764 249.536648 155.056561 249.536648 
z
" clip-path="url(#p788feb7fb3)" style="fill: #800080; fill-opacity: 0.8; stroke: #800080; stroke-opacity: 0.8"/>
    <path d="M 162.138036 215.053953 
C 162.37658 215.053953 162.605385 214.959179 162.774061 214.790503 
C 162.942737 214.621827 163.037511 214.393022 163.037511 214.154478 
C 163.037511 213.915935 162.942737 213.687129 162.774061 213.518453 
C 162.605385 213.349778 162.37658 213.255003 162.138036 213.255003 
C 161.899492 213.255003 161.670687 213.349778 161.502011 213.518453 
C 161.333335 213.687129 161.238561 213.915935 161.238561 214.154478 
C 161.238561 214.393022 161.333335 214.621827 161.502011 214.790503 
C 161.670687 214.959179 161.899492 215.053953 162.138036 215.053953 
z
" clip-path="url(#p788feb7fb3)" style="fill: #800080; fill-opacity: 0.8; stroke: #800080; stroke-opacity: 0.8"/>
    <path d="M 169.219511 198.154736 
C 169.474059 198.154736 169.718216 198.053603 169.898208 197.87361 
C 170.078201 197.693617 170.179334 197.449461 170.179334 197.194913 
C 170.179334 196.940365 170.078201 196.696208 169.898208 196.516215 
C 169.718216 196.336223 169.474059 196.23509 169.219511 196.23509 
C 168.964963 196.23509 168.720807 196.336223 168.540814 196.516215 
C 168.360821 196.696208 168.259688 196.940365 168.259688 197.194913 
C 168.259688 197.449461 168.360821 197.693617 168.540814 197.87361 
C 168.720807 198.053603 168.964963 198.154736 169.219511 198.154736 
z
" clip-path="url(#p788feb7fb3)" style="fill: #800080; fill-opacity: 0.8; stroke: #800080; stroke-opacity: 0.8"/>
    <path d="M 176.300986 239.655253 
C 176.547241 239.655253 176.783442 239.557416 176.95757 239.383287 
C 177.131698 239.209159 177.229536 238.972958 177.229536 238.726704 
C 177.229536 238.480449 177.131698 238.244248 176.95757 238.07012 
C 176.783442 237.895992 176.547241 237.798154 176.300986 237.798154 
C 176.054732 237.798154 175.81853 237.895992 175.644402 238.07012 
C 175.470274 238.244248 175.372436 238.480449 175.372436 238.726704 
C 175.372436 238.972958 175.470274 239.209159 175.644402 239.383287 
C 175.81853 239.557416 176.054732 239.655253 176.300986 239.655253 
z
" clip-path="url(#p788feb7fb3)" style="fill: #800080; fill-opacity: 0.8; stroke: #800080; stroke-opacity: 0.8"/>
    <path d="M 183.382461 236.024328 
C 183.624462 236.024328 183.856584 235.92818 184.027704 235.757059 
C 184.198825 235.585939 184.294973 235.353817 184.294973 235.111816 
C 184.294973 234.869815 184.198825 234.637694 184.027704 234.466573 
C 183.856584 234.295453 183.624462 234.199305 183.382461 234.199305 
C 183.140461 234.199305 182.908339 234.295453 182.737218 234.466573 
C 182.566098 234.637694 182.46995 234.869815 182.46995 235.111816 
C 182.46995 235.353817 182.566098 235.585939 182.737218 235.757059 
C 182.908339 235.92818 183.140461 236.024328 183.382461 236.024328 
z
" clip-path="url(#p788feb7fb3)" style="fill: #800080; fill-opacity: 0.8; stroke: #800080; stroke-opacity: 0.8"/>
    <path d="M 190.463937 224.608568 
C 190.706794 224.608568 190.939737 224.512079 191.111464 224.340353 
C 191.28319 224.168627 191.379678 223.935683 191.379678 223.692826 
C 191.379678 223.449968 191.28319 223.217025 191.111464 223.045299 
C 190.939737 222.873573 190.706794 222.777084 190.463937 222.777084 
C 190.221079 222.777084 189.988136 222.873573 189.816409 223.045299 
C 189.644683 223.217025 189.548195 223.449968 189.548195 223.692826 
C 189.548195 223.935683 189.644683 224.168627 189.816409 224.340353 
C 189.988136 224.512079 190.221079 224.608568 190.463937 224.608568 
z
" clip-path="url(#p788feb7fb3)" style="fill: #800080; fill-opacity: 0.8; stroke: #800080; stroke-opacity: 0.8"/>
    <path d="M 197.545412 229.750951 
C 197.799142 229.750951 198.042515 229.650142 198.22193 229.470728 
C 198.401345 229.291313 198.502153 229.04794 198.502153 228.794209 
C 198.502153 228.540478 198.401345 228.297106 198.22193 228.117691 
C 198.042515 227.938276 197.799142 227.837468 197.545412 227.837468 
C 197.291681 227.837468 197.048308 227.938276 196.868893 228.117691 
C 196.689478 228.297106 196.58867 228.540478 196.58867 228.794209 
C 196.58867 229.04794 196.689478 229.291313 196.868893 229.470728 
C 197.048308 229.650142 197.291681 229.750951 197.545412 229.750951 
z
" clip-path="url(#p788feb7fb3)" style="fill: #800080; fill-opacity: 0.8; stroke: #800080; stroke-opacity: 0.8"/>
    <path d="M 204.626887 227.347731 
C 204.900315 227.347731 205.162581 227.239097 205.355925 227.045754 
C 205.549268 226.852411 205.657902 226.590145 205.657902 226.316716 
C 205.657902 226.043288 205.549268 225.781022 205.355925 225.587678 
C 205.162581 225.394335 204.900315 225.285701 204.626887 225.285701 
C 204.353458 225.285701 204.091192 225.394335 203.897849 225.587678 
C 203.704506 225.781022 203.595872 226.043288 203.595872 226.316716 
C 203.595872 226.590145 203.704506 226.852411 203.897849 227.045754 
C 204.091192 227.239097 204.353458 227.347731 204.626887 227.347731 
z
" clip-path="url(#p788feb7fb3)" style="fill: #800080; fill-opacity: 0.8; stroke: #800080; stroke-opacity: 0.8"/>
    <path d="M 211.708362 212.694547 
C 212.005101 212.694547 212.289727 212.576651 212.499554 212.366825 
C 212.70938 212.156998 212.827276 211.872373 212.827276 211.575633 
C 212.827276 211.278894 212.70938 210.994268 212.499554 210.784441 
C 212.289727 210.574615 212.005101 210.456719 211.708362 210.456719 
C 211.411622 210.456719 211.126997 210.574615 210.91717 210.784441 
C 210.707344 210.994268 210.589448 211.278894 210.589448 211.575633 
C 210.589448 211.872373 210.707344 212.156998 210.91717 212.366825 
C 211.126997 212.576651 211.411622 212.694547 211.708362 212.694547 
z
" clip-path="url(#p788feb7fb3)" style="fill: #800080; fill-opacity: 0.8; stroke: #800080; stroke-opacity: 0.8"/>
    <path d="M 218.789837 226.832253 
C 219.075886 226.832253 219.350258 226.718605 219.552525 226.516338 
C 219.754792 226.31407 219.868441 226.039699 219.868441 225.75365 
C 219.868441 225.467601 219.754792 225.193229 219.552525 224.990962 
C 219.350258 224.788694 219.075886 224.675046 218.789837 224.675046 
C 218.503788 224.675046 218.229416 224.788694 218.027149 224.990962 
C 217.824882 225.193229 217.711233 225.467601 217.711233 225.75365 
C 217.711233 226.039699 217.824882 226.31407 218.027149 226.516338 
C 218.229416 226.718605 218.503788 226.832253 218.789837 226.832253 
z
" clip-path="url(#p788feb7fb3)" style="fill: #800080; fill-opacity: 0.8; stroke: #800080; stroke-opacity: 0.8"/>
    <path d="M 225.871312 209.81109 
C 226.152971 209.81109 226.423133 209.699186 226.622296 209.500023 
C 226.821459 209.300859 226.933363 209.030698 226.933363 208.749039 
C 226.933363 208.46738 226.821459 208.197218 226.622296 207.998055 
C 226.423133 207.798892 226.152971 207.686988 225.871312 207.686988 
C 225.589653 207.686988 225.319492 207.798892 225.120329 207.998055 
C 224.921165 208.197218 224.809261 208.46738 224.809261 208.749039 
C 224.809261 209.030698 224.921165 209.300859 225.120329 209.500023 
C 225.319492 209.699186 225.589653 209.81109 225.871312 209.81109 
z
" clip-path="url(#p788feb7fb3)" style="fill: #800080; fill-opacity: 0.8; stroke: #800080; stroke-opacity: 0.8"/>
    <path d="M 232.952787 180.000349 
C 233.257809 180.000349 233.55038 179.879162 233.766063 179.663479 
C 233.981746 179.447796 234.102933 179.155226 234.102933 178.850204 
C 234.102933 178.545181 233.981746 178.252611 233.766063 178.036928 
C 233.55038 177.821245 233.257809 177.700058 232.952787 177.700058 
C 232.647765 177.700058 232.355195 177.821245 232.139512 178.036928 
C 231.923828 178.252611 231.802642 178.545181 231.802642 178.850204 
C 231.802642 179.155226 231.923828 179.447796 232.139512 179.663479 
C 232.355195 179.879162 232.647765 180.000349 232.952787 180.000349 
z
" clip-path="url(#p788feb7fb3)" style="fill: #800080; fill-opacity: 0.8; stroke: #800080; stroke-opacity: 0.8"/>
    <path d="M 240.034262 224.726773 
C 240.34132 224.726773 240.635843 224.604778 240.852966 224.387655 
C 241.070089 224.170532 241.192084 223.876009 241.192084 223.568951 
C 241.192084 223.261893 241.070089 222.96737 240.852966 222.750248 
C 240.635843 222.533125 240.34132 222.41113 240.034262 222.41113 
C 239.727205 222.41113 239.432682 222.533125 239.215559 222.750248 
C 238.998436 222.96737 238.876441 223.261893 238.876441 223.568951 
C 238.876441 223.876009 238.998436 224.170532 239.215559 224.387655 
C 239.432682 224.604778 239.727205 224.726773 240.034262 224.726773 
z
" clip-path="url(#p788feb7fb3)" style="fill: #800080; fill-opacity: 0.8; stroke: #800080; stroke-opacity: 0.8"/>
    <path d="M 247.115738 204.587937 
C 247.430807 204.587937 247.733014 204.462759 247.955802 204.239971 
C 248.17859 204.017183 248.303768 203.714976 248.303768 203.399906 
C 248.303768 203.084837 248.17859 202.782629 247.955802 202.559842 
C 247.733014 202.337054 247.430807 202.211876 247.115738 202.211876 
C 246.800668 202.211876 246.498461 202.337054 246.275673 202.559842 
C 246.052885 202.782629 245.927707 203.084837 245.927707 203.399906 
C 245.927707 203.714976 246.052885 204.017183 246.275673 204.239971 
C 246.498461 204.462759 246.800668 204.587937 247.115738 204.587937 
z
" clip-path="url(#p788feb7fb3)" style="fill: #800080; fill-opacity: 0.8; stroke: #800080; stroke-opacity: 0.8"/>
    <path d="M 254.197213 207.422962 
C 254.526464 207.422962 254.842275 207.292149 255.07509 207.059333 
C 255.307906 206.826517 255.438719 206.510707 255.438719 206.181455 
C 255.438719 205.852204 255.307906 205.536393 255.07509 205.303578 
C 254.842275 205.070762 254.526464 204.939949 254.197213 204.939949 
C 253.867961 204.939949 253.552151 205.070762 253.319335 205.303578 
C 253.086519 205.536393 252.955706 205.852204 252.955706 206.181455 
C 252.955706 206.510707 253.086519 206.826517 253.319335 207.059333 
C 253.552151 207.292149 253.867961 207.422962 254.197213 207.422962 
z
" clip-path="url(#p788feb7fb3)" style="fill: #800080; fill-opacity: 0.8; stroke: #800080; stroke-opacity: 0.8"/>
    <path d="M 261.278688 145.694562 
C 261.621535 145.694562 261.950386 145.558348 262.192816 145.315918 
C 262.435245 145.073489 262.57146 144.744637 262.57146 144.40179 
C 262.57146 144.058943 262.435245 143.730092 262.192816 143.487662 
C 261.950386 143.245233 261.621535 143.109018 261.278688 143.109018 
C 260.935841 143.109018 260.606989 143.245233 260.36456 143.487662 
C 260.12213 143.730092 259.985916 144.058943 259.985916 144.40179 
C 259.985916 144.744637 260.12213 145.073489 260.36456 145.315918 
C 260.606989 145.558348 260.935841 145.694562 261.278688 145.694562 
z
" clip-path="url(#p788feb7fb3)" style="fill: #800080; fill-opacity: 0.8; stroke: #800080; stroke-opacity: 0.8"/>
    <path d="M 268.360163 183.892585 
C 268.717833 183.892585 269.060902 183.750482 269.313813 183.497571 
C 269.566724 183.24466 269.708828 182.90159 269.708828 182.54392 
C 269.708828 182.18625 269.566724 181.843181 269.313813 181.59027 
C 269.060902 181.337359 268.717833 181.195255 268.360163 181.195255 
C 268.002493 181.195255 267.659424 181.337359 267.406513 181.59027 
C 267.153602 181.843181 267.011498 182.18625 267.011498 182.54392 
C 267.011498 182.90159 267.153602 183.24466 267.406513 183.497571 
C 267.659424 183.750482 268.002493 183.892585 268.360163 183.892585 
z
" clip-path="url(#p788feb7fb3)" style="fill: #800080; fill-opacity: 0.8; stroke: #800080; stroke-opacity: 0.8"/>
    <path d="M 275.441638 190.507359 
C 275.800468 190.507359 276.144649 190.364794 276.39838 190.111063 
C 276.65211 189.857333 276.794675 189.513152 276.794675 189.154322 
C 276.794675 188.795492 276.65211 188.451311 276.39838 188.19758 
C 276.144649 187.94385 275.800468 187.801285 275.441638 187.801285 
C 275.082809 187.801285 274.738627 187.94385 274.484897 188.19758 
C 274.231166 188.451311 274.088601 188.795492 274.088601 189.154322 
C 274.088601 189.513152 274.231166 189.857333 274.484897 190.111063 
C 274.738627 190.364794 275.082809 190.507359 275.441638 190.507359 
z
" clip-path="url(#p788feb7fb3)" style="fill: #800080; fill-opacity: 0.8; stroke: #800080; stroke-opacity: 0.8"/>
    <path d="M 282.523113 178.542379 
C 282.904391 178.542379 283.270104 178.390896 283.539708 178.121292 
C 283.809312 177.851688 283.960795 177.485975 283.960795 177.104697 
C 283.960795 176.723419 283.809312 176.357707 283.539708 176.088103 
C 283.270104 175.818499 282.904391 175.667015 282.523113 175.667015 
C 282.141836 175.667015 281.776123 175.818499 281.506519 176.088103 
C 281.236915 176.357707 281.085431 176.723419 281.085431 177.104697 
C 281.085431 177.485975 281.236915 177.851688 281.506519 178.121292 
C 281.776123 178.390896 282.141836 178.542379 282.523113 178.542379 
z
" clip-path="url(#p788feb7fb3)" style="fill: #800080; fill-opacity: 0.8; stroke: #800080; stroke-opacity: 0.8"/>
    <path d="M 289.604588 171.819533 
C 290.024736 171.819533 290.427732 171.652607 290.724821 171.355518 
C 291.02191 171.058428 291.188837 170.655432 291.188837 170.235285 
C 291.188837 169.815137 291.02191 169.412141 290.724821 169.115052 
C 290.427732 168.817963 290.024736 168.651037 289.604588 168.651037 
C 289.184441 168.651037 288.781445 168.817963 288.484356 169.115052 
C 288.187266 169.412141 288.02034 169.815137 288.02034 170.235285 
C 288.02034 170.655432 288.187266 171.058428 288.484356 171.355518 
C 288.781445 171.652607 289.184441 171.819533 289.604588 171.819533 
z
" clip-path="url(#p788feb7fb3)" style="fill: #800080; fill-opacity: 0.8; stroke: #800080; stroke-opacity: 0.8"/>
    <path d="M 296.686063 139.385545 
C 297.147664 139.385545 297.59042 139.202149 297.916821 138.875749 
C 298.243222 138.549348 298.426617 138.106592 298.426617 137.644991 
C 298.426617 137.183391 298.243222 136.740635 297.916821 136.414234 
C 297.59042 136.087833 297.147664 135.904437 296.686063 135.904437 
C 296.224463 135.904437 295.781707 136.087833 295.455306 136.414234 
C 295.128905 136.740635 294.94551 137.183391 294.94551 137.644991 
C 294.94551 138.106592 295.128905 138.549348 295.455306 138.875749 
C 295.781707 139.202149 296.224463 139.385545 296.686063 139.385545 
z
" clip-path="url(#p788feb7fb3)" style="fill: #800080; fill-opacity: 0.8; stroke: #800080; stroke-opacity: 0.8"/>
    <path d="M 303.767539 142.264352 
C 304.248959 142.264352 304.710726 142.073082 305.051142 141.732666 
C 305.391558 141.392251 305.582828 140.930483 305.582828 140.449063 
C 305.582828 139.967642 305.391558 139.505875 305.051142 139.165459 
C 304.710726 138.825044 304.248959 138.633773 303.767539 138.633773 
C 303.286118 138.633773 302.824351 138.825044 302.483935 139.165459 
C 302.14352 139.505875 301.952249 139.967642 301.952249 140.449063 
C 301.952249 140.930483 302.14352 141.392251 302.483935 141.732666 
C 302.824351 142.073082 303.286118 142.264352 303.767539 142.264352 
z
" clip-path="url(#p788feb7fb3)" style="fill: #800080; fill-opacity: 0.8; stroke: #800080; stroke-opacity: 0.8"/>
    <path d="M 310.849014 167.191597 
C 311.323044 167.191597 311.777723 167.003263 312.112913 166.668073 
C 312.448103 166.332883 312.636437 165.878204 312.636437 165.404174 
C 312.636437 164.930143 312.448103 164.475464 312.112913 164.140275 
C 311.777723 163.805085 311.323044 163.61675 310.849014 163.61675 
C 310.374984 163.61675 309.920305 163.805085 309.585115 164.140275 
C 309.249925 164.475464 309.06159 164.930143 309.06159 165.404174 
C 309.06159 165.878204 309.249925 166.332883 309.585115 166.668073 
C 309.920305 167.003263 310.374984 167.191597 310.849014 167.191597 
z
" clip-path="url(#p788feb7fb3)" style="fill: #800080; fill-opacity: 0.8; stroke: #800080; stroke-opacity: 0.8"/>
    <path d="M 317.930489 131.440585 
C 318.411478 131.440585 318.872831 131.249486 319.212942 130.909376 
C 319.553052 130.569265 319.744151 130.107912 319.744151 129.626923 
C 319.744151 129.145934 319.553052 128.684581 319.212942 128.34447 
C 318.872831 128.00436 318.411478 127.813261 317.930489 127.813261 
C 317.4495 127.813261 316.988147 128.00436 316.648036 128.34447 
C 316.307926 128.684581 316.116827 129.145934 316.116827 129.626923 
C 316.116827 130.107912 316.307926 130.569265 316.648036 130.909376 
C 316.988147 131.249486 317.4495 131.440585 317.930489 131.440585 
z
" clip-path="url(#p788feb7fb3)" style="fill: #800080; fill-opacity: 0.8; stroke: #800080; stroke-opacity: 0.8"/>
    <path d="M 325.011964 124.967703 
C 325.514491 124.967703 325.996503 124.768047 326.351843 124.412707 
C 326.707183 124.057367 326.906839 123.575355 326.906839 123.072828 
C 326.906839 122.570301 326.707183 122.088289 326.351843 121.732949 
C 325.996503 121.377609 325.514491 121.177953 325.011964 121.177953 
C 324.509437 121.177953 324.027425 121.377609 323.672085 121.732949 
C 323.316745 122.088289 323.117089 122.570301 323.117089 123.072828 
C 323.117089 123.575355 323.316745 124.057367 323.672085 124.412707 
C 324.027425 124.768047 324.509437 124.967703 325.011964 124.967703 
z
" clip-path="url(#p788feb7fb3)" style="fill: #800080; fill-opacity: 0.8; stroke: #800080; stroke-opacity: 0.8"/>
    <path d="M 332.093439 111.161636 
C 332.622931 111.161636 333.130807 110.951266 333.505215 110.576859 
C 333.879622 110.202452 334.089991 109.694575 334.089991 109.165084 
C 334.089991 108.635592 333.879622 108.127715 333.505215 107.753308 
C 333.130807 107.378901 332.622931 107.168532 332.093439 107.168532 
C 331.563947 107.168532 331.056071 107.378901 330.681664 107.753308 
C 330.307256 108.127715 330.096887 108.635592 330.096887 109.165084 
C 330.096887 109.694575 330.307256 110.202452 330.681664 110.576859 
C 331.056071 110.951266 331.563947 111.161636 332.093439 111.161636 
z
" clip-path="url(#p788feb7fb3)" style="fill: #800080; fill-opacity: 0.8; stroke: #800080; stroke-opacity: 0.8"/>
    <path d="M 339.174914 110.519329 
C 339.728189 110.519329 340.258878 110.29951 340.650103 109.908286 
C 341.041327 109.517061 341.261146 108.986372 341.261146 108.433097 
C 341.261146 107.879822 341.041327 107.349133 340.650103 106.957909 
C 340.258878 106.566684 339.728189 106.346866 339.174914 106.346866 
C 338.621639 106.346866 338.09095 106.566684 337.699726 106.957909 
C 337.308501 107.349133 337.088683 107.879822 337.088683 108.433097 
C 337.088683 108.986372 337.308501 109.517061 337.699726 109.908286 
C 338.09095 110.29951 338.621639 110.519329 339.174914 110.519329 
z
" clip-path="url(#p788feb7fb3)" style="fill: #800080; fill-opacity: 0.8; stroke: #800080; stroke-opacity: 0.8"/>
    <path d="M 346.256389 84.489812 
C 346.823383 84.489812 347.36723 84.264543 347.768154 83.863618 
C 348.169079 83.462693 348.394348 82.918846 348.394348 82.351853 
C 348.394348 81.78486 348.169079 81.241013 347.768154 80.840088 
C 347.36723 80.439164 346.823383 80.213895 346.256389 80.213895 
C 345.689396 80.213895 345.145549 80.439164 344.744624 80.840088 
C 344.3437 81.241013 344.118431 81.78486 344.118431 82.351853 
C 344.118431 82.918846 344.3437 83.462693 344.744624 83.863618 
C 345.145549 84.264543 345.689396 84.489812 346.256389 84.489812 
z
" clip-path="url(#p788feb7fb3)" style="fill: #800080; fill-opacity: 0.8; stroke: #800080; stroke-opacity: 0.8"/>
    <path d="M 353.337864 85.440601 
C 353.938993 85.440601 354.515581 85.20177 354.940643 84.776708 
C 355.365704 84.351647 355.604535 83.775058 355.604535 83.17393 
C 355.604535 82.572802 355.365704 81.996214 354.940643 81.571152 
C 354.515581 81.146091 353.938993 80.90726 353.337864 80.90726 
C 352.736736 80.90726 352.160148 81.146091 351.735086 81.571152 
C 351.310025 81.996214 351.071194 82.572802 351.071194 83.17393 
C 351.071194 83.775058 351.310025 84.351647 351.735086 84.776708 
C 352.160148 85.20177 352.736736 85.440601 353.337864 85.440601 
z
" clip-path="url(#p788feb7fb3)" style="fill: #800080; fill-opacity: 0.8; stroke: #800080; stroke-opacity: 0.8"/>
    <path d="M 360.41934 98.410311 
C 361.0375 98.410311 361.630426 98.164713 362.067531 97.727608 
C 362.504637 97.290502 362.750234 96.697577 362.750234 96.079416 
C 362.750234 95.461256 362.504637 94.86833 362.067531 94.431225 
C 361.630426 93.994119 361.0375 93.748521 360.41934 93.748521 
C 359.801179 93.748521 359.208254 93.994119 358.771148 94.431225 
C 358.334043 94.86833 358.088445 95.461256 358.088445 96.079416 
C 358.088445 96.697577 358.334043 97.290502 358.771148 97.727608 
C 359.208254 98.164713 359.801179 98.410311 360.41934 98.410311 
z
" clip-path="url(#p788feb7fb3)" style="fill: #800080; fill-opacity: 0.8; stroke: #800080; stroke-opacity: 0.8"/>
    <path d="M 367.500815 86.548915 
C 368.165907 86.548915 368.803849 86.28467 369.274141 85.814379 
C 369.744432 85.344087 370.008676 84.706146 370.008676 84.041053 
C 370.008676 83.37596 369.744432 82.738018 369.274141 82.267727 
C 368.803849 81.797435 368.165907 81.533191 367.500815 81.533191 
C 366.835722 81.533191 366.19778 81.797435 365.727489 82.267727 
C 365.257197 82.738018 364.992953 83.37596 364.992953 84.041053 
C 364.992953 84.706146 365.257197 85.344087 365.727489 85.814379 
C 366.19778 86.28467 366.835722 86.548915 367.500815 86.548915 
z
" clip-path="url(#p788feb7fb3)" style="fill: #800080; fill-opacity: 0.8; stroke: #800080; stroke-opacity: 0.8"/>
    <path d="M 374.58229 62.396069 
C 375.295886 62.396069 375.980352 62.112555 376.48494 61.607966 
C 376.989529 61.103377 377.273044 60.418912 377.273044 59.705315 
C 377.273044 58.991719 376.989529 58.307254 376.48494 57.802665 
C 375.980352 57.298076 375.295886 57.014561 374.58229 57.014561 
C 373.868694 57.014561 373.184228 57.298076 372.679639 57.802665 
C 372.175051 58.307254 371.891536 58.991719 371.891536 59.705315 
C 371.891536 60.418912 372.175051 61.103377 372.679639 61.607966 
C 373.184228 62.112555 373.868694 62.396069 374.58229 62.396069 
z
" clip-path="url(#p788feb7fb3)" style="fill: #800080; fill-opacity: 0.8; stroke: #800080; stroke-opacity: 0.8"/>
    <path d="M 381.663765 74.639445 
C 382.422772 74.639445 383.150794 74.337889 383.687492 73.80119 
C 384.224191 73.264491 384.525748 72.536469 384.525748 71.777463 
C 384.525748 71.018456 384.224191 70.290434 383.687492 69.753735 
C 383.150794 69.217037 382.422772 68.91548 381.663765 68.91548 
C 380.904758 68.91548 380.176736 69.217037 379.640038 69.753735 
C 379.103339 70.290434 378.801782 71.018456 378.801782 71.777463 
C 378.801782 72.536469 379.103339 73.264491 379.640038 73.80119 
C 380.176736 74.337889 380.904758 74.639445 381.663765 74.639445 
z
" clip-path="url(#p788feb7fb3)" style="fill: #800080; fill-opacity: 0.8; stroke: #800080; stroke-opacity: 0.8"/>
    <path d="M 388.74524 55.623826 
C 389.523431 55.623826 390.269854 55.314648 390.820118 54.764384 
C 391.370382 54.21412 391.679561 53.467697 391.679561 52.689506 
C 391.679561 51.911315 391.370382 51.164892 390.820118 50.614628 
C 390.269854 50.064364 389.523431 49.755185 388.74524 49.755185 
C 387.967049 49.755185 387.220626 50.064364 386.670362 50.614628 
C 386.120098 51.164892 385.81092 51.911315 385.81092 52.689506 
C 385.81092 53.467697 386.120098 54.21412 386.670362 54.764384 
C 387.220626 55.314648 387.967049 55.623826 388.74524 55.623826 
z
" clip-path="url(#p788feb7fb3)" style="fill: #800080; fill-opacity: 0.8; stroke: #800080; stroke-opacity: 0.8"/>
    <path d="M 395.826715 59.14157 
C 396.614982 59.14157 397.371069 58.828389 397.928458 58.271 
C 398.485847 57.713611 398.799028 56.957524 398.799028 56.169257 
C 398.799028 55.380991 398.485847 54.624903 397.928458 54.067514 
C 397.371069 53.510126 396.614982 53.196944 395.826715 53.196944 
C 395.038449 53.196944 394.282361 53.510126 393.724972 54.067514 
C 393.167584 54.624903 392.854402 55.380991 392.854402 56.169257 
C 392.854402 56.957524 393.167584 57.713611 393.724972 58.271 
C 394.282361 58.828389 395.038449 59.14157 395.826715 59.14157 
z
" clip-path="url(#p788feb7fb3)" style="fill: #800080; fill-opacity: 0.8; stroke: #800080; stroke-opacity: 0.8"/>
    <path d="M 402.90819 41.725455 
C 403.7038 41.725455 404.46693 41.409356 405.029511 40.846775 
C 405.592091 40.284194 405.90819 39.521064 405.90819 38.725455 
C 405.90819 37.929845 405.592091 37.166715 405.029511 36.604134 
C 404.46693 36.041553 403.7038 35.725455 402.90819 35.725455 
C 402.112581 35.725455 401.349451 36.041553 400.78687 36.604134 
C 400.224289 37.166715 399.90819 37.929845 399.90819 38.725455 
C 399.90819 39.521064 400.224289 40.284194 400.78687 40.846775 
C 401.349451 41.409356 402.112581 41.725455 402.90819 41.725455 
z
" clip-path="url(#p788feb7fb3)" style="fill: #800080; fill-opacity: 0.8; stroke: #800080; stroke-opacity: 0.8"/>
    <path d="M 409.989666 51.6114 
C 410.710213 51.6114 411.401345 51.325124 411.910849 50.81562 
C 412.420352 50.306116 412.706629 49.614984 412.706629 48.894437 
C 412.706629 48.17389 412.420352 47.482758 411.910849 46.973254 
C 411.401345 46.46375 410.710213 46.177474 409.989666 46.177474 
C 409.269118 46.177474 408.577986 46.46375 408.068482 46.973254 
C 407.558979 47.482758 407.272702 48.17389 407.272702 48.894437 
C 407.272702 49.614984 407.558979 50.306116 408.068482 50.81562 
C 408.577986 51.325124 409.269118 51.6114 409.989666 51.6114 
z
" clip-path="url(#p788feb7fb3)" style="fill: #800080; fill-opacity: 0.8; stroke: #800080; stroke-opacity: 0.8"/>
    <path d="M 417.071141 49.456489 
C 417.787641 49.456489 418.474892 49.171821 418.981535 48.665178 
C 419.488177 48.158536 419.772846 47.471285 419.772846 46.754784 
C 419.772846 46.038283 419.488177 45.351032 418.981535 44.84439 
C 418.474892 44.337747 417.787641 44.053078 417.071141 44.053078 
C 416.35464 44.053078 415.667389 44.337747 415.160746 44.84439 
C 414.654104 45.351032 414.369435 46.038283 414.369435 46.754784 
C 414.369435 47.471285 414.654104 48.158536 415.160746 48.665178 
C 415.667389 49.171821 416.35464 49.456489 417.071141 49.456489 
z
" clip-path="url(#p788feb7fb3)" style="fill: #800080; fill-opacity: 0.8; stroke: #800080; stroke-opacity: 0.8"/>
    <path d="M 424.152616 59.596458 
C 424.882328 59.596458 425.582251 59.30654 426.098235 58.790556 
C 426.614219 58.274572 426.904136 57.574649 426.904136 56.844937 
C 426.904136 56.115225 426.614219 55.415302 426.098235 54.899318 
C 425.582251 54.383334 424.882328 54.093416 424.152616 54.093416 
C 423.422904 54.093416 422.722981 54.383334 422.206997 54.899318 
C 421.691013 55.415302 421.401095 56.115225 421.401095 56.844937 
C 421.401095 57.574649 421.691013 58.274572 422.206997 58.790556 
C 422.722981 59.30654 423.422904 59.596458 424.152616 59.596458 
z
" clip-path="url(#p788feb7fb3)" style="fill: #800080; fill-opacity: 0.8; stroke: #800080; stroke-opacity: 0.8"/>
    <path d="M 431.234091 93.023034 
C 431.919785 93.023034 432.577488 92.750604 433.062347 92.265745 
C 433.547206 91.780886 433.819635 91.123184 433.819635 90.437489 
C 433.819635 89.751795 433.547206 89.094092 433.062347 88.609233 
C 432.577488 88.124374 431.919785 87.851945 431.234091 87.851945 
C 430.548397 87.851945 429.890694 88.124374 429.405835 88.609233 
C 428.920976 89.094092 428.648547 89.751795 428.648547 90.437489 
C 428.648547 91.123184 428.920976 91.780886 429.405835 92.265745 
C 429.890694 92.750604 430.548397 93.023034 431.234091 93.023034 
z
" clip-path="url(#p788feb7fb3)" style="fill: #800080; fill-opacity: 0.8; stroke: #800080; stroke-opacity: 0.8"/>
   </g>
   <g id="PolyCollection_1">
    <defs>
     <path id="mf63fbcf2e0" d="M 55.915909 -69.670396 
L 55.915909 -41.165455 
L 59.707002 -43.740774 
L 63.498095 -46.316093 
L 67.289187 -48.832018 
L 71.08028 -51.426121 
L 74.871373 -54.036706 
L 78.662466 -56.609048 
L 82.453558 -59.182717 
L 86.244651 -61.757722 
L 90.035744 -64.333205 
L 93.826837 -66.908688 
L 97.617929 -69.484171 
L 101.409022 -72.059654 
L 105.200115 -74.631651 
L 108.991208 -77.20717 
L 112.7823 -79.780104 
L 116.573393 -82.354778 
L 120.364486 -84.864106 
L 124.155579 -87.426802 
L 127.946671 -90.004757 
L 131.737764 -92.536334 
L 135.528857 -95.069127 
L 139.319949 -97.603156 
L 143.111042 -100.137185 
L 146.902135 -102.671214 
L 150.693228 -105.200272 
L 154.48432 -107.729054 
L 158.275413 -110.270012 
L 162.066506 -112.72643 
L 165.857599 -115.173953 
L 169.648691 -117.737565 
L 173.439784 -120.271118 
L 177.230877 -122.783508 
L 181.02197 -125.293653 
L 184.813062 -127.763506 
L 188.604155 -130.317841 
L 192.395248 -132.831639 
L 196.186341 -135.339821 
L 199.977433 -137.7378 
L 203.768526 -140.297312 
L 207.559619 -142.769291 
L 211.350712 -145.252577 
L 215.141804 -147.684092 
L 218.932897 -150.101065 
L 222.72399 -152.438048 
L 226.515083 -154.817343 
L 230.306175 -157.125691 
L 234.097268 -159.424653 
L 237.888361 -161.692527 
L 241.679454 -163.994019 
L 245.470546 -166.407804 
L 249.261639 -168.770006 
L 253.052732 -171.114734 
L 256.843825 -173.283433 
L 260.634917 -175.394982 
L 264.42601 -177.599298 
L 268.217103 -179.862846 
L 272.008196 -182.139801 
L 275.799288 -184.416899 
L 279.590381 -186.693996 
L 283.381474 -188.991107 
L 287.172567 -191.209053 
L 290.963659 -193.382937 
L 294.754752 -195.565159 
L 298.545845 -197.687281 
L 302.336938 -199.735929 
L 306.12803 -201.849216 
L 309.919123 -203.978322 
L 313.710216 -206.098964 
L 317.501309 -208.219606 
L 321.292401 -210.340248 
L 325.083494 -212.465554 
L 328.874587 -214.708839 
L 332.66568 -216.998319 
L 336.456772 -219.287799 
L 340.247865 -221.577279 
L 344.038958 -223.843884 
L 347.830051 -225.998561 
L 351.621143 -228.187599 
L 355.412236 -230.364694 
L 359.203329 -232.50218 
L 362.994421 -234.640021 
L 366.785514 -236.777151 
L 370.576607 -238.914637 
L 374.3677 -241.056678 
L 378.158792 -243.188384 
L 381.949885 -245.324822 
L 385.740978 -247.461261 
L 389.532071 -249.597934 
L 393.323163 -251.736721 
L 397.114256 -253.91325 
L 400.905349 -256.11554 
L 404.696442 -258.148323 
L 408.487534 -260.282258 
L 412.278627 -262.405379 
L 416.06972 -264.470216 
L 419.860813 -266.536929 
L 423.651905 -268.598384 
L 427.442998 -270.65984 
L 431.234091 -272.82124 
L 431.234091 -299.246401 
L 431.234091 -299.246401 
L 427.442998 -296.699122 
L 423.651905 -294.144179 
L 419.860813 -291.580205 
L 416.06972 -289.039942 
L 412.278627 -286.614162 
L 408.487534 -284.183455 
L 404.696442 -281.751305 
L 400.905349 -279.254824 
L 397.114256 -276.861152 
L 393.323163 -274.31946 
L 389.532071 -271.834924 
L 385.740978 -269.177193 
L 381.949885 -266.721963 
L 378.158792 -264.141537 
L 374.3677 -261.570363 
L 370.576607 -259.109292 
L 366.785514 -256.585744 
L 362.994421 -254.152056 
L 359.203329 -251.718367 
L 355.412236 -249.245794 
L 351.621143 -246.806068 
L 347.830051 -244.361228 
L 344.038958 -241.890861 
L 340.247865 -239.475787 
L 336.456772 -237.068585 
L 332.66568 -234.685666 
L 328.874587 -232.254715 
L 325.083494 -229.856479 
L 321.292401 -227.449221 
L 317.501309 -225.0716 
L 313.710216 -222.599974 
L 309.919123 -220.17406 
L 306.12803 -217.763001 
L 302.336938 -215.443145 
L 298.545845 -213.042463 
L 294.754752 -210.591768 
L 290.963659 -208.165557 
L 287.172567 -205.794514 
L 283.381474 -203.414138 
L 279.590381 -201.109922 
L 275.799288 -198.877837 
L 272.008196 -196.484028 
L 268.217103 -194.069622 
L 264.42601 -191.681731 
L 260.634917 -189.267704 
L 256.843825 -186.818163 
L 253.052732 -184.497117 
L 249.261639 -182.215395 
L 245.470546 -179.802132 
L 241.679454 -177.522751 
L 237.888361 -175.335398 
L 234.097268 -173.067375 
L 230.306175 -170.724355 
L 226.515083 -168.394038 
L 222.72399 -166.067783 
L 218.932897 -163.830999 
L 215.141804 -161.511001 
L 211.350712 -159.192912 
L 207.559619 -156.930421 
L 203.768526 -154.741039 
L 199.977433 -152.490823 
L 196.186341 -150.310767 
L 192.395248 -148.066072 
L 188.604155 -145.806054 
L 184.813062 -143.616028 
L 181.02197 -141.315379 
L 177.230877 -139.178481 
L 173.439784 -136.852032 
L 169.648691 -134.609589 
L 165.857599 -132.407902 
L 162.066506 -130.2643 
L 158.275413 -128.084801 
L 154.48432 -125.86406 
L 150.693228 -123.601156 
L 146.902135 -121.399469 
L 143.111042 -119.197782 
L 139.319949 -116.989545 
L 135.528857 -114.790919 
L 131.737764 -112.594463 
L 127.946671 -110.428373 
L 124.155579 -108.257223 
L 120.364486 -106.139478 
L 116.573393 -103.980149 
L 112.7823 -101.819738 
L 108.991208 -99.659326 
L 105.200115 -97.516633 
L 101.409022 -95.394089 
L 97.617929 -93.271544 
L 93.826837 -91.142831 
L 90.035744 -88.9937 
L 86.244651 -86.844568 
L 82.453558 -84.695436 
L 78.662466 -82.546304 
L 74.871373 -80.397173 
L 71.08028 -78.287499 
L 67.289187 -76.254526 
L 63.498095 -74.175259 
L 59.707002 -71.939812 
L 55.915909 -69.670396 
z
" style="stroke: #ffffff; stroke-opacity: 0.15"/>
    </defs>
    <g clip-path="url(#p788feb7fb3)">
     <use xlink:href="#mf63fbcf2e0" x="0" y="345.6" style="fill: #800080; fill-opacity: 0.15; stroke: #ffffff; stroke-opacity: 0.15"/>
    </g>
   </g>
   <g id="line2d_1">
    <path d="M 55.915909 289.19501 
L 59.707002 286.852627 
L 63.498095 284.510244 
L 67.289187 282.167861 
L 71.08028 279.825479 
L 74.871373 277.483096 
L 78.662466 275.140713 
L 82.453558 272.798331 
L 86.244651 270.455948 
L 90.035744 268.113565 
L 93.826837 265.771182 
L 97.617929 263.4288 
L 101.409022 261.086417 
L 105.200115 258.744034 
L 108.991208 256.401652 
L 112.7823 254.059269 
L 116.573393 251.716886 
L 120.364486 249.374503 
L 124.155579 247.032121 
L 127.946671 244.689738 
L 131.737764 242.347355 
L 135.528857 240.004973 
L 139.319949 237.66259 
L 143.111042 235.320207 
L 146.902135 232.977825 
L 150.693228 230.635442 
L 154.48432 228.293059 
L 158.275413 225.950676 
L 162.066506 223.608294 
L 165.857599 221.265911 
L 169.648691 218.923528 
L 173.439784 216.581146 
L 177.230877 214.238763 
L 181.02197 211.89638 
L 184.813062 209.553997 
L 188.604155 207.211615 
L 192.395248 204.869232 
L 196.186341 202.526849 
L 199.977433 200.184467 
L 203.768526 197.842084 
L 207.559619 195.499701 
L 211.350712 193.157318 
L 215.141804 190.814936 
L 218.932897 188.472553 
L 222.72399 186.13017 
L 226.515083 183.787788 
L 230.306175 181.445405 
L 234.097268 179.103022 
L 237.888361 176.76064 
L 241.679454 174.418257 
L 245.470546 172.075874 
L 249.261639 169.733491 
L 253.052732 167.391109 
L 256.843825 165.048726 
L 260.634917 162.706343 
L 264.42601 160.363961 
L 268.217103 158.021578 
L 272.008196 155.679195 
L 275.799288 153.336812 
L 279.590381 150.99443 
L 283.381474 148.652047 
L 287.172567 146.309664 
L 290.963659 143.967282 
L 294.754752 141.624899 
L 298.545845 139.282516 
L 302.336938 136.940133 
L 306.12803 134.597751 
L 309.919123 132.255368 
L 313.710216 129.912985 
L 317.501309 127.570603 
L 321.292401 125.22822 
L 325.083494 122.885837 
L 328.874587 120.543454 
L 332.66568 118.201072 
L 336.456772 115.858689 
L 340.247865 113.516306 
L 344.038958 111.173924 
L 347.830051 108.831541 
L 351.621143 106.489158 
L 355.412236 104.146776 
L 359.203329 101.804393 
L 362.994421 99.46201 
L 366.785514 97.119627 
L 370.576607 94.777245 
L 374.3677 92.434862 
L 378.158792 90.092479 
L 381.949885 87.750097 
L 385.740978 85.407714 
L 389.532071 83.065331 
L 393.323163 80.722948 
L 397.114256 78.380566 
L 400.905349 76.038183 
L 404.696442 73.6958 
L 408.487534 71.353418 
L 412.278627 69.011035 
L 416.06972 66.668652 
L 419.860813 64.326269 
L 423.651905 61.983887 
L 427.442998 59.641504 
L 431.234091 57.299121 
" clip-path="url(#p788feb7fb3)" style="fill: none; stroke: #800080; stroke-width: 2.25; stroke-linecap: round"/>
   </g>
   <g id="patch_3">
    <path d="M 37.15 317.72 
L 37.15 25.44 
" style="fill: none; stroke: #ffffff; stroke-width: 0.8; stroke-linejoin: miter; stroke-linecap: square"/>
   </g>
   <g id="patch_4">
    <path d="M 450 317.72 
L 450 25.44 
" style="fill: none; stroke: #ffffff; stroke-width: 0.8; stroke-linejoin: miter; stroke-linecap: square"/>
   </g>
   <g id="patch_5">
    <path d="M 37.15 317.72 
L 450 317.72 
" style="fill: none; stroke: #ffffff; stroke-width: 0.8; stroke-linejoin: miter; stroke-linecap: square"/>
   </g>
   <g id="patch_6">
    <path d="M 37.15 25.44 
L 450 25.44 
" style="fill: none; stroke: #ffffff; stroke-width: 0.8; stroke-linejoin: miter; stroke-linecap: square"/>
   </g>
   <g id="text_13">
    <!-- Yearly average geek score from ranked games -->
    <g style="fill: #262626" transform="translate(119.403125 19.44) scale(0.12 -0.12)">
     <defs>
      <path id="ArialMT-59" d="M 1784 0 
L 1784 1941 
L 19 4581 
L 756 4581 
L 1659 3200 
Q 1909 2813 2125 2425 
Q 2331 2784 2625 3234 
L 3513 4581 
L 4219 4581 
L 2391 1941 
L 2391 0 
L 1784 0 
z
" transform="scale(0.015625)"/>
      <path id="ArialMT-65" d="M 2694 1069 
L 3275 997 
Q 3138 488 2766 206 
Q 2394 -75 1816 -75 
Q 1088 -75 661 373 
Q 234 822 234 1631 
Q 234 2469 665 2931 
Q 1097 3394 1784 3394 
Q 2450 3394 2872 2941 
Q 3294 2488 3294 1666 
Q 3294 1616 3291 1516 
L 816 1516 
Q 847 969 1125 678 
Q 1403 388 1819 388 
Q 2128 388 2347 550 
Q 2566 713 2694 1069 
z
M 847 1978 
L 2700 1978 
Q 2663 2397 2488 2606 
Q 2219 2931 1791 2931 
Q 1403 2931 1139 2672 
Q 875 2413 847 1978 
z
" transform="scale(0.015625)"/>
      <path id="ArialMT-61" d="M 2588 409 
Q 2275 144 1986 34 
Q 1697 -75 1366 -75 
Q 819 -75 525 192 
Q 231 459 231 875 
Q 231 1119 342 1320 
Q 453 1522 633 1644 
Q 813 1766 1038 1828 
Q 1203 1872 1538 1913 
Q 2219 1994 2541 2106 
Q 2544 2222 2544 2253 
Q 2544 2597 2384 2738 
Q 2169 2928 1744 2928 
Q 1347 2928 1158 2789 
Q 969 2650 878 2297 
L 328 2372 
Q 403 2725 575 2942 
Q 747 3159 1072 3276 
Q 1397 3394 1825 3394 
Q 2250 3394 2515 3294 
Q 2781 3194 2906 3042 
Q 3031 2891 3081 2659 
Q 3109 2516 3109 2141 
L 3109 1391 
Q 3109 606 3145 398 
Q 3181 191 3288 0 
L 2700 0 
Q 2613 175 2588 409 
z
M 2541 1666 
Q 2234 1541 1622 1453 
Q 1275 1403 1131 1340 
Q 988 1278 909 1158 
Q 831 1038 831 891 
Q 831 666 1001 516 
Q 1172 366 1500 366 
Q 1825 366 2078 508 
Q 2331 650 2450 897 
Q 2541 1088 2541 1459 
L 2541 1666 
z
" transform="scale(0.015625)"/>
      <path id="ArialMT-72" d="M 416 0 
L 416 3319 
L 922 3319 
L 922 2816 
Q 1116 3169 1280 3281 
Q 1444 3394 1641 3394 
Q 1925 3394 2219 3213 
L 2025 2691 
Q 1819 2813 1613 2813 
Q 1428 2813 1281 2702 
Q 1134 2591 1072 2394 
Q 978 2094 978 1738 
L 978 0 
L 416 0 
z
" transform="scale(0.015625)"/>
      <path id="ArialMT-6c" d="M 409 0 
L 409 4581 
L 972 4581 
L 972 0 
L 409 0 
z
" transform="scale(0.015625)"/>
      <path id="ArialMT-79" d="M 397 -1278 
L 334 -750 
Q 519 -800 656 -800 
Q 844 -800 956 -737 
Q 1069 -675 1141 -563 
Q 1194 -478 1313 -144 
Q 1328 -97 1363 -6 
L 103 3319 
L 709 3319 
L 1400 1397 
Q 1534 1031 1641 628 
Q 1738 1016 1872 1384 
L 2581 3319 
L 3144 3319 
L 1881 -56 
Q 1678 -603 1566 -809 
Q 1416 -1088 1222 -1217 
Q 1028 -1347 759 -1347 
Q 597 -1347 397 -1278 
z
" transform="scale(0.015625)"/>
      <path id="ArialMT-20" transform="scale(0.015625)"/>
      <path id="ArialMT-76" d="M 1344 0 
L 81 3319 
L 675 3319 
L 1388 1331 
Q 1503 1009 1600 663 
Q 1675 925 1809 1294 
L 2547 3319 
L 3125 3319 
L 1869 0 
L 1344 0 
z
" transform="scale(0.015625)"/>
      <path id="ArialMT-67" d="M 319 -275 
L 866 -356 
Q 900 -609 1056 -725 
Q 1266 -881 1628 -881 
Q 2019 -881 2231 -725 
Q 2444 -569 2519 -288 
Q 2563 -116 2559 434 
Q 2191 0 1641 0 
Q 956 0 581 494 
Q 206 988 206 1678 
Q 206 2153 378 2554 
Q 550 2956 876 3175 
Q 1203 3394 1644 3394 
Q 2231 3394 2613 2919 
L 2613 3319 
L 3131 3319 
L 3131 450 
Q 3131 -325 2973 -648 
Q 2816 -972 2473 -1159 
Q 2131 -1347 1631 -1347 
Q 1038 -1347 672 -1080 
Q 306 -813 319 -275 
z
M 784 1719 
Q 784 1066 1043 766 
Q 1303 466 1694 466 
Q 2081 466 2343 764 
Q 2606 1063 2606 1700 
Q 2606 2309 2336 2618 
Q 2066 2928 1684 2928 
Q 1309 2928 1046 2623 
Q 784 2319 784 1719 
z
" transform="scale(0.015625)"/>
      <path id="ArialMT-6b" d="M 425 0 
L 425 4581 
L 988 4581 
L 988 1969 
L 2319 3319 
L 3047 3319 
L 1778 2088 
L 3175 0 
L 2481 0 
L 1384 1697 
L 988 1316 
L 988 0 
L 425 0 
z
" transform="scale(0.015625)"/>
      <path id="ArialMT-73" d="M 197 991 
L 753 1078 
Q 800 744 1014 566 
Q 1228 388 1613 388 
Q 2000 388 2187 545 
Q 2375 703 2375 916 
Q 2375 1106 2209 1216 
Q 2094 1291 1634 1406 
Q 1016 1563 777 1677 
Q 538 1791 414 1992 
Q 291 2194 291 2438 
Q 291 2659 392 2848 
Q 494 3038 669 3163 
Q 800 3259 1026 3326 
Q 1253 3394 1513 3394 
Q 1903 3394 2198 3281 
Q 2494 3169 2634 2976 
Q 2775 2784 2828 2463 
L 2278 2388 
Q 2241 2644 2061 2787 
Q 1881 2931 1553 2931 
Q 1166 2931 1000 2803 
Q 834 2675 834 2503 
Q 834 2394 903 2306 
Q 972 2216 1119 2156 
Q 1203 2125 1616 2013 
Q 2213 1853 2448 1751 
Q 2684 1650 2818 1456 
Q 2953 1263 2953 975 
Q 2953 694 2789 445 
Q 2625 197 2315 61 
Q 2006 -75 1616 -75 
Q 969 -75 630 194 
Q 291 463 197 991 
z
" transform="scale(0.015625)"/>
      <path id="ArialMT-63" d="M 2588 1216 
L 3141 1144 
Q 3050 572 2676 248 
Q 2303 -75 1759 -75 
Q 1078 -75 664 370 
Q 250 816 250 1647 
Q 250 2184 428 2587 
Q 606 2991 970 3192 
Q 1334 3394 1763 3394 
Q 2303 3394 2647 3120 
Q 2991 2847 3088 2344 
L 2541 2259 
Q 2463 2594 2264 2762 
Q 2066 2931 1784 2931 
Q 1359 2931 1093 2626 
Q 828 2322 828 1663 
Q 828 994 1084 691 
Q 1341 388 1753 388 
Q 2084 388 2306 591 
Q 2528 794 2588 1216 
z
" transform="scale(0.015625)"/>
      <path id="ArialMT-6f" d="M 213 1659 
Q 213 2581 725 3025 
Q 1153 3394 1769 3394 
Q 2453 3394 2887 2945 
Q 3322 2497 3322 1706 
Q 3322 1066 3130 698 
Q 2938 331 2570 128 
Q 2203 -75 1769 -75 
Q 1072 -75 642 372 
Q 213 819 213 1659 
z
M 791 1659 
Q 791 1022 1069 705 
Q 1347 388 1769 388 
Q 2188 388 2466 706 
Q 2744 1025 2744 1678 
Q 2744 2294 2464 2611 
Q 2184 2928 1769 2928 
Q 1347 2928 1069 2612 
Q 791 2297 791 1659 
z
" transform="scale(0.015625)"/>
      <path id="ArialMT-66" d="M 556 0 
L 556 2881 
L 59 2881 
L 59 3319 
L 556 3319 
L 556 3672 
Q 556 4006 616 4169 
Q 697 4388 901 4523 
Q 1106 4659 1475 4659 
Q 1713 4659 2000 4603 
L 1916 4113 
Q 1741 4144 1584 4144 
Q 1328 4144 1222 4034 
Q 1116 3925 1116 3625 
L 1116 3319 
L 1763 3319 
L 1763 2881 
L 1116 2881 
L 1116 0 
L 556 0 
z
" transform="scale(0.015625)"/>
      <path id="ArialMT-6d" d="M 422 0 
L 422 3319 
L 925 3319 
L 925 2853 
Q 1081 3097 1340 3245 
Q 1600 3394 1931 3394 
Q 2300 3394 2536 3241 
Q 2772 3088 2869 2813 
Q 3263 3394 3894 3394 
Q 4388 3394 4653 3120 
Q 4919 2847 4919 2278 
L 4919 0 
L 4359 0 
L 4359 2091 
Q 4359 2428 4304 2576 
Q 4250 2725 4106 2815 
Q 3963 2906 3769 2906 
Q 3419 2906 3187 2673 
Q 2956 2441 2956 1928 
L 2956 0 
L 2394 0 
L 2394 2156 
Q 2394 2531 2256 2718 
Q 2119 2906 1806 2906 
Q 1569 2906 1367 2781 
Q 1166 2656 1075 2415 
Q 984 2175 984 1722 
L 984 0 
L 422 0 
z
" transform="scale(0.015625)"/>
      <path id="ArialMT-6e" d="M 422 0 
L 422 3319 
L 928 3319 
L 928 2847 
Q 1294 3394 1984 3394 
Q 2284 3394 2536 3286 
Q 2788 3178 2913 3003 
Q 3038 2828 3088 2588 
Q 3119 2431 3119 2041 
L 3119 0 
L 2556 0 
L 2556 2019 
Q 2556 2363 2490 2533 
Q 2425 2703 2258 2804 
Q 2091 2906 1866 2906 
Q 1506 2906 1245 2678 
Q 984 2450 984 1813 
L 984 0 
L 422 0 
z
" transform="scale(0.015625)"/>
      <path id="ArialMT-64" d="M 2575 0 
L 2575 419 
Q 2259 -75 1647 -75 
Q 1250 -75 917 144 
Q 584 363 401 755 
Q 219 1147 219 1656 
Q 219 2153 384 2558 
Q 550 2963 881 3178 
Q 1213 3394 1622 3394 
Q 1922 3394 2156 3267 
Q 2391 3141 2538 2938 
L 2538 4581 
L 3097 4581 
L 3097 0 
L 2575 0 
z
M 797 1656 
Q 797 1019 1065 703 
Q 1334 388 1700 388 
Q 2069 388 2326 689 
Q 2584 991 2584 1609 
Q 2584 2291 2321 2609 
Q 2059 2928 1675 2928 
Q 1300 2928 1048 2622 
Q 797 2316 797 1656 
z
" transform="scale(0.015625)"/>
     </defs>
     <use xlink:href="#ArialMT-59"/>
     <use xlink:href="#ArialMT-65" x="57.574219"/>
     <use xlink:href="#ArialMT-61" x="113.189453"/>
     <use xlink:href="#ArialMT-72" x="168.804688"/>
     <use xlink:href="#ArialMT-6c" x="202.105469"/>
     <use xlink:href="#ArialMT-79" x="224.322266"/>
     <use xlink:href="#ArialMT-20" x="274.322266"/>
     <use xlink:href="#ArialMT-61" x="302.105469"/>
     <use xlink:href="#ArialMT-76" x="357.720703"/>
     <use xlink:href="#ArialMT-65" x="407.720703"/>
     <use xlink:href="#ArialMT-72" x="463.335938"/>
     <use xlink:href="#ArialMT-61" x="496.636719"/>
     <use xlink:href="#ArialMT-67" x="552.251953"/>
     <use xlink:href="#ArialMT-65" x="607.867188"/>
     <use xlink:href="#ArialMT-20" x="663.482422"/>
     <use xlink:href="#ArialMT-67" x="691.265625"/>
     <use xlink:href="#ArialMT-65" x="746.880859"/>
     <use xlink:href="#ArialMT-65" x="802.496094"/>
     <use xlink:href="#ArialMT-6b" x="858.111328"/>
     <use xlink:href="#ArialMT-20" x="908.111328"/>
     <use xlink:href="#ArialMT-73" x="935.894531"/>
     <use xlink:href="#ArialMT-63" x="985.894531"/>
     <use xlink:href="#ArialMT-6f" x="1035.894531"/>
     <use xlink:href="#ArialMT-72" x="1091.509766"/>
     <use xlink:href="#ArialMT-65" x="1124.810547"/>
     <use xlink:href="#ArialMT-20" x="1180.425781"/>
     <use xlink:href="#ArialMT-66" x="1208.208984"/>
     <use xlink:href="#ArialMT-72" x="1235.992188"/>
     <use xlink:href="#ArialMT-6f" x="1269.292969"/>
     <use xlink:href="#ArialMT-6d" x="1324.908203"/>
     <use xlink:href="#ArialMT-20" x="1408.208984"/>
     <use xlink:href="#ArialMT-72" x="1435.992188"/>
     <use xlink:href="#ArialMT-61" x="1469.292969"/>
     <use xlink:href="#ArialMT-6e" x="1524.908203"/>
     <use xlink:href="#ArialMT-6b" x="1580.523438"/>
     <use xlink:href="#ArialMT-65" x="1630.523438"/>
     <use xlink:href="#ArialMT-64" x="1686.138672"/>
     <use xlink:href="#ArialMT-20" x="1741.753906"/>
     <use xlink:href="#ArialMT-67" x="1769.537109"/>
     <use xlink:href="#ArialMT-61" x="1825.152344"/>
     <use xlink:href="#ArialMT-6d" x="1880.767578"/>
     <use xlink:href="#ArialMT-65" x="1964.068359"/>
     <use xlink:href="#ArialMT-73" x="2019.683594"/>
    </g>
   </g>
  </g>
 </g>
 <defs>
  <clipPath id="p788feb7fb3">
   <rect x="37.15" y="25.44" width="412.85" height="292.28"/>
  </clipPath>
 </defs>
</svg>
