<?xml version="1.0" encoding="utf-8" standalone="no"?>
<!DOCTYPE svg PUBLIC "-//W3C//DTD SVG 1.1//EN"
  "http://www.w3.org/Graphics/SVG/1.1/DTD/svg11.dtd">
<svg xmlns:xlink="http://www.w3.org/1999/xlink" width="460.8pt" height="345.6pt" viewBox="0 0 460.8 345.6" xmlns="http://www.w3.org/2000/svg" version="1.1">
 <metadata>
  <rdf:RDF xmlns:dc="http://purl.org/dc/elements/1.1/" xmlns:cc="http://creativecommons.org/ns#" xmlns:rdf="http://www.w3.org/1999/02/22-rdf-syntax-ns#">
   <cc:Work>
    <dc:type rdf:resource="http://purl.org/dc/dcmitype/StillImage"/>
    <dc:date>2024-08-18T00:05:39.782969</dc:date>
    <dc:format>image/svg+xml</dc:format>
    <dc:creator>
     <cc:Agent>
      <dc:title>Matplotlib v3.9.2, https://matplotlib.org/</dc:title>
     </cc:Agent>
    </dc:creator>
   </cc:Work>
  </rdf:RDF>
 </metadata>
 <defs>
  <style type="text/css">*{stroke-linejoin: round; stroke-linecap: butt}</style>
 </defs>
 <g id="figure_1">
  <g id="patch_1">
   <path d="M 0 345.6 
L 460.8 345.6 
L 460.8 0 
L 0 0 
z
" style="fill: #ffffff"/>
  </g>
  <g id="axes_1">
   <g id="patch_2">
    <path d="M 37.15 317.72 
L 450 317.72 
L 450 25.44 
L 37.15 25.44 
z
" style="fill: #eaeaf2"/>
   </g>
   <g id="matplotlib.axis_1">
    <g id="xtick_1">
     <g id="text_1">
      <!-- 1970 -->
      <g style="fill: #262626" transform="translate(44.794034 331.877812) scale(0.1 -0.1)">
       <defs>
        <path id="ArialMT-31" d="M 2384 0 
L 1822 0 
L 1822 3584 
Q 1619 3391 1289 3197 
Q 959 3003 697 2906 
L 697 3450 
Q 1169 3672 1522 3987 
Q 1875 4303 2022 4600 
L 2384 4600 
L 2384 0 
z
" transform="scale(0.015625)"/>
        <path id="ArialMT-39" d="M 350 1059 
L 891 1109 
Q 959 728 1153 556 
Q 1347 384 1650 384 
Q 1909 384 2104 503 
Q 2300 622 2425 820 
Q 2550 1019 2634 1356 
Q 2719 1694 2719 2044 
Q 2719 2081 2716 2156 
Q 2547 1888 2255 1720 
Q 1963 1553 1622 1553 
Q 1053 1553 659 1965 
Q 266 2378 266 3053 
Q 266 3750 677 4175 
Q 1088 4600 1706 4600 
Q 2153 4600 2523 4359 
Q 2894 4119 3086 3673 
Q 3278 3228 3278 2384 
Q 3278 1506 3087 986 
Q 2897 466 2520 194 
Q 2144 -78 1638 -78 
Q 1100 -78 759 220 
Q 419 519 350 1059 
z
M 2653 3081 
Q 2653 3566 2395 3850 
Q 2138 4134 1775 4134 
Q 1400 4134 1122 3828 
Q 844 3522 844 3034 
Q 844 2597 1108 2323 
Q 1372 2050 1759 2050 
Q 2150 2050 2401 2323 
Q 2653 2597 2653 3081 
z
" transform="scale(0.015625)"/>
        <path id="ArialMT-37" d="M 303 3981 
L 303 4522 
L 3269 4522 
L 3269 4084 
Q 2831 3619 2401 2847 
Q 1972 2075 1738 1259 
Q 1569 684 1522 0 
L 944 0 
Q 953 541 1156 1306 
Q 1359 2072 1739 2783 
Q 2119 3494 2547 3981 
L 303 3981 
z
" transform="scale(0.015625)"/>
        <path id="ArialMT-30" d="M 266 2259 
Q 266 3072 433 3567 
Q 600 4063 929 4331 
Q 1259 4600 1759 4600 
Q 2128 4600 2406 4451 
Q 2684 4303 2865 4023 
Q 3047 3744 3150 3342 
Q 3253 2941 3253 2259 
Q 3253 1453 3087 958 
Q 2922 463 2592 192 
Q 2263 -78 1759 -78 
Q 1097 -78 719 397 
Q 266 969 266 2259 
z
M 844 2259 
Q 844 1131 1108 757 
Q 1372 384 1759 384 
Q 2147 384 2411 759 
Q 2675 1134 2675 2259 
Q 2675 3391 2411 3762 
Q 2147 4134 1753 4134 
Q 1366 4134 1134 3806 
Q 844 3388 844 2259 
z
" transform="scale(0.015625)"/>
       </defs>
       <use xlink:href="#ArialMT-31"/>
       <use xlink:href="#ArialMT-39" x="55.615234"/>
       <use xlink:href="#ArialMT-37" x="111.230469"/>
       <use xlink:href="#ArialMT-30" x="166.845703"/>
      </g>
     </g>
    </g>
    <g id="xtick_2">
     <g id="text_2">
      <!-- 1980 -->
      <g style="fill: #262626" transform="translate(115.608785 331.877812) scale(0.1 -0.1)">
       <defs>
        <path id="ArialMT-38" d="M 1131 2484 
Q 781 2613 612 2850 
Q 444 3088 444 3419 
Q 444 3919 803 4259 
Q 1163 4600 1759 4600 
Q 2359 4600 2725 4251 
Q 3091 3903 3091 3403 
Q 3091 3084 2923 2848 
Q 2756 2613 2416 2484 
Q 2838 2347 3058 2040 
Q 3278 1734 3278 1309 
Q 3278 722 2862 322 
Q 2447 -78 1769 -78 
Q 1091 -78 675 323 
Q 259 725 259 1325 
Q 259 1772 486 2073 
Q 713 2375 1131 2484 
z
M 1019 3438 
Q 1019 3113 1228 2906 
Q 1438 2700 1772 2700 
Q 2097 2700 2305 2904 
Q 2513 3109 2513 3406 
Q 2513 3716 2298 3927 
Q 2084 4138 1766 4138 
Q 1444 4138 1231 3931 
Q 1019 3725 1019 3438 
z
M 838 1322 
Q 838 1081 952 856 
Q 1066 631 1291 507 
Q 1516 384 1775 384 
Q 2178 384 2440 643 
Q 2703 903 2703 1303 
Q 2703 1709 2433 1975 
Q 2163 2241 1756 2241 
Q 1359 2241 1098 1978 
Q 838 1716 838 1322 
z
" transform="scale(0.015625)"/>
       </defs>
       <use xlink:href="#ArialMT-31"/>
       <use xlink:href="#ArialMT-39" x="55.615234"/>
       <use xlink:href="#ArialMT-38" x="111.230469"/>
       <use xlink:href="#ArialMT-30" x="166.845703"/>
      </g>
     </g>
    </g>
    <g id="xtick_3">
     <g id="text_3">
      <!-- 1990 -->
      <g style="fill: #262626" transform="translate(186.423537 331.877812) scale(0.1 -0.1)">
       <use xlink:href="#ArialMT-31"/>
       <use xlink:href="#ArialMT-39" x="55.615234"/>
       <use xlink:href="#ArialMT-39" x="111.230469"/>
       <use xlink:href="#ArialMT-30" x="166.845703"/>
      </g>
     </g>
    </g>
    <g id="xtick_4">
     <g id="text_4">
      <!-- 2000 -->
      <g style="fill: #262626" transform="translate(257.238288 331.877812) scale(0.1 -0.1)">
       <defs>
        <path id="ArialMT-32" d="M 3222 541 
L 3222 0 
L 194 0 
Q 188 203 259 391 
Q 375 700 629 1000 
Q 884 1300 1366 1694 
Q 2113 2306 2375 2664 
Q 2638 3022 2638 3341 
Q 2638 3675 2398 3904 
Q 2159 4134 1775 4134 
Q 1369 4134 1125 3890 
Q 881 3647 878 3216 
L 300 3275 
Q 359 3922 746 4261 
Q 1134 4600 1788 4600 
Q 2447 4600 2831 4234 
Q 3216 3869 3216 3328 
Q 3216 3053 3103 2787 
Q 2991 2522 2730 2228 
Q 2469 1934 1863 1422 
Q 1356 997 1212 845 
Q 1069 694 975 541 
L 3222 541 
z
" transform="scale(0.015625)"/>
       </defs>
       <use xlink:href="#ArialMT-32"/>
       <use xlink:href="#ArialMT-30" x="55.615234"/>
       <use xlink:href="#ArialMT-30" x="111.230469"/>
       <use xlink:href="#ArialMT-30" x="166.845703"/>
      </g>
     </g>
    </g>
    <g id="xtick_5">
     <g id="text_5">
      <!-- 2010 -->
      <g style="fill: #262626" transform="translate(328.053039 331.877812) scale(0.1 -0.1)">
       <use xlink:href="#ArialMT-32"/>
       <use xlink:href="#ArialMT-30" x="55.615234"/>
       <use xlink:href="#ArialMT-31" x="111.230469"/>
       <use xlink:href="#ArialMT-30" x="166.845703"/>
      </g>
     </g>
    </g>
    <g id="xtick_6">
     <g id="text_6">
      <!-- 2020 -->
      <g style="fill: #262626" transform="translate(398.867791 331.877812) scale(0.1 -0.1)">
       <use xlink:href="#ArialMT-32"/>
       <use xlink:href="#ArialMT-30" x="55.615234"/>
       <use xlink:href="#ArialMT-32" x="111.230469"/>
       <use xlink:href="#ArialMT-30" x="166.845703"/>
      </g>
     </g>
    </g>
   </g>
   <g id="matplotlib.axis_2">
    <g id="ytick_1">
     <g id="text_7">
      <!-- 5.50 -->
      <g style="fill: #262626" transform="translate(10.689062 310.961061) scale(0.1 -0.1)">
       <defs>
        <path id="ArialMT-35" d="M 266 1200 
L 856 1250 
Q 922 819 1161 601 
Q 1400 384 1738 384 
Q 2144 384 2425 690 
Q 2706 997 2706 1503 
Q 2706 1984 2436 2262 
Q 2166 2541 1728 2541 
Q 1456 2541 1237 2417 
Q 1019 2294 894 2097 
L 366 2166 
L 809 4519 
L 3088 4519 
L 3088 3981 
L 1259 3981 
L 1013 2750 
Q 1425 3038 1878 3038 
Q 2478 3038 2890 2622 
Q 3303 2206 3303 1553 
Q 3303 931 2941 478 
Q 2500 -78 1738 -78 
Q 1113 -78 717 272 
Q 322 622 266 1200 
z
" transform="scale(0.015625)"/>
        <path id="ArialMT-2e" d="M 581 0 
L 581 641 
L 1222 641 
L 1222 0 
L 581 0 
z
" transform="scale(0.015625)"/>
       </defs>
       <use xlink:href="#ArialMT-35"/>
       <use xlink:href="#ArialMT-2e" x="55.615234"/>
       <use xlink:href="#ArialMT-35" x="83.398438"/>
       <use xlink:href="#ArialMT-30" x="139.013672"/>
      </g>
     </g>
    </g>
    <g id="ytick_2">
     <g id="text_8">
      <!-- 5.55 -->
      <g style="fill: #262626" transform="translate(10.689062 254.606907) scale(0.1 -0.1)">
       <use xlink:href="#ArialMT-35"/>
       <use xlink:href="#ArialMT-2e" x="55.615234"/>
       <use xlink:href="#ArialMT-35" x="83.398438"/>
       <use xlink:href="#ArialMT-35" x="139.013672"/>
      </g>
     </g>
    </g>
    <g id="ytick_3">
     <g id="text_9">
      <!-- 5.60 -->
      <g style="fill: #262626" transform="translate(10.689062 198.252752) scale(0.1 -0.1)">
       <defs>
        <path id="ArialMT-36" d="M 3184 3459 
L 2625 3416 
Q 2550 3747 2413 3897 
Q 2184 4138 1850 4138 
Q 1581 4138 1378 3988 
Q 1113 3794 959 3422 
Q 806 3050 800 2363 
Q 1003 2672 1297 2822 
Q 1591 2972 1913 2972 
Q 2475 2972 2870 2558 
Q 3266 2144 3266 1488 
Q 3266 1056 3080 686 
Q 2894 316 2569 119 
Q 2244 -78 1831 -78 
Q 1128 -78 684 439 
Q 241 956 241 2144 
Q 241 3472 731 4075 
Q 1159 4600 1884 4600 
Q 2425 4600 2770 4297 
Q 3116 3994 3184 3459 
z
M 888 1484 
Q 888 1194 1011 928 
Q 1134 663 1356 523 
Q 1578 384 1822 384 
Q 2178 384 2434 671 
Q 2691 959 2691 1453 
Q 2691 1928 2437 2201 
Q 2184 2475 1800 2475 
Q 1419 2475 1153 2201 
Q 888 1928 888 1484 
z
" transform="scale(0.015625)"/>
       </defs>
       <use xlink:href="#ArialMT-35"/>
       <use xlink:href="#ArialMT-2e" x="55.615234"/>
       <use xlink:href="#ArialMT-36" x="83.398438"/>
       <use xlink:href="#ArialMT-30" x="139.013672"/>
      </g>
     </g>
    </g>
    <g id="ytick_4">
     <g id="text_10">
      <!-- 5.65 -->
      <g style="fill: #262626" transform="translate(10.689062 141.898597) scale(0.1 -0.1)">
       <use xlink:href="#ArialMT-35"/>
       <use xlink:href="#ArialMT-2e" x="55.615234"/>
       <use xlink:href="#ArialMT-36" x="83.398438"/>
       <use xlink:href="#ArialMT-35" x="139.013672"/>
      </g>
     </g>
    </g>
    <g id="ytick_5">
     <g id="text_11">
      <!-- 5.70 -->
      <g style="fill: #262626" transform="translate(10.689062 85.544442) scale(0.1 -0.1)">
       <use xlink:href="#ArialMT-35"/>
       <use xlink:href="#ArialMT-2e" x="55.615234"/>
       <use xlink:href="#ArialMT-37" x="83.398438"/>
       <use xlink:href="#ArialMT-30" x="139.013672"/>
      </g>
     </g>
    </g>
    <g id="ytick_6">
     <g id="text_12">
      <!-- 5.75 -->
      <g style="fill: #262626" transform="translate(10.689062 29.190287) scale(0.1 -0.1)">
       <use xlink:href="#ArialMT-35"/>
       <use xlink:href="#ArialMT-2e" x="55.615234"/>
       <use xlink:href="#ArialMT-37" x="83.398438"/>
       <use xlink:href="#ArialMT-35" x="139.013672"/>
      </g>
     </g>
    </g>
   </g>
   <g id="PathCollection_1">
    <path d="M 55.915909 280.879042 
C 56.046363 280.879042 56.171491 280.827212 56.263736 280.734967 
C 56.355981 280.642723 56.407811 280.517594 56.407811 280.38714 
C 56.407811 280.256687 56.355981 280.131558 56.263736 280.039313 
C 56.171491 279.947069 56.046363 279.895239 55.915909 279.895239 
C 55.785455 279.895239 55.660327 279.947069 55.568082 280.039313 
C 55.475837 280.131558 55.424007 280.256687 55.424007 280.38714 
C 55.424007 280.517594 55.475837 280.642723 55.568082 280.734967 
C 55.660327 280.827212 55.785455 280.879042 55.915909 280.879042 
z
" clip-path="url(#pca32efa3f2)" style="fill: #800080; fill-opacity: 0.8; stroke: #800080; stroke-opacity: 0.8"/>
    <path d="M 62.997384 243.934232 
C 63.126237 243.934232 63.24983 243.883038 63.340943 243.791925 
C 63.432056 243.700813 63.48325 243.57722 63.48325 243.448366 
C 63.48325 243.319513 63.432056 243.19592 63.340943 243.104807 
C 63.24983 243.013695 63.126237 242.962501 62.997384 242.962501 
C 62.868531 242.962501 62.744938 243.013695 62.653825 243.104807 
C 62.562712 243.19592 62.511518 243.319513 62.511518 243.448366 
C 62.511518 243.57722 62.562712 243.700813 62.653825 243.791925 
C 62.744938 243.883038 62.868531 243.934232 62.997384 243.934232 
z
" clip-path="url(#pca32efa3f2)" style="fill: #800080; fill-opacity: 0.8; stroke: #800080; stroke-opacity: 0.8"/>
    <path d="M 70.078859 271.986298 
C 70.248094 271.986298 70.41042 271.91906 70.530087 271.799393 
C 70.649754 271.679726 70.716992 271.5174 70.716992 271.348165 
C 70.716992 271.17893 70.649754 271.016604 70.530087 270.896937 
C 70.41042 270.77727 70.248094 270.710033 70.078859 270.710033 
C 69.909625 270.710033 69.747299 270.77727 69.627632 270.896937 
C 69.507964 271.016604 69.440727 271.17893 69.440727 271.348165 
C 69.440727 271.5174 69.507964 271.679726 69.627632 271.799393 
C 69.747299 271.91906 69.909625 271.986298 70.078859 271.986298 
z
" clip-path="url(#pca32efa3f2)" style="fill: #800080; fill-opacity: 0.8; stroke: #800080; stroke-opacity: 0.8"/>
    <path d="M 77.160334 265.639074 
C 77.336774 265.639074 77.506011 265.568974 77.630772 265.444213 
C 77.755534 265.319451 77.825634 265.150215 77.825634 264.973775 
C 77.825634 264.797336 77.755534 264.628099 77.630772 264.503338 
C 77.506011 264.378576 77.336774 264.308476 77.160334 264.308476 
C 76.983895 264.308476 76.814658 264.378576 76.689897 264.503338 
C 76.565135 264.628099 76.495035 264.797336 76.495035 264.973775 
C 76.495035 265.150215 76.565135 265.319451 76.689897 265.444213 
C 76.814658 265.568974 76.983895 265.639074 77.160334 265.639074 
z
" clip-path="url(#pca32efa3f2)" style="fill: #800080; fill-opacity: 0.8; stroke: #800080; stroke-opacity: 0.8"/>
    <path d="M 84.24181 225.300248 
C 84.419421 225.300248 84.589783 225.229682 84.715373 225.104091 
C 84.840963 224.978501 84.911529 224.808139 84.911529 224.630528 
C 84.911529 224.452916 84.840963 224.282555 84.715373 224.156964 
C 84.589783 224.031374 84.419421 223.960808 84.24181 223.960808 
C 84.064198 223.960808 83.893837 224.031374 83.768246 224.156964 
C 83.642656 224.282555 83.57209 224.452916 83.57209 224.630528 
C 83.57209 224.808139 83.642656 224.978501 83.768246 225.104091 
C 83.893837 225.229682 84.064198 225.300248 84.24181 225.300248 
z
" clip-path="url(#pca32efa3f2)" style="fill: #800080; fill-opacity: 0.8; stroke: #800080; stroke-opacity: 0.8"/>
    <path d="M 91.323285 275.37531 
C 91.551067 275.37531 91.769551 275.284811 91.930617 275.123744 
C 92.091683 274.962678 92.182182 274.744194 92.182182 274.516412 
C 92.182182 274.28863 92.091683 274.070146 91.930617 273.90908 
C 91.769551 273.748013 91.551067 273.657515 91.323285 273.657515 
C 91.095502 273.657515 90.877019 273.748013 90.715952 273.90908 
C 90.554886 274.070146 90.464387 274.28863 90.464387 274.516412 
C 90.464387 274.744194 90.554886 274.962678 90.715952 275.123744 
C 90.877019 275.284811 91.095502 275.37531 91.323285 275.37531 
z
" clip-path="url(#pca32efa3f2)" style="fill: #800080; fill-opacity: 0.8; stroke: #800080; stroke-opacity: 0.8"/>
    <path d="M 98.40476 254.810472 
C 98.575217 254.810472 98.738715 254.742749 98.859246 254.622218 
C 98.979777 254.501687 99.0475 254.338188 99.0475 254.167732 
C 99.0475 253.997275 98.979777 253.833777 98.859246 253.713246 
C 98.738715 253.592715 98.575217 253.524992 98.40476 253.524992 
C 98.234303 253.524992 98.070805 253.592715 97.950274 253.713246 
C 97.829743 253.833777 97.76202 253.997275 97.76202 254.167732 
C 97.76202 254.338188 97.829743 254.501687 97.950274 254.622218 
C 98.070805 254.742749 98.234303 254.810472 98.40476 254.810472 
z
" clip-path="url(#pca32efa3f2)" style="fill: #800080; fill-opacity: 0.8; stroke: #800080; stroke-opacity: 0.8"/>
    <path d="M 105.486235 208.629448 
C 105.701847 208.629448 105.908658 208.543785 106.061119 208.391324 
C 106.21358 208.238862 106.299244 208.032052 106.299244 207.816439 
C 106.299244 207.600827 106.21358 207.394016 106.061119 207.241555 
C 105.908658 207.089094 105.701847 207.00343 105.486235 207.00343 
C 105.270622 207.00343 105.063812 207.089094 104.911351 207.241555 
C 104.75889 207.394016 104.673226 207.600827 104.673226 207.816439 
C 104.673226 208.032052 104.75889 208.238862 104.911351 208.391324 
C 105.063812 208.543785 105.270622 208.629448 105.486235 208.629448 
z
" clip-path="url(#pca32efa3f2)" style="fill: #800080; fill-opacity: 0.8; stroke: #800080; stroke-opacity: 0.8"/>
    <path d="M 112.56771 280.247358 
C 112.774478 280.247358 112.972805 280.165209 113.119013 280.019002 
C 113.26522 279.872794 113.34737 279.674467 113.34737 279.467699 
C 113.34737 279.260931 113.26522 279.062604 113.119013 278.916397 
C 112.972805 278.770189 112.774478 278.68804 112.56771 278.68804 
C 112.360942 278.68804 112.162615 278.770189 112.016408 278.916397 
C 111.870201 279.062604 111.788051 279.260931 111.788051 279.467699 
C 111.788051 279.674467 111.870201 279.872794 112.016408 280.019002 
C 112.162615 280.165209 112.360942 280.247358 112.56771 280.247358 
z
" clip-path="url(#pca32efa3f2)" style="fill: #800080; fill-opacity: 0.8; stroke: #800080; stroke-opacity: 0.8"/>
    <path d="M 119.649185 213.242104 
C 119.888519 213.242104 120.118083 213.147015 120.287318 212.97778 
C 120.456552 212.808546 120.551641 212.578982 120.551641 212.339648 
C 120.551641 212.100314 120.456552 211.87075 120.287318 211.701515 
C 120.118083 211.532281 119.888519 211.437192 119.649185 211.437192 
C 119.409851 211.437192 119.180287 211.532281 119.011053 211.701515 
C 118.841818 211.87075 118.74673 212.100314 118.74673 212.339648 
C 118.74673 212.578982 118.841818 212.808546 119.011053 212.97778 
C 119.180287 213.147015 119.409851 213.242104 119.649185 213.242104 
z
" clip-path="url(#pca32efa3f2)" style="fill: #800080; fill-opacity: 0.8; stroke: #800080; stroke-opacity: 0.8"/>
    <path d="M 126.73066 223.80185 
C 126.964734 223.80185 127.189251 223.708852 127.354766 223.543337 
C 127.520281 223.377822 127.613279 223.153304 127.613279 222.919231 
C 127.613279 222.685158 127.520281 222.46064 127.354766 222.295125 
C 127.189251 222.12961 126.964734 222.036612 126.73066 222.036612 
C 126.496587 222.036612 126.272069 222.12961 126.106554 222.295125 
C 125.94104 222.46064 125.848041 222.685158 125.848041 222.919231 
C 125.848041 223.153304 125.94104 223.377822 126.106554 223.543337 
C 126.272069 223.708852 126.496587 223.80185 126.73066 223.80185 
z
" clip-path="url(#pca32efa3f2)" style="fill: #800080; fill-opacity: 0.8; stroke: #800080; stroke-opacity: 0.8"/>
    <path d="M 133.812136 247.512532 
C 134.069842 247.512532 134.317028 247.410145 134.499254 247.227919 
C 134.681479 247.045693 134.783867 246.798507 134.783867 246.540801 
C 134.783867 246.283094 134.681479 246.035909 134.499254 245.853683 
C 134.317028 245.671457 134.069842 245.569069 133.812136 245.569069 
C 133.554429 245.569069 133.307243 245.671457 133.125018 245.853683 
C 132.942792 246.035909 132.840404 246.283094 132.840404 246.540801 
C 132.840404 246.798507 132.942792 247.045693 133.125018 247.227919 
C 133.307243 247.410145 133.554429 247.512532 133.812136 247.512532 
z
" clip-path="url(#pca32efa3f2)" style="fill: #800080; fill-opacity: 0.8; stroke: #800080; stroke-opacity: 0.8"/>
    <path d="M 140.893611 230.633624 
C 141.131204 230.633624 141.359098 230.539227 141.527102 230.371224 
C 141.695106 230.20322 141.789503 229.975325 141.789503 229.737732 
C 141.789503 229.500139 141.695106 229.272244 141.527102 229.104241 
C 141.359098 228.936237 141.131204 228.84184 140.893611 228.84184 
C 140.656017 228.84184 140.428123 228.936237 140.260119 229.104241 
C 140.092115 229.272244 139.997718 229.500139 139.997718 229.737732 
C 139.997718 229.975325 140.092115 230.20322 140.260119 230.371224 
C 140.428123 230.539227 140.656017 230.633624 140.893611 230.633624 
z
" clip-path="url(#pca32efa3f2)" style="fill: #800080; fill-opacity: 0.8; stroke: #800080; stroke-opacity: 0.8"/>
    <path d="M 147.975086 227.891978 
C 148.222101 227.891978 148.459032 227.793838 148.633698 227.619172 
C 148.808364 227.444506 148.906505 227.207574 148.906505 226.960559 
C 148.906505 226.713544 148.808364 226.476613 148.633698 226.301947 
C 148.459032 226.127281 148.222101 226.02914 147.975086 226.02914 
C 147.728071 226.02914 147.491139 226.127281 147.316473 226.301947 
C 147.141807 226.476613 147.043667 226.713544 147.043667 226.960559 
C 147.043667 227.207574 147.141807 227.444506 147.316473 227.619172 
C 147.491139 227.793838 147.728071 227.891978 147.975086 227.891978 
z
" clip-path="url(#pca32efa3f2)" style="fill: #800080; fill-opacity: 0.8; stroke: #800080; stroke-opacity: 0.8"/>
    <path d="M 155.056561 249.509577 
C 155.268288 249.509577 155.471372 249.425457 155.621086 249.275743 
C 155.7708 249.12603 155.85492 248.922946 155.85492 248.711218 
C 155.85492 248.499491 155.7708 248.296407 155.621086 248.146693 
C 155.471372 247.99698 155.268288 247.912859 155.056561 247.912859 
C 154.844834 247.912859 154.64175 247.99698 154.492036 248.146693 
C 154.342322 248.296407 154.258202 248.499491 154.258202 248.711218 
C 154.258202 248.922946 154.342322 249.12603 154.492036 249.275743 
C 154.64175 249.425457 154.844834 249.509577 155.056561 249.509577 
z
" clip-path="url(#pca32efa3f2)" style="fill: #800080; fill-opacity: 0.8; stroke: #800080; stroke-opacity: 0.8"/>
    <path d="M 162.138036 214.988471 
C 162.376501 214.988471 162.605232 214.893728 162.773852 214.725108 
C 162.942473 214.556487 163.037216 214.327757 163.037216 214.089291 
C 163.037216 213.850826 162.942473 213.622096 162.773852 213.453475 
C 162.605232 213.284855 162.376501 213.190112 162.138036 213.190112 
C 161.899571 213.190112 161.67084 213.284855 161.50222 213.453475 
C 161.333599 213.622096 161.238856 213.850826 161.238856 214.089291 
C 161.238856 214.327757 161.333599 214.556487 161.50222 214.725108 
C 161.67084 214.893728 161.899571 214.988471 162.138036 214.988471 
z
" clip-path="url(#pca32efa3f2)" style="fill: #800080; fill-opacity: 0.8; stroke: #800080; stroke-opacity: 0.8"/>
    <path d="M 169.219511 198.097042 
C 169.473976 198.097042 169.718052 197.995942 169.897986 197.816008 
C 170.077919 197.636075 170.179019 197.391998 170.179019 197.137533 
C 170.179019 196.883069 170.077919 196.638992 169.897986 196.459059 
C 169.718052 196.279125 169.473976 196.178025 169.219511 196.178025 
C 168.965047 196.178025 168.72097 196.279125 168.541036 196.459059 
C 168.361103 196.638992 168.260003 196.883069 168.260003 197.137533 
C 168.260003 197.391998 168.361103 197.636075 168.541036 197.816008 
C 168.72097 197.995942 168.965047 198.097042 169.219511 198.097042 
z
" clip-path="url(#pca32efa3f2)" style="fill: #800080; fill-opacity: 0.8; stroke: #800080; stroke-opacity: 0.8"/>
    <path d="M 176.300986 239.259774 
C 176.546315 239.259774 176.781629 239.162303 176.955103 238.98883 
C 177.128577 238.815356 177.226047 238.580042 177.226047 238.334713 
C 177.226047 238.089384 177.128577 237.85407 176.955103 237.680596 
C 176.781629 237.507122 176.546315 237.409652 176.300986 237.409652 
C 176.055657 237.409652 175.820343 237.507122 175.646869 237.680596 
C 175.473396 237.85407 175.375925 238.089384 175.375925 238.334713 
C 175.375925 238.580042 175.473396 238.815356 175.646869 238.98883 
C 175.820343 239.162303 176.055657 239.259774 176.300986 239.259774 
z
" clip-path="url(#pca32efa3f2)" style="fill: #800080; fill-opacity: 0.8; stroke: #800080; stroke-opacity: 0.8"/>
    <path d="M 183.382461 235.993186 
C 183.624383 235.993186 183.856429 235.897069 184.027493 235.726005 
C 184.198557 235.554941 184.294674 235.322895 184.294674 235.080973 
C 184.294674 234.839052 184.198557 234.607006 184.027493 234.435942 
C 183.856429 234.264878 183.624383 234.168761 183.382461 234.168761 
C 183.14054 234.168761 182.908494 234.264878 182.73743 234.435942 
C 182.566366 234.607006 182.470249 234.839052 182.470249 235.080973 
C 182.470249 235.322895 182.566366 235.554941 182.73743 235.726005 
C 182.908494 235.897069 183.14054 235.993186 183.382461 235.993186 
z
" clip-path="url(#pca32efa3f2)" style="fill: #800080; fill-opacity: 0.8; stroke: #800080; stroke-opacity: 0.8"/>
    <path d="M 190.463937 221.708806 
C 190.705858 221.708806 190.937904 221.61269 191.108968 221.441626 
C 191.280032 221.270561 191.376149 221.038516 191.376149 220.796594 
C 191.376149 220.554673 191.280032 220.322627 191.108968 220.151563 
C 190.937904 219.980498 190.705858 219.884382 190.463937 219.884382 
C 190.222015 219.884382 189.989969 219.980498 189.818905 220.151563 
C 189.647841 220.322627 189.551724 220.554673 189.551724 220.796594 
C 189.551724 221.038516 189.647841 221.270561 189.818905 221.441626 
C 189.989969 221.61269 190.222015 221.708806 190.463937 221.708806 
z
" clip-path="url(#pca32efa3f2)" style="fill: #800080; fill-opacity: 0.8; stroke: #800080; stroke-opacity: 0.8"/>
    <path d="M 197.545412 229.755441 
C 197.799059 229.755441 198.042352 229.654666 198.221708 229.47531 
C 198.401064 229.295954 198.501839 229.052661 198.501839 228.799013 
C 198.501839 228.545365 198.401064 228.302072 198.221708 228.122716 
C 198.042352 227.94336 197.799059 227.842585 197.545412 227.842585 
C 197.291764 227.842585 197.048471 227.94336 196.869115 228.122716 
C 196.689759 228.302072 196.588984 228.545365 196.588984 228.799013 
C 196.588984 229.052661 196.689759 229.295954 196.869115 229.47531 
C 197.048471 229.654666 197.291764 229.755441 197.545412 229.755441 
z
" clip-path="url(#pca32efa3f2)" style="fill: #800080; fill-opacity: 0.8; stroke: #800080; stroke-opacity: 0.8"/>
    <path d="M 204.626887 227.294157 
C 204.900226 227.294157 205.162406 227.185558 205.355685 226.992279 
C 205.548965 226.798999 205.657564 226.536819 205.657564 226.26348 
C 205.657564 225.990141 205.548965 225.727961 205.355685 225.534681 
C 205.162406 225.341402 204.900226 225.232803 204.626887 225.232803 
C 204.353548 225.232803 204.091368 225.341402 203.898088 225.534681 
C 203.704808 225.727961 203.59621 225.990141 203.59621 226.26348 
C 203.59621 226.536819 203.704808 226.798999 203.898088 226.992279 
C 204.091368 227.185558 204.353548 227.294157 204.626887 227.294157 
z
" clip-path="url(#pca32efa3f2)" style="fill: #800080; fill-opacity: 0.8; stroke: #800080; stroke-opacity: 0.8"/>
    <path d="M 211.708362 212.645475 
C 212.005004 212.645475 212.289536 212.527617 212.499294 212.31786 
C 212.709052 212.108102 212.826909 211.82357 212.826909 211.526928 
C 212.826909 211.230285 212.709052 210.945753 212.499294 210.735995 
C 212.289536 210.526238 212.005004 210.408381 211.708362 210.408381 
C 211.41172 210.408381 211.127187 210.526238 210.91743 210.735995 
C 210.707672 210.945753 210.589815 211.230285 210.589815 211.526928 
C 210.589815 211.82357 210.707672 212.108102 210.91743 212.31786 
C 211.127187 212.527617 211.41172 212.645475 211.708362 212.645475 
z
" clip-path="url(#pca32efa3f2)" style="fill: #800080; fill-opacity: 0.8; stroke: #800080; stroke-opacity: 0.8"/>
    <path d="M 218.789837 226.78979 
C 219.075792 226.78979 219.350074 226.676179 219.552275 226.473978 
C 219.754476 226.271777 219.868087 225.997495 219.868087 225.71154 
C 219.868087 225.425585 219.754476 225.151303 219.552275 224.949102 
C 219.350074 224.746901 219.075792 224.63329 218.789837 224.63329 
C 218.503882 224.63329 218.2296 224.746901 218.027399 224.949102 
C 217.825198 225.151303 217.711587 225.425585 217.711587 225.71154 
C 217.711587 225.997495 217.825198 226.271777 218.027399 226.473978 
C 218.2296 226.676179 218.503882 226.78979 218.789837 226.78979 
z
" clip-path="url(#pca32efa3f2)" style="fill: #800080; fill-opacity: 0.8; stroke: #800080; stroke-opacity: 0.8"/>
    <path d="M 225.871312 209.762127 
C 226.152879 209.762127 226.422952 209.650259 226.62205 209.451161 
C 226.821147 209.252064 226.933015 208.981991 226.933015 208.700424 
C 226.933015 208.418857 226.821147 208.148785 226.62205 207.949687 
C 226.422952 207.750589 226.152879 207.638721 225.871312 207.638721 
C 225.589745 207.638721 225.319673 207.750589 225.120575 207.949687 
C 224.921477 208.148785 224.809609 208.418857 224.809609 208.700424 
C 224.809609 208.981991 224.921477 209.252064 225.120575 209.451161 
C 225.319673 209.650259 225.589745 209.762127 225.871312 209.762127 
z
" clip-path="url(#pca32efa3f2)" style="fill: #800080; fill-opacity: 0.8; stroke: #800080; stroke-opacity: 0.8"/>
    <path d="M 232.952787 179.928723 
C 233.257709 179.928723 233.550184 179.807576 233.765796 179.591964 
C 233.981409 179.376351 234.102556 179.083877 234.102556 178.778955 
C 234.102556 178.474033 233.981409 178.181558 233.765796 177.965946 
C 233.550184 177.750333 233.257709 177.629186 232.952787 177.629186 
C 232.647865 177.629186 232.355391 177.750333 232.139778 177.965946 
C 231.924166 178.181558 231.803019 178.474033 231.803019 178.778955 
C 231.803019 179.083877 231.924166 179.376351 232.139778 179.591964 
C 232.355391 179.807576 232.647865 179.928723 232.952787 179.928723 
z
" clip-path="url(#pca32efa3f2)" style="fill: #800080; fill-opacity: 0.8; stroke: #800080; stroke-opacity: 0.8"/>
    <path d="M 240.034262 224.698517 
C 240.34122 224.698517 240.635646 224.576562 240.852698 224.35951 
C 241.069749 224.142459 241.191704 223.848032 241.191704 223.541075 
C 241.191704 223.234118 241.069749 222.939691 240.852698 222.72264 
C 240.635646 222.505588 240.34122 222.383633 240.034262 222.383633 
C 239.727305 222.383633 239.432879 222.505588 239.215827 222.72264 
C 238.998776 222.939691 238.87682 223.234118 238.87682 223.541075 
C 238.87682 223.848032 238.998776 224.142459 239.215827 224.35951 
C 239.432879 224.576562 239.727305 224.698517 240.034262 224.698517 
z
" clip-path="url(#pca32efa3f2)" style="fill: #800080; fill-opacity: 0.8; stroke: #800080; stroke-opacity: 0.8"/>
    <path d="M 247.115738 202.550463 
C 247.430044 202.550463 247.73152 202.425588 247.953768 202.20334 
C 248.176016 201.981092 248.300892 201.679616 248.300892 201.365309 
C 248.300892 201.051003 248.176016 200.749527 247.953768 200.527279 
C 247.73152 200.305031 247.430044 200.180155 247.115738 200.180155 
C 246.801431 200.180155 246.499955 200.305031 246.277707 200.527279 
C 246.055459 200.749527 245.930583 201.051003 245.930583 201.365309 
C 245.930583 201.679616 246.055459 201.981092 246.277707 202.20334 
C 246.499955 202.425588 246.801431 202.550463 247.115738 202.550463 
z
" clip-path="url(#pca32efa3f2)" style="fill: #800080; fill-opacity: 0.8; stroke: #800080; stroke-opacity: 0.8"/>
    <path d="M 254.197213 205.609815 
C 254.525725 205.609815 254.840826 205.479295 255.07312 205.247002 
C 255.305413 205.014709 255.435932 204.699607 255.435932 204.371095 
C 255.435932 204.042583 255.305413 203.727481 255.07312 203.495188 
C 254.840826 203.262895 254.525725 203.132375 254.197213 203.132375 
C 253.8687 203.132375 253.553599 203.262895 253.321306 203.495188 
C 253.089012 203.727481 252.958493 204.042583 252.958493 204.371095 
C 252.958493 204.699607 253.089012 205.014709 253.321306 205.247002 
C 253.553599 205.479295 253.8687 205.609815 254.197213 205.609815 
z
" clip-path="url(#pca32efa3f2)" style="fill: #800080; fill-opacity: 0.8; stroke: #800080; stroke-opacity: 0.8"/>
    <path d="M 261.278688 145.593943 
C 261.621423 145.593943 261.950166 145.457773 262.192516 145.215423 
C 262.434866 144.973073 262.571036 144.644329 262.571036 144.301594 
C 262.571036 143.95886 262.434866 143.630116 262.192516 143.387766 
C 261.950166 143.145416 261.621423 143.009246 261.278688 143.009246 
C 260.935953 143.009246 260.60721 143.145416 260.36486 143.387766 
C 260.12251 143.630116 259.98634 143.95886 259.98634 144.301594 
C 259.98634 144.644329 260.12251 144.973073 260.36486 145.215423 
C 260.60721 145.457773 260.935953 145.593943 261.278688 145.593943 
z
" clip-path="url(#pca32efa3f2)" style="fill: #800080; fill-opacity: 0.8; stroke: #800080; stroke-opacity: 0.8"/>
    <path d="M 268.360163 182.314988 
C 268.717135 182.314988 269.059534 182.173161 269.311952 181.920744 
C 269.564369 181.668327 269.706195 181.325927 269.706195 180.968955 
C 269.706195 180.611984 269.564369 180.269584 269.311952 180.017167 
C 269.059534 179.76475 268.717135 179.622923 268.360163 179.622923 
C 268.003191 179.622923 267.660792 179.76475 267.408374 180.017167 
C 267.155957 180.269584 267.014131 180.611984 267.014131 180.968955 
C 267.014131 181.325927 267.155957 181.668327 267.408374 181.920744 
C 267.660792 182.173161 268.003191 182.314988 268.360163 182.314988 
z
" clip-path="url(#pca32efa3f2)" style="fill: #800080; fill-opacity: 0.8; stroke: #800080; stroke-opacity: 0.8"/>
    <path d="M 275.441638 190.434652 
C 275.80035 190.434652 276.144418 190.292134 276.398066 190.038487 
C 276.651713 189.784839 276.794231 189.440771 276.794231 189.082059 
C 276.794231 188.723347 276.651713 188.379279 276.398066 188.125631 
C 276.144418 187.871984 275.80035 187.729466 275.441638 187.729466 
C 275.082926 187.729466 274.738858 187.871984 274.48521 188.125631 
C 274.231563 188.379279 274.089045 188.723347 274.089045 189.082059 
C 274.089045 189.440771 274.231563 189.784839 274.48521 190.038487 
C 274.738858 190.292134 275.082926 190.434652 275.441638 190.434652 
z
" clip-path="url(#pca32efa3f2)" style="fill: #800080; fill-opacity: 0.8; stroke: #800080; stroke-opacity: 0.8"/>
    <path d="M 282.523113 178.448054 
C 282.904266 178.448054 283.269859 178.29662 283.539374 178.027104 
C 283.80889 177.757589 283.960324 177.391996 283.960324 177.010843 
C 283.960324 176.62969 283.80889 176.264098 283.539374 175.994582 
C 283.269859 175.725066 282.904266 175.573633 282.523113 175.573633 
C 282.141961 175.573633 281.776368 175.725066 281.506852 175.994582 
C 281.237336 176.264098 281.085903 176.62969 281.085903 177.010843 
C 281.085903 177.391996 281.237336 177.757589 281.506852 178.027104 
C 281.776368 178.29662 282.141961 178.448054 282.523113 178.448054 
z
" clip-path="url(#pca32efa3f2)" style="fill: #800080; fill-opacity: 0.8; stroke: #800080; stroke-opacity: 0.8"/>
    <path d="M 289.604588 171.708378 
C 290.024598 171.708378 290.427462 171.541507 290.724454 171.244515 
C 291.021445 170.947523 291.188317 170.544659 291.188317 170.12465 
C 291.188317 169.70464 291.021445 169.301776 290.724454 169.004784 
C 290.427462 168.707792 290.024598 168.540921 289.604588 168.540921 
C 289.184579 168.540921 288.781715 168.707792 288.484723 169.004784 
C 288.187731 169.301776 288.02086 169.70464 288.02086 170.12465 
C 288.02086 170.544659 288.187731 170.947523 288.484723 171.244515 
C 288.781715 171.541507 289.184579 171.708378 289.604588 171.708378 
z
" clip-path="url(#pca32efa3f2)" style="fill: #800080; fill-opacity: 0.8; stroke: #800080; stroke-opacity: 0.8"/>
    <path d="M 296.686063 139.25995 
C 297.147512 139.25995 297.590124 139.076614 297.916417 138.750321 
C 298.242711 138.424027 298.426047 137.981416 298.426047 137.519967 
C 298.426047 137.058518 298.242711 136.615907 297.916417 136.289613 
C 297.590124 135.963319 297.147512 135.779984 296.686063 135.779984 
C 296.224615 135.779984 295.782003 135.963319 295.45571 136.289613 
C 295.129416 136.615907 294.94608 137.058518 294.94608 137.519967 
C 294.94608 137.981416 295.129416 138.424027 295.45571 138.750321 
C 295.782003 139.076614 296.224615 139.25995 296.686063 139.25995 
z
" clip-path="url(#pca32efa3f2)" style="fill: #800080; fill-opacity: 0.8; stroke: #800080; stroke-opacity: 0.8"/>
    <path d="M 303.767539 142.146167 
C 304.248801 142.146167 304.710417 141.95496 305.050721 141.614656 
C 305.391025 141.274352 305.582233 140.812736 305.582233 140.331473 
C 305.582233 139.850211 305.391025 139.388595 305.050721 139.048291 
C 304.710417 138.707987 304.248801 138.516779 303.767539 138.516779 
C 303.286276 138.516779 302.82466 138.707987 302.484356 139.048291 
C 302.144052 139.388595 301.952844 139.850211 301.952844 140.331473 
C 301.952844 140.812736 302.144052 141.274352 302.484356 141.614656 
C 302.82466 141.95496 303.286276 142.146167 303.767539 142.146167 
z
" clip-path="url(#pca32efa3f2)" style="fill: #800080; fill-opacity: 0.8; stroke: #800080; stroke-opacity: 0.8"/>
    <path d="M 310.849014 167.094022 
C 311.322888 167.094022 311.777418 166.90575 312.112498 166.57067 
C 312.447578 166.235589 312.635851 165.78106 312.635851 165.307185 
C 312.635851 164.83331 312.447578 164.37878 312.112498 164.0437 
C 311.777418 163.70862 311.322888 163.520348 310.849014 163.520348 
C 310.375139 163.520348 309.920609 163.70862 309.585529 164.0437 
C 309.250449 164.37878 309.062177 164.83331 309.062177 165.307185 
C 309.062177 165.78106 309.250449 166.235589 309.585529 166.57067 
C 309.920609 166.90575 310.375139 167.094022 310.849014 167.094022 
z
" clip-path="url(#pca32efa3f2)" style="fill: #800080; fill-opacity: 0.8; stroke: #800080; stroke-opacity: 0.8"/>
    <path d="M 317.930489 131.306301 
C 318.41132 131.306301 318.872522 131.115265 319.212521 130.775266 
C 319.55252 130.435267 319.743556 129.974065 319.743556 129.493234 
C 319.743556 129.012403 319.55252 128.5512 319.212521 128.211201 
C 318.872522 127.871203 318.41132 127.680166 317.930489 127.680166 
C 317.449658 127.680166 316.988456 127.871203 316.648457 128.211201 
C 316.308458 128.5512 316.117422 129.012403 316.117422 129.493234 
C 316.117422 129.974065 316.308458 130.435267 316.648457 130.775266 
C 316.988456 131.115265 317.449658 131.306301 317.930489 131.306301 
z
" clip-path="url(#pca32efa3f2)" style="fill: #800080; fill-opacity: 0.8; stroke: #800080; stroke-opacity: 0.8"/>
    <path d="M 325.011964 124.827777 
C 325.514326 124.827777 325.99618 124.628186 326.351404 124.272963 
C 326.706627 123.917739 326.906218 123.435885 326.906218 122.933523 
C 326.906218 122.431161 326.706627 121.949307 326.351404 121.594084 
C 325.99618 121.23886 325.514326 121.03927 325.011964 121.03927 
C 324.509602 121.03927 324.027748 121.23886 323.672524 121.594084 
C 323.317301 121.949307 323.11771 122.431161 323.11771 122.933523 
C 323.11771 123.435885 323.317301 123.917739 323.672524 124.272963 
C 324.027748 124.628186 324.509602 124.827777 325.011964 124.827777 
z
" clip-path="url(#pca32efa3f2)" style="fill: #800080; fill-opacity: 0.8; stroke: #800080; stroke-opacity: 0.8"/>
    <path d="M 332.093439 111.011427 
C 332.622757 111.011427 333.130467 110.801127 333.504752 110.426843 
C 333.879036 110.052558 334.089337 109.544848 334.089337 109.01553 
C 334.089337 108.486212 333.879036 107.978502 333.504752 107.604217 
C 333.130467 107.229933 332.622757 107.019633 332.093439 107.019633 
C 331.564121 107.019633 331.056411 107.229933 330.682126 107.604217 
C 330.307842 107.978502 330.097542 108.486212 330.097542 109.01553 
C 330.097542 109.544848 330.307842 110.052558 330.682126 110.426843 
C 331.056411 110.801127 331.564121 111.011427 332.093439 111.011427 
z
" clip-path="url(#pca32efa3f2)" style="fill: #800080; fill-opacity: 0.8; stroke: #800080; stroke-opacity: 0.8"/>
    <path d="M 339.174914 110.374667 
C 339.728008 110.374667 340.258523 110.154921 340.649619 109.763824 
C 341.040715 109.372728 341.260462 108.842213 341.260462 108.28912 
C 341.260462 107.736026 341.040715 107.205511 340.649619 106.814415 
C 340.258523 106.423319 339.728008 106.203572 339.174914 106.203572 
C 338.621821 106.203572 338.091306 106.423319 337.700209 106.814415 
C 337.309113 107.205511 337.089367 107.736026 337.089367 108.28912 
C 337.089367 108.842213 337.309113 109.372728 337.700209 109.763824 
C 338.091306 110.154921 338.621821 110.374667 339.174914 110.374667 
z
" clip-path="url(#pca32efa3f2)" style="fill: #800080; fill-opacity: 0.8; stroke: #800080; stroke-opacity: 0.8"/>
    <path d="M 346.256389 84.05767 
C 346.82283 84.05767 347.366148 83.832621 347.766682 83.432086 
C 348.167216 83.031552 348.392266 82.488235 348.392266 81.921794 
C 348.392266 81.355353 348.167216 80.812035 347.766682 80.411501 
C 347.366148 80.010967 346.82283 79.785918 346.256389 79.785918 
C 345.689948 79.785918 345.146631 80.010967 344.746097 80.411501 
C 344.345563 80.812035 344.120513 81.355353 344.120513 81.921794 
C 344.120513 82.488235 344.345563 83.031552 344.746097 83.432086 
C 345.146631 83.832621 345.689948 84.05767 346.256389 84.05767 
z
" clip-path="url(#pca32efa3f2)" style="fill: #800080; fill-opacity: 0.8; stroke: #800080; stroke-opacity: 0.8"/>
    <path d="M 353.337864 85.284703 
C 353.938795 85.284703 354.515195 85.04595 354.940117 84.621028 
C 355.365039 84.196106 355.603792 83.619706 355.603792 83.018775 
C 355.603792 82.417844 355.365039 81.841445 354.940117 81.416523 
C 354.515195 80.991601 353.938795 80.752848 353.337864 80.752848 
C 352.736934 80.752848 352.160534 80.991601 351.735612 81.416523 
C 351.31069 81.841445 351.071937 82.417844 351.071937 83.018775 
C 351.071937 83.619706 351.31069 84.196106 351.735612 84.621028 
C 352.160534 85.04595 352.736934 85.284703 353.337864 85.284703 
z
" clip-path="url(#pca32efa3f2)" style="fill: #800080; fill-opacity: 0.8; stroke: #800080; stroke-opacity: 0.8"/>
    <path d="M 360.41934 98.048738 
C 361.036962 98.048738 361.62937 97.803354 362.066095 97.366629 
C 362.50282 96.929905 362.748203 96.337496 362.748203 95.719874 
C 362.748203 95.102252 362.50282 94.509843 362.066095 94.073119 
C 361.62937 93.636394 361.036962 93.39101 360.41934 93.39101 
C 359.801718 93.39101 359.209309 93.636394 358.772584 94.073119 
C 358.33586 94.509843 358.090476 95.102252 358.090476 95.719874 
C 358.090476 96.337496 358.33586 96.929905 358.772584 97.366629 
C 359.209309 97.803354 359.801718 98.048738 360.41934 98.048738 
z
" clip-path="url(#pca32efa3f2)" style="fill: #800080; fill-opacity: 0.8; stroke: #800080; stroke-opacity: 0.8"/>
    <path d="M 367.500815 86.390204 
C 368.165689 86.390204 368.803422 86.126046 369.273559 85.655909 
C 369.743697 85.185772 370.007854 84.548039 370.007854 83.883164 
C 370.007854 83.21829 369.743697 82.580557 369.273559 82.11042 
C 368.803422 81.640283 368.165689 81.376125 367.500815 81.376125 
C 366.83594 81.376125 366.198208 81.640283 365.72807 82.11042 
C 365.257933 82.580557 364.993775 83.21829 364.993775 83.883164 
C 364.993775 84.548039 365.257933 85.185772 365.72807 85.655909 
C 366.198208 86.126046 366.83594 86.390204 367.500815 86.390204 
z
" clip-path="url(#pca32efa3f2)" style="fill: #800080; fill-opacity: 0.8; stroke: #800080; stroke-opacity: 0.8"/>
    <path d="M 374.58229 62.217628 
C 375.295652 62.217628 375.979893 61.934206 376.484316 61.429783 
C 376.98874 60.92536 377.272162 60.241119 377.272162 59.527757 
C 377.272162 58.814394 376.98874 58.130153 376.484316 57.62573 
C 375.979893 57.121307 375.295652 56.837885 374.58229 56.837885 
C 373.868928 56.837885 373.184687 57.121307 372.680263 57.62573 
C 372.17584 58.130153 371.892418 58.814394 371.892418 59.527757 
C 371.892418 60.241119 372.17584 60.92536 372.680263 61.429783 
C 373.184687 61.934206 373.868928 62.217628 374.58229 62.217628 
z
" clip-path="url(#pca32efa3f2)" style="fill: #800080; fill-opacity: 0.8; stroke: #800080; stroke-opacity: 0.8"/>
    <path d="M 381.663765 74.07516 
C 382.422249 74.07516 383.14977 73.773811 383.686099 73.237481 
C 384.222429 72.701152 384.523778 71.973631 384.523778 71.215147 
C 384.523778 70.456663 384.222429 69.729142 383.686099 69.192813 
C 383.14977 68.656483 382.422249 68.355134 381.663765 68.355134 
C 380.905281 68.355134 380.17776 68.656483 379.641431 69.192813 
C 379.105101 69.729142 378.803752 70.456663 378.803752 71.215147 
C 378.803752 71.973631 379.105101 72.701152 379.641431 73.237481 
C 380.17776 73.773811 380.905281 74.07516 381.663765 74.07516 
z
" clip-path="url(#pca32efa3f2)" style="fill: #800080; fill-opacity: 0.8; stroke: #800080; stroke-opacity: 0.8"/>
    <path d="M 388.74524 55.054553 
C 389.522909 55.054553 390.268831 54.745582 390.818726 54.195687 
C 391.368621 53.645792 391.677592 52.89987 391.677592 52.122201 
C 391.677592 51.344532 391.368621 50.59861 390.818726 50.048715 
C 390.268831 49.49882 389.522909 49.189849 388.74524 49.189849 
C 387.967571 49.189849 387.221649 49.49882 386.671754 50.048715 
C 386.121859 50.59861 385.812888 51.344532 385.812888 52.122201 
C 385.812888 52.89987 386.121859 53.645792 386.671754 54.195687 
C 387.221649 54.745582 387.967571 55.054553 388.74524 55.054553 
z
" clip-path="url(#pca32efa3f2)" style="fill: #800080; fill-opacity: 0.8; stroke: #800080; stroke-opacity: 0.8"/>
    <path d="M 395.826715 58.989854 
C 396.614723 58.989854 397.370563 58.676775 397.927769 58.119569 
C 398.484975 57.562363 398.798054 56.806524 398.798054 56.018516 
C 398.798054 55.230508 398.484975 54.474668 397.927769 53.917462 
C 397.370563 53.360256 396.614723 53.047177 395.826715 53.047177 
C 395.038707 53.047177 394.282868 53.360256 393.725662 53.917462 
C 393.168456 54.474668 392.855377 55.230508 392.855377 56.018516 
C 392.855377 56.806524 393.168456 57.562363 393.725662 58.119569 
C 394.282868 58.676775 395.038707 58.989854 395.826715 58.989854 
z
" clip-path="url(#pca32efa3f2)" style="fill: #800080; fill-opacity: 0.8; stroke: #800080; stroke-opacity: 0.8"/>
    <path d="M 402.90819 41.725455 
C 403.7038 41.725455 404.46693 41.409356 405.029511 40.846775 
C 405.592091 40.284194 405.90819 39.521064 405.90819 38.725455 
C 405.90819 37.929845 405.592091 37.166715 405.029511 36.604134 
C 404.46693 36.041553 403.7038 35.725455 402.90819 35.725455 
C 402.112581 35.725455 401.349451 36.041553 400.78687 36.604134 
C 400.224289 37.166715 399.90819 37.929845 399.90819 38.725455 
C 399.90819 39.521064 400.224289 40.284194 400.78687 40.846775 
C 401.349451 41.409356 402.112581 41.725455 402.90819 41.725455 
z
" clip-path="url(#pca32efa3f2)" style="fill: #800080; fill-opacity: 0.8; stroke: #800080; stroke-opacity: 0.8"/>
    <path d="M 409.989666 51.466018 
C 410.709976 51.466018 411.400882 51.179836 411.910219 50.670499 
C 412.419555 50.161162 412.705738 49.470257 412.705738 48.749946 
C 412.705738 48.029635 412.419555 47.338729 411.910219 46.829393 
C 411.400882 46.320056 410.709976 46.033874 409.989666 46.033874 
C 409.269355 46.033874 408.578449 46.320056 408.069112 46.829393 
C 407.559776 47.338729 407.273593 48.029635 407.273593 48.749946 
C 407.273593 49.470257 407.559776 50.161162 408.069112 50.670499 
C 408.578449 51.179836 409.269355 51.466018 409.989666 51.466018 
z
" clip-path="url(#pca32efa3f2)" style="fill: #800080; fill-opacity: 0.8; stroke: #800080; stroke-opacity: 0.8"/>
    <path d="M 417.071141 49.179028 
C 417.787117 49.179028 418.473864 48.894568 418.980136 48.388297 
C 419.486407 47.882025 419.770867 47.195277 419.770867 46.479302 
C 419.770867 45.763326 419.486407 45.076578 418.980136 44.570306 
C 418.473864 44.064035 417.787117 43.779575 417.071141 43.779575 
C 416.355165 43.779575 415.668417 44.064035 415.162146 44.570306 
C 414.655874 45.076578 414.371414 45.763326 414.371414 46.479302 
C 414.371414 47.195277 414.655874 47.882025 415.162146 48.388297 
C 415.668417 48.894568 416.355165 49.179028 417.071141 49.179028 
z
" clip-path="url(#pca32efa3f2)" style="fill: #800080; fill-opacity: 0.8; stroke: #800080; stroke-opacity: 0.8"/>
    <path d="M 424.152616 59.408942 
C 424.881804 59.408942 425.581224 59.119233 426.096838 58.603619 
C 426.612452 58.088005 426.902161 57.388585 426.902161 56.659397 
C 426.902161 55.930209 426.612452 55.230788 426.096838 54.715174 
C 425.581224 54.199561 424.881804 53.909851 424.152616 53.909851 
C 423.423428 53.909851 422.724007 54.199561 422.208394 54.715174 
C 421.69278 55.230788 421.40307 55.930209 421.40307 56.659397 
C 421.40307 57.388585 421.69278 58.088005 422.208394 58.603619 
C 422.724007 59.119233 423.423428 59.408942 424.152616 59.408942 
z
" clip-path="url(#pca32efa3f2)" style="fill: #800080; fill-opacity: 0.8; stroke: #800080; stroke-opacity: 0.8"/>
    <path d="M 431.234091 92.793779 
C 431.918652 92.793779 432.575266 92.5218 433.059324 92.037742 
C 433.543381 91.553685 433.81536 90.89707 433.81536 90.21251 
C 433.81536 89.527949 433.543381 88.871334 433.059324 88.387277 
C 432.575266 87.903219 431.918652 87.63124 431.234091 87.63124 
C 430.54953 87.63124 429.892915 87.903219 429.408858 88.387277 
C 428.9248 88.871334 428.652822 89.527949 428.652822 90.21251 
C 428.652822 90.89707 428.9248 91.553685 429.408858 92.037742 
C 429.892915 92.5218 430.54953 92.793779 431.234091 92.793779 
z
" clip-path="url(#pca32efa3f2)" style="fill: #800080; fill-opacity: 0.8; stroke: #800080; stroke-opacity: 0.8"/>
   </g>
   <g id="PolyCollection_1">
    <defs>
     <path id="m442cbf5495" d="M 55.915909 -69.833355 
L 55.915909 -41.165455 
L 59.707002 -43.762622 
L 63.498095 -46.383913 
L 67.289187 -48.966803 
L 71.08028 -51.47865 
L 74.871373 -54.054968 
L 78.662466 -56.631293 
L 82.453558 -59.210733 
L 86.244651 -61.790173 
L 90.035744 -64.369613 
L 93.826837 -66.992559 
L 97.617929 -69.619807 
L 101.409022 -72.247055 
L 105.200115 -74.874303 
L 108.991208 -77.41649 
L 112.7823 -79.919044 
L 116.573393 -82.421624 
L 120.364486 -85.015565 
L 124.155579 -87.613146 
L 127.946671 -90.151542 
L 131.737764 -92.728676 
L 135.528857 -95.226666 
L 139.319949 -97.784108 
L 143.111042 -100.366924 
L 146.902135 -102.949739 
L 150.693228 -105.527465 
L 154.48432 -108.033789 
L 158.275413 -110.441344 
L 162.066506 -112.922487 
L 165.857599 -115.437789 
L 169.648691 -118.004809 
L 173.439784 -120.571997 
L 177.230877 -123.043843 
L 181.02197 -125.63543 
L 184.813062 -128.140984 
L 188.604155 -130.651212 
L 192.395248 -133.165641 
L 196.186341 -135.591837 
L 199.977433 -137.984169 
L 203.768526 -140.561287 
L 207.559619 -143.066535 
L 211.350712 -145.526158 
L 215.141804 -148.010927 
L 218.932897 -150.387933 
L 222.72399 -152.788236 
L 226.515083 -155.139115 
L 230.306175 -157.439419 
L 234.097268 -159.73339 
L 237.888361 -161.99996 
L 241.679454 -164.26205 
L 245.470546 -166.705238 
L 249.261639 -168.974525 
L 253.052732 -171.456067 
L 256.843825 -173.586295 
L 260.634917 -175.699526 
L 264.42601 -177.954644 
L 268.217103 -180.236963 
L 272.008196 -182.520755 
L 275.799288 -184.804547 
L 279.590381 -187.088339 
L 283.381474 -189.306797 
L 287.172567 -191.430611 
L 290.963659 -193.710372 
L 294.754752 -195.91461 
L 298.545845 -198.036522 
L 302.336938 -200.11757 
L 306.12803 -202.198351 
L 309.919123 -204.285092 
L 313.710216 -206.489278 
L 317.501309 -208.658272 
L 321.292401 -210.782975 
L 325.083494 -212.912359 
L 328.874587 -215.133054 
L 332.66568 -217.421178 
L 336.456772 -219.711591 
L 340.247865 -221.936373 
L 344.038958 -224.145138 
L 347.830051 -226.309469 
L 351.621143 -228.452725 
L 355.412236 -230.654046 
L 359.203329 -232.807911 
L 362.994421 -234.963398 
L 366.785514 -237.116975 
L 370.576607 -239.269508 
L 374.3677 -241.423373 
L 378.158792 -243.577239 
L 381.949885 -245.697219 
L 385.740978 -247.845364 
L 389.532071 -250.040667 
L 393.323163 -252.193892 
L 397.114256 -254.347117 
L 400.905349 -256.500431 
L 404.696442 -258.53206 
L 408.487534 -260.555063 
L 412.278627 -262.693367 
L 416.06972 -264.832872 
L 419.860813 -266.972376 
L 423.651905 -269.0525 
L 427.442998 -271.220231 
L 431.234091 -273.320159 
L 431.234091 -299.645472 
L 431.234091 -299.645472 
L 427.442998 -297.092507 
L 423.651905 -294.522358 
L 419.860813 -291.919796 
L 416.06972 -289.432347 
L 412.278627 -286.923535 
L 408.487534 -284.4913 
L 404.696442 -282.054046 
L 400.905349 -279.567379 
L 397.114256 -277.173246 
L 393.323163 -274.646737 
L 389.532071 -272.11579 
L 385.740978 -269.543682 
L 381.949885 -266.971168 
L 378.158792 -264.462586 
L 374.3677 -261.845562 
L 370.576607 -259.406961 
L 366.785514 -256.963915 
L 362.994421 -254.43188 
L 359.203329 -251.97816 
L 355.412236 -249.496923 
L 351.621143 -247.091385 
L 347.830051 -244.63912 
L 344.038958 -242.224496 
L 340.247865 -239.789721 
L 336.456772 -237.347611 
L 332.66568 -234.928419 
L 328.874587 -232.494062 
L 325.083494 -230.169744 
L 321.292401 -227.772502 
L 317.501309 -225.31185 
L 313.710216 -222.888228 
L 309.919123 -220.451039 
L 306.12803 -218.000701 
L 302.336938 -215.676781 
L 298.545845 -213.30897 
L 294.754752 -210.858097 
L 290.963659 -208.405647 
L 287.172567 -206.030151 
L 283.381474 -203.646298 
L 279.590381 -201.376114 
L 275.799288 -199.067042 
L 272.008196 -196.723228 
L 268.217103 -194.353401 
L 264.42601 -192.028513 
L 260.634917 -189.55625 
L 256.843825 -187.110153 
L 253.052732 -184.73651 
L 249.261639 -182.426976 
L 245.470546 -180.056323 
L 241.679454 -177.788127 
L 237.888361 -175.572945 
L 234.097268 -173.272747 
L 230.306175 -170.942812 
L 226.515083 -168.67495 
L 222.72399 -166.368023 
L 218.932897 -164.061566 
L 215.141804 -161.801056 
L 211.350712 -159.505036 
L 207.559619 -157.226106 
L 203.768526 -154.959314 
L 199.977433 -152.735185 
L 196.186341 -150.531507 
L 192.395248 -148.286959 
L 188.604155 -146.07967 
L 184.813062 -143.76624 
L 181.02197 -141.603332 
L 177.230877 -139.38435 
L 173.439784 -137.028933 
L 169.648691 -134.824916 
L 165.857599 -132.620899 
L 162.066506 -130.416882 
L 158.275413 -128.242917 
L 154.48432 -126.078025 
L 150.693228 -123.818759 
L 146.902135 -121.60839 
L 143.111042 -119.396796 
L 139.319949 -117.1781 
L 135.528857 -114.990167 
L 131.737764 -112.761134 
L 127.946671 -110.583282 
L 124.155579 -108.379359 
L 120.364486 -106.250419 
L 116.573393 -104.125022 
L 112.7823 -102.002046 
L 108.991208 -99.878502 
L 105.200115 -97.754958 
L 101.409022 -95.631413 
L 97.617929 -93.496049 
L 93.826837 -91.345432 
L 90.035744 -89.194816 
L 86.244651 -87.044199 
L 82.453558 -84.893582 
L 78.662466 -82.742965 
L 74.871373 -80.592348 
L 71.08028 -78.441732 
L 67.289187 -76.402176 
L 63.498095 -74.338372 
L 59.707002 -72.075502 
L 55.915909 -69.833355 
z
" style="stroke: #ffffff; stroke-opacity: 0.15"/>
    </defs>
    <g clip-path="url(#pca32efa3f2)">
     <use xlink:href="#m442cbf5495" x="0" y="345.6" style="fill: #800080; fill-opacity: 0.15; stroke: #ffffff; stroke-opacity: 0.15"/>
    </g>
   </g>
   <g id="line2d_1">
    <path d="M 55.915909 289.038188 
L 59.707002 286.693643 
L 63.498095 284.349099 
L 67.289187 282.004554 
L 71.08028 279.660009 
L 74.871373 277.315465 
L 78.662466 274.97092 
L 82.453558 272.626376 
L 86.244651 270.281831 
L 90.035744 267.937286 
L 93.826837 265.592742 
L 97.617929 263.248197 
L 101.409022 260.903652 
L 105.200115 258.559108 
L 108.991208 256.214563 
L 112.7823 253.870018 
L 116.573393 251.525474 
L 120.364486 249.180929 
L 124.155579 246.836385 
L 127.946671 244.49184 
L 131.737764 242.147295 
L 135.528857 239.802751 
L 139.319949 237.458206 
L 143.111042 235.113661 
L 146.902135 232.769117 
L 150.693228 230.424572 
L 154.48432 228.080027 
L 158.275413 225.735483 
L 162.066506 223.390938 
L 165.857599 221.046394 
L 169.648691 218.701849 
L 173.439784 216.357304 
L 177.230877 214.01276 
L 181.02197 211.668215 
L 184.813062 209.32367 
L 188.604155 206.979126 
L 192.395248 204.634581 
L 196.186341 202.290036 
L 199.977433 199.945492 
L 203.768526 197.600947 
L 207.559619 195.256403 
L 211.350712 192.911858 
L 215.141804 190.567313 
L 218.932897 188.222769 
L 222.72399 185.878224 
L 226.515083 183.533679 
L 230.306175 181.189135 
L 234.097268 178.84459 
L 237.888361 176.500045 
L 241.679454 174.155501 
L 245.470546 171.810956 
L 249.261639 169.466412 
L 253.052732 167.121867 
L 256.843825 164.777322 
L 260.634917 162.432778 
L 264.42601 160.088233 
L 268.217103 157.743688 
L 272.008196 155.399144 
L 275.799288 153.054599 
L 279.590381 150.710054 
L 283.381474 148.36551 
L 287.172567 146.020965 
L 290.963659 143.676421 
L 294.754752 141.331876 
L 298.545845 138.987331 
L 302.336938 136.642787 
L 306.12803 134.298242 
L 309.919123 131.953697 
L 313.710216 129.609153 
L 317.501309 127.264608 
L 321.292401 124.920063 
L 325.083494 122.575519 
L 328.874587 120.230974 
L 332.66568 117.88643 
L 336.456772 115.541885 
L 340.247865 113.19734 
L 344.038958 110.852796 
L 347.830051 108.508251 
L 351.621143 106.163706 
L 355.412236 103.819162 
L 359.203329 101.474617 
L 362.994421 99.130072 
L 366.785514 96.785528 
L 370.576607 94.440983 
L 374.3677 92.096439 
L 378.158792 89.751894 
L 381.949885 87.407349 
L 385.740978 85.062805 
L 389.532071 82.71826 
L 393.323163 80.373715 
L 397.114256 78.029171 
L 400.905349 75.684626 
L 404.696442 73.340081 
L 408.487534 70.995537 
L 412.278627 68.650992 
L 416.06972 66.306448 
L 419.860813 63.961903 
L 423.651905 61.617358 
L 427.442998 59.272814 
L 431.234091 56.928269 
" clip-path="url(#pca32efa3f2)" style="fill: none; stroke: #800080; stroke-width: 2.25; stroke-linecap: round"/>
   </g>
   <g id="patch_3">
    <path d="M 37.15 317.72 
L 37.15 25.44 
" style="fill: none; stroke: #ffffff; stroke-width: 0.8; stroke-linejoin: miter; stroke-linecap: square"/>
   </g>
   <g id="patch_4">
    <path d="M 450 317.72 
L 450 25.44 
" style="fill: none; stroke: #ffffff; stroke-width: 0.8; stroke-linejoin: miter; stroke-linecap: square"/>
   </g>
   <g id="patch_5">
    <path d="M 37.15 317.72 
L 450 317.72 
" style="fill: none; stroke: #ffffff; stroke-width: 0.8; stroke-linejoin: miter; stroke-linecap: square"/>
   </g>
   <g id="patch_6">
    <path d="M 37.15 25.44 
L 450 25.44 
" style="fill: none; stroke: #ffffff; stroke-width: 0.8; stroke-linejoin: miter; stroke-linecap: square"/>
   </g>
   <g id="text_13">
    <!-- Yearly average geek score from ranked games -->
    <g style="fill: #262626" transform="translate(119.403125 19.44) scale(0.12 -0.12)">
     <defs>
      <path id="ArialMT-59" d="M 1784 0 
L 1784 1941 
L 19 4581 
L 756 4581 
L 1659 3200 
Q 1909 2813 2125 2425 
Q 2331 2784 2625 3234 
L 3513 4581 
L 4219 4581 
L 2391 1941 
L 2391 0 
L 1784 0 
z
" transform="scale(0.015625)"/>
      <path id="ArialMT-65" d="M 2694 1069 
L 3275 997 
Q 3138 488 2766 206 
Q 2394 -75 1816 -75 
Q 1088 -75 661 373 
Q 234 822 234 1631 
Q 234 2469 665 2931 
Q 1097 3394 1784 3394 
Q 2450 3394 2872 2941 
Q 3294 2488 3294 1666 
Q 3294 1616 3291 1516 
L 816 1516 
Q 847 969 1125 678 
Q 1403 388 1819 388 
Q 2128 388 2347 550 
Q 2566 713 2694 1069 
z
M 847 1978 
L 2700 1978 
Q 2663 2397 2488 2606 
Q 2219 2931 1791 2931 
Q 1403 2931 1139 2672 
Q 875 2413 847 1978 
z
" transform="scale(0.015625)"/>
      <path id="ArialMT-61" d="M 2588 409 
Q 2275 144 1986 34 
Q 1697 -75 1366 -75 
Q 819 -75 525 192 
Q 231 459 231 875 
Q 231 1119 342 1320 
Q 453 1522 633 1644 
Q 813 1766 1038 1828 
Q 1203 1872 1538 1913 
Q 2219 1994 2541 2106 
Q 2544 2222 2544 2253 
Q 2544 2597 2384 2738 
Q 2169 2928 1744 2928 
Q 1347 2928 1158 2789 
Q 969 2650 878 2297 
L 328 2372 
Q 403 2725 575 2942 
Q 747 3159 1072 3276 
Q 1397 3394 1825 3394 
Q 2250 3394 2515 3294 
Q 2781 3194 2906 3042 
Q 3031 2891 3081 2659 
Q 3109 2516 3109 2141 
L 3109 1391 
Q 3109 606 3145 398 
Q 3181 191 3288 0 
L 2700 0 
Q 2613 175 2588 409 
z
M 2541 1666 
Q 2234 1541 1622 1453 
Q 1275 1403 1131 1340 
Q 988 1278 909 1158 
Q 831 1038 831 891 
Q 831 666 1001 516 
Q 1172 366 1500 366 
Q 1825 366 2078 508 
Q 2331 650 2450 897 
Q 2541 1088 2541 1459 
L 2541 1666 
z
" transform="scale(0.015625)"/>
      <path id="ArialMT-72" d="M 416 0 
L 416 3319 
L 922 3319 
L 922 2816 
Q 1116 3169 1280 3281 
Q 1444 3394 1641 3394 
Q 1925 3394 2219 3213 
L 2025 2691 
Q 1819 2813 1613 2813 
Q 1428 2813 1281 2702 
Q 1134 2591 1072 2394 
Q 978 2094 978 1738 
L 978 0 
L 416 0 
z
" transform="scale(0.015625)"/>
      <path id="ArialMT-6c" d="M 409 0 
L 409 4581 
L 972 4581 
L 972 0 
L 409 0 
z
" transform="scale(0.015625)"/>
      <path id="ArialMT-79" d="M 397 -1278 
L 334 -750 
Q 519 -800 656 -800 
Q 844 -800 956 -737 
Q 1069 -675 1141 -563 
Q 1194 -478 1313 -144 
Q 1328 -97 1363 -6 
L 103 3319 
L 709 3319 
L 1400 1397 
Q 1534 1031 1641 628 
Q 1738 1016 1872 1384 
L 2581 3319 
L 3144 3319 
L 1881 -56 
Q 1678 -603 1566 -809 
Q 1416 -1088 1222 -1217 
Q 1028 -1347 759 -1347 
Q 597 -1347 397 -1278 
z
" transform="scale(0.015625)"/>
      <path id="ArialMT-20" transform="scale(0.015625)"/>
      <path id="ArialMT-76" d="M 1344 0 
L 81 3319 
L 675 3319 
L 1388 1331 
Q 1503 1009 1600 663 
Q 1675 925 1809 1294 
L 2547 3319 
L 3125 3319 
L 1869 0 
L 1344 0 
z
" transform="scale(0.015625)"/>
      <path id="ArialMT-67" d="M 319 -275 
L 866 -356 
Q 900 -609 1056 -725 
Q 1266 -881 1628 -881 
Q 2019 -881 2231 -725 
Q 2444 -569 2519 -288 
Q 2563 -116 2559 434 
Q 2191 0 1641 0 
Q 956 0 581 494 
Q 206 988 206 1678 
Q 206 2153 378 2554 
Q 550 2956 876 3175 
Q 1203 3394 1644 3394 
Q 2231 3394 2613 2919 
L 2613 3319 
L 3131 3319 
L 3131 450 
Q 3131 -325 2973 -648 
Q 2816 -972 2473 -1159 
Q 2131 -1347 1631 -1347 
Q 1038 -1347 672 -1080 
Q 306 -813 319 -275 
z
M 784 1719 
Q 784 1066 1043 766 
Q 1303 466 1694 466 
Q 2081 466 2343 764 
Q 2606 1063 2606 1700 
Q 2606 2309 2336 2618 
Q 2066 2928 1684 2928 
Q 1309 2928 1046 2623 
Q 784 2319 784 1719 
z
" transform="scale(0.015625)"/>
      <path id="ArialMT-6b" d="M 425 0 
L 425 4581 
L 988 4581 
L 988 1969 
L 2319 3319 
L 3047 3319 
L 1778 2088 
L 3175 0 
L 2481 0 
L 1384 1697 
L 988 1316 
L 988 0 
L 425 0 
z
" transform="scale(0.015625)"/>
      <path id="ArialMT-73" d="M 197 991 
L 753 1078 
Q 800 744 1014 566 
Q 1228 388 1613 388 
Q 2000 388 2187 545 
Q 2375 703 2375 916 
Q 2375 1106 2209 1216 
Q 2094 1291 1634 1406 
Q 1016 1563 777 1677 
Q 538 1791 414 1992 
Q 291 2194 291 2438 
Q 291 2659 392 2848 
Q 494 3038 669 3163 
Q 800 3259 1026 3326 
Q 1253 3394 1513 3394 
Q 1903 3394 2198 3281 
Q 2494 3169 2634 2976 
Q 2775 2784 2828 2463 
L 2278 2388 
Q 2241 2644 2061 2787 
Q 1881 2931 1553 2931 
Q 1166 2931 1000 2803 
Q 834 2675 834 2503 
Q 834 2394 903 2306 
Q 972 2216 1119 2156 
Q 1203 2125 1616 2013 
Q 2213 1853 2448 1751 
Q 2684 1650 2818 1456 
Q 2953 1263 2953 975 
Q 2953 694 2789 445 
Q 2625 197 2315 61 
Q 2006 -75 1616 -75 
Q 969 -75 630 194 
Q 291 463 197 991 
z
" transform="scale(0.015625)"/>
      <path id="ArialMT-63" d="M 2588 1216 
L 3141 1144 
Q 3050 572 2676 248 
Q 2303 -75 1759 -75 
Q 1078 -75 664 370 
Q 250 816 250 1647 
Q 250 2184 428 2587 
Q 606 2991 970 3192 
Q 1334 3394 1763 3394 
Q 2303 3394 2647 3120 
Q 2991 2847 3088 2344 
L 2541 2259 
Q 2463 2594 2264 2762 
Q 2066 2931 1784 2931 
Q 1359 2931 1093 2626 
Q 828 2322 828 1663 
Q 828 994 1084 691 
Q 1341 388 1753 388 
Q 2084 388 2306 591 
Q 2528 794 2588 1216 
z
" transform="scale(0.015625)"/>
      <path id="ArialMT-6f" d="M 213 1659 
Q 213 2581 725 3025 
Q 1153 3394 1769 3394 
Q 2453 3394 2887 2945 
Q 3322 2497 3322 1706 
Q 3322 1066 3130 698 
Q 2938 331 2570 128 
Q 2203 -75 1769 -75 
Q 1072 -75 642 372 
Q 213 819 213 1659 
z
M 791 1659 
Q 791 1022 1069 705 
Q 1347 388 1769 388 
Q 2188 388 2466 706 
Q 2744 1025 2744 1678 
Q 2744 2294 2464 2611 
Q 2184 2928 1769 2928 
Q 1347 2928 1069 2612 
Q 791 2297 791 1659 
z
" transform="scale(0.015625)"/>
      <path id="ArialMT-66" d="M 556 0 
L 556 2881 
L 59 2881 
L 59 3319 
L 556 3319 
L 556 3672 
Q 556 4006 616 4169 
Q 697 4388 901 4523 
Q 1106 4659 1475 4659 
Q 1713 4659 2000 4603 
L 1916 4113 
Q 1741 4144 1584 4144 
Q 1328 4144 1222 4034 
Q 1116 3925 1116 3625 
L 1116 3319 
L 1763 3319 
L 1763 2881 
L 1116 2881 
L 1116 0 
L 556 0 
z
" transform="scale(0.015625)"/>
      <path id="ArialMT-6d" d="M 422 0 
L 422 3319 
L 925 3319 
L 925 2853 
Q 1081 3097 1340 3245 
Q 1600 3394 1931 3394 
Q 2300 3394 2536 3241 
Q 2772 3088 2869 2813 
Q 3263 3394 3894 3394 
Q 4388 3394 4653 3120 
Q 4919 2847 4919 2278 
L 4919 0 
L 4359 0 
L 4359 2091 
Q 4359 2428 4304 2576 
Q 4250 2725 4106 2815 
Q 3963 2906 3769 2906 
Q 3419 2906 3187 2673 
Q 2956 2441 2956 1928 
L 2956 0 
L 2394 0 
L 2394 2156 
Q 2394 2531 2256 2718 
Q 2119 2906 1806 2906 
Q 1569 2906 1367 2781 
Q 1166 2656 1075 2415 
Q 984 2175 984 1722 
L 984 0 
L 422 0 
z
" transform="scale(0.015625)"/>
      <path id="ArialMT-6e" d="M 422 0 
L 422 3319 
L 928 3319 
L 928 2847 
Q 1294 3394 1984 3394 
Q 2284 3394 2536 3286 
Q 2788 3178 2913 3003 
Q 3038 2828 3088 2588 
Q 3119 2431 3119 2041 
L 3119 0 
L 2556 0 
L 2556 2019 
Q 2556 2363 2490 2533 
Q 2425 2703 2258 2804 
Q 2091 2906 1866 2906 
Q 1506 2906 1245 2678 
Q 984 2450 984 1813 
L 984 0 
L 422 0 
z
" transform="scale(0.015625)"/>
      <path id="ArialMT-64" d="M 2575 0 
L 2575 419 
Q 2259 -75 1647 -75 
Q 1250 -75 917 144 
Q 584 363 401 755 
Q 219 1147 219 1656 
Q 219 2153 384 2558 
Q 550 2963 881 3178 
Q 1213 3394 1622 3394 
Q 1922 3394 2156 3267 
Q 2391 3141 2538 2938 
L 2538 4581 
L 3097 4581 
L 3097 0 
L 2575 0 
z
M 797 1656 
Q 797 1019 1065 703 
Q 1334 388 1700 388 
Q 2069 388 2326 689 
Q 2584 991 2584 1609 
Q 2584 2291 2321 2609 
Q 2059 2928 1675 2928 
Q 1300 2928 1048 2622 
Q 797 2316 797 1656 
z
" transform="scale(0.015625)"/>
     </defs>
     <use xlink:href="#ArialMT-59"/>
     <use xlink:href="#ArialMT-65" x="57.574219"/>
     <use xlink:href="#ArialMT-61" x="113.189453"/>
     <use xlink:href="#ArialMT-72" x="168.804688"/>
     <use xlink:href="#ArialMT-6c" x="202.105469"/>
     <use xlink:href="#ArialMT-79" x="224.322266"/>
     <use xlink:href="#ArialMT-20" x="274.322266"/>
     <use xlink:href="#ArialMT-61" x="302.105469"/>
     <use xlink:href="#ArialMT-76" x="357.720703"/>
     <use xlink:href="#ArialMT-65" x="407.720703"/>
     <use xlink:href="#ArialMT-72" x="463.335938"/>
     <use xlink:href="#ArialMT-61" x="496.636719"/>
     <use xlink:href="#ArialMT-67" x="552.251953"/>
     <use xlink:href="#ArialMT-65" x="607.867188"/>
     <use xlink:href="#ArialMT-20" x="663.482422"/>
     <use xlink:href="#ArialMT-67" x="691.265625"/>
     <use xlink:href="#ArialMT-65" x="746.880859"/>
     <use xlink:href="#ArialMT-65" x="802.496094"/>
     <use xlink:href="#ArialMT-6b" x="858.111328"/>
     <use xlink:href="#ArialMT-20" x="908.111328"/>
     <use xlink:href="#ArialMT-73" x="935.894531"/>
     <use xlink:href="#ArialMT-63" x="985.894531"/>
     <use xlink:href="#ArialMT-6f" x="1035.894531"/>
     <use xlink:href="#ArialMT-72" x="1091.509766"/>
     <use xlink:href="#ArialMT-65" x="1124.810547"/>
     <use xlink:href="#ArialMT-20" x="1180.425781"/>
     <use xlink:href="#ArialMT-66" x="1208.208984"/>
     <use xlink:href="#ArialMT-72" x="1235.992188"/>
     <use xlink:href="#ArialMT-6f" x="1269.292969"/>
     <use xlink:href="#ArialMT-6d" x="1324.908203"/>
     <use xlink:href="#ArialMT-20" x="1408.208984"/>
     <use xlink:href="#ArialMT-72" x="1435.992188"/>
     <use xlink:href="#ArialMT-61" x="1469.292969"/>
     <use xlink:href="#ArialMT-6e" x="1524.908203"/>
     <use xlink:href="#ArialMT-6b" x="1580.523438"/>
     <use xlink:href="#ArialMT-65" x="1630.523438"/>
     <use xlink:href="#ArialMT-64" x="1686.138672"/>
     <use xlink:href="#ArialMT-20" x="1741.753906"/>
     <use xlink:href="#ArialMT-67" x="1769.537109"/>
     <use xlink:href="#ArialMT-61" x="1825.152344"/>
     <use xlink:href="#ArialMT-6d" x="1880.767578"/>
     <use xlink:href="#ArialMT-65" x="1964.068359"/>
     <use xlink:href="#ArialMT-73" x="2019.683594"/>
    </g>
   </g>
  </g>
 </g>
 <defs>
  <clipPath id="pca32efa3f2">
   <rect x="37.15" y="25.44" width="412.85" height="292.28"/>
  </clipPath>
 </defs>
</svg>
