<?xml version="1.0" encoding="utf-8" standalone="no"?>
<!DOCTYPE svg PUBLIC "-//W3C//DTD SVG 1.1//EN"
  "http://www.w3.org/Graphics/SVG/1.1/DTD/svg11.dtd">
<svg xmlns:xlink="http://www.w3.org/1999/xlink" width="460.8pt" height="345.6pt" viewBox="0 0 460.8 345.6" xmlns="http://www.w3.org/2000/svg" version="1.1">
 <metadata>
  <rdf:RDF xmlns:dc="http://purl.org/dc/elements/1.1/" xmlns:cc="http://creativecommons.org/ns#" xmlns:rdf="http://www.w3.org/1999/02/22-rdf-syntax-ns#">
   <cc:Work>
    <dc:type rdf:resource="http://purl.org/dc/dcmitype/StillImage"/>
    <dc:date>2024-08-18T00:19:38.172016</dc:date>
    <dc:format>image/svg+xml</dc:format>
    <dc:creator>
     <cc:Agent>
      <dc:title>Matplotlib v3.9.2, https://matplotlib.org/</dc:title>
     </cc:Agent>
    </dc:creator>
   </cc:Work>
  </rdf:RDF>
 </metadata>
 <defs>
  <style type="text/css">*{stroke-linejoin: round; stroke-linecap: butt}</style>
 </defs>
 <g id="figure_1">
  <g id="patch_1">
   <path d="M 0 345.6 
L 460.8 345.6 
L 460.8 0 
L 0 0 
z
" style="fill: #ffffff"/>
  </g>
  <g id="axes_1">
   <g id="patch_2">
    <path d="M 37.15 317.72 
L 450 317.72 
L 450 25.44 
L 37.15 25.44 
z
" style="fill: #eaeaf2"/>
   </g>
   <g id="matplotlib.axis_1">
    <g id="xtick_1">
     <g id="text_1">
      <!-- 1970 -->
      <g style="fill: #262626" transform="translate(44.794034 331.877812) scale(0.1 -0.1)">
       <defs>
        <path id="ArialMT-31" d="M 2384 0 
L 1822 0 
L 1822 3584 
Q 1619 3391 1289 3197 
Q 959 3003 697 2906 
L 697 3450 
Q 1169 3672 1522 3987 
Q 1875 4303 2022 4600 
L 2384 4600 
L 2384 0 
z
" transform="scale(0.015625)"/>
        <path id="ArialMT-39" d="M 350 1059 
L 891 1109 
Q 959 728 1153 556 
Q 1347 384 1650 384 
Q 1909 384 2104 503 
Q 2300 622 2425 820 
Q 2550 1019 2634 1356 
Q 2719 1694 2719 2044 
Q 2719 2081 2716 2156 
Q 2547 1888 2255 1720 
Q 1963 1553 1622 1553 
Q 1053 1553 659 1965 
Q 266 2378 266 3053 
Q 266 3750 677 4175 
Q 1088 4600 1706 4600 
Q 2153 4600 2523 4359 
Q 2894 4119 3086 3673 
Q 3278 3228 3278 2384 
Q 3278 1506 3087 986 
Q 2897 466 2520 194 
Q 2144 -78 1638 -78 
Q 1100 -78 759 220 
Q 419 519 350 1059 
z
M 2653 3081 
Q 2653 3566 2395 3850 
Q 2138 4134 1775 4134 
Q 1400 4134 1122 3828 
Q 844 3522 844 3034 
Q 844 2597 1108 2323 
Q 1372 2050 1759 2050 
Q 2150 2050 2401 2323 
Q 2653 2597 2653 3081 
z
" transform="scale(0.015625)"/>
        <path id="ArialMT-37" d="M 303 3981 
L 303 4522 
L 3269 4522 
L 3269 4084 
Q 2831 3619 2401 2847 
Q 1972 2075 1738 1259 
Q 1569 684 1522 0 
L 944 0 
Q 953 541 1156 1306 
Q 1359 2072 1739 2783 
Q 2119 3494 2547 3981 
L 303 3981 
z
" transform="scale(0.015625)"/>
        <path id="ArialMT-30" d="M 266 2259 
Q 266 3072 433 3567 
Q 600 4063 929 4331 
Q 1259 4600 1759 4600 
Q 2128 4600 2406 4451 
Q 2684 4303 2865 4023 
Q 3047 3744 3150 3342 
Q 3253 2941 3253 2259 
Q 3253 1453 3087 958 
Q 2922 463 2592 192 
Q 2263 -78 1759 -78 
Q 1097 -78 719 397 
Q 266 969 266 2259 
z
M 844 2259 
Q 844 1131 1108 757 
Q 1372 384 1759 384 
Q 2147 384 2411 759 
Q 2675 1134 2675 2259 
Q 2675 3391 2411 3762 
Q 2147 4134 1753 4134 
Q 1366 4134 1134 3806 
Q 844 3388 844 2259 
z
" transform="scale(0.015625)"/>
       </defs>
       <use xlink:href="#ArialMT-31"/>
       <use xlink:href="#ArialMT-39" x="55.615234"/>
       <use xlink:href="#ArialMT-37" x="111.230469"/>
       <use xlink:href="#ArialMT-30" x="166.845703"/>
      </g>
     </g>
    </g>
    <g id="xtick_2">
     <g id="text_2">
      <!-- 1980 -->
      <g style="fill: #262626" transform="translate(115.608785 331.877812) scale(0.1 -0.1)">
       <defs>
        <path id="ArialMT-38" d="M 1131 2484 
Q 781 2613 612 2850 
Q 444 3088 444 3419 
Q 444 3919 803 4259 
Q 1163 4600 1759 4600 
Q 2359 4600 2725 4251 
Q 3091 3903 3091 3403 
Q 3091 3084 2923 2848 
Q 2756 2613 2416 2484 
Q 2838 2347 3058 2040 
Q 3278 1734 3278 1309 
Q 3278 722 2862 322 
Q 2447 -78 1769 -78 
Q 1091 -78 675 323 
Q 259 725 259 1325 
Q 259 1772 486 2073 
Q 713 2375 1131 2484 
z
M 1019 3438 
Q 1019 3113 1228 2906 
Q 1438 2700 1772 2700 
Q 2097 2700 2305 2904 
Q 2513 3109 2513 3406 
Q 2513 3716 2298 3927 
Q 2084 4138 1766 4138 
Q 1444 4138 1231 3931 
Q 1019 3725 1019 3438 
z
M 838 1322 
Q 838 1081 952 856 
Q 1066 631 1291 507 
Q 1516 384 1775 384 
Q 2178 384 2440 643 
Q 2703 903 2703 1303 
Q 2703 1709 2433 1975 
Q 2163 2241 1756 2241 
Q 1359 2241 1098 1978 
Q 838 1716 838 1322 
z
" transform="scale(0.015625)"/>
       </defs>
       <use xlink:href="#ArialMT-31"/>
       <use xlink:href="#ArialMT-39" x="55.615234"/>
       <use xlink:href="#ArialMT-38" x="111.230469"/>
       <use xlink:href="#ArialMT-30" x="166.845703"/>
      </g>
     </g>
    </g>
    <g id="xtick_3">
     <g id="text_3">
      <!-- 1990 -->
      <g style="fill: #262626" transform="translate(186.423537 331.877812) scale(0.1 -0.1)">
       <use xlink:href="#ArialMT-31"/>
       <use xlink:href="#ArialMT-39" x="55.615234"/>
       <use xlink:href="#ArialMT-39" x="111.230469"/>
       <use xlink:href="#ArialMT-30" x="166.845703"/>
      </g>
     </g>
    </g>
    <g id="xtick_4">
     <g id="text_4">
      <!-- 2000 -->
      <g style="fill: #262626" transform="translate(257.238288 331.877812) scale(0.1 -0.1)">
       <defs>
        <path id="ArialMT-32" d="M 3222 541 
L 3222 0 
L 194 0 
Q 188 203 259 391 
Q 375 700 629 1000 
Q 884 1300 1366 1694 
Q 2113 2306 2375 2664 
Q 2638 3022 2638 3341 
Q 2638 3675 2398 3904 
Q 2159 4134 1775 4134 
Q 1369 4134 1125 3890 
Q 881 3647 878 3216 
L 300 3275 
Q 359 3922 746 4261 
Q 1134 4600 1788 4600 
Q 2447 4600 2831 4234 
Q 3216 3869 3216 3328 
Q 3216 3053 3103 2787 
Q 2991 2522 2730 2228 
Q 2469 1934 1863 1422 
Q 1356 997 1212 845 
Q 1069 694 975 541 
L 3222 541 
z
" transform="scale(0.015625)"/>
       </defs>
       <use xlink:href="#ArialMT-32"/>
       <use xlink:href="#ArialMT-30" x="55.615234"/>
       <use xlink:href="#ArialMT-30" x="111.230469"/>
       <use xlink:href="#ArialMT-30" x="166.845703"/>
      </g>
     </g>
    </g>
    <g id="xtick_5">
     <g id="text_5">
      <!-- 2010 -->
      <g style="fill: #262626" transform="translate(328.053039 331.877812) scale(0.1 -0.1)">
       <use xlink:href="#ArialMT-32"/>
       <use xlink:href="#ArialMT-30" x="55.615234"/>
       <use xlink:href="#ArialMT-31" x="111.230469"/>
       <use xlink:href="#ArialMT-30" x="166.845703"/>
      </g>
     </g>
    </g>
    <g id="xtick_6">
     <g id="text_6">
      <!-- 2020 -->
      <g style="fill: #262626" transform="translate(398.867791 331.877812) scale(0.1 -0.1)">
       <use xlink:href="#ArialMT-32"/>
       <use xlink:href="#ArialMT-30" x="55.615234"/>
       <use xlink:href="#ArialMT-32" x="111.230469"/>
       <use xlink:href="#ArialMT-30" x="166.845703"/>
      </g>
     </g>
    </g>
   </g>
   <g id="matplotlib.axis_2">
    <g id="ytick_1">
     <g id="text_7">
      <!-- 5.55 -->
      <g style="fill: #262626" transform="translate(10.689062 275.730807) scale(0.1 -0.1)">
       <defs>
        <path id="ArialMT-35" d="M 266 1200 
L 856 1250 
Q 922 819 1161 601 
Q 1400 384 1738 384 
Q 2144 384 2425 690 
Q 2706 997 2706 1503 
Q 2706 1984 2436 2262 
Q 2166 2541 1728 2541 
Q 1456 2541 1237 2417 
Q 1019 2294 894 2097 
L 366 2166 
L 809 4519 
L 3088 4519 
L 3088 3981 
L 1259 3981 
L 1013 2750 
Q 1425 3038 1878 3038 
Q 2478 3038 2890 2622 
Q 3303 2206 3303 1553 
Q 3303 931 2941 478 
Q 2500 -78 1738 -78 
Q 1113 -78 717 272 
Q 322 622 266 1200 
z
" transform="scale(0.015625)"/>
        <path id="ArialMT-2e" d="M 581 0 
L 581 641 
L 1222 641 
L 1222 0 
L 581 0 
z
" transform="scale(0.015625)"/>
       </defs>
       <use xlink:href="#ArialMT-35"/>
       <use xlink:href="#ArialMT-2e" x="55.615234"/>
       <use xlink:href="#ArialMT-35" x="83.398438"/>
       <use xlink:href="#ArialMT-35" x="139.013672"/>
      </g>
     </g>
    </g>
    <g id="ytick_2">
     <g id="text_8">
      <!-- 5.60 -->
      <g style="fill: #262626" transform="translate(10.689062 213.767958) scale(0.1 -0.1)">
       <defs>
        <path id="ArialMT-36" d="M 3184 3459 
L 2625 3416 
Q 2550 3747 2413 3897 
Q 2184 4138 1850 4138 
Q 1581 4138 1378 3988 
Q 1113 3794 959 3422 
Q 806 3050 800 2363 
Q 1003 2672 1297 2822 
Q 1591 2972 1913 2972 
Q 2475 2972 2870 2558 
Q 3266 2144 3266 1488 
Q 3266 1056 3080 686 
Q 2894 316 2569 119 
Q 2244 -78 1831 -78 
Q 1128 -78 684 439 
Q 241 956 241 2144 
Q 241 3472 731 4075 
Q 1159 4600 1884 4600 
Q 2425 4600 2770 4297 
Q 3116 3994 3184 3459 
z
M 888 1484 
Q 888 1194 1011 928 
Q 1134 663 1356 523 
Q 1578 384 1822 384 
Q 2178 384 2434 671 
Q 2691 959 2691 1453 
Q 2691 1928 2437 2201 
Q 2184 2475 1800 2475 
Q 1419 2475 1153 2201 
Q 888 1928 888 1484 
z
" transform="scale(0.015625)"/>
       </defs>
       <use xlink:href="#ArialMT-35"/>
       <use xlink:href="#ArialMT-2e" x="55.615234"/>
       <use xlink:href="#ArialMT-36" x="83.398438"/>
       <use xlink:href="#ArialMT-30" x="139.013672"/>
      </g>
     </g>
    </g>
    <g id="ytick_3">
     <g id="text_9">
      <!-- 5.65 -->
      <g style="fill: #262626" transform="translate(10.689062 151.805108) scale(0.1 -0.1)">
       <use xlink:href="#ArialMT-35"/>
       <use xlink:href="#ArialMT-2e" x="55.615234"/>
       <use xlink:href="#ArialMT-36" x="83.398438"/>
       <use xlink:href="#ArialMT-35" x="139.013672"/>
      </g>
     </g>
    </g>
    <g id="ytick_4">
     <g id="text_10">
      <!-- 5.70 -->
      <g style="fill: #262626" transform="translate(10.689062 89.842259) scale(0.1 -0.1)">
       <use xlink:href="#ArialMT-35"/>
       <use xlink:href="#ArialMT-2e" x="55.615234"/>
       <use xlink:href="#ArialMT-37" x="83.398438"/>
       <use xlink:href="#ArialMT-30" x="139.013672"/>
      </g>
     </g>
    </g>
   </g>
   <g id="PathCollection_1">
    <path d="M 55.915909 306.558021 
C 56.479061 306.558021 57.019224 306.334279 57.417433 305.93607 
C 57.815642 305.537861 58.039385 304.997698 58.039385 304.434545 
C 58.039385 303.871393 57.815642 303.33123 57.417433 302.933021 
C 57.019224 302.534812 56.479061 302.31107 55.915909 302.31107 
C 55.352757 302.31107 54.812594 302.534812 54.414385 302.933021 
C 54.016176 303.33123 53.792433 303.871393 53.792433 304.434545 
C 53.792433 304.997698 54.016176 305.537861 54.414385 305.93607 
C 54.812594 306.334279 55.352757 306.558021 55.915909 306.558021 
z
" clip-path="url(#pde7fcc2981)" style="fill: #800080; stroke: #ffffff; stroke-width: 0.354209"/>
    <path d="M 62.997384 265.933022 
C 63.559965 265.933022 64.09958 265.709506 64.497384 265.311701 
C 64.895189 264.913897 65.118705 264.374282 65.118705 263.811701 
C 65.118705 263.249121 64.895189 262.709506 64.497384 262.311701 
C 64.09958 261.913897 63.559965 261.690381 62.997384 261.690381 
C 62.434803 261.690381 61.895189 261.913897 61.497384 262.311701 
C 61.09958 262.709506 60.876064 263.249121 60.876064 263.811701 
C 60.876064 264.374282 61.09958 264.913897 61.497384 265.311701 
C 61.895189 265.709506 62.434803 265.933022 62.997384 265.933022 
z
" clip-path="url(#pde7fcc2981)" style="fill: #800080; stroke: #ffffff; stroke-width: 0.354209"/>
    <path d="M 70.078859 296.678292 
C 70.657688 296.678292 71.212888 296.44832 71.622181 296.039027 
C 72.031475 295.629733 72.261446 295.074533 72.261446 294.495704 
C 72.261446 293.916876 72.031475 293.361676 71.622181 292.952382 
C 71.212888 292.543088 70.657688 292.313117 70.078859 292.313117 
C 69.50003 292.313117 68.944831 292.543088 68.535537 292.952382 
C 68.126243 293.361676 67.896272 293.916876 67.896272 294.495704 
C 67.896272 295.074533 68.126243 295.629733 68.535537 296.039027 
C 68.944831 296.44832 69.50003 296.678292 70.078859 296.678292 
z
" clip-path="url(#pde7fcc2981)" style="fill: #800080; stroke: #ffffff; stroke-width: 0.354209"/>
    <path d="M 77.160334 289.676543 
C 77.742464 289.676543 78.30083 289.44526 78.712457 289.033633 
C 79.124085 288.622005 79.355368 288.063639 79.355368 287.48151 
C 79.355368 286.89938 79.124085 286.341015 78.712457 285.929387 
C 78.30083 285.517759 77.742464 285.286477 77.160334 285.286477 
C 76.578205 285.286477 76.019839 285.517759 75.608212 285.929387 
C 75.196584 286.341015 74.965301 286.89938 74.965301 287.48151 
C 74.965301 288.063639 75.196584 288.622005 75.608212 289.033633 
C 76.019839 289.44526 76.578205 289.676543 77.160334 289.676543 
z
" clip-path="url(#pde7fcc2981)" style="fill: #800080; stroke: #ffffff; stroke-width: 0.354209"/>
    <path d="M 84.24181 245.325619 
C 84.824492 245.325619 85.383387 245.094117 85.795406 244.682098 
C 86.207424 244.27008 86.438926 243.711184 86.438926 243.128502 
C 86.438926 242.54582 86.207424 241.986925 85.795406 241.574906 
C 85.383387 241.162888 84.824492 240.931386 84.24181 240.931386 
C 83.659128 240.931386 83.100232 241.162888 82.688214 241.574906 
C 82.276195 241.986925 82.044693 242.54582 82.044693 243.128502 
C 82.044693 243.711184 82.276195 244.27008 82.688214 244.682098 
C 83.100232 245.094117 83.659128 245.325619 84.24181 245.325619 
z
" clip-path="url(#pde7fcc2981)" style="fill: #800080; stroke: #ffffff; stroke-width: 0.354209"/>
    <path d="M 91.323285 300.274266 
C 91.932257 300.274266 92.516369 300.032318 92.946978 299.60171 
C 93.377586 299.171101 93.619534 298.586989 93.619534 297.978017 
C 93.619534 297.369044 93.377586 296.784932 92.946978 296.354323 
C 92.516369 295.923715 91.932257 295.681768 91.323285 295.681768 
C 90.714312 295.681768 90.1302 295.923715 89.699591 296.354323 
C 89.268983 296.784932 89.027036 297.369044 89.027036 297.978017 
C 89.027036 298.586989 89.268983 299.171101 89.699591 299.60171 
C 90.1302 300.032318 90.714312 300.274266 91.323285 300.274266 
z
" clip-path="url(#pde7fcc2981)" style="fill: #800080; stroke: #ffffff; stroke-width: 0.354209"/>
    <path d="M 98.40476 277.794078 
C 98.984136 277.794078 99.53986 277.56389 99.949541 277.154209 
C 100.359222 276.744528 100.58941 276.188804 100.58941 275.609428 
C 100.58941 275.030052 100.359222 274.474327 99.949541 274.064647 
C 99.53986 273.654966 98.984136 273.424777 98.40476 273.424777 
C 97.825384 273.424777 97.269659 273.654966 96.859979 274.064647 
C 96.450298 274.474327 96.220109 275.030052 96.220109 275.609428 
C 96.220109 276.188804 96.450298 276.744528 96.859979 277.154209 
C 97.269659 277.56389 97.825384 277.794078 98.40476 277.794078 
z
" clip-path="url(#pde7fcc2981)" style="fill: #800080; stroke: #ffffff; stroke-width: 0.354209"/>
    <path d="M 105.486235 226.909141 
C 106.08834 226.909141 106.665865 226.669922 107.091617 226.24417 
C 107.517369 225.818418 107.756588 225.240893 107.756588 224.638788 
C 107.756588 224.036683 107.517369 223.459158 107.091617 223.033406 
C 106.665865 222.607654 106.08834 222.368435 105.486235 222.368435 
C 104.88413 222.368435 104.306605 222.607654 103.880853 223.033406 
C 103.455101 223.459158 103.215882 224.036683 103.215882 224.638788 
C 103.215882 225.240893 103.455101 225.818418 103.880853 226.24417 
C 104.306605 226.669922 104.88413 226.909141 105.486235 226.909141 
z
" clip-path="url(#pde7fcc2981)" style="fill: #800080; stroke: #ffffff; stroke-width: 0.354209"/>
    <path d="M 112.56771 305.670622 
C 113.165018 305.670622 113.737943 305.433309 114.160303 305.010948 
C 114.582664 304.588587 114.819977 304.015663 114.819977 303.418355 
C 114.819977 302.821047 114.582664 302.248122 114.160303 301.825761 
C 113.737943 301.403401 113.165018 301.166088 112.56771 301.166088 
C 111.970402 301.166088 111.397477 301.403401 110.975117 301.825761 
C 110.552756 302.248122 110.315443 302.821047 110.315443 303.418355 
C 110.315443 304.015663 110.552756 304.588587 110.975117 305.010948 
C 111.397477 305.433309 111.970402 305.670622 112.56771 305.670622 
z
" clip-path="url(#pde7fcc2981)" style="fill: #800080; stroke: #ffffff; stroke-width: 0.354209"/>
    <path d="M 119.649185 231.930035 
C 120.264941 231.930035 120.855559 231.685393 121.290964 231.249988 
C 121.726369 230.814583 121.971012 230.223964 121.971012 229.608208 
C 121.971012 228.992453 121.726369 228.401834 121.290964 227.966429 
C 120.855559 227.531024 120.264941 227.286382 119.649185 227.286382 
C 119.03343 227.286382 118.442811 227.531024 118.007406 227.966429 
C 117.572001 228.401834 117.327359 228.992453 117.327359 229.608208 
C 117.327359 230.223964 117.572001 230.814583 118.007406 231.249988 
C 118.442811 231.685393 119.03343 231.930035 119.649185 231.930035 
z
" clip-path="url(#pde7fcc2981)" style="fill: #800080; stroke: #ffffff; stroke-width: 0.354209"/>
    <path d="M 126.73066 243.554895 
C 127.343296 243.554895 127.930923 243.311492 128.364122 242.878293 
C 128.797321 242.445094 129.040724 241.857468 129.040724 241.244832 
C 129.040724 240.632196 128.797321 240.044569 128.364122 239.61137 
C 127.930923 239.178171 127.343296 238.934768 126.73066 238.934768 
C 126.118024 238.934768 125.530398 239.178171 125.097199 239.61137 
C 124.664 240.044569 124.420597 240.632196 124.420597 241.244832 
C 124.420597 241.857468 124.664 242.445094 125.097199 242.878293 
C 125.530398 243.311492 126.118024 243.554895 126.73066 243.554895 
z
" clip-path="url(#pde7fcc2981)" style="fill: #800080; stroke: #ffffff; stroke-width: 0.354209"/>
    <path d="M 133.812136 269.584173 
C 134.439212 269.584173 135.04069 269.335033 135.4841 268.891623 
C 135.92751 268.448212 136.17665 267.846735 136.17665 267.219658 
C 136.17665 266.592581 135.92751 265.991104 135.4841 265.547694 
C 135.04069 265.104284 134.439212 264.855143 133.812136 264.855143 
C 133.185059 264.855143 132.583581 265.104284 132.140171 265.547694 
C 131.696761 265.991104 131.447621 266.592581 131.447621 267.219658 
C 131.447621 267.846735 131.696761 268.448212 132.140171 268.891623 
C 132.583581 269.335033 133.185059 269.584173 133.812136 269.584173 
z
" clip-path="url(#pde7fcc2981)" style="fill: #800080; stroke: #ffffff; stroke-width: 0.354209"/>
    <path d="M 140.893611 251.060248 
C 141.508328 251.060248 142.097951 250.816019 142.532622 250.381348 
C 142.967293 249.946677 143.211523 249.357054 143.211523 248.742336 
C 143.211523 248.127619 142.967293 247.537996 142.532622 247.103325 
C 142.097951 246.668654 141.508328 246.424424 140.893611 246.424424 
C 140.278893 246.424424 139.68927 246.668654 139.254599 247.103325 
C 138.819928 247.537996 138.575699 248.127619 138.575699 248.742336 
C 138.575699 249.357054 138.819928 249.946677 139.254599 250.381348 
C 139.68927 250.816019 140.278893 251.060248 140.893611 251.060248 
z
" clip-path="url(#pde7fcc2981)" style="fill: #800080; stroke: #ffffff; stroke-width: 0.354209"/>
    <path d="M 147.975086 248.033139 
C 148.595495 248.033139 149.190578 247.786647 149.629273 247.347952 
C 150.067969 246.909256 150.31446 246.314174 150.31446 245.693764 
C 150.31446 245.073355 150.067969 244.478272 149.629273 244.039577 
C 149.190578 243.600881 148.595495 243.35439 147.975086 243.35439 
C 147.354676 243.35439 146.759594 243.600881 146.320898 244.039577 
C 145.882202 244.478272 145.635711 245.073355 145.635711 245.693764 
C 145.635711 246.314174 145.882202 246.909256 146.320898 247.347952 
C 146.759594 247.786647 147.354676 248.033139 147.975086 248.033139 
z
" clip-path="url(#pde7fcc2981)" style="fill: #800080; stroke: #ffffff; stroke-width: 0.354209"/>
    <path d="M 155.056561 271.861371 
C 155.65654 271.861371 156.232027 271.622997 156.656276 271.198747 
C 157.080526 270.774498 157.3189 270.199011 157.3189 269.599032 
C 157.3189 268.999052 157.080526 268.423565 156.656276 267.999316 
C 156.232027 267.575066 155.65654 267.336692 155.056561 267.336692 
C 154.456581 267.336692 153.881095 267.575066 153.456845 267.999316 
C 153.032596 268.423565 152.794221 268.999052 152.794221 269.599032 
C 152.794221 270.199011 153.032596 270.774498 153.456845 271.198747 
C 153.881095 271.622997 154.456581 271.861371 155.056561 271.861371 
z
" clip-path="url(#pde7fcc2981)" style="fill: #800080; stroke: #ffffff; stroke-width: 0.354209"/>
    <path d="M 162.138036 233.861334 
C 162.753277 233.861334 163.343402 233.616897 163.778442 233.181856 
C 164.213483 232.746815 164.457921 232.15669 164.457921 231.541449 
C 164.457921 230.926209 164.213483 230.336084 163.778442 229.901043 
C 163.343402 229.466002 162.753277 229.221564 162.138036 229.221564 
C 161.522795 229.221564 160.93267 229.466002 160.49763 229.901043 
C 160.062589 230.336084 159.818151 230.926209 159.818151 231.541449 
C 159.818151 232.15669 160.062589 232.746815 160.49763 233.181856 
C 160.93267 233.616897 161.522795 233.861334 162.138036 233.861334 
z
" clip-path="url(#pde7fcc2981)" style="fill: #800080; stroke: #ffffff; stroke-width: 0.354209"/>
    <path d="M 169.219511 215.259846 
C 169.844548 215.259846 170.444068 215.011516 170.886036 214.569549 
C 171.328003 214.127581 171.576333 213.528061 171.576333 212.903024 
C 171.576333 212.277988 171.328003 211.678467 170.886036 211.2365 
C 170.444068 210.794532 169.844548 210.546203 169.219511 210.546203 
C 168.594475 210.546203 167.994954 210.794532 167.552987 211.2365 
C 167.111019 211.678467 166.86269 212.277988 166.86269 212.903024 
C 166.86269 213.528061 167.111019 214.127581 167.552987 214.569549 
C 167.994954 215.011516 168.594475 215.259846 169.219511 215.259846 
z
" clip-path="url(#pde7fcc2981)" style="fill: #800080; stroke: #ffffff; stroke-width: 0.354209"/>
    <path d="M 176.300986 260.533357 
C 176.920365 260.533357 177.51446 260.287275 177.952427 259.849308 
C 178.390394 259.411341 178.636476 258.817246 178.636476 258.197867 
C 178.636476 257.578488 178.390394 256.984394 177.952427 256.546427 
C 177.51446 256.108459 176.920365 255.862378 176.300986 255.862378 
C 175.681607 255.862378 175.087513 256.108459 174.649546 256.546427 
C 174.211579 256.984394 173.965497 257.578488 173.965497 258.197867 
C 173.965497 258.817246 174.211579 259.411341 174.649546 259.849308 
C 175.087513 260.287275 175.681607 260.533357 176.300986 260.533357 
z
" clip-path="url(#pde7fcc2981)" style="fill: #800080; stroke: #ffffff; stroke-width: 0.354209"/>
    <path d="M 183.382461 256.944115 
C 183.999775 256.944115 184.591888 256.698854 185.028394 256.262347 
C 185.464901 255.825841 185.710162 255.233728 185.710162 254.616415 
C 185.710162 253.999101 185.464901 253.406988 185.028394 252.970482 
C 184.591888 252.533975 183.999775 252.288714 183.382461 252.288714 
C 182.765148 252.288714 182.173035 252.533975 181.736529 252.970482 
C 181.300022 253.406988 181.054761 253.999101 181.054761 254.616415 
C 181.054761 255.233728 181.300022 255.825841 181.736529 256.262347 
C 182.173035 256.698854 182.765148 256.944115 183.382461 256.944115 
z
" clip-path="url(#pde7fcc2981)" style="fill: #800080; stroke: #ffffff; stroke-width: 0.354209"/>
    <path d="M 190.463937 241.242729 
C 191.08125 241.242729 191.673363 240.997468 192.109869 240.560961 
C 192.546376 240.124455 192.791637 239.532342 192.791637 238.915028 
C 192.791637 238.297715 192.546376 237.705602 192.109869 237.269096 
C 191.673363 236.832589 191.08125 236.587328 190.463937 236.587328 
C 189.846623 236.587328 189.25451 236.832589 188.818004 237.269096 
C 188.381497 237.705602 188.136236 238.297715 188.136236 238.915028 
C 188.136236 239.532342 188.381497 240.124455 188.818004 240.560961 
C 189.25451 240.997468 189.846623 241.242729 190.463937 241.242729 
z
" clip-path="url(#pde7fcc2981)" style="fill: #800080; stroke: #ffffff; stroke-width: 0.354209"/>
    <path d="M 197.545412 250.068633 
C 198.169933 250.068633 198.76896 249.820508 199.210563 249.378904 
C 199.652166 248.937301 199.900291 248.338274 199.900291 247.713753 
C 199.900291 247.089232 199.652166 246.490205 199.210563 246.048602 
C 198.76896 245.606999 198.169933 245.358874 197.545412 245.358874 
C 196.92089 245.358874 196.321864 245.606999 195.88026 246.048602 
C 195.438657 246.490205 195.190532 247.089232 195.190532 247.713753 
C 195.190532 248.338274 195.438657 248.937301 195.88026 249.378904 
C 196.321864 249.820508 196.92089 250.068633 197.545412 250.068633 
z
" clip-path="url(#pde7fcc2981)" style="fill: #800080; stroke: #ffffff; stroke-width: 0.354209"/>
    <path d="M 204.626887 247.328066 
C 205.264075 247.328066 205.875251 247.074908 206.32581 246.624348 
C 206.77637 246.173789 207.029528 245.562613 207.029528 244.925425 
C 207.029528 244.288237 206.77637 243.677061 206.32581 243.226501 
C 205.875251 242.775942 205.264075 242.522784 204.626887 242.522784 
C 203.989699 242.522784 203.378523 242.775942 202.927963 243.226501 
C 202.477403 243.677061 202.224246 244.288237 202.224246 244.925425 
C 202.224246 245.562613 202.477403 246.173789 202.927963 246.624348 
C 203.378523 247.074908 203.989699 247.328066 204.626887 247.328066 
z
" clip-path="url(#pde7fcc2981)" style="fill: #800080; stroke: #ffffff; stroke-width: 0.354209"/>
    <path d="M 211.708362 231.178398 
C 212.361412 231.178398 212.987804 230.918938 213.44958 230.457161 
C 213.911356 229.995385 214.170816 229.368994 214.170816 228.715943 
C 214.170816 228.062893 213.911356 227.436502 213.44958 226.974725 
C 212.987804 226.512949 212.361412 226.253489 211.708362 226.253489 
C 211.055311 226.253489 210.42892 226.512949 209.967144 226.974725 
C 209.505367 227.436502 209.245908 228.062893 209.245908 228.715943 
C 209.245908 229.368994 209.505367 229.995385 209.967144 230.457161 
C 210.42892 230.918938 211.055311 231.178398 211.708362 231.178398 
z
" clip-path="url(#pde7fcc2981)" style="fill: #800080; stroke: #ffffff; stroke-width: 0.354209"/>
    <path d="M 218.789837 246.752786 
C 219.4355 246.752786 220.054805 246.496261 220.511357 246.039709 
C 220.967909 245.583156 221.224434 244.963852 221.224434 244.318189 
C 221.224434 243.672526 220.967909 243.053221 220.511357 242.596669 
C 220.054805 242.140117 219.4355 241.883592 218.789837 241.883592 
C 218.144174 241.883592 217.52487 242.140117 217.068317 242.596669 
C 216.611765 243.053221 216.35524 243.672526 216.35524 244.318189 
C 216.35524 244.963852 216.611765 245.583156 217.068317 246.039709 
C 217.52487 246.496261 218.144174 246.752786 218.789837 246.752786 
z
" clip-path="url(#pde7fcc2981)" style="fill: #800080; stroke: #ffffff; stroke-width: 0.354209"/>
    <path d="M 225.871312 228.041182 
C 226.514 228.041182 227.130452 227.78584 227.584902 227.33139 
C 228.039351 226.876941 228.294694 226.260489 228.294694 225.617801 
C 228.294694 224.975113 228.039351 224.358661 227.584902 223.904211 
C 227.130452 223.449762 226.514 223.194419 225.871312 223.194419 
C 225.228624 223.194419 224.612172 223.449762 224.157723 223.904211 
C 223.703273 224.358661 223.447931 224.975113 223.447931 225.617801 
C 223.447931 226.260489 223.703273 226.876941 224.157723 227.33139 
C 224.612172 227.78584 225.228624 228.041182 225.871312 228.041182 
z
" clip-path="url(#pde7fcc2981)" style="fill: #800080; stroke: #ffffff; stroke-width: 0.354209"/>
    <path d="M 232.952787 195.200037 
C 233.611687 195.200037 234.243688 194.938254 234.709601 194.472341 
C 235.175513 194.006429 235.437297 193.374428 235.437297 192.715528 
C 235.437297 192.056628 235.175513 191.424627 234.709601 190.958714 
C 234.243688 190.492802 233.611687 190.231018 232.952787 190.231018 
C 232.293888 190.231018 231.661886 190.492802 231.195974 190.958714 
C 230.730061 191.424627 230.468278 192.056628 230.468278 192.715528 
C 230.468278 193.374428 230.730061 194.006429 231.195974 194.472341 
C 231.661886 194.938254 232.293888 195.200037 232.952787 195.200037 
z
" clip-path="url(#pde7fcc2981)" style="fill: #800080; stroke: #ffffff; stroke-width: 0.354209"/>
    <path d="M 240.034262 244.416395 
C 240.694611 244.416395 241.328002 244.154036 241.794938 243.687099 
C 242.261875 243.220162 242.524234 242.586771 242.524234 241.926423 
C 242.524234 241.266075 242.261875 240.632684 241.794938 240.165747 
C 241.328002 239.69881 240.694611 239.436451 240.034262 239.436451 
C 239.373914 239.436451 238.740523 239.69881 238.273586 240.165747 
C 237.80665 240.632684 237.544291 241.266075 237.544291 241.926423 
C 237.544291 242.586771 237.80665 243.220162 238.273586 243.687099 
C 238.740523 244.154036 239.373914 244.416395 240.034262 244.416395 
z
" clip-path="url(#pde7fcc2981)" style="fill: #800080; stroke: #ffffff; stroke-width: 0.354209"/>
    <path d="M 247.115738 220.060229 
C 247.781395 220.060229 248.419878 219.795761 248.890569 219.32507 
C 249.36126 218.854379 249.625729 218.215895 249.625729 217.550238 
C 249.625729 216.884581 249.36126 216.246097 248.890569 215.775406 
C 248.419878 215.304715 247.781395 215.040247 247.115738 215.040247 
C 246.45008 215.040247 245.811597 215.304715 245.340906 215.775406 
C 244.870215 216.246097 244.605746 216.884581 244.605746 217.550238 
C 244.605746 218.215895 244.870215 218.854379 245.340906 219.32507 
C 245.811597 219.795761 246.45008 220.060229 247.115738 220.060229 
z
" clip-path="url(#pde7fcc2981)" style="fill: #800080; stroke: #ffffff; stroke-width: 0.354209"/>
    <path d="M 254.197213 223.396165 
C 254.873349 223.396165 255.521884 223.127533 255.999984 222.649433 
C 256.478085 222.171332 256.746716 221.522798 256.746716 220.846662 
C 256.746716 220.170525 256.478085 219.521991 255.999984 219.04389 
C 255.521884 218.56579 254.873349 218.297158 254.197213 218.297158 
C 253.521076 218.297158 252.872542 218.56579 252.394441 219.04389 
C 251.916341 219.521991 251.647709 220.170525 251.647709 220.846662 
C 251.647709 221.522798 251.916341 222.171332 252.394441 222.649433 
C 252.872542 223.127533 253.521076 223.396165 254.197213 223.396165 
z
" clip-path="url(#pde7fcc2981)" style="fill: #800080; stroke: #ffffff; stroke-width: 0.354209"/>
    <path d="M 261.278688 157.396837 
C 261.965612 157.396837 262.624493 157.123919 263.110222 156.638191 
C 263.59595 156.152462 263.868868 155.49358 263.868868 154.806657 
C 263.868868 154.119733 263.59595 153.460851 263.110222 152.975123 
C 262.624493 152.489394 261.965612 152.216477 261.278688 152.216477 
C 260.591764 152.216477 259.932882 152.489394 259.447154 152.975123 
C 258.961425 153.460851 258.688508 154.119733 258.688508 154.806657 
C 258.688508 155.49358 258.961425 156.152462 259.447154 156.638191 
C 259.932882 157.123919 260.591764 157.396837 261.278688 157.396837 
z
" clip-path="url(#pde7fcc2981)" style="fill: #800080; stroke: #ffffff; stroke-width: 0.354209"/>
    <path d="M 268.360163 197.751653 
C 269.058169 197.751653 269.72768 197.474332 270.221244 196.980768 
C 270.714809 196.487203 270.992129 195.817692 270.992129 195.119686 
C 270.992129 194.421681 270.714809 193.75217 270.221244 193.258605 
C 269.72768 192.765041 269.058169 192.48772 268.360163 192.48772 
C 267.662157 192.48772 266.992646 192.765041 266.499082 193.258605 
C 266.005517 193.75217 265.728197 194.421681 265.728197 195.119686 
C 265.728197 195.817692 266.005517 196.487203 266.499082 196.980768 
C 266.992646 197.474332 267.662157 197.751653 268.360163 197.751653 
z
" clip-path="url(#pde7fcc2981)" style="fill: #800080; stroke: #ffffff; stroke-width: 0.354209"/>
    <path d="M 275.441638 206.679486 
C 276.141018 206.679486 276.811848 206.40162 277.306384 205.907083 
C 277.800921 205.412547 278.078788 204.741717 278.078788 204.042337 
C 278.078788 203.342957 277.800921 202.672127 277.306384 202.17759 
C 276.811848 201.683054 276.141018 201.405187 275.441638 201.405187 
C 274.742258 201.405187 274.071428 201.683054 273.576892 202.17759 
C 273.082355 202.672127 272.804488 203.342957 272.804488 204.042337 
C 272.804488 204.741717 273.082355 205.412547 273.576892 205.907083 
C 274.071428 206.40162 274.742258 206.679486 275.441638 206.679486 
z
" clip-path="url(#pde7fcc2981)" style="fill: #800080; stroke: #ffffff; stroke-width: 0.354209"/>
    <path d="M 282.523113 193.475112 
C 283.240545 193.475112 283.92869 193.190073 284.435991 192.682772 
C 284.943292 192.175471 285.228331 191.487327 285.228331 190.769894 
C 285.228331 190.052462 284.943292 189.364318 284.435991 188.857017 
C 283.92869 188.349716 283.240545 188.064677 282.523113 188.064677 
C 281.805681 188.064677 281.117537 188.349716 280.610236 188.857017 
C 280.102935 189.364318 279.817896 190.052462 279.817896 190.769894 
C 279.817896 191.487327 280.102935 192.175471 280.610236 192.682772 
C 281.117537 193.190073 281.805681 193.475112 282.523113 193.475112 
z
" clip-path="url(#pde7fcc2981)" style="fill: #800080; stroke: #ffffff; stroke-width: 0.354209"/>
    <path d="M 289.604588 186.026464 
C 290.354697 186.026464 291.074184 185.728443 291.60459 185.198036 
C 292.134997 184.667629 292.433018 183.948143 292.433018 183.198034 
C 292.433018 182.447926 292.134997 181.728439 291.60459 181.198032 
C 291.074184 180.667626 290.354697 180.369604 289.604588 180.369604 
C 288.85448 180.369604 288.134993 180.667626 287.604586 181.198032 
C 287.07418 181.728439 286.776158 182.447926 286.776158 183.198034 
C 286.776158 183.948143 287.07418 184.667629 287.604586 185.198036 
C 288.134993 185.728443 288.85448 186.026464 289.604588 186.026464 
z
" clip-path="url(#pde7fcc2981)" style="fill: #800080; stroke: #ffffff; stroke-width: 0.354209"/>
    <path d="M 296.686063 150.3128 
C 297.472781 150.3128 298.227382 150.000234 298.783675 149.443941 
C 299.339968 148.887648 299.652534 148.133047 299.652534 147.34633 
C 299.652534 146.559612 299.339968 145.805011 298.783675 145.248718 
C 298.227382 144.692425 297.472781 144.379859 296.686063 144.379859 
C 295.899346 144.379859 295.144745 144.692425 294.588452 145.248718 
C 294.032159 145.805011 293.719593 146.559612 293.719593 147.34633 
C 293.719593 148.133047 294.032159 148.887648 294.588452 149.443941 
C 295.144745 150.000234 295.899346 150.3128 296.686063 150.3128 
z
" clip-path="url(#pde7fcc2981)" style="fill: #800080; stroke: #ffffff; stroke-width: 0.354209"/>
    <path d="M 303.767539 153.466723 
C 304.572336 153.466723 305.344278 153.146974 305.913356 152.577897 
C 306.482433 152.008819 306.802183 151.236876 306.802183 150.432079 
C 306.802183 149.627283 306.482433 148.85534 305.913356 148.286262 
C 305.344278 147.717185 304.572336 147.397436 303.767539 147.397436 
C 302.962742 147.397436 302.190799 147.717185 301.621721 148.286262 
C 301.052644 148.85534 300.732895 149.627283 300.732895 150.432079 
C 300.732895 151.236876 301.052644 152.008819 301.621721 152.577897 
C 302.190799 153.146974 302.962742 153.466723 303.767539 153.466723 
z
" clip-path="url(#pde7fcc2981)" style="fill: #800080; stroke: #ffffff; stroke-width: 0.354209"/>
    <path d="M 310.849014 180.903081 
C 311.647028 180.903081 312.412464 180.586027 312.976745 180.021746 
C 313.541026 179.457465 313.858081 178.692028 313.858081 177.894014 
C 313.858081 177.096 313.541026 176.330564 312.976745 175.766283 
C 312.412464 175.202002 311.647028 174.884947 310.849014 174.884947 
C 310.051 174.884947 309.285563 175.202002 308.721282 175.766283 
C 308.157001 176.330564 307.839947 177.096 307.839947 177.894014 
C 307.839947 178.692028 308.157001 179.457465 308.721282 180.021746 
C 309.285563 180.586027 310.051 180.903081 310.849014 180.903081 
z
" clip-path="url(#pde7fcc2981)" style="fill: #800080; stroke: #ffffff; stroke-width: 0.354209"/>
    <path d="M 317.930489 141.555979 
C 318.734892 141.555979 319.506457 141.236386 320.075256 140.667587 
C 320.644055 140.098788 320.963648 139.327223 320.963648 138.52282 
C 320.963648 137.718417 320.644055 136.946852 320.075256 136.378053 
C 319.506457 135.809254 318.734892 135.489661 317.930489 135.489661 
C 317.126086 135.489661 316.354521 135.809254 315.785722 136.378053 
C 315.216923 136.946852 314.89733 137.718417 314.89733 138.52282 
C 314.89733 139.327223 315.216923 140.098788 315.785722 140.667587 
C 316.354521 141.236386 317.126086 141.555979 317.930489 141.555979 
z
" clip-path="url(#pde7fcc2981)" style="fill: #800080; stroke: #ffffff; stroke-width: 0.354209"/>
    <path d="M 325.011964 134.418986 
C 325.836385 134.418986 326.627152 134.09144 327.210106 133.508486 
C 327.793059 132.925532 328.120606 132.134766 328.120606 131.310344 
C 328.120606 130.485923 327.793059 129.695157 327.210106 129.112203 
C 326.627152 128.529249 325.836385 128.201703 325.011964 128.201703 
C 324.187543 128.201703 323.396776 128.529249 322.813822 129.112203 
C 322.230868 129.695157 321.903322 130.485923 321.903322 131.310344 
C 321.903322 132.134766 322.230868 132.925532 322.813822 133.508486 
C 323.396776 134.09144 324.187543 134.418986 325.011964 134.418986 
z
" clip-path="url(#pde7fcc2981)" style="fill: #800080; stroke: #ffffff; stroke-width: 0.354209"/>
    <path d="M 332.093439 119.210623 
C 332.943442 119.210623 333.758746 118.872913 334.359789 118.27187 
C 334.960832 117.670827 335.298542 116.855523 335.298542 116.00552 
C 335.298542 115.155517 334.960832 114.340214 334.359789 113.739171 
C 333.758746 113.138128 332.943442 112.800418 332.093439 112.800418 
C 331.243436 112.800418 330.428132 113.138128 329.827089 113.739171 
C 329.226046 114.340214 328.888337 115.155517 328.888337 116.00552 
C 328.888337 116.855523 329.226046 117.670827 329.827089 118.27187 
C 330.428132 118.872913 331.243436 119.210623 332.093439 119.210623 
z
" clip-path="url(#pde7fcc2981)" style="fill: #800080; stroke: #ffffff; stroke-width: 0.354209"/>
    <path d="M 339.174914 118.504261 
C 340.047927 118.504261 340.885301 118.15741 341.502615 117.540096 
C 342.119928 116.922783 342.46678 116.085409 342.46678 115.212396 
C 342.46678 114.339383 342.119928 113.502009 341.502615 112.884695 
C 340.885301 112.267382 340.047927 111.92053 339.174914 111.92053 
C 338.301901 111.92053 337.464527 112.267382 336.847214 112.884695 
C 336.2299 113.502009 335.883049 114.339383 335.883049 115.212396 
C 335.883049 116.085409 336.2299 116.922783 336.847214 117.540096 
C 337.464527 118.15741 338.301901 118.504261 339.174914 118.504261 
z
" clip-path="url(#pde7fcc2981)" style="fill: #800080; stroke: #ffffff; stroke-width: 0.354209"/>
    <path d="M 346.256389 89.554995 
C 347.142489 89.554995 347.992416 89.202943 348.618983 88.576376 
C 349.24555 87.949809 349.597602 87.099882 349.597602 86.213782 
C 349.597602 85.327683 349.24555 84.477756 348.618983 83.851189 
C 347.992416 83.224621 347.142489 82.87257 346.256389 82.87257 
C 345.37029 82.87257 344.520363 83.224621 343.893796 83.851189 
C 343.267228 84.477756 342.915177 85.327683 342.915177 86.213782 
C 342.915177 87.099882 343.267228 87.949809 343.893796 88.576376 
C 344.520363 89.202943 345.37029 89.554995 346.256389 89.554995 
z
" clip-path="url(#pde7fcc2981)" style="fill: #800080; stroke: #ffffff; stroke-width: 0.354209"/>
    <path d="M 353.337864 90.886514 
C 354.258292 90.886514 355.141146 90.520824 355.791986 89.869983 
C 356.442827 89.219143 356.808517 88.336289 356.808517 87.415862 
C 356.808517 86.495434 356.442827 85.612581 355.791986 84.96174 
C 355.141146 84.310899 354.258292 83.945209 353.337864 83.945209 
C 352.417437 83.945209 351.534583 84.310899 350.883743 84.96174 
C 350.232902 85.612581 349.867212 86.495434 349.867212 87.415862 
C 349.867212 88.336289 350.232902 89.219143 350.883743 89.869983 
C 351.534583 90.520824 352.417437 90.886514 353.337864 90.886514 
z
" clip-path="url(#pde7fcc2981)" style="fill: #800080; stroke: #ffffff; stroke-width: 0.354209"/>
    <path d="M 360.41934 104.91653 
C 361.356632 104.91653 362.255661 104.54414 362.918426 103.881374 
C 363.581191 103.218609 363.953581 102.31958 363.953581 101.382288 
C 363.953581 100.444996 363.581191 99.545967 362.918426 98.883202 
C 362.255661 98.220436 361.356632 97.848046 360.41934 97.848046 
C 359.482048 97.848046 358.583019 98.220436 357.920253 98.883202 
C 357.257488 99.545967 356.885098 100.444996 356.885098 101.382288 
C 356.885098 102.31958 357.257488 103.218609 357.920253 103.881374 
C 358.583019 104.54414 359.482048 104.91653 360.41934 104.91653 
z
" clip-path="url(#pde7fcc2981)" style="fill: #800080; stroke: #ffffff; stroke-width: 0.354209"/>
    <path d="M 367.500815 92.08737 
C 368.486649 92.08737 369.432239 91.695693 370.129329 90.998603 
C 370.826419 90.301513 371.218095 89.355924 371.218095 88.37009 
C 371.218095 87.384255 370.826419 86.438666 370.129329 85.741576 
C 369.432239 85.044486 368.486649 84.65281 367.500815 84.65281 
C 366.514981 84.65281 365.569391 85.044486 364.872301 85.741576 
C 364.175211 86.438666 363.783535 87.384255 363.783535 88.37009 
C 363.783535 89.355924 364.175211 90.301513 364.872301 90.998603 
C 365.569391 91.695693 366.514981 92.08737 367.500815 92.08737 
z
" clip-path="url(#pde7fcc2981)" style="fill: #800080; stroke: #ffffff; stroke-width: 0.354209"/>
    <path d="M 374.58229 65.498935 
C 375.619019 65.498935 376.613426 65.087038 377.346504 64.35396 
C 378.079582 63.620882 378.491478 62.626475 378.491478 61.589746 
C 378.491478 60.553017 378.079582 59.55861 377.346504 58.825532 
C 376.613426 58.092454 375.619019 57.680557 374.58229 57.680557 
C 373.545561 57.680557 372.551154 58.092454 371.818076 58.825532 
C 371.084998 59.55861 370.673101 60.553017 370.673101 61.589746 
C 370.673101 62.626475 371.084998 63.620882 371.818076 64.35396 
C 372.551154 65.087038 373.545561 65.498935 374.58229 65.498935 
z
" clip-path="url(#pde7fcc2981)" style="fill: #800080; stroke: #ffffff; stroke-width: 0.354209"/>
    <path d="M 381.663765 78.531847 
C 382.748712 78.531847 383.789369 78.100793 384.556543 77.333619 
C 385.323717 76.566445 385.754771 75.525788 385.754771 74.440841 
C 385.754771 73.355894 385.323717 72.315237 384.556543 71.548063 
C 383.789369 70.780889 382.748712 70.349835 381.663765 70.349835 
C 380.578818 70.349835 379.538161 70.780889 378.770987 71.548063 
C 378.003813 72.315237 377.572759 73.355894 377.572759 74.440841 
C 377.572759 75.525788 378.003813 76.566445 378.770987 77.333619 
C 379.538161 78.100793 380.578818 78.531847 381.663765 78.531847 
z
" clip-path="url(#pde7fcc2981)" style="fill: #800080; stroke: #ffffff; stroke-width: 0.354209"/>
    <path d="M 388.74524 57.616979 
C 389.850912 57.616979 390.911447 57.177691 391.693275 56.395863 
C 392.475103 55.614035 392.914391 54.553499 392.914391 53.447828 
C 392.914391 52.342156 392.475103 51.281621 391.693275 50.499793 
C 390.911447 49.717965 389.850912 49.278677 388.74524 49.278677 
C 387.639568 49.278677 386.579033 49.717965 385.797205 50.499793 
C 385.015377 51.281621 384.576089 52.342156 384.576089 53.447828 
C 384.576089 54.553499 385.015377 55.614035 385.797205 56.395863 
C 386.579033 57.177691 387.639568 57.616979 388.74524 57.616979 
z
" clip-path="url(#pde7fcc2981)" style="fill: #800080; stroke: #ffffff; stroke-width: 0.354209"/>
    <path d="M 395.826715 61.947107 
C 396.943605 61.947107 398.0149 61.503362 398.80466 60.713602 
C 399.594421 59.923842 400.038166 58.852546 400.038166 57.735657 
C 400.038166 56.618767 399.594421 55.547472 398.80466 54.757712 
C 398.0149 53.967951 396.943605 53.524206 395.826715 53.524206 
C 394.709826 53.524206 393.63853 53.967951 392.84877 54.757712 
C 392.05901 55.547472 391.615265 56.618767 391.615265 57.735657 
C 391.615265 58.852546 392.05901 59.923842 392.84877 60.713602 
C 393.63853 61.503362 394.709826 61.947107 395.826715 61.947107 
z
" clip-path="url(#pde7fcc2981)" style="fill: #800080; stroke: #ffffff; stroke-width: 0.354209"/>
    <path d="M 402.90819 42.968095 
C 404.033352 42.968095 405.112581 42.521064 405.90819 41.725455 
C 406.7038 40.929845 407.150831 39.850616 407.150831 38.725455 
C 407.150831 37.600293 406.7038 36.521064 405.90819 35.725455 
C 405.112581 34.929845 404.033352 34.482814 402.90819 34.482814 
C 401.783029 34.482814 400.7038 34.929845 399.90819 35.725455 
C 399.112581 36.521064 398.66555 37.600293 398.66555 38.725455 
C 398.66555 39.850616 399.112581 40.929845 399.90819 41.725455 
C 400.7038 42.521064 401.783029 42.968095 402.90819 42.968095 
z
" clip-path="url(#pde7fcc2981)" style="fill: #800080; stroke: #ffffff; stroke-width: 0.354209"/>
    <path d="M 409.989666 53.679449 
C 411.03377 53.679449 412.035251 53.264622 412.773545 52.526329 
C 413.511838 51.788035 413.926666 50.786554 413.926666 49.742449 
C 413.926666 48.698345 413.511838 47.696863 412.773545 46.95857 
C 412.035251 46.220276 411.03377 45.805449 409.989666 45.805449 
C 408.945561 45.805449 407.94408 46.220276 407.205786 46.95857 
C 406.467493 47.696863 406.052665 48.698345 406.052665 49.742449 
C 406.052665 50.786554 406.467493 51.788035 407.205786 52.526329 
C 407.94408 53.264622 408.945561 53.679449 409.989666 53.679449 
z
" clip-path="url(#pde7fcc2981)" style="fill: #800080; stroke: #ffffff; stroke-width: 0.354209"/>
    <path d="M 417.071141 51.158804 
C 418.110645 51.158804 419.107714 50.745805 419.842755 50.010764 
C 420.577795 49.275724 420.990795 48.278655 420.990795 47.23915 
C 420.990795 46.199646 420.577795 45.202577 419.842755 44.467536 
C 419.107714 43.732495 418.110645 43.319496 417.071141 43.319496 
C 416.031636 43.319496 415.034567 43.732495 414.299527 44.467536 
C 413.564486 45.202577 413.151486 46.199646 413.151486 47.23915 
C 413.151486 48.278655 413.564486 49.275724 414.299527 50.010764 
C 415.034567 50.745805 416.031636 51.158804 417.071141 51.158804 
z
" clip-path="url(#pde7fcc2981)" style="fill: #800080; stroke: #ffffff; stroke-width: 0.354209"/>
    <path d="M 424.152616 62.414667 
C 425.206171 62.414667 426.216716 61.996085 426.961692 61.251109 
C 427.706668 60.506134 428.125249 59.495588 428.125249 58.442033 
C 428.125249 57.388479 427.706668 56.377933 426.961692 55.632957 
C 426.216716 54.887981 425.206171 54.4694 424.152616 54.4694 
C 423.099061 54.4694 422.088515 54.887981 421.34354 55.632957 
C 420.598564 56.377933 420.179982 57.388479 420.179982 58.442033 
C 420.179982 59.495588 420.598564 60.506134 421.34354 61.251109 
C 422.088515 61.996085 423.099061 62.414667 424.152616 62.414667 
z
" clip-path="url(#pde7fcc2981)" style="fill: #800080; stroke: #ffffff; stroke-width: 0.354209"/>
    <path d="M 431.234091 99.129451 
C 432.240467 99.129451 433.20576 98.729613 433.917375 98.017998 
C 434.62899 97.306383 435.028828 96.34109 435.028828 95.334714 
C 435.028828 94.328338 434.62899 93.363045 433.917375 92.65143 
C 433.20576 91.939814 432.240467 91.539977 431.234091 91.539977 
C 430.227715 91.539977 429.262422 91.939814 428.550807 92.65143 
C 427.839191 93.363045 427.439354 94.328338 427.439354 95.334714 
C 427.439354 96.34109 427.839191 97.306383 428.550807 98.017998 
C 429.262422 98.729613 430.227715 99.129451 431.234091 99.129451 
z
" clip-path="url(#pde7fcc2981)" style="fill: #800080; stroke: #ffffff; stroke-width: 0.354209"/>
   </g>
   <g id="patch_3">
    <path d="M 37.15 317.72 
L 37.15 25.44 
" style="fill: none; stroke: #ffffff; stroke-width: 0.8; stroke-linejoin: miter; stroke-linecap: square"/>
   </g>
   <g id="patch_4">
    <path d="M 450 317.72 
L 450 25.44 
" style="fill: none; stroke: #ffffff; stroke-width: 0.8; stroke-linejoin: miter; stroke-linecap: square"/>
   </g>
   <g id="patch_5">
    <path d="M 37.15 317.72 
L 450 317.72 
" style="fill: none; stroke: #ffffff; stroke-width: 0.8; stroke-linejoin: miter; stroke-linecap: square"/>
   </g>
   <g id="patch_6">
    <path d="M 37.15 25.44 
L 450 25.44 
" style="fill: none; stroke: #ffffff; stroke-width: 0.8; stroke-linejoin: miter; stroke-linecap: square"/>
   </g>
   <g id="text_11">
    <!-- Yearly average geek score from ranked games -->
    <g style="fill: #262626" transform="translate(119.403125 19.44) scale(0.12 -0.12)">
     <defs>
      <path id="ArialMT-59" d="M 1784 0 
L 1784 1941 
L 19 4581 
L 756 4581 
L 1659 3200 
Q 1909 2813 2125 2425 
Q 2331 2784 2625 3234 
L 3513 4581 
L 4219 4581 
L 2391 1941 
L 2391 0 
L 1784 0 
z
" transform="scale(0.015625)"/>
      <path id="ArialMT-65" d="M 2694 1069 
L 3275 997 
Q 3138 488 2766 206 
Q 2394 -75 1816 -75 
Q 1088 -75 661 373 
Q 234 822 234 1631 
Q 234 2469 665 2931 
Q 1097 3394 1784 3394 
Q 2450 3394 2872 2941 
Q 3294 2488 3294 1666 
Q 3294 1616 3291 1516 
L 816 1516 
Q 847 969 1125 678 
Q 1403 388 1819 388 
Q 2128 388 2347 550 
Q 2566 713 2694 1069 
z
M 847 1978 
L 2700 1978 
Q 2663 2397 2488 2606 
Q 2219 2931 1791 2931 
Q 1403 2931 1139 2672 
Q 875 2413 847 1978 
z
" transform="scale(0.015625)"/>
      <path id="ArialMT-61" d="M 2588 409 
Q 2275 144 1986 34 
Q 1697 -75 1366 -75 
Q 819 -75 525 192 
Q 231 459 231 875 
Q 231 1119 342 1320 
Q 453 1522 633 1644 
Q 813 1766 1038 1828 
Q 1203 1872 1538 1913 
Q 2219 1994 2541 2106 
Q 2544 2222 2544 2253 
Q 2544 2597 2384 2738 
Q 2169 2928 1744 2928 
Q 1347 2928 1158 2789 
Q 969 2650 878 2297 
L 328 2372 
Q 403 2725 575 2942 
Q 747 3159 1072 3276 
Q 1397 3394 1825 3394 
Q 2250 3394 2515 3294 
Q 2781 3194 2906 3042 
Q 3031 2891 3081 2659 
Q 3109 2516 3109 2141 
L 3109 1391 
Q 3109 606 3145 398 
Q 3181 191 3288 0 
L 2700 0 
Q 2613 175 2588 409 
z
M 2541 1666 
Q 2234 1541 1622 1453 
Q 1275 1403 1131 1340 
Q 988 1278 909 1158 
Q 831 1038 831 891 
Q 831 666 1001 516 
Q 1172 366 1500 366 
Q 1825 366 2078 508 
Q 2331 650 2450 897 
Q 2541 1088 2541 1459 
L 2541 1666 
z
" transform="scale(0.015625)"/>
      <path id="ArialMT-72" d="M 416 0 
L 416 3319 
L 922 3319 
L 922 2816 
Q 1116 3169 1280 3281 
Q 1444 3394 1641 3394 
Q 1925 3394 2219 3213 
L 2025 2691 
Q 1819 2813 1613 2813 
Q 1428 2813 1281 2702 
Q 1134 2591 1072 2394 
Q 978 2094 978 1738 
L 978 0 
L 416 0 
z
" transform="scale(0.015625)"/>
      <path id="ArialMT-6c" d="M 409 0 
L 409 4581 
L 972 4581 
L 972 0 
L 409 0 
z
" transform="scale(0.015625)"/>
      <path id="ArialMT-79" d="M 397 -1278 
L 334 -750 
Q 519 -800 656 -800 
Q 844 -800 956 -737 
Q 1069 -675 1141 -563 
Q 1194 -478 1313 -144 
Q 1328 -97 1363 -6 
L 103 3319 
L 709 3319 
L 1400 1397 
Q 1534 1031 1641 628 
Q 1738 1016 1872 1384 
L 2581 3319 
L 3144 3319 
L 1881 -56 
Q 1678 -603 1566 -809 
Q 1416 -1088 1222 -1217 
Q 1028 -1347 759 -1347 
Q 597 -1347 397 -1278 
z
" transform="scale(0.015625)"/>
      <path id="ArialMT-20" transform="scale(0.015625)"/>
      <path id="ArialMT-76" d="M 1344 0 
L 81 3319 
L 675 3319 
L 1388 1331 
Q 1503 1009 1600 663 
Q 1675 925 1809 1294 
L 2547 3319 
L 3125 3319 
L 1869 0 
L 1344 0 
z
" transform="scale(0.015625)"/>
      <path id="ArialMT-67" d="M 319 -275 
L 866 -356 
Q 900 -609 1056 -725 
Q 1266 -881 1628 -881 
Q 2019 -881 2231 -725 
Q 2444 -569 2519 -288 
Q 2563 -116 2559 434 
Q 2191 0 1641 0 
Q 956 0 581 494 
Q 206 988 206 1678 
Q 206 2153 378 2554 
Q 550 2956 876 3175 
Q 1203 3394 1644 3394 
Q 2231 3394 2613 2919 
L 2613 3319 
L 3131 3319 
L 3131 450 
Q 3131 -325 2973 -648 
Q 2816 -972 2473 -1159 
Q 2131 -1347 1631 -1347 
Q 1038 -1347 672 -1080 
Q 306 -813 319 -275 
z
M 784 1719 
Q 784 1066 1043 766 
Q 1303 466 1694 466 
Q 2081 466 2343 764 
Q 2606 1063 2606 1700 
Q 2606 2309 2336 2618 
Q 2066 2928 1684 2928 
Q 1309 2928 1046 2623 
Q 784 2319 784 1719 
z
" transform="scale(0.015625)"/>
      <path id="ArialMT-6b" d="M 425 0 
L 425 4581 
L 988 4581 
L 988 1969 
L 2319 3319 
L 3047 3319 
L 1778 2088 
L 3175 0 
L 2481 0 
L 1384 1697 
L 988 1316 
L 988 0 
L 425 0 
z
" transform="scale(0.015625)"/>
      <path id="ArialMT-73" d="M 197 991 
L 753 1078 
Q 800 744 1014 566 
Q 1228 388 1613 388 
Q 2000 388 2187 545 
Q 2375 703 2375 916 
Q 2375 1106 2209 1216 
Q 2094 1291 1634 1406 
Q 1016 1563 777 1677 
Q 538 1791 414 1992 
Q 291 2194 291 2438 
Q 291 2659 392 2848 
Q 494 3038 669 3163 
Q 800 3259 1026 3326 
Q 1253 3394 1513 3394 
Q 1903 3394 2198 3281 
Q 2494 3169 2634 2976 
Q 2775 2784 2828 2463 
L 2278 2388 
Q 2241 2644 2061 2787 
Q 1881 2931 1553 2931 
Q 1166 2931 1000 2803 
Q 834 2675 834 2503 
Q 834 2394 903 2306 
Q 972 2216 1119 2156 
Q 1203 2125 1616 2013 
Q 2213 1853 2448 1751 
Q 2684 1650 2818 1456 
Q 2953 1263 2953 975 
Q 2953 694 2789 445 
Q 2625 197 2315 61 
Q 2006 -75 1616 -75 
Q 969 -75 630 194 
Q 291 463 197 991 
z
" transform="scale(0.015625)"/>
      <path id="ArialMT-63" d="M 2588 1216 
L 3141 1144 
Q 3050 572 2676 248 
Q 2303 -75 1759 -75 
Q 1078 -75 664 370 
Q 250 816 250 1647 
Q 250 2184 428 2587 
Q 606 2991 970 3192 
Q 1334 3394 1763 3394 
Q 2303 3394 2647 3120 
Q 2991 2847 3088 2344 
L 2541 2259 
Q 2463 2594 2264 2762 
Q 2066 2931 1784 2931 
Q 1359 2931 1093 2626 
Q 828 2322 828 1663 
Q 828 994 1084 691 
Q 1341 388 1753 388 
Q 2084 388 2306 591 
Q 2528 794 2588 1216 
z
" transform="scale(0.015625)"/>
      <path id="ArialMT-6f" d="M 213 1659 
Q 213 2581 725 3025 
Q 1153 3394 1769 3394 
Q 2453 3394 2887 2945 
Q 3322 2497 3322 1706 
Q 3322 1066 3130 698 
Q 2938 331 2570 128 
Q 2203 -75 1769 -75 
Q 1072 -75 642 372 
Q 213 819 213 1659 
z
M 791 1659 
Q 791 1022 1069 705 
Q 1347 388 1769 388 
Q 2188 388 2466 706 
Q 2744 1025 2744 1678 
Q 2744 2294 2464 2611 
Q 2184 2928 1769 2928 
Q 1347 2928 1069 2612 
Q 791 2297 791 1659 
z
" transform="scale(0.015625)"/>
      <path id="ArialMT-66" d="M 556 0 
L 556 2881 
L 59 2881 
L 59 3319 
L 556 3319 
L 556 3672 
Q 556 4006 616 4169 
Q 697 4388 901 4523 
Q 1106 4659 1475 4659 
Q 1713 4659 2000 4603 
L 1916 4113 
Q 1741 4144 1584 4144 
Q 1328 4144 1222 4034 
Q 1116 3925 1116 3625 
L 1116 3319 
L 1763 3319 
L 1763 2881 
L 1116 2881 
L 1116 0 
L 556 0 
z
" transform="scale(0.015625)"/>
      <path id="ArialMT-6d" d="M 422 0 
L 422 3319 
L 925 3319 
L 925 2853 
Q 1081 3097 1340 3245 
Q 1600 3394 1931 3394 
Q 2300 3394 2536 3241 
Q 2772 3088 2869 2813 
Q 3263 3394 3894 3394 
Q 4388 3394 4653 3120 
Q 4919 2847 4919 2278 
L 4919 0 
L 4359 0 
L 4359 2091 
Q 4359 2428 4304 2576 
Q 4250 2725 4106 2815 
Q 3963 2906 3769 2906 
Q 3419 2906 3187 2673 
Q 2956 2441 2956 1928 
L 2956 0 
L 2394 0 
L 2394 2156 
Q 2394 2531 2256 2718 
Q 2119 2906 1806 2906 
Q 1569 2906 1367 2781 
Q 1166 2656 1075 2415 
Q 984 2175 984 1722 
L 984 0 
L 422 0 
z
" transform="scale(0.015625)"/>
      <path id="ArialMT-6e" d="M 422 0 
L 422 3319 
L 928 3319 
L 928 2847 
Q 1294 3394 1984 3394 
Q 2284 3394 2536 3286 
Q 2788 3178 2913 3003 
Q 3038 2828 3088 2588 
Q 3119 2431 3119 2041 
L 3119 0 
L 2556 0 
L 2556 2019 
Q 2556 2363 2490 2533 
Q 2425 2703 2258 2804 
Q 2091 2906 1866 2906 
Q 1506 2906 1245 2678 
Q 984 2450 984 1813 
L 984 0 
L 422 0 
z
" transform="scale(0.015625)"/>
      <path id="ArialMT-64" d="M 2575 0 
L 2575 419 
Q 2259 -75 1647 -75 
Q 1250 -75 917 144 
Q 584 363 401 755 
Q 219 1147 219 1656 
Q 219 2153 384 2558 
Q 550 2963 881 3178 
Q 1213 3394 1622 3394 
Q 1922 3394 2156 3267 
Q 2391 3141 2538 2938 
L 2538 4581 
L 3097 4581 
L 3097 0 
L 2575 0 
z
M 797 1656 
Q 797 1019 1065 703 
Q 1334 388 1700 388 
Q 2069 388 2326 689 
Q 2584 991 2584 1609 
Q 2584 2291 2321 2609 
Q 2059 2928 1675 2928 
Q 1300 2928 1048 2622 
Q 797 2316 797 1656 
z
" transform="scale(0.015625)"/>
     </defs>
     <use xlink:href="#ArialMT-59"/>
     <use xlink:href="#ArialMT-65" x="57.574219"/>
     <use xlink:href="#ArialMT-61" x="113.189453"/>
     <use xlink:href="#ArialMT-72" x="168.804688"/>
     <use xlink:href="#ArialMT-6c" x="202.105469"/>
     <use xlink:href="#ArialMT-79" x="224.322266"/>
     <use xlink:href="#ArialMT-20" x="274.322266"/>
     <use xlink:href="#ArialMT-61" x="302.105469"/>
     <use xlink:href="#ArialMT-76" x="357.720703"/>
     <use xlink:href="#ArialMT-65" x="407.720703"/>
     <use xlink:href="#ArialMT-72" x="463.335938"/>
     <use xlink:href="#ArialMT-61" x="496.636719"/>
     <use xlink:href="#ArialMT-67" x="552.251953"/>
     <use xlink:href="#ArialMT-65" x="607.867188"/>
     <use xlink:href="#ArialMT-20" x="663.482422"/>
     <use xlink:href="#ArialMT-67" x="691.265625"/>
     <use xlink:href="#ArialMT-65" x="746.880859"/>
     <use xlink:href="#ArialMT-65" x="802.496094"/>
     <use xlink:href="#ArialMT-6b" x="858.111328"/>
     <use xlink:href="#ArialMT-20" x="908.111328"/>
     <use xlink:href="#ArialMT-73" x="935.894531"/>
     <use xlink:href="#ArialMT-63" x="985.894531"/>
     <use xlink:href="#ArialMT-6f" x="1035.894531"/>
     <use xlink:href="#ArialMT-72" x="1091.509766"/>
     <use xlink:href="#ArialMT-65" x="1124.810547"/>
     <use xlink:href="#ArialMT-20" x="1180.425781"/>
     <use xlink:href="#ArialMT-66" x="1208.208984"/>
     <use xlink:href="#ArialMT-72" x="1235.992188"/>
     <use xlink:href="#ArialMT-6f" x="1269.292969"/>
     <use xlink:href="#ArialMT-6d" x="1324.908203"/>
     <use xlink:href="#ArialMT-20" x="1408.208984"/>
     <use xlink:href="#ArialMT-72" x="1435.992188"/>
     <use xlink:href="#ArialMT-61" x="1469.292969"/>
     <use xlink:href="#ArialMT-6e" x="1524.908203"/>
     <use xlink:href="#ArialMT-6b" x="1580.523438"/>
     <use xlink:href="#ArialMT-65" x="1630.523438"/>
     <use xlink:href="#ArialMT-64" x="1686.138672"/>
     <use xlink:href="#ArialMT-20" x="1741.753906"/>
     <use xlink:href="#ArialMT-67" x="1769.537109"/>
     <use xlink:href="#ArialMT-61" x="1825.152344"/>
     <use xlink:href="#ArialMT-6d" x="1880.767578"/>
     <use xlink:href="#ArialMT-65" x="1964.068359"/>
     <use xlink:href="#ArialMT-73" x="2019.683594"/>
    </g>
   </g>
  </g>
 </g>
 <defs>
  <clipPath id="pde7fcc2981">
   <rect x="37.15" y="25.44" width="412.85" height="292.28"/>
  </clipPath>
 </defs>
</svg>
