<?xml version="1.0" encoding="utf-8" standalone="no"?>
<!DOCTYPE svg PUBLIC "-//W3C//DTD SVG 1.1//EN"
  "http://www.w3.org/Graphics/SVG/1.1/DTD/svg11.dtd">
<svg xmlns:xlink="http://www.w3.org/1999/xlink" width="460.8pt" height="345.6pt" viewBox="0 0 460.8 345.6" xmlns="http://www.w3.org/2000/svg" version="1.1">
 <metadata>
  <rdf:RDF xmlns:dc="http://purl.org/dc/elements/1.1/" xmlns:cc="http://creativecommons.org/ns#" xmlns:rdf="http://www.w3.org/1999/02/22-rdf-syntax-ns#">
   <cc:Work>
    <dc:type rdf:resource="http://purl.org/dc/dcmitype/StillImage"/>
    <dc:date>2024-08-19T08:31:33.705600</dc:date>
    <dc:format>image/svg+xml</dc:format>
    <dc:creator>
     <cc:Agent>
      <dc:title>Matplotlib v3.9.2, https://matplotlib.org/</dc:title>
     </cc:Agent>
    </dc:creator>
   </cc:Work>
  </rdf:RDF>
 </metadata>
 <defs>
  <style type="text/css">*{stroke-linejoin: round; stroke-linecap: butt}</style>
 </defs>
 <g id="figure_1">
  <g id="patch_1">
   <path d="M 0 345.6 
L 460.8 345.6 
L 460.8 0 
L 0 0 
z
" style="fill: #ffffff"/>
  </g>
  <g id="axes_1">
   <g id="patch_2">
    <path d="M 37.15 317.72 
L 450 317.72 
L 450 25.44 
L 37.15 25.44 
z
" style="fill: #eaeaf2"/>
   </g>
   <g id="matplotlib.axis_1">
    <g id="xtick_1">
     <g id="text_1">
      <!-- 1970 -->
      <g style="fill: #262626" transform="translate(44.794034 331.877812) scale(0.1 -0.1)">
       <defs>
        <path id="ArialMT-31" d="M 2384 0 
L 1822 0 
L 1822 3584 
Q 1619 3391 1289 3197 
Q 959 3003 697 2906 
L 697 3450 
Q 1169 3672 1522 3987 
Q 1875 4303 2022 4600 
L 2384 4600 
L 2384 0 
z
" transform="scale(0.015625)"/>
        <path id="ArialMT-39" d="M 350 1059 
L 891 1109 
Q 959 728 1153 556 
Q 1347 384 1650 384 
Q 1909 384 2104 503 
Q 2300 622 2425 820 
Q 2550 1019 2634 1356 
Q 2719 1694 2719 2044 
Q 2719 2081 2716 2156 
Q 2547 1888 2255 1720 
Q 1963 1553 1622 1553 
Q 1053 1553 659 1965 
Q 266 2378 266 3053 
Q 266 3750 677 4175 
Q 1088 4600 1706 4600 
Q 2153 4600 2523 4359 
Q 2894 4119 3086 3673 
Q 3278 3228 3278 2384 
Q 3278 1506 3087 986 
Q 2897 466 2520 194 
Q 2144 -78 1638 -78 
Q 1100 -78 759 220 
Q 419 519 350 1059 
z
M 2653 3081 
Q 2653 3566 2395 3850 
Q 2138 4134 1775 4134 
Q 1400 4134 1122 3828 
Q 844 3522 844 3034 
Q 844 2597 1108 2323 
Q 1372 2050 1759 2050 
Q 2150 2050 2401 2323 
Q 2653 2597 2653 3081 
z
" transform="scale(0.015625)"/>
        <path id="ArialMT-37" d="M 303 3981 
L 303 4522 
L 3269 4522 
L 3269 4084 
Q 2831 3619 2401 2847 
Q 1972 2075 1738 1259 
Q 1569 684 1522 0 
L 944 0 
Q 953 541 1156 1306 
Q 1359 2072 1739 2783 
Q 2119 3494 2547 3981 
L 303 3981 
z
" transform="scale(0.015625)"/>
        <path id="ArialMT-30" d="M 266 2259 
Q 266 3072 433 3567 
Q 600 4063 929 4331 
Q 1259 4600 1759 4600 
Q 2128 4600 2406 4451 
Q 2684 4303 2865 4023 
Q 3047 3744 3150 3342 
Q 3253 2941 3253 2259 
Q 3253 1453 3087 958 
Q 2922 463 2592 192 
Q 2263 -78 1759 -78 
Q 1097 -78 719 397 
Q 266 969 266 2259 
z
M 844 2259 
Q 844 1131 1108 757 
Q 1372 384 1759 384 
Q 2147 384 2411 759 
Q 2675 1134 2675 2259 
Q 2675 3391 2411 3762 
Q 2147 4134 1753 4134 
Q 1366 4134 1134 3806 
Q 844 3388 844 2259 
z
" transform="scale(0.015625)"/>
       </defs>
       <use xlink:href="#ArialMT-31"/>
       <use xlink:href="#ArialMT-39" x="55.615234"/>
       <use xlink:href="#ArialMT-37" x="111.230469"/>
       <use xlink:href="#ArialMT-30" x="166.845703"/>
      </g>
     </g>
    </g>
    <g id="xtick_2">
     <g id="text_2">
      <!-- 1980 -->
      <g style="fill: #262626" transform="translate(115.608785 331.877812) scale(0.1 -0.1)">
       <defs>
        <path id="ArialMT-38" d="M 1131 2484 
Q 781 2613 612 2850 
Q 444 3088 444 3419 
Q 444 3919 803 4259 
Q 1163 4600 1759 4600 
Q 2359 4600 2725 4251 
Q 3091 3903 3091 3403 
Q 3091 3084 2923 2848 
Q 2756 2613 2416 2484 
Q 2838 2347 3058 2040 
Q 3278 1734 3278 1309 
Q 3278 722 2862 322 
Q 2447 -78 1769 -78 
Q 1091 -78 675 323 
Q 259 725 259 1325 
Q 259 1772 486 2073 
Q 713 2375 1131 2484 
z
M 1019 3438 
Q 1019 3113 1228 2906 
Q 1438 2700 1772 2700 
Q 2097 2700 2305 2904 
Q 2513 3109 2513 3406 
Q 2513 3716 2298 3927 
Q 2084 4138 1766 4138 
Q 1444 4138 1231 3931 
Q 1019 3725 1019 3438 
z
M 838 1322 
Q 838 1081 952 856 
Q 1066 631 1291 507 
Q 1516 384 1775 384 
Q 2178 384 2440 643 
Q 2703 903 2703 1303 
Q 2703 1709 2433 1975 
Q 2163 2241 1756 2241 
Q 1359 2241 1098 1978 
Q 838 1716 838 1322 
z
" transform="scale(0.015625)"/>
       </defs>
       <use xlink:href="#ArialMT-31"/>
       <use xlink:href="#ArialMT-39" x="55.615234"/>
       <use xlink:href="#ArialMT-38" x="111.230469"/>
       <use xlink:href="#ArialMT-30" x="166.845703"/>
      </g>
     </g>
    </g>
    <g id="xtick_3">
     <g id="text_3">
      <!-- 1990 -->
      <g style="fill: #262626" transform="translate(186.423537 331.877812) scale(0.1 -0.1)">
       <use xlink:href="#ArialMT-31"/>
       <use xlink:href="#ArialMT-39" x="55.615234"/>
       <use xlink:href="#ArialMT-39" x="111.230469"/>
       <use xlink:href="#ArialMT-30" x="166.845703"/>
      </g>
     </g>
    </g>
    <g id="xtick_4">
     <g id="text_4">
      <!-- 2000 -->
      <g style="fill: #262626" transform="translate(257.238288 331.877812) scale(0.1 -0.1)">
       <defs>
        <path id="ArialMT-32" d="M 3222 541 
L 3222 0 
L 194 0 
Q 188 203 259 391 
Q 375 700 629 1000 
Q 884 1300 1366 1694 
Q 2113 2306 2375 2664 
Q 2638 3022 2638 3341 
Q 2638 3675 2398 3904 
Q 2159 4134 1775 4134 
Q 1369 4134 1125 3890 
Q 881 3647 878 3216 
L 300 3275 
Q 359 3922 746 4261 
Q 1134 4600 1788 4600 
Q 2447 4600 2831 4234 
Q 3216 3869 3216 3328 
Q 3216 3053 3103 2787 
Q 2991 2522 2730 2228 
Q 2469 1934 1863 1422 
Q 1356 997 1212 845 
Q 1069 694 975 541 
L 3222 541 
z
" transform="scale(0.015625)"/>
       </defs>
       <use xlink:href="#ArialMT-32"/>
       <use xlink:href="#ArialMT-30" x="55.615234"/>
       <use xlink:href="#ArialMT-30" x="111.230469"/>
       <use xlink:href="#ArialMT-30" x="166.845703"/>
      </g>
     </g>
    </g>
    <g id="xtick_5">
     <g id="text_5">
      <!-- 2010 -->
      <g style="fill: #262626" transform="translate(328.053039 331.877812) scale(0.1 -0.1)">
       <use xlink:href="#ArialMT-32"/>
       <use xlink:href="#ArialMT-30" x="55.615234"/>
       <use xlink:href="#ArialMT-31" x="111.230469"/>
       <use xlink:href="#ArialMT-30" x="166.845703"/>
      </g>
     </g>
    </g>
    <g id="xtick_6">
     <g id="text_6">
      <!-- 2020 -->
      <g style="fill: #262626" transform="translate(398.867791 331.877812) scale(0.1 -0.1)">
       <use xlink:href="#ArialMT-32"/>
       <use xlink:href="#ArialMT-30" x="55.615234"/>
       <use xlink:href="#ArialMT-32" x="111.230469"/>
       <use xlink:href="#ArialMT-30" x="166.845703"/>
      </g>
     </g>
    </g>
   </g>
   <g id="matplotlib.axis_2">
    <g id="ytick_1">
     <g id="text_7">
      <!-- 5.55 -->
      <g style="fill: #262626" transform="translate(10.689062 275.839288) scale(0.1 -0.1)">
       <defs>
        <path id="ArialMT-35" d="M 266 1200 
L 856 1250 
Q 922 819 1161 601 
Q 1400 384 1738 384 
Q 2144 384 2425 690 
Q 2706 997 2706 1503 
Q 2706 1984 2436 2262 
Q 2166 2541 1728 2541 
Q 1456 2541 1237 2417 
Q 1019 2294 894 2097 
L 366 2166 
L 809 4519 
L 3088 4519 
L 3088 3981 
L 1259 3981 
L 1013 2750 
Q 1425 3038 1878 3038 
Q 2478 3038 2890 2622 
Q 3303 2206 3303 1553 
Q 3303 931 2941 478 
Q 2500 -78 1738 -78 
Q 1113 -78 717 272 
Q 322 622 266 1200 
z
" transform="scale(0.015625)"/>
        <path id="ArialMT-2e" d="M 581 0 
L 581 641 
L 1222 641 
L 1222 0 
L 581 0 
z
" transform="scale(0.015625)"/>
       </defs>
       <use xlink:href="#ArialMT-35"/>
       <use xlink:href="#ArialMT-2e" x="55.615234"/>
       <use xlink:href="#ArialMT-35" x="83.398438"/>
       <use xlink:href="#ArialMT-35" x="139.013672"/>
      </g>
     </g>
    </g>
    <g id="ytick_2">
     <g id="text_8">
      <!-- 5.60 -->
      <g style="fill: #262626" transform="translate(10.689062 213.965897) scale(0.1 -0.1)">
       <defs>
        <path id="ArialMT-36" d="M 3184 3459 
L 2625 3416 
Q 2550 3747 2413 3897 
Q 2184 4138 1850 4138 
Q 1581 4138 1378 3988 
Q 1113 3794 959 3422 
Q 806 3050 800 2363 
Q 1003 2672 1297 2822 
Q 1591 2972 1913 2972 
Q 2475 2972 2870 2558 
Q 3266 2144 3266 1488 
Q 3266 1056 3080 686 
Q 2894 316 2569 119 
Q 2244 -78 1831 -78 
Q 1128 -78 684 439 
Q 241 956 241 2144 
Q 241 3472 731 4075 
Q 1159 4600 1884 4600 
Q 2425 4600 2770 4297 
Q 3116 3994 3184 3459 
z
M 888 1484 
Q 888 1194 1011 928 
Q 1134 663 1356 523 
Q 1578 384 1822 384 
Q 2178 384 2434 671 
Q 2691 959 2691 1453 
Q 2691 1928 2437 2201 
Q 2184 2475 1800 2475 
Q 1419 2475 1153 2201 
Q 888 1928 888 1484 
z
" transform="scale(0.015625)"/>
       </defs>
       <use xlink:href="#ArialMT-35"/>
       <use xlink:href="#ArialMT-2e" x="55.615234"/>
       <use xlink:href="#ArialMT-36" x="83.398438"/>
       <use xlink:href="#ArialMT-30" x="139.013672"/>
      </g>
     </g>
    </g>
    <g id="ytick_3">
     <g id="text_9">
      <!-- 5.65 -->
      <g style="fill: #262626" transform="translate(10.689062 152.092506) scale(0.1 -0.1)">
       <use xlink:href="#ArialMT-35"/>
       <use xlink:href="#ArialMT-2e" x="55.615234"/>
       <use xlink:href="#ArialMT-36" x="83.398438"/>
       <use xlink:href="#ArialMT-35" x="139.013672"/>
      </g>
     </g>
    </g>
    <g id="ytick_4">
     <g id="text_10">
      <!-- 5.70 -->
      <g style="fill: #262626" transform="translate(10.689062 90.219115) scale(0.1 -0.1)">
       <use xlink:href="#ArialMT-35"/>
       <use xlink:href="#ArialMT-2e" x="55.615234"/>
       <use xlink:href="#ArialMT-37" x="83.398438"/>
       <use xlink:href="#ArialMT-30" x="139.013672"/>
      </g>
     </g>
    </g>
   </g>
   <g id="PathCollection_1">
    <path d="M 55.915909 306.55801 
C 56.479059 306.55801 57.019219 306.334269 57.417426 305.936062 
C 57.815632 305.537855 58.039374 304.997695 58.039374 304.434545 
C 58.039374 303.871396 57.815632 303.331236 57.417426 302.933029 
C 57.019219 302.534822 56.479059 302.311081 55.915909 302.311081 
C 55.35276 302.311081 54.812599 302.534822 54.414393 302.933029 
C 54.016186 303.331236 53.792444 303.871396 53.792444 304.434545 
C 53.792444 304.997695 54.016186 305.537855 54.414393 305.936062 
C 54.812599 306.334269 55.35276 306.55801 55.915909 306.55801 
z
" clip-path="url(#p5bc2145020)" style="fill: #800080; stroke: #ffffff; stroke-width: 0.354227"/>
    <path d="M 62.997384 266.090668 
C 63.559965 266.090668 64.09958 265.867152 64.497384 265.469348 
C 64.895189 265.071543 65.118705 264.531928 65.118705 263.969348 
C 65.118705 263.406767 64.895189 262.867152 64.497384 262.469348 
C 64.09958 262.071543 63.559965 261.848027 62.997384 261.848027 
C 62.434803 261.848027 61.895189 262.071543 61.497384 262.469348 
C 61.09958 262.867152 60.876064 263.406767 60.876064 263.969348 
C 60.876064 264.531928 61.09958 265.071543 61.497384 265.469348 
C 61.895189 265.867152 62.434803 266.090668 62.997384 266.090668 
z
" clip-path="url(#p5bc2145020)" style="fill: #800080; stroke: #ffffff; stroke-width: 0.354227"/>
    <path d="M 70.078859 296.729835 
C 70.657707 296.729835 71.212924 296.499856 71.622231 296.090549 
C 72.031538 295.681242 72.261516 295.126025 72.261516 294.547178 
C 72.261516 293.96833 72.031538 293.413113 71.622231 293.003806 
C 71.212924 292.594499 70.657707 292.36452 70.078859 292.36452 
C 69.500012 292.36452 68.944795 292.594499 68.535488 293.003806 
C 68.126181 293.413113 67.896202 293.96833 67.896202 294.547178 
C 67.896202 295.126025 68.126181 295.681242 68.535488 296.090549 
C 68.944795 296.499856 69.500012 296.729835 70.078859 296.729835 
z
" clip-path="url(#p5bc2145020)" style="fill: #800080; stroke: #ffffff; stroke-width: 0.354227"/>
    <path d="M 77.160334 290.408548 
C 77.74304 290.408548 78.301958 290.177037 78.713994 289.765002 
C 79.126029 289.352966 79.35754 288.794048 79.35754 288.211342 
C 79.35754 287.628636 79.126029 287.069718 78.713994 286.657683 
C 78.301958 286.245648 77.74304 286.014136 77.160334 286.014136 
C 76.577629 286.014136 76.01871 286.245648 75.606675 286.657683 
C 75.19464 287.069718 74.963129 287.628636 74.963129 288.211342 
C 74.963129 288.794048 75.19464 289.352966 75.606675 289.765002 
C 76.01871 290.177037 76.577629 290.408548 77.160334 290.408548 
z
" clip-path="url(#p5bc2145020)" style="fill: #800080; stroke: #ffffff; stroke-width: 0.354227"/>
    <path d="M 84.24181 245.463717 
C 84.824515 245.463717 85.383434 245.232205 85.795469 244.82017 
C 86.207504 244.408135 86.439016 243.849217 86.439016 243.266511 
C 86.439016 242.683805 86.207504 242.124887 85.795469 241.712852 
C 85.383434 241.300816 84.824515 241.069305 84.24181 241.069305 
C 83.659104 241.069305 83.100186 241.300816 82.68815 241.712852 
C 82.276115 242.124887 82.044604 242.683805 82.044604 243.266511 
C 82.044604 243.849217 82.276115 244.408135 82.68815 244.82017 
C 83.100186 245.232205 83.659104 245.463717 84.24181 245.463717 
z
" clip-path="url(#p5bc2145020)" style="fill: #800080; stroke: #ffffff; stroke-width: 0.354227"/>
    <path d="M 91.323285 300.79315 
C 91.932841 300.79315 92.517513 300.550971 92.948534 300.11995 
C 93.379556 299.688928 93.621735 299.104256 93.621735 298.4947 
C 93.621735 297.885144 93.379556 297.300472 92.948534 296.86945 
C 92.517513 296.438429 91.932841 296.19625 91.323285 296.19625 
C 90.713729 296.19625 90.129056 296.438429 89.698035 296.86945 
C 89.267014 297.300472 89.024835 297.885144 89.024835 298.4947 
C 89.024835 299.104256 89.267014 299.688928 89.698035 300.11995 
C 90.129056 300.550971 90.713729 300.79315 91.323285 300.79315 
z
" clip-path="url(#p5bc2145020)" style="fill: #800080; stroke: #ffffff; stroke-width: 0.354227"/>
    <path d="M 98.40476 278.877341 
C 98.984712 278.877341 99.540989 278.646923 99.951078 278.236835 
C 100.361166 277.826746 100.591584 277.270469 100.591584 276.690517 
C 100.591584 276.110564 100.361166 275.554287 99.951078 275.144199 
C 99.540989 274.734111 98.984712 274.503693 98.40476 274.503693 
C 97.824807 274.503693 97.26853 274.734111 96.858442 275.144199 
C 96.448354 275.554287 96.217936 276.110564 96.217936 276.690517 
C 96.217936 277.270469 96.448354 277.826746 96.858442 278.236835 
C 97.26853 278.646923 97.824807 278.877341 98.40476 278.877341 
z
" clip-path="url(#p5bc2145020)" style="fill: #800080; stroke: #ffffff; stroke-width: 0.354227"/>
    <path d="M 105.486235 228.10315 
C 106.088925 228.10315 106.667012 227.863699 107.093178 227.437532 
C 107.519344 227.011366 107.758796 226.433279 107.758796 225.830589 
C 107.758796 225.227899 107.519344 224.649813 107.093178 224.223646 
C 106.667012 223.79748 106.088925 223.558029 105.486235 223.558029 
C 104.883545 223.558029 104.305458 223.79748 103.879292 224.223646 
C 103.453126 224.649813 103.213674 225.227899 103.213674 225.830589 
C 103.213674 226.433279 103.453126 227.011366 103.879292 227.437532 
C 104.305458 227.863699 104.883545 228.10315 105.486235 228.10315 
z
" clip-path="url(#p5bc2145020)" style="fill: #800080; stroke: #ffffff; stroke-width: 0.354227"/>
    <path d="M 112.56771 305.709389 
C 113.165065 305.709389 113.738034 305.472057 114.160428 305.049664 
C 114.582822 304.62727 114.820153 304.054301 114.820153 303.456946 
C 114.820153 302.859591 114.582822 302.286622 114.160428 301.864228 
C 113.738034 301.441834 113.165065 301.204503 112.56771 301.204503 
C 111.970355 301.204503 111.397386 301.441834 110.974992 301.864228 
C 110.552599 302.286622 110.315267 302.859591 110.315267 303.456946 
C 110.315267 304.054301 110.552599 304.62727 110.974992 305.049664 
C 111.397386 305.472057 111.970355 305.709389 112.56771 305.709389 
z
" clip-path="url(#p5bc2145020)" style="fill: #800080; stroke: #ffffff; stroke-width: 0.354227"/>
    <path d="M 119.649185 232.844644 
C 120.265531 232.844644 120.856715 232.599767 121.292538 232.163945 
C 121.72836 231.728123 121.973236 231.136938 121.973236 230.520592 
C 121.973236 229.904247 121.72836 229.313062 121.292538 228.87724 
C 120.856715 228.441418 120.265531 228.196541 119.649185 228.196541 
C 119.03284 228.196541 118.441655 228.441418 118.005833 228.87724 
C 117.570011 229.313062 117.325134 229.904247 117.325134 230.520592 
C 117.325134 231.136938 117.570011 231.728123 118.005833 232.163945 
C 118.441655 232.599767 119.03284 232.844644 119.649185 232.844644 
z
" clip-path="url(#p5bc2145020)" style="fill: #800080; stroke: #ffffff; stroke-width: 0.354227"/>
    <path d="M 126.73066 243.708236 
C 127.343359 243.708236 127.931046 243.464808 128.36429 243.031564 
C 128.797534 242.598321 129.040962 242.010634 129.040962 241.397935 
C 129.040962 240.785236 128.797534 240.197549 128.36429 239.764305 
C 127.931046 239.331061 127.343359 239.087633 126.73066 239.087633 
C 126.117961 239.087633 125.530274 239.331061 125.097031 239.764305 
C 124.663787 240.197549 124.420359 240.785236 124.420359 241.397935 
C 124.420359 242.010634 124.663787 242.598321 125.097031 243.031564 
C 125.530274 243.464808 126.117961 243.708236 126.73066 243.708236 
z
" clip-path="url(#p5bc2145020)" style="fill: #800080; stroke: #ffffff; stroke-width: 0.354227"/>
    <path d="M 133.812136 269.724831 
C 134.439293 269.724831 135.040849 269.475658 135.484317 269.032191 
C 135.927784 268.588723 136.176957 267.987167 136.176957 267.360009 
C 136.176957 266.732852 135.927784 266.131296 135.484317 265.687828 
C 135.040849 265.244361 134.439293 264.995188 133.812136 264.995188 
C 133.184978 264.995188 132.583422 265.244361 132.139954 265.687828 
C 131.696487 266.131296 131.447314 266.732852 131.447314 267.360009 
C 131.447314 267.987167 131.696487 268.588723 132.139954 269.032191 
C 132.583422 269.475658 133.184978 269.724831 133.812136 269.724831 
z
" clip-path="url(#p5bc2145020)" style="fill: #800080; stroke: #ffffff; stroke-width: 0.354227"/>
    <path d="M 140.893611 251.338905 
C 141.508396 251.338905 142.098084 251.094648 142.532803 250.659929 
C 142.967522 250.22521 143.211779 249.635522 143.211779 249.020736 
C 143.211779 248.405951 142.967522 247.816263 142.532803 247.381544 
C 142.098084 246.946825 141.508396 246.702568 140.893611 246.702568 
C 140.278825 246.702568 139.689137 246.946825 139.254418 247.381544 
C 138.819699 247.816263 138.575442 248.405951 138.575442 249.020736 
C 138.575442 249.635522 138.819699 250.22521 139.254418 250.659929 
C 139.689137 251.094648 140.278825 251.338905 140.893611 251.338905 
z
" clip-path="url(#p5bc2145020)" style="fill: #800080; stroke: #ffffff; stroke-width: 0.354227"/>
    <path d="M 147.975086 246.765503 
C 148.59454 246.765503 149.188706 246.519391 149.626726 246.081371 
C 150.064746 245.643351 150.310858 245.049185 150.310858 244.429731 
C 150.310858 243.810277 150.064746 243.21611 149.626726 242.77809 
C 149.188706 242.34007 148.59454 242.093958 147.975086 242.093958 
C 147.355632 242.093958 146.761465 242.34007 146.323445 242.77809 
C 145.885425 243.21611 145.639313 243.810277 145.639313 244.429731 
C 145.639313 245.049185 145.885425 245.643351 146.323445 246.081371 
C 146.761465 246.519391 147.355632 246.765503 147.975086 246.765503 
z
" clip-path="url(#p5bc2145020)" style="fill: #800080; stroke: #ffffff; stroke-width: 0.354227"/>
    <path d="M 155.056561 272.643966 
C 155.657123 272.643966 156.233168 272.40536 156.657829 271.980699 
C 157.08249 271.556038 157.321096 270.979993 157.321096 270.379431 
C 157.321096 269.778869 157.08249 269.202824 156.657829 268.778163 
C 156.233168 268.353502 155.657123 268.114896 155.056561 268.114896 
C 154.455999 268.114896 153.879954 268.353502 153.455293 268.778163 
C 153.030632 269.202824 152.792026 269.778869 152.792026 270.379431 
C 152.792026 270.979993 153.030632 271.556038 153.455293 271.980699 
C 153.879954 272.40536 154.455999 272.643966 155.056561 272.643966 
z
" clip-path="url(#p5bc2145020)" style="fill: #800080; stroke: #ffffff; stroke-width: 0.354227"/>
    <path d="M 162.138036 234.028692 
C 162.753342 234.028692 163.343529 233.784229 163.778616 233.349142 
C 164.213703 232.914055 164.458167 232.323867 164.458167 231.708562 
C 164.458167 231.093256 164.213703 230.503068 163.778616 230.067981 
C 163.343529 229.632894 162.753342 229.388431 162.138036 229.388431 
C 161.52273 229.388431 160.932543 229.632894 160.497456 230.067981 
C 160.062369 230.503068 159.817905 231.093256 159.817905 231.708562 
C 159.817905 232.323867 160.062369 232.914055 160.497456 233.349142 
C 160.932543 233.784229 161.52273 234.028692 162.138036 234.028692 
z
" clip-path="url(#p5bc2145020)" style="fill: #800080; stroke: #ffffff; stroke-width: 0.354227"/>
    <path d="M 169.219511 215.49128 
C 169.844624 215.49128 170.444218 215.24292 170.88624 214.800898 
C 171.328261 214.358876 171.576621 213.759282 171.576621 213.134169 
C 171.576621 212.509057 171.328261 211.909463 170.88624 211.467441 
C 170.444218 211.025419 169.844624 210.777059 169.219511 210.777059 
C 168.594398 210.777059 167.994804 211.025419 167.552783 211.467441 
C 167.110761 211.909463 166.862401 212.509057 166.862401 213.134169 
C 166.862401 213.759282 167.110761 214.358876 167.552783 214.800898 
C 167.994804 215.24292 168.594398 215.49128 169.219511 215.49128 
z
" clip-path="url(#p5bc2145020)" style="fill: #800080; stroke: #ffffff; stroke-width: 0.354227"/>
    <path d="M 176.300986 261.656135 
C 176.921473 261.656135 177.51663 261.409613 177.95538 260.970863 
C 178.394131 260.532112 178.640653 259.936955 178.640653 259.316469 
C 178.640653 258.695982 178.394131 258.100825 177.95538 257.662075 
C 177.51663 257.223324 176.921473 256.976802 176.300986 256.976802 
C 175.680499 256.976802 175.085343 257.223324 174.646592 257.662075 
C 174.207842 258.100825 173.96132 258.695982 173.96132 259.316469 
C 173.96132 259.936955 174.207842 260.532112 174.646592 260.970863 
C 175.085343 261.409613 175.680499 261.656135 176.300986 261.656135 
z
" clip-path="url(#p5bc2145020)" style="fill: #800080; stroke: #ffffff; stroke-width: 0.354227"/>
    <path d="M 183.382461 257.785488 
C 184.000363 257.785488 184.59304 257.539993 185.029963 257.103071 
C 185.466886 256.666148 185.712381 256.073471 185.712381 255.455569 
C 185.712381 254.837667 185.466886 254.24499 185.029963 253.808067 
C 184.59304 253.371145 184.000363 253.12565 183.382461 253.12565 
C 182.76456 253.12565 182.171882 253.371145 181.73496 253.808067 
C 181.298037 254.24499 181.052542 254.837667 181.052542 255.455569 
C 181.052542 256.073471 181.298037 256.666148 181.73496 257.103071 
C 182.171882 257.539993 182.76456 257.785488 183.382461 257.785488 
z
" clip-path="url(#p5bc2145020)" style="fill: #800080; stroke: #ffffff; stroke-width: 0.354227"/>
    <path d="M 190.463937 240.605524 
C 191.080801 240.605524 191.672484 240.360441 192.108673 239.924252 
C 192.544862 239.488063 192.789945 238.89638 192.789945 238.279516 
C 192.789945 237.662651 192.544862 237.070968 192.108673 236.634779 
C 191.672484 236.19859 191.080801 235.953507 190.463937 235.953507 
C 189.847072 235.953507 189.255389 236.19859 188.8192 236.634779 
C 188.383011 237.070968 188.137928 237.662651 188.137928 238.279516 
C 188.137928 238.89638 188.383011 239.488063 188.8192 239.924252 
C 189.255389 240.360441 189.847072 240.605524 190.463937 240.605524 
z
" clip-path="url(#p5bc2145020)" style="fill: #800080; stroke: #ffffff; stroke-width: 0.354227"/>
    <path d="M 197.545412 250.163196 
C 198.170012 250.163196 198.769115 249.91504 199.210774 249.47338 
C 199.652433 249.031721 199.90059 248.432618 199.90059 247.808018 
C 199.90059 247.183417 199.652433 246.584315 199.210774 246.142655 
C 198.769115 245.700996 198.170012 245.45284 197.545412 245.45284 
C 196.920811 245.45284 196.321708 245.700996 195.880049 246.142655 
C 195.43839 246.584315 195.190233 247.183417 195.190233 247.808018 
C 195.190233 248.432618 195.43839 249.031721 195.880049 249.47338 
C 196.321708 249.91504 196.920811 250.163196 197.545412 250.163196 
z
" clip-path="url(#p5bc2145020)" style="fill: #800080; stroke: #ffffff; stroke-width: 0.354227"/>
    <path d="M 204.626887 246.855592 
C 205.263669 246.855592 205.874456 246.602596 206.32473 246.152323 
C 206.775003 245.70205 207.027999 245.091263 207.027999 244.45448 
C 207.027999 243.817698 206.775003 243.20691 206.32473 242.756637 
C 205.874456 242.306364 205.263669 242.053368 204.626887 242.053368 
C 203.990104 242.053368 203.379317 242.306364 202.929044 242.756637 
C 202.478771 243.20691 202.225774 243.817698 202.225774 244.45448 
C 202.225774 245.091263 202.478771 245.70205 202.929044 246.152323 
C 203.379317 246.602596 203.990104 246.855592 204.626887 246.855592 
z
" clip-path="url(#p5bc2145020)" style="fill: #800080; stroke: #ffffff; stroke-width: 0.354227"/>
    <path d="M 211.708362 230.816048 
C 212.361033 230.816048 212.987061 230.556739 213.448569 230.095231 
C 213.910077 229.633723 214.169386 229.007695 214.169386 228.355024 
C 214.169386 227.702352 213.910077 227.076325 213.448569 226.614817 
C 212.987061 226.153308 212.361033 225.893999 211.708362 225.893999 
C 211.055691 225.893999 210.429663 226.153308 209.968155 226.614817 
C 209.506646 227.076325 209.247337 227.702352 209.247337 228.355024 
C 209.247337 229.007695 209.506646 229.633723 209.968155 230.095231 
C 210.429663 230.556739 211.055691 230.816048 211.708362 230.816048 
z
" clip-path="url(#p5bc2145020)" style="fill: #800080; stroke: #ffffff; stroke-width: 0.354227"/>
    <path d="M 218.789837 244.815415 
C 219.433619 244.815415 220.05112 244.559637 220.506343 244.104415 
C 220.961566 243.649192 221.217343 243.031691 221.217343 242.387909 
C 221.217343 241.744127 220.961566 241.126626 220.506343 240.671403 
C 220.05112 240.21618 219.433619 239.960403 218.789837 239.960403 
C 218.146055 239.960403 217.528554 240.21618 217.073331 240.671403 
C 216.618108 241.126626 216.362331 241.744127 216.362331 242.387909 
C 216.362331 243.031691 216.618108 243.649192 217.073331 244.104415 
C 217.528554 244.559637 218.146055 244.815415 218.789837 244.815415 
z
" clip-path="url(#p5bc2145020)" style="fill: #800080; stroke: #ffffff; stroke-width: 0.354227"/>
    <path d="M 225.871312 229.421315 
C 226.515094 229.421315 227.132595 229.165538 227.587818 228.710315 
C 228.043041 228.255092 228.298818 227.637591 228.298818 226.993809 
C 228.298818 226.350027 228.043041 225.732526 227.587818 225.277303 
C 227.132595 224.822081 226.515094 224.566303 225.871312 224.566303 
C 225.22753 224.566303 224.610029 224.822081 224.154806 225.277303 
C 223.699584 225.732526 223.443806 226.350027 223.443806 226.993809 
C 223.443806 227.637591 223.699584 228.255092 224.154806 228.710315 
C 224.610029 229.165538 225.22753 229.421315 225.871312 229.421315 
z
" clip-path="url(#p5bc2145020)" style="fill: #800080; stroke: #ffffff; stroke-width: 0.354227"/>
    <path d="M 232.952787 194.083515 
C 233.610832 194.083515 234.242013 193.822071 234.707321 193.356763 
C 235.172629 192.891455 235.434073 192.260274 235.434073 191.602229 
C 235.434073 190.944185 235.172629 190.313003 234.707321 189.847696 
C 234.242013 189.382388 233.610832 189.120944 232.952787 189.120944 
C 232.294743 189.120944 231.663561 189.382388 231.198254 189.847696 
C 230.732946 190.313003 230.471502 190.944185 230.471502 191.602229 
C 230.471502 192.260274 230.732946 192.891455 231.198254 193.356763 
C 231.663561 193.822071 232.294743 194.083515 232.952787 194.083515 
z
" clip-path="url(#p5bc2145020)" style="fill: #800080; stroke: #ffffff; stroke-width: 0.354227"/>
    <path d="M 240.034262 244.13404 
C 240.69425 244.13404 241.327295 243.871824 241.793977 243.405143 
C 242.260659 242.938461 242.522874 242.305416 242.522874 241.645428 
C 242.522874 240.985441 242.260659 240.352395 241.793977 239.885714 
C 241.327295 239.419032 240.69425 239.156816 240.034262 239.156816 
C 239.374275 239.156816 238.74123 239.419032 238.274548 239.885714 
C 237.807866 240.352395 237.54565 240.985441 237.54565 241.645428 
C 237.54565 242.305416 237.807866 242.938461 238.274548 243.405143 
C 238.74123 243.871824 239.374275 244.13404 240.034262 244.13404 
z
" clip-path="url(#p5bc2145020)" style="fill: #800080; stroke: #ffffff; stroke-width: 0.354227"/>
    <path d="M 247.115738 220.248013 
C 247.78152 220.248013 248.420124 219.983495 248.890903 219.512716 
C 249.361683 219.041936 249.626201 218.403333 249.626201 217.73755 
C 249.626201 217.071767 249.361683 216.433163 248.890903 215.962384 
C 248.420124 215.491604 247.78152 215.227086 247.115738 215.227086 
C 246.449955 215.227086 245.811351 215.491604 245.340572 215.962384 
C 244.869792 216.433163 244.605274 217.071767 244.605274 217.73755 
C 244.605274 218.403333 244.869792 219.041936 245.340572 219.512716 
C 245.811351 219.983495 246.449955 220.248013 247.115738 220.248013 
z
" clip-path="url(#p5bc2145020)" style="fill: #800080; stroke: #ffffff; stroke-width: 0.354227"/>
    <path d="M 254.197213 222.64758 
C 254.872543 222.64758 255.520305 222.379268 255.997836 221.901737 
C 256.475367 221.424206 256.743679 220.776444 256.743679 220.101113 
C 256.743679 219.425783 256.475367 218.778021 255.997836 218.30049 
C 255.520305 217.822959 254.872543 217.554647 254.197213 217.554647 
C 253.521882 217.554647 252.87412 217.822959 252.396589 218.30049 
C 251.919058 218.778021 251.650746 219.425783 251.650746 220.101113 
C 251.650746 220.776444 251.919058 221.424206 252.396589 221.901737 
C 252.87412 222.379268 253.521882 222.64758 254.197213 222.64758 
z
" clip-path="url(#p5bc2145020)" style="fill: #800080; stroke: #ffffff; stroke-width: 0.354227"/>
    <path d="M 261.278688 157.104328 
C 261.965301 157.104328 262.623885 156.831533 263.109394 156.346024 
C 263.594902 155.860516 263.867697 155.201932 263.867697 154.515319 
C 263.867697 153.828706 263.594902 153.170122 263.109394 152.684613 
C 262.623885 152.199104 261.965301 151.92631 261.278688 151.92631 
C 260.592075 151.92631 259.933491 152.199104 259.447982 152.684613 
C 258.962473 153.170122 258.689679 153.828706 258.689679 154.515319 
C 258.689679 155.201932 258.962473 155.860516 259.447982 156.346024 
C 259.933491 156.831533 260.592075 157.104328 261.278688 157.104328 
z
" clip-path="url(#p5bc2145020)" style="fill: #800080; stroke: #ffffff; stroke-width: 0.354227"/>
    <path d="M 268.360163 197.959601 
C 269.058335 197.959601 269.728005 197.682214 270.221687 197.188532 
C 270.715369 196.69485 270.992756 196.025179 270.992756 195.327008 
C 270.992756 194.628836 270.715369 193.959165 270.221687 193.465483 
C 269.728005 192.971801 269.058335 192.694414 268.360163 192.694414 
C 267.661991 192.694414 266.992321 192.971801 266.498639 193.465483 
C 266.004957 193.959165 265.72757 194.628836 265.72757 195.327008 
C 265.72757 196.025179 266.004957 196.69485 266.498639 197.188532 
C 266.992321 197.682214 267.661991 197.959601 268.360163 197.959601 
z
" clip-path="url(#p5bc2145020)" style="fill: #800080; stroke: #ffffff; stroke-width: 0.354227"/>
    <path d="M 275.441638 207.396012 
C 276.141642 207.396012 276.813069 207.117898 277.308046 206.62292 
C 277.803023 206.127943 278.081138 205.456516 278.081138 204.756512 
C 278.081138 204.056509 277.803023 203.385081 277.308046 202.890104 
C 276.813069 202.395127 276.141642 202.117013 275.441638 202.117013 
C 274.741635 202.117013 274.070207 202.395127 273.57523 202.890104 
C 273.080253 203.385081 272.802138 204.056509 272.802138 204.756512 
C 272.802138 205.456516 273.080253 206.127943 273.57523 206.62292 
C 274.070207 207.117898 274.741635 207.396012 275.441638 207.396012 
z
" clip-path="url(#p5bc2145020)" style="fill: #800080; stroke: #ffffff; stroke-width: 0.354227"/>
    <path d="M 282.523113 193.714161 
C 283.240731 193.714161 283.929053 193.429049 284.436485 192.921617 
C 284.943917 192.414184 285.229029 191.725862 285.229029 191.008245 
C 285.229029 190.290627 284.943917 189.602305 284.436485 189.094873 
C 283.929053 188.587441 283.240731 188.302329 282.523113 188.302329 
C 281.805496 188.302329 281.117174 188.587441 280.609742 189.094873 
C 280.102309 189.602305 279.817197 190.290627 279.817197 191.008245 
C 279.817197 191.725862 280.102309 192.414184 280.609742 192.921617 
C 281.117174 193.429049 281.805496 193.714161 282.523113 193.714161 
z
" clip-path="url(#p5bc2145020)" style="fill: #800080; stroke: #ffffff; stroke-width: 0.354227"/>
    <path d="M 289.604588 185.903728 
C 290.35449 185.903728 291.07378 185.605789 291.60404 185.075528 
C 292.134301 184.545267 292.432241 183.825978 292.432241 183.076076 
C 292.432241 182.326174 292.134301 181.606885 291.60404 181.076624 
C 291.07378 180.546363 290.35449 180.248424 289.604588 180.248424 
C 288.854686 180.248424 288.135397 180.546363 287.605136 181.076624 
C 287.074875 181.606885 286.776936 182.326174 286.776936 183.076076 
C 286.776936 183.825978 287.074875 184.545267 287.605136 185.075528 
C 288.135397 185.605789 288.854686 185.903728 289.604588 185.903728 
z
" clip-path="url(#p5bc2145020)" style="fill: #800080; stroke: #ffffff; stroke-width: 0.354227"/>
    <path d="M 296.686063 150.192556 
C 297.472635 150.192556 298.227097 149.880047 298.783287 149.323857 
C 299.339478 148.767667 299.651986 148.013205 299.651986 147.226633 
C 299.651986 146.440061 299.339478 145.6856 298.783287 145.129409 
C 298.227097 144.573219 297.472635 144.260711 296.686063 144.260711 
C 295.899492 144.260711 295.14503 144.573219 294.58884 145.129409 
C 294.032649 145.6856 293.720141 146.440061 293.720141 147.226633 
C 293.720141 148.013205 294.032649 148.767667 294.58884 149.323857 
C 295.14503 149.880047 295.899492 150.192556 296.686063 150.192556 
z
" clip-path="url(#p5bc2145020)" style="fill: #800080; stroke: #ffffff; stroke-width: 0.354227"/>
    <path d="M 303.767539 154.124726 
C 304.573012 154.124726 305.345603 153.804709 305.915159 153.235153 
C 306.484714 152.665598 306.804732 151.893006 306.804732 151.087533 
C 306.804732 150.28206 306.484714 149.509468 305.915159 148.939913 
C 305.345603 148.370357 304.573012 148.050339 303.767539 148.050339 
C 302.962065 148.050339 302.189474 148.370357 301.619918 148.939913 
C 301.050363 149.509468 300.730345 150.28206 300.730345 151.087533 
C 300.730345 151.893006 301.050363 152.665598 301.619918 153.235153 
C 302.189474 153.804709 302.962065 154.124726 303.767539 154.124726 
z
" clip-path="url(#p5bc2145020)" style="fill: #800080; stroke: #ffffff; stroke-width: 0.354227"/>
    <path d="M 310.849014 180.526917 
C 311.646499 180.526917 312.411428 180.210073 312.975335 179.646166 
C 313.539242 179.08226 313.856086 178.31733 313.856086 177.519846 
C 313.856086 176.722361 313.539242 175.957432 312.975335 175.393525 
C 312.411428 174.829618 311.646499 174.512774 310.849014 174.512774 
C 310.051529 174.512774 309.2866 174.829618 308.722693 175.393525 
C 308.158786 175.957432 307.841942 176.722361 307.841942 177.519846 
C 307.841942 178.31733 308.158786 179.08226 308.722693 179.646166 
C 309.2866 180.210073 310.051529 180.526917 310.849014 180.526917 
z
" clip-path="url(#p5bc2145020)" style="fill: #800080; stroke: #ffffff; stroke-width: 0.354227"/>
    <path d="M 317.930489 142.579152 
C 318.735962 142.579152 319.508553 142.259134 320.078109 141.689578 
C 320.647665 141.120023 320.967682 140.347431 320.967682 139.541958 
C 320.967682 138.736485 320.647665 137.963893 320.078109 137.394338 
C 319.508553 136.824782 318.735962 136.504764 317.930489 136.504764 
C 317.125016 136.504764 316.352424 136.824782 315.782869 137.394338 
C 315.213313 137.963893 314.893295 138.736485 314.893295 139.541958 
C 314.893295 140.347431 315.213313 141.120023 315.782869 141.689578 
C 316.352424 142.259134 317.125016 142.579152 317.930489 142.579152 
z
" clip-path="url(#p5bc2145020)" style="fill: #800080; stroke: #ffffff; stroke-width: 0.354227"/>
    <path d="M 325.011964 134.383968 
C 325.836293 134.383968 326.626971 134.056458 327.20986 133.473569 
C 327.792749 132.89068 328.120259 132.100002 328.120259 131.275673 
C 328.120259 130.451344 327.792749 129.660666 327.20986 129.077777 
C 326.626971 128.494888 325.836293 128.167378 325.011964 128.167378 
C 324.187635 128.167378 323.396957 128.494888 322.814068 129.077777 
C 322.231179 129.660666 321.903669 130.451344 321.903669 131.275673 
C 321.903669 132.100002 322.231179 132.89068 322.814068 133.473569 
C 323.396957 134.056458 324.187635 134.383968 325.011964 134.383968 
z
" clip-path="url(#p5bc2145020)" style="fill: #800080; stroke: #ffffff; stroke-width: 0.354227"/>
    <path d="M 332.093439 119.906045 
C 332.944143 119.906045 333.760118 119.568057 334.361656 118.966519 
C 334.963194 118.364981 335.301182 117.549005 335.301182 116.698302 
C 335.301182 115.847599 334.963194 115.031623 334.361656 114.430085 
C 333.760118 113.828547 332.944143 113.490559 332.093439 113.490559 
C 331.242736 113.490559 330.42676 113.828547 329.825222 114.430085 
C 329.223684 115.031623 328.885696 115.847599 328.885696 116.698302 
C 328.885696 117.549005 329.223684 118.364981 329.825222 118.966519 
C 330.42676 119.568057 331.242736 119.906045 332.093439 119.906045 
z
" clip-path="url(#p5bc2145020)" style="fill: #800080; stroke: #ffffff; stroke-width: 0.354227"/>
    <path d="M 339.174914 119.822361 
C 340.04937 119.822361 340.888127 119.474936 341.506461 118.856603 
C 342.124794 118.23827 342.472219 117.399512 342.472219 116.525057 
C 342.472219 115.650601 342.124794 114.811843 341.506461 114.19351 
C 340.888127 113.575177 340.04937 113.227752 339.174914 113.227752 
C 338.300459 113.227752 337.461701 113.575177 336.843368 114.19351 
C 336.225034 114.811843 335.87761 115.650601 335.87761 116.525057 
C 335.87761 117.399512 336.225034 118.23827 336.843368 118.856603 
C 337.461701 119.474936 338.300459 119.822361 339.174914 119.822361 
z
" clip-path="url(#p5bc2145020)" style="fill: #800080; stroke: #ffffff; stroke-width: 0.354227"/>
    <path d="M 346.256389 89.560655 
C 347.142482 89.560655 347.992402 89.208607 348.618964 88.582044 
C 349.245526 87.955482 349.597575 87.105562 349.597575 86.21947 
C 349.597575 85.333377 349.245526 84.483457 348.618964 83.856895 
C 347.992402 83.230333 347.142482 82.878284 346.256389 82.878284 
C 345.370297 82.878284 344.520377 83.230333 343.893815 83.856895 
C 343.267252 84.483457 342.915204 85.333377 342.915204 86.21947 
C 342.915204 87.105562 343.267252 87.955482 343.893815 88.582044 
C 344.520377 89.208607 345.370297 89.560655 346.256389 89.560655 
z
" clip-path="url(#p5bc2145020)" style="fill: #800080; stroke: #ffffff; stroke-width: 0.354227"/>
    <path d="M 353.337864 91.859781 
C 354.259377 91.859781 355.143271 91.49366 355.794879 90.842052 
C 356.446486 90.190445 356.812607 89.306551 356.812607 88.385038 
C 356.812607 87.463526 356.446486 86.579632 355.794879 85.928024 
C 355.143271 85.276416 354.259377 84.910296 353.337864 84.910296 
C 352.416352 84.910296 351.532458 85.276416 350.88085 85.928024 
C 350.229243 86.579632 349.863122 87.463526 349.863122 88.385038 
C 349.863122 89.306551 350.229243 90.190445 350.88085 90.842052 
C 351.532458 91.49366 352.416352 91.859781 353.337864 91.859781 
z
" clip-path="url(#p5bc2145020)" style="fill: #800080; stroke: #ffffff; stroke-width: 0.354227"/>
    <path d="M 360.41934 105.534244 
C 361.357379 105.534244 362.257124 105.161557 362.920418 104.498263 
C 363.583712 103.834969 363.956399 102.935223 363.956399 101.997184 
C 363.956399 101.059145 363.583712 100.159399 362.920418 99.496106 
C 362.257124 98.832812 361.357379 98.460125 360.41934 98.460125 
C 359.481301 98.460125 358.581555 98.832812 357.918261 99.496106 
C 357.254967 100.159399 356.88228 101.059145 356.88228 101.997184 
C 356.88228 102.935223 357.254967 103.834969 357.918261 104.498263 
C 358.581555 105.161557 359.481301 105.534244 360.41934 105.534244 
z
" clip-path="url(#p5bc2145020)" style="fill: #800080; stroke: #ffffff; stroke-width: 0.354227"/>
    <path d="M 367.500815 92.699218 
C 368.487422 92.699218 369.433753 92.307235 370.13139 91.609598 
C 370.829027 90.911961 371.22101 89.96563 371.22101 88.979023 
C 371.22101 87.992416 370.829027 87.046084 370.13139 86.348448 
C 369.433753 85.650811 368.487422 85.258828 367.500815 85.258828 
C 366.514207 85.258828 365.567876 85.650811 364.87024 86.348448 
C 364.172603 87.046084 363.78062 87.992416 363.78062 88.979023 
C 363.78062 89.96563 364.172603 90.911961 364.87024 91.609598 
C 365.567876 92.307235 366.514207 92.699218 367.500815 92.699218 
z
" clip-path="url(#p5bc2145020)" style="fill: #800080; stroke: #ffffff; stroke-width: 0.354227"/>
    <path d="M 374.58229 66.547879 
C 375.62044 66.547879 376.616209 66.135417 377.350292 65.401335 
C 378.084374 64.667252 378.496836 63.671483 378.496836 62.633333 
C 378.496836 61.595183 378.084374 60.599414 377.350292 59.865331 
C 376.616209 59.131248 375.62044 58.718787 374.58229 58.718787 
C 373.54414 58.718787 372.548371 59.131248 371.814288 59.865331 
C 371.080205 60.599414 370.667744 61.595183 370.667744 62.633333 
C 370.667744 63.671483 371.080205 64.667252 371.814288 65.401335 
C 372.548371 66.135417 373.54414 66.547879 374.58229 66.547879 
z
" clip-path="url(#p5bc2145020)" style="fill: #800080; stroke: #ffffff; stroke-width: 0.354227"/>
    <path d="M 381.663765 78.728685 
C 382.748953 78.728685 383.789841 78.297535 384.557185 77.530191 
C 385.324529 76.762847 385.755679 75.721959 385.755679 74.636771 
C 385.755679 73.551582 385.324529 72.510694 384.557185 71.74335 
C 383.789841 70.976006 382.748953 70.544856 381.663765 70.544856 
C 380.578577 70.544856 379.537689 70.976006 378.770345 71.74335 
C 378.003001 72.510694 377.571851 73.551582 377.571851 74.636771 
C 377.571851 75.721959 378.003001 76.762847 378.770345 77.530191 
C 379.537689 78.297535 380.578577 78.728685 381.663765 78.728685 
z
" clip-path="url(#p5bc2145020)" style="fill: #800080; stroke: #ffffff; stroke-width: 0.354227"/>
    <path d="M 388.74524 58.03092 
C 389.851464 58.03092 390.912529 57.591412 391.694748 56.809194 
C 392.476966 56.026975 392.916474 54.96591 392.916474 53.859686 
C 392.916474 52.753462 392.476966 51.692397 391.694748 50.910178 
C 390.912529 50.12796 389.851464 49.688452 388.74524 49.688452 
C 387.639016 49.688452 386.577951 50.12796 385.795732 50.910178 
C 385.013514 51.692397 384.574006 52.753462 384.574006 53.859686 
C 384.574006 54.96591 385.013514 56.026975 385.795732 56.809194 
C 386.577951 57.591412 387.639016 58.03092 388.74524 58.03092 
z
" clip-path="url(#p5bc2145020)" style="fill: #800080; stroke: #ffffff; stroke-width: 0.354227"/>
    <path d="M 395.826715 62.317776 
C 396.944168 62.317776 398.016004 61.873807 398.806163 61.083648 
C 399.596321 60.293489 400.04029 59.221654 400.04029 58.104201 
C 400.04029 56.986747 399.596321 55.914912 398.806163 55.124753 
C 398.016004 54.334594 396.944168 53.890626 395.826715 53.890626 
C 394.709262 53.890626 393.637427 54.334594 392.847268 55.124753 
C 392.057109 55.914912 391.61314 56.986747 391.61314 58.104201 
C 391.61314 59.221654 392.057109 60.293489 392.847268 61.083648 
C 393.637427 61.873807 394.709262 62.317776 395.826715 62.317776 
z
" clip-path="url(#p5bc2145020)" style="fill: #800080; stroke: #ffffff; stroke-width: 0.354227"/>
    <path d="M 402.90819 42.968095 
C 404.033352 42.968095 405.112581 42.521064 405.90819 41.725455 
C 406.7038 40.929845 407.150831 39.850616 407.150831 38.725455 
C 407.150831 37.600293 406.7038 36.521064 405.90819 35.725455 
C 405.112581 34.929845 404.033352 34.482814 402.90819 34.482814 
C 401.783029 34.482814 400.7038 34.929845 399.90819 35.725455 
C 399.112581 36.521064 398.66555 37.600293 398.66555 38.725455 
C 398.66555 39.850616 399.112581 40.929845 399.90819 41.725455 
C 400.7038 42.521064 401.783029 42.968095 402.90819 42.968095 
z
" clip-path="url(#p5bc2145020)" style="fill: #800080; stroke: #ffffff; stroke-width: 0.354227"/>
    <path d="M 409.989666 53.812771 
C 411.033964 53.812771 412.035632 53.397867 412.774062 52.659436 
C 413.512493 51.921006 413.927397 50.919338 413.927397 49.87504 
C 413.927397 48.830741 413.512493 47.829073 412.774062 47.090643 
C 412.035632 46.352212 411.033964 45.937308 409.989666 45.937308 
C 408.945367 45.937308 407.943699 46.352212 407.205269 47.090643 
C 406.466838 47.829073 406.051934 48.830741 406.051934 49.87504 
C 406.051934 50.919338 406.466838 51.921006 407.205269 52.659436 
C 407.943699 53.397867 408.945367 53.812771 409.989666 53.812771 
z
" clip-path="url(#p5bc2145020)" style="fill: #800080; stroke: #ffffff; stroke-width: 0.354227"/>
    <path d="M 417.071141 51.917925 
C 418.111754 51.917925 419.109887 51.504485 419.845712 50.76866 
C 420.581537 50.032835 420.994977 49.034702 420.994977 47.994089 
C 420.994977 46.953475 420.581537 45.955342 419.845712 45.219517 
C 419.109887 44.483692 418.111754 44.070252 417.071141 44.070252 
C 416.030527 44.070252 415.032394 44.483692 414.296569 45.219517 
C 413.560744 45.955342 413.147304 46.953475 413.147304 47.994089 
C 413.147304 49.034702 413.560744 50.032835 414.296569 50.76866 
C 415.032394 51.504485 416.030527 51.917925 417.071141 51.917925 
z
" clip-path="url(#p5bc2145020)" style="fill: #800080; stroke: #ffffff; stroke-width: 0.354227"/>
    <path d="M 424.152616 63.033889 
C 425.207286 63.033889 426.218901 62.614864 426.964665 61.8691 
C 427.710429 61.123336 428.129454 60.111721 428.129454 59.057051 
C 428.129454 58.002381 427.710429 56.990766 426.964665 56.245002 
C 426.218901 55.499238 425.207286 55.080213 424.152616 55.080213 
C 423.097946 55.080213 422.086331 55.499238 421.340567 56.245002 
C 420.594803 56.990766 420.175778 58.002381 420.175778 59.057051 
C 420.175778 60.111721 420.594803 61.123336 421.340567 61.8691 
C 422.086331 62.614864 423.097946 63.033889 424.152616 63.033889 
z
" clip-path="url(#p5bc2145020)" style="fill: #800080; stroke: #ffffff; stroke-width: 0.354227"/>
    <path d="M 431.234091 99.772001 
C 432.242203 99.772001 433.209162 99.371473 433.922005 98.65863 
C 434.634848 97.945787 435.035375 96.978828 435.035375 95.970716 
C 435.035375 94.962604 434.634848 93.995645 433.922005 93.282802 
C 433.209162 92.569959 432.242203 92.169432 431.234091 92.169432 
C 430.225978 92.169432 429.25902 92.569959 428.546177 93.282802 
C 427.833334 93.995645 427.432806 94.962604 427.432806 95.970716 
C 427.432806 96.978828 427.833334 97.945787 428.546177 98.65863 
C 429.25902 99.371473 430.225978 99.772001 431.234091 99.772001 
z
" clip-path="url(#p5bc2145020)" style="fill: #800080; stroke: #ffffff; stroke-width: 0.354227"/>
   </g>
   <g id="patch_3">
    <path d="M 37.15 317.72 
L 37.15 25.44 
" style="fill: none; stroke: #ffffff; stroke-width: 0.8; stroke-linejoin: miter; stroke-linecap: square"/>
   </g>
   <g id="patch_4">
    <path d="M 450 317.72 
L 450 25.44 
" style="fill: none; stroke: #ffffff; stroke-width: 0.8; stroke-linejoin: miter; stroke-linecap: square"/>
   </g>
   <g id="patch_5">
    <path d="M 37.15 317.72 
L 450 317.72 
" style="fill: none; stroke: #ffffff; stroke-width: 0.8; stroke-linejoin: miter; stroke-linecap: square"/>
   </g>
   <g id="patch_6">
    <path d="M 37.15 25.44 
L 450 25.44 
" style="fill: none; stroke: #ffffff; stroke-width: 0.8; stroke-linejoin: miter; stroke-linecap: square"/>
   </g>
   <g id="text_11">
    <!-- Yearly average geek score from ranked games -->
    <g style="fill: #262626" transform="translate(119.403125 19.44) scale(0.12 -0.12)">
     <defs>
      <path id="ArialMT-59" d="M 1784 0 
L 1784 1941 
L 19 4581 
L 756 4581 
L 1659 3200 
Q 1909 2813 2125 2425 
Q 2331 2784 2625 3234 
L 3513 4581 
L 4219 4581 
L 2391 1941 
L 2391 0 
L 1784 0 
z
" transform="scale(0.015625)"/>
      <path id="ArialMT-65" d="M 2694 1069 
L 3275 997 
Q 3138 488 2766 206 
Q 2394 -75 1816 -75 
Q 1088 -75 661 373 
Q 234 822 234 1631 
Q 234 2469 665 2931 
Q 1097 3394 1784 3394 
Q 2450 3394 2872 2941 
Q 3294 2488 3294 1666 
Q 3294 1616 3291 1516 
L 816 1516 
Q 847 969 1125 678 
Q 1403 388 1819 388 
Q 2128 388 2347 550 
Q 2566 713 2694 1069 
z
M 847 1978 
L 2700 1978 
Q 2663 2397 2488 2606 
Q 2219 2931 1791 2931 
Q 1403 2931 1139 2672 
Q 875 2413 847 1978 
z
" transform="scale(0.015625)"/>
      <path id="ArialMT-61" d="M 2588 409 
Q 2275 144 1986 34 
Q 1697 -75 1366 -75 
Q 819 -75 525 192 
Q 231 459 231 875 
Q 231 1119 342 1320 
Q 453 1522 633 1644 
Q 813 1766 1038 1828 
Q 1203 1872 1538 1913 
Q 2219 1994 2541 2106 
Q 2544 2222 2544 2253 
Q 2544 2597 2384 2738 
Q 2169 2928 1744 2928 
Q 1347 2928 1158 2789 
Q 969 2650 878 2297 
L 328 2372 
Q 403 2725 575 2942 
Q 747 3159 1072 3276 
Q 1397 3394 1825 3394 
Q 2250 3394 2515 3294 
Q 2781 3194 2906 3042 
Q 3031 2891 3081 2659 
Q 3109 2516 3109 2141 
L 3109 1391 
Q 3109 606 3145 398 
Q 3181 191 3288 0 
L 2700 0 
Q 2613 175 2588 409 
z
M 2541 1666 
Q 2234 1541 1622 1453 
Q 1275 1403 1131 1340 
Q 988 1278 909 1158 
Q 831 1038 831 891 
Q 831 666 1001 516 
Q 1172 366 1500 366 
Q 1825 366 2078 508 
Q 2331 650 2450 897 
Q 2541 1088 2541 1459 
L 2541 1666 
z
" transform="scale(0.015625)"/>
      <path id="ArialMT-72" d="M 416 0 
L 416 3319 
L 922 3319 
L 922 2816 
Q 1116 3169 1280 3281 
Q 1444 3394 1641 3394 
Q 1925 3394 2219 3213 
L 2025 2691 
Q 1819 2813 1613 2813 
Q 1428 2813 1281 2702 
Q 1134 2591 1072 2394 
Q 978 2094 978 1738 
L 978 0 
L 416 0 
z
" transform="scale(0.015625)"/>
      <path id="ArialMT-6c" d="M 409 0 
L 409 4581 
L 972 4581 
L 972 0 
L 409 0 
z
" transform="scale(0.015625)"/>
      <path id="ArialMT-79" d="M 397 -1278 
L 334 -750 
Q 519 -800 656 -800 
Q 844 -800 956 -737 
Q 1069 -675 1141 -563 
Q 1194 -478 1313 -144 
Q 1328 -97 1363 -6 
L 103 3319 
L 709 3319 
L 1400 1397 
Q 1534 1031 1641 628 
Q 1738 1016 1872 1384 
L 2581 3319 
L 3144 3319 
L 1881 -56 
Q 1678 -603 1566 -809 
Q 1416 -1088 1222 -1217 
Q 1028 -1347 759 -1347 
Q 597 -1347 397 -1278 
z
" transform="scale(0.015625)"/>
      <path id="ArialMT-20" transform="scale(0.015625)"/>
      <path id="ArialMT-76" d="M 1344 0 
L 81 3319 
L 675 3319 
L 1388 1331 
Q 1503 1009 1600 663 
Q 1675 925 1809 1294 
L 2547 3319 
L 3125 3319 
L 1869 0 
L 1344 0 
z
" transform="scale(0.015625)"/>
      <path id="ArialMT-67" d="M 319 -275 
L 866 -356 
Q 900 -609 1056 -725 
Q 1266 -881 1628 -881 
Q 2019 -881 2231 -725 
Q 2444 -569 2519 -288 
Q 2563 -116 2559 434 
Q 2191 0 1641 0 
Q 956 0 581 494 
Q 206 988 206 1678 
Q 206 2153 378 2554 
Q 550 2956 876 3175 
Q 1203 3394 1644 3394 
Q 2231 3394 2613 2919 
L 2613 3319 
L 3131 3319 
L 3131 450 
Q 3131 -325 2973 -648 
Q 2816 -972 2473 -1159 
Q 2131 -1347 1631 -1347 
Q 1038 -1347 672 -1080 
Q 306 -813 319 -275 
z
M 784 1719 
Q 784 1066 1043 766 
Q 1303 466 1694 466 
Q 2081 466 2343 764 
Q 2606 1063 2606 1700 
Q 2606 2309 2336 2618 
Q 2066 2928 1684 2928 
Q 1309 2928 1046 2623 
Q 784 2319 784 1719 
z
" transform="scale(0.015625)"/>
      <path id="ArialMT-6b" d="M 425 0 
L 425 4581 
L 988 4581 
L 988 1969 
L 2319 3319 
L 3047 3319 
L 1778 2088 
L 3175 0 
L 2481 0 
L 1384 1697 
L 988 1316 
L 988 0 
L 425 0 
z
" transform="scale(0.015625)"/>
      <path id="ArialMT-73" d="M 197 991 
L 753 1078 
Q 800 744 1014 566 
Q 1228 388 1613 388 
Q 2000 388 2187 545 
Q 2375 703 2375 916 
Q 2375 1106 2209 1216 
Q 2094 1291 1634 1406 
Q 1016 1563 777 1677 
Q 538 1791 414 1992 
Q 291 2194 291 2438 
Q 291 2659 392 2848 
Q 494 3038 669 3163 
Q 800 3259 1026 3326 
Q 1253 3394 1513 3394 
Q 1903 3394 2198 3281 
Q 2494 3169 2634 2976 
Q 2775 2784 2828 2463 
L 2278 2388 
Q 2241 2644 2061 2787 
Q 1881 2931 1553 2931 
Q 1166 2931 1000 2803 
Q 834 2675 834 2503 
Q 834 2394 903 2306 
Q 972 2216 1119 2156 
Q 1203 2125 1616 2013 
Q 2213 1853 2448 1751 
Q 2684 1650 2818 1456 
Q 2953 1263 2953 975 
Q 2953 694 2789 445 
Q 2625 197 2315 61 
Q 2006 -75 1616 -75 
Q 969 -75 630 194 
Q 291 463 197 991 
z
" transform="scale(0.015625)"/>
      <path id="ArialMT-63" d="M 2588 1216 
L 3141 1144 
Q 3050 572 2676 248 
Q 2303 -75 1759 -75 
Q 1078 -75 664 370 
Q 250 816 250 1647 
Q 250 2184 428 2587 
Q 606 2991 970 3192 
Q 1334 3394 1763 3394 
Q 2303 3394 2647 3120 
Q 2991 2847 3088 2344 
L 2541 2259 
Q 2463 2594 2264 2762 
Q 2066 2931 1784 2931 
Q 1359 2931 1093 2626 
Q 828 2322 828 1663 
Q 828 994 1084 691 
Q 1341 388 1753 388 
Q 2084 388 2306 591 
Q 2528 794 2588 1216 
z
" transform="scale(0.015625)"/>
      <path id="ArialMT-6f" d="M 213 1659 
Q 213 2581 725 3025 
Q 1153 3394 1769 3394 
Q 2453 3394 2887 2945 
Q 3322 2497 3322 1706 
Q 3322 1066 3130 698 
Q 2938 331 2570 128 
Q 2203 -75 1769 -75 
Q 1072 -75 642 372 
Q 213 819 213 1659 
z
M 791 1659 
Q 791 1022 1069 705 
Q 1347 388 1769 388 
Q 2188 388 2466 706 
Q 2744 1025 2744 1678 
Q 2744 2294 2464 2611 
Q 2184 2928 1769 2928 
Q 1347 2928 1069 2612 
Q 791 2297 791 1659 
z
" transform="scale(0.015625)"/>
      <path id="ArialMT-66" d="M 556 0 
L 556 2881 
L 59 2881 
L 59 3319 
L 556 3319 
L 556 3672 
Q 556 4006 616 4169 
Q 697 4388 901 4523 
Q 1106 4659 1475 4659 
Q 1713 4659 2000 4603 
L 1916 4113 
Q 1741 4144 1584 4144 
Q 1328 4144 1222 4034 
Q 1116 3925 1116 3625 
L 1116 3319 
L 1763 3319 
L 1763 2881 
L 1116 2881 
L 1116 0 
L 556 0 
z
" transform="scale(0.015625)"/>
      <path id="ArialMT-6d" d="M 422 0 
L 422 3319 
L 925 3319 
L 925 2853 
Q 1081 3097 1340 3245 
Q 1600 3394 1931 3394 
Q 2300 3394 2536 3241 
Q 2772 3088 2869 2813 
Q 3263 3394 3894 3394 
Q 4388 3394 4653 3120 
Q 4919 2847 4919 2278 
L 4919 0 
L 4359 0 
L 4359 2091 
Q 4359 2428 4304 2576 
Q 4250 2725 4106 2815 
Q 3963 2906 3769 2906 
Q 3419 2906 3187 2673 
Q 2956 2441 2956 1928 
L 2956 0 
L 2394 0 
L 2394 2156 
Q 2394 2531 2256 2718 
Q 2119 2906 1806 2906 
Q 1569 2906 1367 2781 
Q 1166 2656 1075 2415 
Q 984 2175 984 1722 
L 984 0 
L 422 0 
z
" transform="scale(0.015625)"/>
      <path id="ArialMT-6e" d="M 422 0 
L 422 3319 
L 928 3319 
L 928 2847 
Q 1294 3394 1984 3394 
Q 2284 3394 2536 3286 
Q 2788 3178 2913 3003 
Q 3038 2828 3088 2588 
Q 3119 2431 3119 2041 
L 3119 0 
L 2556 0 
L 2556 2019 
Q 2556 2363 2490 2533 
Q 2425 2703 2258 2804 
Q 2091 2906 1866 2906 
Q 1506 2906 1245 2678 
Q 984 2450 984 1813 
L 984 0 
L 422 0 
z
" transform="scale(0.015625)"/>
      <path id="ArialMT-64" d="M 2575 0 
L 2575 419 
Q 2259 -75 1647 -75 
Q 1250 -75 917 144 
Q 584 363 401 755 
Q 219 1147 219 1656 
Q 219 2153 384 2558 
Q 550 2963 881 3178 
Q 1213 3394 1622 3394 
Q 1922 3394 2156 3267 
Q 2391 3141 2538 2938 
L 2538 4581 
L 3097 4581 
L 3097 0 
L 2575 0 
z
M 797 1656 
Q 797 1019 1065 703 
Q 1334 388 1700 388 
Q 2069 388 2326 689 
Q 2584 991 2584 1609 
Q 2584 2291 2321 2609 
Q 2059 2928 1675 2928 
Q 1300 2928 1048 2622 
Q 797 2316 797 1656 
z
" transform="scale(0.015625)"/>
     </defs>
     <use xlink:href="#ArialMT-59"/>
     <use xlink:href="#ArialMT-65" x="57.574219"/>
     <use xlink:href="#ArialMT-61" x="113.189453"/>
     <use xlink:href="#ArialMT-72" x="168.804688"/>
     <use xlink:href="#ArialMT-6c" x="202.105469"/>
     <use xlink:href="#ArialMT-79" x="224.322266"/>
     <use xlink:href="#ArialMT-20" x="274.322266"/>
     <use xlink:href="#ArialMT-61" x="302.105469"/>
     <use xlink:href="#ArialMT-76" x="357.720703"/>
     <use xlink:href="#ArialMT-65" x="407.720703"/>
     <use xlink:href="#ArialMT-72" x="463.335938"/>
     <use xlink:href="#ArialMT-61" x="496.636719"/>
     <use xlink:href="#ArialMT-67" x="552.251953"/>
     <use xlink:href="#ArialMT-65" x="607.867188"/>
     <use xlink:href="#ArialMT-20" x="663.482422"/>
     <use xlink:href="#ArialMT-67" x="691.265625"/>
     <use xlink:href="#ArialMT-65" x="746.880859"/>
     <use xlink:href="#ArialMT-65" x="802.496094"/>
     <use xlink:href="#ArialMT-6b" x="858.111328"/>
     <use xlink:href="#ArialMT-20" x="908.111328"/>
     <use xlink:href="#ArialMT-73" x="935.894531"/>
     <use xlink:href="#ArialMT-63" x="985.894531"/>
     <use xlink:href="#ArialMT-6f" x="1035.894531"/>
     <use xlink:href="#ArialMT-72" x="1091.509766"/>
     <use xlink:href="#ArialMT-65" x="1124.810547"/>
     <use xlink:href="#ArialMT-20" x="1180.425781"/>
     <use xlink:href="#ArialMT-66" x="1208.208984"/>
     <use xlink:href="#ArialMT-72" x="1235.992188"/>
     <use xlink:href="#ArialMT-6f" x="1269.292969"/>
     <use xlink:href="#ArialMT-6d" x="1324.908203"/>
     <use xlink:href="#ArialMT-20" x="1408.208984"/>
     <use xlink:href="#ArialMT-72" x="1435.992188"/>
     <use xlink:href="#ArialMT-61" x="1469.292969"/>
     <use xlink:href="#ArialMT-6e" x="1524.908203"/>
     <use xlink:href="#ArialMT-6b" x="1580.523438"/>
     <use xlink:href="#ArialMT-65" x="1630.523438"/>
     <use xlink:href="#ArialMT-64" x="1686.138672"/>
     <use xlink:href="#ArialMT-20" x="1741.753906"/>
     <use xlink:href="#ArialMT-67" x="1769.537109"/>
     <use xlink:href="#ArialMT-61" x="1825.152344"/>
     <use xlink:href="#ArialMT-6d" x="1880.767578"/>
     <use xlink:href="#ArialMT-65" x="1964.068359"/>
     <use xlink:href="#ArialMT-73" x="2019.683594"/>
    </g>
   </g>
  </g>
 </g>
 <defs>
  <clipPath id="p5bc2145020">
   <rect x="37.15" y="25.44" width="412.85" height="292.28"/>
  </clipPath>
 </defs>
</svg>
