<?xml version="1.0" encoding="utf-8" standalone="no"?>
<!DOCTYPE svg PUBLIC "-//W3C//DTD SVG 1.1//EN"
  "http://www.w3.org/Graphics/SVG/1.1/DTD/svg11.dtd">
<svg xmlns:xlink="http://www.w3.org/1999/xlink" width="460.8pt" height="345.6pt" viewBox="0 0 460.8 345.6" xmlns="http://www.w3.org/2000/svg" version="1.1">
 <metadata>
  <rdf:RDF xmlns:dc="http://purl.org/dc/elements/1.1/" xmlns:cc="http://creativecommons.org/ns#" xmlns:rdf="http://www.w3.org/1999/02/22-rdf-syntax-ns#">
   <cc:Work>
    <dc:type rdf:resource="http://purl.org/dc/dcmitype/StillImage"/>
    <dc:date>2024-08-17T23:40:05.031552</dc:date>
    <dc:format>image/svg+xml</dc:format>
    <dc:creator>
     <cc:Agent>
      <dc:title>Matplotlib v3.9.2, https://matplotlib.org/</dc:title>
     </cc:Agent>
    </dc:creator>
   </cc:Work>
  </rdf:RDF>
 </metadata>
 <defs>
  <style type="text/css">*{stroke-linejoin: round; stroke-linecap: butt}</style>
 </defs>
 <g id="figure_1">
  <g id="patch_1">
   <path d="M 0 345.6 
L 460.8 345.6 
L 460.8 0 
L 0 0 
z
" style="fill: #ffffff"/>
  </g>
  <g id="axes_1">
   <g id="patch_2">
    <path d="M 37.15 317.72 
L 450 317.72 
L 450 25.44 
L 37.15 25.44 
z
" style="fill: #eaeaf2"/>
   </g>
   <g id="matplotlib.axis_1">
    <g id="xtick_1">
     <g id="text_1">
      <!-- 1970 -->
      <g style="fill: #262626" transform="translate(44.794034 331.877812) scale(0.1 -0.1)">
       <defs>
        <path id="ArialMT-31" d="M 2384 0 
L 1822 0 
L 1822 3584 
Q 1619 3391 1289 3197 
Q 959 3003 697 2906 
L 697 3450 
Q 1169 3672 1522 3987 
Q 1875 4303 2022 4600 
L 2384 4600 
L 2384 0 
z
" transform="scale(0.015625)"/>
        <path id="ArialMT-39" d="M 350 1059 
L 891 1109 
Q 959 728 1153 556 
Q 1347 384 1650 384 
Q 1909 384 2104 503 
Q 2300 622 2425 820 
Q 2550 1019 2634 1356 
Q 2719 1694 2719 2044 
Q 2719 2081 2716 2156 
Q 2547 1888 2255 1720 
Q 1963 1553 1622 1553 
Q 1053 1553 659 1965 
Q 266 2378 266 3053 
Q 266 3750 677 4175 
Q 1088 4600 1706 4600 
Q 2153 4600 2523 4359 
Q 2894 4119 3086 3673 
Q 3278 3228 3278 2384 
Q 3278 1506 3087 986 
Q 2897 466 2520 194 
Q 2144 -78 1638 -78 
Q 1100 -78 759 220 
Q 419 519 350 1059 
z
M 2653 3081 
Q 2653 3566 2395 3850 
Q 2138 4134 1775 4134 
Q 1400 4134 1122 3828 
Q 844 3522 844 3034 
Q 844 2597 1108 2323 
Q 1372 2050 1759 2050 
Q 2150 2050 2401 2323 
Q 2653 2597 2653 3081 
z
" transform="scale(0.015625)"/>
        <path id="ArialMT-37" d="M 303 3981 
L 303 4522 
L 3269 4522 
L 3269 4084 
Q 2831 3619 2401 2847 
Q 1972 2075 1738 1259 
Q 1569 684 1522 0 
L 944 0 
Q 953 541 1156 1306 
Q 1359 2072 1739 2783 
Q 2119 3494 2547 3981 
L 303 3981 
z
" transform="scale(0.015625)"/>
        <path id="ArialMT-30" d="M 266 2259 
Q 266 3072 433 3567 
Q 600 4063 929 4331 
Q 1259 4600 1759 4600 
Q 2128 4600 2406 4451 
Q 2684 4303 2865 4023 
Q 3047 3744 3150 3342 
Q 3253 2941 3253 2259 
Q 3253 1453 3087 958 
Q 2922 463 2592 192 
Q 2263 -78 1759 -78 
Q 1097 -78 719 397 
Q 266 969 266 2259 
z
M 844 2259 
Q 844 1131 1108 757 
Q 1372 384 1759 384 
Q 2147 384 2411 759 
Q 2675 1134 2675 2259 
Q 2675 3391 2411 3762 
Q 2147 4134 1753 4134 
Q 1366 4134 1134 3806 
Q 844 3388 844 2259 
z
" transform="scale(0.015625)"/>
       </defs>
       <use xlink:href="#ArialMT-31"/>
       <use xlink:href="#ArialMT-39" x="55.615234"/>
       <use xlink:href="#ArialMT-37" x="111.230469"/>
       <use xlink:href="#ArialMT-30" x="166.845703"/>
      </g>
     </g>
    </g>
    <g id="xtick_2">
     <g id="text_2">
      <!-- 1980 -->
      <g style="fill: #262626" transform="translate(115.608785 331.877812) scale(0.1 -0.1)">
       <defs>
        <path id="ArialMT-38" d="M 1131 2484 
Q 781 2613 612 2850 
Q 444 3088 444 3419 
Q 444 3919 803 4259 
Q 1163 4600 1759 4600 
Q 2359 4600 2725 4251 
Q 3091 3903 3091 3403 
Q 3091 3084 2923 2848 
Q 2756 2613 2416 2484 
Q 2838 2347 3058 2040 
Q 3278 1734 3278 1309 
Q 3278 722 2862 322 
Q 2447 -78 1769 -78 
Q 1091 -78 675 323 
Q 259 725 259 1325 
Q 259 1772 486 2073 
Q 713 2375 1131 2484 
z
M 1019 3438 
Q 1019 3113 1228 2906 
Q 1438 2700 1772 2700 
Q 2097 2700 2305 2904 
Q 2513 3109 2513 3406 
Q 2513 3716 2298 3927 
Q 2084 4138 1766 4138 
Q 1444 4138 1231 3931 
Q 1019 3725 1019 3438 
z
M 838 1322 
Q 838 1081 952 856 
Q 1066 631 1291 507 
Q 1516 384 1775 384 
Q 2178 384 2440 643 
Q 2703 903 2703 1303 
Q 2703 1709 2433 1975 
Q 2163 2241 1756 2241 
Q 1359 2241 1098 1978 
Q 838 1716 838 1322 
z
" transform="scale(0.015625)"/>
       </defs>
       <use xlink:href="#ArialMT-31"/>
       <use xlink:href="#ArialMT-39" x="55.615234"/>
       <use xlink:href="#ArialMT-38" x="111.230469"/>
       <use xlink:href="#ArialMT-30" x="166.845703"/>
      </g>
     </g>
    </g>
    <g id="xtick_3">
     <g id="text_3">
      <!-- 1990 -->
      <g style="fill: #262626" transform="translate(186.423537 331.877812) scale(0.1 -0.1)">
       <use xlink:href="#ArialMT-31"/>
       <use xlink:href="#ArialMT-39" x="55.615234"/>
       <use xlink:href="#ArialMT-39" x="111.230469"/>
       <use xlink:href="#ArialMT-30" x="166.845703"/>
      </g>
     </g>
    </g>
    <g id="xtick_4">
     <g id="text_4">
      <!-- 2000 -->
      <g style="fill: #262626" transform="translate(257.238288 331.877812) scale(0.1 -0.1)">
       <defs>
        <path id="ArialMT-32" d="M 3222 541 
L 3222 0 
L 194 0 
Q 188 203 259 391 
Q 375 700 629 1000 
Q 884 1300 1366 1694 
Q 2113 2306 2375 2664 
Q 2638 3022 2638 3341 
Q 2638 3675 2398 3904 
Q 2159 4134 1775 4134 
Q 1369 4134 1125 3890 
Q 881 3647 878 3216 
L 300 3275 
Q 359 3922 746 4261 
Q 1134 4600 1788 4600 
Q 2447 4600 2831 4234 
Q 3216 3869 3216 3328 
Q 3216 3053 3103 2787 
Q 2991 2522 2730 2228 
Q 2469 1934 1863 1422 
Q 1356 997 1212 845 
Q 1069 694 975 541 
L 3222 541 
z
" transform="scale(0.015625)"/>
       </defs>
       <use xlink:href="#ArialMT-32"/>
       <use xlink:href="#ArialMT-30" x="55.615234"/>
       <use xlink:href="#ArialMT-30" x="111.230469"/>
       <use xlink:href="#ArialMT-30" x="166.845703"/>
      </g>
     </g>
    </g>
    <g id="xtick_5">
     <g id="text_5">
      <!-- 2010 -->
      <g style="fill: #262626" transform="translate(328.053039 331.877812) scale(0.1 -0.1)">
       <use xlink:href="#ArialMT-32"/>
       <use xlink:href="#ArialMT-30" x="55.615234"/>
       <use xlink:href="#ArialMT-31" x="111.230469"/>
       <use xlink:href="#ArialMT-30" x="166.845703"/>
      </g>
     </g>
    </g>
    <g id="xtick_6">
     <g id="text_6">
      <!-- 2020 -->
      <g style="fill: #262626" transform="translate(398.867791 331.877812) scale(0.1 -0.1)">
       <use xlink:href="#ArialMT-32"/>
       <use xlink:href="#ArialMT-30" x="55.615234"/>
       <use xlink:href="#ArialMT-32" x="111.230469"/>
       <use xlink:href="#ArialMT-30" x="166.845703"/>
      </g>
     </g>
    </g>
   </g>
   <g id="matplotlib.axis_2">
    <g id="ytick_1">
     <g id="text_7">
      <!-- 5.55 -->
      <g style="fill: #262626" transform="translate(10.689062 275.732826) scale(0.1 -0.1)">
       <defs>
        <path id="ArialMT-35" d="M 266 1200 
L 856 1250 
Q 922 819 1161 601 
Q 1400 384 1738 384 
Q 2144 384 2425 690 
Q 2706 997 2706 1503 
Q 2706 1984 2436 2262 
Q 2166 2541 1728 2541 
Q 1456 2541 1237 2417 
Q 1019 2294 894 2097 
L 366 2166 
L 809 4519 
L 3088 4519 
L 3088 3981 
L 1259 3981 
L 1013 2750 
Q 1425 3038 1878 3038 
Q 2478 3038 2890 2622 
Q 3303 2206 3303 1553 
Q 3303 931 2941 478 
Q 2500 -78 1738 -78 
Q 1113 -78 717 272 
Q 322 622 266 1200 
z
" transform="scale(0.015625)"/>
        <path id="ArialMT-2e" d="M 581 0 
L 581 641 
L 1222 641 
L 1222 0 
L 581 0 
z
" transform="scale(0.015625)"/>
       </defs>
       <use xlink:href="#ArialMT-35"/>
       <use xlink:href="#ArialMT-2e" x="55.615234"/>
       <use xlink:href="#ArialMT-35" x="83.398438"/>
       <use xlink:href="#ArialMT-35" x="139.013672"/>
      </g>
     </g>
    </g>
    <g id="ytick_2">
     <g id="text_8">
      <!-- 5.60 -->
      <g style="fill: #262626" transform="translate(10.689062 213.770951) scale(0.1 -0.1)">
       <defs>
        <path id="ArialMT-36" d="M 3184 3459 
L 2625 3416 
Q 2550 3747 2413 3897 
Q 2184 4138 1850 4138 
Q 1581 4138 1378 3988 
Q 1113 3794 959 3422 
Q 806 3050 800 2363 
Q 1003 2672 1297 2822 
Q 1591 2972 1913 2972 
Q 2475 2972 2870 2558 
Q 3266 2144 3266 1488 
Q 3266 1056 3080 686 
Q 2894 316 2569 119 
Q 2244 -78 1831 -78 
Q 1128 -78 684 439 
Q 241 956 241 2144 
Q 241 3472 731 4075 
Q 1159 4600 1884 4600 
Q 2425 4600 2770 4297 
Q 3116 3994 3184 3459 
z
M 888 1484 
Q 888 1194 1011 928 
Q 1134 663 1356 523 
Q 1578 384 1822 384 
Q 2178 384 2434 671 
Q 2691 959 2691 1453 
Q 2691 1928 2437 2201 
Q 2184 2475 1800 2475 
Q 1419 2475 1153 2201 
Q 888 1928 888 1484 
z
" transform="scale(0.015625)"/>
       </defs>
       <use xlink:href="#ArialMT-35"/>
       <use xlink:href="#ArialMT-2e" x="55.615234"/>
       <use xlink:href="#ArialMT-36" x="83.398438"/>
       <use xlink:href="#ArialMT-30" x="139.013672"/>
      </g>
     </g>
    </g>
    <g id="ytick_3">
     <g id="text_9">
      <!-- 5.65 -->
      <g style="fill: #262626" transform="translate(10.689062 151.809075) scale(0.1 -0.1)">
       <use xlink:href="#ArialMT-35"/>
       <use xlink:href="#ArialMT-2e" x="55.615234"/>
       <use xlink:href="#ArialMT-36" x="83.398438"/>
       <use xlink:href="#ArialMT-35" x="139.013672"/>
      </g>
     </g>
    </g>
    <g id="ytick_4">
     <g id="text_10">
      <!-- 5.70 -->
      <g style="fill: #262626" transform="translate(10.689062 89.8472) scale(0.1 -0.1)">
       <use xlink:href="#ArialMT-35"/>
       <use xlink:href="#ArialMT-2e" x="55.615234"/>
       <use xlink:href="#ArialMT-37" x="83.398438"/>
       <use xlink:href="#ArialMT-30" x="139.013672"/>
      </g>
     </g>
    </g>
   </g>
   <g id="PathCollection_1">
    <path d="M 55.915909 306.558007 
C 56.479058 306.558007 57.019217 306.334266 57.417423 305.93606 
C 57.81563 305.537854 58.039371 304.997694 58.039371 304.434545 
C 58.039371 303.871397 57.81563 303.331237 57.417423 302.933031 
C 57.019217 302.534825 56.479058 302.311083 55.915909 302.311083 
C 55.35276 302.311083 54.812601 302.534825 54.414395 302.933031 
C 54.016188 303.331237 53.792447 303.871397 53.792447 304.434545 
C 53.792447 304.997694 54.016188 305.537854 54.414395 305.93606 
C 54.812601 306.334266 55.35276 306.558007 55.915909 306.558007 
z
" clip-path="url(#peb7cdf8909)" style="fill: #800080; stroke: #ffffff; stroke-width: 0.354208"/>
    <path d="M 62.997384 265.941368 
C 63.559965 265.941368 64.09958 265.717852 64.497384 265.320047 
C 64.895189 264.922243 65.118705 264.382628 65.118705 263.820047 
C 65.118705 263.257467 64.895189 262.717852 64.497384 262.320047 
C 64.09958 261.922243 63.559965 261.698727 62.997384 261.698727 
C 62.434803 261.698727 61.895189 261.922243 61.497384 262.320047 
C 61.09958 262.717852 60.876064 263.257467 60.876064 263.820047 
C 60.876064 264.382628 61.09958 264.922243 61.497384 265.320047 
C 61.895189 265.717852 62.434803 265.941368 62.997384 265.941368 
z
" clip-path="url(#peb7cdf8909)" style="fill: #800080; stroke: #ffffff; stroke-width: 0.354208"/>
    <path d="M 70.078859 296.67869 
C 70.657685 296.67869 71.212882 296.44872 71.622173 296.039429 
C 72.031465 295.630137 72.261435 295.074941 72.261435 294.496115 
C 72.261435 293.917289 72.031465 293.362092 71.622173 292.952801 
C 71.212882 292.543509 70.657685 292.313539 70.078859 292.313539 
C 69.500034 292.313539 68.944837 292.543509 68.535545 292.952801 
C 68.126254 293.362092 67.896284 293.917289 67.896284 294.496115 
C 67.896284 295.074941 68.126254 295.630137 68.535545 296.039429 
C 68.944837 296.44872 69.500034 296.67869 70.078859 296.67869 
z
" clip-path="url(#peb7cdf8909)" style="fill: #800080; stroke: #ffffff; stroke-width: 0.354208"/>
    <path d="M 77.160334 289.682454 
C 77.742465 289.682454 78.300831 289.451171 78.712459 289.039543 
C 79.124087 288.627915 79.35537 288.069549 79.35537 287.487418 
C 79.35537 286.905288 79.124087 286.346922 78.712459 285.935294 
C 78.300831 285.523666 77.742465 285.292383 77.160334 285.292383 
C 76.578204 285.292383 76.019838 285.523666 75.60821 285.935294 
C 75.196582 286.346922 74.965299 286.905288 74.965299 287.487418 
C 74.965299 288.069549 75.196582 288.627915 75.60821 289.039543 
C 76.019838 289.451171 76.578204 289.682454 77.160334 289.682454 
z
" clip-path="url(#peb7cdf8909)" style="fill: #800080; stroke: #ffffff; stroke-width: 0.354208"/>
    <path d="M 84.24181 245.326778 
C 84.824489 245.326778 85.383381 245.095277 85.795398 244.683261 
C 86.207414 244.271245 86.438915 243.712352 86.438915 243.129673 
C 86.438915 242.546994 86.207414 241.988101 85.795398 241.576085 
C 85.383381 241.164068 84.824489 240.932567 84.24181 240.932567 
C 83.65913 240.932567 83.100238 241.164068 82.688221 241.576085 
C 82.276205 241.988101 82.044704 242.546994 82.044704 243.129673 
C 82.044704 243.712352 82.276205 244.271245 82.688221 244.683261 
C 83.100238 245.095277 83.65913 245.326778 84.24181 245.326778 
z
" clip-path="url(#peb7cdf8909)" style="fill: #800080; stroke: #ffffff; stroke-width: 0.354208"/>
    <path d="M 91.323285 300.275871 
C 91.932255 300.275871 92.516366 300.033925 92.946973 299.603318 
C 93.37758 299.17271 93.619527 298.5886 93.619527 297.979629 
C 93.619527 297.370659 93.37758 296.786548 92.946973 296.355941 
C 92.516366 295.925334 91.932255 295.683387 91.323285 295.683387 
C 90.714314 295.683387 90.130204 295.925334 89.699596 296.355941 
C 89.268989 296.786548 89.027043 297.370659 89.027043 297.979629 
C 89.027043 298.5886 89.268989 299.17271 89.699596 299.603318 
C 90.130204 300.033925 90.714314 300.275871 91.323285 300.275871 
z
" clip-path="url(#peb7cdf8909)" style="fill: #800080; stroke: #ffffff; stroke-width: 0.354208"/>
    <path d="M 98.40476 277.790739 
C 98.984138 277.790739 99.539864 277.560549 99.949546 277.150867 
C 100.359228 276.741185 100.589417 276.185459 100.589417 275.606081 
C 100.589417 275.026703 100.359228 274.470977 99.949546 274.061295 
C 99.539864 273.651613 98.984138 273.421424 98.40476 273.421424 
C 97.825382 273.421424 97.269656 273.651613 96.859974 274.061295 
C 96.450292 274.470977 96.220103 275.026703 96.220103 275.606081 
C 96.220103 276.185459 96.450292 276.741185 96.859974 277.150867 
C 97.269656 277.560549 97.825382 277.790739 98.40476 277.790739 
z
" clip-path="url(#peb7cdf8909)" style="fill: #800080; stroke: #ffffff; stroke-width: 0.354208"/>
    <path d="M 105.486235 226.912801 
C 106.088342 226.912801 106.66587 226.673582 107.091624 226.247827 
C 107.517378 225.822073 107.756597 225.244546 107.756597 224.642439 
C 107.756597 224.040332 107.517378 223.462804 107.091624 223.03705 
C 106.66587 222.611296 106.088342 222.372076 105.486235 222.372076 
C 104.884128 222.372076 104.3066 222.611296 103.880846 223.03705 
C 103.455092 223.462804 103.215873 224.040332 103.215873 224.642439 
C 103.215873 225.244546 103.455092 225.822073 103.880846 226.247827 
C 104.3066 226.673582 104.884128 226.912801 105.486235 226.912801 
z
" clip-path="url(#peb7cdf8909)" style="fill: #800080; stroke: #ffffff; stroke-width: 0.354208"/>
    <path d="M 112.56771 305.675883 
C 113.16502 305.675883 113.737945 305.43857 114.160307 305.016208 
C 114.582668 304.593847 114.819982 304.020921 114.819982 303.423612 
C 114.819982 302.826302 114.582668 302.253377 114.160307 301.831015 
C 113.737945 301.408654 113.16502 301.17134 112.56771 301.17134 
C 111.970401 301.17134 111.397475 301.408654 110.975114 301.831015 
C 110.552752 302.253377 110.315439 302.826302 110.315439 303.423612 
C 110.315439 304.020921 110.552752 304.593847 110.975114 305.016208 
C 111.397475 305.43857 111.970401 305.675883 112.56771 305.675883 
z
" clip-path="url(#peb7cdf8909)" style="fill: #800080; stroke: #ffffff; stroke-width: 0.354208"/>
    <path d="M 119.649185 231.937578 
C 120.264943 231.937578 120.855563 231.692935 121.290969 231.257529 
C 121.726375 230.822123 121.971018 230.231503 121.971018 229.615745 
C 121.971018 228.999988 121.726375 228.409367 121.290969 227.973961 
C 120.855563 227.538555 120.264943 227.293912 119.649185 227.293912 
C 119.033428 227.293912 118.442807 227.538555 118.007401 227.973961 
C 117.571995 228.409367 117.327352 228.999988 117.327352 229.615745 
C 117.327352 230.231503 117.571995 230.822123 118.007401 231.257529 
C 118.442807 231.692935 119.033428 231.937578 119.649185 231.937578 
z
" clip-path="url(#peb7cdf8909)" style="fill: #800080; stroke: #ffffff; stroke-width: 0.354208"/>
    <path d="M 126.73066 243.558144 
C 127.343295 243.558144 127.93092 243.314742 128.364117 242.881544 
C 128.797315 242.448346 129.040717 241.860722 129.040717 241.248087 
C 129.040717 240.635453 128.797315 240.047828 128.364117 239.61463 
C 127.93092 239.181432 127.343295 238.93803 126.73066 238.93803 
C 126.118026 238.93803 125.530401 239.181432 125.097203 239.61463 
C 124.664005 240.047828 124.420603 240.635453 124.420603 241.248087 
C 124.420603 241.860722 124.664005 242.448346 125.097203 242.881544 
C 125.530401 243.314742 126.118026 243.558144 126.73066 243.558144 
z
" clip-path="url(#peb7cdf8909)" style="fill: #800080; stroke: #ffffff; stroke-width: 0.354208"/>
    <path d="M 133.812136 269.584716 
C 134.439211 269.584716 135.040687 269.335576 135.484097 268.892167 
C 135.927506 268.448757 136.176646 267.847281 136.176646 267.220205 
C 136.176646 266.59313 135.927506 265.991653 135.484097 265.548244 
C 135.040687 265.104835 134.439211 264.855695 133.812136 264.855695 
C 133.18506 264.855695 132.583584 265.104835 132.140174 265.548244 
C 131.696765 265.991653 131.447625 266.59313 131.447625 267.220205 
C 131.447625 267.847281 131.696765 268.448757 132.140174 268.892167 
C 132.583584 269.335576 133.18506 269.584716 133.812136 269.584716 
z
" clip-path="url(#peb7cdf8909)" style="fill: #800080; stroke: #ffffff; stroke-width: 0.354208"/>
    <path d="M 140.893611 251.063002 
C 141.508329 251.063002 142.097952 250.818772 142.532624 250.384101 
C 142.967295 249.949429 143.211525 249.359806 143.211525 248.745088 
C 143.211525 248.13037 142.967295 247.540746 142.532624 247.106075 
C 142.097952 246.671403 141.508329 246.427173 140.893611 246.427173 
C 140.278893 246.427173 139.689269 246.671403 139.254598 247.106075 
C 138.819926 247.540746 138.575696 248.13037 138.575696 248.745088 
C 138.575696 249.359806 138.819926 249.949429 139.254598 250.384101 
C 139.689269 250.818772 140.278893 251.063002 140.893611 251.063002 
z
" clip-path="url(#peb7cdf8909)" style="fill: #800080; stroke: #ffffff; stroke-width: 0.354208"/>
    <path d="M 147.975086 248.030948 
C 148.595498 248.030948 149.190584 247.784456 149.629282 247.345758 
C 150.067979 246.90706 150.314472 246.311975 150.314472 245.691562 
C 150.314472 245.07115 150.067979 244.476064 149.629282 244.037367 
C 149.190584 243.598669 148.595498 243.352176 147.975086 243.352176 
C 147.354673 243.352176 146.759588 243.598669 146.32089 244.037367 
C 145.882192 244.476064 145.6357 245.07115 145.6357 245.691562 
C 145.6357 246.311975 145.882192 246.90706 146.32089 247.345758 
C 146.759588 247.784456 147.354673 248.030948 147.975086 248.030948 
z
" clip-path="url(#peb7cdf8909)" style="fill: #800080; stroke: #ffffff; stroke-width: 0.354208"/>
    <path d="M 155.056561 271.868938 
C 155.65654 271.868938 156.232027 271.630564 156.656277 271.206314 
C 157.080526 270.782064 157.318901 270.206578 157.318901 269.606598 
C 157.318901 269.006619 157.080526 268.431132 156.656277 268.006882 
C 156.232027 267.582633 155.65654 267.344258 155.056561 267.344258 
C 154.456581 267.344258 153.881095 267.582633 153.456845 268.006882 
C 153.032595 268.431132 152.794221 269.006619 152.794221 269.606598 
C 152.794221 270.206578 153.032595 270.782064 153.456845 271.206314 
C 153.881095 271.630564 154.456581 271.868938 155.056561 271.868938 
z
" clip-path="url(#peb7cdf8909)" style="fill: #800080; stroke: #ffffff; stroke-width: 0.354208"/>
    <path d="M 162.138036 233.859368 
C 162.753274 233.859368 163.343396 233.614931 163.778435 233.179892 
C 164.213474 232.744853 164.457911 232.154731 164.457911 231.539493 
C 164.457911 230.924255 164.213474 230.334133 163.778435 229.899094 
C 163.343396 229.464055 162.753274 229.219619 162.138036 229.219619 
C 161.522798 229.219619 160.932676 229.464055 160.497637 229.899094 
C 160.062598 230.334133 159.818161 230.924255 159.818161 231.539493 
C 159.818161 232.154731 160.062598 232.744853 160.497637 233.179892 
C 160.932676 233.614931 161.522798 233.859368 162.138036 233.859368 
z
" clip-path="url(#peb7cdf8909)" style="fill: #800080; stroke: #ffffff; stroke-width: 0.354208"/>
    <path d="M 169.219511 215.257699 
C 169.844544 215.257699 170.444061 215.009371 170.886026 214.567406 
C 171.327991 214.125441 171.576319 213.525923 171.576319 212.90089 
C 171.576319 212.275858 171.327991 211.67634 170.886026 211.234375 
C 170.444061 210.79241 169.844544 210.544082 169.219511 210.544082 
C 168.594478 210.544082 167.994961 210.79241 167.552996 211.234375 
C 167.111031 211.67634 166.862703 212.275858 166.862703 212.90089 
C 166.862703 213.525923 167.111031 214.125441 167.552996 214.567406 
C 167.994961 215.009371 168.594478 215.257699 169.219511 215.257699 
z
" clip-path="url(#peb7cdf8909)" style="fill: #800080; stroke: #ffffff; stroke-width: 0.354208"/>
    <path d="M 176.300986 260.533038 
C 176.920367 260.533038 177.514463 260.286956 177.952432 259.848987 
C 178.3904 259.411019 178.636483 258.816922 178.636483 258.197541 
C 178.636483 257.57816 178.3904 256.984064 177.952432 256.546096 
C 177.514463 256.108127 176.920367 255.862045 176.300986 255.862045 
C 175.681605 255.862045 175.087509 256.108127 174.649541 256.546096 
C 174.211572 256.984064 173.965489 257.57816 173.965489 258.197541 
C 173.965489 258.816922 174.211572 259.411019 174.649541 259.848987 
C 175.087509 260.286956 175.681605 260.533038 176.300986 260.533038 
z
" clip-path="url(#peb7cdf8909)" style="fill: #800080; stroke: #ffffff; stroke-width: 0.354208"/>
    <path d="M 183.382461 256.947726 
C 183.999774 256.947726 184.591887 256.702465 185.028393 256.265959 
C 185.464899 255.829453 185.71016 255.23734 185.71016 254.620027 
C 185.71016 254.002714 185.464899 253.410602 185.028393 252.974096 
C 184.591887 252.537589 183.999774 252.292328 183.382461 252.292328 
C 182.765148 252.292328 182.173036 252.537589 181.73653 252.974096 
C 181.300024 253.410602 181.054763 254.002714 181.054763 254.620027 
C 181.054763 255.23734 181.300024 255.829453 181.73653 256.265959 
C 182.173036 256.702465 182.765148 256.947726 183.382461 256.947726 
z
" clip-path="url(#peb7cdf8909)" style="fill: #800080; stroke: #ffffff; stroke-width: 0.354208"/>
    <path d="M 190.463937 241.241929 
C 191.081249 241.241929 191.673362 240.996668 192.109868 240.560162 
C 192.546374 240.123655 192.791635 239.531543 192.791635 238.91423 
C 192.791635 238.296917 192.546374 237.704804 192.109868 237.268298 
C 191.673362 236.831792 191.081249 236.586531 190.463937 236.586531 
C 189.846624 236.586531 189.254511 236.831792 188.818005 237.268298 
C 188.381499 237.704804 188.136238 238.296917 188.136238 238.91423 
C 188.136238 239.531543 188.381499 240.123655 188.818005 240.560162 
C 189.254511 240.996668 189.846624 241.241929 190.463937 241.241929 
z
" clip-path="url(#peb7cdf8909)" style="fill: #800080; stroke: #ffffff; stroke-width: 0.354208"/>
    <path d="M 197.545412 250.067837 
C 198.169933 250.067837 198.768959 249.819712 199.210562 249.378109 
C 199.652166 248.936506 199.900291 248.337479 199.900291 247.712958 
C 199.900291 247.088437 199.652166 246.48941 199.210562 246.047807 
C 198.768959 245.606204 198.169933 245.358079 197.545412 245.358079 
C 196.92089 245.358079 196.321864 245.606204 195.880261 246.047807 
C 195.438658 246.48941 195.190533 247.088437 195.190533 247.712958 
C 195.190533 248.337479 195.438658 248.936506 195.880261 249.378109 
C 196.321864 249.819712 196.92089 250.067837 197.545412 250.067837 
z
" clip-path="url(#peb7cdf8909)" style="fill: #800080; stroke: #ffffff; stroke-width: 0.354208"/>
    <path d="M 204.626887 247.327768 
C 205.264077 247.327768 205.875255 247.074609 206.325817 246.624048 
C 206.776378 246.173486 207.029537 245.562308 207.029537 244.925118 
C 207.029537 244.287928 206.776378 243.676749 206.325817 243.226188 
C 205.875255 242.775626 205.264077 242.522468 204.626887 242.522468 
C 203.989697 242.522468 203.378518 242.775626 202.927957 243.226188 
C 202.477395 243.676749 202.224237 244.287928 202.224237 244.925118 
C 202.224237 245.562308 202.477395 246.173486 202.927957 246.624048 
C 203.378518 247.074609 203.989697 247.327768 204.626887 247.327768 
z
" clip-path="url(#peb7cdf8909)" style="fill: #800080; stroke: #ffffff; stroke-width: 0.354208"/>
    <path d="M 211.708362 231.184598 
C 212.36141 231.184598 212.987799 230.925139 213.449574 230.463364 
C 213.911348 230.001589 214.170807 229.3752 214.170807 228.722152 
C 214.170807 228.069104 213.911348 227.442715 213.449574 226.980941 
C 212.987799 226.519166 212.36141 226.259707 211.708362 226.259707 
C 211.055314 226.259707 210.428925 226.519166 209.96715 226.980941 
C 209.505375 227.442715 209.245917 228.069104 209.245917 228.722152 
C 209.245917 229.3752 209.505375 230.001589 209.96715 230.463364 
C 210.428925 230.925139 211.055314 231.184598 211.708362 231.184598 
z
" clip-path="url(#peb7cdf8909)" style="fill: #800080; stroke: #ffffff; stroke-width: 0.354208"/>
    <path d="M 218.789837 246.752854 
C 219.4355 246.752854 220.054806 246.496329 220.511359 246.039776 
C 220.967911 245.583224 221.224436 244.963918 221.224436 244.318255 
C 221.224436 243.672592 220.967911 243.053286 220.511359 242.596733 
C 220.054806 242.14018 219.4355 241.883656 218.789837 241.883656 
C 218.144174 241.883656 217.524868 242.14018 217.068316 242.596733 
C 216.611763 243.053286 216.355238 243.672592 216.355238 244.318255 
C 216.355238 244.963918 216.611763 245.583224 217.068316 246.039776 
C 217.524868 246.496329 218.144174 246.752854 218.789837 246.752854 
z
" clip-path="url(#peb7cdf8909)" style="fill: #800080; stroke: #ffffff; stroke-width: 0.354208"/>
    <path d="M 225.871312 228.037759 
C 226.513998 228.037759 227.130447 227.782417 227.584894 227.32797 
C 228.039342 226.873522 228.294683 226.257073 228.294683 225.614388 
C 228.294683 224.971702 228.039342 224.355253 227.584894 223.900805 
C 227.130447 223.446358 226.513998 223.191016 225.871312 223.191016 
C 225.228627 223.191016 224.612177 223.446358 224.15773 223.900805 
C 223.703283 224.355253 223.447941 224.971702 223.447941 225.614388 
C 223.447941 226.257073 223.703283 226.873522 224.15773 227.32797 
C 224.612177 227.782417 225.228627 228.037759 225.871312 228.037759 
z
" clip-path="url(#peb7cdf8909)" style="fill: #800080; stroke: #ffffff; stroke-width: 0.354208"/>
    <path d="M 232.952787 195.199973 
C 233.611684 195.199973 234.243682 194.938191 234.709592 194.472281 
C 235.175502 194.006371 235.437285 193.374372 235.437285 192.715476 
C 235.437285 192.05658 235.175502 191.424581 234.709592 190.958671 
C 234.243682 190.492761 233.611684 190.230979 232.952787 190.230979 
C 232.293891 190.230979 231.661892 190.492761 231.195982 190.958671 
C 230.730072 191.424581 230.46829 192.05658 230.46829 192.715476 
C 230.46829 193.374372 230.730072 194.006371 231.195982 194.472281 
C 231.661892 194.938191 232.293891 195.199973 232.952787 195.199973 
z
" clip-path="url(#peb7cdf8909)" style="fill: #800080; stroke: #ffffff; stroke-width: 0.354208"/>
    <path d="M 240.034262 244.42179 
C 240.694613 244.42179 241.328006 244.15943 241.794944 243.692492 
C 242.261882 243.225554 242.524242 242.592161 242.524242 241.93181 
C 242.524242 241.27146 242.261882 240.638067 241.794944 240.171129 
C 241.328006 239.70419 240.694613 239.44183 240.034262 239.44183 
C 239.373912 239.44183 238.740519 239.70419 238.273581 240.171129 
C 237.806643 240.638067 237.544283 241.27146 237.544283 241.93181 
C 237.544283 242.592161 237.806643 243.225554 238.273581 243.692492 
C 238.740519 244.15943 239.373912 244.42179 240.034262 244.42179 
z
" clip-path="url(#peb7cdf8909)" style="fill: #800080; stroke: #ffffff; stroke-width: 0.354208"/>
    <path d="M 247.115738 220.059346 
C 247.781392 220.059346 248.419873 219.794879 248.890561 219.32419 
C 249.36125 218.853501 249.625718 218.215021 249.625718 217.549366 
C 249.625718 216.883712 249.36125 216.245231 248.890561 215.774542 
C 248.419873 215.303853 247.781392 215.039386 247.115738 215.039386 
C 246.450083 215.039386 245.811602 215.303853 245.340914 215.774542 
C 244.870225 216.245231 244.605757 216.883712 244.605757 217.549366 
C 244.605757 218.215021 244.870225 218.853501 245.340914 219.32419 
C 245.811602 219.794879 246.450083 220.059346 247.115738 220.059346 
z
" clip-path="url(#peb7cdf8909)" style="fill: #800080; stroke: #ffffff; stroke-width: 0.354208"/>
    <path d="M 254.197213 223.403763 
C 254.873351 223.403763 255.521887 223.13513 255.999988 222.657029 
C 256.47809 222.178927 256.746722 221.530391 256.746722 220.854253 
C 256.746722 220.178115 256.47809 219.529579 255.999988 219.051478 
C 255.521887 218.573376 254.873351 218.304743 254.197213 218.304743 
C 253.521075 218.304743 252.872539 218.573376 252.394437 219.051478 
C 251.916335 219.529579 251.647703 220.178115 251.647703 220.854253 
C 251.647703 221.530391 251.916335 222.178927 252.394437 222.657029 
C 252.872539 223.13513 253.521075 223.403763 254.197213 223.403763 
z
" clip-path="url(#peb7cdf8909)" style="fill: #800080; stroke: #ffffff; stroke-width: 0.354208"/>
    <path d="M 261.278688 157.397515 
C 261.965615 157.397515 262.624499 157.124596 263.11023 156.638865 
C 263.59596 156.153135 263.868879 155.49425 263.868879 154.807324 
C 263.868879 154.120397 263.59596 153.461512 263.11023 152.975782 
C 262.624499 152.490051 261.965615 152.217132 261.278688 152.217132 
C 260.591761 152.217132 259.932877 152.490051 259.447146 152.975782 
C 258.961415 153.461512 258.688497 154.120397 258.688497 154.807324 
C 258.688497 155.49425 258.961415 156.153135 259.447146 156.638865 
C 259.932877 157.124596 260.591761 157.397515 261.278688 157.397515 
z
" clip-path="url(#peb7cdf8909)" style="fill: #800080; stroke: #ffffff; stroke-width: 0.354208"/>
    <path d="M 268.360163 197.755372 
C 269.05817 197.755372 269.727682 197.478051 270.221248 196.984485 
C 270.714813 196.49092 270.992134 195.821408 270.992134 195.123401 
C 270.992134 194.425394 270.714813 193.755881 270.221248 193.262316 
C 269.727682 192.76875 269.05817 192.491429 268.360163 192.491429 
C 267.662156 192.491429 266.992644 192.76875 266.499078 193.262316 
C 266.005513 193.755881 265.728192 194.425394 265.728192 195.123401 
C 265.728192 195.821408 266.005513 196.49092 266.499078 196.984485 
C 266.992644 197.478051 267.662156 197.755372 268.360163 197.755372 
z
" clip-path="url(#peb7cdf8909)" style="fill: #800080; stroke: #ffffff; stroke-width: 0.354208"/>
    <path d="M 275.441638 206.680974 
C 276.141018 206.680974 276.811847 206.403108 277.306383 205.908572 
C 277.800919 205.414036 278.078785 204.743207 278.078785 204.043827 
C 278.078785 203.344448 277.800919 202.673619 277.306383 202.179083 
C 276.811847 201.684547 276.141018 201.40668 275.441638 201.40668 
C 274.742258 201.40668 274.071429 201.684547 273.576893 202.179083 
C 273.082357 202.673619 272.804491 203.344448 272.804491 204.043827 
C 272.804491 204.743207 273.082357 205.414036 273.576893 205.908572 
C 274.071429 206.403108 274.742258 206.680974 275.441638 206.680974 
z
" clip-path="url(#peb7cdf8909)" style="fill: #800080; stroke: #ffffff; stroke-width: 0.354208"/>
    <path d="M 282.523113 193.476636 
C 283.240544 193.476636 283.928688 193.191598 284.435988 192.684297 
C 284.943289 192.176997 285.228327 191.488853 285.228327 190.771422 
C 285.228327 190.053991 284.943289 189.365848 284.435988 188.858547 
C 283.928688 188.351247 283.240544 188.066208 282.523113 188.066208 
C 281.805682 188.066208 281.117539 188.351247 280.610238 188.858547 
C 280.102938 189.365848 279.817899 190.053991 279.817899 190.771422 
C 279.817899 191.488853 280.102938 192.176997 280.610238 192.684297 
C 281.117539 193.191598 281.805682 193.476636 282.523113 193.476636 
z
" clip-path="url(#peb7cdf8909)" style="fill: #800080; stroke: #ffffff; stroke-width: 0.354208"/>
    <path d="M 289.604588 186.028421 
C 290.354696 186.028421 291.074182 185.7304 291.604588 185.199993 
C 292.134995 184.669587 292.433015 183.950101 292.433015 183.199993 
C 292.433015 182.449886 292.134995 181.7304 291.604588 181.199993 
C 291.074182 180.669587 290.354696 180.371566 289.604588 180.371566 
C 288.854481 180.371566 288.134995 180.669587 287.604588 181.199993 
C 287.074182 181.7304 286.776161 182.449886 286.776161 183.199993 
C 286.776161 183.950101 287.074182 184.669587 287.604588 185.199993 
C 288.134995 185.7304 288.854481 186.028421 289.604588 186.028421 
z
" clip-path="url(#peb7cdf8909)" style="fill: #800080; stroke: #ffffff; stroke-width: 0.354208"/>
    <path d="M 296.686063 150.317345 
C 297.472783 150.317345 298.227386 150.004778 298.783681 149.448484 
C 299.339976 148.892189 299.652543 148.137585 299.652543 147.350866 
C 299.652543 146.564146 299.339976 145.809543 298.783681 145.253248 
C 298.227386 144.696954 297.472783 144.384387 296.686063 144.384387 
C 295.899344 144.384387 295.14474 144.696954 294.588446 145.253248 
C 294.032151 145.809543 293.719584 146.564146 293.719584 147.350866 
C 293.719584 148.137585 294.032151 148.892189 294.588446 149.448484 
C 295.14474 150.004778 295.899344 150.317345 296.686063 150.317345 
z
" clip-path="url(#peb7cdf8909)" style="fill: #800080; stroke: #ffffff; stroke-width: 0.354208"/>
    <path d="M 303.767539 153.47679 
C 304.572337 153.47679 305.344281 153.15704 305.913359 152.587962 
C 306.482437 152.018884 306.802187 151.246939 306.802187 150.442141 
C 306.802187 149.637343 306.482437 148.865399 305.913359 148.296321 
C 305.344281 147.727243 304.572337 147.407493 303.767539 147.407493 
C 302.96274 147.407493 302.190796 147.727243 301.621718 148.296321 
C 301.05264 148.865399 300.73289 149.637343 300.73289 150.442141 
C 300.73289 151.246939 301.05264 152.018884 301.621718 152.587962 
C 302.190796 153.15704 302.96274 153.47679 303.767539 153.47679 
z
" clip-path="url(#peb7cdf8909)" style="fill: #800080; stroke: #ffffff; stroke-width: 0.354208"/>
    <path d="M 310.849014 180.912227 
C 311.64703 180.912227 312.41247 180.595172 312.976753 180.030889 
C 313.541036 179.466606 313.858091 178.701166 313.858091 177.90315 
C 313.858091 177.105133 313.541036 176.339694 312.976753 175.775411 
C 312.41247 175.211128 311.64703 174.894073 310.849014 174.894073 
C 310.050997 174.894073 309.285558 175.211128 308.721275 175.775411 
C 308.156992 176.339694 307.839937 177.105133 307.839937 177.90315 
C 307.839937 178.701166 308.156992 179.466606 308.721275 180.030889 
C 309.285558 180.595172 310.050997 180.912227 310.849014 180.912227 
z
" clip-path="url(#peb7cdf8909)" style="fill: #800080; stroke: #ffffff; stroke-width: 0.354208"/>
    <path d="M 317.930489 141.558554 
C 318.73489 141.558554 319.506453 141.238962 320.07525 140.670165 
C 320.644047 140.101368 320.963639 139.329805 320.963639 138.525404 
C 320.963639 137.721003 320.644047 136.94944 320.07525 136.380643 
C 319.506453 135.811846 318.73489 135.492254 317.930489 135.492254 
C 317.126088 135.492254 316.354525 135.811846 315.785728 136.380643 
C 315.216931 136.94944 314.897339 137.721003 314.897339 138.525404 
C 314.897339 139.329805 315.216931 140.101368 315.785728 140.670165 
C 316.354525 141.238962 317.126088 141.558554 317.930489 141.558554 
z
" clip-path="url(#peb7cdf8909)" style="fill: #800080; stroke: #ffffff; stroke-width: 0.354208"/>
    <path d="M 325.011964 134.421585 
C 325.836385 134.421585 326.62715 134.09404 327.210104 133.511086 
C 327.793057 132.928133 328.120603 132.137367 328.120603 131.312946 
C 328.120603 130.488526 327.793057 129.69776 327.210104 129.114807 
C 326.62715 128.531853 325.836385 128.204307 325.011964 128.204307 
C 324.187543 128.204307 323.396778 128.531853 322.813824 129.114807 
C 322.230871 129.69776 321.903325 130.488526 321.903325 131.312946 
C 321.903325 132.137367 322.230871 132.928133 322.813824 133.511086 
C 323.396778 134.09404 324.187543 134.421585 325.011964 134.421585 
z
" clip-path="url(#peb7cdf8909)" style="fill: #800080; stroke: #ffffff; stroke-width: 0.354208"/>
    <path d="M 332.093439 119.215103 
C 332.943444 119.215103 333.75875 118.877393 334.359794 118.276348 
C 334.960838 117.675304 335.298549 116.859999 335.298549 116.009994 
C 335.298549 115.159989 334.960838 114.344683 334.359794 113.743639 
C 333.75875 113.142595 332.943444 112.804884 332.093439 112.804884 
C 331.243434 112.804884 330.428129 113.142595 329.827084 113.743639 
C 329.22604 114.344683 328.88833 115.159989 328.88833 116.009994 
C 328.88833 116.859999 329.22604 117.675304 329.827084 118.276348 
C 330.428129 118.877393 331.243434 119.215103 332.093439 119.215103 
z
" clip-path="url(#peb7cdf8909)" style="fill: #800080; stroke: #ffffff; stroke-width: 0.354208"/>
    <path d="M 339.174914 118.503163 
C 340.047927 118.503163 340.8853 118.156311 341.502613 117.538998 
C 342.119926 116.921685 342.466777 116.084312 342.466777 115.211299 
C 342.466777 114.338287 342.119926 113.500913 341.502613 112.883601 
C 340.8853 112.266288 340.047927 111.919436 339.174914 111.919436 
C 338.301902 111.919436 337.464528 112.266288 336.847215 112.883601 
C 336.229902 113.500913 335.883051 114.338287 335.883051 115.211299 
C 335.883051 116.084312 336.229902 116.921685 336.847215 117.538998 
C 337.464528 118.156311 338.301902 118.503163 339.174914 118.503163 
z
" clip-path="url(#peb7cdf8909)" style="fill: #800080; stroke: #ffffff; stroke-width: 0.354208"/>
    <path d="M 346.256389 89.561402 
C 347.142487 89.561402 347.992411 89.209352 348.618977 88.582786 
C 349.245542 87.956221 349.597592 87.106296 349.597592 86.220199 
C 349.597592 85.334102 349.245542 84.484177 348.618977 83.857612 
C 347.992411 83.231046 347.142487 82.878996 346.256389 82.878996 
C 345.370292 82.878996 344.520368 83.231046 343.893802 83.857612 
C 343.267237 84.484177 342.915187 85.334102 342.915187 86.220199 
C 342.915187 87.106296 343.267237 87.956221 343.893802 88.582786 
C 344.520368 89.209352 345.370292 89.561402 346.256389 89.561402 
z
" clip-path="url(#peb7cdf8909)" style="fill: #800080; stroke: #ffffff; stroke-width: 0.354208"/>
    <path d="M 353.337864 90.896996 
C 354.258293 90.896996 355.141148 90.531306 355.791989 89.880464 
C 356.44283 89.229623 356.808521 88.346768 356.808521 87.42634 
C 356.808521 86.505911 356.44283 85.623057 355.791989 84.972215 
C 355.141148 84.321374 354.258293 83.955683 353.337864 83.955683 
C 352.417436 83.955683 351.534581 84.321374 350.88374 84.972215 
C 350.232899 85.623057 349.867208 86.505911 349.867208 87.42634 
C 349.867208 88.346768 350.232899 89.229623 350.88374 89.880464 
C 351.534581 90.531306 352.417436 90.896996 353.337864 90.896996 
z
" clip-path="url(#peb7cdf8909)" style="fill: #800080; stroke: #ffffff; stroke-width: 0.354208"/>
    <path d="M 360.41934 104.925554 
C 361.356633 104.925554 362.255664 104.553164 362.91843 103.890397 
C 363.581197 103.22763 363.953588 102.3286 363.953588 101.391306 
C 363.953588 100.454013 363.581197 99.554982 362.91843 98.892216 
C 362.255664 98.229449 361.356633 97.857058 360.41934 97.857058 
C 359.482046 97.857058 358.583015 98.229449 357.920249 98.892216 
C 357.257482 99.554982 356.885092 100.454013 356.885092 101.391306 
C 356.885092 102.3286 357.257482 103.22763 357.920249 103.890397 
C 358.583015 104.553164 359.482046 104.925554 360.41934 104.925554 
z
" clip-path="url(#peb7cdf8909)" style="fill: #800080; stroke: #ffffff; stroke-width: 0.354208"/>
    <path d="M 367.500815 92.094024 
C 368.486649 92.094024 369.432239 91.702348 370.12933 91.005258 
C 370.82642 90.308167 371.218096 89.362577 371.218096 88.376743 
C 371.218096 87.390908 370.82642 86.445318 370.12933 85.748228 
C 369.432239 85.051138 368.486649 84.659461 367.500815 84.659461 
C 366.51498 84.659461 365.56939 85.051138 364.8723 85.748228 
C 364.175209 86.445318 363.783533 87.390908 363.783533 88.376743 
C 363.783533 89.362577 364.175209 90.308167 364.8723 91.005258 
C 365.56939 91.702348 366.51498 92.094024 367.500815 92.094024 
z
" clip-path="url(#peb7cdf8909)" style="fill: #800080; stroke: #ffffff; stroke-width: 0.354208"/>
    <path d="M 374.58229 65.50696 
C 375.619021 65.50696 376.61343 65.095063 377.346509 64.361983 
C 378.079589 63.628903 378.491486 62.634495 378.491486 61.597764 
C 378.491486 60.561033 378.079589 59.566624 377.346509 58.833544 
C 376.61343 58.100465 375.619021 57.688567 374.58229 57.688567 
C 373.545559 57.688567 372.55115 58.100465 371.81807 58.833544 
C 371.084991 59.566624 370.673093 60.561033 370.673093 61.597764 
C 370.673093 62.634495 371.084991 63.628903 371.81807 64.361983 
C 372.55115 65.095063 373.545559 65.50696 374.58229 65.50696 
z
" clip-path="url(#peb7cdf8909)" style="fill: #800080; stroke: #ffffff; stroke-width: 0.354208"/>
    <path d="M 381.663765 78.53916 
C 382.748714 78.53916 383.789372 78.108105 384.556546 77.34093 
C 385.32372 76.573756 385.754775 75.533098 385.754775 74.448149 
C 385.754775 73.363201 385.32372 72.322543 384.556546 71.555368 
C 383.789372 70.788194 382.748714 70.357139 381.663765 70.357139 
C 380.578816 70.357139 379.538159 70.788194 378.770984 71.555368 
C 378.00381 72.322543 377.572755 73.363201 377.572755 74.448149 
C 377.572755 75.533098 378.00381 76.573756 378.770984 77.34093 
C 379.538159 78.108105 380.578816 78.53916 381.663765 78.53916 
z
" clip-path="url(#peb7cdf8909)" style="fill: #800080; stroke: #ffffff; stroke-width: 0.354208"/>
    <path d="M 388.74524 57.624442 
C 389.850912 57.624442 390.911447 57.185154 391.693275 56.403326 
C 392.475103 55.621499 392.914391 54.560963 392.914391 53.455292 
C 392.914391 52.34962 392.475103 51.289085 391.693275 50.507257 
C 390.911447 49.725429 389.850912 49.286141 388.74524 49.286141 
C 387.639568 49.286141 386.579033 49.725429 385.797205 50.507257 
C 385.015377 51.289085 384.576089 52.34962 384.576089 53.455292 
C 384.576089 54.560963 385.015377 55.621499 385.797205 56.403326 
C 386.579033 57.185154 387.639568 57.624442 388.74524 57.624442 
z
" clip-path="url(#peb7cdf8909)" style="fill: #800080; stroke: #ffffff; stroke-width: 0.354208"/>
    <path d="M 395.826715 61.950779 
C 396.943607 61.950779 398.014903 61.507034 398.804665 60.717272 
C 399.594426 59.927511 400.038172 58.856214 400.038172 57.739323 
C 400.038172 56.622432 399.594426 55.551135 398.804665 54.761374 
C 398.014903 53.971613 396.943607 53.527867 395.826715 53.527867 
C 394.709824 53.527867 393.638527 53.971613 392.848766 54.761374 
C 392.059005 55.551135 391.615259 56.622432 391.615259 57.739323 
C 391.615259 58.856214 392.059005 59.927511 392.848766 60.717272 
C 393.638527 61.507034 394.709824 61.950779 395.826715 61.950779 
z
" clip-path="url(#peb7cdf8909)" style="fill: #800080; stroke: #ffffff; stroke-width: 0.354208"/>
    <path d="M 402.90819 42.968095 
C 404.033352 42.968095 405.112581 42.521064 405.90819 41.725455 
C 406.7038 40.929845 407.150831 39.850616 407.150831 38.725455 
C 407.150831 37.600293 406.7038 36.521064 405.90819 35.725455 
C 405.112581 34.929845 404.033352 34.482814 402.90819 34.482814 
C 401.783029 34.482814 400.7038 34.929845 399.90819 35.725455 
C 399.112581 36.521064 398.66555 37.600293 398.66555 38.725455 
C 398.66555 39.850616 399.112581 40.929845 399.90819 41.725455 
C 400.7038 42.521064 401.783029 42.968095 402.90819 42.968095 
z
" clip-path="url(#peb7cdf8909)" style="fill: #800080; stroke: #ffffff; stroke-width: 0.354208"/>
    <path d="M 409.989666 53.684473 
C 411.033771 53.684473 412.035254 53.269645 412.773548 52.531351 
C 413.511842 51.793057 413.926669 50.791574 413.926669 49.747469 
C 413.926669 48.703363 413.511842 47.701881 412.773548 46.963586 
C 412.035254 46.225292 411.033771 45.810465 409.989666 45.810465 
C 408.94556 45.810465 407.944078 46.225292 407.205783 46.963586 
C 406.467489 47.701881 406.052662 48.703363 406.052662 49.747469 
C 406.052662 50.791574 406.467489 51.793057 407.205783 52.531351 
C 407.944078 53.269645 408.94556 53.684473 409.989666 53.684473 
z
" clip-path="url(#peb7cdf8909)" style="fill: #800080; stroke: #ffffff; stroke-width: 0.354208"/>
    <path d="M 417.071141 51.170523 
C 418.110643 51.170523 419.107711 50.757524 419.84275 50.022485 
C 420.577789 49.287446 420.990788 48.290378 420.990788 47.250876 
C 420.990788 46.211373 420.577789 45.214306 419.84275 44.479266 
C 419.107711 43.744227 418.110643 43.331228 417.071141 43.331228 
C 416.031638 43.331228 415.034571 43.744227 414.299531 44.479266 
C 413.564492 45.214306 413.151493 46.211373 413.151493 47.250876 
C 413.151493 48.290378 413.564492 49.287446 414.299531 50.022485 
C 415.034571 50.757524 416.031638 51.170523 417.071141 51.170523 
z
" clip-path="url(#peb7cdf8909)" style="fill: #800080; stroke: #ffffff; stroke-width: 0.354208"/>
    <path d="M 424.152616 62.416611 
C 425.206171 62.416611 426.216716 61.998029 426.961692 61.253054 
C 427.706668 60.508078 428.125249 59.497532 428.125249 58.443977 
C 428.125249 57.390423 427.706668 56.379877 426.961692 55.634901 
C 426.216716 54.889925 425.206171 54.471344 424.152616 54.471344 
C 423.099061 54.471344 422.088515 54.889925 421.34354 55.634901 
C 420.598564 56.379877 420.179982 57.390423 420.179982 58.443977 
C 420.179982 59.497532 420.598564 60.508078 421.34354 61.253054 
C 422.088515 61.998029 423.099061 62.416611 424.152616 62.416611 
z
" clip-path="url(#peb7cdf8909)" style="fill: #800080; stroke: #ffffff; stroke-width: 0.354208"/>
    <path d="M 431.234091 99.130645 
C 432.240466 99.130645 433.205758 98.730808 433.917372 98.019193 
C 434.628987 97.307579 435.028824 96.342287 435.028824 95.335912 
C 435.028824 94.329537 434.628987 93.364245 433.917372 92.65263 
C 433.205758 91.941016 432.240466 91.541179 431.234091 91.541179 
C 430.227716 91.541179 429.262424 91.941016 428.550809 92.65263 
C 427.839195 93.364245 427.439358 94.329537 427.439358 95.335912 
C 427.439358 96.342287 427.839195 97.307579 428.550809 98.019193 
C 429.262424 98.730808 430.227716 99.130645 431.234091 99.130645 
z
" clip-path="url(#peb7cdf8909)" style="fill: #800080; stroke: #ffffff; stroke-width: 0.354208"/>
   </g>
   <g id="patch_3">
    <path d="M 37.15 317.72 
L 37.15 25.44 
" style="fill: none; stroke: #ffffff; stroke-width: 0.8; stroke-linejoin: miter; stroke-linecap: square"/>
   </g>
   <g id="patch_4">
    <path d="M 450 317.72 
L 450 25.44 
" style="fill: none; stroke: #ffffff; stroke-width: 0.8; stroke-linejoin: miter; stroke-linecap: square"/>
   </g>
   <g id="patch_5">
    <path d="M 37.15 317.72 
L 450 317.72 
" style="fill: none; stroke: #ffffff; stroke-width: 0.8; stroke-linejoin: miter; stroke-linecap: square"/>
   </g>
   <g id="patch_6">
    <path d="M 37.15 25.44 
L 450 25.44 
" style="fill: none; stroke: #ffffff; stroke-width: 0.8; stroke-linejoin: miter; stroke-linecap: square"/>
   </g>
   <g id="text_11">
    <!-- Yearly average geek score from ranked games -->
    <g style="fill: #262626" transform="translate(119.403125 19.44) scale(0.12 -0.12)">
     <defs>
      <path id="ArialMT-59" d="M 1784 0 
L 1784 1941 
L 19 4581 
L 756 4581 
L 1659 3200 
Q 1909 2813 2125 2425 
Q 2331 2784 2625 3234 
L 3513 4581 
L 4219 4581 
L 2391 1941 
L 2391 0 
L 1784 0 
z
" transform="scale(0.015625)"/>
      <path id="ArialMT-65" d="M 2694 1069 
L 3275 997 
Q 3138 488 2766 206 
Q 2394 -75 1816 -75 
Q 1088 -75 661 373 
Q 234 822 234 1631 
Q 234 2469 665 2931 
Q 1097 3394 1784 3394 
Q 2450 3394 2872 2941 
Q 3294 2488 3294 1666 
Q 3294 1616 3291 1516 
L 816 1516 
Q 847 969 1125 678 
Q 1403 388 1819 388 
Q 2128 388 2347 550 
Q 2566 713 2694 1069 
z
M 847 1978 
L 2700 1978 
Q 2663 2397 2488 2606 
Q 2219 2931 1791 2931 
Q 1403 2931 1139 2672 
Q 875 2413 847 1978 
z
" transform="scale(0.015625)"/>
      <path id="ArialMT-61" d="M 2588 409 
Q 2275 144 1986 34 
Q 1697 -75 1366 -75 
Q 819 -75 525 192 
Q 231 459 231 875 
Q 231 1119 342 1320 
Q 453 1522 633 1644 
Q 813 1766 1038 1828 
Q 1203 1872 1538 1913 
Q 2219 1994 2541 2106 
Q 2544 2222 2544 2253 
Q 2544 2597 2384 2738 
Q 2169 2928 1744 2928 
Q 1347 2928 1158 2789 
Q 969 2650 878 2297 
L 328 2372 
Q 403 2725 575 2942 
Q 747 3159 1072 3276 
Q 1397 3394 1825 3394 
Q 2250 3394 2515 3294 
Q 2781 3194 2906 3042 
Q 3031 2891 3081 2659 
Q 3109 2516 3109 2141 
L 3109 1391 
Q 3109 606 3145 398 
Q 3181 191 3288 0 
L 2700 0 
Q 2613 175 2588 409 
z
M 2541 1666 
Q 2234 1541 1622 1453 
Q 1275 1403 1131 1340 
Q 988 1278 909 1158 
Q 831 1038 831 891 
Q 831 666 1001 516 
Q 1172 366 1500 366 
Q 1825 366 2078 508 
Q 2331 650 2450 897 
Q 2541 1088 2541 1459 
L 2541 1666 
z
" transform="scale(0.015625)"/>
      <path id="ArialMT-72" d="M 416 0 
L 416 3319 
L 922 3319 
L 922 2816 
Q 1116 3169 1280 3281 
Q 1444 3394 1641 3394 
Q 1925 3394 2219 3213 
L 2025 2691 
Q 1819 2813 1613 2813 
Q 1428 2813 1281 2702 
Q 1134 2591 1072 2394 
Q 978 2094 978 1738 
L 978 0 
L 416 0 
z
" transform="scale(0.015625)"/>
      <path id="ArialMT-6c" d="M 409 0 
L 409 4581 
L 972 4581 
L 972 0 
L 409 0 
z
" transform="scale(0.015625)"/>
      <path id="ArialMT-79" d="M 397 -1278 
L 334 -750 
Q 519 -800 656 -800 
Q 844 -800 956 -737 
Q 1069 -675 1141 -563 
Q 1194 -478 1313 -144 
Q 1328 -97 1363 -6 
L 103 3319 
L 709 3319 
L 1400 1397 
Q 1534 1031 1641 628 
Q 1738 1016 1872 1384 
L 2581 3319 
L 3144 3319 
L 1881 -56 
Q 1678 -603 1566 -809 
Q 1416 -1088 1222 -1217 
Q 1028 -1347 759 -1347 
Q 597 -1347 397 -1278 
z
" transform="scale(0.015625)"/>
      <path id="ArialMT-20" transform="scale(0.015625)"/>
      <path id="ArialMT-76" d="M 1344 0 
L 81 3319 
L 675 3319 
L 1388 1331 
Q 1503 1009 1600 663 
Q 1675 925 1809 1294 
L 2547 3319 
L 3125 3319 
L 1869 0 
L 1344 0 
z
" transform="scale(0.015625)"/>
      <path id="ArialMT-67" d="M 319 -275 
L 866 -356 
Q 900 -609 1056 -725 
Q 1266 -881 1628 -881 
Q 2019 -881 2231 -725 
Q 2444 -569 2519 -288 
Q 2563 -116 2559 434 
Q 2191 0 1641 0 
Q 956 0 581 494 
Q 206 988 206 1678 
Q 206 2153 378 2554 
Q 550 2956 876 3175 
Q 1203 3394 1644 3394 
Q 2231 3394 2613 2919 
L 2613 3319 
L 3131 3319 
L 3131 450 
Q 3131 -325 2973 -648 
Q 2816 -972 2473 -1159 
Q 2131 -1347 1631 -1347 
Q 1038 -1347 672 -1080 
Q 306 -813 319 -275 
z
M 784 1719 
Q 784 1066 1043 766 
Q 1303 466 1694 466 
Q 2081 466 2343 764 
Q 2606 1063 2606 1700 
Q 2606 2309 2336 2618 
Q 2066 2928 1684 2928 
Q 1309 2928 1046 2623 
Q 784 2319 784 1719 
z
" transform="scale(0.015625)"/>
      <path id="ArialMT-6b" d="M 425 0 
L 425 4581 
L 988 4581 
L 988 1969 
L 2319 3319 
L 3047 3319 
L 1778 2088 
L 3175 0 
L 2481 0 
L 1384 1697 
L 988 1316 
L 988 0 
L 425 0 
z
" transform="scale(0.015625)"/>
      <path id="ArialMT-73" d="M 197 991 
L 753 1078 
Q 800 744 1014 566 
Q 1228 388 1613 388 
Q 2000 388 2187 545 
Q 2375 703 2375 916 
Q 2375 1106 2209 1216 
Q 2094 1291 1634 1406 
Q 1016 1563 777 1677 
Q 538 1791 414 1992 
Q 291 2194 291 2438 
Q 291 2659 392 2848 
Q 494 3038 669 3163 
Q 800 3259 1026 3326 
Q 1253 3394 1513 3394 
Q 1903 3394 2198 3281 
Q 2494 3169 2634 2976 
Q 2775 2784 2828 2463 
L 2278 2388 
Q 2241 2644 2061 2787 
Q 1881 2931 1553 2931 
Q 1166 2931 1000 2803 
Q 834 2675 834 2503 
Q 834 2394 903 2306 
Q 972 2216 1119 2156 
Q 1203 2125 1616 2013 
Q 2213 1853 2448 1751 
Q 2684 1650 2818 1456 
Q 2953 1263 2953 975 
Q 2953 694 2789 445 
Q 2625 197 2315 61 
Q 2006 -75 1616 -75 
Q 969 -75 630 194 
Q 291 463 197 991 
z
" transform="scale(0.015625)"/>
      <path id="ArialMT-63" d="M 2588 1216 
L 3141 1144 
Q 3050 572 2676 248 
Q 2303 -75 1759 -75 
Q 1078 -75 664 370 
Q 250 816 250 1647 
Q 250 2184 428 2587 
Q 606 2991 970 3192 
Q 1334 3394 1763 3394 
Q 2303 3394 2647 3120 
Q 2991 2847 3088 2344 
L 2541 2259 
Q 2463 2594 2264 2762 
Q 2066 2931 1784 2931 
Q 1359 2931 1093 2626 
Q 828 2322 828 1663 
Q 828 994 1084 691 
Q 1341 388 1753 388 
Q 2084 388 2306 591 
Q 2528 794 2588 1216 
z
" transform="scale(0.015625)"/>
      <path id="ArialMT-6f" d="M 213 1659 
Q 213 2581 725 3025 
Q 1153 3394 1769 3394 
Q 2453 3394 2887 2945 
Q 3322 2497 3322 1706 
Q 3322 1066 3130 698 
Q 2938 331 2570 128 
Q 2203 -75 1769 -75 
Q 1072 -75 642 372 
Q 213 819 213 1659 
z
M 791 1659 
Q 791 1022 1069 705 
Q 1347 388 1769 388 
Q 2188 388 2466 706 
Q 2744 1025 2744 1678 
Q 2744 2294 2464 2611 
Q 2184 2928 1769 2928 
Q 1347 2928 1069 2612 
Q 791 2297 791 1659 
z
" transform="scale(0.015625)"/>
      <path id="ArialMT-66" d="M 556 0 
L 556 2881 
L 59 2881 
L 59 3319 
L 556 3319 
L 556 3672 
Q 556 4006 616 4169 
Q 697 4388 901 4523 
Q 1106 4659 1475 4659 
Q 1713 4659 2000 4603 
L 1916 4113 
Q 1741 4144 1584 4144 
Q 1328 4144 1222 4034 
Q 1116 3925 1116 3625 
L 1116 3319 
L 1763 3319 
L 1763 2881 
L 1116 2881 
L 1116 0 
L 556 0 
z
" transform="scale(0.015625)"/>
      <path id="ArialMT-6d" d="M 422 0 
L 422 3319 
L 925 3319 
L 925 2853 
Q 1081 3097 1340 3245 
Q 1600 3394 1931 3394 
Q 2300 3394 2536 3241 
Q 2772 3088 2869 2813 
Q 3263 3394 3894 3394 
Q 4388 3394 4653 3120 
Q 4919 2847 4919 2278 
L 4919 0 
L 4359 0 
L 4359 2091 
Q 4359 2428 4304 2576 
Q 4250 2725 4106 2815 
Q 3963 2906 3769 2906 
Q 3419 2906 3187 2673 
Q 2956 2441 2956 1928 
L 2956 0 
L 2394 0 
L 2394 2156 
Q 2394 2531 2256 2718 
Q 2119 2906 1806 2906 
Q 1569 2906 1367 2781 
Q 1166 2656 1075 2415 
Q 984 2175 984 1722 
L 984 0 
L 422 0 
z
" transform="scale(0.015625)"/>
      <path id="ArialMT-6e" d="M 422 0 
L 422 3319 
L 928 3319 
L 928 2847 
Q 1294 3394 1984 3394 
Q 2284 3394 2536 3286 
Q 2788 3178 2913 3003 
Q 3038 2828 3088 2588 
Q 3119 2431 3119 2041 
L 3119 0 
L 2556 0 
L 2556 2019 
Q 2556 2363 2490 2533 
Q 2425 2703 2258 2804 
Q 2091 2906 1866 2906 
Q 1506 2906 1245 2678 
Q 984 2450 984 1813 
L 984 0 
L 422 0 
z
" transform="scale(0.015625)"/>
      <path id="ArialMT-64" d="M 2575 0 
L 2575 419 
Q 2259 -75 1647 -75 
Q 1250 -75 917 144 
Q 584 363 401 755 
Q 219 1147 219 1656 
Q 219 2153 384 2558 
Q 550 2963 881 3178 
Q 1213 3394 1622 3394 
Q 1922 3394 2156 3267 
Q 2391 3141 2538 2938 
L 2538 4581 
L 3097 4581 
L 3097 0 
L 2575 0 
z
M 797 1656 
Q 797 1019 1065 703 
Q 1334 388 1700 388 
Q 2069 388 2326 689 
Q 2584 991 2584 1609 
Q 2584 2291 2321 2609 
Q 2059 2928 1675 2928 
Q 1300 2928 1048 2622 
Q 797 2316 797 1656 
z
" transform="scale(0.015625)"/>
     </defs>
     <use xlink:href="#ArialMT-59"/>
     <use xlink:href="#ArialMT-65" x="57.574219"/>
     <use xlink:href="#ArialMT-61" x="113.189453"/>
     <use xlink:href="#ArialMT-72" x="168.804688"/>
     <use xlink:href="#ArialMT-6c" x="202.105469"/>
     <use xlink:href="#ArialMT-79" x="224.322266"/>
     <use xlink:href="#ArialMT-20" x="274.322266"/>
     <use xlink:href="#ArialMT-61" x="302.105469"/>
     <use xlink:href="#ArialMT-76" x="357.720703"/>
     <use xlink:href="#ArialMT-65" x="407.720703"/>
     <use xlink:href="#ArialMT-72" x="463.335938"/>
     <use xlink:href="#ArialMT-61" x="496.636719"/>
     <use xlink:href="#ArialMT-67" x="552.251953"/>
     <use xlink:href="#ArialMT-65" x="607.867188"/>
     <use xlink:href="#ArialMT-20" x="663.482422"/>
     <use xlink:href="#ArialMT-67" x="691.265625"/>
     <use xlink:href="#ArialMT-65" x="746.880859"/>
     <use xlink:href="#ArialMT-65" x="802.496094"/>
     <use xlink:href="#ArialMT-6b" x="858.111328"/>
     <use xlink:href="#ArialMT-20" x="908.111328"/>
     <use xlink:href="#ArialMT-73" x="935.894531"/>
     <use xlink:href="#ArialMT-63" x="985.894531"/>
     <use xlink:href="#ArialMT-6f" x="1035.894531"/>
     <use xlink:href="#ArialMT-72" x="1091.509766"/>
     <use xlink:href="#ArialMT-65" x="1124.810547"/>
     <use xlink:href="#ArialMT-20" x="1180.425781"/>
     <use xlink:href="#ArialMT-66" x="1208.208984"/>
     <use xlink:href="#ArialMT-72" x="1235.992188"/>
     <use xlink:href="#ArialMT-6f" x="1269.292969"/>
     <use xlink:href="#ArialMT-6d" x="1324.908203"/>
     <use xlink:href="#ArialMT-20" x="1408.208984"/>
     <use xlink:href="#ArialMT-72" x="1435.992188"/>
     <use xlink:href="#ArialMT-61" x="1469.292969"/>
     <use xlink:href="#ArialMT-6e" x="1524.908203"/>
     <use xlink:href="#ArialMT-6b" x="1580.523438"/>
     <use xlink:href="#ArialMT-65" x="1630.523438"/>
     <use xlink:href="#ArialMT-64" x="1686.138672"/>
     <use xlink:href="#ArialMT-20" x="1741.753906"/>
     <use xlink:href="#ArialMT-67" x="1769.537109"/>
     <use xlink:href="#ArialMT-61" x="1825.152344"/>
     <use xlink:href="#ArialMT-6d" x="1880.767578"/>
     <use xlink:href="#ArialMT-65" x="1964.068359"/>
     <use xlink:href="#ArialMT-73" x="2019.683594"/>
    </g>
   </g>
  </g>
 </g>
 <defs>
  <clipPath id="peb7cdf8909">
   <rect x="37.15" y="25.44" width="412.85" height="292.28"/>
  </clipPath>
 </defs>
</svg>
