<?xml version="1.0" encoding="utf-8" standalone="no"?>
<!DOCTYPE svg PUBLIC "-//W3C//DTD SVG 1.1//EN"
  "http://www.w3.org/Graphics/SVG/1.1/DTD/svg11.dtd">
<svg xmlns:xlink="http://www.w3.org/1999/xlink" width="460.8pt" height="345.6pt" viewBox="0 0 460.8 345.6" xmlns="http://www.w3.org/2000/svg" version="1.1">
 <metadata>
  <rdf:RDF xmlns:dc="http://purl.org/dc/elements/1.1/" xmlns:cc="http://creativecommons.org/ns#" xmlns:rdf="http://www.w3.org/1999/02/22-rdf-syntax-ns#">
   <cc:Work>
    <dc:type rdf:resource="http://purl.org/dc/dcmitype/StillImage"/>
    <dc:date>2024-09-09T00:44:57.492142</dc:date>
    <dc:format>image/svg+xml</dc:format>
    <dc:creator>
     <cc:Agent>
      <dc:title>Matplotlib v3.9.2, https://matplotlib.org/</dc:title>
     </cc:Agent>
    </dc:creator>
   </cc:Work>
  </rdf:RDF>
 </metadata>
 <defs>
  <style type="text/css">*{stroke-linejoin: round; stroke-linecap: butt}</style>
 </defs>
 <g id="figure_1">
  <g id="patch_1">
   <path d="M 0 345.6 
L 460.8 345.6 
L 460.8 0 
L 0 0 
z
" style="fill: #ffffff"/>
  </g>
  <g id="axes_1">
   <g id="patch_2">
    <path d="M 106.13 303.64 
L 450 303.64 
L 450 25.49625 
L 106.13 25.49625 
z
" style="fill: #eaeaf2"/>
   </g>
   <g id="matplotlib.axis_1">
    <g id="xtick_1">
     <g id="text_1">
      <!-- 4 -->
      <g style="fill: #262626" transform="translate(143.765739 317.797812) scale(0.1 -0.1)">
       <defs>
        <path id="ArialMT-34" d="M 2069 0 
L 2069 1097 
L 81 1097 
L 81 1613 
L 2172 4581 
L 2631 4581 
L 2631 1613 
L 3250 1613 
L 3250 1097 
L 2631 1097 
L 2631 0 
L 2069 0 
z
M 2069 1613 
L 2069 3678 
L 634 1613 
L 2069 1613 
z
" transform="scale(0.015625)"/>
       </defs>
       <use xlink:href="#ArialMT-34"/>
      </g>
     </g>
    </g>
    <g id="xtick_2">
     <g id="text_2">
      <!-- 5 -->
      <g style="fill: #262626" transform="translate(198.702343 317.797812) scale(0.1 -0.1)">
       <defs>
        <path id="ArialMT-35" d="M 266 1200 
L 856 1250 
Q 922 819 1161 601 
Q 1400 384 1738 384 
Q 2144 384 2425 690 
Q 2706 997 2706 1503 
Q 2706 1984 2436 2262 
Q 2166 2541 1728 2541 
Q 1456 2541 1237 2417 
Q 1019 2294 894 2097 
L 366 2166 
L 809 4519 
L 3088 4519 
L 3088 3981 
L 1259 3981 
L 1013 2750 
Q 1425 3038 1878 3038 
Q 2478 3038 2890 2622 
Q 3303 2206 3303 1553 
Q 3303 931 2941 478 
Q 2500 -78 1738 -78 
Q 1113 -78 717 272 
Q 322 622 266 1200 
z
" transform="scale(0.015625)"/>
       </defs>
       <use xlink:href="#ArialMT-35"/>
      </g>
     </g>
    </g>
    <g id="xtick_3">
     <g id="text_3">
      <!-- 6 -->
      <g style="fill: #262626" transform="translate(253.638947 317.797812) scale(0.1 -0.1)">
       <defs>
        <path id="ArialMT-36" d="M 3184 3459 
L 2625 3416 
Q 2550 3747 2413 3897 
Q 2184 4138 1850 4138 
Q 1581 4138 1378 3988 
Q 1113 3794 959 3422 
Q 806 3050 800 2363 
Q 1003 2672 1297 2822 
Q 1591 2972 1913 2972 
Q 2475 2972 2870 2558 
Q 3266 2144 3266 1488 
Q 3266 1056 3080 686 
Q 2894 316 2569 119 
Q 2244 -78 1831 -78 
Q 1128 -78 684 439 
Q 241 956 241 2144 
Q 241 3472 731 4075 
Q 1159 4600 1884 4600 
Q 2425 4600 2770 4297 
Q 3116 3994 3184 3459 
z
M 888 1484 
Q 888 1194 1011 928 
Q 1134 663 1356 523 
Q 1578 384 1822 384 
Q 2178 384 2434 671 
Q 2691 959 2691 1453 
Q 2691 1928 2437 2201 
Q 2184 2475 1800 2475 
Q 1419 2475 1153 2201 
Q 888 1928 888 1484 
z
" transform="scale(0.015625)"/>
       </defs>
       <use xlink:href="#ArialMT-36"/>
      </g>
     </g>
    </g>
    <g id="xtick_4">
     <g id="text_4">
      <!-- 7 -->
      <g style="fill: #262626" transform="translate(308.575551 317.797812) scale(0.1 -0.1)">
       <defs>
        <path id="ArialMT-37" d="M 303 3981 
L 303 4522 
L 3269 4522 
L 3269 4084 
Q 2831 3619 2401 2847 
Q 1972 2075 1738 1259 
Q 1569 684 1522 0 
L 944 0 
Q 953 541 1156 1306 
Q 1359 2072 1739 2783 
Q 2119 3494 2547 3981 
L 303 3981 
z
" transform="scale(0.015625)"/>
       </defs>
       <use xlink:href="#ArialMT-37"/>
      </g>
     </g>
    </g>
    <g id="xtick_5">
     <g id="text_5">
      <!-- 8 -->
      <g style="fill: #262626" transform="translate(363.512154 317.797812) scale(0.1 -0.1)">
       <defs>
        <path id="ArialMT-38" d="M 1131 2484 
Q 781 2613 612 2850 
Q 444 3088 444 3419 
Q 444 3919 803 4259 
Q 1163 4600 1759 4600 
Q 2359 4600 2725 4251 
Q 3091 3903 3091 3403 
Q 3091 3084 2923 2848 
Q 2756 2613 2416 2484 
Q 2838 2347 3058 2040 
Q 3278 1734 3278 1309 
Q 3278 722 2862 322 
Q 2447 -78 1769 -78 
Q 1091 -78 675 323 
Q 259 725 259 1325 
Q 259 1772 486 2073 
Q 713 2375 1131 2484 
z
M 1019 3438 
Q 1019 3113 1228 2906 
Q 1438 2700 1772 2700 
Q 2097 2700 2305 2904 
Q 2513 3109 2513 3406 
Q 2513 3716 2298 3927 
Q 2084 4138 1766 4138 
Q 1444 4138 1231 3931 
Q 1019 3725 1019 3438 
z
M 838 1322 
Q 838 1081 952 856 
Q 1066 631 1291 507 
Q 1516 384 1775 384 
Q 2178 384 2440 643 
Q 2703 903 2703 1303 
Q 2703 1709 2433 1975 
Q 2163 2241 1756 2241 
Q 1359 2241 1098 1978 
Q 838 1716 838 1322 
z
" transform="scale(0.015625)"/>
       </defs>
       <use xlink:href="#ArialMT-38"/>
      </g>
     </g>
    </g>
    <g id="xtick_6">
     <g id="text_6">
      <!-- 9 -->
      <g style="fill: #262626" transform="translate(418.448758 317.797812) scale(0.1 -0.1)">
       <defs>
        <path id="ArialMT-39" d="M 350 1059 
L 891 1109 
Q 959 728 1153 556 
Q 1347 384 1650 384 
Q 1909 384 2104 503 
Q 2300 622 2425 820 
Q 2550 1019 2634 1356 
Q 2719 1694 2719 2044 
Q 2719 2081 2716 2156 
Q 2547 1888 2255 1720 
Q 1963 1553 1622 1553 
Q 1053 1553 659 1965 
Q 266 2378 266 3053 
Q 266 3750 677 4175 
Q 1088 4600 1706 4600 
Q 2153 4600 2523 4359 
Q 2894 4119 3086 3673 
Q 3278 3228 3278 2384 
Q 3278 1506 3087 986 
Q 2897 466 2520 194 
Q 2144 -78 1638 -78 
Q 1100 -78 759 220 
Q 419 519 350 1059 
z
M 2653 3081 
Q 2653 3566 2395 3850 
Q 2138 4134 1775 4134 
Q 1400 4134 1122 3828 
Q 844 3522 844 3034 
Q 844 2597 1108 2323 
Q 1372 2050 1759 2050 
Q 2150 2050 2401 2323 
Q 2653 2597 2653 3081 
z
" transform="scale(0.015625)"/>
       </defs>
       <use xlink:href="#ArialMT-39"/>
      </g>
     </g>
    </g>
    <g id="text_7">
     <!-- Rating -->
     <g style="fill: #262626" transform="translate(263.612656 330.943125) scale(0.1 -0.1)">
      <defs>
       <path id="ArialMT-52" d="M 503 0 
L 503 4581 
L 2534 4581 
Q 3147 4581 3465 4457 
Q 3784 4334 3975 4021 
Q 4166 3709 4166 3331 
Q 4166 2844 3850 2509 
Q 3534 2175 2875 2084 
Q 3116 1969 3241 1856 
Q 3506 1613 3744 1247 
L 4541 0 
L 3778 0 
L 3172 953 
Q 2906 1366 2734 1584 
Q 2563 1803 2427 1890 
Q 2291 1978 2150 2013 
Q 2047 2034 1813 2034 
L 1109 2034 
L 1109 0 
L 503 0 
z
M 1109 2559 
L 2413 2559 
Q 2828 2559 3062 2645 
Q 3297 2731 3419 2920 
Q 3541 3109 3541 3331 
Q 3541 3656 3305 3865 
Q 3069 4075 2559 4075 
L 1109 4075 
L 1109 2559 
z
" transform="scale(0.015625)"/>
       <path id="ArialMT-61" d="M 2588 409 
Q 2275 144 1986 34 
Q 1697 -75 1366 -75 
Q 819 -75 525 192 
Q 231 459 231 875 
Q 231 1119 342 1320 
Q 453 1522 633 1644 
Q 813 1766 1038 1828 
Q 1203 1872 1538 1913 
Q 2219 1994 2541 2106 
Q 2544 2222 2544 2253 
Q 2544 2597 2384 2738 
Q 2169 2928 1744 2928 
Q 1347 2928 1158 2789 
Q 969 2650 878 2297 
L 328 2372 
Q 403 2725 575 2942 
Q 747 3159 1072 3276 
Q 1397 3394 1825 3394 
Q 2250 3394 2515 3294 
Q 2781 3194 2906 3042 
Q 3031 2891 3081 2659 
Q 3109 2516 3109 2141 
L 3109 1391 
Q 3109 606 3145 398 
Q 3181 191 3288 0 
L 2700 0 
Q 2613 175 2588 409 
z
M 2541 1666 
Q 2234 1541 1622 1453 
Q 1275 1403 1131 1340 
Q 988 1278 909 1158 
Q 831 1038 831 891 
Q 831 666 1001 516 
Q 1172 366 1500 366 
Q 1825 366 2078 508 
Q 2331 650 2450 897 
Q 2541 1088 2541 1459 
L 2541 1666 
z
" transform="scale(0.015625)"/>
       <path id="ArialMT-74" d="M 1650 503 
L 1731 6 
Q 1494 -44 1306 -44 
Q 1000 -44 831 53 
Q 663 150 594 308 
Q 525 466 525 972 
L 525 2881 
L 113 2881 
L 113 3319 
L 525 3319 
L 525 4141 
L 1084 4478 
L 1084 3319 
L 1650 3319 
L 1650 2881 
L 1084 2881 
L 1084 941 
Q 1084 700 1114 631 
Q 1144 563 1211 522 
Q 1278 481 1403 481 
Q 1497 481 1650 503 
z
" transform="scale(0.015625)"/>
       <path id="ArialMT-69" d="M 425 3934 
L 425 4581 
L 988 4581 
L 988 3934 
L 425 3934 
z
M 425 0 
L 425 3319 
L 988 3319 
L 988 0 
L 425 0 
z
" transform="scale(0.015625)"/>
       <path id="ArialMT-6e" d="M 422 0 
L 422 3319 
L 928 3319 
L 928 2847 
Q 1294 3394 1984 3394 
Q 2284 3394 2536 3286 
Q 2788 3178 2913 3003 
Q 3038 2828 3088 2588 
Q 3119 2431 3119 2041 
L 3119 0 
L 2556 0 
L 2556 2019 
Q 2556 2363 2490 2533 
Q 2425 2703 2258 2804 
Q 2091 2906 1866 2906 
Q 1506 2906 1245 2678 
Q 984 2450 984 1813 
L 984 0 
L 422 0 
z
" transform="scale(0.015625)"/>
       <path id="ArialMT-67" d="M 319 -275 
L 866 -356 
Q 900 -609 1056 -725 
Q 1266 -881 1628 -881 
Q 2019 -881 2231 -725 
Q 2444 -569 2519 -288 
Q 2563 -116 2559 434 
Q 2191 0 1641 0 
Q 956 0 581 494 
Q 206 988 206 1678 
Q 206 2153 378 2554 
Q 550 2956 876 3175 
Q 1203 3394 1644 3394 
Q 2231 3394 2613 2919 
L 2613 3319 
L 3131 3319 
L 3131 450 
Q 3131 -325 2973 -648 
Q 2816 -972 2473 -1159 
Q 2131 -1347 1631 -1347 
Q 1038 -1347 672 -1080 
Q 306 -813 319 -275 
z
M 784 1719 
Q 784 1066 1043 766 
Q 1303 466 1694 466 
Q 2081 466 2343 764 
Q 2606 1063 2606 1700 
Q 2606 2309 2336 2618 
Q 2066 2928 1684 2928 
Q 1309 2928 1046 2623 
Q 784 2319 784 1719 
z
" transform="scale(0.015625)"/>
      </defs>
      <use xlink:href="#ArialMT-52"/>
      <use xlink:href="#ArialMT-61" x="72.216797"/>
      <use xlink:href="#ArialMT-74" x="127.832031"/>
      <use xlink:href="#ArialMT-69" x="155.615234"/>
      <use xlink:href="#ArialMT-6e" x="177.832031"/>
      <use xlink:href="#ArialMT-67" x="233.447266"/>
     </g>
    </g>
   </g>
   <g id="matplotlib.axis_2">
    <g id="ytick_1">
     <g id="text_8">
      <!-- Children's Game -->
      <g style="fill: #262626" transform="translate(24.97375 46.459141) scale(0.1 -0.1)">
       <defs>
        <path id="ArialMT-43" d="M 3763 1606 
L 4369 1453 
Q 4178 706 3683 314 
Q 3188 -78 2472 -78 
Q 1731 -78 1267 223 
Q 803 525 561 1097 
Q 319 1669 319 2325 
Q 319 3041 592 3573 
Q 866 4106 1370 4382 
Q 1875 4659 2481 4659 
Q 3169 4659 3637 4309 
Q 4106 3959 4291 3325 
L 3694 3184 
Q 3534 3684 3231 3912 
Q 2928 4141 2469 4141 
Q 1941 4141 1586 3887 
Q 1231 3634 1087 3207 
Q 944 2781 944 2328 
Q 944 1744 1114 1308 
Q 1284 872 1643 656 
Q 2003 441 2422 441 
Q 2931 441 3284 734 
Q 3638 1028 3763 1606 
z
" transform="scale(0.015625)"/>
        <path id="ArialMT-68" d="M 422 0 
L 422 4581 
L 984 4581 
L 984 2938 
Q 1378 3394 1978 3394 
Q 2347 3394 2619 3248 
Q 2891 3103 3008 2847 
Q 3125 2591 3125 2103 
L 3125 0 
L 2563 0 
L 2563 2103 
Q 2563 2525 2380 2717 
Q 2197 2909 1863 2909 
Q 1613 2909 1392 2779 
Q 1172 2650 1078 2428 
Q 984 2206 984 1816 
L 984 0 
L 422 0 
z
" transform="scale(0.015625)"/>
        <path id="ArialMT-6c" d="M 409 0 
L 409 4581 
L 972 4581 
L 972 0 
L 409 0 
z
" transform="scale(0.015625)"/>
        <path id="ArialMT-64" d="M 2575 0 
L 2575 419 
Q 2259 -75 1647 -75 
Q 1250 -75 917 144 
Q 584 363 401 755 
Q 219 1147 219 1656 
Q 219 2153 384 2558 
Q 550 2963 881 3178 
Q 1213 3394 1622 3394 
Q 1922 3394 2156 3267 
Q 2391 3141 2538 2938 
L 2538 4581 
L 3097 4581 
L 3097 0 
L 2575 0 
z
M 797 1656 
Q 797 1019 1065 703 
Q 1334 388 1700 388 
Q 2069 388 2326 689 
Q 2584 991 2584 1609 
Q 2584 2291 2321 2609 
Q 2059 2928 1675 2928 
Q 1300 2928 1048 2622 
Q 797 2316 797 1656 
z
" transform="scale(0.015625)"/>
        <path id="ArialMT-72" d="M 416 0 
L 416 3319 
L 922 3319 
L 922 2816 
Q 1116 3169 1280 3281 
Q 1444 3394 1641 3394 
Q 1925 3394 2219 3213 
L 2025 2691 
Q 1819 2813 1613 2813 
Q 1428 2813 1281 2702 
Q 1134 2591 1072 2394 
Q 978 2094 978 1738 
L 978 0 
L 416 0 
z
" transform="scale(0.015625)"/>
        <path id="ArialMT-65" d="M 2694 1069 
L 3275 997 
Q 3138 488 2766 206 
Q 2394 -75 1816 -75 
Q 1088 -75 661 373 
Q 234 822 234 1631 
Q 234 2469 665 2931 
Q 1097 3394 1784 3394 
Q 2450 3394 2872 2941 
Q 3294 2488 3294 1666 
Q 3294 1616 3291 1516 
L 816 1516 
Q 847 969 1125 678 
Q 1403 388 1819 388 
Q 2128 388 2347 550 
Q 2566 713 2694 1069 
z
M 847 1978 
L 2700 1978 
Q 2663 2397 2488 2606 
Q 2219 2931 1791 2931 
Q 1403 2931 1139 2672 
Q 875 2413 847 1978 
z
" transform="scale(0.015625)"/>
        <path id="ArialMT-27" d="M 425 2959 
L 281 3816 
L 281 4581 
L 922 4581 
L 922 3816 
L 772 2959 
L 425 2959 
z
" transform="scale(0.015625)"/>
        <path id="ArialMT-73" d="M 197 991 
L 753 1078 
Q 800 744 1014 566 
Q 1228 388 1613 388 
Q 2000 388 2187 545 
Q 2375 703 2375 916 
Q 2375 1106 2209 1216 
Q 2094 1291 1634 1406 
Q 1016 1563 777 1677 
Q 538 1791 414 1992 
Q 291 2194 291 2438 
Q 291 2659 392 2848 
Q 494 3038 669 3163 
Q 800 3259 1026 3326 
Q 1253 3394 1513 3394 
Q 1903 3394 2198 3281 
Q 2494 3169 2634 2976 
Q 2775 2784 2828 2463 
L 2278 2388 
Q 2241 2644 2061 2787 
Q 1881 2931 1553 2931 
Q 1166 2931 1000 2803 
Q 834 2675 834 2503 
Q 834 2394 903 2306 
Q 972 2216 1119 2156 
Q 1203 2125 1616 2013 
Q 2213 1853 2448 1751 
Q 2684 1650 2818 1456 
Q 2953 1263 2953 975 
Q 2953 694 2789 445 
Q 2625 197 2315 61 
Q 2006 -75 1616 -75 
Q 969 -75 630 194 
Q 291 463 197 991 
z
" transform="scale(0.015625)"/>
        <path id="ArialMT-20" transform="scale(0.015625)"/>
        <path id="ArialMT-47" d="M 2638 1797 
L 2638 2334 
L 4578 2338 
L 4578 638 
Q 4131 281 3656 101 
Q 3181 -78 2681 -78 
Q 2006 -78 1454 211 
Q 903 500 622 1047 
Q 341 1594 341 2269 
Q 341 2938 620 3517 
Q 900 4097 1425 4378 
Q 1950 4659 2634 4659 
Q 3131 4659 3532 4498 
Q 3934 4338 4162 4050 
Q 4391 3763 4509 3300 
L 3963 3150 
Q 3859 3500 3706 3700 
Q 3553 3900 3268 4020 
Q 2984 4141 2638 4141 
Q 2222 4141 1919 4014 
Q 1616 3888 1430 3681 
Q 1244 3475 1141 3228 
Q 966 2803 966 2306 
Q 966 1694 1177 1281 
Q 1388 869 1791 669 
Q 2194 469 2647 469 
Q 3041 469 3416 620 
Q 3791 772 3984 944 
L 3984 1797 
L 2638 1797 
z
" transform="scale(0.015625)"/>
        <path id="ArialMT-6d" d="M 422 0 
L 422 3319 
L 925 3319 
L 925 2853 
Q 1081 3097 1340 3245 
Q 1600 3394 1931 3394 
Q 2300 3394 2536 3241 
Q 2772 3088 2869 2813 
Q 3263 3394 3894 3394 
Q 4388 3394 4653 3120 
Q 4919 2847 4919 2278 
L 4919 0 
L 4359 0 
L 4359 2091 
Q 4359 2428 4304 2576 
Q 4250 2725 4106 2815 
Q 3963 2906 3769 2906 
Q 3419 2906 3187 2673 
Q 2956 2441 2956 1928 
L 2956 0 
L 2394 0 
L 2394 2156 
Q 2394 2531 2256 2718 
Q 2119 2906 1806 2906 
Q 1569 2906 1367 2781 
Q 1166 2656 1075 2415 
Q 984 2175 984 1722 
L 984 0 
L 422 0 
z
" transform="scale(0.015625)"/>
       </defs>
       <use xlink:href="#ArialMT-43"/>
       <use xlink:href="#ArialMT-68" x="72.216797"/>
       <use xlink:href="#ArialMT-69" x="127.832031"/>
       <use xlink:href="#ArialMT-6c" x="150.048828"/>
       <use xlink:href="#ArialMT-64" x="172.265625"/>
       <use xlink:href="#ArialMT-72" x="227.880859"/>
       <use xlink:href="#ArialMT-65" x="261.181641"/>
       <use xlink:href="#ArialMT-6e" x="316.796875"/>
       <use xlink:href="#ArialMT-27" x="372.412109"/>
       <use xlink:href="#ArialMT-73" x="391.503906"/>
       <use xlink:href="#ArialMT-20" x="441.503906"/>
       <use xlink:href="#ArialMT-47" x="469.287109"/>
       <use xlink:href="#ArialMT-61" x="547.070312"/>
       <use xlink:href="#ArialMT-6d" x="602.685547"/>
       <use xlink:href="#ArialMT-65" x="685.986328"/>
      </g>
     </g>
    </g>
    <g id="ytick_2">
     <g id="text_9">
      <!-- Party Game -->
      <g style="fill: #262626" transform="translate(45.783125 81.288047) scale(0.1 -0.1)">
       <defs>
        <path id="ArialMT-50" d="M 494 0 
L 494 4581 
L 2222 4581 
Q 2678 4581 2919 4538 
Q 3256 4481 3484 4323 
Q 3713 4166 3852 3881 
Q 3991 3597 3991 3256 
Q 3991 2672 3619 2267 
Q 3247 1863 2275 1863 
L 1100 1863 
L 1100 0 
L 494 0 
z
M 1100 2403 
L 2284 2403 
Q 2872 2403 3119 2622 
Q 3366 2841 3366 3238 
Q 3366 3525 3220 3729 
Q 3075 3934 2838 4000 
Q 2684 4041 2272 4041 
L 1100 4041 
L 1100 2403 
z
" transform="scale(0.015625)"/>
        <path id="ArialMT-79" d="M 397 -1278 
L 334 -750 
Q 519 -800 656 -800 
Q 844 -800 956 -737 
Q 1069 -675 1141 -563 
Q 1194 -478 1313 -144 
Q 1328 -97 1363 -6 
L 103 3319 
L 709 3319 
L 1400 1397 
Q 1534 1031 1641 628 
Q 1738 1016 1872 1384 
L 2581 3319 
L 3144 3319 
L 1881 -56 
Q 1678 -603 1566 -809 
Q 1416 -1088 1222 -1217 
Q 1028 -1347 759 -1347 
Q 597 -1347 397 -1278 
z
" transform="scale(0.015625)"/>
       </defs>
       <use xlink:href="#ArialMT-50"/>
       <use xlink:href="#ArialMT-61" x="66.699219"/>
       <use xlink:href="#ArialMT-72" x="122.314453"/>
       <use xlink:href="#ArialMT-74" x="155.615234"/>
       <use xlink:href="#ArialMT-79" x="183.398438"/>
       <use xlink:href="#ArialMT-20" x="233.398438"/>
       <use xlink:href="#ArialMT-47" x="261.181641"/>
       <use xlink:href="#ArialMT-61" x="338.964844"/>
       <use xlink:href="#ArialMT-6d" x="394.580078"/>
       <use xlink:href="#ArialMT-65" x="477.880859"/>
      </g>
     </g>
    </g>
    <g id="ytick_3">
     <g id="text_10">
      <!-- Abstract Game -->
      <g style="fill: #262626" transform="translate(32.444063 115.995078) scale(0.1 -0.1)">
       <defs>
        <path id="ArialMT-41" d="M -9 0 
L 1750 4581 
L 2403 4581 
L 4278 0 
L 3588 0 
L 3053 1388 
L 1138 1388 
L 634 0 
L -9 0 
z
M 1313 1881 
L 2866 1881 
L 2388 3150 
Q 2169 3728 2063 4100 
Q 1975 3659 1816 3225 
L 1313 1881 
z
" transform="scale(0.015625)"/>
        <path id="ArialMT-62" d="M 941 0 
L 419 0 
L 419 4581 
L 981 4581 
L 981 2947 
Q 1338 3394 1891 3394 
Q 2197 3394 2470 3270 
Q 2744 3147 2920 2923 
Q 3097 2700 3197 2384 
Q 3297 2069 3297 1709 
Q 3297 856 2875 390 
Q 2453 -75 1863 -75 
Q 1275 -75 941 416 
L 941 0 
z
M 934 1684 
Q 934 1088 1097 822 
Q 1363 388 1816 388 
Q 2184 388 2453 708 
Q 2722 1028 2722 1663 
Q 2722 2313 2464 2622 
Q 2206 2931 1841 2931 
Q 1472 2931 1203 2611 
Q 934 2291 934 1684 
z
" transform="scale(0.015625)"/>
        <path id="ArialMT-63" d="M 2588 1216 
L 3141 1144 
Q 3050 572 2676 248 
Q 2303 -75 1759 -75 
Q 1078 -75 664 370 
Q 250 816 250 1647 
Q 250 2184 428 2587 
Q 606 2991 970 3192 
Q 1334 3394 1763 3394 
Q 2303 3394 2647 3120 
Q 2991 2847 3088 2344 
L 2541 2259 
Q 2463 2594 2264 2762 
Q 2066 2931 1784 2931 
Q 1359 2931 1093 2626 
Q 828 2322 828 1663 
Q 828 994 1084 691 
Q 1341 388 1753 388 
Q 2084 388 2306 591 
Q 2528 794 2588 1216 
z
" transform="scale(0.015625)"/>
       </defs>
       <use xlink:href="#ArialMT-41"/>
       <use xlink:href="#ArialMT-62" x="66.699219"/>
       <use xlink:href="#ArialMT-73" x="122.314453"/>
       <use xlink:href="#ArialMT-74" x="172.314453"/>
       <use xlink:href="#ArialMT-72" x="200.097656"/>
       <use xlink:href="#ArialMT-61" x="233.398438"/>
       <use xlink:href="#ArialMT-63" x="289.013672"/>
       <use xlink:href="#ArialMT-74" x="339.013672"/>
       <use xlink:href="#ArialMT-20" x="366.796875"/>
       <use xlink:href="#ArialMT-47" x="394.580078"/>
       <use xlink:href="#ArialMT-61" x="472.363281"/>
       <use xlink:href="#ArialMT-6d" x="527.978516"/>
       <use xlink:href="#ArialMT-65" x="611.279297"/>
      </g>
     </g>
    </g>
    <g id="ytick_4">
     <g id="text_11">
      <!-- Family Game -->
      <g style="fill: #262626" transform="translate(39.68 150.823984) scale(0.1 -0.1)">
       <defs>
        <path id="ArialMT-46" d="M 525 0 
L 525 4581 
L 3616 4581 
L 3616 4041 
L 1131 4041 
L 1131 2622 
L 3281 2622 
L 3281 2081 
L 1131 2081 
L 1131 0 
L 525 0 
z
" transform="scale(0.015625)"/>
       </defs>
       <use xlink:href="#ArialMT-46"/>
       <use xlink:href="#ArialMT-61" x="61.083984"/>
       <use xlink:href="#ArialMT-6d" x="116.699219"/>
       <use xlink:href="#ArialMT-69" x="200"/>
       <use xlink:href="#ArialMT-6c" x="222.216797"/>
       <use xlink:href="#ArialMT-79" x="244.433594"/>
       <use xlink:href="#ArialMT-20" x="294.433594"/>
       <use xlink:href="#ArialMT-47" x="322.216797"/>
       <use xlink:href="#ArialMT-61" x="400"/>
       <use xlink:href="#ArialMT-6d" x="455.615234"/>
       <use xlink:href="#ArialMT-65" x="538.916016"/>
      </g>
     </g>
    </g>
    <g id="ytick_5">
     <g id="text_12">
      <!-- Customizable -->
      <g style="fill: #262626" transform="translate(38.551875 185.531016) scale(0.1 -0.1)">
       <defs>
        <path id="ArialMT-75" d="M 2597 0 
L 2597 488 
Q 2209 -75 1544 -75 
Q 1250 -75 995 37 
Q 741 150 617 320 
Q 494 491 444 738 
Q 409 903 409 1263 
L 409 3319 
L 972 3319 
L 972 1478 
Q 972 1038 1006 884 
Q 1059 663 1231 536 
Q 1403 409 1656 409 
Q 1909 409 2131 539 
Q 2353 669 2445 892 
Q 2538 1116 2538 1541 
L 2538 3319 
L 3100 3319 
L 3100 0 
L 2597 0 
z
" transform="scale(0.015625)"/>
        <path id="ArialMT-6f" d="M 213 1659 
Q 213 2581 725 3025 
Q 1153 3394 1769 3394 
Q 2453 3394 2887 2945 
Q 3322 2497 3322 1706 
Q 3322 1066 3130 698 
Q 2938 331 2570 128 
Q 2203 -75 1769 -75 
Q 1072 -75 642 372 
Q 213 819 213 1659 
z
M 791 1659 
Q 791 1022 1069 705 
Q 1347 388 1769 388 
Q 2188 388 2466 706 
Q 2744 1025 2744 1678 
Q 2744 2294 2464 2611 
Q 2184 2928 1769 2928 
Q 1347 2928 1069 2612 
Q 791 2297 791 1659 
z
" transform="scale(0.015625)"/>
        <path id="ArialMT-7a" d="M 125 0 
L 125 456 
L 2238 2881 
Q 1878 2863 1603 2863 
L 250 2863 
L 250 3319 
L 2963 3319 
L 2963 2947 
L 1166 841 
L 819 456 
Q 1197 484 1528 484 
L 3063 484 
L 3063 0 
L 125 0 
z
" transform="scale(0.015625)"/>
       </defs>
       <use xlink:href="#ArialMT-43"/>
       <use xlink:href="#ArialMT-75" x="72.216797"/>
       <use xlink:href="#ArialMT-73" x="127.832031"/>
       <use xlink:href="#ArialMT-74" x="177.832031"/>
       <use xlink:href="#ArialMT-6f" x="205.615234"/>
       <use xlink:href="#ArialMT-6d" x="261.230469"/>
       <use xlink:href="#ArialMT-69" x="344.53125"/>
       <use xlink:href="#ArialMT-7a" x="366.748047"/>
       <use xlink:href="#ArialMT-61" x="416.748047"/>
       <use xlink:href="#ArialMT-62" x="472.363281"/>
       <use xlink:href="#ArialMT-6c" x="527.978516"/>
       <use xlink:href="#ArialMT-65" x="550.195312"/>
      </g>
     </g>
    </g>
    <g id="ytick_6">
     <g id="text_13">
      <!-- Thematic -->
      <g style="fill: #262626" transform="translate(58.009688 220.298984) scale(0.1 -0.1)">
       <defs>
        <path id="ArialMT-54" d="M 1659 0 
L 1659 4041 
L 150 4041 
L 150 4581 
L 3781 4581 
L 3781 4041 
L 2266 4041 
L 2266 0 
L 1659 0 
z
" transform="scale(0.015625)"/>
       </defs>
       <use xlink:href="#ArialMT-54"/>
       <use xlink:href="#ArialMT-68" x="61.083984"/>
       <use xlink:href="#ArialMT-65" x="116.699219"/>
       <use xlink:href="#ArialMT-6d" x="172.314453"/>
       <use xlink:href="#ArialMT-61" x="255.615234"/>
       <use xlink:href="#ArialMT-74" x="311.230469"/>
       <use xlink:href="#ArialMT-69" x="339.013672"/>
       <use xlink:href="#ArialMT-63" x="361.230469"/>
      </g>
     </g>
    </g>
    <g id="ytick_7">
     <g id="text_14">
      <!-- Strategy Game -->
      <g style="fill: #262626" transform="translate(31.883125 255.127891) scale(0.1 -0.1)">
       <defs>
        <path id="ArialMT-53" d="M 288 1472 
L 859 1522 
Q 900 1178 1048 958 
Q 1197 738 1509 602 
Q 1822 466 2213 466 
Q 2559 466 2825 569 
Q 3091 672 3220 851 
Q 3350 1031 3350 1244 
Q 3350 1459 3225 1620 
Q 3100 1781 2813 1891 
Q 2628 1963 1997 2114 
Q 1366 2266 1113 2400 
Q 784 2572 623 2826 
Q 463 3081 463 3397 
Q 463 3744 659 4045 
Q 856 4347 1234 4503 
Q 1613 4659 2075 4659 
Q 2584 4659 2973 4495 
Q 3363 4331 3572 4012 
Q 3781 3694 3797 3291 
L 3216 3247 
Q 3169 3681 2898 3903 
Q 2628 4125 2100 4125 
Q 1550 4125 1298 3923 
Q 1047 3722 1047 3438 
Q 1047 3191 1225 3031 
Q 1400 2872 2139 2705 
Q 2878 2538 3153 2413 
Q 3553 2228 3743 1945 
Q 3934 1663 3934 1294 
Q 3934 928 3725 604 
Q 3516 281 3123 101 
Q 2731 -78 2241 -78 
Q 1619 -78 1198 103 
Q 778 284 539 648 
Q 300 1013 288 1472 
z
" transform="scale(0.015625)"/>
       </defs>
       <use xlink:href="#ArialMT-53"/>
       <use xlink:href="#ArialMT-74" x="66.699219"/>
       <use xlink:href="#ArialMT-72" x="94.482422"/>
       <use xlink:href="#ArialMT-61" x="127.783203"/>
       <use xlink:href="#ArialMT-74" x="183.398438"/>
       <use xlink:href="#ArialMT-65" x="211.181641"/>
       <use xlink:href="#ArialMT-67" x="266.796875"/>
       <use xlink:href="#ArialMT-79" x="322.412109"/>
       <use xlink:href="#ArialMT-20" x="372.412109"/>
       <use xlink:href="#ArialMT-47" x="400.195312"/>
       <use xlink:href="#ArialMT-61" x="477.978516"/>
       <use xlink:href="#ArialMT-6d" x="533.59375"/>
       <use xlink:href="#ArialMT-65" x="616.894531"/>
      </g>
     </g>
    </g>
    <g id="ytick_8">
     <g id="text_15">
      <!-- War Game -->
      <g style="fill: #262626" transform="translate(51.1675 289.834922) scale(0.1 -0.1)">
       <defs>
        <path id="ArialMT-57" d="M 1294 0 
L 78 4581 
L 700 4581 
L 1397 1578 
Q 1509 1106 1591 641 
Q 1766 1375 1797 1488 
L 2669 4581 
L 3400 4581 
L 4056 2263 
Q 4303 1400 4413 641 
Q 4500 1075 4641 1638 
L 5359 4581 
L 5969 4581 
L 4713 0 
L 4128 0 
L 3163 3491 
Q 3041 3928 3019 4028 
Q 2947 3713 2884 3491 
L 1913 0 
L 1294 0 
z
" transform="scale(0.015625)"/>
       </defs>
       <use xlink:href="#ArialMT-57"/>
       <use xlink:href="#ArialMT-61" x="90.634766"/>
       <use xlink:href="#ArialMT-72" x="146.25"/>
       <use xlink:href="#ArialMT-20" x="179.550781"/>
       <use xlink:href="#ArialMT-47" x="207.333984"/>
       <use xlink:href="#ArialMT-61" x="285.117188"/>
       <use xlink:href="#ArialMT-6d" x="340.732422"/>
       <use xlink:href="#ArialMT-65" x="424.033203"/>
      </g>
     </g>
    </g>
    <g id="text_16">
     <!-- Game type -->
     <g style="fill: #262626" transform="translate(18.869063 189.022031) rotate(-90) scale(0.1 -0.1)">
      <defs>
       <path id="ArialMT-70" d="M 422 -1272 
L 422 3319 
L 934 3319 
L 934 2888 
Q 1116 3141 1344 3267 
Q 1572 3394 1897 3394 
Q 2322 3394 2647 3175 
Q 2972 2956 3137 2557 
Q 3303 2159 3303 1684 
Q 3303 1175 3120 767 
Q 2938 359 2589 142 
Q 2241 -75 1856 -75 
Q 1575 -75 1351 44 
Q 1128 163 984 344 
L 984 -1272 
L 422 -1272 
z
M 931 1641 
Q 931 1000 1190 694 
Q 1450 388 1819 388 
Q 2194 388 2461 705 
Q 2728 1022 2728 1688 
Q 2728 2322 2467 2637 
Q 2206 2953 1844 2953 
Q 1484 2953 1207 2617 
Q 931 2281 931 1641 
z
" transform="scale(0.015625)"/>
      </defs>
      <use xlink:href="#ArialMT-47"/>
      <use xlink:href="#ArialMT-61" x="77.783203"/>
      <use xlink:href="#ArialMT-6d" x="133.398438"/>
      <use xlink:href="#ArialMT-65" x="216.699219"/>
      <use xlink:href="#ArialMT-20" x="272.314453"/>
      <use xlink:href="#ArialMT-74" x="300.097656"/>
      <use xlink:href="#ArialMT-79" x="327.880859"/>
      <use xlink:href="#ArialMT-70" x="377.880859"/>
      <use xlink:href="#ArialMT-65" x="433.496094"/>
     </g>
    </g>
   </g>
   <g id="PolyCollection_1">
    <defs>
     <path id="mbd6817d014" d="M 121.760455 -302.418223 
L 121.760455 -303.021308 
L 124.33621 -303.069971 
L 126.911966 -303.12432 
L 129.487721 -303.184612 
L 132.063477 -303.251043 
L 134.639232 -303.323733 
L 137.214988 -303.402713 
L 139.790743 -303.487909 
L 142.366499 -303.579136 
L 144.942254 -303.676084 
L 147.51801 -303.778313 
L 150.093765 -303.885248 
L 152.669521 -303.996179 
L 155.245276 -304.110263 
L 157.821032 -304.226531 
L 160.396787 -304.343904 
L 162.972543 -304.461202 
L 165.548298 -304.577172 
L 168.124054 -304.690509 
L 170.699809 -304.799884 
L 173.275565 -304.903979 
L 175.85132 -305.001515 
L 178.427076 -305.091296 
L 181.002831 -305.172234 
L 183.578587 -305.243394 
L 186.154342 -305.304021 
L 188.730098 -305.353572 
L 191.305853 -305.391742 
L 193.881609 -305.418486 
L 196.457364 -305.434037 
L 199.03312 -305.43891 
L 201.608875 -305.433911 
L 204.184631 -305.420128 
L 206.760386 -305.398921 
L 209.336142 -305.371903 
L 211.911897 -305.340913 
L 214.487653 -305.307984 
L 217.063408 -305.275305 
L 219.639164 -305.245177 
L 222.214919 -305.219963 
L 224.790675 -305.202039 
L 227.36643 -305.193739 
L 229.942186 -305.197299 
L 232.517941 -305.214802 
L 235.093697 -305.248125 
L 237.669452 -305.298882 
L 240.245208 -305.368379 
L 242.820963 -305.457571 
L 245.396719 -305.567015 
L 247.972474 -305.696848 
L 250.54823 -305.846756 
L 253.123985 -306.015962 
L 255.699741 -306.203222 
L 258.275496 -306.406827 
L 260.851252 -306.624619 
L 263.427007 -306.854025 
L 266.002763 -307.092089 
L 268.578518 -307.335522 
L 271.154274 -307.580766 
L 273.730029 -307.824059 
L 276.305785 -308.061513 
L 278.88154 -308.289193 
L 281.457296 -308.503206 
L 284.033051 -308.699786 
L 286.608807 -308.87538 
L 289.184562 -309.026731 
L 291.760318 -309.150954 
L 294.336073 -309.245604 
L 296.911829 -309.308729 
L 299.487584 -309.338923 
L 302.06334 -309.335347 
L 304.639095 -309.297751 
L 307.214851 -309.226471 
L 309.790606 -309.122415 
L 312.366362 -308.987031 
L 314.942117 -308.822267 
L 317.517873 -308.630513 
L 320.093628 -308.414536 
L 322.669384 -308.177408 
L 325.245139 -307.922425 
L 327.820895 -307.653033 
L 330.39665 -307.372738 
L 332.972406 -307.085036 
L 335.548161 -306.793338 
L 338.123917 -306.5009 
L 340.699672 -306.210769 
L 343.275428 -305.925736 
L 345.851183 -305.648291 
L 348.426939 -305.380605 
L 351.002694 -305.124504 
L 353.57845 -304.881471 
L 356.154205 -304.652645 
L 358.729961 -304.438829 
L 361.305716 -304.240517 
L 363.881472 -304.057913 
L 366.457227 -303.890958 
L 369.032983 -303.739371 
L 371.608738 -303.602672 
L 374.184494 -303.480226 
L 376.760249 -303.371271 
L 376.760249 -302.06826 
L 376.760249 -302.06826 
L 374.184494 -301.959305 
L 371.608738 -301.836859 
L 369.032983 -301.70016 
L 366.457227 -301.548573 
L 363.881472 -301.381619 
L 361.305716 -301.199014 
L 358.729961 -301.000702 
L 356.154205 -300.786887 
L 353.57845 -300.55806 
L 351.002694 -300.315027 
L 348.426939 -300.058927 
L 345.851183 -299.79124 
L 343.275428 -299.513795 
L 340.699672 -299.228762 
L 338.123917 -298.938632 
L 335.548161 -298.646193 
L 332.972406 -298.354495 
L 330.39665 -298.066793 
L 327.820895 -297.786499 
L 325.245139 -297.517106 
L 322.669384 -297.262124 
L 320.093628 -297.024995 
L 317.517873 -296.809018 
L 314.942117 -296.617264 
L 312.366362 -296.452501 
L 309.790606 -296.317117 
L 307.214851 -296.21306 
L 304.639095 -296.14178 
L 302.06334 -296.104184 
L 299.487584 -296.100608 
L 296.911829 -296.130802 
L 294.336073 -296.193928 
L 291.760318 -296.288577 
L 289.184562 -296.4128 
L 286.608807 -296.564151 
L 284.033051 -296.739746 
L 281.457296 -296.936325 
L 278.88154 -297.150338 
L 276.305785 -297.378018 
L 273.730029 -297.615472 
L 271.154274 -297.858765 
L 268.578518 -298.10401 
L 266.002763 -298.347443 
L 263.427007 -298.585506 
L 260.851252 -298.814912 
L 258.275496 -299.032705 
L 255.699741 -299.236309 
L 253.123985 -299.423569 
L 250.54823 -299.592776 
L 247.972474 -299.742684 
L 245.396719 -299.872516 
L 242.820963 -299.981961 
L 240.245208 -300.071152 
L 237.669452 -300.14065 
L 235.093697 -300.191407 
L 232.517941 -300.224729 
L 229.942186 -300.242233 
L 227.36643 -300.245793 
L 224.790675 -300.237492 
L 222.214919 -300.219568 
L 219.639164 -300.194354 
L 217.063408 -300.164226 
L 214.487653 -300.131547 
L 211.911897 -300.098618 
L 209.336142 -300.067628 
L 206.760386 -300.04061 
L 204.184631 -300.019403 
L 201.608875 -300.00562 
L 199.03312 -300.000621 
L 196.457364 -300.005494 
L 193.881609 -300.021045 
L 191.305853 -300.047789 
L 188.730098 -300.085959 
L 186.154342 -300.13551 
L 183.578587 -300.196137 
L 181.002831 -300.267297 
L 178.427076 -300.348236 
L 175.85132 -300.438016 
L 173.275565 -300.535553 
L 170.699809 -300.639647 
L 168.124054 -300.749022 
L 165.548298 -300.862359 
L 162.972543 -300.978329 
L 160.396787 -301.095628 
L 157.821032 -301.213 
L 155.245276 -301.329269 
L 152.669521 -301.443352 
L 150.093765 -301.554283 
L 147.51801 -301.661218 
L 144.942254 -301.763447 
L 142.366499 -301.860395 
L 139.790743 -301.951622 
L 137.214988 -302.036818 
L 134.639232 -302.115798 
L 132.063477 -302.188488 
L 129.487721 -302.25492 
L 126.911966 -302.315212 
L 124.33621 -302.36956 
L 121.760455 -302.418223 
z
" style="stroke: #262626; stroke-width: 1.25"/>
    </defs>
    <g clip-path="url(#pa28e2abdf9)">
     <use xlink:href="#mbd6817d014" x="0" y="345.6" style="fill: #701070; stroke: #262626; stroke-width: 1.25"/>
    </g>
   </g>
   <g id="PolyCollection_2">
    <defs>
     <path id="m919071399b" d="M 185.116504 -267.904941 
L 185.116504 -267.998652 
L 187.428428 -268.017049 
L 189.740352 -268.040797 
L 192.052276 -268.070776 
L 194.364199 -268.107832 
L 196.676123 -268.152739 
L 198.988047 -268.206186 
L 201.299971 -268.268781 
L 203.611895 -268.341069 
L 205.923819 -268.423563 
L 208.235743 -268.516772 
L 210.547667 -268.621206 
L 212.85959 -268.73734 
L 215.171514 -268.865526 
L 217.483438 -269.005847 
L 219.795362 -269.157939 
L 222.107286 -269.320805 
L 224.41921 -269.492671 
L 226.731134 -269.670937 
L 229.043057 -269.852272 
L 231.354981 -270.032865 
L 233.666905 -270.208844 
L 235.978829 -270.376812 
L 238.290753 -270.534425 
L 240.602677 -270.680923 
L 242.914601 -270.817507 
L 245.226525 -270.947479 
L 247.538448 -271.076095 
L 249.850372 -271.210121 
L 252.162296 -271.357143 
L 254.47422 -271.524724 
L 256.786144 -271.719515 
L 259.098068 -271.946448 
L 261.409992 -272.208125 
L 263.721916 -272.504454 
L 266.033839 -272.83258 
L 268.345763 -273.187076 
L 270.657687 -273.560347 
L 272.969611 -273.943174 
L 275.281535 -274.32533 
L 277.593459 -274.696191 
L 279.905383 -275.045331 
L 282.217307 -275.363055 
L 284.52923 -275.640897 
L 286.841154 -275.872062 
L 289.153078 -276.051835 
L 291.465002 -276.17791 
L 293.776926 -276.250629 
L 296.08885 -276.273064 
L 298.400774 -276.250899 
L 300.712698 -276.192087 
L 303.024621 -276.106258 
L 305.336545 -276.003922 
L 307.648469 -275.895523 
L 309.960393 -275.790449 
L 312.272317 -275.696099 
L 314.584241 -275.617124 
L 316.896165 -275.554924 
L 319.208088 -275.507459 
L 321.520012 -275.469394 
L 323.831936 -275.432561 
L 326.14386 -275.386689 
L 328.455784 -275.320344 
L 330.767708 -275.221991 
L 333.079632 -275.081085 
L 335.391556 -274.889117 
L 337.703479 -274.640501 
L 340.015403 -274.333223 
L 342.327327 -273.969193 
L 344.639251 -273.554225 
L 346.951175 -273.097668 
L 349.263099 -272.61169 
L 351.575023 -272.110313 
L 353.886947 -271.608293 
L 356.19887 -271.119971 
L 358.510794 -270.658221 
L 360.822718 -270.233603 
L 363.134642 -269.853783 
L 365.446566 -269.523267 
L 367.75849 -269.243438 
L 370.070414 -269.012844 
L 372.382338 -268.827703 
L 374.694261 -268.682526 
L 377.006185 -268.570796 
L 379.318109 -268.485627 
L 381.630033 -268.420356 
L 383.941957 -268.369004 
L 386.253881 -268.326602 
L 388.565805 -268.289361 
L 390.877728 -268.254691 
L 393.189652 -268.221106 
L 395.501576 -268.188027 
L 397.8135 -268.155549 
L 400.125424 -268.124177 
L 402.437348 -268.094596 
L 404.749272 -268.067484 
L 407.061196 -268.043373 
L 409.373119 -268.022585 
L 411.685043 -268.005208 
L 413.996967 -267.991123 
L 413.996967 -267.912471 
L 413.996967 -267.912471 
L 411.685043 -267.898385 
L 409.373119 -267.881009 
L 407.061196 -267.86022 
L 404.749272 -267.83611 
L 402.437348 -267.808997 
L 400.125424 -267.779417 
L 397.8135 -267.748045 
L 395.501576 -267.715566 
L 393.189652 -267.682488 
L 390.877728 -267.648903 
L 388.565805 -267.614233 
L 386.253881 -267.576992 
L 383.941957 -267.53459 
L 381.630033 -267.483238 
L 379.318109 -267.417966 
L 377.006185 -267.332798 
L 374.694261 -267.221067 
L 372.382338 -267.07589 
L 370.070414 -266.89075 
L 367.75849 -266.660156 
L 365.446566 -266.380326 
L 363.134642 -266.049811 
L 360.822718 -265.669991 
L 358.510794 -265.245372 
L 356.19887 -264.783623 
L 353.886947 -264.295301 
L 351.575023 -263.793281 
L 349.263099 -263.291904 
L 346.951175 -262.805926 
L 344.639251 -262.349368 
L 342.327327 -261.934401 
L 340.015403 -261.570371 
L 337.703479 -261.263093 
L 335.391556 -261.014476 
L 333.079632 -260.822508 
L 330.767708 -260.681603 
L 328.455784 -260.583249 
L 326.14386 -260.516905 
L 323.831936 -260.471033 
L 321.520012 -260.4342 
L 319.208088 -260.396135 
L 316.896165 -260.34867 
L 314.584241 -260.28647 
L 312.272317 -260.207495 
L 309.960393 -260.113145 
L 307.648469 -260.00807 
L 305.336545 -259.899671 
L 303.024621 -259.797335 
L 300.712698 -259.711507 
L 298.400774 -259.652695 
L 296.08885 -259.63053 
L 293.776926 -259.652964 
L 291.465002 -259.725684 
L 289.153078 -259.851759 
L 286.841154 -260.031532 
L 284.52923 -260.262697 
L 282.217307 -260.540538 
L 279.905383 -260.858263 
L 277.593459 -261.207402 
L 275.281535 -261.578264 
L 272.969611 -261.960419 
L 270.657687 -262.343247 
L 268.345763 -262.716518 
L 266.033839 -263.071014 
L 263.721916 -263.39914 
L 261.409992 -263.695469 
L 259.098068 -263.957146 
L 256.786144 -264.184079 
L 254.47422 -264.378869 
L 252.162296 -264.546451 
L 249.850372 -264.693473 
L 247.538448 -264.827499 
L 245.226525 -264.956115 
L 242.914601 -265.086087 
L 240.602677 -265.222671 
L 238.290753 -265.369169 
L 235.978829 -265.526782 
L 233.666905 -265.69475 
L 231.354981 -265.870729 
L 229.043057 -266.051322 
L 226.731134 -266.232657 
L 224.41921 -266.410923 
L 222.107286 -266.582789 
L 219.795362 -266.745655 
L 217.483438 -266.897747 
L 215.171514 -267.038068 
L 212.85959 -267.166254 
L 210.547667 -267.282388 
L 208.235743 -267.386822 
L 205.923819 -267.48003 
L 203.611895 -267.562524 
L 201.299971 -267.634812 
L 198.988047 -267.697408 
L 196.676123 -267.750855 
L 194.364199 -267.795762 
L 192.052276 -267.832817 
L 189.740352 -267.862797 
L 187.428428 -267.886545 
L 185.116504 -267.904941 
z
" style="stroke: #262626; stroke-width: 1.25"/>
    </defs>
    <g clip-path="url(#pa28e2abdf9)">
     <use xlink:href="#m919071399b" x="0" y="345.6" style="fill: #701070; stroke: #262626; stroke-width: 1.25"/>
    </g>
   </g>
   <g id="PolyCollection_3">
    <defs>
     <path id="mac8735bf3e" d="M 167.845392 -233.109758 
L 167.845392 -233.257899 
L 170.127619 -233.282681 
L 172.409847 -233.312833 
L 174.692075 -233.348462 
L 176.974302 -233.389295 
L 179.25653 -233.434613 
L 181.538758 -233.48322 
L 183.820985 -233.533461 
L 186.103213 -233.583315 
L 188.385441 -233.630542 
L 190.667669 -233.672889 
L 192.949896 -233.708329 
L 195.232124 -233.735301 
L 197.514352 -233.752917 
L 199.796579 -233.761107 
L 202.078807 -233.760663 
L 204.361035 -233.753183 
L 206.643262 -233.740902 
L 208.92549 -233.726438 
L 211.207718 -233.712475 
L 213.489946 -233.701429 
L 215.772173 -233.695151 
L 218.054401 -233.694688 
L 220.336629 -233.700162 
L 222.618856 -233.710766 
L 224.901084 -233.724888 
L 227.183312 -233.740351 
L 229.465539 -233.754742 
L 231.747767 -233.765781 
L 234.029995 -233.771701 
L 236.312222 -233.771591 
L 238.59445 -233.765664 
L 240.876678 -233.755435 
L 243.158906 -233.743796 
L 245.441133 -233.734979 
L 247.723361 -233.734437 
L 250.005589 -233.748632 
L 252.287816 -233.784765 
L 254.570044 -233.850447 
L 256.852272 -233.953314 
L 259.134499 -234.10061 
L 261.416727 -234.298729 
L 263.698955 -234.552745 
L 265.981183 -234.865945 
L 268.26341 -235.239422 
L 270.545638 -235.671761 
L 272.827866 -236.158868 
L 275.110093 -236.694001 
L 277.392321 -237.268003 
L 279.674549 -237.869755 
L 281.956776 -238.486812 
L 284.239004 -239.106156 
L 286.521232 -239.71499 
L 288.803459 -240.30148 
L 291.085687 -240.855362 
L 293.367915 -241.368345 
L 295.650143 -241.834286 
L 297.93237 -242.249137 
L 300.214598 -242.610703 
L 302.496826 -242.918288 
L 304.779053 -243.172286 
L 307.061281 -243.373801 
L 309.343509 -243.52434 
L 311.625736 -243.625608 
L 313.907964 -243.679396 
L 316.190192 -243.687534 
L 318.472419 -243.651881 
L 320.754647 -243.574302 
L 323.036875 -243.456627 
L 325.319103 -243.300571 
L 327.60133 -243.107647 
L 329.883558 -242.879087 
L 332.165786 -242.615822 
L 334.448013 -242.318532 
L 336.730241 -241.987777 
L 339.012469 -241.624222 
L 341.294696 -241.228893 
L 343.576924 -240.803455 
L 345.859152 -240.350448 
L 348.14138 -239.873451 
L 350.423607 -239.377133 
L 352.705835 -238.867191 
L 354.988063 -238.35018 
L 357.27029 -237.833238 
L 359.552518 -237.323764 
L 361.834746 -236.829046 
L 364.116973 -236.355916 
L 366.399201 -235.910421 
L 368.681429 -235.497562 
L 370.963656 -235.121106 
L 373.245884 -234.783483 
L 375.528112 -234.485764 
L 377.81034 -234.227728 
L 380.092567 -234.007998 
L 382.374795 -233.824228 
L 384.657023 -233.673334 
L 386.93925 -233.551738 
L 389.221478 -233.455606 
L 391.503706 -233.38107 
L 393.785933 -233.324411 
L 393.785933 -233.043245 
L 393.785933 -233.043245 
L 391.503706 -232.986586 
L 389.221478 -232.91205 
L 386.93925 -232.815918 
L 384.657023 -232.694322 
L 382.374795 -232.543428 
L 380.092567 -232.359658 
L 377.81034 -232.139928 
L 375.528112 -231.881892 
L 373.245884 -231.584173 
L 370.963656 -231.24655 
L 368.681429 -230.870094 
L 366.399201 -230.457235 
L 364.116973 -230.01174 
L 361.834746 -229.53861 
L 359.552518 -229.043893 
L 357.27029 -228.534418 
L 354.988063 -228.017477 
L 352.705835 -227.500465 
L 350.423607 -226.990524 
L 348.14138 -226.494205 
L 345.859152 -226.017208 
L 343.576924 -225.564202 
L 341.294696 -225.138763 
L 339.012469 -224.743434 
L 336.730241 -224.379879 
L 334.448013 -224.049125 
L 332.165786 -223.751834 
L 329.883558 -223.48857 
L 327.60133 -223.26001 
L 325.319103 -223.067085 
L 323.036875 -222.911029 
L 320.754647 -222.793354 
L 318.472419 -222.715775 
L 316.190192 -222.680122 
L 313.907964 -222.68826 
L 311.625736 -222.742048 
L 309.343509 -222.843316 
L 307.061281 -222.993855 
L 304.779053 -223.19537 
L 302.496826 -223.449368 
L 300.214598 -223.756953 
L 297.93237 -224.11852 
L 295.650143 -224.53337 
L 293.367915 -224.999311 
L 291.085687 -225.512294 
L 288.803459 -226.066176 
L 286.521232 -226.652666 
L 284.239004 -227.2615 
L 281.956776 -227.880844 
L 279.674549 -228.497901 
L 277.392321 -229.099653 
L 275.110093 -229.673655 
L 272.827866 -230.208788 
L 270.545638 -230.695896 
L 268.26341 -231.128234 
L 265.981183 -231.501711 
L 263.698955 -231.814911 
L 261.416727 -232.068927 
L 259.134499 -232.267047 
L 256.852272 -232.414343 
L 254.570044 -232.51721 
L 252.287816 -232.582891 
L 250.005589 -232.619025 
L 247.723361 -232.633219 
L 245.441133 -232.632677 
L 243.158906 -232.62386 
L 240.876678 -232.612221 
L 238.59445 -232.601993 
L 236.312222 -232.596065 
L 234.029995 -232.595955 
L 231.747767 -232.601875 
L 229.465539 -232.612914 
L 227.183312 -232.627305 
L 224.901084 -232.642768 
L 222.618856 -232.65689 
L 220.336629 -232.667494 
L 218.054401 -232.672968 
L 215.772173 -232.672506 
L 213.489946 -232.666227 
L 211.207718 -232.655181 
L 208.92549 -232.641218 
L 206.643262 -232.626754 
L 204.361035 -232.614473 
L 202.078807 -232.606993 
L 199.796579 -232.606549 
L 197.514352 -232.614739 
L 195.232124 -232.632355 
L 192.949896 -232.659327 
L 190.667669 -232.694768 
L 188.385441 -232.737115 
L 186.103213 -232.784342 
L 183.820985 -232.834195 
L 181.538758 -232.884437 
L 179.25653 -232.933043 
L 176.974302 -232.978361 
L 174.692075 -233.019194 
L 172.409847 -233.054823 
L 170.127619 -233.084976 
L 167.845392 -233.109758 
z
" style="stroke: #262626; stroke-width: 1.25"/>
    </defs>
    <g clip-path="url(#pa28e2abdf9)">
     <use xlink:href="#mac8735bf3e" x="0" y="345.6" style="fill: #701070; stroke: #262626; stroke-width: 1.25"/>
    </g>
   </g>
   <g id="PolyCollection_4">
    <defs>
     <path id="m1d94ce2dbf" d="M 194.469744 -198.388393 
L 194.469744 -198.443326 
L 196.549547 -198.460407 
L 198.629349 -198.484335 
L 200.709152 -198.515748 
L 202.788955 -198.554391 
L 204.868757 -198.598962 
L 206.94856 -198.647263 
L 209.028363 -198.696646 
L 211.108165 -198.744633 
L 213.187968 -198.78945 
L 215.267771 -198.830223 
L 217.347573 -198.866755 
L 219.427376 -198.899008 
L 221.507179 -198.926572 
L 223.586981 -198.948431 
L 225.666784 -198.963139 
L 227.746587 -198.969295 
L 229.826389 -198.966055 
L 231.906192 -198.953464 
L 233.985995 -198.932547 
L 236.065797 -198.905281 
L 238.1456 -198.874605 
L 240.225403 -198.844521 
L 242.305206 -198.820163 
L 244.385008 -198.807624 
L 246.464811 -198.813365 
L 248.544614 -198.843263 
L 250.624416 -198.901493 
L 252.704219 -198.989635 
L 254.784022 -199.106308 
L 256.863824 -199.247541 
L 258.943627 -199.407862 
L 261.02343 -199.581865 
L 263.103232 -199.765869 
L 265.183035 -199.959189 
L 267.262838 -200.164641 
L 269.34264 -200.388068 
L 271.422443 -200.637034 
L 273.502246 -200.919076 
L 275.582048 -201.240116 
L 277.661851 -201.603552 
L 279.741654 -202.010274 
L 281.821456 -202.45946 
L 283.901259 -202.949696 
L 285.981062 -203.479879 
L 288.060864 -204.049565 
L 290.140667 -204.658753 
L 292.22047 -205.30733 
L 294.300272 -205.994417 
L 296.380075 -206.717645 
L 298.459878 -207.472174 
L 300.53968 -208.249265 
L 302.619483 -209.034462 
L 304.699286 -209.805888 
L 306.779088 -210.53351 
L 308.858891 -211.180252 
L 310.938694 -211.705495 
L 313.018496 -212.070818 
L 315.098299 -212.24707 
L 317.178102 -212.221191 
L 319.257904 -212.000893 
L 321.337707 -211.615494 
L 323.41751 -211.111931 
L 325.497312 -210.546213 
L 327.577115 -209.972001 
L 329.656918 -209.429174 
L 331.73672 -208.935674 
L 333.816523 -208.485211 
L 335.896326 -208.05168 
L 337.976128 -207.598976 
L 340.055931 -207.093069 
L 342.135734 -206.512544 
L 344.215537 -205.85457 
L 346.295339 -205.135025 
L 348.375142 -204.383582 
L 350.454945 -203.635989 
L 352.534747 -202.926243 
L 354.61455 -202.280737 
L 356.694353 -201.715366 
L 358.774155 -201.235426 
L 360.853958 -200.837471 
L 362.933761 -200.512112 
L 365.013563 -200.24689 
L 367.093366 -200.028717 
L 369.173169 -199.845587 
L 371.252971 -199.687517 
L 373.332774 -199.546788 
L 375.412577 -199.417757 
L 377.492379 -199.296486 
L 379.572182 -199.18048 
L 381.651985 -199.068573 
L 383.731787 -198.960914 
L 385.81159 -198.858853 
L 387.891393 -198.764587 
L 389.971195 -198.680579 
L 392.050998 -198.608886 
L 394.130801 -198.550621 
L 396.210603 -198.505698 
L 398.290406 -198.472923 
L 400.370209 -198.450335 
L 400.370209 -198.381384 
L 400.370209 -198.381384 
L 398.290406 -198.358795 
L 396.210603 -198.326021 
L 394.130801 -198.281098 
L 392.050998 -198.222832 
L 389.971195 -198.15114 
L 387.891393 -198.067131 
L 385.81159 -197.972866 
L 383.731787 -197.870805 
L 381.651985 -197.763146 
L 379.572182 -197.651239 
L 377.492379 -197.535232 
L 375.412577 -197.413962 
L 373.332774 -197.28493 
L 371.252971 -197.144202 
L 369.173169 -196.986131 
L 367.093366 -196.803002 
L 365.013563 -196.584829 
L 362.933761 -196.319607 
L 360.853958 -195.994247 
L 358.774155 -195.596293 
L 356.694353 -195.116353 
L 354.61455 -194.550982 
L 352.534747 -193.905476 
L 350.454945 -193.19573 
L 348.375142 -192.448137 
L 346.295339 -191.696694 
L 344.215537 -190.977149 
L 342.135734 -190.319175 
L 340.055931 -189.73865 
L 337.976128 -189.232743 
L 335.896326 -188.780039 
L 333.816523 -188.346507 
L 331.73672 -187.896044 
L 329.656918 -187.402545 
L 327.577115 -186.859718 
L 325.497312 -186.285505 
L 323.41751 -185.719788 
L 321.337707 -185.216225 
L 319.257904 -184.830826 
L 317.178102 -184.610528 
L 315.098299 -184.584649 
L 313.018496 -184.7609 
L 310.938694 -185.126223 
L 308.858891 -185.651466 
L 306.779088 -186.298209 
L 304.699286 -187.025831 
L 302.619483 -187.797257 
L 300.53968 -188.582454 
L 298.459878 -189.359545 
L 296.380075 -190.114074 
L 294.300272 -190.837302 
L 292.22047 -191.524389 
L 290.140667 -192.172966 
L 288.060864 -192.782154 
L 285.981062 -193.351839 
L 283.901259 -193.882022 
L 281.821456 -194.372259 
L 279.741654 -194.821445 
L 277.661851 -195.228167 
L 275.582048 -195.591602 
L 273.502246 -195.912642 
L 271.422443 -196.194685 
L 269.34264 -196.443651 
L 267.262838 -196.667078 
L 265.183035 -196.87253 
L 263.103232 -197.06585 
L 261.02343 -197.249854 
L 258.943627 -197.423857 
L 256.863824 -197.584178 
L 254.784022 -197.725411 
L 252.704219 -197.842084 
L 250.624416 -197.930226 
L 248.544614 -197.988456 
L 246.464811 -198.018353 
L 244.385008 -198.024095 
L 242.305206 -198.011556 
L 240.225403 -197.987198 
L 238.1456 -197.957114 
L 236.065797 -197.926438 
L 233.985995 -197.899172 
L 231.906192 -197.878255 
L 229.826389 -197.865664 
L 227.746587 -197.862423 
L 225.666784 -197.868579 
L 223.586981 -197.883288 
L 221.507179 -197.905147 
L 219.427376 -197.932711 
L 217.347573 -197.964964 
L 215.267771 -198.001496 
L 213.187968 -198.042269 
L 211.108165 -198.087085 
L 209.028363 -198.135073 
L 206.94856 -198.184456 
L 204.868757 -198.232757 
L 202.788955 -198.277328 
L 200.709152 -198.315971 
L 198.629349 -198.347384 
L 196.549547 -198.371312 
L 194.469744 -198.388393 
z
" style="stroke: #262626; stroke-width: 1.25"/>
    </defs>
    <g clip-path="url(#pa28e2abdf9)">
     <use xlink:href="#m1d94ce2dbf" x="0" y="345.6" style="fill: #701070; stroke: #262626; stroke-width: 1.25"/>
    </g>
   </g>
   <g id="PolyCollection_5">
    <defs>
     <path id="med1720760e" d="M 270.221872 -163.385286 
L 270.221872 -163.910495 
L 271.508545 -163.975836 
L 272.795217 -164.053209 
L 274.08189 -164.143714 
L 275.368563 -164.248286 
L 276.655235 -164.367644 
L 277.941908 -164.502225 
L 279.22858 -164.652144 
L 280.515253 -164.817164 
L 281.801925 -164.996686 
L 283.088598 -165.189768 
L 284.375271 -165.395173 
L 285.661943 -165.611444 
L 286.948616 -165.837009 
L 288.235288 -166.070303 
L 289.521961 -166.309911 
L 290.808634 -166.554708 
L 292.095306 -166.803996 
L 293.381979 -167.057609 
L 294.668651 -167.315991 
L 295.955324 -167.580219 
L 297.241996 -167.851979 
L 298.528669 -168.133475 
L 299.815342 -168.427282 
L 301.102014 -168.736152 
L 302.388687 -169.062779 
L 303.675359 -169.409546 
L 304.962032 -169.778268 
L 306.248704 -170.16996 
L 307.535377 -170.584651 
L 308.82205 -171.021257 
L 310.108722 -171.477524 
L 311.395395 -171.950064 
L 312.682067 -172.434464 
L 313.96874 -172.925463 
L 315.255412 -173.417198 
L 316.542085 -173.903469 
L 317.828758 -174.378028 
L 319.11543 -174.834843 
L 320.402103 -175.268327 
L 321.688775 -175.673509 
L 322.975448 -176.046137 
L 324.262121 -176.382708 
L 325.548793 -176.680429 
L 326.835466 -176.937122 
L 328.122138 -177.151093 
L 329.408811 -177.320986 
L 330.695483 -177.445647 
L 331.982156 -177.524017 
L 333.268829 -177.555078 
L 334.555501 -177.537854 
L 335.842174 -177.471477 
L 337.128846 -177.355307 
L 338.415519 -177.189102 
L 339.702191 -176.973208 
L 340.988864 -176.708748 
L 342.275537 -176.397793 
L 343.562209 -176.043485 
L 344.848882 -175.650093 
L 346.135554 -175.222988 
L 347.422227 -174.768542 
L 348.708899 -174.293933 
L 349.995572 -173.806891 
L 351.282245 -173.315383 
L 352.568917 -172.827264 
L 353.85559 -172.349921 
L 355.142262 -171.889944 
L 356.428935 -171.452822 
L 357.715608 -171.042719 
L 359.00228 -170.662316 
L 360.288953 -170.312749 
L 361.575625 -169.993634 
L 362.862298 -169.703179 
L 364.14897 -169.438383 
L 365.435643 -169.195284 
L 366.722316 -168.969267 
L 368.008988 -168.755384 
L 369.295661 -168.548687 
L 370.582333 -168.344532 
L 371.869006 -168.138856 
L 373.155678 -167.928389 
L 374.442351 -167.710812 
L 375.729024 -167.484835 
L 377.015696 -167.250211 
L 378.302369 -167.007677 
L 379.589041 -166.758836 
L 380.875714 -166.506 
L 382.162386 -166.251989 
L 383.449059 -165.999929 
L 384.735732 -165.753034 
L 386.022404 -165.514416 
L 387.309077 -165.286917 
L 388.595749 -165.072971 
L 389.882422 -164.874509 
L 391.169094 -164.692912 
L 392.455767 -164.528988 
L 393.74244 -164.383004 
L 395.029112 -164.254725 
L 396.315785 -164.143493 
L 397.602457 -164.048305 
L 397.602457 -163.247476 
L 397.602457 -163.247476 
L 396.315785 -163.152289 
L 395.029112 -163.041056 
L 393.74244 -162.912777 
L 392.455767 -162.766793 
L 391.169094 -162.60287 
L 389.882422 -162.421272 
L 388.595749 -162.22281 
L 387.309077 -162.008864 
L 386.022404 -161.781365 
L 384.735732 -161.542748 
L 383.449059 -161.295852 
L 382.162386 -161.043792 
L 380.875714 -160.789782 
L 379.589041 -160.536945 
L 378.302369 -160.288105 
L 377.015696 -160.04557 
L 375.729024 -159.810946 
L 374.442351 -159.584969 
L 373.155678 -159.367392 
L 371.869006 -159.156925 
L 370.582333 -158.951249 
L 369.295661 -158.747094 
L 368.008988 -158.540397 
L 366.722316 -158.326514 
L 365.435643 -158.100497 
L 364.14897 -157.857398 
L 362.862298 -157.592602 
L 361.575625 -157.302148 
L 360.288953 -156.983032 
L 359.00228 -156.633465 
L 357.715608 -156.253062 
L 356.428935 -155.842959 
L 355.142262 -155.405837 
L 353.85559 -154.94586 
L 352.568917 -154.468518 
L 351.282245 -153.980398 
L 349.995572 -153.48889 
L 348.708899 -153.001849 
L 347.422227 -152.52724 
L 346.135554 -152.072793 
L 344.848882 -151.645688 
L 343.562209 -151.252296 
L 342.275537 -150.897988 
L 340.988864 -150.587034 
L 339.702191 -150.322573 
L 338.415519 -150.106679 
L 337.128846 -149.940474 
L 335.842174 -149.824305 
L 334.555501 -149.757927 
L 333.268829 -149.740703 
L 331.982156 -149.771764 
L 330.695483 -149.850135 
L 329.408811 -149.974795 
L 328.122138 -150.144688 
L 326.835466 -150.358659 
L 325.548793 -150.615352 
L 324.262121 -150.913073 
L 322.975448 -151.249644 
L 321.688775 -151.622272 
L 320.402103 -152.027454 
L 319.11543 -152.460938 
L 317.828758 -152.917753 
L 316.542085 -153.392312 
L 315.255412 -153.878584 
L 313.96874 -154.370318 
L 312.682067 -154.861317 
L 311.395395 -155.345717 
L 310.108722 -155.818257 
L 308.82205 -156.274525 
L 307.535377 -156.71113 
L 306.248704 -157.125821 
L 304.962032 -157.517513 
L 303.675359 -157.886235 
L 302.388687 -158.233002 
L 301.102014 -158.559629 
L 299.815342 -158.8685 
L 298.528669 -159.162306 
L 297.241996 -159.443802 
L 295.955324 -159.715562 
L 294.668651 -159.979791 
L 293.381979 -160.238172 
L 292.095306 -160.491785 
L 290.808634 -160.741073 
L 289.521961 -160.985871 
L 288.235288 -161.225479 
L 286.948616 -161.458772 
L 285.661943 -161.684337 
L 284.375271 -161.900609 
L 283.088598 -162.106014 
L 281.801925 -162.299096 
L 280.515253 -162.478617 
L 279.22858 -162.643637 
L 277.941908 -162.793556 
L 276.655235 -162.928137 
L 275.368563 -163.047495 
L 274.08189 -163.152068 
L 272.795217 -163.242572 
L 271.508545 -163.319945 
L 270.221872 -163.385286 
z
" style="stroke: #262626; stroke-width: 1.25"/>
    </defs>
    <g clip-path="url(#pa28e2abdf9)">
     <use xlink:href="#med1720760e" x="0" y="345.6" style="fill: #701070; stroke: #262626; stroke-width: 1.25"/>
    </g>
   </g>
   <g id="PolyCollection_6">
    <defs>
     <path id="mc264554540" d="M 222.667433 -128.842516 
L 222.667433 -128.917328 
L 224.805838 -128.935049 
L 226.944243 -128.958421 
L 229.082648 -128.987968 
L 231.221053 -129.023741 
L 233.359459 -129.065191 
L 235.497864 -129.11113 
L 237.636269 -129.159831 
L 239.774674 -129.209289 
L 241.913079 -129.257595 
L 244.051484 -129.303387 
L 246.18989 -129.346241 
L 248.328295 -129.386924 
L 250.4667 -129.427389 
L 252.605105 -129.470508 
L 254.74351 -129.519558 
L 256.881916 -129.577584 
L 259.020321 -129.64676 
L 261.158726 -129.727936 
L 263.297131 -129.820447 
L 265.435536 -129.922277 
L 267.573941 -130.030522 
L 269.712347 -130.142083 
L 271.850752 -130.254453 
L 273.989157 -130.366446 
L 276.127562 -130.478769 
L 278.265967 -130.594332 
L 280.404373 -130.718301 
L 282.542778 -130.857893 
L 284.681183 -131.021966 
L 286.819588 -131.220456 
L 288.957993 -131.463675 
L 291.096398 -131.761469 
L 293.234804 -132.122218 
L 295.373209 -132.551694 
L 297.511614 -133.051828 
L 299.650019 -133.619574 
L 301.788424 -134.246101 
L 303.92683 -134.916609 
L 306.065235 -135.610996 
L 308.20364 -136.305447 
L 310.342045 -136.974811 
L 312.48045 -137.595404 
L 314.618855 -138.147693 
L 316.757261 -138.618338 
L 318.895666 -139.001165 
L 321.034071 -139.296885 
L 323.172476 -139.511698 
L 325.310881 -139.655169 
L 327.449286 -139.737874 
L 329.587692 -139.769343 
L 331.726097 -139.756648 
L 333.864502 -139.703769 
L 336.002907 -139.611693 
L 338.141312 -139.479006 
L 340.279718 -139.30278 
L 342.418123 -139.079532 
L 344.556528 -138.806178 
L 346.694933 -138.480903 
L 348.833338 -138.103962 
L 350.971743 -137.678322 
L 353.110149 -137.210071 
L 355.248554 -136.708465 
L 357.386959 -136.185526 
L 359.525364 -135.655193 
L 361.663769 -135.132112 
L 363.802175 -134.630278 
L 365.94058 -134.161762 
L 368.078985 -133.735736 
L 370.21739 -133.357921 
L 372.355795 -133.030483 
L 374.4942 -132.752283 
L 376.632606 -132.519353 
L 378.771011 -132.325452 
L 380.909416 -132.162631 
L 383.047821 -132.021782 
L 385.186226 -131.893224 
L 387.324632 -131.767374 
L 389.463037 -131.635518 
L 391.601442 -131.490634 
L 393.739847 -131.328147 
L 395.878252 -131.146447 
L 398.016657 -130.947027 
L 400.155063 -130.734168 
L 402.293468 -130.514202 
L 404.431873 -130.294493 
L 406.570278 -130.082346 
L 408.708683 -129.884059 
L 410.847088 -129.704276 
L 412.985494 -129.545728 
L 415.123899 -129.409324 
L 417.262304 -129.294492 
L 419.400709 -129.19964 
L 421.539114 -129.122612 
L 423.67752 -129.061048 
L 425.815925 -129.012626 
L 427.95433 -128.975192 
L 430.092735 -128.946806 
L 432.23114 -128.925747 
L 434.369545 -128.910504 
L 434.369545 -128.84934 
L 434.369545 -128.84934 
L 432.23114 -128.834097 
L 430.092735 -128.813038 
L 427.95433 -128.784652 
L 425.815925 -128.747218 
L 423.67752 -128.698796 
L 421.539114 -128.637231 
L 419.400709 -128.560203 
L 417.262304 -128.465352 
L 415.123899 -128.35052 
L 412.985494 -128.214116 
L 410.847088 -128.055568 
L 408.708683 -127.875785 
L 406.570278 -127.677498 
L 404.431873 -127.465351 
L 402.293468 -127.245642 
L 400.155063 -127.025676 
L 398.016657 -126.812817 
L 395.878252 -126.613397 
L 393.739847 -126.431697 
L 391.601442 -126.26921 
L 389.463037 -126.124326 
L 387.324632 -125.992469 
L 385.186226 -125.86662 
L 383.047821 -125.738062 
L 380.909416 -125.597213 
L 378.771011 -125.434392 
L 376.632606 -125.240491 
L 374.4942 -125.007561 
L 372.355795 -124.729361 
L 370.21739 -124.401922 
L 368.078985 -124.024108 
L 365.94058 -123.598082 
L 363.802175 -123.129566 
L 361.663769 -122.627732 
L 359.525364 -122.10465 
L 357.386959 -121.574317 
L 355.248554 -121.051379 
L 353.110149 -120.549773 
L 350.971743 -120.081521 
L 348.833338 -119.655881 
L 346.694933 -119.278941 
L 344.556528 -118.953666 
L 342.418123 -118.680312 
L 340.279718 -118.457064 
L 338.141312 -118.280837 
L 336.002907 -118.148151 
L 333.864502 -118.056074 
L 331.726097 -118.003196 
L 329.587692 -117.9905 
L 327.449286 -118.021969 
L 325.310881 -118.104674 
L 323.172476 -118.248145 
L 321.034071 -118.462959 
L 318.895666 -118.758678 
L 316.757261 -119.141506 
L 314.618855 -119.612151 
L 312.48045 -120.16444 
L 310.342045 -120.785032 
L 308.20364 -121.454397 
L 306.065235 -122.148848 
L 303.92683 -122.843234 
L 301.788424 -123.513743 
L 299.650019 -124.14027 
L 297.511614 -124.708016 
L 295.373209 -125.20815 
L 293.234804 -125.637626 
L 291.096398 -125.998375 
L 288.957993 -126.296169 
L 286.819588 -126.539388 
L 284.681183 -126.737878 
L 282.542778 -126.901951 
L 280.404373 -127.041542 
L 278.265967 -127.165512 
L 276.127562 -127.281075 
L 273.989157 -127.393398 
L 271.850752 -127.505391 
L 269.712347 -127.617761 
L 267.573941 -127.729322 
L 265.435536 -127.837566 
L 263.297131 -127.939396 
L 261.158726 -128.031908 
L 259.020321 -128.113084 
L 256.881916 -128.18226 
L 254.74351 -128.240285 
L 252.605105 -128.289336 
L 250.4667 -128.332455 
L 248.328295 -128.37292 
L 246.18989 -128.413602 
L 244.051484 -128.456457 
L 241.913079 -128.502249 
L 239.774674 -128.550555 
L 237.636269 -128.600012 
L 235.497864 -128.648714 
L 233.359459 -128.694653 
L 231.221053 -128.736103 
L 229.082648 -128.771876 
L 226.944243 -128.801422 
L 224.805838 -128.824795 
L 222.667433 -128.842516 
z
" style="stroke: #262626; stroke-width: 1.25"/>
    </defs>
    <g clip-path="url(#pa28e2abdf9)">
     <use xlink:href="#mc264554540" x="0" y="345.6" style="fill: #701070; stroke: #262626; stroke-width: 1.25"/>
    </g>
   </g>
   <g id="PolyCollection_7">
    <defs>
     <path id="m296a60facc" d="M 258.148491 -94.092789 
L 258.148491 -94.131118 
L 259.845245 -94.142985 
L 261.541999 -94.159651 
L 263.238753 -94.181625 
L 264.935507 -94.20881 
L 266.632262 -94.240374 
L 268.329016 -94.274844 
L 270.02577 -94.310479 
L 271.722524 -94.345882 
L 273.419278 -94.380708 
L 275.116033 -94.416225 
L 276.812787 -94.455534 
L 278.509541 -94.503318 
L 280.206295 -94.565174 
L 281.903049 -94.646713 
L 283.599803 -94.752669 
L 285.296558 -94.886215 
L 286.993312 -95.048598 
L 288.690066 -95.239112 
L 290.38682 -95.455425 
L 292.083574 -95.69428 
L 293.780328 -95.95259 
L 295.477083 -96.228825 
L 297.173837 -96.524402 
L 298.870591 -96.844615 
L 300.567345 -97.198582 
L 302.264099 -97.597898 
L 303.960854 -98.054064 
L 305.657608 -98.575208 
L 307.354362 -99.162966 
L 309.051116 -99.810431 
L 310.74787 -100.501846 
L 312.444624 -101.214291 
L 314.141379 -101.921047 
L 315.838133 -102.595954 
L 317.534887 -103.217828 
L 319.231641 -103.773972 
L 320.928395 -104.262003 
L 322.625149 -104.689507 
L 324.321904 -105.071434 
L 326.018658 -105.425688 
L 327.715412 -105.767853 
L 329.412166 -106.106391 
L 331.10892 -106.439681 
L 332.805675 -106.755882 
L 334.502429 -107.035762 
L 336.199183 -107.257696 
L 337.895937 -107.403247 
L 339.592691 -107.461594 
L 341.289445 -107.431472 
L 342.9862 -107.32023 
L 344.682954 -107.14061 
L 346.379708 -106.906551 
L 348.076462 -106.629475 
L 349.773216 -106.316165 
L 351.469971 -105.96861 
L 353.166725 -105.5855 
L 354.863479 -105.164544 
L 356.560233 -104.70468 
L 358.256987 -104.207484 
L 359.953741 -103.677517 
L 361.650496 -103.121783 
L 363.34725 -102.548742 
L 365.044004 -101.967338 
L 366.740758 -101.386348 
L 368.437512 -100.814145 
L 370.134266 -100.258724 
L 371.831021 -99.727777 
L 373.527775 -99.228548 
L 375.224529 -98.767352 
L 376.921283 -98.348758 
L 378.618037 -97.974683 
L 380.314792 -97.643737 
L 382.011546 -97.351181 
L 383.7083 -97.08968 
L 385.405054 -96.850705 
L 387.101808 -96.626186 
L 388.798562 -96.409902 
L 390.495317 -96.198209 
L 392.192071 -95.99002 
L 393.888825 -95.78623 
L 395.585579 -95.588947 
L 397.282333 -95.40082 
L 398.979087 -95.224581 
L 400.675842 -95.06273 
L 402.372596 -94.917246 
L 404.06935 -94.78927 
L 405.766104 -94.678832 
L 407.462858 -94.584774 
L 409.159613 -94.504965 
L 410.856367 -94.436795 
L 412.553121 -94.377771 
L 414.249875 -94.326003 
L 415.946629 -94.280428 
L 417.643383 -94.240717 
L 419.340138 -94.206961 
L 421.036892 -94.179304 
L 422.733646 -94.157649 
L 424.4304 -94.141538 
L 426.127154 -94.13019 
L 426.127154 -94.093716 
L 426.127154 -94.093716 
L 424.4304 -94.082368 
L 422.733646 -94.066257 
L 421.036892 -94.044602 
L 419.340138 -94.016945 
L 417.643383 -93.983189 
L 415.946629 -93.943478 
L 414.249875 -93.897903 
L 412.553121 -93.846136 
L 410.856367 -93.787111 
L 409.159613 -93.718942 
L 407.462858 -93.639133 
L 405.766104 -93.545074 
L 404.06935 -93.434636 
L 402.372596 -93.30666 
L 400.675842 -93.161176 
L 398.979087 -92.999325 
L 397.282333 -92.823086 
L 395.585579 -92.634959 
L 393.888825 -92.437676 
L 392.192071 -92.233886 
L 390.495317 -92.025697 
L 388.798562 -91.814004 
L 387.101808 -91.59772 
L 385.405054 -91.373202 
L 383.7083 -91.134226 
L 382.011546 -90.872725 
L 380.314792 -90.58017 
L 378.618037 -90.249223 
L 376.921283 -89.875148 
L 375.224529 -89.456555 
L 373.527775 -88.995358 
L 371.831021 -88.496129 
L 370.134266 -87.965182 
L 368.437512 -87.409761 
L 366.740758 -86.837558 
L 365.044004 -86.256568 
L 363.34725 -85.675164 
L 361.650496 -85.102123 
L 359.953741 -84.546389 
L 358.256987 -84.016422 
L 356.560233 -83.519227 
L 354.863479 -83.059363 
L 353.166725 -82.638406 
L 351.469971 -82.255296 
L 349.773216 -81.907741 
L 348.076462 -81.594431 
L 346.379708 -81.317355 
L 344.682954 -81.083296 
L 342.9862 -80.903676 
L 341.289445 -80.792434 
L 339.592691 -80.762312 
L 337.895937 -80.820659 
L 336.199183 -80.96621 
L 334.502429 -81.188144 
L 332.805675 -81.468024 
L 331.10892 -81.784225 
L 329.412166 -82.117515 
L 327.715412 -82.456053 
L 326.018658 -82.798219 
L 324.321904 -83.152473 
L 322.625149 -83.534399 
L 320.928395 -83.961903 
L 319.231641 -84.449934 
L 317.534887 -85.006078 
L 315.838133 -85.627952 
L 314.141379 -86.30286 
L 312.444624 -87.009615 
L 310.74787 -87.72206 
L 309.051116 -88.413475 
L 307.354362 -89.06094 
L 305.657608 -89.648699 
L 303.960854 -90.169843 
L 302.264099 -90.626008 
L 300.567345 -91.025324 
L 298.870591 -91.379291 
L 297.173837 -91.699504 
L 295.477083 -91.995081 
L 293.780328 -92.271316 
L 292.083574 -92.529626 
L 290.38682 -92.768482 
L 288.690066 -92.984794 
L 286.993312 -93.175308 
L 285.296558 -93.337691 
L 283.599803 -93.471237 
L 281.903049 -93.577193 
L 280.206295 -93.658732 
L 278.509541 -93.720588 
L 276.812787 -93.768372 
L 275.116033 -93.807681 
L 273.419278 -93.843198 
L 271.722524 -93.878024 
L 270.02577 -93.913427 
L 268.329016 -93.949062 
L 266.632262 -93.983533 
L 264.935507 -94.015097 
L 263.238753 -94.042281 
L 261.541999 -94.064255 
L 259.845245 -94.080922 
L 258.148491 -94.092789 
z
" style="stroke: #262626; stroke-width: 1.25"/>
    </defs>
    <g clip-path="url(#pa28e2abdf9)">
     <use xlink:href="#m296a60facc" x="0" y="345.6" style="fill: #701070; stroke: #262626; stroke-width: 1.25"/>
    </g>
   </g>
   <g id="PolyCollection_8">
    <defs>
     <path id="mcd04213beb" d="M 257.900905 -59.106416 
L 257.900905 -59.581552 
L 259.597677 -59.646881 
L 261.29445 -59.725495 
L 262.991223 -59.818707 
L 264.687996 -59.927578 
L 266.384769 -60.052817 
L 268.081541 -60.194663 
L 269.778314 -60.352798 
L 271.475087 -60.526268 
L 273.17186 -60.713447 
L 274.868632 -60.912037 
L 276.565405 -61.119127 
L 278.262178 -61.331301 
L 279.958951 -61.544801 
L 281.655724 -61.755741 
L 283.352496 -61.960355 
L 285.049269 -62.155263 
L 286.746042 -62.337738 
L 288.442815 -62.505941 
L 290.139587 -62.659115 
L 291.83636 -62.797702 
L 293.533133 -62.923383 
L 295.229906 -63.03902 
L 296.926679 -63.148501 
L 298.623451 -63.256512 
L 300.320224 -63.368234 
L 302.016997 -63.489002 
L 303.71377 -63.623945 
L 305.410542 -63.777653 
L 307.107315 -63.953879 
L 308.804088 -64.155316 
L 310.500861 -64.383459 
L 312.197634 -64.638553 
L 313.894406 -64.919643 
L 315.591179 -65.224689 
L 317.287952 -65.550756 
L 318.984725 -65.89423 
L 320.681497 -66.251052 
L 322.37827 -66.616936 
L 324.075043 -66.987557 
L 325.771816 -67.358685 
L 327.468589 -67.726272 
L 329.165361 -68.086469 
L 330.862134 -68.435609 
L 332.558907 -68.770144 
L 334.25568 -69.086569 
L 335.952452 -69.381344 
L 337.649225 -69.650835 
L 339.345998 -69.89129 
L 341.042771 -70.098855 
L 342.739544 -70.26964 
L 344.436316 -70.399834 
L 346.133089 -70.485853 
L 347.829862 -70.52452 
L 349.526635 -70.51325 
L 351.223407 -70.450233 
L 352.92018 -70.334595 
L 354.616953 -70.166515 
L 356.313726 -69.947297 
L 358.010499 -69.679388 
L 359.707271 -69.36633 
L 361.404044 -69.012666 
L 363.100817 -68.623787 
L 364.79759 -68.205751 
L 366.494362 -67.765058 
L 368.191135 -67.308429 
L 369.887908 -66.842572 
L 371.584681 -66.373957 
L 373.281454 -65.908621 
L 374.978226 -65.451995 
L 376.674999 -65.008767 
L 378.371772 -64.582791 
L 380.068545 -64.177031 
L 381.765317 -63.793555 
L 383.46209 -63.43356 
L 385.158863 -63.097442 
L 386.855636 -62.784895 
L 388.552409 -62.495031 
L 390.249181 -62.226521 
L 391.945954 -61.97774 
L 393.642727 -61.74691 
L 395.3395 -61.532238 
L 397.036272 -61.332026 
L 398.733045 -61.144765 
L 400.429818 -60.969196 
L 402.126591 -60.804344 
L 403.823364 -60.649521 
L 405.520136 -60.504302 
L 407.216909 -60.368484 
L 408.913682 -60.242027 
L 410.610455 -60.124992 
L 412.307227 -60.017474 
L 414.004 -59.919547 
L 415.700773 -59.831211 
L 417.397546 -59.752359 
L 419.094319 -59.68276 
L 420.791091 -59.622048 
L 422.487864 -59.569733 
L 424.184637 -59.525222 
L 425.88141 -59.487834 
L 425.88141 -59.200134 
L 425.88141 -59.200134 
L 424.184637 -59.162747 
L 422.487864 -59.118235 
L 420.791091 -59.065921 
L 419.094319 -59.005209 
L 417.397546 -58.935609 
L 415.700773 -58.856758 
L 414.004 -58.768422 
L 412.307227 -58.670495 
L 410.610455 -58.562977 
L 408.913682 -58.445942 
L 407.216909 -58.319485 
L 405.520136 -58.183666 
L 403.823364 -58.038447 
L 402.126591 -57.883624 
L 400.429818 -57.718773 
L 398.733045 -57.543204 
L 397.036272 -57.355943 
L 395.3395 -57.155731 
L 393.642727 -56.941059 
L 391.945954 -56.710229 
L 390.249181 -56.461448 
L 388.552409 -56.192938 
L 386.855636 -55.903074 
L 385.158863 -55.590526 
L 383.46209 -55.254409 
L 381.765317 -54.894413 
L 380.068545 -54.510937 
L 378.371772 -54.105178 
L 376.674999 -53.679202 
L 374.978226 -53.235974 
L 373.281454 -52.779348 
L 371.584681 -52.314012 
L 369.887908 -51.845397 
L 368.191135 -51.379539 
L 366.494362 -50.922911 
L 364.79759 -50.482218 
L 363.100817 -50.064181 
L 361.404044 -49.675303 
L 359.707271 -49.321639 
L 358.010499 -49.008581 
L 356.313726 -48.740672 
L 354.616953 -48.521454 
L 352.92018 -48.353374 
L 351.223407 -48.237736 
L 349.526635 -48.174719 
L 347.829862 -48.163449 
L 346.133089 -48.202115 
L 344.436316 -48.288135 
L 342.739544 -48.418329 
L 341.042771 -48.589114 
L 339.345998 -48.796679 
L 337.649225 -49.037134 
L 335.952452 -49.306625 
L 334.25568 -49.6014 
L 332.558907 -49.917825 
L 330.862134 -50.25236 
L 329.165361 -50.6015 
L 327.468589 -50.961697 
L 325.771816 -51.329283 
L 324.075043 -51.700412 
L 322.37827 -52.071033 
L 320.681497 -52.436917 
L 318.984725 -52.793738 
L 317.287952 -53.137212 
L 315.591179 -53.46328 
L 313.894406 -53.768326 
L 312.197634 -54.049416 
L 310.500861 -54.30451 
L 308.804088 -54.532652 
L 307.107315 -54.73409 
L 305.410542 -54.910316 
L 303.71377 -55.064024 
L 302.016997 -55.198967 
L 300.320224 -55.319735 
L 298.623451 -55.431457 
L 296.926679 -55.539468 
L 295.229906 -55.648949 
L 293.533133 -55.764585 
L 291.83636 -55.890267 
L 290.139587 -56.028854 
L 288.442815 -56.182028 
L 286.746042 -56.350231 
L 285.049269 -56.532706 
L 283.352496 -56.727614 
L 281.655724 -56.932228 
L 279.958951 -57.143168 
L 278.262178 -57.356668 
L 276.565405 -57.568842 
L 274.868632 -57.775932 
L 273.17186 -57.974522 
L 271.475087 -58.161701 
L 269.778314 -58.335171 
L 268.081541 -58.493306 
L 266.384769 -58.635152 
L 264.687996 -58.76039 
L 262.991223 -58.869262 
L 261.29445 -58.962473 
L 259.597677 -59.041087 
L 257.900905 -59.106416 
z
" style="stroke: #262626; stroke-width: 1.25"/>
    </defs>
    <g clip-path="url(#pa28e2abdf9)">
     <use xlink:href="#mcd04213beb" x="0" y="345.6" style="fill: #701070; stroke: #262626; stroke-width: 1.25"/>
    </g>
   </g>
   <g id="line2d_1">
    <path d="M 191.922744 42.880234 
L 306.59796 42.880234 
" clip-path="url(#pa28e2abdf9)" style="fill: none; stroke: #262626; stroke-width: 1.875; stroke-linecap: round"/>
   </g>
   <g id="line2d_2">
    <path d="M 247.907263 42.880234 
L 300.563174 42.880234 
" clip-path="url(#pa28e2abdf9)" style="fill: none; stroke: #262626; stroke-width: 5.625; stroke-linecap: round"/>
   </g>
   <g id="line2d_3">
    <path d="M 299.745168 42.880234 
" clip-path="url(#pa28e2abdf9)" style="fill: none; stroke: #262626; stroke-width: 1.5; stroke-linecap: round"/>
    <defs>
     <path id="m253cd025bf" d="M 0 2.34375 
L 0 -2.34375 
" style="stroke: #ffffff; stroke-width: 1.125"/>
    </defs>
    <g clip-path="url(#pa28e2abdf9)">
     <use xlink:href="#m253cd025bf" x="299.745168" y="42.880234" style="fill: #ffffff; stroke: #ffffff; stroke-width: 1.125"/>
    </g>
   </g>
   <g id="line2d_4">
    <path d="M 214.275349 77.648203 
L 384.838122 77.648203 
" clip-path="url(#pa28e2abdf9)" style="fill: none; stroke: #262626; stroke-width: 1.875; stroke-linecap: round"/>
   </g>
   <g id="line2d_5">
    <path d="M 281.637514 77.648203 
L 327.119528 77.648203 
" clip-path="url(#pa28e2abdf9)" style="fill: none; stroke: #262626; stroke-width: 5.625; stroke-linecap: round"/>
   </g>
   <g id="line2d_6">
    <path d="M 299.593543 77.648203 
" clip-path="url(#pa28e2abdf9)" style="fill: none; stroke: #262626; stroke-width: 1.5; stroke-linecap: round"/>
    <g clip-path="url(#pa28e2abdf9)">
     <use xlink:href="#m253cd025bf" x="299.593543" y="77.648203" style="fill: #ffffff; stroke: #ffffff; stroke-width: 1.125"/>
    </g>
   </g>
   <g id="line2d_7">
    <path d="M 282.415416 112.416172 
L 363.324398 112.416172 
" clip-path="url(#pa28e2abdf9)" style="fill: none; stroke: #262626; stroke-width: 1.875; stroke-linecap: round"/>
   </g>
   <g id="line2d_8">
    <path d="M 296.754145 112.416172 
L 334.616452 112.416172 
" clip-path="url(#pa28e2abdf9)" style="fill: none; stroke: #262626; stroke-width: 5.625; stroke-linecap: round"/>
   </g>
   <g id="line2d_9">
    <path d="M 316.657951 112.416172 
" clip-path="url(#pa28e2abdf9)" style="fill: none; stroke: #262626; stroke-width: 1.5; stroke-linecap: round"/>
    <g clip-path="url(#pa28e2abdf9)">
     <use xlink:href="#m253cd025bf" x="316.657951" y="112.416172" style="fill: #ffffff; stroke: #ffffff; stroke-width: 1.125"/>
    </g>
   </g>
   <g id="line2d_10">
    <path d="M 255.513511 147.184141 
L 377.024489 147.184141 
" clip-path="url(#pa28e2abdf9)" style="fill: none; stroke: #262626; stroke-width: 1.875; stroke-linecap: round"/>
   </g>
   <g id="line2d_11">
    <path d="M 302.287634 147.184141 
L 333.912989 147.184141 
" clip-path="url(#pa28e2abdf9)" style="fill: none; stroke: #262626; stroke-width: 5.625; stroke-linecap: round"/>
   </g>
   <g id="line2d_12">
    <path d="M 316.721128 147.184141 
" clip-path="url(#pa28e2abdf9)" style="fill: none; stroke: #262626; stroke-width: 1.5; stroke-linecap: round"/>
    <g clip-path="url(#pa28e2abdf9)">
     <use xlink:href="#m253cd025bf" x="316.721128" y="147.184141" style="fill: #ffffff; stroke: #ffffff; stroke-width: 1.125"/>
    </g>
   </g>
   <g id="line2d_13">
    <path d="M 294.397639 181.952109 
L 373.426691 181.952109 
" clip-path="url(#pa28e2abdf9)" style="fill: none; stroke: #262626; stroke-width: 1.875; stroke-linecap: round"/>
   </g>
   <g id="line2d_14">
    <path d="M 321.633697 181.952109 
L 345.480166 181.952109 
" clip-path="url(#pa28e2abdf9)" style="fill: none; stroke: #262626; stroke-width: 5.625; stroke-linecap: round"/>
   </g>
   <g id="line2d_15">
    <path d="M 336.096719 181.952109 
" clip-path="url(#pa28e2abdf9)" style="fill: none; stroke: #262626; stroke-width: 1.5; stroke-linecap: round"/>
    <g clip-path="url(#pa28e2abdf9)">
     <use xlink:href="#m253cd025bf" x="336.096719" y="181.952109" style="fill: #ffffff; stroke: #ffffff; stroke-width: 1.125"/>
    </g>
   </g>
   <g id="line2d_16">
    <path d="M 266.567854 216.720078 
L 399.156798 216.720078 
" clip-path="url(#pa28e2abdf9)" style="fill: none; stroke: #262626; stroke-width: 1.875; stroke-linecap: round"/>
   </g>
   <g id="line2d_17">
    <path d="M 316.506875 216.720078 
L 352.838237 216.720078 
" clip-path="url(#pa28e2abdf9)" style="fill: none; stroke: #262626; stroke-width: 5.625; stroke-linecap: round"/>
   </g>
   <g id="line2d_18">
    <path d="M 333.415263 216.720078 
" clip-path="url(#pa28e2abdf9)" style="fill: none; stroke: #262626; stroke-width: 1.5; stroke-linecap: round"/>
    <g clip-path="url(#pa28e2abdf9)">
     <use xlink:href="#m253cd025bf" x="333.415263" y="216.720078" style="fill: #ffffff; stroke: #ffffff; stroke-width: 1.125"/>
    </g>
   </g>
   <g id="line2d_19">
    <path d="M 276.8833 251.488047 
L 399.156798 251.488047 
" clip-path="url(#pa28e2abdf9)" style="fill: none; stroke: #262626; stroke-width: 1.875; stroke-linecap: round"/>
   </g>
   <g id="line2d_20">
    <path d="M 324.890476 251.488047 
L 356.917005 251.488047 
" clip-path="url(#pa28e2abdf9)" style="fill: none; stroke: #262626; stroke-width: 5.625; stroke-linecap: round"/>
   </g>
   <g id="line2d_21">
    <path d="M 340.332056 251.488047 
" clip-path="url(#pa28e2abdf9)" style="fill: none; stroke: #262626; stroke-width: 1.5; stroke-linecap: round"/>
    <g clip-path="url(#pa28e2abdf9)">
     <use xlink:href="#m253cd025bf" x="340.332056" y="251.488047" style="fill: #ffffff; stroke: #ffffff; stroke-width: 1.125"/>
    </g>
   </g>
   <g id="line2d_22">
    <path d="M 287.761847 286.256016 
L 396.020468 286.256016 
" clip-path="url(#pa28e2abdf9)" style="fill: none; stroke: #262626; stroke-width: 1.875; stroke-linecap: round"/>
   </g>
   <g id="line2d_23">
    <path d="M 324.828535 286.256016 
L 356.341819 286.256016 
" clip-path="url(#pa28e2abdf9)" style="fill: none; stroke: #262626; stroke-width: 5.625; stroke-linecap: round"/>
   </g>
   <g id="line2d_24">
    <path d="M 345.608442 286.256016 
" clip-path="url(#pa28e2abdf9)" style="fill: none; stroke: #262626; stroke-width: 1.5; stroke-linecap: round"/>
    <g clip-path="url(#pa28e2abdf9)">
     <use xlink:href="#m253cd025bf" x="345.608442" y="286.256016" style="fill: #ffffff; stroke: #ffffff; stroke-width: 1.125"/>
    </g>
   </g>
   <g id="patch_3">
    <path d="M 106.13 303.64 
L 106.13 25.49625 
" style="fill: none; stroke: #ffffff; stroke-width: 0.8; stroke-linejoin: miter; stroke-linecap: square"/>
   </g>
   <g id="patch_4">
    <path d="M 450 303.64 
L 450 25.49625 
" style="fill: none; stroke: #ffffff; stroke-width: 0.8; stroke-linejoin: miter; stroke-linecap: square"/>
   </g>
   <g id="patch_5">
    <path d="M 106.13 303.64 
L 450 303.64 
" style="fill: none; stroke: #ffffff; stroke-width: 0.8; stroke-linejoin: miter; stroke-linecap: square"/>
   </g>
   <g id="patch_6">
    <path d="M 106.13 25.49625 
L 450 25.49625 
" style="fill: none; stroke: #ffffff; stroke-width: 0.8; stroke-linejoin: miter; stroke-linecap: square"/>
   </g>
   <g id="text_17">
    <!-- Game type vs Rating -->
    <g style="fill: #262626" transform="translate(222.04375 19.49625) scale(0.12 -0.12)">
     <defs>
      <path id="ArialMT-76" d="M 1344 0 
L 81 3319 
L 675 3319 
L 1388 1331 
Q 1503 1009 1600 663 
Q 1675 925 1809 1294 
L 2547 3319 
L 3125 3319 
L 1869 0 
L 1344 0 
z
" transform="scale(0.015625)"/>
     </defs>
     <use xlink:href="#ArialMT-47"/>
     <use xlink:href="#ArialMT-61" x="77.783203"/>
     <use xlink:href="#ArialMT-6d" x="133.398438"/>
     <use xlink:href="#ArialMT-65" x="216.699219"/>
     <use xlink:href="#ArialMT-20" x="272.314453"/>
     <use xlink:href="#ArialMT-74" x="300.097656"/>
     <use xlink:href="#ArialMT-79" x="327.880859"/>
     <use xlink:href="#ArialMT-70" x="377.880859"/>
     <use xlink:href="#ArialMT-65" x="433.496094"/>
     <use xlink:href="#ArialMT-20" x="489.111328"/>
     <use xlink:href="#ArialMT-76" x="516.894531"/>
     <use xlink:href="#ArialMT-73" x="566.894531"/>
     <use xlink:href="#ArialMT-20" x="616.894531"/>
     <use xlink:href="#ArialMT-52" x="644.677734"/>
     <use xlink:href="#ArialMT-61" x="716.894531"/>
     <use xlink:href="#ArialMT-74" x="772.509766"/>
     <use xlink:href="#ArialMT-69" x="800.292969"/>
     <use xlink:href="#ArialMT-6e" x="822.509766"/>
     <use xlink:href="#ArialMT-67" x="878.125"/>
    </g>
   </g>
  </g>
 </g>
 <defs>
  <clipPath id="pa28e2abdf9">
   <rect x="106.13" y="25.49625" width="343.87" height="278.14375"/>
  </clipPath>
 </defs>
</svg>
