<?xml version="1.0" encoding="utf-8" standalone="no"?>
<!DOCTYPE svg PUBLIC "-//W3C//DTD SVG 1.1//EN"
  "http://www.w3.org/Graphics/SVG/1.1/DTD/svg11.dtd">
<svg xmlns:xlink="http://www.w3.org/1999/xlink" width="460.8pt" height="345.6pt" viewBox="0 0 460.8 345.6" xmlns="http://www.w3.org/2000/svg" version="1.1">
 <metadata>
  <rdf:RDF xmlns:dc="http://purl.org/dc/elements/1.1/" xmlns:cc="http://creativecommons.org/ns#" xmlns:rdf="http://www.w3.org/1999/02/22-rdf-syntax-ns#">
   <cc:Work>
    <dc:type rdf:resource="http://purl.org/dc/dcmitype/StillImage"/>
    <dc:date>2024-09-14T23:19:42.192412</dc:date>
    <dc:format>image/svg+xml</dc:format>
    <dc:creator>
     <cc:Agent>
      <dc:title>Matplotlib v3.9.2, https://matplotlib.org/</dc:title>
     </cc:Agent>
    </dc:creator>
   </cc:Work>
  </rdf:RDF>
 </metadata>
 <defs>
  <style type="text/css">*{stroke-linejoin: round; stroke-linecap: butt}</style>
 </defs>
 <g id="figure_1">
  <g id="patch_1">
   <path d="M 0 345.6 
L 460.8 345.6 
L 460.8 0 
L 0 0 
z
" style="fill: #ffffff"/>
  </g>
  <g id="axes_1">
   <g id="patch_2">
    <path d="M 106.13 303.64 
L 450 303.64 
L 450 25.49625 
L 106.13 25.49625 
z
" style="fill: #eaeaf2"/>
   </g>
   <g id="matplotlib.axis_1">
    <g id="xtick_1">
     <g id="text_1">
      <!-- 3 -->
      <g style="fill: #262626" transform="translate(113.215129 317.797812) scale(0.1 -0.1)">
       <defs>
        <path id="ArialMT-33" d="M 269 1209 
L 831 1284 
Q 928 806 1161 595 
Q 1394 384 1728 384 
Q 2125 384 2398 659 
Q 2672 934 2672 1341 
Q 2672 1728 2419 1979 
Q 2166 2231 1775 2231 
Q 1616 2231 1378 2169 
L 1441 2663 
Q 1497 2656 1531 2656 
Q 1891 2656 2178 2843 
Q 2466 3031 2466 3422 
Q 2466 3731 2256 3934 
Q 2047 4138 1716 4138 
Q 1388 4138 1169 3931 
Q 950 3725 888 3313 
L 325 3413 
Q 428 3978 793 4289 
Q 1159 4600 1703 4600 
Q 2078 4600 2393 4439 
Q 2709 4278 2876 4000 
Q 3044 3722 3044 3409 
Q 3044 3113 2884 2869 
Q 2725 2625 2413 2481 
Q 2819 2388 3044 2092 
Q 3269 1797 3269 1353 
Q 3269 753 2831 336 
Q 2394 -81 1725 -81 
Q 1122 -81 723 278 
Q 325 638 269 1209 
z
" transform="scale(0.015625)"/>
       </defs>
       <use xlink:href="#ArialMT-33"/>
      </g>
     </g>
    </g>
    <g id="xtick_2">
     <g id="text_2">
      <!-- 4 -->
      <g style="fill: #262626" transform="translate(166.341664 317.797812) scale(0.1 -0.1)">
       <defs>
        <path id="ArialMT-34" d="M 2069 0 
L 2069 1097 
L 81 1097 
L 81 1613 
L 2172 4581 
L 2631 4581 
L 2631 1613 
L 3250 1613 
L 3250 1097 
L 2631 1097 
L 2631 0 
L 2069 0 
z
M 2069 1613 
L 2069 3678 
L 634 1613 
L 2069 1613 
z
" transform="scale(0.015625)"/>
       </defs>
       <use xlink:href="#ArialMT-34"/>
      </g>
     </g>
    </g>
    <g id="xtick_3">
     <g id="text_3">
      <!-- 5 -->
      <g style="fill: #262626" transform="translate(219.468199 317.797812) scale(0.1 -0.1)">
       <defs>
        <path id="ArialMT-35" d="M 266 1200 
L 856 1250 
Q 922 819 1161 601 
Q 1400 384 1738 384 
Q 2144 384 2425 690 
Q 2706 997 2706 1503 
Q 2706 1984 2436 2262 
Q 2166 2541 1728 2541 
Q 1456 2541 1237 2417 
Q 1019 2294 894 2097 
L 366 2166 
L 809 4519 
L 3088 4519 
L 3088 3981 
L 1259 3981 
L 1013 2750 
Q 1425 3038 1878 3038 
Q 2478 3038 2890 2622 
Q 3303 2206 3303 1553 
Q 3303 931 2941 478 
Q 2500 -78 1738 -78 
Q 1113 -78 717 272 
Q 322 622 266 1200 
z
" transform="scale(0.015625)"/>
       </defs>
       <use xlink:href="#ArialMT-35"/>
      </g>
     </g>
    </g>
    <g id="xtick_4">
     <g id="text_4">
      <!-- 6 -->
      <g style="fill: #262626" transform="translate(272.594735 317.797812) scale(0.1 -0.1)">
       <defs>
        <path id="ArialMT-36" d="M 3184 3459 
L 2625 3416 
Q 2550 3747 2413 3897 
Q 2184 4138 1850 4138 
Q 1581 4138 1378 3988 
Q 1113 3794 959 3422 
Q 806 3050 800 2363 
Q 1003 2672 1297 2822 
Q 1591 2972 1913 2972 
Q 2475 2972 2870 2558 
Q 3266 2144 3266 1488 
Q 3266 1056 3080 686 
Q 2894 316 2569 119 
Q 2244 -78 1831 -78 
Q 1128 -78 684 439 
Q 241 956 241 2144 
Q 241 3472 731 4075 
Q 1159 4600 1884 4600 
Q 2425 4600 2770 4297 
Q 3116 3994 3184 3459 
z
M 888 1484 
Q 888 1194 1011 928 
Q 1134 663 1356 523 
Q 1578 384 1822 384 
Q 2178 384 2434 671 
Q 2691 959 2691 1453 
Q 2691 1928 2437 2201 
Q 2184 2475 1800 2475 
Q 1419 2475 1153 2201 
Q 888 1928 888 1484 
z
" transform="scale(0.015625)"/>
       </defs>
       <use xlink:href="#ArialMT-36"/>
      </g>
     </g>
    </g>
    <g id="xtick_5">
     <g id="text_5">
      <!-- 7 -->
      <g style="fill: #262626" transform="translate(325.72127 317.797812) scale(0.1 -0.1)">
       <defs>
        <path id="ArialMT-37" d="M 303 3981 
L 303 4522 
L 3269 4522 
L 3269 4084 
Q 2831 3619 2401 2847 
Q 1972 2075 1738 1259 
Q 1569 684 1522 0 
L 944 0 
Q 953 541 1156 1306 
Q 1359 2072 1739 2783 
Q 2119 3494 2547 3981 
L 303 3981 
z
" transform="scale(0.015625)"/>
       </defs>
       <use xlink:href="#ArialMT-37"/>
      </g>
     </g>
    </g>
    <g id="xtick_6">
     <g id="text_6">
      <!-- 8 -->
      <g style="fill: #262626" transform="translate(378.847805 317.797812) scale(0.1 -0.1)">
       <defs>
        <path id="ArialMT-38" d="M 1131 2484 
Q 781 2613 612 2850 
Q 444 3088 444 3419 
Q 444 3919 803 4259 
Q 1163 4600 1759 4600 
Q 2359 4600 2725 4251 
Q 3091 3903 3091 3403 
Q 3091 3084 2923 2848 
Q 2756 2613 2416 2484 
Q 2838 2347 3058 2040 
Q 3278 1734 3278 1309 
Q 3278 722 2862 322 
Q 2447 -78 1769 -78 
Q 1091 -78 675 323 
Q 259 725 259 1325 
Q 259 1772 486 2073 
Q 713 2375 1131 2484 
z
M 1019 3438 
Q 1019 3113 1228 2906 
Q 1438 2700 1772 2700 
Q 2097 2700 2305 2904 
Q 2513 3109 2513 3406 
Q 2513 3716 2298 3927 
Q 2084 4138 1766 4138 
Q 1444 4138 1231 3931 
Q 1019 3725 1019 3438 
z
M 838 1322 
Q 838 1081 952 856 
Q 1066 631 1291 507 
Q 1516 384 1775 384 
Q 2178 384 2440 643 
Q 2703 903 2703 1303 
Q 2703 1709 2433 1975 
Q 2163 2241 1756 2241 
Q 1359 2241 1098 1978 
Q 838 1716 838 1322 
z
" transform="scale(0.015625)"/>
       </defs>
       <use xlink:href="#ArialMT-38"/>
      </g>
     </g>
    </g>
    <g id="xtick_7">
     <g id="text_7">
      <!-- 9 -->
      <g style="fill: #262626" transform="translate(431.974341 317.797812) scale(0.1 -0.1)">
       <defs>
        <path id="ArialMT-39" d="M 350 1059 
L 891 1109 
Q 959 728 1153 556 
Q 1347 384 1650 384 
Q 1909 384 2104 503 
Q 2300 622 2425 820 
Q 2550 1019 2634 1356 
Q 2719 1694 2719 2044 
Q 2719 2081 2716 2156 
Q 2547 1888 2255 1720 
Q 1963 1553 1622 1553 
Q 1053 1553 659 1965 
Q 266 2378 266 3053 
Q 266 3750 677 4175 
Q 1088 4600 1706 4600 
Q 2153 4600 2523 4359 
Q 2894 4119 3086 3673 
Q 3278 3228 3278 2384 
Q 3278 1506 3087 986 
Q 2897 466 2520 194 
Q 2144 -78 1638 -78 
Q 1100 -78 759 220 
Q 419 519 350 1059 
z
M 2653 3081 
Q 2653 3566 2395 3850 
Q 2138 4134 1775 4134 
Q 1400 4134 1122 3828 
Q 844 3522 844 3034 
Q 844 2597 1108 2323 
Q 1372 2050 1759 2050 
Q 2150 2050 2401 2323 
Q 2653 2597 2653 3081 
z
" transform="scale(0.015625)"/>
       </defs>
       <use xlink:href="#ArialMT-39"/>
      </g>
     </g>
    </g>
    <g id="text_8">
     <!-- Rating -->
     <g style="fill: #262626" transform="translate(263.612656 330.943125) scale(0.1 -0.1)">
      <defs>
       <path id="ArialMT-52" d="M 503 0 
L 503 4581 
L 2534 4581 
Q 3147 4581 3465 4457 
Q 3784 4334 3975 4021 
Q 4166 3709 4166 3331 
Q 4166 2844 3850 2509 
Q 3534 2175 2875 2084 
Q 3116 1969 3241 1856 
Q 3506 1613 3744 1247 
L 4541 0 
L 3778 0 
L 3172 953 
Q 2906 1366 2734 1584 
Q 2563 1803 2427 1890 
Q 2291 1978 2150 2013 
Q 2047 2034 1813 2034 
L 1109 2034 
L 1109 0 
L 503 0 
z
M 1109 2559 
L 2413 2559 
Q 2828 2559 3062 2645 
Q 3297 2731 3419 2920 
Q 3541 3109 3541 3331 
Q 3541 3656 3305 3865 
Q 3069 4075 2559 4075 
L 1109 4075 
L 1109 2559 
z
" transform="scale(0.015625)"/>
       <path id="ArialMT-61" d="M 2588 409 
Q 2275 144 1986 34 
Q 1697 -75 1366 -75 
Q 819 -75 525 192 
Q 231 459 231 875 
Q 231 1119 342 1320 
Q 453 1522 633 1644 
Q 813 1766 1038 1828 
Q 1203 1872 1538 1913 
Q 2219 1994 2541 2106 
Q 2544 2222 2544 2253 
Q 2544 2597 2384 2738 
Q 2169 2928 1744 2928 
Q 1347 2928 1158 2789 
Q 969 2650 878 2297 
L 328 2372 
Q 403 2725 575 2942 
Q 747 3159 1072 3276 
Q 1397 3394 1825 3394 
Q 2250 3394 2515 3294 
Q 2781 3194 2906 3042 
Q 3031 2891 3081 2659 
Q 3109 2516 3109 2141 
L 3109 1391 
Q 3109 606 3145 398 
Q 3181 191 3288 0 
L 2700 0 
Q 2613 175 2588 409 
z
M 2541 1666 
Q 2234 1541 1622 1453 
Q 1275 1403 1131 1340 
Q 988 1278 909 1158 
Q 831 1038 831 891 
Q 831 666 1001 516 
Q 1172 366 1500 366 
Q 1825 366 2078 508 
Q 2331 650 2450 897 
Q 2541 1088 2541 1459 
L 2541 1666 
z
" transform="scale(0.015625)"/>
       <path id="ArialMT-74" d="M 1650 503 
L 1731 6 
Q 1494 -44 1306 -44 
Q 1000 -44 831 53 
Q 663 150 594 308 
Q 525 466 525 972 
L 525 2881 
L 113 2881 
L 113 3319 
L 525 3319 
L 525 4141 
L 1084 4478 
L 1084 3319 
L 1650 3319 
L 1650 2881 
L 1084 2881 
L 1084 941 
Q 1084 700 1114 631 
Q 1144 563 1211 522 
Q 1278 481 1403 481 
Q 1497 481 1650 503 
z
" transform="scale(0.015625)"/>
       <path id="ArialMT-69" d="M 425 3934 
L 425 4581 
L 988 4581 
L 988 3934 
L 425 3934 
z
M 425 0 
L 425 3319 
L 988 3319 
L 988 0 
L 425 0 
z
" transform="scale(0.015625)"/>
       <path id="ArialMT-6e" d="M 422 0 
L 422 3319 
L 928 3319 
L 928 2847 
Q 1294 3394 1984 3394 
Q 2284 3394 2536 3286 
Q 2788 3178 2913 3003 
Q 3038 2828 3088 2588 
Q 3119 2431 3119 2041 
L 3119 0 
L 2556 0 
L 2556 2019 
Q 2556 2363 2490 2533 
Q 2425 2703 2258 2804 
Q 2091 2906 1866 2906 
Q 1506 2906 1245 2678 
Q 984 2450 984 1813 
L 984 0 
L 422 0 
z
" transform="scale(0.015625)"/>
       <path id="ArialMT-67" d="M 319 -275 
L 866 -356 
Q 900 -609 1056 -725 
Q 1266 -881 1628 -881 
Q 2019 -881 2231 -725 
Q 2444 -569 2519 -288 
Q 2563 -116 2559 434 
Q 2191 0 1641 0 
Q 956 0 581 494 
Q 206 988 206 1678 
Q 206 2153 378 2554 
Q 550 2956 876 3175 
Q 1203 3394 1644 3394 
Q 2231 3394 2613 2919 
L 2613 3319 
L 3131 3319 
L 3131 450 
Q 3131 -325 2973 -648 
Q 2816 -972 2473 -1159 
Q 2131 -1347 1631 -1347 
Q 1038 -1347 672 -1080 
Q 306 -813 319 -275 
z
M 784 1719 
Q 784 1066 1043 766 
Q 1303 466 1694 466 
Q 2081 466 2343 764 
Q 2606 1063 2606 1700 
Q 2606 2309 2336 2618 
Q 2066 2928 1684 2928 
Q 1309 2928 1046 2623 
Q 784 2319 784 1719 
z
" transform="scale(0.015625)"/>
      </defs>
      <use xlink:href="#ArialMT-52"/>
      <use xlink:href="#ArialMT-61" x="72.216797"/>
      <use xlink:href="#ArialMT-74" x="127.832031"/>
      <use xlink:href="#ArialMT-69" x="155.615234"/>
      <use xlink:href="#ArialMT-6e" x="177.832031"/>
      <use xlink:href="#ArialMT-67" x="233.447266"/>
     </g>
    </g>
   </g>
   <g id="matplotlib.axis_2">
    <g id="ytick_1">
     <g id="text_9">
      <!-- Children's Game -->
      <g style="fill: #262626" transform="translate(24.97375 46.459141) scale(0.1 -0.1)">
       <defs>
        <path id="ArialMT-43" d="M 3763 1606 
L 4369 1453 
Q 4178 706 3683 314 
Q 3188 -78 2472 -78 
Q 1731 -78 1267 223 
Q 803 525 561 1097 
Q 319 1669 319 2325 
Q 319 3041 592 3573 
Q 866 4106 1370 4382 
Q 1875 4659 2481 4659 
Q 3169 4659 3637 4309 
Q 4106 3959 4291 3325 
L 3694 3184 
Q 3534 3684 3231 3912 
Q 2928 4141 2469 4141 
Q 1941 4141 1586 3887 
Q 1231 3634 1087 3207 
Q 944 2781 944 2328 
Q 944 1744 1114 1308 
Q 1284 872 1643 656 
Q 2003 441 2422 441 
Q 2931 441 3284 734 
Q 3638 1028 3763 1606 
z
" transform="scale(0.015625)"/>
        <path id="ArialMT-68" d="M 422 0 
L 422 4581 
L 984 4581 
L 984 2938 
Q 1378 3394 1978 3394 
Q 2347 3394 2619 3248 
Q 2891 3103 3008 2847 
Q 3125 2591 3125 2103 
L 3125 0 
L 2563 0 
L 2563 2103 
Q 2563 2525 2380 2717 
Q 2197 2909 1863 2909 
Q 1613 2909 1392 2779 
Q 1172 2650 1078 2428 
Q 984 2206 984 1816 
L 984 0 
L 422 0 
z
" transform="scale(0.015625)"/>
        <path id="ArialMT-6c" d="M 409 0 
L 409 4581 
L 972 4581 
L 972 0 
L 409 0 
z
" transform="scale(0.015625)"/>
        <path id="ArialMT-64" d="M 2575 0 
L 2575 419 
Q 2259 -75 1647 -75 
Q 1250 -75 917 144 
Q 584 363 401 755 
Q 219 1147 219 1656 
Q 219 2153 384 2558 
Q 550 2963 881 3178 
Q 1213 3394 1622 3394 
Q 1922 3394 2156 3267 
Q 2391 3141 2538 2938 
L 2538 4581 
L 3097 4581 
L 3097 0 
L 2575 0 
z
M 797 1656 
Q 797 1019 1065 703 
Q 1334 388 1700 388 
Q 2069 388 2326 689 
Q 2584 991 2584 1609 
Q 2584 2291 2321 2609 
Q 2059 2928 1675 2928 
Q 1300 2928 1048 2622 
Q 797 2316 797 1656 
z
" transform="scale(0.015625)"/>
        <path id="ArialMT-72" d="M 416 0 
L 416 3319 
L 922 3319 
L 922 2816 
Q 1116 3169 1280 3281 
Q 1444 3394 1641 3394 
Q 1925 3394 2219 3213 
L 2025 2691 
Q 1819 2813 1613 2813 
Q 1428 2813 1281 2702 
Q 1134 2591 1072 2394 
Q 978 2094 978 1738 
L 978 0 
L 416 0 
z
" transform="scale(0.015625)"/>
        <path id="ArialMT-65" d="M 2694 1069 
L 3275 997 
Q 3138 488 2766 206 
Q 2394 -75 1816 -75 
Q 1088 -75 661 373 
Q 234 822 234 1631 
Q 234 2469 665 2931 
Q 1097 3394 1784 3394 
Q 2450 3394 2872 2941 
Q 3294 2488 3294 1666 
Q 3294 1616 3291 1516 
L 816 1516 
Q 847 969 1125 678 
Q 1403 388 1819 388 
Q 2128 388 2347 550 
Q 2566 713 2694 1069 
z
M 847 1978 
L 2700 1978 
Q 2663 2397 2488 2606 
Q 2219 2931 1791 2931 
Q 1403 2931 1139 2672 
Q 875 2413 847 1978 
z
" transform="scale(0.015625)"/>
        <path id="ArialMT-27" d="M 425 2959 
L 281 3816 
L 281 4581 
L 922 4581 
L 922 3816 
L 772 2959 
L 425 2959 
z
" transform="scale(0.015625)"/>
        <path id="ArialMT-73" d="M 197 991 
L 753 1078 
Q 800 744 1014 566 
Q 1228 388 1613 388 
Q 2000 388 2187 545 
Q 2375 703 2375 916 
Q 2375 1106 2209 1216 
Q 2094 1291 1634 1406 
Q 1016 1563 777 1677 
Q 538 1791 414 1992 
Q 291 2194 291 2438 
Q 291 2659 392 2848 
Q 494 3038 669 3163 
Q 800 3259 1026 3326 
Q 1253 3394 1513 3394 
Q 1903 3394 2198 3281 
Q 2494 3169 2634 2976 
Q 2775 2784 2828 2463 
L 2278 2388 
Q 2241 2644 2061 2787 
Q 1881 2931 1553 2931 
Q 1166 2931 1000 2803 
Q 834 2675 834 2503 
Q 834 2394 903 2306 
Q 972 2216 1119 2156 
Q 1203 2125 1616 2013 
Q 2213 1853 2448 1751 
Q 2684 1650 2818 1456 
Q 2953 1263 2953 975 
Q 2953 694 2789 445 
Q 2625 197 2315 61 
Q 2006 -75 1616 -75 
Q 969 -75 630 194 
Q 291 463 197 991 
z
" transform="scale(0.015625)"/>
        <path id="ArialMT-20" transform="scale(0.015625)"/>
        <path id="ArialMT-47" d="M 2638 1797 
L 2638 2334 
L 4578 2338 
L 4578 638 
Q 4131 281 3656 101 
Q 3181 -78 2681 -78 
Q 2006 -78 1454 211 
Q 903 500 622 1047 
Q 341 1594 341 2269 
Q 341 2938 620 3517 
Q 900 4097 1425 4378 
Q 1950 4659 2634 4659 
Q 3131 4659 3532 4498 
Q 3934 4338 4162 4050 
Q 4391 3763 4509 3300 
L 3963 3150 
Q 3859 3500 3706 3700 
Q 3553 3900 3268 4020 
Q 2984 4141 2638 4141 
Q 2222 4141 1919 4014 
Q 1616 3888 1430 3681 
Q 1244 3475 1141 3228 
Q 966 2803 966 2306 
Q 966 1694 1177 1281 
Q 1388 869 1791 669 
Q 2194 469 2647 469 
Q 3041 469 3416 620 
Q 3791 772 3984 944 
L 3984 1797 
L 2638 1797 
z
" transform="scale(0.015625)"/>
        <path id="ArialMT-6d" d="M 422 0 
L 422 3319 
L 925 3319 
L 925 2853 
Q 1081 3097 1340 3245 
Q 1600 3394 1931 3394 
Q 2300 3394 2536 3241 
Q 2772 3088 2869 2813 
Q 3263 3394 3894 3394 
Q 4388 3394 4653 3120 
Q 4919 2847 4919 2278 
L 4919 0 
L 4359 0 
L 4359 2091 
Q 4359 2428 4304 2576 
Q 4250 2725 4106 2815 
Q 3963 2906 3769 2906 
Q 3419 2906 3187 2673 
Q 2956 2441 2956 1928 
L 2956 0 
L 2394 0 
L 2394 2156 
Q 2394 2531 2256 2718 
Q 2119 2906 1806 2906 
Q 1569 2906 1367 2781 
Q 1166 2656 1075 2415 
Q 984 2175 984 1722 
L 984 0 
L 422 0 
z
" transform="scale(0.015625)"/>
       </defs>
       <use xlink:href="#ArialMT-43"/>
       <use xlink:href="#ArialMT-68" x="72.216797"/>
       <use xlink:href="#ArialMT-69" x="127.832031"/>
       <use xlink:href="#ArialMT-6c" x="150.048828"/>
       <use xlink:href="#ArialMT-64" x="172.265625"/>
       <use xlink:href="#ArialMT-72" x="227.880859"/>
       <use xlink:href="#ArialMT-65" x="261.181641"/>
       <use xlink:href="#ArialMT-6e" x="316.796875"/>
       <use xlink:href="#ArialMT-27" x="372.412109"/>
       <use xlink:href="#ArialMT-73" x="391.503906"/>
       <use xlink:href="#ArialMT-20" x="441.503906"/>
       <use xlink:href="#ArialMT-47" x="469.287109"/>
       <use xlink:href="#ArialMT-61" x="547.070312"/>
       <use xlink:href="#ArialMT-6d" x="602.685547"/>
       <use xlink:href="#ArialMT-65" x="685.986328"/>
      </g>
     </g>
    </g>
    <g id="ytick_2">
     <g id="text_10">
      <!-- Party Game -->
      <g style="fill: #262626" transform="translate(45.783125 81.288047) scale(0.1 -0.1)">
       <defs>
        <path id="ArialMT-50" d="M 494 0 
L 494 4581 
L 2222 4581 
Q 2678 4581 2919 4538 
Q 3256 4481 3484 4323 
Q 3713 4166 3852 3881 
Q 3991 3597 3991 3256 
Q 3991 2672 3619 2267 
Q 3247 1863 2275 1863 
L 1100 1863 
L 1100 0 
L 494 0 
z
M 1100 2403 
L 2284 2403 
Q 2872 2403 3119 2622 
Q 3366 2841 3366 3238 
Q 3366 3525 3220 3729 
Q 3075 3934 2838 4000 
Q 2684 4041 2272 4041 
L 1100 4041 
L 1100 2403 
z
" transform="scale(0.015625)"/>
        <path id="ArialMT-79" d="M 397 -1278 
L 334 -750 
Q 519 -800 656 -800 
Q 844 -800 956 -737 
Q 1069 -675 1141 -563 
Q 1194 -478 1313 -144 
Q 1328 -97 1363 -6 
L 103 3319 
L 709 3319 
L 1400 1397 
Q 1534 1031 1641 628 
Q 1738 1016 1872 1384 
L 2581 3319 
L 3144 3319 
L 1881 -56 
Q 1678 -603 1566 -809 
Q 1416 -1088 1222 -1217 
Q 1028 -1347 759 -1347 
Q 597 -1347 397 -1278 
z
" transform="scale(0.015625)"/>
       </defs>
       <use xlink:href="#ArialMT-50"/>
       <use xlink:href="#ArialMT-61" x="66.699219"/>
       <use xlink:href="#ArialMT-72" x="122.314453"/>
       <use xlink:href="#ArialMT-74" x="155.615234"/>
       <use xlink:href="#ArialMT-79" x="183.398438"/>
       <use xlink:href="#ArialMT-20" x="233.398438"/>
       <use xlink:href="#ArialMT-47" x="261.181641"/>
       <use xlink:href="#ArialMT-61" x="338.964844"/>
       <use xlink:href="#ArialMT-6d" x="394.580078"/>
       <use xlink:href="#ArialMT-65" x="477.880859"/>
      </g>
     </g>
    </g>
    <g id="ytick_3">
     <g id="text_11">
      <!-- Abstract Game -->
      <g style="fill: #262626" transform="translate(32.444063 115.995078) scale(0.1 -0.1)">
       <defs>
        <path id="ArialMT-41" d="M -9 0 
L 1750 4581 
L 2403 4581 
L 4278 0 
L 3588 0 
L 3053 1388 
L 1138 1388 
L 634 0 
L -9 0 
z
M 1313 1881 
L 2866 1881 
L 2388 3150 
Q 2169 3728 2063 4100 
Q 1975 3659 1816 3225 
L 1313 1881 
z
" transform="scale(0.015625)"/>
        <path id="ArialMT-62" d="M 941 0 
L 419 0 
L 419 4581 
L 981 4581 
L 981 2947 
Q 1338 3394 1891 3394 
Q 2197 3394 2470 3270 
Q 2744 3147 2920 2923 
Q 3097 2700 3197 2384 
Q 3297 2069 3297 1709 
Q 3297 856 2875 390 
Q 2453 -75 1863 -75 
Q 1275 -75 941 416 
L 941 0 
z
M 934 1684 
Q 934 1088 1097 822 
Q 1363 388 1816 388 
Q 2184 388 2453 708 
Q 2722 1028 2722 1663 
Q 2722 2313 2464 2622 
Q 2206 2931 1841 2931 
Q 1472 2931 1203 2611 
Q 934 2291 934 1684 
z
" transform="scale(0.015625)"/>
        <path id="ArialMT-63" d="M 2588 1216 
L 3141 1144 
Q 3050 572 2676 248 
Q 2303 -75 1759 -75 
Q 1078 -75 664 370 
Q 250 816 250 1647 
Q 250 2184 428 2587 
Q 606 2991 970 3192 
Q 1334 3394 1763 3394 
Q 2303 3394 2647 3120 
Q 2991 2847 3088 2344 
L 2541 2259 
Q 2463 2594 2264 2762 
Q 2066 2931 1784 2931 
Q 1359 2931 1093 2626 
Q 828 2322 828 1663 
Q 828 994 1084 691 
Q 1341 388 1753 388 
Q 2084 388 2306 591 
Q 2528 794 2588 1216 
z
" transform="scale(0.015625)"/>
       </defs>
       <use xlink:href="#ArialMT-41"/>
       <use xlink:href="#ArialMT-62" x="66.699219"/>
       <use xlink:href="#ArialMT-73" x="122.314453"/>
       <use xlink:href="#ArialMT-74" x="172.314453"/>
       <use xlink:href="#ArialMT-72" x="200.097656"/>
       <use xlink:href="#ArialMT-61" x="233.398438"/>
       <use xlink:href="#ArialMT-63" x="289.013672"/>
       <use xlink:href="#ArialMT-74" x="339.013672"/>
       <use xlink:href="#ArialMT-20" x="366.796875"/>
       <use xlink:href="#ArialMT-47" x="394.580078"/>
       <use xlink:href="#ArialMT-61" x="472.363281"/>
       <use xlink:href="#ArialMT-6d" x="527.978516"/>
       <use xlink:href="#ArialMT-65" x="611.279297"/>
      </g>
     </g>
    </g>
    <g id="ytick_4">
     <g id="text_12">
      <!-- Family Game -->
      <g style="fill: #262626" transform="translate(39.68 150.823984) scale(0.1 -0.1)">
       <defs>
        <path id="ArialMT-46" d="M 525 0 
L 525 4581 
L 3616 4581 
L 3616 4041 
L 1131 4041 
L 1131 2622 
L 3281 2622 
L 3281 2081 
L 1131 2081 
L 1131 0 
L 525 0 
z
" transform="scale(0.015625)"/>
       </defs>
       <use xlink:href="#ArialMT-46"/>
       <use xlink:href="#ArialMT-61" x="61.083984"/>
       <use xlink:href="#ArialMT-6d" x="116.699219"/>
       <use xlink:href="#ArialMT-69" x="200"/>
       <use xlink:href="#ArialMT-6c" x="222.216797"/>
       <use xlink:href="#ArialMT-79" x="244.433594"/>
       <use xlink:href="#ArialMT-20" x="294.433594"/>
       <use xlink:href="#ArialMT-47" x="322.216797"/>
       <use xlink:href="#ArialMT-61" x="400"/>
       <use xlink:href="#ArialMT-6d" x="455.615234"/>
       <use xlink:href="#ArialMT-65" x="538.916016"/>
      </g>
     </g>
    </g>
    <g id="ytick_5">
     <g id="text_13">
      <!-- Customizable -->
      <g style="fill: #262626" transform="translate(38.551875 185.531016) scale(0.1 -0.1)">
       <defs>
        <path id="ArialMT-75" d="M 2597 0 
L 2597 488 
Q 2209 -75 1544 -75 
Q 1250 -75 995 37 
Q 741 150 617 320 
Q 494 491 444 738 
Q 409 903 409 1263 
L 409 3319 
L 972 3319 
L 972 1478 
Q 972 1038 1006 884 
Q 1059 663 1231 536 
Q 1403 409 1656 409 
Q 1909 409 2131 539 
Q 2353 669 2445 892 
Q 2538 1116 2538 1541 
L 2538 3319 
L 3100 3319 
L 3100 0 
L 2597 0 
z
" transform="scale(0.015625)"/>
        <path id="ArialMT-6f" d="M 213 1659 
Q 213 2581 725 3025 
Q 1153 3394 1769 3394 
Q 2453 3394 2887 2945 
Q 3322 2497 3322 1706 
Q 3322 1066 3130 698 
Q 2938 331 2570 128 
Q 2203 -75 1769 -75 
Q 1072 -75 642 372 
Q 213 819 213 1659 
z
M 791 1659 
Q 791 1022 1069 705 
Q 1347 388 1769 388 
Q 2188 388 2466 706 
Q 2744 1025 2744 1678 
Q 2744 2294 2464 2611 
Q 2184 2928 1769 2928 
Q 1347 2928 1069 2612 
Q 791 2297 791 1659 
z
" transform="scale(0.015625)"/>
        <path id="ArialMT-7a" d="M 125 0 
L 125 456 
L 2238 2881 
Q 1878 2863 1603 2863 
L 250 2863 
L 250 3319 
L 2963 3319 
L 2963 2947 
L 1166 841 
L 819 456 
Q 1197 484 1528 484 
L 3063 484 
L 3063 0 
L 125 0 
z
" transform="scale(0.015625)"/>
       </defs>
       <use xlink:href="#ArialMT-43"/>
       <use xlink:href="#ArialMT-75" x="72.216797"/>
       <use xlink:href="#ArialMT-73" x="127.832031"/>
       <use xlink:href="#ArialMT-74" x="177.832031"/>
       <use xlink:href="#ArialMT-6f" x="205.615234"/>
       <use xlink:href="#ArialMT-6d" x="261.230469"/>
       <use xlink:href="#ArialMT-69" x="344.53125"/>
       <use xlink:href="#ArialMT-7a" x="366.748047"/>
       <use xlink:href="#ArialMT-61" x="416.748047"/>
       <use xlink:href="#ArialMT-62" x="472.363281"/>
       <use xlink:href="#ArialMT-6c" x="527.978516"/>
       <use xlink:href="#ArialMT-65" x="550.195312"/>
      </g>
     </g>
    </g>
    <g id="ytick_6">
     <g id="text_14">
      <!-- Thematic -->
      <g style="fill: #262626" transform="translate(58.009688 220.298984) scale(0.1 -0.1)">
       <defs>
        <path id="ArialMT-54" d="M 1659 0 
L 1659 4041 
L 150 4041 
L 150 4581 
L 3781 4581 
L 3781 4041 
L 2266 4041 
L 2266 0 
L 1659 0 
z
" transform="scale(0.015625)"/>
       </defs>
       <use xlink:href="#ArialMT-54"/>
       <use xlink:href="#ArialMT-68" x="61.083984"/>
       <use xlink:href="#ArialMT-65" x="116.699219"/>
       <use xlink:href="#ArialMT-6d" x="172.314453"/>
       <use xlink:href="#ArialMT-61" x="255.615234"/>
       <use xlink:href="#ArialMT-74" x="311.230469"/>
       <use xlink:href="#ArialMT-69" x="339.013672"/>
       <use xlink:href="#ArialMT-63" x="361.230469"/>
      </g>
     </g>
    </g>
    <g id="ytick_7">
     <g id="text_15">
      <!-- War Game -->
      <g style="fill: #262626" transform="translate(51.1675 255.066953) scale(0.1 -0.1)">
       <defs>
        <path id="ArialMT-57" d="M 1294 0 
L 78 4581 
L 700 4581 
L 1397 1578 
Q 1509 1106 1591 641 
Q 1766 1375 1797 1488 
L 2669 4581 
L 3400 4581 
L 4056 2263 
Q 4303 1400 4413 641 
Q 4500 1075 4641 1638 
L 5359 4581 
L 5969 4581 
L 4713 0 
L 4128 0 
L 3163 3491 
Q 3041 3928 3019 4028 
Q 2947 3713 2884 3491 
L 1913 0 
L 1294 0 
z
" transform="scale(0.015625)"/>
       </defs>
       <use xlink:href="#ArialMT-57"/>
       <use xlink:href="#ArialMT-61" x="90.634766"/>
       <use xlink:href="#ArialMT-72" x="146.25"/>
       <use xlink:href="#ArialMT-20" x="179.550781"/>
       <use xlink:href="#ArialMT-47" x="207.333984"/>
       <use xlink:href="#ArialMT-61" x="285.117188"/>
       <use xlink:href="#ArialMT-6d" x="340.732422"/>
       <use xlink:href="#ArialMT-65" x="424.033203"/>
      </g>
     </g>
    </g>
    <g id="ytick_8">
     <g id="text_16">
      <!-- Strategy Game -->
      <g style="fill: #262626" transform="translate(31.883125 289.895859) scale(0.1 -0.1)">
       <defs>
        <path id="ArialMT-53" d="M 288 1472 
L 859 1522 
Q 900 1178 1048 958 
Q 1197 738 1509 602 
Q 1822 466 2213 466 
Q 2559 466 2825 569 
Q 3091 672 3220 851 
Q 3350 1031 3350 1244 
Q 3350 1459 3225 1620 
Q 3100 1781 2813 1891 
Q 2628 1963 1997 2114 
Q 1366 2266 1113 2400 
Q 784 2572 623 2826 
Q 463 3081 463 3397 
Q 463 3744 659 4045 
Q 856 4347 1234 4503 
Q 1613 4659 2075 4659 
Q 2584 4659 2973 4495 
Q 3363 4331 3572 4012 
Q 3781 3694 3797 3291 
L 3216 3247 
Q 3169 3681 2898 3903 
Q 2628 4125 2100 4125 
Q 1550 4125 1298 3923 
Q 1047 3722 1047 3438 
Q 1047 3191 1225 3031 
Q 1400 2872 2139 2705 
Q 2878 2538 3153 2413 
Q 3553 2228 3743 1945 
Q 3934 1663 3934 1294 
Q 3934 928 3725 604 
Q 3516 281 3123 101 
Q 2731 -78 2241 -78 
Q 1619 -78 1198 103 
Q 778 284 539 648 
Q 300 1013 288 1472 
z
" transform="scale(0.015625)"/>
       </defs>
       <use xlink:href="#ArialMT-53"/>
       <use xlink:href="#ArialMT-74" x="66.699219"/>
       <use xlink:href="#ArialMT-72" x="94.482422"/>
       <use xlink:href="#ArialMT-61" x="127.783203"/>
       <use xlink:href="#ArialMT-74" x="183.398438"/>
       <use xlink:href="#ArialMT-65" x="211.181641"/>
       <use xlink:href="#ArialMT-67" x="266.796875"/>
       <use xlink:href="#ArialMT-79" x="322.412109"/>
       <use xlink:href="#ArialMT-20" x="372.412109"/>
       <use xlink:href="#ArialMT-47" x="400.195312"/>
       <use xlink:href="#ArialMT-61" x="477.978516"/>
       <use xlink:href="#ArialMT-6d" x="533.59375"/>
       <use xlink:href="#ArialMT-65" x="616.894531"/>
      </g>
     </g>
    </g>
    <g id="text_17">
     <!-- Game type -->
     <g style="fill: #262626" transform="translate(18.869063 189.022031) rotate(-90) scale(0.1 -0.1)">
      <defs>
       <path id="ArialMT-70" d="M 422 -1272 
L 422 3319 
L 934 3319 
L 934 2888 
Q 1116 3141 1344 3267 
Q 1572 3394 1897 3394 
Q 2322 3394 2647 3175 
Q 2972 2956 3137 2557 
Q 3303 2159 3303 1684 
Q 3303 1175 3120 767 
Q 2938 359 2589 142 
Q 2241 -75 1856 -75 
Q 1575 -75 1351 44 
Q 1128 163 984 344 
L 984 -1272 
L 422 -1272 
z
M 931 1641 
Q 931 1000 1190 694 
Q 1450 388 1819 388 
Q 2194 388 2461 705 
Q 2728 1022 2728 1688 
Q 2728 2322 2467 2637 
Q 2206 2953 1844 2953 
Q 1484 2953 1207 2617 
Q 931 2281 931 1641 
z
" transform="scale(0.015625)"/>
      </defs>
      <use xlink:href="#ArialMT-47"/>
      <use xlink:href="#ArialMT-61" x="77.783203"/>
      <use xlink:href="#ArialMT-6d" x="133.398438"/>
      <use xlink:href="#ArialMT-65" x="216.699219"/>
      <use xlink:href="#ArialMT-20" x="272.314453"/>
      <use xlink:href="#ArialMT-74" x="300.097656"/>
      <use xlink:href="#ArialMT-79" x="327.880859"/>
      <use xlink:href="#ArialMT-70" x="377.880859"/>
      <use xlink:href="#ArialMT-65" x="433.496094"/>
     </g>
    </g>
   </g>
   <g id="PolyCollection_1">
    <defs>
     <path id="m4c871baec2" d="M 85.236634 -302.713209 
L 85.236634 -302.726322 
L 88.678284 -302.731769 
L 92.119934 -302.739483 
L 95.561585 -302.748837 
L 99.003235 -302.758263 
L 102.444885 -302.765648 
L 105.886535 -302.769252 
L 109.328185 -302.768789 
L 112.769836 -302.766058 
L 116.211486 -302.764777 
L 119.653136 -302.769645 
L 123.094786 -302.78502 
L 126.536436 -302.813645 
L 129.978087 -302.855779 
L 133.419737 -302.90904 
L 136.861387 -302.969171 
L 140.303037 -303.031694 
L 143.744688 -303.094007 
L 147.186338 -303.157167 
L 150.627988 -303.226537 
L 154.069638 -303.310801 
L 157.511288 -303.419483 
L 160.952939 -303.559977 
L 164.394589 -303.735718 
L 167.836239 -303.946711 
L 171.277889 -304.192128 
L 174.719539 -304.472844 
L 178.16119 -304.791306 
L 181.60284 -305.14799 
L 185.04449 -305.536675 
L 188.48614 -305.94242 
L 191.927791 -306.344771 
L 195.369441 -306.725251 
L 198.811091 -307.075104 
L 202.252741 -307.398933 
L 205.694391 -307.712218 
L 209.136042 -308.034351 
L 212.577692 -308.381274 
L 216.019342 -308.761734 
L 219.460992 -309.178504 
L 222.902642 -309.632451 
L 226.344293 -310.125242 
L 229.785943 -310.657338 
L 233.227593 -311.221197 
L 236.669243 -311.793656 
L 240.110894 -312.333618 
L 243.552544 -312.789762 
L 246.994194 -313.117851 
L 250.435844 -313.300859 
L 253.877494 -313.361429 
L 257.319145 -313.357889 
L 260.760795 -313.362302 
L 264.202445 -313.428637 
L 267.644095 -313.566322 
L 271.085745 -313.733865 
L 274.527396 -313.857166 
L 277.969046 -313.86263 
L 281.410696 -313.706462 
L 284.852346 -313.385431 
L 288.293997 -312.927694 
L 291.735647 -312.373869 
L 295.177297 -311.760541 
L 298.618947 -311.112336 
L 302.060597 -310.441875 
L 305.502248 -309.754199 
L 308.943898 -309.052587 
L 312.385548 -308.343489 
L 315.827198 -307.638794 
L 319.268848 -306.954839 
L 322.710499 -306.309311 
L 326.152149 -305.717962 
L 329.593799 -305.192295 
L 333.035449 -304.738274 
L 336.477099 -304.355896 
L 339.91875 -304.039929 
L 343.3604 -303.782085 
L 346.80205 -303.573938 
L 350.2437 -303.408981 
L 353.685351 -303.282503 
L 357.127001 -303.189536 
L 360.568651 -303.122779 
L 364.010301 -303.072571 
L 367.451951 -303.029295 
L 370.893602 -302.986499 
L 374.335252 -302.942434 
L 377.776902 -302.899124 
L 381.218552 -302.86001 
L 384.660202 -302.827928 
L 388.101853 -302.804271 
L 391.543503 -302.789014 
L 394.985153 -302.780898 
L 398.426803 -302.77756 
L 401.868454 -302.775942 
L 405.310104 -302.773165 
L 408.751754 -302.767541 
L 412.193404 -302.759077 
L 415.635054 -302.749148 
L 419.076705 -302.73959 
L 422.518355 -302.731801 
L 425.960005 -302.726331 
L 425.960005 -302.7132 
L 425.960005 -302.7132 
L 422.518355 -302.70773 
L 419.076705 -302.699942 
L 415.635054 -302.690383 
L 412.193404 -302.680454 
L 408.751754 -302.67199 
L 405.310104 -302.666366 
L 401.868454 -302.663589 
L 398.426803 -302.661971 
L 394.985153 -302.658633 
L 391.543503 -302.650517 
L 388.101853 -302.635261 
L 384.660202 -302.611603 
L 381.218552 -302.579521 
L 377.776902 -302.540408 
L 374.335252 -302.497097 
L 370.893602 -302.453032 
L 367.451951 -302.410236 
L 364.010301 -302.36696 
L 360.568651 -302.316752 
L 357.127001 -302.249995 
L 353.685351 -302.157028 
L 350.2437 -302.03055 
L 346.80205 -301.865594 
L 343.3604 -301.657447 
L 339.91875 -301.399602 
L 336.477099 -301.083635 
L 333.035449 -300.701257 
L 329.593799 -300.247237 
L 326.152149 -299.721569 
L 322.710499 -299.13022 
L 319.268848 -298.484692 
L 315.827198 -297.800737 
L 312.385548 -297.096042 
L 308.943898 -296.386944 
L 305.502248 -295.685332 
L 302.060597 -294.997656 
L 298.618947 -294.327196 
L 295.177297 -293.67899 
L 291.735647 -293.065662 
L 288.293997 -292.511837 
L 284.852346 -292.0541 
L 281.410696 -291.733069 
L 277.969046 -291.576901 
L 274.527396 -291.582366 
L 271.085745 -291.705666 
L 267.644095 -291.873209 
L 264.202445 -292.010894 
L 260.760795 -292.077229 
L 257.319145 -292.081642 
L 253.877494 -292.078102 
L 250.435844 -292.138672 
L 246.994194 -292.321681 
L 243.552544 -292.649769 
L 240.110894 -293.105913 
L 236.669243 -293.645876 
L 233.227593 -294.218335 
L 229.785943 -294.782194 
L 226.344293 -295.314289 
L 222.902642 -295.807081 
L 219.460992 -296.261027 
L 216.019342 -296.677798 
L 212.577692 -297.058257 
L 209.136042 -297.40518 
L 205.694391 -297.727313 
L 202.252741 -298.040598 
L 198.811091 -298.364427 
L 195.369441 -298.714281 
L 191.927791 -299.09476 
L 188.48614 -299.497112 
L 185.04449 -299.902856 
L 181.60284 -300.291542 
L 178.16119 -300.648225 
L 174.719539 -300.966687 
L 171.277889 -301.247403 
L 167.836239 -301.492821 
L 164.394589 -301.703813 
L 160.952939 -301.879554 
L 157.511288 -302.020049 
L 154.069638 -302.12873 
L 150.627988 -302.212995 
L 147.186338 -302.282365 
L 143.744688 -302.345524 
L 140.303037 -302.407838 
L 136.861387 -302.47036 
L 133.419737 -302.530491 
L 129.978087 -302.583752 
L 126.536436 -302.625887 
L 123.094786 -302.654512 
L 119.653136 -302.669887 
L 116.211486 -302.674755 
L 112.769836 -302.673474 
L 109.328185 -302.670743 
L 105.886535 -302.670279 
L 102.444885 -302.673883 
L 99.003235 -302.681268 
L 95.561585 -302.690694 
L 92.119934 -302.700048 
L 88.678284 -302.707762 
L 85.236634 -302.713209 
z
" style="stroke: #262626; stroke-width: 1.25"/>
    </defs>
    <g clip-path="url(#pa7067bfb8c)">
     <use xlink:href="#m4c871baec2" x="0" y="345.6" style="fill: #701070; stroke: #262626; stroke-width: 1.25"/>
    </g>
   </g>
   <g id="PolyCollection_2">
    <defs>
     <path id="m2c858a58a7" d="M 115.273814 -267.942552 
L 115.273814 -267.961042 
L 118.334387 -267.969132 
L 121.394959 -267.981652 
L 124.455532 -267.999188 
L 127.516105 -268.021418 
L 130.576677 -268.046883 
L 133.63725 -268.073156 
L 136.697822 -268.09744 
L 139.758395 -268.117439 
L 142.818968 -268.132185 
L 145.87954 -268.142411 
L 148.940113 -268.150186 
L 152.000685 -268.157864 
L 155.061258 -268.166886 
L 158.121831 -268.177149 
L 161.182403 -268.187415 
L 164.242976 -268.196542 
L 167.303548 -268.20477 
L 170.364121 -268.214211 
L 173.424694 -268.228091 
L 176.485266 -268.249096 
L 179.545839 -268.277811 
L 182.606411 -268.312389 
L 185.666984 -268.34988 
L 188.727557 -268.388556 
L 191.788129 -268.429796 
L 194.848702 -268.478349 
L 197.909274 -268.540913 
L 200.969847 -268.624066 
L 204.03042 -268.732854 
L 207.090992 -268.870696 
L 210.151565 -269.040285 
L 213.212137 -269.24455 
L 216.27271 -269.486949 
L 219.333283 -269.771026 
L 222.393855 -270.099843 
L 225.454428 -270.475769 
L 228.515 -270.900367 
L 231.575573 -271.3733 
L 234.636146 -271.889542 
L 237.696718 -272.43598 
L 240.757291 -272.990432 
L 243.817863 -273.525945 
L 246.878436 -274.020122 
L 249.939009 -274.46517 
L 252.999581 -274.872904 
L 256.060154 -275.271519 
L 259.120727 -275.695609 
L 262.181299 -276.174169 
L 265.241872 -276.721403 
L 268.302444 -277.332988 
L 271.363017 -277.987856 
L 274.42359 -278.653614 
L 277.484162 -279.292992 
L 280.544735 -279.86913 
L 283.605307 -280.349197 
L 286.66588 -280.707615 
L 289.726453 -280.930163 
L 292.787025 -281.017933 
L 295.847598 -280.987537 
L 298.90817 -280.864608 
L 301.968743 -280.672172 
L 305.029316 -280.420403 
L 308.089888 -280.10455 
L 311.150461 -279.712558 
L 314.211033 -279.237214 
L 317.271606 -278.684973 
L 320.332179 -278.076497 
L 323.392751 -277.439506 
L 326.453324 -276.798587 
L 329.513896 -276.16736 
L 332.574469 -275.546538 
L 335.635042 -274.928396 
L 338.695614 -274.304981 
L 341.756187 -273.675357 
L 344.816759 -273.04766 
L 347.877332 -272.435244 
L 350.937905 -271.850287 
L 353.998477 -271.299715 
L 357.05905 -270.785818 
L 360.119622 -270.309914 
L 363.180195 -269.875378 
L 366.240768 -269.48771 
L 369.30134 -269.152195 
L 372.361913 -268.871388 
L 375.422485 -268.644094 
L 378.483058 -268.465966 
L 381.543631 -268.330795 
L 384.604203 -268.23163 
L 387.664776 -268.161378 
L 390.725348 -268.113051 
L 393.785921 -268.079976 
L 396.846494 -268.056205 
L 399.907066 -268.037111 
L 402.967639 -268.019893 
L 406.028212 -268.003623 
L 409.088784 -267.988728 
L 412.149357 -267.976134 
L 415.209929 -267.966512 
L 418.270502 -267.959919 
L 418.270502 -267.943675 
L 418.270502 -267.943675 
L 415.209929 -267.937082 
L 412.149357 -267.927459 
L 409.088784 -267.914866 
L 406.028212 -267.89997 
L 402.967639 -267.8837 
L 399.907066 -267.866483 
L 396.846494 -267.847389 
L 393.785921 -267.823618 
L 390.725348 -267.790542 
L 387.664776 -267.742215 
L 384.604203 -267.671964 
L 381.543631 -267.572799 
L 378.483058 -267.437628 
L 375.422485 -267.2595 
L 372.361913 -267.032206 
L 369.30134 -266.751399 
L 366.240768 -266.415884 
L 363.180195 -266.028215 
L 360.119622 -265.59368 
L 357.05905 -265.117776 
L 353.998477 -264.603879 
L 350.937905 -264.053307 
L 347.877332 -263.46835 
L 344.816759 -262.855934 
L 341.756187 -262.228237 
L 338.695614 -261.598612 
L 335.635042 -260.975198 
L 332.574469 -260.357055 
L 329.513896 -259.736234 
L 326.453324 -259.105007 
L 323.392751 -258.464088 
L 320.332179 -257.827097 
L 317.271606 -257.21862 
L 314.211033 -256.66638 
L 311.150461 -256.191036 
L 308.089888 -255.799044 
L 305.029316 -255.483191 
L 301.968743 -255.231422 
L 298.90817 -255.038985 
L 295.847598 -254.916056 
L 292.787025 -254.885661 
L 289.726453 -254.97343 
L 286.66588 -255.195979 
L 283.605307 -255.554397 
L 280.544735 -256.034464 
L 277.484162 -256.610601 
L 274.42359 -257.24998 
L 271.363017 -257.915738 
L 268.302444 -258.570605 
L 265.241872 -259.182191 
L 262.181299 -259.729424 
L 259.120727 -260.207985 
L 256.060154 -260.632075 
L 252.999581 -261.03069 
L 249.939009 -261.438424 
L 246.878436 -261.883472 
L 243.817863 -262.377649 
L 240.757291 -262.913162 
L 237.696718 -263.467613 
L 234.636146 -264.014052 
L 231.575573 -264.530294 
L 228.515 -265.003227 
L 225.454428 -265.427825 
L 222.393855 -265.803751 
L 219.333283 -266.132568 
L 216.27271 -266.416645 
L 213.212137 -266.659043 
L 210.151565 -266.863309 
L 207.090992 -267.032898 
L 204.03042 -267.17074 
L 200.969847 -267.279528 
L 197.909274 -267.362681 
L 194.848702 -267.425245 
L 191.788129 -267.473798 
L 188.727557 -267.515037 
L 185.666984 -267.553714 
L 182.606411 -267.591205 
L 179.545839 -267.625783 
L 176.485266 -267.654498 
L 173.424694 -267.675502 
L 170.364121 -267.689383 
L 167.303548 -267.698824 
L 164.242976 -267.707052 
L 161.182403 -267.716178 
L 158.121831 -267.726445 
L 155.061258 -267.736708 
L 152.000685 -267.74573 
L 148.940113 -267.753408 
L 145.87954 -267.761183 
L 142.818968 -267.771409 
L 139.758395 -267.786155 
L 136.697822 -267.806154 
L 133.63725 -267.830438 
L 130.576677 -267.856711 
L 127.516105 -267.882175 
L 124.455532 -267.904405 
L 121.394959 -267.921942 
L 118.334387 -267.934462 
L 115.273814 -267.942552 
z
" style="stroke: #262626; stroke-width: 1.25"/>
    </defs>
    <g clip-path="url(#pa7067bfb8c)">
     <use xlink:href="#m2c858a58a7" x="0" y="345.6" style="fill: #701070; stroke: #262626; stroke-width: 1.25"/>
    </g>
   </g>
   <g id="PolyCollection_3">
    <defs>
     <path id="m0f24d09ac4" d="M 136.319715 -233.178102 
L 136.319715 -233.189554 
L 139.368791 -233.194271 
L 142.417867 -233.201192 
L 145.466943 -233.210325 
L 148.516019 -233.221345 
L 151.565096 -233.233925 
L 154.614172 -233.248281 
L 157.663248 -233.265524 
L 160.712324 -233.287379 
L 163.7614 -233.315217 
L 166.810476 -233.348894 
L 169.859552 -233.38628 
L 172.908629 -233.424102 
L 175.957705 -233.459991 
L 179.006781 -233.494805 
L 182.055857 -233.533913 
L 185.104933 -233.586409 
L 188.154009 -233.662165 
L 191.203085 -233.76781 
L 194.252162 -233.903539 
L 197.301238 -234.062615 
L 200.350314 -234.234301 
L 203.39939 -234.409237 
L 206.448466 -234.584716 
L 209.497542 -234.767021 
L 212.546619 -234.969233 
L 215.595695 -235.205396 
L 218.644771 -235.484024 
L 221.693847 -235.804375 
L 224.742923 -236.157399 
L 227.791999 -236.530805 
L 230.841075 -236.915716 
L 233.890152 -237.311785 
L 236.939228 -237.728378 
L 239.988304 -238.181074 
L 243.03738 -238.684729 
L 246.086456 -239.24579 
L 249.135532 -239.856711 
L 252.184608 -240.494493 
L 255.233685 -241.12427 
L 258.282761 -241.707716 
L 261.331837 -242.214179 
L 264.380913 -242.630214 
L 267.429989 -242.962582 
L 270.479065 -243.232719 
L 273.528141 -243.465583 
L 276.577218 -243.678982 
L 279.626294 -243.878663 
L 282.67537 -244.06087 
L 285.724446 -244.220129 
L 288.773522 -244.357152 
L 291.822598 -244.480779 
L 294.871675 -244.600634 
L 297.920751 -244.713685 
L 300.969827 -244.79424 
L 304.018903 -244.79688 
L 307.067979 -244.673621 
L 310.117055 -244.396015 
L 313.166131 -243.968822 
L 316.215208 -243.427684 
L 319.264284 -242.823738 
L 322.31336 -242.204995 
L 325.362436 -241.603649 
L 328.411512 -241.032939 
L 331.460588 -240.491876 
L 334.509664 -239.973785 
L 337.558741 -239.474548 
L 340.607817 -238.997296 
L 343.656893 -238.551457 
L 346.705969 -238.146239 
L 349.755045 -237.781713 
L 352.804121 -237.443132 
L 355.853198 -237.10353 
L 358.902274 -236.735023 
L 361.95135 -236.323121 
L 365.000426 -235.875378 
L 368.049502 -235.418867 
L 371.098578 -234.988135 
L 374.147654 -234.611138 
L 377.196731 -234.30083 
L 380.245807 -234.055306 
L 383.294883 -233.863881 
L 386.343959 -233.714087 
L 389.393035 -233.59595 
L 392.442111 -233.502842 
L 395.491187 -233.430363 
L 398.540264 -233.375018 
L 401.58934 -233.333613 
L 404.638416 -233.30326 
L 407.687492 -233.281488 
L 410.736568 -233.266135 
L 413.785644 -233.255098 
L 416.83472 -233.246272 
L 419.883797 -233.237849 
L 422.932873 -233.228784 
L 425.981949 -233.21904 
L 429.031025 -233.209385 
L 432.080101 -233.200843 
L 435.129177 -233.194154 
L 438.178254 -233.189518 
L 438.178254 -233.178138 
L 438.178254 -233.178138 
L 435.129177 -233.173503 
L 432.080101 -233.166813 
L 429.031025 -233.158271 
L 425.981949 -233.148616 
L 422.932873 -233.138872 
L 419.883797 -233.129807 
L 416.83472 -233.121384 
L 413.785644 -233.112558 
L 410.736568 -233.101521 
L 407.687492 -233.086168 
L 404.638416 -233.064396 
L 401.58934 -233.034043 
L 398.540264 -232.992638 
L 395.491187 -232.937294 
L 392.442111 -232.864814 
L 389.393035 -232.771706 
L 386.343959 -232.65357 
L 383.294883 -232.503776 
L 380.245807 -232.31235 
L 377.196731 -232.066827 
L 374.147654 -231.756519 
L 371.098578 -231.379521 
L 368.049502 -230.948789 
L 365.000426 -230.492278 
L 361.95135 -230.044536 
L 358.902274 -229.632633 
L 355.853198 -229.264126 
L 352.804121 -228.924524 
L 349.755045 -228.585943 
L 346.705969 -228.221417 
L 343.656893 -227.816199 
L 340.607817 -227.37036 
L 337.558741 -226.893109 
L 334.509664 -226.393872 
L 331.460588 -225.87578 
L 328.411512 -225.334718 
L 325.362436 -224.764007 
L 322.31336 -224.162662 
L 319.264284 -223.543918 
L 316.215208 -222.939972 
L 313.166131 -222.398834 
L 310.117055 -221.971641 
L 307.067979 -221.694035 
L 304.018903 -221.570776 
L 300.969827 -221.573416 
L 297.920751 -221.653971 
L 294.871675 -221.767022 
L 291.822598 -221.886877 
L 288.773522 -222.010504 
L 285.724446 -222.147528 
L 282.67537 -222.306787 
L 279.626294 -222.488993 
L 276.577218 -222.688675 
L 273.528141 -222.902073 
L 270.479065 -223.134937 
L 267.429989 -223.405074 
L 264.380913 -223.737442 
L 261.331837 -224.153477 
L 258.282761 -224.65994 
L 255.233685 -225.243386 
L 252.184608 -225.873163 
L 249.135532 -226.510945 
L 246.086456 -227.121866 
L 243.03738 -227.682927 
L 239.988304 -228.186582 
L 236.939228 -228.639278 
L 233.890152 -229.055872 
L 230.841075 -229.451941 
L 227.791999 -229.836851 
L 224.742923 -230.210258 
L 221.693847 -230.563282 
L 218.644771 -230.883632 
L 215.595695 -231.16226 
L 212.546619 -231.398424 
L 209.497542 -231.600635 
L 206.448466 -231.78294 
L 203.39939 -231.95842 
L 200.350314 -232.133355 
L 197.301238 -232.305041 
L 194.252162 -232.464117 
L 191.203085 -232.599846 
L 188.154009 -232.705491 
L 185.104933 -232.781248 
L 182.055857 -232.833743 
L 179.006781 -232.872851 
L 175.957705 -232.907665 
L 172.908629 -232.943554 
L 169.859552 -232.981377 
L 166.810476 -233.018763 
L 163.7614 -233.052439 
L 160.712324 -233.080277 
L 157.663248 -233.102133 
L 154.614172 -233.119375 
L 151.565096 -233.133732 
L 148.516019 -233.146311 
L 145.466943 -233.157331 
L 142.417867 -233.166464 
L 139.368791 -233.173385 
L 136.319715 -233.178102 
z
" style="stroke: #262626; stroke-width: 1.25"/>
    </defs>
    <g clip-path="url(#pa7067bfb8c)">
     <use xlink:href="#m0f24d09ac4" x="0" y="345.6" style="fill: #701070; stroke: #262626; stroke-width: 1.25"/>
    </g>
   </g>
   <g id="PolyCollection_4">
    <defs>
     <path id="me307db32ce" d="M 118.386304 -198.412772 
L 118.386304 -198.418947 
L 121.579858 -198.42276 
L 124.773412 -198.428421 
L 127.966966 -198.43451 
L 131.16052 -198.438571 
L 134.354074 -198.439033 
L 137.547628 -198.437236 
L 140.741181 -198.437427 
L 143.934735 -198.444255 
L 147.128289 -198.459377 
L 150.321843 -198.479604 
L 153.515397 -198.498444 
L 156.708951 -198.510522 
L 159.902504 -198.515414 
L 163.096058 -198.517724 
L 166.289612 -198.523578 
L 169.483166 -198.536033 
L 172.67672 -198.552336 
L 175.870274 -198.565927 
L 179.063827 -198.572892 
L 182.257381 -198.577007 
L 185.450935 -198.587806 
L 188.644489 -198.613776 
L 191.838043 -198.657684 
L 195.031597 -198.716953 
L 198.22515 -198.786398 
L 201.418704 -198.860861 
L 204.612258 -198.938095 
L 207.805812 -199.021665 
L 210.999366 -199.120192 
L 214.19292 -199.240173 
L 217.386473 -199.379174 
L 220.580027 -199.531216 
L 223.773581 -199.70108 
L 226.967135 -199.908047 
L 230.160689 -200.173775 
L 233.354243 -200.513891 
L 236.547796 -200.942734 
L 239.74135 -201.470731 
L 242.934904 -202.082704 
L 246.128458 -202.726013 
L 249.322012 -203.338289 
L 252.515566 -203.892741 
L 255.70912 -204.411315 
L 258.902673 -204.936676 
L 262.096227 -205.502856 
L 265.289781 -206.131224 
L 268.483335 -206.832967 
L 271.676889 -207.598973 
L 274.870443 -208.395112 
L 278.063996 -209.181228 
L 281.25755 -209.931635 
L 284.451104 -210.627628 
L 287.644658 -211.236092 
L 290.838212 -211.713046 
L 294.031766 -212.035773 
L 297.225319 -212.22299 
L 300.418873 -212.313236 
L 303.612427 -212.323047 
L 306.805981 -212.228897 
L 309.999535 -211.987784 
L 313.193089 -211.57614 
L 316.386642 -211.01839 
L 319.580196 -210.384679 
L 322.77375 -209.753647 
L 325.967304 -209.162041 
L 329.160858 -208.579024 
L 332.354412 -207.926664 
L 335.547965 -207.13353 
L 338.741519 -206.189212 
L 341.935073 -205.168529 
L 345.128627 -204.203346 
L 348.322181 -203.407273 
L 351.515735 -202.803556 
L 354.709288 -202.318346 
L 357.902842 -201.845738 
L 361.096396 -201.324264 
L 364.28995 -200.7652 
L 367.483504 -200.227932 
L 370.677058 -199.775756 
L 373.870612 -199.442081 
L 377.064165 -199.219577 
L 380.257719 -199.072616 
L 383.451273 -198.962796 
L 386.644827 -198.869082 
L 389.838381 -198.78867 
L 393.031935 -198.723025 
L 396.225488 -198.6671 
L 399.419042 -198.61251 
L 402.612596 -198.556982 
L 405.80615 -198.506732 
L 408.999704 -198.469935 
L 412.193258 -198.449652 
L 415.386811 -198.442304 
L 418.580365 -198.440843 
L 421.773919 -198.439121 
L 424.967473 -198.43465 
L 428.161027 -198.42845 
L 431.354581 -198.422765 
L 434.548134 -198.418948 
L 434.548134 -198.412771 
L 434.548134 -198.412771 
L 431.354581 -198.408954 
L 428.161027 -198.403268 
L 424.967473 -198.397068 
L 421.773919 -198.392598 
L 418.580365 -198.390876 
L 415.386811 -198.389415 
L 412.193258 -198.382066 
L 408.999704 -198.361784 
L 405.80615 -198.324986 
L 402.612596 -198.274736 
L 399.419042 -198.219208 
L 396.225488 -198.164619 
L 393.031935 -198.108693 
L 389.838381 -198.043049 
L 386.644827 -197.962637 
L 383.451273 -197.868922 
L 380.257719 -197.759103 
L 377.064165 -197.612141 
L 373.870612 -197.389638 
L 370.677058 -197.055963 
L 367.483504 -196.603786 
L 364.28995 -196.066518 
L 361.096396 -195.507455 
L 357.902842 -194.98598 
L 354.709288 -194.513372 
L 351.515735 -194.028163 
L 348.322181 -193.424445 
L 345.128627 -192.628373 
L 341.935073 -191.663189 
L 338.741519 -190.642506 
L 335.547965 -189.698188 
L 332.354412 -188.905054 
L 329.160858 -188.252695 
L 325.967304 -187.669678 
L 322.77375 -187.078072 
L 319.580196 -186.44704 
L 316.386642 -185.813329 
L 313.193089 -185.255579 
L 309.999535 -184.843934 
L 306.805981 -184.602822 
L 303.612427 -184.508672 
L 300.418873 -184.518483 
L 297.225319 -184.608729 
L 294.031766 -184.795946 
L 290.838212 -185.118673 
L 287.644658 -185.595627 
L 284.451104 -186.204091 
L 281.25755 -186.900083 
L 278.063996 -187.650491 
L 274.870443 -188.436606 
L 271.676889 -189.232746 
L 268.483335 -189.998751 
L 265.289781 -190.700495 
L 262.096227 -191.328863 
L 258.902673 -191.895043 
L 255.70912 -192.420404 
L 252.515566 -192.938978 
L 249.322012 -193.493429 
L 246.128458 -194.105706 
L 242.934904 -194.749015 
L 239.74135 -195.360987 
L 236.547796 -195.888984 
L 233.354243 -196.317828 
L 230.160689 -196.657944 
L 226.967135 -196.923672 
L 223.773581 -197.130639 
L 220.580027 -197.300502 
L 217.386473 -197.452545 
L 214.19292 -197.591546 
L 210.999366 -197.711527 
L 207.805812 -197.810053 
L 204.612258 -197.893624 
L 201.418704 -197.970858 
L 198.22515 -198.045321 
L 195.031597 -198.114766 
L 191.838043 -198.174035 
L 188.644489 -198.217943 
L 185.450935 -198.243913 
L 182.257381 -198.254712 
L 179.063827 -198.258827 
L 175.870274 -198.265792 
L 172.67672 -198.279383 
L 169.483166 -198.295686 
L 166.289612 -198.308141 
L 163.096058 -198.313995 
L 159.902504 -198.316304 
L 156.708951 -198.321197 
L 153.515397 -198.333274 
L 150.321843 -198.352115 
L 147.128289 -198.372341 
L 143.934735 -198.387463 
L 140.741181 -198.394292 
L 137.547628 -198.394483 
L 134.354074 -198.392686 
L 131.16052 -198.393147 
L 127.966966 -198.397208 
L 124.773412 -198.403298 
L 121.579858 -198.408959 
L 118.386304 -198.412772 
z
" style="stroke: #262626; stroke-width: 1.25"/>
    </defs>
    <g clip-path="url(#pa7067bfb8c)">
     <use xlink:href="#me307db32ce" x="0" y="345.6" style="fill: #701070; stroke: #262626; stroke-width: 1.25"/>
    </g>
   </g>
   <g id="PolyCollection_5">
    <defs>
     <path id="m4d95315a49" d="M 37.160393 -163.636056 
L 37.160393 -163.659726 
L 41.628575 -163.667682 
L 46.096757 -163.678557 
L 50.564939 -163.691919 
L 55.03312 -163.706461 
L 59.501302 -163.720084 
L 63.969484 -163.730343 
L 68.437666 -163.735146 
L 72.905848 -163.73345 
L 77.37403 -163.725636 
L 81.842212 -163.713375 
L 86.310394 -163.699079 
L 90.778576 -163.685196 
L 95.246758 -163.673681 
L 99.71494 -163.665853 
L 104.183122 -163.662625 
L 108.651304 -163.664947 
L 113.119486 -163.674185 
L 117.587668 -163.692201 
L 122.05585 -163.720975 
L 126.524031 -163.761818 
L 130.992213 -163.814442 
L 135.460395 -163.876357 
L 139.928577 -163.943041 
L 144.396759 -164.009044 
L 148.864941 -164.069693 
L 153.333123 -164.122646 
L 157.801305 -164.168575 
L 162.269487 -164.210694 
L 166.737669 -164.253502 
L 171.205851 -164.301478 
L 175.674033 -164.358337 
L 180.142215 -164.42695 
L 184.610397 -164.509564 
L 189.078579 -164.607882 
L 193.546761 -164.72288 
L 198.014942 -164.854612 
L 202.483124 -165.002443 
L 206.951306 -165.165906 
L 211.419488 -165.345911 
L 215.88767 -165.545649 
L 220.355852 -165.770515 
L 224.824034 -166.026802 
L 229.292216 -166.319648 
L 233.760398 -166.651287 
L 238.22858 -167.020686 
L 242.696762 -167.424957 
L 247.164944 -167.861885 
L 251.633126 -168.332023 
L 256.101308 -168.838675 
L 260.56949 -169.384996 
L 265.037671 -169.96892 
L 269.505853 -170.578196 
L 273.974035 -171.188305 
L 278.442217 -171.765167 
L 282.910399 -172.272284 
L 287.378581 -172.679636 
L 291.846763 -172.970568 
L 296.314945 -173.143997 
L 300.783127 -173.211784 
L 305.251309 -173.193405 
L 309.719491 -173.110589 
L 314.187673 -172.983327 
L 318.655855 -172.82694 
L 323.124037 -172.64938 
L 327.592219 -172.448841 
L 332.060401 -172.213047 
L 336.528582 -171.921828 
L 340.996764 -171.553307 
L 345.464946 -171.092148 
L 349.933128 -170.537013 
L 354.40131 -169.90432 
L 358.869492 -169.226562 
L 363.337674 -168.545195 
L 367.805856 -167.900182 
L 372.274038 -167.319855 
L 376.74222 -166.815053 
L 381.210402 -166.379854 
L 385.678584 -165.998246 
L 390.146766 -165.653276 
L 394.614948 -165.334323 
L 399.08313 -165.039691 
L 403.551312 -164.774492 
L 408.019493 -164.54607 
L 412.487675 -164.359734 
L 416.955857 -164.216491 
L 421.424039 -164.112916 
L 425.892221 -164.042284 
L 430.360403 -163.996023 
L 434.828585 -163.965027 
L 439.296767 -163.940796 
L 443.764949 -163.916509 
L 448.233131 -163.887927 
L 452.701313 -163.853829 
L 457.169495 -163.815725 
L 461.637677 -163.776858 
L 466.105859 -163.740856 
L 470.574041 -163.710534 
L 475.042223 -163.687253 
L 479.510404 -163.670916 
L 479.510404 -163.624865 
L 479.510404 -163.624865 
L 475.042223 -163.608528 
L 470.574041 -163.585247 
L 466.105859 -163.554925 
L 461.637677 -163.518923 
L 457.169495 -163.480056 
L 452.701313 -163.441952 
L 448.233131 -163.407854 
L 443.764949 -163.379272 
L 439.296767 -163.354985 
L 434.828585 -163.330754 
L 430.360403 -163.299758 
L 425.892221 -163.253498 
L 421.424039 -163.182865 
L 416.955857 -163.07929 
L 412.487675 -162.936048 
L 408.019493 -162.749711 
L 403.551312 -162.52129 
L 399.08313 -162.256091 
L 394.614948 -161.961459 
L 390.146766 -161.642505 
L 385.678584 -161.297535 
L 381.210402 -160.915927 
L 376.74222 -160.480728 
L 372.274038 -159.975926 
L 367.805856 -159.3956 
L 363.337674 -158.750586 
L 358.869492 -158.069219 
L 354.40131 -157.391462 
L 349.933128 -156.758769 
L 345.464946 -156.203633 
L 340.996764 -155.742475 
L 336.528582 -155.373953 
L 332.060401 -155.082734 
L 327.592219 -154.846941 
L 323.124037 -154.646401 
L 318.655855 -154.468842 
L 314.187673 -154.312454 
L 309.719491 -154.185192 
L 305.251309 -154.102376 
L 300.783127 -154.083997 
L 296.314945 -154.151785 
L 291.846763 -154.325214 
L 287.378581 -154.616145 
L 282.910399 -155.023497 
L 278.442217 -155.530615 
L 273.974035 -156.107476 
L 269.505853 -156.717585 
L 265.037671 -157.326861 
L 260.56949 -157.910786 
L 256.101308 -158.457106 
L 251.633126 -158.963758 
L 247.164944 -159.433896 
L 242.696762 -159.870825 
L 238.22858 -160.275096 
L 233.760398 -160.644495 
L 229.292216 -160.976134 
L 224.824034 -161.268979 
L 220.355852 -161.525266 
L 215.88767 -161.750132 
L 211.419488 -161.94987 
L 206.951306 -162.129875 
L 202.483124 -162.293338 
L 198.014942 -162.441169 
L 193.546761 -162.572901 
L 189.078579 -162.687899 
L 184.610397 -162.786218 
L 180.142215 -162.868831 
L 175.674033 -162.937444 
L 171.205851 -162.994303 
L 166.737669 -163.042279 
L 162.269487 -163.085087 
L 157.801305 -163.127206 
L 153.333123 -163.173135 
L 148.864941 -163.226088 
L 144.396759 -163.286737 
L 139.928577 -163.35274 
L 135.460395 -163.419424 
L 130.992213 -163.481339 
L 126.524031 -163.533964 
L 122.05585 -163.574806 
L 117.587668 -163.60358 
L 113.119486 -163.621596 
L 108.651304 -163.630834 
L 104.183122 -163.633156 
L 99.71494 -163.629928 
L 95.246758 -163.6221 
L 90.778576 -163.610585 
L 86.310394 -163.596703 
L 81.842212 -163.582407 
L 77.37403 -163.570146 
L 72.905848 -163.562331 
L 68.437666 -163.560635 
L 63.969484 -163.565438 
L 59.501302 -163.575697 
L 55.03312 -163.589321 
L 50.564939 -163.603863 
L 46.096757 -163.617224 
L 41.628575 -163.628099 
L 37.160393 -163.636056 
z
" style="stroke: #262626; stroke-width: 1.25"/>
    </defs>
    <g clip-path="url(#pa7067bfb8c)">
     <use xlink:href="#m4d95315a49" x="0" y="345.6" style="fill: #701070; stroke: #262626; stroke-width: 1.25"/>
    </g>
   </g>
   <g id="PolyCollection_6">
    <defs>
     <path id="maae8179629" d="M 112.07711 -128.875811 
L 112.07711 -128.884032 
L 115.641495 -128.887702 
L 119.205881 -128.892958 
L 122.770266 -128.899264 
L 126.334652 -128.905367 
L 129.899037 -128.909708 
L 133.463423 -128.911273 
L 137.027808 -128.910465 
L 140.592194 -128.909455 
L 144.156579 -128.911721 
L 147.720965 -128.920875 
L 151.28535 -128.939108 
L 154.849736 -128.965766 
L 158.414121 -128.99678 
L 161.978507 -129.025647 
L 165.542892 -129.046028 
L 169.107278 -129.054797 
L 172.671664 -129.053714 
L 176.236049 -129.048485 
L 179.800435 -129.045773 
L 183.36482 -129.050038 
L 186.929206 -129.062052 
L 190.493591 -129.079605 
L 194.057977 -129.099572 
L 197.622362 -129.120036 
L 201.186748 -129.141625 
L 204.751133 -129.167918 
L 208.315519 -129.20519 
L 211.879904 -129.261761 
L 215.44429 -129.346905 
L 219.008675 -129.469157 
L 222.573061 -129.634293 
L 226.137446 -129.844066 
L 229.701832 -130.096827 
L 233.266217 -130.38956 
L 236.830603 -130.719134 
L 240.394988 -131.081126 
L 243.959374 -131.467407 
L 247.523759 -131.865646 
L 251.088145 -132.262248 
L 254.65253 -132.646987 
L 258.216916 -133.016348 
L 261.781301 -133.374238 
L 265.345687 -133.730477 
L 268.910072 -134.097714 
L 272.474458 -134.487552 
L 276.038843 -134.90762 
L 279.603229 -135.36135 
L 283.167614 -135.849532 
L 286.732 -136.369896 
L 290.296385 -136.91212 
L 293.860771 -137.451276 
L 297.425156 -137.947137 
L 300.989542 -138.354639 
L 304.553927 -138.642596 
L 308.118313 -138.810247 
L 311.682698 -138.890314 
L 315.247084 -138.934152 
L 318.811469 -138.98542 
L 322.375855 -139.057149 
L 325.94024 -139.126611 
L 329.504626 -139.151067 
L 333.069011 -139.093119 
L 336.633397 -138.938839 
L 340.197783 -138.699676 
L 343.762168 -138.401691 
L 347.326554 -138.071653 
L 350.890939 -137.726761 
L 354.455325 -137.369997 
L 358.01971 -136.991314 
L 361.584096 -136.574585 
L 365.148481 -136.107939 
L 368.712867 -135.592109 
L 372.277252 -135.04154 
L 375.841638 -134.477944 
L 379.406023 -133.921513 
L 382.970409 -133.385897 
L 386.534794 -132.878701 
L 390.09918 -132.404402 
L 393.663565 -131.966078 
L 397.227951 -131.565286 
L 400.792336 -131.201648 
L 404.356722 -130.873187 
L 407.921107 -130.576986 
L 411.485493 -130.309645 
L 415.049878 -130.067864 
L 418.614264 -129.849625 
L 422.178649 -129.65538 
L 425.743035 -129.487868 
L 429.30742 -129.34998 
L 432.871806 -129.24187 
L 436.436191 -129.159544 
L 440.000577 -129.096073 
L 443.564962 -129.044563 
L 447.129348 -129.000716 
L 450.693733 -128.963389 
L 454.258119 -128.93328 
L 457.822504 -128.911088 
L 461.38689 -128.896417 
L 464.951275 -128.887791 
L 464.951275 -128.872053 
L 464.951275 -128.872053 
L 461.38689 -128.863427 
L 457.822504 -128.848756 
L 454.258119 -128.826564 
L 450.693733 -128.796455 
L 447.129348 -128.759127 
L 443.564962 -128.71528 
L 440.000577 -128.663771 
L 436.436191 -128.600299 
L 432.871806 -128.517973 
L 429.30742 -128.409864 
L 425.743035 -128.271975 
L 422.178649 -128.104464 
L 418.614264 -127.910218 
L 415.049878 -127.691979 
L 411.485493 -127.450199 
L 407.921107 -127.182858 
L 404.356722 -126.886657 
L 400.792336 -126.558196 
L 397.227951 -126.194558 
L 393.663565 -125.793766 
L 390.09918 -125.355442 
L 386.534794 -124.881143 
L 382.970409 -124.373947 
L 379.406023 -123.838331 
L 375.841638 -123.2819 
L 372.277252 -122.718304 
L 368.712867 -122.167735 
L 365.148481 -121.651904 
L 361.584096 -121.185259 
L 358.01971 -120.768529 
L 354.455325 -120.389847 
L 350.890939 -120.033083 
L 347.326554 -119.688191 
L 343.762168 -119.358152 
L 340.197783 -119.060168 
L 336.633397 -118.821005 
L 333.069011 -118.666725 
L 329.504626 -118.608777 
L 325.94024 -118.633233 
L 322.375855 -118.702695 
L 318.811469 -118.774424 
L 315.247084 -118.825692 
L 311.682698 -118.86953 
L 308.118313 -118.949596 
L 304.553927 -119.117247 
L 300.989542 -119.405205 
L 297.425156 -119.812707 
L 293.860771 -120.308568 
L 290.296385 -120.847724 
L 286.732 -121.389948 
L 283.167614 -121.910311 
L 279.603229 -122.398494 
L 276.038843 -122.852223 
L 272.474458 -123.272292 
L 268.910072 -123.662129 
L 265.345687 -124.029367 
L 261.781301 -124.385606 
L 258.216916 -124.743496 
L 254.65253 -125.112857 
L 251.088145 -125.497596 
L 247.523759 -125.894198 
L 243.959374 -126.292436 
L 240.394988 -126.678718 
L 236.830603 -127.040709 
L 233.266217 -127.370284 
L 229.701832 -127.663016 
L 226.137446 -127.915778 
L 222.573061 -128.125551 
L 219.008675 -128.290687 
L 215.44429 -128.412939 
L 211.879904 -128.498083 
L 208.315519 -128.554653 
L 204.751133 -128.591925 
L 201.186748 -128.618218 
L 197.622362 -128.639808 
L 194.057977 -128.660272 
L 190.493591 -128.680238 
L 186.929206 -128.697792 
L 183.36482 -128.709805 
L 179.800435 -128.71407 
L 176.236049 -128.711359 
L 172.671664 -128.70613 
L 169.107278 -128.705046 
L 165.542892 -128.713816 
L 161.978507 -128.734196 
L 158.414121 -128.763064 
L 154.849736 -128.794077 
L 151.28535 -128.820736 
L 147.720965 -128.838968 
L 144.156579 -128.848123 
L 140.592194 -128.850389 
L 137.027808 -128.849378 
L 133.463423 -128.84857 
L 129.899037 -128.850135 
L 126.334652 -128.854476 
L 122.770266 -128.86058 
L 119.205881 -128.866886 
L 115.641495 -128.872141 
L 112.07711 -128.875811 
z
" style="stroke: #262626; stroke-width: 1.25"/>
    </defs>
    <g clip-path="url(#pa7067bfb8c)">
     <use xlink:href="#maae8179629" x="0" y="345.6" style="fill: #701070; stroke: #262626; stroke-width: 1.25"/>
    </g>
   </g>
   <g id="PolyCollection_7">
    <defs>
     <path id="mc24b1cfb57" d="M 88.201592 -94.109651 
L 88.201592 -94.114255 
L 92.129292 -94.116915 
L 96.056991 -94.120842 
L 99.984691 -94.125198 
L 103.912391 -94.12841 
L 107.84009 -94.129174 
L 111.76779 -94.127711 
L 115.69549 -94.126146 
L 119.623189 -94.12753 
L 123.550889 -94.133988 
L 127.478589 -94.144976 
L 131.406288 -94.156851 
L 135.333988 -94.164797 
L 139.261688 -94.166415 
L 143.189387 -94.164028 
L 147.117087 -94.16314 
L 151.044787 -94.168245 
L 154.972486 -94.179725 
L 158.900186 -94.193966 
L 162.827886 -94.205537 
L 166.755585 -94.209602 
L 170.683285 -94.204216 
L 174.610985 -94.19243 
L 178.538684 -94.182739 
L 182.466384 -94.186319 
L 186.394084 -94.21179 
L 190.321783 -94.260561 
L 194.249483 -94.325899 
L 198.177183 -94.396793 
L 202.104882 -94.464528 
L 206.032582 -94.52778 
L 209.960282 -94.593036 
L 213.887981 -94.670425 
L 217.815681 -94.768032 
L 221.743381 -94.888932 
L 225.67108 -95.033644 
L 229.59878 -95.205683 
L 233.52648 -95.412905 
L 237.454179 -95.660964 
L 241.381879 -95.946987 
L 245.309579 -96.2644 
L 249.237278 -96.614456 
L 253.164978 -97.00771 
L 257.092678 -97.45123 
L 261.020377 -97.937135 
L 264.948077 -98.445188 
L 268.875777 -98.955049 
L 272.803476 -99.458941 
L 276.731176 -99.969043 
L 280.658876 -100.511301 
L 284.586575 -101.101059 
L 288.514275 -101.716406 
L 292.441975 -102.296171 
L 296.369674 -102.769891 
L 300.297374 -103.097714 
L 304.225074 -103.290187 
L 308.152773 -103.395237 
L 312.080473 -103.465244 
L 316.008173 -103.530058 
L 319.935872 -103.591776 
L 323.863572 -103.637624 
L 327.791272 -103.658103 
L 331.718971 -103.658489 
L 335.646671 -103.653997 
L 339.574371 -103.648706 
L 343.50207 -103.617628 
L 347.42977 -103.515653 
L 351.35747 -103.310234 
L 355.285169 -103.005715 
L 359.212869 -102.634885 
L 363.140569 -102.229161 
L 367.068268 -101.798439 
L 370.995968 -101.335496 
L 374.923668 -100.832843 
L 378.851367 -100.292631 
L 382.779067 -99.723473 
L 386.706767 -99.132914 
L 390.634466 -98.526391 
L 394.562166 -97.914505 
L 398.489866 -97.320436 
L 402.417565 -96.777055 
L 406.345265 -96.312085 
L 410.272965 -95.932672 
L 414.200664 -95.623682 
L 418.128364 -95.361192 
L 422.056064 -95.128112 
L 425.983763 -94.919447 
L 429.911463 -94.737494 
L 433.839163 -94.585354 
L 437.766862 -94.46376 
L 441.694562 -94.370368 
L 445.622262 -94.300158 
L 449.549961 -94.247121 
L 453.477661 -94.206442 
L 457.405361 -94.175322 
L 461.33306 -94.152202 
L 465.26076 -94.135813 
L 469.18846 -94.124898 
L 473.116159 -94.118233 
L 477.043859 -94.114619 
L 477.043859 -94.109288 
L 477.043859 -94.109288 
L 473.116159 -94.105673 
L 469.18846 -94.099008 
L 465.26076 -94.088093 
L 461.33306 -94.071704 
L 457.405361 -94.048584 
L 453.477661 -94.017465 
L 449.549961 -93.976785 
L 445.622262 -93.923749 
L 441.694562 -93.853538 
L 437.766862 -93.760146 
L 433.839163 -93.638552 
L 429.911463 -93.486412 
L 425.983763 -93.304459 
L 422.056064 -93.095795 
L 418.128364 -92.862714 
L 414.200664 -92.600224 
L 410.272965 -92.291234 
L 406.345265 -91.911822 
L 402.417565 -91.446851 
L 398.489866 -90.90347 
L 394.562166 -90.309401 
L 390.634466 -89.697516 
L 386.706767 -89.090992 
L 382.779067 -88.500434 
L 378.851367 -87.931275 
L 374.923668 -87.391063 
L 370.995968 -86.888411 
L 367.068268 -86.425467 
L 363.140569 -85.994746 
L 359.212869 -85.589021 
L 355.285169 -85.218191 
L 351.35747 -84.913672 
L 347.42977 -84.708253 
L 343.50207 -84.606278 
L 339.574371 -84.5752 
L 335.646671 -84.569909 
L 331.718971 -84.565417 
L 327.791272 -84.565803 
L 323.863572 -84.586282 
L 319.935872 -84.63213 
L 316.008173 -84.693848 
L 312.080473 -84.758662 
L 308.152773 -84.82867 
L 304.225074 -84.933719 
L 300.297374 -85.126193 
L 296.369674 -85.454015 
L 292.441975 -85.927735 
L 288.514275 -86.5075 
L 284.586575 -87.122847 
L 280.658876 -87.712605 
L 276.731176 -88.254863 
L 272.803476 -88.764966 
L 268.875777 -89.268857 
L 264.948077 -89.778718 
L 261.020377 -90.286771 
L 257.092678 -90.772676 
L 253.164978 -91.216196 
L 249.237278 -91.60945 
L 245.309579 -91.959506 
L 241.381879 -92.276919 
L 237.454179 -92.562942 
L 233.52648 -92.811001 
L 229.59878 -93.018223 
L 225.67108 -93.190262 
L 221.743381 -93.334974 
L 217.815681 -93.455874 
L 213.887981 -93.553481 
L 209.960282 -93.63087 
L 206.032582 -93.696126 
L 202.104882 -93.759378 
L 198.177183 -93.827114 
L 194.249483 -93.898008 
L 190.321783 -93.963345 
L 186.394084 -94.012116 
L 182.466384 -94.037587 
L 178.538684 -94.041167 
L 174.610985 -94.031476 
L 170.683285 -94.01969 
L 166.755585 -94.014304 
L 162.827886 -94.01837 
L 158.900186 -94.02994 
L 154.972486 -94.044181 
L 151.044787 -94.055661 
L 147.117087 -94.060766 
L 143.189387 -94.059878 
L 139.261688 -94.057491 
L 135.333988 -94.05911 
L 131.406288 -94.067055 
L 127.478589 -94.078931 
L 123.550889 -94.089918 
L 119.623189 -94.096376 
L 115.69549 -94.09776 
L 111.76779 -94.096196 
L 107.84009 -94.094732 
L 103.912391 -94.095496 
L 99.984691 -94.098708 
L 96.056991 -94.103064 
L 92.129292 -94.106991 
L 88.201592 -94.109651 
z
" style="stroke: #262626; stroke-width: 1.25"/>
    </defs>
    <g clip-path="url(#pa7067bfb8c)">
     <use xlink:href="#mc24b1cfb57" x="0" y="345.6" style="fill: #701070; stroke: #262626; stroke-width: 1.25"/>
    </g>
   </g>
   <g id="PolyCollection_8">
    <defs>
     <path id="m1c9178ab48" d="M 130.650191 -59.340714 
L 130.650191 -59.347255 
L 133.885722 -59.351229 
L 137.121254 -59.357118 
L 140.356785 -59.363466 
L 143.592316 -59.367635 
L 146.827848 -59.367501 
L 150.063379 -59.363219 
L 153.298911 -59.35724 
L 156.534442 -59.352656 
L 159.769973 -59.351651 
L 163.005505 -59.35509 
L 166.241036 -59.36275 
L 169.476567 -59.373638 
L 172.712099 -59.386594 
L 175.94763 -59.400981 
L 179.183161 -59.416669 
L 182.418693 -59.433171 
L 185.654224 -59.4489 
L 188.889756 -59.461321 
L 192.125287 -59.468332 
L 195.360818 -59.470523 
L 198.59635 -59.471959 
L 201.831881 -59.47712 
L 205.067412 -59.486502 
L 208.302944 -59.496634 
L 211.538475 -59.504583 
L 214.774006 -59.510365 
L 218.009538 -59.51465 
L 221.245069 -59.517506 
L 224.4806 -59.522201 
L 227.716132 -59.539553 
L 230.951663 -59.587328 
L 234.187195 -59.685473 
L 237.422726 -59.849403 
L 240.658257 -60.080349 
L 243.893789 -60.355768 
L 247.12932 -60.632259 
L 250.364851 -60.869947 
L 253.600383 -61.064643 
L 256.835914 -61.257019 
L 260.071445 -61.504681 
L 263.306977 -61.842253 
L 266.542508 -62.268978 
L 269.778039 -62.771243 
L 273.013571 -63.347085 
L 276.249102 -64.00085 
L 279.484634 -64.716636 
L 282.720165 -65.449882 
L 285.955696 -66.15613 
L 289.191228 -66.824903 
L 292.426759 -67.476012 
L 295.66229 -68.127141 
L 298.897822 -68.778951 
L 302.133353 -69.42998 
L 305.368884 -70.086618 
L 308.604416 -70.746352 
L 311.839947 -71.377964 
L 315.075478 -71.929999 
L 318.31101 -72.362452 
L 321.546541 -72.669637 
L 324.782073 -72.874218 
L 328.017604 -72.998946 
L 331.253135 -73.037041 
L 334.488667 -72.946041 
L 337.724198 -72.679463 
L 340.959729 -72.235771 
L 344.195261 -71.674619 
L 347.430792 -71.074792 
L 350.666323 -70.471593 
L 353.901855 -69.83778 
L 357.137386 -69.126246 
L 360.372917 -68.327733 
L 363.608449 -67.485471 
L 366.84398 -66.658507 
L 370.079512 -65.877249 
L 373.315043 -65.134154 
L 376.550574 -64.410483 
L 379.786106 -63.708046 
L 383.021637 -63.057078 
L 386.257168 -62.494808 
L 389.4927 -62.034873 
L 392.728231 -61.657103 
L 395.963762 -61.326681 
L 399.199294 -61.020554 
L 402.434825 -60.735261 
L 405.670356 -60.476075 
L 408.905888 -60.245633 
L 412.141419 -60.042727 
L 415.376951 -59.866747 
L 418.612482 -59.719762 
L 421.848013 -59.604162 
L 425.083545 -59.519366 
L 428.319076 -59.461088 
L 431.554607 -59.422981 
L 434.790139 -59.398394 
L 438.02567 -59.381591 
L 441.261201 -59.368855 
L 444.496733 -59.358869 
L 447.732264 -59.351704 
L 450.967796 -59.347361 
L 450.967796 -59.340608 
L 450.967796 -59.340608 
L 447.732264 -59.336265 
L 444.496733 -59.3291 
L 441.261201 -59.319114 
L 438.02567 -59.306378 
L 434.790139 -59.289575 
L 431.554607 -59.264987 
L 428.319076 -59.226881 
L 425.083545 -59.168603 
L 421.848013 -59.083806 
L 418.612482 -58.968207 
L 415.376951 -58.821221 
L 412.141419 -58.645242 
L 408.905888 -58.442335 
L 405.670356 -58.211894 
L 402.434825 -57.952707 
L 399.199294 -57.667415 
L 395.963762 -57.361287 
L 392.728231 -57.030866 
L 389.4927 -56.653096 
L 386.257168 -56.193161 
L 383.021637 -55.630891 
L 379.786106 -54.979923 
L 376.550574 -54.277486 
L 373.315043 -53.553815 
L 370.079512 -52.810719 
L 366.84398 -52.029462 
L 363.608449 -51.202498 
L 360.372917 -50.360236 
L 357.137386 -49.561723 
L 353.901855 -48.850189 
L 350.666323 -48.216376 
L 347.430792 -47.613177 
L 344.195261 -47.01335 
L 340.959729 -46.452198 
L 337.724198 -46.008506 
L 334.488667 -45.741928 
L 331.253135 -45.650928 
L 328.017604 -45.689023 
L 324.782073 -45.813751 
L 321.546541 -46.018332 
L 318.31101 -46.325517 
L 315.075478 -46.75797 
L 311.839947 -47.310005 
L 308.604416 -47.941617 
L 305.368884 -48.60135 
L 302.133353 -49.257989 
L 298.897822 -49.909018 
L 295.66229 -50.560828 
L 292.426759 -51.211957 
L 289.191228 -51.863066 
L 285.955696 -52.531839 
L 282.720165 -53.238087 
L 279.484634 -53.971333 
L 276.249102 -54.687119 
L 273.013571 -55.340883 
L 269.778039 -55.916726 
L 266.542508 -56.418991 
L 263.306977 -56.845716 
L 260.071445 -57.183287 
L 256.835914 -57.43095 
L 253.600383 -57.623326 
L 250.364851 -57.818022 
L 247.12932 -58.05571 
L 243.893789 -58.332201 
L 240.658257 -58.60762 
L 237.422726 -58.838566 
L 234.187195 -59.002495 
L 230.951663 -59.10064 
L 227.716132 -59.148416 
L 224.4806 -59.165768 
L 221.245069 -59.170462 
L 218.009538 -59.173319 
L 214.774006 -59.177604 
L 211.538475 -59.183385 
L 208.302944 -59.191335 
L 205.067412 -59.201467 
L 201.831881 -59.210849 
L 198.59635 -59.21601 
L 195.360818 -59.217446 
L 192.125287 -59.219637 
L 188.889756 -59.226648 
L 185.654224 -59.239069 
L 182.418693 -59.254798 
L 179.183161 -59.2713 
L 175.94763 -59.286988 
L 172.712099 -59.301375 
L 169.476567 -59.314331 
L 166.241036 -59.325219 
L 163.005505 -59.332879 
L 159.769973 -59.336318 
L 156.534442 -59.335313 
L 153.298911 -59.330729 
L 150.063379 -59.32475 
L 146.827848 -59.320467 
L 143.592316 -59.320333 
L 140.356785 -59.324503 
L 137.121254 -59.330851 
L 133.885722 -59.336739 
L 130.650191 -59.340714 
z
" style="stroke: #262626; stroke-width: 1.25"/>
    </defs>
    <g clip-path="url(#pa7067bfb8c)">
     <use xlink:href="#m1c9178ab48" x="0" y="345.6" style="fill: #701070; stroke: #262626; stroke-width: 1.25"/>
    </g>
   </g>
   <g id="line2d_1">
    <path d="M 148.874017 42.880234 
L 370.154005 42.880234 
" clip-path="url(#pa7067bfb8c)" style="fill: none; stroke: #262626; stroke-width: 1.875; stroke-linecap: round"/>
   </g>
   <g id="line2d_2">
    <path d="M 231.902291 42.880234 
L 287.89394 42.880234 
" clip-path="url(#pa7067bfb8c)" style="fill: none; stroke: #262626; stroke-width: 5.625; stroke-linecap: round"/>
   </g>
   <g id="line2d_3">
    <path d="M 260.670841 42.880234 
" clip-path="url(#pa7067bfb8c)" style="fill: none; stroke: #262626; stroke-width: 1.5; stroke-linecap: round"/>
    <defs>
     <path id="m91bbe49244" d="M 0 2.34375 
L 0 -2.34375 
" style="stroke: #ffffff; stroke-width: 1.125"/>
    </defs>
    <g clip-path="url(#pa7067bfb8c)">
     <use xlink:href="#m91bbe49244" x="260.670841" y="42.880234" style="fill: #ffffff; stroke: #ffffff; stroke-width: 1.125"/>
    </g>
   </g>
   <g id="line2d_4">
    <path d="M 200.707983 77.648203 
L 385.208471 77.648203 
" clip-path="url(#pa7067bfb8c)" style="fill: none; stroke: #262626; stroke-width: 1.875; stroke-linecap: round"/>
   </g>
   <g id="line2d_5">
    <path d="M 268.689627 77.648203 
L 316.221806 77.648203 
" clip-path="url(#pa7067bfb8c)" style="fill: none; stroke: #262626; stroke-width: 5.625; stroke-linecap: round"/>
   </g>
   <g id="line2d_6">
    <path d="M 292.706142 77.648203 
" clip-path="url(#pa7067bfb8c)" style="fill: none; stroke: #262626; stroke-width: 1.5; stroke-linecap: round"/>
    <g clip-path="url(#pa7067bfb8c)">
     <use xlink:href="#m91bbe49244" x="292.706142" y="77.648203" style="fill: #ffffff; stroke: #ffffff; stroke-width: 1.125"/>
    </g>
   </g>
   <g id="line2d_7">
    <path d="M 187.973553 112.416172 
L 396.042566 112.416172 
" clip-path="url(#pa7067bfb8c)" style="fill: none; stroke: #262626; stroke-width: 1.875; stroke-linecap: round"/>
   </g>
   <g id="line2d_8">
    <path d="M 264.162317 112.416172 
L 318.313663 112.416172 
" clip-path="url(#pa7067bfb8c)" style="fill: none; stroke: #262626; stroke-width: 5.625; stroke-linecap: round"/>
   </g>
   <g id="line2d_9">
    <path d="M 292.449009 112.416172 
" clip-path="url(#pa7067bfb8c)" style="fill: none; stroke: #262626; stroke-width: 1.5; stroke-linecap: round"/>
    <g clip-path="url(#pa7067bfb8c)">
     <use xlink:href="#m91bbe49244" x="292.449009" y="112.416172" style="fill: #ffffff; stroke: #ffffff; stroke-width: 1.125"/>
    </g>
   </g>
   <g id="line2d_10">
    <path d="M 208.52449 147.184141 
L 389.002237 147.184141 
" clip-path="url(#pa7067bfb8c)" style="fill: none; stroke: #262626; stroke-width: 1.875; stroke-linecap: round"/>
   </g>
   <g id="line2d_11">
    <path d="M 277.023189 147.184141 
L 322.806973 147.184141 
" clip-path="url(#pa7067bfb8c)" style="fill: none; stroke: #262626; stroke-width: 5.625; stroke-linecap: round"/>
   </g>
   <g id="line2d_12">
    <path d="M 300.434193 147.184141 
" clip-path="url(#pa7067bfb8c)" style="fill: none; stroke: #262626; stroke-width: 1.5; stroke-linecap: round"/>
    <g clip-path="url(#pa7067bfb8c)">
     <use xlink:href="#m91bbe49244" x="300.434193" y="147.184141" style="fill: #ffffff; stroke: #ffffff; stroke-width: 1.125"/>
    </g>
   </g>
   <g id="line2d_13">
    <path d="M 189.678383 181.952109 
L 415.79873 181.952109 
" clip-path="url(#pa7067bfb8c)" style="fill: none; stroke: #262626; stroke-width: 1.875; stroke-linecap: round"/>
   </g>
   <g id="line2d_14">
    <path d="M 274.811531 181.952109 
L 336.754016 181.952109 
" clip-path="url(#pa7067bfb8c)" style="fill: none; stroke: #262626; stroke-width: 5.625; stroke-linecap: round"/>
   </g>
   <g id="line2d_15">
    <path d="M 305.493168 181.952109 
" clip-path="url(#pa7067bfb8c)" style="fill: none; stroke: #262626; stroke-width: 1.5; stroke-linecap: round"/>
    <g clip-path="url(#pa7067bfb8c)">
     <use xlink:href="#m91bbe49244" x="305.493168" y="181.952109" style="fill: #ffffff; stroke: #ffffff; stroke-width: 1.125"/>
    </g>
   </g>
   <g id="line2d_16">
    <path d="M 203.717601 216.720078 
L 440.56579 216.720078 
" clip-path="url(#pa7067bfb8c)" style="fill: none; stroke: #262626; stroke-width: 1.875; stroke-linecap: round"/>
   </g>
   <g id="line2d_17">
    <path d="M 292.705345 216.720078 
L 352.66196 216.720078 
" clip-path="url(#pa7067bfb8c)" style="fill: none; stroke: #262626; stroke-width: 5.625; stroke-linecap: round"/>
   </g>
   <g id="line2d_18">
    <path d="M 323.004205 216.720078 
" clip-path="url(#pa7067bfb8c)" style="fill: none; stroke: #262626; stroke-width: 1.5; stroke-linecap: round"/>
    <g clip-path="url(#pa7067bfb8c)">
     <use xlink:href="#m91bbe49244" x="323.004205" y="216.720078" style="fill: #ffffff; stroke: #ffffff; stroke-width: 1.125"/>
    </g>
   </g>
   <g id="line2d_19">
    <path d="M 201.46663 251.488047 
L 450 251.488047 
" clip-path="url(#pa7067bfb8c)" style="fill: none; stroke: #262626; stroke-width: 1.875; stroke-linecap: round"/>
   </g>
   <g id="line2d_20">
    <path d="M 295.213714 251.488047 
L 358.589155 251.488047 
" clip-path="url(#pa7067bfb8c)" style="fill: none; stroke: #262626; stroke-width: 5.625; stroke-linecap: round"/>
   </g>
   <g id="line2d_21">
    <path d="M 327.145418 251.488047 
" clip-path="url(#pa7067bfb8c)" style="fill: none; stroke: #262626; stroke-width: 1.5; stroke-linecap: round"/>
    <g clip-path="url(#pa7067bfb8c)">
     <use xlink:href="#m91bbe49244" x="327.145418" y="251.488047" style="fill: #ffffff; stroke: #ffffff; stroke-width: 1.125"/>
    </g>
   </g>
   <g id="line2d_22">
    <path d="M 234.619182 286.256016 
L 420.644402 286.256016 
" clip-path="url(#pa7067bfb8c)" style="fill: none; stroke: #262626; stroke-width: 1.875; stroke-linecap: round"/>
   </g>
   <g id="line2d_23">
    <path d="M 303.942404 286.256016 
L 350.720584 286.256016 
" clip-path="url(#pa7067bfb8c)" style="fill: none; stroke: #262626; stroke-width: 5.625; stroke-linecap: round"/>
   </g>
   <g id="line2d_24">
    <path d="M 327.712279 286.256016 
" clip-path="url(#pa7067bfb8c)" style="fill: none; stroke: #262626; stroke-width: 1.5; stroke-linecap: round"/>
    <g clip-path="url(#pa7067bfb8c)">
     <use xlink:href="#m91bbe49244" x="327.712279" y="286.256016" style="fill: #ffffff; stroke: #ffffff; stroke-width: 1.125"/>
    </g>
   </g>
   <g id="patch_3">
    <path d="M 106.13 303.64 
L 106.13 25.49625 
" style="fill: none; stroke: #ffffff; stroke-width: 0.8; stroke-linejoin: miter; stroke-linecap: square"/>
   </g>
   <g id="patch_4">
    <path d="M 450 303.64 
L 450 25.49625 
" style="fill: none; stroke: #ffffff; stroke-width: 0.8; stroke-linejoin: miter; stroke-linecap: square"/>
   </g>
   <g id="patch_5">
    <path d="M 106.13 303.64 
L 450 303.64 
" style="fill: none; stroke: #ffffff; stroke-width: 0.8; stroke-linejoin: miter; stroke-linecap: square"/>
   </g>
   <g id="patch_6">
    <path d="M 106.13 25.49625 
L 450 25.49625 
" style="fill: none; stroke: #ffffff; stroke-width: 0.8; stroke-linejoin: miter; stroke-linecap: square"/>
   </g>
   <g id="text_18">
    <!-- Game type vs Rating -->
    <g style="fill: #262626" transform="translate(222.04375 19.49625) scale(0.12 -0.12)">
     <defs>
      <path id="ArialMT-76" d="M 1344 0 
L 81 3319 
L 675 3319 
L 1388 1331 
Q 1503 1009 1600 663 
Q 1675 925 1809 1294 
L 2547 3319 
L 3125 3319 
L 1869 0 
L 1344 0 
z
" transform="scale(0.015625)"/>
     </defs>
     <use xlink:href="#ArialMT-47"/>
     <use xlink:href="#ArialMT-61" x="77.783203"/>
     <use xlink:href="#ArialMT-6d" x="133.398438"/>
     <use xlink:href="#ArialMT-65" x="216.699219"/>
     <use xlink:href="#ArialMT-20" x="272.314453"/>
     <use xlink:href="#ArialMT-74" x="300.097656"/>
     <use xlink:href="#ArialMT-79" x="327.880859"/>
     <use xlink:href="#ArialMT-70" x="377.880859"/>
     <use xlink:href="#ArialMT-65" x="433.496094"/>
     <use xlink:href="#ArialMT-20" x="489.111328"/>
     <use xlink:href="#ArialMT-76" x="516.894531"/>
     <use xlink:href="#ArialMT-73" x="566.894531"/>
     <use xlink:href="#ArialMT-20" x="616.894531"/>
     <use xlink:href="#ArialMT-52" x="644.677734"/>
     <use xlink:href="#ArialMT-61" x="716.894531"/>
     <use xlink:href="#ArialMT-74" x="772.509766"/>
     <use xlink:href="#ArialMT-69" x="800.292969"/>
     <use xlink:href="#ArialMT-6e" x="822.509766"/>
     <use xlink:href="#ArialMT-67" x="878.125"/>
    </g>
   </g>
  </g>
 </g>
 <defs>
  <clipPath id="pa7067bfb8c">
   <rect x="106.13" y="25.49625" width="343.87" height="278.14375"/>
  </clipPath>
 </defs>
</svg>
