<?xml version="1.0" encoding="utf-8" standalone="no"?>
<!DOCTYPE svg PUBLIC "-//W3C//DTD SVG 1.1//EN"
  "http://www.w3.org/Graphics/SVG/1.1/DTD/svg11.dtd">
<svg xmlns:xlink="http://www.w3.org/1999/xlink" width="460.8pt" height="345.6pt" viewBox="0 0 460.8 345.6" xmlns="http://www.w3.org/2000/svg" version="1.1">
 <metadata>
  <rdf:RDF xmlns:dc="http://purl.org/dc/elements/1.1/" xmlns:cc="http://creativecommons.org/ns#" xmlns:rdf="http://www.w3.org/1999/02/22-rdf-syntax-ns#">
   <cc:Work>
    <dc:type rdf:resource="http://purl.org/dc/dcmitype/StillImage"/>
    <dc:date>2024-09-02T22:49:06.197936</dc:date>
    <dc:format>image/svg+xml</dc:format>
    <dc:creator>
     <cc:Agent>
      <dc:title>Matplotlib v3.9.2, https://matplotlib.org/</dc:title>
     </cc:Agent>
    </dc:creator>
   </cc:Work>
  </rdf:RDF>
 </metadata>
 <defs>
  <style type="text/css">*{stroke-linejoin: round; stroke-linecap: butt}</style>
 </defs>
 <g id="figure_1">
  <g id="patch_1">
   <path d="M 0 345.6 
L 460.8 345.6 
L 460.8 0 
L 0 0 
z
" style="fill: #ffffff"/>
  </g>
  <g id="axes_1">
   <g id="patch_2">
    <path d="M 106.13 303.64 
L 450 303.64 
L 450 25.49625 
L 106.13 25.49625 
z
" style="fill: #eaeaf2"/>
   </g>
   <g id="matplotlib.axis_1">
    <g id="xtick_1">
     <g id="text_1">
      <!-- 4 -->
      <g style="fill: #262626" transform="translate(143.72303 317.797812) scale(0.1 -0.1)">
       <defs>
        <path id="ArialMT-34" d="M 2069 0 
L 2069 1097 
L 81 1097 
L 81 1613 
L 2172 4581 
L 2631 4581 
L 2631 1613 
L 3250 1613 
L 3250 1097 
L 2631 1097 
L 2631 0 
L 2069 0 
z
M 2069 1613 
L 2069 3678 
L 634 1613 
L 2069 1613 
z
" transform="scale(0.015625)"/>
       </defs>
       <use xlink:href="#ArialMT-34"/>
      </g>
     </g>
    </g>
    <g id="xtick_2">
     <g id="text_2">
      <!-- 5 -->
      <g style="fill: #262626" transform="translate(198.564972 317.797812) scale(0.1 -0.1)">
       <defs>
        <path id="ArialMT-35" d="M 266 1200 
L 856 1250 
Q 922 819 1161 601 
Q 1400 384 1738 384 
Q 2144 384 2425 690 
Q 2706 997 2706 1503 
Q 2706 1984 2436 2262 
Q 2166 2541 1728 2541 
Q 1456 2541 1237 2417 
Q 1019 2294 894 2097 
L 366 2166 
L 809 4519 
L 3088 4519 
L 3088 3981 
L 1259 3981 
L 1013 2750 
Q 1425 3038 1878 3038 
Q 2478 3038 2890 2622 
Q 3303 2206 3303 1553 
Q 3303 931 2941 478 
Q 2500 -78 1738 -78 
Q 1113 -78 717 272 
Q 322 622 266 1200 
z
" transform="scale(0.015625)"/>
       </defs>
       <use xlink:href="#ArialMT-35"/>
      </g>
     </g>
    </g>
    <g id="xtick_3">
     <g id="text_3">
      <!-- 6 -->
      <g style="fill: #262626" transform="translate(253.406914 317.797812) scale(0.1 -0.1)">
       <defs>
        <path id="ArialMT-36" d="M 3184 3459 
L 2625 3416 
Q 2550 3747 2413 3897 
Q 2184 4138 1850 4138 
Q 1581 4138 1378 3988 
Q 1113 3794 959 3422 
Q 806 3050 800 2363 
Q 1003 2672 1297 2822 
Q 1591 2972 1913 2972 
Q 2475 2972 2870 2558 
Q 3266 2144 3266 1488 
Q 3266 1056 3080 686 
Q 2894 316 2569 119 
Q 2244 -78 1831 -78 
Q 1128 -78 684 439 
Q 241 956 241 2144 
Q 241 3472 731 4075 
Q 1159 4600 1884 4600 
Q 2425 4600 2770 4297 
Q 3116 3994 3184 3459 
z
M 888 1484 
Q 888 1194 1011 928 
Q 1134 663 1356 523 
Q 1578 384 1822 384 
Q 2178 384 2434 671 
Q 2691 959 2691 1453 
Q 2691 1928 2437 2201 
Q 2184 2475 1800 2475 
Q 1419 2475 1153 2201 
Q 888 1928 888 1484 
z
" transform="scale(0.015625)"/>
       </defs>
       <use xlink:href="#ArialMT-36"/>
      </g>
     </g>
    </g>
    <g id="xtick_4">
     <g id="text_4">
      <!-- 7 -->
      <g style="fill: #262626" transform="translate(308.248856 317.797812) scale(0.1 -0.1)">
       <defs>
        <path id="ArialMT-37" d="M 303 3981 
L 303 4522 
L 3269 4522 
L 3269 4084 
Q 2831 3619 2401 2847 
Q 1972 2075 1738 1259 
Q 1569 684 1522 0 
L 944 0 
Q 953 541 1156 1306 
Q 1359 2072 1739 2783 
Q 2119 3494 2547 3981 
L 303 3981 
z
" transform="scale(0.015625)"/>
       </defs>
       <use xlink:href="#ArialMT-37"/>
      </g>
     </g>
    </g>
    <g id="xtick_5">
     <g id="text_5">
      <!-- 8 -->
      <g style="fill: #262626" transform="translate(363.090797 317.797812) scale(0.1 -0.1)">
       <defs>
        <path id="ArialMT-38" d="M 1131 2484 
Q 781 2613 612 2850 
Q 444 3088 444 3419 
Q 444 3919 803 4259 
Q 1163 4600 1759 4600 
Q 2359 4600 2725 4251 
Q 3091 3903 3091 3403 
Q 3091 3084 2923 2848 
Q 2756 2613 2416 2484 
Q 2838 2347 3058 2040 
Q 3278 1734 3278 1309 
Q 3278 722 2862 322 
Q 2447 -78 1769 -78 
Q 1091 -78 675 323 
Q 259 725 259 1325 
Q 259 1772 486 2073 
Q 713 2375 1131 2484 
z
M 1019 3438 
Q 1019 3113 1228 2906 
Q 1438 2700 1772 2700 
Q 2097 2700 2305 2904 
Q 2513 3109 2513 3406 
Q 2513 3716 2298 3927 
Q 2084 4138 1766 4138 
Q 1444 4138 1231 3931 
Q 1019 3725 1019 3438 
z
M 838 1322 
Q 838 1081 952 856 
Q 1066 631 1291 507 
Q 1516 384 1775 384 
Q 2178 384 2440 643 
Q 2703 903 2703 1303 
Q 2703 1709 2433 1975 
Q 2163 2241 1756 2241 
Q 1359 2241 1098 1978 
Q 838 1716 838 1322 
z
" transform="scale(0.015625)"/>
       </defs>
       <use xlink:href="#ArialMT-38"/>
      </g>
     </g>
    </g>
    <g id="xtick_6">
     <g id="text_6">
      <!-- 9 -->
      <g style="fill: #262626" transform="translate(417.932739 317.797812) scale(0.1 -0.1)">
       <defs>
        <path id="ArialMT-39" d="M 350 1059 
L 891 1109 
Q 959 728 1153 556 
Q 1347 384 1650 384 
Q 1909 384 2104 503 
Q 2300 622 2425 820 
Q 2550 1019 2634 1356 
Q 2719 1694 2719 2044 
Q 2719 2081 2716 2156 
Q 2547 1888 2255 1720 
Q 1963 1553 1622 1553 
Q 1053 1553 659 1965 
Q 266 2378 266 3053 
Q 266 3750 677 4175 
Q 1088 4600 1706 4600 
Q 2153 4600 2523 4359 
Q 2894 4119 3086 3673 
Q 3278 3228 3278 2384 
Q 3278 1506 3087 986 
Q 2897 466 2520 194 
Q 2144 -78 1638 -78 
Q 1100 -78 759 220 
Q 419 519 350 1059 
z
M 2653 3081 
Q 2653 3566 2395 3850 
Q 2138 4134 1775 4134 
Q 1400 4134 1122 3828 
Q 844 3522 844 3034 
Q 844 2597 1108 2323 
Q 1372 2050 1759 2050 
Q 2150 2050 2401 2323 
Q 2653 2597 2653 3081 
z
" transform="scale(0.015625)"/>
       </defs>
       <use xlink:href="#ArialMT-39"/>
      </g>
     </g>
    </g>
    <g id="text_7">
     <!-- Rating -->
     <g style="fill: #262626" transform="translate(263.612656 330.943125) scale(0.1 -0.1)">
      <defs>
       <path id="ArialMT-52" d="M 503 0 
L 503 4581 
L 2534 4581 
Q 3147 4581 3465 4457 
Q 3784 4334 3975 4021 
Q 4166 3709 4166 3331 
Q 4166 2844 3850 2509 
Q 3534 2175 2875 2084 
Q 3116 1969 3241 1856 
Q 3506 1613 3744 1247 
L 4541 0 
L 3778 0 
L 3172 953 
Q 2906 1366 2734 1584 
Q 2563 1803 2427 1890 
Q 2291 1978 2150 2013 
Q 2047 2034 1813 2034 
L 1109 2034 
L 1109 0 
L 503 0 
z
M 1109 2559 
L 2413 2559 
Q 2828 2559 3062 2645 
Q 3297 2731 3419 2920 
Q 3541 3109 3541 3331 
Q 3541 3656 3305 3865 
Q 3069 4075 2559 4075 
L 1109 4075 
L 1109 2559 
z
" transform="scale(0.015625)"/>
       <path id="ArialMT-61" d="M 2588 409 
Q 2275 144 1986 34 
Q 1697 -75 1366 -75 
Q 819 -75 525 192 
Q 231 459 231 875 
Q 231 1119 342 1320 
Q 453 1522 633 1644 
Q 813 1766 1038 1828 
Q 1203 1872 1538 1913 
Q 2219 1994 2541 2106 
Q 2544 2222 2544 2253 
Q 2544 2597 2384 2738 
Q 2169 2928 1744 2928 
Q 1347 2928 1158 2789 
Q 969 2650 878 2297 
L 328 2372 
Q 403 2725 575 2942 
Q 747 3159 1072 3276 
Q 1397 3394 1825 3394 
Q 2250 3394 2515 3294 
Q 2781 3194 2906 3042 
Q 3031 2891 3081 2659 
Q 3109 2516 3109 2141 
L 3109 1391 
Q 3109 606 3145 398 
Q 3181 191 3288 0 
L 2700 0 
Q 2613 175 2588 409 
z
M 2541 1666 
Q 2234 1541 1622 1453 
Q 1275 1403 1131 1340 
Q 988 1278 909 1158 
Q 831 1038 831 891 
Q 831 666 1001 516 
Q 1172 366 1500 366 
Q 1825 366 2078 508 
Q 2331 650 2450 897 
Q 2541 1088 2541 1459 
L 2541 1666 
z
" transform="scale(0.015625)"/>
       <path id="ArialMT-74" d="M 1650 503 
L 1731 6 
Q 1494 -44 1306 -44 
Q 1000 -44 831 53 
Q 663 150 594 308 
Q 525 466 525 972 
L 525 2881 
L 113 2881 
L 113 3319 
L 525 3319 
L 525 4141 
L 1084 4478 
L 1084 3319 
L 1650 3319 
L 1650 2881 
L 1084 2881 
L 1084 941 
Q 1084 700 1114 631 
Q 1144 563 1211 522 
Q 1278 481 1403 481 
Q 1497 481 1650 503 
z
" transform="scale(0.015625)"/>
       <path id="ArialMT-69" d="M 425 3934 
L 425 4581 
L 988 4581 
L 988 3934 
L 425 3934 
z
M 425 0 
L 425 3319 
L 988 3319 
L 988 0 
L 425 0 
z
" transform="scale(0.015625)"/>
       <path id="ArialMT-6e" d="M 422 0 
L 422 3319 
L 928 3319 
L 928 2847 
Q 1294 3394 1984 3394 
Q 2284 3394 2536 3286 
Q 2788 3178 2913 3003 
Q 3038 2828 3088 2588 
Q 3119 2431 3119 2041 
L 3119 0 
L 2556 0 
L 2556 2019 
Q 2556 2363 2490 2533 
Q 2425 2703 2258 2804 
Q 2091 2906 1866 2906 
Q 1506 2906 1245 2678 
Q 984 2450 984 1813 
L 984 0 
L 422 0 
z
" transform="scale(0.015625)"/>
       <path id="ArialMT-67" d="M 319 -275 
L 866 -356 
Q 900 -609 1056 -725 
Q 1266 -881 1628 -881 
Q 2019 -881 2231 -725 
Q 2444 -569 2519 -288 
Q 2563 -116 2559 434 
Q 2191 0 1641 0 
Q 956 0 581 494 
Q 206 988 206 1678 
Q 206 2153 378 2554 
Q 550 2956 876 3175 
Q 1203 3394 1644 3394 
Q 2231 3394 2613 2919 
L 2613 3319 
L 3131 3319 
L 3131 450 
Q 3131 -325 2973 -648 
Q 2816 -972 2473 -1159 
Q 2131 -1347 1631 -1347 
Q 1038 -1347 672 -1080 
Q 306 -813 319 -275 
z
M 784 1719 
Q 784 1066 1043 766 
Q 1303 466 1694 466 
Q 2081 466 2343 764 
Q 2606 1063 2606 1700 
Q 2606 2309 2336 2618 
Q 2066 2928 1684 2928 
Q 1309 2928 1046 2623 
Q 784 2319 784 1719 
z
" transform="scale(0.015625)"/>
      </defs>
      <use xlink:href="#ArialMT-52"/>
      <use xlink:href="#ArialMT-61" x="72.216797"/>
      <use xlink:href="#ArialMT-74" x="127.832031"/>
      <use xlink:href="#ArialMT-69" x="155.615234"/>
      <use xlink:href="#ArialMT-6e" x="177.832031"/>
      <use xlink:href="#ArialMT-67" x="233.447266"/>
     </g>
    </g>
   </g>
   <g id="matplotlib.axis_2">
    <g id="ytick_1">
     <g id="text_8">
      <!-- Strategy Game -->
      <g style="fill: #262626" transform="translate(31.883125 46.520078) scale(0.1 -0.1)">
       <defs>
        <path id="ArialMT-53" d="M 288 1472 
L 859 1522 
Q 900 1178 1048 958 
Q 1197 738 1509 602 
Q 1822 466 2213 466 
Q 2559 466 2825 569 
Q 3091 672 3220 851 
Q 3350 1031 3350 1244 
Q 3350 1459 3225 1620 
Q 3100 1781 2813 1891 
Q 2628 1963 1997 2114 
Q 1366 2266 1113 2400 
Q 784 2572 623 2826 
Q 463 3081 463 3397 
Q 463 3744 659 4045 
Q 856 4347 1234 4503 
Q 1613 4659 2075 4659 
Q 2584 4659 2973 4495 
Q 3363 4331 3572 4012 
Q 3781 3694 3797 3291 
L 3216 3247 
Q 3169 3681 2898 3903 
Q 2628 4125 2100 4125 
Q 1550 4125 1298 3923 
Q 1047 3722 1047 3438 
Q 1047 3191 1225 3031 
Q 1400 2872 2139 2705 
Q 2878 2538 3153 2413 
Q 3553 2228 3743 1945 
Q 3934 1663 3934 1294 
Q 3934 928 3725 604 
Q 3516 281 3123 101 
Q 2731 -78 2241 -78 
Q 1619 -78 1198 103 
Q 778 284 539 648 
Q 300 1013 288 1472 
z
" transform="scale(0.015625)"/>
        <path id="ArialMT-72" d="M 416 0 
L 416 3319 
L 922 3319 
L 922 2816 
Q 1116 3169 1280 3281 
Q 1444 3394 1641 3394 
Q 1925 3394 2219 3213 
L 2025 2691 
Q 1819 2813 1613 2813 
Q 1428 2813 1281 2702 
Q 1134 2591 1072 2394 
Q 978 2094 978 1738 
L 978 0 
L 416 0 
z
" transform="scale(0.015625)"/>
        <path id="ArialMT-65" d="M 2694 1069 
L 3275 997 
Q 3138 488 2766 206 
Q 2394 -75 1816 -75 
Q 1088 -75 661 373 
Q 234 822 234 1631 
Q 234 2469 665 2931 
Q 1097 3394 1784 3394 
Q 2450 3394 2872 2941 
Q 3294 2488 3294 1666 
Q 3294 1616 3291 1516 
L 816 1516 
Q 847 969 1125 678 
Q 1403 388 1819 388 
Q 2128 388 2347 550 
Q 2566 713 2694 1069 
z
M 847 1978 
L 2700 1978 
Q 2663 2397 2488 2606 
Q 2219 2931 1791 2931 
Q 1403 2931 1139 2672 
Q 875 2413 847 1978 
z
" transform="scale(0.015625)"/>
        <path id="ArialMT-79" d="M 397 -1278 
L 334 -750 
Q 519 -800 656 -800 
Q 844 -800 956 -737 
Q 1069 -675 1141 -563 
Q 1194 -478 1313 -144 
Q 1328 -97 1363 -6 
L 103 3319 
L 709 3319 
L 1400 1397 
Q 1534 1031 1641 628 
Q 1738 1016 1872 1384 
L 2581 3319 
L 3144 3319 
L 1881 -56 
Q 1678 -603 1566 -809 
Q 1416 -1088 1222 -1217 
Q 1028 -1347 759 -1347 
Q 597 -1347 397 -1278 
z
" transform="scale(0.015625)"/>
        <path id="ArialMT-20" transform="scale(0.015625)"/>
        <path id="ArialMT-47" d="M 2638 1797 
L 2638 2334 
L 4578 2338 
L 4578 638 
Q 4131 281 3656 101 
Q 3181 -78 2681 -78 
Q 2006 -78 1454 211 
Q 903 500 622 1047 
Q 341 1594 341 2269 
Q 341 2938 620 3517 
Q 900 4097 1425 4378 
Q 1950 4659 2634 4659 
Q 3131 4659 3532 4498 
Q 3934 4338 4162 4050 
Q 4391 3763 4509 3300 
L 3963 3150 
Q 3859 3500 3706 3700 
Q 3553 3900 3268 4020 
Q 2984 4141 2638 4141 
Q 2222 4141 1919 4014 
Q 1616 3888 1430 3681 
Q 1244 3475 1141 3228 
Q 966 2803 966 2306 
Q 966 1694 1177 1281 
Q 1388 869 1791 669 
Q 2194 469 2647 469 
Q 3041 469 3416 620 
Q 3791 772 3984 944 
L 3984 1797 
L 2638 1797 
z
" transform="scale(0.015625)"/>
        <path id="ArialMT-6d" d="M 422 0 
L 422 3319 
L 925 3319 
L 925 2853 
Q 1081 3097 1340 3245 
Q 1600 3394 1931 3394 
Q 2300 3394 2536 3241 
Q 2772 3088 2869 2813 
Q 3263 3394 3894 3394 
Q 4388 3394 4653 3120 
Q 4919 2847 4919 2278 
L 4919 0 
L 4359 0 
L 4359 2091 
Q 4359 2428 4304 2576 
Q 4250 2725 4106 2815 
Q 3963 2906 3769 2906 
Q 3419 2906 3187 2673 
Q 2956 2441 2956 1928 
L 2956 0 
L 2394 0 
L 2394 2156 
Q 2394 2531 2256 2718 
Q 2119 2906 1806 2906 
Q 1569 2906 1367 2781 
Q 1166 2656 1075 2415 
Q 984 2175 984 1722 
L 984 0 
L 422 0 
z
" transform="scale(0.015625)"/>
       </defs>
       <use xlink:href="#ArialMT-53"/>
       <use xlink:href="#ArialMT-74" x="66.699219"/>
       <use xlink:href="#ArialMT-72" x="94.482422"/>
       <use xlink:href="#ArialMT-61" x="127.783203"/>
       <use xlink:href="#ArialMT-74" x="183.398438"/>
       <use xlink:href="#ArialMT-65" x="211.181641"/>
       <use xlink:href="#ArialMT-67" x="266.796875"/>
       <use xlink:href="#ArialMT-79" x="322.412109"/>
       <use xlink:href="#ArialMT-20" x="372.412109"/>
       <use xlink:href="#ArialMT-47" x="400.195312"/>
       <use xlink:href="#ArialMT-61" x="477.978516"/>
       <use xlink:href="#ArialMT-6d" x="533.59375"/>
       <use xlink:href="#ArialMT-65" x="616.894531"/>
      </g>
     </g>
    </g>
    <g id="ytick_2">
     <g id="text_9">
      <!-- Family Game -->
      <g style="fill: #262626" transform="translate(39.68 81.288047) scale(0.1 -0.1)">
       <defs>
        <path id="ArialMT-46" d="M 525 0 
L 525 4581 
L 3616 4581 
L 3616 4041 
L 1131 4041 
L 1131 2622 
L 3281 2622 
L 3281 2081 
L 1131 2081 
L 1131 0 
L 525 0 
z
" transform="scale(0.015625)"/>
        <path id="ArialMT-6c" d="M 409 0 
L 409 4581 
L 972 4581 
L 972 0 
L 409 0 
z
" transform="scale(0.015625)"/>
       </defs>
       <use xlink:href="#ArialMT-46"/>
       <use xlink:href="#ArialMT-61" x="61.083984"/>
       <use xlink:href="#ArialMT-6d" x="116.699219"/>
       <use xlink:href="#ArialMT-69" x="200"/>
       <use xlink:href="#ArialMT-6c" x="222.216797"/>
       <use xlink:href="#ArialMT-79" x="244.433594"/>
       <use xlink:href="#ArialMT-20" x="294.433594"/>
       <use xlink:href="#ArialMT-47" x="322.216797"/>
       <use xlink:href="#ArialMT-61" x="400"/>
       <use xlink:href="#ArialMT-6d" x="455.615234"/>
       <use xlink:href="#ArialMT-65" x="538.916016"/>
      </g>
     </g>
    </g>
    <g id="ytick_3">
     <g id="text_10">
      <!-- Abstract Game -->
      <g style="fill: #262626" transform="translate(32.444063 115.995078) scale(0.1 -0.1)">
       <defs>
        <path id="ArialMT-41" d="M -9 0 
L 1750 4581 
L 2403 4581 
L 4278 0 
L 3588 0 
L 3053 1388 
L 1138 1388 
L 634 0 
L -9 0 
z
M 1313 1881 
L 2866 1881 
L 2388 3150 
Q 2169 3728 2063 4100 
Q 1975 3659 1816 3225 
L 1313 1881 
z
" transform="scale(0.015625)"/>
        <path id="ArialMT-62" d="M 941 0 
L 419 0 
L 419 4581 
L 981 4581 
L 981 2947 
Q 1338 3394 1891 3394 
Q 2197 3394 2470 3270 
Q 2744 3147 2920 2923 
Q 3097 2700 3197 2384 
Q 3297 2069 3297 1709 
Q 3297 856 2875 390 
Q 2453 -75 1863 -75 
Q 1275 -75 941 416 
L 941 0 
z
M 934 1684 
Q 934 1088 1097 822 
Q 1363 388 1816 388 
Q 2184 388 2453 708 
Q 2722 1028 2722 1663 
Q 2722 2313 2464 2622 
Q 2206 2931 1841 2931 
Q 1472 2931 1203 2611 
Q 934 2291 934 1684 
z
" transform="scale(0.015625)"/>
        <path id="ArialMT-73" d="M 197 991 
L 753 1078 
Q 800 744 1014 566 
Q 1228 388 1613 388 
Q 2000 388 2187 545 
Q 2375 703 2375 916 
Q 2375 1106 2209 1216 
Q 2094 1291 1634 1406 
Q 1016 1563 777 1677 
Q 538 1791 414 1992 
Q 291 2194 291 2438 
Q 291 2659 392 2848 
Q 494 3038 669 3163 
Q 800 3259 1026 3326 
Q 1253 3394 1513 3394 
Q 1903 3394 2198 3281 
Q 2494 3169 2634 2976 
Q 2775 2784 2828 2463 
L 2278 2388 
Q 2241 2644 2061 2787 
Q 1881 2931 1553 2931 
Q 1166 2931 1000 2803 
Q 834 2675 834 2503 
Q 834 2394 903 2306 
Q 972 2216 1119 2156 
Q 1203 2125 1616 2013 
Q 2213 1853 2448 1751 
Q 2684 1650 2818 1456 
Q 2953 1263 2953 975 
Q 2953 694 2789 445 
Q 2625 197 2315 61 
Q 2006 -75 1616 -75 
Q 969 -75 630 194 
Q 291 463 197 991 
z
" transform="scale(0.015625)"/>
        <path id="ArialMT-63" d="M 2588 1216 
L 3141 1144 
Q 3050 572 2676 248 
Q 2303 -75 1759 -75 
Q 1078 -75 664 370 
Q 250 816 250 1647 
Q 250 2184 428 2587 
Q 606 2991 970 3192 
Q 1334 3394 1763 3394 
Q 2303 3394 2647 3120 
Q 2991 2847 3088 2344 
L 2541 2259 
Q 2463 2594 2264 2762 
Q 2066 2931 1784 2931 
Q 1359 2931 1093 2626 
Q 828 2322 828 1663 
Q 828 994 1084 691 
Q 1341 388 1753 388 
Q 2084 388 2306 591 
Q 2528 794 2588 1216 
z
" transform="scale(0.015625)"/>
       </defs>
       <use xlink:href="#ArialMT-41"/>
       <use xlink:href="#ArialMT-62" x="66.699219"/>
       <use xlink:href="#ArialMT-73" x="122.314453"/>
       <use xlink:href="#ArialMT-74" x="172.314453"/>
       <use xlink:href="#ArialMT-72" x="200.097656"/>
       <use xlink:href="#ArialMT-61" x="233.398438"/>
       <use xlink:href="#ArialMT-63" x="289.013672"/>
       <use xlink:href="#ArialMT-74" x="339.013672"/>
       <use xlink:href="#ArialMT-20" x="366.796875"/>
       <use xlink:href="#ArialMT-47" x="394.580078"/>
       <use xlink:href="#ArialMT-61" x="472.363281"/>
       <use xlink:href="#ArialMT-6d" x="527.978516"/>
       <use xlink:href="#ArialMT-65" x="611.279297"/>
      </g>
     </g>
    </g>
    <g id="ytick_4">
     <g id="text_11">
      <!-- Party Game -->
      <g style="fill: #262626" transform="translate(45.783125 150.823984) scale(0.1 -0.1)">
       <defs>
        <path id="ArialMT-50" d="M 494 0 
L 494 4581 
L 2222 4581 
Q 2678 4581 2919 4538 
Q 3256 4481 3484 4323 
Q 3713 4166 3852 3881 
Q 3991 3597 3991 3256 
Q 3991 2672 3619 2267 
Q 3247 1863 2275 1863 
L 1100 1863 
L 1100 0 
L 494 0 
z
M 1100 2403 
L 2284 2403 
Q 2872 2403 3119 2622 
Q 3366 2841 3366 3238 
Q 3366 3525 3220 3729 
Q 3075 3934 2838 4000 
Q 2684 4041 2272 4041 
L 1100 4041 
L 1100 2403 
z
" transform="scale(0.015625)"/>
       </defs>
       <use xlink:href="#ArialMT-50"/>
       <use xlink:href="#ArialMT-61" x="66.699219"/>
       <use xlink:href="#ArialMT-72" x="122.314453"/>
       <use xlink:href="#ArialMT-74" x="155.615234"/>
       <use xlink:href="#ArialMT-79" x="183.398438"/>
       <use xlink:href="#ArialMT-20" x="233.398438"/>
       <use xlink:href="#ArialMT-47" x="261.181641"/>
       <use xlink:href="#ArialMT-61" x="338.964844"/>
       <use xlink:href="#ArialMT-6d" x="394.580078"/>
       <use xlink:href="#ArialMT-65" x="477.880859"/>
      </g>
     </g>
    </g>
    <g id="ytick_5">
     <g id="text_12">
      <!-- Thematic -->
      <g style="fill: #262626" transform="translate(58.009688 185.531016) scale(0.1 -0.1)">
       <defs>
        <path id="ArialMT-54" d="M 1659 0 
L 1659 4041 
L 150 4041 
L 150 4581 
L 3781 4581 
L 3781 4041 
L 2266 4041 
L 2266 0 
L 1659 0 
z
" transform="scale(0.015625)"/>
        <path id="ArialMT-68" d="M 422 0 
L 422 4581 
L 984 4581 
L 984 2938 
Q 1378 3394 1978 3394 
Q 2347 3394 2619 3248 
Q 2891 3103 3008 2847 
Q 3125 2591 3125 2103 
L 3125 0 
L 2563 0 
L 2563 2103 
Q 2563 2525 2380 2717 
Q 2197 2909 1863 2909 
Q 1613 2909 1392 2779 
Q 1172 2650 1078 2428 
Q 984 2206 984 1816 
L 984 0 
L 422 0 
z
" transform="scale(0.015625)"/>
       </defs>
       <use xlink:href="#ArialMT-54"/>
       <use xlink:href="#ArialMT-68" x="61.083984"/>
       <use xlink:href="#ArialMT-65" x="116.699219"/>
       <use xlink:href="#ArialMT-6d" x="172.314453"/>
       <use xlink:href="#ArialMT-61" x="255.615234"/>
       <use xlink:href="#ArialMT-74" x="311.230469"/>
       <use xlink:href="#ArialMT-69" x="339.013672"/>
       <use xlink:href="#ArialMT-63" x="361.230469"/>
      </g>
     </g>
    </g>
    <g id="ytick_6">
     <g id="text_13">
      <!-- War Game -->
      <g style="fill: #262626" transform="translate(51.1675 220.298984) scale(0.1 -0.1)">
       <defs>
        <path id="ArialMT-57" d="M 1294 0 
L 78 4581 
L 700 4581 
L 1397 1578 
Q 1509 1106 1591 641 
Q 1766 1375 1797 1488 
L 2669 4581 
L 3400 4581 
L 4056 2263 
Q 4303 1400 4413 641 
Q 4500 1075 4641 1638 
L 5359 4581 
L 5969 4581 
L 4713 0 
L 4128 0 
L 3163 3491 
Q 3041 3928 3019 4028 
Q 2947 3713 2884 3491 
L 1913 0 
L 1294 0 
z
" transform="scale(0.015625)"/>
       </defs>
       <use xlink:href="#ArialMT-57"/>
       <use xlink:href="#ArialMT-61" x="90.634766"/>
       <use xlink:href="#ArialMT-72" x="146.25"/>
       <use xlink:href="#ArialMT-20" x="179.550781"/>
       <use xlink:href="#ArialMT-47" x="207.333984"/>
       <use xlink:href="#ArialMT-61" x="285.117188"/>
       <use xlink:href="#ArialMT-6d" x="340.732422"/>
       <use xlink:href="#ArialMT-65" x="424.033203"/>
      </g>
     </g>
    </g>
    <g id="ytick_7">
     <g id="text_14">
      <!-- Customizable -->
      <g style="fill: #262626" transform="translate(38.551875 255.066953) scale(0.1 -0.1)">
       <defs>
        <path id="ArialMT-43" d="M 3763 1606 
L 4369 1453 
Q 4178 706 3683 314 
Q 3188 -78 2472 -78 
Q 1731 -78 1267 223 
Q 803 525 561 1097 
Q 319 1669 319 2325 
Q 319 3041 592 3573 
Q 866 4106 1370 4382 
Q 1875 4659 2481 4659 
Q 3169 4659 3637 4309 
Q 4106 3959 4291 3325 
L 3694 3184 
Q 3534 3684 3231 3912 
Q 2928 4141 2469 4141 
Q 1941 4141 1586 3887 
Q 1231 3634 1087 3207 
Q 944 2781 944 2328 
Q 944 1744 1114 1308 
Q 1284 872 1643 656 
Q 2003 441 2422 441 
Q 2931 441 3284 734 
Q 3638 1028 3763 1606 
z
" transform="scale(0.015625)"/>
        <path id="ArialMT-75" d="M 2597 0 
L 2597 488 
Q 2209 -75 1544 -75 
Q 1250 -75 995 37 
Q 741 150 617 320 
Q 494 491 444 738 
Q 409 903 409 1263 
L 409 3319 
L 972 3319 
L 972 1478 
Q 972 1038 1006 884 
Q 1059 663 1231 536 
Q 1403 409 1656 409 
Q 1909 409 2131 539 
Q 2353 669 2445 892 
Q 2538 1116 2538 1541 
L 2538 3319 
L 3100 3319 
L 3100 0 
L 2597 0 
z
" transform="scale(0.015625)"/>
        <path id="ArialMT-6f" d="M 213 1659 
Q 213 2581 725 3025 
Q 1153 3394 1769 3394 
Q 2453 3394 2887 2945 
Q 3322 2497 3322 1706 
Q 3322 1066 3130 698 
Q 2938 331 2570 128 
Q 2203 -75 1769 -75 
Q 1072 -75 642 372 
Q 213 819 213 1659 
z
M 791 1659 
Q 791 1022 1069 705 
Q 1347 388 1769 388 
Q 2188 388 2466 706 
Q 2744 1025 2744 1678 
Q 2744 2294 2464 2611 
Q 2184 2928 1769 2928 
Q 1347 2928 1069 2612 
Q 791 2297 791 1659 
z
" transform="scale(0.015625)"/>
        <path id="ArialMT-7a" d="M 125 0 
L 125 456 
L 2238 2881 
Q 1878 2863 1603 2863 
L 250 2863 
L 250 3319 
L 2963 3319 
L 2963 2947 
L 1166 841 
L 819 456 
Q 1197 484 1528 484 
L 3063 484 
L 3063 0 
L 125 0 
z
" transform="scale(0.015625)"/>
       </defs>
       <use xlink:href="#ArialMT-43"/>
       <use xlink:href="#ArialMT-75" x="72.216797"/>
       <use xlink:href="#ArialMT-73" x="127.832031"/>
       <use xlink:href="#ArialMT-74" x="177.832031"/>
       <use xlink:href="#ArialMT-6f" x="205.615234"/>
       <use xlink:href="#ArialMT-6d" x="261.230469"/>
       <use xlink:href="#ArialMT-69" x="344.53125"/>
       <use xlink:href="#ArialMT-7a" x="366.748047"/>
       <use xlink:href="#ArialMT-61" x="416.748047"/>
       <use xlink:href="#ArialMT-62" x="472.363281"/>
       <use xlink:href="#ArialMT-6c" x="527.978516"/>
       <use xlink:href="#ArialMT-65" x="550.195312"/>
      </g>
     </g>
    </g>
    <g id="ytick_8">
     <g id="text_15">
      <!-- Children's Game -->
      <g style="fill: #262626" transform="translate(24.97375 289.834922) scale(0.1 -0.1)">
       <defs>
        <path id="ArialMT-64" d="M 2575 0 
L 2575 419 
Q 2259 -75 1647 -75 
Q 1250 -75 917 144 
Q 584 363 401 755 
Q 219 1147 219 1656 
Q 219 2153 384 2558 
Q 550 2963 881 3178 
Q 1213 3394 1622 3394 
Q 1922 3394 2156 3267 
Q 2391 3141 2538 2938 
L 2538 4581 
L 3097 4581 
L 3097 0 
L 2575 0 
z
M 797 1656 
Q 797 1019 1065 703 
Q 1334 388 1700 388 
Q 2069 388 2326 689 
Q 2584 991 2584 1609 
Q 2584 2291 2321 2609 
Q 2059 2928 1675 2928 
Q 1300 2928 1048 2622 
Q 797 2316 797 1656 
z
" transform="scale(0.015625)"/>
        <path id="ArialMT-27" d="M 425 2959 
L 281 3816 
L 281 4581 
L 922 4581 
L 922 3816 
L 772 2959 
L 425 2959 
z
" transform="scale(0.015625)"/>
       </defs>
       <use xlink:href="#ArialMT-43"/>
       <use xlink:href="#ArialMT-68" x="72.216797"/>
       <use xlink:href="#ArialMT-69" x="127.832031"/>
       <use xlink:href="#ArialMT-6c" x="150.048828"/>
       <use xlink:href="#ArialMT-64" x="172.265625"/>
       <use xlink:href="#ArialMT-72" x="227.880859"/>
       <use xlink:href="#ArialMT-65" x="261.181641"/>
       <use xlink:href="#ArialMT-6e" x="316.796875"/>
       <use xlink:href="#ArialMT-27" x="372.412109"/>
       <use xlink:href="#ArialMT-73" x="391.503906"/>
       <use xlink:href="#ArialMT-20" x="441.503906"/>
       <use xlink:href="#ArialMT-47" x="469.287109"/>
       <use xlink:href="#ArialMT-61" x="547.070312"/>
       <use xlink:href="#ArialMT-6d" x="602.685547"/>
       <use xlink:href="#ArialMT-65" x="685.986328"/>
      </g>
     </g>
    </g>
    <g id="text_16">
     <!-- Game type -->
     <g style="fill: #262626" transform="translate(18.869063 189.022031) rotate(-90) scale(0.1 -0.1)">
      <defs>
       <path id="ArialMT-70" d="M 422 -1272 
L 422 3319 
L 934 3319 
L 934 2888 
Q 1116 3141 1344 3267 
Q 1572 3394 1897 3394 
Q 2322 3394 2647 3175 
Q 2972 2956 3137 2557 
Q 3303 2159 3303 1684 
Q 3303 1175 3120 767 
Q 2938 359 2589 142 
Q 2241 -75 1856 -75 
Q 1575 -75 1351 44 
Q 1128 163 984 344 
L 984 -1272 
L 422 -1272 
z
M 931 1641 
Q 931 1000 1190 694 
Q 1450 388 1819 388 
Q 2194 388 2461 705 
Q 2728 1022 2728 1688 
Q 2728 2322 2467 2637 
Q 2206 2953 1844 2953 
Q 1484 2953 1207 2617 
Q 931 2281 931 1641 
z
" transform="scale(0.015625)"/>
      </defs>
      <use xlink:href="#ArialMT-47"/>
      <use xlink:href="#ArialMT-61" x="77.783203"/>
      <use xlink:href="#ArialMT-6d" x="133.398438"/>
      <use xlink:href="#ArialMT-65" x="216.699219"/>
      <use xlink:href="#ArialMT-20" x="272.314453"/>
      <use xlink:href="#ArialMT-74" x="300.097656"/>
      <use xlink:href="#ArialMT-79" x="327.880859"/>
      <use xlink:href="#ArialMT-70" x="377.880859"/>
      <use xlink:href="#ArialMT-65" x="433.496094"/>
     </g>
    </g>
   </g>
   <g id="PolyCollection_1">
    <defs>
     <path id="m6006fab660" d="M 257.999969 -302.700475 
L 257.999969 -302.739056 
L 259.697226 -302.751113 
L 261.394484 -302.76808 
L 263.091741 -302.790469 
L 264.788998 -302.818158 
L 266.486255 -302.850255 
L 268.183512 -302.885203 
L 269.880769 -302.921182 
L 271.578027 -302.956759 
L 273.275284 -302.991633 
L 274.972541 -303.027223 
L 276.669798 -303.066886 
L 278.367055 -303.115646 
L 280.064312 -303.1795 
L 281.761569 -303.2645 
L 283.458827 -303.375844 
L 285.156084 -303.51717 
L 286.853341 -303.69012 
L 288.550598 -303.894185 
L 290.247855 -304.126861 
L 291.945112 -304.384203 
L 293.64237 -304.661872 
L 295.339627 -304.956664 
L 297.036884 -305.268217 
L 298.734141 -305.600358 
L 300.431398 -305.961425 
L 302.128655 -306.363101 
L 303.825913 -306.817747 
L 305.52317 -307.334788 
L 307.220427 -307.917145 
L 308.917684 -308.558791 
L 310.614941 -309.244269 
L 312.312198 -309.950433 
L 314.009456 -310.650084 
L 315.706713 -311.316683 
L 317.40397 -311.929055 
L 319.101227 -312.47505 
L 320.798484 -312.953299 
L 322.495741 -313.3726 
L 324.192999 -313.748917 
L 325.890256 -314.100572 
L 327.587513 -314.442695 
L 329.28477 -314.782404 
L 330.982027 -315.116127 
L 332.679284 -315.429999 
L 334.376542 -315.703314 
L 336.073799 -315.914022 
L 337.771056 -316.044515 
L 339.468313 -316.085835 
L 341.16557 -316.039067 
L 342.862827 -315.913675 
L 344.560085 -315.723659 
L 346.257342 -315.483039 
L 347.954599 -315.202246 
L 349.651856 -314.886458 
L 351.349113 -314.536073 
L 353.04637 -314.148743 
L 354.743628 -313.721953 
L 356.440885 -313.255146 
L 358.138142 -312.750786 
L 359.835399 -312.214263 
L 361.532656 -311.653 
L 363.229913 -311.075298 
L 364.92717 -310.489417 
L 366.624428 -309.903157 
L 368.321685 -309.323935 
L 370.018942 -308.759158 
L 371.716199 -308.216581 
L 373.413456 -307.704314 
L 375.110713 -307.230285 
L 376.807971 -306.801153 
L 378.505228 -306.420924 
L 380.202485 -306.089762 
L 381.899742 -305.803501 
L 383.596999 -305.554198 
L 385.294256 -305.331631 
L 386.991514 -305.125308 
L 388.688771 -304.926327 
L 390.386028 -304.728564 
L 392.083285 -304.529019 
L 393.780542 -304.327481 
L 395.477799 -304.125906 
L 397.175057 -303.927798 
L 398.872314 -303.737703 
L 400.569571 -303.560682 
L 402.266828 -303.401631 
L 403.964085 -303.264429 
L 405.661342 -303.151102 
L 407.3586 -303.061325 
L 409.055857 -302.992493 
L 410.753114 -302.940391 
L 412.450371 -302.900248 
L 414.147628 -302.867794 
L 415.844885 -302.839978 
L 417.542143 -302.815185 
L 419.2394 -302.79299 
L 420.936657 -302.773644 
L 422.633914 -302.757561 
L 424.331171 -302.744947 
L 426.028428 -302.73566 
L 426.028428 -302.703871 
L 426.028428 -302.703871 
L 424.331171 -302.694585 
L 422.633914 -302.68197 
L 420.936657 -302.665887 
L 419.2394 -302.646542 
L 417.542143 -302.624346 
L 415.844885 -302.599553 
L 414.147628 -302.571737 
L 412.450371 -302.539283 
L 410.753114 -302.49914 
L 409.055857 -302.447038 
L 407.3586 -302.378206 
L 405.661342 -302.288429 
L 403.964085 -302.175102 
L 402.266828 -302.0379 
L 400.569571 -301.878849 
L 398.872314 -301.701828 
L 397.175057 -301.511733 
L 395.477799 -301.313626 
L 393.780542 -301.11205 
L 392.083285 -300.910513 
L 390.386028 -300.710967 
L 388.688771 -300.513205 
L 386.991514 -300.314223 
L 385.294256 -300.1079 
L 383.596999 -299.885333 
L 381.899742 -299.63603 
L 380.202485 -299.34977 
L 378.505228 -299.018607 
L 376.807971 -298.638379 
L 375.110713 -298.209247 
L 373.413456 -297.735218 
L 371.716199 -297.22295 
L 370.018942 -296.680373 
L 368.321685 -296.115597 
L 366.624428 -295.536374 
L 364.92717 -294.950114 
L 363.229913 -294.364233 
L 361.532656 -293.786531 
L 359.835399 -293.225268 
L 358.138142 -292.688746 
L 356.440885 -292.184386 
L 354.743628 -291.717578 
L 353.04637 -291.290788 
L 351.349113 -290.903458 
L 349.651856 -290.553073 
L 347.954599 -290.237286 
L 346.257342 -289.956492 
L 344.560085 -289.715872 
L 342.862827 -289.525856 
L 341.16557 -289.400464 
L 339.468313 -289.353696 
L 337.771056 -289.395017 
L 336.073799 -289.525509 
L 334.376542 -289.736218 
L 332.679284 -290.009532 
L 330.982027 -290.323404 
L 329.28477 -290.657127 
L 327.587513 -290.996836 
L 325.890256 -291.338959 
L 324.192999 -291.690614 
L 322.495741 -292.066931 
L 320.798484 -292.486232 
L 319.101227 -292.964482 
L 317.40397 -293.510476 
L 315.706713 -294.122848 
L 314.009456 -294.789447 
L 312.312198 -295.489099 
L 310.614941 -296.195262 
L 308.917684 -296.88074 
L 307.220427 -297.522386 
L 305.52317 -298.104743 
L 303.825913 -298.621784 
L 302.128655 -299.07643 
L 300.431398 -299.478106 
L 298.734141 -299.839173 
L 297.036884 -300.171314 
L 295.339627 -300.482867 
L 293.64237 -300.777659 
L 291.945112 -301.055328 
L 290.247855 -301.31267 
L 288.550598 -301.545347 
L 286.853341 -301.749411 
L 285.156084 -301.922361 
L 283.458827 -302.063687 
L 281.761569 -302.175031 
L 280.064312 -302.260031 
L 278.367055 -302.323886 
L 276.669798 -302.372645 
L 274.972541 -302.412308 
L 273.275284 -302.447899 
L 271.578027 -302.482773 
L 269.880769 -302.51835 
L 268.183512 -302.554328 
L 266.486255 -302.589276 
L 264.788998 -302.621373 
L 263.091741 -302.649062 
L 261.394484 -302.671452 
L 259.697226 -302.688418 
L 257.999969 -302.700475 
z
" style="stroke: #262626; stroke-width: 1.25"/>
    </defs>
    <g clip-path="url(#p59e262f4fd)">
     <use xlink:href="#m6006fab660" x="0" y="345.6" style="fill: #701070; stroke: #262626; stroke-width: 1.25"/>
    </g>
   </g>
   <g id="PolyCollection_2">
    <defs>
     <path id="m260d973e63" d="M 194.498065 -267.924163 
L 194.498065 -267.979431 
L 196.576299 -267.996813 
L 198.654534 -268.021219 
L 200.732768 -268.053285 
L 202.811002 -268.092699 
L 204.889237 -268.138053 
L 206.967471 -268.187008 
L 209.045705 -268.236798 
L 211.12394 -268.284894 
L 213.202174 -268.329559 
L 215.280408 -268.370029 
L 217.358643 -268.406234 
L 219.436877 -268.438207 
L 221.515111 -268.465522 
L 223.593346 -268.487077 
L 225.67158 -268.501322 
L 227.749814 -268.506795 
L 229.828049 -268.502674 
L 231.906283 -268.489083 
L 233.984517 -268.467149 
L 236.062752 -268.438938 
L 238.140986 -268.407474 
L 240.21922 -268.376859 
L 242.297455 -268.352376 
L 244.375689 -268.3403 
L 246.453923 -268.347259 
L 248.532158 -268.379208 
L 250.610392 -268.440251 
L 252.688626 -268.531732 
L 254.766861 -268.651904 
L 256.845095 -268.796389 
L 258.923329 -268.959373 
L 261.001564 -269.135278 
L 263.079798 -269.320482 
L 265.158032 -269.514607 
L 267.236267 -269.720947 
L 269.314501 -269.945888 
L 271.392735 -270.197463 
L 273.47097 -270.483521 
L 275.549204 -270.810127 
L 277.627438 -271.180749 
L 279.705673 -271.596417 
L 281.783907 -272.056635 
L 283.862141 -272.560486 
L 285.940376 -273.107351 
L 288.01861 -273.696944 
L 290.096844 -274.328765 
L 292.175079 -275.001366 
L 294.253313 -275.711779 
L 296.331547 -276.455134 
L 298.409782 -277.224177 
L 300.488016 -278.008301 
L 302.56625 -278.792006 
L 304.644485 -279.553228 
L 306.722719 -280.262431 
L 308.800953 -280.883502 
L 310.879188 -281.377086 
L 312.957422 -281.706321 
L 315.035656 -281.844008 
L 317.113891 -281.779517 
L 319.192125 -281.523408 
L 321.270359 -281.107966 
L 323.348594 -280.582671 
L 325.426828 -280.004991 
L 327.505062 -279.428398 
L 329.583297 -278.890727 
L 331.661531 -278.406325 
L 333.739765 -277.964577 
L 335.818 -277.535468 
L 337.896234 -277.080467 
L 339.974468 -276.565233 
L 342.052703 -275.970127 
L 344.130937 -275.295506 
L 346.209171 -274.560819 
L 348.287406 -273.798683 
L 350.36564 -273.0465 
L 352.443874 -272.338449 
L 354.522109 -271.699883 
L 356.600343 -271.144895 
L 358.678577 -270.67668 
L 360.756812 -270.289731 
L 362.835046 -269.972818 
L 364.91328 -269.712009 
L 366.991515 -269.493254 
L 369.069749 -269.3043 
L 371.147983 -269.135812 
L 373.226218 -268.981676 
L 375.304452 -268.838636 
L 377.382686 -268.705517 
L 379.460921 -268.582367 
L 381.539155 -268.469763 
L 383.617389 -268.368389 
L 385.695624 -268.27884 
L 387.773858 -268.201527 
L 389.852092 -268.136596 
L 391.930327 -268.083828 
L 394.008561 -268.042549 
L 396.086795 -268.011614 
L 398.16503 -267.989496 
L 400.243264 -267.974459 
L 400.243264 -267.929135 
L 400.243264 -267.929135 
L 398.16503 -267.914098 
L 396.086795 -267.89198 
L 394.008561 -267.861044 
L 391.930327 -267.819765 
L 389.852092 -267.766998 
L 387.773858 -267.702067 
L 385.695624 -267.624754 
L 383.617389 -267.535204 
L 381.539155 -267.433831 
L 379.460921 -267.321227 
L 377.382686 -267.198077 
L 375.304452 -267.064958 
L 373.226218 -266.921918 
L 371.147983 -266.767782 
L 369.069749 -266.599293 
L 366.991515 -266.41034 
L 364.91328 -266.191585 
L 362.835046 -265.930775 
L 360.756812 -265.613863 
L 358.678577 -265.226913 
L 356.600343 -264.758699 
L 354.522109 -264.203711 
L 352.443874 -263.565145 
L 350.36564 -262.857093 
L 348.287406 -262.10491 
L 346.209171 -261.342775 
L 344.130937 -260.608088 
L 342.052703 -259.933466 
L 339.974468 -259.338361 
L 337.896234 -258.823127 
L 335.818 -258.368126 
L 333.739765 -257.939017 
L 331.661531 -257.497269 
L 329.583297 -257.012867 
L 327.505062 -256.475196 
L 325.426828 -255.898603 
L 323.348594 -255.320923 
L 321.270359 -254.795628 
L 319.192125 -254.380186 
L 317.113891 -254.124077 
L 315.035656 -254.059585 
L 312.957422 -254.197273 
L 310.879188 -254.526508 
L 308.800953 -255.020092 
L 306.722719 -255.641162 
L 304.644485 -256.350366 
L 302.56625 -257.111588 
L 300.488016 -257.895293 
L 298.409782 -258.679416 
L 296.331547 -259.448459 
L 294.253313 -260.191815 
L 292.175079 -260.902228 
L 290.096844 -261.574829 
L 288.01861 -262.20665 
L 285.940376 -262.796243 
L 283.862141 -263.343108 
L 281.783907 -263.846959 
L 279.705673 -264.307177 
L 277.627438 -264.722845 
L 275.549204 -265.093467 
L 273.47097 -265.420073 
L 271.392735 -265.70613 
L 269.314501 -265.957706 
L 267.236267 -266.182647 
L 265.158032 -266.388987 
L 263.079798 -266.583111 
L 261.001564 -266.768316 
L 258.923329 -266.944221 
L 256.845095 -267.107205 
L 254.766861 -267.25169 
L 252.688626 -267.371862 
L 250.610392 -267.463342 
L 248.532158 -267.524386 
L 246.453923 -267.556334 
L 244.375689 -267.563294 
L 242.297455 -267.551217 
L 240.21922 -267.526735 
L 238.140986 -267.49612 
L 236.062752 -267.464655 
L 233.984517 -267.436445 
L 231.906283 -267.414511 
L 229.828049 -267.40092 
L 227.749814 -267.396798 
L 225.67158 -267.402272 
L 223.593346 -267.416516 
L 221.515111 -267.438071 
L 219.436877 -267.465387 
L 217.358643 -267.49736 
L 215.280408 -267.533565 
L 213.202174 -267.574035 
L 211.12394 -267.6187 
L 209.045705 -267.666795 
L 206.967471 -267.716586 
L 204.889237 -267.765541 
L 202.811002 -267.810895 
L 200.732768 -267.850309 
L 198.654534 -267.882375 
L 196.576299 -267.906781 
L 194.498065 -267.924163 
z
" style="stroke: #262626; stroke-width: 1.25"/>
    </defs>
    <g clip-path="url(#p59e262f4fd)">
     <use xlink:href="#m260d973e63" x="0" y="345.6" style="fill: #701070; stroke: #262626; stroke-width: 1.25"/>
    </g>
   </g>
   <g id="PolyCollection_3">
    <defs>
     <path id="m7cf5ab4758" d="M 167.732702 -233.109839 
L 167.732702 -233.257817 
L 170.014938 -233.28259 
L 172.297174 -233.312734 
L 174.57941 -233.348355 
L 176.861646 -233.389181 
L 179.143881 -233.434492 
L 181.426117 -233.483088 
L 183.708353 -233.533314 
L 185.990589 -233.583146 
L 188.272825 -233.630342 
L 190.555061 -233.672651 
L 192.837296 -233.708048 
L 195.119532 -233.734975 
L 197.401768 -233.752551 
L 199.684004 -233.760714 
L 201.96624 -233.760265 
L 204.248476 -233.752809 
L 206.530711 -233.740588 
L 208.812947 -233.726219 
L 211.095183 -233.712382 
L 213.377419 -233.701484 
L 215.659655 -233.695359 
L 217.941891 -233.695037 
L 220.224126 -233.700618 
L 222.506362 -233.711275 
L 224.788598 -233.725382 
L 227.070834 -233.740756 
L 229.35307 -233.754987 
L 231.635305 -233.765814 
L 233.917541 -233.771501 
L 236.199777 -233.77118 
L 238.482013 -233.76512 
L 240.764249 -233.7549 
L 243.046485 -233.74348 
L 245.32872 -233.735165 
L 247.610956 -233.735473 
L 249.893192 -233.750932 
L 252.175428 -233.788794 
L 254.457664 -233.856706 
L 256.7399 -233.96232 
L 259.022135 -234.112871 
L 261.304371 -234.314714 
L 263.586607 -234.572848 
L 265.868843 -234.890452 
L 268.151079 -235.268479 
L 270.433315 -235.705342 
L 272.71555 -236.19676 
L 274.997786 -236.735792 
L 277.280022 -237.313091 
L 279.562258 -237.91737 
L 281.844494 -238.536049 
L 284.12673 -239.15602 
L 286.408965 -239.764443 
L 288.691201 -240.349496 
L 290.973437 -240.900967 
L 293.255673 -241.410659 
L 295.537909 -241.87255 
L 297.820144 -242.282725 
L 300.10238 -242.639136 
L 302.384616 -242.941224 
L 304.666852 -243.189513 
L 306.949088 -243.385221 
L 309.231324 -243.529952 
L 311.513559 -243.625487 
L 313.795795 -243.673663 
L 316.078031 -243.676335 
L 318.360267 -243.635356 
L 320.642503 -243.552561 
L 322.924739 -243.429727 
L 325.206974 -243.268508 
L 327.48921 -243.070361 
L 329.771446 -242.836482 
L 332.053682 -242.567808 
L 334.335918 -242.265074 
L 336.618154 -241.928962 
L 338.900389 -241.560316 
L 341.182625 -241.160392 
L 343.464861 -240.731115 
L 345.747097 -240.275283 
L 348.029333 -239.796701 
L 350.311569 -239.300202 
L 352.593804 -238.791563 
L 354.87604 -238.277318 
L 357.158276 -237.764485 
L 359.440512 -237.260251 
L 361.722748 -236.771629 
L 364.004984 -236.305134 
L 366.287219 -235.866488 
L 368.569455 -235.460391 
L 370.851691 -235.090351 
L 373.133927 -234.758599 
L 375.416163 -234.466076 
L 377.698398 -234.212496 
L 379.980634 -233.996471 
L 382.26287 -233.815695 
L 384.545106 -233.667154 
L 386.827342 -233.547356 
L 389.109578 -233.452564 
L 391.391813 -233.379001 
L 393.674049 -233.323031 
L 393.674049 -233.044625 
L 393.674049 -233.044625 
L 391.391813 -232.988655 
L 389.109578 -232.915092 
L 386.827342 -232.8203 
L 384.545106 -232.700502 
L 382.26287 -232.551961 
L 379.980634 -232.371185 
L 377.698398 -232.155161 
L 375.416163 -231.90158 
L 373.133927 -231.609057 
L 370.851691 -231.277305 
L 368.569455 -230.907265 
L 366.287219 -230.501168 
L 364.004984 -230.062522 
L 361.722748 -229.596027 
L 359.440512 -229.107405 
L 357.158276 -228.603171 
L 354.87604 -228.090338 
L 352.593804 -227.576093 
L 350.311569 -227.067454 
L 348.029333 -226.570955 
L 345.747097 -226.092373 
L 343.464861 -225.636541 
L 341.182625 -225.207264 
L 338.900389 -224.80734 
L 336.618154 -224.438694 
L 334.335918 -224.102582 
L 332.053682 -223.799848 
L 329.771446 -223.531174 
L 327.48921 -223.297295 
L 325.206974 -223.099148 
L 322.924739 -222.937929 
L 320.642503 -222.815096 
L 318.360267 -222.7323 
L 316.078031 -222.691321 
L 313.795795 -222.693993 
L 311.513559 -222.74217 
L 309.231324 -222.837704 
L 306.949088 -222.982435 
L 304.666852 -223.178143 
L 302.384616 -223.426432 
L 300.10238 -223.72852 
L 297.820144 -224.084931 
L 295.537909 -224.495107 
L 293.255673 -224.956997 
L 290.973437 -225.466689 
L 288.691201 -226.018161 
L 286.408965 -226.603213 
L 284.12673 -227.211637 
L 281.844494 -227.831607 
L 279.562258 -228.450286 
L 277.280022 -229.054566 
L 274.997786 -229.631865 
L 272.71555 -230.170896 
L 270.433315 -230.662314 
L 268.151079 -231.099177 
L 265.868843 -231.477204 
L 263.586607 -231.794809 
L 261.304371 -232.052942 
L 259.022135 -232.254785 
L 256.7399 -232.405337 
L 254.457664 -232.510951 
L 252.175428 -232.578862 
L 249.893192 -232.616724 
L 247.610956 -232.632183 
L 245.32872 -232.632492 
L 243.046485 -232.624176 
L 240.764249 -232.612756 
L 238.482013 -232.602536 
L 236.199777 -232.596476 
L 233.917541 -232.596156 
L 231.635305 -232.601843 
L 229.35307 -232.612669 
L 227.070834 -232.626901 
L 224.788598 -232.642274 
L 222.506362 -232.656381 
L 220.224126 -232.667038 
L 217.941891 -232.672619 
L 215.659655 -232.672297 
L 213.377419 -232.666172 
L 211.095183 -232.655275 
L 208.812947 -232.641437 
L 206.530711 -232.627068 
L 204.248476 -232.614847 
L 201.96624 -232.607391 
L 199.684004 -232.606942 
L 197.401768 -232.615105 
L 195.119532 -232.632681 
L 192.837296 -232.659608 
L 190.555061 -232.695005 
L 188.272825 -232.737314 
L 185.990589 -232.784511 
L 183.708353 -232.834342 
L 181.426117 -232.884568 
L 179.143881 -232.933164 
L 176.861646 -232.978475 
L 174.57941 -233.019301 
L 172.297174 -233.054922 
L 170.014938 -233.085067 
L 167.732702 -233.109839 
z
" style="stroke: #262626; stroke-width: 1.25"/>
    </defs>
    <g clip-path="url(#p59e262f4fd)">
     <use xlink:href="#m7cf5ab4758" x="0" y="345.6" style="fill: #701070; stroke: #262626; stroke-width: 1.25"/>
    </g>
   </g>
   <g id="PolyCollection_4">
    <defs>
     <path id="meb6876b99a" d="M 185.311396 -198.36935 
L 185.311396 -198.462369 
L 187.613193 -198.480756 
L 189.914991 -198.504511 
L 192.216788 -198.534512 
L 194.518586 -198.571593 
L 196.820383 -198.616511 
L 199.122181 -198.669934 
L 201.423978 -198.732444 
L 203.725776 -198.804567 
L 206.027573 -198.886811 
L 208.329371 -198.979706 
L 210.631168 -199.083814 
L 212.932966 -199.199709 
L 215.234763 -199.32789 
L 217.536561 -199.46864 
L 219.838358 -199.621843 
L 222.140156 -199.786793 
L 224.441953 -199.962036 
L 226.743751 -200.145308 
L 229.045548 -200.333607 
L 231.347346 -200.523417 
L 233.649143 -200.711095 
L 235.950941 -200.89336 
L 238.252738 -201.06783 
L 240.554536 -201.233504 
L 242.856333 -201.391095 
L 245.158131 -201.543157 
L 247.459928 -201.693937 
L 249.761726 -201.848981 
L 252.063523 -202.014534 
L 254.365321 -202.196814 
L 256.667118 -202.401274 
L 258.968916 -202.631949 
L 261.270713 -202.89097 
L 263.572511 -203.178297 
L 265.874308 -203.491673 
L 268.176106 -203.826785 
L 270.477903 -204.177569 
L 272.779701 -204.536608 
L 275.081498 -204.895571 
L 277.383296 -205.245657 
L 279.685093 -205.578022 
L 281.986891 -205.884189 
L 284.288688 -206.156456 
L 286.590486 -206.388301 
L 288.892283 -206.574773 
L 291.194081 -206.712853 
L 293.495878 -206.801739 
L 295.797676 -206.843002 
L 298.099473 -206.840566 
L 300.401271 -206.800471 
L 302.703068 -206.730411 
L 305.004866 -206.639072 
L 307.306663 -206.535324 
L 309.608461 -206.427348 
L 311.910258 -206.3218 
L 314.212056 -206.223116 
L 316.513853 -206.133026 
L 318.815651 -206.050343 
L 321.117448 -205.97105 
L 323.419246 -205.888676 
L 325.721043 -205.794914 
L 328.022841 -205.680441 
L 330.324638 -205.535853 
L 332.626436 -205.352631 
L 334.928233 -205.124067 
L 337.230031 -204.846038 
L 339.531828 -204.517571 
L 341.833626 -204.141119 
L 344.135423 -203.722525 
L 346.437221 -203.270652 
L 348.739018 -202.796734 
L 351.040816 -202.3135 
L 353.342613 -201.834179 
L 355.644411 -201.371495 
L 357.946208 -200.936752 
L 360.248006 -200.539105 
L 362.549803 -200.185072 
L 364.851601 -199.878316 
L 367.153398 -199.619679 
L 369.455196 -199.407463 
L 371.756993 -199.237865 
L 374.058791 -199.10555 
L 376.360588 -199.004258 
L 378.662386 -198.927412 
L 380.964183 -198.868663 
L 383.265981 -198.822329 
L 385.567778 -198.783704 
L 387.869576 -198.749225 
L 390.171373 -198.716501 
L 392.473171 -198.684211 
L 394.774968 -198.651929 
L 397.076766 -198.619874 
L 399.378563 -198.588665 
L 401.680361 -198.559082 
L 403.982158 -198.531875 
L 406.283956 -198.507633 
L 408.585753 -198.486715 
L 410.887551 -198.469232 
L 413.189348 -198.455073 
L 413.189348 -198.376646 
L 413.189348 -198.376646 
L 410.887551 -198.362486 
L 408.585753 -198.345003 
L 406.283956 -198.324086 
L 403.982158 -198.299844 
L 401.680361 -198.272637 
L 399.378563 -198.243054 
L 397.076766 -198.211845 
L 394.774968 -198.17979 
L 392.473171 -198.147507 
L 390.171373 -198.115218 
L 387.869576 -198.082493 
L 385.567778 -198.048015 
L 383.265981 -198.00939 
L 380.964183 -197.963055 
L 378.662386 -197.904306 
L 376.360588 -197.82746 
L 374.058791 -197.726168 
L 371.756993 -197.593853 
L 369.455196 -197.424256 
L 367.153398 -197.21204 
L 364.851601 -196.953403 
L 362.549803 -196.646646 
L 360.248006 -196.292614 
L 357.946208 -195.894967 
L 355.644411 -195.460224 
L 353.342613 -194.99754 
L 351.040816 -194.518219 
L 348.739018 -194.034984 
L 346.437221 -193.561067 
L 344.135423 -193.109194 
L 341.833626 -192.6906 
L 339.531828 -192.314148 
L 337.230031 -191.98568 
L 334.928233 -191.707652 
L 332.626436 -191.479088 
L 330.324638 -191.295866 
L 328.022841 -191.151278 
L 325.721043 -191.036805 
L 323.419246 -190.943043 
L 321.117448 -190.860669 
L 318.815651 -190.781376 
L 316.513853 -190.698693 
L 314.212056 -190.608603 
L 311.910258 -190.509919 
L 309.608461 -190.404371 
L 307.306663 -190.296394 
L 305.004866 -190.192646 
L 302.703068 -190.101308 
L 300.401271 -190.031248 
L 298.099473 -189.991152 
L 295.797676 -189.988717 
L 293.495878 -190.02998 
L 291.194081 -190.118866 
L 288.892283 -190.256946 
L 286.590486 -190.443418 
L 284.288688 -190.675263 
L 281.986891 -190.94753 
L 279.685093 -191.253697 
L 277.383296 -191.586061 
L 275.081498 -191.936148 
L 272.779701 -192.295111 
L 270.477903 -192.65415 
L 268.176106 -193.004933 
L 265.874308 -193.340046 
L 263.572511 -193.653422 
L 261.270713 -193.940749 
L 258.968916 -194.19977 
L 256.667118 -194.430444 
L 254.365321 -194.634904 
L 252.063523 -194.817184 
L 249.761726 -194.982737 
L 247.459928 -195.137782 
L 245.158131 -195.288561 
L 242.856333 -195.440623 
L 240.554536 -195.598215 
L 238.252738 -195.763889 
L 235.950941 -195.938359 
L 233.649143 -196.120624 
L 231.347346 -196.308301 
L 229.045548 -196.498112 
L 226.743751 -196.68641 
L 224.441953 -196.869683 
L 222.140156 -197.044926 
L 219.838358 -197.209875 
L 217.536561 -197.363079 
L 215.234763 -197.503829 
L 212.932966 -197.63201 
L 210.631168 -197.747905 
L 208.329371 -197.852013 
L 206.027573 -197.944907 
L 203.725776 -198.027152 
L 201.423978 -198.099275 
L 199.122181 -198.161785 
L 196.820383 -198.215208 
L 194.518586 -198.260126 
L 192.216788 -198.297206 
L 189.914991 -198.327208 
L 187.613193 -198.350963 
L 185.311396 -198.36935 
z
" style="stroke: #262626; stroke-width: 1.25"/>
    </defs>
    <g clip-path="url(#p59e262f4fd)">
     <use xlink:href="#meb6876b99a" x="0" y="345.6" style="fill: #701070; stroke: #262626; stroke-width: 1.25"/>
    </g>
   </g>
   <g id="PolyCollection_5">
    <defs>
     <path id="m96a29d2611" d="M 222.467121 -163.610515 
L 222.467121 -163.685266 
L 224.607549 -163.703003 
L 226.747978 -163.726403 
L 228.888406 -163.755992 
L 231.028835 -163.79182 
L 233.169263 -163.833329 
L 235.309692 -163.879323 
L 237.45012 -163.928063 
L 239.590549 -163.977528 
L 241.730977 -164.0258 
L 243.871406 -164.071507 
L 246.011834 -164.114225 
L 248.152263 -164.154721 
L 250.292691 -164.194953 
L 252.43312 -164.237802 
L 254.573549 -164.286559 
L 256.713977 -164.344283 
L 258.854406 -164.413182 
L 260.994834 -164.494148 
L 263.135263 -164.586583 
L 265.275691 -164.688549 
L 267.41612 -164.797231 
L 269.556548 -164.909615 
L 271.696977 -165.023253 
L 273.837405 -165.136994 
L 275.977834 -165.25154 
L 278.118262 -165.369769 
L 280.258691 -165.4968 
L 282.39912 -165.639806 
L 284.539548 -165.807624 
L 286.679977 -166.010188 
L 288.820405 -166.257823 
L 290.960834 -166.560369 
L 293.101262 -166.926151 
L 295.241691 -167.360789 
L 297.382119 -167.865946 
L 299.522548 -168.438187 
L 301.662976 -169.068207 
L 303.803405 -169.740719 
L 305.943833 -170.435209 
L 308.084262 -171.127625 
L 310.22469 -171.79283 
L 312.365119 -172.407424 
L 314.505548 -172.952402 
L 316.645976 -173.415113 
L 318.786405 -173.790098 
L 320.926833 -174.078684 
L 323.067262 -174.287477 
L 325.20769 -174.426175 
L 327.348119 -174.505216 
L 329.488547 -174.533764 
L 331.628976 -174.518383 
L 333.769404 -174.462504 
L 335.909833 -174.366595 
L 338.050261 -174.228842 
L 340.19069 -174.046071 
L 342.331118 -173.814756 
L 344.471547 -173.53198 
L 346.611976 -173.196324 
L 348.752404 -172.808643 
L 350.892833 -172.372662 
L 353.033261 -171.895302 
L 355.17369 -171.386617 
L 357.314118 -170.859278 
L 359.454547 -170.327616 
L 361.594975 -169.806362 
L 363.735404 -169.309276 
L 365.875832 -168.847929 
L 368.016261 -168.430811 
L 370.156689 -168.062884 
L 372.297118 -167.74557 
L 374.437546 -167.477067 
L 376.577975 -167.252863 
L 378.718404 -167.066295 
L 380.858832 -166.90911 
L 382.999261 -166.772014 
L 385.139689 -166.64526 
L 387.280118 -166.519331 
L 389.420546 -166.38573 
L 391.560975 -166.237807 
L 393.701403 -166.071494 
L 395.841832 -165.885775 
L 397.98226 -165.68275 
L 400.122689 -165.467238 
L 402.263117 -165.245958 
L 404.403546 -165.026461 
L 406.543975 -164.816021 
L 408.684403 -164.62071 
L 410.824832 -164.44481 
L 412.96526 -164.290631 
L 415.105689 -164.158668 
L 417.246117 -164.048009 
L 419.386546 -163.956826 
L 421.526974 -163.882838 
L 423.667403 -163.82366 
L 425.807831 -163.77702 
L 427.94826 -163.740856 
L 430.088688 -163.713335 
L 432.229117 -163.692842 
L 434.369545 -163.677955 
L 434.369545 -163.617827 
L 434.369545 -163.617827 
L 432.229117 -163.60294 
L 430.088688 -163.582446 
L 427.94826 -163.554926 
L 425.807831 -163.518761 
L 423.667403 -163.472121 
L 421.526974 -163.412944 
L 419.386546 -163.338956 
L 417.246117 -163.247773 
L 415.105689 -163.137114 
L 412.96526 -163.005151 
L 410.824832 -162.850971 
L 408.684403 -162.675071 
L 406.543975 -162.47976 
L 404.403546 -162.26932 
L 402.263117 -162.049823 
L 400.122689 -161.828543 
L 397.98226 -161.613031 
L 395.841832 -161.410006 
L 393.701403 -161.224287 
L 391.560975 -161.057975 
L 389.420546 -160.910052 
L 387.280118 -160.77645 
L 385.139689 -160.650521 
L 382.999261 -160.523767 
L 380.858832 -160.386671 
L 378.718404 -160.229487 
L 376.577975 -160.042918 
L 374.437546 -159.818714 
L 372.297118 -159.550212 
L 370.156689 -159.232897 
L 368.016261 -158.86497 
L 365.875832 -158.447852 
L 363.735404 -157.986505 
L 361.594975 -157.48942 
L 359.454547 -156.968165 
L 357.314118 -156.436504 
L 355.17369 -155.909164 
L 353.033261 -155.40048 
L 350.892833 -154.923119 
L 348.752404 -154.487138 
L 346.611976 -154.099457 
L 344.471547 -153.763802 
L 342.331118 -153.481025 
L 340.19069 -153.24971 
L 338.050261 -153.06694 
L 335.909833 -152.929186 
L 333.769404 -152.833277 
L 331.628976 -152.777398 
L 329.488547 -152.762017 
L 327.348119 -152.790565 
L 325.20769 -152.869606 
L 323.067262 -153.008305 
L 320.926833 -153.217098 
L 318.786405 -153.505683 
L 316.645976 -153.880668 
L 314.505548 -154.343379 
L 312.365119 -154.888358 
L 310.22469 -155.502951 
L 308.084262 -156.168156 
L 305.943833 -156.860572 
L 303.803405 -157.555062 
L 301.662976 -158.227574 
L 299.522548 -158.857594 
L 297.382119 -159.429835 
L 295.241691 -159.934992 
L 293.101262 -160.369631 
L 290.960834 -160.735412 
L 288.820405 -161.037958 
L 286.679977 -161.285593 
L 284.539548 -161.488157 
L 282.39912 -161.655975 
L 280.258691 -161.798982 
L 278.118262 -161.926012 
L 275.977834 -162.044241 
L 273.837405 -162.158787 
L 271.696977 -162.272528 
L 269.556548 -162.386167 
L 267.41612 -162.49855 
L 265.275691 -162.607232 
L 263.135263 -162.709199 
L 260.994834 -162.801633 
L 258.854406 -162.882599 
L 256.713977 -162.951498 
L 254.573549 -163.009222 
L 252.43312 -163.057979 
L 250.292691 -163.100828 
L 248.152263 -163.141061 
L 246.011834 -163.181556 
L 243.871406 -163.224274 
L 241.730977 -163.269981 
L 239.590549 -163.318253 
L 237.45012 -163.367719 
L 235.309692 -163.416458 
L 233.169263 -163.462452 
L 231.028835 -163.503962 
L 228.888406 -163.539789 
L 226.747978 -163.569378 
L 224.607549 -163.592779 
L 222.467121 -163.610515 
z
" style="stroke: #262626; stroke-width: 1.25"/>
    </defs>
    <g clip-path="url(#p59e262f4fd)">
     <use xlink:href="#m96a29d2611" x="0" y="345.6" style="fill: #701070; stroke: #262626; stroke-width: 1.25"/>
    </g>
   </g>
   <g id="PolyCollection_6">
    <defs>
     <path id="m797185dbef" d="M 257.650347 -128.642423 
L 257.650347 -129.117421 
L 259.34484 -129.182719 
L 261.039333 -129.261293 
L 262.733826 -129.354455 
L 264.428319 -129.463266 
L 266.122812 -129.588434 
L 267.817305 -129.730199 
L 269.511798 -129.888242 
L 271.206291 -130.061612 
L 272.900784 -130.248686 
L 274.595277 -130.44717 
L 276.28977 -130.654157 
L 277.984263 -130.866235 
L 279.678756 -131.079653 
L 281.373249 -131.290531 
L 283.067742 -131.495108 
L 284.762235 -131.690008 
L 286.456728 -131.872508 
L 288.151221 -132.040771 
L 289.845714 -132.19404 
L 291.540207 -132.332754 
L 293.2347 -132.45859 
L 294.929193 -132.574401 
L 296.623686 -132.684068 
L 298.318179 -132.792266 
L 300.012672 -132.904165 
L 301.707165 -133.025086 
L 303.401658 -133.160149 
L 305.096151 -133.313932 
L 306.790644 -133.490181 
L 308.485137 -133.691584 
L 310.17963 -133.919632 
L 311.874123 -134.174574 
L 313.568616 -134.455457 
L 315.263109 -134.760252 
L 316.957602 -135.086034 
L 318.652095 -135.429203 
L 320.346588 -135.785713 
L 322.041081 -136.151294 
L 323.735574 -136.521632 
L 325.430067 -136.892511 
L 327.12456 -137.259888 
L 328.819053 -137.619916 
L 330.513546 -137.968927 
L 332.208039 -138.303365 
L 333.902532 -138.619711 
L 335.597025 -138.914407 
L 337.291518 -139.183801 
L 338.986011 -139.424116 
L 340.680504 -139.631479 
L 342.374997 -139.80198 
L 344.06949 -139.931796 
L 345.763983 -140.017334 
L 347.458476 -140.055419 
L 349.152969 -140.043476 
L 350.847462 -139.979715 
L 352.541955 -139.863288 
L 354.236448 -139.694411 
L 355.930941 -139.474427 
L 357.625434 -139.205825 
L 359.319927 -138.892191 
L 361.01442 -138.538106 
L 362.708913 -138.148994 
L 364.403406 -137.730935 
L 366.097899 -137.290446 
L 367.792392 -136.834247 
L 369.486885 -136.369036 
L 371.181378 -135.901262 
L 372.875871 -135.43693 
L 374.570364 -134.981433 
L 376.264857 -134.539413 
L 377.95935 -134.114678 
L 379.653843 -133.710146 
L 381.348336 -133.32784 
L 383.042829 -132.968921 
L 384.737322 -132.633754 
L 386.431815 -132.322013 
L 388.126308 -132.032797 
L 389.820801 -131.764772 
L 391.515294 -131.51632 
L 393.209787 -131.285673 
L 394.90428 -131.071056 
L 396.598773 -130.87079 
L 398.293266 -130.683389 
L 399.987759 -130.507618 
L 401.682252 -130.342522 
L 403.376745 -130.187433 
L 405.071238 -130.041941 
L 406.765731 -129.905859 
L 408.460224 -129.779154 
L 410.154717 -129.661896 
L 411.84921 -129.554183 
L 413.543703 -129.456088 
L 415.238196 -129.367613 
L 416.932689 -129.288649 
L 418.627182 -129.21896 
L 420.321675 -129.158178 
L 422.016168 -129.105811 
L 423.710661 -129.061259 
L 425.405154 -129.023843 
L 425.405154 -128.736 
L 425.405154 -128.736 
L 423.710661 -128.698584 
L 422.016168 -128.654033 
L 420.321675 -128.601666 
L 418.627182 -128.540884 
L 416.932689 -128.471195 
L 415.238196 -128.39223 
L 413.543703 -128.303755 
L 411.84921 -128.205661 
L 410.154717 -128.097948 
L 408.460224 -127.980689 
L 406.765731 -127.853985 
L 405.071238 -127.717902 
L 403.376745 -127.572411 
L 401.682252 -127.417322 
L 399.987759 -127.252226 
L 398.293266 -127.076455 
L 396.598773 -126.889054 
L 394.90428 -126.688788 
L 393.209787 -126.47417 
L 391.515294 -126.243524 
L 389.820801 -125.995071 
L 388.126308 -125.727047 
L 386.431815 -125.437831 
L 384.737322 -125.126089 
L 383.042829 -124.790923 
L 381.348336 -124.432004 
L 379.653843 -124.049698 
L 377.95935 -123.645166 
L 376.264857 -123.220431 
L 374.570364 -122.778411 
L 372.875871 -122.322913 
L 371.181378 -121.858582 
L 369.486885 -121.390808 
L 367.792392 -120.925597 
L 366.097899 -120.469398 
L 364.403406 -120.028908 
L 362.708913 -119.61085 
L 361.01442 -119.221738 
L 359.319927 -118.867653 
L 357.625434 -118.554019 
L 355.930941 -118.285417 
L 354.236448 -118.065433 
L 352.541955 -117.896555 
L 350.847462 -117.780129 
L 349.152969 -117.716368 
L 347.458476 -117.704425 
L 345.763983 -117.742509 
L 344.06949 -117.828048 
L 342.374997 -117.957863 
L 340.680504 -118.128365 
L 338.986011 -118.335728 
L 337.291518 -118.576043 
L 335.597025 -118.845436 
L 333.902532 -119.140133 
L 332.208039 -119.456479 
L 330.513546 -119.790916 
L 328.819053 -120.139927 
L 327.12456 -120.499956 
L 325.430067 -120.867332 
L 323.735574 -121.238212 
L 322.041081 -121.60855 
L 320.346588 -121.974131 
L 318.652095 -122.330641 
L 316.957602 -122.673809 
L 315.263109 -122.999592 
L 313.568616 -123.304387 
L 311.874123 -123.58527 
L 310.17963 -123.840212 
L 308.485137 -124.06826 
L 306.790644 -124.269663 
L 305.096151 -124.445912 
L 303.401658 -124.599695 
L 301.707165 -124.734758 
L 300.012672 -124.855679 
L 298.318179 -124.967578 
L 296.623686 -125.075776 
L 294.929193 -125.185443 
L 293.2347 -125.301254 
L 291.540207 -125.42709 
L 289.845714 -125.565804 
L 288.151221 -125.719072 
L 286.456728 -125.887335 
L 284.762235 -126.069835 
L 283.067742 -126.264736 
L 281.373249 -126.469313 
L 279.678756 -126.68019 
L 277.984263 -126.893608 
L 276.28977 -127.105687 
L 274.595277 -127.312674 
L 272.900784 -127.511158 
L 271.206291 -127.698231 
L 269.511798 -127.871602 
L 267.817305 -128.029645 
L 266.122812 -128.17141 
L 264.428319 -128.296577 
L 262.733826 -128.405389 
L 261.039333 -128.498551 
L 259.34484 -128.577125 
L 257.650347 -128.642423 
z
" style="stroke: #262626; stroke-width: 1.25"/>
    </defs>
    <g clip-path="url(#p59e262f4fd)">
     <use xlink:href="#m797185dbef" x="0" y="345.6" style="fill: #701070; stroke: #262626; stroke-width: 1.25"/>
    </g>
   </g>
   <g id="PolyCollection_7">
    <defs>
     <path id="m0ae0f7b8a5" d="M 269.954148 -93.849433 
L 269.954148 -94.374474 
L 271.239365 -94.439803 
L 272.524581 -94.517164 
L 273.809798 -94.607656 
L 275.095015 -94.712217 
L 276.380232 -94.831565 
L 277.665448 -94.966137 
L 278.950665 -95.116052 
L 280.235882 -95.281071 
L 281.521099 -95.460597 
L 282.806316 -95.653692 
L 284.091532 -95.859121 
L 285.376749 -96.075429 
L 286.661966 -96.301046 
L 287.947183 -96.534414 
L 289.2324 -96.774121 
L 290.517616 -97.019047 
L 291.802833 -97.268499 
L 293.08805 -97.522317 
L 294.373267 -97.78095 
L 295.658483 -98.045481 
L 296.9437 -98.317601 
L 298.228917 -98.599515 
L 299.514134 -98.893802 
L 300.799351 -99.203215 
L 302.084567 -99.530446 
L 303.369784 -99.877875 
L 304.655001 -100.247311 
L 305.940218 -100.639762 
L 307.225435 -101.055247 
L 308.510651 -101.49267 
L 309.795868 -101.949762 
L 311.081085 -102.42312 
L 312.366302 -102.908309 
L 313.651518 -103.400051 
L 314.936735 -103.892457 
L 316.221952 -104.379304 
L 317.507169 -104.854317 
L 318.792386 -105.311436 
L 320.077602 -105.745045 
L 321.362819 -106.150147 
L 322.648036 -106.522462 
L 323.933253 -106.858464 
L 325.21847 -107.155342 
L 326.503686 -107.410905 
L 327.788903 -107.623456 
L 329.07412 -107.791645 
L 330.359337 -107.914334 
L 331.644554 -107.990492 
L 332.92977 -108.019141 
L 334.214987 -107.999352 
L 335.500204 -107.930315 
L 336.785421 -107.811453 
L 338.070637 -107.642591 
L 339.355854 -107.424139 
L 340.641071 -107.157282 
L 341.926288 -106.844146 
L 343.211505 -106.487917 
L 344.496721 -106.092898 
L 345.781938 -105.664479 
L 347.067155 -105.209037 
L 348.352372 -104.733748 
L 349.637589 -104.246323 
L 350.922805 -103.754703 
L 352.208022 -103.266711 
L 353.493239 -102.789701 
L 354.778456 -102.330225 
L 356.063672 -101.893739 
L 357.348889 -101.484376 
L 358.634106 -101.104793 
L 359.919323 -100.756106 
L 361.20454 -100.437915 
L 362.489756 -100.148422 
L 363.774973 -99.884618 
L 365.06019 -99.642539 
L 366.345407 -99.417567 
L 367.630624 -99.204753 
L 368.91584 -98.999144 
L 370.201057 -98.796094 
L 371.486274 -98.591529 
L 372.771491 -98.382171 
L 374.056707 -98.165688 
L 375.341924 -97.940779 
L 376.627141 -97.707184 
L 377.912358 -97.465625 
L 379.197575 -97.217697 
L 380.482791 -96.9657 
L 381.768008 -96.71245 
L 383.053225 -96.461065 
L 384.338442 -96.214761 
L 385.623659 -95.976651 
L 386.908875 -95.749579 
L 388.194092 -95.535985 
L 389.479309 -95.337808 
L 390.764526 -95.156436 
L 392.049742 -94.992686 
L 393.334959 -94.846832 
L 394.620176 -94.718649 
L 395.905393 -94.607483 
L 397.19061 -94.51234 
L 397.19061 -93.711566 
L 397.19061 -93.711566 
L 395.905393 -93.616423 
L 394.620176 -93.505258 
L 393.334959 -93.377074 
L 392.049742 -93.23122 
L 390.764526 -93.067471 
L 389.479309 -92.886098 
L 388.194092 -92.687922 
L 386.908875 -92.474327 
L 385.623659 -92.247256 
L 384.338442 -92.009145 
L 383.053225 -91.762841 
L 381.768008 -91.511456 
L 380.482791 -91.258206 
L 379.197575 -91.006209 
L 377.912358 -90.758281 
L 376.627141 -90.516723 
L 375.341924 -90.283127 
L 374.056707 -90.058218 
L 372.771491 -89.841736 
L 371.486274 -89.632378 
L 370.201057 -89.427813 
L 368.91584 -89.224762 
L 367.630624 -89.019153 
L 366.345407 -88.806339 
L 365.06019 -88.581367 
L 363.774973 -88.339288 
L 362.489756 -88.075484 
L 361.20454 -87.785991 
L 359.919323 -87.467801 
L 358.634106 -87.119113 
L 357.348889 -86.73953 
L 356.063672 -86.330167 
L 354.778456 -85.893681 
L 353.493239 -85.434205 
L 352.208022 -84.957195 
L 350.922805 -84.469203 
L 349.637589 -83.977583 
L 348.352372 -83.490158 
L 347.067155 -83.014869 
L 345.781938 -82.559428 
L 344.496721 -82.131009 
L 343.211505 -81.735989 
L 341.926288 -81.379761 
L 340.641071 -81.066625 
L 339.355854 -80.799768 
L 338.070637 -80.581315 
L 336.785421 -80.412453 
L 335.500204 -80.293592 
L 334.214987 -80.224554 
L 332.92977 -80.204766 
L 331.644554 -80.233414 
L 330.359337 -80.309573 
L 329.07412 -80.432261 
L 327.788903 -80.60045 
L 326.503686 -80.813001 
L 325.21847 -81.068564 
L 323.933253 -81.365442 
L 322.648036 -81.701445 
L 321.362819 -82.07376 
L 320.077602 -82.478861 
L 318.792386 -82.91247 
L 317.507169 -83.369589 
L 316.221952 -83.844602 
L 314.936735 -84.33145 
L 313.651518 -84.823856 
L 312.366302 -85.315597 
L 311.081085 -85.800787 
L 309.795868 -86.274144 
L 308.510651 -86.731237 
L 307.225435 -87.168659 
L 305.940218 -87.584144 
L 304.655001 -87.976596 
L 303.369784 -88.346031 
L 302.084567 -88.69346 
L 300.799351 -89.020691 
L 299.514134 -89.330104 
L 298.228917 -89.624391 
L 296.9437 -89.906306 
L 295.658483 -90.178425 
L 294.373267 -90.442956 
L 293.08805 -90.701589 
L 291.802833 -90.955407 
L 290.517616 -91.204859 
L 289.2324 -91.449786 
L 287.947183 -91.689492 
L 286.661966 -91.92286 
L 285.376749 -92.148478 
L 284.091532 -92.364785 
L 282.806316 -92.570214 
L 281.521099 -92.763309 
L 280.235882 -92.942836 
L 278.950665 -93.107855 
L 277.665448 -93.257769 
L 276.380232 -93.392342 
L 275.095015 -93.511689 
L 273.809798 -93.616251 
L 272.524581 -93.706743 
L 271.239365 -93.784103 
L 269.954148 -93.849433 
z
" style="stroke: #262626; stroke-width: 1.25"/>
    </defs>
    <g clip-path="url(#p59e262f4fd)">
     <use xlink:href="#m0ae0f7b8a5" x="0" y="345.6" style="fill: #701070; stroke: #262626; stroke-width: 1.25"/>
    </g>
   </g>
   <g id="PolyCollection_8">
    <defs>
     <path id="m346bd4a140" d="M 121.760455 -59.042444 
L 121.760455 -59.645525 
L 124.331772 -59.694187 
L 126.903089 -59.748535 
L 129.474406 -59.808826 
L 132.045723 -59.875257 
L 134.61704 -59.947947 
L 137.188358 -60.026926 
L 139.759675 -60.112121 
L 142.330992 -60.203347 
L 144.902309 -60.300295 
L 147.473626 -60.402523 
L 150.044944 -60.509457 
L 152.616261 -60.620387 
L 155.187578 -60.734469 
L 157.758895 -60.850737 
L 160.330212 -60.968108 
L 162.901529 -61.085406 
L 165.472847 -61.201375 
L 168.044164 -61.314711 
L 170.615481 -61.424085 
L 173.186798 -61.528179 
L 175.758115 -61.625714 
L 178.329432 -61.715494 
L 180.90075 -61.796432 
L 183.472067 -61.867592 
L 186.043384 -61.928218 
L 188.614701 -61.977768 
L 191.186018 -62.015938 
L 193.757336 -62.042682 
L 196.328653 -62.058232 
L 198.89997 -62.063106 
L 201.471287 -62.058107 
L 204.042604 -62.044324 
L 206.613921 -62.023117 
L 209.185239 -61.996099 
L 211.756556 -61.965109 
L 214.327873 -61.932181 
L 216.89919 -61.899502 
L 219.470507 -61.869374 
L 222.041825 -61.84416 
L 224.613142 -61.826236 
L 227.184459 -61.817936 
L 229.755776 -61.821496 
L 232.327093 -61.839 
L 234.89841 -61.872322 
L 237.469728 -61.923078 
L 240.041045 -61.992576 
L 242.612362 -62.081766 
L 245.183679 -62.191209 
L 247.754996 -62.321041 
L 250.326314 -62.470948 
L 252.897631 -62.640153 
L 255.468948 -62.827411 
L 258.040265 -63.031014 
L 260.611582 -63.248805 
L 263.182899 -63.478209 
L 265.754217 -63.71627 
L 268.325534 -63.959701 
L 270.896851 -64.204943 
L 273.468168 -64.448234 
L 276.039485 -64.685686 
L 278.610802 -64.913364 
L 281.18212 -65.127375 
L 283.753437 -65.323953 
L 286.324754 -65.499546 
L 288.896071 -65.650896 
L 291.467388 -65.775118 
L 294.038706 -65.869767 
L 296.610023 -65.932892 
L 299.18134 -65.963085 
L 301.752657 -65.95951 
L 304.323974 -65.921914 
L 306.895291 -65.850634 
L 309.466609 -65.746579 
L 312.037926 -65.611196 
L 314.609243 -65.446433 
L 317.18056 -65.254681 
L 319.751877 -65.038706 
L 322.323195 -64.80158 
L 324.894512 -64.5466 
L 327.465829 -64.277209 
L 330.037146 -63.996917 
L 332.608463 -63.709218 
L 335.17978 -63.417522 
L 337.751098 -63.125086 
L 340.322415 -62.834958 
L 342.893732 -62.549927 
L 345.465049 -62.272485 
L 348.036366 -62.004801 
L 350.607684 -61.748702 
L 353.179001 -61.505672 
L 355.750318 -61.276847 
L 358.321635 -61.063033 
L 360.892952 -60.864723 
L 363.464269 -60.68212 
L 366.035587 -60.515167 
L 368.606904 -60.363581 
L 371.178221 -60.226884 
L 373.749538 -60.104439 
L 376.320855 -59.995484 
L 376.320855 -58.692485 
L 376.320855 -58.692485 
L 373.749538 -58.58353 
L 371.178221 -58.461085 
L 368.606904 -58.324388 
L 366.035587 -58.172802 
L 363.464269 -58.005849 
L 360.892952 -57.823246 
L 358.321635 -57.624936 
L 355.750318 -57.411122 
L 353.179001 -57.182297 
L 350.607684 -56.939266 
L 348.036366 -56.683168 
L 345.465049 -56.415484 
L 342.893732 -56.138042 
L 340.322415 -55.85301 
L 337.751098 -55.562883 
L 335.17978 -55.270447 
L 332.608463 -54.978751 
L 330.037146 -54.691052 
L 327.465829 -54.410759 
L 324.894512 -54.141369 
L 322.323195 -53.886389 
L 319.751877 -53.649263 
L 317.18056 -53.433288 
L 314.609243 -53.241535 
L 312.037926 -53.076773 
L 309.466609 -52.94139 
L 306.895291 -52.837334 
L 304.323974 -52.766055 
L 301.752657 -52.728459 
L 299.18134 -52.724883 
L 296.610023 -52.755077 
L 294.038706 -52.818202 
L 291.467388 -52.912851 
L 288.896071 -53.037073 
L 286.324754 -53.188423 
L 283.753437 -53.364015 
L 281.18212 -53.560594 
L 278.610802 -53.774605 
L 276.039485 -54.002283 
L 273.468168 -54.239734 
L 270.896851 -54.483026 
L 268.325534 -54.728268 
L 265.754217 -54.971699 
L 263.182899 -55.20976 
L 260.611582 -55.439164 
L 258.040265 -55.656955 
L 255.468948 -55.860558 
L 252.897631 -56.047816 
L 250.326314 -56.217021 
L 247.754996 -56.366928 
L 245.183679 -56.49676 
L 242.612362 -56.606203 
L 240.041045 -56.695393 
L 237.469728 -56.76489 
L 234.89841 -56.815647 
L 232.327093 -56.848969 
L 229.755776 -56.866473 
L 227.184459 -56.870033 
L 224.613142 -56.861732 
L 222.041825 -56.843809 
L 219.470507 -56.818595 
L 216.89919 -56.788466 
L 214.327873 -56.755788 
L 211.756556 -56.722859 
L 209.185239 -56.691869 
L 206.613921 -56.664852 
L 204.042604 -56.643645 
L 201.471287 -56.629862 
L 198.89997 -56.624863 
L 196.328653 -56.629736 
L 193.757336 -56.645287 
L 191.186018 -56.672031 
L 188.614701 -56.7102 
L 186.043384 -56.759751 
L 183.472067 -56.820377 
L 180.90075 -56.891537 
L 178.329432 -56.972475 
L 175.758115 -57.062254 
L 173.186798 -57.15979 
L 170.615481 -57.263883 
L 168.044164 -57.373258 
L 165.472847 -57.486594 
L 162.901529 -57.602563 
L 160.330212 -57.71986 
L 157.758895 -57.837232 
L 155.187578 -57.953499 
L 152.616261 -58.067582 
L 150.044944 -58.178512 
L 147.473626 -58.285446 
L 144.902309 -58.387674 
L 142.330992 -58.484621 
L 139.759675 -58.575847 
L 137.188358 -58.661043 
L 134.61704 -58.740022 
L 132.045723 -58.812712 
L 129.474406 -58.879142 
L 126.903089 -58.939434 
L 124.331772 -58.993782 
L 121.760455 -59.042444 
z
" style="stroke: #262626; stroke-width: 1.25"/>
    </defs>
    <g clip-path="url(#p59e262f4fd)">
     <use xlink:href="#m346bd4a140" x="0" y="345.6" style="fill: #701070; stroke: #262626; stroke-width: 1.25"/>
    </g>
   </g>
   <g id="line2d_1">
    <path d="M 276.616006 42.880234 
L 398.710072 42.880234 
" clip-path="url(#p59e262f4fd)" style="fill: none; stroke: #262626; stroke-width: 1.875; stroke-linecap: round"/>
   </g>
   <g id="line2d_2">
    <path d="M 324.377853 42.880234 
L 356.375932 42.880234 
" clip-path="url(#p59e262f4fd)" style="fill: none; stroke: #262626; stroke-width: 5.625; stroke-linecap: round"/>
   </g>
   <g id="line2d_3">
    <path d="M 339.684787 42.880234 
" clip-path="url(#p59e262f4fd)" style="fill: none; stroke: #262626; stroke-width: 1.5; stroke-linecap: round"/>
    <defs>
     <path id="me968b8e461" d="M 0 2.34375 
L 0 -2.34375 
" style="stroke: #ffffff; stroke-width: 1.125"/>
    </defs>
    <g clip-path="url(#p59e262f4fd)">
     <use xlink:href="#me968b8e461" x="339.684787" y="42.880234" style="fill: #ffffff; stroke: #ffffff; stroke-width: 1.125"/>
    </g>
   </g>
   <g id="line2d_4">
    <path d="M 255.283039 77.648203 
L 376.938918 77.648203 
" clip-path="url(#p59e262f4fd)" style="fill: none; stroke: #262626; stroke-width: 1.875; stroke-linecap: round"/>
   </g>
   <g id="line2d_5">
    <path d="M 301.855364 77.648203 
L 333.547426 77.648203 
" clip-path="url(#p59e262f4fd)" style="fill: none; stroke: #262626; stroke-width: 5.625; stroke-linecap: round"/>
   </g>
   <g id="line2d_6">
    <path d="M 316.211339 77.648203 
" clip-path="url(#p59e262f4fd)" style="fill: none; stroke: #262626; stroke-width: 1.5; stroke-linecap: round"/>
    <g clip-path="url(#p59e262f4fd)">
     <use xlink:href="#me968b8e461" x="316.211339" y="77.648203" style="fill: #ffffff; stroke: #ffffff; stroke-width: 1.125"/>
    </g>
   </g>
   <g id="line2d_7">
    <path d="M 282.138589 112.416172 
L 363.231723 112.416172 
" clip-path="url(#p59e262f4fd)" style="fill: none; stroke: #262626; stroke-width: 1.875; stroke-linecap: round"/>
   </g>
   <g id="line2d_8">
    <path d="M 296.447949 112.416172 
L 334.249677 112.416172 
" clip-path="url(#p59e262f4fd)" style="fill: none; stroke: #262626; stroke-width: 5.625; stroke-linecap: round"/>
   </g>
   <g id="line2d_9">
    <path d="M 316.32212 112.416172 
" clip-path="url(#p59e262f4fd)" style="fill: none; stroke: #262626; stroke-width: 1.5; stroke-linecap: round"/>
    <g clip-path="url(#p59e262f4fd)">
     <use xlink:href="#me968b8e461" x="316.32212" y="112.416172" style="fill: #ffffff; stroke: #ffffff; stroke-width: 1.125"/>
    </g>
   </g>
   <g id="line2d_10">
    <path d="M 214.115935 147.184141 
L 384.384809 147.184141 
" clip-path="url(#p59e262f4fd)" style="fill: none; stroke: #262626; stroke-width: 1.875; stroke-linecap: round"/>
   </g>
   <g id="line2d_11">
    <path d="M 278.065753 147.184141 
L 326.357647 147.184141 
" clip-path="url(#p59e262f4fd)" style="fill: none; stroke: #262626; stroke-width: 5.625; stroke-linecap: round"/>
   </g>
   <g id="line2d_12">
    <path d="M 299.161254 147.184141 
" clip-path="url(#p59e262f4fd)" style="fill: none; stroke: #262626; stroke-width: 1.5; stroke-linecap: round"/>
    <g clip-path="url(#p59e262f4fd)">
     <use xlink:href="#me968b8e461" x="299.161254" y="147.184141" style="fill: #ffffff; stroke: #ffffff; stroke-width: 1.125"/>
    </g>
   </g>
   <g id="line2d_13">
    <path d="M 266.318334 181.952109 
L 398.710072 181.952109 
" clip-path="url(#p59e262f4fd)" style="fill: none; stroke: #262626; stroke-width: 1.875; stroke-linecap: round"/>
   </g>
   <g id="line2d_14">
    <path d="M 316.201331 181.952109 
L 352.441297 181.952109 
" clip-path="url(#p59e262f4fd)" style="fill: none; stroke: #262626; stroke-width: 5.625; stroke-linecap: round"/>
   </g>
   <g id="line2d_15">
    <path d="M 333.050558 181.952109 
" clip-path="url(#p59e262f4fd)" style="fill: none; stroke: #262626; stroke-width: 1.5; stroke-linecap: round"/>
    <g clip-path="url(#p59e262f4fd)">
     <use xlink:href="#me968b8e461" x="333.050558" y="181.952109" style="fill: #ffffff; stroke: #ffffff; stroke-width: 1.125"/>
    </g>
   </g>
   <g id="line2d_16">
    <path d="M 287.475807 216.720078 
L 395.579694 216.720078 
" clip-path="url(#p59e262f4fd)" style="fill: none; stroke: #262626; stroke-width: 1.875; stroke-linecap: round"/>
   </g>
   <g id="line2d_17">
    <path d="M 324.478625 216.720078 
L 355.937608 216.720078 
" clip-path="url(#p59e262f4fd)" style="fill: none; stroke: #262626; stroke-width: 5.625; stroke-linecap: round"/>
   </g>
   <g id="line2d_18">
    <path d="M 345.233421 216.720078 
" clip-path="url(#p59e262f4fd)" style="fill: none; stroke: #262626; stroke-width: 1.5; stroke-linecap: round"/>
    <g clip-path="url(#p59e262f4fd)">
     <use xlink:href="#me968b8e461" x="345.233421" y="216.720078" style="fill: #ffffff; stroke: #ffffff; stroke-width: 1.125"/>
    </g>
   </g>
   <g id="line2d_19">
    <path d="M 294.100165 251.488047 
L 373.044592 251.488047 
" clip-path="url(#p59e262f4fd)" style="fill: none; stroke: #262626; stroke-width: 1.875; stroke-linecap: round"/>
   </g>
   <g id="line2d_20">
    <path d="M 321.289292 251.488047 
L 345.110712 251.488047 
" clip-path="url(#p59e262f4fd)" style="fill: none; stroke: #262626; stroke-width: 5.625; stroke-linecap: round"/>
   </g>
   <g id="line2d_21">
    <path d="M 335.664873 251.488047 
" clip-path="url(#p59e262f4fd)" style="fill: none; stroke: #262626; stroke-width: 1.5; stroke-linecap: round"/>
    <g clip-path="url(#p59e262f4fd)">
     <use xlink:href="#me968b8e461" x="335.664873" y="251.488047" style="fill: #ffffff; stroke: #ffffff; stroke-width: 1.125"/>
    </g>
   </g>
   <g id="line2d_22">
    <path d="M 191.801846 286.256016 
L 306.279464 286.256016 
" clip-path="url(#p59e262f4fd)" style="fill: none; stroke: #262626; stroke-width: 1.875; stroke-linecap: round"/>
   </g>
   <g id="line2d_23">
    <path d="M 247.689898 286.256016 
L 300.255076 286.256016 
" clip-path="url(#p59e262f4fd)" style="fill: none; stroke: #262626; stroke-width: 5.625; stroke-linecap: round"/>
   </g>
   <g id="line2d_24">
    <path d="M 299.43848 286.256016 
" clip-path="url(#p59e262f4fd)" style="fill: none; stroke: #262626; stroke-width: 1.5; stroke-linecap: round"/>
    <g clip-path="url(#p59e262f4fd)">
     <use xlink:href="#me968b8e461" x="299.43848" y="286.256016" style="fill: #ffffff; stroke: #ffffff; stroke-width: 1.125"/>
    </g>
   </g>
   <g id="patch_3">
    <path d="M 106.13 303.64 
L 106.13 25.49625 
" style="fill: none; stroke: #ffffff; stroke-width: 0.8; stroke-linejoin: miter; stroke-linecap: square"/>
   </g>
   <g id="patch_4">
    <path d="M 450 303.64 
L 450 25.49625 
" style="fill: none; stroke: #ffffff; stroke-width: 0.8; stroke-linejoin: miter; stroke-linecap: square"/>
   </g>
   <g id="patch_5">
    <path d="M 106.13 303.64 
L 450 303.64 
" style="fill: none; stroke: #ffffff; stroke-width: 0.8; stroke-linejoin: miter; stroke-linecap: square"/>
   </g>
   <g id="patch_6">
    <path d="M 106.13 25.49625 
L 450 25.49625 
" style="fill: none; stroke: #ffffff; stroke-width: 0.8; stroke-linejoin: miter; stroke-linecap: square"/>
   </g>
   <g id="text_17">
    <!-- Game type vs Rating -->
    <g style="fill: #262626" transform="translate(222.04375 19.49625) scale(0.12 -0.12)">
     <defs>
      <path id="ArialMT-76" d="M 1344 0 
L 81 3319 
L 675 3319 
L 1388 1331 
Q 1503 1009 1600 663 
Q 1675 925 1809 1294 
L 2547 3319 
L 3125 3319 
L 1869 0 
L 1344 0 
z
" transform="scale(0.015625)"/>
     </defs>
     <use xlink:href="#ArialMT-47"/>
     <use xlink:href="#ArialMT-61" x="77.783203"/>
     <use xlink:href="#ArialMT-6d" x="133.398438"/>
     <use xlink:href="#ArialMT-65" x="216.699219"/>
     <use xlink:href="#ArialMT-20" x="272.314453"/>
     <use xlink:href="#ArialMT-74" x="300.097656"/>
     <use xlink:href="#ArialMT-79" x="327.880859"/>
     <use xlink:href="#ArialMT-70" x="377.880859"/>
     <use xlink:href="#ArialMT-65" x="433.496094"/>
     <use xlink:href="#ArialMT-20" x="489.111328"/>
     <use xlink:href="#ArialMT-76" x="516.894531"/>
     <use xlink:href="#ArialMT-73" x="566.894531"/>
     <use xlink:href="#ArialMT-20" x="616.894531"/>
     <use xlink:href="#ArialMT-52" x="644.677734"/>
     <use xlink:href="#ArialMT-61" x="716.894531"/>
     <use xlink:href="#ArialMT-74" x="772.509766"/>
     <use xlink:href="#ArialMT-69" x="800.292969"/>
     <use xlink:href="#ArialMT-6e" x="822.509766"/>
     <use xlink:href="#ArialMT-67" x="878.125"/>
    </g>
   </g>
  </g>
 </g>
 <defs>
  <clipPath id="p59e262f4fd">
   <rect x="106.13" y="25.49625" width="343.87" height="278.14375"/>
  </clipPath>
 </defs>
</svg>
