<?xml version="1.0" encoding="utf-8" standalone="no"?>
<!DOCTYPE svg PUBLIC "-//W3C//DTD SVG 1.1//EN"
  "http://www.w3.org/Graphics/SVG/1.1/DTD/svg11.dtd">
<svg xmlns:xlink="http://www.w3.org/1999/xlink" width="460.8pt" height="345.6pt" viewBox="0 0 460.8 345.6" xmlns="http://www.w3.org/2000/svg" version="1.1">
 <metadata>
  <rdf:RDF xmlns:dc="http://purl.org/dc/elements/1.1/" xmlns:cc="http://creativecommons.org/ns#" xmlns:rdf="http://www.w3.org/1999/02/22-rdf-syntax-ns#">
   <cc:Work>
    <dc:type rdf:resource="http://purl.org/dc/dcmitype/StillImage"/>
    <dc:date>2024-09-04T21:36:43.645543</dc:date>
    <dc:format>image/svg+xml</dc:format>
    <dc:creator>
     <cc:Agent>
      <dc:title>Matplotlib v3.9.2, https://matplotlib.org/</dc:title>
     </cc:Agent>
    </dc:creator>
   </cc:Work>
  </rdf:RDF>
 </metadata>
 <defs>
  <style type="text/css">*{stroke-linejoin: round; stroke-linecap: butt}</style>
 </defs>
 <g id="figure_1">
  <g id="patch_1">
   <path d="M 0 345.6 
L 460.8 345.6 
L 460.8 0 
L 0 0 
z
" style="fill: #ffffff"/>
  </g>
  <g id="axes_1">
   <g id="patch_2">
    <path d="M 106.13 303.64 
L 450 303.64 
L 450 25.49625 
L 106.13 25.49625 
z
" style="fill: #eaeaf2"/>
   </g>
   <g id="matplotlib.axis_1">
    <g id="xtick_1">
     <g id="text_1">
      <!-- 4 -->
      <g style="fill: #262626" transform="translate(143.765739 317.797812) scale(0.1 -0.1)">
       <defs>
        <path id="ArialMT-34" d="M 2069 0 
L 2069 1097 
L 81 1097 
L 81 1613 
L 2172 4581 
L 2631 4581 
L 2631 1613 
L 3250 1613 
L 3250 1097 
L 2631 1097 
L 2631 0 
L 2069 0 
z
M 2069 1613 
L 2069 3678 
L 634 1613 
L 2069 1613 
z
" transform="scale(0.015625)"/>
       </defs>
       <use xlink:href="#ArialMT-34"/>
      </g>
     </g>
    </g>
    <g id="xtick_2">
     <g id="text_2">
      <!-- 5 -->
      <g style="fill: #262626" transform="translate(198.702343 317.797812) scale(0.1 -0.1)">
       <defs>
        <path id="ArialMT-35" d="M 266 1200 
L 856 1250 
Q 922 819 1161 601 
Q 1400 384 1738 384 
Q 2144 384 2425 690 
Q 2706 997 2706 1503 
Q 2706 1984 2436 2262 
Q 2166 2541 1728 2541 
Q 1456 2541 1237 2417 
Q 1019 2294 894 2097 
L 366 2166 
L 809 4519 
L 3088 4519 
L 3088 3981 
L 1259 3981 
L 1013 2750 
Q 1425 3038 1878 3038 
Q 2478 3038 2890 2622 
Q 3303 2206 3303 1553 
Q 3303 931 2941 478 
Q 2500 -78 1738 -78 
Q 1113 -78 717 272 
Q 322 622 266 1200 
z
" transform="scale(0.015625)"/>
       </defs>
       <use xlink:href="#ArialMT-35"/>
      </g>
     </g>
    </g>
    <g id="xtick_3">
     <g id="text_3">
      <!-- 6 -->
      <g style="fill: #262626" transform="translate(253.638947 317.797812) scale(0.1 -0.1)">
       <defs>
        <path id="ArialMT-36" d="M 3184 3459 
L 2625 3416 
Q 2550 3747 2413 3897 
Q 2184 4138 1850 4138 
Q 1581 4138 1378 3988 
Q 1113 3794 959 3422 
Q 806 3050 800 2363 
Q 1003 2672 1297 2822 
Q 1591 2972 1913 2972 
Q 2475 2972 2870 2558 
Q 3266 2144 3266 1488 
Q 3266 1056 3080 686 
Q 2894 316 2569 119 
Q 2244 -78 1831 -78 
Q 1128 -78 684 439 
Q 241 956 241 2144 
Q 241 3472 731 4075 
Q 1159 4600 1884 4600 
Q 2425 4600 2770 4297 
Q 3116 3994 3184 3459 
z
M 888 1484 
Q 888 1194 1011 928 
Q 1134 663 1356 523 
Q 1578 384 1822 384 
Q 2178 384 2434 671 
Q 2691 959 2691 1453 
Q 2691 1928 2437 2201 
Q 2184 2475 1800 2475 
Q 1419 2475 1153 2201 
Q 888 1928 888 1484 
z
" transform="scale(0.015625)"/>
       </defs>
       <use xlink:href="#ArialMT-36"/>
      </g>
     </g>
    </g>
    <g id="xtick_4">
     <g id="text_4">
      <!-- 7 -->
      <g style="fill: #262626" transform="translate(308.575551 317.797812) scale(0.1 -0.1)">
       <defs>
        <path id="ArialMT-37" d="M 303 3981 
L 303 4522 
L 3269 4522 
L 3269 4084 
Q 2831 3619 2401 2847 
Q 1972 2075 1738 1259 
Q 1569 684 1522 0 
L 944 0 
Q 953 541 1156 1306 
Q 1359 2072 1739 2783 
Q 2119 3494 2547 3981 
L 303 3981 
z
" transform="scale(0.015625)"/>
       </defs>
       <use xlink:href="#ArialMT-37"/>
      </g>
     </g>
    </g>
    <g id="xtick_5">
     <g id="text_5">
      <!-- 8 -->
      <g style="fill: #262626" transform="translate(363.512154 317.797812) scale(0.1 -0.1)">
       <defs>
        <path id="ArialMT-38" d="M 1131 2484 
Q 781 2613 612 2850 
Q 444 3088 444 3419 
Q 444 3919 803 4259 
Q 1163 4600 1759 4600 
Q 2359 4600 2725 4251 
Q 3091 3903 3091 3403 
Q 3091 3084 2923 2848 
Q 2756 2613 2416 2484 
Q 2838 2347 3058 2040 
Q 3278 1734 3278 1309 
Q 3278 722 2862 322 
Q 2447 -78 1769 -78 
Q 1091 -78 675 323 
Q 259 725 259 1325 
Q 259 1772 486 2073 
Q 713 2375 1131 2484 
z
M 1019 3438 
Q 1019 3113 1228 2906 
Q 1438 2700 1772 2700 
Q 2097 2700 2305 2904 
Q 2513 3109 2513 3406 
Q 2513 3716 2298 3927 
Q 2084 4138 1766 4138 
Q 1444 4138 1231 3931 
Q 1019 3725 1019 3438 
z
M 838 1322 
Q 838 1081 952 856 
Q 1066 631 1291 507 
Q 1516 384 1775 384 
Q 2178 384 2440 643 
Q 2703 903 2703 1303 
Q 2703 1709 2433 1975 
Q 2163 2241 1756 2241 
Q 1359 2241 1098 1978 
Q 838 1716 838 1322 
z
" transform="scale(0.015625)"/>
       </defs>
       <use xlink:href="#ArialMT-38"/>
      </g>
     </g>
    </g>
    <g id="xtick_6">
     <g id="text_6">
      <!-- 9 -->
      <g style="fill: #262626" transform="translate(418.448758 317.797812) scale(0.1 -0.1)">
       <defs>
        <path id="ArialMT-39" d="M 350 1059 
L 891 1109 
Q 959 728 1153 556 
Q 1347 384 1650 384 
Q 1909 384 2104 503 
Q 2300 622 2425 820 
Q 2550 1019 2634 1356 
Q 2719 1694 2719 2044 
Q 2719 2081 2716 2156 
Q 2547 1888 2255 1720 
Q 1963 1553 1622 1553 
Q 1053 1553 659 1965 
Q 266 2378 266 3053 
Q 266 3750 677 4175 
Q 1088 4600 1706 4600 
Q 2153 4600 2523 4359 
Q 2894 4119 3086 3673 
Q 3278 3228 3278 2384 
Q 3278 1506 3087 986 
Q 2897 466 2520 194 
Q 2144 -78 1638 -78 
Q 1100 -78 759 220 
Q 419 519 350 1059 
z
M 2653 3081 
Q 2653 3566 2395 3850 
Q 2138 4134 1775 4134 
Q 1400 4134 1122 3828 
Q 844 3522 844 3034 
Q 844 2597 1108 2323 
Q 1372 2050 1759 2050 
Q 2150 2050 2401 2323 
Q 2653 2597 2653 3081 
z
" transform="scale(0.015625)"/>
       </defs>
       <use xlink:href="#ArialMT-39"/>
      </g>
     </g>
    </g>
    <g id="text_7">
     <!-- Rating -->
     <g style="fill: #262626" transform="translate(263.612656 330.943125) scale(0.1 -0.1)">
      <defs>
       <path id="ArialMT-52" d="M 503 0 
L 503 4581 
L 2534 4581 
Q 3147 4581 3465 4457 
Q 3784 4334 3975 4021 
Q 4166 3709 4166 3331 
Q 4166 2844 3850 2509 
Q 3534 2175 2875 2084 
Q 3116 1969 3241 1856 
Q 3506 1613 3744 1247 
L 4541 0 
L 3778 0 
L 3172 953 
Q 2906 1366 2734 1584 
Q 2563 1803 2427 1890 
Q 2291 1978 2150 2013 
Q 2047 2034 1813 2034 
L 1109 2034 
L 1109 0 
L 503 0 
z
M 1109 2559 
L 2413 2559 
Q 2828 2559 3062 2645 
Q 3297 2731 3419 2920 
Q 3541 3109 3541 3331 
Q 3541 3656 3305 3865 
Q 3069 4075 2559 4075 
L 1109 4075 
L 1109 2559 
z
" transform="scale(0.015625)"/>
       <path id="ArialMT-61" d="M 2588 409 
Q 2275 144 1986 34 
Q 1697 -75 1366 -75 
Q 819 -75 525 192 
Q 231 459 231 875 
Q 231 1119 342 1320 
Q 453 1522 633 1644 
Q 813 1766 1038 1828 
Q 1203 1872 1538 1913 
Q 2219 1994 2541 2106 
Q 2544 2222 2544 2253 
Q 2544 2597 2384 2738 
Q 2169 2928 1744 2928 
Q 1347 2928 1158 2789 
Q 969 2650 878 2297 
L 328 2372 
Q 403 2725 575 2942 
Q 747 3159 1072 3276 
Q 1397 3394 1825 3394 
Q 2250 3394 2515 3294 
Q 2781 3194 2906 3042 
Q 3031 2891 3081 2659 
Q 3109 2516 3109 2141 
L 3109 1391 
Q 3109 606 3145 398 
Q 3181 191 3288 0 
L 2700 0 
Q 2613 175 2588 409 
z
M 2541 1666 
Q 2234 1541 1622 1453 
Q 1275 1403 1131 1340 
Q 988 1278 909 1158 
Q 831 1038 831 891 
Q 831 666 1001 516 
Q 1172 366 1500 366 
Q 1825 366 2078 508 
Q 2331 650 2450 897 
Q 2541 1088 2541 1459 
L 2541 1666 
z
" transform="scale(0.015625)"/>
       <path id="ArialMT-74" d="M 1650 503 
L 1731 6 
Q 1494 -44 1306 -44 
Q 1000 -44 831 53 
Q 663 150 594 308 
Q 525 466 525 972 
L 525 2881 
L 113 2881 
L 113 3319 
L 525 3319 
L 525 4141 
L 1084 4478 
L 1084 3319 
L 1650 3319 
L 1650 2881 
L 1084 2881 
L 1084 941 
Q 1084 700 1114 631 
Q 1144 563 1211 522 
Q 1278 481 1403 481 
Q 1497 481 1650 503 
z
" transform="scale(0.015625)"/>
       <path id="ArialMT-69" d="M 425 3934 
L 425 4581 
L 988 4581 
L 988 3934 
L 425 3934 
z
M 425 0 
L 425 3319 
L 988 3319 
L 988 0 
L 425 0 
z
" transform="scale(0.015625)"/>
       <path id="ArialMT-6e" d="M 422 0 
L 422 3319 
L 928 3319 
L 928 2847 
Q 1294 3394 1984 3394 
Q 2284 3394 2536 3286 
Q 2788 3178 2913 3003 
Q 3038 2828 3088 2588 
Q 3119 2431 3119 2041 
L 3119 0 
L 2556 0 
L 2556 2019 
Q 2556 2363 2490 2533 
Q 2425 2703 2258 2804 
Q 2091 2906 1866 2906 
Q 1506 2906 1245 2678 
Q 984 2450 984 1813 
L 984 0 
L 422 0 
z
" transform="scale(0.015625)"/>
       <path id="ArialMT-67" d="M 319 -275 
L 866 -356 
Q 900 -609 1056 -725 
Q 1266 -881 1628 -881 
Q 2019 -881 2231 -725 
Q 2444 -569 2519 -288 
Q 2563 -116 2559 434 
Q 2191 0 1641 0 
Q 956 0 581 494 
Q 206 988 206 1678 
Q 206 2153 378 2554 
Q 550 2956 876 3175 
Q 1203 3394 1644 3394 
Q 2231 3394 2613 2919 
L 2613 3319 
L 3131 3319 
L 3131 450 
Q 3131 -325 2973 -648 
Q 2816 -972 2473 -1159 
Q 2131 -1347 1631 -1347 
Q 1038 -1347 672 -1080 
Q 306 -813 319 -275 
z
M 784 1719 
Q 784 1066 1043 766 
Q 1303 466 1694 466 
Q 2081 466 2343 764 
Q 2606 1063 2606 1700 
Q 2606 2309 2336 2618 
Q 2066 2928 1684 2928 
Q 1309 2928 1046 2623 
Q 784 2319 784 1719 
z
" transform="scale(0.015625)"/>
      </defs>
      <use xlink:href="#ArialMT-52"/>
      <use xlink:href="#ArialMT-61" x="72.216797"/>
      <use xlink:href="#ArialMT-74" x="127.832031"/>
      <use xlink:href="#ArialMT-69" x="155.615234"/>
      <use xlink:href="#ArialMT-6e" x="177.832031"/>
      <use xlink:href="#ArialMT-67" x="233.447266"/>
     </g>
    </g>
   </g>
   <g id="matplotlib.axis_2">
    <g id="ytick_1">
     <g id="text_8">
      <!-- Strategy Game -->
      <g style="fill: #262626" transform="translate(31.883125 46.520078) scale(0.1 -0.1)">
       <defs>
        <path id="ArialMT-53" d="M 288 1472 
L 859 1522 
Q 900 1178 1048 958 
Q 1197 738 1509 602 
Q 1822 466 2213 466 
Q 2559 466 2825 569 
Q 3091 672 3220 851 
Q 3350 1031 3350 1244 
Q 3350 1459 3225 1620 
Q 3100 1781 2813 1891 
Q 2628 1963 1997 2114 
Q 1366 2266 1113 2400 
Q 784 2572 623 2826 
Q 463 3081 463 3397 
Q 463 3744 659 4045 
Q 856 4347 1234 4503 
Q 1613 4659 2075 4659 
Q 2584 4659 2973 4495 
Q 3363 4331 3572 4012 
Q 3781 3694 3797 3291 
L 3216 3247 
Q 3169 3681 2898 3903 
Q 2628 4125 2100 4125 
Q 1550 4125 1298 3923 
Q 1047 3722 1047 3438 
Q 1047 3191 1225 3031 
Q 1400 2872 2139 2705 
Q 2878 2538 3153 2413 
Q 3553 2228 3743 1945 
Q 3934 1663 3934 1294 
Q 3934 928 3725 604 
Q 3516 281 3123 101 
Q 2731 -78 2241 -78 
Q 1619 -78 1198 103 
Q 778 284 539 648 
Q 300 1013 288 1472 
z
" transform="scale(0.015625)"/>
        <path id="ArialMT-72" d="M 416 0 
L 416 3319 
L 922 3319 
L 922 2816 
Q 1116 3169 1280 3281 
Q 1444 3394 1641 3394 
Q 1925 3394 2219 3213 
L 2025 2691 
Q 1819 2813 1613 2813 
Q 1428 2813 1281 2702 
Q 1134 2591 1072 2394 
Q 978 2094 978 1738 
L 978 0 
L 416 0 
z
" transform="scale(0.015625)"/>
        <path id="ArialMT-65" d="M 2694 1069 
L 3275 997 
Q 3138 488 2766 206 
Q 2394 -75 1816 -75 
Q 1088 -75 661 373 
Q 234 822 234 1631 
Q 234 2469 665 2931 
Q 1097 3394 1784 3394 
Q 2450 3394 2872 2941 
Q 3294 2488 3294 1666 
Q 3294 1616 3291 1516 
L 816 1516 
Q 847 969 1125 678 
Q 1403 388 1819 388 
Q 2128 388 2347 550 
Q 2566 713 2694 1069 
z
M 847 1978 
L 2700 1978 
Q 2663 2397 2488 2606 
Q 2219 2931 1791 2931 
Q 1403 2931 1139 2672 
Q 875 2413 847 1978 
z
" transform="scale(0.015625)"/>
        <path id="ArialMT-79" d="M 397 -1278 
L 334 -750 
Q 519 -800 656 -800 
Q 844 -800 956 -737 
Q 1069 -675 1141 -563 
Q 1194 -478 1313 -144 
Q 1328 -97 1363 -6 
L 103 3319 
L 709 3319 
L 1400 1397 
Q 1534 1031 1641 628 
Q 1738 1016 1872 1384 
L 2581 3319 
L 3144 3319 
L 1881 -56 
Q 1678 -603 1566 -809 
Q 1416 -1088 1222 -1217 
Q 1028 -1347 759 -1347 
Q 597 -1347 397 -1278 
z
" transform="scale(0.015625)"/>
        <path id="ArialMT-20" transform="scale(0.015625)"/>
        <path id="ArialMT-47" d="M 2638 1797 
L 2638 2334 
L 4578 2338 
L 4578 638 
Q 4131 281 3656 101 
Q 3181 -78 2681 -78 
Q 2006 -78 1454 211 
Q 903 500 622 1047 
Q 341 1594 341 2269 
Q 341 2938 620 3517 
Q 900 4097 1425 4378 
Q 1950 4659 2634 4659 
Q 3131 4659 3532 4498 
Q 3934 4338 4162 4050 
Q 4391 3763 4509 3300 
L 3963 3150 
Q 3859 3500 3706 3700 
Q 3553 3900 3268 4020 
Q 2984 4141 2638 4141 
Q 2222 4141 1919 4014 
Q 1616 3888 1430 3681 
Q 1244 3475 1141 3228 
Q 966 2803 966 2306 
Q 966 1694 1177 1281 
Q 1388 869 1791 669 
Q 2194 469 2647 469 
Q 3041 469 3416 620 
Q 3791 772 3984 944 
L 3984 1797 
L 2638 1797 
z
" transform="scale(0.015625)"/>
        <path id="ArialMT-6d" d="M 422 0 
L 422 3319 
L 925 3319 
L 925 2853 
Q 1081 3097 1340 3245 
Q 1600 3394 1931 3394 
Q 2300 3394 2536 3241 
Q 2772 3088 2869 2813 
Q 3263 3394 3894 3394 
Q 4388 3394 4653 3120 
Q 4919 2847 4919 2278 
L 4919 0 
L 4359 0 
L 4359 2091 
Q 4359 2428 4304 2576 
Q 4250 2725 4106 2815 
Q 3963 2906 3769 2906 
Q 3419 2906 3187 2673 
Q 2956 2441 2956 1928 
L 2956 0 
L 2394 0 
L 2394 2156 
Q 2394 2531 2256 2718 
Q 2119 2906 1806 2906 
Q 1569 2906 1367 2781 
Q 1166 2656 1075 2415 
Q 984 2175 984 1722 
L 984 0 
L 422 0 
z
" transform="scale(0.015625)"/>
       </defs>
       <use xlink:href="#ArialMT-53"/>
       <use xlink:href="#ArialMT-74" x="66.699219"/>
       <use xlink:href="#ArialMT-72" x="94.482422"/>
       <use xlink:href="#ArialMT-61" x="127.783203"/>
       <use xlink:href="#ArialMT-74" x="183.398438"/>
       <use xlink:href="#ArialMT-65" x="211.181641"/>
       <use xlink:href="#ArialMT-67" x="266.796875"/>
       <use xlink:href="#ArialMT-79" x="322.412109"/>
       <use xlink:href="#ArialMT-20" x="372.412109"/>
       <use xlink:href="#ArialMT-47" x="400.195312"/>
       <use xlink:href="#ArialMT-61" x="477.978516"/>
       <use xlink:href="#ArialMT-6d" x="533.59375"/>
       <use xlink:href="#ArialMT-65" x="616.894531"/>
      </g>
     </g>
    </g>
    <g id="ytick_2">
     <g id="text_9">
      <!-- Family Game -->
      <g style="fill: #262626" transform="translate(39.68 81.288047) scale(0.1 -0.1)">
       <defs>
        <path id="ArialMT-46" d="M 525 0 
L 525 4581 
L 3616 4581 
L 3616 4041 
L 1131 4041 
L 1131 2622 
L 3281 2622 
L 3281 2081 
L 1131 2081 
L 1131 0 
L 525 0 
z
" transform="scale(0.015625)"/>
        <path id="ArialMT-6c" d="M 409 0 
L 409 4581 
L 972 4581 
L 972 0 
L 409 0 
z
" transform="scale(0.015625)"/>
       </defs>
       <use xlink:href="#ArialMT-46"/>
       <use xlink:href="#ArialMT-61" x="61.083984"/>
       <use xlink:href="#ArialMT-6d" x="116.699219"/>
       <use xlink:href="#ArialMT-69" x="200"/>
       <use xlink:href="#ArialMT-6c" x="222.216797"/>
       <use xlink:href="#ArialMT-79" x="244.433594"/>
       <use xlink:href="#ArialMT-20" x="294.433594"/>
       <use xlink:href="#ArialMT-47" x="322.216797"/>
       <use xlink:href="#ArialMT-61" x="400"/>
       <use xlink:href="#ArialMT-6d" x="455.615234"/>
       <use xlink:href="#ArialMT-65" x="538.916016"/>
      </g>
     </g>
    </g>
    <g id="ytick_3">
     <g id="text_10">
      <!-- Abstract Game -->
      <g style="fill: #262626" transform="translate(32.444063 115.995078) scale(0.1 -0.1)">
       <defs>
        <path id="ArialMT-41" d="M -9 0 
L 1750 4581 
L 2403 4581 
L 4278 0 
L 3588 0 
L 3053 1388 
L 1138 1388 
L 634 0 
L -9 0 
z
M 1313 1881 
L 2866 1881 
L 2388 3150 
Q 2169 3728 2063 4100 
Q 1975 3659 1816 3225 
L 1313 1881 
z
" transform="scale(0.015625)"/>
        <path id="ArialMT-62" d="M 941 0 
L 419 0 
L 419 4581 
L 981 4581 
L 981 2947 
Q 1338 3394 1891 3394 
Q 2197 3394 2470 3270 
Q 2744 3147 2920 2923 
Q 3097 2700 3197 2384 
Q 3297 2069 3297 1709 
Q 3297 856 2875 390 
Q 2453 -75 1863 -75 
Q 1275 -75 941 416 
L 941 0 
z
M 934 1684 
Q 934 1088 1097 822 
Q 1363 388 1816 388 
Q 2184 388 2453 708 
Q 2722 1028 2722 1663 
Q 2722 2313 2464 2622 
Q 2206 2931 1841 2931 
Q 1472 2931 1203 2611 
Q 934 2291 934 1684 
z
" transform="scale(0.015625)"/>
        <path id="ArialMT-73" d="M 197 991 
L 753 1078 
Q 800 744 1014 566 
Q 1228 388 1613 388 
Q 2000 388 2187 545 
Q 2375 703 2375 916 
Q 2375 1106 2209 1216 
Q 2094 1291 1634 1406 
Q 1016 1563 777 1677 
Q 538 1791 414 1992 
Q 291 2194 291 2438 
Q 291 2659 392 2848 
Q 494 3038 669 3163 
Q 800 3259 1026 3326 
Q 1253 3394 1513 3394 
Q 1903 3394 2198 3281 
Q 2494 3169 2634 2976 
Q 2775 2784 2828 2463 
L 2278 2388 
Q 2241 2644 2061 2787 
Q 1881 2931 1553 2931 
Q 1166 2931 1000 2803 
Q 834 2675 834 2503 
Q 834 2394 903 2306 
Q 972 2216 1119 2156 
Q 1203 2125 1616 2013 
Q 2213 1853 2448 1751 
Q 2684 1650 2818 1456 
Q 2953 1263 2953 975 
Q 2953 694 2789 445 
Q 2625 197 2315 61 
Q 2006 -75 1616 -75 
Q 969 -75 630 194 
Q 291 463 197 991 
z
" transform="scale(0.015625)"/>
        <path id="ArialMT-63" d="M 2588 1216 
L 3141 1144 
Q 3050 572 2676 248 
Q 2303 -75 1759 -75 
Q 1078 -75 664 370 
Q 250 816 250 1647 
Q 250 2184 428 2587 
Q 606 2991 970 3192 
Q 1334 3394 1763 3394 
Q 2303 3394 2647 3120 
Q 2991 2847 3088 2344 
L 2541 2259 
Q 2463 2594 2264 2762 
Q 2066 2931 1784 2931 
Q 1359 2931 1093 2626 
Q 828 2322 828 1663 
Q 828 994 1084 691 
Q 1341 388 1753 388 
Q 2084 388 2306 591 
Q 2528 794 2588 1216 
z
" transform="scale(0.015625)"/>
       </defs>
       <use xlink:href="#ArialMT-41"/>
       <use xlink:href="#ArialMT-62" x="66.699219"/>
       <use xlink:href="#ArialMT-73" x="122.314453"/>
       <use xlink:href="#ArialMT-74" x="172.314453"/>
       <use xlink:href="#ArialMT-72" x="200.097656"/>
       <use xlink:href="#ArialMT-61" x="233.398438"/>
       <use xlink:href="#ArialMT-63" x="289.013672"/>
       <use xlink:href="#ArialMT-74" x="339.013672"/>
       <use xlink:href="#ArialMT-20" x="366.796875"/>
       <use xlink:href="#ArialMT-47" x="394.580078"/>
       <use xlink:href="#ArialMT-61" x="472.363281"/>
       <use xlink:href="#ArialMT-6d" x="527.978516"/>
       <use xlink:href="#ArialMT-65" x="611.279297"/>
      </g>
     </g>
    </g>
    <g id="ytick_4">
     <g id="text_11">
      <!-- Party Game -->
      <g style="fill: #262626" transform="translate(45.783125 150.823984) scale(0.1 -0.1)">
       <defs>
        <path id="ArialMT-50" d="M 494 0 
L 494 4581 
L 2222 4581 
Q 2678 4581 2919 4538 
Q 3256 4481 3484 4323 
Q 3713 4166 3852 3881 
Q 3991 3597 3991 3256 
Q 3991 2672 3619 2267 
Q 3247 1863 2275 1863 
L 1100 1863 
L 1100 0 
L 494 0 
z
M 1100 2403 
L 2284 2403 
Q 2872 2403 3119 2622 
Q 3366 2841 3366 3238 
Q 3366 3525 3220 3729 
Q 3075 3934 2838 4000 
Q 2684 4041 2272 4041 
L 1100 4041 
L 1100 2403 
z
" transform="scale(0.015625)"/>
       </defs>
       <use xlink:href="#ArialMT-50"/>
       <use xlink:href="#ArialMT-61" x="66.699219"/>
       <use xlink:href="#ArialMT-72" x="122.314453"/>
       <use xlink:href="#ArialMT-74" x="155.615234"/>
       <use xlink:href="#ArialMT-79" x="183.398438"/>
       <use xlink:href="#ArialMT-20" x="233.398438"/>
       <use xlink:href="#ArialMT-47" x="261.181641"/>
       <use xlink:href="#ArialMT-61" x="338.964844"/>
       <use xlink:href="#ArialMT-6d" x="394.580078"/>
       <use xlink:href="#ArialMT-65" x="477.880859"/>
      </g>
     </g>
    </g>
    <g id="ytick_5">
     <g id="text_12">
      <!-- Thematic -->
      <g style="fill: #262626" transform="translate(58.009688 185.531016) scale(0.1 -0.1)">
       <defs>
        <path id="ArialMT-54" d="M 1659 0 
L 1659 4041 
L 150 4041 
L 150 4581 
L 3781 4581 
L 3781 4041 
L 2266 4041 
L 2266 0 
L 1659 0 
z
" transform="scale(0.015625)"/>
        <path id="ArialMT-68" d="M 422 0 
L 422 4581 
L 984 4581 
L 984 2938 
Q 1378 3394 1978 3394 
Q 2347 3394 2619 3248 
Q 2891 3103 3008 2847 
Q 3125 2591 3125 2103 
L 3125 0 
L 2563 0 
L 2563 2103 
Q 2563 2525 2380 2717 
Q 2197 2909 1863 2909 
Q 1613 2909 1392 2779 
Q 1172 2650 1078 2428 
Q 984 2206 984 1816 
L 984 0 
L 422 0 
z
" transform="scale(0.015625)"/>
       </defs>
       <use xlink:href="#ArialMT-54"/>
       <use xlink:href="#ArialMT-68" x="61.083984"/>
       <use xlink:href="#ArialMT-65" x="116.699219"/>
       <use xlink:href="#ArialMT-6d" x="172.314453"/>
       <use xlink:href="#ArialMT-61" x="255.615234"/>
       <use xlink:href="#ArialMT-74" x="311.230469"/>
       <use xlink:href="#ArialMT-69" x="339.013672"/>
       <use xlink:href="#ArialMT-63" x="361.230469"/>
      </g>
     </g>
    </g>
    <g id="ytick_6">
     <g id="text_13">
      <!-- War Game -->
      <g style="fill: #262626" transform="translate(51.1675 220.298984) scale(0.1 -0.1)">
       <defs>
        <path id="ArialMT-57" d="M 1294 0 
L 78 4581 
L 700 4581 
L 1397 1578 
Q 1509 1106 1591 641 
Q 1766 1375 1797 1488 
L 2669 4581 
L 3400 4581 
L 4056 2263 
Q 4303 1400 4413 641 
Q 4500 1075 4641 1638 
L 5359 4581 
L 5969 4581 
L 4713 0 
L 4128 0 
L 3163 3491 
Q 3041 3928 3019 4028 
Q 2947 3713 2884 3491 
L 1913 0 
L 1294 0 
z
" transform="scale(0.015625)"/>
       </defs>
       <use xlink:href="#ArialMT-57"/>
       <use xlink:href="#ArialMT-61" x="90.634766"/>
       <use xlink:href="#ArialMT-72" x="146.25"/>
       <use xlink:href="#ArialMT-20" x="179.550781"/>
       <use xlink:href="#ArialMT-47" x="207.333984"/>
       <use xlink:href="#ArialMT-61" x="285.117188"/>
       <use xlink:href="#ArialMT-6d" x="340.732422"/>
       <use xlink:href="#ArialMT-65" x="424.033203"/>
      </g>
     </g>
    </g>
    <g id="ytick_7">
     <g id="text_14">
      <!-- Customizable -->
      <g style="fill: #262626" transform="translate(38.551875 255.066953) scale(0.1 -0.1)">
       <defs>
        <path id="ArialMT-43" d="M 3763 1606 
L 4369 1453 
Q 4178 706 3683 314 
Q 3188 -78 2472 -78 
Q 1731 -78 1267 223 
Q 803 525 561 1097 
Q 319 1669 319 2325 
Q 319 3041 592 3573 
Q 866 4106 1370 4382 
Q 1875 4659 2481 4659 
Q 3169 4659 3637 4309 
Q 4106 3959 4291 3325 
L 3694 3184 
Q 3534 3684 3231 3912 
Q 2928 4141 2469 4141 
Q 1941 4141 1586 3887 
Q 1231 3634 1087 3207 
Q 944 2781 944 2328 
Q 944 1744 1114 1308 
Q 1284 872 1643 656 
Q 2003 441 2422 441 
Q 2931 441 3284 734 
Q 3638 1028 3763 1606 
z
" transform="scale(0.015625)"/>
        <path id="ArialMT-75" d="M 2597 0 
L 2597 488 
Q 2209 -75 1544 -75 
Q 1250 -75 995 37 
Q 741 150 617 320 
Q 494 491 444 738 
Q 409 903 409 1263 
L 409 3319 
L 972 3319 
L 972 1478 
Q 972 1038 1006 884 
Q 1059 663 1231 536 
Q 1403 409 1656 409 
Q 1909 409 2131 539 
Q 2353 669 2445 892 
Q 2538 1116 2538 1541 
L 2538 3319 
L 3100 3319 
L 3100 0 
L 2597 0 
z
" transform="scale(0.015625)"/>
        <path id="ArialMT-6f" d="M 213 1659 
Q 213 2581 725 3025 
Q 1153 3394 1769 3394 
Q 2453 3394 2887 2945 
Q 3322 2497 3322 1706 
Q 3322 1066 3130 698 
Q 2938 331 2570 128 
Q 2203 -75 1769 -75 
Q 1072 -75 642 372 
Q 213 819 213 1659 
z
M 791 1659 
Q 791 1022 1069 705 
Q 1347 388 1769 388 
Q 2188 388 2466 706 
Q 2744 1025 2744 1678 
Q 2744 2294 2464 2611 
Q 2184 2928 1769 2928 
Q 1347 2928 1069 2612 
Q 791 2297 791 1659 
z
" transform="scale(0.015625)"/>
        <path id="ArialMT-7a" d="M 125 0 
L 125 456 
L 2238 2881 
Q 1878 2863 1603 2863 
L 250 2863 
L 250 3319 
L 2963 3319 
L 2963 2947 
L 1166 841 
L 819 456 
Q 1197 484 1528 484 
L 3063 484 
L 3063 0 
L 125 0 
z
" transform="scale(0.015625)"/>
       </defs>
       <use xlink:href="#ArialMT-43"/>
       <use xlink:href="#ArialMT-75" x="72.216797"/>
       <use xlink:href="#ArialMT-73" x="127.832031"/>
       <use xlink:href="#ArialMT-74" x="177.832031"/>
       <use xlink:href="#ArialMT-6f" x="205.615234"/>
       <use xlink:href="#ArialMT-6d" x="261.230469"/>
       <use xlink:href="#ArialMT-69" x="344.53125"/>
       <use xlink:href="#ArialMT-7a" x="366.748047"/>
       <use xlink:href="#ArialMT-61" x="416.748047"/>
       <use xlink:href="#ArialMT-62" x="472.363281"/>
       <use xlink:href="#ArialMT-6c" x="527.978516"/>
       <use xlink:href="#ArialMT-65" x="550.195312"/>
      </g>
     </g>
    </g>
    <g id="ytick_8">
     <g id="text_15">
      <!-- Children's Game -->
      <g style="fill: #262626" transform="translate(24.97375 289.834922) scale(0.1 -0.1)">
       <defs>
        <path id="ArialMT-64" d="M 2575 0 
L 2575 419 
Q 2259 -75 1647 -75 
Q 1250 -75 917 144 
Q 584 363 401 755 
Q 219 1147 219 1656 
Q 219 2153 384 2558 
Q 550 2963 881 3178 
Q 1213 3394 1622 3394 
Q 1922 3394 2156 3267 
Q 2391 3141 2538 2938 
L 2538 4581 
L 3097 4581 
L 3097 0 
L 2575 0 
z
M 797 1656 
Q 797 1019 1065 703 
Q 1334 388 1700 388 
Q 2069 388 2326 689 
Q 2584 991 2584 1609 
Q 2584 2291 2321 2609 
Q 2059 2928 1675 2928 
Q 1300 2928 1048 2622 
Q 797 2316 797 1656 
z
" transform="scale(0.015625)"/>
        <path id="ArialMT-27" d="M 425 2959 
L 281 3816 
L 281 4581 
L 922 4581 
L 922 3816 
L 772 2959 
L 425 2959 
z
" transform="scale(0.015625)"/>
       </defs>
       <use xlink:href="#ArialMT-43"/>
       <use xlink:href="#ArialMT-68" x="72.216797"/>
       <use xlink:href="#ArialMT-69" x="127.832031"/>
       <use xlink:href="#ArialMT-6c" x="150.048828"/>
       <use xlink:href="#ArialMT-64" x="172.265625"/>
       <use xlink:href="#ArialMT-72" x="227.880859"/>
       <use xlink:href="#ArialMT-65" x="261.181641"/>
       <use xlink:href="#ArialMT-6e" x="316.796875"/>
       <use xlink:href="#ArialMT-27" x="372.412109"/>
       <use xlink:href="#ArialMT-73" x="391.503906"/>
       <use xlink:href="#ArialMT-20" x="441.503906"/>
       <use xlink:href="#ArialMT-47" x="469.287109"/>
       <use xlink:href="#ArialMT-61" x="547.070312"/>
       <use xlink:href="#ArialMT-6d" x="602.685547"/>
       <use xlink:href="#ArialMT-65" x="685.986328"/>
      </g>
     </g>
    </g>
    <g id="text_16">
     <!-- Game type -->
     <g style="fill: #262626" transform="translate(18.869063 189.022031) rotate(-90) scale(0.1 -0.1)">
      <defs>
       <path id="ArialMT-70" d="M 422 -1272 
L 422 3319 
L 934 3319 
L 934 2888 
Q 1116 3141 1344 3267 
Q 1572 3394 1897 3394 
Q 2322 3394 2647 3175 
Q 2972 2956 3137 2557 
Q 3303 2159 3303 1684 
Q 3303 1175 3120 767 
Q 2938 359 2589 142 
Q 2241 -75 1856 -75 
Q 1575 -75 1351 44 
Q 1128 163 984 344 
L 984 -1272 
L 422 -1272 
z
M 931 1641 
Q 931 1000 1190 694 
Q 1450 388 1819 388 
Q 2194 388 2461 705 
Q 2728 1022 2728 1688 
Q 2728 2322 2467 2637 
Q 2206 2953 1844 2953 
Q 1484 2953 1207 2617 
Q 931 2281 931 1641 
z
" transform="scale(0.015625)"/>
      </defs>
      <use xlink:href="#ArialMT-47"/>
      <use xlink:href="#ArialMT-61" x="77.783203"/>
      <use xlink:href="#ArialMT-6d" x="133.398438"/>
      <use xlink:href="#ArialMT-65" x="216.699219"/>
      <use xlink:href="#ArialMT-20" x="272.314453"/>
      <use xlink:href="#ArialMT-74" x="300.097656"/>
      <use xlink:href="#ArialMT-79" x="327.880859"/>
      <use xlink:href="#ArialMT-70" x="377.880859"/>
      <use xlink:href="#ArialMT-65" x="433.496094"/>
     </g>
    </g>
   </g>
   <g id="PolyCollection_1">
    <defs>
     <path id="m8b4dbf1974" d="M 258.148491 -302.700601 
L 258.148491 -302.73893 
L 259.845245 -302.750797 
L 261.541999 -302.767464 
L 263.238753 -302.789437 
L 264.935507 -302.816622 
L 266.632262 -302.848186 
L 268.329016 -302.882656 
L 270.02577 -302.918291 
L 271.722524 -302.953695 
L 273.419278 -302.98852 
L 275.116033 -303.024038 
L 276.812787 -303.063347 
L 278.509541 -303.11113 
L 280.206295 -303.172986 
L 281.903049 -303.254526 
L 283.599803 -303.360482 
L 285.296558 -303.494028 
L 286.993312 -303.656411 
L 288.690066 -303.846924 
L 290.38682 -304.063237 
L 292.083574 -304.302092 
L 293.780328 -304.560403 
L 295.477083 -304.836638 
L 297.173837 -305.132215 
L 298.870591 -305.452428 
L 300.567345 -305.806395 
L 302.264099 -306.205711 
L 303.960854 -306.661876 
L 305.657608 -307.18302 
L 307.354362 -307.770779 
L 309.051116 -308.418243 
L 310.74787 -309.109659 
L 312.444624 -309.822104 
L 314.141379 -310.528859 
L 315.838133 -311.203767 
L 317.534887 -311.825641 
L 319.231641 -312.381785 
L 320.928395 -312.869816 
L 322.625149 -313.29732 
L 324.321904 -313.679246 
L 326.018658 -314.0335 
L 327.715412 -314.375666 
L 329.412166 -314.714204 
L 331.10892 -315.047494 
L 332.805675 -315.363694 
L 334.502429 -315.643575 
L 336.199183 -315.865508 
L 337.895937 -316.011059 
L 339.592691 -316.069406 
L 341.289445 -316.039284 
L 342.9862 -315.928042 
L 344.682954 -315.748423 
L 346.379708 -315.514363 
L 348.076462 -315.237288 
L 349.773216 -314.923978 
L 351.469971 -314.576423 
L 353.166725 -314.193313 
L 354.863479 -313.772356 
L 356.560233 -313.312492 
L 358.256987 -312.815297 
L 359.953741 -312.285329 
L 361.650496 -311.729595 
L 363.34725 -311.156555 
L 365.044004 -310.57515 
L 366.740758 -309.994161 
L 368.437512 -309.421957 
L 370.134266 -308.866537 
L 371.831021 -308.335589 
L 373.527775 -307.836361 
L 375.224529 -307.375164 
L 376.921283 -306.95657 
L 378.618037 -306.582496 
L 380.314792 -306.251549 
L 382.011546 -305.958993 
L 383.7083 -305.697493 
L 385.405054 -305.458517 
L 387.101808 -305.233998 
L 388.798562 -305.017714 
L 390.495317 -304.806022 
L 392.192071 -304.597833 
L 393.888825 -304.394043 
L 395.585579 -304.19676 
L 397.282333 -304.008633 
L 398.979087 -303.832394 
L 400.675842 -303.670542 
L 402.372596 -303.525059 
L 404.06935 -303.397083 
L 405.766104 -303.286645 
L 407.462858 -303.192586 
L 409.159613 -303.112777 
L 410.856367 -303.044608 
L 412.553121 -302.985583 
L 414.249875 -302.933815 
L 415.946629 -302.888241 
L 417.643383 -302.848529 
L 419.340138 -302.814774 
L 421.036892 -302.787117 
L 422.733646 -302.765461 
L 424.4304 -302.749351 
L 426.127154 -302.738002 
L 426.127154 -302.701529 
L 426.127154 -302.701529 
L 424.4304 -302.690181 
L 422.733646 -302.67407 
L 421.036892 -302.652415 
L 419.340138 -302.624757 
L 417.643383 -302.591002 
L 415.946629 -302.551291 
L 414.249875 -302.505716 
L 412.553121 -302.453948 
L 410.856367 -302.394924 
L 409.159613 -302.326754 
L 407.462858 -302.246945 
L 405.766104 -302.152886 
L 404.06935 -302.042449 
L 402.372596 -301.914473 
L 400.675842 -301.768989 
L 398.979087 -301.607138 
L 397.282333 -301.430898 
L 395.585579 -301.242772 
L 393.888825 -301.045488 
L 392.192071 -300.841698 
L 390.495317 -300.633509 
L 388.798562 -300.421817 
L 387.101808 -300.205533 
L 385.405054 -299.981014 
L 383.7083 -299.742039 
L 382.011546 -299.480538 
L 380.314792 -299.187982 
L 378.618037 -298.857035 
L 376.921283 -298.482961 
L 375.224529 -298.064367 
L 373.527775 -297.603171 
L 371.831021 -297.103942 
L 370.134266 -296.572994 
L 368.437512 -296.017574 
L 366.740758 -295.44537 
L 365.044004 -294.864381 
L 363.34725 -294.282976 
L 361.650496 -293.709936 
L 359.953741 -293.154202 
L 358.256987 -292.624235 
L 356.560233 -292.127039 
L 354.863479 -291.667175 
L 353.166725 -291.246219 
L 351.469971 -290.863108 
L 349.773216 -290.515554 
L 348.076462 -290.202244 
L 346.379708 -289.925168 
L 344.682954 -289.691108 
L 342.9862 -289.511489 
L 341.289445 -289.400247 
L 339.592691 -289.370125 
L 337.895937 -289.428472 
L 336.199183 -289.574023 
L 334.502429 -289.795956 
L 332.805675 -290.075837 
L 331.10892 -290.392037 
L 329.412166 -290.725327 
L 327.715412 -291.063866 
L 326.018658 -291.406031 
L 324.321904 -291.760285 
L 322.625149 -292.142212 
L 320.928395 -292.569715 
L 319.231641 -293.057747 
L 317.534887 -293.61389 
L 315.838133 -294.235765 
L 314.141379 -294.910672 
L 312.444624 -295.617428 
L 310.74787 -296.329872 
L 309.051116 -297.021288 
L 307.354362 -297.668752 
L 305.657608 -298.256511 
L 303.960854 -298.777655 
L 302.264099 -299.23382 
L 300.567345 -299.633137 
L 298.870591 -299.987104 
L 297.173837 -300.307317 
L 295.477083 -300.602894 
L 293.780328 -300.879128 
L 292.083574 -301.137439 
L 290.38682 -301.376294 
L 288.690066 -301.592607 
L 286.993312 -301.783121 
L 285.296558 -301.945503 
L 283.599803 -302.079049 
L 281.903049 -302.185006 
L 280.206295 -302.266545 
L 278.509541 -302.328401 
L 276.812787 -302.376185 
L 275.116033 -302.415494 
L 273.419278 -302.451011 
L 271.722524 -302.485836 
L 270.02577 -302.52124 
L 268.329016 -302.556875 
L 266.632262 -302.591345 
L 264.935507 -302.622909 
L 263.238753 -302.650094 
L 261.541999 -302.672068 
L 259.845245 -302.688734 
L 258.148491 -302.700601 
z
" style="stroke: #262626; stroke-width: 1.25"/>
    </defs>
    <g clip-path="url(#pce59f6ec26)">
     <use xlink:href="#m8b4dbf1974" x="0" y="345.6" style="fill: #701070; stroke: #262626; stroke-width: 1.25"/>
    </g>
   </g>
   <g id="PolyCollection_2">
    <defs>
     <path id="ma94b8ef42d" d="M 194.469744 -267.92433 
L 194.469744 -267.979264 
L 196.549547 -267.996344 
L 198.629349 -268.020272 
L 200.709152 -268.051686 
L 202.788955 -268.090328 
L 204.868757 -268.1349 
L 206.94856 -268.1832 
L 209.028363 -268.232583 
L 211.108165 -268.280571 
L 213.187968 -268.325388 
L 215.267771 -268.36616 
L 217.347573 -268.402693 
L 219.427376 -268.434945 
L 221.507179 -268.462509 
L 223.586981 -268.484368 
L 225.666784 -268.499077 
L 227.746587 -268.505233 
L 229.826389 -268.501993 
L 231.906192 -268.489401 
L 233.985995 -268.468484 
L 236.065797 -268.441218 
L 238.1456 -268.410542 
L 240.225403 -268.380458 
L 242.305206 -268.356101 
L 244.385008 -268.343561 
L 246.464811 -268.349303 
L 248.544614 -268.3792 
L 250.624416 -268.437431 
L 252.704219 -268.525573 
L 254.784022 -268.642245 
L 256.863824 -268.783478 
L 258.943627 -268.943799 
L 261.02343 -269.117803 
L 263.103232 -269.301806 
L 265.183035 -269.495127 
L 267.262838 -269.700578 
L 269.34264 -269.924005 
L 271.422443 -270.172972 
L 273.502246 -270.455014 
L 275.582048 -270.776054 
L 277.661851 -271.13949 
L 279.741654 -271.546211 
L 281.821456 -271.995397 
L 283.901259 -272.485634 
L 285.981062 -273.015817 
L 288.060864 -273.585503 
L 290.140667 -274.19469 
L 292.22047 -274.843267 
L 294.300272 -275.530355 
L 296.380075 -276.253582 
L 298.459878 -277.008111 
L 300.53968 -277.785202 
L 302.619483 -278.570399 
L 304.699286 -279.341825 
L 306.779088 -280.069447 
L 308.858891 -280.71619 
L 310.938694 -281.241433 
L 313.018496 -281.606756 
L 315.098299 -281.783008 
L 317.178102 -281.757128 
L 319.257904 -281.536831 
L 321.337707 -281.151432 
L 323.41751 -280.647869 
L 325.497312 -280.082151 
L 327.577115 -279.507939 
L 329.656918 -278.965111 
L 331.73672 -278.471612 
L 333.816523 -278.021149 
L 335.896326 -277.587617 
L 337.976128 -277.134913 
L 340.055931 -276.629006 
L 342.135734 -276.048482 
L 344.215537 -275.390507 
L 346.295339 -274.670962 
L 348.375142 -273.919519 
L 350.454945 -273.171927 
L 352.534747 -272.46218 
L 354.61455 -271.816674 
L 356.694353 -271.251303 
L 358.774155 -270.771363 
L 360.853958 -270.373409 
L 362.933761 -270.04805 
L 365.013563 -269.782828 
L 367.093366 -269.564654 
L 369.173169 -269.381525 
L 371.252971 -269.223454 
L 373.332774 -269.082726 
L 375.412577 -268.953694 
L 377.492379 -268.832424 
L 379.572182 -268.716417 
L 381.651985 -268.60451 
L 383.731787 -268.496852 
L 385.81159 -268.394791 
L 387.891393 -268.300525 
L 389.971195 -268.216517 
L 392.050998 -268.144824 
L 394.130801 -268.086558 
L 396.210603 -268.041635 
L 398.290406 -268.008861 
L 400.370209 -267.986272 
L 400.370209 -267.917321 
L 400.370209 -267.917321 
L 398.290406 -267.894733 
L 396.210603 -267.861959 
L 394.130801 -267.817035 
L 392.050998 -267.75877 
L 389.971195 -267.687077 
L 387.891393 -267.603069 
L 385.81159 -267.508803 
L 383.731787 -267.406742 
L 381.651985 -267.299084 
L 379.572182 -267.187176 
L 377.492379 -267.07117 
L 375.412577 -266.9499 
L 373.332774 -266.820868 
L 371.252971 -266.68014 
L 369.173169 -266.522069 
L 367.093366 -266.33894 
L 365.013563 -266.120766 
L 362.933761 -265.855544 
L 360.853958 -265.530185 
L 358.774155 -265.132231 
L 356.694353 -264.65229 
L 354.61455 -264.086919 
L 352.534747 -263.441414 
L 350.454945 -262.731667 
L 348.375142 -261.984075 
L 346.295339 -261.232631 
L 344.215537 -260.513087 
L 342.135734 -259.855112 
L 340.055931 -259.274588 
L 337.976128 -258.76868 
L 335.896326 -258.315976 
L 333.816523 -257.882445 
L 331.73672 -257.431982 
L 329.656918 -256.938483 
L 327.577115 -256.395655 
L 325.497312 -255.821443 
L 323.41751 -255.255725 
L 321.337707 -254.752162 
L 319.257904 -254.366763 
L 317.178102 -254.146465 
L 315.098299 -254.120586 
L 313.018496 -254.296838 
L 310.938694 -254.662161 
L 308.858891 -255.187404 
L 306.779088 -255.834146 
L 304.699286 -256.561768 
L 302.619483 -257.333194 
L 300.53968 -258.118391 
L 298.459878 -258.895483 
L 296.380075 -259.650012 
L 294.300272 -260.373239 
L 292.22047 -261.060326 
L 290.140667 -261.708904 
L 288.060864 -262.318091 
L 285.981062 -262.887777 
L 283.901259 -263.41796 
L 281.821456 -263.908197 
L 279.741654 -264.357383 
L 277.661851 -264.764104 
L 275.582048 -265.12754 
L 273.502246 -265.44858 
L 271.422443 -265.730622 
L 269.34264 -265.979588 
L 267.262838 -266.203016 
L 265.183035 -266.408467 
L 263.103232 -266.601788 
L 261.02343 -266.785791 
L 258.943627 -266.959795 
L 256.863824 -267.120115 
L 254.784022 -267.261348 
L 252.704219 -267.378021 
L 250.624416 -267.466163 
L 248.544614 -267.524394 
L 246.464811 -267.554291 
L 244.385008 -267.560033 
L 242.305206 -267.547493 
L 240.225403 -267.523136 
L 238.1456 -267.493052 
L 236.065797 -267.462376 
L 233.985995 -267.43511 
L 231.906192 -267.414193 
L 229.826389 -267.401601 
L 227.746587 -267.398361 
L 225.666784 -267.404517 
L 223.586981 -267.419226 
L 221.507179 -267.441085 
L 219.427376 -267.468648 
L 217.347573 -267.500901 
L 215.267771 -267.537434 
L 213.187968 -267.578206 
L 211.108165 -267.623023 
L 209.028363 -267.671011 
L 206.94856 -267.720393 
L 204.868757 -267.768694 
L 202.788955 -267.813266 
L 200.709152 -267.851908 
L 198.629349 -267.883321 
L 196.549547 -267.90725 
L 194.469744 -267.92433 
z
" style="stroke: #262626; stroke-width: 1.25"/>
    </defs>
    <g clip-path="url(#pce59f6ec26)">
     <use xlink:href="#ma94b8ef42d" x="0" y="345.6" style="fill: #701070; stroke: #262626; stroke-width: 1.25"/>
    </g>
   </g>
   <g id="PolyCollection_3">
    <defs>
     <path id="m6122dd6902" d="M 167.845392 -233.109758 
L 167.845392 -233.257899 
L 170.127619 -233.282681 
L 172.409847 -233.312833 
L 174.692075 -233.348462 
L 176.974302 -233.389295 
L 179.25653 -233.434613 
L 181.538758 -233.48322 
L 183.820985 -233.533461 
L 186.103213 -233.583315 
L 188.385441 -233.630542 
L 190.667669 -233.672889 
L 192.949896 -233.708329 
L 195.232124 -233.735301 
L 197.514352 -233.752917 
L 199.796579 -233.761107 
L 202.078807 -233.760663 
L 204.361035 -233.753183 
L 206.643262 -233.740902 
L 208.92549 -233.726438 
L 211.207718 -233.712475 
L 213.489946 -233.701429 
L 215.772173 -233.695151 
L 218.054401 -233.694688 
L 220.336629 -233.700162 
L 222.618856 -233.710766 
L 224.901084 -233.724888 
L 227.183312 -233.740351 
L 229.465539 -233.754742 
L 231.747767 -233.765781 
L 234.029995 -233.771701 
L 236.312222 -233.771591 
L 238.59445 -233.765664 
L 240.876678 -233.755435 
L 243.158906 -233.743796 
L 245.441133 -233.734979 
L 247.723361 -233.734437 
L 250.005589 -233.748632 
L 252.287816 -233.784765 
L 254.570044 -233.850447 
L 256.852272 -233.953314 
L 259.134499 -234.10061 
L 261.416727 -234.298729 
L 263.698955 -234.552745 
L 265.981183 -234.865945 
L 268.26341 -235.239422 
L 270.545638 -235.671761 
L 272.827866 -236.158868 
L 275.110093 -236.694001 
L 277.392321 -237.268003 
L 279.674549 -237.869755 
L 281.956776 -238.486812 
L 284.239004 -239.106156 
L 286.521232 -239.71499 
L 288.803459 -240.30148 
L 291.085687 -240.855362 
L 293.367915 -241.368345 
L 295.650143 -241.834286 
L 297.93237 -242.249137 
L 300.214598 -242.610703 
L 302.496826 -242.918288 
L 304.779053 -243.172286 
L 307.061281 -243.373801 
L 309.343509 -243.52434 
L 311.625736 -243.625608 
L 313.907964 -243.679396 
L 316.190192 -243.687534 
L 318.472419 -243.651881 
L 320.754647 -243.574302 
L 323.036875 -243.456627 
L 325.319103 -243.300571 
L 327.60133 -243.107647 
L 329.883558 -242.879087 
L 332.165786 -242.615822 
L 334.448013 -242.318532 
L 336.730241 -241.987777 
L 339.012469 -241.624222 
L 341.294696 -241.228893 
L 343.576924 -240.803455 
L 345.859152 -240.350448 
L 348.14138 -239.873451 
L 350.423607 -239.377133 
L 352.705835 -238.867191 
L 354.988063 -238.35018 
L 357.27029 -237.833238 
L 359.552518 -237.323764 
L 361.834746 -236.829046 
L 364.116973 -236.355916 
L 366.399201 -235.910421 
L 368.681429 -235.497562 
L 370.963656 -235.121106 
L 373.245884 -234.783483 
L 375.528112 -234.485764 
L 377.81034 -234.227728 
L 380.092567 -234.007998 
L 382.374795 -233.824228 
L 384.657023 -233.673334 
L 386.93925 -233.551738 
L 389.221478 -233.455606 
L 391.503706 -233.38107 
L 393.785933 -233.324411 
L 393.785933 -233.043245 
L 393.785933 -233.043245 
L 391.503706 -232.986586 
L 389.221478 -232.91205 
L 386.93925 -232.815918 
L 384.657023 -232.694322 
L 382.374795 -232.543428 
L 380.092567 -232.359658 
L 377.81034 -232.139928 
L 375.528112 -231.881892 
L 373.245884 -231.584173 
L 370.963656 -231.24655 
L 368.681429 -230.870094 
L 366.399201 -230.457235 
L 364.116973 -230.01174 
L 361.834746 -229.53861 
L 359.552518 -229.043893 
L 357.27029 -228.534418 
L 354.988063 -228.017477 
L 352.705835 -227.500465 
L 350.423607 -226.990524 
L 348.14138 -226.494205 
L 345.859152 -226.017208 
L 343.576924 -225.564202 
L 341.294696 -225.138763 
L 339.012469 -224.743434 
L 336.730241 -224.379879 
L 334.448013 -224.049125 
L 332.165786 -223.751834 
L 329.883558 -223.48857 
L 327.60133 -223.26001 
L 325.319103 -223.067085 
L 323.036875 -222.911029 
L 320.754647 -222.793354 
L 318.472419 -222.715775 
L 316.190192 -222.680122 
L 313.907964 -222.68826 
L 311.625736 -222.742048 
L 309.343509 -222.843316 
L 307.061281 -222.993855 
L 304.779053 -223.19537 
L 302.496826 -223.449368 
L 300.214598 -223.756953 
L 297.93237 -224.11852 
L 295.650143 -224.53337 
L 293.367915 -224.999311 
L 291.085687 -225.512294 
L 288.803459 -226.066176 
L 286.521232 -226.652666 
L 284.239004 -227.2615 
L 281.956776 -227.880844 
L 279.674549 -228.497901 
L 277.392321 -229.099653 
L 275.110093 -229.673655 
L 272.827866 -230.208788 
L 270.545638 -230.695896 
L 268.26341 -231.128234 
L 265.981183 -231.501711 
L 263.698955 -231.814911 
L 261.416727 -232.068927 
L 259.134499 -232.267047 
L 256.852272 -232.414343 
L 254.570044 -232.51721 
L 252.287816 -232.582891 
L 250.005589 -232.619025 
L 247.723361 -232.633219 
L 245.441133 -232.632677 
L 243.158906 -232.62386 
L 240.876678 -232.612221 
L 238.59445 -232.601993 
L 236.312222 -232.596065 
L 234.029995 -232.595955 
L 231.747767 -232.601875 
L 229.465539 -232.612914 
L 227.183312 -232.627305 
L 224.901084 -232.642768 
L 222.618856 -232.65689 
L 220.336629 -232.667494 
L 218.054401 -232.672968 
L 215.772173 -232.672506 
L 213.489946 -232.666227 
L 211.207718 -232.655181 
L 208.92549 -232.641218 
L 206.643262 -232.626754 
L 204.361035 -232.614473 
L 202.078807 -232.606993 
L 199.796579 -232.606549 
L 197.514352 -232.614739 
L 195.232124 -232.632355 
L 192.949896 -232.659327 
L 190.667669 -232.694768 
L 188.385441 -232.737115 
L 186.103213 -232.784342 
L 183.820985 -232.834195 
L 181.538758 -232.884437 
L 179.25653 -232.933043 
L 176.974302 -232.978361 
L 174.692075 -233.019194 
L 172.409847 -233.054823 
L 170.127619 -233.084976 
L 167.845392 -233.109758 
z
" style="stroke: #262626; stroke-width: 1.25"/>
    </defs>
    <g clip-path="url(#pce59f6ec26)">
     <use xlink:href="#m6122dd6902" x="0" y="345.6" style="fill: #701070; stroke: #262626; stroke-width: 1.25"/>
    </g>
   </g>
   <g id="PolyCollection_4">
    <defs>
     <path id="mb6c4421307" d="M 185.116504 -198.369004 
L 185.116504 -198.462715 
L 187.428428 -198.481111 
L 189.740352 -198.504859 
L 192.052276 -198.534839 
L 194.364199 -198.571895 
L 196.676123 -198.616801 
L 198.988047 -198.670249 
L 201.299971 -198.732844 
L 203.611895 -198.805132 
L 205.923819 -198.887626 
L 208.235743 -198.980835 
L 210.547667 -199.085269 
L 212.85959 -199.201403 
L 215.171514 -199.329588 
L 217.483438 -199.469909 
L 219.795362 -199.622001 
L 222.107286 -199.784867 
L 224.41921 -199.956733 
L 226.731134 -200.135 
L 229.043057 -200.316334 
L 231.354981 -200.496927 
L 233.666905 -200.672906 
L 235.978829 -200.840874 
L 238.290753 -200.998487 
L 240.602677 -201.144985 
L 242.914601 -201.281569 
L 245.226525 -201.411541 
L 247.538448 -201.540157 
L 249.850372 -201.674183 
L 252.162296 -201.821205 
L 254.47422 -201.988787 
L 256.786144 -202.183577 
L 259.098068 -202.410511 
L 261.409992 -202.672187 
L 263.721916 -202.968516 
L 266.033839 -203.296642 
L 268.345763 -203.651139 
L 270.657687 -204.024409 
L 272.969611 -204.407237 
L 275.281535 -204.789392 
L 277.593459 -205.160254 
L 279.905383 -205.509394 
L 282.217307 -205.827118 
L 284.52923 -206.104959 
L 286.841154 -206.336124 
L 289.153078 -206.515897 
L 291.465002 -206.641972 
L 293.776926 -206.714692 
L 296.08885 -206.737126 
L 298.400774 -206.714962 
L 300.712698 -206.65615 
L 303.024621 -206.570321 
L 305.336545 -206.467985 
L 307.648469 -206.359586 
L 309.960393 -206.254512 
L 312.272317 -206.160162 
L 314.584241 -206.081187 
L 316.896165 -206.018987 
L 319.208088 -205.971522 
L 321.520012 -205.933457 
L 323.831936 -205.896623 
L 326.14386 -205.850751 
L 328.455784 -205.784407 
L 330.767708 -205.686053 
L 333.079632 -205.545148 
L 335.391556 -205.35318 
L 337.703479 -205.104563 
L 340.015403 -204.797285 
L 342.327327 -204.433255 
L 344.639251 -204.018288 
L 346.951175 -203.561731 
L 349.263099 -203.075752 
L 351.575023 -202.574375 
L 353.886947 -202.072355 
L 356.19887 -201.584033 
L 358.510794 -201.122284 
L 360.822718 -200.697666 
L 363.134642 -200.317845 
L 365.446566 -199.98733 
L 367.75849 -199.7075 
L 370.070414 -199.476906 
L 372.382338 -199.291766 
L 374.694261 -199.146589 
L 377.006185 -199.034858 
L 379.318109 -198.94969 
L 381.630033 -198.884419 
L 383.941957 -198.833066 
L 386.253881 -198.790664 
L 388.565805 -198.753423 
L 390.877728 -198.718754 
L 393.189652 -198.685168 
L 395.501576 -198.65209 
L 397.8135 -198.619612 
L 400.125424 -198.588239 
L 402.437348 -198.558659 
L 404.749272 -198.531546 
L 407.061196 -198.507436 
L 409.373119 -198.486648 
L 411.685043 -198.469271 
L 413.996967 -198.455185 
L 413.996967 -198.376534 
L 413.996967 -198.376534 
L 411.685043 -198.362448 
L 409.373119 -198.345071 
L 407.061196 -198.324283 
L 404.749272 -198.300172 
L 402.437348 -198.27306 
L 400.125424 -198.243479 
L 397.8135 -198.212107 
L 395.501576 -198.179629 
L 393.189652 -198.146551 
L 390.877728 -198.112965 
L 388.565805 -198.078296 
L 386.253881 -198.041054 
L 383.941957 -197.998653 
L 381.630033 -197.9473 
L 379.318109 -197.882029 
L 377.006185 -197.79686 
L 374.694261 -197.68513 
L 372.382338 -197.539953 
L 370.070414 -197.354812 
L 367.75849 -197.124218 
L 365.446566 -196.844389 
L 363.134642 -196.513874 
L 360.822718 -196.134053 
L 358.510794 -195.709435 
L 356.19887 -195.247685 
L 353.886947 -194.759363 
L 351.575023 -194.257344 
L 349.263099 -193.755967 
L 346.951175 -193.269988 
L 344.639251 -192.813431 
L 342.327327 -192.398464 
L 340.015403 -192.034433 
L 337.703479 -191.727156 
L 335.391556 -191.478539 
L 333.079632 -191.286571 
L 330.767708 -191.145665 
L 328.455784 -191.047312 
L 326.14386 -190.980968 
L 323.831936 -190.935096 
L 321.520012 -190.898262 
L 319.208088 -190.860197 
L 316.896165 -190.812732 
L 314.584241 -190.750532 
L 312.272317 -190.671557 
L 309.960393 -190.577207 
L 307.648469 -190.472133 
L 305.336545 -190.363734 
L 303.024621 -190.261398 
L 300.712698 -190.175569 
L 298.400774 -190.116757 
L 296.08885 -190.094592 
L 293.776926 -190.117027 
L 291.465002 -190.189746 
L 289.153078 -190.315822 
L 286.841154 -190.495594 
L 284.52923 -190.726759 
L 282.217307 -191.004601 
L 279.905383 -191.322325 
L 277.593459 -191.671465 
L 275.281535 -192.042326 
L 272.969611 -192.424482 
L 270.657687 -192.807309 
L 268.345763 -193.18058 
L 266.033839 -193.535076 
L 263.721916 -193.863203 
L 261.409992 -194.159532 
L 259.098068 -194.421208 
L 256.786144 -194.648141 
L 254.47422 -194.842932 
L 252.162296 -195.010513 
L 249.850372 -195.157536 
L 247.538448 -195.291561 
L 245.226525 -195.420177 
L 242.914601 -195.55015 
L 240.602677 -195.686733 
L 238.290753 -195.833231 
L 235.978829 -195.990844 
L 233.666905 -196.158812 
L 231.354981 -196.334792 
L 229.043057 -196.515384 
L 226.731134 -196.696719 
L 224.41921 -196.874986 
L 222.107286 -197.046851 
L 219.795362 -197.209717 
L 217.483438 -197.36181 
L 215.171514 -197.50213 
L 212.85959 -197.630316 
L 210.547667 -197.74645 
L 208.235743 -197.850884 
L 205.923819 -197.944093 
L 203.611895 -198.026587 
L 201.299971 -198.098875 
L 198.988047 -198.16147 
L 196.676123 -198.214918 
L 194.364199 -198.259824 
L 192.052276 -198.29688 
L 189.740352 -198.32686 
L 187.428428 -198.350607 
L 185.116504 -198.369004 
z
" style="stroke: #262626; stroke-width: 1.25"/>
    </defs>
    <g clip-path="url(#pce59f6ec26)">
     <use xlink:href="#mb6c4421307" x="0" y="345.6" style="fill: #701070; stroke: #262626; stroke-width: 1.25"/>
    </g>
   </g>
   <g id="PolyCollection_5">
    <defs>
     <path id="ma638b1fad7" d="M 222.667433 -163.610484 
L 222.667433 -163.685297 
L 224.805838 -163.703018 
L 226.944243 -163.72639 
L 229.082648 -163.755937 
L 231.221053 -163.79171 
L 233.359459 -163.83316 
L 235.497864 -163.879098 
L 237.636269 -163.9278 
L 239.774674 -163.977257 
L 241.913079 -164.025564 
L 244.051484 -164.071355 
L 246.18989 -164.11421 
L 248.328295 -164.154893 
L 250.4667 -164.195358 
L 252.605105 -164.238477 
L 254.74351 -164.287527 
L 256.881916 -164.345552 
L 259.020321 -164.414729 
L 261.158726 -164.495904 
L 263.297131 -164.588416 
L 265.435536 -164.690246 
L 267.573941 -164.798491 
L 269.712347 -164.910052 
L 271.850752 -165.022421 
L 273.989157 -165.134415 
L 276.127562 -165.246738 
L 278.265967 -165.362301 
L 280.404373 -165.48627 
L 282.542778 -165.625862 
L 284.681183 -165.789934 
L 286.819588 -165.988425 
L 288.957993 -166.231644 
L 291.096398 -166.529437 
L 293.234804 -166.890187 
L 295.373209 -167.319662 
L 297.511614 -167.819796 
L 299.650019 -168.387542 
L 301.788424 -169.014069 
L 303.92683 -169.684578 
L 306.065235 -170.378965 
L 308.20364 -171.073415 
L 310.342045 -171.74278 
L 312.48045 -172.363373 
L 314.618855 -172.915661 
L 316.757261 -173.386307 
L 318.895666 -173.769134 
L 321.034071 -174.064854 
L 323.172476 -174.279667 
L 325.310881 -174.423138 
L 327.449286 -174.505843 
L 329.587692 -174.537312 
L 331.726097 -174.524616 
L 333.864502 -174.471738 
L 336.002907 -174.379662 
L 338.141312 -174.246975 
L 340.279718 -174.070748 
L 342.418123 -173.847501 
L 344.556528 -173.574146 
L 346.694933 -173.248872 
L 348.833338 -172.871931 
L 350.971743 -172.446291 
L 353.110149 -171.97804 
L 355.248554 -171.476433 
L 357.386959 -170.953495 
L 359.525364 -170.423162 
L 361.663769 -169.900081 
L 363.802175 -169.398247 
L 365.94058 -168.929731 
L 368.078985 -168.503705 
L 370.21739 -168.12589 
L 372.355795 -167.798452 
L 374.4942 -167.520252 
L 376.632606 -167.287322 
L 378.771011 -167.093421 
L 380.909416 -166.9306 
L 383.047821 -166.78975 
L 385.186226 -166.661193 
L 387.324632 -166.535343 
L 389.463037 -166.403487 
L 391.601442 -166.258603 
L 393.739847 -166.096116 
L 395.878252 -165.914416 
L 398.016657 -165.714996 
L 400.155063 -165.502137 
L 402.293468 -165.28217 
L 404.431873 -165.062461 
L 406.570278 -164.850315 
L 408.708683 -164.652028 
L 410.847088 -164.472244 
L 412.985494 -164.313697 
L 415.123899 -164.177293 
L 417.262304 -164.062461 
L 419.400709 -163.967609 
L 421.539114 -163.890581 
L 423.67752 -163.829017 
L 425.815925 -163.780594 
L 427.95433 -163.743161 
L 430.092735 -163.714775 
L 432.23114 -163.693716 
L 434.369545 -163.678472 
L 434.369545 -163.617309 
L 434.369545 -163.617309 
L 432.23114 -163.602065 
L 430.092735 -163.581006 
L 427.95433 -163.552621 
L 425.815925 -163.515187 
L 423.67752 -163.466765 
L 421.539114 -163.4052 
L 419.400709 -163.328172 
L 417.262304 -163.233321 
L 415.123899 -163.118489 
L 412.985494 -162.982085 
L 410.847088 -162.823537 
L 408.708683 -162.643754 
L 406.570278 -162.445466 
L 404.431873 -162.23332 
L 402.293468 -162.013611 
L 400.155063 -161.793644 
L 398.016657 -161.580785 
L 395.878252 -161.381365 
L 393.739847 -161.199665 
L 391.601442 -161.037179 
L 389.463037 -160.892294 
L 387.324632 -160.760438 
L 385.186226 -160.634588 
L 383.047821 -160.506031 
L 380.909416 -160.365182 
L 378.771011 -160.20236 
L 376.632606 -160.008459 
L 374.4942 -159.775529 
L 372.355795 -159.497329 
L 370.21739 -159.169891 
L 368.078985 -158.792076 
L 365.94058 -158.36605 
L 363.802175 -157.897535 
L 361.663769 -157.3957 
L 359.525364 -156.872619 
L 357.386959 -156.342286 
L 355.248554 -155.819348 
L 353.110149 -155.317741 
L 350.971743 -154.84949 
L 348.833338 -154.42385 
L 346.694933 -154.046909 
L 344.556528 -153.721635 
L 342.418123 -153.44828 
L 340.279718 -153.225033 
L 338.141312 -153.048806 
L 336.002907 -152.916119 
L 333.864502 -152.824043 
L 331.726097 -152.771165 
L 329.587692 -152.758469 
L 327.449286 -152.789938 
L 325.310881 -152.872643 
L 323.172476 -153.016114 
L 321.034071 -153.230928 
L 318.895666 -153.526647 
L 316.757261 -153.909474 
L 314.618855 -154.38012 
L 312.48045 -154.932408 
L 310.342045 -155.553001 
L 308.20364 -156.222366 
L 306.065235 -156.916816 
L 303.92683 -157.611203 
L 301.788424 -158.281712 
L 299.650019 -158.908239 
L 297.511614 -159.475985 
L 295.373209 -159.976119 
L 293.234804 -160.405595 
L 291.096398 -160.766344 
L 288.957993 -161.064137 
L 286.819588 -161.307357 
L 284.681183 -161.505847 
L 282.542778 -161.66992 
L 280.404373 -161.809511 
L 278.265967 -161.93348 
L 276.127562 -162.049044 
L 273.989157 -162.161366 
L 271.850752 -162.27336 
L 269.712347 -162.385729 
L 267.573941 -162.49729 
L 265.435536 -162.605535 
L 263.297131 -162.707365 
L 261.158726 -162.799877 
L 259.020321 -162.881052 
L 256.881916 -162.950229 
L 254.74351 -163.008254 
L 252.605105 -163.057305 
L 250.4667 -163.100423 
L 248.328295 -163.140888 
L 246.18989 -163.181571 
L 244.051484 -163.224426 
L 241.913079 -163.270217 
L 239.774674 -163.318524 
L 237.636269 -163.367981 
L 235.497864 -163.416683 
L 233.359459 -163.462621 
L 231.221053 -163.504071 
L 229.082648 -163.539845 
L 226.944243 -163.569391 
L 224.805838 -163.592763 
L 222.667433 -163.610484 
z
" style="stroke: #262626; stroke-width: 1.25"/>
    </defs>
    <g clip-path="url(#pce59f6ec26)">
     <use xlink:href="#ma638b1fad7" x="0" y="345.6" style="fill: #701070; stroke: #262626; stroke-width: 1.25"/>
    </g>
   </g>
   <g id="PolyCollection_6">
    <defs>
     <path id="m7404ff35d2" d="M 257.900905 -128.642354 
L 257.900905 -129.11749 
L 259.597677 -129.182819 
L 261.29445 -129.261433 
L 262.991223 -129.354644 
L 264.687996 -129.463516 
L 266.384769 -129.588754 
L 268.081541 -129.730601 
L 269.778314 -129.888736 
L 271.475087 -130.062206 
L 273.17186 -130.249384 
L 274.868632 -130.447974 
L 276.565405 -130.655065 
L 278.262178 -130.867238 
L 279.958951 -131.080738 
L 281.655724 -131.291678 
L 283.352496 -131.496292 
L 285.049269 -131.691201 
L 286.746042 -131.873676 
L 288.442815 -132.041879 
L 290.139587 -132.195052 
L 291.83636 -132.333639 
L 293.533133 -132.459321 
L 295.229906 -132.574957 
L 296.926679 -132.684438 
L 298.623451 -132.792449 
L 300.320224 -132.904172 
L 302.016997 -133.024939 
L 303.71377 -133.159883 
L 305.410542 -133.31359 
L 307.107315 -133.489816 
L 308.804088 -133.691254 
L 310.500861 -133.919396 
L 312.197634 -134.174491 
L 313.894406 -134.45558 
L 315.591179 -134.760627 
L 317.287952 -135.086694 
L 318.984725 -135.430168 
L 320.681497 -135.78699 
L 322.37827 -136.152874 
L 324.075043 -136.523494 
L 325.771816 -136.894623 
L 327.468589 -137.262209 
L 329.165361 -137.622406 
L 330.862134 -137.971546 
L 332.558907 -138.306081 
L 334.25568 -138.622506 
L 335.952452 -138.917281 
L 337.649225 -139.186773 
L 339.345998 -139.427228 
L 341.042771 -139.634792 
L 342.739544 -139.805577 
L 344.436316 -139.935772 
L 346.133089 -140.021791 
L 347.829862 -140.060458 
L 349.526635 -140.049187 
L 351.223407 -139.986171 
L 352.92018 -139.870533 
L 354.616953 -139.702452 
L 356.313726 -139.483235 
L 358.010499 -139.215325 
L 359.707271 -138.902267 
L 361.404044 -138.548603 
L 363.100817 -138.159725 
L 364.79759 -137.741688 
L 366.494362 -137.300995 
L 368.191135 -136.844367 
L 369.887908 -136.378509 
L 371.584681 -135.909894 
L 373.281454 -135.444559 
L 374.978226 -134.987932 
L 376.674999 -134.544704 
L 378.371772 -134.118728 
L 380.068545 -133.712969 
L 381.765317 -133.329493 
L 383.46209 -132.969498 
L 385.158863 -132.63338 
L 386.855636 -132.320833 
L 388.552409 -132.030969 
L 390.249181 -131.762458 
L 391.945954 -131.513677 
L 393.642727 -131.282848 
L 395.3395 -131.068176 
L 397.036272 -130.867963 
L 398.733045 -130.680702 
L 400.429818 -130.505133 
L 402.126591 -130.340282 
L 403.823364 -130.185459 
L 405.520136 -130.04024 
L 407.216909 -129.904421 
L 408.913682 -129.777964 
L 410.610455 -129.660929 
L 412.307227 -129.553412 
L 414.004 -129.455485 
L 415.700773 -129.367148 
L 417.397546 -129.288297 
L 419.094319 -129.218697 
L 420.791091 -129.157985 
L 422.487864 -129.105671 
L 424.184637 -129.061159 
L 425.88141 -129.023772 
L 425.88141 -128.736072 
L 425.88141 -128.736072 
L 424.184637 -128.698685 
L 422.487864 -128.654173 
L 420.791091 -128.601859 
L 419.094319 -128.541146 
L 417.397546 -128.471547 
L 415.700773 -128.392695 
L 414.004 -128.304359 
L 412.307227 -128.206432 
L 410.610455 -128.098915 
L 408.913682 -127.98188 
L 407.216909 -127.855422 
L 405.520136 -127.719604 
L 403.823364 -127.574385 
L 402.126591 -127.419562 
L 400.429818 -127.25471 
L 398.733045 -127.079142 
L 397.036272 -126.89188 
L 395.3395 -126.691668 
L 393.642727 -126.476996 
L 391.945954 -126.246167 
L 390.249181 -125.997385 
L 388.552409 -125.728875 
L 386.855636 -125.439011 
L 385.158863 -125.126464 
L 383.46209 -124.790346 
L 381.765317 -124.430351 
L 380.068545 -124.046875 
L 378.371772 -123.641116 
L 376.674999 -123.21514 
L 374.978226 -122.771912 
L 373.281454 -122.315285 
L 371.584681 -121.849949 
L 369.887908 -121.381334 
L 368.191135 -120.915477 
L 366.494362 -120.458848 
L 364.79759 -120.018156 
L 363.100817 -119.600119 
L 361.404044 -119.211241 
L 359.707271 -118.857576 
L 358.010499 -118.544519 
L 356.313726 -118.276609 
L 354.616953 -118.057392 
L 352.92018 -117.889311 
L 351.223407 -117.773673 
L 349.526635 -117.710657 
L 347.829862 -117.699386 
L 346.133089 -117.738053 
L 344.436316 -117.824072 
L 342.739544 -117.954266 
L 341.042771 -118.125052 
L 339.345998 -118.332616 
L 337.649225 -118.573071 
L 335.952452 -118.842563 
L 334.25568 -119.137338 
L 332.558907 -119.453763 
L 330.862134 -119.788298 
L 329.165361 -120.137438 
L 327.468589 -120.497635 
L 325.771816 -120.865221 
L 324.075043 -121.23635 
L 322.37827 -121.60697 
L 320.681497 -121.972854 
L 318.984725 -122.329676 
L 317.287952 -122.67315 
L 315.591179 -122.999217 
L 313.894406 -123.304264 
L 312.197634 -123.585353 
L 310.500861 -123.840447 
L 308.804088 -124.06859 
L 307.107315 -124.270027 
L 305.410542 -124.446253 
L 303.71377 -124.599961 
L 302.016997 -124.734904 
L 300.320224 -124.855672 
L 298.623451 -124.967395 
L 296.926679 -125.075406 
L 295.229906 -125.184887 
L 293.533133 -125.300523 
L 291.83636 -125.426204 
L 290.139587 -125.564792 
L 288.442815 -125.717965 
L 286.746042 -125.886168 
L 285.049269 -126.068643 
L 283.352496 -126.263552 
L 281.655724 -126.468166 
L 279.958951 -126.679106 
L 278.262178 -126.892605 
L 276.565405 -127.104779 
L 274.868632 -127.311869 
L 273.17186 -127.51046 
L 271.475087 -127.697638 
L 269.778314 -127.871108 
L 268.081541 -128.029243 
L 266.384769 -128.171089 
L 264.687996 -128.296328 
L 262.991223 -128.4052 
L 261.29445 -128.498411 
L 259.597677 -128.577025 
L 257.900905 -128.642354 
z
" style="stroke: #262626; stroke-width: 1.25"/>
    </defs>
    <g clip-path="url(#pce59f6ec26)">
     <use xlink:href="#m7404ff35d2" x="0" y="345.6" style="fill: #701070; stroke: #262626; stroke-width: 1.25"/>
    </g>
   </g>
   <g id="PolyCollection_7">
    <defs>
     <path id="m391d55d082" d="M 270.221872 -93.849349 
L 270.221872 -94.374557 
L 271.508545 -94.439899 
L 272.795217 -94.517272 
L 274.08189 -94.607776 
L 275.368563 -94.712349 
L 276.655235 -94.831707 
L 277.941908 -94.966288 
L 279.22858 -95.116207 
L 280.515253 -95.281227 
L 281.801925 -95.460748 
L 283.088598 -95.65383 
L 284.375271 -95.859235 
L 285.661943 -96.075507 
L 286.948616 -96.301071 
L 288.235288 -96.534365 
L 289.521961 -96.773973 
L 290.808634 -97.018771 
L 292.095306 -97.268059 
L 293.381979 -97.521672 
L 294.668651 -97.780053 
L 295.955324 -98.044281 
L 297.241996 -98.316042 
L 298.528669 -98.597537 
L 299.815342 -98.891344 
L 301.102014 -99.200214 
L 302.388687 -99.526842 
L 303.675359 -99.873609 
L 304.962032 -100.24233 
L 306.248704 -100.634022 
L 307.535377 -101.048714 
L 308.82205 -101.485319 
L 310.108722 -101.941586 
L 311.395395 -102.414127 
L 312.682067 -102.898526 
L 313.96874 -103.389526 
L 315.255412 -103.88126 
L 316.542085 -104.367531 
L 317.828758 -104.842091 
L 319.11543 -105.298906 
L 320.402103 -105.73239 
L 321.688775 -106.137571 
L 322.975448 -106.510199 
L 324.262121 -106.846771 
L 325.548793 -107.144492 
L 326.835466 -107.401185 
L 328.122138 -107.615156 
L 329.408811 -107.785049 
L 330.695483 -107.909709 
L 331.982156 -107.988079 
L 333.268829 -108.019141 
L 334.555501 -108.001917 
L 335.842174 -107.935539 
L 337.128846 -107.819369 
L 338.415519 -107.653165 
L 339.702191 -107.437271 
L 340.988864 -107.17281 
L 342.275537 -106.861855 
L 343.562209 -106.507548 
L 344.848882 -106.114156 
L 346.135554 -105.687051 
L 347.422227 -105.232604 
L 348.708899 -104.757995 
L 349.995572 -104.270954 
L 351.282245 -103.779446 
L 352.568917 -103.291326 
L 353.85559 -102.813984 
L 355.142262 -102.354007 
L 356.428935 -101.916885 
L 357.715608 -101.506782 
L 359.00228 -101.126379 
L 360.288953 -100.776812 
L 361.575625 -100.457696 
L 362.862298 -100.167242 
L 364.14897 -99.902446 
L 365.435643 -99.659347 
L 366.722316 -99.43333 
L 368.008988 -99.219447 
L 369.295661 -99.012749 
L 370.582333 -98.808595 
L 371.869006 -98.602918 
L 373.155678 -98.392452 
L 374.442351 -98.174874 
L 375.729024 -97.948898 
L 377.015696 -97.714274 
L 378.302369 -97.471739 
L 379.589041 -97.222899 
L 380.875714 -96.970062 
L 382.162386 -96.716052 
L 383.449059 -96.463991 
L 384.735732 -96.217096 
L 386.022404 -95.978479 
L 387.309077 -95.75098 
L 388.595749 -95.537033 
L 389.882422 -95.338572 
L 391.169094 -95.156974 
L 392.455767 -94.993051 
L 393.74244 -94.847066 
L 395.029112 -94.718788 
L 396.315785 -94.607555 
L 397.602457 -94.512367 
L 397.602457 -93.711539 
L 397.602457 -93.711539 
L 396.315785 -93.616351 
L 395.029112 -93.505119 
L 393.74244 -93.37684 
L 392.455767 -93.230855 
L 391.169094 -93.066932 
L 389.882422 -92.885334 
L 388.595749 -92.686873 
L 387.309077 -92.472926 
L 386.022404 -92.245427 
L 384.735732 -92.00681 
L 383.449059 -91.759915 
L 382.162386 -91.507854 
L 380.875714 -91.253844 
L 379.589041 -91.001008 
L 378.302369 -90.752167 
L 377.015696 -90.509633 
L 375.729024 -90.275009 
L 374.442351 -90.049032 
L 373.155678 -89.831455 
L 371.869006 -89.620988 
L 370.582333 -89.415312 
L 369.295661 -89.211157 
L 368.008988 -89.004459 
L 366.722316 -88.790577 
L 365.435643 -88.564559 
L 364.14897 -88.321461 
L 362.862298 -88.056665 
L 361.575625 -87.76621 
L 360.288953 -87.447094 
L 359.00228 -87.097527 
L 357.715608 -86.717124 
L 356.428935 -86.307021 
L 355.142262 -85.8699 
L 353.85559 -85.409922 
L 352.568917 -84.93258 
L 351.282245 -84.44446 
L 349.995572 -83.952953 
L 348.708899 -83.465911 
L 347.422227 -82.991302 
L 346.135554 -82.536855 
L 344.848882 -82.109751 
L 343.562209 -81.716358 
L 342.275537 -81.362051 
L 340.988864 -81.051096 
L 339.702191 -80.786636 
L 338.415519 -80.570741 
L 337.128846 -80.404537 
L 335.842174 -80.288367 
L 334.555501 -80.221989 
L 333.268829 -80.204766 
L 331.982156 -80.235827 
L 330.695483 -80.314197 
L 329.408811 -80.438858 
L 328.122138 -80.608751 
L 326.835466 -80.822721 
L 325.548793 -81.079414 
L 324.262121 -81.377135 
L 322.975448 -81.713707 
L 321.688775 -82.086335 
L 320.402103 -82.491517 
L 319.11543 -82.925 
L 317.828758 -83.381815 
L 316.542085 -83.856375 
L 315.255412 -84.342646 
L 313.96874 -84.834381 
L 312.682067 -85.32538 
L 311.395395 -85.809779 
L 310.108722 -86.28232 
L 308.82205 -86.738587 
L 307.535377 -87.175192 
L 306.248704 -87.589884 
L 304.962032 -87.981576 
L 303.675359 -88.350297 
L 302.388687 -88.697064 
L 301.102014 -89.023692 
L 299.815342 -89.332562 
L 298.528669 -89.626369 
L 297.241996 -89.907865 
L 295.955324 -90.179625 
L 294.668651 -90.443853 
L 293.381979 -90.702235 
L 292.095306 -90.955847 
L 290.808634 -91.205135 
L 289.521961 -91.449933 
L 288.235288 -91.689541 
L 286.948616 -91.922835 
L 285.661943 -92.1484 
L 284.375271 -92.364671 
L 283.088598 -92.570076 
L 281.801925 -92.763158 
L 280.515253 -92.94268 
L 279.22858 -93.107699 
L 277.941908 -93.257619 
L 276.655235 -93.3922 
L 275.368563 -93.511557 
L 274.08189 -93.61613 
L 272.795217 -93.706634 
L 271.508545 -93.784007 
L 270.221872 -93.849349 
z
" style="stroke: #262626; stroke-width: 1.25"/>
    </defs>
    <g clip-path="url(#pce59f6ec26)">
     <use xlink:href="#m391d55d082" x="0" y="345.6" style="fill: #701070; stroke: #262626; stroke-width: 1.25"/>
    </g>
   </g>
   <g id="PolyCollection_8">
    <defs>
     <path id="md8de2000c1" d="M 121.760455 -59.042442 
L 121.760455 -59.645527 
L 124.33621 -59.69419 
L 126.911966 -59.748538 
L 129.487721 -59.80883 
L 132.063477 -59.875262 
L 134.639232 -59.947952 
L 137.214988 -60.026932 
L 139.790743 -60.112128 
L 142.366499 -60.203355 
L 144.942254 -60.300303 
L 147.51801 -60.402532 
L 150.093765 -60.509467 
L 152.669521 -60.620398 
L 155.245276 -60.734481 
L 157.821032 -60.85075 
L 160.396787 -60.968122 
L 162.972543 -61.085421 
L 165.548298 -61.201391 
L 168.124054 -61.314728 
L 170.699809 -61.424103 
L 173.275565 -61.528197 
L 175.85132 -61.625734 
L 178.427076 -61.715514 
L 181.002831 -61.796453 
L 183.578587 -61.867613 
L 186.154342 -61.92824 
L 188.730098 -61.977791 
L 191.305853 -62.015961 
L 193.881609 -62.042705 
L 196.457364 -62.058256 
L 199.03312 -62.063129 
L 201.608875 -62.05813 
L 204.184631 -62.044347 
L 206.760386 -62.02314 
L 209.336142 -61.996122 
L 211.911897 -61.965132 
L 214.487653 -61.932203 
L 217.063408 -61.899524 
L 219.639164 -61.869396 
L 222.214919 -61.844182 
L 224.790675 -61.826258 
L 227.36643 -61.817957 
L 229.942186 -61.821517 
L 232.517941 -61.839021 
L 235.093697 -61.872343 
L 237.669452 -61.9231 
L 240.245208 -61.992598 
L 242.820963 -62.081789 
L 245.396719 -62.191234 
L 247.972474 -62.321066 
L 250.54823 -62.470974 
L 253.123985 -62.640181 
L 255.699741 -62.827441 
L 258.275496 -63.031045 
L 260.851252 -63.248838 
L 263.427007 -63.478244 
L 266.002763 -63.716307 
L 268.578518 -63.95974 
L 271.154274 -64.204985 
L 273.730029 -64.448278 
L 276.305785 -64.685732 
L 278.88154 -64.913412 
L 281.457296 -65.127425 
L 284.033051 -65.324004 
L 286.608807 -65.499599 
L 289.184562 -65.65095 
L 291.760318 -65.775173 
L 294.336073 -65.869822 
L 296.911829 -65.932948 
L 299.487584 -65.963142 
L 302.06334 -65.959566 
L 304.639095 -65.92197 
L 307.214851 -65.85069 
L 309.790606 -65.746633 
L 312.366362 -65.611249 
L 314.942117 -65.446486 
L 317.517873 -65.254732 
L 320.093628 -65.038755 
L 322.669384 -64.801626 
L 325.245139 -64.546644 
L 327.820895 -64.277251 
L 330.39665 -63.996957 
L 332.972406 -63.709255 
L 335.548161 -63.417557 
L 338.123917 -63.125118 
L 340.699672 -62.834988 
L 343.275428 -62.549955 
L 345.851183 -62.27251 
L 348.426939 -62.004823 
L 351.002694 -61.748723 
L 353.57845 -61.50569 
L 356.154205 -61.276863 
L 358.729961 -61.063048 
L 361.305716 -60.864736 
L 363.881472 -60.682131 
L 366.457227 -60.515177 
L 369.032983 -60.36359 
L 371.608738 -60.226891 
L 374.184494 -60.104445 
L 376.760249 -59.99549 
L 376.760249 -58.692479 
L 376.760249 -58.692479 
L 374.184494 -58.583524 
L 371.608738 -58.461078 
L 369.032983 -58.324379 
L 366.457227 -58.172792 
L 363.881472 -58.005837 
L 361.305716 -57.823233 
L 358.729961 -57.624921 
L 356.154205 -57.411105 
L 353.57845 -57.182279 
L 351.002694 -56.939246 
L 348.426939 -56.683145 
L 345.851183 -56.415459 
L 343.275428 -56.138014 
L 340.699672 -55.852981 
L 338.123917 -55.56285 
L 335.548161 -55.270412 
L 332.972406 -54.978714 
L 330.39665 -54.691012 
L 327.820895 -54.410717 
L 325.245139 -54.141325 
L 322.669384 -53.886342 
L 320.093628 -53.649214 
L 317.517873 -53.433237 
L 314.942117 -53.241483 
L 312.366362 -53.076719 
L 309.790606 -52.941335 
L 307.214851 -52.837279 
L 304.639095 -52.765999 
L 302.06334 -52.728403 
L 299.487584 -52.724827 
L 296.911829 -52.755021 
L 294.336073 -52.818146 
L 291.760318 -52.912796 
L 289.184562 -53.037019 
L 286.608807 -53.18837 
L 284.033051 -53.363964 
L 281.457296 -53.560544 
L 278.88154 -53.774557 
L 276.305785 -54.002237 
L 273.730029 -54.239691 
L 271.154274 -54.482984 
L 268.578518 -54.728228 
L 266.002763 -54.971661 
L 263.427007 -55.209725 
L 260.851252 -55.439131 
L 258.275496 -55.656923 
L 255.699741 -55.860528 
L 253.123985 -56.047788 
L 250.54823 -56.216994 
L 247.972474 -56.366902 
L 245.396719 -56.496735 
L 242.820963 -56.606179 
L 240.245208 -56.695371 
L 237.669452 -56.764868 
L 235.093697 -56.815625 
L 232.517941 -56.848948 
L 229.942186 -56.866451 
L 227.36643 -56.870011 
L 224.790675 -56.861711 
L 222.214919 -56.843787 
L 219.639164 -56.818573 
L 217.063408 -56.788445 
L 214.487653 -56.755766 
L 211.911897 -56.722837 
L 209.336142 -56.691847 
L 206.760386 -56.664829 
L 204.184631 -56.643622 
L 201.608875 -56.629839 
L 199.03312 -56.62484 
L 196.457364 -56.629713 
L 193.881609 -56.645264 
L 191.305853 -56.672008 
L 188.730098 -56.710178 
L 186.154342 -56.759729 
L 183.578587 -56.820356 
L 181.002831 -56.891516 
L 178.427076 -56.972454 
L 175.85132 -57.062235 
L 173.275565 -57.159771 
L 170.699809 -57.263866 
L 168.124054 -57.373241 
L 165.548298 -57.486578 
L 162.972543 -57.602548 
L 160.396787 -57.719846 
L 157.821032 -57.837219 
L 155.245276 -57.953487 
L 152.669521 -58.067571 
L 150.093765 -58.178502 
L 147.51801 -58.285437 
L 144.942254 -58.387666 
L 142.366499 -58.484614 
L 139.790743 -58.575841 
L 137.214988 -58.661037 
L 134.639232 -58.740017 
L 132.063477 -58.812707 
L 129.487721 -58.879138 
L 126.911966 -58.93943 
L 124.33621 -58.993779 
L 121.760455 -59.042442 
z
" style="stroke: #262626; stroke-width: 1.25"/>
    </defs>
    <g clip-path="url(#pce59f6ec26)">
     <use xlink:href="#md8de2000c1" x="0" y="345.6" style="fill: #701070; stroke: #262626; stroke-width: 1.25"/>
    </g>
   </g>
   <g id="line2d_1">
    <path d="M 276.8833 42.880234 
L 399.156798 42.880234 
" clip-path="url(#pce59f6ec26)" style="fill: none; stroke: #262626; stroke-width: 1.875; stroke-linecap: round"/>
   </g>
   <g id="line2d_2">
    <path d="M 324.890476 42.880234 
L 356.917005 42.880234 
" clip-path="url(#pce59f6ec26)" style="fill: none; stroke: #262626; stroke-width: 5.625; stroke-linecap: round"/>
   </g>
   <g id="line2d_3">
    <path d="M 340.332056 42.880234 
" clip-path="url(#pce59f6ec26)" style="fill: none; stroke: #262626; stroke-width: 1.5; stroke-linecap: round"/>
    <defs>
     <path id="mf5eb80f6c8" d="M 0 2.34375 
L 0 -2.34375 
" style="stroke: #ffffff; stroke-width: 1.125"/>
    </defs>
    <g clip-path="url(#pce59f6ec26)">
     <use xlink:href="#mf5eb80f6c8" x="340.332056" y="42.880234" style="fill: #ffffff; stroke: #ffffff; stroke-width: 1.125"/>
    </g>
   </g>
   <g id="line2d_4">
    <path d="M 255.513511 77.648203 
L 377.024489 77.648203 
" clip-path="url(#pce59f6ec26)" style="fill: none; stroke: #262626; stroke-width: 1.875; stroke-linecap: round"/>
   </g>
   <g id="line2d_5">
    <path d="M 302.287634 77.648203 
L 333.912989 77.648203 
" clip-path="url(#pce59f6ec26)" style="fill: none; stroke: #262626; stroke-width: 5.625; stroke-linecap: round"/>
   </g>
   <g id="line2d_6">
    <path d="M 316.721128 77.648203 
" clip-path="url(#pce59f6ec26)" style="fill: none; stroke: #262626; stroke-width: 1.5; stroke-linecap: round"/>
    <g clip-path="url(#pce59f6ec26)">
     <use xlink:href="#mf5eb80f6c8" x="316.721128" y="77.648203" style="fill: #ffffff; stroke: #ffffff; stroke-width: 1.125"/>
    </g>
   </g>
   <g id="line2d_7">
    <path d="M 282.415416 112.416172 
L 363.324398 112.416172 
" clip-path="url(#pce59f6ec26)" style="fill: none; stroke: #262626; stroke-width: 1.875; stroke-linecap: round"/>
   </g>
   <g id="line2d_8">
    <path d="M 296.754145 112.416172 
L 334.616452 112.416172 
" clip-path="url(#pce59f6ec26)" style="fill: none; stroke: #262626; stroke-width: 5.625; stroke-linecap: round"/>
   </g>
   <g id="line2d_9">
    <path d="M 316.657951 112.416172 
" clip-path="url(#pce59f6ec26)" style="fill: none; stroke: #262626; stroke-width: 1.5; stroke-linecap: round"/>
    <g clip-path="url(#pce59f6ec26)">
     <use xlink:href="#mf5eb80f6c8" x="316.657951" y="112.416172" style="fill: #ffffff; stroke: #ffffff; stroke-width: 1.125"/>
    </g>
   </g>
   <g id="line2d_10">
    <path d="M 214.275349 147.184141 
L 384.838122 147.184141 
" clip-path="url(#pce59f6ec26)" style="fill: none; stroke: #262626; stroke-width: 1.875; stroke-linecap: round"/>
   </g>
   <g id="line2d_11">
    <path d="M 281.637514 147.184141 
L 327.119528 147.184141 
" clip-path="url(#pce59f6ec26)" style="fill: none; stroke: #262626; stroke-width: 5.625; stroke-linecap: round"/>
   </g>
   <g id="line2d_12">
    <path d="M 299.593543 147.184141 
" clip-path="url(#pce59f6ec26)" style="fill: none; stroke: #262626; stroke-width: 1.5; stroke-linecap: round"/>
    <g clip-path="url(#pce59f6ec26)">
     <use xlink:href="#mf5eb80f6c8" x="299.593543" y="147.184141" style="fill: #ffffff; stroke: #ffffff; stroke-width: 1.125"/>
    </g>
   </g>
   <g id="line2d_13">
    <path d="M 266.567854 181.952109 
L 399.156798 181.952109 
" clip-path="url(#pce59f6ec26)" style="fill: none; stroke: #262626; stroke-width: 1.875; stroke-linecap: round"/>
   </g>
   <g id="line2d_14">
    <path d="M 316.506875 181.952109 
L 352.838237 181.952109 
" clip-path="url(#pce59f6ec26)" style="fill: none; stroke: #262626; stroke-width: 5.625; stroke-linecap: round"/>
   </g>
   <g id="line2d_15">
    <path d="M 333.415263 181.952109 
" clip-path="url(#pce59f6ec26)" style="fill: none; stroke: #262626; stroke-width: 1.5; stroke-linecap: round"/>
    <g clip-path="url(#pce59f6ec26)">
     <use xlink:href="#mf5eb80f6c8" x="333.415263" y="181.952109" style="fill: #ffffff; stroke: #ffffff; stroke-width: 1.125"/>
    </g>
   </g>
   <g id="line2d_16">
    <path d="M 287.761847 216.720078 
L 396.020468 216.720078 
" clip-path="url(#pce59f6ec26)" style="fill: none; stroke: #262626; stroke-width: 1.875; stroke-linecap: round"/>
   </g>
   <g id="line2d_17">
    <path d="M 324.828535 216.720078 
L 356.341819 216.720078 
" clip-path="url(#pce59f6ec26)" style="fill: none; stroke: #262626; stroke-width: 5.625; stroke-linecap: round"/>
   </g>
   <g id="line2d_18">
    <path d="M 345.608442 216.720078 
" clip-path="url(#pce59f6ec26)" style="fill: none; stroke: #262626; stroke-width: 1.5; stroke-linecap: round"/>
    <g clip-path="url(#pce59f6ec26)">
     <use xlink:href="#mf5eb80f6c8" x="345.608442" y="216.720078" style="fill: #ffffff; stroke: #ffffff; stroke-width: 1.125"/>
    </g>
   </g>
   <g id="line2d_19">
    <path d="M 294.397639 251.488047 
L 373.426691 251.488047 
" clip-path="url(#pce59f6ec26)" style="fill: none; stroke: #262626; stroke-width: 1.875; stroke-linecap: round"/>
   </g>
   <g id="line2d_20">
    <path d="M 321.633697 251.488047 
L 345.480166 251.488047 
" clip-path="url(#pce59f6ec26)" style="fill: none; stroke: #262626; stroke-width: 5.625; stroke-linecap: round"/>
   </g>
   <g id="line2d_21">
    <path d="M 336.096719 251.488047 
" clip-path="url(#pce59f6ec26)" style="fill: none; stroke: #262626; stroke-width: 1.5; stroke-linecap: round"/>
    <g clip-path="url(#pce59f6ec26)">
     <use xlink:href="#mf5eb80f6c8" x="336.096719" y="251.488047" style="fill: #ffffff; stroke: #ffffff; stroke-width: 1.125"/>
    </g>
   </g>
   <g id="line2d_22">
    <path d="M 191.922744 286.256016 
L 306.59796 286.256016 
" clip-path="url(#pce59f6ec26)" style="fill: none; stroke: #262626; stroke-width: 1.875; stroke-linecap: round"/>
   </g>
   <g id="line2d_23">
    <path d="M 247.907263 286.256016 
L 300.563174 286.256016 
" clip-path="url(#pce59f6ec26)" style="fill: none; stroke: #262626; stroke-width: 5.625; stroke-linecap: round"/>
   </g>
   <g id="line2d_24">
    <path d="M 299.745168 286.256016 
" clip-path="url(#pce59f6ec26)" style="fill: none; stroke: #262626; stroke-width: 1.5; stroke-linecap: round"/>
    <g clip-path="url(#pce59f6ec26)">
     <use xlink:href="#mf5eb80f6c8" x="299.745168" y="286.256016" style="fill: #ffffff; stroke: #ffffff; stroke-width: 1.125"/>
    </g>
   </g>
   <g id="patch_3">
    <path d="M 106.13 303.64 
L 106.13 25.49625 
" style="fill: none; stroke: #ffffff; stroke-width: 0.8; stroke-linejoin: miter; stroke-linecap: square"/>
   </g>
   <g id="patch_4">
    <path d="M 450 303.64 
L 450 25.49625 
" style="fill: none; stroke: #ffffff; stroke-width: 0.8; stroke-linejoin: miter; stroke-linecap: square"/>
   </g>
   <g id="patch_5">
    <path d="M 106.13 303.64 
L 450 303.64 
" style="fill: none; stroke: #ffffff; stroke-width: 0.8; stroke-linejoin: miter; stroke-linecap: square"/>
   </g>
   <g id="patch_6">
    <path d="M 106.13 25.49625 
L 450 25.49625 
" style="fill: none; stroke: #ffffff; stroke-width: 0.8; stroke-linejoin: miter; stroke-linecap: square"/>
   </g>
   <g id="text_17">
    <!-- Game type vs Rating -->
    <g style="fill: #262626" transform="translate(222.04375 19.49625) scale(0.12 -0.12)">
     <defs>
      <path id="ArialMT-76" d="M 1344 0 
L 81 3319 
L 675 3319 
L 1388 1331 
Q 1503 1009 1600 663 
Q 1675 925 1809 1294 
L 2547 3319 
L 3125 3319 
L 1869 0 
L 1344 0 
z
" transform="scale(0.015625)"/>
     </defs>
     <use xlink:href="#ArialMT-47"/>
     <use xlink:href="#ArialMT-61" x="77.783203"/>
     <use xlink:href="#ArialMT-6d" x="133.398438"/>
     <use xlink:href="#ArialMT-65" x="216.699219"/>
     <use xlink:href="#ArialMT-20" x="272.314453"/>
     <use xlink:href="#ArialMT-74" x="300.097656"/>
     <use xlink:href="#ArialMT-79" x="327.880859"/>
     <use xlink:href="#ArialMT-70" x="377.880859"/>
     <use xlink:href="#ArialMT-65" x="433.496094"/>
     <use xlink:href="#ArialMT-20" x="489.111328"/>
     <use xlink:href="#ArialMT-76" x="516.894531"/>
     <use xlink:href="#ArialMT-73" x="566.894531"/>
     <use xlink:href="#ArialMT-20" x="616.894531"/>
     <use xlink:href="#ArialMT-52" x="644.677734"/>
     <use xlink:href="#ArialMT-61" x="716.894531"/>
     <use xlink:href="#ArialMT-74" x="772.509766"/>
     <use xlink:href="#ArialMT-69" x="800.292969"/>
     <use xlink:href="#ArialMT-6e" x="822.509766"/>
     <use xlink:href="#ArialMT-67" x="878.125"/>
    </g>
   </g>
  </g>
 </g>
 <defs>
  <clipPath id="pce59f6ec26">
   <rect x="106.13" y="25.49625" width="343.87" height="278.14375"/>
  </clipPath>
 </defs>
</svg>
