<?xml version="1.0" encoding="utf-8" standalone="no"?>
<!DOCTYPE svg PUBLIC "-//W3C//DTD SVG 1.1//EN"
  "http://www.w3.org/Graphics/SVG/1.1/DTD/svg11.dtd">
<svg xmlns:xlink="http://www.w3.org/1999/xlink" width="460.8pt" height="345.6pt" viewBox="0 0 460.8 345.6" xmlns="http://www.w3.org/2000/svg" version="1.1">
 <metadata>
  <rdf:RDF xmlns:dc="http://purl.org/dc/elements/1.1/" xmlns:cc="http://creativecommons.org/ns#" xmlns:rdf="http://www.w3.org/1999/02/22-rdf-syntax-ns#">
   <cc:Work>
    <dc:type rdf:resource="http://purl.org/dc/dcmitype/StillImage"/>
    <dc:date>2024-09-11T22:18:15.054865</dc:date>
    <dc:format>image/svg+xml</dc:format>
    <dc:creator>
     <cc:Agent>
      <dc:title>Matplotlib v3.9.2, https://matplotlib.org/</dc:title>
     </cc:Agent>
    </dc:creator>
   </cc:Work>
  </rdf:RDF>
 </metadata>
 <defs>
  <style type="text/css">*{stroke-linejoin: round; stroke-linecap: butt}</style>
 </defs>
 <g id="figure_1">
  <g id="patch_1">
   <path d="M 0 345.6 
L 460.8 345.6 
L 460.8 0 
L 0 0 
z
" style="fill: #ffffff"/>
  </g>
  <g id="axes_1">
   <g id="patch_2">
    <path d="M 106.13 303.64 
L 450 303.64 
L 450 25.49625 
L 106.13 25.49625 
z
" style="fill: #eaeaf2"/>
   </g>
   <g id="matplotlib.axis_1">
    <g id="xtick_1">
     <g id="text_1">
      <!-- 2 -->
      <g style="fill: #262626" transform="translate(137.150677 317.797812) scale(0.1 -0.1)">
       <defs>
        <path id="ArialMT-32" d="M 3222 541 
L 3222 0 
L 194 0 
Q 188 203 259 391 
Q 375 700 629 1000 
Q 884 1300 1366 1694 
Q 2113 2306 2375 2664 
Q 2638 3022 2638 3341 
Q 2638 3675 2398 3904 
Q 2159 4134 1775 4134 
Q 1369 4134 1125 3890 
Q 881 3647 878 3216 
L 300 3275 
Q 359 3922 746 4261 
Q 1134 4600 1788 4600 
Q 2447 4600 2831 4234 
Q 3216 3869 3216 3328 
Q 3216 3053 3103 2787 
Q 2991 2522 2730 2228 
Q 2469 1934 1863 1422 
Q 1356 997 1212 845 
Q 1069 694 975 541 
L 3222 541 
z
" transform="scale(0.015625)"/>
       </defs>
       <use xlink:href="#ArialMT-32"/>
      </g>
     </g>
    </g>
    <g id="xtick_2">
     <g id="text_2">
      <!-- 4 -->
      <g style="fill: #262626" transform="translate(212.238523 317.797812) scale(0.1 -0.1)">
       <defs>
        <path id="ArialMT-34" d="M 2069 0 
L 2069 1097 
L 81 1097 
L 81 1613 
L 2172 4581 
L 2631 4581 
L 2631 1613 
L 3250 1613 
L 3250 1097 
L 2631 1097 
L 2631 0 
L 2069 0 
z
M 2069 1613 
L 2069 3678 
L 634 1613 
L 2069 1613 
z
" transform="scale(0.015625)"/>
       </defs>
       <use xlink:href="#ArialMT-34"/>
      </g>
     </g>
    </g>
    <g id="xtick_3">
     <g id="text_3">
      <!-- 6 -->
      <g style="fill: #262626" transform="translate(287.326369 317.797812) scale(0.1 -0.1)">
       <defs>
        <path id="ArialMT-36" d="M 3184 3459 
L 2625 3416 
Q 2550 3747 2413 3897 
Q 2184 4138 1850 4138 
Q 1581 4138 1378 3988 
Q 1113 3794 959 3422 
Q 806 3050 800 2363 
Q 1003 2672 1297 2822 
Q 1591 2972 1913 2972 
Q 2475 2972 2870 2558 
Q 3266 2144 3266 1488 
Q 3266 1056 3080 686 
Q 2894 316 2569 119 
Q 2244 -78 1831 -78 
Q 1128 -78 684 439 
Q 241 956 241 2144 
Q 241 3472 731 4075 
Q 1159 4600 1884 4600 
Q 2425 4600 2770 4297 
Q 3116 3994 3184 3459 
z
M 888 1484 
Q 888 1194 1011 928 
Q 1134 663 1356 523 
Q 1578 384 1822 384 
Q 2178 384 2434 671 
Q 2691 959 2691 1453 
Q 2691 1928 2437 2201 
Q 2184 2475 1800 2475 
Q 1419 2475 1153 2201 
Q 888 1928 888 1484 
z
" transform="scale(0.015625)"/>
       </defs>
       <use xlink:href="#ArialMT-36"/>
      </g>
     </g>
    </g>
    <g id="xtick_4">
     <g id="text_4">
      <!-- 8 -->
      <g style="fill: #262626" transform="translate(362.414215 317.797812) scale(0.1 -0.1)">
       <defs>
        <path id="ArialMT-38" d="M 1131 2484 
Q 781 2613 612 2850 
Q 444 3088 444 3419 
Q 444 3919 803 4259 
Q 1163 4600 1759 4600 
Q 2359 4600 2725 4251 
Q 3091 3903 3091 3403 
Q 3091 3084 2923 2848 
Q 2756 2613 2416 2484 
Q 2838 2347 3058 2040 
Q 3278 1734 3278 1309 
Q 3278 722 2862 322 
Q 2447 -78 1769 -78 
Q 1091 -78 675 323 
Q 259 725 259 1325 
Q 259 1772 486 2073 
Q 713 2375 1131 2484 
z
M 1019 3438 
Q 1019 3113 1228 2906 
Q 1438 2700 1772 2700 
Q 2097 2700 2305 2904 
Q 2513 3109 2513 3406 
Q 2513 3716 2298 3927 
Q 2084 4138 1766 4138 
Q 1444 4138 1231 3931 
Q 1019 3725 1019 3438 
z
M 838 1322 
Q 838 1081 952 856 
Q 1066 631 1291 507 
Q 1516 384 1775 384 
Q 2178 384 2440 643 
Q 2703 903 2703 1303 
Q 2703 1709 2433 1975 
Q 2163 2241 1756 2241 
Q 1359 2241 1098 1978 
Q 838 1716 838 1322 
z
" transform="scale(0.015625)"/>
       </defs>
       <use xlink:href="#ArialMT-38"/>
      </g>
     </g>
    </g>
    <g id="xtick_5">
     <g id="text_5">
      <!-- 10 -->
      <g style="fill: #262626" transform="translate(434.721593 317.797812) scale(0.1 -0.1)">
       <defs>
        <path id="ArialMT-31" d="M 2384 0 
L 1822 0 
L 1822 3584 
Q 1619 3391 1289 3197 
Q 959 3003 697 2906 
L 697 3450 
Q 1169 3672 1522 3987 
Q 1875 4303 2022 4600 
L 2384 4600 
L 2384 0 
z
" transform="scale(0.015625)"/>
        <path id="ArialMT-30" d="M 266 2259 
Q 266 3072 433 3567 
Q 600 4063 929 4331 
Q 1259 4600 1759 4600 
Q 2128 4600 2406 4451 
Q 2684 4303 2865 4023 
Q 3047 3744 3150 3342 
Q 3253 2941 3253 2259 
Q 3253 1453 3087 958 
Q 2922 463 2592 192 
Q 2263 -78 1759 -78 
Q 1097 -78 719 397 
Q 266 969 266 2259 
z
M 844 2259 
Q 844 1131 1108 757 
Q 1372 384 1759 384 
Q 2147 384 2411 759 
Q 2675 1134 2675 2259 
Q 2675 3391 2411 3762 
Q 2147 4134 1753 4134 
Q 1366 4134 1134 3806 
Q 844 3388 844 2259 
z
" transform="scale(0.015625)"/>
       </defs>
       <use xlink:href="#ArialMT-31"/>
       <use xlink:href="#ArialMT-30" x="55.615234"/>
      </g>
     </g>
    </g>
    <g id="text_6">
     <!-- Rating -->
     <g style="fill: #262626" transform="translate(263.612656 330.943125) scale(0.1 -0.1)">
      <defs>
       <path id="ArialMT-52" d="M 503 0 
L 503 4581 
L 2534 4581 
Q 3147 4581 3465 4457 
Q 3784 4334 3975 4021 
Q 4166 3709 4166 3331 
Q 4166 2844 3850 2509 
Q 3534 2175 2875 2084 
Q 3116 1969 3241 1856 
Q 3506 1613 3744 1247 
L 4541 0 
L 3778 0 
L 3172 953 
Q 2906 1366 2734 1584 
Q 2563 1803 2427 1890 
Q 2291 1978 2150 2013 
Q 2047 2034 1813 2034 
L 1109 2034 
L 1109 0 
L 503 0 
z
M 1109 2559 
L 2413 2559 
Q 2828 2559 3062 2645 
Q 3297 2731 3419 2920 
Q 3541 3109 3541 3331 
Q 3541 3656 3305 3865 
Q 3069 4075 2559 4075 
L 1109 4075 
L 1109 2559 
z
" transform="scale(0.015625)"/>
       <path id="ArialMT-61" d="M 2588 409 
Q 2275 144 1986 34 
Q 1697 -75 1366 -75 
Q 819 -75 525 192 
Q 231 459 231 875 
Q 231 1119 342 1320 
Q 453 1522 633 1644 
Q 813 1766 1038 1828 
Q 1203 1872 1538 1913 
Q 2219 1994 2541 2106 
Q 2544 2222 2544 2253 
Q 2544 2597 2384 2738 
Q 2169 2928 1744 2928 
Q 1347 2928 1158 2789 
Q 969 2650 878 2297 
L 328 2372 
Q 403 2725 575 2942 
Q 747 3159 1072 3276 
Q 1397 3394 1825 3394 
Q 2250 3394 2515 3294 
Q 2781 3194 2906 3042 
Q 3031 2891 3081 2659 
Q 3109 2516 3109 2141 
L 3109 1391 
Q 3109 606 3145 398 
Q 3181 191 3288 0 
L 2700 0 
Q 2613 175 2588 409 
z
M 2541 1666 
Q 2234 1541 1622 1453 
Q 1275 1403 1131 1340 
Q 988 1278 909 1158 
Q 831 1038 831 891 
Q 831 666 1001 516 
Q 1172 366 1500 366 
Q 1825 366 2078 508 
Q 2331 650 2450 897 
Q 2541 1088 2541 1459 
L 2541 1666 
z
" transform="scale(0.015625)"/>
       <path id="ArialMT-74" d="M 1650 503 
L 1731 6 
Q 1494 -44 1306 -44 
Q 1000 -44 831 53 
Q 663 150 594 308 
Q 525 466 525 972 
L 525 2881 
L 113 2881 
L 113 3319 
L 525 3319 
L 525 4141 
L 1084 4478 
L 1084 3319 
L 1650 3319 
L 1650 2881 
L 1084 2881 
L 1084 941 
Q 1084 700 1114 631 
Q 1144 563 1211 522 
Q 1278 481 1403 481 
Q 1497 481 1650 503 
z
" transform="scale(0.015625)"/>
       <path id="ArialMT-69" d="M 425 3934 
L 425 4581 
L 988 4581 
L 988 3934 
L 425 3934 
z
M 425 0 
L 425 3319 
L 988 3319 
L 988 0 
L 425 0 
z
" transform="scale(0.015625)"/>
       <path id="ArialMT-6e" d="M 422 0 
L 422 3319 
L 928 3319 
L 928 2847 
Q 1294 3394 1984 3394 
Q 2284 3394 2536 3286 
Q 2788 3178 2913 3003 
Q 3038 2828 3088 2588 
Q 3119 2431 3119 2041 
L 3119 0 
L 2556 0 
L 2556 2019 
Q 2556 2363 2490 2533 
Q 2425 2703 2258 2804 
Q 2091 2906 1866 2906 
Q 1506 2906 1245 2678 
Q 984 2450 984 1813 
L 984 0 
L 422 0 
z
" transform="scale(0.015625)"/>
       <path id="ArialMT-67" d="M 319 -275 
L 866 -356 
Q 900 -609 1056 -725 
Q 1266 -881 1628 -881 
Q 2019 -881 2231 -725 
Q 2444 -569 2519 -288 
Q 2563 -116 2559 434 
Q 2191 0 1641 0 
Q 956 0 581 494 
Q 206 988 206 1678 
Q 206 2153 378 2554 
Q 550 2956 876 3175 
Q 1203 3394 1644 3394 
Q 2231 3394 2613 2919 
L 2613 3319 
L 3131 3319 
L 3131 450 
Q 3131 -325 2973 -648 
Q 2816 -972 2473 -1159 
Q 2131 -1347 1631 -1347 
Q 1038 -1347 672 -1080 
Q 306 -813 319 -275 
z
M 784 1719 
Q 784 1066 1043 766 
Q 1303 466 1694 466 
Q 2081 466 2343 764 
Q 2606 1063 2606 1700 
Q 2606 2309 2336 2618 
Q 2066 2928 1684 2928 
Q 1309 2928 1046 2623 
Q 784 2319 784 1719 
z
" transform="scale(0.015625)"/>
      </defs>
      <use xlink:href="#ArialMT-52"/>
      <use xlink:href="#ArialMT-61" x="72.216797"/>
      <use xlink:href="#ArialMT-74" x="127.832031"/>
      <use xlink:href="#ArialMT-69" x="155.615234"/>
      <use xlink:href="#ArialMT-6e" x="177.832031"/>
      <use xlink:href="#ArialMT-67" x="233.447266"/>
     </g>
    </g>
   </g>
   <g id="matplotlib.axis_2">
    <g id="ytick_1">
     <g id="text_7">
      <!-- Children's Game -->
      <g style="fill: #262626" transform="translate(24.97375 46.459141) scale(0.1 -0.1)">
       <defs>
        <path id="ArialMT-43" d="M 3763 1606 
L 4369 1453 
Q 4178 706 3683 314 
Q 3188 -78 2472 -78 
Q 1731 -78 1267 223 
Q 803 525 561 1097 
Q 319 1669 319 2325 
Q 319 3041 592 3573 
Q 866 4106 1370 4382 
Q 1875 4659 2481 4659 
Q 3169 4659 3637 4309 
Q 4106 3959 4291 3325 
L 3694 3184 
Q 3534 3684 3231 3912 
Q 2928 4141 2469 4141 
Q 1941 4141 1586 3887 
Q 1231 3634 1087 3207 
Q 944 2781 944 2328 
Q 944 1744 1114 1308 
Q 1284 872 1643 656 
Q 2003 441 2422 441 
Q 2931 441 3284 734 
Q 3638 1028 3763 1606 
z
" transform="scale(0.015625)"/>
        <path id="ArialMT-68" d="M 422 0 
L 422 4581 
L 984 4581 
L 984 2938 
Q 1378 3394 1978 3394 
Q 2347 3394 2619 3248 
Q 2891 3103 3008 2847 
Q 3125 2591 3125 2103 
L 3125 0 
L 2563 0 
L 2563 2103 
Q 2563 2525 2380 2717 
Q 2197 2909 1863 2909 
Q 1613 2909 1392 2779 
Q 1172 2650 1078 2428 
Q 984 2206 984 1816 
L 984 0 
L 422 0 
z
" transform="scale(0.015625)"/>
        <path id="ArialMT-6c" d="M 409 0 
L 409 4581 
L 972 4581 
L 972 0 
L 409 0 
z
" transform="scale(0.015625)"/>
        <path id="ArialMT-64" d="M 2575 0 
L 2575 419 
Q 2259 -75 1647 -75 
Q 1250 -75 917 144 
Q 584 363 401 755 
Q 219 1147 219 1656 
Q 219 2153 384 2558 
Q 550 2963 881 3178 
Q 1213 3394 1622 3394 
Q 1922 3394 2156 3267 
Q 2391 3141 2538 2938 
L 2538 4581 
L 3097 4581 
L 3097 0 
L 2575 0 
z
M 797 1656 
Q 797 1019 1065 703 
Q 1334 388 1700 388 
Q 2069 388 2326 689 
Q 2584 991 2584 1609 
Q 2584 2291 2321 2609 
Q 2059 2928 1675 2928 
Q 1300 2928 1048 2622 
Q 797 2316 797 1656 
z
" transform="scale(0.015625)"/>
        <path id="ArialMT-72" d="M 416 0 
L 416 3319 
L 922 3319 
L 922 2816 
Q 1116 3169 1280 3281 
Q 1444 3394 1641 3394 
Q 1925 3394 2219 3213 
L 2025 2691 
Q 1819 2813 1613 2813 
Q 1428 2813 1281 2702 
Q 1134 2591 1072 2394 
Q 978 2094 978 1738 
L 978 0 
L 416 0 
z
" transform="scale(0.015625)"/>
        <path id="ArialMT-65" d="M 2694 1069 
L 3275 997 
Q 3138 488 2766 206 
Q 2394 -75 1816 -75 
Q 1088 -75 661 373 
Q 234 822 234 1631 
Q 234 2469 665 2931 
Q 1097 3394 1784 3394 
Q 2450 3394 2872 2941 
Q 3294 2488 3294 1666 
Q 3294 1616 3291 1516 
L 816 1516 
Q 847 969 1125 678 
Q 1403 388 1819 388 
Q 2128 388 2347 550 
Q 2566 713 2694 1069 
z
M 847 1978 
L 2700 1978 
Q 2663 2397 2488 2606 
Q 2219 2931 1791 2931 
Q 1403 2931 1139 2672 
Q 875 2413 847 1978 
z
" transform="scale(0.015625)"/>
        <path id="ArialMT-27" d="M 425 2959 
L 281 3816 
L 281 4581 
L 922 4581 
L 922 3816 
L 772 2959 
L 425 2959 
z
" transform="scale(0.015625)"/>
        <path id="ArialMT-73" d="M 197 991 
L 753 1078 
Q 800 744 1014 566 
Q 1228 388 1613 388 
Q 2000 388 2187 545 
Q 2375 703 2375 916 
Q 2375 1106 2209 1216 
Q 2094 1291 1634 1406 
Q 1016 1563 777 1677 
Q 538 1791 414 1992 
Q 291 2194 291 2438 
Q 291 2659 392 2848 
Q 494 3038 669 3163 
Q 800 3259 1026 3326 
Q 1253 3394 1513 3394 
Q 1903 3394 2198 3281 
Q 2494 3169 2634 2976 
Q 2775 2784 2828 2463 
L 2278 2388 
Q 2241 2644 2061 2787 
Q 1881 2931 1553 2931 
Q 1166 2931 1000 2803 
Q 834 2675 834 2503 
Q 834 2394 903 2306 
Q 972 2216 1119 2156 
Q 1203 2125 1616 2013 
Q 2213 1853 2448 1751 
Q 2684 1650 2818 1456 
Q 2953 1263 2953 975 
Q 2953 694 2789 445 
Q 2625 197 2315 61 
Q 2006 -75 1616 -75 
Q 969 -75 630 194 
Q 291 463 197 991 
z
" transform="scale(0.015625)"/>
        <path id="ArialMT-20" transform="scale(0.015625)"/>
        <path id="ArialMT-47" d="M 2638 1797 
L 2638 2334 
L 4578 2338 
L 4578 638 
Q 4131 281 3656 101 
Q 3181 -78 2681 -78 
Q 2006 -78 1454 211 
Q 903 500 622 1047 
Q 341 1594 341 2269 
Q 341 2938 620 3517 
Q 900 4097 1425 4378 
Q 1950 4659 2634 4659 
Q 3131 4659 3532 4498 
Q 3934 4338 4162 4050 
Q 4391 3763 4509 3300 
L 3963 3150 
Q 3859 3500 3706 3700 
Q 3553 3900 3268 4020 
Q 2984 4141 2638 4141 
Q 2222 4141 1919 4014 
Q 1616 3888 1430 3681 
Q 1244 3475 1141 3228 
Q 966 2803 966 2306 
Q 966 1694 1177 1281 
Q 1388 869 1791 669 
Q 2194 469 2647 469 
Q 3041 469 3416 620 
Q 3791 772 3984 944 
L 3984 1797 
L 2638 1797 
z
" transform="scale(0.015625)"/>
        <path id="ArialMT-6d" d="M 422 0 
L 422 3319 
L 925 3319 
L 925 2853 
Q 1081 3097 1340 3245 
Q 1600 3394 1931 3394 
Q 2300 3394 2536 3241 
Q 2772 3088 2869 2813 
Q 3263 3394 3894 3394 
Q 4388 3394 4653 3120 
Q 4919 2847 4919 2278 
L 4919 0 
L 4359 0 
L 4359 2091 
Q 4359 2428 4304 2576 
Q 4250 2725 4106 2815 
Q 3963 2906 3769 2906 
Q 3419 2906 3187 2673 
Q 2956 2441 2956 1928 
L 2956 0 
L 2394 0 
L 2394 2156 
Q 2394 2531 2256 2718 
Q 2119 2906 1806 2906 
Q 1569 2906 1367 2781 
Q 1166 2656 1075 2415 
Q 984 2175 984 1722 
L 984 0 
L 422 0 
z
" transform="scale(0.015625)"/>
       </defs>
       <use xlink:href="#ArialMT-43"/>
       <use xlink:href="#ArialMT-68" x="72.216797"/>
       <use xlink:href="#ArialMT-69" x="127.832031"/>
       <use xlink:href="#ArialMT-6c" x="150.048828"/>
       <use xlink:href="#ArialMT-64" x="172.265625"/>
       <use xlink:href="#ArialMT-72" x="227.880859"/>
       <use xlink:href="#ArialMT-65" x="261.181641"/>
       <use xlink:href="#ArialMT-6e" x="316.796875"/>
       <use xlink:href="#ArialMT-27" x="372.412109"/>
       <use xlink:href="#ArialMT-73" x="391.503906"/>
       <use xlink:href="#ArialMT-20" x="441.503906"/>
       <use xlink:href="#ArialMT-47" x="469.287109"/>
       <use xlink:href="#ArialMT-61" x="547.070312"/>
       <use xlink:href="#ArialMT-6d" x="602.685547"/>
       <use xlink:href="#ArialMT-65" x="685.986328"/>
      </g>
     </g>
    </g>
    <g id="ytick_2">
     <g id="text_8">
      <!-- Party Game -->
      <g style="fill: #262626" transform="translate(45.783125 81.288047) scale(0.1 -0.1)">
       <defs>
        <path id="ArialMT-50" d="M 494 0 
L 494 4581 
L 2222 4581 
Q 2678 4581 2919 4538 
Q 3256 4481 3484 4323 
Q 3713 4166 3852 3881 
Q 3991 3597 3991 3256 
Q 3991 2672 3619 2267 
Q 3247 1863 2275 1863 
L 1100 1863 
L 1100 0 
L 494 0 
z
M 1100 2403 
L 2284 2403 
Q 2872 2403 3119 2622 
Q 3366 2841 3366 3238 
Q 3366 3525 3220 3729 
Q 3075 3934 2838 4000 
Q 2684 4041 2272 4041 
L 1100 4041 
L 1100 2403 
z
" transform="scale(0.015625)"/>
        <path id="ArialMT-79" d="M 397 -1278 
L 334 -750 
Q 519 -800 656 -800 
Q 844 -800 956 -737 
Q 1069 -675 1141 -563 
Q 1194 -478 1313 -144 
Q 1328 -97 1363 -6 
L 103 3319 
L 709 3319 
L 1400 1397 
Q 1534 1031 1641 628 
Q 1738 1016 1872 1384 
L 2581 3319 
L 3144 3319 
L 1881 -56 
Q 1678 -603 1566 -809 
Q 1416 -1088 1222 -1217 
Q 1028 -1347 759 -1347 
Q 597 -1347 397 -1278 
z
" transform="scale(0.015625)"/>
       </defs>
       <use xlink:href="#ArialMT-50"/>
       <use xlink:href="#ArialMT-61" x="66.699219"/>
       <use xlink:href="#ArialMT-72" x="122.314453"/>
       <use xlink:href="#ArialMT-74" x="155.615234"/>
       <use xlink:href="#ArialMT-79" x="183.398438"/>
       <use xlink:href="#ArialMT-20" x="233.398438"/>
       <use xlink:href="#ArialMT-47" x="261.181641"/>
       <use xlink:href="#ArialMT-61" x="338.964844"/>
       <use xlink:href="#ArialMT-6d" x="394.580078"/>
       <use xlink:href="#ArialMT-65" x="477.880859"/>
      </g>
     </g>
    </g>
    <g id="ytick_3">
     <g id="text_9">
      <!-- Abstract Game -->
      <g style="fill: #262626" transform="translate(32.444063 115.995078) scale(0.1 -0.1)">
       <defs>
        <path id="ArialMT-41" d="M -9 0 
L 1750 4581 
L 2403 4581 
L 4278 0 
L 3588 0 
L 3053 1388 
L 1138 1388 
L 634 0 
L -9 0 
z
M 1313 1881 
L 2866 1881 
L 2388 3150 
Q 2169 3728 2063 4100 
Q 1975 3659 1816 3225 
L 1313 1881 
z
" transform="scale(0.015625)"/>
        <path id="ArialMT-62" d="M 941 0 
L 419 0 
L 419 4581 
L 981 4581 
L 981 2947 
Q 1338 3394 1891 3394 
Q 2197 3394 2470 3270 
Q 2744 3147 2920 2923 
Q 3097 2700 3197 2384 
Q 3297 2069 3297 1709 
Q 3297 856 2875 390 
Q 2453 -75 1863 -75 
Q 1275 -75 941 416 
L 941 0 
z
M 934 1684 
Q 934 1088 1097 822 
Q 1363 388 1816 388 
Q 2184 388 2453 708 
Q 2722 1028 2722 1663 
Q 2722 2313 2464 2622 
Q 2206 2931 1841 2931 
Q 1472 2931 1203 2611 
Q 934 2291 934 1684 
z
" transform="scale(0.015625)"/>
        <path id="ArialMT-63" d="M 2588 1216 
L 3141 1144 
Q 3050 572 2676 248 
Q 2303 -75 1759 -75 
Q 1078 -75 664 370 
Q 250 816 250 1647 
Q 250 2184 428 2587 
Q 606 2991 970 3192 
Q 1334 3394 1763 3394 
Q 2303 3394 2647 3120 
Q 2991 2847 3088 2344 
L 2541 2259 
Q 2463 2594 2264 2762 
Q 2066 2931 1784 2931 
Q 1359 2931 1093 2626 
Q 828 2322 828 1663 
Q 828 994 1084 691 
Q 1341 388 1753 388 
Q 2084 388 2306 591 
Q 2528 794 2588 1216 
z
" transform="scale(0.015625)"/>
       </defs>
       <use xlink:href="#ArialMT-41"/>
       <use xlink:href="#ArialMT-62" x="66.699219"/>
       <use xlink:href="#ArialMT-73" x="122.314453"/>
       <use xlink:href="#ArialMT-74" x="172.314453"/>
       <use xlink:href="#ArialMT-72" x="200.097656"/>
       <use xlink:href="#ArialMT-61" x="233.398438"/>
       <use xlink:href="#ArialMT-63" x="289.013672"/>
       <use xlink:href="#ArialMT-74" x="339.013672"/>
       <use xlink:href="#ArialMT-20" x="366.796875"/>
       <use xlink:href="#ArialMT-47" x="394.580078"/>
       <use xlink:href="#ArialMT-61" x="472.363281"/>
       <use xlink:href="#ArialMT-6d" x="527.978516"/>
       <use xlink:href="#ArialMT-65" x="611.279297"/>
      </g>
     </g>
    </g>
    <g id="ytick_4">
     <g id="text_10">
      <!-- Family Game -->
      <g style="fill: #262626" transform="translate(39.68 150.823984) scale(0.1 -0.1)">
       <defs>
        <path id="ArialMT-46" d="M 525 0 
L 525 4581 
L 3616 4581 
L 3616 4041 
L 1131 4041 
L 1131 2622 
L 3281 2622 
L 3281 2081 
L 1131 2081 
L 1131 0 
L 525 0 
z
" transform="scale(0.015625)"/>
       </defs>
       <use xlink:href="#ArialMT-46"/>
       <use xlink:href="#ArialMT-61" x="61.083984"/>
       <use xlink:href="#ArialMT-6d" x="116.699219"/>
       <use xlink:href="#ArialMT-69" x="200"/>
       <use xlink:href="#ArialMT-6c" x="222.216797"/>
       <use xlink:href="#ArialMT-79" x="244.433594"/>
       <use xlink:href="#ArialMT-20" x="294.433594"/>
       <use xlink:href="#ArialMT-47" x="322.216797"/>
       <use xlink:href="#ArialMT-61" x="400"/>
       <use xlink:href="#ArialMT-6d" x="455.615234"/>
       <use xlink:href="#ArialMT-65" x="538.916016"/>
      </g>
     </g>
    </g>
    <g id="ytick_5">
     <g id="text_11">
      <!-- Customizable -->
      <g style="fill: #262626" transform="translate(38.551875 185.531016) scale(0.1 -0.1)">
       <defs>
        <path id="ArialMT-75" d="M 2597 0 
L 2597 488 
Q 2209 -75 1544 -75 
Q 1250 -75 995 37 
Q 741 150 617 320 
Q 494 491 444 738 
Q 409 903 409 1263 
L 409 3319 
L 972 3319 
L 972 1478 
Q 972 1038 1006 884 
Q 1059 663 1231 536 
Q 1403 409 1656 409 
Q 1909 409 2131 539 
Q 2353 669 2445 892 
Q 2538 1116 2538 1541 
L 2538 3319 
L 3100 3319 
L 3100 0 
L 2597 0 
z
" transform="scale(0.015625)"/>
        <path id="ArialMT-6f" d="M 213 1659 
Q 213 2581 725 3025 
Q 1153 3394 1769 3394 
Q 2453 3394 2887 2945 
Q 3322 2497 3322 1706 
Q 3322 1066 3130 698 
Q 2938 331 2570 128 
Q 2203 -75 1769 -75 
Q 1072 -75 642 372 
Q 213 819 213 1659 
z
M 791 1659 
Q 791 1022 1069 705 
Q 1347 388 1769 388 
Q 2188 388 2466 706 
Q 2744 1025 2744 1678 
Q 2744 2294 2464 2611 
Q 2184 2928 1769 2928 
Q 1347 2928 1069 2612 
Q 791 2297 791 1659 
z
" transform="scale(0.015625)"/>
        <path id="ArialMT-7a" d="M 125 0 
L 125 456 
L 2238 2881 
Q 1878 2863 1603 2863 
L 250 2863 
L 250 3319 
L 2963 3319 
L 2963 2947 
L 1166 841 
L 819 456 
Q 1197 484 1528 484 
L 3063 484 
L 3063 0 
L 125 0 
z
" transform="scale(0.015625)"/>
       </defs>
       <use xlink:href="#ArialMT-43"/>
       <use xlink:href="#ArialMT-75" x="72.216797"/>
       <use xlink:href="#ArialMT-73" x="127.832031"/>
       <use xlink:href="#ArialMT-74" x="177.832031"/>
       <use xlink:href="#ArialMT-6f" x="205.615234"/>
       <use xlink:href="#ArialMT-6d" x="261.230469"/>
       <use xlink:href="#ArialMT-69" x="344.53125"/>
       <use xlink:href="#ArialMT-7a" x="366.748047"/>
       <use xlink:href="#ArialMT-61" x="416.748047"/>
       <use xlink:href="#ArialMT-62" x="472.363281"/>
       <use xlink:href="#ArialMT-6c" x="527.978516"/>
       <use xlink:href="#ArialMT-65" x="550.195312"/>
      </g>
     </g>
    </g>
    <g id="ytick_6">
     <g id="text_12">
      <!-- Thematic -->
      <g style="fill: #262626" transform="translate(58.009688 220.298984) scale(0.1 -0.1)">
       <defs>
        <path id="ArialMT-54" d="M 1659 0 
L 1659 4041 
L 150 4041 
L 150 4581 
L 3781 4581 
L 3781 4041 
L 2266 4041 
L 2266 0 
L 1659 0 
z
" transform="scale(0.015625)"/>
       </defs>
       <use xlink:href="#ArialMT-54"/>
       <use xlink:href="#ArialMT-68" x="61.083984"/>
       <use xlink:href="#ArialMT-65" x="116.699219"/>
       <use xlink:href="#ArialMT-6d" x="172.314453"/>
       <use xlink:href="#ArialMT-61" x="255.615234"/>
       <use xlink:href="#ArialMT-74" x="311.230469"/>
       <use xlink:href="#ArialMT-69" x="339.013672"/>
       <use xlink:href="#ArialMT-63" x="361.230469"/>
      </g>
     </g>
    </g>
    <g id="ytick_7">
     <g id="text_13">
      <!-- War Game -->
      <g style="fill: #262626" transform="translate(51.1675 255.066953) scale(0.1 -0.1)">
       <defs>
        <path id="ArialMT-57" d="M 1294 0 
L 78 4581 
L 700 4581 
L 1397 1578 
Q 1509 1106 1591 641 
Q 1766 1375 1797 1488 
L 2669 4581 
L 3400 4581 
L 4056 2263 
Q 4303 1400 4413 641 
Q 4500 1075 4641 1638 
L 5359 4581 
L 5969 4581 
L 4713 0 
L 4128 0 
L 3163 3491 
Q 3041 3928 3019 4028 
Q 2947 3713 2884 3491 
L 1913 0 
L 1294 0 
z
" transform="scale(0.015625)"/>
       </defs>
       <use xlink:href="#ArialMT-57"/>
       <use xlink:href="#ArialMT-61" x="90.634766"/>
       <use xlink:href="#ArialMT-72" x="146.25"/>
       <use xlink:href="#ArialMT-20" x="179.550781"/>
       <use xlink:href="#ArialMT-47" x="207.333984"/>
       <use xlink:href="#ArialMT-61" x="285.117188"/>
       <use xlink:href="#ArialMT-6d" x="340.732422"/>
       <use xlink:href="#ArialMT-65" x="424.033203"/>
      </g>
     </g>
    </g>
    <g id="ytick_8">
     <g id="text_14">
      <!-- Strategy Game -->
      <g style="fill: #262626" transform="translate(31.883125 289.895859) scale(0.1 -0.1)">
       <defs>
        <path id="ArialMT-53" d="M 288 1472 
L 859 1522 
Q 900 1178 1048 958 
Q 1197 738 1509 602 
Q 1822 466 2213 466 
Q 2559 466 2825 569 
Q 3091 672 3220 851 
Q 3350 1031 3350 1244 
Q 3350 1459 3225 1620 
Q 3100 1781 2813 1891 
Q 2628 1963 1997 2114 
Q 1366 2266 1113 2400 
Q 784 2572 623 2826 
Q 463 3081 463 3397 
Q 463 3744 659 4045 
Q 856 4347 1234 4503 
Q 1613 4659 2075 4659 
Q 2584 4659 2973 4495 
Q 3363 4331 3572 4012 
Q 3781 3694 3797 3291 
L 3216 3247 
Q 3169 3681 2898 3903 
Q 2628 4125 2100 4125 
Q 1550 4125 1298 3923 
Q 1047 3722 1047 3438 
Q 1047 3191 1225 3031 
Q 1400 2872 2139 2705 
Q 2878 2538 3153 2413 
Q 3553 2228 3743 1945 
Q 3934 1663 3934 1294 
Q 3934 928 3725 604 
Q 3516 281 3123 101 
Q 2731 -78 2241 -78 
Q 1619 -78 1198 103 
Q 778 284 539 648 
Q 300 1013 288 1472 
z
" transform="scale(0.015625)"/>
       </defs>
       <use xlink:href="#ArialMT-53"/>
       <use xlink:href="#ArialMT-74" x="66.699219"/>
       <use xlink:href="#ArialMT-72" x="94.482422"/>
       <use xlink:href="#ArialMT-61" x="127.783203"/>
       <use xlink:href="#ArialMT-74" x="183.398438"/>
       <use xlink:href="#ArialMT-65" x="211.181641"/>
       <use xlink:href="#ArialMT-67" x="266.796875"/>
       <use xlink:href="#ArialMT-79" x="322.412109"/>
       <use xlink:href="#ArialMT-20" x="372.412109"/>
       <use xlink:href="#ArialMT-47" x="400.195312"/>
       <use xlink:href="#ArialMT-61" x="477.978516"/>
       <use xlink:href="#ArialMT-6d" x="533.59375"/>
       <use xlink:href="#ArialMT-65" x="616.894531"/>
      </g>
     </g>
    </g>
    <g id="text_15">
     <!-- Game type -->
     <g style="fill: #262626" transform="translate(18.869063 189.022031) rotate(-90) scale(0.1 -0.1)">
      <defs>
       <path id="ArialMT-70" d="M 422 -1272 
L 422 3319 
L 934 3319 
L 934 2888 
Q 1116 3141 1344 3267 
Q 1572 3394 1897 3394 
Q 2322 3394 2647 3175 
Q 2972 2956 3137 2557 
Q 3303 2159 3303 1684 
Q 3303 1175 3120 767 
Q 2938 359 2589 142 
Q 2241 -75 1856 -75 
Q 1575 -75 1351 44 
Q 1128 163 984 344 
L 984 -1272 
L 422 -1272 
z
M 931 1641 
Q 931 1000 1190 694 
Q 1450 388 1819 388 
Q 2194 388 2461 705 
Q 2728 1022 2728 1688 
Q 2728 2322 2467 2637 
Q 2206 2953 1844 2953 
Q 1484 2953 1207 2617 
Q 931 2281 931 1641 
z
" transform="scale(0.015625)"/>
      </defs>
      <use xlink:href="#ArialMT-47"/>
      <use xlink:href="#ArialMT-61" x="77.783203"/>
      <use xlink:href="#ArialMT-6d" x="133.398438"/>
      <use xlink:href="#ArialMT-65" x="216.699219"/>
      <use xlink:href="#ArialMT-20" x="272.314453"/>
      <use xlink:href="#ArialMT-74" x="300.097656"/>
      <use xlink:href="#ArialMT-79" x="327.880859"/>
      <use xlink:href="#ArialMT-70" x="377.880859"/>
      <use xlink:href="#ArialMT-65" x="433.496094"/>
     </g>
    </g>
   </g>
   <g id="PolyCollection_1">
    <defs>
     <path id="m90a6c3bc71" d="M 155.732669 -302.713201 
L 155.732669 -302.72633 
L 158.164953 -302.731782 
L 160.597237 -302.739503 
L 163.029522 -302.748865 
L 165.461806 -302.758302 
L 167.89409 -302.765699 
L 170.326374 -302.769317 
L 172.758658 -302.768865 
L 175.190943 -302.766143 
L 177.623227 -302.76487 
L 180.055511 -302.769746 
L 182.487795 -302.785135 
L 184.920079 -302.813786 
L 187.352364 -302.855965 
L 189.784648 -302.909296 
L 192.216932 -302.969531 
L 194.649216 -303.032216 
L 197.081501 -303.094789 
L 199.513785 -303.158363 
L 201.946069 -303.228364 
L 204.378353 -303.313498 
L 206.810637 -303.423217 
L 209.242922 -303.564745 
L 211.675206 -303.741302 
L 214.10749 -303.952772 
L 216.539774 -304.198436 
L 218.972058 -304.479472 
L 221.404343 -304.798549 
L 223.836627 -305.155812 
L 226.268911 -305.543771 
L 228.701195 -305.945358 
L 231.133479 -306.33794 
L 233.565764 -306.702125 
L 235.998048 -307.030663 
L 238.430332 -307.332217 
L 240.862616 -307.627644 
L 243.2949 -307.940878 
L 245.727185 -308.28965 
L 248.159469 -308.68112 
L 250.591753 -309.11412 
L 253.024037 -309.585183 
L 255.456321 -310.093031 
L 257.888606 -310.63719 
L 260.32089 -311.210649 
L 262.753174 -311.791151 
L 265.185458 -312.338104 
L 267.617742 -312.800171 
L 270.050027 -313.132906 
L 272.482311 -313.31922 
L 274.914595 -313.381902 
L 277.346879 -313.379484 
L 279.779163 -313.384069 
L 282.211448 -313.44941 
L 284.643732 -313.584561 
L 287.076016 -313.74781 
L 289.5083 -313.865423 
L 291.940584 -313.865081 
L 294.372869 -313.705058 
L 296.805153 -313.384289 
L 299.237437 -312.932115 
L 301.669721 -312.388467 
L 304.102005 -311.787275 
L 306.53429 -311.149445 
L 308.966574 -310.484318 
L 311.398858 -309.79543 
L 313.831142 -309.086828 
L 316.263426 -308.367479 
L 318.695711 -307.652339 
L 321.127995 -306.960142 
L 323.560279 -306.309613 
L 325.992563 -305.716224 
L 328.424847 -305.190455 
L 330.857132 -304.737176 
L 333.289416 -304.355632 
L 335.7217 -304.040263 
L 338.153984 -303.782742 
L 340.586268 -303.574721 
L 343.018553 -303.40978 
L 345.450837 -303.283263 
L 347.883121 -303.19023 
L 350.315405 -303.123393 
L 352.747689 -303.073099 
L 355.179974 -303.029739 
L 357.612258 -302.986866 
L 360.044542 -302.942734 
L 362.476826 -302.899366 
L 364.90911 -302.860206 
L 367.341395 -302.828088 
L 369.773679 -302.804405 
L 372.205963 -302.789132 
L 374.638247 -302.781005 
L 377.070531 -302.777657 
L 379.502816 -302.776027 
L 381.9351 -302.773235 
L 384.367384 -302.767596 
L 386.799668 -302.759117 
L 389.231953 -302.749177 
L 391.664237 -302.73961 
L 394.096521 -302.731815 
L 396.528805 -302.726339 
L 396.528805 -302.713192 
L 396.528805 -302.713192 
L 394.096521 -302.707717 
L 391.664237 -302.699922 
L 389.231953 -302.690354 
L 386.799668 -302.680414 
L 384.367384 -302.671936 
L 381.9351 -302.666296 
L 379.502816 -302.663505 
L 377.070531 -302.661874 
L 374.638247 -302.658526 
L 372.205963 -302.650399 
L 369.773679 -302.635127 
L 367.341395 -302.611443 
L 364.90911 -302.579325 
L 362.476826 -302.540165 
L 360.044542 -302.496798 
L 357.612258 -302.452666 
L 355.179974 -302.409792 
L 352.747689 -302.366432 
L 350.315405 -302.316138 
L 347.883121 -302.249301 
L 345.450837 -302.156268 
L 343.018553 -302.029752 
L 340.586268 -301.86481 
L 338.153984 -301.656789 
L 335.7217 -301.399268 
L 333.289416 -301.0839 
L 330.857132 -300.702355 
L 328.424847 -300.249077 
L 325.992563 -299.723308 
L 323.560279 -299.129918 
L 321.127995 -298.479389 
L 318.695711 -297.787193 
L 316.263426 -297.072052 
L 313.831142 -296.352703 
L 311.398858 -295.644101 
L 308.966574 -294.955213 
L 306.53429 -294.290086 
L 304.102005 -293.652256 
L 301.669721 -293.051065 
L 299.237437 -292.507416 
L 296.805153 -292.055242 
L 294.372869 -291.734474 
L 291.940584 -291.57445 
L 289.5083 -291.574108 
L 287.076016 -291.691721 
L 284.643732 -291.85497 
L 282.211448 -291.990121 
L 279.779163 -292.055462 
L 277.346879 -292.060047 
L 274.914595 -292.057629 
L 272.482311 -292.120312 
L 270.050027 -292.306626 
L 267.617742 -292.63936 
L 265.185458 -293.101427 
L 262.753174 -293.64838 
L 260.32089 -294.228882 
L 257.888606 -294.802341 
L 255.456321 -295.3465 
L 253.024037 -295.854348 
L 250.591753 -296.325412 
L 248.159469 -296.758411 
L 245.727185 -297.149882 
L 243.2949 -297.498653 
L 240.862616 -297.811887 
L 238.430332 -298.107314 
L 235.998048 -298.408868 
L 233.565764 -298.737406 
L 231.133479 -299.101591 
L 228.701195 -299.494174 
L 226.268911 -299.89576 
L 223.836627 -300.283719 
L 221.404343 -300.640982 
L 218.972058 -300.960059 
L 216.539774 -301.241095 
L 214.10749 -301.486759 
L 211.675206 -301.698229 
L 209.242922 -301.874786 
L 206.810637 -302.016314 
L 204.378353 -302.126034 
L 201.946069 -302.211167 
L 199.513785 -302.281168 
L 197.081501 -302.344743 
L 194.649216 -302.407315 
L 192.216932 -302.47 
L 189.784648 -302.530236 
L 187.352364 -302.583566 
L 184.920079 -302.625745 
L 182.487795 -302.654396 
L 180.055511 -302.669786 
L 177.623227 -302.674662 
L 175.190943 -302.673388 
L 172.758658 -302.670666 
L 170.326374 -302.670215 
L 167.89409 -302.673833 
L 165.461806 -302.68123 
L 163.029522 -302.690667 
L 160.597237 -302.700028 
L 158.164953 -302.707749 
L 155.732669 -302.713201 
z
" style="stroke: #262626; stroke-width: 1.25"/>
    </defs>
    <g clip-path="url(#p857384f18b)">
     <use xlink:href="#m90a6c3bc71" x="0" y="345.6" style="fill: #701070; stroke: #262626; stroke-width: 1.25"/>
    </g>
   </g>
   <g id="PolyCollection_2">
    <defs>
     <path id="m8d1c8871d1" d="M 176.972476 -267.942564 
L 176.972476 -267.96103 
L 179.140347 -267.969137 
L 181.308218 -267.981695 
L 183.476089 -267.999291 
L 185.64396 -268.021591 
L 187.811831 -268.047115 
L 189.979701 -268.07341 
L 192.147572 -268.097661 
L 194.315443 -268.117572 
L 196.483314 -268.132202 
L 198.651185 -268.142328 
L 200.819056 -268.150049 
L 202.986927 -268.157717 
L 205.154798 -268.166715 
L 207.322669 -268.176849 
L 209.49054 -268.186794 
L 211.658411 -268.195386 
L 213.826281 -268.202957 
L 215.994152 -268.211824 
L 218.162023 -268.225491 
L 220.329894 -268.246893 
L 222.497765 -268.27673 
L 224.665636 -268.313076 
L 226.833507 -268.352752 
L 229.001378 -268.393768 
L 231.169249 -268.437291 
L 233.33712 -268.487904 
L 235.504991 -268.552115 
L 237.672861 -268.636289 
L 239.840732 -268.745381 
L 242.008603 -268.883042 
L 244.176474 -269.052577 
L 246.344345 -269.2577 
L 248.512216 -269.502426 
L 250.680087 -269.790333 
L 252.847958 -270.123987 
L 255.015829 -270.505049 
L 257.1837 -270.93453 
L 259.351571 -271.411833 
L 261.519441 -271.931758 
L 263.687312 -272.480795 
L 265.855183 -273.036099 
L 268.023054 -273.570215 
L 270.190925 -274.061008 
L 272.358796 -274.501979 
L 274.526667 -274.906817 
L 276.694538 -275.305241 
L 278.862409 -275.732265 
L 281.03028 -276.216224 
L 283.19815 -276.77036 
L 285.366021 -277.389942 
L 287.533892 -278.054173 
L 289.701763 -278.730736 
L 291.869634 -279.38097 
L 294.037505 -279.964615 
L 296.205376 -280.444408 
L 298.373247 -280.791495 
L 300.541118 -280.991607 
L 302.708989 -281.049495 
L 304.87686 -280.987567 
L 307.04473 -280.836706 
L 309.212601 -280.622544 
L 311.380472 -280.354892 
L 313.548343 -280.026951 
L 315.716214 -279.624719 
L 317.884085 -279.140247 
L 320.051956 -278.580455 
L 322.219827 -277.966881 
L 324.387698 -277.327616 
L 326.555569 -276.686626 
L 328.72344 -276.056117 
L 330.89131 -275.435368 
L 333.059181 -274.816074 
L 335.227052 -274.190944 
L 337.394923 -273.560468 
L 339.562794 -272.933977 
L 341.730665 -272.325009 
L 343.898536 -271.744974 
L 346.066407 -271.199851 
L 348.234278 -270.691593 
L 350.402149 -270.221937 
L 352.570019 -269.794927 
L 354.73789 -269.416327 
L 356.905761 -269.091024 
L 359.073632 -268.820722 
L 361.241503 -268.603333 
L 363.409374 -268.433892 
L 365.577245 -268.305941 
L 367.745116 -268.212579 
L 369.912987 -268.146942 
L 372.080858 -268.102318 
L 374.248729 -268.072253 
L 376.416599 -268.050922 
L 378.58447 -268.033736 
L 380.752341 -268.017908 
L 382.920212 -268.002558 
L 385.088083 -267.988205 
L 387.255954 -267.975894 
L 389.423825 -267.966402 
L 391.591696 -267.959866 
L 391.591696 -267.943728 
L 391.591696 -267.943728 
L 389.423825 -267.937192 
L 387.255954 -267.9277 
L 385.088083 -267.915389 
L 382.920212 -267.901036 
L 380.752341 -267.885685 
L 378.58447 -267.869858 
L 376.416599 -267.852672 
L 374.248729 -267.831341 
L 372.080858 -267.801276 
L 369.912987 -267.756651 
L 367.745116 -267.691014 
L 365.577245 -267.597653 
L 363.409374 -267.469701 
L 361.241503 -267.300261 
L 359.073632 -267.082872 
L 356.905761 -266.812569 
L 354.73789 -266.487267 
L 352.570019 -266.108667 
L 350.402149 -265.681657 
L 348.234278 -265.212001 
L 346.066407 -264.703743 
L 343.898536 -264.15862 
L 341.730665 -263.578585 
L 339.562794 -262.969617 
L 337.394923 -262.343126 
L 335.227052 -261.71265 
L 333.059181 -261.087519 
L 330.89131 -260.468226 
L 328.72344 -259.847477 
L 326.555569 -259.216968 
L 324.387698 -258.575978 
L 322.219827 -257.936713 
L 320.051956 -257.323139 
L 317.884085 -256.763346 
L 315.716214 -256.278875 
L 313.548343 -255.876643 
L 311.380472 -255.548702 
L 309.212601 -255.281049 
L 307.04473 -255.066888 
L 304.87686 -254.916026 
L 302.708989 -254.854099 
L 300.541118 -254.911987 
L 298.373247 -255.112098 
L 296.205376 -255.459186 
L 294.037505 -255.938979 
L 291.869634 -256.522624 
L 289.701763 -257.172858 
L 287.533892 -257.849421 
L 285.366021 -258.513652 
L 283.19815 -259.133234 
L 281.03028 -259.687369 
L 278.862409 -260.171329 
L 276.694538 -260.598353 
L 274.526667 -260.996777 
L 272.358796 -261.401615 
L 270.190925 -261.842586 
L 268.023054 -262.333379 
L 265.855183 -262.867495 
L 263.687312 -263.422799 
L 261.519441 -263.971836 
L 259.351571 -264.491761 
L 257.1837 -264.969064 
L 255.015829 -265.398545 
L 252.847958 -265.779607 
L 250.680087 -266.11326 
L 248.512216 -266.401168 
L 246.344345 -266.645894 
L 244.176474 -266.851016 
L 242.008603 -267.020552 
L 239.840732 -267.158213 
L 237.672861 -267.267305 
L 235.504991 -267.351479 
L 233.33712 -267.41569 
L 231.169249 -267.466302 
L 229.001378 -267.509826 
L 226.833507 -267.550842 
L 224.665636 -267.590518 
L 222.497765 -267.626863 
L 220.329894 -267.656701 
L 218.162023 -267.678103 
L 215.994152 -267.69177 
L 213.826281 -267.700637 
L 211.658411 -267.708208 
L 209.49054 -267.7168 
L 207.322669 -267.726745 
L 205.154798 -267.736879 
L 202.986927 -267.745877 
L 200.819056 -267.753545 
L 198.651185 -267.761266 
L 196.483314 -267.771391 
L 194.315443 -267.786021 
L 192.147572 -267.805933 
L 189.979701 -267.830183 
L 187.811831 -267.856479 
L 185.64396 -267.882002 
L 183.476089 -267.904302 
L 181.308218 -267.921899 
L 179.140347 -267.934457 
L 176.972476 -267.942564 
z
" style="stroke: #262626; stroke-width: 1.25"/>
    </defs>
    <g clip-path="url(#p857384f18b)">
     <use xlink:href="#m8d1c8871d1" x="0" y="345.6" style="fill: #701070; stroke: #262626; stroke-width: 1.25"/>
    </g>
   </g>
   <g id="PolyCollection_3">
    <defs>
     <path id="m6692409b28" d="M 191.832396 -233.178107 
L 191.832396 -233.189549 
L 193.987255 -233.194261 
L 196.142113 -233.201173 
L 198.296972 -233.210296 
L 200.451831 -233.221305 
L 202.60669 -233.233877 
L 204.761548 -233.248227 
L 206.916407 -233.265461 
L 209.071266 -233.287302 
L 211.226125 -233.315114 
L 213.380983 -233.348757 
L 215.535842 -233.386111 
L 217.690701 -233.423914 
L 219.84556 -233.459808 
L 222.000419 -233.494662 
L 224.155277 -233.533858 
L 226.310136 -233.586514 
L 228.464995 -233.66255 
L 230.619854 -233.768652 
L 232.774712 -233.905058 
L 234.929571 -234.065012 
L 237.08443 -234.237661 
L 239.239289 -234.413448 
L 241.394147 -234.589489 
L 243.549006 -234.772015 
L 245.703865 -234.974213 
L 247.858724 -235.210263 
L 250.013582 -235.488614 
L 252.168441 -235.808164 
L 254.3233 -236.159391 
L 256.478159 -236.529815 
L 258.633018 -236.910931 
L 260.787876 -237.303216 
L 262.942735 -237.716815 
L 265.097594 -238.167578 
L 267.252453 -238.670078 
L 269.407311 -239.230335 
L 271.56217 -239.840752 
L 273.717029 -240.47881 
L 275.871888 -241.110296 
L 278.026746 -241.69711 
L 280.181605 -242.208058 
L 282.336464 -242.628537 
L 284.491323 -242.964047 
L 286.646181 -243.235136 
L 288.80104 -243.466455 
L 290.955899 -243.676103 
L 293.110758 -243.870696 
L 295.265617 -244.04783 
L 297.420475 -244.203507 
L 299.575334 -244.339388 
L 301.730193 -244.464224 
L 303.885052 -244.586612 
L 306.03991 -244.70231 
L 308.194769 -244.785059 
L 310.349628 -244.789735 
L 312.504487 -244.668978 
L 314.659345 -244.39455 
L 316.814204 -243.970721 
L 318.969063 -243.432256 
L 321.123922 -242.829588 
L 323.27878 -242.210533 
L 325.433639 -241.607566 
L 327.588498 -241.034442 
L 329.743357 -240.490672 
L 331.898216 -239.969904 
L 334.053074 -239.468123 
L 336.207933 -238.988425 
L 338.362792 -238.540321 
L 340.517651 -238.133467 
L 342.672509 -237.76874 
L 344.827368 -237.432163 
L 346.982227 -237.096906 
L 349.137086 -236.734245 
L 351.291944 -236.32812 
L 353.446803 -235.884513 
L 355.601662 -235.429651 
L 357.756521 -234.998244 
L 359.911379 -234.619128 
L 362.066238 -234.306299 
L 364.221097 -234.058602 
L 366.375956 -233.865654 
L 368.530815 -233.714953 
L 370.685673 -233.596339 
L 372.840532 -233.502999 
L 374.995391 -233.430407 
L 377.15025 -233.375008 
L 379.305108 -233.333577 
L 381.459967 -233.303215 
L 383.614826 -233.281443 
L 385.769685 -233.266091 
L 387.924543 -233.255054 
L 390.079402 -233.246226 
L 392.234261 -233.237801 
L 394.38912 -233.228738 
L 396.543979 -233.219001 
L 398.698837 -233.209356 
L 400.853696 -233.200824 
L 403.008555 -233.194143 
L 405.163414 -233.189513 
L 405.163414 -233.178143 
L 405.163414 -233.178143 
L 403.008555 -233.173513 
L 400.853696 -233.166833 
L 398.698837 -233.158301 
L 396.543979 -233.148655 
L 394.38912 -233.138918 
L 392.234261 -233.129855 
L 390.079402 -233.121431 
L 387.924543 -233.112602 
L 385.769685 -233.101565 
L 383.614826 -233.086214 
L 381.459967 -233.064441 
L 379.305108 -233.034079 
L 377.15025 -232.992648 
L 374.995391 -232.937249 
L 372.840532 -232.864657 
L 370.685673 -232.771317 
L 368.530815 -232.652703 
L 366.375956 -232.502002 
L 364.221097 -232.309054 
L 362.066238 -232.061357 
L 359.911379 -231.748528 
L 357.756521 -231.369412 
L 355.601662 -230.938005 
L 353.446803 -230.483144 
L 351.291944 -230.039536 
L 349.137086 -229.633411 
L 346.982227 -229.27075 
L 344.827368 -228.935493 
L 342.672509 -228.598917 
L 340.517651 -228.23419 
L 338.362792 -227.827335 
L 336.207933 -227.379231 
L 334.053074 -226.899533 
L 331.898216 -226.397752 
L 329.743357 -225.876985 
L 327.588498 -225.333215 
L 325.433639 -224.76009 
L 323.27878 -224.157124 
L 321.123922 -223.538068 
L 318.969063 -222.9354 
L 316.814204 -222.396936 
L 314.659345 -221.973106 
L 312.504487 -221.698678 
L 310.349628 -221.577921 
L 308.194769 -221.582598 
L 306.03991 -221.665347 
L 303.885052 -221.781044 
L 301.730193 -221.903432 
L 299.575334 -222.028269 
L 297.420475 -222.16415 
L 295.265617 -222.319826 
L 293.110758 -222.496961 
L 290.955899 -222.691553 
L 288.80104 -222.901201 
L 286.646181 -223.132521 
L 284.491323 -223.403609 
L 282.336464 -223.739119 
L 280.181605 -224.159598 
L 278.026746 -224.670546 
L 275.871888 -225.257361 
L 273.717029 -225.888846 
L 271.56217 -226.526904 
L 269.407311 -227.137321 
L 267.252453 -227.697578 
L 265.097594 -228.200078 
L 262.942735 -228.650841 
L 260.787876 -229.06444 
L 258.633018 -229.456725 
L 256.478159 -229.837841 
L 254.3233 -230.208265 
L 252.168441 -230.559493 
L 250.013582 -230.879042 
L 247.858724 -231.157394 
L 245.703865 -231.393443 
L 243.549006 -231.595642 
L 241.394147 -231.778167 
L 239.239289 -231.954208 
L 237.08443 -232.129995 
L 234.929571 -232.302644 
L 232.774712 -232.462598 
L 230.619854 -232.599005 
L 228.464995 -232.705106 
L 226.310136 -232.781142 
L 224.155277 -232.833799 
L 222.000419 -232.872994 
L 219.84556 -232.907849 
L 217.690701 -232.943743 
L 215.535842 -232.981545 
L 213.380983 -233.018899 
L 211.226125 -233.052542 
L 209.071266 -233.080355 
L 206.916407 -233.102195 
L 204.761548 -233.11943 
L 202.60669 -233.133779 
L 200.451831 -233.146351 
L 198.296972 -233.15736 
L 196.142113 -233.166483 
L 193.987255 -233.173395 
L 191.832396 -233.178107 
z
" style="stroke: #262626; stroke-width: 1.25"/>
    </defs>
    <g clip-path="url(#p857384f18b)">
     <use xlink:href="#m6692409b28" x="0" y="345.6" style="fill: #701070; stroke: #262626; stroke-width: 1.25"/>
    </g>
   </g>
   <g id="PolyCollection_4">
    <defs>
     <path id="m3be983ce79" d="M 179.163125 -198.412773 
L 179.163125 -198.418946 
L 181.422797 -198.422763 
L 183.68247 -198.428431 
L 185.942142 -198.434523 
L 188.201814 -198.438576 
L 190.461487 -198.439021 
L 192.721159 -198.437223 
L 194.980831 -198.437452 
L 197.240503 -198.444362 
L 199.500176 -198.459573 
L 201.759848 -198.479839 
L 204.01952 -198.498637 
L 206.279192 -198.510619 
L 208.538865 -198.515438 
L 210.798537 -198.517766 
L 213.058209 -198.523734 
L 215.317882 -198.536317 
L 217.577554 -198.552645 
L 219.837226 -198.566125 
L 222.096898 -198.572958 
L 224.356571 -198.577093 
L 226.616243 -198.588077 
L 228.875915 -198.614112 
L 231.135587 -198.65742 
L 233.39526 -198.714886 
L 235.654932 -198.781395 
L 237.914604 -198.853167 
L 240.174276 -198.930413 
L 242.433949 -199.018403 
L 244.693621 -199.124594 
L 246.953293 -199.251675 
L 249.212966 -199.393836 
L 251.472638 -199.545028 
L 253.73231 -199.712885 
L 255.991982 -199.919641 
L 258.251655 -200.188007 
L 260.511327 -200.532985 
L 262.770999 -200.967454 
L 265.030671 -201.499866 
L 267.290344 -202.113228 
L 269.550016 -202.754753 
L 271.809688 -203.364015 
L 274.069361 -203.916262 
L 276.329033 -204.433318 
L 278.588705 -204.956313 
L 280.848377 -205.519539 
L 283.10805 -206.147437 
L 285.367722 -206.853735 
L 287.627394 -207.627676 
L 289.887066 -208.430464 
L 292.146739 -209.218864 
L 294.406411 -209.967826 
L 296.666083 -210.660632 
L 298.925756 -211.264921 
L 301.185428 -211.736767 
L 303.4451 -212.054264 
L 305.704772 -212.236832 
L 307.964445 -212.321786 
L 310.224117 -212.323047 
L 312.483789 -212.21578 
L 314.743461 -211.958754 
L 317.003134 -211.532563 
L 319.262806 -210.965871 
L 321.522478 -210.330501 
L 323.78215 -209.702706 
L 326.041823 -209.11375 
L 328.301495 -208.527481 
L 330.561167 -207.864262 
L 332.82084 -207.056019 
L 335.080512 -206.099484 
L 337.340184 -205.07647 
L 339.599856 -204.120587 
L 341.859529 -203.339804 
L 344.119201 -202.748467 
L 346.378873 -202.267782 
L 348.638545 -201.793837 
L 350.898218 -201.270677 
L 353.15789 -200.713637 
L 355.417562 -200.18284 
L 357.677235 -199.7401 
L 359.936907 -199.416778 
L 362.196579 -199.203722 
L 364.456251 -199.063908 
L 366.715924 -198.958363 
L 368.975596 -198.866559 
L 371.235268 -198.78662 
L 373.49494 -198.720474 
L 375.754613 -198.663257 
L 378.014285 -198.607232 
L 380.273957 -198.551106 
L 382.533629 -198.50153 
L 384.793302 -198.466233 
L 387.052974 -198.4475 
L 389.312646 -198.44127 
L 391.572319 -198.440435 
L 393.831991 -198.438998 
L 396.091663 -198.43463 
L 398.351335 -198.428453 
L 400.611008 -198.422767 
L 402.87068 -198.418947 
L 402.87068 -198.412772 
L 402.87068 -198.412772 
L 400.611008 -198.408952 
L 398.351335 -198.403266 
L 396.091663 -198.397089 
L 393.831991 -198.392721 
L 391.572319 -198.391284 
L 389.312646 -198.390449 
L 387.052974 -198.384219 
L 384.793302 -198.365486 
L 382.533629 -198.330189 
L 380.273957 -198.280613 
L 378.014285 -198.224487 
L 375.754613 -198.168462 
L 373.49494 -198.111245 
L 371.235268 -198.045099 
L 368.975596 -197.96516 
L 366.715924 -197.873356 
L 364.456251 -197.767811 
L 362.196579 -197.627996 
L 359.936907 -197.41494 
L 357.677235 -197.091619 
L 355.417562 -196.648879 
L 353.15789 -196.118082 
L 350.898218 -195.561042 
L 348.638545 -195.037882 
L 346.378873 -194.563937 
L 344.119201 -194.083252 
L 341.859529 -193.491915 
L 339.599856 -192.711132 
L 337.340184 -191.755249 
L 335.080512 -190.732234 
L 332.82084 -189.7757 
L 330.561167 -188.967457 
L 328.301495 -188.304237 
L 326.041823 -187.717969 
L 323.78215 -187.129013 
L 321.522478 -186.501218 
L 319.262806 -185.865847 
L 317.003134 -185.299156 
L 314.743461 -184.872965 
L 312.483789 -184.615939 
L 310.224117 -184.508672 
L 307.964445 -184.509933 
L 305.704772 -184.594887 
L 303.4451 -184.777455 
L 301.185428 -185.094952 
L 298.925756 -185.566798 
L 296.666083 -186.171087 
L 294.406411 -186.863893 
L 292.146739 -187.612855 
L 289.887066 -188.401255 
L 287.627394 -189.204043 
L 285.367722 -189.977983 
L 283.10805 -190.684281 
L 280.848377 -191.31218 
L 278.588705 -191.875406 
L 276.329033 -192.398401 
L 274.069361 -192.915456 
L 271.809688 -193.467704 
L 269.550016 -194.076965 
L 267.290344 -194.71849 
L 265.030671 -195.331853 
L 262.770999 -195.864264 
L 260.511327 -196.298734 
L 258.251655 -196.643712 
L 255.991982 -196.912078 
L 253.73231 -197.118833 
L 251.472638 -197.286691 
L 249.212966 -197.437883 
L 246.953293 -197.580044 
L 244.693621 -197.707125 
L 242.433949 -197.813315 
L 240.174276 -197.901306 
L 237.914604 -197.978552 
L 235.654932 -198.050324 
L 233.39526 -198.116833 
L 231.135587 -198.174298 
L 228.875915 -198.217607 
L 226.616243 -198.243642 
L 224.356571 -198.254626 
L 222.096898 -198.258761 
L 219.837226 -198.265594 
L 217.577554 -198.279074 
L 215.317882 -198.295402 
L 213.058209 -198.307985 
L 210.798537 -198.313952 
L 208.538865 -198.316281 
L 206.279192 -198.3211 
L 204.01952 -198.333081 
L 201.759848 -198.351879 
L 199.500176 -198.372146 
L 197.240503 -198.387357 
L 194.980831 -198.394266 
L 192.721159 -198.394496 
L 190.461487 -198.392697 
L 188.201814 -198.393143 
L 185.942142 -198.397195 
L 183.68247 -198.403288 
L 181.422797 -198.408956 
L 179.163125 -198.412773 
z
" style="stroke: #262626; stroke-width: 1.25"/>
    </defs>
    <g clip-path="url(#p857384f18b)">
     <use xlink:href="#m3be983ce79" x="0" y="345.6" style="fill: #701070; stroke: #262626; stroke-width: 1.25"/>
    </g>
   </g>
   <g id="PolyCollection_5">
    <defs>
     <path id="ma275a8b7a7" d="M 121.760455 -163.636063 
L 121.760455 -163.659719 
L 124.918122 -163.667669 
L 128.07579 -163.678536 
L 131.233457 -163.691888 
L 134.391125 -163.70642 
L 137.548792 -163.720035 
L 140.70646 -163.73029 
L 143.864128 -163.735093 
L 147.021795 -163.733404 
L 150.179463 -163.725599 
L 153.33713 -163.713349 
L 156.494798 -163.699065 
L 159.652466 -163.68519 
L 162.810133 -163.673681 
L 165.967801 -163.665855 
L 169.125468 -163.662627 
L 172.283136 -163.664946 
L 175.440803 -163.674179 
L 178.598471 -163.692184 
L 181.756139 -163.720941 
L 184.913806 -163.761758 
L 188.071474 -163.814349 
L 191.229141 -163.876225 
L 194.386809 -163.942869 
L 197.544477 -164.008836 
L 200.702144 -164.069456 
L 203.859812 -164.122389 
L 207.017479 -164.168304 
L 210.175147 -164.210412 
L 213.332815 -164.253206 
L 216.490482 -164.301162 
L 219.64815 -164.357995 
L 222.805817 -164.426573 
L 225.963485 -164.50914 
L 229.121152 -164.607392 
L 232.27882 -164.722292 
L 235.436488 -164.853876 
L 238.594155 -165.001487 
L 241.751823 -165.164632 
L 244.90949 -165.344209 
L 248.067158 -165.543437 
L 251.224826 -165.767802 
L 254.382493 -166.023766 
L 257.540161 -166.316702 
L 260.697828 -166.649076 
L 263.855496 -167.019978 
L 267.013163 -167.42643 
L 270.170831 -167.865857 
L 273.328499 -168.338205 
L 276.486166 -168.846078 
L 279.643834 -169.392016 
L 282.801501 -169.973627 
L 285.959169 -170.578724 
L 289.116837 -171.183265 
L 292.274504 -171.753976 
L 295.432172 -172.255367 
L 298.589839 -172.658457 
L 301.747507 -172.947475 
L 304.905174 -173.121858 
L 308.062842 -173.193441 
L 311.22051 -173.18106 
L 314.378177 -173.105278 
L 317.535845 -172.984672 
L 320.693512 -172.83328 
L 323.85118 -172.658257 
L 327.008848 -172.457667 
L 330.166515 -172.21973 
L 333.324183 -171.925168 
L 336.48185 -171.553064 
L 339.639518 -171.088839 
L 342.797185 -170.531551 
L 345.954853 -169.897673 
L 349.112521 -169.219529 
L 352.270188 -168.538348 
L 355.427856 -167.893918 
L 358.585523 -167.314485 
L 361.743191 -166.810836 
L 364.900859 -166.376973 
L 368.058526 -165.996739 
L 371.216194 -165.652989 
L 374.373861 -165.33494 
L 377.531529 -165.040822 
L 380.689197 -164.775787 
L 383.846864 -164.547302 
L 387.004532 -164.360816 
L 390.162199 -164.217432 
L 393.319867 -164.113758 
L 396.477534 -164.043049 
L 399.635202 -163.996702 
L 402.79287 -163.96559 
L 405.950537 -163.941217 
L 409.108205 -163.916782 
L 412.265872 -163.888071 
L 415.42354 -163.853878 
L 418.581208 -163.815717 
L 421.738875 -163.776826 
L 424.896543 -163.74082 
L 428.05421 -163.710505 
L 431.211878 -163.687234 
L 434.369545 -163.670905 
L 434.369545 -163.624877 
L 434.369545 -163.624877 
L 431.211878 -163.608547 
L 428.05421 -163.585276 
L 424.896543 -163.554961 
L 421.738875 -163.518955 
L 418.581208 -163.480064 
L 415.42354 -163.441903 
L 412.265872 -163.40771 
L 409.108205 -163.378999 
L 405.950537 -163.354565 
L 402.79287 -163.330191 
L 399.635202 -163.29908 
L 396.477534 -163.252733 
L 393.319867 -163.182024 
L 390.162199 -163.078349 
L 387.004532 -162.934965 
L 383.846864 -162.748479 
L 380.689197 -162.519995 
L 377.531529 -162.25496 
L 374.373861 -161.960841 
L 371.216194 -161.642792 
L 368.058526 -161.299042 
L 364.900859 -160.918808 
L 361.743191 -160.484945 
L 358.585523 -159.981297 
L 355.427856 -159.401863 
L 352.270188 -158.757433 
L 349.112521 -158.076252 
L 345.954853 -157.398109 
L 342.797185 -156.76423 
L 339.639518 -156.206942 
L 336.48185 -155.742717 
L 333.324183 -155.370614 
L 330.166515 -155.076051 
L 327.008848 -154.838115 
L 323.85118 -154.637524 
L 320.693512 -154.462501 
L 317.535845 -154.31111 
L 314.378177 -154.190503 
L 311.22051 -154.114721 
L 308.062842 -154.10234 
L 304.905174 -154.173924 
L 301.747507 -154.348306 
L 298.589839 -154.637324 
L 295.432172 -155.040414 
L 292.274504 -155.541805 
L 289.116837 -156.112516 
L 285.959169 -156.717057 
L 282.801501 -157.322154 
L 279.643834 -157.903765 
L 276.486166 -158.449703 
L 273.328499 -158.957576 
L 270.170831 -159.429925 
L 267.013163 -159.869351 
L 263.855496 -160.275804 
L 260.697828 -160.646706 
L 257.540161 -160.979079 
L 254.382493 -161.272015 
L 251.224826 -161.527979 
L 248.067158 -161.752344 
L 244.90949 -161.951572 
L 241.751823 -162.131149 
L 238.594155 -162.294294 
L 235.436488 -162.441905 
L 232.27882 -162.573489 
L 229.121152 -162.68839 
L 225.963485 -162.786642 
L 222.805817 -162.869208 
L 219.64815 -162.937786 
L 216.490482 -162.994619 
L 213.332815 -163.042576 
L 210.175147 -163.08537 
L 207.017479 -163.127477 
L 203.859812 -163.173392 
L 200.702144 -163.226325 
L 197.544477 -163.286945 
L 194.386809 -163.352913 
L 191.229141 -163.419556 
L 188.071474 -163.481432 
L 184.913806 -163.534023 
L 181.756139 -163.57484 
L 178.598471 -163.603597 
L 175.440803 -163.621602 
L 172.283136 -163.630835 
L 169.125468 -163.633154 
L 165.967801 -163.629926 
L 162.810133 -163.6221 
L 159.652466 -163.610591 
L 156.494798 -163.596717 
L 153.33713 -163.582432 
L 150.179463 -163.570182 
L 147.021795 -163.562378 
L 143.864128 -163.560688 
L 140.70646 -163.565492 
L 137.548792 -163.575746 
L 134.391125 -163.589361 
L 131.233457 -163.603893 
L 128.07579 -163.617245 
L 124.918122 -163.628112 
L 121.760455 -163.636063 
z
" style="stroke: #262626; stroke-width: 1.25"/>
    </defs>
    <g clip-path="url(#p857384f18b)">
     <use xlink:href="#ma275a8b7a7" x="0" y="345.6" style="fill: #701070; stroke: #262626; stroke-width: 1.25"/>
    </g>
   </g>
   <g id="PolyCollection_6">
    <defs>
     <path id="m502d8db9e1" d="M 174.789782 -128.875855 
L 174.789782 -128.883989 
L 177.306999 -128.887642 
L 179.824215 -128.892876 
L 182.341432 -128.899141 
L 184.858649 -128.905149 
L 187.375866 -128.909277 
L 189.893083 -128.910404 
L 192.410299 -128.908752 
L 194.927516 -128.906235 
L 197.444733 -128.906109 
L 199.96195 -128.912049 
L 202.479167 -128.926895 
L 204.996383 -128.951278 
L 207.5136 -128.982588 
L 210.030817 -129.01509 
L 212.548034 -129.041803 
L 215.065251 -129.057636 
L 217.582467 -129.062017 
L 220.099684 -129.05917 
L 222.616901 -129.055723 
L 225.134118 -129.057234 
L 227.651335 -129.065865 
L 230.168551 -129.080391 
L 232.685768 -129.09804 
L 235.202985 -129.116786 
L 237.720202 -129.136976 
L 240.237418 -129.161939 
L 242.754635 -129.197843 
L 245.271852 -129.253042 
L 247.789069 -129.336908 
L 250.306286 -129.457996 
L 252.823502 -129.621867 
L 255.340719 -129.829819 
L 257.857936 -130.079712 
L 260.375153 -130.368316 
L 262.89237 -130.692751 
L 265.409586 -131.049223 
L 267.926803 -131.430382 
L 270.44402 -131.824698 
L 272.961237 -132.219454 
L 275.478454 -132.605419 
L 277.99567 -132.980044 
L 280.512887 -133.347845 
L 283.030104 -133.718564 
L 285.547321 -134.103911 
L 288.064538 -134.513706 
L 290.581754 -134.953225 
L 293.098971 -135.423604 
L 295.616188 -135.924294 
L 298.133405 -136.453378 
L 300.650622 -137.002527 
L 303.167838 -137.54929 
L 305.685055 -138.054638 
L 308.202272 -138.472114 
L 310.719489 -138.766762 
L 313.236706 -138.933601 
L 315.753922 -139.003222 
L 318.271139 -139.028338 
L 320.788356 -139.056659 
L 323.305573 -139.105608 
L 325.82279 -139.155022 
L 328.340006 -139.16228 
L 330.857223 -139.088507 
L 333.37444 -138.918077 
L 335.891657 -138.661549 
L 338.408874 -138.345339 
L 340.92609 -137.99769 
L 343.443307 -137.63785 
L 345.960524 -137.270627 
L 348.477741 -136.886966 
L 350.994958 -136.470738 
L 353.512174 -136.009405 
L 356.029391 -135.502759 
L 358.546608 -134.964212 
L 361.063825 -134.414269 
L 363.581042 -133.871708 
L 366.098258 -133.348836 
L 368.615475 -132.852489 
L 371.132692 -132.387274 
L 373.649909 -131.95712 
L 376.167125 -131.564565 
L 378.684342 -131.209734 
L 381.201559 -130.890359 
L 383.718776 -130.602496 
L 386.235993 -130.341365 
L 388.753209 -130.10251 
L 391.270426 -129.883497 
L 393.787643 -129.685277 
L 396.30486 -129.511778 
L 398.822077 -129.367301 
L 401.339293 -129.253205 
L 403.85651 -129.166213 
L 406.373727 -129.099573 
L 408.890944 -129.046171 
L 411.408161 -129.001316 
L 413.925377 -128.963504 
L 416.442594 -128.933192 
L 418.959811 -128.910941 
L 421.477028 -128.896282 
L 423.994245 -128.887693 
L 423.994245 -128.872151 
L 423.994245 -128.872151 
L 421.477028 -128.863562 
L 418.959811 -128.848903 
L 416.442594 -128.826652 
L 413.925377 -128.79634 
L 411.408161 -128.758528 
L 408.890944 -128.713673 
L 406.373727 -128.660271 
L 403.85651 -128.593631 
L 401.339293 -128.506639 
L 398.822077 -128.392543 
L 396.30486 -128.248066 
L 393.787643 -128.074567 
L 391.270426 -127.876347 
L 388.753209 -127.657334 
L 386.235993 -127.418479 
L 383.718776 -127.157347 
L 381.201559 -126.869484 
L 378.684342 -126.550109 
L 376.167125 -126.195279 
L 373.649909 -125.802724 
L 371.132692 -125.37257 
L 368.615475 -124.907355 
L 366.098258 -124.411008 
L 363.581042 -123.888136 
L 361.063825 -123.345574 
L 358.546608 -122.795632 
L 356.029391 -122.257085 
L 353.512174 -121.750439 
L 350.994958 -121.289106 
L 348.477741 -120.872878 
L 345.960524 -120.489217 
L 343.443307 -120.121994 
L 340.92609 -119.762154 
L 338.408874 -119.414505 
L 335.891657 -119.098294 
L 333.37444 -118.841767 
L 330.857223 -118.671337 
L 328.340006 -118.597563 
L 325.82279 -118.604822 
L 323.305573 -118.654236 
L 320.788356 -118.703185 
L 318.271139 -118.731506 
L 315.753922 -118.756622 
L 313.236706 -118.826243 
L 310.719489 -118.993081 
L 308.202272 -119.28773 
L 305.685055 -119.705205 
L 303.167838 -120.210554 
L 300.650622 -120.757317 
L 298.133405 -121.306465 
L 295.616188 -121.83555 
L 293.098971 -122.33624 
L 290.581754 -122.806619 
L 288.064538 -123.246138 
L 285.547321 -123.655932 
L 283.030104 -124.041279 
L 280.512887 -124.411999 
L 277.99567 -124.7798 
L 275.478454 -125.154425 
L 272.961237 -125.54039 
L 270.44402 -125.935146 
L 267.926803 -126.329461 
L 265.409586 -126.710621 
L 262.89237 -127.067093 
L 260.375153 -127.391528 
L 257.857936 -127.680131 
L 255.340719 -127.930025 
L 252.823502 -128.137977 
L 250.306286 -128.301847 
L 247.789069 -128.422935 
L 245.271852 -128.506802 
L 242.754635 -128.562001 
L 240.237418 -128.597905 
L 237.720202 -128.622868 
L 235.202985 -128.643057 
L 232.685768 -128.661804 
L 230.168551 -128.679452 
L 227.651335 -128.693978 
L 225.134118 -128.70261 
L 222.616901 -128.70412 
L 220.099684 -128.700674 
L 217.582467 -128.697827 
L 215.065251 -128.702208 
L 212.548034 -128.718041 
L 210.030817 -128.744754 
L 207.5136 -128.777255 
L 204.996383 -128.808565 
L 202.479167 -128.832949 
L 199.96195 -128.847795 
L 197.444733 -128.853735 
L 194.927516 -128.853608 
L 192.410299 -128.851092 
L 189.893083 -128.84944 
L 187.375866 -128.850567 
L 184.858649 -128.854695 
L 182.341432 -128.860703 
L 179.824215 -128.866968 
L 177.306999 -128.872202 
L 174.789782 -128.875855 
z
" style="stroke: #262626; stroke-width: 1.25"/>
    </defs>
    <g clip-path="url(#p857384f18b)">
     <use xlink:href="#m502d8db9e1" x="0" y="345.6" style="fill: #701070; stroke: #262626; stroke-width: 1.25"/>
    </g>
   </g>
   <g id="PolyCollection_7">
    <defs>
     <path id="m2bd45decd6" d="M 158.695712 -94.109971 
L 158.695712 -94.113936 
L 161.453951 -94.116416 
L 164.212191 -94.120101 
L 166.970431 -94.124038 
L 169.728671 -94.126591 
L 172.48691 -94.126744 
L 175.24515 -94.1254 
L 178.00339 -94.125293 
L 180.76163 -94.129377 
L 183.519869 -94.138761 
L 186.278109 -94.151421 
L 189.036349 -94.162668 
L 191.794589 -94.167753 
L 194.552828 -94.165309 
L 197.311068 -94.158711 
L 200.069308 -94.15372 
L 202.827548 -94.154556 
L 205.585788 -94.162047 
L 208.344027 -94.1745 
L 211.102267 -94.188749 
L 213.860507 -94.200503 
L 216.618747 -94.206103 
L 219.376986 -94.20589 
L 222.135226 -94.205457 
L 224.893466 -94.21277 
L 227.651706 -94.233847 
L 230.409945 -94.270042 
L 233.168185 -94.317656 
L 235.926425 -94.370277 
L 238.684665 -94.423398 
L 241.442904 -94.478086 
L 244.201144 -94.540379 
L 246.959384 -94.617119 
L 249.717624 -94.7121 
L 252.475864 -94.826014 
L 255.234103 -94.960983 
L 257.992343 -95.125578 
L 260.750583 -95.332021 
L 263.508823 -95.583648 
L 266.267062 -95.867135 
L 269.025302 -96.165415 
L 271.783542 -96.480718 
L 274.541782 -96.837794 
L 277.300021 -97.260741 
L 280.058261 -97.75156 
L 282.816501 -98.291956 
L 285.574741 -98.858401 
L 288.33298 -99.434925 
L 291.09122 -100.020625 
L 293.84946 -100.626123 
L 296.6077 -101.253864 
L 299.36594 -101.879392 
L 302.124179 -102.456075 
L 304.882419 -102.938077 
L 307.640659 -103.300054 
L 310.398899 -103.544198 
L 313.157138 -103.695913 
L 315.915378 -103.791152 
L 318.673618 -103.86247 
L 321.431858 -103.929622 
L 324.190097 -103.994477 
L 326.948337 -104.043231 
L 329.706577 -104.060887 
L 332.464817 -104.046174 
L 335.223056 -104.004396 
L 337.981296 -103.923059 
L 340.739536 -103.766844 
L 343.497776 -103.507496 
L 346.256015 -103.153755 
L 349.014255 -102.743519 
L 351.772495 -102.308931 
L 354.530735 -101.853564 
L 357.288975 -101.360022 
L 360.047214 -100.814019 
L 362.805454 -100.219922 
L 365.563694 -99.595821 
L 368.321934 -98.959527 
L 371.080173 -98.32346 
L 373.838413 -97.700342 
L 376.596653 -97.109772 
L 379.354893 -96.578476 
L 382.113132 -96.131062 
L 384.871372 -95.77491 
L 387.629612 -95.493375 
L 390.387852 -95.257544 
L 393.146091 -95.046168 
L 395.904331 -94.854235 
L 398.662571 -94.686214 
L 401.420811 -94.546411 
L 404.179051 -94.435632 
L 406.93729 -94.351903 
L 409.69553 -94.290779 
L 412.45377 -94.245787 
L 415.21201 -94.210637 
L 417.970249 -94.18158 
L 420.728489 -94.157642 
L 423.486729 -94.139168 
L 426.244969 -94.12635 
L 429.003208 -94.11858 
L 431.761448 -94.114559 
L 431.761448 -94.109347 
L 431.761448 -94.109347 
L 429.003208 -94.105327 
L 426.244969 -94.097556 
L 423.486729 -94.084738 
L 420.728489 -94.066264 
L 417.970249 -94.042327 
L 415.21201 -94.013269 
L 412.45377 -93.97812 
L 409.69553 -93.933127 
L 406.93729 -93.872003 
L 404.179051 -93.788275 
L 401.420811 -93.677495 
L 398.662571 -93.537692 
L 395.904331 -93.369671 
L 393.146091 -93.177738 
L 390.387852 -92.966362 
L 387.629612 -92.730531 
L 384.871372 -92.448996 
L 382.113132 -92.092845 
L 379.354893 -91.64543 
L 376.596653 -91.114134 
L 373.838413 -90.523564 
L 371.080173 -89.900446 
L 368.321934 -89.264379 
L 365.563694 -88.628085 
L 362.805454 -88.003985 
L 360.047214 -87.409887 
L 357.288975 -86.863885 
L 354.530735 -86.370343 
L 351.772495 -85.914975 
L 349.014255 -85.480388 
L 346.256015 -85.070152 
L 343.497776 -84.71641 
L 340.739536 -84.457062 
L 337.981296 -84.300847 
L 335.223056 -84.219511 
L 332.464817 -84.177733 
L 329.706577 -84.163019 
L 326.948337 -84.180675 
L 324.190097 -84.229429 
L 321.431858 -84.294284 
L 318.673618 -84.361436 
L 315.915378 -84.432754 
L 313.157138 -84.527994 
L 310.398899 -84.679708 
L 307.640659 -84.923852 
L 304.882419 -85.285829 
L 302.124179 -85.767831 
L 299.36594 -86.344514 
L 296.6077 -86.970042 
L 293.84946 -87.597783 
L 291.09122 -88.203281 
L 288.33298 -88.788981 
L 285.574741 -89.365505 
L 282.816501 -89.93195 
L 280.058261 -90.472347 
L 277.300021 -90.963166 
L 274.541782 -91.386112 
L 271.783542 -91.743189 
L 269.025302 -92.058491 
L 266.267062 -92.356771 
L 263.508823 -92.640258 
L 260.750583 -92.891885 
L 257.992343 -93.098328 
L 255.234103 -93.262924 
L 252.475864 -93.397892 
L 249.717624 -93.511806 
L 246.959384 -93.606787 
L 244.201144 -93.683527 
L 241.442904 -93.745821 
L 238.684665 -93.800508 
L 235.926425 -93.853629 
L 233.168185 -93.90625 
L 230.409945 -93.953865 
L 227.651706 -93.990059 
L 224.893466 -94.011137 
L 222.135226 -94.018449 
L 219.376986 -94.018016 
L 216.618747 -94.017803 
L 213.860507 -94.023403 
L 211.102267 -94.035157 
L 208.344027 -94.049407 
L 205.585788 -94.061859 
L 202.827548 -94.06935 
L 200.069308 -94.070186 
L 197.311068 -94.065196 
L 194.552828 -94.058597 
L 191.794589 -94.056153 
L 189.036349 -94.061238 
L 186.278109 -94.072485 
L 183.519869 -94.085145 
L 180.76163 -94.094529 
L 178.00339 -94.098614 
L 175.24515 -94.098507 
L 172.48691 -94.097162 
L 169.728671 -94.097315 
L 166.970431 -94.099868 
L 164.212191 -94.103805 
L 161.453951 -94.10749 
L 158.695712 -94.109971 
z
" style="stroke: #262626; stroke-width: 1.25"/>
    </defs>
    <g clip-path="url(#p857384f18b)">
     <use xlink:href="#m2bd45decd6" x="0" y="345.6" style="fill: #701070; stroke: #262626; stroke-width: 1.25"/>
    </g>
   </g>
   <g id="PolyCollection_8">
    <defs>
     <path id="mf67a5ab2fa" d="M 187.847032 -59.340789 
L 187.847032 -59.34718 
L 190.133227 -59.351071 
L 192.419423 -59.356836 
L 194.705619 -59.363045 
L 196.991815 -59.367107 
L 199.278011 -59.366947 
L 201.564206 -59.36273 
L 203.850402 -59.356873 
L 206.136598 -59.3524 
L 208.422794 -59.351437 
L 210.708989 -59.354818 
L 212.995185 -59.362318 
L 215.281381 -59.372963 
L 217.567577 -59.385614 
L 219.853773 -59.399656 
L 222.139968 -59.414969 
L 224.426164 -59.43108 
L 226.71236 -59.446435 
L 228.998556 -59.458549 
L 231.284752 -59.465361 
L 233.570947 -59.467452 
L 235.857143 -59.468823 
L 238.143339 -59.473872 
L 240.429535 -59.483065 
L 242.71573 -59.492969 
L 245.001926 -59.500712 
L 247.288122 -59.506339 
L 249.574318 -59.510511 
L 251.860514 -59.513253 
L 254.146709 -59.517706 
L 256.432905 -59.534416 
L 258.719101 -59.580737 
L 261.005297 -59.676211 
L 263.291493 -59.836099 
L 265.577688 -60.062055 
L 267.863884 -60.332841 
L 270.15008 -60.607155 
L 272.436276 -60.846974 
L 274.722471 -61.048007 
L 277.008667 -61.248121 
L 279.294863 -61.501162 
L 281.581059 -61.840445 
L 283.867255 -62.268309 
L 286.15345 -62.776626 
L 288.439646 -63.366261 
L 290.725842 -64.037971 
L 293.012038 -64.767367 
L 295.298233 -65.502504 
L 297.584429 -66.197919 
L 299.870625 -66.848763 
L 302.156821 -67.482471 
L 304.443017 -68.120516 
L 306.729212 -68.760997 
L 309.015408 -69.396666 
L 311.301604 -70.030883 
L 313.5878 -70.6638 
L 315.873996 -71.270314 
L 318.160191 -71.804717 
L 320.446387 -72.23055 
L 322.732583 -72.542847 
L 325.018779 -72.761606 
L 327.304974 -72.904564 
L 329.59117 -72.960875 
L 331.877366 -72.887586 
L 334.163562 -72.640521 
L 336.449758 -72.220169 
L 338.735953 -71.685472 
L 341.022149 -71.111139 
L 343.308345 -70.526275 
L 345.594541 -69.898615 
L 347.880737 -69.181027 
L 350.166932 -68.369532 
L 352.453128 -67.51346 
L 354.739324 -66.674568 
L 357.02552 -65.883734 
L 359.311715 -65.135429 
L 361.597911 -64.414469 
L 363.884107 -63.723777 
L 366.170303 -63.090043 
L 368.456499 -62.544138 
L 370.742694 -62.093403 
L 373.02889 -61.713682 
L 375.315086 -61.370995 
L 377.601282 -61.048896 
L 379.887478 -60.752766 
L 382.173673 -60.492881 
L 384.459869 -60.26985 
L 386.746065 -60.075556 
L 389.032261 -59.902922 
L 391.318456 -59.752314 
L 393.604652 -59.629531 
L 395.890848 -59.539137 
L 398.177044 -59.479758 
L 400.46324 -59.444057 
L 402.749435 -59.42185 
L 405.035631 -59.404274 
L 407.321827 -59.387094 
L 409.608023 -59.370913 
L 411.894218 -59.358214 
L 414.180414 -59.350239 
L 414.180414 -59.33773 
L 414.180414 -59.33773 
L 411.894218 -59.329755 
L 409.608023 -59.317056 
L 407.321827 -59.300875 
L 405.035631 -59.283695 
L 402.749435 -59.266119 
L 400.46324 -59.243912 
L 398.177044 -59.208211 
L 395.890848 -59.148832 
L 393.604652 -59.058438 
L 391.318456 -58.935655 
L 389.032261 -58.785047 
L 386.746065 -58.612413 
L 384.459869 -58.418119 
L 382.173673 -58.195088 
L 379.887478 -57.935202 
L 377.601282 -57.639073 
L 375.315086 -57.316974 
L 373.02889 -56.974287 
L 370.742694 -56.594566 
L 368.456499 -56.143831 
L 366.170303 -55.597925 
L 363.884107 -54.964191 
L 361.597911 -54.273499 
L 359.311715 -53.55254 
L 357.02552 -52.804234 
L 354.739324 -52.0134 
L 352.453128 -51.174508 
L 350.166932 -50.318436 
L 347.880737 -49.506941 
L 345.594541 -48.789354 
L 343.308345 -48.161694 
L 341.022149 -47.57683 
L 338.735953 -47.002497 
L 336.449758 -46.4678 
L 334.163562 -46.047448 
L 331.877366 -45.800383 
L 329.59117 -45.727094 
L 327.304974 -45.783405 
L 325.018779 -45.926362 
L 322.732583 -46.145122 
L 320.446387 -46.457418 
L 318.160191 -46.883252 
L 315.873996 -47.417655 
L 313.5878 -48.024169 
L 311.301604 -48.657086 
L 309.015408 -49.291302 
L 306.729212 -49.926972 
L 304.443017 -50.567453 
L 302.156821 -51.205498 
L 299.870625 -51.839206 
L 297.584429 -52.490049 
L 295.298233 -53.185465 
L 293.012038 -53.920602 
L 290.725842 -54.649998 
L 288.439646 -55.321707 
L 286.15345 -55.911342 
L 283.867255 -56.419659 
L 281.581059 -56.847523 
L 279.294863 -57.186807 
L 277.008667 -57.439848 
L 274.722471 -57.639962 
L 272.436276 -57.840995 
L 270.15008 -58.080814 
L 267.863884 -58.355128 
L 265.577688 -58.625913 
L 263.291493 -58.85187 
L 261.005297 -59.011758 
L 258.719101 -59.107232 
L 256.432905 -59.153553 
L 254.146709 -59.170263 
L 251.860514 -59.174716 
L 249.574318 -59.177458 
L 247.288122 -59.181629 
L 245.001926 -59.187256 
L 242.71573 -59.195 
L 240.429535 -59.204903 
L 238.143339 -59.214096 
L 235.857143 -59.219146 
L 233.570947 -59.220517 
L 231.284752 -59.222608 
L 228.998556 -59.22942 
L 226.71236 -59.241534 
L 224.426164 -59.256889 
L 222.139968 -59.273 
L 219.853773 -59.288313 
L 217.567577 -59.302355 
L 215.281381 -59.315006 
L 212.995185 -59.325651 
L 210.708989 -59.333151 
L 208.422794 -59.336532 
L 206.136598 -59.335568 
L 203.850402 -59.331096 
L 201.564206 -59.325239 
L 199.278011 -59.321022 
L 196.991815 -59.320861 
L 194.705619 -59.324924 
L 192.419423 -59.331133 
L 190.133227 -59.336898 
L 187.847032 -59.340789 
z
" style="stroke: #262626; stroke-width: 1.25"/>
    </defs>
    <g clip-path="url(#p857384f18b)">
     <use xlink:href="#mf67a5ab2fa" x="0" y="345.6" style="fill: #701070; stroke: #262626; stroke-width: 1.25"/>
    </g>
   </g>
   <g id="line2d_1">
    <path d="M 200.709876 42.880234 
L 357.085947 42.880234 
" clip-path="url(#p857384f18b)" style="fill: none; stroke: #262626; stroke-width: 1.875; stroke-linecap: round"/>
   </g>
   <g id="line2d_2">
    <path d="M 259.394032 42.880234 
L 299.023707 42.880234 
" clip-path="url(#p857384f18b)" style="fill: none; stroke: #262626; stroke-width: 5.625; stroke-linecap: round"/>
   </g>
   <g id="line2d_3">
    <path d="M 279.867108 42.880234 
" clip-path="url(#p857384f18b)" style="fill: none; stroke: #262626; stroke-width: 1.5; stroke-linecap: round"/>
    <defs>
     <path id="mff4808c145" d="M 0 2.34375 
L 0 -2.34375 
" style="stroke: #ffffff; stroke-width: 1.125"/>
    </defs>
    <g clip-path="url(#p857384f18b)">
     <use xlink:href="#mff4808c145" x="279.867108" y="42.880234" style="fill: #ffffff; stroke: #ffffff; stroke-width: 1.125"/>
    </g>
   </g>
   <g id="line2d_4">
    <path d="M 237.340356 77.648203 
L 367.724769 77.648203 
" clip-path="url(#p857384f18b)" style="fill: none; stroke: #262626; stroke-width: 1.875; stroke-linecap: round"/>
   </g>
   <g id="line2d_5">
    <path d="M 285.389069 77.648203 
L 318.922174 77.648203 
" clip-path="url(#p857384f18b)" style="fill: none; stroke: #262626; stroke-width: 5.625; stroke-linecap: round"/>
   </g>
   <g id="line2d_6">
    <path d="M 302.313118 77.648203 
" clip-path="url(#p857384f18b)" style="fill: none; stroke: #262626; stroke-width: 1.5; stroke-linecap: round"/>
    <g clip-path="url(#p857384f18b)">
     <use xlink:href="#mff4808c145" x="302.313118" y="77.648203" style="fill: #ffffff; stroke: #ffffff; stroke-width: 1.125"/>
    </g>
   </g>
   <g id="line2d_7">
    <path d="M 228.341077 112.416172 
L 375.381101 112.416172 
" clip-path="url(#p857384f18b)" style="fill: none; stroke: #262626; stroke-width: 1.875; stroke-linecap: round"/>
   </g>
   <g id="line2d_8">
    <path d="M 282.154941 112.416172 
L 320.450963 112.416172 
" clip-path="url(#p857384f18b)" style="fill: none; stroke: #262626; stroke-width: 5.625; stroke-linecap: round"/>
   </g>
   <g id="line2d_9">
    <path d="M 302.243474 112.416172 
" clip-path="url(#p857384f18b)" style="fill: none; stroke: #262626; stroke-width: 1.5; stroke-linecap: round"/>
    <g clip-path="url(#p857384f18b)">
     <use xlink:href="#mff4808c145" x="302.243474" y="112.416172" style="fill: #ffffff; stroke: #ffffff; stroke-width: 1.125"/>
    </g>
   </g>
   <g id="line2d_10">
    <path d="M 242.864193 147.184141 
L 370.542065 147.184141 
" clip-path="url(#p857384f18b)" style="fill: none; stroke: #262626; stroke-width: 1.875; stroke-linecap: round"/>
   </g>
   <g id="line2d_11">
    <path d="M 291.299045 147.184141 
L 323.63037 147.184141 
" clip-path="url(#p857384f18b)" style="fill: none; stroke: #262626; stroke-width: 5.625; stroke-linecap: round"/>
   </g>
   <g id="line2d_12">
    <path d="M 307.82344 147.184141 
" clip-path="url(#p857384f18b)" style="fill: none; stroke: #262626; stroke-width: 1.5; stroke-linecap: round"/>
    <g clip-path="url(#p857384f18b)">
     <use xlink:href="#mff4808c145" x="307.82344" y="147.184141" style="fill: #ffffff; stroke: #ffffff; stroke-width: 1.125"/>
    </g>
   </g>
   <g id="line2d_13">
    <path d="M 229.545862 181.952109 
L 389.478844 181.952109 
" clip-path="url(#p857384f18b)" style="fill: none; stroke: #262626; stroke-width: 1.875; stroke-linecap: round"/>
   </g>
   <g id="line2d_14">
    <path d="M 289.708497 181.952109 
L 333.482552 181.952109 
" clip-path="url(#p857384f18b)" style="fill: none; stroke: #262626; stroke-width: 5.625; stroke-linecap: round"/>
   </g>
   <g id="line2d_15">
    <path d="M 311.390863 181.952109 
" clip-path="url(#p857384f18b)" style="fill: none; stroke: #262626; stroke-width: 1.5; stroke-linecap: round"/>
    <g clip-path="url(#p857384f18b)">
     <use xlink:href="#mff4808c145" x="311.390863" y="181.952109" style="fill: #ffffff; stroke: #ffffff; stroke-width: 1.125"/>
    </g>
   </g>
   <g id="line2d_16">
    <path d="M 239.467219 216.720078 
L 406.845161 216.720078 
" clip-path="url(#p857384f18b)" style="fill: none; stroke: #262626; stroke-width: 1.875; stroke-linecap: round"/>
   </g>
   <g id="line2d_17">
    <path d="M 302.354792 216.720078 
L 344.482452 216.720078 
" clip-path="url(#p857384f18b)" style="fill: none; stroke: #262626; stroke-width: 5.625; stroke-linecap: round"/>
   </g>
   <g id="line2d_18">
    <path d="M 323.648579 216.720078 
" clip-path="url(#p857384f18b)" style="fill: none; stroke: #262626; stroke-width: 1.5; stroke-linecap: round"/>
    <g clip-path="url(#p857384f18b)">
     <use xlink:href="#mff4808c145" x="323.648579" y="216.720078" style="fill: #ffffff; stroke: #ffffff; stroke-width: 1.125"/>
    </g>
   </g>
   <g id="line2d_19">
    <path d="M 241.544524 251.488047 
L 410.716691 251.488047 
" clip-path="url(#p857384f18b)" style="fill: none; stroke: #262626; stroke-width: 1.875; stroke-linecap: round"/>
   </g>
   <g id="line2d_20">
    <path d="M 304.454905 251.488047 
L 347.763228 251.488047 
" clip-path="url(#p857384f18b)" style="fill: none; stroke: #262626; stroke-width: 5.625; stroke-linecap: round"/>
   </g>
   <g id="line2d_21">
    <path d="M 326.353994 251.488047 
" clip-path="url(#p857384f18b)" style="fill: none; stroke: #262626; stroke-width: 1.5; stroke-linecap: round"/>
    <g clip-path="url(#p857384f18b)">
     <use xlink:href="#mff4808c145" x="326.353994" y="251.488047" style="fill: #ffffff; stroke: #ffffff; stroke-width: 1.125"/>
    </g>
   </g>
   <g id="line2d_22">
    <path d="M 261.305017 286.256016 
L 392.613011 286.256016 
" clip-path="url(#p857384f18b)" style="fill: none; stroke: #262626; stroke-width: 1.875; stroke-linecap: round"/>
   </g>
   <g id="line2d_23">
    <path d="M 310.282567 286.256016 
L 343.563565 286.256016 
" clip-path="url(#p857384f18b)" style="fill: none; stroke: #262626; stroke-width: 5.625; stroke-linecap: round"/>
   </g>
   <g id="line2d_24">
    <path d="M 327.180899 286.256016 
" clip-path="url(#p857384f18b)" style="fill: none; stroke: #262626; stroke-width: 1.5; stroke-linecap: round"/>
    <g clip-path="url(#p857384f18b)">
     <use xlink:href="#mff4808c145" x="327.180899" y="286.256016" style="fill: #ffffff; stroke: #ffffff; stroke-width: 1.125"/>
    </g>
   </g>
   <g id="patch_3">
    <path d="M 106.13 303.64 
L 106.13 25.49625 
" style="fill: none; stroke: #ffffff; stroke-width: 0.8; stroke-linejoin: miter; stroke-linecap: square"/>
   </g>
   <g id="patch_4">
    <path d="M 450 303.64 
L 450 25.49625 
" style="fill: none; stroke: #ffffff; stroke-width: 0.8; stroke-linejoin: miter; stroke-linecap: square"/>
   </g>
   <g id="patch_5">
    <path d="M 106.13 303.64 
L 450 303.64 
" style="fill: none; stroke: #ffffff; stroke-width: 0.8; stroke-linejoin: miter; stroke-linecap: square"/>
   </g>
   <g id="patch_6">
    <path d="M 106.13 25.49625 
L 450 25.49625 
" style="fill: none; stroke: #ffffff; stroke-width: 0.8; stroke-linejoin: miter; stroke-linecap: square"/>
   </g>
   <g id="text_16">
    <!-- Game type vs Rating -->
    <g style="fill: #262626" transform="translate(222.04375 19.49625) scale(0.12 -0.12)">
     <defs>
      <path id="ArialMT-76" d="M 1344 0 
L 81 3319 
L 675 3319 
L 1388 1331 
Q 1503 1009 1600 663 
Q 1675 925 1809 1294 
L 2547 3319 
L 3125 3319 
L 1869 0 
L 1344 0 
z
" transform="scale(0.015625)"/>
     </defs>
     <use xlink:href="#ArialMT-47"/>
     <use xlink:href="#ArialMT-61" x="77.783203"/>
     <use xlink:href="#ArialMT-6d" x="133.398438"/>
     <use xlink:href="#ArialMT-65" x="216.699219"/>
     <use xlink:href="#ArialMT-20" x="272.314453"/>
     <use xlink:href="#ArialMT-74" x="300.097656"/>
     <use xlink:href="#ArialMT-79" x="327.880859"/>
     <use xlink:href="#ArialMT-70" x="377.880859"/>
     <use xlink:href="#ArialMT-65" x="433.496094"/>
     <use xlink:href="#ArialMT-20" x="489.111328"/>
     <use xlink:href="#ArialMT-76" x="516.894531"/>
     <use xlink:href="#ArialMT-73" x="566.894531"/>
     <use xlink:href="#ArialMT-20" x="616.894531"/>
     <use xlink:href="#ArialMT-52" x="644.677734"/>
     <use xlink:href="#ArialMT-61" x="716.894531"/>
     <use xlink:href="#ArialMT-74" x="772.509766"/>
     <use xlink:href="#ArialMT-69" x="800.292969"/>
     <use xlink:href="#ArialMT-6e" x="822.509766"/>
     <use xlink:href="#ArialMT-67" x="878.125"/>
    </g>
   </g>
  </g>
 </g>
 <defs>
  <clipPath id="p857384f18b">
   <rect x="106.13" y="25.49625" width="343.87" height="278.14375"/>
  </clipPath>
 </defs>
</svg>
