<?xml version="1.0" encoding="utf-8" standalone="no"?>
<!DOCTYPE svg PUBLIC "-//W3C//DTD SVG 1.1//EN"
  "http://www.w3.org/Graphics/SVG/1.1/DTD/svg11.dtd">
<svg xmlns:xlink="http://www.w3.org/1999/xlink" width="460.8pt" height="345.6pt" viewBox="0 0 460.8 345.6" xmlns="http://www.w3.org/2000/svg" version="1.1">
 <metadata>
  <rdf:RDF xmlns:dc="http://purl.org/dc/elements/1.1/" xmlns:cc="http://creativecommons.org/ns#" xmlns:rdf="http://www.w3.org/1999/02/22-rdf-syntax-ns#">
   <cc:Work>
    <dc:type rdf:resource="http://purl.org/dc/dcmitype/StillImage"/>
    <dc:date>2024-09-12T22:02:17.661670</dc:date>
    <dc:format>image/svg+xml</dc:format>
    <dc:creator>
     <cc:Agent>
      <dc:title>Matplotlib v3.9.2, https://matplotlib.org/</dc:title>
     </cc:Agent>
    </dc:creator>
   </cc:Work>
  </rdf:RDF>
 </metadata>
 <defs>
  <style type="text/css">*{stroke-linejoin: round; stroke-linecap: butt}</style>
 </defs>
 <g id="figure_1">
  <g id="patch_1">
   <path d="M 0 345.6 
L 460.8 345.6 
L 460.8 0 
L 0 0 
z
" style="fill: #ffffff"/>
  </g>
  <g id="axes_1">
   <g id="patch_2">
    <path d="M 106.13 303.64 
L 448.566188 303.64 
L 448.566188 25.49625 
L 106.13 25.49625 
z
" style="fill: #eaeaf2"/>
   </g>
   <g id="matplotlib.axis_1">
    <g id="xtick_1">
     <g id="text_1">
      <!-- 4 -->
      <g style="fill: #262626" transform="translate(129.612446 317.797812) scale(0.1 -0.1)">
       <defs>
        <path id="ArialMT-34" d="M 2069 0 
L 2069 1097 
L 81 1097 
L 81 1613 
L 2172 4581 
L 2631 4581 
L 2631 1613 
L 3250 1613 
L 3250 1097 
L 2631 1097 
L 2631 0 
L 2069 0 
z
M 2069 1613 
L 2069 3678 
L 634 1613 
L 2069 1613 
z
" transform="scale(0.015625)"/>
       </defs>
       <use xlink:href="#ArialMT-34"/>
      </g>
     </g>
    </g>
    <g id="xtick_2">
     <g id="text_2">
      <!-- 5 -->
      <g style="fill: #262626" transform="translate(192.587015 317.797812) scale(0.1 -0.1)">
       <defs>
        <path id="ArialMT-35" d="M 266 1200 
L 856 1250 
Q 922 819 1161 601 
Q 1400 384 1738 384 
Q 2144 384 2425 690 
Q 2706 997 2706 1503 
Q 2706 1984 2436 2262 
Q 2166 2541 1728 2541 
Q 1456 2541 1237 2417 
Q 1019 2294 894 2097 
L 366 2166 
L 809 4519 
L 3088 4519 
L 3088 3981 
L 1259 3981 
L 1013 2750 
Q 1425 3038 1878 3038 
Q 2478 3038 2890 2622 
Q 3303 2206 3303 1553 
Q 3303 931 2941 478 
Q 2500 -78 1738 -78 
Q 1113 -78 717 272 
Q 322 622 266 1200 
z
" transform="scale(0.015625)"/>
       </defs>
       <use xlink:href="#ArialMT-35"/>
      </g>
     </g>
    </g>
    <g id="xtick_3">
     <g id="text_3">
      <!-- 6 -->
      <g style="fill: #262626" transform="translate(255.561585 317.797812) scale(0.1 -0.1)">
       <defs>
        <path id="ArialMT-36" d="M 3184 3459 
L 2625 3416 
Q 2550 3747 2413 3897 
Q 2184 4138 1850 4138 
Q 1581 4138 1378 3988 
Q 1113 3794 959 3422 
Q 806 3050 800 2363 
Q 1003 2672 1297 2822 
Q 1591 2972 1913 2972 
Q 2475 2972 2870 2558 
Q 3266 2144 3266 1488 
Q 3266 1056 3080 686 
Q 2894 316 2569 119 
Q 2244 -78 1831 -78 
Q 1128 -78 684 439 
Q 241 956 241 2144 
Q 241 3472 731 4075 
Q 1159 4600 1884 4600 
Q 2425 4600 2770 4297 
Q 3116 3994 3184 3459 
z
M 888 1484 
Q 888 1194 1011 928 
Q 1134 663 1356 523 
Q 1578 384 1822 384 
Q 2178 384 2434 671 
Q 2691 959 2691 1453 
Q 2691 1928 2437 2201 
Q 2184 2475 1800 2475 
Q 1419 2475 1153 2201 
Q 888 1928 888 1484 
z
" transform="scale(0.015625)"/>
       </defs>
       <use xlink:href="#ArialMT-36"/>
      </g>
     </g>
    </g>
    <g id="xtick_4">
     <g id="text_4">
      <!-- 7 -->
      <g style="fill: #262626" transform="translate(318.536155 317.797812) scale(0.1 -0.1)">
       <defs>
        <path id="ArialMT-37" d="M 303 3981 
L 303 4522 
L 3269 4522 
L 3269 4084 
Q 2831 3619 2401 2847 
Q 1972 2075 1738 1259 
Q 1569 684 1522 0 
L 944 0 
Q 953 541 1156 1306 
Q 1359 2072 1739 2783 
Q 2119 3494 2547 3981 
L 303 3981 
z
" transform="scale(0.015625)"/>
       </defs>
       <use xlink:href="#ArialMT-37"/>
      </g>
     </g>
    </g>
    <g id="xtick_5">
     <g id="text_5">
      <!-- 8 -->
      <g style="fill: #262626" transform="translate(381.510724 317.797812) scale(0.1 -0.1)">
       <defs>
        <path id="ArialMT-38" d="M 1131 2484 
Q 781 2613 612 2850 
Q 444 3088 444 3419 
Q 444 3919 803 4259 
Q 1163 4600 1759 4600 
Q 2359 4600 2725 4251 
Q 3091 3903 3091 3403 
Q 3091 3084 2923 2848 
Q 2756 2613 2416 2484 
Q 2838 2347 3058 2040 
Q 3278 1734 3278 1309 
Q 3278 722 2862 322 
Q 2447 -78 1769 -78 
Q 1091 -78 675 323 
Q 259 725 259 1325 
Q 259 1772 486 2073 
Q 713 2375 1131 2484 
z
M 1019 3438 
Q 1019 3113 1228 2906 
Q 1438 2700 1772 2700 
Q 2097 2700 2305 2904 
Q 2513 3109 2513 3406 
Q 2513 3716 2298 3927 
Q 2084 4138 1766 4138 
Q 1444 4138 1231 3931 
Q 1019 3725 1019 3438 
z
M 838 1322 
Q 838 1081 952 856 
Q 1066 631 1291 507 
Q 1516 384 1775 384 
Q 2178 384 2440 643 
Q 2703 903 2703 1303 
Q 2703 1709 2433 1975 
Q 2163 2241 1756 2241 
Q 1359 2241 1098 1978 
Q 838 1716 838 1322 
z
" transform="scale(0.015625)"/>
       </defs>
       <use xlink:href="#ArialMT-38"/>
      </g>
     </g>
    </g>
    <g id="xtick_6">
     <g id="text_6">
      <!-- 9 -->
      <g style="fill: #262626" transform="translate(444.485294 317.797812) scale(0.1 -0.1)">
       <defs>
        <path id="ArialMT-39" d="M 350 1059 
L 891 1109 
Q 959 728 1153 556 
Q 1347 384 1650 384 
Q 1909 384 2104 503 
Q 2300 622 2425 820 
Q 2550 1019 2634 1356 
Q 2719 1694 2719 2044 
Q 2719 2081 2716 2156 
Q 2547 1888 2255 1720 
Q 1963 1553 1622 1553 
Q 1053 1553 659 1965 
Q 266 2378 266 3053 
Q 266 3750 677 4175 
Q 1088 4600 1706 4600 
Q 2153 4600 2523 4359 
Q 2894 4119 3086 3673 
Q 3278 3228 3278 2384 
Q 3278 1506 3087 986 
Q 2897 466 2520 194 
Q 2144 -78 1638 -78 
Q 1100 -78 759 220 
Q 419 519 350 1059 
z
M 2653 3081 
Q 2653 3566 2395 3850 
Q 2138 4134 1775 4134 
Q 1400 4134 1122 3828 
Q 844 3522 844 3034 
Q 844 2597 1108 2323 
Q 1372 2050 1759 2050 
Q 2150 2050 2401 2323 
Q 2653 2597 2653 3081 
z
" transform="scale(0.015625)"/>
       </defs>
       <use xlink:href="#ArialMT-39"/>
      </g>
     </g>
    </g>
    <g id="text_7">
     <!-- Rating -->
     <g style="fill: #262626" transform="translate(262.89575 330.943125) scale(0.1 -0.1)">
      <defs>
       <path id="ArialMT-52" d="M 503 0 
L 503 4581 
L 2534 4581 
Q 3147 4581 3465 4457 
Q 3784 4334 3975 4021 
Q 4166 3709 4166 3331 
Q 4166 2844 3850 2509 
Q 3534 2175 2875 2084 
Q 3116 1969 3241 1856 
Q 3506 1613 3744 1247 
L 4541 0 
L 3778 0 
L 3172 953 
Q 2906 1366 2734 1584 
Q 2563 1803 2427 1890 
Q 2291 1978 2150 2013 
Q 2047 2034 1813 2034 
L 1109 2034 
L 1109 0 
L 503 0 
z
M 1109 2559 
L 2413 2559 
Q 2828 2559 3062 2645 
Q 3297 2731 3419 2920 
Q 3541 3109 3541 3331 
Q 3541 3656 3305 3865 
Q 3069 4075 2559 4075 
L 1109 4075 
L 1109 2559 
z
" transform="scale(0.015625)"/>
       <path id="ArialMT-61" d="M 2588 409 
Q 2275 144 1986 34 
Q 1697 -75 1366 -75 
Q 819 -75 525 192 
Q 231 459 231 875 
Q 231 1119 342 1320 
Q 453 1522 633 1644 
Q 813 1766 1038 1828 
Q 1203 1872 1538 1913 
Q 2219 1994 2541 2106 
Q 2544 2222 2544 2253 
Q 2544 2597 2384 2738 
Q 2169 2928 1744 2928 
Q 1347 2928 1158 2789 
Q 969 2650 878 2297 
L 328 2372 
Q 403 2725 575 2942 
Q 747 3159 1072 3276 
Q 1397 3394 1825 3394 
Q 2250 3394 2515 3294 
Q 2781 3194 2906 3042 
Q 3031 2891 3081 2659 
Q 3109 2516 3109 2141 
L 3109 1391 
Q 3109 606 3145 398 
Q 3181 191 3288 0 
L 2700 0 
Q 2613 175 2588 409 
z
M 2541 1666 
Q 2234 1541 1622 1453 
Q 1275 1403 1131 1340 
Q 988 1278 909 1158 
Q 831 1038 831 891 
Q 831 666 1001 516 
Q 1172 366 1500 366 
Q 1825 366 2078 508 
Q 2331 650 2450 897 
Q 2541 1088 2541 1459 
L 2541 1666 
z
" transform="scale(0.015625)"/>
       <path id="ArialMT-74" d="M 1650 503 
L 1731 6 
Q 1494 -44 1306 -44 
Q 1000 -44 831 53 
Q 663 150 594 308 
Q 525 466 525 972 
L 525 2881 
L 113 2881 
L 113 3319 
L 525 3319 
L 525 4141 
L 1084 4478 
L 1084 3319 
L 1650 3319 
L 1650 2881 
L 1084 2881 
L 1084 941 
Q 1084 700 1114 631 
Q 1144 563 1211 522 
Q 1278 481 1403 481 
Q 1497 481 1650 503 
z
" transform="scale(0.015625)"/>
       <path id="ArialMT-69" d="M 425 3934 
L 425 4581 
L 988 4581 
L 988 3934 
L 425 3934 
z
M 425 0 
L 425 3319 
L 988 3319 
L 988 0 
L 425 0 
z
" transform="scale(0.015625)"/>
       <path id="ArialMT-6e" d="M 422 0 
L 422 3319 
L 928 3319 
L 928 2847 
Q 1294 3394 1984 3394 
Q 2284 3394 2536 3286 
Q 2788 3178 2913 3003 
Q 3038 2828 3088 2588 
Q 3119 2431 3119 2041 
L 3119 0 
L 2556 0 
L 2556 2019 
Q 2556 2363 2490 2533 
Q 2425 2703 2258 2804 
Q 2091 2906 1866 2906 
Q 1506 2906 1245 2678 
Q 984 2450 984 1813 
L 984 0 
L 422 0 
z
" transform="scale(0.015625)"/>
       <path id="ArialMT-67" d="M 319 -275 
L 866 -356 
Q 900 -609 1056 -725 
Q 1266 -881 1628 -881 
Q 2019 -881 2231 -725 
Q 2444 -569 2519 -288 
Q 2563 -116 2559 434 
Q 2191 0 1641 0 
Q 956 0 581 494 
Q 206 988 206 1678 
Q 206 2153 378 2554 
Q 550 2956 876 3175 
Q 1203 3394 1644 3394 
Q 2231 3394 2613 2919 
L 2613 3319 
L 3131 3319 
L 3131 450 
Q 3131 -325 2973 -648 
Q 2816 -972 2473 -1159 
Q 2131 -1347 1631 -1347 
Q 1038 -1347 672 -1080 
Q 306 -813 319 -275 
z
M 784 1719 
Q 784 1066 1043 766 
Q 1303 466 1694 466 
Q 2081 466 2343 764 
Q 2606 1063 2606 1700 
Q 2606 2309 2336 2618 
Q 2066 2928 1684 2928 
Q 1309 2928 1046 2623 
Q 784 2319 784 1719 
z
" transform="scale(0.015625)"/>
      </defs>
      <use xlink:href="#ArialMT-52"/>
      <use xlink:href="#ArialMT-61" x="72.216797"/>
      <use xlink:href="#ArialMT-74" x="127.832031"/>
      <use xlink:href="#ArialMT-69" x="155.615234"/>
      <use xlink:href="#ArialMT-6e" x="177.832031"/>
      <use xlink:href="#ArialMT-67" x="233.447266"/>
     </g>
    </g>
   </g>
   <g id="matplotlib.axis_2">
    <g id="ytick_1">
     <g id="text_8">
      <!-- Children's Game -->
      <g style="fill: #262626" transform="translate(24.97375 46.459141) scale(0.1 -0.1)">
       <defs>
        <path id="ArialMT-43" d="M 3763 1606 
L 4369 1453 
Q 4178 706 3683 314 
Q 3188 -78 2472 -78 
Q 1731 -78 1267 223 
Q 803 525 561 1097 
Q 319 1669 319 2325 
Q 319 3041 592 3573 
Q 866 4106 1370 4382 
Q 1875 4659 2481 4659 
Q 3169 4659 3637 4309 
Q 4106 3959 4291 3325 
L 3694 3184 
Q 3534 3684 3231 3912 
Q 2928 4141 2469 4141 
Q 1941 4141 1586 3887 
Q 1231 3634 1087 3207 
Q 944 2781 944 2328 
Q 944 1744 1114 1308 
Q 1284 872 1643 656 
Q 2003 441 2422 441 
Q 2931 441 3284 734 
Q 3638 1028 3763 1606 
z
" transform="scale(0.015625)"/>
        <path id="ArialMT-68" d="M 422 0 
L 422 4581 
L 984 4581 
L 984 2938 
Q 1378 3394 1978 3394 
Q 2347 3394 2619 3248 
Q 2891 3103 3008 2847 
Q 3125 2591 3125 2103 
L 3125 0 
L 2563 0 
L 2563 2103 
Q 2563 2525 2380 2717 
Q 2197 2909 1863 2909 
Q 1613 2909 1392 2779 
Q 1172 2650 1078 2428 
Q 984 2206 984 1816 
L 984 0 
L 422 0 
z
" transform="scale(0.015625)"/>
        <path id="ArialMT-6c" d="M 409 0 
L 409 4581 
L 972 4581 
L 972 0 
L 409 0 
z
" transform="scale(0.015625)"/>
        <path id="ArialMT-64" d="M 2575 0 
L 2575 419 
Q 2259 -75 1647 -75 
Q 1250 -75 917 144 
Q 584 363 401 755 
Q 219 1147 219 1656 
Q 219 2153 384 2558 
Q 550 2963 881 3178 
Q 1213 3394 1622 3394 
Q 1922 3394 2156 3267 
Q 2391 3141 2538 2938 
L 2538 4581 
L 3097 4581 
L 3097 0 
L 2575 0 
z
M 797 1656 
Q 797 1019 1065 703 
Q 1334 388 1700 388 
Q 2069 388 2326 689 
Q 2584 991 2584 1609 
Q 2584 2291 2321 2609 
Q 2059 2928 1675 2928 
Q 1300 2928 1048 2622 
Q 797 2316 797 1656 
z
" transform="scale(0.015625)"/>
        <path id="ArialMT-72" d="M 416 0 
L 416 3319 
L 922 3319 
L 922 2816 
Q 1116 3169 1280 3281 
Q 1444 3394 1641 3394 
Q 1925 3394 2219 3213 
L 2025 2691 
Q 1819 2813 1613 2813 
Q 1428 2813 1281 2702 
Q 1134 2591 1072 2394 
Q 978 2094 978 1738 
L 978 0 
L 416 0 
z
" transform="scale(0.015625)"/>
        <path id="ArialMT-65" d="M 2694 1069 
L 3275 997 
Q 3138 488 2766 206 
Q 2394 -75 1816 -75 
Q 1088 -75 661 373 
Q 234 822 234 1631 
Q 234 2469 665 2931 
Q 1097 3394 1784 3394 
Q 2450 3394 2872 2941 
Q 3294 2488 3294 1666 
Q 3294 1616 3291 1516 
L 816 1516 
Q 847 969 1125 678 
Q 1403 388 1819 388 
Q 2128 388 2347 550 
Q 2566 713 2694 1069 
z
M 847 1978 
L 2700 1978 
Q 2663 2397 2488 2606 
Q 2219 2931 1791 2931 
Q 1403 2931 1139 2672 
Q 875 2413 847 1978 
z
" transform="scale(0.015625)"/>
        <path id="ArialMT-27" d="M 425 2959 
L 281 3816 
L 281 4581 
L 922 4581 
L 922 3816 
L 772 2959 
L 425 2959 
z
" transform="scale(0.015625)"/>
        <path id="ArialMT-73" d="M 197 991 
L 753 1078 
Q 800 744 1014 566 
Q 1228 388 1613 388 
Q 2000 388 2187 545 
Q 2375 703 2375 916 
Q 2375 1106 2209 1216 
Q 2094 1291 1634 1406 
Q 1016 1563 777 1677 
Q 538 1791 414 1992 
Q 291 2194 291 2438 
Q 291 2659 392 2848 
Q 494 3038 669 3163 
Q 800 3259 1026 3326 
Q 1253 3394 1513 3394 
Q 1903 3394 2198 3281 
Q 2494 3169 2634 2976 
Q 2775 2784 2828 2463 
L 2278 2388 
Q 2241 2644 2061 2787 
Q 1881 2931 1553 2931 
Q 1166 2931 1000 2803 
Q 834 2675 834 2503 
Q 834 2394 903 2306 
Q 972 2216 1119 2156 
Q 1203 2125 1616 2013 
Q 2213 1853 2448 1751 
Q 2684 1650 2818 1456 
Q 2953 1263 2953 975 
Q 2953 694 2789 445 
Q 2625 197 2315 61 
Q 2006 -75 1616 -75 
Q 969 -75 630 194 
Q 291 463 197 991 
z
" transform="scale(0.015625)"/>
        <path id="ArialMT-20" transform="scale(0.015625)"/>
        <path id="ArialMT-47" d="M 2638 1797 
L 2638 2334 
L 4578 2338 
L 4578 638 
Q 4131 281 3656 101 
Q 3181 -78 2681 -78 
Q 2006 -78 1454 211 
Q 903 500 622 1047 
Q 341 1594 341 2269 
Q 341 2938 620 3517 
Q 900 4097 1425 4378 
Q 1950 4659 2634 4659 
Q 3131 4659 3532 4498 
Q 3934 4338 4162 4050 
Q 4391 3763 4509 3300 
L 3963 3150 
Q 3859 3500 3706 3700 
Q 3553 3900 3268 4020 
Q 2984 4141 2638 4141 
Q 2222 4141 1919 4014 
Q 1616 3888 1430 3681 
Q 1244 3475 1141 3228 
Q 966 2803 966 2306 
Q 966 1694 1177 1281 
Q 1388 869 1791 669 
Q 2194 469 2647 469 
Q 3041 469 3416 620 
Q 3791 772 3984 944 
L 3984 1797 
L 2638 1797 
z
" transform="scale(0.015625)"/>
        <path id="ArialMT-6d" d="M 422 0 
L 422 3319 
L 925 3319 
L 925 2853 
Q 1081 3097 1340 3245 
Q 1600 3394 1931 3394 
Q 2300 3394 2536 3241 
Q 2772 3088 2869 2813 
Q 3263 3394 3894 3394 
Q 4388 3394 4653 3120 
Q 4919 2847 4919 2278 
L 4919 0 
L 4359 0 
L 4359 2091 
Q 4359 2428 4304 2576 
Q 4250 2725 4106 2815 
Q 3963 2906 3769 2906 
Q 3419 2906 3187 2673 
Q 2956 2441 2956 1928 
L 2956 0 
L 2394 0 
L 2394 2156 
Q 2394 2531 2256 2718 
Q 2119 2906 1806 2906 
Q 1569 2906 1367 2781 
Q 1166 2656 1075 2415 
Q 984 2175 984 1722 
L 984 0 
L 422 0 
z
" transform="scale(0.015625)"/>
       </defs>
       <use xlink:href="#ArialMT-43"/>
       <use xlink:href="#ArialMT-68" x="72.216797"/>
       <use xlink:href="#ArialMT-69" x="127.832031"/>
       <use xlink:href="#ArialMT-6c" x="150.048828"/>
       <use xlink:href="#ArialMT-64" x="172.265625"/>
       <use xlink:href="#ArialMT-72" x="227.880859"/>
       <use xlink:href="#ArialMT-65" x="261.181641"/>
       <use xlink:href="#ArialMT-6e" x="316.796875"/>
       <use xlink:href="#ArialMT-27" x="372.412109"/>
       <use xlink:href="#ArialMT-73" x="391.503906"/>
       <use xlink:href="#ArialMT-20" x="441.503906"/>
       <use xlink:href="#ArialMT-47" x="469.287109"/>
       <use xlink:href="#ArialMT-61" x="547.070312"/>
       <use xlink:href="#ArialMT-6d" x="602.685547"/>
       <use xlink:href="#ArialMT-65" x="685.986328"/>
      </g>
     </g>
    </g>
    <g id="ytick_2">
     <g id="text_9">
      <!-- Party Game -->
      <g style="fill: #262626" transform="translate(45.783125 81.288047) scale(0.1 -0.1)">
       <defs>
        <path id="ArialMT-50" d="M 494 0 
L 494 4581 
L 2222 4581 
Q 2678 4581 2919 4538 
Q 3256 4481 3484 4323 
Q 3713 4166 3852 3881 
Q 3991 3597 3991 3256 
Q 3991 2672 3619 2267 
Q 3247 1863 2275 1863 
L 1100 1863 
L 1100 0 
L 494 0 
z
M 1100 2403 
L 2284 2403 
Q 2872 2403 3119 2622 
Q 3366 2841 3366 3238 
Q 3366 3525 3220 3729 
Q 3075 3934 2838 4000 
Q 2684 4041 2272 4041 
L 1100 4041 
L 1100 2403 
z
" transform="scale(0.015625)"/>
        <path id="ArialMT-79" d="M 397 -1278 
L 334 -750 
Q 519 -800 656 -800 
Q 844 -800 956 -737 
Q 1069 -675 1141 -563 
Q 1194 -478 1313 -144 
Q 1328 -97 1363 -6 
L 103 3319 
L 709 3319 
L 1400 1397 
Q 1534 1031 1641 628 
Q 1738 1016 1872 1384 
L 2581 3319 
L 3144 3319 
L 1881 -56 
Q 1678 -603 1566 -809 
Q 1416 -1088 1222 -1217 
Q 1028 -1347 759 -1347 
Q 597 -1347 397 -1278 
z
" transform="scale(0.015625)"/>
       </defs>
       <use xlink:href="#ArialMT-50"/>
       <use xlink:href="#ArialMT-61" x="66.699219"/>
       <use xlink:href="#ArialMT-72" x="122.314453"/>
       <use xlink:href="#ArialMT-74" x="155.615234"/>
       <use xlink:href="#ArialMT-79" x="183.398438"/>
       <use xlink:href="#ArialMT-20" x="233.398438"/>
       <use xlink:href="#ArialMT-47" x="261.181641"/>
       <use xlink:href="#ArialMT-61" x="338.964844"/>
       <use xlink:href="#ArialMT-6d" x="394.580078"/>
       <use xlink:href="#ArialMT-65" x="477.880859"/>
      </g>
     </g>
    </g>
    <g id="ytick_3">
     <g id="text_10">
      <!-- Abstract Game -->
      <g style="fill: #262626" transform="translate(32.444063 115.995078) scale(0.1 -0.1)">
       <defs>
        <path id="ArialMT-41" d="M -9 0 
L 1750 4581 
L 2403 4581 
L 4278 0 
L 3588 0 
L 3053 1388 
L 1138 1388 
L 634 0 
L -9 0 
z
M 1313 1881 
L 2866 1881 
L 2388 3150 
Q 2169 3728 2063 4100 
Q 1975 3659 1816 3225 
L 1313 1881 
z
" transform="scale(0.015625)"/>
        <path id="ArialMT-62" d="M 941 0 
L 419 0 
L 419 4581 
L 981 4581 
L 981 2947 
Q 1338 3394 1891 3394 
Q 2197 3394 2470 3270 
Q 2744 3147 2920 2923 
Q 3097 2700 3197 2384 
Q 3297 2069 3297 1709 
Q 3297 856 2875 390 
Q 2453 -75 1863 -75 
Q 1275 -75 941 416 
L 941 0 
z
M 934 1684 
Q 934 1088 1097 822 
Q 1363 388 1816 388 
Q 2184 388 2453 708 
Q 2722 1028 2722 1663 
Q 2722 2313 2464 2622 
Q 2206 2931 1841 2931 
Q 1472 2931 1203 2611 
Q 934 2291 934 1684 
z
" transform="scale(0.015625)"/>
        <path id="ArialMT-63" d="M 2588 1216 
L 3141 1144 
Q 3050 572 2676 248 
Q 2303 -75 1759 -75 
Q 1078 -75 664 370 
Q 250 816 250 1647 
Q 250 2184 428 2587 
Q 606 2991 970 3192 
Q 1334 3394 1763 3394 
Q 2303 3394 2647 3120 
Q 2991 2847 3088 2344 
L 2541 2259 
Q 2463 2594 2264 2762 
Q 2066 2931 1784 2931 
Q 1359 2931 1093 2626 
Q 828 2322 828 1663 
Q 828 994 1084 691 
Q 1341 388 1753 388 
Q 2084 388 2306 591 
Q 2528 794 2588 1216 
z
" transform="scale(0.015625)"/>
       </defs>
       <use xlink:href="#ArialMT-41"/>
       <use xlink:href="#ArialMT-62" x="66.699219"/>
       <use xlink:href="#ArialMT-73" x="122.314453"/>
       <use xlink:href="#ArialMT-74" x="172.314453"/>
       <use xlink:href="#ArialMT-72" x="200.097656"/>
       <use xlink:href="#ArialMT-61" x="233.398438"/>
       <use xlink:href="#ArialMT-63" x="289.013672"/>
       <use xlink:href="#ArialMT-74" x="339.013672"/>
       <use xlink:href="#ArialMT-20" x="366.796875"/>
       <use xlink:href="#ArialMT-47" x="394.580078"/>
       <use xlink:href="#ArialMT-61" x="472.363281"/>
       <use xlink:href="#ArialMT-6d" x="527.978516"/>
       <use xlink:href="#ArialMT-65" x="611.279297"/>
      </g>
     </g>
    </g>
    <g id="ytick_4">
     <g id="text_11">
      <!-- Family Game -->
      <g style="fill: #262626" transform="translate(39.68 150.823984) scale(0.1 -0.1)">
       <defs>
        <path id="ArialMT-46" d="M 525 0 
L 525 4581 
L 3616 4581 
L 3616 4041 
L 1131 4041 
L 1131 2622 
L 3281 2622 
L 3281 2081 
L 1131 2081 
L 1131 0 
L 525 0 
z
" transform="scale(0.015625)"/>
       </defs>
       <use xlink:href="#ArialMT-46"/>
       <use xlink:href="#ArialMT-61" x="61.083984"/>
       <use xlink:href="#ArialMT-6d" x="116.699219"/>
       <use xlink:href="#ArialMT-69" x="200"/>
       <use xlink:href="#ArialMT-6c" x="222.216797"/>
       <use xlink:href="#ArialMT-79" x="244.433594"/>
       <use xlink:href="#ArialMT-20" x="294.433594"/>
       <use xlink:href="#ArialMT-47" x="322.216797"/>
       <use xlink:href="#ArialMT-61" x="400"/>
       <use xlink:href="#ArialMT-6d" x="455.615234"/>
       <use xlink:href="#ArialMT-65" x="538.916016"/>
      </g>
     </g>
    </g>
    <g id="ytick_5">
     <g id="text_12">
      <!-- Customizable -->
      <g style="fill: #262626" transform="translate(38.551875 185.531016) scale(0.1 -0.1)">
       <defs>
        <path id="ArialMT-75" d="M 2597 0 
L 2597 488 
Q 2209 -75 1544 -75 
Q 1250 -75 995 37 
Q 741 150 617 320 
Q 494 491 444 738 
Q 409 903 409 1263 
L 409 3319 
L 972 3319 
L 972 1478 
Q 972 1038 1006 884 
Q 1059 663 1231 536 
Q 1403 409 1656 409 
Q 1909 409 2131 539 
Q 2353 669 2445 892 
Q 2538 1116 2538 1541 
L 2538 3319 
L 3100 3319 
L 3100 0 
L 2597 0 
z
" transform="scale(0.015625)"/>
        <path id="ArialMT-6f" d="M 213 1659 
Q 213 2581 725 3025 
Q 1153 3394 1769 3394 
Q 2453 3394 2887 2945 
Q 3322 2497 3322 1706 
Q 3322 1066 3130 698 
Q 2938 331 2570 128 
Q 2203 -75 1769 -75 
Q 1072 -75 642 372 
Q 213 819 213 1659 
z
M 791 1659 
Q 791 1022 1069 705 
Q 1347 388 1769 388 
Q 2188 388 2466 706 
Q 2744 1025 2744 1678 
Q 2744 2294 2464 2611 
Q 2184 2928 1769 2928 
Q 1347 2928 1069 2612 
Q 791 2297 791 1659 
z
" transform="scale(0.015625)"/>
        <path id="ArialMT-7a" d="M 125 0 
L 125 456 
L 2238 2881 
Q 1878 2863 1603 2863 
L 250 2863 
L 250 3319 
L 2963 3319 
L 2963 2947 
L 1166 841 
L 819 456 
Q 1197 484 1528 484 
L 3063 484 
L 3063 0 
L 125 0 
z
" transform="scale(0.015625)"/>
       </defs>
       <use xlink:href="#ArialMT-43"/>
       <use xlink:href="#ArialMT-75" x="72.216797"/>
       <use xlink:href="#ArialMT-73" x="127.832031"/>
       <use xlink:href="#ArialMT-74" x="177.832031"/>
       <use xlink:href="#ArialMT-6f" x="205.615234"/>
       <use xlink:href="#ArialMT-6d" x="261.230469"/>
       <use xlink:href="#ArialMT-69" x="344.53125"/>
       <use xlink:href="#ArialMT-7a" x="366.748047"/>
       <use xlink:href="#ArialMT-61" x="416.748047"/>
       <use xlink:href="#ArialMT-62" x="472.363281"/>
       <use xlink:href="#ArialMT-6c" x="527.978516"/>
       <use xlink:href="#ArialMT-65" x="550.195312"/>
      </g>
     </g>
    </g>
    <g id="ytick_6">
     <g id="text_13">
      <!-- Thematic -->
      <g style="fill: #262626" transform="translate(58.009688 220.298984) scale(0.1 -0.1)">
       <defs>
        <path id="ArialMT-54" d="M 1659 0 
L 1659 4041 
L 150 4041 
L 150 4581 
L 3781 4581 
L 3781 4041 
L 2266 4041 
L 2266 0 
L 1659 0 
z
" transform="scale(0.015625)"/>
       </defs>
       <use xlink:href="#ArialMT-54"/>
       <use xlink:href="#ArialMT-68" x="61.083984"/>
       <use xlink:href="#ArialMT-65" x="116.699219"/>
       <use xlink:href="#ArialMT-6d" x="172.314453"/>
       <use xlink:href="#ArialMT-61" x="255.615234"/>
       <use xlink:href="#ArialMT-74" x="311.230469"/>
       <use xlink:href="#ArialMT-69" x="339.013672"/>
       <use xlink:href="#ArialMT-63" x="361.230469"/>
      </g>
     </g>
    </g>
    <g id="ytick_7">
     <g id="text_14">
      <!-- War Game -->
      <g style="fill: #262626" transform="translate(51.1675 255.066953) scale(0.1 -0.1)">
       <defs>
        <path id="ArialMT-57" d="M 1294 0 
L 78 4581 
L 700 4581 
L 1397 1578 
Q 1509 1106 1591 641 
Q 1766 1375 1797 1488 
L 2669 4581 
L 3400 4581 
L 4056 2263 
Q 4303 1400 4413 641 
Q 4500 1075 4641 1638 
L 5359 4581 
L 5969 4581 
L 4713 0 
L 4128 0 
L 3163 3491 
Q 3041 3928 3019 4028 
Q 2947 3713 2884 3491 
L 1913 0 
L 1294 0 
z
" transform="scale(0.015625)"/>
       </defs>
       <use xlink:href="#ArialMT-57"/>
       <use xlink:href="#ArialMT-61" x="90.634766"/>
       <use xlink:href="#ArialMT-72" x="146.25"/>
       <use xlink:href="#ArialMT-20" x="179.550781"/>
       <use xlink:href="#ArialMT-47" x="207.333984"/>
       <use xlink:href="#ArialMT-61" x="285.117188"/>
       <use xlink:href="#ArialMT-6d" x="340.732422"/>
       <use xlink:href="#ArialMT-65" x="424.033203"/>
      </g>
     </g>
    </g>
    <g id="ytick_8">
     <g id="text_15">
      <!-- Strategy Game -->
      <g style="fill: #262626" transform="translate(31.883125 289.895859) scale(0.1 -0.1)">
       <defs>
        <path id="ArialMT-53" d="M 288 1472 
L 859 1522 
Q 900 1178 1048 958 
Q 1197 738 1509 602 
Q 1822 466 2213 466 
Q 2559 466 2825 569 
Q 3091 672 3220 851 
Q 3350 1031 3350 1244 
Q 3350 1459 3225 1620 
Q 3100 1781 2813 1891 
Q 2628 1963 1997 2114 
Q 1366 2266 1113 2400 
Q 784 2572 623 2826 
Q 463 3081 463 3397 
Q 463 3744 659 4045 
Q 856 4347 1234 4503 
Q 1613 4659 2075 4659 
Q 2584 4659 2973 4495 
Q 3363 4331 3572 4012 
Q 3781 3694 3797 3291 
L 3216 3247 
Q 3169 3681 2898 3903 
Q 2628 4125 2100 4125 
Q 1550 4125 1298 3923 
Q 1047 3722 1047 3438 
Q 1047 3191 1225 3031 
Q 1400 2872 2139 2705 
Q 2878 2538 3153 2413 
Q 3553 2228 3743 1945 
Q 3934 1663 3934 1294 
Q 3934 928 3725 604 
Q 3516 281 3123 101 
Q 2731 -78 2241 -78 
Q 1619 -78 1198 103 
Q 778 284 539 648 
Q 300 1013 288 1472 
z
" transform="scale(0.015625)"/>
       </defs>
       <use xlink:href="#ArialMT-53"/>
       <use xlink:href="#ArialMT-74" x="66.699219"/>
       <use xlink:href="#ArialMT-72" x="94.482422"/>
       <use xlink:href="#ArialMT-61" x="127.783203"/>
       <use xlink:href="#ArialMT-74" x="183.398438"/>
       <use xlink:href="#ArialMT-65" x="211.181641"/>
       <use xlink:href="#ArialMT-67" x="266.796875"/>
       <use xlink:href="#ArialMT-79" x="322.412109"/>
       <use xlink:href="#ArialMT-20" x="372.412109"/>
       <use xlink:href="#ArialMT-47" x="400.195312"/>
       <use xlink:href="#ArialMT-61" x="477.978516"/>
       <use xlink:href="#ArialMT-6d" x="533.59375"/>
       <use xlink:href="#ArialMT-65" x="616.894531"/>
      </g>
     </g>
    </g>
    <g id="text_16">
     <!-- Game type -->
     <g style="fill: #262626" transform="translate(18.869063 189.022031) rotate(-90) scale(0.1 -0.1)">
      <defs>
       <path id="ArialMT-70" d="M 422 -1272 
L 422 3319 
L 934 3319 
L 934 2888 
Q 1116 3141 1344 3267 
Q 1572 3394 1897 3394 
Q 2322 3394 2647 3175 
Q 2972 2956 3137 2557 
Q 3303 2159 3303 1684 
Q 3303 1175 3120 767 
Q 2938 359 2589 142 
Q 2241 -75 1856 -75 
Q 1575 -75 1351 44 
Q 1128 163 984 344 
L 984 -1272 
L 422 -1272 
z
M 931 1641 
Q 931 1000 1190 694 
Q 1450 388 1819 388 
Q 2194 388 2461 705 
Q 2728 1022 2728 1688 
Q 2728 2322 2467 2637 
Q 2206 2953 1844 2953 
Q 1484 2953 1207 2617 
Q 931 2281 931 1641 
z
" transform="scale(0.015625)"/>
      </defs>
      <use xlink:href="#ArialMT-47"/>
      <use xlink:href="#ArialMT-61" x="77.783203"/>
      <use xlink:href="#ArialMT-6d" x="133.398438"/>
      <use xlink:href="#ArialMT-65" x="216.699219"/>
      <use xlink:href="#ArialMT-20" x="272.314453"/>
      <use xlink:href="#ArialMT-74" x="300.097656"/>
      <use xlink:href="#ArialMT-79" x="327.880859"/>
      <use xlink:href="#ArialMT-70" x="377.880859"/>
      <use xlink:href="#ArialMT-65" x="433.496094"/>
     </g>
    </g>
   </g>
   <g id="PolyCollection_1">
    <defs>
     <path id="md5b1e026aa" d="M 32.948574 -302.713205 
L 32.948574 -302.726326 
L 37.028384 -302.731773 
L 41.108193 -302.739489 
L 45.188002 -302.748844 
L 49.267812 -302.758274 
L 53.347621 -302.765666 
L 57.427431 -302.769281 
L 61.50724 -302.76883 
L 65.58705 -302.76611 
L 69.666859 -302.764837 
L 73.746668 -302.76971 
L 77.826478 -302.785088 
L 81.906287 -302.813719 
L 85.986097 -302.855868 
L 90.065906 -302.90916 
L 94.145715 -302.969352 
L 98.225525 -303.031992 
L 102.305334 -303.09452 
L 106.385144 -303.158049 
L 110.464953 -303.228 
L 114.544763 -303.313072 
L 118.624572 -303.422713 
L 122.704381 -303.56414 
L 126.784191 -303.74057 
L 130.864 -303.951888 
L 134.94381 -304.197376 
L 139.023619 -304.47821 
L 143.103429 -304.797059 
L 147.183238 -305.154066 
L 151.263047 -305.541747 
L 155.342857 -305.943045 
L 159.422666 -306.335347 
L 163.502476 -306.699271 
L 167.582285 -307.027573 
L 171.662095 -307.328911 
L 175.741904 -307.624126 
L 179.821713 -307.937136 
L 183.901523 -308.285657 
L 187.981332 -308.676847 
L 192.061142 -309.109536 
L 196.140951 -309.580262 
L 200.22076 -310.087746 
L 204.30057 -310.631515 
L 208.380379 -311.204563 
L 212.460189 -311.784649 
L 216.539998 -312.33121 
L 220.619808 -312.792945 
L 224.699617 -313.125442 
L 228.779426 -313.311622 
L 232.859236 -313.37426 
L 236.939045 -313.371843 
L 241.018855 -313.376425 
L 245.098664 -313.441719 
L 249.178474 -313.576773 
L 253.258283 -313.739906 
L 257.338092 -313.857434 
L 261.417902 -313.857092 
L 265.497711 -313.697183 
L 269.577521 -313.376645 
L 273.65733 -312.924795 
L 277.737139 -312.381536 
L 281.816949 -311.780776 
L 285.896758 -311.143403 
L 289.976568 -310.478753 
L 294.056377 -309.790358 
L 298.136187 -309.082265 
L 302.215996 -308.363431 
L 306.295805 -307.648803 
L 310.375615 -306.957102 
L 314.455424 -306.30704 
L 318.535234 -305.714076 
L 322.615043 -305.188684 
L 326.694853 -304.73573 
L 330.774662 -304.354459 
L 334.854471 -304.039316 
L 338.934281 -303.78198 
L 343.01409 -303.574108 
L 347.0939 -303.409285 
L 351.173709 -303.282859 
L 355.253518 -303.189893 
L 359.333328 -303.123104 
L 363.413137 -303.072846 
L 367.492947 -303.029517 
L 371.572756 -302.986674 
L 375.652566 -302.942574 
L 379.732375 -302.899237 
L 383.812184 -302.860105 
L 387.891994 -302.82801 
L 391.971803 -302.804344 
L 396.051613 -302.789082 
L 400.131422 -302.780962 
L 404.211232 -302.777616 
L 408.291041 -302.775986 
L 412.37085 -302.773197 
L 416.45066 -302.767561 
L 420.530469 -302.759089 
L 424.610279 -302.749156 
L 428.690088 -302.739595 
L 432.769897 -302.731806 
L 436.849707 -302.726335 
L 436.849707 -302.713197 
L 436.849707 -302.713197 
L 432.769897 -302.707725 
L 428.690088 -302.699936 
L 424.610279 -302.690375 
L 420.530469 -302.680442 
L 416.45066 -302.67197 
L 412.37085 -302.666334 
L 408.291041 -302.663545 
L 404.211232 -302.661915 
L 400.131422 -302.65857 
L 396.051613 -302.650449 
L 391.971803 -302.635187 
L 387.891994 -302.611521 
L 383.812184 -302.579426 
L 379.732375 -302.540294 
L 375.652566 -302.496958 
L 371.572756 -302.452857 
L 367.492947 -302.410015 
L 363.413137 -302.366685 
L 359.333328 -302.316427 
L 355.253518 -302.249638 
L 351.173709 -302.156672 
L 347.0939 -302.030246 
L 343.01409 -301.865423 
L 338.934281 -301.657551 
L 334.854471 -301.400215 
L 330.774662 -301.085072 
L 326.694853 -300.703802 
L 322.615043 -300.250848 
L 318.535234 -299.725456 
L 314.455424 -299.132491 
L 310.375615 -298.482429 
L 306.295805 -297.790728 
L 302.215996 -297.0761 
L 298.136187 -296.357267 
L 294.056377 -295.649173 
L 289.976568 -294.960779 
L 285.896758 -294.296129 
L 281.816949 -293.658756 
L 277.737139 -293.057995 
L 273.65733 -292.514736 
L 269.577521 -292.062887 
L 265.497711 -291.742348 
L 261.417902 -291.582439 
L 257.338092 -291.582097 
L 253.258283 -291.699626 
L 249.178474 -291.862758 
L 245.098664 -291.997812 
L 241.018855 -292.063107 
L 236.939045 -292.067688 
L 232.859236 -292.065272 
L 228.779426 -292.127909 
L 224.699617 -292.31409 
L 220.619808 -292.646586 
L 216.539998 -293.108322 
L 212.460189 -293.654882 
L 208.380379 -294.234968 
L 204.30057 -294.808016 
L 200.22076 -295.351786 
L 196.140951 -295.859269 
L 192.061142 -296.329995 
L 187.981332 -296.762684 
L 183.901523 -297.153874 
L 179.821713 -297.502396 
L 175.741904 -297.815405 
L 171.662095 -298.110621 
L 167.582285 -298.411958 
L 163.502476 -298.740261 
L 159.422666 -299.104185 
L 155.342857 -299.496486 
L 151.263047 -299.897785 
L 147.183238 -300.285465 
L 143.103429 -300.642473 
L 139.023619 -300.961321 
L 134.94381 -301.242155 
L 130.864 -301.487643 
L 126.784191 -301.698962 
L 122.704381 -301.875392 
L 118.624572 -302.016819 
L 114.544763 -302.126459 
L 110.464953 -302.211531 
L 106.385144 -302.281483 
L 102.305334 -302.345011 
L 98.225525 -302.407539 
L 94.145715 -302.470179 
L 90.065906 -302.530371 
L 85.986097 -302.583664 
L 81.906287 -302.625812 
L 77.826478 -302.654443 
L 73.746668 -302.669821 
L 69.666859 -302.674694 
L 65.58705 -302.673421 
L 61.50724 -302.670701 
L 57.427431 -302.67025 
L 53.347621 -302.673866 
L 49.267812 -302.681257 
L 45.188002 -302.690687 
L 41.108193 -302.700042 
L 37.028384 -302.707758 
L 32.948574 -302.713205 
z
" style="stroke: #262626; stroke-width: 1.25"/>
    </defs>
    <g clip-path="url(#pdf880115c8)">
     <use xlink:href="#md5b1e026aa" x="0" y="345.6" style="fill: #701070; stroke: #262626; stroke-width: 1.25"/>
    </g>
   </g>
   <g id="PolyCollection_2">
    <defs>
     <path id="m0f03b41a5b" d="M 68.556318 -267.942564 
L 68.556318 -267.96103 
L 72.192996 -267.96913 
L 75.829673 -267.981676 
L 79.466351 -267.999255 
L 83.103029 -268.021535 
L 86.739706 -268.047043 
L 90.376384 -268.073332 
L 94.013062 -268.097593 
L 97.649739 -268.11753 
L 101.286417 -268.132198 
L 104.923095 -268.142362 
L 108.559773 -268.150113 
L 112.19645 -268.157794 
L 115.833128 -268.16679 
L 119.469806 -268.176915 
L 123.106483 -268.186858 
L 126.743161 -268.195464 
L 130.379839 -268.203059 
L 134.016517 -268.211952 
L 137.653194 -268.22563 
L 141.289872 -268.247024 
L 144.92655 -268.276838 
L 148.563227 -268.313162 
L 152.199905 -268.352837 
L 155.836583 -268.393882 
L 159.47326 -268.437459 
L 163.109938 -268.488131 
L 166.746616 -268.552391 
L 170.383294 -268.636602 
L 174.019971 -268.745727 
L 177.656649 -268.883431 
L 181.293327 -269.053027 
L 184.930004 -269.258231 
L 188.566682 -269.503054 
L 192.20336 -269.791074 
L 195.840038 -270.12486 
L 199.476715 -270.50608 
L 203.113393 -270.93574 
L 206.750071 -271.41322 
L 210.386748 -271.933292 
L 214.023426 -272.482433 
L 217.660104 -273.037831 
L 221.296781 -273.57209 
L 224.933459 -274.063135 
L 228.570137 -274.50447 
L 232.206815 -274.909699 
L 235.843492 -275.308355 
L 239.48017 -275.735151 
L 243.116848 -276.217981 
L 246.753525 -276.769499 
L 250.390203 -277.384335 
L 254.026881 -278.041255 
L 257.663558 -278.708097 
L 261.300236 -279.347283 
L 264.936914 -279.920564 
L 268.573592 -280.393117 
L 272.210269 -280.738051 
L 275.846947 -280.941745 
L 279.483625 -281.007965 
L 283.120302 -280.956926 
L 286.75698 -280.817026 
L 290.393658 -280.612013 
L 294.030336 -280.350855 
L 297.667013 -280.026865 
L 301.303691 -279.62669 
L 304.940369 -279.143123 
L 308.577046 -278.583648 
L 312.213724 -277.970118 
L 315.850402 -277.330748 
L 319.487079 -276.68953 
L 323.123757 -276.05868 
L 326.760435 -275.437512 
L 330.397113 -274.817789 
L 334.03379 -274.192283 
L 337.670468 -273.561519 
L 341.307146 -272.93481 
L 344.943823 -272.325653 
L 348.580501 -271.745424 
L 352.217179 -271.200106 
L 355.853856 -270.691681 
L 359.490534 -270.221916 
L 363.127212 -269.794857 
L 366.76389 -269.416253 
L 370.400567 -269.090968 
L 374.037245 -268.820686 
L 377.673923 -268.603318 
L 381.3106 -268.433895 
L 384.947278 -268.305961 
L 388.583956 -268.212614 
L 392.220634 -268.146983 
L 395.857311 -268.102354 
L 399.493989 -268.072273 
L 403.130667 -268.050918 
L 406.767344 -268.03371 
L 410.404022 -268.017869 
L 414.0407 -268.002518 
L 417.677377 -267.988173 
L 421.314055 -267.975874 
L 424.950733 -267.966393 
L 428.587411 -267.959864 
L 428.587411 -267.94373 
L 428.587411 -267.94373 
L 424.950733 -267.937201 
L 421.314055 -267.92772 
L 417.677377 -267.915421 
L 414.0407 -267.901076 
L 410.404022 -267.885724 
L 406.767344 -267.869884 
L 403.130667 -267.852676 
L 399.493989 -267.831321 
L 395.857311 -267.80124 
L 392.220634 -267.756611 
L 388.583956 -267.69098 
L 384.947278 -267.597632 
L 381.3106 -267.469699 
L 377.673923 -267.300276 
L 374.037245 -267.082907 
L 370.400567 -266.812626 
L 366.76389 -266.487341 
L 363.127212 -266.108737 
L 359.490534 -265.681678 
L 355.853856 -265.211912 
L 352.217179 -264.703488 
L 348.580501 -264.15817 
L 344.943823 -263.577941 
L 341.307146 -262.968784 
L 337.670468 -262.342075 
L 334.03379 -261.71131 
L 330.397113 -261.085805 
L 326.760435 -260.466082 
L 323.123757 -259.844914 
L 319.487079 -259.214064 
L 315.850402 -258.572846 
L 312.213724 -257.933476 
L 308.577046 -257.319946 
L 304.940369 -256.760471 
L 301.303691 -256.276904 
L 297.667013 -255.876729 
L 294.030336 -255.552739 
L 290.393658 -255.291581 
L 286.75698 -255.086568 
L 283.120302 -254.946667 
L 279.483625 -254.895629 
L 275.846947 -254.961848 
L 272.210269 -255.165542 
L 268.573592 -255.510477 
L 264.936914 -255.983029 
L 261.300236 -256.556311 
L 257.663558 -257.195496 
L 254.026881 -257.862339 
L 250.390203 -258.519258 
L 246.753525 -259.134095 
L 243.116848 -259.685613 
L 239.48017 -260.168443 
L 235.843492 -260.595239 
L 232.206815 -260.993894 
L 228.570137 -261.399124 
L 224.933459 -261.840458 
L 221.296781 -262.331504 
L 217.660104 -262.865763 
L 214.023426 -263.421161 
L 210.386748 -263.970302 
L 206.750071 -264.490374 
L 203.113393 -264.967854 
L 199.476715 -265.397514 
L 195.840038 -265.778734 
L 192.20336 -266.11252 
L 188.566682 -266.400539 
L 184.930004 -266.645363 
L 181.293327 -266.850566 
L 177.656649 -267.020163 
L 174.019971 -267.157867 
L 170.383294 -267.266992 
L 166.746616 -267.351203 
L 163.109938 -267.415463 
L 159.47326 -267.466135 
L 155.836583 -267.509711 
L 152.199905 -267.550757 
L 148.563227 -267.590432 
L 144.92655 -267.626756 
L 141.289872 -267.65657 
L 137.653194 -267.677964 
L 134.016517 -267.691642 
L 130.379839 -267.700534 
L 126.743161 -267.70813 
L 123.106483 -267.716735 
L 119.469806 -267.726679 
L 115.833128 -267.736804 
L 112.19645 -267.7458 
L 108.559773 -267.753481 
L 104.923095 -267.761232 
L 101.286417 -267.771396 
L 97.649739 -267.786064 
L 94.013062 -267.806001 
L 90.376384 -267.830261 
L 86.739706 -267.856551 
L 83.103029 -267.882059 
L 79.466351 -267.904339 
L 75.829673 -267.921918 
L 72.192996 -267.934463 
L 68.556318 -267.942564 
z
" style="stroke: #262626; stroke-width: 1.25"/>
    </defs>
    <g clip-path="url(#pdf880115c8)">
     <use xlink:href="#m0f03b41a5b" x="0" y="345.6" style="fill: #701070; stroke: #262626; stroke-width: 1.25"/>
    </g>
   </g>
   <g id="PolyCollection_3">
    <defs>
     <path id="m4c385e0272" d="M 93.500711 -233.178111 
L 93.500711 -233.189545 
L 97.115179 -233.194253 
L 100.729646 -233.20116 
L 104.344114 -233.210277 
L 107.958582 -233.221278 
L 111.57305 -233.233841 
L 115.187518 -233.24818 
L 118.801986 -233.265403 
L 122.416454 -233.287227 
L 126.030922 -233.31502 
L 129.645389 -233.348639 
L 133.259857 -233.385966 
L 136.874325 -233.423742 
L 140.488793 -233.45961 
L 144.103261 -233.494439 
L 147.717729 -233.533607 
L 151.332197 -233.586226 
L 154.946664 -233.662207 
L 158.561132 -233.768232 
L 162.1756 -233.904541 
L 165.790068 -234.064381 
L 169.404536 -234.236906 
L 173.019004 -234.412567 
L 176.633472 -234.588481 
L 180.24794 -234.770876 
L 183.862407 -234.97293 
L 187.476875 -235.20881 
L 191.091343 -235.486962 
L 194.705811 -235.806283 
L 198.320279 -236.157259 
L 201.934747 -236.527416 
L 205.549215 -236.90826 
L 209.163682 -237.300263 
L 212.77815 -237.713566 
L 216.392618 -238.164006 
L 220.007086 -238.666145 
L 223.621554 -239.226001 
L 227.236022 -239.835981 
L 230.85049 -240.473581 
L 234.464958 -241.104614 
L 238.079425 -241.691007 
L 241.693893 -242.20159 
L 245.308361 -242.621767 
L 248.922829 -242.957036 
L 252.537297 -243.227931 
L 256.151765 -243.459084 
L 259.766233 -243.668582 
L 263.3807 -243.863035 
L 266.995168 -244.040043 
L 270.609636 -244.195608 
L 274.224104 -244.331391 
L 277.838572 -244.456138 
L 281.45304 -244.578439 
L 285.067508 -244.694053 
L 288.681976 -244.776743 
L 292.296443 -244.781416 
L 295.910911 -244.660746 
L 299.525379 -244.386514 
L 303.139847 -243.962988 
L 306.754315 -243.42491 
L 310.368783 -242.822674 
L 313.983251 -242.204062 
L 317.597718 -241.601528 
L 321.212186 -241.028814 
L 324.826654 -240.485434 
L 328.441122 -239.96504 
L 332.05559 -239.463618 
L 335.670058 -238.984264 
L 339.284526 -238.536482 
L 342.898994 -238.129919 
L 346.513461 -237.765453 
L 350.127929 -237.429118 
L 353.742397 -237.094101 
L 357.356865 -236.731701 
L 360.971333 -236.325866 
L 364.585801 -235.882577 
L 368.200269 -235.428041 
L 371.814736 -234.996943 
L 375.429204 -234.618099 
L 379.043672 -234.305495 
L 382.65814 -234.057975 
L 386.272608 -233.865165 
L 389.887076 -233.714572 
L 393.501544 -233.596043 
L 397.116012 -233.50277 
L 400.730479 -233.430231 
L 404.344947 -233.374871 
L 407.959415 -233.33347 
L 411.573883 -233.303129 
L 415.188351 -233.281373 
L 418.802819 -233.266032 
L 422.417287 -233.255003 
L 426.031754 -233.246181 
L 429.646222 -233.237763 
L 433.26069 -233.228706 
L 436.875158 -233.218976 
L 440.489626 -233.209337 
L 444.104094 -233.200812 
L 447.718562 -233.194135 
L 451.33303 -233.189509 
L 451.33303 -233.178147 
L 451.33303 -233.178147 
L 447.718562 -233.173521 
L 444.104094 -233.166845 
L 440.489626 -233.158319 
L 436.875158 -233.148681 
L 433.26069 -233.13895 
L 429.646222 -233.129894 
L 426.031754 -233.121475 
L 422.417287 -233.112653 
L 418.802819 -233.101624 
L 415.188351 -233.086284 
L 411.573883 -233.064527 
L 407.959415 -233.034186 
L 404.344947 -232.992785 
L 400.730479 -232.937426 
L 397.116012 -232.864886 
L 393.501544 -232.771613 
L 389.887076 -232.653084 
L 386.272608 -232.502491 
L 382.65814 -232.309681 
L 379.043672 -232.062161 
L 375.429204 -231.749557 
L 371.814736 -231.370713 
L 368.200269 -230.939615 
L 364.585801 -230.48508 
L 360.971333 -230.04179 
L 357.356865 -229.635956 
L 353.742397 -229.273555 
L 350.127929 -228.938538 
L 346.513461 -228.602203 
L 342.898994 -228.237737 
L 339.284526 -227.831174 
L 335.670058 -227.383392 
L 332.05559 -226.904038 
L 328.441122 -226.402616 
L 324.826654 -225.882222 
L 321.212186 -225.338842 
L 317.597718 -224.766128 
L 313.983251 -224.163594 
L 310.368783 -223.544983 
L 306.754315 -222.942747 
L 303.139847 -222.404668 
L 299.525379 -221.981142 
L 295.910911 -221.706911 
L 292.296443 -221.58624 
L 288.681976 -221.590914 
L 285.067508 -221.673603 
L 281.45304 -221.789218 
L 277.838572 -221.911518 
L 274.224104 -222.036265 
L 270.609636 -222.172049 
L 266.995168 -222.327614 
L 263.3807 -222.504621 
L 259.766233 -222.699074 
L 256.151765 -222.908572 
L 252.537297 -223.139725 
L 248.922829 -223.41062 
L 245.308361 -223.745889 
L 241.693893 -224.166067 
L 238.079425 -224.676649 
L 234.464958 -225.263042 
L 230.85049 -225.894075 
L 227.236022 -226.531676 
L 223.621554 -227.141656 
L 220.007086 -227.701511 
L 216.392618 -228.20365 
L 212.77815 -228.65409 
L 209.163682 -229.067393 
L 205.549215 -229.459397 
L 201.934747 -229.84024 
L 198.320279 -230.210398 
L 194.705811 -230.561374 
L 191.091343 -230.880695 
L 187.476875 -231.158846 
L 183.862407 -231.394726 
L 180.24794 -231.59678 
L 176.633472 -231.779175 
L 173.019004 -231.95509 
L 169.404536 -232.130751 
L 165.790068 -232.303276 
L 162.1756 -232.463115 
L 158.561132 -232.599424 
L 154.946664 -232.705449 
L 151.332197 -232.78143 
L 147.717729 -232.834049 
L 144.103261 -232.873217 
L 140.488793 -232.908046 
L 136.874325 -232.943915 
L 133.259857 -232.98169 
L 129.645389 -233.019017 
L 126.030922 -233.052636 
L 122.416454 -233.080429 
L 118.801986 -233.102254 
L 115.187518 -233.119476 
L 111.57305 -233.133815 
L 107.958582 -233.146378 
L 104.344114 -233.157379 
L 100.729646 -233.166496 
L 97.115179 -233.173403 
L 93.500711 -233.178111 
z
" style="stroke: #262626; stroke-width: 1.25"/>
    </defs>
    <g clip-path="url(#pdf880115c8)">
     <use xlink:href="#m4c385e0272" x="0" y="345.6" style="fill: #701070; stroke: #262626; stroke-width: 1.25"/>
    </g>
   </g>
   <g id="PolyCollection_4">
    <defs>
     <path id="ma25825204b" d="M 72.26852 -198.412769 
L 72.26852 -198.41895 
L 76.05842 -198.422776 
L 79.848319 -198.428457 
L 83.638219 -198.43456 
L 87.428119 -198.438606 
L 91.218019 -198.439029 
L 95.007918 -198.437204 
L 98.797818 -198.437426 
L 102.587718 -198.444359 
L 106.377618 -198.459617 
L 110.167517 -198.479927 
L 113.957417 -198.498734 
L 117.747317 -198.510685 
L 121.537217 -198.515457 
L 125.327116 -198.517752 
L 129.117016 -198.523722 
L 132.906916 -198.53634 
L 136.696816 -198.552708 
L 140.486715 -198.56619 
L 144.276615 -198.572981 
L 148.066515 -198.577064 
L 151.856415 -198.588029 
L 155.646314 -198.614074 
L 159.436214 -198.657335 
L 163.226114 -198.714472 
L 167.016014 -198.779907 
L 170.805913 -198.849149 
L 174.595813 -198.921856 
L 178.385713 -199.003745 
L 182.175613 -199.104195 
L 185.965512 -199.22832 
L 189.755412 -199.371116 
L 193.545312 -199.524655 
L 197.335212 -199.693581 
L 201.125111 -199.898861 
L 204.915011 -200.164864 
L 208.704911 -200.509552 
L 212.494811 -200.947378 
L 216.28471 -201.485807 
L 220.07461 -202.105435 
L 223.86451 -202.751535 
L 227.65441 -203.363162 
L 231.444309 -203.916158 
L 235.234209 -204.43323 
L 239.024109 -204.95607 
L 242.814009 -205.519129 
L 246.603908 -206.146887 
L 250.393808 -206.853162 
L 254.183708 -207.627226 
L 257.973608 -208.430147 
L 261.763507 -209.218564 
L 265.553407 -209.967498 
L 269.343307 -210.660396 
L 273.133207 -211.264889 
L 276.923106 -211.736857 
L 280.713006 -212.054265 
L 284.502906 -212.23665 
L 288.292806 -212.321566 
L 292.082705 -212.323047 
L 295.872605 -212.216156 
L 299.662505 -211.959451 
L 303.452405 -211.533344 
L 307.242304 -210.966455 
L 311.032204 -210.33077 
L 314.822104 -209.702835 
L 318.612004 -209.114126 
L 322.401903 -208.528457 
L 326.191803 -207.865931 
L 329.981703 -207.058122 
L 333.771603 -206.101494 
L 337.561502 -205.077867 
L 341.351402 -204.12122 
L 345.141302 -203.34003 
L 348.931202 -202.748873 
L 352.721101 -202.268727 
L 356.511001 -201.79525 
L 360.300901 -201.272203 
L 364.090801 -200.714915 
L 367.8807 -200.183675 
L 371.6706 -199.740504 
L 375.4605 -199.416922 
L 379.2504 -199.20382 
L 383.040299 -199.064083 
L 386.830199 -198.958598 
L 390.620099 -198.866773 
L 394.409999 -198.786782 
L 398.199898 -198.720629 
L 401.989798 -198.663451 
L 405.779698 -198.607446 
L 409.569598 -198.551279 
L 413.359497 -198.501621 
L 417.149397 -198.466248 
L 420.939297 -198.447477 
L 424.729197 -198.44125 
L 428.519096 -198.440441 
L 432.308996 -198.439027 
L 436.098896 -198.434665 
L 439.888796 -198.428479 
L 443.678695 -198.422779 
L 447.468595 -198.41895 
L 447.468595 -198.412769 
L 447.468595 -198.412769 
L 443.678695 -198.408939 
L 439.888796 -198.40324 
L 436.098896 -198.397053 
L 432.308996 -198.392691 
L 428.519096 -198.391278 
L 424.729197 -198.390469 
L 420.939297 -198.384241 
L 417.149397 -198.365471 
L 413.359497 -198.330098 
L 409.569598 -198.28044 
L 405.779698 -198.224273 
L 401.989798 -198.168268 
L 398.199898 -198.111089 
L 394.409999 -198.044936 
L 390.620099 -197.964946 
L 386.830199 -197.87312 
L 383.040299 -197.767636 
L 379.2504 -197.627899 
L 375.4605 -197.414797 
L 371.6706 -197.091215 
L 367.8807 -196.648044 
L 364.090801 -196.116804 
L 360.300901 -195.559516 
L 356.511001 -195.036469 
L 352.721101 -194.562991 
L 348.931202 -194.082846 
L 345.141302 -193.491689 
L 341.351402 -192.710499 
L 337.561502 -191.753852 
L 333.771603 -190.730224 
L 329.981703 -189.773597 
L 326.191803 -188.965788 
L 322.401903 -188.303262 
L 318.612004 -187.717593 
L 314.822104 -187.128883 
L 311.032204 -186.500949 
L 307.242304 -185.865264 
L 303.452405 -185.298375 
L 299.662505 -184.872267 
L 295.872605 -184.615563 
L 292.082705 -184.508672 
L 288.292806 -184.510152 
L 284.502906 -184.595069 
L 280.713006 -184.777454 
L 276.923106 -185.094862 
L 273.133207 -185.56683 
L 269.343307 -186.171323 
L 265.553407 -186.864221 
L 261.763507 -187.613155 
L 257.973608 -188.401572 
L 254.183708 -189.204493 
L 250.393808 -189.978557 
L 246.603908 -190.684832 
L 242.814009 -191.31259 
L 239.024109 -191.875649 
L 235.234209 -192.398489 
L 231.444309 -192.91556 
L 227.65441 -193.468557 
L 223.86451 -194.080183 
L 220.07461 -194.726284 
L 216.28471 -195.345912 
L 212.494811 -195.884341 
L 208.704911 -196.322167 
L 204.915011 -196.666855 
L 201.125111 -196.932857 
L 197.335212 -197.138137 
L 193.545312 -197.307064 
L 189.755412 -197.460603 
L 185.965512 -197.603399 
L 182.175613 -197.727524 
L 178.385713 -197.827974 
L 174.595813 -197.909863 
L 170.805913 -197.98257 
L 167.016014 -198.051811 
L 163.226114 -198.117247 
L 159.436214 -198.174384 
L 155.646314 -198.217644 
L 151.856415 -198.243689 
L 148.066515 -198.254655 
L 144.276615 -198.258738 
L 140.486715 -198.265528 
L 136.696816 -198.279011 
L 132.906916 -198.295378 
L 129.117016 -198.307997 
L 125.327116 -198.313967 
L 121.537217 -198.316262 
L 117.747317 -198.321033 
L 113.957417 -198.332984 
L 110.167517 -198.351792 
L 106.377618 -198.372102 
L 102.587718 -198.38736 
L 98.797818 -198.394293 
L 95.007918 -198.394515 
L 91.218019 -198.39269 
L 87.428119 -198.393112 
L 83.638219 -198.397159 
L 79.848319 -198.403262 
L 76.05842 -198.408943 
L 72.26852 -198.412769 
z
" style="stroke: #262626; stroke-width: 1.25"/>
    </defs>
    <g clip-path="url(#pdf880115c8)">
     <use xlink:href="#ma25825204b" x="0" y="345.6" style="fill: #701070; stroke: #262626; stroke-width: 1.25"/>
    </g>
   </g>
   <g id="PolyCollection_5">
    <path d="M -24.034964 181.963929 
L -24.034964 181.94029 
L -18.738428 181.932345 
L -13.441892 181.921486 
L -8.145355 181.908143 
L -2.848819 181.893622 
L 2.447718 181.880016 
L 7.744254 181.869769 
L 13.040791 181.86497 
L 18.337327 181.866658 
L 23.633864 181.874457 
L 28.9304 181.886698 
L 34.226937 181.900972 
L 39.523473 181.914837 
L 44.82001 181.926338 
L 50.116546 181.934158 
L 55.413082 181.937384 
L 60.709619 181.935066 
L 66.006155 181.92584 
L 71.302692 181.907847 
L 76.599228 181.879112 
L 81.895765 181.838324 
L 87.192301 181.78577 
L 92.488838 181.723938 
L 97.785374 181.657343 
L 103.081911 181.591423 
L 108.378447 181.530846 
L 113.674984 181.477951 
L 118.97152 181.432069 
L 124.268056 181.389992 
L 129.564593 181.347228 
L 134.861129 181.299306 
L 140.157666 181.242514 
L 145.454202 181.173985 
L 150.750739 181.091478 
L 156.047275 180.993296 
L 161.343812 180.878478 
L 166.640348 180.746988 
L 171.936885 180.599483 
L 177.233421 180.436455 
L 182.529958 180.257007 
L 187.826494 180.057921 
L 193.12303 179.833718 
L 198.419567 179.577937 
L 203.716103 179.285211 
L 209.01264 178.953076 
L 214.309176 178.58244 
L 219.605713 178.176278 
L 224.902249 177.737167 
L 230.198786 177.265157 
L 235.495322 176.757648 
L 240.791859 176.212101 
L 246.088395 175.630907 
L 251.384932 175.026244 
L 256.681468 174.422136 
L 261.978004 173.851834 
L 267.274541 173.350803 
L 272.571077 172.948002 
L 277.867614 172.659191 
L 283.16415 172.484933 
L 288.460687 172.413401 
L 293.757223 172.425773 
L 299.05376 172.501501 
L 304.350296 172.622021 
L 309.646833 172.773304 
L 314.943369 172.948201 
L 320.239906 173.148648 
L 325.536442 173.386414 
L 330.832978 173.680765 
L 336.129515 174.052602 
L 341.426051 174.516494 
L 346.722588 175.073383 
L 352.019124 175.706807 
L 357.315661 176.384464 
L 362.612197 177.065157 
L 367.908734 177.709125 
L 373.20527 178.288144 
L 378.501807 178.791431 
L 383.798343 179.224983 
L 389.094879 179.604945 
L 394.391416 179.948448 
L 399.687952 180.266269 
L 404.984489 180.560177 
L 410.281025 180.825022 
L 415.577562 181.053343 
L 420.874098 181.239695 
L 426.170635 181.382976 
L 431.467171 181.486576 
L 436.763708 181.557235 
L 442.060244 181.603548 
L 447.356781 181.634638 
L 452.653317 181.658994 
L 457.949853 181.68341 
L 463.24639 181.712101 
L 468.542926 181.746269 
L 473.839463 181.784403 
L 479.135999 181.823266 
L 484.432536 181.859247 
L 489.729072 181.88954 
L 495.025609 181.912794 
L 500.322145 181.929112 
L 500.322145 181.975107 
L 500.322145 181.975107 
L 495.025609 181.991424 
L 489.729072 182.014679 
L 484.432536 182.044972 
L 479.135999 182.080952 
L 473.839463 182.119816 
L 468.542926 182.15795 
L 463.24639 182.192118 
L 457.949853 182.220808 
L 452.653317 182.245225 
L 447.356781 182.269581 
L 442.060244 182.30067 
L 436.763708 182.346984 
L 431.467171 182.417643 
L 426.170635 182.521243 
L 420.874098 182.664524 
L 415.577562 182.850876 
L 410.281025 183.079197 
L 404.984489 183.344042 
L 399.687952 183.63795 
L 394.391416 183.955771 
L 389.094879 184.299274 
L 383.798343 184.679236 
L 378.501807 185.112788 
L 373.20527 185.616075 
L 367.908734 186.195094 
L 362.612197 186.839062 
L 357.315661 187.519754 
L 352.019124 188.197411 
L 346.722588 188.830835 
L 341.426051 189.387724 
L 336.129515 189.851617 
L 330.832978 190.223453 
L 325.536442 190.517805 
L 320.239906 190.75557 
L 314.943369 190.956017 
L 309.646833 191.130915 
L 304.350296 191.282198 
L 299.05376 191.402718 
L 293.757223 191.478445 
L 288.460687 191.490818 
L 283.16415 191.419285 
L 277.867614 191.245028 
L 272.571077 190.956217 
L 267.274541 190.553416 
L 261.978004 190.052384 
L 256.681468 189.482083 
L 251.384932 188.877975 
L 246.088395 188.273311 
L 240.791859 187.692117 
L 235.495322 187.14657 
L 230.198786 186.639062 
L 224.902249 186.167052 
L 219.605713 185.727941 
L 214.309176 185.321779 
L 209.01264 184.951143 
L 203.716103 184.619008 
L 198.419567 184.326282 
L 193.12303 184.070501 
L 187.826494 183.846297 
L 182.529958 183.647212 
L 177.233421 183.467763 
L 171.936885 183.304735 
L 166.640348 183.157231 
L 161.343812 183.025741 
L 156.047275 182.910923 
L 150.750739 182.812741 
L 145.454202 182.730234 
L 140.157666 182.661705 
L 134.861129 182.604913 
L 129.564593 182.55699 
L 124.268056 182.514227 
L 118.97152 182.47215 
L 113.674984 182.426268 
L 108.378447 182.373373 
L 103.081911 182.312796 
L 97.785374 182.246876 
L 92.488838 182.18028 
L 87.192301 182.118448 
L 81.895765 182.065895 
L 76.599228 182.025107 
L 71.302692 181.996371 
L 66.006155 181.978379 
L 60.709619 181.969153 
L 55.413082 181.966835 
L 50.116546 181.970061 
L 44.82001 181.977881 
L 39.523473 181.989382 
L 34.226937 182.003247 
L 28.9304 182.017521 
L 23.633864 182.029762 
L 18.337327 182.037561 
L 13.040791 182.039249 
L 7.744254 182.034449 
L 2.447718 182.024202 
L -2.848819 182.010597 
L -8.145355 181.996075 
L -13.441892 181.982733 
L -18.738428 181.971874 
L -24.034964 181.963929 
z
" clip-path="url(#pdf880115c8)" style="fill: #701070; stroke: #262626; stroke-width: 1.25"/>
   </g>
   <g id="PolyCollection_6">
    <defs>
     <path id="mb951f98c8f" d="M 64.788787 -128.875808 
L 64.788787 -128.884035 
L 69.013592 -128.88771 
L 73.238396 -128.89297 
L 77.463201 -128.899274 
L 81.688005 -128.905343 
L 85.91281 -128.909562 
L 90.137614 -128.910801 
L 94.362419 -128.909257 
L 98.587223 -128.906824 
L 102.812028 -128.906753 
L 107.036832 -128.912736 
L 111.261637 -128.927643 
L 115.486441 -128.952136 
L 119.711246 -128.983637 
L 123.93605 -129.016443 
L 128.160855 -129.043579 
L 132.385659 -129.059907 
L 136.610464 -129.064753 
L 140.835268 -129.062232 
L 145.060072 -129.058925 
L 149.284877 -129.060436 
L 153.509681 -129.069038 
L 157.734486 -129.083612 
L 161.95929 -129.101444 
L 166.184095 -129.120516 
L 170.408899 -129.141159 
L 174.633704 -129.166715 
L 178.858508 -129.203398 
L 183.083313 -129.259646 
L 187.308117 -129.344922 
L 191.532922 -129.467865 
L 195.757726 -129.634129 
L 199.982531 -129.845119 
L 204.207335 -130.098782 
L 208.43214 -130.391874 
L 212.656944 -130.721335 
L 216.881749 -131.083031 
L 221.106553 -131.469133 
L 225.331358 -131.86744 
L 229.556162 -132.26427 
L 233.780967 -132.649185 
L 238.005771 -133.018474 
L 242.230576 -133.375977 
L 246.45538 -133.7316 
L 250.680185 -134.098168 
L 254.904989 -134.487466 
L 259.129794 -134.907259 
L 263.354598 -135.361067 
L 267.579403 -135.849747 
L 271.804207 -136.371062 
L 276.029012 -136.91464 
L 280.253816 -137.455382 
L 284.478621 -137.952796 
L 288.703425 -138.361516 
L 292.92823 -138.650027 
L 297.153034 -138.817188 
L 301.377839 -138.895381 
L 305.602643 -138.935916 
L 309.827448 -138.982945 
L 314.052252 -139.050515 
L 318.277057 -139.11702 
L 322.501861 -139.14042 
L 326.726666 -139.083231 
L 330.95147 -138.930682 
L 335.176275 -138.692929 
L 339.401079 -138.394772 
L 343.625884 -138.062255 
L 347.850688 -137.712779 
L 352.075493 -137.350529 
L 356.300297 -136.96729 
L 360.525102 -136.548608 
L 364.749906 -136.083302 
L 368.974711 -135.571429 
L 373.199515 -135.025752 
L 377.42432 -134.466161 
L 381.649124 -133.91168 
L 385.873929 -133.375716 
L 390.098733 -132.86627 
L 394.323538 -132.38841 
L 398.548342 -131.945765 
L 402.773147 -131.540474 
L 406.997951 -131.172974 
L 411.222756 -130.842381 
L 415.44756 -130.54688 
L 419.672365 -130.283654 
L 423.897169 -130.049012 
L 428.121974 -129.839488 
L 432.346778 -129.653516 
L 436.571583 -129.492077 
L 440.796387 -129.357259 
L 445.021191 -129.249537 
L 449.245996 -129.165933 
L 453.4708 -129.10061 
L 457.695605 -129.04741 
L 461.920409 -129.00233 
L 466.145214 -128.964226 
L 470.370018 -128.933679 
L 474.594823 -128.91126 
L 478.819627 -128.896484 
L 483.044432 -128.887812 
L 483.044432 -128.872031 
L 483.044432 -128.872031 
L 478.819627 -128.86336 
L 474.594823 -128.848583 
L 470.370018 -128.826165 
L 466.145214 -128.795618 
L 461.920409 -128.757514 
L 457.695605 -128.712434 
L 453.4708 -128.659234 
L 449.245996 -128.59391 
L 445.021191 -128.510307 
L 440.796387 -128.402585 
L 436.571583 -128.267767 
L 432.346778 -128.106328 
L 428.121974 -127.920356 
L 423.897169 -127.710832 
L 419.672365 -127.476189 
L 415.44756 -127.212964 
L 411.222756 -126.917463 
L 406.997951 -126.58687 
L 402.773147 -126.21937 
L 398.548342 -125.814078 
L 394.323538 -125.371434 
L 390.098733 -124.893574 
L 385.873929 -124.384127 
L 381.649124 -123.848164 
L 377.42432 -123.293683 
L 373.199515 -122.734092 
L 368.974711 -122.188415 
L 364.749906 -121.676542 
L 360.525102 -121.211236 
L 356.300297 -120.792553 
L 352.075493 -120.409315 
L 347.850688 -120.047065 
L 343.625884 -119.697589 
L 339.401079 -119.365072 
L 335.176275 -119.066915 
L 330.95147 -118.829162 
L 326.726666 -118.676612 
L 322.501861 -118.619424 
L 318.277057 -118.642823 
L 314.052252 -118.709329 
L 309.827448 -118.776898 
L 305.602643 -118.823928 
L 301.377839 -118.864463 
L 297.153034 -118.942656 
L 292.92823 -119.109817 
L 288.703425 -119.398328 
L 284.478621 -119.807048 
L 280.253816 -120.304462 
L 276.029012 -120.845203 
L 271.804207 -121.388782 
L 267.579403 -121.910097 
L 263.354598 -122.398777 
L 259.129794 -122.852585 
L 254.904989 -123.272378 
L 250.680185 -123.661676 
L 246.45538 -124.028244 
L 242.230576 -124.383867 
L 238.005771 -124.74137 
L 233.780967 -125.110659 
L 229.556162 -125.495573 
L 225.331358 -125.892404 
L 221.106553 -126.29071 
L 216.881749 -126.676813 
L 212.656944 -127.038509 
L 208.43214 -127.36797 
L 204.207335 -127.661062 
L 199.982531 -127.914725 
L 195.757726 -128.125715 
L 191.532922 -128.291978 
L 187.308117 -128.414922 
L 183.083313 -128.500198 
L 178.858508 -128.556445 
L 174.633704 -128.593129 
L 170.408899 -128.618685 
L 166.184095 -128.639328 
L 161.95929 -128.658399 
L 157.734486 -128.676231 
L 153.509681 -128.690806 
L 149.284877 -128.699407 
L 145.060072 -128.700918 
L 140.835268 -128.697612 
L 136.610464 -128.695091 
L 132.385659 -128.699936 
L 128.160855 -128.716264 
L 123.93605 -128.7434 
L 119.711246 -128.776206 
L 115.486441 -128.807708 
L 111.261637 -128.832201 
L 107.036832 -128.847108 
L 102.812028 -128.853091 
L 98.587223 -128.853019 
L 94.362419 -128.850586 
L 90.137614 -128.849043 
L 85.91281 -128.850282 
L 81.688005 -128.854501 
L 77.463201 -128.86057 
L 73.238396 -128.866873 
L 69.013592 -128.872134 
L 64.788787 -128.875808 
z
" style="stroke: #262626; stroke-width: 1.25"/>
    </defs>
    <g clip-path="url(#pdf880115c8)">
     <use xlink:href="#mb951f98c8f" x="0" y="345.6" style="fill: #701070; stroke: #262626; stroke-width: 1.25"/>
    </g>
   </g>
   <g id="PolyCollection_7">
    <path d="M 36.48117 251.490349 
L 36.48117 251.485745 
L 41.136763 251.483085 
L 45.792357 251.479157 
L 50.44795 251.474804 
L 55.103544 251.471613 
L 59.759137 251.470925 
L 64.41473 251.472609 
L 69.070324 251.474688 
L 73.725917 251.474241 
L 78.381511 251.46902 
L 83.037104 251.458992 
L 87.692698 251.446962 
L 92.348291 251.437394 
L 97.003884 251.433481 
L 101.659478 251.434582 
L 106.315071 251.436532 
L 110.970665 251.43467 
L 115.626258 251.426757 
L 120.281852 251.413857 
L 124.937445 251.399851 
L 129.593038 251.390355 
L 134.248632 251.390092 
L 138.904225 251.398766 
L 143.559819 251.408669 
L 148.215412 251.407329 
L 152.871006 251.384191 
L 157.526599 251.336732 
L 162.182192 251.271762 
L 166.837786 251.200984 
L 171.493379 251.133646 
L 176.148973 251.071189 
L 180.804566 251.007156 
L 185.46016 250.93154 
L 190.115753 250.835967 
L 194.771346 250.716131 
L 199.42694 250.569953 
L 204.082533 250.393675 
L 208.738127 250.18142 
L 213.39372 249.930498 
L 218.049314 249.64523 
L 222.704907 249.330962 
L 227.3605 248.984093 
L 232.016094 248.593145 
L 236.671687 248.152112 
L 241.327281 247.669953 
L 245.982874 247.166054 
L 250.638468 246.658511 
L 255.294061 246.153709 
L 259.949654 245.640167 
L 264.605248 245.093821 
L 269.260841 244.500847 
L 273.916435 243.884043 
L 278.572028 243.305413 
L 283.227622 242.835841 
L 287.883215 242.513791 
L 292.538808 242.325335 
L 297.194402 242.219598 
L 301.849995 242.144476 
L 306.505589 242.073534 
L 311.161182 242.008299 
L 315.816776 241.962939 
L 320.472369 241.946216 
L 325.127963 241.951326 
L 329.783556 241.961302 
L 334.439149 241.969941 
L 339.094743 242.000264 
L 343.750336 242.096934 
L 348.40593 242.294258 
L 353.061523 242.590808 
L 357.717117 242.955896 
L 362.37271 243.358488 
L 367.028303 243.788445 
L 371.683897 244.253759 
L 376.33949 244.763313 
L 380.995084 245.314484 
L 385.650677 245.895019 
L 390.306271 246.493066 
L 394.961864 247.10216 
L 399.617457 247.714477 
L 404.273051 248.309685 
L 408.928644 248.854297 
L 413.584238 249.317365 
L 418.239831 249.68982 
L 422.895425 249.988478 
L 427.551018 250.241131 
L 432.206611 250.46791 
L 436.862205 250.67444 
L 441.517798 250.857175 
L 446.173392 251.011273 
L 450.828985 251.13473 
L 455.484579 251.229304 
L 460.140172 251.299937 
L 464.795765 251.352856 
L 469.451359 251.39322 
L 474.106952 251.424125 
L 478.762546 251.447242 
L 483.418139 251.46378 
L 488.073733 251.474871 
L 492.729326 251.481663 
L 497.384919 251.485344 
L 497.384919 251.490749 
L 497.384919 251.490749 
L 492.729326 251.494431 
L 488.073733 251.501222 
L 483.418139 251.512314 
L 478.762546 251.528851 
L 474.106952 251.551969 
L 469.451359 251.582873 
L 464.795765 251.623238 
L 460.140172 251.676156 
L 455.484579 251.74679 
L 450.828985 251.841364 
L 446.173392 251.96482 
L 441.517798 252.118919 
L 436.862205 252.301654 
L 432.206611 252.508183 
L 427.551018 252.734962 
L 422.895425 252.987615 
L 418.239831 253.286274 
L 413.584238 253.658729 
L 408.928644 254.121797 
L 404.273051 254.666409 
L 399.617457 255.261617 
L 394.961864 255.873934 
L 390.306271 256.483027 
L 385.650677 257.081075 
L 380.995084 257.661609 
L 376.33949 258.21278 
L 371.683897 258.722335 
L 367.028303 259.187648 
L 362.37271 259.617606 
L 357.717117 260.020198 
L 353.061523 260.385286 
L 348.40593 260.681835 
L 343.750336 260.87916 
L 339.094743 260.975829 
L 334.439149 261.006153 
L 329.783556 261.014792 
L 325.127963 261.024767 
L 320.472369 261.029878 
L 315.816776 261.013155 
L 311.161182 260.967795 
L 306.505589 260.90256 
L 301.849995 260.831617 
L 297.194402 260.756496 
L 292.538808 260.650758 
L 287.883215 260.462302 
L 283.227622 260.140253 
L 278.572028 259.670681 
L 273.916435 259.092051 
L 269.260841 258.475247 
L 264.605248 257.882273 
L 259.949654 257.335926 
L 255.294061 256.822385 
L 250.638468 256.317583 
L 245.982874 255.810039 
L 241.327281 255.306141 
L 236.671687 254.823981 
L 232.016094 254.382949 
L 227.3605 253.992 
L 222.704907 253.645132 
L 218.049314 253.330864 
L 213.39372 253.045595 
L 208.738127 252.794674 
L 204.082533 252.582418 
L 199.42694 252.40614 
L 194.771346 252.259963 
L 190.115753 252.140127 
L 185.46016 252.044554 
L 180.804566 251.968938 
L 176.148973 251.904905 
L 171.493379 251.842448 
L 166.837786 251.775109 
L 162.182192 251.704331 
L 157.526599 251.639362 
L 152.871006 251.591902 
L 148.215412 251.568765 
L 143.559819 251.567424 
L 138.904225 251.577327 
L 134.248632 251.586001 
L 129.593038 251.585739 
L 124.937445 251.576243 
L 120.281852 251.562237 
L 115.626258 251.549336 
L 110.970665 251.541424 
L 106.315071 251.539561 
L 101.659478 251.541512 
L 97.003884 251.542613 
L 92.348291 251.5387 
L 87.692698 251.529132 
L 83.037104 251.517102 
L 78.381511 251.507074 
L 73.725917 251.501853 
L 69.070324 251.501406 
L 64.41473 251.503485 
L 59.759137 251.505168 
L 55.103544 251.504481 
L 50.44795 251.50129 
L 45.792357 251.496937 
L 41.136763 251.493009 
L 36.48117 251.490349 
z
" clip-path="url(#pdf880115c8)" style="fill: #701070; stroke: #262626; stroke-width: 1.25"/>
   </g>
   <g id="PolyCollection_8">
    <defs>
     <path id="m148549a162" d="M 86.774722 -59.340718 
L 86.774722 -59.347251 
L 90.61032 -59.351216 
L 94.445917 -59.35709 
L 98.281515 -59.363427 
L 102.117112 -59.367597 
L 105.952709 -59.36748 
L 109.788307 -59.363222 
L 113.623904 -59.357259 
L 117.459502 -59.352678 
L 121.295099 -59.351663 
L 125.130697 -59.355086 
L 128.966294 -59.362726 
L 132.801892 -59.373598 
L 136.637489 -59.386541 
L 140.473086 -59.400919 
L 144.308684 -59.416596 
L 148.144281 -59.433084 
L 151.979879 -59.4488 
L 155.815476 -59.461218 
L 159.651074 -59.468242 
L 163.486671 -59.470459 
L 167.322269 -59.471911 
L 171.157866 -59.477061 
L 174.993464 -59.486417 
L 178.829061 -59.496534 
L 182.664658 -59.504487 
L 186.500256 -59.510271 
L 190.335853 -59.51455 
L 194.171451 -59.517396 
L 198.007048 -59.522063 
L 201.842646 -59.539312 
L 205.678243 -59.586844 
L 209.513841 -59.684581 
L 213.349438 -59.84795 
L 217.185036 -60.078237 
L 221.020633 -60.353056 
L 224.85623 -60.629393 
L 228.691828 -60.867846 
L 232.527425 -61.064315 
L 236.363023 -61.258805 
L 240.19862 -61.507789 
L 244.034218 -61.845075 
L 247.869815 -62.269995 
L 251.705413 -62.769879 
L 255.54101 -63.343982 
L 259.376608 -63.997354 
L 263.212205 -64.713832 
L 267.047802 -65.447943 
L 270.8834 -66.154438 
L 274.718997 -66.822674 
L 278.554595 -67.472884 
L 282.390192 -68.123345 
L 286.22579 -68.774942 
L 290.061387 -69.425765 
L 293.896985 -70.081355 
L 297.732582 -70.738601 
L 301.568179 -71.366397 
L 305.403777 -71.914052 
L 309.239374 -72.342522 
L 313.074972 -72.646776 
L 316.910569 -72.849694 
L 320.746167 -72.974124 
L 324.581764 -73.013389 
L 328.417362 -72.924513 
L 332.252959 -72.659237 
L 336.088557 -72.213678 
L 339.924154 -71.646448 
L 343.759751 -71.037813 
L 347.595349 -70.426415 
L 351.430946 -69.788378 
L 355.266544 -69.078623 
L 359.102141 -68.28821 
L 362.937739 -67.458783 
L 366.773336 -66.645715 
L 370.608934 -65.874967 
L 374.444531 -65.136767 
L 378.280129 -64.413845 
L 382.115726 -63.71106 
L 385.951323 -63.060474 
L 389.786921 -62.499599 
L 393.622518 -62.041737 
L 397.458116 -61.665927 
L 401.293713 -61.336283 
L 405.129311 -61.029284 
L 408.964908 -60.741963 
L 412.800506 -60.480411 
L 416.636103 -60.247897 
L 420.471701 -60.043686 
L 424.307298 -59.867431 
L 428.142895 -59.720959 
L 431.978493 -59.606003 
L 435.81409 -59.521436 
L 439.649688 -59.462897 
L 443.485285 -59.42428 
L 447.320883 -59.399181 
L 451.15648 -59.381989 
L 454.992078 -59.369018 
L 458.827675 -59.35892 
L 462.663273 -59.351716 
L 466.49887 -59.347364 
L 466.49887 -59.340605 
L 466.49887 -59.340605 
L 462.663273 -59.336253 
L 458.827675 -59.329048 
L 454.992078 -59.318951 
L 451.15648 -59.30598 
L 447.320883 -59.288788 
L 443.485285 -59.263688 
L 439.649688 -59.225072 
L 435.81409 -59.166533 
L 431.978493 -59.081965 
L 428.142895 -58.96701 
L 424.307298 -58.820538 
L 420.471701 -58.644282 
L 416.636103 -58.440072 
L 412.800506 -58.207558 
L 408.964908 -57.946006 
L 405.129311 -57.658685 
L 401.293713 -57.351686 
L 397.458116 -57.022042 
L 393.622518 -56.646232 
L 389.786921 -56.18837 
L 385.951323 -55.627495 
L 382.115726 -54.976909 
L 378.280129 -54.274124 
L 374.444531 -53.551202 
L 370.608934 -52.813001 
L 366.773336 -52.042253 
L 362.937739 -51.229185 
L 359.102141 -50.399759 
L 355.266544 -49.609346 
L 351.430946 -48.899591 
L 347.595349 -48.261553 
L 343.759751 -47.650155 
L 339.924154 -47.041521 
L 336.088557 -46.474291 
L 332.252959 -46.028732 
L 328.417362 -45.763455 
L 324.581764 -45.67458 
L 320.746167 -45.713845 
L 316.910569 -45.838274 
L 313.074972 -46.041193 
L 309.239374 -46.345447 
L 305.403777 -46.773916 
L 301.568179 -47.321572 
L 297.732582 -47.949368 
L 293.896985 -48.606613 
L 290.061387 -49.262204 
L 286.22579 -49.913027 
L 282.390192 -50.564624 
L 278.554595 -51.215085 
L 274.718997 -51.865294 
L 270.8834 -52.533531 
L 267.047802 -53.240026 
L 263.212205 -53.974137 
L 259.376608 -54.690615 
L 255.54101 -55.343987 
L 251.705413 -55.91809 
L 247.869815 -56.417974 
L 244.034218 -56.842894 
L 240.19862 -57.18018 
L 236.363023 -57.429164 
L 232.527425 -57.623654 
L 228.691828 -57.820123 
L 224.85623 -58.058576 
L 221.020633 -58.334913 
L 217.185036 -58.609732 
L 213.349438 -58.840018 
L 209.513841 -59.003388 
L 205.678243 -59.101124 
L 201.842646 -59.148657 
L 198.007048 -59.165906 
L 194.171451 -59.170572 
L 190.335853 -59.173419 
L 186.500256 -59.177698 
L 182.664658 -59.183482 
L 178.829061 -59.191434 
L 174.993464 -59.201551 
L 171.157866 -59.210907 
L 167.322269 -59.216058 
L 163.486671 -59.21751 
L 159.651074 -59.219726 
L 155.815476 -59.226751 
L 151.979879 -59.239168 
L 148.144281 -59.254885 
L 144.308684 -59.271373 
L 140.473086 -59.28705 
L 136.637489 -59.301428 
L 132.801892 -59.314371 
L 128.966294 -59.325242 
L 125.130697 -59.332883 
L 121.295099 -59.336305 
L 117.459502 -59.335291 
L 113.623904 -59.33071 
L 109.788307 -59.324747 
L 105.952709 -59.320489 
L 102.117112 -59.320371 
L 98.281515 -59.324542 
L 94.445917 -59.330879 
L 90.61032 -59.336753 
L 86.774722 -59.340718 
z
" style="stroke: #262626; stroke-width: 1.25"/>
    </defs>
    <g clip-path="url(#pdf880115c8)">
     <use xlink:href="#m148549a162" x="0" y="345.6" style="fill: #701070; stroke: #262626; stroke-width: 1.25"/>
    </g>
   </g>
   <g id="line2d_1">
    <path d="M 108.391417 42.880234 
L 370.689946 42.880234 
" clip-path="url(#pdf880115c8)" style="fill: none; stroke: #262626; stroke-width: 1.875; stroke-linecap: round"/>
   </g>
   <g id="line2d_2">
    <path d="M 206.825707 42.880234 
L 273.298829 42.880234 
" clip-path="url(#pdf880115c8)" style="fill: none; stroke: #262626; stroke-width: 5.625; stroke-linecap: round"/>
   </g>
   <g id="line2d_3">
    <path d="M 241.16637 42.880234 
" clip-path="url(#pdf880115c8)" style="fill: none; stroke: #262626; stroke-width: 1.5; stroke-linecap: round"/>
    <defs>
     <path id="mf0b1a4f831" d="M 0 2.34375 
L 0 -2.34375 
" style="stroke: #ffffff; stroke-width: 1.125"/>
    </defs>
    <g clip-path="url(#pdf880115c8)">
     <use xlink:href="#mf0b1a4f831" x="241.16637" y="42.880234" style="fill: #ffffff; stroke: #ffffff; stroke-width: 1.125"/>
    </g>
   </g>
   <g id="line2d_4">
    <path d="M 169.833815 77.648203 
L 388.535049 77.648203 
" clip-path="url(#pdf880115c8)" style="fill: none; stroke: #262626; stroke-width: 1.875; stroke-linecap: round"/>
   </g>
   <g id="line2d_5">
    <path d="M 250.417177 77.648203 
L 306.760367 77.648203 
" clip-path="url(#pdf880115c8)" style="fill: none; stroke: #262626; stroke-width: 5.625; stroke-linecap: round"/>
   </g>
   <g id="line2d_6">
    <path d="M 278.885618 77.648203 
" clip-path="url(#pdf880115c8)" style="fill: none; stroke: #262626; stroke-width: 1.5; stroke-linecap: round"/>
    <g clip-path="url(#pdf880115c8)">
     <use xlink:href="#mf0b1a4f831" x="278.885618" y="77.648203" style="fill: #ffffff; stroke: #ffffff; stroke-width: 1.125"/>
    </g>
   </g>
   <g id="line2d_7">
    <path d="M 154.738811 112.416172 
L 401.377453 112.416172 
" clip-path="url(#pdf880115c8)" style="fill: none; stroke: #262626; stroke-width: 1.875; stroke-linecap: round"/>
   </g>
   <g id="line2d_8">
    <path d="M 245.003883 112.416172 
L 309.23999 112.416172 
" clip-path="url(#pdf880115c8)" style="fill: none; stroke: #262626; stroke-width: 5.625; stroke-linecap: round"/>
   </g>
   <g id="line2d_9">
    <path d="M 278.699528 112.416172 
" clip-path="url(#pdf880115c8)" style="fill: none; stroke: #262626; stroke-width: 1.5; stroke-linecap: round"/>
    <g clip-path="url(#pdf880115c8)">
     <use xlink:href="#mf0b1a4f831" x="278.699528" y="112.416172" style="fill: #ffffff; stroke: #ffffff; stroke-width: 1.125"/>
    </g>
   </g>
   <g id="line2d_10">
    <path d="M 179.189317 147.184141 
L 393.260661 147.184141 
" clip-path="url(#pdf880115c8)" style="fill: none; stroke: #262626; stroke-width: 1.875; stroke-linecap: round"/>
   </g>
   <g id="line2d_11">
    <path d="M 260.395655 147.184141 
L 314.586531 147.184141 
" clip-path="url(#pdf880115c8)" style="fill: none; stroke: #262626; stroke-width: 5.625; stroke-linecap: round"/>
   </g>
   <g id="line2d_12">
    <path d="M 288.112022 147.184141 
" clip-path="url(#pdf880115c8)" style="fill: none; stroke: #262626; stroke-width: 1.5; stroke-linecap: round"/>
    <g clip-path="url(#pdf880115c8)">
     <use xlink:href="#mf0b1a4f831" x="288.112022" y="147.184141" style="fill: #ffffff; stroke: #ffffff; stroke-width: 1.125"/>
    </g>
   </g>
   <g id="line2d_13">
    <path d="M 156.759665 181.952109 
L 425.024404 181.952109 
" clip-path="url(#pdf880115c8)" style="fill: none; stroke: #262626; stroke-width: 1.875; stroke-linecap: round"/>
   </g>
   <g id="line2d_14">
    <path d="M 257.673894 181.952109 
L 331.098621 181.952109 
" clip-path="url(#pdf880115c8)" style="fill: none; stroke: #262626; stroke-width: 5.625; stroke-linecap: round"/>
   </g>
   <g id="line2d_15">
    <path d="M 294.042967 181.952109 
" clip-path="url(#pdf880115c8)" style="fill: none; stroke: #262626; stroke-width: 1.5; stroke-linecap: round"/>
    <g clip-path="url(#pdf880115c8)">
     <use xlink:href="#mf0b1a4f831" x="294.042967" y="181.952109" style="fill: #ffffff; stroke: #ffffff; stroke-width: 1.125"/>
    </g>
   </g>
   <g id="line2d_16">
    <path d="M 173.401325 216.720078 
L 454.153921 216.720078 
" clip-path="url(#pdf880115c8)" style="fill: none; stroke: #262626; stroke-width: 1.875; stroke-linecap: round"/>
   </g>
   <g id="line2d_17">
    <path d="M 278.881525 216.720078 
L 349.794039 216.720078 
" clip-path="url(#pdf880115c8)" style="fill: none; stroke: #262626; stroke-width: 5.625; stroke-linecap: round"/>
   </g>
   <g id="line2d_18">
    <path d="M 314.761915 216.720078 
" clip-path="url(#pdf880115c8)" style="fill: none; stroke: #262626; stroke-width: 1.5; stroke-linecap: round"/>
    <g clip-path="url(#pdf880115c8)">
     <use xlink:href="#mf0b1a4f831" x="314.761915" y="216.720078" style="fill: #ffffff; stroke: #ffffff; stroke-width: 1.125"/>
    </g>
   </g>
   <g id="line2d_19">
    <path d="M 170.733092 251.488047 
L 461.8 251.488047 
" clip-path="url(#pdf880115c8)" style="fill: none; stroke: #262626; stroke-width: 1.875; stroke-linecap: round"/>
   </g>
   <g id="line2d_20">
    <path d="M 281.957517 251.488047 
L 356.928113 251.488047 
" clip-path="url(#pdf880115c8)" style="fill: none; stroke: #262626; stroke-width: 5.625; stroke-linecap: round"/>
   </g>
   <g id="line2d_21">
    <path d="M 319.618199 251.488047 
" clip-path="url(#pdf880115c8)" style="fill: none; stroke: #262626; stroke-width: 1.5; stroke-linecap: round"/>
    <g clip-path="url(#pdf880115c8)">
     <use xlink:href="#mf0b1a4f831" x="319.618199" y="251.488047" style="fill: #ffffff; stroke: #ffffff; stroke-width: 1.125"/>
    </g>
   </g>
   <g id="line2d_22">
    <path d="M 210.031113 286.256016 
L 430.281521 286.256016 
" clip-path="url(#pdf880115c8)" style="fill: none; stroke: #262626; stroke-width: 1.875; stroke-linecap: round"/>
   </g>
   <g id="line2d_23">
    <path d="M 292.189626 286.256016 
L 347.643142 286.256016 
" clip-path="url(#pdf880115c8)" style="fill: none; stroke: #262626; stroke-width: 5.625; stroke-linecap: round"/>
   </g>
   <g id="line2d_24">
    <path d="M 320.345556 286.256016 
" clip-path="url(#pdf880115c8)" style="fill: none; stroke: #262626; stroke-width: 1.5; stroke-linecap: round"/>
    <g clip-path="url(#pdf880115c8)">
     <use xlink:href="#mf0b1a4f831" x="320.345556" y="286.256016" style="fill: #ffffff; stroke: #ffffff; stroke-width: 1.125"/>
    </g>
   </g>
   <g id="patch_3">
    <path d="M 106.13 303.64 
L 106.13 25.49625 
" style="fill: none; stroke: #ffffff; stroke-width: 0.8; stroke-linejoin: miter; stroke-linecap: square"/>
   </g>
   <g id="patch_4">
    <path d="M 448.566188 303.64 
L 448.566188 25.49625 
" style="fill: none; stroke: #ffffff; stroke-width: 0.8; stroke-linejoin: miter; stroke-linecap: square"/>
   </g>
   <g id="patch_5">
    <path d="M 106.13 303.64 
L 448.566188 303.64 
" style="fill: none; stroke: #ffffff; stroke-width: 0.8; stroke-linejoin: miter; stroke-linecap: square"/>
   </g>
   <g id="patch_6">
    <path d="M 106.13 25.49625 
L 448.566188 25.49625 
" style="fill: none; stroke: #ffffff; stroke-width: 0.8; stroke-linejoin: miter; stroke-linecap: square"/>
   </g>
   <g id="text_17">
    <!-- Game type vs Rating -->
    <g style="fill: #262626" transform="translate(221.326844 19.49625) scale(0.12 -0.12)">
     <defs>
      <path id="ArialMT-76" d="M 1344 0 
L 81 3319 
L 675 3319 
L 1388 1331 
Q 1503 1009 1600 663 
Q 1675 925 1809 1294 
L 2547 3319 
L 3125 3319 
L 1869 0 
L 1344 0 
z
" transform="scale(0.015625)"/>
     </defs>
     <use xlink:href="#ArialMT-47"/>
     <use xlink:href="#ArialMT-61" x="77.783203"/>
     <use xlink:href="#ArialMT-6d" x="133.398438"/>
     <use xlink:href="#ArialMT-65" x="216.699219"/>
     <use xlink:href="#ArialMT-20" x="272.314453"/>
     <use xlink:href="#ArialMT-74" x="300.097656"/>
     <use xlink:href="#ArialMT-79" x="327.880859"/>
     <use xlink:href="#ArialMT-70" x="377.880859"/>
     <use xlink:href="#ArialMT-65" x="433.496094"/>
     <use xlink:href="#ArialMT-20" x="489.111328"/>
     <use xlink:href="#ArialMT-76" x="516.894531"/>
     <use xlink:href="#ArialMT-73" x="566.894531"/>
     <use xlink:href="#ArialMT-20" x="616.894531"/>
     <use xlink:href="#ArialMT-52" x="644.677734"/>
     <use xlink:href="#ArialMT-61" x="716.894531"/>
     <use xlink:href="#ArialMT-74" x="772.509766"/>
     <use xlink:href="#ArialMT-69" x="800.292969"/>
     <use xlink:href="#ArialMT-6e" x="822.509766"/>
     <use xlink:href="#ArialMT-67" x="878.125"/>
    </g>
   </g>
  </g>
 </g>
 <defs>
  <clipPath id="pdf880115c8">
   <rect x="106.13" y="25.49625" width="342.436188" height="278.14375"/>
  </clipPath>
 </defs>
</svg>
