<?xml version="1.0" encoding="utf-8" standalone="no"?>
<!DOCTYPE svg PUBLIC "-//W3C//DTD SVG 1.1//EN"
  "http://www.w3.org/Graphics/SVG/1.1/DTD/svg11.dtd">
<svg xmlns:xlink="http://www.w3.org/1999/xlink" width="460.8pt" height="345.6pt" viewBox="0 0 460.8 345.6" xmlns="http://www.w3.org/2000/svg" version="1.1">
 <metadata>
  <rdf:RDF xmlns:dc="http://purl.org/dc/elements/1.1/" xmlns:cc="http://creativecommons.org/ns#" xmlns:rdf="http://www.w3.org/1999/02/22-rdf-syntax-ns#">
   <cc:Work>
    <dc:type rdf:resource="http://purl.org/dc/dcmitype/StillImage"/>
    <dc:date>2024-09-01T23:13:42.490729</dc:date>
    <dc:format>image/svg+xml</dc:format>
    <dc:creator>
     <cc:Agent>
      <dc:title>Matplotlib v3.9.2, https://matplotlib.org/</dc:title>
     </cc:Agent>
    </dc:creator>
   </cc:Work>
  </rdf:RDF>
 </metadata>
 <defs>
  <style type="text/css">*{stroke-linejoin: round; stroke-linecap: butt}</style>
 </defs>
 <g id="figure_1">
  <g id="patch_1">
   <path d="M 0 345.6 
L 460.8 345.6 
L 460.8 0 
L 0 0 
z
" style="fill: #ffffff"/>
  </g>
  <g id="axes_1">
   <g id="patch_2">
    <path d="M 92.05 317.72 
L 450 317.72 
L 450 25.49625 
L 92.05 25.49625 
z
" style="fill: #eaeaf2"/>
   </g>
   <g id="matplotlib.axis_1">
    <g id="xtick_1">
     <g id="text_1">
      <!-- 4 -->
      <g style="fill: #262626" transform="translate(131.296152 331.877812) scale(0.1 -0.1)">
       <defs>
        <path id="ArialMT-34" d="M 2069 0 
L 2069 1097 
L 81 1097 
L 81 1613 
L 2172 4581 
L 2631 4581 
L 2631 1613 
L 3250 1613 
L 3250 1097 
L 2631 1097 
L 2631 0 
L 2069 0 
z
M 2069 1613 
L 2069 3678 
L 634 1613 
L 2069 1613 
z
" transform="scale(0.015625)"/>
       </defs>
       <use xlink:href="#ArialMT-34"/>
      </g>
     </g>
    </g>
    <g id="xtick_2">
     <g id="text_2">
      <!-- 5 -->
      <g style="fill: #262626" transform="translate(188.383636 331.877812) scale(0.1 -0.1)">
       <defs>
        <path id="ArialMT-35" d="M 266 1200 
L 856 1250 
Q 922 819 1161 601 
Q 1400 384 1738 384 
Q 2144 384 2425 690 
Q 2706 997 2706 1503 
Q 2706 1984 2436 2262 
Q 2166 2541 1728 2541 
Q 1456 2541 1237 2417 
Q 1019 2294 894 2097 
L 366 2166 
L 809 4519 
L 3088 4519 
L 3088 3981 
L 1259 3981 
L 1013 2750 
Q 1425 3038 1878 3038 
Q 2478 3038 2890 2622 
Q 3303 2206 3303 1553 
Q 3303 931 2941 478 
Q 2500 -78 1738 -78 
Q 1113 -78 717 272 
Q 322 622 266 1200 
z
" transform="scale(0.015625)"/>
       </defs>
       <use xlink:href="#ArialMT-35"/>
      </g>
     </g>
    </g>
    <g id="xtick_3">
     <g id="text_3">
      <!-- 6 -->
      <g style="fill: #262626" transform="translate(245.471119 331.877812) scale(0.1 -0.1)">
       <defs>
        <path id="ArialMT-36" d="M 3184 3459 
L 2625 3416 
Q 2550 3747 2413 3897 
Q 2184 4138 1850 4138 
Q 1581 4138 1378 3988 
Q 1113 3794 959 3422 
Q 806 3050 800 2363 
Q 1003 2672 1297 2822 
Q 1591 2972 1913 2972 
Q 2475 2972 2870 2558 
Q 3266 2144 3266 1488 
Q 3266 1056 3080 686 
Q 2894 316 2569 119 
Q 2244 -78 1831 -78 
Q 1128 -78 684 439 
Q 241 956 241 2144 
Q 241 3472 731 4075 
Q 1159 4600 1884 4600 
Q 2425 4600 2770 4297 
Q 3116 3994 3184 3459 
z
M 888 1484 
Q 888 1194 1011 928 
Q 1134 663 1356 523 
Q 1578 384 1822 384 
Q 2178 384 2434 671 
Q 2691 959 2691 1453 
Q 2691 1928 2437 2201 
Q 2184 2475 1800 2475 
Q 1419 2475 1153 2201 
Q 888 1928 888 1484 
z
" transform="scale(0.015625)"/>
       </defs>
       <use xlink:href="#ArialMT-36"/>
      </g>
     </g>
    </g>
    <g id="xtick_4">
     <g id="text_4">
      <!-- 7 -->
      <g style="fill: #262626" transform="translate(302.558603 331.877812) scale(0.1 -0.1)">
       <defs>
        <path id="ArialMT-37" d="M 303 3981 
L 303 4522 
L 3269 4522 
L 3269 4084 
Q 2831 3619 2401 2847 
Q 1972 2075 1738 1259 
Q 1569 684 1522 0 
L 944 0 
Q 953 541 1156 1306 
Q 1359 2072 1739 2783 
Q 2119 3494 2547 3981 
L 303 3981 
z
" transform="scale(0.015625)"/>
       </defs>
       <use xlink:href="#ArialMT-37"/>
      </g>
     </g>
    </g>
    <g id="xtick_5">
     <g id="text_5">
      <!-- 8 -->
      <g style="fill: #262626" transform="translate(359.646087 331.877812) scale(0.1 -0.1)">
       <defs>
        <path id="ArialMT-38" d="M 1131 2484 
Q 781 2613 612 2850 
Q 444 3088 444 3419 
Q 444 3919 803 4259 
Q 1163 4600 1759 4600 
Q 2359 4600 2725 4251 
Q 3091 3903 3091 3403 
Q 3091 3084 2923 2848 
Q 2756 2613 2416 2484 
Q 2838 2347 3058 2040 
Q 3278 1734 3278 1309 
Q 3278 722 2862 322 
Q 2447 -78 1769 -78 
Q 1091 -78 675 323 
Q 259 725 259 1325 
Q 259 1772 486 2073 
Q 713 2375 1131 2484 
z
M 1019 3438 
Q 1019 3113 1228 2906 
Q 1438 2700 1772 2700 
Q 2097 2700 2305 2904 
Q 2513 3109 2513 3406 
Q 2513 3716 2298 3927 
Q 2084 4138 1766 4138 
Q 1444 4138 1231 3931 
Q 1019 3725 1019 3438 
z
M 838 1322 
Q 838 1081 952 856 
Q 1066 631 1291 507 
Q 1516 384 1775 384 
Q 2178 384 2440 643 
Q 2703 903 2703 1303 
Q 2703 1709 2433 1975 
Q 2163 2241 1756 2241 
Q 1359 2241 1098 1978 
Q 838 1716 838 1322 
z
" transform="scale(0.015625)"/>
       </defs>
       <use xlink:href="#ArialMT-38"/>
      </g>
     </g>
    </g>
    <g id="xtick_6">
     <g id="text_6">
      <!-- 9 -->
      <g style="fill: #262626" transform="translate(416.733571 331.877812) scale(0.1 -0.1)">
       <defs>
        <path id="ArialMT-39" d="M 350 1059 
L 891 1109 
Q 959 728 1153 556 
Q 1347 384 1650 384 
Q 1909 384 2104 503 
Q 2300 622 2425 820 
Q 2550 1019 2634 1356 
Q 2719 1694 2719 2044 
Q 2719 2081 2716 2156 
Q 2547 1888 2255 1720 
Q 1963 1553 1622 1553 
Q 1053 1553 659 1965 
Q 266 2378 266 3053 
Q 266 3750 677 4175 
Q 1088 4600 1706 4600 
Q 2153 4600 2523 4359 
Q 2894 4119 3086 3673 
Q 3278 3228 3278 2384 
Q 3278 1506 3087 986 
Q 2897 466 2520 194 
Q 2144 -78 1638 -78 
Q 1100 -78 759 220 
Q 419 519 350 1059 
z
M 2653 3081 
Q 2653 3566 2395 3850 
Q 2138 4134 1775 4134 
Q 1400 4134 1122 3828 
Q 844 3522 844 3034 
Q 844 2597 1108 2323 
Q 1372 2050 1759 2050 
Q 2150 2050 2401 2323 
Q 2653 2597 2653 3081 
z
" transform="scale(0.015625)"/>
       </defs>
       <use xlink:href="#ArialMT-39"/>
      </g>
     </g>
    </g>
   </g>
   <g id="matplotlib.axis_2">
    <g id="ytick_1">
     <g id="text_7">
      <!-- Strategy Game -->
      <g style="fill: #262626" transform="translate(17.803125 47.400078) scale(0.1 -0.1)">
       <defs>
        <path id="ArialMT-53" d="M 288 1472 
L 859 1522 
Q 900 1178 1048 958 
Q 1197 738 1509 602 
Q 1822 466 2213 466 
Q 2559 466 2825 569 
Q 3091 672 3220 851 
Q 3350 1031 3350 1244 
Q 3350 1459 3225 1620 
Q 3100 1781 2813 1891 
Q 2628 1963 1997 2114 
Q 1366 2266 1113 2400 
Q 784 2572 623 2826 
Q 463 3081 463 3397 
Q 463 3744 659 4045 
Q 856 4347 1234 4503 
Q 1613 4659 2075 4659 
Q 2584 4659 2973 4495 
Q 3363 4331 3572 4012 
Q 3781 3694 3797 3291 
L 3216 3247 
Q 3169 3681 2898 3903 
Q 2628 4125 2100 4125 
Q 1550 4125 1298 3923 
Q 1047 3722 1047 3438 
Q 1047 3191 1225 3031 
Q 1400 2872 2139 2705 
Q 2878 2538 3153 2413 
Q 3553 2228 3743 1945 
Q 3934 1663 3934 1294 
Q 3934 928 3725 604 
Q 3516 281 3123 101 
Q 2731 -78 2241 -78 
Q 1619 -78 1198 103 
Q 778 284 539 648 
Q 300 1013 288 1472 
z
" transform="scale(0.015625)"/>
        <path id="ArialMT-74" d="M 1650 503 
L 1731 6 
Q 1494 -44 1306 -44 
Q 1000 -44 831 53 
Q 663 150 594 308 
Q 525 466 525 972 
L 525 2881 
L 113 2881 
L 113 3319 
L 525 3319 
L 525 4141 
L 1084 4478 
L 1084 3319 
L 1650 3319 
L 1650 2881 
L 1084 2881 
L 1084 941 
Q 1084 700 1114 631 
Q 1144 563 1211 522 
Q 1278 481 1403 481 
Q 1497 481 1650 503 
z
" transform="scale(0.015625)"/>
        <path id="ArialMT-72" d="M 416 0 
L 416 3319 
L 922 3319 
L 922 2816 
Q 1116 3169 1280 3281 
Q 1444 3394 1641 3394 
Q 1925 3394 2219 3213 
L 2025 2691 
Q 1819 2813 1613 2813 
Q 1428 2813 1281 2702 
Q 1134 2591 1072 2394 
Q 978 2094 978 1738 
L 978 0 
L 416 0 
z
" transform="scale(0.015625)"/>
        <path id="ArialMT-61" d="M 2588 409 
Q 2275 144 1986 34 
Q 1697 -75 1366 -75 
Q 819 -75 525 192 
Q 231 459 231 875 
Q 231 1119 342 1320 
Q 453 1522 633 1644 
Q 813 1766 1038 1828 
Q 1203 1872 1538 1913 
Q 2219 1994 2541 2106 
Q 2544 2222 2544 2253 
Q 2544 2597 2384 2738 
Q 2169 2928 1744 2928 
Q 1347 2928 1158 2789 
Q 969 2650 878 2297 
L 328 2372 
Q 403 2725 575 2942 
Q 747 3159 1072 3276 
Q 1397 3394 1825 3394 
Q 2250 3394 2515 3294 
Q 2781 3194 2906 3042 
Q 3031 2891 3081 2659 
Q 3109 2516 3109 2141 
L 3109 1391 
Q 3109 606 3145 398 
Q 3181 191 3288 0 
L 2700 0 
Q 2613 175 2588 409 
z
M 2541 1666 
Q 2234 1541 1622 1453 
Q 1275 1403 1131 1340 
Q 988 1278 909 1158 
Q 831 1038 831 891 
Q 831 666 1001 516 
Q 1172 366 1500 366 
Q 1825 366 2078 508 
Q 2331 650 2450 897 
Q 2541 1088 2541 1459 
L 2541 1666 
z
" transform="scale(0.015625)"/>
        <path id="ArialMT-65" d="M 2694 1069 
L 3275 997 
Q 3138 488 2766 206 
Q 2394 -75 1816 -75 
Q 1088 -75 661 373 
Q 234 822 234 1631 
Q 234 2469 665 2931 
Q 1097 3394 1784 3394 
Q 2450 3394 2872 2941 
Q 3294 2488 3294 1666 
Q 3294 1616 3291 1516 
L 816 1516 
Q 847 969 1125 678 
Q 1403 388 1819 388 
Q 2128 388 2347 550 
Q 2566 713 2694 1069 
z
M 847 1978 
L 2700 1978 
Q 2663 2397 2488 2606 
Q 2219 2931 1791 2931 
Q 1403 2931 1139 2672 
Q 875 2413 847 1978 
z
" transform="scale(0.015625)"/>
        <path id="ArialMT-67" d="M 319 -275 
L 866 -356 
Q 900 -609 1056 -725 
Q 1266 -881 1628 -881 
Q 2019 -881 2231 -725 
Q 2444 -569 2519 -288 
Q 2563 -116 2559 434 
Q 2191 0 1641 0 
Q 956 0 581 494 
Q 206 988 206 1678 
Q 206 2153 378 2554 
Q 550 2956 876 3175 
Q 1203 3394 1644 3394 
Q 2231 3394 2613 2919 
L 2613 3319 
L 3131 3319 
L 3131 450 
Q 3131 -325 2973 -648 
Q 2816 -972 2473 -1159 
Q 2131 -1347 1631 -1347 
Q 1038 -1347 672 -1080 
Q 306 -813 319 -275 
z
M 784 1719 
Q 784 1066 1043 766 
Q 1303 466 1694 466 
Q 2081 466 2343 764 
Q 2606 1063 2606 1700 
Q 2606 2309 2336 2618 
Q 2066 2928 1684 2928 
Q 1309 2928 1046 2623 
Q 784 2319 784 1719 
z
" transform="scale(0.015625)"/>
        <path id="ArialMT-79" d="M 397 -1278 
L 334 -750 
Q 519 -800 656 -800 
Q 844 -800 956 -737 
Q 1069 -675 1141 -563 
Q 1194 -478 1313 -144 
Q 1328 -97 1363 -6 
L 103 3319 
L 709 3319 
L 1400 1397 
Q 1534 1031 1641 628 
Q 1738 1016 1872 1384 
L 2581 3319 
L 3144 3319 
L 1881 -56 
Q 1678 -603 1566 -809 
Q 1416 -1088 1222 -1217 
Q 1028 -1347 759 -1347 
Q 597 -1347 397 -1278 
z
" transform="scale(0.015625)"/>
        <path id="ArialMT-20" transform="scale(0.015625)"/>
        <path id="ArialMT-47" d="M 2638 1797 
L 2638 2334 
L 4578 2338 
L 4578 638 
Q 4131 281 3656 101 
Q 3181 -78 2681 -78 
Q 2006 -78 1454 211 
Q 903 500 622 1047 
Q 341 1594 341 2269 
Q 341 2938 620 3517 
Q 900 4097 1425 4378 
Q 1950 4659 2634 4659 
Q 3131 4659 3532 4498 
Q 3934 4338 4162 4050 
Q 4391 3763 4509 3300 
L 3963 3150 
Q 3859 3500 3706 3700 
Q 3553 3900 3268 4020 
Q 2984 4141 2638 4141 
Q 2222 4141 1919 4014 
Q 1616 3888 1430 3681 
Q 1244 3475 1141 3228 
Q 966 2803 966 2306 
Q 966 1694 1177 1281 
Q 1388 869 1791 669 
Q 2194 469 2647 469 
Q 3041 469 3416 620 
Q 3791 772 3984 944 
L 3984 1797 
L 2638 1797 
z
" transform="scale(0.015625)"/>
        <path id="ArialMT-6d" d="M 422 0 
L 422 3319 
L 925 3319 
L 925 2853 
Q 1081 3097 1340 3245 
Q 1600 3394 1931 3394 
Q 2300 3394 2536 3241 
Q 2772 3088 2869 2813 
Q 3263 3394 3894 3394 
Q 4388 3394 4653 3120 
Q 4919 2847 4919 2278 
L 4919 0 
L 4359 0 
L 4359 2091 
Q 4359 2428 4304 2576 
Q 4250 2725 4106 2815 
Q 3963 2906 3769 2906 
Q 3419 2906 3187 2673 
Q 2956 2441 2956 1928 
L 2956 0 
L 2394 0 
L 2394 2156 
Q 2394 2531 2256 2718 
Q 2119 2906 1806 2906 
Q 1569 2906 1367 2781 
Q 1166 2656 1075 2415 
Q 984 2175 984 1722 
L 984 0 
L 422 0 
z
" transform="scale(0.015625)"/>
       </defs>
       <use xlink:href="#ArialMT-53"/>
       <use xlink:href="#ArialMT-74" x="66.699219"/>
       <use xlink:href="#ArialMT-72" x="94.482422"/>
       <use xlink:href="#ArialMT-61" x="127.783203"/>
       <use xlink:href="#ArialMT-74" x="183.398438"/>
       <use xlink:href="#ArialMT-65" x="211.181641"/>
       <use xlink:href="#ArialMT-67" x="266.796875"/>
       <use xlink:href="#ArialMT-79" x="322.412109"/>
       <use xlink:href="#ArialMT-20" x="372.412109"/>
       <use xlink:href="#ArialMT-47" x="400.195312"/>
       <use xlink:href="#ArialMT-61" x="477.978516"/>
       <use xlink:href="#ArialMT-6d" x="533.59375"/>
       <use xlink:href="#ArialMT-65" x="616.894531"/>
      </g>
     </g>
    </g>
    <g id="ytick_2">
     <g id="text_8">
      <!-- Family Game -->
      <g style="fill: #262626" transform="translate(25.6 83.928047) scale(0.1 -0.1)">
       <defs>
        <path id="ArialMT-46" d="M 525 0 
L 525 4581 
L 3616 4581 
L 3616 4041 
L 1131 4041 
L 1131 2622 
L 3281 2622 
L 3281 2081 
L 1131 2081 
L 1131 0 
L 525 0 
z
" transform="scale(0.015625)"/>
        <path id="ArialMT-69" d="M 425 3934 
L 425 4581 
L 988 4581 
L 988 3934 
L 425 3934 
z
M 425 0 
L 425 3319 
L 988 3319 
L 988 0 
L 425 0 
z
" transform="scale(0.015625)"/>
        <path id="ArialMT-6c" d="M 409 0 
L 409 4581 
L 972 4581 
L 972 0 
L 409 0 
z
" transform="scale(0.015625)"/>
       </defs>
       <use xlink:href="#ArialMT-46"/>
       <use xlink:href="#ArialMT-61" x="61.083984"/>
       <use xlink:href="#ArialMT-6d" x="116.699219"/>
       <use xlink:href="#ArialMT-69" x="200"/>
       <use xlink:href="#ArialMT-6c" x="222.216797"/>
       <use xlink:href="#ArialMT-79" x="244.433594"/>
       <use xlink:href="#ArialMT-20" x="294.433594"/>
       <use xlink:href="#ArialMT-47" x="322.216797"/>
       <use xlink:href="#ArialMT-61" x="400"/>
       <use xlink:href="#ArialMT-6d" x="455.615234"/>
       <use xlink:href="#ArialMT-65" x="538.916016"/>
      </g>
     </g>
    </g>
    <g id="ytick_3">
     <g id="text_9">
      <!-- Abstract Game -->
      <g style="fill: #262626" transform="translate(18.364063 120.395078) scale(0.1 -0.1)">
       <defs>
        <path id="ArialMT-41" d="M -9 0 
L 1750 4581 
L 2403 4581 
L 4278 0 
L 3588 0 
L 3053 1388 
L 1138 1388 
L 634 0 
L -9 0 
z
M 1313 1881 
L 2866 1881 
L 2388 3150 
Q 2169 3728 2063 4100 
Q 1975 3659 1816 3225 
L 1313 1881 
z
" transform="scale(0.015625)"/>
        <path id="ArialMT-62" d="M 941 0 
L 419 0 
L 419 4581 
L 981 4581 
L 981 2947 
Q 1338 3394 1891 3394 
Q 2197 3394 2470 3270 
Q 2744 3147 2920 2923 
Q 3097 2700 3197 2384 
Q 3297 2069 3297 1709 
Q 3297 856 2875 390 
Q 2453 -75 1863 -75 
Q 1275 -75 941 416 
L 941 0 
z
M 934 1684 
Q 934 1088 1097 822 
Q 1363 388 1816 388 
Q 2184 388 2453 708 
Q 2722 1028 2722 1663 
Q 2722 2313 2464 2622 
Q 2206 2931 1841 2931 
Q 1472 2931 1203 2611 
Q 934 2291 934 1684 
z
" transform="scale(0.015625)"/>
        <path id="ArialMT-73" d="M 197 991 
L 753 1078 
Q 800 744 1014 566 
Q 1228 388 1613 388 
Q 2000 388 2187 545 
Q 2375 703 2375 916 
Q 2375 1106 2209 1216 
Q 2094 1291 1634 1406 
Q 1016 1563 777 1677 
Q 538 1791 414 1992 
Q 291 2194 291 2438 
Q 291 2659 392 2848 
Q 494 3038 669 3163 
Q 800 3259 1026 3326 
Q 1253 3394 1513 3394 
Q 1903 3394 2198 3281 
Q 2494 3169 2634 2976 
Q 2775 2784 2828 2463 
L 2278 2388 
Q 2241 2644 2061 2787 
Q 1881 2931 1553 2931 
Q 1166 2931 1000 2803 
Q 834 2675 834 2503 
Q 834 2394 903 2306 
Q 972 2216 1119 2156 
Q 1203 2125 1616 2013 
Q 2213 1853 2448 1751 
Q 2684 1650 2818 1456 
Q 2953 1263 2953 975 
Q 2953 694 2789 445 
Q 2625 197 2315 61 
Q 2006 -75 1616 -75 
Q 969 -75 630 194 
Q 291 463 197 991 
z
" transform="scale(0.015625)"/>
        <path id="ArialMT-63" d="M 2588 1216 
L 3141 1144 
Q 3050 572 2676 248 
Q 2303 -75 1759 -75 
Q 1078 -75 664 370 
Q 250 816 250 1647 
Q 250 2184 428 2587 
Q 606 2991 970 3192 
Q 1334 3394 1763 3394 
Q 2303 3394 2647 3120 
Q 2991 2847 3088 2344 
L 2541 2259 
Q 2463 2594 2264 2762 
Q 2066 2931 1784 2931 
Q 1359 2931 1093 2626 
Q 828 2322 828 1663 
Q 828 994 1084 691 
Q 1341 388 1753 388 
Q 2084 388 2306 591 
Q 2528 794 2588 1216 
z
" transform="scale(0.015625)"/>
       </defs>
       <use xlink:href="#ArialMT-41"/>
       <use xlink:href="#ArialMT-62" x="66.699219"/>
       <use xlink:href="#ArialMT-73" x="122.314453"/>
       <use xlink:href="#ArialMT-74" x="172.314453"/>
       <use xlink:href="#ArialMT-72" x="200.097656"/>
       <use xlink:href="#ArialMT-61" x="233.398438"/>
       <use xlink:href="#ArialMT-63" x="289.013672"/>
       <use xlink:href="#ArialMT-74" x="339.013672"/>
       <use xlink:href="#ArialMT-20" x="366.796875"/>
       <use xlink:href="#ArialMT-47" x="394.580078"/>
       <use xlink:href="#ArialMT-61" x="472.363281"/>
       <use xlink:href="#ArialMT-6d" x="527.978516"/>
       <use xlink:href="#ArialMT-65" x="611.279297"/>
      </g>
     </g>
    </g>
    <g id="ytick_4">
     <g id="text_10">
      <!-- Party Game -->
      <g style="fill: #262626" transform="translate(31.703125 156.983984) scale(0.1 -0.1)">
       <defs>
        <path id="ArialMT-50" d="M 494 0 
L 494 4581 
L 2222 4581 
Q 2678 4581 2919 4538 
Q 3256 4481 3484 4323 
Q 3713 4166 3852 3881 
Q 3991 3597 3991 3256 
Q 3991 2672 3619 2267 
Q 3247 1863 2275 1863 
L 1100 1863 
L 1100 0 
L 494 0 
z
M 1100 2403 
L 2284 2403 
Q 2872 2403 3119 2622 
Q 3366 2841 3366 3238 
Q 3366 3525 3220 3729 
Q 3075 3934 2838 4000 
Q 2684 4041 2272 4041 
L 1100 4041 
L 1100 2403 
z
" transform="scale(0.015625)"/>
       </defs>
       <use xlink:href="#ArialMT-50"/>
       <use xlink:href="#ArialMT-61" x="66.699219"/>
       <use xlink:href="#ArialMT-72" x="122.314453"/>
       <use xlink:href="#ArialMT-74" x="155.615234"/>
       <use xlink:href="#ArialMT-79" x="183.398438"/>
       <use xlink:href="#ArialMT-20" x="233.398438"/>
       <use xlink:href="#ArialMT-47" x="261.181641"/>
       <use xlink:href="#ArialMT-61" x="338.964844"/>
       <use xlink:href="#ArialMT-6d" x="394.580078"/>
       <use xlink:href="#ArialMT-65" x="477.880859"/>
      </g>
     </g>
    </g>
    <g id="ytick_5">
     <g id="text_11">
      <!-- Thematic -->
      <g style="fill: #262626" transform="translate(43.929688 193.451016) scale(0.1 -0.1)">
       <defs>
        <path id="ArialMT-54" d="M 1659 0 
L 1659 4041 
L 150 4041 
L 150 4581 
L 3781 4581 
L 3781 4041 
L 2266 4041 
L 2266 0 
L 1659 0 
z
" transform="scale(0.015625)"/>
        <path id="ArialMT-68" d="M 422 0 
L 422 4581 
L 984 4581 
L 984 2938 
Q 1378 3394 1978 3394 
Q 2347 3394 2619 3248 
Q 2891 3103 3008 2847 
Q 3125 2591 3125 2103 
L 3125 0 
L 2563 0 
L 2563 2103 
Q 2563 2525 2380 2717 
Q 2197 2909 1863 2909 
Q 1613 2909 1392 2779 
Q 1172 2650 1078 2428 
Q 984 2206 984 1816 
L 984 0 
L 422 0 
z
" transform="scale(0.015625)"/>
       </defs>
       <use xlink:href="#ArialMT-54"/>
       <use xlink:href="#ArialMT-68" x="61.083984"/>
       <use xlink:href="#ArialMT-65" x="116.699219"/>
       <use xlink:href="#ArialMT-6d" x="172.314453"/>
       <use xlink:href="#ArialMT-61" x="255.615234"/>
       <use xlink:href="#ArialMT-74" x="311.230469"/>
       <use xlink:href="#ArialMT-69" x="339.013672"/>
       <use xlink:href="#ArialMT-63" x="361.230469"/>
      </g>
     </g>
    </g>
    <g id="ytick_6">
     <g id="text_12">
      <!-- War Game -->
      <g style="fill: #262626" transform="translate(37.0875 229.978984) scale(0.1 -0.1)">
       <defs>
        <path id="ArialMT-57" d="M 1294 0 
L 78 4581 
L 700 4581 
L 1397 1578 
Q 1509 1106 1591 641 
Q 1766 1375 1797 1488 
L 2669 4581 
L 3400 4581 
L 4056 2263 
Q 4303 1400 4413 641 
Q 4500 1075 4641 1638 
L 5359 4581 
L 5969 4581 
L 4713 0 
L 4128 0 
L 3163 3491 
Q 3041 3928 3019 4028 
Q 2947 3713 2884 3491 
L 1913 0 
L 1294 0 
z
" transform="scale(0.015625)"/>
       </defs>
       <use xlink:href="#ArialMT-57"/>
       <use xlink:href="#ArialMT-61" x="90.634766"/>
       <use xlink:href="#ArialMT-72" x="146.25"/>
       <use xlink:href="#ArialMT-20" x="179.550781"/>
       <use xlink:href="#ArialMT-47" x="207.333984"/>
       <use xlink:href="#ArialMT-61" x="285.117188"/>
       <use xlink:href="#ArialMT-6d" x="340.732422"/>
       <use xlink:href="#ArialMT-65" x="424.033203"/>
      </g>
     </g>
    </g>
    <g id="ytick_7">
     <g id="text_13">
      <!-- Customizable -->
      <g style="fill: #262626" transform="translate(24.471875 266.506953) scale(0.1 -0.1)">
       <defs>
        <path id="ArialMT-43" d="M 3763 1606 
L 4369 1453 
Q 4178 706 3683 314 
Q 3188 -78 2472 -78 
Q 1731 -78 1267 223 
Q 803 525 561 1097 
Q 319 1669 319 2325 
Q 319 3041 592 3573 
Q 866 4106 1370 4382 
Q 1875 4659 2481 4659 
Q 3169 4659 3637 4309 
Q 4106 3959 4291 3325 
L 3694 3184 
Q 3534 3684 3231 3912 
Q 2928 4141 2469 4141 
Q 1941 4141 1586 3887 
Q 1231 3634 1087 3207 
Q 944 2781 944 2328 
Q 944 1744 1114 1308 
Q 1284 872 1643 656 
Q 2003 441 2422 441 
Q 2931 441 3284 734 
Q 3638 1028 3763 1606 
z
" transform="scale(0.015625)"/>
        <path id="ArialMT-75" d="M 2597 0 
L 2597 488 
Q 2209 -75 1544 -75 
Q 1250 -75 995 37 
Q 741 150 617 320 
Q 494 491 444 738 
Q 409 903 409 1263 
L 409 3319 
L 972 3319 
L 972 1478 
Q 972 1038 1006 884 
Q 1059 663 1231 536 
Q 1403 409 1656 409 
Q 1909 409 2131 539 
Q 2353 669 2445 892 
Q 2538 1116 2538 1541 
L 2538 3319 
L 3100 3319 
L 3100 0 
L 2597 0 
z
" transform="scale(0.015625)"/>
        <path id="ArialMT-6f" d="M 213 1659 
Q 213 2581 725 3025 
Q 1153 3394 1769 3394 
Q 2453 3394 2887 2945 
Q 3322 2497 3322 1706 
Q 3322 1066 3130 698 
Q 2938 331 2570 128 
Q 2203 -75 1769 -75 
Q 1072 -75 642 372 
Q 213 819 213 1659 
z
M 791 1659 
Q 791 1022 1069 705 
Q 1347 388 1769 388 
Q 2188 388 2466 706 
Q 2744 1025 2744 1678 
Q 2744 2294 2464 2611 
Q 2184 2928 1769 2928 
Q 1347 2928 1069 2612 
Q 791 2297 791 1659 
z
" transform="scale(0.015625)"/>
        <path id="ArialMT-7a" d="M 125 0 
L 125 456 
L 2238 2881 
Q 1878 2863 1603 2863 
L 250 2863 
L 250 3319 
L 2963 3319 
L 2963 2947 
L 1166 841 
L 819 456 
Q 1197 484 1528 484 
L 3063 484 
L 3063 0 
L 125 0 
z
" transform="scale(0.015625)"/>
       </defs>
       <use xlink:href="#ArialMT-43"/>
       <use xlink:href="#ArialMT-75" x="72.216797"/>
       <use xlink:href="#ArialMT-73" x="127.832031"/>
       <use xlink:href="#ArialMT-74" x="177.832031"/>
       <use xlink:href="#ArialMT-6f" x="205.615234"/>
       <use xlink:href="#ArialMT-6d" x="261.230469"/>
       <use xlink:href="#ArialMT-69" x="344.53125"/>
       <use xlink:href="#ArialMT-7a" x="366.748047"/>
       <use xlink:href="#ArialMT-61" x="416.748047"/>
       <use xlink:href="#ArialMT-62" x="472.363281"/>
       <use xlink:href="#ArialMT-6c" x="527.978516"/>
       <use xlink:href="#ArialMT-65" x="550.195312"/>
      </g>
     </g>
    </g>
    <g id="ytick_8">
     <g id="text_14">
      <!-- Children's Game -->
      <g style="fill: #262626" transform="translate(10.89375 303.034922) scale(0.1 -0.1)">
       <defs>
        <path id="ArialMT-64" d="M 2575 0 
L 2575 419 
Q 2259 -75 1647 -75 
Q 1250 -75 917 144 
Q 584 363 401 755 
Q 219 1147 219 1656 
Q 219 2153 384 2558 
Q 550 2963 881 3178 
Q 1213 3394 1622 3394 
Q 1922 3394 2156 3267 
Q 2391 3141 2538 2938 
L 2538 4581 
L 3097 4581 
L 3097 0 
L 2575 0 
z
M 797 1656 
Q 797 1019 1065 703 
Q 1334 388 1700 388 
Q 2069 388 2326 689 
Q 2584 991 2584 1609 
Q 2584 2291 2321 2609 
Q 2059 2928 1675 2928 
Q 1300 2928 1048 2622 
Q 797 2316 797 1656 
z
" transform="scale(0.015625)"/>
        <path id="ArialMT-6e" d="M 422 0 
L 422 3319 
L 928 3319 
L 928 2847 
Q 1294 3394 1984 3394 
Q 2284 3394 2536 3286 
Q 2788 3178 2913 3003 
Q 3038 2828 3088 2588 
Q 3119 2431 3119 2041 
L 3119 0 
L 2556 0 
L 2556 2019 
Q 2556 2363 2490 2533 
Q 2425 2703 2258 2804 
Q 2091 2906 1866 2906 
Q 1506 2906 1245 2678 
Q 984 2450 984 1813 
L 984 0 
L 422 0 
z
" transform="scale(0.015625)"/>
        <path id="ArialMT-27" d="M 425 2959 
L 281 3816 
L 281 4581 
L 922 4581 
L 922 3816 
L 772 2959 
L 425 2959 
z
" transform="scale(0.015625)"/>
       </defs>
       <use xlink:href="#ArialMT-43"/>
       <use xlink:href="#ArialMT-68" x="72.216797"/>
       <use xlink:href="#ArialMT-69" x="127.832031"/>
       <use xlink:href="#ArialMT-6c" x="150.048828"/>
       <use xlink:href="#ArialMT-64" x="172.265625"/>
       <use xlink:href="#ArialMT-72" x="227.880859"/>
       <use xlink:href="#ArialMT-65" x="261.181641"/>
       <use xlink:href="#ArialMT-6e" x="316.796875"/>
       <use xlink:href="#ArialMT-27" x="372.412109"/>
       <use xlink:href="#ArialMT-73" x="391.503906"/>
       <use xlink:href="#ArialMT-20" x="441.503906"/>
       <use xlink:href="#ArialMT-47" x="469.287109"/>
       <use xlink:href="#ArialMT-61" x="547.070312"/>
       <use xlink:href="#ArialMT-6d" x="602.685547"/>
       <use xlink:href="#ArialMT-65" x="685.986328"/>
      </g>
     </g>
    </g>
   </g>
   <g id="PolyCollection_1">
    <defs>
     <path id="mc05dbb9a03" d="M 250.138392 -301.819499 
L 250.138392 -301.860033 
L 251.905145 -301.8727 
L 253.671897 -301.890525 
L 255.43865 -301.914048 
L 257.205403 -301.943139 
L 258.972155 -301.97686 
L 260.738908 -302.013578 
L 262.50566 -302.051378 
L 264.272413 -302.088755 
L 266.039165 -302.125395 
L 267.805918 -302.162787 
L 269.57267 -302.204458 
L 271.339423 -302.255686 
L 273.106176 -302.322772 
L 274.872928 -302.412075 
L 276.639681 -302.529056 
L 278.406433 -302.677536 
L 280.173186 -302.859241 
L 281.939938 -303.073635 
L 283.706691 -303.31809 
L 285.473443 -303.588459 
L 287.240196 -303.880184 
L 289.006949 -304.189899 
L 290.773701 -304.517223 
L 292.540454 -304.866178 
L 294.307206 -305.245522 
L 296.073959 -305.667532 
L 297.840711 -306.145192 
L 299.607464 -306.688407 
L 301.374216 -307.300243 
L 303.140969 -307.97437 
L 304.907722 -308.694548 
L 306.674474 -309.436458 
L 308.441227 -310.171527 
L 310.207979 -310.87187 
L 311.974732 -311.515241 
L 313.741484 -312.088875 
L 315.508237 -312.591334 
L 317.274989 -313.03186 
L 319.041742 -313.427227 
L 320.808495 -313.796684 
L 322.575247 -314.156125 
L 324.342 -314.51303 
L 326.108752 -314.863647 
L 327.875505 -315.193408 
L 329.642257 -315.480558 
L 331.40901 -315.701933 
L 333.175762 -315.839031 
L 334.942515 -315.882443 
L 336.709268 -315.833307 
L 338.47602 -315.701568 
L 340.242773 -315.501934 
L 342.009525 -315.249132 
L 343.776278 -314.954125 
L 345.54303 -314.622352 
L 347.309783 -314.25423 
L 349.076536 -313.847293 
L 350.843288 -313.398898 
L 352.610041 -312.90846 
L 354.376793 -312.378569 
L 356.143546 -311.814887 
L 357.910298 -311.225212 
L 359.677051 -310.618266 
L 361.443803 -310.002727 
L 363.210556 -309.38679 
L 364.977309 -308.778246 
L 366.744061 -308.18488 
L 368.510814 -307.614837 
L 370.277566 -307.076638 
L 372.044319 -306.578613 
L 373.811071 -306.127758 
L 375.577824 -305.728282 
L 377.344576 -305.380355 
L 379.111329 -305.079604 
L 380.878082 -304.817681 
L 382.644834 -304.583847 
L 384.411587 -304.36708 
L 386.178339 -304.158026 
L 387.945092 -303.950252 
L 389.711844 -303.740605 
L 391.478597 -303.528866 
L 393.245349 -303.317086 
L 395.012102 -303.10895 
L 396.778855 -302.909233 
L 398.545607 -302.723251 
L 400.31236 -302.556148 
L 402.079112 -302.412 
L 403.845865 -302.292937 
L 405.612617 -302.198616 
L 407.37937 -302.126299 
L 409.146122 -302.07156 
L 410.912875 -302.029385 
L 412.679628 -301.995287 
L 414.44638 -301.966063 
L 416.213133 -301.940016 
L 417.979885 -301.916696 
L 419.746638 -301.896372 
L 421.51339 -301.879474 
L 423.280143 -301.866221 
L 425.046895 -301.856465 
L 425.046895 -301.823066 
L 425.046895 -301.823066 
L 423.280143 -301.81331 
L 421.51339 -301.800057 
L 419.746638 -301.78316 
L 417.979885 -301.762835 
L 416.213133 -301.739516 
L 414.44638 -301.713468 
L 412.679628 -301.684244 
L 410.912875 -301.650147 
L 409.146122 -301.607972 
L 407.37937 -301.553232 
L 405.612617 -301.480916 
L 403.845865 -301.386595 
L 402.079112 -301.267531 
L 400.31236 -301.123383 
L 398.545607 -300.956281 
L 396.778855 -300.770299 
L 395.012102 -300.570581 
L 393.245349 -300.362445 
L 391.478597 -300.150666 
L 389.711844 -299.938926 
L 387.945092 -299.729279 
L 386.178339 -299.521506 
L 384.411587 -299.312451 
L 382.644834 -299.095684 
L 380.878082 -298.861851 
L 379.111329 -298.599927 
L 377.344576 -298.299176 
L 375.577824 -297.95125 
L 373.811071 -297.551773 
L 372.044319 -297.100918 
L 370.277566 -296.602893 
L 368.510814 -296.064694 
L 366.744061 -295.494651 
L 364.977309 -294.901285 
L 363.210556 -294.292741 
L 361.443803 -293.676804 
L 359.677051 -293.061265 
L 357.910298 -292.454319 
L 356.143546 -291.864644 
L 354.376793 -291.300962 
L 352.610041 -290.771071 
L 350.843288 -290.280633 
L 349.076536 -289.832238 
L 347.309783 -289.425301 
L 345.54303 -289.057179 
L 343.776278 -288.725406 
L 342.009525 -288.430399 
L 340.242773 -288.177598 
L 338.47602 -287.977963 
L 336.709268 -287.846224 
L 334.942515 -287.797088 
L 333.175762 -287.8405 
L 331.40901 -287.977599 
L 329.642257 -288.198973 
L 327.875505 -288.486123 
L 326.108752 -288.815884 
L 324.342 -289.166501 
L 322.575247 -289.523406 
L 320.808495 -289.882848 
L 319.041742 -290.252304 
L 317.274989 -290.647671 
L 315.508237 -291.088197 
L 313.741484 -291.590656 
L 311.974732 -292.16429 
L 310.207979 -292.807661 
L 308.441227 -293.508004 
L 306.674474 -294.243073 
L 304.907722 -294.984983 
L 303.140969 -295.705161 
L 301.374216 -296.379288 
L 299.607464 -296.991124 
L 297.840711 -297.534339 
L 296.073959 -298.012 
L 294.307206 -298.434009 
L 292.540454 -298.813354 
L 290.773701 -299.162308 
L 289.006949 -299.489632 
L 287.240196 -299.799347 
L 285.473443 -300.091073 
L 283.706691 -300.361441 
L 281.939938 -300.605896 
L 280.173186 -300.820291 
L 278.406433 -301.001995 
L 276.639681 -301.150476 
L 274.872928 -301.267456 
L 273.106176 -301.356759 
L 271.339423 -301.423846 
L 269.57267 -301.475073 
L 267.805918 -301.516744 
L 266.039165 -301.554136 
L 264.272413 -301.590776 
L 262.50566 -301.628154 
L 260.738908 -301.665954 
L 258.972155 -301.702671 
L 257.205403 -301.736393 
L 255.43865 -301.765483 
L 253.671897 -301.789006 
L 251.905145 -301.806831 
L 250.138392 -301.819499 
z
" style="stroke: #262626; stroke-width: 1.25"/>
    </defs>
    <g clip-path="url(#pc0c09ae021)">
     <use xlink:href="#mc05dbb9a03" x="0" y="345.6" style="fill: #701070; stroke: #262626; stroke-width: 1.25"/>
    </g>
   </g>
   <g id="PolyCollection_2">
    <defs>
     <path id="mca276d339b" d="M 184.036358 -265.282764 
L 184.036358 -265.34083 
L 186.199687 -265.359092 
L 188.363016 -265.384733 
L 190.526345 -265.418422 
L 192.689674 -265.459832 
L 194.853003 -265.507481 
L 197.016333 -265.558915 
L 199.179662 -265.611225 
L 201.342991 -265.661756 
L 203.50632 -265.708682 
L 205.669649 -265.7512 
L 207.832978 -265.789238 
L 209.996307 -265.822829 
L 212.159636 -265.851528 
L 214.322965 -265.874174 
L 216.486295 -265.889139 
L 218.649624 -265.89489 
L 220.812953 -265.89056 
L 222.976282 -265.876281 
L 225.139611 -265.853236 
L 227.30294 -265.823598 
L 229.466269 -265.790541 
L 231.629598 -265.758376 
L 233.792927 -265.732654 
L 235.956256 -265.719966 
L 238.119586 -265.727278 
L 240.282915 -265.760844 
L 242.446244 -265.824978 
L 244.609573 -265.921089 
L 246.772902 -266.047344 
L 248.936231 -266.199143 
L 251.09956 -266.370378 
L 253.262889 -266.555187 
L 255.426218 -266.749767 
L 257.589547 -266.953719 
L 259.752877 -267.170504 
L 261.916206 -267.406831 
L 264.079535 -267.671142 
L 266.242864 -267.97168 
L 268.406193 -268.31482 
L 270.569522 -268.704203 
L 272.732851 -269.140912 
L 274.89618 -269.624427 
L 277.059509 -270.153783 
L 279.222839 -270.728332 
L 281.386168 -271.347771 
L 283.549497 -272.011575 
L 285.712826 -272.718225 
L 287.876155 -273.4646 
L 290.039484 -274.245584 
L 292.202813 -275.053557 
L 294.366142 -275.877375 
L 296.529471 -276.700752 
L 298.6928 -277.500507 
L 300.85613 -278.245612 
L 303.019459 -278.898122 
L 305.182788 -279.416691 
L 307.346117 -279.762593 
L 309.509446 -279.90725 
L 311.672775 -279.839494 
L 313.836104 -279.57042 
L 315.999433 -279.133948 
L 318.162762 -278.582062 
L 320.326091 -277.975139 
L 322.489421 -277.369358 
L 324.65275 -276.80447 
L 326.816079 -276.295546 
L 328.979408 -275.831437 
L 331.142737 -275.380606 
L 333.306066 -274.902572 
L 335.469395 -274.361257 
L 337.632724 -273.736026 
L 339.796053 -273.027254 
L 341.959383 -272.255376 
L 344.122712 -271.45466 
L 346.286041 -270.664401 
L 348.44937 -269.920507 
L 350.612699 -269.249616 
L 352.776028 -268.666533 
L 354.939357 -268.174618 
L 357.102686 -267.76808 
L 359.266015 -267.435125 
L 361.429344 -267.161113 
L 363.592674 -266.931285 
L 365.756003 -266.732766 
L 367.919332 -266.555748 
L 370.082661 -266.39381 
L 372.24599 -266.243529 
L 374.409319 -266.103671 
L 376.572648 -265.974287 
L 378.735977 -265.855983 
L 380.899306 -265.749478 
L 383.062635 -265.655396 
L 385.225965 -265.574168 
L 387.389294 -265.505951 
L 389.552623 -265.450512 
L 391.715952 -265.407143 
L 393.879281 -265.374642 
L 396.04261 -265.351404 
L 398.205939 -265.335606 
L 398.205939 -265.287988 
L 398.205939 -265.287988 
L 396.04261 -265.272189 
L 393.879281 -265.248952 
L 391.715952 -265.21645 
L 389.552623 -265.173082 
L 387.389294 -265.117643 
L 385.225965 -265.049425 
L 383.062635 -264.968198 
L 380.899306 -264.874116 
L 378.735977 -264.767611 
L 376.572648 -264.649307 
L 374.409319 -264.519922 
L 372.24599 -264.380065 
L 370.082661 -264.229784 
L 367.919332 -264.067845 
L 365.756003 -263.890828 
L 363.592674 -263.692309 
L 361.429344 -263.46248 
L 359.266015 -263.188469 
L 357.102686 -262.855513 
L 354.939357 -262.448976 
L 352.776028 -261.95706 
L 350.612699 -261.373978 
L 348.44937 -260.703087 
L 346.286041 -259.959193 
L 344.122712 -259.168933 
L 341.959383 -258.368218 
L 339.796053 -257.59634 
L 337.632724 -256.887568 
L 335.469395 -256.262337 
L 333.306066 -255.721022 
L 331.142737 -255.242988 
L 328.979408 -254.792157 
L 326.816079 -254.328047 
L 324.65275 -253.819124 
L 322.489421 -253.254236 
L 320.326091 -252.648455 
L 318.162762 -252.041532 
L 315.999433 -251.489646 
L 313.836104 -251.053174 
L 311.672775 -250.7841 
L 309.509446 -250.716343 
L 307.346117 -250.861001 
L 305.182788 -251.206903 
L 303.019459 -251.725472 
L 300.85613 -252.377982 
L 298.6928 -253.123087 
L 296.529471 -253.922842 
L 294.366142 -254.746219 
L 292.202813 -255.570036 
L 290.039484 -256.378009 
L 287.876155 -257.158994 
L 285.712826 -257.905369 
L 283.549497 -258.612018 
L 281.386168 -259.275823 
L 279.222839 -259.895262 
L 277.059509 -260.46981 
L 274.89618 -260.999167 
L 272.732851 -261.482681 
L 270.569522 -261.919391 
L 268.406193 -262.308774 
L 266.242864 -262.651913 
L 264.079535 -262.952452 
L 261.916206 -263.216763 
L 259.752877 -263.45309 
L 257.589547 -263.669875 
L 255.426218 -263.873827 
L 253.262889 -264.068407 
L 251.09956 -264.253216 
L 248.936231 -264.424451 
L 246.772902 -264.57625 
L 244.609573 -264.702505 
L 242.446244 -264.798616 
L 240.282915 -264.86275 
L 238.119586 -264.896315 
L 235.956256 -264.903627 
L 233.792927 -264.89094 
L 231.629598 -264.865218 
L 229.466269 -264.833053 
L 227.30294 -264.799996 
L 225.139611 -264.770357 
L 222.976282 -264.747313 
L 220.812953 -264.733033 
L 218.649624 -264.728704 
L 216.486295 -264.734454 
L 214.322965 -264.74942 
L 212.159636 -264.772066 
L 209.996307 -264.800764 
L 207.832978 -264.834356 
L 205.669649 -264.872393 
L 203.50632 -264.914912 
L 201.342991 -264.961838 
L 199.179662 -265.012368 
L 197.016333 -265.064679 
L 194.853003 -265.116113 
L 192.689674 -265.163762 
L 190.526345 -265.205172 
L 188.363016 -265.23886 
L 186.199687 -265.264502 
L 184.036358 -265.282764 
z
" style="stroke: #262626; stroke-width: 1.25"/>
    </defs>
    <g clip-path="url(#pc0c09ae021)">
     <use xlink:href="#mca276d339b" x="0" y="345.6" style="fill: #701070; stroke: #262626; stroke-width: 1.25"/>
    </g>
   </g>
   <g id="PolyCollection_3">
    <defs>
     <path id="mb9ae14c3a8" d="M 156.175068 -228.706094 
L 156.175068 -228.861563 
L 158.550752 -228.887589 
L 160.926436 -228.919259 
L 163.302119 -228.956684 
L 165.677803 -228.999577 
L 168.053486 -229.047181 
L 170.42917 -229.098237 
L 172.804854 -229.151005 
L 175.180537 -229.20336 
L 177.556221 -229.252945 
L 179.931904 -229.297396 
L 182.307588 -229.334585 
L 184.683271 -229.362875 
L 187.058955 -229.381341 
L 189.434639 -229.389917 
L 191.810322 -229.389445 
L 194.186006 -229.381612 
L 196.561689 -229.368772 
L 198.937373 -229.353676 
L 201.313057 -229.339138 
L 203.68874 -229.327688 
L 206.064424 -229.321254 
L 208.440107 -229.320915 
L 210.815791 -229.326779 
L 213.191475 -229.337975 
L 215.567158 -229.352796 
L 217.942842 -229.368948 
L 220.318525 -229.3839 
L 222.694209 -229.395274 
L 225.069892 -229.401249 
L 227.445576 -229.400912 
L 229.82126 -229.394546 
L 232.196943 -229.383809 
L 234.572627 -229.371811 
L 236.94831 -229.363074 
L 239.323994 -229.363398 
L 241.699678 -229.37964 
L 244.075361 -229.419419 
L 246.451045 -229.490768 
L 248.826728 -229.601728 
L 251.202412 -229.7599 
L 253.578095 -229.971961 
L 255.953779 -230.243162 
L 258.329463 -230.576844 
L 260.705146 -230.974007 
L 263.08083 -231.432985 
L 265.456513 -231.949278 
L 267.832197 -232.515597 
L 270.207881 -233.122119 
L 272.583564 -233.756988 
L 274.959248 -234.406986 
L 277.334931 -235.05834 
L 279.710615 -235.697563 
L 282.086298 -236.312231 
L 284.461982 -236.891619 
L 286.837666 -237.427112 
L 289.213349 -237.912384 
L 291.589033 -238.343323 
L 293.964716 -238.717776 
L 296.3404 -239.035156 
L 298.716084 -239.296014 
L 301.091767 -239.501629 
L 303.467451 -239.653687 
L 305.843134 -239.754057 
L 308.218818 -239.804672 
L 310.594502 -239.80748 
L 312.970185 -239.764426 
L 315.345869 -239.67744 
L 317.721552 -239.548388 
L 320.097236 -239.379008 
L 322.472919 -239.17083 
L 324.848603 -238.925112 
L 327.224287 -238.642837 
L 329.59997 -238.324778 
L 331.975654 -237.971652 
L 334.351337 -237.584345 
L 336.727021 -237.164177 
L 339.102705 -236.713169 
L 341.478388 -236.234262 
L 343.854072 -235.731453 
L 346.229755 -235.209821 
L 348.605439 -234.675434 
L 350.981122 -234.135157 
L 353.356806 -233.596364 
L 355.73249 -233.066605 
L 358.108173 -232.553248 
L 360.483857 -232.063138 
L 362.85954 -231.602288 
L 365.235224 -231.175634 
L 367.610908 -230.786862 
L 369.986591 -230.438316 
L 372.362275 -230.130985 
L 374.737958 -229.864568 
L 377.113642 -229.637608 
L 379.489326 -229.447681 
L 381.865009 -229.29162 
L 384.240693 -229.165759 
L 386.616376 -229.066168 
L 388.99206 -228.988881 
L 391.367743 -228.930078 
L 391.367743 -228.637578 
L 391.367743 -228.637578 
L 388.99206 -228.578775 
L 386.616376 -228.501488 
L 384.240693 -228.401898 
L 381.865009 -228.276036 
L 379.489326 -228.119975 
L 377.113642 -227.930048 
L 374.737958 -227.703088 
L 372.362275 -227.436671 
L 369.986591 -227.12934 
L 367.610908 -226.780794 
L 365.235224 -226.392023 
L 362.85954 -225.965368 
L 360.483857 -225.504518 
L 358.108173 -225.014408 
L 355.73249 -224.501051 
L 353.356806 -223.971292 
L 350.981122 -223.432499 
L 348.605439 -222.892222 
L 346.229755 -222.357836 
L 343.854072 -221.836203 
L 341.478388 -221.333394 
L 339.102705 -220.854488 
L 336.727021 -220.40348 
L 334.351337 -219.983311 
L 331.975654 -219.596004 
L 329.59997 -219.242878 
L 327.224287 -218.924819 
L 324.848603 -218.642544 
L 322.472919 -218.396826 
L 320.097236 -218.188648 
L 317.721552 -218.019269 
L 315.345869 -217.890217 
L 312.970185 -217.80323 
L 310.594502 -217.760176 
L 308.218818 -217.762984 
L 305.843134 -217.813599 
L 303.467451 -217.913969 
L 301.091767 -218.066027 
L 298.716084 -218.271643 
L 296.3404 -218.5325 
L 293.964716 -218.84988 
L 291.589033 -219.224333 
L 289.213349 -219.655272 
L 286.837666 -220.140544 
L 284.461982 -220.676038 
L 282.086298 -221.255425 
L 279.710615 -221.870094 
L 277.334931 -222.509316 
L 274.959248 -223.160671 
L 272.583564 -223.810668 
L 270.207881 -224.445537 
L 267.832197 -225.05206 
L 265.456513 -225.618378 
L 263.08083 -226.134672 
L 260.705146 -226.593649 
L 258.329463 -226.990812 
L 255.953779 -227.324495 
L 253.578095 -227.595696 
L 251.202412 -227.807756 
L 248.826728 -227.965928 
L 246.451045 -228.076889 
L 244.075361 -228.148238 
L 241.699678 -228.188016 
L 239.323994 -228.204258 
L 236.94831 -228.204582 
L 234.572627 -228.195846 
L 232.196943 -228.183848 
L 229.82126 -228.173111 
L 227.445576 -228.166744 
L 225.069892 -228.166407 
L 222.694209 -228.172382 
L 220.318525 -228.183757 
L 217.942842 -228.198708 
L 215.567158 -228.21486 
L 213.191475 -228.229681 
L 210.815791 -228.240877 
L 208.440107 -228.246741 
L 206.064424 -228.246403 
L 203.68874 -228.239968 
L 201.313057 -228.228518 
L 198.937373 -228.213981 
L 196.561689 -228.198884 
L 194.186006 -228.186044 
L 191.810322 -228.178211 
L 189.434639 -228.177739 
L 187.058955 -228.186315 
L 184.683271 -228.204782 
L 182.307588 -228.233072 
L 179.931904 -228.27026 
L 177.556221 -228.314711 
L 175.180537 -228.364297 
L 172.804854 -228.416651 
L 170.42917 -228.469419 
L 168.053486 -228.520475 
L 165.677803 -228.56808 
L 163.302119 -228.610972 
L 160.926436 -228.648397 
L 158.550752 -228.680067 
L 156.175068 -228.706094 
z
" style="stroke: #262626; stroke-width: 1.25"/>
    </defs>
    <g clip-path="url(#pc0c09ae021)">
     <use xlink:href="#mb9ae14c3a8" x="0" y="345.6" style="fill: #701070; stroke: #262626; stroke-width: 1.25"/>
    </g>
   </g>
   <g id="PolyCollection_4">
    <defs>
     <path id="m11d3ff792f" d="M 174.473534 -192.206995 
L 174.473534 -192.304723 
L 176.86958 -192.324041 
L 179.265626 -192.348999 
L 181.661673 -192.380519 
L 184.057719 -192.419477 
L 186.453765 -192.466668 
L 188.849811 -192.522795 
L 191.245858 -192.58847 
L 193.641904 -192.664244 
L 196.03795 -192.750652 
L 198.433996 -192.848248 
L 200.830042 -192.957627 
L 203.226089 -193.079389 
L 205.622135 -193.214058 
L 208.018181 -193.361933 
L 210.414227 -193.522892 
L 212.810274 -193.696191 
L 215.20632 -193.880305 
L 217.602366 -194.072855 
L 219.998412 -194.270686 
L 222.394458 -194.470105 
L 224.790505 -194.667283 
L 227.186551 -194.858774 
L 229.582597 -195.042076 
L 231.978643 -195.216136 
L 234.37469 -195.381706 
L 236.770736 -195.541465 
L 239.166782 -195.699878 
L 241.562828 -195.86277 
L 243.958874 -196.036704 
L 246.354921 -196.228211 
L 248.750967 -196.443021 
L 251.147013 -196.685373 
L 253.543059 -196.957506 
L 255.939106 -197.259377 
L 258.335152 -197.588617 
L 260.731198 -197.940694 
L 263.127244 -198.309234 
L 265.523291 -198.686448 
L 267.919337 -199.063582 
L 270.315383 -199.431391 
L 272.711429 -199.78058 
L 275.107475 -200.102245 
L 277.503522 -200.388295 
L 279.899568 -200.631876 
L 282.295614 -200.827787 
L 284.69166 -200.972857 
L 287.087707 -201.066243 
L 289.483753 -201.109595 
L 291.879799 -201.107036 
L 294.275845 -201.064911 
L 296.671891 -200.991304 
L 299.067938 -200.895342 
L 301.463984 -200.786342 
L 303.86003 -200.6729 
L 306.256076 -200.562009 
L 308.652123 -200.45833 
L 311.048169 -200.363679 
L 313.444215 -200.27681 
L 315.840261 -200.193504 
L 318.236307 -200.10696 
L 320.632354 -200.008451 
L 323.0284 -199.888184 
L 325.424446 -199.736276 
L 327.820492 -199.54378 
L 330.216539 -199.303645 
L 332.612585 -199.011542 
L 335.008631 -198.666447 
L 337.404677 -198.270939 
L 339.800723 -197.831155 
L 342.19677 -197.356408 
L 344.592816 -196.8585 
L 346.988862 -196.350804 
L 349.384908 -195.847219 
L 351.780955 -195.361113 
L 354.177001 -194.904363 
L 356.573047 -194.486586 
L 358.969093 -194.114632 
L 361.36514 -193.792347 
L 363.761186 -193.520618 
L 366.157232 -193.297659 
L 368.553278 -193.119476 
L 370.949324 -192.980463 
L 373.345371 -192.874044 
L 375.741417 -192.793308 
L 378.137463 -192.731585 
L 380.533509 -192.682905 
L 382.929556 -192.642324 
L 385.325602 -192.606101 
L 387.721648 -192.571719 
L 390.117694 -192.537796 
L 392.51374 -192.503879 
L 394.909787 -192.470201 
L 397.305833 -192.437413 
L 399.701879 -192.406332 
L 402.097925 -192.377747 
L 404.493972 -192.352279 
L 406.890018 -192.330302 
L 409.286064 -192.311934 
L 411.68211 -192.297058 
L 411.68211 -192.21466 
L 411.68211 -192.21466 
L 409.286064 -192.199784 
L 406.890018 -192.181417 
L 404.493972 -192.15944 
L 402.097925 -192.133971 
L 399.701879 -192.105387 
L 397.305833 -192.074306 
L 394.909787 -192.041517 
L 392.51374 -192.00784 
L 390.117694 -191.973923 
L 387.721648 -191.939999 
L 385.325602 -191.905618 
L 382.929556 -191.869394 
L 380.533509 -191.828814 
L 378.137463 -191.780134 
L 375.741417 -191.718411 
L 373.345371 -191.637675 
L 370.949324 -191.531255 
L 368.553278 -191.392242 
L 366.157232 -191.21406 
L 363.761186 -190.991101 
L 361.36514 -190.719372 
L 358.969093 -190.397086 
L 356.573047 -190.025132 
L 354.177001 -189.607356 
L 351.780955 -189.150606 
L 349.384908 -188.6645 
L 346.988862 -188.160915 
L 344.592816 -187.653219 
L 342.19677 -187.155311 
L 339.800723 -186.680564 
L 337.404677 -186.24078 
L 335.008631 -185.845271 
L 332.612585 -185.500176 
L 330.216539 -185.208073 
L 327.820492 -184.967939 
L 325.424446 -184.775443 
L 323.0284 -184.623535 
L 320.632354 -184.503268 
L 318.236307 -184.404759 
L 315.840261 -184.318215 
L 313.444215 -184.234909 
L 311.048169 -184.14804 
L 308.652123 -184.053389 
L 306.256076 -183.94971 
L 303.86003 -183.838819 
L 301.463984 -183.725377 
L 299.067938 -183.616377 
L 296.671891 -183.520414 
L 294.275845 -183.446808 
L 291.879799 -183.404683 
L 289.483753 -183.402124 
L 287.087707 -183.445476 
L 284.69166 -183.538862 
L 282.295614 -183.683931 
L 279.899568 -183.879843 
L 277.503522 -184.123424 
L 275.107475 -184.409474 
L 272.711429 -184.731139 
L 270.315383 -185.080328 
L 267.919337 -185.448136 
L 265.523291 -185.825271 
L 263.127244 -186.202484 
L 260.731198 -186.571025 
L 258.335152 -186.923102 
L 255.939106 -187.252341 
L 253.543059 -187.554213 
L 251.147013 -187.826346 
L 248.750967 -188.068697 
L 246.354921 -188.283508 
L 243.958874 -188.475015 
L 241.562828 -188.648948 
L 239.166782 -188.811841 
L 236.770736 -188.970254 
L 234.37469 -189.130013 
L 231.978643 -189.295582 
L 229.582597 -189.469642 
L 227.186551 -189.652945 
L 224.790505 -189.844436 
L 222.394458 -190.041614 
L 219.998412 -190.241033 
L 217.602366 -190.438863 
L 215.20632 -190.631413 
L 212.810274 -190.815527 
L 210.414227 -190.988827 
L 208.018181 -191.149786 
L 205.622135 -191.297661 
L 203.226089 -191.43233 
L 200.830042 -191.554092 
L 198.433996 -191.66347 
L 196.03795 -191.761067 
L 193.641904 -191.847475 
L 191.245858 -191.923249 
L 188.849811 -191.988923 
L 186.453765 -192.04505 
L 184.057719 -192.092242 
L 181.661673 -192.1312 
L 179.265626 -192.16272 
L 176.86958 -192.187678 
L 174.473534 -192.206995 
z
" style="stroke: #262626; stroke-width: 1.25"/>
    </defs>
    <g clip-path="url(#pc0c09ae021)">
     <use xlink:href="#m11d3ff792f" x="0" y="345.6" style="fill: #701070; stroke: #262626; stroke-width: 1.25"/>
    </g>
   </g>
   <g id="PolyCollection_5">
    <defs>
     <path id="ma26933f1f7" d="M 213.150626 -155.688623 
L 213.150626 -155.767158 
L 215.378696 -155.785792 
L 217.606766 -155.810378 
L 219.834836 -155.841465 
L 222.062906 -155.879105 
L 224.290976 -155.922716 
L 226.519045 -155.971038 
L 228.747115 -156.022245 
L 230.975185 -156.074214 
L 233.203255 -156.12493 
L 235.431325 -156.172951 
L 237.659395 -156.217832 
L 239.887465 -156.260377 
L 242.115535 -156.302646 
L 244.343605 -156.347665 
L 246.571674 -156.398889 
L 248.799744 -156.459536 
L 251.027814 -156.531922 
L 253.255884 -156.616987 
L 255.483954 -156.714101 
L 257.712024 -156.821229 
L 259.940094 -156.935413 
L 262.168164 -157.053485 
L 264.396234 -157.172876 
L 266.624304 -157.292375 
L 268.852373 -157.412719 
L 271.080443 -157.536932 
L 273.308513 -157.670394 
L 275.536583 -157.820639 
L 277.764653 -157.996952 
L 279.992723 -158.209771 
L 282.220793 -158.469941 
L 284.448863 -158.787802 
L 286.676933 -159.172101 
L 288.905002 -159.628741 
L 291.133072 -160.15947 
L 293.361142 -160.760678 
L 295.589212 -161.422591 
L 297.817282 -162.129146 
L 300.045352 -162.858792 
L 302.273422 -163.586259 
L 304.501492 -164.285138 
L 306.729562 -164.930843 
L 308.957631 -165.503409 
L 311.185701 -165.989543 
L 313.413771 -166.38351 
L 315.641841 -166.686704 
L 317.869911 -166.906066 
L 320.097981 -167.051786 
L 322.326051 -167.134828 
L 324.554121 -167.164821 
L 326.782191 -167.148662 
L 329.010261 -167.089954 
L 331.23833 -166.98919 
L 333.4664 -166.844463 
L 335.69447 -166.652441 
L 337.92254 -166.409416 
L 340.15061 -166.112325 
L 342.37868 -165.759678 
L 344.60675 -165.352372 
L 346.83482 -164.894321 
L 349.06289 -164.392796 
L 351.290959 -163.858361 
L 353.519029 -163.304328 
L 355.747099 -162.745753 
L 357.975169 -162.198111 
L 360.203239 -161.675863 
L 362.431309 -161.191162 
L 364.659379 -160.752929 
L 366.887449 -160.366377 
L 369.115519 -160.032999 
L 371.343588 -159.750905 
L 373.571658 -159.515351 
L 375.799728 -159.319339 
L 378.027798 -159.154197 
L 380.255868 -159.010161 
L 382.483938 -158.876991 
L 384.712008 -158.744687 
L 386.940078 -158.604323 
L 389.168148 -158.448912 
L 391.396217 -158.27418 
L 393.624287 -158.07906 
L 395.852357 -157.865758 
L 398.080427 -157.639336 
L 400.308497 -157.406854 
L 402.536567 -157.176246 
L 404.764637 -156.955154 
L 406.992707 -156.749955 
L 409.220777 -156.565151 
L 411.448847 -156.403167 
L 413.676916 -156.264524 
L 415.904986 -156.148263 
L 418.133056 -156.052464 
L 420.361126 -155.974731 
L 422.589196 -155.912557 
L 424.817266 -155.863557 
L 427.045336 -155.825562 
L 429.273406 -155.796648 
L 431.501476 -155.775117 
L 433.729545 -155.759477 
L 433.729545 -155.696305 
L 433.729545 -155.696305 
L 431.501476 -155.680664 
L 429.273406 -155.659133 
L 427.045336 -155.63022 
L 424.817266 -155.592225 
L 422.589196 -155.543224 
L 420.361126 -155.48105 
L 418.133056 -155.403317 
L 415.904986 -155.307518 
L 413.676916 -155.191258 
L 411.448847 -155.052614 
L 409.220777 -154.89063 
L 406.992707 -154.705826 
L 404.764637 -154.500627 
L 402.536567 -154.279535 
L 400.308497 -154.048927 
L 398.080427 -153.816445 
L 395.852357 -153.590024 
L 393.624287 -153.376722 
L 391.396217 -153.181601 
L 389.168148 -153.00687 
L 386.940078 -152.851459 
L 384.712008 -152.711094 
L 382.483938 -152.578791 
L 380.255868 -152.44562 
L 378.027798 -152.301584 
L 375.799728 -152.136443 
L 373.571658 -151.94043 
L 371.343588 -151.704876 
L 369.115519 -151.422782 
L 366.887449 -151.089404 
L 364.659379 -150.702852 
L 362.431309 -150.264619 
L 360.203239 -149.779919 
L 357.975169 -149.25767 
L 355.747099 -148.710029 
L 353.519029 -148.151454 
L 351.290959 -147.59742 
L 349.06289 -147.062985 
L 346.83482 -146.56146 
L 344.60675 -146.103409 
L 342.37868 -145.696103 
L 340.15061 -145.343456 
L 337.92254 -145.046365 
L 335.69447 -144.803341 
L 333.4664 -144.611318 
L 331.23833 -144.466591 
L 329.010261 -144.365828 
L 326.782191 -144.307119 
L 324.554121 -144.29096 
L 322.326051 -144.320953 
L 320.097981 -144.403995 
L 317.869911 -144.549715 
L 315.641841 -144.769077 
L 313.413771 -145.072271 
L 311.185701 -145.466238 
L 308.957631 -145.952372 
L 306.729562 -146.524939 
L 304.501492 -147.170644 
L 302.273422 -147.869522 
L 300.045352 -148.596989 
L 297.817282 -149.326635 
L 295.589212 -150.03319 
L 293.361142 -150.695103 
L 291.133072 -151.296312 
L 288.905002 -151.827041 
L 286.676933 -152.283681 
L 284.448863 -152.667979 
L 282.220793 -152.98584 
L 279.992723 -153.24601 
L 277.764653 -153.458829 
L 275.536583 -153.635142 
L 273.308513 -153.785387 
L 271.080443 -153.918849 
L 268.852373 -154.043062 
L 266.624304 -154.163406 
L 264.396234 -154.282906 
L 262.168164 -154.402297 
L 259.940094 -154.520369 
L 257.712024 -154.634553 
L 255.483954 -154.741681 
L 253.255884 -154.838795 
L 251.027814 -154.923859 
L 248.799744 -154.996246 
L 246.571674 -155.056892 
L 244.343605 -155.108117 
L 242.115535 -155.153135 
L 239.887465 -155.195404 
L 237.659395 -155.23795 
L 235.431325 -155.28283 
L 233.203255 -155.330851 
L 230.975185 -155.381567 
L 228.747115 -155.433536 
L 226.519045 -155.484743 
L 224.290976 -155.533065 
L 222.062906 -155.576676 
L 219.834836 -155.614317 
L 217.606766 -155.645403 
L 215.378696 -155.669989 
L 213.150626 -155.688623 
z
" style="stroke: #262626; stroke-width: 1.25"/>
    </defs>
    <g clip-path="url(#pc0c09ae021)">
     <use xlink:href="#ma26933f1f7" x="0" y="345.6" style="fill: #701070; stroke: #262626; stroke-width: 1.25"/>
    </g>
   </g>
   <g id="PolyCollection_6">
    <defs>
     <path id="med688ac5e4" d="M 249.774455 -118.9504 
L 249.774455 -119.449443 
L 251.53833 -119.518047 
L 253.302205 -119.600599 
L 255.06608 -119.698476 
L 256.829956 -119.812796 
L 258.593831 -119.9443 
L 260.357706 -120.093241 
L 262.121581 -120.259284 
L 263.885456 -120.441431 
L 265.649332 -120.637975 
L 267.413207 -120.846506 
L 269.177082 -121.063971 
L 270.940957 -121.286785 
L 272.704833 -121.511007 
L 274.468708 -121.732559 
L 276.232583 -121.947492 
L 277.996458 -122.152259 
L 279.760333 -122.343997 
L 281.524209 -122.520778 
L 283.288084 -122.681805 
L 285.051959 -122.827541 
L 286.815834 -122.959747 
L 288.579709 -123.08142 
L 290.343585 -123.196639 
L 292.10746 -123.310314 
L 293.871335 -123.427877 
L 295.63521 -123.55492 
L 297.399086 -123.69682 
L 299.162961 -123.858388 
L 300.926836 -124.043559 
L 302.690711 -124.255157 
L 304.454586 -124.494749 
L 306.218462 -124.762596 
L 307.982337 -125.057698 
L 309.746212 -125.377922 
L 311.510087 -125.720196 
L 313.273962 -126.080736 
L 315.037838 -126.455293 
L 316.801713 -126.83938 
L 318.565588 -127.228466 
L 320.329463 -127.618119 
L 322.093339 -128.004092 
L 323.857214 -128.382346 
L 325.621089 -128.749025 
L 327.384964 -129.100392 
L 329.148839 -129.432752 
L 330.912715 -129.742366 
L 332.67659 -130.025397 
L 334.440465 -130.277877 
L 336.20434 -130.495736 
L 337.968216 -130.674869 
L 339.732091 -130.811256 
L 341.495966 -130.901125 
L 343.259841 -130.941137 
L 345.023716 -130.92859 
L 346.787592 -130.861601 
L 348.551467 -130.739281 
L 350.315342 -130.561854 
L 352.079217 -130.330735 
L 353.843092 -130.048536 
L 355.606968 -129.719025 
L 357.370843 -129.347016 
L 359.134718 -128.938207 
L 360.898593 -128.498985 
L 362.662469 -128.036197 
L 364.426344 -127.556905 
L 366.190219 -127.068144 
L 367.954094 -126.576691 
L 369.717969 -126.088855 
L 371.481845 -125.610299 
L 373.24572 -125.145904 
L 375.009595 -124.699668 
L 376.77347 -124.274658 
L 378.537345 -123.872999 
L 380.301221 -123.495911 
L 382.065096 -123.143778 
L 383.828971 -122.816256 
L 385.592846 -122.512399 
L 387.356722 -122.230807 
L 389.120597 -121.969778 
L 390.884472 -121.727456 
L 392.648347 -121.501974 
L 394.412222 -121.29157 
L 396.176098 -121.094683 
L 397.939973 -120.910014 
L 399.703848 -120.736561 
L 401.467723 -120.57362 
L 403.231599 -120.420764 
L 404.995474 -120.277793 
L 406.759349 -120.144675 
L 408.523224 -120.02148 
L 410.287099 -119.908315 
L 412.050975 -119.805255 
L 413.81485 -119.712301 
L 415.578725 -119.629339 
L 417.3426 -119.556122 
L 419.106475 -119.492264 
L 420.870351 -119.437246 
L 422.634226 -119.390439 
L 424.398101 -119.351129 
L 424.398101 -119.048715 
L 424.398101 -119.048715 
L 422.634226 -119.009405 
L 420.870351 -118.962598 
L 419.106475 -118.90758 
L 417.3426 -118.843722 
L 415.578725 -118.770505 
L 413.81485 -118.687543 
L 412.050975 -118.594589 
L 410.287099 -118.491529 
L 408.523224 -118.378363 
L 406.759349 -118.255169 
L 404.995474 -118.122051 
L 403.231599 -117.979079 
L 401.467723 -117.826223 
L 399.703848 -117.663283 
L 397.939973 -117.48983 
L 396.176098 -117.305161 
L 394.412222 -117.108274 
L 392.648347 -116.89787 
L 390.884472 -116.672388 
L 389.120597 -116.430066 
L 387.356722 -116.169036 
L 385.592846 -115.887444 
L 383.828971 -115.583588 
L 382.065096 -115.256065 
L 380.301221 -114.903933 
L 378.537345 -114.526845 
L 376.77347 -114.125186 
L 375.009595 -113.700176 
L 373.24572 -113.25394 
L 371.481845 -112.789545 
L 369.717969 -112.310989 
L 367.954094 -111.823153 
L 366.190219 -111.331699 
L 364.426344 -110.842938 
L 362.662469 -110.363646 
L 360.898593 -109.900858 
L 359.134718 -109.461637 
L 357.370843 -109.052828 
L 355.606968 -108.680818 
L 353.843092 -108.351308 
L 352.079217 -108.069109 
L 350.315342 -107.83799 
L 348.551467 -107.660563 
L 346.787592 -107.538243 
L 345.023716 -107.471254 
L 343.259841 -107.458706 
L 341.495966 -107.498719 
L 339.732091 -107.588588 
L 337.968216 -107.724975 
L 336.20434 -107.904107 
L 334.440465 -108.121967 
L 332.67659 -108.374447 
L 330.912715 -108.657478 
L 329.148839 -108.967092 
L 327.384964 -109.299452 
L 325.621089 -109.650819 
L 323.857214 -110.017497 
L 322.093339 -110.395751 
L 320.329463 -110.781725 
L 318.565588 -111.171378 
L 316.801713 -111.560464 
L 315.037838 -111.944551 
L 313.273962 -112.319108 
L 311.510087 -112.679648 
L 309.746212 -113.021922 
L 307.982337 -113.342146 
L 306.218462 -113.637248 
L 304.454586 -113.905095 
L 302.690711 -114.144687 
L 300.926836 -114.356285 
L 299.162961 -114.541456 
L 297.399086 -114.703024 
L 295.63521 -114.844924 
L 293.871335 -114.971966 
L 292.10746 -115.08953 
L 290.343585 -115.203205 
L 288.579709 -115.318424 
L 286.815834 -115.440097 
L 285.051959 -115.572303 
L 283.288084 -115.718039 
L 281.524209 -115.879066 
L 279.760333 -116.055847 
L 277.996458 -116.247585 
L 276.232583 -116.452352 
L 274.468708 -116.667284 
L 272.704833 -116.888837 
L 270.940957 -117.113059 
L 269.177082 -117.335873 
L 267.413207 -117.553338 
L 265.649332 -117.761869 
L 263.885456 -117.958413 
L 262.121581 -118.140559 
L 260.357706 -118.306603 
L 258.593831 -118.455544 
L 256.829956 -118.587048 
L 255.06608 -118.701368 
L 253.302205 -118.799245 
L 251.53833 -118.881797 
L 249.774455 -118.9504 
z
" style="stroke: #262626; stroke-width: 1.25"/>
    </defs>
    <g clip-path="url(#pc0c09ae021)">
     <use xlink:href="#med688ac5e4" x="0" y="345.6" style="fill: #701070; stroke: #262626; stroke-width: 1.25"/>
    </g>
   </g>
   <g id="PolyCollection_7">
    <defs>
     <path id="m11245de6ac" d="M 262.582043 -82.396144 
L 262.582043 -82.947763 
L 263.919884 -83.016399 
L 265.257725 -83.097676 
L 266.595566 -83.192749 
L 267.933407 -83.302603 
L 269.271248 -83.427992 
L 270.609089 -83.569377 
L 271.946929 -83.72688 
L 273.28477 -83.900253 
L 274.622611 -84.088867 
L 275.960452 -84.291737 
L 277.298293 -84.507565 
L 278.636134 -84.734822 
L 279.973975 -84.971861 
L 281.311816 -85.217042 
L 282.649657 -85.468883 
L 283.987498 -85.726208 
L 285.325338 -85.988288 
L 286.663179 -86.254954 
L 288.00102 -86.526679 
L 289.338861 -86.804602 
L 290.676702 -87.090496 
L 292.014543 -87.386681 
L 293.352384 -87.695865 
L 294.690225 -88.020941 
L 296.028066 -88.364737 
L 297.365906 -88.729753 
L 298.703747 -89.11789 
L 300.041588 -89.530208 
L 301.379429 -89.966726 
L 302.71727 -90.426291 
L 304.055111 -90.906522 
L 305.392952 -91.403842 
L 306.730793 -91.913592 
L 308.068634 -92.430226 
L 309.406475 -92.947559 
L 310.744315 -93.459051 
L 312.082156 -93.95811 
L 313.419997 -94.438368 
L 314.757838 -94.893928 
L 316.095679 -95.319536 
L 317.43352 -95.710698 
L 318.771361 -96.063709 
L 320.109202 -96.375615 
L 321.447043 -96.644116 
L 322.784883 -96.867426 
L 324.122724 -97.044129 
L 325.460565 -97.173028 
L 326.798406 -97.253042 
L 328.136247 -97.283141 
L 329.474088 -97.26235 
L 330.811929 -97.189818 
L 332.14977 -97.06494 
L 333.487611 -96.88753 
L 334.825452 -96.658019 
L 336.163292 -96.377653 
L 337.501133 -96.048666 
L 338.838974 -95.674405 
L 340.176815 -95.259389 
L 341.514656 -94.809283 
L 342.852497 -94.330786 
L 344.190338 -93.831437 
L 345.528179 -93.319338 
L 346.86602 -92.802832 
L 348.20386 -92.290137 
L 349.541701 -91.78898 
L 350.879542 -91.306245 
L 352.217383 -90.847663 
L 353.555224 -90.417578 
L 354.893065 -90.01878 
L 356.230906 -89.652441 
L 357.568747 -89.318144 
L 358.906588 -89.013996 
L 360.244429 -88.736838 
L 361.582269 -88.482504 
L 362.92011 -88.246144 
L 364.257951 -88.022557 
L 365.595792 -87.80654 
L 366.933633 -87.593211 
L 368.271474 -87.37829 
L 369.609315 -87.158334 
L 370.947156 -86.930893 
L 372.284997 -86.694599 
L 373.622838 -86.449179 
L 374.960678 -86.195392 
L 376.298519 -85.934914 
L 377.63636 -85.670161 
L 378.974201 -85.40409 
L 380.312042 -85.13998 
L 381.649883 -84.881208 
L 382.987724 -84.631044 
L 384.325565 -84.392478 
L 385.663406 -84.168071 
L 387.001246 -83.959862 
L 388.339087 -83.769309 
L 389.676928 -83.59727 
L 391.014769 -83.444033 
L 392.35261 -83.30936 
L 393.690451 -83.192568 
L 395.028292 -83.092608 
L 395.028292 -82.251298 
L 395.028292 -82.251298 
L 393.690451 -82.151339 
L 392.35261 -82.034546 
L 391.014769 -81.899873 
L 389.676928 -81.746636 
L 388.339087 -81.574598 
L 387.001246 -81.384044 
L 385.663406 -81.175835 
L 384.325565 -80.951429 
L 382.987724 -80.712862 
L 381.649883 -80.462698 
L 380.312042 -80.203926 
L 378.974201 -79.939816 
L 377.63636 -79.673746 
L 376.298519 -79.408992 
L 374.960678 -79.148514 
L 373.622838 -78.894727 
L 372.284997 -78.649307 
L 370.947156 -78.413013 
L 369.609315 -78.185572 
L 368.271474 -77.965616 
L 366.933633 -77.750695 
L 365.595792 -77.537366 
L 364.257951 -77.321349 
L 362.92011 -77.097762 
L 361.582269 -76.861402 
L 360.244429 -76.607069 
L 358.906588 -76.32991 
L 357.568747 -76.025763 
L 356.230906 -75.691465 
L 354.893065 -75.325126 
L 353.555224 -74.926328 
L 352.217383 -74.496243 
L 350.879542 -74.037662 
L 349.541701 -73.554926 
L 348.20386 -73.053769 
L 346.86602 -72.541074 
L 345.528179 -72.024568 
L 344.190338 -71.512469 
L 342.852497 -71.01312 
L 341.514656 -70.534624 
L 340.176815 -70.084518 
L 338.838974 -69.669501 
L 337.501133 -69.29524 
L 336.163292 -68.966253 
L 334.825452 -68.685887 
L 333.487611 -68.456377 
L 332.14977 -68.278967 
L 330.811929 -68.154088 
L 329.474088 -68.081556 
L 328.136247 -68.060766 
L 326.798406 -68.090864 
L 325.460565 -68.170878 
L 324.122724 -68.299777 
L 322.784883 -68.47648 
L 321.447043 -68.699791 
L 320.109202 -68.968291 
L 318.771361 -69.280197 
L 317.43352 -69.633208 
L 316.095679 -70.024371 
L 314.757838 -70.449979 
L 313.419997 -70.905538 
L 312.082156 -71.385797 
L 310.744315 -71.884856 
L 309.406475 -72.396348 
L 308.068634 -72.91368 
L 306.730793 -73.430314 
L 305.392952 -73.940065 
L 304.055111 -74.437384 
L 302.71727 -74.917615 
L 301.379429 -75.37718 
L 300.041588 -75.813698 
L 298.703747 -76.226016 
L 297.365906 -76.614153 
L 296.028066 -76.979169 
L 294.690225 -77.322965 
L 293.352384 -77.648041 
L 292.014543 -77.957225 
L 290.676702 -78.25341 
L 289.338861 -78.539305 
L 288.00102 -78.817227 
L 286.663179 -79.088952 
L 285.325338 -79.355619 
L 283.987498 -79.617698 
L 282.649657 -79.875023 
L 281.311816 -80.126864 
L 279.973975 -80.372045 
L 278.636134 -80.609084 
L 277.298293 -80.836342 
L 275.960452 -81.052169 
L 274.622611 -81.255039 
L 273.28477 -81.443653 
L 271.946929 -81.617026 
L 270.609089 -81.774529 
L 269.271248 -81.915914 
L 267.933407 -82.041303 
L 266.595566 -82.151157 
L 265.257725 -82.24623 
L 263.919884 -82.327507 
L 262.582043 -82.396144 
z
" style="stroke: #262626; stroke-width: 1.25"/>
    </defs>
    <g clip-path="url(#pc0c09ae021)">
     <use xlink:href="#m11245de6ac" x="0" y="345.6" style="fill: #701070; stroke: #262626; stroke-width: 1.25"/>
    </g>
   </g>
   <g id="PolyCollection_8">
    <defs>
     <path id="mb529cd8943" d="M 108.320455 -45.82718 
L 108.320455 -46.460789 
L 110.997056 -46.511915 
L 113.673658 -46.569014 
L 116.350259 -46.632357 
L 119.026861 -46.702151 
L 121.703462 -46.77852 
L 124.380064 -46.861497 
L 127.056666 -46.951005 
L 129.733267 -47.046849 
L 132.409869 -47.148704 
L 135.08647 -47.256107 
L 137.763072 -47.368455 
L 140.439673 -47.485 
L 143.116275 -47.604858 
L 145.792877 -47.727011 
L 148.469478 -47.850324 
L 151.14608 -47.973559 
L 153.822681 -48.095399 
L 156.499283 -48.214472 
L 159.175885 -48.329383 
L 161.852486 -48.438745 
L 164.529088 -48.541219 
L 167.205689 -48.635543 
L 169.882291 -48.720578 
L 172.558892 -48.79534 
L 175.235494 -48.859035 
L 177.912096 -48.911094 
L 180.588697 -48.951196 
L 183.265299 -48.979294 
L 185.9419 -48.995631 
L 188.618502 -49.000751 
L 191.295103 -48.995499 
L 193.971705 -48.981019 
L 196.648307 -48.958738 
L 199.324908 -48.930353 
L 202.00151 -48.897794 
L 204.678111 -48.863199 
L 207.354713 -48.828866 
L 210.031314 -48.797213 
L 212.707916 -48.770722 
L 215.384518 -48.751891 
L 218.061119 -48.743171 
L 220.737721 -48.746911 
L 223.414322 -48.7653 
L 226.090924 -48.800309 
L 228.767526 -48.853635 
L 231.444127 -48.926651 
L 234.120729 -49.020356 
L 236.79733 -49.135339 
L 239.473932 -49.271743 
L 242.150533 -49.429239 
L 244.827135 -49.607009 
L 247.503737 -49.803747 
L 250.180338 -50.017656 
L 252.85694 -50.246472 
L 255.533541 -50.487489 
L 258.210143 -50.737601 
L 260.886744 -50.993355 
L 263.563346 -51.251011 
L 266.239948 -51.506618 
L 268.916549 -51.75609 
L 271.593151 -51.995293 
L 274.269752 -52.220138 
L 276.946354 -52.426667 
L 279.622955 -52.611148 
L 282.299557 -52.77016 
L 284.976159 -52.90067 
L 287.65276 -53.00011 
L 290.329362 -53.066431 
L 293.005963 -53.098153 
L 295.682565 -53.094396 
L 298.359167 -53.054897 
L 301.035768 -52.980009 
L 303.71237 -52.870686 
L 306.388971 -52.72845 
L 309.065573 -52.555347 
L 311.742174 -52.353888 
L 314.418776 -52.12698 
L 317.095378 -51.87785 
L 319.771979 -51.609963 
L 322.448581 -51.326936 
L 325.125182 -51.032454 
L 327.801784 -50.730192 
L 330.478385 -50.423729 
L 333.154987 -50.11649 
L 335.831589 -49.811676 
L 338.50819 -49.512216 
L 341.184792 -49.22073 
L 343.861393 -48.939495 
L 346.537995 -48.670432 
L 349.214596 -48.415099 
L 351.891198 -48.174691 
L 354.5678 -47.950054 
L 357.244401 -47.741705 
L 359.921003 -47.549858 
L 362.597604 -47.374454 
L 365.274206 -47.215194 
L 367.950808 -47.071577 
L 370.627409 -46.942934 
L 373.304011 -46.828464 
L 373.304011 -45.459505 
L 373.304011 -45.459505 
L 370.627409 -45.345035 
L 367.950808 -45.216392 
L 365.274206 -45.072774 
L 362.597604 -44.913515 
L 359.921003 -44.738111 
L 357.244401 -44.546264 
L 354.5678 -44.337915 
L 351.891198 -44.113278 
L 349.214596 -43.87287 
L 346.537995 -43.617537 
L 343.861393 -43.348474 
L 341.184792 -43.067239 
L 338.50819 -42.775753 
L 335.831589 -42.476293 
L 333.154987 -42.171478 
L 330.478385 -41.864239 
L 327.801784 -41.557777 
L 325.125182 -41.255514 
L 322.448581 -40.961033 
L 319.771979 -40.678006 
L 317.095378 -40.410118 
L 314.418776 -40.160989 
L 311.742174 -39.934081 
L 309.065573 -39.732621 
L 306.388971 -39.559518 
L 303.71237 -39.417282 
L 301.035768 -39.307959 
L 298.359167 -39.233072 
L 295.682565 -39.193573 
L 293.005963 -39.189816 
L 290.329362 -39.221538 
L 287.65276 -39.287859 
L 284.976159 -39.387298 
L 282.299557 -39.517809 
L 279.622955 -39.67682 
L 276.946354 -39.861302 
L 274.269752 -40.067831 
L 271.593151 -40.292675 
L 268.916549 -40.531879 
L 266.239948 -40.781351 
L 263.563346 -41.036958 
L 260.886744 -41.294614 
L 258.210143 -41.550368 
L 255.533541 -41.80048 
L 252.85694 -42.041497 
L 250.180338 -42.270313 
L 247.503737 -42.484222 
L 244.827135 -42.680959 
L 242.150533 -42.85873 
L 239.473932 -43.016225 
L 236.79733 -43.152629 
L 234.120729 -43.267613 
L 231.444127 -43.361318 
L 228.767526 -43.434333 
L 226.090924 -43.487659 
L 223.414322 -43.522668 
L 220.737721 -43.541058 
L 218.061119 -43.544798 
L 215.384518 -43.536078 
L 212.707916 -43.517246 
L 210.031314 -43.490756 
L 207.354713 -43.459103 
L 204.678111 -43.42477 
L 202.00151 -43.390175 
L 199.324908 -43.357616 
L 196.648307 -43.32923 
L 193.971705 -43.30695 
L 191.295103 -43.29247 
L 188.618502 -43.287218 
L 185.9419 -43.292338 
L 183.265299 -43.308675 
L 180.588697 -43.336773 
L 177.912096 -43.376875 
L 175.235494 -43.428933 
L 172.558892 -43.492629 
L 169.882291 -43.567391 
L 167.205689 -43.652426 
L 164.529088 -43.74675 
L 161.852486 -43.849223 
L 159.175885 -43.958586 
L 156.499283 -44.073497 
L 153.822681 -44.19257 
L 151.14608 -44.31441 
L 148.469478 -44.437645 
L 145.792877 -44.560958 
L 143.116275 -44.683111 
L 140.439673 -44.802969 
L 137.763072 -44.919514 
L 135.08647 -45.031862 
L 132.409869 -45.139265 
L 129.733267 -45.241119 
L 127.056666 -45.336963 
L 124.380064 -45.426472 
L 121.703462 -45.509448 
L 119.026861 -45.585818 
L 116.350259 -45.655611 
L 113.673658 -45.718955 
L 110.997056 -45.776054 
L 108.320455 -45.82718 
z
" style="stroke: #262626; stroke-width: 1.25"/>
    </defs>
    <g clip-path="url(#pc0c09ae021)">
     <use xlink:href="#mb529cd8943" x="0" y="345.6" style="fill: #701070; stroke: #262626; stroke-width: 1.25"/>
    </g>
   </g>
   <g id="line2d_1">
    <path d="M 269.516676 43.760234 
L 396.60997 43.760234 
" clip-path="url(#pc0c09ae021)" style="fill: none; stroke: #262626; stroke-width: 1.875; stroke-linecap: round"/>
   </g>
   <g id="line2d_2">
    <path d="M 319.234165 43.760234 
L 352.542429 43.760234 
" clip-path="url(#pc0c09ae021)" style="fill: none; stroke: #262626; stroke-width: 5.625; stroke-linecap: round"/>
   </g>
   <g id="line2d_3">
    <path d="M 335.167853 43.760234 
" clip-path="url(#pc0c09ae021)" style="fill: none; stroke: #262626; stroke-width: 1.5; stroke-linecap: round"/>
    <defs>
     <path id="m64acb4e716" d="M 0 2.34375 
L 0 -2.34375 
" style="stroke: #ffffff; stroke-width: 1.125"/>
    </defs>
    <g clip-path="url(#pc0c09ae021)">
     <use xlink:href="#m64acb4e716" x="335.167853" y="43.760234" style="fill: #ffffff; stroke: #ffffff; stroke-width: 1.125"/>
    </g>
   </g>
   <g id="line2d_4">
    <path d="M 247.310215 80.288203 
L 373.947381 80.288203 
" clip-path="url(#pc0c09ae021)" style="fill: none; stroke: #262626; stroke-width: 1.875; stroke-linecap: round"/>
   </g>
   <g id="line2d_5">
    <path d="M 295.789478 80.288203 
L 328.779193 80.288203 
" clip-path="url(#pc0c09ae021)" style="fill: none; stroke: #262626; stroke-width: 5.625; stroke-linecap: round"/>
   </g>
   <g id="line2d_6">
    <path d="M 310.733268 80.288203 
" clip-path="url(#pc0c09ae021)" style="fill: none; stroke: #262626; stroke-width: 1.5; stroke-linecap: round"/>
    <g clip-path="url(#pc0c09ae021)">
     <use xlink:href="#m64acb4e716" x="310.733268" y="80.288203" style="fill: #ffffff; stroke: #ffffff; stroke-width: 1.125"/>
    </g>
   </g>
   <g id="line2d_7">
    <path d="M 275.265385 116.816172 
L 359.678935 116.816172 
" clip-path="url(#pc0c09ae021)" style="fill: none; stroke: #262626; stroke-width: 1.875; stroke-linecap: round"/>
   </g>
   <g id="line2d_8">
    <path d="M 290.160652 116.816172 
L 329.510198 116.816172 
" clip-path="url(#pc0c09ae021)" style="fill: none; stroke: #262626; stroke-width: 5.625; stroke-linecap: round"/>
   </g>
   <g id="line2d_9">
    <path d="M 310.848585 116.816172 
" clip-path="url(#pc0c09ae021)" style="fill: none; stroke: #262626; stroke-width: 1.5; stroke-linecap: round"/>
    <g clip-path="url(#pc0c09ae021)">
     <use xlink:href="#m64acb4e716" x="310.848585" y="116.816172" style="fill: #ffffff; stroke: #ffffff; stroke-width: 1.125"/>
    </g>
   </g>
   <g id="line2d_10">
    <path d="M 204.457496 153.344141 
L 381.698148 153.344141 
" clip-path="url(#pc0c09ae021)" style="fill: none; stroke: #262626; stroke-width: 1.875; stroke-linecap: round"/>
   </g>
   <g id="line2d_11">
    <path d="M 271.025783 153.344141 
L 321.295024 153.344141 
" clip-path="url(#pc0c09ae021)" style="fill: none; stroke: #262626; stroke-width: 5.625; stroke-linecap: round"/>
   </g>
   <g id="line2d_12">
    <path d="M 292.985055 153.344141 
" clip-path="url(#pc0c09ae021)" style="fill: none; stroke: #262626; stroke-width: 1.5; stroke-linecap: round"/>
    <g clip-path="url(#pc0c09ae021)">
     <use xlink:href="#m64acb4e716" x="292.985055" y="153.344141" style="fill: #ffffff; stroke: #ffffff; stroke-width: 1.125"/>
    </g>
   </g>
   <g id="line2d_13">
    <path d="M 258.797359 189.872109 
L 396.60997 189.872109 
" clip-path="url(#pc0c09ae021)" style="fill: none; stroke: #262626; stroke-width: 1.875; stroke-linecap: round"/>
   </g>
   <g id="line2d_14">
    <path d="M 310.72285 189.872109 
L 348.446687 189.872109 
" clip-path="url(#pc0c09ae021)" style="fill: none; stroke: #262626; stroke-width: 5.625; stroke-linecap: round"/>
   </g>
   <g id="line2d_15">
    <path d="M 328.26198 189.872109 
" clip-path="url(#pc0c09ae021)" style="fill: none; stroke: #262626; stroke-width: 1.5; stroke-linecap: round"/>
    <g clip-path="url(#pc0c09ae021)">
     <use xlink:href="#m64acb4e716" x="328.26198" y="189.872109" style="fill: #ffffff; stroke: #ffffff; stroke-width: 1.125"/>
    </g>
   </g>
   <g id="line2d_16">
    <path d="M 280.821139 226.400078 
L 393.351416 226.400078 
" clip-path="url(#pc0c09ae021)" style="fill: none; stroke: #262626; stroke-width: 1.875; stroke-linecap: round"/>
   </g>
   <g id="line2d_17">
    <path d="M 319.339064 226.400078 
L 352.086157 226.400078 
" clip-path="url(#pc0c09ae021)" style="fill: none; stroke: #262626; stroke-width: 5.625; stroke-linecap: round"/>
   </g>
   <g id="line2d_18">
    <path d="M 340.943679 226.400078 
" clip-path="url(#pc0c09ae021)" style="fill: none; stroke: #262626; stroke-width: 1.5; stroke-linecap: round"/>
    <g clip-path="url(#pc0c09ae021)">
     <use xlink:href="#m64acb4e716" x="340.943679" y="226.400078" style="fill: #ffffff; stroke: #ffffff; stroke-width: 1.125"/>
    </g>
   </g>
   <g id="line2d_19">
    <path d="M 287.716736 262.928047 
L 369.893599 262.928047 
" clip-path="url(#pc0c09ae021)" style="fill: none; stroke: #262626; stroke-width: 1.875; stroke-linecap: round"/>
   </g>
   <g id="line2d_20">
    <path d="M 316.019141 262.928047 
L 340.815946 262.928047 
" clip-path="url(#pc0c09ae021)" style="fill: none; stroke: #262626; stroke-width: 5.625; stroke-linecap: round"/>
   </g>
   <g id="line2d_21">
    <path d="M 330.98334 262.928047 
" clip-path="url(#pc0c09ae021)" style="fill: none; stroke: #262626; stroke-width: 1.5; stroke-linecap: round"/>
    <g clip-path="url(#pc0c09ae021)">
     <use xlink:href="#m64acb4e716" x="330.98334" y="262.928047" style="fill: #ffffff; stroke: #ffffff; stroke-width: 1.125"/>
    </g>
   </g>
   <g id="line2d_22">
    <path d="M 181.22974 299.456016 
L 300.394725 299.456016 
" clip-path="url(#pc0c09ae021)" style="fill: none; stroke: #262626; stroke-width: 1.875; stroke-linecap: round"/>
   </g>
   <g id="line2d_23">
    <path d="M 239.406168 299.456016 
L 294.123665 299.456016 
" clip-path="url(#pc0c09ae021)" style="fill: none; stroke: #262626; stroke-width: 5.625; stroke-linecap: round"/>
   </g>
   <g id="line2d_24">
    <path d="M 293.273632 299.456016 
" clip-path="url(#pc0c09ae021)" style="fill: none; stroke: #262626; stroke-width: 1.5; stroke-linecap: round"/>
    <g clip-path="url(#pc0c09ae021)">
     <use xlink:href="#m64acb4e716" x="293.273632" y="299.456016" style="fill: #ffffff; stroke: #ffffff; stroke-width: 1.125"/>
    </g>
   </g>
   <g id="patch_3">
    <path d="M 92.05 317.72 
L 92.05 25.49625 
" style="fill: none; stroke: #ffffff; stroke-width: 0.8; stroke-linejoin: miter; stroke-linecap: square"/>
   </g>
   <g id="patch_4">
    <path d="M 450 317.72 
L 450 25.49625 
" style="fill: none; stroke: #ffffff; stroke-width: 0.8; stroke-linejoin: miter; stroke-linecap: square"/>
   </g>
   <g id="patch_5">
    <path d="M 92.05 317.72 
L 450 317.72 
" style="fill: none; stroke: #ffffff; stroke-width: 0.8; stroke-linejoin: miter; stroke-linecap: square"/>
   </g>
   <g id="patch_6">
    <path d="M 92.05 25.49625 
L 450 25.49625 
" style="fill: none; stroke: #ffffff; stroke-width: 0.8; stroke-linejoin: miter; stroke-linecap: square"/>
   </g>
   <g id="text_15">
    <!-- game_type -->
    <g style="fill: #262626" transform="translate(241.340937 19.49625) scale(0.12 -0.12)">
     <defs>
      <path id="ArialMT-5f" d="M -97 -1272 
L -97 -866 
L 3631 -866 
L 3631 -1272 
L -97 -1272 
z
" transform="scale(0.015625)"/>
      <path id="ArialMT-70" d="M 422 -1272 
L 422 3319 
L 934 3319 
L 934 2888 
Q 1116 3141 1344 3267 
Q 1572 3394 1897 3394 
Q 2322 3394 2647 3175 
Q 2972 2956 3137 2557 
Q 3303 2159 3303 1684 
Q 3303 1175 3120 767 
Q 2938 359 2589 142 
Q 2241 -75 1856 -75 
Q 1575 -75 1351 44 
Q 1128 163 984 344 
L 984 -1272 
L 422 -1272 
z
M 931 1641 
Q 931 1000 1190 694 
Q 1450 388 1819 388 
Q 2194 388 2461 705 
Q 2728 1022 2728 1688 
Q 2728 2322 2467 2637 
Q 2206 2953 1844 2953 
Q 1484 2953 1207 2617 
Q 931 2281 931 1641 
z
" transform="scale(0.015625)"/>
     </defs>
     <use xlink:href="#ArialMT-67"/>
     <use xlink:href="#ArialMT-61" x="55.615234"/>
     <use xlink:href="#ArialMT-6d" x="111.230469"/>
     <use xlink:href="#ArialMT-65" x="194.53125"/>
     <use xlink:href="#ArialMT-5f" x="250.146484"/>
     <use xlink:href="#ArialMT-74" x="305.761719"/>
     <use xlink:href="#ArialMT-79" x="333.544922"/>
     <use xlink:href="#ArialMT-70" x="383.544922"/>
     <use xlink:href="#ArialMT-65" x="439.160156"/>
    </g>
   </g>
  </g>
 </g>
 <defs>
  <clipPath id="pc0c09ae021">
   <rect x="92.05" y="25.49625" width="357.95" height="292.22375"/>
  </clipPath>
 </defs>
</svg>
