<?xml version="1.0" encoding="utf-8" standalone="no"?>
<!DOCTYPE svg PUBLIC "-//W3C//DTD SVG 1.1//EN"
  "http://www.w3.org/Graphics/SVG/1.1/DTD/svg11.dtd">
<svg xmlns:xlink="http://www.w3.org/1999/xlink" width="460.8pt" height="345.6pt" viewBox="0 0 460.8 345.6" xmlns="http://www.w3.org/2000/svg" version="1.1">
 <metadata>
  <rdf:RDF xmlns:dc="http://purl.org/dc/elements/1.1/" xmlns:cc="http://creativecommons.org/ns#" xmlns:rdf="http://www.w3.org/1999/02/22-rdf-syntax-ns#">
   <cc:Work>
    <dc:type rdf:resource="http://purl.org/dc/dcmitype/StillImage"/>
    <dc:date>2024-09-13T21:36:29.711630</dc:date>
    <dc:format>image/svg+xml</dc:format>
    <dc:creator>
     <cc:Agent>
      <dc:title>Matplotlib v3.9.2, https://matplotlib.org/</dc:title>
     </cc:Agent>
    </dc:creator>
   </cc:Work>
  </rdf:RDF>
 </metadata>
 <defs>
  <style type="text/css">*{stroke-linejoin: round; stroke-linecap: butt}</style>
 </defs>
 <g id="figure_1">
  <g id="patch_1">
   <path d="M 0 345.6 
L 460.8 345.6 
L 460.8 0 
L 0 0 
z
" style="fill: #ffffff"/>
  </g>
  <g id="axes_1">
   <g id="patch_2">
    <path d="M 106.13 303.64 
L 450 303.64 
L 450 25.49625 
L 106.13 25.49625 
z
" style="fill: #eaeaf2"/>
   </g>
   <g id="matplotlib.axis_1">
    <g id="xtick_1">
     <g id="text_1">
      <!-- 3 -->
      <g style="fill: #262626" transform="translate(113.200412 317.797812) scale(0.1 -0.1)">
       <defs>
        <path id="ArialMT-33" d="M 269 1209 
L 831 1284 
Q 928 806 1161 595 
Q 1394 384 1728 384 
Q 2125 384 2398 659 
Q 2672 934 2672 1341 
Q 2672 1728 2419 1979 
Q 2166 2231 1775 2231 
Q 1616 2231 1378 2169 
L 1441 2663 
Q 1497 2656 1531 2656 
Q 1891 2656 2178 2843 
Q 2466 3031 2466 3422 
Q 2466 3731 2256 3934 
Q 2047 4138 1716 4138 
Q 1388 4138 1169 3931 
Q 950 3725 888 3313 
L 325 3413 
Q 428 3978 793 4289 
Q 1159 4600 1703 4600 
Q 2078 4600 2393 4439 
Q 2709 4278 2876 4000 
Q 3044 3722 3044 3409 
Q 3044 3113 2884 2869 
Q 2725 2625 2413 2481 
Q 2819 2388 3044 2092 
Q 3269 1797 3269 1353 
Q 3269 753 2831 336 
Q 2394 -81 1725 -81 
Q 1122 -81 723 278 
Q 325 638 269 1209 
z
" transform="scale(0.015625)"/>
       </defs>
       <use xlink:href="#ArialMT-33"/>
      </g>
     </g>
    </g>
    <g id="xtick_2">
     <g id="text_2">
      <!-- 4 -->
      <g style="fill: #262626" transform="translate(166.247696 317.797812) scale(0.1 -0.1)">
       <defs>
        <path id="ArialMT-34" d="M 2069 0 
L 2069 1097 
L 81 1097 
L 81 1613 
L 2172 4581 
L 2631 4581 
L 2631 1613 
L 3250 1613 
L 3250 1097 
L 2631 1097 
L 2631 0 
L 2069 0 
z
M 2069 1613 
L 2069 3678 
L 634 1613 
L 2069 1613 
z
" transform="scale(0.015625)"/>
       </defs>
       <use xlink:href="#ArialMT-34"/>
      </g>
     </g>
    </g>
    <g id="xtick_3">
     <g id="text_3">
      <!-- 5 -->
      <g style="fill: #262626" transform="translate(219.29498 317.797812) scale(0.1 -0.1)">
       <defs>
        <path id="ArialMT-35" d="M 266 1200 
L 856 1250 
Q 922 819 1161 601 
Q 1400 384 1738 384 
Q 2144 384 2425 690 
Q 2706 997 2706 1503 
Q 2706 1984 2436 2262 
Q 2166 2541 1728 2541 
Q 1456 2541 1237 2417 
Q 1019 2294 894 2097 
L 366 2166 
L 809 4519 
L 3088 4519 
L 3088 3981 
L 1259 3981 
L 1013 2750 
Q 1425 3038 1878 3038 
Q 2478 3038 2890 2622 
Q 3303 2206 3303 1553 
Q 3303 931 2941 478 
Q 2500 -78 1738 -78 
Q 1113 -78 717 272 
Q 322 622 266 1200 
z
" transform="scale(0.015625)"/>
       </defs>
       <use xlink:href="#ArialMT-35"/>
      </g>
     </g>
    </g>
    <g id="xtick_4">
     <g id="text_4">
      <!-- 6 -->
      <g style="fill: #262626" transform="translate(272.342264 317.797812) scale(0.1 -0.1)">
       <defs>
        <path id="ArialMT-36" d="M 3184 3459 
L 2625 3416 
Q 2550 3747 2413 3897 
Q 2184 4138 1850 4138 
Q 1581 4138 1378 3988 
Q 1113 3794 959 3422 
Q 806 3050 800 2363 
Q 1003 2672 1297 2822 
Q 1591 2972 1913 2972 
Q 2475 2972 2870 2558 
Q 3266 2144 3266 1488 
Q 3266 1056 3080 686 
Q 2894 316 2569 119 
Q 2244 -78 1831 -78 
Q 1128 -78 684 439 
Q 241 956 241 2144 
Q 241 3472 731 4075 
Q 1159 4600 1884 4600 
Q 2425 4600 2770 4297 
Q 3116 3994 3184 3459 
z
M 888 1484 
Q 888 1194 1011 928 
Q 1134 663 1356 523 
Q 1578 384 1822 384 
Q 2178 384 2434 671 
Q 2691 959 2691 1453 
Q 2691 1928 2437 2201 
Q 2184 2475 1800 2475 
Q 1419 2475 1153 2201 
Q 888 1928 888 1484 
z
" transform="scale(0.015625)"/>
       </defs>
       <use xlink:href="#ArialMT-36"/>
      </g>
     </g>
    </g>
    <g id="xtick_5">
     <g id="text_5">
      <!-- 7 -->
      <g style="fill: #262626" transform="translate(325.389548 317.797812) scale(0.1 -0.1)">
       <defs>
        <path id="ArialMT-37" d="M 303 3981 
L 303 4522 
L 3269 4522 
L 3269 4084 
Q 2831 3619 2401 2847 
Q 1972 2075 1738 1259 
Q 1569 684 1522 0 
L 944 0 
Q 953 541 1156 1306 
Q 1359 2072 1739 2783 
Q 2119 3494 2547 3981 
L 303 3981 
z
" transform="scale(0.015625)"/>
       </defs>
       <use xlink:href="#ArialMT-37"/>
      </g>
     </g>
    </g>
    <g id="xtick_6">
     <g id="text_6">
      <!-- 8 -->
      <g style="fill: #262626" transform="translate(378.436831 317.797812) scale(0.1 -0.1)">
       <defs>
        <path id="ArialMT-38" d="M 1131 2484 
Q 781 2613 612 2850 
Q 444 3088 444 3419 
Q 444 3919 803 4259 
Q 1163 4600 1759 4600 
Q 2359 4600 2725 4251 
Q 3091 3903 3091 3403 
Q 3091 3084 2923 2848 
Q 2756 2613 2416 2484 
Q 2838 2347 3058 2040 
Q 3278 1734 3278 1309 
Q 3278 722 2862 322 
Q 2447 -78 1769 -78 
Q 1091 -78 675 323 
Q 259 725 259 1325 
Q 259 1772 486 2073 
Q 713 2375 1131 2484 
z
M 1019 3438 
Q 1019 3113 1228 2906 
Q 1438 2700 1772 2700 
Q 2097 2700 2305 2904 
Q 2513 3109 2513 3406 
Q 2513 3716 2298 3927 
Q 2084 4138 1766 4138 
Q 1444 4138 1231 3931 
Q 1019 3725 1019 3438 
z
M 838 1322 
Q 838 1081 952 856 
Q 1066 631 1291 507 
Q 1516 384 1775 384 
Q 2178 384 2440 643 
Q 2703 903 2703 1303 
Q 2703 1709 2433 1975 
Q 2163 2241 1756 2241 
Q 1359 2241 1098 1978 
Q 838 1716 838 1322 
z
" transform="scale(0.015625)"/>
       </defs>
       <use xlink:href="#ArialMT-38"/>
      </g>
     </g>
    </g>
    <g id="xtick_7">
     <g id="text_7">
      <!-- 9 -->
      <g style="fill: #262626" transform="translate(431.484115 317.797812) scale(0.1 -0.1)">
       <defs>
        <path id="ArialMT-39" d="M 350 1059 
L 891 1109 
Q 959 728 1153 556 
Q 1347 384 1650 384 
Q 1909 384 2104 503 
Q 2300 622 2425 820 
Q 2550 1019 2634 1356 
Q 2719 1694 2719 2044 
Q 2719 2081 2716 2156 
Q 2547 1888 2255 1720 
Q 1963 1553 1622 1553 
Q 1053 1553 659 1965 
Q 266 2378 266 3053 
Q 266 3750 677 4175 
Q 1088 4600 1706 4600 
Q 2153 4600 2523 4359 
Q 2894 4119 3086 3673 
Q 3278 3228 3278 2384 
Q 3278 1506 3087 986 
Q 2897 466 2520 194 
Q 2144 -78 1638 -78 
Q 1100 -78 759 220 
Q 419 519 350 1059 
z
M 2653 3081 
Q 2653 3566 2395 3850 
Q 2138 4134 1775 4134 
Q 1400 4134 1122 3828 
Q 844 3522 844 3034 
Q 844 2597 1108 2323 
Q 1372 2050 1759 2050 
Q 2150 2050 2401 2323 
Q 2653 2597 2653 3081 
z
" transform="scale(0.015625)"/>
       </defs>
       <use xlink:href="#ArialMT-39"/>
      </g>
     </g>
    </g>
    <g id="text_8">
     <!-- Rating -->
     <g style="fill: #262626" transform="translate(263.612656 330.943125) scale(0.1 -0.1)">
      <defs>
       <path id="ArialMT-52" d="M 503 0 
L 503 4581 
L 2534 4581 
Q 3147 4581 3465 4457 
Q 3784 4334 3975 4021 
Q 4166 3709 4166 3331 
Q 4166 2844 3850 2509 
Q 3534 2175 2875 2084 
Q 3116 1969 3241 1856 
Q 3506 1613 3744 1247 
L 4541 0 
L 3778 0 
L 3172 953 
Q 2906 1366 2734 1584 
Q 2563 1803 2427 1890 
Q 2291 1978 2150 2013 
Q 2047 2034 1813 2034 
L 1109 2034 
L 1109 0 
L 503 0 
z
M 1109 2559 
L 2413 2559 
Q 2828 2559 3062 2645 
Q 3297 2731 3419 2920 
Q 3541 3109 3541 3331 
Q 3541 3656 3305 3865 
Q 3069 4075 2559 4075 
L 1109 4075 
L 1109 2559 
z
" transform="scale(0.015625)"/>
       <path id="ArialMT-61" d="M 2588 409 
Q 2275 144 1986 34 
Q 1697 -75 1366 -75 
Q 819 -75 525 192 
Q 231 459 231 875 
Q 231 1119 342 1320 
Q 453 1522 633 1644 
Q 813 1766 1038 1828 
Q 1203 1872 1538 1913 
Q 2219 1994 2541 2106 
Q 2544 2222 2544 2253 
Q 2544 2597 2384 2738 
Q 2169 2928 1744 2928 
Q 1347 2928 1158 2789 
Q 969 2650 878 2297 
L 328 2372 
Q 403 2725 575 2942 
Q 747 3159 1072 3276 
Q 1397 3394 1825 3394 
Q 2250 3394 2515 3294 
Q 2781 3194 2906 3042 
Q 3031 2891 3081 2659 
Q 3109 2516 3109 2141 
L 3109 1391 
Q 3109 606 3145 398 
Q 3181 191 3288 0 
L 2700 0 
Q 2613 175 2588 409 
z
M 2541 1666 
Q 2234 1541 1622 1453 
Q 1275 1403 1131 1340 
Q 988 1278 909 1158 
Q 831 1038 831 891 
Q 831 666 1001 516 
Q 1172 366 1500 366 
Q 1825 366 2078 508 
Q 2331 650 2450 897 
Q 2541 1088 2541 1459 
L 2541 1666 
z
" transform="scale(0.015625)"/>
       <path id="ArialMT-74" d="M 1650 503 
L 1731 6 
Q 1494 -44 1306 -44 
Q 1000 -44 831 53 
Q 663 150 594 308 
Q 525 466 525 972 
L 525 2881 
L 113 2881 
L 113 3319 
L 525 3319 
L 525 4141 
L 1084 4478 
L 1084 3319 
L 1650 3319 
L 1650 2881 
L 1084 2881 
L 1084 941 
Q 1084 700 1114 631 
Q 1144 563 1211 522 
Q 1278 481 1403 481 
Q 1497 481 1650 503 
z
" transform="scale(0.015625)"/>
       <path id="ArialMT-69" d="M 425 3934 
L 425 4581 
L 988 4581 
L 988 3934 
L 425 3934 
z
M 425 0 
L 425 3319 
L 988 3319 
L 988 0 
L 425 0 
z
" transform="scale(0.015625)"/>
       <path id="ArialMT-6e" d="M 422 0 
L 422 3319 
L 928 3319 
L 928 2847 
Q 1294 3394 1984 3394 
Q 2284 3394 2536 3286 
Q 2788 3178 2913 3003 
Q 3038 2828 3088 2588 
Q 3119 2431 3119 2041 
L 3119 0 
L 2556 0 
L 2556 2019 
Q 2556 2363 2490 2533 
Q 2425 2703 2258 2804 
Q 2091 2906 1866 2906 
Q 1506 2906 1245 2678 
Q 984 2450 984 1813 
L 984 0 
L 422 0 
z
" transform="scale(0.015625)"/>
       <path id="ArialMT-67" d="M 319 -275 
L 866 -356 
Q 900 -609 1056 -725 
Q 1266 -881 1628 -881 
Q 2019 -881 2231 -725 
Q 2444 -569 2519 -288 
Q 2563 -116 2559 434 
Q 2191 0 1641 0 
Q 956 0 581 494 
Q 206 988 206 1678 
Q 206 2153 378 2554 
Q 550 2956 876 3175 
Q 1203 3394 1644 3394 
Q 2231 3394 2613 2919 
L 2613 3319 
L 3131 3319 
L 3131 450 
Q 3131 -325 2973 -648 
Q 2816 -972 2473 -1159 
Q 2131 -1347 1631 -1347 
Q 1038 -1347 672 -1080 
Q 306 -813 319 -275 
z
M 784 1719 
Q 784 1066 1043 766 
Q 1303 466 1694 466 
Q 2081 466 2343 764 
Q 2606 1063 2606 1700 
Q 2606 2309 2336 2618 
Q 2066 2928 1684 2928 
Q 1309 2928 1046 2623 
Q 784 2319 784 1719 
z
" transform="scale(0.015625)"/>
      </defs>
      <use xlink:href="#ArialMT-52"/>
      <use xlink:href="#ArialMT-61" x="72.216797"/>
      <use xlink:href="#ArialMT-74" x="127.832031"/>
      <use xlink:href="#ArialMT-69" x="155.615234"/>
      <use xlink:href="#ArialMT-6e" x="177.832031"/>
      <use xlink:href="#ArialMT-67" x="233.447266"/>
     </g>
    </g>
   </g>
   <g id="matplotlib.axis_2">
    <g id="ytick_1">
     <g id="text_9">
      <!-- Children's Game -->
      <g style="fill: #262626" transform="translate(24.97375 46.459141) scale(0.1 -0.1)">
       <defs>
        <path id="ArialMT-43" d="M 3763 1606 
L 4369 1453 
Q 4178 706 3683 314 
Q 3188 -78 2472 -78 
Q 1731 -78 1267 223 
Q 803 525 561 1097 
Q 319 1669 319 2325 
Q 319 3041 592 3573 
Q 866 4106 1370 4382 
Q 1875 4659 2481 4659 
Q 3169 4659 3637 4309 
Q 4106 3959 4291 3325 
L 3694 3184 
Q 3534 3684 3231 3912 
Q 2928 4141 2469 4141 
Q 1941 4141 1586 3887 
Q 1231 3634 1087 3207 
Q 944 2781 944 2328 
Q 944 1744 1114 1308 
Q 1284 872 1643 656 
Q 2003 441 2422 441 
Q 2931 441 3284 734 
Q 3638 1028 3763 1606 
z
" transform="scale(0.015625)"/>
        <path id="ArialMT-68" d="M 422 0 
L 422 4581 
L 984 4581 
L 984 2938 
Q 1378 3394 1978 3394 
Q 2347 3394 2619 3248 
Q 2891 3103 3008 2847 
Q 3125 2591 3125 2103 
L 3125 0 
L 2563 0 
L 2563 2103 
Q 2563 2525 2380 2717 
Q 2197 2909 1863 2909 
Q 1613 2909 1392 2779 
Q 1172 2650 1078 2428 
Q 984 2206 984 1816 
L 984 0 
L 422 0 
z
" transform="scale(0.015625)"/>
        <path id="ArialMT-6c" d="M 409 0 
L 409 4581 
L 972 4581 
L 972 0 
L 409 0 
z
" transform="scale(0.015625)"/>
        <path id="ArialMT-64" d="M 2575 0 
L 2575 419 
Q 2259 -75 1647 -75 
Q 1250 -75 917 144 
Q 584 363 401 755 
Q 219 1147 219 1656 
Q 219 2153 384 2558 
Q 550 2963 881 3178 
Q 1213 3394 1622 3394 
Q 1922 3394 2156 3267 
Q 2391 3141 2538 2938 
L 2538 4581 
L 3097 4581 
L 3097 0 
L 2575 0 
z
M 797 1656 
Q 797 1019 1065 703 
Q 1334 388 1700 388 
Q 2069 388 2326 689 
Q 2584 991 2584 1609 
Q 2584 2291 2321 2609 
Q 2059 2928 1675 2928 
Q 1300 2928 1048 2622 
Q 797 2316 797 1656 
z
" transform="scale(0.015625)"/>
        <path id="ArialMT-72" d="M 416 0 
L 416 3319 
L 922 3319 
L 922 2816 
Q 1116 3169 1280 3281 
Q 1444 3394 1641 3394 
Q 1925 3394 2219 3213 
L 2025 2691 
Q 1819 2813 1613 2813 
Q 1428 2813 1281 2702 
Q 1134 2591 1072 2394 
Q 978 2094 978 1738 
L 978 0 
L 416 0 
z
" transform="scale(0.015625)"/>
        <path id="ArialMT-65" d="M 2694 1069 
L 3275 997 
Q 3138 488 2766 206 
Q 2394 -75 1816 -75 
Q 1088 -75 661 373 
Q 234 822 234 1631 
Q 234 2469 665 2931 
Q 1097 3394 1784 3394 
Q 2450 3394 2872 2941 
Q 3294 2488 3294 1666 
Q 3294 1616 3291 1516 
L 816 1516 
Q 847 969 1125 678 
Q 1403 388 1819 388 
Q 2128 388 2347 550 
Q 2566 713 2694 1069 
z
M 847 1978 
L 2700 1978 
Q 2663 2397 2488 2606 
Q 2219 2931 1791 2931 
Q 1403 2931 1139 2672 
Q 875 2413 847 1978 
z
" transform="scale(0.015625)"/>
        <path id="ArialMT-27" d="M 425 2959 
L 281 3816 
L 281 4581 
L 922 4581 
L 922 3816 
L 772 2959 
L 425 2959 
z
" transform="scale(0.015625)"/>
        <path id="ArialMT-73" d="M 197 991 
L 753 1078 
Q 800 744 1014 566 
Q 1228 388 1613 388 
Q 2000 388 2187 545 
Q 2375 703 2375 916 
Q 2375 1106 2209 1216 
Q 2094 1291 1634 1406 
Q 1016 1563 777 1677 
Q 538 1791 414 1992 
Q 291 2194 291 2438 
Q 291 2659 392 2848 
Q 494 3038 669 3163 
Q 800 3259 1026 3326 
Q 1253 3394 1513 3394 
Q 1903 3394 2198 3281 
Q 2494 3169 2634 2976 
Q 2775 2784 2828 2463 
L 2278 2388 
Q 2241 2644 2061 2787 
Q 1881 2931 1553 2931 
Q 1166 2931 1000 2803 
Q 834 2675 834 2503 
Q 834 2394 903 2306 
Q 972 2216 1119 2156 
Q 1203 2125 1616 2013 
Q 2213 1853 2448 1751 
Q 2684 1650 2818 1456 
Q 2953 1263 2953 975 
Q 2953 694 2789 445 
Q 2625 197 2315 61 
Q 2006 -75 1616 -75 
Q 969 -75 630 194 
Q 291 463 197 991 
z
" transform="scale(0.015625)"/>
        <path id="ArialMT-20" transform="scale(0.015625)"/>
        <path id="ArialMT-47" d="M 2638 1797 
L 2638 2334 
L 4578 2338 
L 4578 638 
Q 4131 281 3656 101 
Q 3181 -78 2681 -78 
Q 2006 -78 1454 211 
Q 903 500 622 1047 
Q 341 1594 341 2269 
Q 341 2938 620 3517 
Q 900 4097 1425 4378 
Q 1950 4659 2634 4659 
Q 3131 4659 3532 4498 
Q 3934 4338 4162 4050 
Q 4391 3763 4509 3300 
L 3963 3150 
Q 3859 3500 3706 3700 
Q 3553 3900 3268 4020 
Q 2984 4141 2638 4141 
Q 2222 4141 1919 4014 
Q 1616 3888 1430 3681 
Q 1244 3475 1141 3228 
Q 966 2803 966 2306 
Q 966 1694 1177 1281 
Q 1388 869 1791 669 
Q 2194 469 2647 469 
Q 3041 469 3416 620 
Q 3791 772 3984 944 
L 3984 1797 
L 2638 1797 
z
" transform="scale(0.015625)"/>
        <path id="ArialMT-6d" d="M 422 0 
L 422 3319 
L 925 3319 
L 925 2853 
Q 1081 3097 1340 3245 
Q 1600 3394 1931 3394 
Q 2300 3394 2536 3241 
Q 2772 3088 2869 2813 
Q 3263 3394 3894 3394 
Q 4388 3394 4653 3120 
Q 4919 2847 4919 2278 
L 4919 0 
L 4359 0 
L 4359 2091 
Q 4359 2428 4304 2576 
Q 4250 2725 4106 2815 
Q 3963 2906 3769 2906 
Q 3419 2906 3187 2673 
Q 2956 2441 2956 1928 
L 2956 0 
L 2394 0 
L 2394 2156 
Q 2394 2531 2256 2718 
Q 2119 2906 1806 2906 
Q 1569 2906 1367 2781 
Q 1166 2656 1075 2415 
Q 984 2175 984 1722 
L 984 0 
L 422 0 
z
" transform="scale(0.015625)"/>
       </defs>
       <use xlink:href="#ArialMT-43"/>
       <use xlink:href="#ArialMT-68" x="72.216797"/>
       <use xlink:href="#ArialMT-69" x="127.832031"/>
       <use xlink:href="#ArialMT-6c" x="150.048828"/>
       <use xlink:href="#ArialMT-64" x="172.265625"/>
       <use xlink:href="#ArialMT-72" x="227.880859"/>
       <use xlink:href="#ArialMT-65" x="261.181641"/>
       <use xlink:href="#ArialMT-6e" x="316.796875"/>
       <use xlink:href="#ArialMT-27" x="372.412109"/>
       <use xlink:href="#ArialMT-73" x="391.503906"/>
       <use xlink:href="#ArialMT-20" x="441.503906"/>
       <use xlink:href="#ArialMT-47" x="469.287109"/>
       <use xlink:href="#ArialMT-61" x="547.070312"/>
       <use xlink:href="#ArialMT-6d" x="602.685547"/>
       <use xlink:href="#ArialMT-65" x="685.986328"/>
      </g>
     </g>
    </g>
    <g id="ytick_2">
     <g id="text_10">
      <!-- Party Game -->
      <g style="fill: #262626" transform="translate(45.783125 81.288047) scale(0.1 -0.1)">
       <defs>
        <path id="ArialMT-50" d="M 494 0 
L 494 4581 
L 2222 4581 
Q 2678 4581 2919 4538 
Q 3256 4481 3484 4323 
Q 3713 4166 3852 3881 
Q 3991 3597 3991 3256 
Q 3991 2672 3619 2267 
Q 3247 1863 2275 1863 
L 1100 1863 
L 1100 0 
L 494 0 
z
M 1100 2403 
L 2284 2403 
Q 2872 2403 3119 2622 
Q 3366 2841 3366 3238 
Q 3366 3525 3220 3729 
Q 3075 3934 2838 4000 
Q 2684 4041 2272 4041 
L 1100 4041 
L 1100 2403 
z
" transform="scale(0.015625)"/>
        <path id="ArialMT-79" d="M 397 -1278 
L 334 -750 
Q 519 -800 656 -800 
Q 844 -800 956 -737 
Q 1069 -675 1141 -563 
Q 1194 -478 1313 -144 
Q 1328 -97 1363 -6 
L 103 3319 
L 709 3319 
L 1400 1397 
Q 1534 1031 1641 628 
Q 1738 1016 1872 1384 
L 2581 3319 
L 3144 3319 
L 1881 -56 
Q 1678 -603 1566 -809 
Q 1416 -1088 1222 -1217 
Q 1028 -1347 759 -1347 
Q 597 -1347 397 -1278 
z
" transform="scale(0.015625)"/>
       </defs>
       <use xlink:href="#ArialMT-50"/>
       <use xlink:href="#ArialMT-61" x="66.699219"/>
       <use xlink:href="#ArialMT-72" x="122.314453"/>
       <use xlink:href="#ArialMT-74" x="155.615234"/>
       <use xlink:href="#ArialMT-79" x="183.398438"/>
       <use xlink:href="#ArialMT-20" x="233.398438"/>
       <use xlink:href="#ArialMT-47" x="261.181641"/>
       <use xlink:href="#ArialMT-61" x="338.964844"/>
       <use xlink:href="#ArialMT-6d" x="394.580078"/>
       <use xlink:href="#ArialMT-65" x="477.880859"/>
      </g>
     </g>
    </g>
    <g id="ytick_3">
     <g id="text_11">
      <!-- Abstract Game -->
      <g style="fill: #262626" transform="translate(32.444063 115.995078) scale(0.1 -0.1)">
       <defs>
        <path id="ArialMT-41" d="M -9 0 
L 1750 4581 
L 2403 4581 
L 4278 0 
L 3588 0 
L 3053 1388 
L 1138 1388 
L 634 0 
L -9 0 
z
M 1313 1881 
L 2866 1881 
L 2388 3150 
Q 2169 3728 2063 4100 
Q 1975 3659 1816 3225 
L 1313 1881 
z
" transform="scale(0.015625)"/>
        <path id="ArialMT-62" d="M 941 0 
L 419 0 
L 419 4581 
L 981 4581 
L 981 2947 
Q 1338 3394 1891 3394 
Q 2197 3394 2470 3270 
Q 2744 3147 2920 2923 
Q 3097 2700 3197 2384 
Q 3297 2069 3297 1709 
Q 3297 856 2875 390 
Q 2453 -75 1863 -75 
Q 1275 -75 941 416 
L 941 0 
z
M 934 1684 
Q 934 1088 1097 822 
Q 1363 388 1816 388 
Q 2184 388 2453 708 
Q 2722 1028 2722 1663 
Q 2722 2313 2464 2622 
Q 2206 2931 1841 2931 
Q 1472 2931 1203 2611 
Q 934 2291 934 1684 
z
" transform="scale(0.015625)"/>
        <path id="ArialMT-63" d="M 2588 1216 
L 3141 1144 
Q 3050 572 2676 248 
Q 2303 -75 1759 -75 
Q 1078 -75 664 370 
Q 250 816 250 1647 
Q 250 2184 428 2587 
Q 606 2991 970 3192 
Q 1334 3394 1763 3394 
Q 2303 3394 2647 3120 
Q 2991 2847 3088 2344 
L 2541 2259 
Q 2463 2594 2264 2762 
Q 2066 2931 1784 2931 
Q 1359 2931 1093 2626 
Q 828 2322 828 1663 
Q 828 994 1084 691 
Q 1341 388 1753 388 
Q 2084 388 2306 591 
Q 2528 794 2588 1216 
z
" transform="scale(0.015625)"/>
       </defs>
       <use xlink:href="#ArialMT-41"/>
       <use xlink:href="#ArialMT-62" x="66.699219"/>
       <use xlink:href="#ArialMT-73" x="122.314453"/>
       <use xlink:href="#ArialMT-74" x="172.314453"/>
       <use xlink:href="#ArialMT-72" x="200.097656"/>
       <use xlink:href="#ArialMT-61" x="233.398438"/>
       <use xlink:href="#ArialMT-63" x="289.013672"/>
       <use xlink:href="#ArialMT-74" x="339.013672"/>
       <use xlink:href="#ArialMT-20" x="366.796875"/>
       <use xlink:href="#ArialMT-47" x="394.580078"/>
       <use xlink:href="#ArialMT-61" x="472.363281"/>
       <use xlink:href="#ArialMT-6d" x="527.978516"/>
       <use xlink:href="#ArialMT-65" x="611.279297"/>
      </g>
     </g>
    </g>
    <g id="ytick_4">
     <g id="text_12">
      <!-- Family Game -->
      <g style="fill: #262626" transform="translate(39.68 150.823984) scale(0.1 -0.1)">
       <defs>
        <path id="ArialMT-46" d="M 525 0 
L 525 4581 
L 3616 4581 
L 3616 4041 
L 1131 4041 
L 1131 2622 
L 3281 2622 
L 3281 2081 
L 1131 2081 
L 1131 0 
L 525 0 
z
" transform="scale(0.015625)"/>
       </defs>
       <use xlink:href="#ArialMT-46"/>
       <use xlink:href="#ArialMT-61" x="61.083984"/>
       <use xlink:href="#ArialMT-6d" x="116.699219"/>
       <use xlink:href="#ArialMT-69" x="200"/>
       <use xlink:href="#ArialMT-6c" x="222.216797"/>
       <use xlink:href="#ArialMT-79" x="244.433594"/>
       <use xlink:href="#ArialMT-20" x="294.433594"/>
       <use xlink:href="#ArialMT-47" x="322.216797"/>
       <use xlink:href="#ArialMT-61" x="400"/>
       <use xlink:href="#ArialMT-6d" x="455.615234"/>
       <use xlink:href="#ArialMT-65" x="538.916016"/>
      </g>
     </g>
    </g>
    <g id="ytick_5">
     <g id="text_13">
      <!-- Customizable -->
      <g style="fill: #262626" transform="translate(38.551875 185.531016) scale(0.1 -0.1)">
       <defs>
        <path id="ArialMT-75" d="M 2597 0 
L 2597 488 
Q 2209 -75 1544 -75 
Q 1250 -75 995 37 
Q 741 150 617 320 
Q 494 491 444 738 
Q 409 903 409 1263 
L 409 3319 
L 972 3319 
L 972 1478 
Q 972 1038 1006 884 
Q 1059 663 1231 536 
Q 1403 409 1656 409 
Q 1909 409 2131 539 
Q 2353 669 2445 892 
Q 2538 1116 2538 1541 
L 2538 3319 
L 3100 3319 
L 3100 0 
L 2597 0 
z
" transform="scale(0.015625)"/>
        <path id="ArialMT-6f" d="M 213 1659 
Q 213 2581 725 3025 
Q 1153 3394 1769 3394 
Q 2453 3394 2887 2945 
Q 3322 2497 3322 1706 
Q 3322 1066 3130 698 
Q 2938 331 2570 128 
Q 2203 -75 1769 -75 
Q 1072 -75 642 372 
Q 213 819 213 1659 
z
M 791 1659 
Q 791 1022 1069 705 
Q 1347 388 1769 388 
Q 2188 388 2466 706 
Q 2744 1025 2744 1678 
Q 2744 2294 2464 2611 
Q 2184 2928 1769 2928 
Q 1347 2928 1069 2612 
Q 791 2297 791 1659 
z
" transform="scale(0.015625)"/>
        <path id="ArialMT-7a" d="M 125 0 
L 125 456 
L 2238 2881 
Q 1878 2863 1603 2863 
L 250 2863 
L 250 3319 
L 2963 3319 
L 2963 2947 
L 1166 841 
L 819 456 
Q 1197 484 1528 484 
L 3063 484 
L 3063 0 
L 125 0 
z
" transform="scale(0.015625)"/>
       </defs>
       <use xlink:href="#ArialMT-43"/>
       <use xlink:href="#ArialMT-75" x="72.216797"/>
       <use xlink:href="#ArialMT-73" x="127.832031"/>
       <use xlink:href="#ArialMT-74" x="177.832031"/>
       <use xlink:href="#ArialMT-6f" x="205.615234"/>
       <use xlink:href="#ArialMT-6d" x="261.230469"/>
       <use xlink:href="#ArialMT-69" x="344.53125"/>
       <use xlink:href="#ArialMT-7a" x="366.748047"/>
       <use xlink:href="#ArialMT-61" x="416.748047"/>
       <use xlink:href="#ArialMT-62" x="472.363281"/>
       <use xlink:href="#ArialMT-6c" x="527.978516"/>
       <use xlink:href="#ArialMT-65" x="550.195312"/>
      </g>
     </g>
    </g>
    <g id="ytick_6">
     <g id="text_14">
      <!-- Thematic -->
      <g style="fill: #262626" transform="translate(58.009688 220.298984) scale(0.1 -0.1)">
       <defs>
        <path id="ArialMT-54" d="M 1659 0 
L 1659 4041 
L 150 4041 
L 150 4581 
L 3781 4581 
L 3781 4041 
L 2266 4041 
L 2266 0 
L 1659 0 
z
" transform="scale(0.015625)"/>
       </defs>
       <use xlink:href="#ArialMT-54"/>
       <use xlink:href="#ArialMT-68" x="61.083984"/>
       <use xlink:href="#ArialMT-65" x="116.699219"/>
       <use xlink:href="#ArialMT-6d" x="172.314453"/>
       <use xlink:href="#ArialMT-61" x="255.615234"/>
       <use xlink:href="#ArialMT-74" x="311.230469"/>
       <use xlink:href="#ArialMT-69" x="339.013672"/>
       <use xlink:href="#ArialMT-63" x="361.230469"/>
      </g>
     </g>
    </g>
    <g id="ytick_7">
     <g id="text_15">
      <!-- War Game -->
      <g style="fill: #262626" transform="translate(51.1675 255.066953) scale(0.1 -0.1)">
       <defs>
        <path id="ArialMT-57" d="M 1294 0 
L 78 4581 
L 700 4581 
L 1397 1578 
Q 1509 1106 1591 641 
Q 1766 1375 1797 1488 
L 2669 4581 
L 3400 4581 
L 4056 2263 
Q 4303 1400 4413 641 
Q 4500 1075 4641 1638 
L 5359 4581 
L 5969 4581 
L 4713 0 
L 4128 0 
L 3163 3491 
Q 3041 3928 3019 4028 
Q 2947 3713 2884 3491 
L 1913 0 
L 1294 0 
z
" transform="scale(0.015625)"/>
       </defs>
       <use xlink:href="#ArialMT-57"/>
       <use xlink:href="#ArialMT-61" x="90.634766"/>
       <use xlink:href="#ArialMT-72" x="146.25"/>
       <use xlink:href="#ArialMT-20" x="179.550781"/>
       <use xlink:href="#ArialMT-47" x="207.333984"/>
       <use xlink:href="#ArialMT-61" x="285.117188"/>
       <use xlink:href="#ArialMT-6d" x="340.732422"/>
       <use xlink:href="#ArialMT-65" x="424.033203"/>
      </g>
     </g>
    </g>
    <g id="ytick_8">
     <g id="text_16">
      <!-- Strategy Game -->
      <g style="fill: #262626" transform="translate(31.883125 289.895859) scale(0.1 -0.1)">
       <defs>
        <path id="ArialMT-53" d="M 288 1472 
L 859 1522 
Q 900 1178 1048 958 
Q 1197 738 1509 602 
Q 1822 466 2213 466 
Q 2559 466 2825 569 
Q 3091 672 3220 851 
Q 3350 1031 3350 1244 
Q 3350 1459 3225 1620 
Q 3100 1781 2813 1891 
Q 2628 1963 1997 2114 
Q 1366 2266 1113 2400 
Q 784 2572 623 2826 
Q 463 3081 463 3397 
Q 463 3744 659 4045 
Q 856 4347 1234 4503 
Q 1613 4659 2075 4659 
Q 2584 4659 2973 4495 
Q 3363 4331 3572 4012 
Q 3781 3694 3797 3291 
L 3216 3247 
Q 3169 3681 2898 3903 
Q 2628 4125 2100 4125 
Q 1550 4125 1298 3923 
Q 1047 3722 1047 3438 
Q 1047 3191 1225 3031 
Q 1400 2872 2139 2705 
Q 2878 2538 3153 2413 
Q 3553 2228 3743 1945 
Q 3934 1663 3934 1294 
Q 3934 928 3725 604 
Q 3516 281 3123 101 
Q 2731 -78 2241 -78 
Q 1619 -78 1198 103 
Q 778 284 539 648 
Q 300 1013 288 1472 
z
" transform="scale(0.015625)"/>
       </defs>
       <use xlink:href="#ArialMT-53"/>
       <use xlink:href="#ArialMT-74" x="66.699219"/>
       <use xlink:href="#ArialMT-72" x="94.482422"/>
       <use xlink:href="#ArialMT-61" x="127.783203"/>
       <use xlink:href="#ArialMT-74" x="183.398438"/>
       <use xlink:href="#ArialMT-65" x="211.181641"/>
       <use xlink:href="#ArialMT-67" x="266.796875"/>
       <use xlink:href="#ArialMT-79" x="322.412109"/>
       <use xlink:href="#ArialMT-20" x="372.412109"/>
       <use xlink:href="#ArialMT-47" x="400.195312"/>
       <use xlink:href="#ArialMT-61" x="477.978516"/>
       <use xlink:href="#ArialMT-6d" x="533.59375"/>
       <use xlink:href="#ArialMT-65" x="616.894531"/>
      </g>
     </g>
    </g>
    <g id="text_17">
     <!-- Game type -->
     <g style="fill: #262626" transform="translate(18.869063 189.022031) rotate(-90) scale(0.1 -0.1)">
      <defs>
       <path id="ArialMT-70" d="M 422 -1272 
L 422 3319 
L 934 3319 
L 934 2888 
Q 1116 3141 1344 3267 
Q 1572 3394 1897 3394 
Q 2322 3394 2647 3175 
Q 2972 2956 3137 2557 
Q 3303 2159 3303 1684 
Q 3303 1175 3120 767 
Q 2938 359 2589 142 
Q 2241 -75 1856 -75 
Q 1575 -75 1351 44 
Q 1128 163 984 344 
L 984 -1272 
L 422 -1272 
z
M 931 1641 
Q 931 1000 1190 694 
Q 1450 388 1819 388 
Q 2194 388 2461 705 
Q 2728 1022 2728 1688 
Q 2728 2322 2467 2637 
Q 2206 2953 1844 2953 
Q 1484 2953 1207 2617 
Q 931 2281 931 1641 
z
" transform="scale(0.015625)"/>
      </defs>
      <use xlink:href="#ArialMT-47"/>
      <use xlink:href="#ArialMT-61" x="77.783203"/>
      <use xlink:href="#ArialMT-6d" x="133.398438"/>
      <use xlink:href="#ArialMT-65" x="216.699219"/>
      <use xlink:href="#ArialMT-20" x="272.314453"/>
      <use xlink:href="#ArialMT-74" x="300.097656"/>
      <use xlink:href="#ArialMT-79" x="327.880859"/>
      <use xlink:href="#ArialMT-70" x="377.880859"/>
      <use xlink:href="#ArialMT-65" x="433.496094"/>
     </g>
    </g>
   </g>
   <g id="PolyCollection_1">
    <defs>
     <path id="m1d80ae1e71" d="M 85.26019 -302.713205 
L 85.26019 -302.726326 
L 88.69686 -302.731773 
L 92.13353 -302.739489 
L 95.5702 -302.748844 
L 99.006869 -302.758274 
L 102.443539 -302.765666 
L 105.880209 -302.769281 
L 109.316879 -302.76883 
L 112.753549 -302.76611 
L 116.190219 -302.764837 
L 119.626889 -302.76971 
L 123.063559 -302.785088 
L 126.500229 -302.813719 
L 129.936899 -302.855868 
L 133.373569 -302.90916 
L 136.810239 -302.969352 
L 140.246908 -303.031992 
L 143.683578 -303.09452 
L 147.120248 -303.158049 
L 150.556918 -303.228 
L 153.993588 -303.313072 
L 157.430258 -303.422713 
L 160.866928 -303.56414 
L 164.303598 -303.74057 
L 167.740268 -303.951888 
L 171.176938 -304.197376 
L 174.613608 -304.47821 
L 178.050277 -304.797059 
L 181.486947 -305.154066 
L 184.923617 -305.541747 
L 188.360287 -305.943045 
L 191.796957 -306.335347 
L 195.233627 -306.699271 
L 198.670297 -307.027573 
L 202.106967 -307.328911 
L 205.543637 -307.624126 
L 208.980307 -307.937136 
L 212.416977 -308.285657 
L 215.853646 -308.676847 
L 219.290316 -309.109536 
L 222.726986 -309.580262 
L 226.163656 -310.087746 
L 229.600326 -310.631515 
L 233.036996 -311.204563 
L 236.473666 -311.784649 
L 239.910336 -312.33121 
L 243.347006 -312.792945 
L 246.783676 -313.125442 
L 250.220346 -313.311622 
L 253.657016 -313.37426 
L 257.093685 -313.371843 
L 260.530355 -313.376425 
L 263.967025 -313.441719 
L 267.403695 -313.576773 
L 270.840365 -313.739906 
L 274.277035 -313.857434 
L 277.713705 -313.857092 
L 281.150375 -313.697183 
L 284.587045 -313.376645 
L 288.023715 -312.924795 
L 291.460385 -312.381536 
L 294.897054 -311.780776 
L 298.333724 -311.143403 
L 301.770394 -310.478753 
L 305.207064 -309.790358 
L 308.643734 -309.082265 
L 312.080404 -308.363431 
L 315.517074 -307.648803 
L 318.953744 -306.957102 
L 322.390414 -306.30704 
L 325.827084 -305.714076 
L 329.263754 -305.188684 
L 332.700423 -304.73573 
L 336.137093 -304.354459 
L 339.573763 -304.039316 
L 343.010433 -303.78198 
L 346.447103 -303.574108 
L 349.883773 -303.409285 
L 353.320443 -303.282859 
L 356.757113 -303.189893 
L 360.193783 -303.123104 
L 363.630453 -303.072846 
L 367.067123 -303.029517 
L 370.503793 -302.986674 
L 373.940462 -302.942574 
L 377.377132 -302.899237 
L 380.813802 -302.860105 
L 384.250472 -302.82801 
L 387.687142 -302.804344 
L 391.123812 -302.789082 
L 394.560482 -302.780962 
L 397.997152 -302.777616 
L 401.433822 -302.775986 
L 404.870492 -302.773197 
L 408.307162 -302.767561 
L 411.743831 -302.759089 
L 415.180501 -302.749156 
L 418.617171 -302.739595 
L 422.053841 -302.731806 
L 425.490511 -302.726335 
L 425.490511 -302.713197 
L 425.490511 -302.713197 
L 422.053841 -302.707725 
L 418.617171 -302.699936 
L 415.180501 -302.690375 
L 411.743831 -302.680442 
L 408.307162 -302.67197 
L 404.870492 -302.666334 
L 401.433822 -302.663545 
L 397.997152 -302.661915 
L 394.560482 -302.65857 
L 391.123812 -302.650449 
L 387.687142 -302.635187 
L 384.250472 -302.611521 
L 380.813802 -302.579426 
L 377.377132 -302.540294 
L 373.940462 -302.496958 
L 370.503793 -302.452857 
L 367.067123 -302.410015 
L 363.630453 -302.366685 
L 360.193783 -302.316427 
L 356.757113 -302.249638 
L 353.320443 -302.156672 
L 349.883773 -302.030246 
L 346.447103 -301.865423 
L 343.010433 -301.657551 
L 339.573763 -301.400215 
L 336.137093 -301.085072 
L 332.700423 -300.703802 
L 329.263754 -300.250848 
L 325.827084 -299.725456 
L 322.390414 -299.132491 
L 318.953744 -298.482429 
L 315.517074 -297.790728 
L 312.080404 -297.0761 
L 308.643734 -296.357267 
L 305.207064 -295.649173 
L 301.770394 -294.960779 
L 298.333724 -294.296129 
L 294.897054 -293.658756 
L 291.460385 -293.057995 
L 288.023715 -292.514736 
L 284.587045 -292.062887 
L 281.150375 -291.742348 
L 277.713705 -291.582439 
L 274.277035 -291.582097 
L 270.840365 -291.699626 
L 267.403695 -291.862758 
L 263.967025 -291.997812 
L 260.530355 -292.063107 
L 257.093685 -292.067688 
L 253.657016 -292.065272 
L 250.220346 -292.127909 
L 246.783676 -292.31409 
L 243.347006 -292.646586 
L 239.910336 -293.108322 
L 236.473666 -293.654882 
L 233.036996 -294.234968 
L 229.600326 -294.808016 
L 226.163656 -295.351786 
L 222.726986 -295.859269 
L 219.290316 -296.329995 
L 215.853646 -296.762684 
L 212.416977 -297.153874 
L 208.980307 -297.502396 
L 205.543637 -297.815405 
L 202.106967 -298.110621 
L 198.670297 -298.411958 
L 195.233627 -298.740261 
L 191.796957 -299.104185 
L 188.360287 -299.496486 
L 184.923617 -299.897785 
L 181.486947 -300.285465 
L 178.050277 -300.642473 
L 174.613608 -300.961321 
L 171.176938 -301.242155 
L 167.740268 -301.487643 
L 164.303598 -301.698962 
L 160.866928 -301.875392 
L 157.430258 -302.016819 
L 153.993588 -302.126459 
L 150.556918 -302.211531 
L 147.120248 -302.281483 
L 143.683578 -302.345011 
L 140.246908 -302.407539 
L 136.810239 -302.470179 
L 133.373569 -302.530371 
L 129.936899 -302.583664 
L 126.500229 -302.625812 
L 123.063559 -302.654443 
L 119.626889 -302.669821 
L 116.190219 -302.674694 
L 112.753549 -302.673421 
L 109.316879 -302.670701 
L 105.880209 -302.67025 
L 102.443539 -302.673866 
L 99.006869 -302.681257 
L 95.5702 -302.690687 
L 92.13353 -302.700042 
L 88.69686 -302.707758 
L 85.26019 -302.713205 
z
" style="stroke: #262626; stroke-width: 1.25"/>
    </defs>
    <g clip-path="url(#p41f28d026e)">
     <use xlink:href="#m1d80ae1e71" x="0" y="345.6" style="fill: #701070; stroke: #262626; stroke-width: 1.25"/>
    </g>
   </g>
   <g id="PolyCollection_2">
    <defs>
     <path id="m0c9f3ecc07" d="M 115.254743 -267.942564 
L 115.254743 -267.96103 
L 118.318136 -267.96913 
L 121.38153 -267.981676 
L 124.444923 -267.999255 
L 127.508316 -268.021535 
L 130.57171 -268.047043 
L 133.635103 -268.073332 
L 136.698496 -268.097593 
L 139.76189 -268.11753 
L 142.825283 -268.132198 
L 145.888676 -268.142362 
L 148.952069 -268.150113 
L 152.015463 -268.157794 
L 155.078856 -268.16679 
L 158.142249 -268.176915 
L 161.205643 -268.186858 
L 164.269036 -268.195464 
L 167.332429 -268.203059 
L 170.395823 -268.211952 
L 173.459216 -268.22563 
L 176.522609 -268.247024 
L 179.586002 -268.276838 
L 182.649396 -268.313162 
L 185.712789 -268.352837 
L 188.776182 -268.393882 
L 191.839576 -268.437459 
L 194.902969 -268.488131 
L 197.966362 -268.552391 
L 201.029756 -268.636602 
L 204.093149 -268.745727 
L 207.156542 -268.883431 
L 210.219935 -269.053027 
L 213.283329 -269.258231 
L 216.346722 -269.503054 
L 219.410115 -269.791074 
L 222.473509 -270.12486 
L 225.536902 -270.50608 
L 228.600295 -270.93574 
L 231.663689 -271.41322 
L 234.727082 -271.933292 
L 237.790475 -272.482433 
L 240.853868 -273.037831 
L 243.917262 -273.57209 
L 246.980655 -274.063135 
L 250.044048 -274.50447 
L 253.107442 -274.909699 
L 256.170835 -275.308355 
L 259.234228 -275.735151 
L 262.297622 -276.217981 
L 265.361015 -276.769499 
L 268.424408 -277.384335 
L 271.487801 -278.041255 
L 274.551195 -278.708097 
L 277.614588 -279.347283 
L 280.677981 -279.920564 
L 283.741375 -280.393117 
L 286.804768 -280.738051 
L 289.868161 -280.941745 
L 292.931555 -281.007965 
L 295.994948 -280.956926 
L 299.058341 -280.817026 
L 302.121734 -280.612013 
L 305.185128 -280.350855 
L 308.248521 -280.026865 
L 311.311914 -279.62669 
L 314.375308 -279.143123 
L 317.438701 -278.583648 
L 320.502094 -277.970118 
L 323.565488 -277.330748 
L 326.628881 -276.68953 
L 329.692274 -276.05868 
L 332.755667 -275.437512 
L 335.819061 -274.817789 
L 338.882454 -274.192283 
L 341.945847 -273.561519 
L 345.009241 -272.93481 
L 348.072634 -272.325653 
L 351.136027 -271.745424 
L 354.199421 -271.200106 
L 357.262814 -270.691681 
L 360.326207 -270.221916 
L 363.3896 -269.794857 
L 366.452994 -269.416253 
L 369.516387 -269.090968 
L 372.57978 -268.820686 
L 375.643174 -268.603318 
L 378.706567 -268.433895 
L 381.76996 -268.305961 
L 384.833354 -268.212614 
L 387.896747 -268.146983 
L 390.96014 -268.102354 
L 394.023533 -268.072273 
L 397.086927 -268.050918 
L 400.15032 -268.03371 
L 403.213713 -268.017869 
L 406.277107 -268.002518 
L 409.3405 -267.988173 
L 412.403893 -267.975874 
L 415.467287 -267.966393 
L 418.53068 -267.959864 
L 418.53068 -267.94373 
L 418.53068 -267.94373 
L 415.467287 -267.937201 
L 412.403893 -267.92772 
L 409.3405 -267.915421 
L 406.277107 -267.901076 
L 403.213713 -267.885724 
L 400.15032 -267.869884 
L 397.086927 -267.852676 
L 394.023533 -267.831321 
L 390.96014 -267.80124 
L 387.896747 -267.756611 
L 384.833354 -267.69098 
L 381.76996 -267.597632 
L 378.706567 -267.469699 
L 375.643174 -267.300276 
L 372.57978 -267.082907 
L 369.516387 -266.812626 
L 366.452994 -266.487341 
L 363.3896 -266.108737 
L 360.326207 -265.681678 
L 357.262814 -265.211912 
L 354.199421 -264.703488 
L 351.136027 -264.15817 
L 348.072634 -263.577941 
L 345.009241 -262.968784 
L 341.945847 -262.342075 
L 338.882454 -261.71131 
L 335.819061 -261.085805 
L 332.755667 -260.466082 
L 329.692274 -259.844914 
L 326.628881 -259.214064 
L 323.565488 -258.572846 
L 320.502094 -257.933476 
L 317.438701 -257.319946 
L 314.375308 -256.760471 
L 311.311914 -256.276904 
L 308.248521 -255.876729 
L 305.185128 -255.552739 
L 302.121734 -255.291581 
L 299.058341 -255.086568 
L 295.994948 -254.946667 
L 292.931555 -254.895629 
L 289.868161 -254.961848 
L 286.804768 -255.165542 
L 283.741375 -255.510477 
L 280.677981 -255.983029 
L 277.614588 -256.556311 
L 274.551195 -257.195496 
L 271.487801 -257.862339 
L 268.424408 -258.519258 
L 265.361015 -259.134095 
L 262.297622 -259.685613 
L 259.234228 -260.168443 
L 256.170835 -260.595239 
L 253.107442 -260.993894 
L 250.044048 -261.399124 
L 246.980655 -261.840458 
L 243.917262 -262.331504 
L 240.853868 -262.865763 
L 237.790475 -263.421161 
L 234.727082 -263.970302 
L 231.663689 -264.490374 
L 228.600295 -264.967854 
L 225.536902 -265.397514 
L 222.473509 -265.778734 
L 219.410115 -266.11252 
L 216.346722 -266.400539 
L 213.283329 -266.645363 
L 210.219935 -266.850566 
L 207.156542 -267.020163 
L 204.093149 -267.157867 
L 201.029756 -267.266992 
L 197.966362 -267.351203 
L 194.902969 -267.415463 
L 191.839576 -267.466135 
L 188.776182 -267.509711 
L 185.712789 -267.550757 
L 182.649396 -267.590432 
L 179.586002 -267.626756 
L 176.522609 -267.65657 
L 173.459216 -267.677964 
L 170.395823 -267.691642 
L 167.332429 -267.700534 
L 164.269036 -267.70813 
L 161.205643 -267.716735 
L 158.142249 -267.726679 
L 155.078856 -267.736804 
L 152.015463 -267.7458 
L 148.952069 -267.753481 
L 145.888676 -267.761232 
L 142.825283 -267.771396 
L 139.76189 -267.786064 
L 136.698496 -267.806001 
L 133.635103 -267.830261 
L 130.57171 -267.856551 
L 127.508316 -267.882059 
L 124.444923 -267.904339 
L 121.38153 -267.921918 
L 118.318136 -267.934463 
L 115.254743 -267.942564 
z
" style="stroke: #262626; stroke-width: 1.25"/>
    </defs>
    <g clip-path="url(#p41f28d026e)">
     <use xlink:href="#m0c9f3ecc07" x="0" y="345.6" style="fill: #701070; stroke: #262626; stroke-width: 1.25"/>
    </g>
   </g>
   <g id="PolyCollection_3">
    <defs>
     <path id="m070577cf08" d="M 136.266912 -233.178111 
L 136.266912 -233.189545 
L 139.311597 -233.194253 
L 142.356281 -233.20116 
L 145.400966 -233.210277 
L 148.445651 -233.221278 
L 151.490335 -233.233841 
L 154.53502 -233.24818 
L 157.579704 -233.265403 
L 160.624389 -233.287227 
L 163.669074 -233.31502 
L 166.713758 -233.348639 
L 169.758443 -233.385966 
L 172.803127 -233.423742 
L 175.847812 -233.45961 
L 178.892497 -233.494439 
L 181.937181 -233.533607 
L 184.981866 -233.586226 
L 188.02655 -233.662207 
L 191.071235 -233.768232 
L 194.11592 -233.904541 
L 197.160604 -234.064381 
L 200.205289 -234.236906 
L 203.249974 -234.412567 
L 206.294658 -234.588481 
L 209.339343 -234.770876 
L 212.384027 -234.97293 
L 215.428712 -235.20881 
L 218.473397 -235.486962 
L 221.518081 -235.806283 
L 224.562766 -236.157259 
L 227.60745 -236.527416 
L 230.652135 -236.90826 
L 233.69682 -237.300263 
L 236.741504 -237.713566 
L 239.786189 -238.164006 
L 242.830873 -238.666145 
L 245.875558 -239.226001 
L 248.920243 -239.835981 
L 251.964927 -240.473581 
L 255.009612 -241.104614 
L 258.054297 -241.691007 
L 261.098981 -242.20159 
L 264.143666 -242.621767 
L 267.18835 -242.957036 
L 270.233035 -243.227931 
L 273.27772 -243.459084 
L 276.322404 -243.668582 
L 279.367089 -243.863035 
L 282.411773 -244.040043 
L 285.456458 -244.195608 
L 288.501143 -244.331391 
L 291.545827 -244.456138 
L 294.590512 -244.578439 
L 297.635196 -244.694053 
L 300.679881 -244.776743 
L 303.724566 -244.781416 
L 306.76925 -244.660746 
L 309.813935 -244.386514 
L 312.85862 -243.962988 
L 315.903304 -243.42491 
L 318.947989 -242.822674 
L 321.992673 -242.204062 
L 325.037358 -241.601528 
L 328.082043 -241.028814 
L 331.126727 -240.485434 
L 334.171412 -239.96504 
L 337.216096 -239.463618 
L 340.260781 -238.984264 
L 343.305466 -238.536482 
L 346.35015 -238.129919 
L 349.394835 -237.765453 
L 352.43952 -237.429118 
L 355.484204 -237.094101 
L 358.528889 -236.731701 
L 361.573573 -236.325866 
L 364.618258 -235.882577 
L 367.662943 -235.428041 
L 370.707627 -234.996943 
L 373.752312 -234.618099 
L 376.796996 -234.305495 
L 379.841681 -234.057975 
L 382.886366 -233.865165 
L 385.93105 -233.714572 
L 388.975735 -233.596043 
L 392.020419 -233.50277 
L 395.065104 -233.430231 
L 398.109789 -233.374871 
L 401.154473 -233.33347 
L 404.199158 -233.303129 
L 407.243843 -233.281373 
L 410.288527 -233.266032 
L 413.333212 -233.255003 
L 416.377896 -233.246181 
L 419.422581 -233.237763 
L 422.467266 -233.228706 
L 425.51195 -233.218976 
L 428.556635 -233.209337 
L 431.601319 -233.200812 
L 434.646004 -233.194135 
L 437.690689 -233.189509 
L 437.690689 -233.178147 
L 437.690689 -233.178147 
L 434.646004 -233.173521 
L 431.601319 -233.166845 
L 428.556635 -233.158319 
L 425.51195 -233.148681 
L 422.467266 -233.13895 
L 419.422581 -233.129894 
L 416.377896 -233.121475 
L 413.333212 -233.112653 
L 410.288527 -233.101624 
L 407.243843 -233.086284 
L 404.199158 -233.064527 
L 401.154473 -233.034186 
L 398.109789 -232.992785 
L 395.065104 -232.937426 
L 392.020419 -232.864886 
L 388.975735 -232.771613 
L 385.93105 -232.653084 
L 382.886366 -232.502491 
L 379.841681 -232.309681 
L 376.796996 -232.062161 
L 373.752312 -231.749557 
L 370.707627 -231.370713 
L 367.662943 -230.939615 
L 364.618258 -230.48508 
L 361.573573 -230.04179 
L 358.528889 -229.635956 
L 355.484204 -229.273555 
L 352.43952 -228.938538 
L 349.394835 -228.602203 
L 346.35015 -228.237737 
L 343.305466 -227.831174 
L 340.260781 -227.383392 
L 337.216096 -226.904038 
L 334.171412 -226.402616 
L 331.126727 -225.882222 
L 328.082043 -225.338842 
L 325.037358 -224.766128 
L 321.992673 -224.163594 
L 318.947989 -223.544983 
L 315.903304 -222.942747 
L 312.85862 -222.404668 
L 309.813935 -221.981142 
L 306.76925 -221.706911 
L 303.724566 -221.58624 
L 300.679881 -221.590914 
L 297.635196 -221.673603 
L 294.590512 -221.789218 
L 291.545827 -221.911518 
L 288.501143 -222.036265 
L 285.456458 -222.172049 
L 282.411773 -222.327614 
L 279.367089 -222.504621 
L 276.322404 -222.699074 
L 273.27772 -222.908572 
L 270.233035 -223.139725 
L 267.18835 -223.41062 
L 264.143666 -223.745889 
L 261.098981 -224.166067 
L 258.054297 -224.676649 
L 255.009612 -225.263042 
L 251.964927 -225.894075 
L 248.920243 -226.531676 
L 245.875558 -227.141656 
L 242.830873 -227.701511 
L 239.786189 -228.20365 
L 236.741504 -228.65409 
L 233.69682 -229.067393 
L 230.652135 -229.459397 
L 227.60745 -229.84024 
L 224.562766 -230.210398 
L 221.518081 -230.561374 
L 218.473397 -230.880695 
L 215.428712 -231.158846 
L 212.384027 -231.394726 
L 209.339343 -231.59678 
L 206.294658 -231.779175 
L 203.249974 -231.95509 
L 200.205289 -232.130751 
L 197.160604 -232.303276 
L 194.11592 -232.463115 
L 191.071235 -232.599424 
L 188.02655 -232.705449 
L 184.981866 -232.78143 
L 181.937181 -232.834049 
L 178.892497 -232.873217 
L 175.847812 -232.908046 
L 172.803127 -232.943915 
L 169.758443 -232.98169 
L 166.713758 -233.019017 
L 163.669074 -233.052636 
L 160.624389 -233.080429 
L 157.579704 -233.102254 
L 154.53502 -233.119476 
L 151.490335 -233.133815 
L 148.445651 -233.146378 
L 145.400966 -233.157379 
L 142.356281 -233.166496 
L 139.311597 -233.173403 
L 136.266912 -233.178111 
z
" style="stroke: #262626; stroke-width: 1.25"/>
    </defs>
    <g clip-path="url(#p41f28d026e)">
     <use xlink:href="#m070577cf08" x="0" y="345.6" style="fill: #701070; stroke: #262626; stroke-width: 1.25"/>
    </g>
   </g>
   <g id="PolyCollection_4">
    <defs>
     <path id="m25de3b3168" d="M 118.381755 -198.412769 
L 118.381755 -198.41895 
L 121.574217 -198.422776 
L 124.766678 -198.428457 
L 127.95914 -198.43456 
L 131.151601 -198.438606 
L 134.344063 -198.439029 
L 137.536524 -198.437204 
L 140.728986 -198.437426 
L 143.921447 -198.444359 
L 147.113908 -198.459617 
L 150.30637 -198.479927 
L 153.498831 -198.498734 
L 156.691293 -198.510685 
L 159.883754 -198.515457 
L 163.076216 -198.517752 
L 166.268677 -198.523722 
L 169.461139 -198.53634 
L 172.6536 -198.552708 
L 175.846062 -198.56619 
L 179.038523 -198.572981 
L 182.230985 -198.577064 
L 185.423446 -198.588029 
L 188.615908 -198.614074 
L 191.808369 -198.657335 
L 195.000831 -198.714472 
L 198.193292 -198.779907 
L 201.385754 -198.849149 
L 204.578215 -198.921856 
L 207.770677 -199.003745 
L 210.963138 -199.104195 
L 214.1556 -199.22832 
L 217.348061 -199.371116 
L 220.540523 -199.524655 
L 223.732984 -199.693581 
L 226.925446 -199.898861 
L 230.117907 -200.164864 
L 233.310369 -200.509552 
L 236.50283 -200.947378 
L 239.695291 -201.485807 
L 242.887753 -202.105435 
L 246.080214 -202.751535 
L 249.272676 -203.363162 
L 252.465137 -203.916158 
L 255.657599 -204.43323 
L 258.85006 -204.95607 
L 262.042522 -205.519129 
L 265.234983 -206.146887 
L 268.427445 -206.853162 
L 271.619906 -207.627226 
L 274.812368 -208.430147 
L 278.004829 -209.218564 
L 281.197291 -209.967498 
L 284.389752 -210.660396 
L 287.582214 -211.264889 
L 290.774675 -211.736857 
L 293.967137 -212.054265 
L 297.159598 -212.23665 
L 300.35206 -212.321566 
L 303.544521 -212.323047 
L 306.736983 -212.216156 
L 309.929444 -211.959451 
L 313.121906 -211.533344 
L 316.314367 -210.966455 
L 319.506829 -210.33077 
L 322.69929 -209.702835 
L 325.891752 -209.114126 
L 329.084213 -208.528457 
L 332.276675 -207.865931 
L 335.469136 -207.058122 
L 338.661597 -206.101494 
L 341.854059 -205.077867 
L 345.04652 -204.12122 
L 348.238982 -203.34003 
L 351.431443 -202.748873 
L 354.623905 -202.268727 
L 357.816366 -201.79525 
L 361.008828 -201.272203 
L 364.201289 -200.714915 
L 367.393751 -200.183675 
L 370.586212 -199.740504 
L 373.778674 -199.416922 
L 376.971135 -199.20382 
L 380.163597 -199.064083 
L 383.356058 -198.958598 
L 386.54852 -198.866773 
L 389.740981 -198.786782 
L 392.933443 -198.720629 
L 396.125904 -198.663451 
L 399.318366 -198.607446 
L 402.510827 -198.551279 
L 405.703289 -198.501621 
L 408.89575 -198.466248 
L 412.088212 -198.447477 
L 415.280673 -198.44125 
L 418.473135 -198.440441 
L 421.665596 -198.439027 
L 424.858058 -198.434665 
L 428.050519 -198.428479 
L 431.242981 -198.422779 
L 434.435442 -198.41895 
L 434.435442 -198.412769 
L 434.435442 -198.412769 
L 431.242981 -198.408939 
L 428.050519 -198.40324 
L 424.858058 -198.397053 
L 421.665596 -198.392691 
L 418.473135 -198.391278 
L 415.280673 -198.390469 
L 412.088212 -198.384241 
L 408.89575 -198.365471 
L 405.703289 -198.330098 
L 402.510827 -198.28044 
L 399.318366 -198.224273 
L 396.125904 -198.168268 
L 392.933443 -198.111089 
L 389.740981 -198.044936 
L 386.54852 -197.964946 
L 383.356058 -197.87312 
L 380.163597 -197.767636 
L 376.971135 -197.627899 
L 373.778674 -197.414797 
L 370.586212 -197.091215 
L 367.393751 -196.648044 
L 364.201289 -196.116804 
L 361.008828 -195.559516 
L 357.816366 -195.036469 
L 354.623905 -194.562991 
L 351.431443 -194.082846 
L 348.238982 -193.491689 
L 345.04652 -192.710499 
L 341.854059 -191.753852 
L 338.661597 -190.730224 
L 335.469136 -189.773597 
L 332.276675 -188.965788 
L 329.084213 -188.303262 
L 325.891752 -187.717593 
L 322.69929 -187.128883 
L 319.506829 -186.500949 
L 316.314367 -185.865264 
L 313.121906 -185.298375 
L 309.929444 -184.872267 
L 306.736983 -184.615563 
L 303.544521 -184.508672 
L 300.35206 -184.510152 
L 297.159598 -184.595069 
L 293.967137 -184.777454 
L 290.774675 -185.094862 
L 287.582214 -185.56683 
L 284.389752 -186.171323 
L 281.197291 -186.864221 
L 278.004829 -187.613155 
L 274.812368 -188.401572 
L 271.619906 -189.204493 
L 268.427445 -189.978557 
L 265.234983 -190.684832 
L 262.042522 -191.31259 
L 258.85006 -191.875649 
L 255.657599 -192.398489 
L 252.465137 -192.91556 
L 249.272676 -193.468557 
L 246.080214 -194.080183 
L 242.887753 -194.726284 
L 239.695291 -195.345912 
L 236.50283 -195.884341 
L 233.310369 -196.322167 
L 230.117907 -196.666855 
L 226.925446 -196.932857 
L 223.732984 -197.138137 
L 220.540523 -197.307064 
L 217.348061 -197.460603 
L 214.1556 -197.603399 
L 210.963138 -197.727524 
L 207.770677 -197.827974 
L 204.578215 -197.909863 
L 201.385754 -197.98257 
L 198.193292 -198.051811 
L 195.000831 -198.117247 
L 191.808369 -198.174384 
L 188.615908 -198.217644 
L 185.423446 -198.243689 
L 182.230985 -198.254655 
L 179.038523 -198.258738 
L 175.846062 -198.265528 
L 172.6536 -198.279011 
L 169.461139 -198.295378 
L 166.268677 -198.307997 
L 163.076216 -198.313967 
L 159.883754 -198.316262 
L 156.691293 -198.321033 
L 153.498831 -198.332984 
L 150.30637 -198.351792 
L 147.113908 -198.372102 
L 143.921447 -198.38736 
L 140.728986 -198.394293 
L 137.536524 -198.394515 
L 134.344063 -198.39269 
L 131.151601 -198.393112 
L 127.95914 -198.397159 
L 124.766678 -198.403262 
L 121.574217 -198.408943 
L 118.381755 -198.412769 
z
" style="stroke: #262626; stroke-width: 1.25"/>
    </defs>
    <g clip-path="url(#p41f28d026e)">
     <use xlink:href="#m25de3b3168" x="0" y="345.6" style="fill: #701070; stroke: #262626; stroke-width: 1.25"/>
    </g>
   </g>
   <g id="PolyCollection_5">
    <defs>
     <path id="m27c58e947a" d="M 37.259513 -163.636071 
L 37.259513 -163.65971 
L 41.721106 -163.667655 
L 46.182698 -163.678514 
L 50.644291 -163.691857 
L 55.105884 -163.706378 
L 59.567476 -163.719984 
L 64.029069 -163.730231 
L 68.490661 -163.73503 
L 72.952254 -163.733342 
L 77.413847 -163.725543 
L 81.875439 -163.713302 
L 86.337032 -163.699028 
L 90.798624 -163.685163 
L 95.260217 -163.673662 
L 99.72181 -163.665842 
L 104.183402 -163.662616 
L 108.644995 -163.664934 
L 113.106587 -163.67416 
L 117.56818 -163.692153 
L 122.029772 -163.720888 
L 126.491365 -163.761676 
L 130.952958 -163.81423 
L 135.41455 -163.876062 
L 139.876143 -163.942657 
L 144.337735 -164.008577 
L 148.799328 -164.069154 
L 153.260921 -164.122049 
L 157.722513 -164.167931 
L 162.184106 -164.210008 
L 166.645698 -164.252772 
L 171.107291 -164.300694 
L 175.568884 -164.357486 
L 180.030476 -164.426015 
L 184.492069 -164.508522 
L 188.953661 -164.606704 
L 193.415254 -164.721522 
L 197.876847 -164.853012 
L 202.338439 -165.000517 
L 206.800032 -165.163545 
L 211.261624 -165.342993 
L 215.723217 -165.542079 
L 220.18481 -165.766282 
L 224.646402 -166.022063 
L 229.107995 -166.314789 
L 233.569587 -166.646924 
L 238.03118 -167.01756 
L 242.492772 -167.423722 
L 246.954365 -167.862833 
L 251.415958 -168.334843 
L 255.87755 -168.842352 
L 260.339143 -169.387899 
L 264.800735 -169.969093 
L 269.262328 -170.573756 
L 273.723921 -171.177864 
L 278.185513 -171.748166 
L 282.647106 -172.249197 
L 287.108698 -172.651998 
L 291.570291 -172.940809 
L 296.031884 -173.115067 
L 300.493476 -173.186599 
L 304.955069 -173.174227 
L 309.416661 -173.098499 
L 313.878254 -172.977979 
L 318.339847 -172.826696 
L 322.801439 -172.651799 
L 327.263032 -172.451352 
L 331.724624 -172.213586 
L 336.186217 -171.919235 
L 340.64781 -171.547398 
L 345.109402 -171.083506 
L 349.570995 -170.526617 
L 354.032587 -169.893193 
L 358.49418 -169.215536 
L 362.955772 -168.534843 
L 367.417365 -167.890875 
L 371.878958 -167.311856 
L 376.34055 -166.808569 
L 380.802143 -166.375017 
L 385.263735 -165.995055 
L 389.725328 -165.651552 
L 394.186921 -165.333731 
L 398.648513 -165.039823 
L 403.110106 -164.774978 
L 407.571698 -164.546657 
L 412.033291 -164.360305 
L 416.494884 -164.217024 
L 420.956476 -164.113424 
L 425.418069 -164.042765 
L 429.879661 -163.996452 
L 434.341254 -163.965362 
L 438.802847 -163.941006 
L 443.264439 -163.91659 
L 447.726032 -163.887899 
L 452.187624 -163.853731 
L 456.649217 -163.815597 
L 461.11081 -163.776734 
L 465.572402 -163.740753 
L 470.033995 -163.71046 
L 474.495587 -163.687206 
L 478.95718 -163.670888 
L 478.95718 -163.624893 
L 478.95718 -163.624893 
L 474.495587 -163.608576 
L 470.033995 -163.585321 
L 465.572402 -163.555028 
L 461.11081 -163.519048 
L 456.649217 -163.480184 
L 452.187624 -163.44205 
L 447.726032 -163.407882 
L 443.264439 -163.379192 
L 438.802847 -163.354775 
L 434.341254 -163.330419 
L 429.879661 -163.29933 
L 425.418069 -163.253016 
L 420.956476 -163.182357 
L 416.494884 -163.078757 
L 412.033291 -162.935476 
L 407.571698 -162.749124 
L 403.110106 -162.520803 
L 398.648513 -162.255958 
L 394.186921 -161.96205 
L 389.725328 -161.644229 
L 385.263735 -161.300726 
L 380.802143 -160.920764 
L 376.34055 -160.487212 
L 371.878958 -159.983925 
L 367.417365 -159.404906 
L 362.955772 -158.760938 
L 358.49418 -158.080246 
L 354.032587 -157.402589 
L 349.570995 -156.769165 
L 345.109402 -156.212276 
L 340.64781 -155.748383 
L 336.186217 -155.376547 
L 331.724624 -155.082195 
L 327.263032 -154.84443 
L 322.801439 -154.643983 
L 318.339847 -154.469085 
L 313.878254 -154.317802 
L 309.416661 -154.197282 
L 304.955069 -154.121555 
L 300.493476 -154.109182 
L 296.031884 -154.180715 
L 291.570291 -154.354972 
L 287.108698 -154.643783 
L 282.647106 -155.046584 
L 278.185513 -155.547616 
L 273.723921 -156.117917 
L 269.262328 -156.722025 
L 264.800735 -157.326689 
L 260.339143 -157.907883 
L 255.87755 -158.45343 
L 251.415958 -158.960938 
L 246.954365 -159.432948 
L 242.492772 -159.872059 
L 238.03118 -160.278221 
L 233.569587 -160.648857 
L 229.107995 -160.980992 
L 224.646402 -161.273718 
L 220.18481 -161.529499 
L 215.723217 -161.753703 
L 211.261624 -161.952788 
L 206.800032 -162.132237 
L 202.338439 -162.295265 
L 197.876847 -162.442769 
L 193.415254 -162.574259 
L 188.953661 -162.689077 
L 184.492069 -162.787259 
L 180.030476 -162.869766 
L 175.568884 -162.938295 
L 171.107291 -162.995087 
L 166.645698 -163.04301 
L 162.184106 -163.085773 
L 157.722513 -163.12785 
L 153.260921 -163.173732 
L 148.799328 -163.226627 
L 144.337735 -163.287204 
L 139.876143 -163.353124 
L 135.41455 -163.41972 
L 130.952958 -163.481552 
L 126.491365 -163.534105 
L 122.029772 -163.574893 
L 117.56818 -163.603629 
L 113.106587 -163.621621 
L 108.644995 -163.630847 
L 104.183402 -163.633165 
L 99.72181 -163.629939 
L 95.260217 -163.622119 
L 90.798624 -163.610618 
L 86.337032 -163.596753 
L 81.875439 -163.582479 
L 77.413847 -163.570238 
L 72.952254 -163.562439 
L 68.490661 -163.560751 
L 64.029069 -163.565551 
L 59.567476 -163.575798 
L 55.105884 -163.589403 
L 50.644291 -163.603925 
L 46.182698 -163.617267 
L 41.721106 -163.628126 
L 37.259513 -163.636071 
z
" style="stroke: #262626; stroke-width: 1.25"/>
    </defs>
    <g clip-path="url(#p41f28d026e)">
     <use xlink:href="#m27c58e947a" x="0" y="345.6" style="fill: #701070; stroke: #262626; stroke-width: 1.25"/>
    </g>
   </g>
   <g id="PolyCollection_6">
    <defs>
     <path id="m10e66751c9" d="M 112.081124 -128.875808 
L 112.081124 -128.884035 
L 115.639933 -128.88771 
L 119.198741 -128.89297 
L 122.757549 -128.899274 
L 126.316357 -128.905343 
L 129.875165 -128.909562 
L 133.433973 -128.910801 
L 136.992781 -128.909257 
L 140.551589 -128.906824 
L 144.110397 -128.906753 
L 147.669205 -128.912736 
L 151.228013 -128.927643 
L 154.786821 -128.952136 
L 158.345629 -128.983637 
L 161.904437 -129.016443 
L 165.463245 -129.043579 
L 169.022053 -129.059907 
L 172.580861 -129.064753 
L 176.139669 -129.062232 
L 179.698477 -129.058925 
L 183.257285 -129.060436 
L 186.816093 -129.069038 
L 190.374901 -129.083612 
L 193.933709 -129.101444 
L 197.492517 -129.120516 
L 201.051325 -129.141159 
L 204.610133 -129.166715 
L 208.168941 -129.203398 
L 211.727749 -129.259646 
L 215.286557 -129.344922 
L 218.845365 -129.467865 
L 222.404173 -129.634129 
L 225.962981 -129.845119 
L 229.521789 -130.098782 
L 233.080597 -130.391874 
L 236.639405 -130.721335 
L 240.198213 -131.083031 
L 243.757021 -131.469133 
L 247.315829 -131.86744 
L 250.874637 -132.26427 
L 254.433445 -132.649185 
L 257.992253 -133.018474 
L 261.551061 -133.375977 
L 265.109869 -133.7316 
L 268.668677 -134.098168 
L 272.227485 -134.487466 
L 275.786293 -134.907259 
L 279.345101 -135.361067 
L 282.903909 -135.849747 
L 286.462717 -136.371062 
L 290.021525 -136.91464 
L 293.580333 -137.455382 
L 297.139141 -137.952796 
L 300.697949 -138.361516 
L 304.256758 -138.650027 
L 307.815566 -138.817188 
L 311.374374 -138.895381 
L 314.933182 -138.935916 
L 318.49199 -138.982945 
L 322.050798 -139.050515 
L 325.609606 -139.11702 
L 329.168414 -139.14042 
L 332.727222 -139.083231 
L 336.28603 -138.930682 
L 339.844838 -138.692929 
L 343.403646 -138.394772 
L 346.962454 -138.062255 
L 350.521262 -137.712779 
L 354.08007 -137.350529 
L 357.638878 -136.96729 
L 361.197686 -136.548608 
L 364.756494 -136.083302 
L 368.315302 -135.571429 
L 371.87411 -135.025752 
L 375.432918 -134.466161 
L 378.991726 -133.91168 
L 382.550534 -133.375716 
L 386.109342 -132.86627 
L 389.66815 -132.38841 
L 393.226958 -131.945765 
L 396.785766 -131.540474 
L 400.344574 -131.172974 
L 403.903382 -130.842381 
L 407.46219 -130.54688 
L 411.020998 -130.283654 
L 414.579806 -130.049012 
L 418.138614 -129.839488 
L 421.697422 -129.653516 
L 425.25623 -129.492077 
L 428.815038 -129.357259 
L 432.373846 -129.249537 
L 435.932654 -129.165933 
L 439.491462 -129.10061 
L 443.05027 -129.04741 
L 446.609078 -129.00233 
L 450.167886 -128.964226 
L 453.726694 -128.933679 
L 457.285502 -128.91126 
L 460.84431 -128.896484 
L 464.403118 -128.887812 
L 464.403118 -128.872031 
L 464.403118 -128.872031 
L 460.84431 -128.86336 
L 457.285502 -128.848583 
L 453.726694 -128.826165 
L 450.167886 -128.795618 
L 446.609078 -128.757514 
L 443.05027 -128.712434 
L 439.491462 -128.659234 
L 435.932654 -128.59391 
L 432.373846 -128.510307 
L 428.815038 -128.402585 
L 425.25623 -128.267767 
L 421.697422 -128.106328 
L 418.138614 -127.920356 
L 414.579806 -127.710832 
L 411.020998 -127.476189 
L 407.46219 -127.212964 
L 403.903382 -126.917463 
L 400.344574 -126.58687 
L 396.785766 -126.21937 
L 393.226958 -125.814078 
L 389.66815 -125.371434 
L 386.109342 -124.893574 
L 382.550534 -124.384127 
L 378.991726 -123.848164 
L 375.432918 -123.293683 
L 371.87411 -122.734092 
L 368.315302 -122.188415 
L 364.756494 -121.676542 
L 361.197686 -121.211236 
L 357.638878 -120.792553 
L 354.08007 -120.409315 
L 350.521262 -120.047065 
L 346.962454 -119.697589 
L 343.403646 -119.365072 
L 339.844838 -119.066915 
L 336.28603 -118.829162 
L 332.727222 -118.676612 
L 329.168414 -118.619424 
L 325.609606 -118.642823 
L 322.050798 -118.709329 
L 318.49199 -118.776898 
L 314.933182 -118.823928 
L 311.374374 -118.864463 
L 307.815566 -118.942656 
L 304.256758 -119.109817 
L 300.697949 -119.398328 
L 297.139141 -119.807048 
L 293.580333 -120.304462 
L 290.021525 -120.845203 
L 286.462717 -121.388782 
L 282.903909 -121.910097 
L 279.345101 -122.398777 
L 275.786293 -122.852585 
L 272.227485 -123.272378 
L 268.668677 -123.661676 
L 265.109869 -124.028244 
L 261.551061 -124.383867 
L 257.992253 -124.74137 
L 254.433445 -125.110659 
L 250.874637 -125.495573 
L 247.315829 -125.892404 
L 243.757021 -126.29071 
L 240.198213 -126.676813 
L 236.639405 -127.038509 
L 233.080597 -127.36797 
L 229.521789 -127.661062 
L 225.962981 -127.914725 
L 222.404173 -128.125715 
L 218.845365 -128.291978 
L 215.286557 -128.414922 
L 211.727749 -128.500198 
L 208.168941 -128.556445 
L 204.610133 -128.593129 
L 201.051325 -128.618685 
L 197.492517 -128.639328 
L 193.933709 -128.658399 
L 190.374901 -128.676231 
L 186.816093 -128.690806 
L 183.257285 -128.699407 
L 179.698477 -128.700918 
L 176.139669 -128.697612 
L 172.580861 -128.695091 
L 169.022053 -128.699936 
L 165.463245 -128.716264 
L 161.904437 -128.7434 
L 158.345629 -128.776206 
L 154.786821 -128.807708 
L 151.228013 -128.832201 
L 147.669205 -128.847108 
L 144.110397 -128.853091 
L 140.551589 -128.853019 
L 136.992781 -128.850586 
L 133.433973 -128.849043 
L 129.875165 -128.850282 
L 126.316357 -128.854501 
L 122.757549 -128.86057 
L 119.198741 -128.866873 
L 115.639933 -128.872134 
L 112.081124 -128.875808 
z
" style="stroke: #262626; stroke-width: 1.25"/>
    </defs>
    <g clip-path="url(#p41f28d026e)">
     <use xlink:href="#m10e66751c9" x="0" y="345.6" style="fill: #701070; stroke: #262626; stroke-width: 1.25"/>
    </g>
   </g>
   <g id="PolyCollection_7">
    <defs>
     <path id="mb1d19b4752" d="M 88.235909 -94.109651 
L 88.235909 -94.114255 
L 92.157596 -94.116915 
L 96.079284 -94.120843 
L 100.000971 -94.125196 
L 103.922659 -94.128387 
L 107.844346 -94.129075 
L 111.766034 -94.127391 
L 115.687721 -94.125312 
L 119.609409 -94.125759 
L 123.531097 -94.13098 
L 127.452784 -94.141008 
L 131.374472 -94.153038 
L 135.296159 -94.162606 
L 139.217847 -94.166519 
L 143.139534 -94.165418 
L 147.061222 -94.163468 
L 150.98291 -94.16533 
L 154.904597 -94.173243 
L 158.826285 -94.186143 
L 162.747972 -94.200149 
L 166.66966 -94.209645 
L 170.591347 -94.209908 
L 174.513035 -94.201234 
L 178.434722 -94.191331 
L 182.35641 -94.192671 
L 186.278098 -94.215809 
L 190.199785 -94.263268 
L 194.121473 -94.328238 
L 198.04316 -94.399016 
L 201.964848 -94.466354 
L 205.886535 -94.528811 
L 209.808223 -94.592844 
L 213.729911 -94.66846 
L 217.651598 -94.764033 
L 221.573286 -94.883869 
L 225.494973 -95.030047 
L 229.416661 -95.206325 
L 233.338348 -95.41858 
L 237.260036 -95.669502 
L 241.181723 -95.95477 
L 245.103411 -96.269038 
L 249.025099 -96.615907 
L 252.946786 -97.006855 
L 256.868474 -97.447888 
L 260.790161 -97.930047 
L 264.711849 -98.433946 
L 268.633536 -98.941489 
L 272.555224 -99.446291 
L 276.476912 -99.959833 
L 280.398599 -100.506179 
L 284.320287 -101.099153 
L 288.241974 -101.715957 
L 292.163662 -102.294587 
L 296.085349 -102.764159 
L 300.007037 -103.086209 
L 303.928724 -103.274665 
L 307.850412 -103.380402 
L 311.7721 -103.455524 
L 315.693787 -103.526466 
L 319.615475 -103.591701 
L 323.537162 -103.637061 
L 327.45885 -103.653784 
L 331.380537 -103.648674 
L 335.302225 -103.638698 
L 339.223913 -103.630059 
L 343.1456 -103.599736 
L 347.067288 -103.503066 
L 350.988975 -103.305742 
L 354.910663 -103.009192 
L 358.83235 -102.644104 
L 362.754038 -102.241512 
L 366.675725 -101.811555 
L 370.597413 -101.346241 
L 374.519101 -100.836687 
L 378.440788 -100.285516 
L 382.362476 -99.704981 
L 386.284163 -99.106934 
L 390.205851 -98.49784 
L 394.127538 -97.885523 
L 398.049226 -97.290315 
L 401.970914 -96.745703 
L 405.892601 -96.282635 
L 409.814289 -95.91018 
L 413.735976 -95.611522 
L 417.657664 -95.358869 
L 421.579351 -95.13209 
L 425.501039 -94.92556 
L 429.422726 -94.742825 
L 433.344414 -94.588727 
L 437.266102 -94.46527 
L 441.187789 -94.370696 
L 445.109477 -94.300063 
L 449.031164 -94.247144 
L 452.952852 -94.20678 
L 456.874539 -94.175875 
L 460.796227 -94.152758 
L 464.717915 -94.13622 
L 468.639602 -94.125129 
L 472.56129 -94.118337 
L 476.482977 -94.114656 
L 476.482977 -94.109251 
L 476.482977 -94.109251 
L 472.56129 -94.105569 
L 468.639602 -94.098778 
L 464.717915 -94.087686 
L 460.796227 -94.071149 
L 456.874539 -94.048031 
L 452.952852 -94.017127 
L 449.031164 -93.976762 
L 445.109477 -93.923844 
L 441.187789 -93.85321 
L 437.266102 -93.758636 
L 433.344414 -93.63518 
L 429.422726 -93.481081 
L 425.501039 -93.298346 
L 421.579351 -93.091817 
L 417.657664 -92.865038 
L 413.735976 -92.612385 
L 409.814289 -92.313726 
L 405.892601 -91.941271 
L 401.970914 -91.478203 
L 398.049226 -90.933591 
L 394.127538 -90.338383 
L 390.205851 -89.726066 
L 386.284163 -89.116973 
L 382.362476 -88.518925 
L 378.440788 -87.938391 
L 374.519101 -87.38722 
L 370.597413 -86.877665 
L 366.675725 -86.412352 
L 362.754038 -85.982394 
L 358.83235 -85.579802 
L 354.910663 -85.214714 
L 350.988975 -84.918165 
L 347.067288 -84.72084 
L 343.1456 -84.624171 
L 339.223913 -84.593847 
L 335.302225 -84.585208 
L 331.380537 -84.575233 
L 327.45885 -84.570122 
L 323.537162 -84.586845 
L 319.615475 -84.632205 
L 315.693787 -84.69744 
L 311.7721 -84.768383 
L 307.850412 -84.843504 
L 303.928724 -84.949242 
L 300.007037 -85.137698 
L 296.085349 -85.459747 
L 292.163662 -85.929319 
L 288.241974 -86.507949 
L 284.320287 -87.124753 
L 280.398599 -87.717727 
L 276.476912 -88.264074 
L 272.555224 -88.777615 
L 268.633536 -89.282417 
L 264.711849 -89.789961 
L 260.790161 -90.293859 
L 256.868474 -90.776019 
L 252.946786 -91.217051 
L 249.025099 -91.608 
L 245.103411 -91.954868 
L 241.181723 -92.269136 
L 237.260036 -92.554405 
L 233.338348 -92.805326 
L 229.416661 -93.017582 
L 225.494973 -93.19386 
L 221.573286 -93.340037 
L 217.651598 -93.459873 
L 213.729911 -93.555446 
L 209.808223 -93.631062 
L 205.886535 -93.695095 
L 201.964848 -93.757552 
L 198.04316 -93.824891 
L 194.121473 -93.895669 
L 190.199785 -93.960638 
L 186.278098 -94.008098 
L 182.35641 -94.031235 
L 178.434722 -94.032576 
L 174.513035 -94.022673 
L 170.591347 -94.013999 
L 166.66966 -94.014261 
L 162.747972 -94.023757 
L 158.826285 -94.037763 
L 154.904597 -94.050664 
L 150.98291 -94.058576 
L 147.061222 -94.060439 
L 143.139534 -94.058488 
L 139.217847 -94.057387 
L 135.296159 -94.0613 
L 131.374472 -94.070868 
L 127.452784 -94.082898 
L 123.531097 -94.092926 
L 119.609409 -94.098147 
L 115.687721 -94.098594 
L 111.766034 -94.096515 
L 107.844346 -94.094832 
L 103.922659 -94.095519 
L 100.000971 -94.09871 
L 96.079284 -94.103063 
L 92.157596 -94.106991 
L 88.235909 -94.109651 
z
" style="stroke: #262626; stroke-width: 1.25"/>
    </defs>
    <g clip-path="url(#p41f28d026e)">
     <use xlink:href="#mb1d19b4752" x="0" y="345.6" style="fill: #701070; stroke: #262626; stroke-width: 1.25"/>
    </g>
   </g>
   <g id="PolyCollection_8">
    <defs>
     <path id="m9aa9de58d6" d="M 130.601206 -59.340718 
L 130.601206 -59.347251 
L 133.832161 -59.351216 
L 137.063116 -59.35709 
L 140.294072 -59.363427 
L 143.525027 -59.367597 
L 146.755983 -59.36748 
L 149.986938 -59.363222 
L 153.217894 -59.357259 
L 156.448849 -59.352678 
L 159.679804 -59.351663 
L 162.91076 -59.355086 
L 166.141715 -59.362726 
L 169.372671 -59.373598 
L 172.603626 -59.386541 
L 175.834581 -59.400919 
L 179.065537 -59.416596 
L 182.296492 -59.433084 
L 185.527448 -59.4488 
L 188.758403 -59.461218 
L 191.989359 -59.468242 
L 195.220314 -59.470459 
L 198.451269 -59.471911 
L 201.682225 -59.477061 
L 204.91318 -59.486417 
L 208.144136 -59.496534 
L 211.375091 -59.504487 
L 214.606047 -59.510271 
L 217.837002 -59.51455 
L 221.067957 -59.517396 
L 224.298913 -59.522063 
L 227.529868 -59.539312 
L 230.760824 -59.586844 
L 233.991779 -59.684581 
L 237.222734 -59.84795 
L 240.45369 -60.078237 
L 243.684645 -60.353056 
L 246.915601 -60.629393 
L 250.146556 -60.867846 
L 253.377512 -61.064315 
L 256.608467 -61.258805 
L 259.839422 -61.507789 
L 263.070378 -61.845075 
L 266.301333 -62.269995 
L 269.532289 -62.769879 
L 272.763244 -63.343982 
L 275.994199 -63.997354 
L 279.225155 -64.713832 
L 282.45611 -65.447943 
L 285.687066 -66.154438 
L 288.918021 -66.822674 
L 292.148977 -67.472884 
L 295.379932 -68.123345 
L 298.610887 -68.774942 
L 301.841843 -69.425765 
L 305.072798 -70.081355 
L 308.303754 -70.738601 
L 311.534709 -71.366397 
L 314.765664 -71.914052 
L 317.99662 -72.342522 
L 321.227575 -72.646776 
L 324.458531 -72.849694 
L 327.689486 -72.974124 
L 330.920442 -73.013389 
L 334.151397 -72.924513 
L 337.382352 -72.659237 
L 340.613308 -72.213678 
L 343.844263 -71.646448 
L 347.075219 -71.037813 
L 350.306174 -70.426415 
L 353.53713 -69.788378 
L 356.768085 -69.078623 
L 359.99904 -68.28821 
L 363.229996 -67.458783 
L 366.460951 -66.645715 
L 369.691907 -65.874967 
L 372.922862 -65.136767 
L 376.153817 -64.413845 
L 379.384773 -63.71106 
L 382.615728 -63.060474 
L 385.846684 -62.499599 
L 389.077639 -62.041737 
L 392.308595 -61.665927 
L 395.53955 -61.336283 
L 398.770505 -61.029284 
L 402.001461 -60.741963 
L 405.232416 -60.480411 
L 408.463372 -60.247897 
L 411.694327 -60.043686 
L 414.925282 -59.867431 
L 418.156238 -59.720959 
L 421.387193 -59.606003 
L 424.618149 -59.521436 
L 427.849104 -59.462897 
L 431.08006 -59.42428 
L 434.311015 -59.399181 
L 437.54197 -59.381989 
L 440.772926 -59.369018 
L 444.003881 -59.35892 
L 447.234837 -59.351716 
L 450.465792 -59.347364 
L 450.465792 -59.340605 
L 450.465792 -59.340605 
L 447.234837 -59.336253 
L 444.003881 -59.329048 
L 440.772926 -59.318951 
L 437.54197 -59.30598 
L 434.311015 -59.288788 
L 431.08006 -59.263688 
L 427.849104 -59.225072 
L 424.618149 -59.166533 
L 421.387193 -59.081965 
L 418.156238 -58.96701 
L 414.925282 -58.820538 
L 411.694327 -58.644282 
L 408.463372 -58.440072 
L 405.232416 -58.207558 
L 402.001461 -57.946006 
L 398.770505 -57.658685 
L 395.53955 -57.351686 
L 392.308595 -57.022042 
L 389.077639 -56.646232 
L 385.846684 -56.18837 
L 382.615728 -55.627495 
L 379.384773 -54.976909 
L 376.153817 -54.274124 
L 372.922862 -53.551202 
L 369.691907 -52.813001 
L 366.460951 -52.042253 
L 363.229996 -51.229185 
L 359.99904 -50.399759 
L 356.768085 -49.609346 
L 353.53713 -48.899591 
L 350.306174 -48.261553 
L 347.075219 -47.650155 
L 343.844263 -47.041521 
L 340.613308 -46.474291 
L 337.382352 -46.028732 
L 334.151397 -45.763455 
L 330.920442 -45.67458 
L 327.689486 -45.713845 
L 324.458531 -45.838274 
L 321.227575 -46.041193 
L 317.99662 -46.345447 
L 314.765664 -46.773916 
L 311.534709 -47.321572 
L 308.303754 -47.949368 
L 305.072798 -48.606613 
L 301.841843 -49.262204 
L 298.610887 -49.913027 
L 295.379932 -50.564624 
L 292.148977 -51.215085 
L 288.918021 -51.865294 
L 285.687066 -52.533531 
L 282.45611 -53.240026 
L 279.225155 -53.974137 
L 275.994199 -54.690615 
L 272.763244 -55.343987 
L 269.532289 -55.91809 
L 266.301333 -56.417974 
L 263.070378 -56.842894 
L 259.839422 -57.18018 
L 256.608467 -57.429164 
L 253.377512 -57.623654 
L 250.146556 -57.820123 
L 246.915601 -58.058576 
L 243.684645 -58.334913 
L 240.45369 -58.609732 
L 237.222734 -58.840018 
L 233.991779 -59.003388 
L 230.760824 -59.101124 
L 227.529868 -59.148657 
L 224.298913 -59.165906 
L 221.067957 -59.170572 
L 217.837002 -59.173419 
L 214.606047 -59.177698 
L 211.375091 -59.183482 
L 208.144136 -59.191434 
L 204.91318 -59.201551 
L 201.682225 -59.210907 
L 198.451269 -59.216058 
L 195.220314 -59.21751 
L 191.989359 -59.219726 
L 188.758403 -59.226751 
L 185.527448 -59.239168 
L 182.296492 -59.254885 
L 179.065537 -59.271373 
L 175.834581 -59.28705 
L 172.603626 -59.301428 
L 169.372671 -59.314371 
L 166.141715 -59.325242 
L 162.91076 -59.332883 
L 159.679804 -59.336305 
L 156.448849 -59.335291 
L 153.217894 -59.33071 
L 149.986938 -59.324747 
L 146.755983 -59.320489 
L 143.525027 -59.320371 
L 140.294072 -59.324542 
L 137.063116 -59.330879 
L 133.832161 -59.336753 
L 130.601206 -59.340718 
z
" style="stroke: #262626; stroke-width: 1.25"/>
    </defs>
    <g clip-path="url(#p41f28d026e)">
     <use xlink:href="#m9aa9de58d6" x="0" y="345.6" style="fill: #701070; stroke: #262626; stroke-width: 1.25"/>
    </g>
   </g>
   <g id="line2d_1">
    <path d="M 148.810253 42.880234 
L 369.760148 42.880234 
" clip-path="url(#p41f28d026e)" style="fill: none; stroke: #262626; stroke-width: 1.875; stroke-linecap: round"/>
   </g>
   <g id="line2d_2">
    <path d="M 231.727402 42.880234 
L 287.721728 42.880234 
" clip-path="url(#p41f28d026e)" style="fill: none; stroke: #262626; stroke-width: 5.625; stroke-linecap: round"/>
   </g>
   <g id="line2d_3">
    <path d="M 260.654616 42.880234 
" clip-path="url(#p41f28d026e)" style="fill: none; stroke: #262626; stroke-width: 1.5; stroke-linecap: round"/>
    <defs>
     <path id="m8f8d9bf756" d="M 0 2.34375 
L 0 -2.34375 
" style="stroke: #ffffff; stroke-width: 1.125"/>
    </defs>
    <g clip-path="url(#p41f28d026e)">
     <use xlink:href="#m8f8d9bf756" x="260.654616" y="42.880234" style="fill: #ffffff; stroke: #ffffff; stroke-width: 1.125"/>
    </g>
   </g>
   <g id="line2d_4">
    <path d="M 200.566897 77.648203 
L 384.792157 77.648203 
" clip-path="url(#p41f28d026e)" style="fill: none; stroke: #262626; stroke-width: 1.875; stroke-linecap: round"/>
   </g>
   <g id="line2d_5">
    <path d="M 268.44713 77.648203 
L 315.908402 77.648203 
" clip-path="url(#p41f28d026e)" style="fill: none; stroke: #262626; stroke-width: 5.625; stroke-linecap: round"/>
   </g>
   <g id="line2d_6">
    <path d="M 292.427817 77.648203 
" clip-path="url(#p41f28d026e)" style="fill: none; stroke: #262626; stroke-width: 1.5; stroke-linecap: round"/>
    <g clip-path="url(#p41f28d026e)">
     <use xlink:href="#m8f8d9bf756" x="292.427817" y="77.648203" style="fill: #ffffff; stroke: #ffffff; stroke-width: 1.125"/>
    </g>
   </g>
   <g id="line2d_7">
    <path d="M 187.851463 112.416172 
L 395.610089 112.416172 
" clip-path="url(#p41f28d026e)" style="fill: none; stroke: #262626; stroke-width: 1.875; stroke-linecap: round"/>
   </g>
   <g id="line2d_8">
    <path d="M 263.887185 112.416172 
L 317.997139 112.416172 
" clip-path="url(#p41f28d026e)" style="fill: none; stroke: #262626; stroke-width: 5.625; stroke-linecap: round"/>
   </g>
   <g id="line2d_9">
    <path d="M 292.271063 112.416172 
" clip-path="url(#p41f28d026e)" style="fill: none; stroke: #262626; stroke-width: 1.5; stroke-linecap: round"/>
    <g clip-path="url(#p41f28d026e)">
     <use xlink:href="#m8f8d9bf756" x="292.271063" y="112.416172" style="fill: #ffffff; stroke: #ffffff; stroke-width: 1.125"/>
    </g>
   </g>
   <g id="line2d_10">
    <path d="M 208.447601 147.184141 
L 388.772825 147.184141 
" clip-path="url(#p41f28d026e)" style="fill: none; stroke: #262626; stroke-width: 1.875; stroke-linecap: round"/>
   </g>
   <g id="line2d_11">
    <path d="M 276.852604 147.184141 
L 322.500853 147.184141 
" clip-path="url(#p41f28d026e)" style="fill: none; stroke: #262626; stroke-width: 5.625; stroke-linecap: round"/>
   </g>
   <g id="line2d_12">
    <path d="M 300.199775 147.184141 
" clip-path="url(#p41f28d026e)" style="fill: none; stroke: #262626; stroke-width: 1.5; stroke-linecap: round"/>
    <g clip-path="url(#p41f28d026e)">
     <use xlink:href="#m8f8d9bf756" x="300.199775" y="147.184141" style="fill: #ffffff; stroke: #ffffff; stroke-width: 1.125"/>
    </g>
   </g>
   <g id="line2d_13">
    <path d="M 189.55375 181.952109 
L 415.529344 181.952109 
" clip-path="url(#p41f28d026e)" style="fill: none; stroke: #262626; stroke-width: 1.875; stroke-linecap: round"/>
   </g>
   <g id="line2d_14">
    <path d="M 274.559901 181.952109 
L 336.409984 181.952109 
" clip-path="url(#p41f28d026e)" style="fill: none; stroke: #262626; stroke-width: 5.625; stroke-linecap: round"/>
   </g>
   <g id="line2d_15">
    <path d="M 305.195768 181.952109 
" clip-path="url(#p41f28d026e)" style="fill: none; stroke: #262626; stroke-width: 1.5; stroke-linecap: round"/>
    <g clip-path="url(#p41f28d026e)">
     <use xlink:href="#m8f8d9bf756" x="305.195768" y="181.952109" style="fill: #ffffff; stroke: #ffffff; stroke-width: 1.125"/>
    </g>
   </g>
   <g id="line2d_16">
    <path d="M 203.572025 216.720078 
L 440.066896 216.720078 
" clip-path="url(#p41f28d026e)" style="fill: none; stroke: #262626; stroke-width: 1.875; stroke-linecap: round"/>
   </g>
   <g id="line2d_17">
    <path d="M 292.424369 216.720078 
L 352.158263 216.720078 
" clip-path="url(#p41f28d026e)" style="fill: none; stroke: #262626; stroke-width: 5.625; stroke-linecap: round"/>
   </g>
   <g id="line2d_18">
    <path d="M 322.64859 216.720078 
" clip-path="url(#p41f28d026e)" style="fill: none; stroke: #262626; stroke-width: 1.5; stroke-linecap: round"/>
    <g clip-path="url(#p41f28d026e)">
     <use xlink:href="#m8f8d9bf756" x="322.64859" y="216.720078" style="fill: #ffffff; stroke: #ffffff; stroke-width: 1.125"/>
    </g>
   </g>
   <g id="line2d_19">
    <path d="M 201.324412 251.488047 
L 450 251.488047 
" clip-path="url(#p41f28d026e)" style="fill: none; stroke: #262626; stroke-width: 1.875; stroke-linecap: round"/>
   </g>
   <g id="line2d_20">
    <path d="M 295.015464 251.488047 
L 358.167725 251.488047 
" clip-path="url(#p41f28d026e)" style="fill: none; stroke: #262626; stroke-width: 5.625; stroke-linecap: round"/>
   </g>
   <g id="line2d_21">
    <path d="M 326.739331 251.488047 
" clip-path="url(#p41f28d026e)" style="fill: none; stroke: #262626; stroke-width: 1.5; stroke-linecap: round"/>
    <g clip-path="url(#p41f28d026e)">
     <use xlink:href="#m8f8d9bf756" x="326.739331" y="251.488047" style="fill: #ffffff; stroke: #ffffff; stroke-width: 1.125"/>
    </g>
   </g>
   <g id="line2d_22">
    <path d="M 234.427509 286.256016 
L 419.957732 286.256016 
" clip-path="url(#p41f28d026e)" style="fill: none; stroke: #262626; stroke-width: 1.875; stroke-linecap: round"/>
   </g>
   <g id="line2d_23">
    <path d="M 303.634587 286.256016 
L 350.346433 286.256016 
" clip-path="url(#p41f28d026e)" style="fill: none; stroke: #262626; stroke-width: 5.625; stroke-linecap: round"/>
   </g>
   <g id="line2d_24">
    <path d="M 327.352027 286.256016 
" clip-path="url(#p41f28d026e)" style="fill: none; stroke: #262626; stroke-width: 1.5; stroke-linecap: round"/>
    <g clip-path="url(#p41f28d026e)">
     <use xlink:href="#m8f8d9bf756" x="327.352027" y="286.256016" style="fill: #ffffff; stroke: #ffffff; stroke-width: 1.125"/>
    </g>
   </g>
   <g id="patch_3">
    <path d="M 106.13 303.64 
L 106.13 25.49625 
" style="fill: none; stroke: #ffffff; stroke-width: 0.8; stroke-linejoin: miter; stroke-linecap: square"/>
   </g>
   <g id="patch_4">
    <path d="M 450 303.64 
L 450 25.49625 
" style="fill: none; stroke: #ffffff; stroke-width: 0.8; stroke-linejoin: miter; stroke-linecap: square"/>
   </g>
   <g id="patch_5">
    <path d="M 106.13 303.64 
L 450 303.64 
" style="fill: none; stroke: #ffffff; stroke-width: 0.8; stroke-linejoin: miter; stroke-linecap: square"/>
   </g>
   <g id="patch_6">
    <path d="M 106.13 25.49625 
L 450 25.49625 
" style="fill: none; stroke: #ffffff; stroke-width: 0.8; stroke-linejoin: miter; stroke-linecap: square"/>
   </g>
   <g id="text_18">
    <!-- Game type vs Rating -->
    <g style="fill: #262626" transform="translate(222.04375 19.49625) scale(0.12 -0.12)">
     <defs>
      <path id="ArialMT-76" d="M 1344 0 
L 81 3319 
L 675 3319 
L 1388 1331 
Q 1503 1009 1600 663 
Q 1675 925 1809 1294 
L 2547 3319 
L 3125 3319 
L 1869 0 
L 1344 0 
z
" transform="scale(0.015625)"/>
     </defs>
     <use xlink:href="#ArialMT-47"/>
     <use xlink:href="#ArialMT-61" x="77.783203"/>
     <use xlink:href="#ArialMT-6d" x="133.398438"/>
     <use xlink:href="#ArialMT-65" x="216.699219"/>
     <use xlink:href="#ArialMT-20" x="272.314453"/>
     <use xlink:href="#ArialMT-74" x="300.097656"/>
     <use xlink:href="#ArialMT-79" x="327.880859"/>
     <use xlink:href="#ArialMT-70" x="377.880859"/>
     <use xlink:href="#ArialMT-65" x="433.496094"/>
     <use xlink:href="#ArialMT-20" x="489.111328"/>
     <use xlink:href="#ArialMT-76" x="516.894531"/>
     <use xlink:href="#ArialMT-73" x="566.894531"/>
     <use xlink:href="#ArialMT-20" x="616.894531"/>
     <use xlink:href="#ArialMT-52" x="644.677734"/>
     <use xlink:href="#ArialMT-61" x="716.894531"/>
     <use xlink:href="#ArialMT-74" x="772.509766"/>
     <use xlink:href="#ArialMT-69" x="800.292969"/>
     <use xlink:href="#ArialMT-6e" x="822.509766"/>
     <use xlink:href="#ArialMT-67" x="878.125"/>
    </g>
   </g>
  </g>
 </g>
 <defs>
  <clipPath id="p41f28d026e">
   <rect x="106.13" y="25.49625" width="343.87" height="278.14375"/>
  </clipPath>
 </defs>
</svg>
