<?xml version="1.0" encoding="utf-8" standalone="no"?>
<!DOCTYPE svg PUBLIC "-//W3C//DTD SVG 1.1//EN"
  "http://www.w3.org/Graphics/SVG/1.1/DTD/svg11.dtd">
<!-- Created with matplotlib (https://matplotlib.org/) -->
<svg height="288pt" version="1.1" viewBox="0 0 432 288" width="432pt" xmlns="http://www.w3.org/2000/svg" xmlns:xlink="http://www.w3.org/1999/xlink">
 <metadata>
  <rdf:RDF xmlns:cc="http://creativecommons.org/ns#" xmlns:dc="http://purl.org/dc/elements/1.1/" xmlns:rdf="http://www.w3.org/1999/02/22-rdf-syntax-ns#">
   <cc:Work>
    <dc:type rdf:resource="http://purl.org/dc/dcmitype/StillImage"/>
    <dc:date>2020-11-10T08:33:13.846035</dc:date>
    <dc:format>image/svg+xml</dc:format>
    <dc:creator>
     <cc:Agent>
      <dc:title>Matplotlib v3.3.2, https://matplotlib.org/</dc:title>
     </cc:Agent>
    </dc:creator>
   </cc:Work>
  </rdf:RDF>
 </metadata>
 <defs>
  <style type="text/css">*{stroke-linecap:butt;stroke-linejoin:round;}</style>
 </defs>
 <g id="figure_1">
  <g id="patch_1">
   <path d="M 0 288 
L 432 288 
L 432 0 
L 0 0 
z
" style="fill:none;"/>
  </g>
  <g id="axes_1">
   <g id="patch_2">
    <path d="M 54 123.578182 
L 388.8 123.578182 
L 388.8 34.56 
L 54 34.56 
z
" style="fill:#ffffff;"/>
   </g>
   <g id="matplotlib.axis_1">
    <g id="xtick_1">
     <g id="line2d_1">
      <defs>
       <path d="M 0 0 
L 0 3.5 
" id="mf67170af83" style="stroke:#000000;stroke-width:0.8;"/>
      </defs>
      <g>
       <use style="stroke:#000000;stroke-width:0.8;" x="64.515752" xlink:href="#mf67170af83" y="123.578182"/>
      </g>
     </g>
    </g>
    <g id="xtick_2">
     <g id="line2d_2">
      <g>
       <use style="stroke:#000000;stroke-width:0.8;" x="110.028401" xlink:href="#mf67170af83" y="123.578182"/>
      </g>
     </g>
    </g>
    <g id="xtick_3">
     <g id="line2d_3">
      <g>
       <use style="stroke:#000000;stroke-width:0.8;" x="155.54105" xlink:href="#mf67170af83" y="123.578182"/>
      </g>
     </g>
    </g>
    <g id="xtick_4">
     <g id="line2d_4">
      <g>
       <use style="stroke:#000000;stroke-width:0.8;" x="200.307589" xlink:href="#mf67170af83" y="123.578182"/>
      </g>
     </g>
    </g>
    <g id="xtick_5">
     <g id="line2d_5">
      <g>
       <use style="stroke:#000000;stroke-width:0.8;" x="245.820238" xlink:href="#mf67170af83" y="123.578182"/>
      </g>
     </g>
    </g>
    <g id="xtick_6">
     <g id="line2d_6">
      <g>
       <use style="stroke:#000000;stroke-width:0.8;" x="291.332887" xlink:href="#mf67170af83" y="123.578182"/>
      </g>
     </g>
    </g>
    <g id="xtick_7">
     <g id="line2d_7">
      <g>
       <use style="stroke:#000000;stroke-width:0.8;" x="337.591645" xlink:href="#mf67170af83" y="123.578182"/>
      </g>
     </g>
    </g>
    <g id="xtick_8">
     <g id="line2d_8">
      <g>
       <use style="stroke:#000000;stroke-width:0.8;" x="383.104293" xlink:href="#mf67170af83" y="123.578182"/>
      </g>
     </g>
    </g>
    <g id="xtick_9">
     <g id="line2d_9">
      <defs>
       <path d="M 0 0 
L 0 2 
" id="m7bc6d6aa38" style="stroke:#000000;stroke-width:0.6;"/>
      </defs>
      <g>
       <use style="stroke:#000000;stroke-width:0.6;" x="72.070106" xlink:href="#m7bc6d6aa38" y="123.578182"/>
      </g>
     </g>
    </g>
    <g id="xtick_10">
     <g id="line2d_10">
      <g>
       <use style="stroke:#000000;stroke-width:0.6;" x="109.375556" xlink:href="#m7bc6d6aa38" y="123.578182"/>
      </g>
     </g>
    </g>
    <g id="xtick_11">
     <g id="line2d_11">
      <g>
       <use style="stroke:#000000;stroke-width:0.6;" x="146.681005" xlink:href="#m7bc6d6aa38" y="123.578182"/>
      </g>
     </g>
    </g>
    <g id="xtick_12">
     <g id="line2d_12">
      <g>
       <use style="stroke:#000000;stroke-width:0.6;" x="183.986455" xlink:href="#m7bc6d6aa38" y="123.578182"/>
      </g>
     </g>
    </g>
    <g id="xtick_13">
     <g id="line2d_13">
      <g>
       <use style="stroke:#000000;stroke-width:0.6;" x="221.291905" xlink:href="#m7bc6d6aa38" y="123.578182"/>
      </g>
     </g>
    </g>
    <g id="xtick_14">
     <g id="line2d_14">
      <g>
       <use style="stroke:#000000;stroke-width:0.6;" x="258.597355" xlink:href="#m7bc6d6aa38" y="123.578182"/>
      </g>
     </g>
    </g>
    <g id="xtick_15">
     <g id="line2d_15">
      <g>
       <use style="stroke:#000000;stroke-width:0.6;" x="295.902804" xlink:href="#m7bc6d6aa38" y="123.578182"/>
      </g>
     </g>
    </g>
    <g id="xtick_16">
     <g id="line2d_16">
      <g>
       <use style="stroke:#000000;stroke-width:0.6;" x="333.208254" xlink:href="#m7bc6d6aa38" y="123.578182"/>
      </g>
     </g>
    </g>
    <g id="xtick_17">
     <g id="line2d_17">
      <g>
       <use style="stroke:#000000;stroke-width:0.6;" x="370.513704" xlink:href="#m7bc6d6aa38" y="123.578182"/>
      </g>
     </g>
    </g>
   </g>
   <g id="matplotlib.axis_2">
    <g id="ytick_1">
     <g id="line2d_18">
      <defs>
       <path d="M 0 0 
L -3.5 0 
" id="m28bad88913" style="stroke:#000000;stroke-width:0.8;"/>
      </defs>
      <g>
       <use style="stroke:#000000;stroke-width:0.8;" x="54" xlink:href="#m28bad88913" y="117.814243"/>
      </g>
     </g>
     <g id="text_1">
      <!-- 90000 -->
      <g transform="translate(15.1875 121.613461)scale(0.1 -0.1)">
       <defs>
        <path d="M 10.984375 1.515625 
L 10.984375 10.5 
Q 14.703125 8.734375 18.5 7.8125 
Q 22.3125 6.890625 25.984375 6.890625 
Q 35.75 6.890625 40.890625 13.453125 
Q 46.046875 20.015625 46.78125 33.40625 
Q 43.953125 29.203125 39.59375 26.953125 
Q 35.25 24.703125 29.984375 24.703125 
Q 19.046875 24.703125 12.671875 31.3125 
Q 6.296875 37.9375 6.296875 49.421875 
Q 6.296875 60.640625 12.9375 67.421875 
Q 19.578125 74.21875 30.609375 74.21875 
Q 43.265625 74.21875 49.921875 64.515625 
Q 56.59375 54.828125 56.59375 36.375 
Q 56.59375 19.140625 48.40625 8.859375 
Q 40.234375 -1.421875 26.421875 -1.421875 
Q 22.703125 -1.421875 18.890625 -0.6875 
Q 15.09375 0.046875 10.984375 1.515625 
z
M 30.609375 32.421875 
Q 37.25 32.421875 41.125 36.953125 
Q 45.015625 41.5 45.015625 49.421875 
Q 45.015625 57.28125 41.125 61.84375 
Q 37.25 66.40625 30.609375 66.40625 
Q 23.96875 66.40625 20.09375 61.84375 
Q 16.21875 57.28125 16.21875 49.421875 
Q 16.21875 41.5 20.09375 36.953125 
Q 23.96875 32.421875 30.609375 32.421875 
z
" id="DejaVuSans-57"/>
        <path d="M 31.78125 66.40625 
Q 24.171875 66.40625 20.328125 58.90625 
Q 16.5 51.421875 16.5 36.375 
Q 16.5 21.390625 20.328125 13.890625 
Q 24.171875 6.390625 31.78125 6.390625 
Q 39.453125 6.390625 43.28125 13.890625 
Q 47.125 21.390625 47.125 36.375 
Q 47.125 51.421875 43.28125 58.90625 
Q 39.453125 66.40625 31.78125 66.40625 
z
M 31.78125 74.21875 
Q 44.046875 74.21875 50.515625 64.515625 
Q 56.984375 54.828125 56.984375 36.375 
Q 56.984375 17.96875 50.515625 8.265625 
Q 44.046875 -1.421875 31.78125 -1.421875 
Q 19.53125 -1.421875 13.0625 8.265625 
Q 6.59375 17.96875 6.59375 36.375 
Q 6.59375 54.828125 13.0625 64.515625 
Q 19.53125 74.21875 31.78125 74.21875 
z
" id="DejaVuSans-48"/>
       </defs>
       <use xlink:href="#DejaVuSans-57"/>
       <use x="63.623047" xlink:href="#DejaVuSans-48"/>
       <use x="127.246094" xlink:href="#DejaVuSans-48"/>
       <use x="190.869141" xlink:href="#DejaVuSans-48"/>
       <use x="254.492188" xlink:href="#DejaVuSans-48"/>
      </g>
     </g>
    </g>
    <g id="ytick_2">
     <g id="line2d_19">
      <g>
       <use style="stroke:#000000;stroke-width:0.8;" x="54" xlink:href="#m28bad88913" y="90.636106"/>
      </g>
     </g>
     <g id="text_2">
      <!-- 92500 -->
      <g transform="translate(15.1875 94.435325)scale(0.1 -0.1)">
       <defs>
        <path d="M 19.1875 8.296875 
L 53.609375 8.296875 
L 53.609375 0 
L 7.328125 0 
L 7.328125 8.296875 
Q 12.9375 14.109375 22.625 23.890625 
Q 32.328125 33.6875 34.8125 36.53125 
Q 39.546875 41.84375 41.421875 45.53125 
Q 43.3125 49.21875 43.3125 52.78125 
Q 43.3125 58.59375 39.234375 62.25 
Q 35.15625 65.921875 28.609375 65.921875 
Q 23.96875 65.921875 18.8125 64.3125 
Q 13.671875 62.703125 7.8125 59.421875 
L 7.8125 69.390625 
Q 13.765625 71.78125 18.9375 73 
Q 24.125 74.21875 28.421875 74.21875 
Q 39.75 74.21875 46.484375 68.546875 
Q 53.21875 62.890625 53.21875 53.421875 
Q 53.21875 48.921875 51.53125 44.890625 
Q 49.859375 40.875 45.40625 35.40625 
Q 44.1875 33.984375 37.640625 27.21875 
Q 31.109375 20.453125 19.1875 8.296875 
z
" id="DejaVuSans-50"/>
        <path d="M 10.796875 72.90625 
L 49.515625 72.90625 
L 49.515625 64.59375 
L 19.828125 64.59375 
L 19.828125 46.734375 
Q 21.96875 47.46875 24.109375 47.828125 
Q 26.265625 48.1875 28.421875 48.1875 
Q 40.625 48.1875 47.75 41.5 
Q 54.890625 34.8125 54.890625 23.390625 
Q 54.890625 11.625 47.5625 5.09375 
Q 40.234375 -1.421875 26.90625 -1.421875 
Q 22.3125 -1.421875 17.546875 -0.640625 
Q 12.796875 0.140625 7.71875 1.703125 
L 7.71875 11.625 
Q 12.109375 9.234375 16.796875 8.0625 
Q 21.484375 6.890625 26.703125 6.890625 
Q 35.15625 6.890625 40.078125 11.328125 
Q 45.015625 15.765625 45.015625 23.390625 
Q 45.015625 31 40.078125 35.4375 
Q 35.15625 39.890625 26.703125 39.890625 
Q 22.75 39.890625 18.8125 39.015625 
Q 14.890625 38.140625 10.796875 36.28125 
z
" id="DejaVuSans-53"/>
       </defs>
       <use xlink:href="#DejaVuSans-57"/>
       <use x="63.623047" xlink:href="#DejaVuSans-50"/>
       <use x="127.246094" xlink:href="#DejaVuSans-53"/>
       <use x="190.869141" xlink:href="#DejaVuSans-48"/>
       <use x="254.492188" xlink:href="#DejaVuSans-48"/>
      </g>
     </g>
    </g>
    <g id="ytick_3">
     <g id="line2d_20">
      <g>
       <use style="stroke:#000000;stroke-width:0.8;" x="54" xlink:href="#m28bad88913" y="63.457969"/>
      </g>
     </g>
     <g id="text_3">
      <!-- 95000 -->
      <g transform="translate(15.1875 67.257188)scale(0.1 -0.1)">
       <use xlink:href="#DejaVuSans-57"/>
       <use x="63.623047" xlink:href="#DejaVuSans-53"/>
       <use x="127.246094" xlink:href="#DejaVuSans-48"/>
       <use x="190.869141" xlink:href="#DejaVuSans-48"/>
       <use x="254.492188" xlink:href="#DejaVuSans-48"/>
      </g>
     </g>
    </g>
    <g id="ytick_4">
     <g id="line2d_21">
      <g>
       <use style="stroke:#000000;stroke-width:0.8;" x="54" xlink:href="#m28bad88913" y="36.279832"/>
      </g>
     </g>
     <g id="text_4">
      <!-- 97500 -->
      <g transform="translate(15.1875 40.079051)scale(0.1 -0.1)">
       <defs>
        <path d="M 8.203125 72.90625 
L 55.078125 72.90625 
L 55.078125 68.703125 
L 28.609375 0 
L 18.3125 0 
L 43.21875 64.59375 
L 8.203125 64.59375 
z
" id="DejaVuSans-55"/>
       </defs>
       <use xlink:href="#DejaVuSans-57"/>
       <use x="63.623047" xlink:href="#DejaVuSans-55"/>
       <use x="127.246094" xlink:href="#DejaVuSans-53"/>
       <use x="190.869141" xlink:href="#DejaVuSans-48"/>
       <use x="254.492188" xlink:href="#DejaVuSans-48"/>
      </g>
     </g>
    </g>
   </g>
   <g id="line2d_22">
    <path clip-path="url(#p368f5aa439)" d="M 69.218182 119.499287 
L 70.018738 119.488416 
L 70.018738 119.488416 
L 72.267315 119.325347 
L 72.267315 119.325347 
L 72.978312 118.955724 
L 72.978312 118.955724 
L 76.592183 118.673072 
L 76.592183 118.673072 
L 77.650336 118.716557 
L 77.650336 118.716557 
L 78.307732 117.466362 
L 78.307732 117.466362 
L 79.14372 117.422877 
L 79.14372 117.422877 
L 79.584615 117.161967 
L 79.584615 117.161967 
L 84.772111 116.759731 
L 84.772111 116.759731 
L 85.516112 116.737988 
L 85.516112 116.737988 
L 86.274311 115.922644 
L 86.274311 115.922644 
L 87.032899 115.563893 
L 87.032899 115.563893 
L 89.313583 115.498665 
L 89.313583 115.498665 
L 91.515874 115.28124 
L 91.515874 115.28124 
L 92.284539 114.183244 
L 92.284539 114.183244 
L 93.778613 114.085402 
L 93.778613 114.085402 
L 94.534429 113.998432 
L 94.534429 113.998432 
L 95.231194 113.71578 
L 95.231194 113.71578 
L 97.431447 113.596196 
L 97.431447 113.596196 
L 98.190397 113.270058 
L 98.190397 113.270058 
L 98.956048 113.204831 
L 98.956048 113.204831 
L 100.428888 112.933049 
L 100.428888 112.933049 
L 101.180714 112.824337 
L 101.180714 112.824337 
L 101.927833 111.911151 
L 101.927833 111.911151 
L 103.718668 111.90028 
L 103.718668 111.90028 
L 104.911371 111.780696 
L 104.911371 111.780696 
L 105.657143 111.182777 
L 105.657143 111.182777 
L 107.91952 111.139292 
L 107.91952 111.139292 
L 108.662901 111.063193 
L 108.662901 111.063193 
L 109.415383 110.813155 
L 109.415383 110.813155 
L 110.914993 110.802283 
L 110.914993 110.802283 
L 111.667112 110.041295 
L 111.667112 110.041295 
L 112.423022 110.019553 
L 112.423022 110.019553 
L 113.140625 109.508604 
L 113.903643 109.432505 
L 113.903643 109.432505 
L 115.436499 109.084625 
L 115.436499 109.084625 
L 119.850373 108.856329 
L 119.850373 108.856329 
L 120.609012 107.497422 
L 120.609012 107.497422 
L 123.595236 107.290868 
L 123.595236 107.290868 
L 124.683096 106.562494 
L 124.683096 106.562494 
L 126.60297 106.410296 
L 126.60297 106.410296 
L 127.708231 106.366811 
L 127.708231 106.366811 
L 128.54446 106.35594 
L 128.54446 106.35594 
L 128.87552 105.551467 
L 128.87552 105.551467 
L 129.591811 105.497111 
L 129.591811 105.497111 
L 130.280718 105.203587 
L 130.280718 105.203587 
L 136.270997 104.986162 
L 136.270997 104.986162 
L 137.026087 103.855552 
L 137.026087 103.855552 
L 137.791151 103.703354 
L 137.791151 103.703354 
L 139.26564 103.67074 
L 139.26564 103.67074 
L 143.7477 103.355474 
L 143.7477 103.355474 
L 144.499241 102.19225 
L 144.499241 102.19225 
L 145.263122 102.159636 
L 145.263122 102.159636 
L 146.024999 101.985696 
L 146.024999 101.985696 
L 147.501552 101.822627 
L 147.501552 101.822627 
L 149.769672 101.670429 
L 149.769672 101.670429 
L 152.028672 101.703043 
L 152.028672 101.703043 
L 152.793408 100.605046 
L 157.957312 100.083226 
L 157.957312 100.083226 
L 160.231001 99.800574 
L 160.231001 99.800574 
L 161.000426 98.452538 
L 163.96386 98.104658 
L 164.72148 97.495868 
L 166.962338 97.2567 
L 167.714224 97.028404 
L 169.237806 96.887077 
L 170.00205 95.52817 
L 175.156393 94.495401 
L 175.841199 92.853842 
L 176.64881 92.538575 
L 177.412466 92.538575 
L 178.171019 91.734103 
L 180.457921 91.484064 
L 181.141215 91.320995 
L 184.147326 91.353609 
L 185.672808 88.755379 
L 187.140976 88.755379 
L 187.901446 88.722765 
L 188.66417 88.103104 
L 190.107528 88.016134 
L 192.344974 88.037876 
L 193.059166 86.494158 
L 195.397415 86.25499 
L 196.843787 85.961466 
L 199.065378 85.874496 
L 199.819363 84.591688 
L 200.585394 84.352521 
L 201.343463 84.265551 
L 202.072189 83.939413 
L 203.566229 83.74373 
L 204.328227 83.624147 
L 205.110942 83.069713 
L 205.873234 82.993614 
L 206.621027 82.656605 
L 207.177129 82.537021 
L 208.711575 82.482665 
L 209.468763 82.134785 
L 209.468763 82.482665 
L 209.627173 82.134785 
L 210.94681 82.134785 
L 210.94681 82.134785 
L 211.70886 81.591222 
L 211.70886 81.591222 
L 213.232347 81.482509 
L 213.232347 81.482509 
L 213.942084 80.634552 
L 213.942084 80.634552 
L 216.202233 80.591067 
L 216.202233 80.591067 
L 216.957176 80.18883 
L 217.654727 80.167088 
L 217.654727 80.167088 
L 218.416536 80.01489 
L 218.416536 80.01489 
L 219.180244 79.134318 
L 219.180244 79.134318 
L 219.893771 78.982121 
L 219.893771 78.982121 
L 220.709923 78.97125 
L 220.709923 78.97125 
L 221.486722 78.775567 
L 221.486722 78.775567 
L 224.347428 78.579884 
L 224.347428 78.579884 
L 225.07947 78.02545 
L 225.07947 78.02545 
L 225.822419 78.003708 
L 225.822419 78.003708 
L 227.299801 77.786283 
L 227.299801 77.786283 
L 228.829367 77.688442 
L 228.829367 77.688442 
L 229.595114 77.50363 
L 229.595114 77.50363 
L 230.298244 76.54696 
L 230.298244 76.54696 
L 232.566354 76.362148 
L 232.566354 76.362148 
L 233.311997 75.655517 
L 233.311997 75.655517 
L 234.028486 75.209795 
L 234.028486 75.209795 
L 239.282674 74.687975 
L 239.282674 74.687975 
L 239.964656 73.42691 
L 239.964656 73.42691 
L 245.20633 73.166 
L 245.20633 73.166 
L 245.958778 72.774634 
L 245.958778 72.774634 
L 246.706726 72.752892 
L 246.706726 72.752892 
L 248.171293 71.339629 
L 248.171293 71.339629 
L 248.93311 71.165689 
L 248.93311 71.165689 
L 252.676816 70.872165 
L 252.676816 70.872165 
L 253.463166 70.65474 
L 253.463166 70.65474 
L 254.961334 70.622126 
L 254.961334 70.622126 
L 255.714446 69.991593 
L 255.714446 69.991593 
L 257.853854 68.730528 
L 257.853854 68.730528 
L 260.126325 68.49136 
L 260.126325 68.49136 
L 265.348691 68.110866 
L 265.348691 68.110866 
L 266.847826 68.089124 
L 266.847826 68.089124 
L 267.592718 66.719346 
L 267.592718 66.719346 
L 272.111686 66.567148 
L 272.111686 66.567148 
L 273.458792 65.860516 
L 273.458792 65.860516 
L 275.043808 65.80616 
L 275.043808 65.80616 
L 276.87231 65.577864 
L 276.87231 65.577864 
L 277.277938 65.643091 
L 277.712719 65.37131 
L 277.712719 65.37131 
L 278.027207 64.392897 
L 278.027207 64.392897 
L 278.77272 64.208086 
L 278.77272 64.208086 
L 279.949854 64.142858 
L 279.949854 64.142858 
L 280.268514 64.316798 
L 280.268514 64.316798 
L 280.690842 64.077631 
L 280.690842 64.077631 
L 281.017982 64.392897 
L 281.017982 64.392897 
L 281.442314 64.066759 
L 281.442314 64.066759 
L 281.769073 64.273313 
L 281.769073 64.273313 
L 282.187724 64.034146 
L 282.187724 64.034146 
L 282.930067 64.023274 
L 282.930067 64.023274 
L 284.062668 63.023119 
L 284.062668 63.023119 
L 285.71188 62.94702 
L 286.301712 62.414329 
L 286.301712 62.414329 
L 287.050653 62.4252 
L 287.050653 62.4252 
L 287.740044 61.783796 
L 288.498484 61.414173 
L 288.498484 61.414173 
L 290.751544 61.403302 
L 290.751544 61.403302 
L 291.499103 60.946709 
L 291.959739 60.914096 
L 291.959739 60.914096 
L 292.238528 60.718413 
L 292.238528 60.718413 
L 295.990403 60.566215 
L 295.990403 60.566215 
L 297.543363 59.816099 
L 297.543363 59.816099 
L 298.239853 59.598674 
L 298.239853 59.598674 
L 299.728608 59.435605 
L 299.728608 59.435605 
L 302.046839 59.076854 
L 302.046839 59.076854 
L 304.179554 58.750716 
L 304.179554 58.750716 
L 304.907304 57.696204 
L 304.907304 57.696204 
L 307.167634 57.66359 
L 307.167634 57.66359 
L 307.921645 57.098285 
L 307.921645 57.098285 
L 308.846587 56.837375 
L 309.416876 56.522109 
L 309.416876 56.522109 
L 311.681378 56.326426 
L 311.681378 56.326426 
L 312.414309 55.75025 
L 312.414309 55.75025 
L 313.152931 55.434983 
L 313.152931 55.434983 
L 313.88733 55.000133 
L 313.88733 55.000133 
L 315.392907 54.934906 
L 315.392907 54.934906 
L 316.139275 54.554412 
L 319.124747 54.141304 
L 319.124747 54.141304 
L 319.873482 53.043307 
L 319.873482 53.043307 
L 321.387548 53.032436 
L 321.387548 53.032436 
L 322.888859 52.934595 
L 322.888859 52.934595 
L 323.604268 52.369289 
L 323.604268 52.369289 
L 325.09197 52.271448 
L 325.09197 52.271448 
L 325.845177 51.869212 
L 325.845177 51.869212 
L 328.051639 51.836598 
L 328.051639 51.836598 
L 328.792109 50.749472 
L 328.792109 50.749472 
L 330.277436 50.705987 
L 330.277436 50.705987 
L 331.028597 50.390721 
L 331.028597 50.390721 
L 331.780699 50.423335 
L 331.780699 50.423335 
L 332.743775 50.129811 
L 332.743775 50.129811 
L 333.288426 50.11894 
L 333.288426 50.11894 
L 334.023206 49.945 
L 334.023206 49.945 
L 334.764574 49.934128 
L 334.764574 49.934128 
L 335.505873 49.477536 
L 339.223974 49.357952 
L 339.223974 49.357952 
L 339.975756 49.216626 
L 339.975756 49.216626 
L 340.720268 48.433895 
L 340.720268 48.433895 
L 343.689972 48.30344 
L 343.689972 48.30344 
L 344.446279 47.411997 
L 344.446279 47.411997 
L 348.190701 47.183701 
L 348.190701 47.183701 
L 348.916845 46.346614 
L 348.916845 46.346614 
L 349.673394 45.737824 
L 349.673394 45.737824 
L 351.87958 45.607369 
L 351.87958 45.607369 
L 352.632174 44.433273 
L 352.632174 44.433273 
L 353.386021 43.889711 
L 353.386021 43.889711 
L 354.140092 43.704899 
L 354.140092 43.704899 
L 354.88962 43.704899 
L 354.88962 43.704899 
L 356.375051 43.19395 
L 356.375051 43.19395 
L 357.87473 43.117852 
L 357.87473 43.117852 
L 359.360359 42.93304 
L 359.360359 42.93304 
L 360.108851 42.139439 
L 360.108851 42.139439 
L 360.859779 42.06334 
L 360.859779 42.06334 
L 361.612347 41.128412 
L 361.612347 41.128412 
L 363.089669 41.084927 
L 363.089669 41.084927 
L 363.841996 40.693562 
L 363.841996 40.693562 
L 365.343963 40.671819 
L 365.343963 40.671819 
L 366.075133 40.226098 
L 366.075133 40.226098 
L 370.551502 39.954317 
L 370.551502 39.954317 
L 371.30806 38.671509 
L 371.30806 38.671509 
L 373.581818 38.606281 
L 373.581818 38.606281 
" style="fill:none;stroke:#000000;stroke-linecap:square;stroke-width:3;"/>
   </g>
   <g id="patch_3">
    <path d="M 54 123.578182 
L 54 34.56 
" style="fill:none;stroke:#000000;stroke-linecap:square;stroke-linejoin:miter;stroke-width:0.8;"/>
   </g>
   <g id="patch_4">
    <path d="M 388.8 123.578182 
L 388.8 34.56 
" style="fill:none;stroke:#000000;stroke-linecap:square;stroke-linejoin:miter;stroke-width:0.8;"/>
   </g>
   <g id="patch_5">
    <path d="M 54 123.578182 
L 388.8 123.578182 
" style="fill:none;stroke:#000000;stroke-linecap:square;stroke-linejoin:miter;stroke-width:0.8;"/>
   </g>
   <g id="patch_6">
    <path d="M 54 34.56 
L 388.8 34.56 
" style="fill:none;stroke:#000000;stroke-linecap:square;stroke-linejoin:miter;stroke-width:0.8;"/>
   </g>
   <g id="legend_1">
    <g id="patch_7">
     <path d="M 61 57.238125 
L 126.579688 57.238125 
Q 128.579688 57.238125 128.579688 55.238125 
L 128.579688 41.56 
Q 128.579688 39.56 126.579688 39.56 
L 61 39.56 
Q 59 39.56 59 41.56 
L 59 55.238125 
Q 59 57.238125 61 57.238125 
z
" style="fill:#ffffff;opacity:0.8;stroke:#cccccc;stroke-linejoin:miter;"/>
    </g>
    <g id="line2d_23">
     <path d="M 63 47.658437 
L 83 47.658437 
" style="fill:none;stroke:#000000;stroke-linecap:square;stroke-width:3;"/>
    </g>
    <g id="line2d_24"/>
    <g id="text_5">
     <!-- games -->
     <g transform="translate(91 51.158437)scale(0.1 -0.1)">
      <defs>
       <path d="M 45.40625 27.984375 
Q 45.40625 37.75 41.375 43.109375 
Q 37.359375 48.484375 30.078125 48.484375 
Q 22.859375 48.484375 18.828125 43.109375 
Q 14.796875 37.75 14.796875 27.984375 
Q 14.796875 18.265625 18.828125 12.890625 
Q 22.859375 7.515625 30.078125 7.515625 
Q 37.359375 7.515625 41.375 12.890625 
Q 45.40625 18.265625 45.40625 27.984375 
z
M 54.390625 6.78125 
Q 54.390625 -7.171875 48.1875 -13.984375 
Q 42 -20.796875 29.203125 -20.796875 
Q 24.46875 -20.796875 20.265625 -20.09375 
Q 16.0625 -19.390625 12.109375 -17.921875 
L 12.109375 -9.1875 
Q 16.0625 -11.328125 19.921875 -12.34375 
Q 23.78125 -13.375 27.78125 -13.375 
Q 36.625 -13.375 41.015625 -8.765625 
Q 45.40625 -4.15625 45.40625 5.171875 
L 45.40625 9.625 
Q 42.625 4.78125 38.28125 2.390625 
Q 33.9375 0 27.875 0 
Q 17.828125 0 11.671875 7.65625 
Q 5.515625 15.328125 5.515625 27.984375 
Q 5.515625 40.671875 11.671875 48.328125 
Q 17.828125 56 27.875 56 
Q 33.9375 56 38.28125 53.609375 
Q 42.625 51.21875 45.40625 46.390625 
L 45.40625 54.6875 
L 54.390625 54.6875 
z
" id="DejaVuSans-103"/>
       <path d="M 34.28125 27.484375 
Q 23.390625 27.484375 19.1875 25 
Q 14.984375 22.515625 14.984375 16.5 
Q 14.984375 11.71875 18.140625 8.90625 
Q 21.296875 6.109375 26.703125 6.109375 
Q 34.1875 6.109375 38.703125 11.40625 
Q 43.21875 16.703125 43.21875 25.484375 
L 43.21875 27.484375 
z
M 52.203125 31.203125 
L 52.203125 0 
L 43.21875 0 
L 43.21875 8.296875 
Q 40.140625 3.328125 35.546875 0.953125 
Q 30.953125 -1.421875 24.3125 -1.421875 
Q 15.921875 -1.421875 10.953125 3.296875 
Q 6 8.015625 6 15.921875 
Q 6 25.140625 12.171875 29.828125 
Q 18.359375 34.515625 30.609375 34.515625 
L 43.21875 34.515625 
L 43.21875 35.40625 
Q 43.21875 41.609375 39.140625 45 
Q 35.0625 48.390625 27.6875 48.390625 
Q 23 48.390625 18.546875 47.265625 
Q 14.109375 46.140625 10.015625 43.890625 
L 10.015625 52.203125 
Q 14.9375 54.109375 19.578125 55.046875 
Q 24.21875 56 28.609375 56 
Q 40.484375 56 46.34375 49.84375 
Q 52.203125 43.703125 52.203125 31.203125 
z
" id="DejaVuSans-97"/>
       <path d="M 52 44.1875 
Q 55.375 50.25 60.0625 53.125 
Q 64.75 56 71.09375 56 
Q 79.640625 56 84.28125 50.015625 
Q 88.921875 44.046875 88.921875 33.015625 
L 88.921875 0 
L 79.890625 0 
L 79.890625 32.71875 
Q 79.890625 40.578125 77.09375 44.375 
Q 74.3125 48.1875 68.609375 48.1875 
Q 61.625 48.1875 57.5625 43.546875 
Q 53.515625 38.921875 53.515625 30.90625 
L 53.515625 0 
L 44.484375 0 
L 44.484375 32.71875 
Q 44.484375 40.625 41.703125 44.40625 
Q 38.921875 48.1875 33.109375 48.1875 
Q 26.21875 48.1875 22.15625 43.53125 
Q 18.109375 38.875 18.109375 30.90625 
L 18.109375 0 
L 9.078125 0 
L 9.078125 54.6875 
L 18.109375 54.6875 
L 18.109375 46.1875 
Q 21.1875 51.21875 25.484375 53.609375 
Q 29.78125 56 35.6875 56 
Q 41.65625 56 45.828125 52.96875 
Q 50 49.953125 52 44.1875 
z
" id="DejaVuSans-109"/>
       <path d="M 56.203125 29.59375 
L 56.203125 25.203125 
L 14.890625 25.203125 
Q 15.484375 15.921875 20.484375 11.0625 
Q 25.484375 6.203125 34.421875 6.203125 
Q 39.59375 6.203125 44.453125 7.46875 
Q 49.3125 8.734375 54.109375 11.28125 
L 54.109375 2.78125 
Q 49.265625 0.734375 44.1875 -0.34375 
Q 39.109375 -1.421875 33.890625 -1.421875 
Q 20.796875 -1.421875 13.15625 6.1875 
Q 5.515625 13.8125 5.515625 26.8125 
Q 5.515625 40.234375 12.765625 48.109375 
Q 20.015625 56 32.328125 56 
Q 43.359375 56 49.78125 48.890625 
Q 56.203125 41.796875 56.203125 29.59375 
z
M 47.21875 32.234375 
Q 47.125 39.59375 43.09375 43.984375 
Q 39.0625 48.390625 32.421875 48.390625 
Q 24.90625 48.390625 20.390625 44.140625 
Q 15.875 39.890625 15.1875 32.171875 
z
" id="DejaVuSans-101"/>
       <path d="M 44.28125 53.078125 
L 44.28125 44.578125 
Q 40.484375 46.53125 36.375 47.5 
Q 32.28125 48.484375 27.875 48.484375 
Q 21.1875 48.484375 17.84375 46.4375 
Q 14.5 44.390625 14.5 40.28125 
Q 14.5 37.15625 16.890625 35.375 
Q 19.28125 33.59375 26.515625 31.984375 
L 29.59375 31.296875 
Q 39.15625 29.25 43.1875 25.515625 
Q 47.21875 21.78125 47.21875 15.09375 
Q 47.21875 7.46875 41.1875 3.015625 
Q 35.15625 -1.421875 24.609375 -1.421875 
Q 20.21875 -1.421875 15.453125 -0.5625 
Q 10.6875 0.296875 5.421875 2 
L 5.421875 11.28125 
Q 10.40625 8.6875 15.234375 7.390625 
Q 20.0625 6.109375 24.8125 6.109375 
Q 31.15625 6.109375 34.5625 8.28125 
Q 37.984375 10.453125 37.984375 14.40625 
Q 37.984375 18.0625 35.515625 20.015625 
Q 33.0625 21.96875 24.703125 23.78125 
L 21.578125 24.515625 
Q 13.234375 26.265625 9.515625 29.90625 
Q 5.8125 33.546875 5.8125 39.890625 
Q 5.8125 47.609375 11.28125 51.796875 
Q 16.75 56 26.8125 56 
Q 31.78125 56 36.171875 55.265625 
Q 40.578125 54.546875 44.28125 53.078125 
z
" id="DejaVuSans-115"/>
      </defs>
      <use xlink:href="#DejaVuSans-103"/>
      <use x="63.476562" xlink:href="#DejaVuSans-97"/>
      <use x="124.755859" xlink:href="#DejaVuSans-109"/>
      <use x="222.167969" xlink:href="#DejaVuSans-101"/>
      <use x="283.691406" xlink:href="#DejaVuSans-115"/>
     </g>
    </g>
   </g>
  </g>
  <g id="axes_2">
   <g id="patch_8">
    <path d="M 54 230.4 
L 388.8 230.4 
L 388.8 141.381818 
L 54 141.381818 
z
" style="fill:#ffffff;"/>
   </g>
   <g id="matplotlib.axis_3">
    <g id="xtick_18">
     <g id="line2d_25">
      <g>
       <use style="stroke:#000000;stroke-width:0.8;" x="64.515752" xlink:href="#mf67170af83" y="230.4"/>
      </g>
     </g>
     <g id="text_6">
      <!-- 2019-09 -->
      <g transform="translate(27.290931 264.871846)rotate(-30)scale(0.1 -0.1)">
       <defs>
        <path d="M 12.40625 8.296875 
L 28.515625 8.296875 
L 28.515625 63.921875 
L 10.984375 60.40625 
L 10.984375 69.390625 
L 28.421875 72.90625 
L 38.28125 72.90625 
L 38.28125 8.296875 
L 54.390625 8.296875 
L 54.390625 0 
L 12.40625 0 
z
" id="DejaVuSans-49"/>
        <path d="M 4.890625 31.390625 
L 31.203125 31.390625 
L 31.203125 23.390625 
L 4.890625 23.390625 
z
" id="DejaVuSans-45"/>
       </defs>
       <use xlink:href="#DejaVuSans-50"/>
       <use x="63.623047" xlink:href="#DejaVuSans-48"/>
       <use x="127.246094" xlink:href="#DejaVuSans-49"/>
       <use x="190.869141" xlink:href="#DejaVuSans-57"/>
       <use x="254.492188" xlink:href="#DejaVuSans-45"/>
       <use x="290.576172" xlink:href="#DejaVuSans-48"/>
       <use x="354.199219" xlink:href="#DejaVuSans-57"/>
      </g>
     </g>
    </g>
    <g id="xtick_19">
     <g id="line2d_26">
      <g>
       <use style="stroke:#000000;stroke-width:0.8;" x="110.028401" xlink:href="#mf67170af83" y="230.4"/>
      </g>
     </g>
     <g id="text_7">
      <!-- 2019-11 -->
      <g transform="translate(72.80358 264.871846)rotate(-30)scale(0.1 -0.1)">
       <use xlink:href="#DejaVuSans-50"/>
       <use x="63.623047" xlink:href="#DejaVuSans-48"/>
       <use x="127.246094" xlink:href="#DejaVuSans-49"/>
       <use x="190.869141" xlink:href="#DejaVuSans-57"/>
       <use x="254.492188" xlink:href="#DejaVuSans-45"/>
       <use x="290.576172" xlink:href="#DejaVuSans-49"/>
       <use x="354.199219" xlink:href="#DejaVuSans-49"/>
      </g>
     </g>
    </g>
    <g id="xtick_20">
     <g id="line2d_27">
      <g>
       <use style="stroke:#000000;stroke-width:0.8;" x="155.54105" xlink:href="#mf67170af83" y="230.4"/>
      </g>
     </g>
     <g id="text_8">
      <!-- 2020-01 -->
      <g transform="translate(118.316229 264.871846)rotate(-30)scale(0.1 -0.1)">
       <use xlink:href="#DejaVuSans-50"/>
       <use x="63.623047" xlink:href="#DejaVuSans-48"/>
       <use x="127.246094" xlink:href="#DejaVuSans-50"/>
       <use x="190.869141" xlink:href="#DejaVuSans-48"/>
       <use x="254.492188" xlink:href="#DejaVuSans-45"/>
       <use x="290.576172" xlink:href="#DejaVuSans-48"/>
       <use x="354.199219" xlink:href="#DejaVuSans-49"/>
      </g>
     </g>
    </g>
    <g id="xtick_21">
     <g id="line2d_28">
      <g>
       <use style="stroke:#000000;stroke-width:0.8;" x="200.307589" xlink:href="#mf67170af83" y="230.4"/>
      </g>
     </g>
     <g id="text_9">
      <!-- 2020-03 -->
      <g transform="translate(163.082769 264.871846)rotate(-30)scale(0.1 -0.1)">
       <defs>
        <path d="M 40.578125 39.3125 
Q 47.65625 37.796875 51.625 33 
Q 55.609375 28.21875 55.609375 21.1875 
Q 55.609375 10.40625 48.1875 4.484375 
Q 40.765625 -1.421875 27.09375 -1.421875 
Q 22.515625 -1.421875 17.65625 -0.515625 
Q 12.796875 0.390625 7.625 2.203125 
L 7.625 11.71875 
Q 11.71875 9.328125 16.59375 8.109375 
Q 21.484375 6.890625 26.8125 6.890625 
Q 36.078125 6.890625 40.9375 10.546875 
Q 45.796875 14.203125 45.796875 21.1875 
Q 45.796875 27.640625 41.28125 31.265625 
Q 36.765625 34.90625 28.71875 34.90625 
L 20.21875 34.90625 
L 20.21875 43.015625 
L 29.109375 43.015625 
Q 36.375 43.015625 40.234375 45.921875 
Q 44.09375 48.828125 44.09375 54.296875 
Q 44.09375 59.90625 40.109375 62.90625 
Q 36.140625 65.921875 28.71875 65.921875 
Q 24.65625 65.921875 20.015625 65.03125 
Q 15.375 64.15625 9.8125 62.3125 
L 9.8125 71.09375 
Q 15.4375 72.65625 20.34375 73.4375 
Q 25.25 74.21875 29.59375 74.21875 
Q 40.828125 74.21875 47.359375 69.109375 
Q 53.90625 64.015625 53.90625 55.328125 
Q 53.90625 49.265625 50.4375 45.09375 
Q 46.96875 40.921875 40.578125 39.3125 
z
" id="DejaVuSans-51"/>
       </defs>
       <use xlink:href="#DejaVuSans-50"/>
       <use x="63.623047" xlink:href="#DejaVuSans-48"/>
       <use x="127.246094" xlink:href="#DejaVuSans-50"/>
       <use x="190.869141" xlink:href="#DejaVuSans-48"/>
       <use x="254.492188" xlink:href="#DejaVuSans-45"/>
       <use x="290.576172" xlink:href="#DejaVuSans-48"/>
       <use x="354.199219" xlink:href="#DejaVuSans-51"/>
      </g>
     </g>
    </g>
    <g id="xtick_22">
     <g id="line2d_29">
      <g>
       <use style="stroke:#000000;stroke-width:0.8;" x="245.820238" xlink:href="#mf67170af83" y="230.4"/>
      </g>
     </g>
     <g id="text_10">
      <!-- 2020-05 -->
      <g transform="translate(208.595417 264.871846)rotate(-30)scale(0.1 -0.1)">
       <use xlink:href="#DejaVuSans-50"/>
       <use x="63.623047" xlink:href="#DejaVuSans-48"/>
       <use x="127.246094" xlink:href="#DejaVuSans-50"/>
       <use x="190.869141" xlink:href="#DejaVuSans-48"/>
       <use x="254.492188" xlink:href="#DejaVuSans-45"/>
       <use x="290.576172" xlink:href="#DejaVuSans-48"/>
       <use x="354.199219" xlink:href="#DejaVuSans-53"/>
      </g>
     </g>
    </g>
    <g id="xtick_23">
     <g id="line2d_30">
      <g>
       <use style="stroke:#000000;stroke-width:0.8;" x="291.332887" xlink:href="#mf67170af83" y="230.4"/>
      </g>
     </g>
     <g id="text_11">
      <!-- 2020-07 -->
      <g transform="translate(254.108066 264.871846)rotate(-30)scale(0.1 -0.1)">
       <use xlink:href="#DejaVuSans-50"/>
       <use x="63.623047" xlink:href="#DejaVuSans-48"/>
       <use x="127.246094" xlink:href="#DejaVuSans-50"/>
       <use x="190.869141" xlink:href="#DejaVuSans-48"/>
       <use x="254.492188" xlink:href="#DejaVuSans-45"/>
       <use x="290.576172" xlink:href="#DejaVuSans-48"/>
       <use x="354.199219" xlink:href="#DejaVuSans-55"/>
      </g>
     </g>
    </g>
    <g id="xtick_24">
     <g id="line2d_31">
      <g>
       <use style="stroke:#000000;stroke-width:0.8;" x="337.591645" xlink:href="#mf67170af83" y="230.4"/>
      </g>
     </g>
     <g id="text_12">
      <!-- 2020-09 -->
      <g transform="translate(300.366824 264.871846)rotate(-30)scale(0.1 -0.1)">
       <use xlink:href="#DejaVuSans-50"/>
       <use x="63.623047" xlink:href="#DejaVuSans-48"/>
       <use x="127.246094" xlink:href="#DejaVuSans-50"/>
       <use x="190.869141" xlink:href="#DejaVuSans-48"/>
       <use x="254.492188" xlink:href="#DejaVuSans-45"/>
       <use x="290.576172" xlink:href="#DejaVuSans-48"/>
       <use x="354.199219" xlink:href="#DejaVuSans-57"/>
      </g>
     </g>
    </g>
    <g id="xtick_25">
     <g id="line2d_32">
      <g>
       <use style="stroke:#000000;stroke-width:0.8;" x="383.104293" xlink:href="#mf67170af83" y="230.4"/>
      </g>
     </g>
     <g id="text_13">
      <!-- 2020-11 -->
      <g transform="translate(345.879472 264.871846)rotate(-30)scale(0.1 -0.1)">
       <use xlink:href="#DejaVuSans-50"/>
       <use x="63.623047" xlink:href="#DejaVuSans-48"/>
       <use x="127.246094" xlink:href="#DejaVuSans-50"/>
       <use x="190.869141" xlink:href="#DejaVuSans-48"/>
       <use x="254.492188" xlink:href="#DejaVuSans-45"/>
       <use x="290.576172" xlink:href="#DejaVuSans-49"/>
       <use x="354.199219" xlink:href="#DejaVuSans-49"/>
      </g>
     </g>
    </g>
    <g id="xtick_26">
     <g id="line2d_33">
      <g>
       <use style="stroke:#000000;stroke-width:0.6;" x="72.070106" xlink:href="#m7bc6d6aa38" y="230.4"/>
      </g>
     </g>
    </g>
    <g id="xtick_27">
     <g id="line2d_34">
      <g>
       <use style="stroke:#000000;stroke-width:0.6;" x="109.375556" xlink:href="#m7bc6d6aa38" y="230.4"/>
      </g>
     </g>
    </g>
    <g id="xtick_28">
     <g id="line2d_35">
      <g>
       <use style="stroke:#000000;stroke-width:0.6;" x="146.681005" xlink:href="#m7bc6d6aa38" y="230.4"/>
      </g>
     </g>
    </g>
    <g id="xtick_29">
     <g id="line2d_36">
      <g>
       <use style="stroke:#000000;stroke-width:0.6;" x="183.986455" xlink:href="#m7bc6d6aa38" y="230.4"/>
      </g>
     </g>
    </g>
    <g id="xtick_30">
     <g id="line2d_37">
      <g>
       <use style="stroke:#000000;stroke-width:0.6;" x="221.291905" xlink:href="#m7bc6d6aa38" y="230.4"/>
      </g>
     </g>
    </g>
    <g id="xtick_31">
     <g id="line2d_38">
      <g>
       <use style="stroke:#000000;stroke-width:0.6;" x="258.597355" xlink:href="#m7bc6d6aa38" y="230.4"/>
      </g>
     </g>
    </g>
    <g id="xtick_32">
     <g id="line2d_39">
      <g>
       <use style="stroke:#000000;stroke-width:0.6;" x="295.902804" xlink:href="#m7bc6d6aa38" y="230.4"/>
      </g>
     </g>
    </g>
    <g id="xtick_33">
     <g id="line2d_40">
      <g>
       <use style="stroke:#000000;stroke-width:0.6;" x="333.208254" xlink:href="#m7bc6d6aa38" y="230.4"/>
      </g>
     </g>
    </g>
    <g id="xtick_34">
     <g id="line2d_41">
      <g>
       <use style="stroke:#000000;stroke-width:0.6;" x="370.513704" xlink:href="#m7bc6d6aa38" y="230.4"/>
      </g>
     </g>
    </g>
    <g id="text_14">
     <!-- datetime -->
     <g transform="translate(198.828906 278.271346)scale(0.1 -0.1)">
      <defs>
       <path d="M 45.40625 46.390625 
L 45.40625 75.984375 
L 54.390625 75.984375 
L 54.390625 0 
L 45.40625 0 
L 45.40625 8.203125 
Q 42.578125 3.328125 38.25 0.953125 
Q 33.9375 -1.421875 27.875 -1.421875 
Q 17.96875 -1.421875 11.734375 6.484375 
Q 5.515625 14.40625 5.515625 27.296875 
Q 5.515625 40.1875 11.734375 48.09375 
Q 17.96875 56 27.875 56 
Q 33.9375 56 38.25 53.625 
Q 42.578125 51.265625 45.40625 46.390625 
z
M 14.796875 27.296875 
Q 14.796875 17.390625 18.875 11.75 
Q 22.953125 6.109375 30.078125 6.109375 
Q 37.203125 6.109375 41.296875 11.75 
Q 45.40625 17.390625 45.40625 27.296875 
Q 45.40625 37.203125 41.296875 42.84375 
Q 37.203125 48.484375 30.078125 48.484375 
Q 22.953125 48.484375 18.875 42.84375 
Q 14.796875 37.203125 14.796875 27.296875 
z
" id="DejaVuSans-100"/>
       <path d="M 18.3125 70.21875 
L 18.3125 54.6875 
L 36.8125 54.6875 
L 36.8125 47.703125 
L 18.3125 47.703125 
L 18.3125 18.015625 
Q 18.3125 11.328125 20.140625 9.421875 
Q 21.96875 7.515625 27.59375 7.515625 
L 36.8125 7.515625 
L 36.8125 0 
L 27.59375 0 
Q 17.1875 0 13.234375 3.875 
Q 9.28125 7.765625 9.28125 18.015625 
L 9.28125 47.703125 
L 2.6875 47.703125 
L 2.6875 54.6875 
L 9.28125 54.6875 
L 9.28125 70.21875 
z
" id="DejaVuSans-116"/>
       <path d="M 9.421875 54.6875 
L 18.40625 54.6875 
L 18.40625 0 
L 9.421875 0 
z
M 9.421875 75.984375 
L 18.40625 75.984375 
L 18.40625 64.59375 
L 9.421875 64.59375 
z
" id="DejaVuSans-105"/>
      </defs>
      <use xlink:href="#DejaVuSans-100"/>
      <use x="63.476562" xlink:href="#DejaVuSans-97"/>
      <use x="124.755859" xlink:href="#DejaVuSans-116"/>
      <use x="163.964844" xlink:href="#DejaVuSans-101"/>
      <use x="225.488281" xlink:href="#DejaVuSans-116"/>
      <use x="264.697266" xlink:href="#DejaVuSans-105"/>
      <use x="292.480469" xlink:href="#DejaVuSans-109"/>
      <use x="389.892578" xlink:href="#DejaVuSans-101"/>
     </g>
    </g>
   </g>
   <g id="matplotlib.axis_4">
    <g id="ytick_5">
     <g id="line2d_42">
      <g>
       <use style="stroke:#000000;stroke-width:0.8;" x="54" xlink:href="#m28bad88913" y="198.883837"/>
      </g>
     </g>
     <g id="text_15">
      <!-- 1.5 -->
      <g transform="translate(31.096875 202.683056)scale(0.1 -0.1)">
       <defs>
        <path d="M 10.6875 12.40625 
L 21 12.40625 
L 21 0 
L 10.6875 0 
z
" id="DejaVuSans-46"/>
       </defs>
       <use xlink:href="#DejaVuSans-49"/>
       <use x="63.623047" xlink:href="#DejaVuSans-46"/>
       <use x="95.410156" xlink:href="#DejaVuSans-53"/>
      </g>
     </g>
    </g>
    <g id="ytick_6">
     <g id="line2d_43">
      <g>
       <use style="stroke:#000000;stroke-width:0.8;" x="54" xlink:href="#m28bad88913" y="164.741607"/>
      </g>
     </g>
     <g id="text_16">
      <!-- 1.6 -->
      <g transform="translate(31.096875 168.540826)scale(0.1 -0.1)">
       <defs>
        <path d="M 33.015625 40.375 
Q 26.375 40.375 22.484375 35.828125 
Q 18.609375 31.296875 18.609375 23.390625 
Q 18.609375 15.53125 22.484375 10.953125 
Q 26.375 6.390625 33.015625 6.390625 
Q 39.65625 6.390625 43.53125 10.953125 
Q 47.40625 15.53125 47.40625 23.390625 
Q 47.40625 31.296875 43.53125 35.828125 
Q 39.65625 40.375 33.015625 40.375 
z
M 52.59375 71.296875 
L 52.59375 62.3125 
Q 48.875 64.0625 45.09375 64.984375 
Q 41.3125 65.921875 37.59375 65.921875 
Q 27.828125 65.921875 22.671875 59.328125 
Q 17.53125 52.734375 16.796875 39.40625 
Q 19.671875 43.65625 24.015625 45.921875 
Q 28.375 48.1875 33.59375 48.1875 
Q 44.578125 48.1875 50.953125 41.515625 
Q 57.328125 34.859375 57.328125 23.390625 
Q 57.328125 12.15625 50.6875 5.359375 
Q 44.046875 -1.421875 33.015625 -1.421875 
Q 20.359375 -1.421875 13.671875 8.265625 
Q 6.984375 17.96875 6.984375 36.375 
Q 6.984375 53.65625 15.1875 63.9375 
Q 23.390625 74.21875 37.203125 74.21875 
Q 40.921875 74.21875 44.703125 73.484375 
Q 48.484375 72.75 52.59375 71.296875 
z
" id="DejaVuSans-54"/>
       </defs>
       <use xlink:href="#DejaVuSans-49"/>
       <use x="63.623047" xlink:href="#DejaVuSans-46"/>
       <use x="95.410156" xlink:href="#DejaVuSans-54"/>
      </g>
     </g>
    </g>
    <g id="text_17">
     <!-- 1e7 -->
     <g transform="translate(54 138.381818)scale(0.1 -0.1)">
      <use xlink:href="#DejaVuSans-49"/>
      <use x="63.623047" xlink:href="#DejaVuSans-101"/>
      <use x="125.146484" xlink:href="#DejaVuSans-55"/>
     </g>
    </g>
   </g>
   <g id="line2d_44">
    <path clip-path="url(#pc4ab95cc49)" d="M 69.218182 226.353719 
L 70.018738 226.100589 
L 70.018738 226.100589 
L 70.764026 225.456256 
L 70.764026 225.456256 
L 72.267315 225.358166 
L 72.267315 225.358166 
L 73.729697 224.646437 
L 73.729697 224.646437 
L 75.089947 224.458313 
L 75.089947 224.458313 
L 75.843042 224.256806 
L 75.843042 224.256806 
L 76.592183 224.256772 
L 76.592183 224.256772 
L 77.650336 223.970455 
L 77.650336 223.970455 
L 79.14372 223.923168 
L 79.14372 223.923168 
L 79.584615 223.770108 
L 79.584615 223.770108 
L 81.042041 223.608752 
L 81.042041 223.608752 
L 81.811405 223.284503 
L 81.811405 223.284503 
L 82.58551 222.486702 
L 82.58551 222.486702 
L 84.772111 222.436649 
L 84.772111 222.436649 
L 85.516112 222.436615 
L 85.516112 222.436615 
L 86.274311 222.044423 
L 86.274311 222.044423 
L 87.796253 221.92892 
L 87.796253 221.92892 
L 89.313583 221.72953 
L 89.313583 221.72953 
L 90.76695 220.519666 
L 90.76695 220.519666 
L 91.515874 220.515637 
L 91.515874 220.515637 
L 92.284539 220.319694 
L 92.284539 220.319694 
L 93.778613 220.206445 
L 93.778613 220.206445 
L 94.534429 219.996402 
L 94.534429 219.996402 
L 95.231194 219.267192 
L 95.231194 219.267192 
L 97.431447 219.18409 
L 97.431447 219.18409 
L 98.956048 218.295743 
L 98.956048 218.295743 
L 100.428888 218.193146 
L 100.428888 218.193146 
L 101.927833 217.634169 
L 101.927833 217.634169 
L 104.129649 217.575547 
L 104.129649 217.575547 
L 105.657143 217.023638 
L 105.657143 217.023638 
L 106.41099 216.536189 
L 106.41099 216.536189 
L 107.198066 216.478762 
L 107.198066 216.478762 
L 109.415383 215.804589 
L 109.415383 215.804589 
L 110.914993 215.76256 
L 110.914993 215.76256 
L 111.667112 215.577578 
L 111.667112 215.577578 
L 113.140625 215.40731 
L 113.140625 215.40731 
L 113.903643 215.189415 
L 113.903643 215.189415 
L 115.436499 215.069234 
L 115.436499 215.069234 
L 116.198593 214.800501 
L 116.198593 214.800501 
L 117.709964 213.226168 
L 117.709964 213.226168 
L 119.850373 213.224461 
L 119.850373 213.224461 
L 120.609012 212.803283 
L 120.609012 212.803283 
L 122.887097 212.629123 
L 122.887097 212.629123 
L 123.595236 212.333725 
L 123.595236 212.333725 
L 124.683096 211.599086 
L 124.683096 211.599086 
L 125.098455 210.85383 
L 125.098455 210.85383 
L 126.60297 210.703809 
L 126.60297 210.703809 
L 127.363414 210.350368 
L 127.363414 210.350368 
L 127.708231 210.349378 
L 127.708231 210.349378 
L 128.87552 210.057394 
L 128.87552 210.057394 
L 131.037474 209.924103 
L 131.037474 209.924103 
L 131.825906 209.822871 
L 131.825906 209.822871 
L 132.594079 209.556971 
L 132.594079 209.556971 
L 133.3453 208.783513 
L 133.3453 208.783513 
L 136.270997 208.781362 
L 136.270997 208.781362 
L 137.026087 208.331914 
L 137.026087 208.331914 
L 139.26564 208.173904 
L 139.26564 208.173904 
L 140.374994 207.623633 
L 140.374994 207.623633 
L 140.790388 206.894526 
L 140.790388 206.894526 
L 141.540988 206.716884 
L 141.540988 206.716884 
L 143.7477 206.687112 
L 143.7477 206.687112 
L 144.499241 206.195532 
L 144.499241 206.195532 
L 146.738639 205.995015 
L 146.738639 205.995015 
L 147.501552 205.824679 
L 147.501552 205.824679 
L 149.019427 204.635676 
L 149.019427 204.635676 
L 151.272296 204.632569 
L 151.272296 204.632569 
L 152.028672 204.212654 
L 152.028672 204.212654 
L 154.313096 204.065467 
L 154.313096 204.065467 
L 154.994387 203.867476 
L 154.994387 203.867476 
L 155.760124 203.080634 
L 155.760124 203.080634 
L 156.513193 202.086207 
L 156.513193 202.086207 
L 157.521572 201.668921 
L 157.521572 201.668921 
L 158.71817 201.570113 
L 158.71817 201.570113 
L 159.474875 201.311554 
L 159.474875 201.311554 
L 160.231001 200.182983 
L 160.231001 200.182983 
L 161.000426 199.752108 
L 163.203347 199.671464 
L 164.72148 198.998965 
L 165.437037 198.294167 
L 166.962338 197.486942 
L 167.714224 197.049785 
L 168.465851 197.037528 
L 169.237806 196.835064 
L 170.762157 196.673162 
L 171.418137 196.339592 
L 172.206845 195.238813 
L 172.936089 195.0385 
L 174.409576 194.935527 
L 175.156393 194.463033 
L 175.841199 194.462555 
L 176.64881 194.098769 
L 178.928432 193.939359 
L 179.691164 193.866944 
L 180.457921 193.644166 
L 181.141215 192.651958 
L 181.890994 192.510678 
L 184.147326 192.511087 
L 184.912217 191.956242 
L 187.901446 191.631823 
L 188.66417 190.833372 
L 189.356704 189.871927 
L 192.344974 189.871825 
L 193.059166 189.482774 
L 195.397415 189.295299 
L 196.158023 189.029468 
L 196.843787 188.274924 
L 197.60354 187.753914 
L 199.065378 187.746778 
L 199.819363 187.195176 
L 201.343463 187.128633 
L 202.072189 186.921595 
L 203.566229 186.697041 
L 204.328227 186.235199 
L 205.110942 184.969001 
L 205.873234 184.960363 
L 207.964852 184.442015 
L 208.711575 183.880102 
L 210.185243 183.844663 
L 210.185243 183.844663 
L 211.70886 183.625299 
L 211.70886 183.625299 
L 212.470099 183.515463 
L 212.470099 183.515463 
L 213.232347 183.225937 
L 213.232347 183.225937 
L 213.942084 182.503658 
L 213.942084 182.503658 
L 215.450631 182.420147 
L 215.450631 182.420147 
L 217.654727 182.295971 
L 217.654727 182.295971 
L 218.416536 182.109964 
L 218.416536 182.109964 
L 222.247114 181.866394 
L 222.247114 181.866394 
L 223.610024 181.791349 
L 223.610024 181.791349 
L 224.347428 181.619887 
L 224.347428 181.619887 
L 225.822419 180.074302 
L 225.822419 180.074302 
L 228.829367 179.835341 
L 228.829367 179.835341 
L 229.595114 179.757189 
L 229.595114 179.757189 
L 231.023221 178.863141 
L 231.023221 178.863141 
L 232.566354 178.770137 
L 232.566354 178.770137 
L 233.311997 178.552242 
L 233.311997 178.552242 
L 235.56377 178.38515 
L 235.56377 178.38515 
L 237.032775 178.272617 
L 237.032775 178.272617 
L 237.776423 178.098969 
L 237.776423 178.098969 
L 239.964656 176.603813 
L 239.964656 176.603813 
L 242.970793 176.473629 
L 242.970793 176.473629 
L 243.695563 176.355292 
L 243.695563 176.355292 
L 244.445809 176.031145 
L 244.445809 176.031145 
L 245.20633 175.464009 
L 245.20633 175.464009 
L 246.706726 175.391388 
L 246.706726 175.391388 
L 248.171293 174.797757 
L 248.171293 174.797757 
L 251.185392 174.654838 
L 251.185392 174.654838 
L 251.948833 174.532097 
L 251.948833 174.532097 
L 252.676816 174.155644 
L 252.676816 174.155644 
L 253.463166 173.359584 
L 253.463166 173.359584 
L 254.961334 173.292119 
L 254.961334 173.292119 
L 255.714446 172.913038 
L 255.714446 172.913038 
L 258.622527 172.722558 
L 258.622527 172.722558 
L 260.879706 172.571377 
L 260.879706 172.571377 
L 261.640124 172.384482 
L 261.640124 172.384482 
L 262.390006 171.936536 
L 262.390006 171.936536 
L 263.105148 171.274723 
L 263.105148 171.274723 
L 264.599767 171.138461 
L 264.599767 171.138461 
L 266.847826 171.12955 
L 266.847826 171.12955 
L 267.592718 170.517824 
L 267.592718 170.517824 
L 269.850742 170.42127 
L 269.850742 170.42127 
L 270.605374 170.328437 
L 270.605374 170.328437 
L 271.353677 170.100333 
L 271.353677 170.100333 
L 272.111686 169.054864 
L 272.111686 169.054864 
L 273.458792 168.594251 
L 273.458792 168.594251 
L 277.712719 168.418384 
L 277.712719 168.418384 
L 278.027207 168.163581 
L 278.027207 168.163581 
L 278.77272 168.024997 
L 278.77272 168.024997 
L 279.218305 167.640863 
L 279.218305 167.640863 
L 279.520531 168.0209 
L 279.520531 168.0209 
L 279.949854 167.285886 
L 279.949854 167.285886 
L 280.268514 167.937013 
L 280.268514 167.937013 
L 280.690842 167.272434 
L 280.690842 167.272434 
L 281.017982 167.74725 
L 281.017982 167.74725 
L 281.442314 167.272537 
L 281.442314 167.272537 
L 281.769073 167.335802 
L 281.769073 167.335802 
L 282.187724 167.264786 
L 282.187724 167.264786 
L 282.930067 167.264786 
L 282.930067 167.264786 
L 284.062668 166.864947 
L 284.062668 166.864947 
L 285.71188 166.831044 
L 286.301712 166.63715 
L 286.301712 166.63715 
L 287.050653 166.629741 
L 287.050653 166.629741 
L 287.740044 166.334035 
L 287.740044 166.334035 
L 290.751544 166.206787 
L 290.751544 166.206787 
L 291.959739 165.713534 
L 291.959739 165.713534 
L 295.258353 165.559382 
L 295.258353 165.559382 
L 295.990403 166.883042 
L 295.990403 166.883042 
L 296.768187 165.580994 
L 296.768187 165.580994 
L 297.543363 163.169938 
L 297.543363 163.169938 
L 300.480632 163.155837 
L 300.480632 163.155837 
L 301.236819 163.410504 
L 301.236819 163.410504 
L 302.686904 162.425501 
L 302.686904 162.425501 
L 303.431934 162.125357 
L 303.431934 162.125357 
L 304.179554 162.099306 
L 304.179554 162.099306 
L 304.907304 161.673177 
L 304.907304 161.673177 
L 307.167634 161.652214 
L 307.167634 161.652214 
L 307.921645 161.474913 
L 307.921645 161.474913 
L 311.681378 161.2014 
L 311.681378 161.2014 
L 313.152931 160.723681 
L 313.152931 160.723681 
L 315.392907 160.657172 
L 315.392907 160.657172 
L 316.89585 160.400628 
L 316.89585 160.400628 
L 317.616044 160.006148 
L 317.616044 160.006148 
L 318.37268 158.392757 
L 318.37268 158.392757 
L 319.124747 158.338778 
L 319.124747 158.338778 
L 319.873482 157.999405 
L 319.873482 157.999405 
L 320.62681 157.888408 
L 320.62681 157.888408 
L 321.387548 157.650915 
L 321.387548 157.650915 
L 322.888859 157.538382 
L 322.888859 157.538382 
L 323.604268 157.234892 
L 323.604268 157.234892 
L 326.590276 156.9074 
L 326.590276 156.9074 
L 328.051639 156.853694 
L 328.051639 156.853694 
L 328.792109 156.542726 
L 328.792109 156.542726 
L 330.277436 156.516915 
L 330.277436 156.516915 
L 331.028597 156.342755 
L 331.028597 156.342755 
L 333.288426 156.189013 
L 333.288426 156.189013 
L 334.023206 156.003587 
L 334.023206 156.003587 
L 339.223974 155.797982 
L 339.223974 155.797982 
L 339.975756 155.699038 
L 339.975756 155.699038 
L 340.720268 155.299335 
L 340.720268 155.299335 
L 343.689972 155.21934 
L 343.689972 155.21934 
L 344.446279 154.837083 
L 344.446279 154.837083 
L 348.190701 154.707684 
L 348.190701 154.707684 
L 348.916845 154.160384 
L 348.916845 154.160384 
L 349.673394 153.077666 
L 349.673394 153.077666 
L 350.52167 150.132967 
L 350.52167 150.132967 
L 351.87958 150.11016 
L 351.87958 150.11016 
L 352.632174 149.871437 
L 352.632174 149.871437 
L 355.639486 149.542716 
L 355.639486 149.542716 
L 359.360359 149.316455 
L 359.360359 149.316455 
L 360.859779 148.322131 
L 360.859779 148.322131 
L 361.612347 147.470965 
L 361.612347 147.470965 
L 365.343963 147.334635 
L 365.343963 147.334635 
L 366.075133 147.110389 
L 366.075133 147.110389 
L 367.575174 146.966821 
L 367.575174 146.966821 
L 368.341042 146.794164 
L 368.341042 146.794164 
L 369.079448 146.454244 
L 369.079448 146.454244 
L 369.816679 145.799908 
L 370.551502 145.778398 
L 370.551502 145.778398 
L 371.30806 145.470948 
L 371.30806 145.470948 
L 373.581818 145.428099 
L 373.581818 145.428099 
" style="fill:none;stroke:#ff0000;stroke-linecap:square;stroke-width:3;"/>
   </g>
   <g id="patch_9">
    <path d="M 54 230.4 
L 54 141.381818 
" style="fill:none;stroke:#000000;stroke-linecap:square;stroke-linejoin:miter;stroke-width:0.8;"/>
   </g>
   <g id="patch_10">
    <path d="M 388.8 230.4 
L 388.8 141.381818 
" style="fill:none;stroke:#000000;stroke-linecap:square;stroke-linejoin:miter;stroke-width:0.8;"/>
   </g>
   <g id="patch_11">
    <path d="M 54 230.4 
L 388.8 230.4 
" style="fill:none;stroke:#000000;stroke-linecap:square;stroke-linejoin:miter;stroke-width:0.8;"/>
   </g>
   <g id="patch_12">
    <path d="M 54 141.381818 
L 388.8 141.381818 
" style="fill:none;stroke:#000000;stroke-linecap:square;stroke-linejoin:miter;stroke-width:0.8;"/>
   </g>
   <g id="legend_2">
    <g id="patch_13">
     <path d="M 61 164.059943 
L 127.832812 164.059943 
Q 129.832812 164.059943 129.832812 162.059943 
L 129.832812 148.381818 
Q 129.832812 146.381818 127.832812 146.381818 
L 61 146.381818 
Q 59 146.381818 59 148.381818 
L 59 162.059943 
Q 59 164.059943 61 164.059943 
z
" style="fill:#ffffff;opacity:0.8;stroke:#cccccc;stroke-linejoin:miter;"/>
    </g>
    <g id="line2d_45">
     <path d="M 63 154.480256 
L 83 154.480256 
" style="fill:none;stroke:#ff0000;stroke-linecap:square;stroke-width:3;"/>
    </g>
    <g id="line2d_46"/>
    <g id="text_18">
     <!-- ratings -->
     <g transform="translate(91 157.980256)scale(0.1 -0.1)">
      <defs>
       <path d="M 41.109375 46.296875 
Q 39.59375 47.171875 37.8125 47.578125 
Q 36.03125 48 33.890625 48 
Q 26.265625 48 22.1875 43.046875 
Q 18.109375 38.09375 18.109375 28.8125 
L 18.109375 0 
L 9.078125 0 
L 9.078125 54.6875 
L 18.109375 54.6875 
L 18.109375 46.1875 
Q 20.953125 51.171875 25.484375 53.578125 
Q 30.03125 56 36.53125 56 
Q 37.453125 56 38.578125 55.875 
Q 39.703125 55.765625 41.0625 55.515625 
z
" id="DejaVuSans-114"/>
       <path d="M 54.890625 33.015625 
L 54.890625 0 
L 45.90625 0 
L 45.90625 32.71875 
Q 45.90625 40.484375 42.875 44.328125 
Q 39.84375 48.1875 33.796875 48.1875 
Q 26.515625 48.1875 22.3125 43.546875 
Q 18.109375 38.921875 18.109375 30.90625 
L 18.109375 0 
L 9.078125 0 
L 9.078125 54.6875 
L 18.109375 54.6875 
L 18.109375 46.1875 
Q 21.34375 51.125 25.703125 53.5625 
Q 30.078125 56 35.796875 56 
Q 45.21875 56 50.046875 50.171875 
Q 54.890625 44.34375 54.890625 33.015625 
z
" id="DejaVuSans-110"/>
      </defs>
      <use xlink:href="#DejaVuSans-114"/>
      <use x="41.113281" xlink:href="#DejaVuSans-97"/>
      <use x="102.392578" xlink:href="#DejaVuSans-116"/>
      <use x="141.601562" xlink:href="#DejaVuSans-105"/>
      <use x="169.384766" xlink:href="#DejaVuSans-110"/>
      <use x="232.763672" xlink:href="#DejaVuSans-103"/>
      <use x="296.240234" xlink:href="#DejaVuSans-115"/>
     </g>
    </g>
   </g>
  </g>
 </g>
 <defs>
  <clipPath id="p368f5aa439">
   <rect height="89.018182" width="334.8" x="54" y="34.56"/>
  </clipPath>
  <clipPath id="pc4ab95cc49">
   <rect height="89.018182" width="334.8" x="54" y="141.381818"/>
  </clipPath>
 </defs>
</svg>
