<?xml version="1.0" encoding="utf-8" standalone="no"?>
<!DOCTYPE svg PUBLIC "-//W3C//DTD SVG 1.1//EN"
  "http://www.w3.org/Graphics/SVG/1.1/DTD/svg11.dtd">
<!-- Created with matplotlib (https://matplotlib.org/) -->
<svg height="288pt" version="1.1" viewBox="0 0 432 288" width="432pt" xmlns="http://www.w3.org/2000/svg" xmlns:xlink="http://www.w3.org/1999/xlink">
 <metadata>
  <rdf:RDF xmlns:cc="http://creativecommons.org/ns#" xmlns:dc="http://purl.org/dc/elements/1.1/" xmlns:rdf="http://www.w3.org/1999/02/22-rdf-syntax-ns#">
   <cc:Work>
    <dc:type rdf:resource="http://purl.org/dc/dcmitype/StillImage"/>
    <dc:date>2020-11-10T08:33:14.679762</dc:date>
    <dc:format>image/svg+xml</dc:format>
    <dc:creator>
     <cc:Agent>
      <dc:title>Matplotlib v3.3.2, https://matplotlib.org/</dc:title>
     </cc:Agent>
    </dc:creator>
   </cc:Work>
  </rdf:RDF>
 </metadata>
 <defs>
  <style type="text/css">*{stroke-linecap:butt;stroke-linejoin:round;}</style>
 </defs>
 <g id="figure_1">
  <g id="patch_1">
   <path d="M 0 288 
L 432 288 
L 432 0 
L 0 0 
z
" style="fill:none;"/>
  </g>
  <g id="axes_1">
   <g id="patch_2">
    <path d="M 54 252 
L 388.8 252 
L 388.8 34.56 
L 54 34.56 
z
" style="fill:#ffffff;"/>
   </g>
   <g id="matplotlib.axis_1">
    <g id="xtick_1">
     <g id="line2d_1">
      <defs>
       <path d="M 0 0 
L 0 3.5 
" id="m75986191b7" style="stroke:#000000;stroke-width:0.8;"/>
      </defs>
      <g>
       <use style="stroke:#000000;stroke-width:0.8;" x="108.328251" xlink:href="#m75986191b7" y="252"/>
      </g>
     </g>
     <g id="text_1">
      <!-- 1.45 -->
      <g transform="translate(97.195438 266.598437)scale(0.1 -0.1)">
       <defs>
        <path d="M 12.40625 8.296875 
L 28.515625 8.296875 
L 28.515625 63.921875 
L 10.984375 60.40625 
L 10.984375 69.390625 
L 28.421875 72.90625 
L 38.28125 72.90625 
L 38.28125 8.296875 
L 54.390625 8.296875 
L 54.390625 0 
L 12.40625 0 
z
" id="DejaVuSans-49"/>
        <path d="M 10.6875 12.40625 
L 21 12.40625 
L 21 0 
L 10.6875 0 
z
" id="DejaVuSans-46"/>
        <path d="M 37.796875 64.3125 
L 12.890625 25.390625 
L 37.796875 25.390625 
z
M 35.203125 72.90625 
L 47.609375 72.90625 
L 47.609375 25.390625 
L 58.015625 25.390625 
L 58.015625 17.1875 
L 47.609375 17.1875 
L 47.609375 0 
L 37.796875 0 
L 37.796875 17.1875 
L 4.890625 17.1875 
L 4.890625 26.703125 
z
" id="DejaVuSans-52"/>
        <path d="M 10.796875 72.90625 
L 49.515625 72.90625 
L 49.515625 64.59375 
L 19.828125 64.59375 
L 19.828125 46.734375 
Q 21.96875 47.46875 24.109375 47.828125 
Q 26.265625 48.1875 28.421875 48.1875 
Q 40.625 48.1875 47.75 41.5 
Q 54.890625 34.8125 54.890625 23.390625 
Q 54.890625 11.625 47.5625 5.09375 
Q 40.234375 -1.421875 26.90625 -1.421875 
Q 22.3125 -1.421875 17.546875 -0.640625 
Q 12.796875 0.140625 7.71875 1.703125 
L 7.71875 11.625 
Q 12.109375 9.234375 16.796875 8.0625 
Q 21.484375 6.890625 26.703125 6.890625 
Q 35.15625 6.890625 40.078125 11.328125 
Q 45.015625 15.765625 45.015625 23.390625 
Q 45.015625 31 40.078125 35.4375 
Q 35.15625 39.890625 26.703125 39.890625 
Q 22.75 39.890625 18.8125 39.015625 
Q 14.890625 38.140625 10.796875 36.28125 
z
" id="DejaVuSans-53"/>
       </defs>
       <use xlink:href="#DejaVuSans-49"/>
       <use x="63.623047" xlink:href="#DejaVuSans-46"/>
       <use x="95.410156" xlink:href="#DejaVuSans-52"/>
       <use x="159.033203" xlink:href="#DejaVuSans-53"/>
      </g>
     </g>
    </g>
    <g id="xtick_2">
     <g id="line2d_2">
      <g>
       <use style="stroke:#000000;stroke-width:0.8;" x="172.533216" xlink:href="#m75986191b7" y="252"/>
      </g>
     </g>
     <g id="text_2">
      <!-- 1.50 -->
      <g transform="translate(161.400403 266.598437)scale(0.1 -0.1)">
       <defs>
        <path d="M 31.78125 66.40625 
Q 24.171875 66.40625 20.328125 58.90625 
Q 16.5 51.421875 16.5 36.375 
Q 16.5 21.390625 20.328125 13.890625 
Q 24.171875 6.390625 31.78125 6.390625 
Q 39.453125 6.390625 43.28125 13.890625 
Q 47.125 21.390625 47.125 36.375 
Q 47.125 51.421875 43.28125 58.90625 
Q 39.453125 66.40625 31.78125 66.40625 
z
M 31.78125 74.21875 
Q 44.046875 74.21875 50.515625 64.515625 
Q 56.984375 54.828125 56.984375 36.375 
Q 56.984375 17.96875 50.515625 8.265625 
Q 44.046875 -1.421875 31.78125 -1.421875 
Q 19.53125 -1.421875 13.0625 8.265625 
Q 6.59375 17.96875 6.59375 36.375 
Q 6.59375 54.828125 13.0625 64.515625 
Q 19.53125 74.21875 31.78125 74.21875 
z
" id="DejaVuSans-48"/>
       </defs>
       <use xlink:href="#DejaVuSans-49"/>
       <use x="63.623047" xlink:href="#DejaVuSans-46"/>
       <use x="95.410156" xlink:href="#DejaVuSans-53"/>
       <use x="159.033203" xlink:href="#DejaVuSans-48"/>
      </g>
     </g>
    </g>
    <g id="xtick_3">
     <g id="line2d_3">
      <g>
       <use style="stroke:#000000;stroke-width:0.8;" x="236.738181" xlink:href="#m75986191b7" y="252"/>
      </g>
     </g>
     <g id="text_3">
      <!-- 1.55 -->
      <g transform="translate(225.605368 266.598437)scale(0.1 -0.1)">
       <use xlink:href="#DejaVuSans-49"/>
       <use x="63.623047" xlink:href="#DejaVuSans-46"/>
       <use x="95.410156" xlink:href="#DejaVuSans-53"/>
       <use x="159.033203" xlink:href="#DejaVuSans-53"/>
      </g>
     </g>
    </g>
    <g id="xtick_4">
     <g id="line2d_4">
      <g>
       <use style="stroke:#000000;stroke-width:0.8;" x="300.943146" xlink:href="#m75986191b7" y="252"/>
      </g>
     </g>
     <g id="text_4">
      <!-- 1.60 -->
      <g transform="translate(289.810333 266.598437)scale(0.1 -0.1)">
       <defs>
        <path d="M 33.015625 40.375 
Q 26.375 40.375 22.484375 35.828125 
Q 18.609375 31.296875 18.609375 23.390625 
Q 18.609375 15.53125 22.484375 10.953125 
Q 26.375 6.390625 33.015625 6.390625 
Q 39.65625 6.390625 43.53125 10.953125 
Q 47.40625 15.53125 47.40625 23.390625 
Q 47.40625 31.296875 43.53125 35.828125 
Q 39.65625 40.375 33.015625 40.375 
z
M 52.59375 71.296875 
L 52.59375 62.3125 
Q 48.875 64.0625 45.09375 64.984375 
Q 41.3125 65.921875 37.59375 65.921875 
Q 27.828125 65.921875 22.671875 59.328125 
Q 17.53125 52.734375 16.796875 39.40625 
Q 19.671875 43.65625 24.015625 45.921875 
Q 28.375 48.1875 33.59375 48.1875 
Q 44.578125 48.1875 50.953125 41.515625 
Q 57.328125 34.859375 57.328125 23.390625 
Q 57.328125 12.15625 50.6875 5.359375 
Q 44.046875 -1.421875 33.015625 -1.421875 
Q 20.359375 -1.421875 13.671875 8.265625 
Q 6.984375 17.96875 6.984375 36.375 
Q 6.984375 53.65625 15.1875 63.9375 
Q 23.390625 74.21875 37.203125 74.21875 
Q 40.921875 74.21875 44.703125 73.484375 
Q 48.484375 72.75 52.59375 71.296875 
z
" id="DejaVuSans-54"/>
       </defs>
       <use xlink:href="#DejaVuSans-49"/>
       <use x="63.623047" xlink:href="#DejaVuSans-46"/>
       <use x="95.410156" xlink:href="#DejaVuSans-54"/>
       <use x="159.033203" xlink:href="#DejaVuSans-48"/>
      </g>
     </g>
    </g>
    <g id="xtick_5">
     <g id="line2d_5">
      <g>
       <use style="stroke:#000000;stroke-width:0.8;" x="365.148111" xlink:href="#m75986191b7" y="252"/>
      </g>
     </g>
     <g id="text_5">
      <!-- 1.65 -->
      <g transform="translate(354.015298 266.598437)scale(0.1 -0.1)">
       <use xlink:href="#DejaVuSans-49"/>
       <use x="63.623047" xlink:href="#DejaVuSans-46"/>
       <use x="95.410156" xlink:href="#DejaVuSans-54"/>
       <use x="159.033203" xlink:href="#DejaVuSans-53"/>
      </g>
     </g>
    </g>
    <g id="text_6">
     <!-- total ratings -->
     <g transform="translate(190.961719 280.276563)scale(0.1 -0.1)">
      <defs>
       <path d="M 18.3125 70.21875 
L 18.3125 54.6875 
L 36.8125 54.6875 
L 36.8125 47.703125 
L 18.3125 47.703125 
L 18.3125 18.015625 
Q 18.3125 11.328125 20.140625 9.421875 
Q 21.96875 7.515625 27.59375 7.515625 
L 36.8125 7.515625 
L 36.8125 0 
L 27.59375 0 
Q 17.1875 0 13.234375 3.875 
Q 9.28125 7.765625 9.28125 18.015625 
L 9.28125 47.703125 
L 2.6875 47.703125 
L 2.6875 54.6875 
L 9.28125 54.6875 
L 9.28125 70.21875 
z
" id="DejaVuSans-116"/>
       <path d="M 30.609375 48.390625 
Q 23.390625 48.390625 19.1875 42.75 
Q 14.984375 37.109375 14.984375 27.296875 
Q 14.984375 17.484375 19.15625 11.84375 
Q 23.34375 6.203125 30.609375 6.203125 
Q 37.796875 6.203125 41.984375 11.859375 
Q 46.1875 17.53125 46.1875 27.296875 
Q 46.1875 37.015625 41.984375 42.703125 
Q 37.796875 48.390625 30.609375 48.390625 
z
M 30.609375 56 
Q 42.328125 56 49.015625 48.375 
Q 55.71875 40.765625 55.71875 27.296875 
Q 55.71875 13.875 49.015625 6.21875 
Q 42.328125 -1.421875 30.609375 -1.421875 
Q 18.84375 -1.421875 12.171875 6.21875 
Q 5.515625 13.875 5.515625 27.296875 
Q 5.515625 40.765625 12.171875 48.375 
Q 18.84375 56 30.609375 56 
z
" id="DejaVuSans-111"/>
       <path d="M 34.28125 27.484375 
Q 23.390625 27.484375 19.1875 25 
Q 14.984375 22.515625 14.984375 16.5 
Q 14.984375 11.71875 18.140625 8.90625 
Q 21.296875 6.109375 26.703125 6.109375 
Q 34.1875 6.109375 38.703125 11.40625 
Q 43.21875 16.703125 43.21875 25.484375 
L 43.21875 27.484375 
z
M 52.203125 31.203125 
L 52.203125 0 
L 43.21875 0 
L 43.21875 8.296875 
Q 40.140625 3.328125 35.546875 0.953125 
Q 30.953125 -1.421875 24.3125 -1.421875 
Q 15.921875 -1.421875 10.953125 3.296875 
Q 6 8.015625 6 15.921875 
Q 6 25.140625 12.171875 29.828125 
Q 18.359375 34.515625 30.609375 34.515625 
L 43.21875 34.515625 
L 43.21875 35.40625 
Q 43.21875 41.609375 39.140625 45 
Q 35.0625 48.390625 27.6875 48.390625 
Q 23 48.390625 18.546875 47.265625 
Q 14.109375 46.140625 10.015625 43.890625 
L 10.015625 52.203125 
Q 14.9375 54.109375 19.578125 55.046875 
Q 24.21875 56 28.609375 56 
Q 40.484375 56 46.34375 49.84375 
Q 52.203125 43.703125 52.203125 31.203125 
z
" id="DejaVuSans-97"/>
       <path d="M 9.421875 75.984375 
L 18.40625 75.984375 
L 18.40625 0 
L 9.421875 0 
z
" id="DejaVuSans-108"/>
       <path id="DejaVuSans-32"/>
       <path d="M 41.109375 46.296875 
Q 39.59375 47.171875 37.8125 47.578125 
Q 36.03125 48 33.890625 48 
Q 26.265625 48 22.1875 43.046875 
Q 18.109375 38.09375 18.109375 28.8125 
L 18.109375 0 
L 9.078125 0 
L 9.078125 54.6875 
L 18.109375 54.6875 
L 18.109375 46.1875 
Q 20.953125 51.171875 25.484375 53.578125 
Q 30.03125 56 36.53125 56 
Q 37.453125 56 38.578125 55.875 
Q 39.703125 55.765625 41.0625 55.515625 
z
" id="DejaVuSans-114"/>
       <path d="M 9.421875 54.6875 
L 18.40625 54.6875 
L 18.40625 0 
L 9.421875 0 
z
M 9.421875 75.984375 
L 18.40625 75.984375 
L 18.40625 64.59375 
L 9.421875 64.59375 
z
" id="DejaVuSans-105"/>
       <path d="M 54.890625 33.015625 
L 54.890625 0 
L 45.90625 0 
L 45.90625 32.71875 
Q 45.90625 40.484375 42.875 44.328125 
Q 39.84375 48.1875 33.796875 48.1875 
Q 26.515625 48.1875 22.3125 43.546875 
Q 18.109375 38.921875 18.109375 30.90625 
L 18.109375 0 
L 9.078125 0 
L 9.078125 54.6875 
L 18.109375 54.6875 
L 18.109375 46.1875 
Q 21.34375 51.125 25.703125 53.5625 
Q 30.078125 56 35.796875 56 
Q 45.21875 56 50.046875 50.171875 
Q 54.890625 44.34375 54.890625 33.015625 
z
" id="DejaVuSans-110"/>
       <path d="M 45.40625 27.984375 
Q 45.40625 37.75 41.375 43.109375 
Q 37.359375 48.484375 30.078125 48.484375 
Q 22.859375 48.484375 18.828125 43.109375 
Q 14.796875 37.75 14.796875 27.984375 
Q 14.796875 18.265625 18.828125 12.890625 
Q 22.859375 7.515625 30.078125 7.515625 
Q 37.359375 7.515625 41.375 12.890625 
Q 45.40625 18.265625 45.40625 27.984375 
z
M 54.390625 6.78125 
Q 54.390625 -7.171875 48.1875 -13.984375 
Q 42 -20.796875 29.203125 -20.796875 
Q 24.46875 -20.796875 20.265625 -20.09375 
Q 16.0625 -19.390625 12.109375 -17.921875 
L 12.109375 -9.1875 
Q 16.0625 -11.328125 19.921875 -12.34375 
Q 23.78125 -13.375 27.78125 -13.375 
Q 36.625 -13.375 41.015625 -8.765625 
Q 45.40625 -4.15625 45.40625 5.171875 
L 45.40625 9.625 
Q 42.625 4.78125 38.28125 2.390625 
Q 33.9375 0 27.875 0 
Q 17.828125 0 11.671875 7.65625 
Q 5.515625 15.328125 5.515625 27.984375 
Q 5.515625 40.671875 11.671875 48.328125 
Q 17.828125 56 27.875 56 
Q 33.9375 56 38.28125 53.609375 
Q 42.625 51.21875 45.40625 46.390625 
L 45.40625 54.6875 
L 54.390625 54.6875 
z
" id="DejaVuSans-103"/>
       <path d="M 44.28125 53.078125 
L 44.28125 44.578125 
Q 40.484375 46.53125 36.375 47.5 
Q 32.28125 48.484375 27.875 48.484375 
Q 21.1875 48.484375 17.84375 46.4375 
Q 14.5 44.390625 14.5 40.28125 
Q 14.5 37.15625 16.890625 35.375 
Q 19.28125 33.59375 26.515625 31.984375 
L 29.59375 31.296875 
Q 39.15625 29.25 43.1875 25.515625 
Q 47.21875 21.78125 47.21875 15.09375 
Q 47.21875 7.46875 41.1875 3.015625 
Q 35.15625 -1.421875 24.609375 -1.421875 
Q 20.21875 -1.421875 15.453125 -0.5625 
Q 10.6875 0.296875 5.421875 2 
L 5.421875 11.28125 
Q 10.40625 8.6875 15.234375 7.390625 
Q 20.0625 6.109375 24.8125 6.109375 
Q 31.15625 6.109375 34.5625 8.28125 
Q 37.984375 10.453125 37.984375 14.40625 
Q 37.984375 18.0625 35.515625 20.015625 
Q 33.0625 21.96875 24.703125 23.78125 
L 21.578125 24.515625 
Q 13.234375 26.265625 9.515625 29.90625 
Q 5.8125 33.546875 5.8125 39.890625 
Q 5.8125 47.609375 11.28125 51.796875 
Q 16.75 56 26.8125 56 
Q 31.78125 56 36.171875 55.265625 
Q 40.578125 54.546875 44.28125 53.078125 
z
" id="DejaVuSans-115"/>
      </defs>
      <use xlink:href="#DejaVuSans-116"/>
      <use x="39.208984" xlink:href="#DejaVuSans-111"/>
      <use x="100.390625" xlink:href="#DejaVuSans-116"/>
      <use x="139.599609" xlink:href="#DejaVuSans-97"/>
      <use x="200.878906" xlink:href="#DejaVuSans-108"/>
      <use x="228.662109" xlink:href="#DejaVuSans-32"/>
      <use x="260.449219" xlink:href="#DejaVuSans-114"/>
      <use x="301.5625" xlink:href="#DejaVuSans-97"/>
      <use x="362.841797" xlink:href="#DejaVuSans-116"/>
      <use x="402.050781" xlink:href="#DejaVuSans-105"/>
      <use x="429.833984" xlink:href="#DejaVuSans-110"/>
      <use x="493.212891" xlink:href="#DejaVuSans-103"/>
      <use x="556.689453" xlink:href="#DejaVuSans-115"/>
     </g>
    </g>
    <g id="text_7">
     <!-- 1e7 -->
     <g transform="translate(369.921875 279.276563)scale(0.1 -0.1)">
      <defs>
       <path d="M 56.203125 29.59375 
L 56.203125 25.203125 
L 14.890625 25.203125 
Q 15.484375 15.921875 20.484375 11.0625 
Q 25.484375 6.203125 34.421875 6.203125 
Q 39.59375 6.203125 44.453125 7.46875 
Q 49.3125 8.734375 54.109375 11.28125 
L 54.109375 2.78125 
Q 49.265625 0.734375 44.1875 -0.34375 
Q 39.109375 -1.421875 33.890625 -1.421875 
Q 20.796875 -1.421875 13.15625 6.1875 
Q 5.515625 13.8125 5.515625 26.8125 
Q 5.515625 40.234375 12.765625 48.109375 
Q 20.015625 56 32.328125 56 
Q 43.359375 56 49.78125 48.890625 
Q 56.203125 41.796875 56.203125 29.59375 
z
M 47.21875 32.234375 
Q 47.125 39.59375 43.09375 43.984375 
Q 39.0625 48.390625 32.421875 48.390625 
Q 24.90625 48.390625 20.390625 44.140625 
Q 15.875 39.890625 15.1875 32.171875 
z
" id="DejaVuSans-101"/>
       <path d="M 8.203125 72.90625 
L 55.078125 72.90625 
L 55.078125 68.703125 
L 28.609375 0 
L 18.3125 0 
L 43.21875 64.59375 
L 8.203125 64.59375 
z
" id="DejaVuSans-55"/>
      </defs>
      <use xlink:href="#DejaVuSans-49"/>
      <use x="63.623047" xlink:href="#DejaVuSans-101"/>
      <use x="125.146484" xlink:href="#DejaVuSans-55"/>
     </g>
    </g>
   </g>
   <g id="matplotlib.axis_2">
    <g id="ytick_1">
     <g id="line2d_6">
      <defs>
       <path d="M 0 0 
L -3.5 0 
" id="m8cce5d649b" style="stroke:#000000;stroke-width:0.8;"/>
      </defs>
      <g>
       <use style="stroke:#000000;stroke-width:0.8;" x="54" xlink:href="#m8cce5d649b" y="212.753613"/>
      </g>
     </g>
     <g id="text_8">
      <!-- 1450 -->
      <g transform="translate(21.55 216.552831)scale(0.1 -0.1)">
       <use xlink:href="#DejaVuSans-49"/>
       <use x="63.623047" xlink:href="#DejaVuSans-52"/>
       <use x="127.246094" xlink:href="#DejaVuSans-53"/>
       <use x="190.869141" xlink:href="#DejaVuSans-48"/>
      </g>
     </g>
    </g>
    <g id="ytick_2">
     <g id="line2d_7">
      <g>
       <use style="stroke:#000000;stroke-width:0.8;" x="54" xlink:href="#m8cce5d649b" y="170.918276"/>
      </g>
     </g>
     <g id="text_9">
      <!-- 1500 -->
      <g transform="translate(21.55 174.717494)scale(0.1 -0.1)">
       <use xlink:href="#DejaVuSans-49"/>
       <use x="63.623047" xlink:href="#DejaVuSans-53"/>
       <use x="127.246094" xlink:href="#DejaVuSans-48"/>
       <use x="190.869141" xlink:href="#DejaVuSans-48"/>
      </g>
     </g>
    </g>
    <g id="ytick_3">
     <g id="line2d_8">
      <g>
       <use style="stroke:#000000;stroke-width:0.8;" x="54" xlink:href="#m8cce5d649b" y="129.082938"/>
      </g>
     </g>
     <g id="text_10">
      <!-- 1550 -->
      <g transform="translate(21.55 132.882157)scale(0.1 -0.1)">
       <use xlink:href="#DejaVuSans-49"/>
       <use x="63.623047" xlink:href="#DejaVuSans-53"/>
       <use x="127.246094" xlink:href="#DejaVuSans-53"/>
       <use x="190.869141" xlink:href="#DejaVuSans-48"/>
      </g>
     </g>
    </g>
    <g id="ytick_4">
     <g id="line2d_9">
      <g>
       <use style="stroke:#000000;stroke-width:0.8;" x="54" xlink:href="#m8cce5d649b" y="87.247601"/>
      </g>
     </g>
     <g id="text_11">
      <!-- 1600 -->
      <g transform="translate(21.55 91.04682)scale(0.1 -0.1)">
       <use xlink:href="#DejaVuSans-49"/>
       <use x="63.623047" xlink:href="#DejaVuSans-54"/>
       <use x="127.246094" xlink:href="#DejaVuSans-48"/>
       <use x="190.869141" xlink:href="#DejaVuSans-48"/>
      </g>
     </g>
    </g>
    <g id="ytick_5">
     <g id="line2d_10">
      <g>
       <use style="stroke:#000000;stroke-width:0.8;" x="54" xlink:href="#m8cce5d649b" y="45.412264"/>
      </g>
     </g>
     <g id="text_12">
      <!-- 1650 -->
      <g transform="translate(21.55 49.211483)scale(0.1 -0.1)">
       <use xlink:href="#DejaVuSans-49"/>
       <use x="63.623047" xlink:href="#DejaVuSans-54"/>
       <use x="127.246094" xlink:href="#DejaVuSans-53"/>
       <use x="190.869141" xlink:href="#DejaVuSans-48"/>
      </g>
     </g>
    </g>
    <g id="text_13">
     <!-- dummy ratings -->
     <g transform="translate(15.470312 181.328438)rotate(-90)scale(0.1 -0.1)">
      <defs>
       <path d="M 45.40625 46.390625 
L 45.40625 75.984375 
L 54.390625 75.984375 
L 54.390625 0 
L 45.40625 0 
L 45.40625 8.203125 
Q 42.578125 3.328125 38.25 0.953125 
Q 33.9375 -1.421875 27.875 -1.421875 
Q 17.96875 -1.421875 11.734375 6.484375 
Q 5.515625 14.40625 5.515625 27.296875 
Q 5.515625 40.1875 11.734375 48.09375 
Q 17.96875 56 27.875 56 
Q 33.9375 56 38.25 53.625 
Q 42.578125 51.265625 45.40625 46.390625 
z
M 14.796875 27.296875 
Q 14.796875 17.390625 18.875 11.75 
Q 22.953125 6.109375 30.078125 6.109375 
Q 37.203125 6.109375 41.296875 11.75 
Q 45.40625 17.390625 45.40625 27.296875 
Q 45.40625 37.203125 41.296875 42.84375 
Q 37.203125 48.484375 30.078125 48.484375 
Q 22.953125 48.484375 18.875 42.84375 
Q 14.796875 37.203125 14.796875 27.296875 
z
" id="DejaVuSans-100"/>
       <path d="M 8.5 21.578125 
L 8.5 54.6875 
L 17.484375 54.6875 
L 17.484375 21.921875 
Q 17.484375 14.15625 20.5 10.265625 
Q 23.53125 6.390625 29.59375 6.390625 
Q 36.859375 6.390625 41.078125 11.03125 
Q 45.3125 15.671875 45.3125 23.6875 
L 45.3125 54.6875 
L 54.296875 54.6875 
L 54.296875 0 
L 45.3125 0 
L 45.3125 8.40625 
Q 42.046875 3.421875 37.71875 1 
Q 33.40625 -1.421875 27.6875 -1.421875 
Q 18.265625 -1.421875 13.375 4.4375 
Q 8.5 10.296875 8.5 21.578125 
z
M 31.109375 56 
z
" id="DejaVuSans-117"/>
       <path d="M 52 44.1875 
Q 55.375 50.25 60.0625 53.125 
Q 64.75 56 71.09375 56 
Q 79.640625 56 84.28125 50.015625 
Q 88.921875 44.046875 88.921875 33.015625 
L 88.921875 0 
L 79.890625 0 
L 79.890625 32.71875 
Q 79.890625 40.578125 77.09375 44.375 
Q 74.3125 48.1875 68.609375 48.1875 
Q 61.625 48.1875 57.5625 43.546875 
Q 53.515625 38.921875 53.515625 30.90625 
L 53.515625 0 
L 44.484375 0 
L 44.484375 32.71875 
Q 44.484375 40.625 41.703125 44.40625 
Q 38.921875 48.1875 33.109375 48.1875 
Q 26.21875 48.1875 22.15625 43.53125 
Q 18.109375 38.875 18.109375 30.90625 
L 18.109375 0 
L 9.078125 0 
L 9.078125 54.6875 
L 18.109375 54.6875 
L 18.109375 46.1875 
Q 21.1875 51.21875 25.484375 53.609375 
Q 29.78125 56 35.6875 56 
Q 41.65625 56 45.828125 52.96875 
Q 50 49.953125 52 44.1875 
z
" id="DejaVuSans-109"/>
       <path d="M 32.171875 -5.078125 
Q 28.375 -14.84375 24.75 -17.8125 
Q 21.140625 -20.796875 15.09375 -20.796875 
L 7.90625 -20.796875 
L 7.90625 -13.28125 
L 13.1875 -13.28125 
Q 16.890625 -13.28125 18.9375 -11.515625 
Q 21 -9.765625 23.484375 -3.21875 
L 25.09375 0.875 
L 2.984375 54.6875 
L 12.5 54.6875 
L 29.59375 11.921875 
L 46.6875 54.6875 
L 56.203125 54.6875 
z
" id="DejaVuSans-121"/>
      </defs>
      <use xlink:href="#DejaVuSans-100"/>
      <use x="63.476562" xlink:href="#DejaVuSans-117"/>
      <use x="126.855469" xlink:href="#DejaVuSans-109"/>
      <use x="224.267578" xlink:href="#DejaVuSans-109"/>
      <use x="321.679688" xlink:href="#DejaVuSans-121"/>
      <use x="380.859375" xlink:href="#DejaVuSans-32"/>
      <use x="412.646484" xlink:href="#DejaVuSans-114"/>
      <use x="453.759766" xlink:href="#DejaVuSans-97"/>
      <use x="515.039062" xlink:href="#DejaVuSans-116"/>
      <use x="554.248047" xlink:href="#DejaVuSans-105"/>
      <use x="582.03125" xlink:href="#DejaVuSans-110"/>
      <use x="645.410156" xlink:href="#DejaVuSans-103"/>
      <use x="708.886719" xlink:href="#DejaVuSans-115"/>
     </g>
    </g>
   </g>
   <g id="line2d_11">
    <path clip-path="url(#p4c1ed304e6)" d="M 69.218182 234.658268 
L 70.170213 232.388088 
L 70.170213 232.388088 
L 72.715298 229.242614 
L 72.715298 229.242614 
L 74.433294 229.254197 
L 74.433294 229.254197 
L 75.827441 228.958187 
L 75.827441 228.958187 
L 76.346859 227.059358 
L 76.346859 227.059358 
L 77.104863 226.466628 
L 77.104863 226.466628 
L 79.124751 226.249835 
L 79.124751 226.249835 
L 80.761592 225.322451 
L 80.761592 225.322451 
L 83.950525 224.570005 
L 83.950525 224.570005 
L 85.777156 224.437588 
L 85.777156 224.437588 
L 86.609894 222.790281 
L 86.609894 222.790281 
L 88.874532 218.675333 
L 88.874532 218.675333 
L 91.175381 216.812372 
L 91.175381 216.812372 
L 92.03958 216.713851 
L 92.03958 216.713851 
L 93.128239 216.205733 
L 93.128239 216.205733 
L 96.183368 215.545012 
L 96.183368 215.545012 
L 99.910338 214.45461 
L 99.910338 214.45461 
L 100.927601 213.97769 
L 100.927601 213.97769 
L 102.233145 213.863475 
L 102.233145 213.863475 
L 106.358186 212.807355 
L 106.358186 212.807355 
L 107.136992 212.381796 
L 107.136992 212.381796 
L 107.794323 212.250027 
L 107.794323 212.250027 
L 109.051841 212.190924 
L 109.051841 212.190924 
L 109.869042 211.991452 
L 109.869042 211.991452 
L 110.387946 211.546116 
L 110.387946 211.546116 
L 111.207458 211.040296 
L 111.207458 211.040296 
L 112.670176 209.309764 
L 112.670176 209.309764 
L 115.803635 203.756099 
L 115.803635 203.756099 
L 118.597707 202.518482 
L 118.597707 202.518482 
L 120.425237 202.324018 
L 120.425237 202.324018 
L 121.947793 201.788038 
L 121.947793 201.788038 
L 124.71079 200.845948 
L 124.71079 200.845948 
L 127.681682 200.335905 
L 127.681682 200.335905 
L 129.410979 199.065102 
L 129.410979 199.065102 
L 131.010453 199.036953 
L 131.010453 199.036953 
L 132.391245 199.398425 
L 132.391245 199.398425 
L 137.255413 198.103633 
L 137.255413 198.103633 
L 137.593002 197.653766 
L 137.593002 197.653766 
L 139.662585 193.169479 
L 139.662585 193.169479 
L 142.404779 191.322344 
L 142.404779 191.322344 
L 143.185255 191.17833 
L 143.185255 191.17833 
L 145.493809 191.056905 
L 145.493809 191.056905 
L 146.428504 190.661334 
L 146.428504 190.661334 
L 148.860075 189.748289 
L 148.860075 189.748289 
L 152.491379 189.364968 
L 152.491379 189.364968 
L 153.044955 189.25021 
L 153.044955 189.25021 
L 153.789604 189.022342 
L 153.789604 189.022342 
L 156.748939 187.775749 
L 156.748939 187.775749 
L 160.489007 187.248784 
L 160.489007 187.248784 
L 162.125463 186.855507 
L 162.125463 186.855507 
L 162.430051 186.453945 
L 162.430051 186.453945 
L 163.402499 183.381877 
L 163.402499 183.381877 
L 167.64709 176.96853 
L 167.64709 176.96853 
L 169.570927 176.795896 
L 171.057144 176.554773 
L 172.100218 175.978472 
L 174.750984 175.136678 
L 176.503908 174.911664 
L 177.78698 174.182472 
L 180.42131 173.981913 
L 180.84763 173.77336 
L 182.102196 172.974993 
L 187.094774 171.847335 
L 187.382925 171.678997 
L 189.161788 171.198499 
L 190.978917 171.048959 
L 191.129542 170.981204 
L 191.401899 170.343895 
L 192.239774 166.705391 
L 195.971495 159.174702 
L 196.502856 159.090732 
L 196.502856 159.090732 
L 198.793432 158.973357 
L 198.914651 158.820961 
L 199.808256 158.37778 
L 202.81125 157.347326 
L 206.427787 156.620701 
L 208.166586 156.450058 
L 209.595789 155.471547 
L 212.433648 154.495358 
L 216.744883 154.062914 
L 217.523561 153.390318 
L 218.368113 150.670378 
L 220.105114 145.154623 
L 224.899813 142.327037 
L 225.460707 142.21233 
L 225.708795 142.027032 
L 226.849332 141.54972 
L 229.921026 141.227911 
L 231.423037 140.518002 
L 236.818566 139.353275 
L 237.46344 137.717075 
L 240.298731 132.602711 
L 243.276429 131.132337 
L 243.491131 130.689133 
L 244.019923 130.52635 
L 244.17517 130.295318 
L 244.17517 130.29532 
L 244.469101 129.480819 
L 244.469101 129.480819 
L 248.181432 128.293522 
L 249.825721 127.898634 
L 250.052621 127.752612 
L 250.705714 127.136349 
L 250.705714 127.13635 
L 252.541463 126.453869 
L 254.621061 126.120534 
L 254.621061 126.120535 
L 256.605252 125.968377 
L 258.482862 124.758566 
L 258.482862 124.758566 
L 260.889007 124.2191 
L 260.889007 124.219104 
L 263.12167 123.088572 
L 263.12167 123.088572 
L 264.120828 120.968658 
L 265.536676 116.599788 
L 268.530682 114.001835 
L 268.78442 113.255559 
L 270.807261 113.078676 
L 270.807261 113.078678 
L 271.495153 112.446324 
L 272.198069 111.75351 
L 273.882808 110.932189 
L 273.882808 110.932189 
L 276.747762 110.259668 
L 276.747762 110.259668 
L 276.919317 110.191673 
L 276.919317 110.191673 
L 279.386329 110.015038 
L 279.581769 109.760697 
L 279.581769 109.760701 
L 279.930915 108.864328 
L 280.788822 105.395336 
L 280.788822 105.395338 
L 284.720863 99.069058 
L 287.11468 97.564616 
L 287.11468 97.564616 
L 288.073004 97.645768 
L 288.925132 96.961529 
L 289.638834 96.74525 
L 289.638834 96.74525 
L 290.03896 96.418392 
L 290.03896 96.418393 
L 291.186303 96.370118 
L 291.453395 96.205991 
L 291.453395 96.205993 
L 292.889147 89.621435 
L 292.889147 89.621437 
L 292.957204 96.097622 
L 293.014346 96.08898 
L 293.084715 96.062812 
L 293.84182 95.96649 
L 295.432562 95.323871 
L 295.432562 95.323871 
L 296.653997 94.98741 
L 296.653997 94.98741 
L 297.445131 94.398499 
L 297.445131 94.398499 
L 297.560058 94.172952 
L 297.560058 94.172953 
L 297.786188 85.900853 
L 297.786188 85.900853 
L 297.867471 93.29584 
L 305.949464 85.161516 
L 305.949464 85.161517 
L 306.907273 85.371222 
L 306.94143 85.201677 
L 306.94143 85.201678 
L 308.08415 84.490597 
L 308.08415 84.490597 
L 309.65409 83.814803 
L 309.65409 83.814806 
L 310.880919 83.633607 
L 310.880919 83.633608 
L 313.858488 83.415064 
L 314.03518 83.296451 
L 314.257971 83.21714 
L 314.257971 83.21714 
L 316.211343 82.894832 
L 316.304826 82.764004 
L 316.979106 82.405747 
L 316.979106 82.405747 
L 317.269698 81.676611 
L 317.269698 81.676611 
L 318.753346 79.054339 
L 324.821358 74.673422 
L 325.024374 74.348534 
L 325.024374 74.348534 
L 326.300768 74.128098 
L 326.300768 74.128098 
L 326.718229 73.897685 
L 330.407832 72.960854 
L 330.407832 72.960858 
L 330.60982 72.809736 
L 330.60982 72.809736 
L 334.210563 72.23141 
L 334.580384 71.831561 
L 334.580384 71.831561 
L 334.952516 71.41072 
L 334.952516 71.41072 
L 336.601813 71.002641 
L 336.756675 70.877713 
L 336.756675 70.877713 
L 338.497015 70.470588 
L 338.497015 70.470588 
L 338.681027 70.70975 
L 340.739438 69.490062 
L 340.739438 69.490062 
L 344.811573 65.344794 
L 344.811573 65.344796 
L 355.972451 59.703851 
L 355.972451 59.703855 
L 357.718184 59.520864 
L 357.718184 59.520865 
L 358.60036 59.262478 
L 358.60036 59.262478 
L 358.957596 59.139342 
L 358.957596 59.139345 
L 360.657359 58.762946 
L 362.697279 56.836309 
L 362.697279 56.836309 
L 365.959148 55.260256 
L 366.411279 54.822751 
L 367.254676 54.609286 
L 367.254676 54.609287 
L 367.794639 53.887703 
L 367.794639 53.887703 
L 368.444008 52.417931 
L 368.444008 52.417931 
L 369.722458 49.940309 
L 372.264332 49.39045 
L 372.264332 49.390452 
L 373.481787 49.314021 
L 373.481787 49.314021 
L 373.539828 49.112693 
L 373.581818 49.148205 
" style="fill:none;stroke:#000000;stroke-linecap:square;stroke-width:3;"/>
   </g>
   <g id="line2d_12">
    <path clip-path="url(#p4c1ed304e6)" d="M 69.218182 242.116364 
L 373.581818 44.443636 
" style="fill:none;stroke:#ff0000;stroke-dasharray:7.4,3.2;stroke-dashoffset:0;stroke-width:2;"/>
   </g>
   <g id="patch_3">
    <path d="M 54 252 
L 54 34.56 
" style="fill:none;stroke:#000000;stroke-linecap:square;stroke-linejoin:miter;stroke-width:0.8;"/>
   </g>
   <g id="patch_4">
    <path d="M 388.8 252 
L 388.8 34.56 
" style="fill:none;stroke:#000000;stroke-linecap:square;stroke-linejoin:miter;stroke-width:0.8;"/>
   </g>
   <g id="patch_5">
    <path d="M 54 252 
L 388.8 252 
" style="fill:none;stroke:#000000;stroke-linecap:square;stroke-linejoin:miter;stroke-width:0.8;"/>
   </g>
   <g id="patch_6">
    <path d="M 54 34.56 
L 388.8 34.56 
" style="fill:none;stroke:#000000;stroke-linecap:square;stroke-linejoin:miter;stroke-width:0.8;"/>
   </g>
  </g>
 </g>
 <defs>
  <clipPath id="p4c1ed304e6">
   <rect height="217.44" width="334.8" x="54" y="34.56"/>
  </clipPath>
 </defs>
</svg>
