<?xml version="1.0" encoding="utf-8" standalone="no"?>
<!DOCTYPE svg PUBLIC "-//W3C//DTD SVG 1.1//EN"
  "http://www.w3.org/Graphics/SVG/1.1/DTD/svg11.dtd">
<svg xmlns:xlink="http://www.w3.org/1999/xlink" width="460.8pt" height="345.6pt" viewBox="0 0 460.8 345.6" xmlns="http://www.w3.org/2000/svg" version="1.1">
 <metadata>
  <rdf:RDF xmlns:dc="http://purl.org/dc/elements/1.1/" xmlns:cc="http://creativecommons.org/ns#" xmlns:rdf="http://www.w3.org/1999/02/22-rdf-syntax-ns#">
   <cc:Work>
    <dc:type rdf:resource="http://purl.org/dc/dcmitype/StillImage"/>
    <dc:date>2024-09-11T22:18:04.963544</dc:date>
    <dc:format>image/svg+xml</dc:format>
    <dc:creator>
     <cc:Agent>
      <dc:title>Matplotlib v3.9.2, https://matplotlib.org/</dc:title>
     </cc:Agent>
    </dc:creator>
   </cc:Work>
  </rdf:RDF>
 </metadata>
 <defs>
  <style type="text/css">*{stroke-linejoin: round; stroke-linecap: butt}</style>
 </defs>
 <g id="figure_1">
  <g id="patch_1">
   <path d="M 0 345.6 
L 460.8 345.6 
L 460.8 0 
L 0 0 
z
" style="fill: #ffffff"/>
  </g>
  <g id="axes_1">
   <g id="patch_2">
    <path d="M 71.89 303.64 
L 450 303.64 
L 450 25.49625 
L 71.89 25.49625 
z
" style="fill: #eaeaf2"/>
   </g>
   <g id="matplotlib.axis_1">
    <g id="xtick_1">
     <g id="text_1">
      <!-- 2 -->
      <g style="fill: #262626" transform="translate(127.569094 317.797812) scale(0.1 -0.1)">
       <defs>
        <path id="ArialMT-32" d="M 3222 541 
L 3222 0 
L 194 0 
Q 188 203 259 391 
Q 375 700 629 1000 
Q 884 1300 1366 1694 
Q 2113 2306 2375 2664 
Q 2638 3022 2638 3341 
Q 2638 3675 2398 3904 
Q 2159 4134 1775 4134 
Q 1369 4134 1125 3890 
Q 881 3647 878 3216 
L 300 3275 
Q 359 3922 746 4261 
Q 1134 4600 1788 4600 
Q 2447 4600 2831 4234 
Q 3216 3869 3216 3328 
Q 3216 3053 3103 2787 
Q 2991 2522 2730 2228 
Q 2469 1934 1863 1422 
Q 1356 997 1212 845 
Q 1069 694 975 541 
L 3222 541 
z
" transform="scale(0.015625)"/>
       </defs>
       <use xlink:href="#ArialMT-32"/>
      </g>
     </g>
    </g>
    <g id="xtick_2">
     <g id="text_2">
      <!-- 4 -->
      <g style="fill: #262626" transform="translate(203.570451 317.797812) scale(0.1 -0.1)">
       <defs>
        <path id="ArialMT-34" d="M 2069 0 
L 2069 1097 
L 81 1097 
L 81 1613 
L 2172 4581 
L 2631 4581 
L 2631 1613 
L 3250 1613 
L 3250 1097 
L 2631 1097 
L 2631 0 
L 2069 0 
z
M 2069 1613 
L 2069 3678 
L 634 1613 
L 2069 1613 
z
" transform="scale(0.015625)"/>
       </defs>
       <use xlink:href="#ArialMT-34"/>
      </g>
     </g>
    </g>
    <g id="xtick_3">
     <g id="text_3">
      <!-- 6 -->
      <g style="fill: #262626" transform="translate(279.571808 317.797812) scale(0.1 -0.1)">
       <defs>
        <path id="ArialMT-36" d="M 3184 3459 
L 2625 3416 
Q 2550 3747 2413 3897 
Q 2184 4138 1850 4138 
Q 1581 4138 1378 3988 
Q 1113 3794 959 3422 
Q 806 3050 800 2363 
Q 1003 2672 1297 2822 
Q 1591 2972 1913 2972 
Q 2475 2972 2870 2558 
Q 3266 2144 3266 1488 
Q 3266 1056 3080 686 
Q 2894 316 2569 119 
Q 2244 -78 1831 -78 
Q 1128 -78 684 439 
Q 241 956 241 2144 
Q 241 3472 731 4075 
Q 1159 4600 1884 4600 
Q 2425 4600 2770 4297 
Q 3116 3994 3184 3459 
z
M 888 1484 
Q 888 1194 1011 928 
Q 1134 663 1356 523 
Q 1578 384 1822 384 
Q 2178 384 2434 671 
Q 2691 959 2691 1453 
Q 2691 1928 2437 2201 
Q 2184 2475 1800 2475 
Q 1419 2475 1153 2201 
Q 888 1928 888 1484 
z
" transform="scale(0.015625)"/>
       </defs>
       <use xlink:href="#ArialMT-36"/>
      </g>
     </g>
    </g>
    <g id="xtick_4">
     <g id="text_4">
      <!-- 8 -->
      <g style="fill: #262626" transform="translate(355.573166 317.797812) scale(0.1 -0.1)">
       <defs>
        <path id="ArialMT-38" d="M 1131 2484 
Q 781 2613 612 2850 
Q 444 3088 444 3419 
Q 444 3919 803 4259 
Q 1163 4600 1759 4600 
Q 2359 4600 2725 4251 
Q 3091 3903 3091 3403 
Q 3091 3084 2923 2848 
Q 2756 2613 2416 2484 
Q 2838 2347 3058 2040 
Q 3278 1734 3278 1309 
Q 3278 722 2862 322 
Q 2447 -78 1769 -78 
Q 1091 -78 675 323 
Q 259 725 259 1325 
Q 259 1772 486 2073 
Q 713 2375 1131 2484 
z
M 1019 3438 
Q 1019 3113 1228 2906 
Q 1438 2700 1772 2700 
Q 2097 2700 2305 2904 
Q 2513 3109 2513 3406 
Q 2513 3716 2298 3927 
Q 2084 4138 1766 4138 
Q 1444 4138 1231 3931 
Q 1019 3725 1019 3438 
z
M 838 1322 
Q 838 1081 952 856 
Q 1066 631 1291 507 
Q 1516 384 1775 384 
Q 2178 384 2440 643 
Q 2703 903 2703 1303 
Q 2703 1709 2433 1975 
Q 2163 2241 1756 2241 
Q 1359 2241 1098 1978 
Q 838 1716 838 1322 
z
" transform="scale(0.015625)"/>
       </defs>
       <use xlink:href="#ArialMT-38"/>
      </g>
     </g>
    </g>
    <g id="xtick_5">
     <g id="text_5">
      <!-- 10 -->
      <g style="fill: #262626" transform="translate(428.794054 317.797812) scale(0.1 -0.1)">
       <defs>
        <path id="ArialMT-31" d="M 2384 0 
L 1822 0 
L 1822 3584 
Q 1619 3391 1289 3197 
Q 959 3003 697 2906 
L 697 3450 
Q 1169 3672 1522 3987 
Q 1875 4303 2022 4600 
L 2384 4600 
L 2384 0 
z
" transform="scale(0.015625)"/>
        <path id="ArialMT-30" d="M 266 2259 
Q 266 3072 433 3567 
Q 600 4063 929 4331 
Q 1259 4600 1759 4600 
Q 2128 4600 2406 4451 
Q 2684 4303 2865 4023 
Q 3047 3744 3150 3342 
Q 3253 2941 3253 2259 
Q 3253 1453 3087 958 
Q 2922 463 2592 192 
Q 2263 -78 1759 -78 
Q 1097 -78 719 397 
Q 266 969 266 2259 
z
M 844 2259 
Q 844 1131 1108 757 
Q 1372 384 1759 384 
Q 2147 384 2411 759 
Q 2675 1134 2675 2259 
Q 2675 3391 2411 3762 
Q 2147 4134 1753 4134 
Q 1366 4134 1134 3806 
Q 844 3388 844 2259 
z
" transform="scale(0.015625)"/>
       </defs>
       <use xlink:href="#ArialMT-31"/>
       <use xlink:href="#ArialMT-30" x="55.615234"/>
      </g>
     </g>
    </g>
    <g id="text_6">
     <!-- Rating -->
     <g style="fill: #262626" transform="translate(246.492656 330.943125) scale(0.1 -0.1)">
      <defs>
       <path id="ArialMT-52" d="M 503 0 
L 503 4581 
L 2534 4581 
Q 3147 4581 3465 4457 
Q 3784 4334 3975 4021 
Q 4166 3709 4166 3331 
Q 4166 2844 3850 2509 
Q 3534 2175 2875 2084 
Q 3116 1969 3241 1856 
Q 3506 1613 3744 1247 
L 4541 0 
L 3778 0 
L 3172 953 
Q 2906 1366 2734 1584 
Q 2563 1803 2427 1890 
Q 2291 1978 2150 2013 
Q 2047 2034 1813 2034 
L 1109 2034 
L 1109 0 
L 503 0 
z
M 1109 2559 
L 2413 2559 
Q 2828 2559 3062 2645 
Q 3297 2731 3419 2920 
Q 3541 3109 3541 3331 
Q 3541 3656 3305 3865 
Q 3069 4075 2559 4075 
L 1109 4075 
L 1109 2559 
z
" transform="scale(0.015625)"/>
       <path id="ArialMT-61" d="M 2588 409 
Q 2275 144 1986 34 
Q 1697 -75 1366 -75 
Q 819 -75 525 192 
Q 231 459 231 875 
Q 231 1119 342 1320 
Q 453 1522 633 1644 
Q 813 1766 1038 1828 
Q 1203 1872 1538 1913 
Q 2219 1994 2541 2106 
Q 2544 2222 2544 2253 
Q 2544 2597 2384 2738 
Q 2169 2928 1744 2928 
Q 1347 2928 1158 2789 
Q 969 2650 878 2297 
L 328 2372 
Q 403 2725 575 2942 
Q 747 3159 1072 3276 
Q 1397 3394 1825 3394 
Q 2250 3394 2515 3294 
Q 2781 3194 2906 3042 
Q 3031 2891 3081 2659 
Q 3109 2516 3109 2141 
L 3109 1391 
Q 3109 606 3145 398 
Q 3181 191 3288 0 
L 2700 0 
Q 2613 175 2588 409 
z
M 2541 1666 
Q 2234 1541 1622 1453 
Q 1275 1403 1131 1340 
Q 988 1278 909 1158 
Q 831 1038 831 891 
Q 831 666 1001 516 
Q 1172 366 1500 366 
Q 1825 366 2078 508 
Q 2331 650 2450 897 
Q 2541 1088 2541 1459 
L 2541 1666 
z
" transform="scale(0.015625)"/>
       <path id="ArialMT-74" d="M 1650 503 
L 1731 6 
Q 1494 -44 1306 -44 
Q 1000 -44 831 53 
Q 663 150 594 308 
Q 525 466 525 972 
L 525 2881 
L 113 2881 
L 113 3319 
L 525 3319 
L 525 4141 
L 1084 4478 
L 1084 3319 
L 1650 3319 
L 1650 2881 
L 1084 2881 
L 1084 941 
Q 1084 700 1114 631 
Q 1144 563 1211 522 
Q 1278 481 1403 481 
Q 1497 481 1650 503 
z
" transform="scale(0.015625)"/>
       <path id="ArialMT-69" d="M 425 3934 
L 425 4581 
L 988 4581 
L 988 3934 
L 425 3934 
z
M 425 0 
L 425 3319 
L 988 3319 
L 988 0 
L 425 0 
z
" transform="scale(0.015625)"/>
       <path id="ArialMT-6e" d="M 422 0 
L 422 3319 
L 928 3319 
L 928 2847 
Q 1294 3394 1984 3394 
Q 2284 3394 2536 3286 
Q 2788 3178 2913 3003 
Q 3038 2828 3088 2588 
Q 3119 2431 3119 2041 
L 3119 0 
L 2556 0 
L 2556 2019 
Q 2556 2363 2490 2533 
Q 2425 2703 2258 2804 
Q 2091 2906 1866 2906 
Q 1506 2906 1245 2678 
Q 984 2450 984 1813 
L 984 0 
L 422 0 
z
" transform="scale(0.015625)"/>
       <path id="ArialMT-67" d="M 319 -275 
L 866 -356 
Q 900 -609 1056 -725 
Q 1266 -881 1628 -881 
Q 2019 -881 2231 -725 
Q 2444 -569 2519 -288 
Q 2563 -116 2559 434 
Q 2191 0 1641 0 
Q 956 0 581 494 
Q 206 988 206 1678 
Q 206 2153 378 2554 
Q 550 2956 876 3175 
Q 1203 3394 1644 3394 
Q 2231 3394 2613 2919 
L 2613 3319 
L 3131 3319 
L 3131 450 
Q 3131 -325 2973 -648 
Q 2816 -972 2473 -1159 
Q 2131 -1347 1631 -1347 
Q 1038 -1347 672 -1080 
Q 306 -813 319 -275 
z
M 784 1719 
Q 784 1066 1043 766 
Q 1303 466 1694 466 
Q 2081 466 2343 764 
Q 2606 1063 2606 1700 
Q 2606 2309 2336 2618 
Q 2066 2928 1684 2928 
Q 1309 2928 1046 2623 
Q 784 2319 784 1719 
z
" transform="scale(0.015625)"/>
      </defs>
      <use xlink:href="#ArialMT-52"/>
      <use xlink:href="#ArialMT-61" x="72.216797"/>
      <use xlink:href="#ArialMT-74" x="127.832031"/>
      <use xlink:href="#ArialMT-69" x="155.615234"/>
      <use xlink:href="#ArialMT-6e" x="177.832031"/>
      <use xlink:href="#ArialMT-67" x="233.447266"/>
     </g>
    </g>
   </g>
   <g id="matplotlib.axis_2">
    <g id="ytick_1">
     <g id="text_7">
      <!-- Competitive -->
      <g style="fill: #262626" transform="translate(12.094687 98.672031) scale(0.1 -0.1)">
       <defs>
        <path id="ArialMT-43" d="M 3763 1606 
L 4369 1453 
Q 4178 706 3683 314 
Q 3188 -78 2472 -78 
Q 1731 -78 1267 223 
Q 803 525 561 1097 
Q 319 1669 319 2325 
Q 319 3041 592 3573 
Q 866 4106 1370 4382 
Q 1875 4659 2481 4659 
Q 3169 4659 3637 4309 
Q 4106 3959 4291 3325 
L 3694 3184 
Q 3534 3684 3231 3912 
Q 2928 4141 2469 4141 
Q 1941 4141 1586 3887 
Q 1231 3634 1087 3207 
Q 944 2781 944 2328 
Q 944 1744 1114 1308 
Q 1284 872 1643 656 
Q 2003 441 2422 441 
Q 2931 441 3284 734 
Q 3638 1028 3763 1606 
z
" transform="scale(0.015625)"/>
        <path id="ArialMT-6f" d="M 213 1659 
Q 213 2581 725 3025 
Q 1153 3394 1769 3394 
Q 2453 3394 2887 2945 
Q 3322 2497 3322 1706 
Q 3322 1066 3130 698 
Q 2938 331 2570 128 
Q 2203 -75 1769 -75 
Q 1072 -75 642 372 
Q 213 819 213 1659 
z
M 791 1659 
Q 791 1022 1069 705 
Q 1347 388 1769 388 
Q 2188 388 2466 706 
Q 2744 1025 2744 1678 
Q 2744 2294 2464 2611 
Q 2184 2928 1769 2928 
Q 1347 2928 1069 2612 
Q 791 2297 791 1659 
z
" transform="scale(0.015625)"/>
        <path id="ArialMT-6d" d="M 422 0 
L 422 3319 
L 925 3319 
L 925 2853 
Q 1081 3097 1340 3245 
Q 1600 3394 1931 3394 
Q 2300 3394 2536 3241 
Q 2772 3088 2869 2813 
Q 3263 3394 3894 3394 
Q 4388 3394 4653 3120 
Q 4919 2847 4919 2278 
L 4919 0 
L 4359 0 
L 4359 2091 
Q 4359 2428 4304 2576 
Q 4250 2725 4106 2815 
Q 3963 2906 3769 2906 
Q 3419 2906 3187 2673 
Q 2956 2441 2956 1928 
L 2956 0 
L 2394 0 
L 2394 2156 
Q 2394 2531 2256 2718 
Q 2119 2906 1806 2906 
Q 1569 2906 1367 2781 
Q 1166 2656 1075 2415 
Q 984 2175 984 1722 
L 984 0 
L 422 0 
z
" transform="scale(0.015625)"/>
        <path id="ArialMT-70" d="M 422 -1272 
L 422 3319 
L 934 3319 
L 934 2888 
Q 1116 3141 1344 3267 
Q 1572 3394 1897 3394 
Q 2322 3394 2647 3175 
Q 2972 2956 3137 2557 
Q 3303 2159 3303 1684 
Q 3303 1175 3120 767 
Q 2938 359 2589 142 
Q 2241 -75 1856 -75 
Q 1575 -75 1351 44 
Q 1128 163 984 344 
L 984 -1272 
L 422 -1272 
z
M 931 1641 
Q 931 1000 1190 694 
Q 1450 388 1819 388 
Q 2194 388 2461 705 
Q 2728 1022 2728 1688 
Q 2728 2322 2467 2637 
Q 2206 2953 1844 2953 
Q 1484 2953 1207 2617 
Q 931 2281 931 1641 
z
" transform="scale(0.015625)"/>
        <path id="ArialMT-65" d="M 2694 1069 
L 3275 997 
Q 3138 488 2766 206 
Q 2394 -75 1816 -75 
Q 1088 -75 661 373 
Q 234 822 234 1631 
Q 234 2469 665 2931 
Q 1097 3394 1784 3394 
Q 2450 3394 2872 2941 
Q 3294 2488 3294 1666 
Q 3294 1616 3291 1516 
L 816 1516 
Q 847 969 1125 678 
Q 1403 388 1819 388 
Q 2128 388 2347 550 
Q 2566 713 2694 1069 
z
M 847 1978 
L 2700 1978 
Q 2663 2397 2488 2606 
Q 2219 2931 1791 2931 
Q 1403 2931 1139 2672 
Q 875 2413 847 1978 
z
" transform="scale(0.015625)"/>
        <path id="ArialMT-76" d="M 1344 0 
L 81 3319 
L 675 3319 
L 1388 1331 
Q 1503 1009 1600 663 
Q 1675 925 1809 1294 
L 2547 3319 
L 3125 3319 
L 1869 0 
L 1344 0 
z
" transform="scale(0.015625)"/>
       </defs>
       <use xlink:href="#ArialMT-43"/>
       <use xlink:href="#ArialMT-6f" x="72.216797"/>
       <use xlink:href="#ArialMT-6d" x="127.832031"/>
       <use xlink:href="#ArialMT-70" x="211.132812"/>
       <use xlink:href="#ArialMT-65" x="266.748047"/>
       <use xlink:href="#ArialMT-74" x="322.363281"/>
       <use xlink:href="#ArialMT-69" x="350.146484"/>
       <use xlink:href="#ArialMT-74" x="372.363281"/>
       <use xlink:href="#ArialMT-69" x="400.146484"/>
       <use xlink:href="#ArialMT-76" x="422.363281"/>
       <use xlink:href="#ArialMT-65" x="472.363281"/>
      </g>
     </g>
    </g>
    <g id="ytick_2">
     <g id="text_8">
      <!-- Cooperative -->
      <g style="fill: #262626" transform="translate(10.972812 237.743906) scale(0.1 -0.1)">
       <defs>
        <path id="ArialMT-72" d="M 416 0 
L 416 3319 
L 922 3319 
L 922 2816 
Q 1116 3169 1280 3281 
Q 1444 3394 1641 3394 
Q 1925 3394 2219 3213 
L 2025 2691 
Q 1819 2813 1613 2813 
Q 1428 2813 1281 2702 
Q 1134 2591 1072 2394 
Q 978 2094 978 1738 
L 978 0 
L 416 0 
z
" transform="scale(0.015625)"/>
       </defs>
       <use xlink:href="#ArialMT-43"/>
       <use xlink:href="#ArialMT-6f" x="72.216797"/>
       <use xlink:href="#ArialMT-6f" x="127.832031"/>
       <use xlink:href="#ArialMT-70" x="183.447266"/>
       <use xlink:href="#ArialMT-65" x="239.0625"/>
       <use xlink:href="#ArialMT-72" x="294.677734"/>
       <use xlink:href="#ArialMT-61" x="327.978516"/>
       <use xlink:href="#ArialMT-74" x="383.59375"/>
       <use xlink:href="#ArialMT-69" x="411.376953"/>
       <use xlink:href="#ArialMT-76" x="433.59375"/>
       <use xlink:href="#ArialMT-65" x="483.59375"/>
      </g>
     </g>
    </g>
   </g>
   <g id="PolyCollection_1">
    <defs>
     <path id="m6cf27dc38e" d="M 89.076818 -250.564983 
L 89.076818 -250.570642 
L 92.447866 -250.578713 
L 95.818915 -250.594733 
L 99.189963 -250.611031 
L 102.561011 -250.613208 
L 105.932059 -250.600664 
L 109.303108 -250.589669 
L 112.674156 -250.587836 
L 116.045204 -250.588294 
L 119.416252 -250.588661 
L 122.787301 -250.591372 
L 126.158349 -250.596519 
L 129.529397 -250.605702 
L 132.900445 -250.614625 
L 136.271493 -250.612147 
L 139.642542 -250.601639 
L 143.01359 -250.601678 
L 146.384638 -250.618311 
L 149.755686 -250.642356 
L 153.126735 -250.672232 
L 156.497783 -250.710783 
L 159.868831 -250.744556 
L 163.239879 -250.749945 
L 166.610928 -250.725279 
L 169.981976 -250.702852 
L 173.353024 -250.72909 
L 176.724072 -250.833978 
L 180.09512 -250.997188 
L 183.466169 -251.157175 
L 186.837217 -251.272044 
L 190.208265 -251.367096 
L 193.579313 -251.496243 
L 196.950362 -251.654797 
L 200.32141 -251.824245 
L 203.692458 -252.073039 
L 207.063506 -252.469339 
L 210.434555 -252.964594 
L 213.805603 -253.481802 
L 217.176651 -254.047562 
L 220.547699 -254.752159 
L 223.918747 -255.607866 
L 227.289796 -256.538555 
L 230.660844 -257.493305 
L 234.031892 -258.471123 
L 237.40294 -259.535559 
L 240.773989 -260.83803 
L 244.145037 -262.483033 
L 247.516085 -264.417092 
L 250.887133 -266.571039 
L 254.258182 -269.141755 
L 257.62923 -272.398639 
L 261.000278 -276.036876 
L 264.371326 -279.419738 
L 267.742374 -282.388793 
L 271.113423 -285.029643 
L 274.484471 -287.361171 
L 277.855519 -289.756141 
L 281.226567 -292.647764 
L 284.597616 -295.832121 
L 287.968664 -298.71579 
L 291.339712 -300.887007 
L 294.71076 -302.226575 
L 298.081809 -302.817796 
L 301.452857 -302.769937 
L 304.823905 -302.035227 
L 308.194953 -300.606274 
L 311.566002 -298.685465 
L 314.93705 -296.637732 
L 318.308098 -294.689108 
L 321.679146 -292.564405 
L 325.050194 -289.913191 
L 328.421243 -286.798147 
L 331.792291 -283.502727 
L 335.163339 -280.279693 
L 338.534387 -277.226907 
L 341.905436 -274.227797 
L 345.276484 -271.196799 
L 348.647532 -268.312087 
L 352.01858 -265.702457 
L 355.389629 -263.293614 
L 358.760677 -261.166829 
L 362.131725 -259.463564 
L 365.502773 -258.043985 
L 368.873821 -256.666336 
L 372.24487 -255.330369 
L 375.615918 -254.217193 
L 378.986966 -253.416533 
L 382.358014 -252.82076 
L 385.729063 -252.29293 
L 389.100111 -251.830392 
L 392.471159 -251.472477 
L 395.842207 -251.217409 
L 399.213256 -251.055653 
L 402.584304 -250.957501 
L 405.955352 -250.865872 
L 409.3264 -250.759 
L 412.697448 -250.664886 
L 416.068497 -250.606848 
L 419.439545 -250.580152 
L 422.810593 -250.570692 
L 422.810593 -250.564933 
L 422.810593 -250.564933 
L 419.439545 -250.555473 
L 416.068497 -250.528777 
L 412.697448 -250.470739 
L 409.3264 -250.376625 
L 405.955352 -250.269753 
L 402.584304 -250.178124 
L 399.213256 -250.079972 
L 395.842207 -249.918216 
L 392.471159 -249.663148 
L 389.100111 -249.305233 
L 385.729063 -248.842695 
L 382.358014 -248.314865 
L 378.986966 -247.719092 
L 375.615918 -246.918432 
L 372.24487 -245.805256 
L 368.873821 -244.469289 
L 365.502773 -243.09164 
L 362.131725 -241.672061 
L 358.760677 -239.968796 
L 355.389629 -237.842011 
L 352.01858 -235.433168 
L 348.647532 -232.823538 
L 345.276484 -229.938826 
L 341.905436 -226.907828 
L 338.534387 -223.908718 
L 335.163339 -220.855932 
L 331.792291 -217.632898 
L 328.421243 -214.337478 
L 325.050194 -211.222434 
L 321.679146 -208.57122 
L 318.308098 -206.446517 
L 314.93705 -204.497893 
L 311.566002 -202.45016 
L 308.194953 -200.529351 
L 304.823905 -199.100398 
L 301.452857 -198.365688 
L 298.081809 -198.317829 
L 294.71076 -198.90905 
L 291.339712 -200.248618 
L 287.968664 -202.419835 
L 284.597616 -205.303504 
L 281.226567 -208.487861 
L 277.855519 -211.379484 
L 274.484471 -213.774454 
L 271.113423 -216.105982 
L 267.742374 -218.746832 
L 264.371326 -221.715887 
L 261.000278 -225.098749 
L 257.62923 -228.736986 
L 254.258182 -231.99387 
L 250.887133 -234.564586 
L 247.516085 -236.718533 
L 244.145037 -238.652592 
L 240.773989 -240.297595 
L 237.40294 -241.600066 
L 234.031892 -242.664502 
L 230.660844 -243.64232 
L 227.289796 -244.59707 
L 223.918747 -245.527759 
L 220.547699 -246.383466 
L 217.176651 -247.088063 
L 213.805603 -247.653823 
L 210.434555 -248.171031 
L 207.063506 -248.666286 
L 203.692458 -249.062586 
L 200.32141 -249.31138 
L 196.950362 -249.480828 
L 193.579313 -249.639382 
L 190.208265 -249.768529 
L 186.837217 -249.863581 
L 183.466169 -249.97845 
L 180.09512 -250.138437 
L 176.724072 -250.301647 
L 173.353024 -250.406535 
L 169.981976 -250.432773 
L 166.610928 -250.410346 
L 163.239879 -250.38568 
L 159.868831 -250.391069 
L 156.497783 -250.424842 
L 153.126735 -250.463393 
L 149.755686 -250.493269 
L 146.384638 -250.517314 
L 143.01359 -250.533947 
L 139.642542 -250.533986 
L 136.271493 -250.523478 
L 132.900445 -250.521 
L 129.529397 -250.529923 
L 126.158349 -250.539106 
L 122.787301 -250.544253 
L 119.416252 -250.546964 
L 116.045204 -250.547331 
L 112.674156 -250.547789 
L 109.303108 -250.545956 
L 105.932059 -250.534961 
L 102.561011 -250.522417 
L 99.189963 -250.524594 
L 95.818915 -250.540892 
L 92.447866 -250.556912 
L 89.076818 -250.564983 
z
" style="stroke: #262626; stroke-width: 1.25"/>
    </defs>
    <g clip-path="url(#p075fd27cf0)">
     <use xlink:href="#m6cf27dc38e" x="0" y="345.6" style="fill: #701070; stroke: #262626; stroke-width: 1.25"/>
    </g>
   </g>
   <g id="PolyCollection_2">
    <defs>
     <path id="m7a0c43491e" d="M 150.915272 -111.478821 
L 150.915272 -111.513054 
L 153.762726 -111.532431 
L 156.61018 -111.563915 
L 159.457633 -111.607609 
L 162.305087 -111.659546 
L 165.15254 -111.712205 
L 167.999994 -111.756395 
L 170.847448 -111.783656 
L 173.694901 -111.789351 
L 176.542355 -111.776291 
L 179.389809 -111.756047 
L 182.237262 -111.744335 
L 185.084716 -111.7521 
L 187.93217 -111.780315 
L 190.779623 -111.824926 
L 193.627077 -111.887769 
L 196.47453 -111.981324 
L 199.321984 -112.120658 
L 202.169438 -112.309599 
L 205.016891 -112.534072 
L 207.864345 -112.767413 
L 210.711799 -112.981657 
L 213.559252 -113.156583 
L 216.406706 -113.282819 
L 219.254159 -113.360455 
L 222.101613 -113.398321 
L 224.949067 -113.418211 
L 227.79652 -113.459813 
L 230.643974 -113.574841 
L 233.491428 -113.807088 
L 236.338881 -114.17453 
L 239.186335 -114.674558 
L 242.033789 -115.309988 
L 244.881242 -116.104725 
L 247.728696 -117.082133 
L 250.576149 -118.22047 
L 253.423603 -119.434883 
L 256.271057 -120.619349 
L 259.11851 -121.722806 
L 261.965964 -122.793016 
L 264.813418 -123.947502 
L 267.660871 -125.29997 
L 270.508325 -126.909152 
L 273.355778 -128.786037 
L 276.203232 -130.934629 
L 279.050686 -133.378523 
L 281.898139 -136.157003 
L 284.745593 -139.311845 
L 287.593047 -142.879888 
L 290.4405 -146.869403 
L 293.287954 -151.194106 
L 296.135408 -155.596265 
L 298.982861 -159.647709 
L 301.830315 -162.88734 
L 304.677768 -165.040687 
L 307.525222 -166.174004 
L 310.372676 -166.65311 
L 313.220129 -166.90308 
L 316.067583 -167.116609 
L 318.915037 -167.124687 
L 321.76249 -166.546859 
L 324.609944 -165.120566 
L 327.457397 -162.942845 
L 330.304851 -160.414179 
L 333.152305 -157.932842 
L 335.999758 -155.613408 
L 338.847212 -153.269207 
L 341.694666 -150.639838 
L 344.542119 -147.631582 
L 347.389573 -144.375244 
L 350.237027 -141.110165 
L 353.08448 -138.038821 
L 355.931934 -135.262553 
L 358.779387 -132.802075 
L 361.626841 -130.645858 
L 364.474295 -128.77662 
L 367.321748 -127.163352 
L 370.169202 -125.739896 
L 373.016656 -124.401737 
L 375.864109 -123.036167 
L 378.711563 -121.571804 
L 381.559016 -120.014969 
L 384.40647 -118.447222 
L 387.253924 -116.985237 
L 390.101377 -115.7284 
L 392.948831 -114.722987 
L 395.796285 -113.957414 
L 398.643738 -113.385055 
L 401.491192 -112.957346 
L 404.338646 -112.64458 
L 407.186099 -112.431695 
L 410.033553 -112.298736 
L 412.881006 -112.209712 
L 415.72846 -112.123127 
L 418.575914 -112.013552 
L 421.423367 -111.882996 
L 424.270821 -111.752822 
L 427.118275 -111.645596 
L 429.965728 -111.57201 
L 432.813182 -111.52955 
L 432.813182 -111.462325 
L 432.813182 -111.462325 
L 429.965728 -111.419865 
L 427.118275 -111.346279 
L 424.270821 -111.239053 
L 421.423367 -111.108879 
L 418.575914 -110.978323 
L 415.72846 -110.868748 
L 412.881006 -110.782163 
L 410.033553 -110.693139 
L 407.186099 -110.56018 
L 404.338646 -110.347295 
L 401.491192 -110.034529 
L 398.643738 -109.60682 
L 395.796285 -109.034461 
L 392.948831 -108.268888 
L 390.101377 -107.263475 
L 387.253924 -106.006638 
L 384.40647 -104.544653 
L 381.559016 -102.976906 
L 378.711563 -101.420071 
L 375.864109 -99.955708 
L 373.016656 -98.590138 
L 370.169202 -97.251979 
L 367.321748 -95.828523 
L 364.474295 -94.215255 
L 361.626841 -92.346017 
L 358.779387 -90.1898 
L 355.931934 -87.729322 
L 353.08448 -84.953054 
L 350.237027 -81.88171 
L 347.389573 -78.616631 
L 344.542119 -75.360293 
L 341.694666 -72.352037 
L 338.847212 -69.722668 
L 335.999758 -67.378467 
L 333.152305 -65.059033 
L 330.304851 -62.577696 
L 327.457397 -60.04903 
L 324.609944 -57.871309 
L 321.76249 -56.445016 
L 318.915037 -55.867188 
L 316.067583 -55.875266 
L 313.220129 -56.088795 
L 310.372676 -56.338765 
L 307.525222 -56.817871 
L 304.677768 -57.951188 
L 301.830315 -60.104535 
L 298.982861 -63.344166 
L 296.135408 -67.39561 
L 293.287954 -71.797769 
L 290.4405 -76.122472 
L 287.593047 -80.111987 
L 284.745593 -83.68003 
L 281.898139 -86.834872 
L 279.050686 -89.613352 
L 276.203232 -92.057246 
L 273.355778 -94.205838 
L 270.508325 -96.082723 
L 267.660871 -97.691905 
L 264.813418 -99.044373 
L 261.965964 -100.198859 
L 259.11851 -101.269069 
L 256.271057 -102.372526 
L 253.423603 -103.556992 
L 250.576149 -104.771405 
L 247.728696 -105.909742 
L 244.881242 -106.88715 
L 242.033789 -107.681887 
L 239.186335 -108.317317 
L 236.338881 -108.817345 
L 233.491428 -109.184787 
L 230.643974 -109.417034 
L 227.79652 -109.532062 
L 224.949067 -109.573664 
L 222.101613 -109.593554 
L 219.254159 -109.63142 
L 216.406706 -109.709056 
L 213.559252 -109.835292 
L 210.711799 -110.010218 
L 207.864345 -110.224462 
L 205.016891 -110.457803 
L 202.169438 -110.682276 
L 199.321984 -110.871217 
L 196.47453 -111.010551 
L 193.627077 -111.104106 
L 190.779623 -111.166949 
L 187.93217 -111.21156 
L 185.084716 -111.239775 
L 182.237262 -111.24754 
L 179.389809 -111.235828 
L 176.542355 -111.215584 
L 173.694901 -111.202524 
L 170.847448 -111.208219 
L 167.999994 -111.23548 
L 165.15254 -111.27967 
L 162.305087 -111.332329 
L 159.457633 -111.384266 
L 156.61018 -111.42796 
L 153.762726 -111.459444 
L 150.915272 -111.478821 
z
" style="stroke: #262626; stroke-width: 1.25"/>
    </defs>
    <g clip-path="url(#p075fd27cf0)">
     <use xlink:href="#m7a0c43491e" x="0" y="345.6" style="fill: #701070; stroke: #262626; stroke-width: 1.25"/>
    </g>
   </g>
   <g id="line2d_1">
    <path d="M 210.096267 95.032187 
L 389.164964 95.032187 
" clip-path="url(#p075fd27cf0)" style="fill: none; stroke: #262626; stroke-width: 1.875; stroke-linecap: round"/>
   </g>
   <g id="line2d_2">
    <path d="M 277.286597 95.032187 
L 322.110867 95.032187 
" clip-path="url(#p075fd27cf0)" style="fill: none; stroke: #262626; stroke-width: 5.625; stroke-linecap: round"/>
   </g>
   <g id="line2d_3">
    <path d="M 299.902891 95.032187 
" clip-path="url(#p075fd27cf0)" style="fill: none; stroke: #262626; stroke-width: 1.5; stroke-linecap: round"/>
    <defs>
     <path id="m9720a5cb25" d="M 0 2.34375 
L 0 -2.34375 
" style="stroke: #ffffff; stroke-width: 1.125"/>
    </defs>
    <g clip-path="url(#p075fd27cf0)">
     <use xlink:href="#m9720a5cb25" x="299.902891" y="95.032187" style="fill: #ffffff; stroke: #ffffff; stroke-width: 1.125"/>
    </g>
   </g>
   <g id="line2d_4">
    <path d="M 238.881021 234.104062 
L 397.154227 234.104062 
" clip-path="url(#p075fd27cf0)" style="fill: none; stroke: #262626; stroke-width: 1.875; stroke-linecap: round"/>
   </g>
   <g id="line2d_5">
    <path d="M 297.824063 234.104062 
L 337.865283 234.104062 
" clip-path="url(#p075fd27cf0)" style="fill: none; stroke: #262626; stroke-width: 5.625; stroke-linecap: round"/>
   </g>
   <g id="line2d_6">
    <path d="M 317.24564 234.104062 
" clip-path="url(#p075fd27cf0)" style="fill: none; stroke: #262626; stroke-width: 1.5; stroke-linecap: round"/>
    <g clip-path="url(#p075fd27cf0)">
     <use xlink:href="#m9720a5cb25" x="317.24564" y="234.104062" style="fill: #ffffff; stroke: #ffffff; stroke-width: 1.125"/>
    </g>
   </g>
   <g id="patch_3">
    <path d="M 71.89 303.64 
L 71.89 25.49625 
" style="fill: none; stroke: #ffffff; stroke-width: 0.8; stroke-linejoin: miter; stroke-linecap: square"/>
   </g>
   <g id="patch_4">
    <path d="M 450 303.64 
L 450 25.49625 
" style="fill: none; stroke: #ffffff; stroke-width: 0.8; stroke-linejoin: miter; stroke-linecap: square"/>
   </g>
   <g id="patch_5">
    <path d="M 71.89 303.64 
L 450 303.64 
" style="fill: none; stroke: #ffffff; stroke-width: 0.8; stroke-linejoin: miter; stroke-linecap: square"/>
   </g>
   <g id="patch_6">
    <path d="M 71.89 25.49625 
L 450 25.49625 
" style="fill: none; stroke: #ffffff; stroke-width: 0.8; stroke-linejoin: miter; stroke-linecap: square"/>
   </g>
   <g id="text_9">
    <!-- Competitive/Cooperative vs Rating -->
    <g style="fill: #262626" transform="translate(168.574062 19.49625) scale(0.12 -0.12)">
     <defs>
      <path id="ArialMT-2f" d="M 0 -78 
L 1328 4659 
L 1778 4659 
L 453 -78 
L 0 -78 
z
" transform="scale(0.015625)"/>
      <path id="ArialMT-20" transform="scale(0.015625)"/>
      <path id="ArialMT-73" d="M 197 991 
L 753 1078 
Q 800 744 1014 566 
Q 1228 388 1613 388 
Q 2000 388 2187 545 
Q 2375 703 2375 916 
Q 2375 1106 2209 1216 
Q 2094 1291 1634 1406 
Q 1016 1563 777 1677 
Q 538 1791 414 1992 
Q 291 2194 291 2438 
Q 291 2659 392 2848 
Q 494 3038 669 3163 
Q 800 3259 1026 3326 
Q 1253 3394 1513 3394 
Q 1903 3394 2198 3281 
Q 2494 3169 2634 2976 
Q 2775 2784 2828 2463 
L 2278 2388 
Q 2241 2644 2061 2787 
Q 1881 2931 1553 2931 
Q 1166 2931 1000 2803 
Q 834 2675 834 2503 
Q 834 2394 903 2306 
Q 972 2216 1119 2156 
Q 1203 2125 1616 2013 
Q 2213 1853 2448 1751 
Q 2684 1650 2818 1456 
Q 2953 1263 2953 975 
Q 2953 694 2789 445 
Q 2625 197 2315 61 
Q 2006 -75 1616 -75 
Q 969 -75 630 194 
Q 291 463 197 991 
z
" transform="scale(0.015625)"/>
     </defs>
     <use xlink:href="#ArialMT-43"/>
     <use xlink:href="#ArialMT-6f" x="72.216797"/>
     <use xlink:href="#ArialMT-6d" x="127.832031"/>
     <use xlink:href="#ArialMT-70" x="211.132812"/>
     <use xlink:href="#ArialMT-65" x="266.748047"/>
     <use xlink:href="#ArialMT-74" x="322.363281"/>
     <use xlink:href="#ArialMT-69" x="350.146484"/>
     <use xlink:href="#ArialMT-74" x="372.363281"/>
     <use xlink:href="#ArialMT-69" x="400.146484"/>
     <use xlink:href="#ArialMT-76" x="422.363281"/>
     <use xlink:href="#ArialMT-65" x="472.363281"/>
     <use xlink:href="#ArialMT-2f" x="527.978516"/>
     <use xlink:href="#ArialMT-43" x="555.761719"/>
     <use xlink:href="#ArialMT-6f" x="627.978516"/>
     <use xlink:href="#ArialMT-6f" x="683.59375"/>
     <use xlink:href="#ArialMT-70" x="739.208984"/>
     <use xlink:href="#ArialMT-65" x="794.824219"/>
     <use xlink:href="#ArialMT-72" x="850.439453"/>
     <use xlink:href="#ArialMT-61" x="883.740234"/>
     <use xlink:href="#ArialMT-74" x="939.355469"/>
     <use xlink:href="#ArialMT-69" x="967.138672"/>
     <use xlink:href="#ArialMT-76" x="989.355469"/>
     <use xlink:href="#ArialMT-65" x="1039.355469"/>
     <use xlink:href="#ArialMT-20" x="1094.970703"/>
     <use xlink:href="#ArialMT-76" x="1122.753906"/>
     <use xlink:href="#ArialMT-73" x="1172.753906"/>
     <use xlink:href="#ArialMT-20" x="1222.753906"/>
     <use xlink:href="#ArialMT-52" x="1250.537109"/>
     <use xlink:href="#ArialMT-61" x="1322.753906"/>
     <use xlink:href="#ArialMT-74" x="1378.369141"/>
     <use xlink:href="#ArialMT-69" x="1406.152344"/>
     <use xlink:href="#ArialMT-6e" x="1428.369141"/>
     <use xlink:href="#ArialMT-67" x="1483.984375"/>
    </g>
   </g>
  </g>
 </g>
 <defs>
  <clipPath id="p075fd27cf0">
   <rect x="71.89" y="25.49625" width="378.11" height="278.14375"/>
  </clipPath>
 </defs>
</svg>
