<?xml version="1.0" encoding="utf-8" standalone="no"?>
<!DOCTYPE svg PUBLIC "-//W3C//DTD SVG 1.1//EN"
  "http://www.w3.org/Graphics/SVG/1.1/DTD/svg11.dtd">
<svg xmlns:xlink="http://www.w3.org/1999/xlink" width="460.8pt" height="345.6pt" viewBox="0 0 460.8 345.6" xmlns="http://www.w3.org/2000/svg" version="1.1">
 <metadata>
  <rdf:RDF xmlns:dc="http://purl.org/dc/elements/1.1/" xmlns:cc="http://creativecommons.org/ns#" xmlns:rdf="http://www.w3.org/1999/02/22-rdf-syntax-ns#">
   <cc:Work>
    <dc:type rdf:resource="http://purl.org/dc/dcmitype/StillImage"/>
    <dc:date>2024-09-15T16:42:35.521589</dc:date>
    <dc:format>image/svg+xml</dc:format>
    <dc:creator>
     <cc:Agent>
      <dc:title>Matplotlib v3.9.2, https://matplotlib.org/</dc:title>
     </cc:Agent>
    </dc:creator>
   </cc:Work>
  </rdf:RDF>
 </metadata>
 <defs>
  <style type="text/css">*{stroke-linejoin: round; stroke-linecap: butt}</style>
 </defs>
 <g id="figure_1">
  <g id="patch_1">
   <path d="M 0 345.6 
L 460.8 345.6 
L 460.8 0 
L 0 0 
z
" style="fill: #ffffff"/>
  </g>
  <g id="axes_1">
   <g id="patch_2">
    <path d="M 71.89 303.64 
L 450 303.64 
L 450 25.49625 
L 71.89 25.49625 
z
" style="fill: #eaeaf2"/>
   </g>
   <g id="matplotlib.axis_1">
    <g id="xtick_1">
     <g id="text_1">
      <!-- 2 -->
      <g style="fill: #262626" transform="translate(102.983579 317.797812) scale(0.1 -0.1)">
       <defs>
        <path id="ArialMT-32" d="M 3222 541 
L 3222 0 
L 194 0 
Q 188 203 259 391 
Q 375 700 629 1000 
Q 884 1300 1366 1694 
Q 2113 2306 2375 2664 
Q 2638 3022 2638 3341 
Q 2638 3675 2398 3904 
Q 2159 4134 1775 4134 
Q 1369 4134 1125 3890 
Q 881 3647 878 3216 
L 300 3275 
Q 359 3922 746 4261 
Q 1134 4600 1788 4600 
Q 2447 4600 2831 4234 
Q 3216 3869 3216 3328 
Q 3216 3053 3103 2787 
Q 2991 2522 2730 2228 
Q 2469 1934 1863 1422 
Q 1356 997 1212 845 
Q 1069 694 975 541 
L 3222 541 
z
" transform="scale(0.015625)"/>
       </defs>
       <use xlink:href="#ArialMT-32"/>
      </g>
     </g>
    </g>
    <g id="xtick_2">
     <g id="text_2">
      <!-- 3 -->
      <g style="fill: #262626" transform="translate(149.175673 317.797812) scale(0.1 -0.1)">
       <defs>
        <path id="ArialMT-33" d="M 269 1209 
L 831 1284 
Q 928 806 1161 595 
Q 1394 384 1728 384 
Q 2125 384 2398 659 
Q 2672 934 2672 1341 
Q 2672 1728 2419 1979 
Q 2166 2231 1775 2231 
Q 1616 2231 1378 2169 
L 1441 2663 
Q 1497 2656 1531 2656 
Q 1891 2656 2178 2843 
Q 2466 3031 2466 3422 
Q 2466 3731 2256 3934 
Q 2047 4138 1716 4138 
Q 1388 4138 1169 3931 
Q 950 3725 888 3313 
L 325 3413 
Q 428 3978 793 4289 
Q 1159 4600 1703 4600 
Q 2078 4600 2393 4439 
Q 2709 4278 2876 4000 
Q 3044 3722 3044 3409 
Q 3044 3113 2884 2869 
Q 2725 2625 2413 2481 
Q 2819 2388 3044 2092 
Q 3269 1797 3269 1353 
Q 3269 753 2831 336 
Q 2394 -81 1725 -81 
Q 1122 -81 723 278 
Q 325 638 269 1209 
z
" transform="scale(0.015625)"/>
       </defs>
       <use xlink:href="#ArialMT-33"/>
      </g>
     </g>
    </g>
    <g id="xtick_3">
     <g id="text_3">
      <!-- 4 -->
      <g style="fill: #262626" transform="translate(195.367766 317.797812) scale(0.1 -0.1)">
       <defs>
        <path id="ArialMT-34" d="M 2069 0 
L 2069 1097 
L 81 1097 
L 81 1613 
L 2172 4581 
L 2631 4581 
L 2631 1613 
L 3250 1613 
L 3250 1097 
L 2631 1097 
L 2631 0 
L 2069 0 
z
M 2069 1613 
L 2069 3678 
L 634 1613 
L 2069 1613 
z
" transform="scale(0.015625)"/>
       </defs>
       <use xlink:href="#ArialMT-34"/>
      </g>
     </g>
    </g>
    <g id="xtick_4">
     <g id="text_4">
      <!-- 5 -->
      <g style="fill: #262626" transform="translate(241.559859 317.797812) scale(0.1 -0.1)">
       <defs>
        <path id="ArialMT-35" d="M 266 1200 
L 856 1250 
Q 922 819 1161 601 
Q 1400 384 1738 384 
Q 2144 384 2425 690 
Q 2706 997 2706 1503 
Q 2706 1984 2436 2262 
Q 2166 2541 1728 2541 
Q 1456 2541 1237 2417 
Q 1019 2294 894 2097 
L 366 2166 
L 809 4519 
L 3088 4519 
L 3088 3981 
L 1259 3981 
L 1013 2750 
Q 1425 3038 1878 3038 
Q 2478 3038 2890 2622 
Q 3303 2206 3303 1553 
Q 3303 931 2941 478 
Q 2500 -78 1738 -78 
Q 1113 -78 717 272 
Q 322 622 266 1200 
z
" transform="scale(0.015625)"/>
       </defs>
       <use xlink:href="#ArialMT-35"/>
      </g>
     </g>
    </g>
    <g id="xtick_5">
     <g id="text_5">
      <!-- 6 -->
      <g style="fill: #262626" transform="translate(287.751953 317.797812) scale(0.1 -0.1)">
       <defs>
        <path id="ArialMT-36" d="M 3184 3459 
L 2625 3416 
Q 2550 3747 2413 3897 
Q 2184 4138 1850 4138 
Q 1581 4138 1378 3988 
Q 1113 3794 959 3422 
Q 806 3050 800 2363 
Q 1003 2672 1297 2822 
Q 1591 2972 1913 2972 
Q 2475 2972 2870 2558 
Q 3266 2144 3266 1488 
Q 3266 1056 3080 686 
Q 2894 316 2569 119 
Q 2244 -78 1831 -78 
Q 1128 -78 684 439 
Q 241 956 241 2144 
Q 241 3472 731 4075 
Q 1159 4600 1884 4600 
Q 2425 4600 2770 4297 
Q 3116 3994 3184 3459 
z
M 888 1484 
Q 888 1194 1011 928 
Q 1134 663 1356 523 
Q 1578 384 1822 384 
Q 2178 384 2434 671 
Q 2691 959 2691 1453 
Q 2691 1928 2437 2201 
Q 2184 2475 1800 2475 
Q 1419 2475 1153 2201 
Q 888 1928 888 1484 
z
" transform="scale(0.015625)"/>
       </defs>
       <use xlink:href="#ArialMT-36"/>
      </g>
     </g>
    </g>
    <g id="xtick_6">
     <g id="text_6">
      <!-- 7 -->
      <g style="fill: #262626" transform="translate(333.944046 317.797812) scale(0.1 -0.1)">
       <defs>
        <path id="ArialMT-37" d="M 303 3981 
L 303 4522 
L 3269 4522 
L 3269 4084 
Q 2831 3619 2401 2847 
Q 1972 2075 1738 1259 
Q 1569 684 1522 0 
L 944 0 
Q 953 541 1156 1306 
Q 1359 2072 1739 2783 
Q 2119 3494 2547 3981 
L 303 3981 
z
" transform="scale(0.015625)"/>
       </defs>
       <use xlink:href="#ArialMT-37"/>
      </g>
     </g>
    </g>
    <g id="xtick_7">
     <g id="text_7">
      <!-- 8 -->
      <g style="fill: #262626" transform="translate(380.13614 317.797812) scale(0.1 -0.1)">
       <defs>
        <path id="ArialMT-38" d="M 1131 2484 
Q 781 2613 612 2850 
Q 444 3088 444 3419 
Q 444 3919 803 4259 
Q 1163 4600 1759 4600 
Q 2359 4600 2725 4251 
Q 3091 3903 3091 3403 
Q 3091 3084 2923 2848 
Q 2756 2613 2416 2484 
Q 2838 2347 3058 2040 
Q 3278 1734 3278 1309 
Q 3278 722 2862 322 
Q 2447 -78 1769 -78 
Q 1091 -78 675 323 
Q 259 725 259 1325 
Q 259 1772 486 2073 
Q 713 2375 1131 2484 
z
M 1019 3438 
Q 1019 3113 1228 2906 
Q 1438 2700 1772 2700 
Q 2097 2700 2305 2904 
Q 2513 3109 2513 3406 
Q 2513 3716 2298 3927 
Q 2084 4138 1766 4138 
Q 1444 4138 1231 3931 
Q 1019 3725 1019 3438 
z
M 838 1322 
Q 838 1081 952 856 
Q 1066 631 1291 507 
Q 1516 384 1775 384 
Q 2178 384 2440 643 
Q 2703 903 2703 1303 
Q 2703 1709 2433 1975 
Q 2163 2241 1756 2241 
Q 1359 2241 1098 1978 
Q 838 1716 838 1322 
z
" transform="scale(0.015625)"/>
       </defs>
       <use xlink:href="#ArialMT-38"/>
      </g>
     </g>
    </g>
    <g id="xtick_8">
     <g id="text_8">
      <!-- 9 -->
      <g style="fill: #262626" transform="translate(426.328233 317.797812) scale(0.1 -0.1)">
       <defs>
        <path id="ArialMT-39" d="M 350 1059 
L 891 1109 
Q 959 728 1153 556 
Q 1347 384 1650 384 
Q 1909 384 2104 503 
Q 2300 622 2425 820 
Q 2550 1019 2634 1356 
Q 2719 1694 2719 2044 
Q 2719 2081 2716 2156 
Q 2547 1888 2255 1720 
Q 1963 1553 1622 1553 
Q 1053 1553 659 1965 
Q 266 2378 266 3053 
Q 266 3750 677 4175 
Q 1088 4600 1706 4600 
Q 2153 4600 2523 4359 
Q 2894 4119 3086 3673 
Q 3278 3228 3278 2384 
Q 3278 1506 3087 986 
Q 2897 466 2520 194 
Q 2144 -78 1638 -78 
Q 1100 -78 759 220 
Q 419 519 350 1059 
z
M 2653 3081 
Q 2653 3566 2395 3850 
Q 2138 4134 1775 4134 
Q 1400 4134 1122 3828 
Q 844 3522 844 3034 
Q 844 2597 1108 2323 
Q 1372 2050 1759 2050 
Q 2150 2050 2401 2323 
Q 2653 2597 2653 3081 
z
" transform="scale(0.015625)"/>
       </defs>
       <use xlink:href="#ArialMT-39"/>
      </g>
     </g>
    </g>
    <g id="text_9">
     <!-- Rating -->
     <g style="fill: #262626" transform="translate(246.492656 330.943125) scale(0.1 -0.1)">
      <defs>
       <path id="ArialMT-52" d="M 503 0 
L 503 4581 
L 2534 4581 
Q 3147 4581 3465 4457 
Q 3784 4334 3975 4021 
Q 4166 3709 4166 3331 
Q 4166 2844 3850 2509 
Q 3534 2175 2875 2084 
Q 3116 1969 3241 1856 
Q 3506 1613 3744 1247 
L 4541 0 
L 3778 0 
L 3172 953 
Q 2906 1366 2734 1584 
Q 2563 1803 2427 1890 
Q 2291 1978 2150 2013 
Q 2047 2034 1813 2034 
L 1109 2034 
L 1109 0 
L 503 0 
z
M 1109 2559 
L 2413 2559 
Q 2828 2559 3062 2645 
Q 3297 2731 3419 2920 
Q 3541 3109 3541 3331 
Q 3541 3656 3305 3865 
Q 3069 4075 2559 4075 
L 1109 4075 
L 1109 2559 
z
" transform="scale(0.015625)"/>
       <path id="ArialMT-61" d="M 2588 409 
Q 2275 144 1986 34 
Q 1697 -75 1366 -75 
Q 819 -75 525 192 
Q 231 459 231 875 
Q 231 1119 342 1320 
Q 453 1522 633 1644 
Q 813 1766 1038 1828 
Q 1203 1872 1538 1913 
Q 2219 1994 2541 2106 
Q 2544 2222 2544 2253 
Q 2544 2597 2384 2738 
Q 2169 2928 1744 2928 
Q 1347 2928 1158 2789 
Q 969 2650 878 2297 
L 328 2372 
Q 403 2725 575 2942 
Q 747 3159 1072 3276 
Q 1397 3394 1825 3394 
Q 2250 3394 2515 3294 
Q 2781 3194 2906 3042 
Q 3031 2891 3081 2659 
Q 3109 2516 3109 2141 
L 3109 1391 
Q 3109 606 3145 398 
Q 3181 191 3288 0 
L 2700 0 
Q 2613 175 2588 409 
z
M 2541 1666 
Q 2234 1541 1622 1453 
Q 1275 1403 1131 1340 
Q 988 1278 909 1158 
Q 831 1038 831 891 
Q 831 666 1001 516 
Q 1172 366 1500 366 
Q 1825 366 2078 508 
Q 2331 650 2450 897 
Q 2541 1088 2541 1459 
L 2541 1666 
z
" transform="scale(0.015625)"/>
       <path id="ArialMT-74" d="M 1650 503 
L 1731 6 
Q 1494 -44 1306 -44 
Q 1000 -44 831 53 
Q 663 150 594 308 
Q 525 466 525 972 
L 525 2881 
L 113 2881 
L 113 3319 
L 525 3319 
L 525 4141 
L 1084 4478 
L 1084 3319 
L 1650 3319 
L 1650 2881 
L 1084 2881 
L 1084 941 
Q 1084 700 1114 631 
Q 1144 563 1211 522 
Q 1278 481 1403 481 
Q 1497 481 1650 503 
z
" transform="scale(0.015625)"/>
       <path id="ArialMT-69" d="M 425 3934 
L 425 4581 
L 988 4581 
L 988 3934 
L 425 3934 
z
M 425 0 
L 425 3319 
L 988 3319 
L 988 0 
L 425 0 
z
" transform="scale(0.015625)"/>
       <path id="ArialMT-6e" d="M 422 0 
L 422 3319 
L 928 3319 
L 928 2847 
Q 1294 3394 1984 3394 
Q 2284 3394 2536 3286 
Q 2788 3178 2913 3003 
Q 3038 2828 3088 2588 
Q 3119 2431 3119 2041 
L 3119 0 
L 2556 0 
L 2556 2019 
Q 2556 2363 2490 2533 
Q 2425 2703 2258 2804 
Q 2091 2906 1866 2906 
Q 1506 2906 1245 2678 
Q 984 2450 984 1813 
L 984 0 
L 422 0 
z
" transform="scale(0.015625)"/>
       <path id="ArialMT-67" d="M 319 -275 
L 866 -356 
Q 900 -609 1056 -725 
Q 1266 -881 1628 -881 
Q 2019 -881 2231 -725 
Q 2444 -569 2519 -288 
Q 2563 -116 2559 434 
Q 2191 0 1641 0 
Q 956 0 581 494 
Q 206 988 206 1678 
Q 206 2153 378 2554 
Q 550 2956 876 3175 
Q 1203 3394 1644 3394 
Q 2231 3394 2613 2919 
L 2613 3319 
L 3131 3319 
L 3131 450 
Q 3131 -325 2973 -648 
Q 2816 -972 2473 -1159 
Q 2131 -1347 1631 -1347 
Q 1038 -1347 672 -1080 
Q 306 -813 319 -275 
z
M 784 1719 
Q 784 1066 1043 766 
Q 1303 466 1694 466 
Q 2081 466 2343 764 
Q 2606 1063 2606 1700 
Q 2606 2309 2336 2618 
Q 2066 2928 1684 2928 
Q 1309 2928 1046 2623 
Q 784 2319 784 1719 
z
" transform="scale(0.015625)"/>
      </defs>
      <use xlink:href="#ArialMT-52"/>
      <use xlink:href="#ArialMT-61" x="72.216797"/>
      <use xlink:href="#ArialMT-74" x="127.832031"/>
      <use xlink:href="#ArialMT-69" x="155.615234"/>
      <use xlink:href="#ArialMT-6e" x="177.832031"/>
      <use xlink:href="#ArialMT-67" x="233.447266"/>
     </g>
    </g>
   </g>
   <g id="matplotlib.axis_2">
    <g id="ytick_1">
     <g id="text_10">
      <!-- Competitive -->
      <g style="fill: #262626" transform="translate(12.094687 98.672031) scale(0.1 -0.1)">
       <defs>
        <path id="ArialMT-43" d="M 3763 1606 
L 4369 1453 
Q 4178 706 3683 314 
Q 3188 -78 2472 -78 
Q 1731 -78 1267 223 
Q 803 525 561 1097 
Q 319 1669 319 2325 
Q 319 3041 592 3573 
Q 866 4106 1370 4382 
Q 1875 4659 2481 4659 
Q 3169 4659 3637 4309 
Q 4106 3959 4291 3325 
L 3694 3184 
Q 3534 3684 3231 3912 
Q 2928 4141 2469 4141 
Q 1941 4141 1586 3887 
Q 1231 3634 1087 3207 
Q 944 2781 944 2328 
Q 944 1744 1114 1308 
Q 1284 872 1643 656 
Q 2003 441 2422 441 
Q 2931 441 3284 734 
Q 3638 1028 3763 1606 
z
" transform="scale(0.015625)"/>
        <path id="ArialMT-6f" d="M 213 1659 
Q 213 2581 725 3025 
Q 1153 3394 1769 3394 
Q 2453 3394 2887 2945 
Q 3322 2497 3322 1706 
Q 3322 1066 3130 698 
Q 2938 331 2570 128 
Q 2203 -75 1769 -75 
Q 1072 -75 642 372 
Q 213 819 213 1659 
z
M 791 1659 
Q 791 1022 1069 705 
Q 1347 388 1769 388 
Q 2188 388 2466 706 
Q 2744 1025 2744 1678 
Q 2744 2294 2464 2611 
Q 2184 2928 1769 2928 
Q 1347 2928 1069 2612 
Q 791 2297 791 1659 
z
" transform="scale(0.015625)"/>
        <path id="ArialMT-6d" d="M 422 0 
L 422 3319 
L 925 3319 
L 925 2853 
Q 1081 3097 1340 3245 
Q 1600 3394 1931 3394 
Q 2300 3394 2536 3241 
Q 2772 3088 2869 2813 
Q 3263 3394 3894 3394 
Q 4388 3394 4653 3120 
Q 4919 2847 4919 2278 
L 4919 0 
L 4359 0 
L 4359 2091 
Q 4359 2428 4304 2576 
Q 4250 2725 4106 2815 
Q 3963 2906 3769 2906 
Q 3419 2906 3187 2673 
Q 2956 2441 2956 1928 
L 2956 0 
L 2394 0 
L 2394 2156 
Q 2394 2531 2256 2718 
Q 2119 2906 1806 2906 
Q 1569 2906 1367 2781 
Q 1166 2656 1075 2415 
Q 984 2175 984 1722 
L 984 0 
L 422 0 
z
" transform="scale(0.015625)"/>
        <path id="ArialMT-70" d="M 422 -1272 
L 422 3319 
L 934 3319 
L 934 2888 
Q 1116 3141 1344 3267 
Q 1572 3394 1897 3394 
Q 2322 3394 2647 3175 
Q 2972 2956 3137 2557 
Q 3303 2159 3303 1684 
Q 3303 1175 3120 767 
Q 2938 359 2589 142 
Q 2241 -75 1856 -75 
Q 1575 -75 1351 44 
Q 1128 163 984 344 
L 984 -1272 
L 422 -1272 
z
M 931 1641 
Q 931 1000 1190 694 
Q 1450 388 1819 388 
Q 2194 388 2461 705 
Q 2728 1022 2728 1688 
Q 2728 2322 2467 2637 
Q 2206 2953 1844 2953 
Q 1484 2953 1207 2617 
Q 931 2281 931 1641 
z
" transform="scale(0.015625)"/>
        <path id="ArialMT-65" d="M 2694 1069 
L 3275 997 
Q 3138 488 2766 206 
Q 2394 -75 1816 -75 
Q 1088 -75 661 373 
Q 234 822 234 1631 
Q 234 2469 665 2931 
Q 1097 3394 1784 3394 
Q 2450 3394 2872 2941 
Q 3294 2488 3294 1666 
Q 3294 1616 3291 1516 
L 816 1516 
Q 847 969 1125 678 
Q 1403 388 1819 388 
Q 2128 388 2347 550 
Q 2566 713 2694 1069 
z
M 847 1978 
L 2700 1978 
Q 2663 2397 2488 2606 
Q 2219 2931 1791 2931 
Q 1403 2931 1139 2672 
Q 875 2413 847 1978 
z
" transform="scale(0.015625)"/>
        <path id="ArialMT-76" d="M 1344 0 
L 81 3319 
L 675 3319 
L 1388 1331 
Q 1503 1009 1600 663 
Q 1675 925 1809 1294 
L 2547 3319 
L 3125 3319 
L 1869 0 
L 1344 0 
z
" transform="scale(0.015625)"/>
       </defs>
       <use xlink:href="#ArialMT-43"/>
       <use xlink:href="#ArialMT-6f" x="72.216797"/>
       <use xlink:href="#ArialMT-6d" x="127.832031"/>
       <use xlink:href="#ArialMT-70" x="211.132812"/>
       <use xlink:href="#ArialMT-65" x="266.748047"/>
       <use xlink:href="#ArialMT-74" x="322.363281"/>
       <use xlink:href="#ArialMT-69" x="350.146484"/>
       <use xlink:href="#ArialMT-74" x="372.363281"/>
       <use xlink:href="#ArialMT-69" x="400.146484"/>
       <use xlink:href="#ArialMT-76" x="422.363281"/>
       <use xlink:href="#ArialMT-65" x="472.363281"/>
      </g>
     </g>
    </g>
    <g id="ytick_2">
     <g id="text_11">
      <!-- Cooperative -->
      <g style="fill: #262626" transform="translate(10.972812 237.743906) scale(0.1 -0.1)">
       <defs>
        <path id="ArialMT-72" d="M 416 0 
L 416 3319 
L 922 3319 
L 922 2816 
Q 1116 3169 1280 3281 
Q 1444 3394 1641 3394 
Q 1925 3394 2219 3213 
L 2025 2691 
Q 1819 2813 1613 2813 
Q 1428 2813 1281 2702 
Q 1134 2591 1072 2394 
Q 978 2094 978 1738 
L 978 0 
L 416 0 
z
" transform="scale(0.015625)"/>
       </defs>
       <use xlink:href="#ArialMT-43"/>
       <use xlink:href="#ArialMT-6f" x="72.216797"/>
       <use xlink:href="#ArialMT-6f" x="127.832031"/>
       <use xlink:href="#ArialMT-70" x="183.447266"/>
       <use xlink:href="#ArialMT-65" x="239.0625"/>
       <use xlink:href="#ArialMT-72" x="294.677734"/>
       <use xlink:href="#ArialMT-61" x="327.978516"/>
       <use xlink:href="#ArialMT-74" x="383.59375"/>
       <use xlink:href="#ArialMT-69" x="411.376953"/>
       <use xlink:href="#ArialMT-76" x="433.59375"/>
       <use xlink:href="#ArialMT-65" x="483.59375"/>
      </g>
     </g>
    </g>
   </g>
   <g id="PolyCollection_1">
    <defs>
     <path id="m95c4c82516" d="M 55.510324 -250.5649 
L 55.510324 -250.570725 
L 59.609736 -250.578952 
L 63.709148 -250.595271 
L 67.80856 -250.612019 
L 71.907972 -250.614608 
L 76.007384 -250.602069 
L 80.106797 -250.590666 
L 84.206209 -250.588516 
L 88.305621 -250.588967 
L 92.405033 -250.589371 
L 96.504445 -250.59212 
L 100.603857 -250.597426 
L 104.70327 -250.6068 
L 108.802682 -250.615922 
L 112.902094 -250.613613 
L 117.001506 -250.603056 
L 121.100918 -250.60294 
L 125.200331 -250.619786 
L 129.299743 -250.644603 
L 133.399155 -250.675683 
L 137.498567 -250.715934 
L 141.597979 -250.751326 
L 145.697391 -250.756529 
L 149.796804 -250.729635 
L 153.896216 -250.70462 
L 157.995628 -250.728061 
L 162.09504 -250.831432 
L 166.194452 -250.998363 
L 170.293864 -251.165092 
L 174.393277 -251.286209 
L 178.492689 -251.388805 
L 182.592101 -251.526026 
L 186.691513 -251.693358 
L 190.790925 -251.873009 
L 194.890338 -252.126625 
L 198.98975 -252.519697 
L 203.089162 -253.0118 
L 207.188574 -253.53404 
L 211.287986 -254.120356 
L 215.387398 -254.857337 
L 219.486811 -255.744407 
L 223.586223 -256.707429 
L 227.685635 -257.695846 
L 231.785047 -258.691007 
L 235.884459 -259.753058 
L 239.983871 -261.061952 
L 244.083284 -262.751337 
L 248.182696 -264.761554 
L 252.282108 -266.992214 
L 256.38152 -269.625713 
L 260.480932 -272.933108 
L 264.580345 -276.604121 
L 268.679757 -280.003938 
L 272.779169 -282.987141 
L 276.878581 -285.641226 
L 280.977993 -287.967622 
L 285.077405 -290.305702 
L 289.176818 -293.076047 
L 293.27623 -296.126857 
L 297.375642 -298.926913 
L 301.475054 -301.068061 
L 305.574466 -302.369932 
L 309.673878 -302.863492 
L 313.773291 -302.669723 
L 317.872703 -301.78088 
L 321.972115 -300.225536 
L 326.071527 -298.193963 
L 330.170939 -295.98317 
L 334.270352 -293.829242 
L 338.369764 -291.567279 
L 342.469176 -288.896442 
L 346.568588 -285.797554 
L 350.668 -282.469106 
L 354.767412 -279.208621 
L 358.866825 -276.170017 
L 362.966237 -273.210155 
L 367.065649 -270.222927 
L 371.165061 -267.390754 
L 375.264473 -264.865957 
L 379.363885 -262.578269 
L 383.463298 -260.567053 
L 387.56271 -258.977602 
L 391.662122 -257.689322 
L 395.761534 -256.439765 
L 399.860946 -255.204399 
L 403.960359 -254.139425 
L 408.059771 -253.332365 
L 412.159183 -252.735932 
L 416.258595 -252.253718 
L 420.358007 -251.840112 
L 424.457419 -251.493335 
L 428.556832 -251.223316 
L 432.656244 -251.046416 
L 436.755656 -250.943339 
L 440.855068 -250.851368 
L 444.95448 -250.744738 
L 449.053892 -250.654476 
L 453.153305 -250.602226 
L 457.252717 -250.579 
L 461.352129 -250.570552 
L 461.352129 -250.565073 
L 461.352129 -250.565073 
L 457.252717 -250.556625 
L 453.153305 -250.533399 
L 449.053892 -250.481149 
L 444.95448 -250.390887 
L 440.855068 -250.284257 
L 436.755656 -250.192286 
L 432.656244 -250.089209 
L 428.556832 -249.912309 
L 424.457419 -249.64229 
L 420.358007 -249.295513 
L 416.258595 -248.881907 
L 412.159183 -248.399693 
L 408.059771 -247.80326 
L 403.960359 -246.9962 
L 399.860946 -245.931226 
L 395.761534 -244.69586 
L 391.662122 -243.446303 
L 387.56271 -242.158023 
L 383.463298 -240.568572 
L 379.363885 -238.557356 
L 375.264473 -236.269668 
L 371.165061 -233.744871 
L 367.065649 -230.912698 
L 362.966237 -227.92547 
L 358.866825 -224.965608 
L 354.767412 -221.927004 
L 350.668 -218.666519 
L 346.568588 -215.338071 
L 342.469176 -212.239183 
L 338.369764 -209.568346 
L 334.270352 -207.306383 
L 330.170939 -205.152455 
L 326.071527 -202.941662 
L 321.972115 -200.910089 
L 317.872703 -199.354745 
L 313.773291 -198.465902 
L 309.673878 -198.272133 
L 305.574466 -198.765693 
L 301.475054 -200.067564 
L 297.375642 -202.208712 
L 293.27623 -205.008768 
L 289.176818 -208.059578 
L 285.077405 -210.829923 
L 280.977993 -213.168003 
L 276.878581 -215.494399 
L 272.779169 -218.148484 
L 268.679757 -221.131687 
L 264.580345 -224.531504 
L 260.480932 -228.202517 
L 256.38152 -231.509912 
L 252.282108 -234.143411 
L 248.182696 -236.374071 
L 244.083284 -238.384288 
L 239.983871 -240.073673 
L 235.884459 -241.382567 
L 231.785047 -242.444618 
L 227.685635 -243.439779 
L 223.586223 -244.428196 
L 219.486811 -245.391218 
L 215.387398 -246.278288 
L 211.287986 -247.015269 
L 207.188574 -247.601585 
L 203.089162 -248.123825 
L 198.98975 -248.615928 
L 194.890338 -249.009 
L 190.790925 -249.262616 
L 186.691513 -249.442267 
L 182.592101 -249.609599 
L 178.492689 -249.74682 
L 174.393277 -249.849416 
L 170.293864 -249.970533 
L 166.194452 -250.137262 
L 162.09504 -250.304193 
L 157.995628 -250.407564 
L 153.896216 -250.431005 
L 149.796804 -250.40599 
L 145.697391 -250.379096 
L 141.597979 -250.384299 
L 137.498567 -250.419691 
L 133.399155 -250.459942 
L 129.299743 -250.491022 
L 125.200331 -250.515839 
L 121.100918 -250.532685 
L 117.001506 -250.532569 
L 112.902094 -250.522012 
L 108.802682 -250.519703 
L 104.70327 -250.528825 
L 100.603857 -250.538199 
L 96.504445 -250.543505 
L 92.405033 -250.546254 
L 88.305621 -250.546658 
L 84.206209 -250.547109 
L 80.106797 -250.544959 
L 76.007384 -250.533556 
L 71.907972 -250.521017 
L 67.80856 -250.523606 
L 63.709148 -250.540354 
L 59.609736 -250.556673 
L 55.510324 -250.5649 
z
" style="stroke: #262626; stroke-width: 1.25"/>
    </defs>
    <g clip-path="url(#p948d80198e)">
     <use xlink:href="#m95c4c82516" x="0" y="345.6" style="fill: #701070; stroke: #262626; stroke-width: 1.25"/>
    </g>
   </g>
   <g id="PolyCollection_2">
    <defs>
     <path id="m5df396290e" d="M 130.839069 -111.478759 
L 130.839069 -111.513116 
L 134.29878 -111.532645 
L 137.758491 -111.564397 
L 141.218202 -111.608427 
L 144.677913 -111.660663 
L 148.137624 -111.713435 
L 151.597336 -111.757333 
L 155.057047 -111.783421 
L 158.516758 -111.786046 
L 161.976469 -111.766353 
L 165.43618 -111.734123 
L 168.895891 -111.704792 
L 172.355602 -111.692911 
L 175.815313 -111.707996 
L 179.275024 -111.756457 
L 182.734735 -111.845594 
L 186.194446 -111.982518 
L 189.654157 -112.167308 
L 193.113868 -112.3876 
L 196.573579 -112.620773 
L 200.03329 -112.841882 
L 203.493001 -113.0312 
L 206.952712 -113.177913 
L 210.412423 -113.280084 
L 213.872134 -113.342481 
L 217.331845 -113.375818 
L 220.791556 -113.40078 
L 224.251267 -113.453106 
L 227.710978 -113.579063 
L 231.170689 -113.817758 
L 234.6304 -114.184892 
L 238.090111 -114.678107 
L 241.549822 -115.302068 
L 245.009533 -116.083015 
L 248.469244 -117.04604 
L 251.928955 -118.169837 
L 255.388666 -119.369493 
L 258.848377 -120.540545 
L 262.308088 -121.635966 
L 265.767799 -122.70704 
L 269.22751 -123.869511 
L 272.687221 -125.229105 
L 276.146932 -126.836063 
L 279.606643 -128.700085 
L 283.066354 -130.833274 
L 286.526065 -133.270478 
L 289.985776 -136.055237 
L 293.445487 -139.220985 
L 296.905198 -142.788401 
L 300.364909 -146.754577 
L 303.82462 -151.037616 
L 307.284331 -155.398724 
L 310.744042 -159.431163 
L 314.203753 -162.684674 
L 317.663464 -164.880482 
L 321.123175 -166.07046 
L 324.582886 -166.604326 
L 328.042597 -166.894375 
L 331.502308 -167.124687 
L 334.962019 -167.122563 
L 338.42173 -166.512372 
L 341.881441 -165.047441 
L 345.341152 -162.845392 
L 348.800863 -160.316057 
L 352.260574 -157.843782 
L 355.720285 -155.514004 
L 359.179996 -153.122216 
L 362.639707 -150.423517 
L 366.099418 -147.368179 
L 369.559129 -144.128961 
L 373.01884 -140.953362 
L 376.478551 -138.010007 
L 379.938262 -135.343432 
L 383.397973 -132.924798 
L 386.857684 -130.723641 
L 390.317395 -128.742033 
L 393.777106 -126.996771 
L 397.236817 -125.474298 
L 400.696528 -124.101916 
L 404.156239 -122.7657 
L 407.61595 -121.367294 
L 411.075661 -119.879496 
L 414.535372 -118.361569 
L 417.995083 -116.925903 
L 421.454794 -115.680121 
L 424.914505 -114.679781 
L 428.374216 -113.915324 
L 431.833927 -113.334604 
L 435.293638 -112.881998 
L 438.753349 -112.526588 
L 442.21306 -112.262345 
L 445.672772 -112.086743 
L 449.132483 -111.981247 
L 452.592194 -111.911671 
L 456.051905 -111.845464 
L 459.511616 -111.768179 
L 462.971327 -111.685375 
L 466.431038 -111.611483 
L 469.890749 -111.557127 
L 473.35046 -111.523933 
L 473.35046 -111.467942 
L 473.35046 -111.467942 
L 469.890749 -111.434748 
L 466.431038 -111.380392 
L 462.971327 -111.3065 
L 459.511616 -111.223696 
L 456.051905 -111.146411 
L 452.592194 -111.080204 
L 449.132483 -111.010628 
L 445.672772 -110.905132 
L 442.21306 -110.72953 
L 438.753349 -110.465287 
L 435.293638 -110.109877 
L 431.833927 -109.657271 
L 428.374216 -109.076551 
L 424.914505 -108.312094 
L 421.454794 -107.311754 
L 417.995083 -106.065972 
L 414.535372 -104.630306 
L 411.075661 -103.112379 
L 407.61595 -101.624581 
L 404.156239 -100.226175 
L 400.696528 -98.889959 
L 397.236817 -97.517577 
L 393.777106 -95.995104 
L 390.317395 -94.249842 
L 386.857684 -92.268234 
L 383.397973 -90.067077 
L 379.938262 -87.648443 
L 376.478551 -84.981868 
L 373.01884 -82.038513 
L 369.559129 -78.862914 
L 366.099418 -75.623696 
L 362.639707 -72.568358 
L 359.179996 -69.869659 
L 355.720285 -67.477871 
L 352.260574 -65.148093 
L 348.800863 -62.675818 
L 345.341152 -60.146483 
L 341.881441 -57.944434 
L 338.42173 -56.479503 
L 334.962019 -55.869312 
L 331.502308 -55.867188 
L 328.042597 -56.0975 
L 324.582886 -56.387549 
L 321.123175 -56.921415 
L 317.663464 -58.111393 
L 314.203753 -60.307201 
L 310.744042 -63.560712 
L 307.284331 -67.593151 
L 303.82462 -71.954259 
L 300.364909 -76.237298 
L 296.905198 -80.203474 
L 293.445487 -83.77089 
L 289.985776 -86.936638 
L 286.526065 -89.721397 
L 283.066354 -92.158601 
L 279.606643 -94.29179 
L 276.146932 -96.155812 
L 272.687221 -97.76277 
L 269.22751 -99.122364 
L 265.767799 -100.284835 
L 262.308088 -101.355909 
L 258.848377 -102.45133 
L 255.388666 -103.622382 
L 251.928955 -104.822038 
L 248.469244 -105.945835 
L 245.009533 -106.90886 
L 241.549822 -107.689807 
L 238.090111 -108.313768 
L 234.6304 -108.806983 
L 231.170689 -109.174117 
L 227.710978 -109.412812 
L 224.251267 -109.538769 
L 220.791556 -109.591095 
L 217.331845 -109.616057 
L 213.872134 -109.649394 
L 210.412423 -109.711791 
L 206.952712 -109.813962 
L 203.493001 -109.960675 
L 200.03329 -110.149993 
L 196.573579 -110.371102 
L 193.113868 -110.604275 
L 189.654157 -110.824567 
L 186.194446 -111.009357 
L 182.734735 -111.146281 
L 179.275024 -111.235418 
L 175.815313 -111.283879 
L 172.355602 -111.298964 
L 168.895891 -111.287083 
L 165.43618 -111.257752 
L 161.976469 -111.225522 
L 158.516758 -111.205829 
L 155.057047 -111.208454 
L 151.597336 -111.234542 
L 148.137624 -111.27844 
L 144.677913 -111.331212 
L 141.218202 -111.383448 
L 137.758491 -111.427478 
L 134.29878 -111.45923 
L 130.839069 -111.478759 
z
" style="stroke: #262626; stroke-width: 1.25"/>
    </defs>
    <g clip-path="url(#p948d80198e)">
     <use xlink:href="#m5df396290e" x="0" y="345.6" style="fill: #701070; stroke: #262626; stroke-width: 1.25"/>
    </g>
   </g>
   <g id="line2d_1">
    <path d="M 201.665301 95.032187 
L 419.745565 95.032187 
" clip-path="url(#p948d80198e)" style="fill: none; stroke: #262626; stroke-width: 1.875; stroke-linecap: round"/>
   </g>
   <g id="line2d_2">
    <path d="M 283.436508 95.032187 
L 338.000918 95.032187 
" clip-path="url(#p948d80198e)" style="fill: none; stroke: #262626; stroke-width: 5.625; stroke-linecap: round"/>
   </g>
   <g id="line2d_3">
    <path d="M 310.884889 95.032187 
" clip-path="url(#p948d80198e)" style="fill: none; stroke: #262626; stroke-width: 1.5; stroke-linecap: round"/>
    <defs>
     <path id="m7383e95e06" d="M 0 2.34375 
L 0 -2.34375 
" style="stroke: #ffffff; stroke-width: 1.125"/>
    </defs>
    <g clip-path="url(#p948d80198e)">
     <use xlink:href="#m7383e95e06" x="310.884889" y="95.032187" style="fill: #ffffff; stroke: #ffffff; stroke-width: 1.125"/>
    </g>
   </g>
   <g id="line2d_4">
    <path d="M 237.690514 234.104062 
L 430.081045 234.104062 
" clip-path="url(#p948d80198e)" style="fill: none; stroke: #262626; stroke-width: 1.875; stroke-linecap: round"/>
   </g>
   <g id="line2d_5">
    <path d="M 309.346923 234.104062 
L 357.846774 234.104062 
" clip-path="url(#p948d80198e)" style="fill: none; stroke: #262626; stroke-width: 5.625; stroke-linecap: round"/>
   </g>
   <g id="line2d_6">
    <path d="M 332.864704 234.104062 
" clip-path="url(#p948d80198e)" style="fill: none; stroke: #262626; stroke-width: 1.5; stroke-linecap: round"/>
    <g clip-path="url(#p948d80198e)">
     <use xlink:href="#m7383e95e06" x="332.864704" y="234.104062" style="fill: #ffffff; stroke: #ffffff; stroke-width: 1.125"/>
    </g>
   </g>
   <g id="patch_3">
    <path d="M 71.89 303.64 
L 71.89 25.49625 
" style="fill: none; stroke: #ffffff; stroke-width: 0.8; stroke-linejoin: miter; stroke-linecap: square"/>
   </g>
   <g id="patch_4">
    <path d="M 450 303.64 
L 450 25.49625 
" style="fill: none; stroke: #ffffff; stroke-width: 0.8; stroke-linejoin: miter; stroke-linecap: square"/>
   </g>
   <g id="patch_5">
    <path d="M 71.89 303.64 
L 450 303.64 
" style="fill: none; stroke: #ffffff; stroke-width: 0.8; stroke-linejoin: miter; stroke-linecap: square"/>
   </g>
   <g id="patch_6">
    <path d="M 71.89 25.49625 
L 450 25.49625 
" style="fill: none; stroke: #ffffff; stroke-width: 0.8; stroke-linejoin: miter; stroke-linecap: square"/>
   </g>
   <g id="text_12">
    <!-- Competitive/Cooperative vs Rating -->
    <g style="fill: #262626" transform="translate(168.574062 19.49625) scale(0.12 -0.12)">
     <defs>
      <path id="ArialMT-2f" d="M 0 -78 
L 1328 4659 
L 1778 4659 
L 453 -78 
L 0 -78 
z
" transform="scale(0.015625)"/>
      <path id="ArialMT-20" transform="scale(0.015625)"/>
      <path id="ArialMT-73" d="M 197 991 
L 753 1078 
Q 800 744 1014 566 
Q 1228 388 1613 388 
Q 2000 388 2187 545 
Q 2375 703 2375 916 
Q 2375 1106 2209 1216 
Q 2094 1291 1634 1406 
Q 1016 1563 777 1677 
Q 538 1791 414 1992 
Q 291 2194 291 2438 
Q 291 2659 392 2848 
Q 494 3038 669 3163 
Q 800 3259 1026 3326 
Q 1253 3394 1513 3394 
Q 1903 3394 2198 3281 
Q 2494 3169 2634 2976 
Q 2775 2784 2828 2463 
L 2278 2388 
Q 2241 2644 2061 2787 
Q 1881 2931 1553 2931 
Q 1166 2931 1000 2803 
Q 834 2675 834 2503 
Q 834 2394 903 2306 
Q 972 2216 1119 2156 
Q 1203 2125 1616 2013 
Q 2213 1853 2448 1751 
Q 2684 1650 2818 1456 
Q 2953 1263 2953 975 
Q 2953 694 2789 445 
Q 2625 197 2315 61 
Q 2006 -75 1616 -75 
Q 969 -75 630 194 
Q 291 463 197 991 
z
" transform="scale(0.015625)"/>
     </defs>
     <use xlink:href="#ArialMT-43"/>
     <use xlink:href="#ArialMT-6f" x="72.216797"/>
     <use xlink:href="#ArialMT-6d" x="127.832031"/>
     <use xlink:href="#ArialMT-70" x="211.132812"/>
     <use xlink:href="#ArialMT-65" x="266.748047"/>
     <use xlink:href="#ArialMT-74" x="322.363281"/>
     <use xlink:href="#ArialMT-69" x="350.146484"/>
     <use xlink:href="#ArialMT-74" x="372.363281"/>
     <use xlink:href="#ArialMT-69" x="400.146484"/>
     <use xlink:href="#ArialMT-76" x="422.363281"/>
     <use xlink:href="#ArialMT-65" x="472.363281"/>
     <use xlink:href="#ArialMT-2f" x="527.978516"/>
     <use xlink:href="#ArialMT-43" x="555.761719"/>
     <use xlink:href="#ArialMT-6f" x="627.978516"/>
     <use xlink:href="#ArialMT-6f" x="683.59375"/>
     <use xlink:href="#ArialMT-70" x="739.208984"/>
     <use xlink:href="#ArialMT-65" x="794.824219"/>
     <use xlink:href="#ArialMT-72" x="850.439453"/>
     <use xlink:href="#ArialMT-61" x="883.740234"/>
     <use xlink:href="#ArialMT-74" x="939.355469"/>
     <use xlink:href="#ArialMT-69" x="967.138672"/>
     <use xlink:href="#ArialMT-76" x="989.355469"/>
     <use xlink:href="#ArialMT-65" x="1039.355469"/>
     <use xlink:href="#ArialMT-20" x="1094.970703"/>
     <use xlink:href="#ArialMT-76" x="1122.753906"/>
     <use xlink:href="#ArialMT-73" x="1172.753906"/>
     <use xlink:href="#ArialMT-20" x="1222.753906"/>
     <use xlink:href="#ArialMT-52" x="1250.537109"/>
     <use xlink:href="#ArialMT-61" x="1322.753906"/>
     <use xlink:href="#ArialMT-74" x="1378.369141"/>
     <use xlink:href="#ArialMT-69" x="1406.152344"/>
     <use xlink:href="#ArialMT-6e" x="1428.369141"/>
     <use xlink:href="#ArialMT-67" x="1483.984375"/>
    </g>
   </g>
  </g>
 </g>
 <defs>
  <clipPath id="p948d80198e">
   <rect x="71.89" y="25.49625" width="378.11" height="278.14375"/>
  </clipPath>
 </defs>
</svg>
