<?xml version="1.0" encoding="utf-8" standalone="no"?>
<!DOCTYPE svg PUBLIC "-//W3C//DTD SVG 1.1//EN"
  "http://www.w3.org/Graphics/SVG/1.1/DTD/svg11.dtd">
<svg xmlns:xlink="http://www.w3.org/1999/xlink" width="460.8pt" height="345.6pt" viewBox="0 0 460.8 345.6" xmlns="http://www.w3.org/2000/svg" version="1.1">
 <metadata>
  <rdf:RDF xmlns:dc="http://purl.org/dc/elements/1.1/" xmlns:cc="http://creativecommons.org/ns#" xmlns:rdf="http://www.w3.org/1999/02/22-rdf-syntax-ns#">
   <cc:Work>
    <dc:type rdf:resource="http://purl.org/dc/dcmitype/StillImage"/>
    <dc:date>2024-09-04T21:36:43.479605</dc:date>
    <dc:format>image/svg+xml</dc:format>
    <dc:creator>
     <cc:Agent>
      <dc:title>Matplotlib v3.9.2, https://matplotlib.org/</dc:title>
     </cc:Agent>
    </dc:creator>
   </cc:Work>
  </rdf:RDF>
 </metadata>
 <defs>
  <style type="text/css">*{stroke-linejoin: round; stroke-linecap: butt}</style>
 </defs>
 <g id="figure_1">
  <g id="patch_1">
   <path d="M 0 345.6 
L 460.8 345.6 
L 460.8 0 
L 0 0 
z
" style="fill: #ffffff"/>
  </g>
  <g id="axes_1">
   <g id="patch_2">
    <path d="M 85.97 303.64 
L 450 303.64 
L 450 25.49625 
L 85.97 25.49625 
z
" style="fill: #eaeaf2"/>
   </g>
   <g id="matplotlib.axis_1">
    <g id="xtick_1">
     <g id="text_1">
      <!-- 5 -->
      <g style="fill: #262626" transform="translate(131.050533 317.797812) scale(0.1 -0.1)">
       <defs>
        <path id="ArialMT-35" d="M 266 1200 
L 856 1250 
Q 922 819 1161 601 
Q 1400 384 1738 384 
Q 2144 384 2425 690 
Q 2706 997 2706 1503 
Q 2706 1984 2436 2262 
Q 2166 2541 1728 2541 
Q 1456 2541 1237 2417 
Q 1019 2294 894 2097 
L 366 2166 
L 809 4519 
L 3088 4519 
L 3088 3981 
L 1259 3981 
L 1013 2750 
Q 1425 3038 1878 3038 
Q 2478 3038 2890 2622 
Q 3303 2206 3303 1553 
Q 3303 931 2941 478 
Q 2500 -78 1738 -78 
Q 1113 -78 717 272 
Q 322 622 266 1200 
z
" transform="scale(0.015625)"/>
       </defs>
       <use xlink:href="#ArialMT-35"/>
      </g>
     </g>
    </g>
    <g id="xtick_2">
     <g id="text_2">
      <!-- 6 -->
      <g style="fill: #262626" transform="translate(199.695625 317.797812) scale(0.1 -0.1)">
       <defs>
        <path id="ArialMT-36" d="M 3184 3459 
L 2625 3416 
Q 2550 3747 2413 3897 
Q 2184 4138 1850 4138 
Q 1581 4138 1378 3988 
Q 1113 3794 959 3422 
Q 806 3050 800 2363 
Q 1003 2672 1297 2822 
Q 1591 2972 1913 2972 
Q 2475 2972 2870 2558 
Q 3266 2144 3266 1488 
Q 3266 1056 3080 686 
Q 2894 316 2569 119 
Q 2244 -78 1831 -78 
Q 1128 -78 684 439 
Q 241 956 241 2144 
Q 241 3472 731 4075 
Q 1159 4600 1884 4600 
Q 2425 4600 2770 4297 
Q 3116 3994 3184 3459 
z
M 888 1484 
Q 888 1194 1011 928 
Q 1134 663 1356 523 
Q 1578 384 1822 384 
Q 2178 384 2434 671 
Q 2691 959 2691 1453 
Q 2691 1928 2437 2201 
Q 2184 2475 1800 2475 
Q 1419 2475 1153 2201 
Q 888 1928 888 1484 
z
" transform="scale(0.015625)"/>
       </defs>
       <use xlink:href="#ArialMT-36"/>
      </g>
     </g>
    </g>
    <g id="xtick_3">
     <g id="text_3">
      <!-- 7 -->
      <g style="fill: #262626" transform="translate(268.340718 317.797812) scale(0.1 -0.1)">
       <defs>
        <path id="ArialMT-37" d="M 303 3981 
L 303 4522 
L 3269 4522 
L 3269 4084 
Q 2831 3619 2401 2847 
Q 1972 2075 1738 1259 
Q 1569 684 1522 0 
L 944 0 
Q 953 541 1156 1306 
Q 1359 2072 1739 2783 
Q 2119 3494 2547 3981 
L 303 3981 
z
" transform="scale(0.015625)"/>
       </defs>
       <use xlink:href="#ArialMT-37"/>
      </g>
     </g>
    </g>
    <g id="xtick_4">
     <g id="text_4">
      <!-- 8 -->
      <g style="fill: #262626" transform="translate(336.985811 317.797812) scale(0.1 -0.1)">
       <defs>
        <path id="ArialMT-38" d="M 1131 2484 
Q 781 2613 612 2850 
Q 444 3088 444 3419 
Q 444 3919 803 4259 
Q 1163 4600 1759 4600 
Q 2359 4600 2725 4251 
Q 3091 3903 3091 3403 
Q 3091 3084 2923 2848 
Q 2756 2613 2416 2484 
Q 2838 2347 3058 2040 
Q 3278 1734 3278 1309 
Q 3278 722 2862 322 
Q 2447 -78 1769 -78 
Q 1091 -78 675 323 
Q 259 725 259 1325 
Q 259 1772 486 2073 
Q 713 2375 1131 2484 
z
M 1019 3438 
Q 1019 3113 1228 2906 
Q 1438 2700 1772 2700 
Q 2097 2700 2305 2904 
Q 2513 3109 2513 3406 
Q 2513 3716 2298 3927 
Q 2084 4138 1766 4138 
Q 1444 4138 1231 3931 
Q 1019 3725 1019 3438 
z
M 838 1322 
Q 838 1081 952 856 
Q 1066 631 1291 507 
Q 1516 384 1775 384 
Q 2178 384 2440 643 
Q 2703 903 2703 1303 
Q 2703 1709 2433 1975 
Q 2163 2241 1756 2241 
Q 1359 2241 1098 1978 
Q 838 1716 838 1322 
z
" transform="scale(0.015625)"/>
       </defs>
       <use xlink:href="#ArialMT-38"/>
      </g>
     </g>
    </g>
    <g id="xtick_5">
     <g id="text_5">
      <!-- 9 -->
      <g style="fill: #262626" transform="translate(405.630904 317.797812) scale(0.1 -0.1)">
       <defs>
        <path id="ArialMT-39" d="M 350 1059 
L 891 1109 
Q 959 728 1153 556 
Q 1347 384 1650 384 
Q 1909 384 2104 503 
Q 2300 622 2425 820 
Q 2550 1019 2634 1356 
Q 2719 1694 2719 2044 
Q 2719 2081 2716 2156 
Q 2547 1888 2255 1720 
Q 1963 1553 1622 1553 
Q 1053 1553 659 1965 
Q 266 2378 266 3053 
Q 266 3750 677 4175 
Q 1088 4600 1706 4600 
Q 2153 4600 2523 4359 
Q 2894 4119 3086 3673 
Q 3278 3228 3278 2384 
Q 3278 1506 3087 986 
Q 2897 466 2520 194 
Q 2144 -78 1638 -78 
Q 1100 -78 759 220 
Q 419 519 350 1059 
z
M 2653 3081 
Q 2653 3566 2395 3850 
Q 2138 4134 1775 4134 
Q 1400 4134 1122 3828 
Q 844 3522 844 3034 
Q 844 2597 1108 2323 
Q 1372 2050 1759 2050 
Q 2150 2050 2401 2323 
Q 2653 2597 2653 3081 
z
" transform="scale(0.015625)"/>
       </defs>
       <use xlink:href="#ArialMT-39"/>
      </g>
     </g>
    </g>
    <g id="text_6">
     <!-- Rating -->
     <g style="fill: #262626" transform="translate(253.532656 330.943125) scale(0.1 -0.1)">
      <defs>
       <path id="ArialMT-52" d="M 503 0 
L 503 4581 
L 2534 4581 
Q 3147 4581 3465 4457 
Q 3784 4334 3975 4021 
Q 4166 3709 4166 3331 
Q 4166 2844 3850 2509 
Q 3534 2175 2875 2084 
Q 3116 1969 3241 1856 
Q 3506 1613 3744 1247 
L 4541 0 
L 3778 0 
L 3172 953 
Q 2906 1366 2734 1584 
Q 2563 1803 2427 1890 
Q 2291 1978 2150 2013 
Q 2047 2034 1813 2034 
L 1109 2034 
L 1109 0 
L 503 0 
z
M 1109 2559 
L 2413 2559 
Q 2828 2559 3062 2645 
Q 3297 2731 3419 2920 
Q 3541 3109 3541 3331 
Q 3541 3656 3305 3865 
Q 3069 4075 2559 4075 
L 1109 4075 
L 1109 2559 
z
" transform="scale(0.015625)"/>
       <path id="ArialMT-61" d="M 2588 409 
Q 2275 144 1986 34 
Q 1697 -75 1366 -75 
Q 819 -75 525 192 
Q 231 459 231 875 
Q 231 1119 342 1320 
Q 453 1522 633 1644 
Q 813 1766 1038 1828 
Q 1203 1872 1538 1913 
Q 2219 1994 2541 2106 
Q 2544 2222 2544 2253 
Q 2544 2597 2384 2738 
Q 2169 2928 1744 2928 
Q 1347 2928 1158 2789 
Q 969 2650 878 2297 
L 328 2372 
Q 403 2725 575 2942 
Q 747 3159 1072 3276 
Q 1397 3394 1825 3394 
Q 2250 3394 2515 3294 
Q 2781 3194 2906 3042 
Q 3031 2891 3081 2659 
Q 3109 2516 3109 2141 
L 3109 1391 
Q 3109 606 3145 398 
Q 3181 191 3288 0 
L 2700 0 
Q 2613 175 2588 409 
z
M 2541 1666 
Q 2234 1541 1622 1453 
Q 1275 1403 1131 1340 
Q 988 1278 909 1158 
Q 831 1038 831 891 
Q 831 666 1001 516 
Q 1172 366 1500 366 
Q 1825 366 2078 508 
Q 2331 650 2450 897 
Q 2541 1088 2541 1459 
L 2541 1666 
z
" transform="scale(0.015625)"/>
       <path id="ArialMT-74" d="M 1650 503 
L 1731 6 
Q 1494 -44 1306 -44 
Q 1000 -44 831 53 
Q 663 150 594 308 
Q 525 466 525 972 
L 525 2881 
L 113 2881 
L 113 3319 
L 525 3319 
L 525 4141 
L 1084 4478 
L 1084 3319 
L 1650 3319 
L 1650 2881 
L 1084 2881 
L 1084 941 
Q 1084 700 1114 631 
Q 1144 563 1211 522 
Q 1278 481 1403 481 
Q 1497 481 1650 503 
z
" transform="scale(0.015625)"/>
       <path id="ArialMT-69" d="M 425 3934 
L 425 4581 
L 988 4581 
L 988 3934 
L 425 3934 
z
M 425 0 
L 425 3319 
L 988 3319 
L 988 0 
L 425 0 
z
" transform="scale(0.015625)"/>
       <path id="ArialMT-6e" d="M 422 0 
L 422 3319 
L 928 3319 
L 928 2847 
Q 1294 3394 1984 3394 
Q 2284 3394 2536 3286 
Q 2788 3178 2913 3003 
Q 3038 2828 3088 2588 
Q 3119 2431 3119 2041 
L 3119 0 
L 2556 0 
L 2556 2019 
Q 2556 2363 2490 2533 
Q 2425 2703 2258 2804 
Q 2091 2906 1866 2906 
Q 1506 2906 1245 2678 
Q 984 2450 984 1813 
L 984 0 
L 422 0 
z
" transform="scale(0.015625)"/>
       <path id="ArialMT-67" d="M 319 -275 
L 866 -356 
Q 900 -609 1056 -725 
Q 1266 -881 1628 -881 
Q 2019 -881 2231 -725 
Q 2444 -569 2519 -288 
Q 2563 -116 2559 434 
Q 2191 0 1641 0 
Q 956 0 581 494 
Q 206 988 206 1678 
Q 206 2153 378 2554 
Q 550 2956 876 3175 
Q 1203 3394 1644 3394 
Q 2231 3394 2613 2919 
L 2613 3319 
L 3131 3319 
L 3131 450 
Q 3131 -325 2973 -648 
Q 2816 -972 2473 -1159 
Q 2131 -1347 1631 -1347 
Q 1038 -1347 672 -1080 
Q 306 -813 319 -275 
z
M 784 1719 
Q 784 1066 1043 766 
Q 1303 466 1694 466 
Q 2081 466 2343 764 
Q 2606 1063 2606 1700 
Q 2606 2309 2336 2618 
Q 2066 2928 1684 2928 
Q 1309 2928 1046 2623 
Q 784 2319 784 1719 
z
" transform="scale(0.015625)"/>
      </defs>
      <use xlink:href="#ArialMT-52"/>
      <use xlink:href="#ArialMT-61" x="72.216797"/>
      <use xlink:href="#ArialMT-74" x="127.832031"/>
      <use xlink:href="#ArialMT-69" x="155.615234"/>
      <use xlink:href="#ArialMT-6e" x="177.832031"/>
      <use xlink:href="#ArialMT-67" x="233.447266"/>
     </g>
    </g>
   </g>
   <g id="matplotlib.axis_2">
    <g id="ytick_1">
     <g id="text_7">
      <!-- Competitive -->
      <g style="fill: #262626" transform="translate(26.174688 98.672031) scale(0.1 -0.1)">
       <defs>
        <path id="ArialMT-43" d="M 3763 1606 
L 4369 1453 
Q 4178 706 3683 314 
Q 3188 -78 2472 -78 
Q 1731 -78 1267 223 
Q 803 525 561 1097 
Q 319 1669 319 2325 
Q 319 3041 592 3573 
Q 866 4106 1370 4382 
Q 1875 4659 2481 4659 
Q 3169 4659 3637 4309 
Q 4106 3959 4291 3325 
L 3694 3184 
Q 3534 3684 3231 3912 
Q 2928 4141 2469 4141 
Q 1941 4141 1586 3887 
Q 1231 3634 1087 3207 
Q 944 2781 944 2328 
Q 944 1744 1114 1308 
Q 1284 872 1643 656 
Q 2003 441 2422 441 
Q 2931 441 3284 734 
Q 3638 1028 3763 1606 
z
" transform="scale(0.015625)"/>
        <path id="ArialMT-6f" d="M 213 1659 
Q 213 2581 725 3025 
Q 1153 3394 1769 3394 
Q 2453 3394 2887 2945 
Q 3322 2497 3322 1706 
Q 3322 1066 3130 698 
Q 2938 331 2570 128 
Q 2203 -75 1769 -75 
Q 1072 -75 642 372 
Q 213 819 213 1659 
z
M 791 1659 
Q 791 1022 1069 705 
Q 1347 388 1769 388 
Q 2188 388 2466 706 
Q 2744 1025 2744 1678 
Q 2744 2294 2464 2611 
Q 2184 2928 1769 2928 
Q 1347 2928 1069 2612 
Q 791 2297 791 1659 
z
" transform="scale(0.015625)"/>
        <path id="ArialMT-6d" d="M 422 0 
L 422 3319 
L 925 3319 
L 925 2853 
Q 1081 3097 1340 3245 
Q 1600 3394 1931 3394 
Q 2300 3394 2536 3241 
Q 2772 3088 2869 2813 
Q 3263 3394 3894 3394 
Q 4388 3394 4653 3120 
Q 4919 2847 4919 2278 
L 4919 0 
L 4359 0 
L 4359 2091 
Q 4359 2428 4304 2576 
Q 4250 2725 4106 2815 
Q 3963 2906 3769 2906 
Q 3419 2906 3187 2673 
Q 2956 2441 2956 1928 
L 2956 0 
L 2394 0 
L 2394 2156 
Q 2394 2531 2256 2718 
Q 2119 2906 1806 2906 
Q 1569 2906 1367 2781 
Q 1166 2656 1075 2415 
Q 984 2175 984 1722 
L 984 0 
L 422 0 
z
" transform="scale(0.015625)"/>
        <path id="ArialMT-70" d="M 422 -1272 
L 422 3319 
L 934 3319 
L 934 2888 
Q 1116 3141 1344 3267 
Q 1572 3394 1897 3394 
Q 2322 3394 2647 3175 
Q 2972 2956 3137 2557 
Q 3303 2159 3303 1684 
Q 3303 1175 3120 767 
Q 2938 359 2589 142 
Q 2241 -75 1856 -75 
Q 1575 -75 1351 44 
Q 1128 163 984 344 
L 984 -1272 
L 422 -1272 
z
M 931 1641 
Q 931 1000 1190 694 
Q 1450 388 1819 388 
Q 2194 388 2461 705 
Q 2728 1022 2728 1688 
Q 2728 2322 2467 2637 
Q 2206 2953 1844 2953 
Q 1484 2953 1207 2617 
Q 931 2281 931 1641 
z
" transform="scale(0.015625)"/>
        <path id="ArialMT-65" d="M 2694 1069 
L 3275 997 
Q 3138 488 2766 206 
Q 2394 -75 1816 -75 
Q 1088 -75 661 373 
Q 234 822 234 1631 
Q 234 2469 665 2931 
Q 1097 3394 1784 3394 
Q 2450 3394 2872 2941 
Q 3294 2488 3294 1666 
Q 3294 1616 3291 1516 
L 816 1516 
Q 847 969 1125 678 
Q 1403 388 1819 388 
Q 2128 388 2347 550 
Q 2566 713 2694 1069 
z
M 847 1978 
L 2700 1978 
Q 2663 2397 2488 2606 
Q 2219 2931 1791 2931 
Q 1403 2931 1139 2672 
Q 875 2413 847 1978 
z
" transform="scale(0.015625)"/>
        <path id="ArialMT-76" d="M 1344 0 
L 81 3319 
L 675 3319 
L 1388 1331 
Q 1503 1009 1600 663 
Q 1675 925 1809 1294 
L 2547 3319 
L 3125 3319 
L 1869 0 
L 1344 0 
z
" transform="scale(0.015625)"/>
       </defs>
       <use xlink:href="#ArialMT-43"/>
       <use xlink:href="#ArialMT-6f" x="72.216797"/>
       <use xlink:href="#ArialMT-6d" x="127.832031"/>
       <use xlink:href="#ArialMT-70" x="211.132812"/>
       <use xlink:href="#ArialMT-65" x="266.748047"/>
       <use xlink:href="#ArialMT-74" x="322.363281"/>
       <use xlink:href="#ArialMT-69" x="350.146484"/>
       <use xlink:href="#ArialMT-74" x="372.363281"/>
       <use xlink:href="#ArialMT-69" x="400.146484"/>
       <use xlink:href="#ArialMT-76" x="422.363281"/>
       <use xlink:href="#ArialMT-65" x="472.363281"/>
      </g>
     </g>
    </g>
    <g id="ytick_2">
     <g id="text_8">
      <!-- Cooperative -->
      <g style="fill: #262626" transform="translate(25.052813 237.743906) scale(0.1 -0.1)">
       <defs>
        <path id="ArialMT-72" d="M 416 0 
L 416 3319 
L 922 3319 
L 922 2816 
Q 1116 3169 1280 3281 
Q 1444 3394 1641 3394 
Q 1925 3394 2219 3213 
L 2025 2691 
Q 1819 2813 1613 2813 
Q 1428 2813 1281 2702 
Q 1134 2591 1072 2394 
Q 978 2094 978 1738 
L 978 0 
L 416 0 
z
" transform="scale(0.015625)"/>
       </defs>
       <use xlink:href="#ArialMT-43"/>
       <use xlink:href="#ArialMT-6f" x="72.216797"/>
       <use xlink:href="#ArialMT-6f" x="127.832031"/>
       <use xlink:href="#ArialMT-70" x="183.447266"/>
       <use xlink:href="#ArialMT-65" x="239.0625"/>
       <use xlink:href="#ArialMT-72" x="294.677734"/>
       <use xlink:href="#ArialMT-61" x="327.978516"/>
       <use xlink:href="#ArialMT-74" x="383.59375"/>
       <use xlink:href="#ArialMT-69" x="411.376953"/>
       <use xlink:href="#ArialMT-76" x="433.59375"/>
       <use xlink:href="#ArialMT-65" x="483.59375"/>
      </g>
     </g>
    </g>
    <g id="text_9">
     <!-- Cooperative/Competitive -->
     <g style="fill: #262626" transform="translate(19.065313 219.313437) rotate(-90) scale(0.1 -0.1)">
      <defs>
       <path id="ArialMT-2f" d="M 0 -78 
L 1328 4659 
L 1778 4659 
L 453 -78 
L 0 -78 
z
" transform="scale(0.015625)"/>
      </defs>
      <use xlink:href="#ArialMT-43"/>
      <use xlink:href="#ArialMT-6f" x="72.216797"/>
      <use xlink:href="#ArialMT-6f" x="127.832031"/>
      <use xlink:href="#ArialMT-70" x="183.447266"/>
      <use xlink:href="#ArialMT-65" x="239.0625"/>
      <use xlink:href="#ArialMT-72" x="294.677734"/>
      <use xlink:href="#ArialMT-61" x="327.978516"/>
      <use xlink:href="#ArialMT-74" x="383.59375"/>
      <use xlink:href="#ArialMT-69" x="411.376953"/>
      <use xlink:href="#ArialMT-76" x="433.59375"/>
      <use xlink:href="#ArialMT-65" x="483.59375"/>
      <use xlink:href="#ArialMT-2f" x="539.208984"/>
      <use xlink:href="#ArialMT-43" x="566.992188"/>
      <use xlink:href="#ArialMT-6f" x="639.208984"/>
      <use xlink:href="#ArialMT-6d" x="694.824219"/>
      <use xlink:href="#ArialMT-70" x="778.125"/>
      <use xlink:href="#ArialMT-65" x="833.740234"/>
      <use xlink:href="#ArialMT-74" x="889.355469"/>
      <use xlink:href="#ArialMT-69" x="917.138672"/>
      <use xlink:href="#ArialMT-74" x="939.355469"/>
      <use xlink:href="#ArialMT-69" x="967.138672"/>
      <use xlink:href="#ArialMT-76" x="989.355469"/>
      <use xlink:href="#ArialMT-65" x="1039.355469"/>
     </g>
    </g>
   </g>
   <g id="PolyCollection_1">
    <defs>
     <path id="mfb50159090" d="M 102.516818 -250.531283 
L 102.516818 -250.604342 
L 105.615298 -250.636041 
L 108.713779 -250.683921 
L 111.812259 -250.74822 
L 114.910739 -250.824422 
L 118.009219 -250.903104 
L 121.107699 -250.972288 
L 124.206179 -251.021897 
L 127.30466 -251.048455 
L 130.40314 -251.057443 
L 133.50162 -251.061547 
L 136.6001 -251.07528 
L 139.69858 -251.108881 
L 142.79706 -251.165272 
L 145.895541 -251.24188 
L 148.994021 -251.33548 
L 152.092501 -251.44581 
L 155.190981 -251.575164 
L 158.289461 -251.725335 
L 161.387941 -251.895865 
L 164.486422 -252.085423 
L 167.584902 -252.293517 
L 170.683382 -252.518143 
L 173.781862 -252.749339 
L 176.880342 -252.964667 
L 179.978823 -253.133663 
L 183.077303 -253.231959 
L 186.175783 -253.257487 
L 189.274263 -253.238464 
L 192.372743 -253.22774 
L 195.471223 -253.286428 
L 198.569704 -253.465208 
L 201.668184 -253.791747 
L 204.766664 -254.26865 
L 207.865144 -254.881512 
L 210.963624 -255.613199 
L 214.062104 -256.458938 
L 217.160585 -257.436375 
L 220.259065 -258.585022 
L 223.357545 -259.951945 
L 226.456025 -261.566885 
L 229.554505 -263.41871 
L 232.652986 -265.449176 
L 235.751466 -267.572679 
L 238.849946 -269.71402 
L 241.948426 -271.842602 
L 245.046906 -273.983318 
L 248.145386 -276.200645 
L 251.243867 -278.56936 
L 254.342347 -281.149228 
L 257.440827 -283.971527 
L 260.539307 -287.033145 
L 263.637787 -290.290091 
L 266.736267 -293.647988 
L 269.834748 -296.956027 
L 272.933228 -300.015029 
L 276.031708 -302.607045 
L 279.130188 -304.545085 
L 282.228668 -305.730647 
L 285.327148 -306.196562 
L 288.425629 -306.108878 
L 291.524109 -305.712077 
L 294.622589 -305.229567 
L 297.721069 -304.763476 
L 300.819549 -304.24959 
L 303.91803 -303.498051 
L 307.01651 -302.298988 
L 310.11499 -300.530571 
L 313.21347 -298.207405 
L 316.31195 -295.45041 
L 319.41043 -292.411635 
L 322.508911 -289.20986 
L 325.607391 -285.912613 
L 328.705871 -282.559598 
L 331.804351 -279.195695 
L 334.902831 -275.885468 
L 338.001311 -272.704381 
L 341.099792 -269.720881 
L 344.198272 -266.984926 
L 347.296752 -264.527624 
L 350.395232 -262.366455 
L 353.493712 -260.508604 
L 356.592192 -258.949461 
L 359.690673 -257.668732 
L 362.789153 -256.628877 
L 365.887633 -255.778909 
L 368.986113 -255.063069 
L 372.084593 -254.431161 
L 375.183074 -253.846958 
L 378.281554 -253.292365 
L 381.380034 -252.766564 
L 384.478514 -252.280738 
L 387.576994 -251.850331 
L 390.675474 -251.487784 
L 393.773955 -251.198279 
L 396.872435 -250.979227 
L 399.970915 -250.822295 
L 403.069395 -250.716155 
L 406.167875 -250.64876 
L 409.266355 -250.60888 
L 409.266355 -250.526745 
L 409.266355 -250.526745 
L 406.167875 -250.486865 
L 403.069395 -250.41947 
L 399.970915 -250.31333 
L 396.872435 -250.156398 
L 393.773955 -249.937346 
L 390.675474 -249.647841 
L 387.576994 -249.285294 
L 384.478514 -248.854887 
L 381.380034 -248.369061 
L 378.281554 -247.84326 
L 375.183074 -247.288667 
L 372.084593 -246.704464 
L 368.986113 -246.072556 
L 365.887633 -245.356716 
L 362.789153 -244.506748 
L 359.690673 -243.466893 
L 356.592192 -242.186164 
L 353.493712 -240.627021 
L 350.395232 -238.76917 
L 347.296752 -236.608001 
L 344.198272 -234.150699 
L 341.099792 -231.414744 
L 338.001311 -228.431244 
L 334.902831 -225.250157 
L 331.804351 -221.93993 
L 328.705871 -218.576027 
L 325.607391 -215.223012 
L 322.508911 -211.925765 
L 319.41043 -208.72399 
L 316.31195 -205.685215 
L 313.21347 -202.92822 
L 310.11499 -200.605054 
L 307.01651 -198.836637 
L 303.91803 -197.637574 
L 300.819549 -196.886035 
L 297.721069 -196.372149 
L 294.622589 -195.906058 
L 291.524109 -195.423548 
L 288.425629 -195.026747 
L 285.327148 -194.939062 
L 282.228668 -195.404978 
L 279.130188 -196.59054 
L 276.031708 -198.52858 
L 272.933228 -201.120596 
L 269.834748 -204.179598 
L 266.736267 -207.487637 
L 263.637787 -210.845534 
L 260.539307 -214.10248 
L 257.440827 -217.164098 
L 254.342347 -219.986397 
L 251.243867 -222.566265 
L 248.145386 -224.93498 
L 245.046906 -227.152307 
L 241.948426 -229.293023 
L 238.849946 -231.421605 
L 235.751466 -233.562946 
L 232.652986 -235.686449 
L 229.554505 -237.716915 
L 226.456025 -239.56874 
L 223.357545 -241.18368 
L 220.259065 -242.550603 
L 217.160585 -243.69925 
L 214.062104 -244.676687 
L 210.963624 -245.522426 
L 207.865144 -246.254113 
L 204.766664 -246.866975 
L 201.668184 -247.343878 
L 198.569704 -247.670417 
L 195.471223 -247.849197 
L 192.372743 -247.907885 
L 189.274263 -247.897161 
L 186.175783 -247.878138 
L 183.077303 -247.903666 
L 179.978823 -248.001962 
L 176.880342 -248.170958 
L 173.781862 -248.386286 
L 170.683382 -248.617482 
L 167.584902 -248.842108 
L 164.486422 -249.050202 
L 161.387941 -249.23976 
L 158.289461 -249.41029 
L 155.190981 -249.560461 
L 152.092501 -249.689815 
L 148.994021 -249.800145 
L 145.895541 -249.893745 
L 142.79706 -249.970353 
L 139.69858 -250.026744 
L 136.6001 -250.060345 
L 133.50162 -250.074078 
L 130.40314 -250.078182 
L 127.30466 -250.08717 
L 124.206179 -250.113728 
L 121.107699 -250.163337 
L 118.009219 -250.232521 
L 114.910739 -250.311203 
L 111.812259 -250.387405 
L 108.713779 -250.451704 
L 105.615298 -250.499584 
L 102.516818 -250.531283 
z
" style="stroke: #262626; stroke-width: 1.25"/>
    </defs>
    <g clip-path="url(#pef68274a6f)">
     <use xlink:href="#mfb50159090" x="0" y="345.6" style="fill: #701070; stroke: #262626; stroke-width: 1.25"/>
    </g>
   </g>
   <g id="PolyCollection_2">
    <defs>
     <path id="m46e27575f0" d="M 194.786392 -111.315013 
L 194.786392 -111.676862 
L 197.197168 -111.755958 
L 199.607943 -111.860281 
L 202.018719 -111.994231 
L 204.429495 -112.161984 
L 206.84027 -112.367416 
L 209.251046 -112.614212 
L 211.661821 -112.906221 
L 214.072597 -113.248028 
L 216.483373 -113.645685 
L 218.894148 -114.107426 
L 221.304924 -114.644193 
L 223.7157 -115.269756 
L 226.126475 -116.0003 
L 228.537251 -116.853475 
L 230.948027 -117.847025 
L 233.358802 -118.99727 
L 235.769578 -120.317781 
L 238.180354 -121.81853 
L 240.591129 -123.505668 
L 243.001905 -125.381851 
L 245.412681 -127.44676 
L 247.823456 -129.697303 
L 250.234232 -132.126997 
L 252.645008 -134.72418 
L 255.055783 -137.469145 
L 257.466559 -140.330722 
L 259.877335 -143.26331 
L 262.28811 -146.205508 
L 264.698886 -149.081455 
L 267.109662 -151.805447 
L 269.520437 -154.289697 
L 271.931213 -156.454263 
L 274.341989 -158.237476 
L 276.752764 -159.604839 
L 279.16354 -160.554513 
L 281.574316 -161.118032 
L 283.985091 -161.355845 
L 286.395867 -161.348258 
L 288.806642 -161.183295 
L 291.217418 -160.943565 
L 293.628194 -160.694373 
L 296.038969 -160.475077 
L 298.449745 -160.295011 
L 300.860521 -160.134513 
L 303.271296 -159.950642 
L 305.682072 -159.686451 
L 308.092848 -159.282071 
L 310.503623 -158.685666 
L 312.914399 -157.862418 
L 315.325175 -156.800117 
L 317.73595 -155.510644 
L 320.146726 -154.027419 
L 322.557502 -152.399609 
L 324.968277 -150.684457 
L 327.379053 -148.939263 
L 329.789829 -147.214466 
L 332.200604 -145.548823 
L 334.61138 -143.967135 
L 337.022156 -142.480387 
L 339.432931 -141.087771 
L 341.843707 -139.779783 
L 344.254483 -138.541638 
L 346.665258 -137.356365 
L 349.076034 -136.20719 
L 351.48681 -135.079093 
L 353.897585 -133.959587 
L 356.308361 -132.838924 
L 358.719136 -131.709978 
L 361.129912 -130.568036 
L 363.540688 -129.410692 
L 365.951463 -128.237913 
L 368.362239 -127.052305 
L 370.773015 -125.859436 
L 373.18379 -124.668075 
L 375.594566 -123.490128 
L 378.005342 -122.340123 
L 380.416117 -121.234163 
L 382.826893 -120.18841 
L 385.237669 -119.217298 
L 387.648444 -118.331762 
L 390.05922 -117.537845 
L 392.469996 -116.835968 
L 394.880771 -116.221035 
L 397.291547 -115.683395 
L 399.702323 -115.210458 
L 402.113098 -114.788658 
L 404.523874 -114.405388 
L 406.93465 -114.050544 
L 409.345425 -113.717434 
L 411.756201 -113.402967 
L 414.166977 -113.107182 
L 416.577752 -112.832312 
L 418.988528 -112.581637 
L 421.399304 -112.35838 
L 423.810079 -112.164843 
L 426.220855 -112.001898 
L 428.631631 -111.868836 
L 431.042406 -111.763529 
L 433.453182 -111.682794 
L 433.453182 -111.309081 
L 433.453182 -111.309081 
L 431.042406 -111.228346 
L 428.631631 -111.123039 
L 426.220855 -110.989977 
L 423.810079 -110.827032 
L 421.399304 -110.633495 
L 418.988528 -110.410238 
L 416.577752 -110.159563 
L 414.166977 -109.884693 
L 411.756201 -109.588908 
L 409.345425 -109.274441 
L 406.93465 -108.941331 
L 404.523874 -108.586487 
L 402.113098 -108.203217 
L 399.702323 -107.781417 
L 397.291547 -107.30848 
L 394.880771 -106.77084 
L 392.469996 -106.155907 
L 390.05922 -105.45403 
L 387.648444 -104.660113 
L 385.237669 -103.774577 
L 382.826893 -102.803465 
L 380.416117 -101.757712 
L 378.005342 -100.651752 
L 375.594566 -99.501747 
L 373.18379 -98.3238 
L 370.773015 -97.132439 
L 368.362239 -95.93957 
L 365.951463 -94.753962 
L 363.540688 -93.581183 
L 361.129912 -92.423839 
L 358.719136 -91.281897 
L 356.308361 -90.152951 
L 353.897585 -89.032288 
L 351.48681 -87.912782 
L 349.076034 -86.784685 
L 346.665258 -85.63551 
L 344.254483 -84.450237 
L 341.843707 -83.212092 
L 339.432931 -81.904104 
L 337.022156 -80.511488 
L 334.61138 -79.02474 
L 332.200604 -77.443052 
L 329.789829 -75.777409 
L 327.379053 -74.052612 
L 324.968277 -72.307418 
L 322.557502 -70.592266 
L 320.146726 -68.964456 
L 317.73595 -67.481231 
L 315.325175 -66.191758 
L 312.914399 -65.129457 
L 310.503623 -64.306209 
L 308.092848 -63.709804 
L 305.682072 -63.305424 
L 303.271296 -63.041233 
L 300.860521 -62.857362 
L 298.449745 -62.696864 
L 296.038969 -62.516798 
L 293.628194 -62.297502 
L 291.217418 -62.04831 
L 288.806642 -61.80858 
L 286.395867 -61.643617 
L 283.985091 -61.63603 
L 281.574316 -61.873843 
L 279.16354 -62.437362 
L 276.752764 -63.387036 
L 274.341989 -64.754399 
L 271.931213 -66.537612 
L 269.520437 -68.702178 
L 267.109662 -71.186428 
L 264.698886 -73.91042 
L 262.28811 -76.786367 
L 259.877335 -79.728565 
L 257.466559 -82.661153 
L 255.055783 -85.52273 
L 252.645008 -88.267695 
L 250.234232 -90.864878 
L 247.823456 -93.294572 
L 245.412681 -95.545115 
L 243.001905 -97.610024 
L 240.591129 -99.486207 
L 238.180354 -101.173345 
L 235.769578 -102.674094 
L 233.358802 -103.994605 
L 230.948027 -105.14485 
L 228.537251 -106.1384 
L 226.126475 -106.991575 
L 223.7157 -107.722119 
L 221.304924 -108.347682 
L 218.894148 -108.884449 
L 216.483373 -109.34619 
L 214.072597 -109.743847 
L 211.661821 -110.085654 
L 209.251046 -110.377663 
L 206.84027 -110.624459 
L 204.429495 -110.829891 
L 202.018719 -110.997644 
L 199.607943 -111.131594 
L 197.197168 -111.235917 
L 194.786392 -111.315013 
z
" style="stroke: #262626; stroke-width: 1.25"/>
    </defs>
    <g clip-path="url(#pef68274a6f)">
     <use xlink:href="#m46e27575f0" x="0" y="345.6" style="fill: #701070; stroke: #262626; stroke-width: 1.25"/>
    </g>
   </g>
   <g id="line2d_1">
    <path d="M 201.344137 95.032187 
L 380.608051 95.032187 
" clip-path="url(#pef68274a6f)" style="fill: none; stroke: #262626; stroke-width: 1.875; stroke-linecap: round"/>
   </g>
   <g id="line2d_2">
    <path d="M 266.9661 95.032187 
L 312.474707 95.032187 
" clip-path="url(#pef68274a6f)" style="fill: none; stroke: #262626; stroke-width: 5.625; stroke-linecap: round"/>
   </g>
   <g id="line2d_3">
    <path d="M 289.257907 95.032187 
" clip-path="url(#pef68274a6f)" style="fill: none; stroke: #262626; stroke-width: 1.5; stroke-linecap: round"/>
    <defs>
     <path id="m0a7206c930" d="M 0 2.34375 
L 0 -2.34375 
" style="stroke: #ffffff; stroke-width: 1.125"/>
    </defs>
    <g clip-path="url(#pef68274a6f)">
     <use xlink:href="#m0a7206c930" x="289.257907" y="95.032187" style="fill: #ffffff; stroke: #ffffff; stroke-width: 1.125"/>
    </g>
   </g>
   <g id="line2d_4">
    <path d="M 222.365323 234.104062 
L 405.87425 234.104062 
" clip-path="url(#pef68274a6f)" style="fill: none; stroke: #262626; stroke-width: 1.875; stroke-linecap: round"/>
   </g>
   <g id="line2d_5">
    <path d="M 277.602657 234.104062 
L 329.347328 234.104062 
" clip-path="url(#pef68274a6f)" style="fill: none; stroke: #262626; stroke-width: 5.625; stroke-linecap: round"/>
   </g>
   <g id="line2d_6">
    <path d="M 302.605945 234.104062 
" clip-path="url(#pef68274a6f)" style="fill: none; stroke: #262626; stroke-width: 1.5; stroke-linecap: round"/>
    <g clip-path="url(#pef68274a6f)">
     <use xlink:href="#m0a7206c930" x="302.605945" y="234.104062" style="fill: #ffffff; stroke: #ffffff; stroke-width: 1.125"/>
    </g>
   </g>
   <g id="patch_3">
    <path d="M 85.97 303.64 
L 85.97 25.49625 
" style="fill: none; stroke: #ffffff; stroke-width: 0.8; stroke-linejoin: miter; stroke-linecap: square"/>
   </g>
   <g id="patch_4">
    <path d="M 450 303.64 
L 450 25.49625 
" style="fill: none; stroke: #ffffff; stroke-width: 0.8; stroke-linejoin: miter; stroke-linecap: square"/>
   </g>
   <g id="patch_5">
    <path d="M 85.97 303.64 
L 450 303.64 
" style="fill: none; stroke: #ffffff; stroke-width: 0.8; stroke-linejoin: miter; stroke-linecap: square"/>
   </g>
   <g id="patch_6">
    <path d="M 85.97 25.49625 
L 450 25.49625 
" style="fill: none; stroke: #ffffff; stroke-width: 0.8; stroke-linejoin: miter; stroke-linecap: square"/>
   </g>
   <g id="text_10">
    <!-- Cooperative/Competitive vs Rating -->
    <g style="fill: #262626" transform="translate(175.614063 19.49625) scale(0.12 -0.12)">
     <defs>
      <path id="ArialMT-20" transform="scale(0.015625)"/>
      <path id="ArialMT-73" d="M 197 991 
L 753 1078 
Q 800 744 1014 566 
Q 1228 388 1613 388 
Q 2000 388 2187 545 
Q 2375 703 2375 916 
Q 2375 1106 2209 1216 
Q 2094 1291 1634 1406 
Q 1016 1563 777 1677 
Q 538 1791 414 1992 
Q 291 2194 291 2438 
Q 291 2659 392 2848 
Q 494 3038 669 3163 
Q 800 3259 1026 3326 
Q 1253 3394 1513 3394 
Q 1903 3394 2198 3281 
Q 2494 3169 2634 2976 
Q 2775 2784 2828 2463 
L 2278 2388 
Q 2241 2644 2061 2787 
Q 1881 2931 1553 2931 
Q 1166 2931 1000 2803 
Q 834 2675 834 2503 
Q 834 2394 903 2306 
Q 972 2216 1119 2156 
Q 1203 2125 1616 2013 
Q 2213 1853 2448 1751 
Q 2684 1650 2818 1456 
Q 2953 1263 2953 975 
Q 2953 694 2789 445 
Q 2625 197 2315 61 
Q 2006 -75 1616 -75 
Q 969 -75 630 194 
Q 291 463 197 991 
z
" transform="scale(0.015625)"/>
     </defs>
     <use xlink:href="#ArialMT-43"/>
     <use xlink:href="#ArialMT-6f" x="72.216797"/>
     <use xlink:href="#ArialMT-6f" x="127.832031"/>
     <use xlink:href="#ArialMT-70" x="183.447266"/>
     <use xlink:href="#ArialMT-65" x="239.0625"/>
     <use xlink:href="#ArialMT-72" x="294.677734"/>
     <use xlink:href="#ArialMT-61" x="327.978516"/>
     <use xlink:href="#ArialMT-74" x="383.59375"/>
     <use xlink:href="#ArialMT-69" x="411.376953"/>
     <use xlink:href="#ArialMT-76" x="433.59375"/>
     <use xlink:href="#ArialMT-65" x="483.59375"/>
     <use xlink:href="#ArialMT-2f" x="539.208984"/>
     <use xlink:href="#ArialMT-43" x="566.992188"/>
     <use xlink:href="#ArialMT-6f" x="639.208984"/>
     <use xlink:href="#ArialMT-6d" x="694.824219"/>
     <use xlink:href="#ArialMT-70" x="778.125"/>
     <use xlink:href="#ArialMT-65" x="833.740234"/>
     <use xlink:href="#ArialMT-74" x="889.355469"/>
     <use xlink:href="#ArialMT-69" x="917.138672"/>
     <use xlink:href="#ArialMT-74" x="939.355469"/>
     <use xlink:href="#ArialMT-69" x="967.138672"/>
     <use xlink:href="#ArialMT-76" x="989.355469"/>
     <use xlink:href="#ArialMT-65" x="1039.355469"/>
     <use xlink:href="#ArialMT-20" x="1094.970703"/>
     <use xlink:href="#ArialMT-76" x="1122.753906"/>
     <use xlink:href="#ArialMT-73" x="1172.753906"/>
     <use xlink:href="#ArialMT-20" x="1222.753906"/>
     <use xlink:href="#ArialMT-52" x="1250.537109"/>
     <use xlink:href="#ArialMT-61" x="1322.753906"/>
     <use xlink:href="#ArialMT-74" x="1378.369141"/>
     <use xlink:href="#ArialMT-69" x="1406.152344"/>
     <use xlink:href="#ArialMT-6e" x="1428.369141"/>
     <use xlink:href="#ArialMT-67" x="1483.984375"/>
    </g>
   </g>
  </g>
 </g>
 <defs>
  <clipPath id="pef68274a6f">
   <rect x="85.97" y="25.49625" width="364.03" height="278.14375"/>
  </clipPath>
 </defs>
</svg>
