<?xml version="1.0" encoding="utf-8" standalone="no"?>
<!DOCTYPE svg PUBLIC "-//W3C//DTD SVG 1.1//EN"
  "http://www.w3.org/Graphics/SVG/1.1/DTD/svg11.dtd">
<svg xmlns:xlink="http://www.w3.org/1999/xlink" width="460.8pt" height="345.6pt" viewBox="0 0 460.8 345.6" xmlns="http://www.w3.org/2000/svg" version="1.1">
 <metadata>
  <rdf:RDF xmlns:dc="http://purl.org/dc/elements/1.1/" xmlns:cc="http://creativecommons.org/ns#" xmlns:rdf="http://www.w3.org/1999/02/22-rdf-syntax-ns#">
   <cc:Work>
    <dc:type rdf:resource="http://purl.org/dc/dcmitype/StillImage"/>
    <dc:date>2024-09-13T21:36:19.129346</dc:date>
    <dc:format>image/svg+xml</dc:format>
    <dc:creator>
     <cc:Agent>
      <dc:title>Matplotlib v3.9.2, https://matplotlib.org/</dc:title>
     </cc:Agent>
    </dc:creator>
   </cc:Work>
  </rdf:RDF>
 </metadata>
 <defs>
  <style type="text/css">*{stroke-linejoin: round; stroke-linecap: butt}</style>
 </defs>
 <g id="figure_1">
  <g id="patch_1">
   <path d="M 0 345.6 
L 460.8 345.6 
L 460.8 0 
L 0 0 
z
" style="fill: #ffffff"/>
  </g>
  <g id="axes_1">
   <g id="patch_2">
    <path d="M 71.89 303.64 
L 450 303.64 
L 450 25.49625 
L 71.89 25.49625 
z
" style="fill: #eaeaf2"/>
   </g>
   <g id="matplotlib.axis_1">
    <g id="xtick_1">
     <g id="text_1">
      <!-- 2 -->
      <g style="fill: #262626" transform="translate(102.900728 317.797812) scale(0.1 -0.1)">
       <defs>
        <path id="ArialMT-32" d="M 3222 541 
L 3222 0 
L 194 0 
Q 188 203 259 391 
Q 375 700 629 1000 
Q 884 1300 1366 1694 
Q 2113 2306 2375 2664 
Q 2638 3022 2638 3341 
Q 2638 3675 2398 3904 
Q 2159 4134 1775 4134 
Q 1369 4134 1125 3890 
Q 881 3647 878 3216 
L 300 3275 
Q 359 3922 746 4261 
Q 1134 4600 1788 4600 
Q 2447 4600 2831 4234 
Q 3216 3869 3216 3328 
Q 3216 3053 3103 2787 
Q 2991 2522 2730 2228 
Q 2469 1934 1863 1422 
Q 1356 997 1212 845 
Q 1069 694 975 541 
L 3222 541 
z
" transform="scale(0.015625)"/>
       </defs>
       <use xlink:href="#ArialMT-32"/>
      </g>
     </g>
    </g>
    <g id="xtick_2">
     <g id="text_2">
      <!-- 3 -->
      <g style="fill: #262626" transform="translate(148.979841 317.797812) scale(0.1 -0.1)">
       <defs>
        <path id="ArialMT-33" d="M 269 1209 
L 831 1284 
Q 928 806 1161 595 
Q 1394 384 1728 384 
Q 2125 384 2398 659 
Q 2672 934 2672 1341 
Q 2672 1728 2419 1979 
Q 2166 2231 1775 2231 
Q 1616 2231 1378 2169 
L 1441 2663 
Q 1497 2656 1531 2656 
Q 1891 2656 2178 2843 
Q 2466 3031 2466 3422 
Q 2466 3731 2256 3934 
Q 2047 4138 1716 4138 
Q 1388 4138 1169 3931 
Q 950 3725 888 3313 
L 325 3413 
Q 428 3978 793 4289 
Q 1159 4600 1703 4600 
Q 2078 4600 2393 4439 
Q 2709 4278 2876 4000 
Q 3044 3722 3044 3409 
Q 3044 3113 2884 2869 
Q 2725 2625 2413 2481 
Q 2819 2388 3044 2092 
Q 3269 1797 3269 1353 
Q 3269 753 2831 336 
Q 2394 -81 1725 -81 
Q 1122 -81 723 278 
Q 325 638 269 1209 
z
" transform="scale(0.015625)"/>
       </defs>
       <use xlink:href="#ArialMT-33"/>
      </g>
     </g>
    </g>
    <g id="xtick_3">
     <g id="text_3">
      <!-- 4 -->
      <g style="fill: #262626" transform="translate(195.058955 317.797812) scale(0.1 -0.1)">
       <defs>
        <path id="ArialMT-34" d="M 2069 0 
L 2069 1097 
L 81 1097 
L 81 1613 
L 2172 4581 
L 2631 4581 
L 2631 1613 
L 3250 1613 
L 3250 1097 
L 2631 1097 
L 2631 0 
L 2069 0 
z
M 2069 1613 
L 2069 3678 
L 634 1613 
L 2069 1613 
z
" transform="scale(0.015625)"/>
       </defs>
       <use xlink:href="#ArialMT-34"/>
      </g>
     </g>
    </g>
    <g id="xtick_4">
     <g id="text_4">
      <!-- 5 -->
      <g style="fill: #262626" transform="translate(241.138068 317.797812) scale(0.1 -0.1)">
       <defs>
        <path id="ArialMT-35" d="M 266 1200 
L 856 1250 
Q 922 819 1161 601 
Q 1400 384 1738 384 
Q 2144 384 2425 690 
Q 2706 997 2706 1503 
Q 2706 1984 2436 2262 
Q 2166 2541 1728 2541 
Q 1456 2541 1237 2417 
Q 1019 2294 894 2097 
L 366 2166 
L 809 4519 
L 3088 4519 
L 3088 3981 
L 1259 3981 
L 1013 2750 
Q 1425 3038 1878 3038 
Q 2478 3038 2890 2622 
Q 3303 2206 3303 1553 
Q 3303 931 2941 478 
Q 2500 -78 1738 -78 
Q 1113 -78 717 272 
Q 322 622 266 1200 
z
" transform="scale(0.015625)"/>
       </defs>
       <use xlink:href="#ArialMT-35"/>
      </g>
     </g>
    </g>
    <g id="xtick_5">
     <g id="text_5">
      <!-- 6 -->
      <g style="fill: #262626" transform="translate(287.217182 317.797812) scale(0.1 -0.1)">
       <defs>
        <path id="ArialMT-36" d="M 3184 3459 
L 2625 3416 
Q 2550 3747 2413 3897 
Q 2184 4138 1850 4138 
Q 1581 4138 1378 3988 
Q 1113 3794 959 3422 
Q 806 3050 800 2363 
Q 1003 2672 1297 2822 
Q 1591 2972 1913 2972 
Q 2475 2972 2870 2558 
Q 3266 2144 3266 1488 
Q 3266 1056 3080 686 
Q 2894 316 2569 119 
Q 2244 -78 1831 -78 
Q 1128 -78 684 439 
Q 241 956 241 2144 
Q 241 3472 731 4075 
Q 1159 4600 1884 4600 
Q 2425 4600 2770 4297 
Q 3116 3994 3184 3459 
z
M 888 1484 
Q 888 1194 1011 928 
Q 1134 663 1356 523 
Q 1578 384 1822 384 
Q 2178 384 2434 671 
Q 2691 959 2691 1453 
Q 2691 1928 2437 2201 
Q 2184 2475 1800 2475 
Q 1419 2475 1153 2201 
Q 888 1928 888 1484 
z
" transform="scale(0.015625)"/>
       </defs>
       <use xlink:href="#ArialMT-36"/>
      </g>
     </g>
    </g>
    <g id="xtick_6">
     <g id="text_6">
      <!-- 7 -->
      <g style="fill: #262626" transform="translate(333.296296 317.797812) scale(0.1 -0.1)">
       <defs>
        <path id="ArialMT-37" d="M 303 3981 
L 303 4522 
L 3269 4522 
L 3269 4084 
Q 2831 3619 2401 2847 
Q 1972 2075 1738 1259 
Q 1569 684 1522 0 
L 944 0 
Q 953 541 1156 1306 
Q 1359 2072 1739 2783 
Q 2119 3494 2547 3981 
L 303 3981 
z
" transform="scale(0.015625)"/>
       </defs>
       <use xlink:href="#ArialMT-37"/>
      </g>
     </g>
    </g>
    <g id="xtick_7">
     <g id="text_7">
      <!-- 8 -->
      <g style="fill: #262626" transform="translate(379.375409 317.797812) scale(0.1 -0.1)">
       <defs>
        <path id="ArialMT-38" d="M 1131 2484 
Q 781 2613 612 2850 
Q 444 3088 444 3419 
Q 444 3919 803 4259 
Q 1163 4600 1759 4600 
Q 2359 4600 2725 4251 
Q 3091 3903 3091 3403 
Q 3091 3084 2923 2848 
Q 2756 2613 2416 2484 
Q 2838 2347 3058 2040 
Q 3278 1734 3278 1309 
Q 3278 722 2862 322 
Q 2447 -78 1769 -78 
Q 1091 -78 675 323 
Q 259 725 259 1325 
Q 259 1772 486 2073 
Q 713 2375 1131 2484 
z
M 1019 3438 
Q 1019 3113 1228 2906 
Q 1438 2700 1772 2700 
Q 2097 2700 2305 2904 
Q 2513 3109 2513 3406 
Q 2513 3716 2298 3927 
Q 2084 4138 1766 4138 
Q 1444 4138 1231 3931 
Q 1019 3725 1019 3438 
z
M 838 1322 
Q 838 1081 952 856 
Q 1066 631 1291 507 
Q 1516 384 1775 384 
Q 2178 384 2440 643 
Q 2703 903 2703 1303 
Q 2703 1709 2433 1975 
Q 2163 2241 1756 2241 
Q 1359 2241 1098 1978 
Q 838 1716 838 1322 
z
" transform="scale(0.015625)"/>
       </defs>
       <use xlink:href="#ArialMT-38"/>
      </g>
     </g>
    </g>
    <g id="xtick_8">
     <g id="text_8">
      <!-- 9 -->
      <g style="fill: #262626" transform="translate(425.454523 317.797812) scale(0.1 -0.1)">
       <defs>
        <path id="ArialMT-39" d="M 350 1059 
L 891 1109 
Q 959 728 1153 556 
Q 1347 384 1650 384 
Q 1909 384 2104 503 
Q 2300 622 2425 820 
Q 2550 1019 2634 1356 
Q 2719 1694 2719 2044 
Q 2719 2081 2716 2156 
Q 2547 1888 2255 1720 
Q 1963 1553 1622 1553 
Q 1053 1553 659 1965 
Q 266 2378 266 3053 
Q 266 3750 677 4175 
Q 1088 4600 1706 4600 
Q 2153 4600 2523 4359 
Q 2894 4119 3086 3673 
Q 3278 3228 3278 2384 
Q 3278 1506 3087 986 
Q 2897 466 2520 194 
Q 2144 -78 1638 -78 
Q 1100 -78 759 220 
Q 419 519 350 1059 
z
M 2653 3081 
Q 2653 3566 2395 3850 
Q 2138 4134 1775 4134 
Q 1400 4134 1122 3828 
Q 844 3522 844 3034 
Q 844 2597 1108 2323 
Q 1372 2050 1759 2050 
Q 2150 2050 2401 2323 
Q 2653 2597 2653 3081 
z
" transform="scale(0.015625)"/>
       </defs>
       <use xlink:href="#ArialMT-39"/>
      </g>
     </g>
    </g>
    <g id="text_9">
     <!-- Rating -->
     <g style="fill: #262626" transform="translate(246.492656 330.943125) scale(0.1 -0.1)">
      <defs>
       <path id="ArialMT-52" d="M 503 0 
L 503 4581 
L 2534 4581 
Q 3147 4581 3465 4457 
Q 3784 4334 3975 4021 
Q 4166 3709 4166 3331 
Q 4166 2844 3850 2509 
Q 3534 2175 2875 2084 
Q 3116 1969 3241 1856 
Q 3506 1613 3744 1247 
L 4541 0 
L 3778 0 
L 3172 953 
Q 2906 1366 2734 1584 
Q 2563 1803 2427 1890 
Q 2291 1978 2150 2013 
Q 2047 2034 1813 2034 
L 1109 2034 
L 1109 0 
L 503 0 
z
M 1109 2559 
L 2413 2559 
Q 2828 2559 3062 2645 
Q 3297 2731 3419 2920 
Q 3541 3109 3541 3331 
Q 3541 3656 3305 3865 
Q 3069 4075 2559 4075 
L 1109 4075 
L 1109 2559 
z
" transform="scale(0.015625)"/>
       <path id="ArialMT-61" d="M 2588 409 
Q 2275 144 1986 34 
Q 1697 -75 1366 -75 
Q 819 -75 525 192 
Q 231 459 231 875 
Q 231 1119 342 1320 
Q 453 1522 633 1644 
Q 813 1766 1038 1828 
Q 1203 1872 1538 1913 
Q 2219 1994 2541 2106 
Q 2544 2222 2544 2253 
Q 2544 2597 2384 2738 
Q 2169 2928 1744 2928 
Q 1347 2928 1158 2789 
Q 969 2650 878 2297 
L 328 2372 
Q 403 2725 575 2942 
Q 747 3159 1072 3276 
Q 1397 3394 1825 3394 
Q 2250 3394 2515 3294 
Q 2781 3194 2906 3042 
Q 3031 2891 3081 2659 
Q 3109 2516 3109 2141 
L 3109 1391 
Q 3109 606 3145 398 
Q 3181 191 3288 0 
L 2700 0 
Q 2613 175 2588 409 
z
M 2541 1666 
Q 2234 1541 1622 1453 
Q 1275 1403 1131 1340 
Q 988 1278 909 1158 
Q 831 1038 831 891 
Q 831 666 1001 516 
Q 1172 366 1500 366 
Q 1825 366 2078 508 
Q 2331 650 2450 897 
Q 2541 1088 2541 1459 
L 2541 1666 
z
" transform="scale(0.015625)"/>
       <path id="ArialMT-74" d="M 1650 503 
L 1731 6 
Q 1494 -44 1306 -44 
Q 1000 -44 831 53 
Q 663 150 594 308 
Q 525 466 525 972 
L 525 2881 
L 113 2881 
L 113 3319 
L 525 3319 
L 525 4141 
L 1084 4478 
L 1084 3319 
L 1650 3319 
L 1650 2881 
L 1084 2881 
L 1084 941 
Q 1084 700 1114 631 
Q 1144 563 1211 522 
Q 1278 481 1403 481 
Q 1497 481 1650 503 
z
" transform="scale(0.015625)"/>
       <path id="ArialMT-69" d="M 425 3934 
L 425 4581 
L 988 4581 
L 988 3934 
L 425 3934 
z
M 425 0 
L 425 3319 
L 988 3319 
L 988 0 
L 425 0 
z
" transform="scale(0.015625)"/>
       <path id="ArialMT-6e" d="M 422 0 
L 422 3319 
L 928 3319 
L 928 2847 
Q 1294 3394 1984 3394 
Q 2284 3394 2536 3286 
Q 2788 3178 2913 3003 
Q 3038 2828 3088 2588 
Q 3119 2431 3119 2041 
L 3119 0 
L 2556 0 
L 2556 2019 
Q 2556 2363 2490 2533 
Q 2425 2703 2258 2804 
Q 2091 2906 1866 2906 
Q 1506 2906 1245 2678 
Q 984 2450 984 1813 
L 984 0 
L 422 0 
z
" transform="scale(0.015625)"/>
       <path id="ArialMT-67" d="M 319 -275 
L 866 -356 
Q 900 -609 1056 -725 
Q 1266 -881 1628 -881 
Q 2019 -881 2231 -725 
Q 2444 -569 2519 -288 
Q 2563 -116 2559 434 
Q 2191 0 1641 0 
Q 956 0 581 494 
Q 206 988 206 1678 
Q 206 2153 378 2554 
Q 550 2956 876 3175 
Q 1203 3394 1644 3394 
Q 2231 3394 2613 2919 
L 2613 3319 
L 3131 3319 
L 3131 450 
Q 3131 -325 2973 -648 
Q 2816 -972 2473 -1159 
Q 2131 -1347 1631 -1347 
Q 1038 -1347 672 -1080 
Q 306 -813 319 -275 
z
M 784 1719 
Q 784 1066 1043 766 
Q 1303 466 1694 466 
Q 2081 466 2343 764 
Q 2606 1063 2606 1700 
Q 2606 2309 2336 2618 
Q 2066 2928 1684 2928 
Q 1309 2928 1046 2623 
Q 784 2319 784 1719 
z
" transform="scale(0.015625)"/>
      </defs>
      <use xlink:href="#ArialMT-52"/>
      <use xlink:href="#ArialMT-61" x="72.216797"/>
      <use xlink:href="#ArialMT-74" x="127.832031"/>
      <use xlink:href="#ArialMT-69" x="155.615234"/>
      <use xlink:href="#ArialMT-6e" x="177.832031"/>
      <use xlink:href="#ArialMT-67" x="233.447266"/>
     </g>
    </g>
   </g>
   <g id="matplotlib.axis_2">
    <g id="ytick_1">
     <g id="text_10">
      <!-- Competitive -->
      <g style="fill: #262626" transform="translate(12.094687 98.672031) scale(0.1 -0.1)">
       <defs>
        <path id="ArialMT-43" d="M 3763 1606 
L 4369 1453 
Q 4178 706 3683 314 
Q 3188 -78 2472 -78 
Q 1731 -78 1267 223 
Q 803 525 561 1097 
Q 319 1669 319 2325 
Q 319 3041 592 3573 
Q 866 4106 1370 4382 
Q 1875 4659 2481 4659 
Q 3169 4659 3637 4309 
Q 4106 3959 4291 3325 
L 3694 3184 
Q 3534 3684 3231 3912 
Q 2928 4141 2469 4141 
Q 1941 4141 1586 3887 
Q 1231 3634 1087 3207 
Q 944 2781 944 2328 
Q 944 1744 1114 1308 
Q 1284 872 1643 656 
Q 2003 441 2422 441 
Q 2931 441 3284 734 
Q 3638 1028 3763 1606 
z
" transform="scale(0.015625)"/>
        <path id="ArialMT-6f" d="M 213 1659 
Q 213 2581 725 3025 
Q 1153 3394 1769 3394 
Q 2453 3394 2887 2945 
Q 3322 2497 3322 1706 
Q 3322 1066 3130 698 
Q 2938 331 2570 128 
Q 2203 -75 1769 -75 
Q 1072 -75 642 372 
Q 213 819 213 1659 
z
M 791 1659 
Q 791 1022 1069 705 
Q 1347 388 1769 388 
Q 2188 388 2466 706 
Q 2744 1025 2744 1678 
Q 2744 2294 2464 2611 
Q 2184 2928 1769 2928 
Q 1347 2928 1069 2612 
Q 791 2297 791 1659 
z
" transform="scale(0.015625)"/>
        <path id="ArialMT-6d" d="M 422 0 
L 422 3319 
L 925 3319 
L 925 2853 
Q 1081 3097 1340 3245 
Q 1600 3394 1931 3394 
Q 2300 3394 2536 3241 
Q 2772 3088 2869 2813 
Q 3263 3394 3894 3394 
Q 4388 3394 4653 3120 
Q 4919 2847 4919 2278 
L 4919 0 
L 4359 0 
L 4359 2091 
Q 4359 2428 4304 2576 
Q 4250 2725 4106 2815 
Q 3963 2906 3769 2906 
Q 3419 2906 3187 2673 
Q 2956 2441 2956 1928 
L 2956 0 
L 2394 0 
L 2394 2156 
Q 2394 2531 2256 2718 
Q 2119 2906 1806 2906 
Q 1569 2906 1367 2781 
Q 1166 2656 1075 2415 
Q 984 2175 984 1722 
L 984 0 
L 422 0 
z
" transform="scale(0.015625)"/>
        <path id="ArialMT-70" d="M 422 -1272 
L 422 3319 
L 934 3319 
L 934 2888 
Q 1116 3141 1344 3267 
Q 1572 3394 1897 3394 
Q 2322 3394 2647 3175 
Q 2972 2956 3137 2557 
Q 3303 2159 3303 1684 
Q 3303 1175 3120 767 
Q 2938 359 2589 142 
Q 2241 -75 1856 -75 
Q 1575 -75 1351 44 
Q 1128 163 984 344 
L 984 -1272 
L 422 -1272 
z
M 931 1641 
Q 931 1000 1190 694 
Q 1450 388 1819 388 
Q 2194 388 2461 705 
Q 2728 1022 2728 1688 
Q 2728 2322 2467 2637 
Q 2206 2953 1844 2953 
Q 1484 2953 1207 2617 
Q 931 2281 931 1641 
z
" transform="scale(0.015625)"/>
        <path id="ArialMT-65" d="M 2694 1069 
L 3275 997 
Q 3138 488 2766 206 
Q 2394 -75 1816 -75 
Q 1088 -75 661 373 
Q 234 822 234 1631 
Q 234 2469 665 2931 
Q 1097 3394 1784 3394 
Q 2450 3394 2872 2941 
Q 3294 2488 3294 1666 
Q 3294 1616 3291 1516 
L 816 1516 
Q 847 969 1125 678 
Q 1403 388 1819 388 
Q 2128 388 2347 550 
Q 2566 713 2694 1069 
z
M 847 1978 
L 2700 1978 
Q 2663 2397 2488 2606 
Q 2219 2931 1791 2931 
Q 1403 2931 1139 2672 
Q 875 2413 847 1978 
z
" transform="scale(0.015625)"/>
        <path id="ArialMT-76" d="M 1344 0 
L 81 3319 
L 675 3319 
L 1388 1331 
Q 1503 1009 1600 663 
Q 1675 925 1809 1294 
L 2547 3319 
L 3125 3319 
L 1869 0 
L 1344 0 
z
" transform="scale(0.015625)"/>
       </defs>
       <use xlink:href="#ArialMT-43"/>
       <use xlink:href="#ArialMT-6f" x="72.216797"/>
       <use xlink:href="#ArialMT-6d" x="127.832031"/>
       <use xlink:href="#ArialMT-70" x="211.132812"/>
       <use xlink:href="#ArialMT-65" x="266.748047"/>
       <use xlink:href="#ArialMT-74" x="322.363281"/>
       <use xlink:href="#ArialMT-69" x="350.146484"/>
       <use xlink:href="#ArialMT-74" x="372.363281"/>
       <use xlink:href="#ArialMT-69" x="400.146484"/>
       <use xlink:href="#ArialMT-76" x="422.363281"/>
       <use xlink:href="#ArialMT-65" x="472.363281"/>
      </g>
     </g>
    </g>
    <g id="ytick_2">
     <g id="text_11">
      <!-- Cooperative -->
      <g style="fill: #262626" transform="translate(10.972812 237.743906) scale(0.1 -0.1)">
       <defs>
        <path id="ArialMT-72" d="M 416 0 
L 416 3319 
L 922 3319 
L 922 2816 
Q 1116 3169 1280 3281 
Q 1444 3394 1641 3394 
Q 1925 3394 2219 3213 
L 2025 2691 
Q 1819 2813 1613 2813 
Q 1428 2813 1281 2702 
Q 1134 2591 1072 2394 
Q 978 2094 978 1738 
L 978 0 
L 416 0 
z
" transform="scale(0.015625)"/>
       </defs>
       <use xlink:href="#ArialMT-43"/>
       <use xlink:href="#ArialMT-6f" x="72.216797"/>
       <use xlink:href="#ArialMT-6f" x="127.832031"/>
       <use xlink:href="#ArialMT-70" x="183.447266"/>
       <use xlink:href="#ArialMT-65" x="239.0625"/>
       <use xlink:href="#ArialMT-72" x="294.677734"/>
       <use xlink:href="#ArialMT-61" x="327.978516"/>
       <use xlink:href="#ArialMT-74" x="383.59375"/>
       <use xlink:href="#ArialMT-69" x="411.376953"/>
       <use xlink:href="#ArialMT-76" x="433.59375"/>
       <use xlink:href="#ArialMT-65" x="483.59375"/>
      </g>
     </g>
    </g>
   </g>
   <g id="PolyCollection_1">
    <defs>
     <path id="m95a95383c9" d="M 55.547196 -250.56489 
L 55.547196 -250.570735 
L 59.636646 -250.578985 
L 63.726096 -250.59535 
L 67.815546 -250.61215 
L 71.904996 -250.61476 
L 75.994446 -250.602195 
L 80.083896 -250.590752 
L 84.173346 -250.588586 
L 88.262796 -250.589037 
L 92.352246 -250.589444 
L 96.441696 -250.5922 
L 100.531146 -250.597523 
L 104.620596 -250.606924 
L 108.710046 -250.616073 
L 112.799496 -250.613766 
L 116.888946 -250.603185 
L 120.978396 -250.603062 
L 125.067846 -250.619948 
L 129.157296 -250.644804 
L 133.246746 -250.675751 
L 137.336196 -250.715451 
L 141.425646 -250.750287 
L 145.515096 -250.756213 
L 149.604546 -250.730907 
L 153.693996 -250.705885 
L 157.783446 -250.727135 
L 161.872896 -250.827774 
L 165.962346 -250.994393 
L 170.051796 -251.165888 
L 174.141246 -251.292529 
L 178.230696 -251.395184 
L 182.320146 -251.529438 
L 186.409596 -251.693435 
L 190.499046 -251.870032 
L 194.588496 -252.127541 
L 198.677946 -252.532535 
L 202.767396 -253.032438 
L 206.856846 -253.550326 
L 210.946296 -254.126177 
L 215.035746 -254.863568 
L 219.125196 -255.767609 
L 223.214646 -256.743779 
L 227.304096 -257.728628 
L 231.393546 -258.716892 
L 235.482996 -259.781507 
L 239.572446 -261.100407 
L 243.661896 -262.797629 
L 247.751346 -264.80594 
L 251.840796 -267.028802 
L 255.930246 -269.652614 
L 260.019696 -272.950305 
L 264.109146 -276.631587 
L 268.198596 -280.075822 
L 272.288046 -283.103659 
L 276.377496 -285.74989 
L 280.466946 -288.026304 
L 284.556396 -290.343975 
L 288.645846 -293.148432 
L 292.735296 -296.224049 
L 296.824746 -298.999607 
L 300.914196 -301.121406 
L 305.003646 -302.451973 
L 309.093096 -302.96247 
L 313.182546 -302.731707 
L 317.271996 -301.814488 
L 321.361446 -300.285914 
L 325.450896 -298.310717 
L 329.540346 -296.154986 
L 333.629795 -294.02102 
L 337.719245 -291.717051 
L 341.808695 -288.969123 
L 345.898145 -285.809676 
L 349.987595 -282.466337 
L 354.077045 -279.221216 
L 358.166495 -276.191998 
L 362.255945 -273.231955 
L 366.345395 -270.249499 
L 370.434845 -267.431932 
L 374.524295 -264.920415 
L 378.613745 -262.625874 
L 382.703195 -260.599187 
L 386.792645 -259.011685 
L 390.882095 -257.734017 
L 394.971545 -256.466027 
L 399.060995 -255.185731 
L 403.150445 -254.100806 
L 407.239895 -253.315606 
L 411.329345 -252.738492 
L 415.418795 -252.244005 
L 419.508245 -251.811998 
L 423.597695 -251.467052 
L 427.687145 -251.213481 
L 431.776595 -251.052283 
L 435.866045 -250.953985 
L 439.955495 -250.857438 
L 444.044945 -250.74618 
L 448.134395 -250.654627 
L 452.223845 -250.602327 
L 456.313295 -250.579061 
L 460.402745 -250.570569 
L 460.402745 -250.565056 
L 460.402745 -250.565056 
L 456.313295 -250.556564 
L 452.223845 -250.533298 
L 448.134395 -250.480998 
L 444.044945 -250.389445 
L 439.955495 -250.278187 
L 435.866045 -250.18164 
L 431.776595 -250.083342 
L 427.687145 -249.922144 
L 423.597695 -249.668573 
L 419.508245 -249.323627 
L 415.418795 -248.89162 
L 411.329345 -248.397133 
L 407.239895 -247.820019 
L 403.150445 -247.034819 
L 399.060995 -245.949894 
L 394.971545 -244.669598 
L 390.882095 -243.401608 
L 386.792645 -242.12394 
L 382.703195 -240.536438 
L 378.613745 -238.509751 
L 374.524295 -236.21521 
L 370.434845 -233.703693 
L 366.345395 -230.886126 
L 362.255945 -227.90367 
L 358.166495 -224.943627 
L 354.077045 -221.914409 
L 349.987595 -218.669288 
L 345.898145 -215.325949 
L 341.808695 -212.166502 
L 337.719245 -209.418574 
L 333.629795 -207.114605 
L 329.540346 -204.980639 
L 325.450896 -202.824908 
L 321.361446 -200.849711 
L 317.271996 -199.321137 
L 313.182546 -198.403918 
L 309.093096 -198.173155 
L 305.003646 -198.683652 
L 300.914196 -200.014219 
L 296.824746 -202.136018 
L 292.735296 -204.911576 
L 288.645846 -207.987193 
L 284.556396 -210.79165 
L 280.466946 -213.109321 
L 276.377496 -215.385735 
L 272.288046 -218.031966 
L 268.198596 -221.059803 
L 264.109146 -224.504038 
L 260.019696 -228.18532 
L 255.930246 -231.483011 
L 251.840796 -234.106823 
L 247.751346 -236.329685 
L 243.661896 -238.337996 
L 239.572446 -240.035218 
L 235.482996 -241.354118 
L 231.393546 -242.418733 
L 227.304096 -243.406997 
L 223.214646 -244.391846 
L 219.125196 -245.368016 
L 215.035746 -246.272057 
L 210.946296 -247.009448 
L 206.856846 -247.585299 
L 202.767396 -248.103187 
L 198.677946 -248.60309 
L 194.588496 -249.008084 
L 190.499046 -249.265593 
L 186.409596 -249.44219 
L 182.320146 -249.606187 
L 178.230696 -249.740441 
L 174.141246 -249.843096 
L 170.051796 -249.969737 
L 165.962346 -250.141232 
L 161.872896 -250.307851 
L 157.783446 -250.40849 
L 153.693996 -250.42974 
L 149.604546 -250.404718 
L 145.515096 -250.379412 
L 141.425646 -250.385338 
L 137.336196 -250.420174 
L 133.246746 -250.459874 
L 129.157296 -250.490821 
L 125.067846 -250.515677 
L 120.978396 -250.532563 
L 116.888946 -250.53244 
L 112.799496 -250.521859 
L 108.710046 -250.519552 
L 104.620596 -250.528701 
L 100.531146 -250.538102 
L 96.441696 -250.543425 
L 92.352246 -250.546181 
L 88.262796 -250.546588 
L 84.173346 -250.547039 
L 80.083896 -250.544873 
L 75.994446 -250.53343 
L 71.904996 -250.520865 
L 67.815546 -250.523475 
L 63.726096 -250.540275 
L 59.636646 -250.55664 
L 55.547196 -250.56489 
z
" style="stroke: #262626; stroke-width: 1.25"/>
    </defs>
    <g clip-path="url(#pafea04407e)">
     <use xlink:href="#m95a95383c9" x="0" y="345.6" style="fill: #701070; stroke: #262626; stroke-width: 1.25"/>
    </g>
   </g>
   <g id="PolyCollection_2">
    <defs>
     <path id="m9ac72d962d" d="M 130.608138 -111.47878 
L 130.608138 -111.513095 
L 134.06114 -111.532506 
L 137.514141 -111.564043 
L 140.967143 -111.607815 
L 144.420144 -111.659857 
L 147.873146 -111.712643 
L 151.326147 -111.756962 
L 154.779149 -111.784337 
L 158.23215 -111.790116 
L 161.685152 -111.777103 
L 165.138153 -111.756864 
L 168.591155 -111.745125 
L 172.044156 -111.752863 
L 175.497158 -111.781096 
L 178.95016 -111.825807 
L 182.403161 -111.888832 
L 185.856163 -111.982639 
L 189.309164 -112.122289 
L 192.762166 -112.311626 
L 196.215167 -112.536593 
L 199.668169 -112.770506 
L 203.12117 -112.985345 
L 206.574172 -113.160821 
L 210.027173 -113.287509 
L 213.480175 -113.365478 
L 216.933176 -113.403587 
L 220.386178 -113.423694 
L 223.839179 -113.465557 
L 227.292181 -113.580943 
L 230.745182 -113.813678 
L 234.198184 -114.181681 
L 237.651185 -114.681976 
L 241.104187 -115.316321 
L 244.557188 -116.106583 
L 248.01019 -117.073511 
L 251.463192 -118.193758 
L 254.916193 -119.384255 
L 258.369195 -120.545323 
L 261.822196 -121.634551 
L 265.275198 -122.705253 
L 268.728199 -123.872782 
L 272.181201 -125.241527 
L 275.634202 -126.85986 
L 279.087204 -128.734378 
L 282.540205 -130.872909 
L 285.993207 -133.306485 
L 289.446208 -136.077527 
L 292.89921 -139.222406 
L 296.352211 -142.768122 
L 299.805213 -146.718494 
L 303.258214 -150.995068 
L 306.711216 -155.357595 
L 310.164217 -159.394931 
L 313.617219 -162.653444 
L 317.070221 -164.854465 
L 320.523222 -166.051871 
L 323.976224 -166.595248 
L 327.429225 -166.892964 
L 330.882227 -167.124687 
L 334.335228 -167.117563 
L 337.78823 -166.500097 
L 341.241231 -165.028658 
L 344.694233 -162.819496 
L 348.147234 -160.282486 
L 351.600236 -157.813094 
L 355.053237 -155.517323 
L 358.506239 -153.201913 
L 361.95924 -150.60364 
L 365.412242 -147.626448 
L 368.865243 -144.396858 
L 372.318245 -141.1489 
L 375.771246 -138.080393 
L 379.224248 -135.288542 
L 382.677249 -132.78986 
L 386.130251 -130.570851 
L 389.583253 -128.620136 
L 393.036254 -126.924617 
L 396.489256 -125.443982 
L 399.942257 -124.094548 
L 403.395259 -122.766443 
L 406.84826 -121.371291 
L 410.301262 -119.889601 
L 413.754263 -118.38269 
L 417.207265 -116.95969 
L 420.660266 -115.72287 
L 424.113268 -114.72543 
L 427.566269 -113.961895 
L 431.019271 -113.389344 
L 434.472272 -112.960935 
L 437.925274 -112.647555 
L 441.378275 -112.43423 
L 444.831277 -112.30091 
L 448.284278 -112.211516 
L 451.73728 -112.124536 
L 455.190281 -112.014582 
L 458.643283 -111.883705 
L 462.096285 -111.753287 
L 465.549286 -111.645884 
L 469.002288 -111.572176 
L 472.455289 -111.529637 
L 472.455289 -111.462238 
L 472.455289 -111.462238 
L 469.002288 -111.419699 
L 465.549286 -111.345991 
L 462.096285 -111.238588 
L 458.643283 -111.10817 
L 455.190281 -110.977293 
L 451.73728 -110.867339 
L 448.284278 -110.780359 
L 444.831277 -110.690965 
L 441.378275 -110.557645 
L 437.925274 -110.34432 
L 434.472272 -110.03094 
L 431.019271 -109.602531 
L 427.566269 -109.02998 
L 424.113268 -108.266445 
L 420.660266 -107.269005 
L 417.207265 -106.032185 
L 413.754263 -104.609185 
L 410.301262 -103.102274 
L 406.84826 -101.620584 
L 403.395259 -100.225432 
L 399.942257 -98.897327 
L 396.489256 -97.547893 
L 393.036254 -96.067258 
L 389.583253 -94.371739 
L 386.130251 -92.421024 
L 382.677249 -90.202015 
L 379.224248 -87.703333 
L 375.771246 -84.911482 
L 372.318245 -81.842975 
L 368.865243 -78.595017 
L 365.412242 -75.365427 
L 361.95924 -72.388235 
L 358.506239 -69.789962 
L 355.053237 -67.474552 
L 351.600236 -65.178781 
L 348.147234 -62.709389 
L 344.694233 -60.172379 
L 341.241231 -57.963217 
L 337.78823 -56.491778 
L 334.335228 -55.874312 
L 330.882227 -55.867188 
L 327.429225 -56.098911 
L 323.976224 -56.396627 
L 320.523222 -56.940004 
L 317.070221 -58.13741 
L 313.617219 -60.338431 
L 310.164217 -63.596944 
L 306.711216 -67.63428 
L 303.258214 -71.996807 
L 299.805213 -76.273381 
L 296.352211 -80.223753 
L 292.89921 -83.769469 
L 289.446208 -86.914348 
L 285.993207 -89.68539 
L 282.540205 -92.118966 
L 279.087204 -94.257497 
L 275.634202 -96.132015 
L 272.181201 -97.750348 
L 268.728199 -99.119093 
L 265.275198 -100.286622 
L 261.822196 -101.357324 
L 258.369195 -102.446552 
L 254.916193 -103.60762 
L 251.463192 -104.798117 
L 248.01019 -105.918364 
L 244.557188 -106.885292 
L 241.104187 -107.675554 
L 237.651185 -108.309899 
L 234.198184 -108.810194 
L 230.745182 -109.178197 
L 227.292181 -109.410932 
L 223.839179 -109.526318 
L 220.386178 -109.568181 
L 216.933176 -109.588288 
L 213.480175 -109.626397 
L 210.027173 -109.704366 
L 206.574172 -109.831054 
L 203.12117 -110.00653 
L 199.668169 -110.221369 
L 196.215167 -110.455282 
L 192.762166 -110.680249 
L 189.309164 -110.869586 
L 185.856163 -111.009236 
L 182.403161 -111.103043 
L 178.95016 -111.166068 
L 175.497158 -111.210779 
L 172.044156 -111.239012 
L 168.591155 -111.24675 
L 165.138153 -111.235011 
L 161.685152 -111.214772 
L 158.23215 -111.201759 
L 154.779149 -111.207538 
L 151.326147 -111.234913 
L 147.873146 -111.279232 
L 144.420144 -111.332018 
L 140.967143 -111.38406 
L 137.514141 -111.427832 
L 134.06114 -111.459369 
L 130.608138 -111.47878 
z
" style="stroke: #262626; stroke-width: 1.25"/>
    </defs>
    <g clip-path="url(#pafea04407e)">
     <use xlink:href="#m9ac72d962d" x="0" y="345.6" style="fill: #701070; stroke: #262626; stroke-width: 1.25"/>
    </g>
   </g>
   <g id="line2d_1">
    <path d="M 201.347887 95.032187 
L 418.894755 95.032187 
" clip-path="url(#pafea04407e)" style="fill: none; stroke: #262626; stroke-width: 1.875; stroke-linecap: round"/>
   </g>
   <g id="line2d_2">
    <path d="M 282.923009 95.032187 
L 337.340138 95.032187 
" clip-path="url(#pafea04407e)" style="fill: none; stroke: #262626; stroke-width: 5.625; stroke-linecap: round"/>
   </g>
   <g id="line2d_3">
    <path d="M 310.272461 95.032187 
" clip-path="url(#pafea04407e)" style="fill: none; stroke: #262626; stroke-width: 1.5; stroke-linecap: round"/>
    <defs>
     <path id="me6d4fbbe6d" d="M 0 2.34375 
L 0 -2.34375 
" style="stroke: #ffffff; stroke-width: 1.125"/>
    </defs>
    <g clip-path="url(#pafea04407e)">
     <use xlink:href="#me6d4fbbe6d" x="310.272461" y="95.032187" style="fill: #ffffff; stroke: #ffffff; stroke-width: 1.125"/>
    </g>
   </g>
   <g id="line2d_4">
    <path d="M 237.284988 234.104062 
L 429.204957 234.104062 
" clip-path="url(#pafea04407e)" style="fill: none; stroke: #262626; stroke-width: 1.875; stroke-linecap: round"/>
   </g>
   <g id="line2d_5">
    <path d="M 308.802998 234.104062 
L 357.287441 234.104062 
" clip-path="url(#pafea04407e)" style="fill: none; stroke: #262626; stroke-width: 5.625; stroke-linecap: round"/>
   </g>
   <g id="line2d_6">
    <path d="M 332.308875 234.104062 
" clip-path="url(#pafea04407e)" style="fill: none; stroke: #262626; stroke-width: 1.5; stroke-linecap: round"/>
    <g clip-path="url(#pafea04407e)">
     <use xlink:href="#me6d4fbbe6d" x="332.308875" y="234.104062" style="fill: #ffffff; stroke: #ffffff; stroke-width: 1.125"/>
    </g>
   </g>
   <g id="patch_3">
    <path d="M 71.89 303.64 
L 71.89 25.49625 
" style="fill: none; stroke: #ffffff; stroke-width: 0.8; stroke-linejoin: miter; stroke-linecap: square"/>
   </g>
   <g id="patch_4">
    <path d="M 450 303.64 
L 450 25.49625 
" style="fill: none; stroke: #ffffff; stroke-width: 0.8; stroke-linejoin: miter; stroke-linecap: square"/>
   </g>
   <g id="patch_5">
    <path d="M 71.89 303.64 
L 450 303.64 
" style="fill: none; stroke: #ffffff; stroke-width: 0.8; stroke-linejoin: miter; stroke-linecap: square"/>
   </g>
   <g id="patch_6">
    <path d="M 71.89 25.49625 
L 450 25.49625 
" style="fill: none; stroke: #ffffff; stroke-width: 0.8; stroke-linejoin: miter; stroke-linecap: square"/>
   </g>
   <g id="text_12">
    <!-- Competitive/Cooperative vs Rating -->
    <g style="fill: #262626" transform="translate(168.574062 19.49625) scale(0.12 -0.12)">
     <defs>
      <path id="ArialMT-2f" d="M 0 -78 
L 1328 4659 
L 1778 4659 
L 453 -78 
L 0 -78 
z
" transform="scale(0.015625)"/>
      <path id="ArialMT-20" transform="scale(0.015625)"/>
      <path id="ArialMT-73" d="M 197 991 
L 753 1078 
Q 800 744 1014 566 
Q 1228 388 1613 388 
Q 2000 388 2187 545 
Q 2375 703 2375 916 
Q 2375 1106 2209 1216 
Q 2094 1291 1634 1406 
Q 1016 1563 777 1677 
Q 538 1791 414 1992 
Q 291 2194 291 2438 
Q 291 2659 392 2848 
Q 494 3038 669 3163 
Q 800 3259 1026 3326 
Q 1253 3394 1513 3394 
Q 1903 3394 2198 3281 
Q 2494 3169 2634 2976 
Q 2775 2784 2828 2463 
L 2278 2388 
Q 2241 2644 2061 2787 
Q 1881 2931 1553 2931 
Q 1166 2931 1000 2803 
Q 834 2675 834 2503 
Q 834 2394 903 2306 
Q 972 2216 1119 2156 
Q 1203 2125 1616 2013 
Q 2213 1853 2448 1751 
Q 2684 1650 2818 1456 
Q 2953 1263 2953 975 
Q 2953 694 2789 445 
Q 2625 197 2315 61 
Q 2006 -75 1616 -75 
Q 969 -75 630 194 
Q 291 463 197 991 
z
" transform="scale(0.015625)"/>
     </defs>
     <use xlink:href="#ArialMT-43"/>
     <use xlink:href="#ArialMT-6f" x="72.216797"/>
     <use xlink:href="#ArialMT-6d" x="127.832031"/>
     <use xlink:href="#ArialMT-70" x="211.132812"/>
     <use xlink:href="#ArialMT-65" x="266.748047"/>
     <use xlink:href="#ArialMT-74" x="322.363281"/>
     <use xlink:href="#ArialMT-69" x="350.146484"/>
     <use xlink:href="#ArialMT-74" x="372.363281"/>
     <use xlink:href="#ArialMT-69" x="400.146484"/>
     <use xlink:href="#ArialMT-76" x="422.363281"/>
     <use xlink:href="#ArialMT-65" x="472.363281"/>
     <use xlink:href="#ArialMT-2f" x="527.978516"/>
     <use xlink:href="#ArialMT-43" x="555.761719"/>
     <use xlink:href="#ArialMT-6f" x="627.978516"/>
     <use xlink:href="#ArialMT-6f" x="683.59375"/>
     <use xlink:href="#ArialMT-70" x="739.208984"/>
     <use xlink:href="#ArialMT-65" x="794.824219"/>
     <use xlink:href="#ArialMT-72" x="850.439453"/>
     <use xlink:href="#ArialMT-61" x="883.740234"/>
     <use xlink:href="#ArialMT-74" x="939.355469"/>
     <use xlink:href="#ArialMT-69" x="967.138672"/>
     <use xlink:href="#ArialMT-76" x="989.355469"/>
     <use xlink:href="#ArialMT-65" x="1039.355469"/>
     <use xlink:href="#ArialMT-20" x="1094.970703"/>
     <use xlink:href="#ArialMT-76" x="1122.753906"/>
     <use xlink:href="#ArialMT-73" x="1172.753906"/>
     <use xlink:href="#ArialMT-20" x="1222.753906"/>
     <use xlink:href="#ArialMT-52" x="1250.537109"/>
     <use xlink:href="#ArialMT-61" x="1322.753906"/>
     <use xlink:href="#ArialMT-74" x="1378.369141"/>
     <use xlink:href="#ArialMT-69" x="1406.152344"/>
     <use xlink:href="#ArialMT-6e" x="1428.369141"/>
     <use xlink:href="#ArialMT-67" x="1483.984375"/>
    </g>
   </g>
  </g>
 </g>
 <defs>
  <clipPath id="pafea04407e">
   <rect x="71.89" y="25.49625" width="378.11" height="278.14375"/>
  </clipPath>
 </defs>
</svg>
