<?xml version="1.0" encoding="utf-8" standalone="no"?>
<!DOCTYPE svg PUBLIC "-//W3C//DTD SVG 1.1//EN"
  "http://www.w3.org/Graphics/SVG/1.1/DTD/svg11.dtd">
<svg xmlns:xlink="http://www.w3.org/1999/xlink" width="460.8pt" height="345.6pt" viewBox="0 0 460.8 345.6" xmlns="http://www.w3.org/2000/svg" version="1.1">
 <metadata>
  <rdf:RDF xmlns:dc="http://purl.org/dc/elements/1.1/" xmlns:cc="http://creativecommons.org/ns#" xmlns:rdf="http://www.w3.org/1999/02/22-rdf-syntax-ns#">
   <cc:Work>
    <dc:type rdf:resource="http://purl.org/dc/dcmitype/StillImage"/>
    <dc:date>2024-09-01T23:13:42.305899</dc:date>
    <dc:format>image/svg+xml</dc:format>
    <dc:creator>
     <cc:Agent>
      <dc:title>Matplotlib v3.9.2, https://matplotlib.org/</dc:title>
     </cc:Agent>
    </dc:creator>
   </cc:Work>
  </rdf:RDF>
 </metadata>
 <defs>
  <style type="text/css">*{stroke-linejoin: round; stroke-linecap: butt}</style>
 </defs>
 <g id="figure_1">
  <g id="patch_1">
   <path d="M 0 345.6 
L 460.8 345.6 
L 460.8 0 
L 0 0 
z
" style="fill: #ffffff"/>
  </g>
  <g id="axes_1">
   <g id="patch_2">
    <path d="M 69.55 317.72 
L 450 317.72 
L 450 25.49625 
L 69.55 25.49625 
z
" style="fill: #eaeaf2"/>
   </g>
   <g id="matplotlib.axis_1">
    <g id="xtick_1">
     <g id="text_1">
      <!-- 5 -->
      <g style="fill: #262626" transform="translate(116.667398 331.877812) scale(0.1 -0.1)">
       <defs>
        <path id="ArialMT-35" d="M 266 1200 
L 856 1250 
Q 922 819 1161 601 
Q 1400 384 1738 384 
Q 2144 384 2425 690 
Q 2706 997 2706 1503 
Q 2706 1984 2436 2262 
Q 2166 2541 1728 2541 
Q 1456 2541 1237 2417 
Q 1019 2294 894 2097 
L 366 2166 
L 809 4519 
L 3088 4519 
L 3088 3981 
L 1259 3981 
L 1013 2750 
Q 1425 3038 1878 3038 
Q 2478 3038 2890 2622 
Q 3303 2206 3303 1553 
Q 3303 931 2941 478 
Q 2500 -78 1738 -78 
Q 1113 -78 717 272 
Q 322 622 266 1200 
z
" transform="scale(0.015625)"/>
       </defs>
       <use xlink:href="#ArialMT-35"/>
      </g>
     </g>
    </g>
    <g id="xtick_2">
     <g id="text_2">
      <!-- 6 -->
      <g style="fill: #262626" transform="translate(188.291214 331.877812) scale(0.1 -0.1)">
       <defs>
        <path id="ArialMT-36" d="M 3184 3459 
L 2625 3416 
Q 2550 3747 2413 3897 
Q 2184 4138 1850 4138 
Q 1581 4138 1378 3988 
Q 1113 3794 959 3422 
Q 806 3050 800 2363 
Q 1003 2672 1297 2822 
Q 1591 2972 1913 2972 
Q 2475 2972 2870 2558 
Q 3266 2144 3266 1488 
Q 3266 1056 3080 686 
Q 2894 316 2569 119 
Q 2244 -78 1831 -78 
Q 1128 -78 684 439 
Q 241 956 241 2144 
Q 241 3472 731 4075 
Q 1159 4600 1884 4600 
Q 2425 4600 2770 4297 
Q 3116 3994 3184 3459 
z
M 888 1484 
Q 888 1194 1011 928 
Q 1134 663 1356 523 
Q 1578 384 1822 384 
Q 2178 384 2434 671 
Q 2691 959 2691 1453 
Q 2691 1928 2437 2201 
Q 2184 2475 1800 2475 
Q 1419 2475 1153 2201 
Q 888 1928 888 1484 
z
" transform="scale(0.015625)"/>
       </defs>
       <use xlink:href="#ArialMT-36"/>
      </g>
     </g>
    </g>
    <g id="xtick_3">
     <g id="text_3">
      <!-- 7 -->
      <g style="fill: #262626" transform="translate(259.915031 331.877812) scale(0.1 -0.1)">
       <defs>
        <path id="ArialMT-37" d="M 303 3981 
L 303 4522 
L 3269 4522 
L 3269 4084 
Q 2831 3619 2401 2847 
Q 1972 2075 1738 1259 
Q 1569 684 1522 0 
L 944 0 
Q 953 541 1156 1306 
Q 1359 2072 1739 2783 
Q 2119 3494 2547 3981 
L 303 3981 
z
" transform="scale(0.015625)"/>
       </defs>
       <use xlink:href="#ArialMT-37"/>
      </g>
     </g>
    </g>
    <g id="xtick_4">
     <g id="text_4">
      <!-- 8 -->
      <g style="fill: #262626" transform="translate(331.538847 331.877812) scale(0.1 -0.1)">
       <defs>
        <path id="ArialMT-38" d="M 1131 2484 
Q 781 2613 612 2850 
Q 444 3088 444 3419 
Q 444 3919 803 4259 
Q 1163 4600 1759 4600 
Q 2359 4600 2725 4251 
Q 3091 3903 3091 3403 
Q 3091 3084 2923 2848 
Q 2756 2613 2416 2484 
Q 2838 2347 3058 2040 
Q 3278 1734 3278 1309 
Q 3278 722 2862 322 
Q 2447 -78 1769 -78 
Q 1091 -78 675 323 
Q 259 725 259 1325 
Q 259 1772 486 2073 
Q 713 2375 1131 2484 
z
M 1019 3438 
Q 1019 3113 1228 2906 
Q 1438 2700 1772 2700 
Q 2097 2700 2305 2904 
Q 2513 3109 2513 3406 
Q 2513 3716 2298 3927 
Q 2084 4138 1766 4138 
Q 1444 4138 1231 3931 
Q 1019 3725 1019 3438 
z
M 838 1322 
Q 838 1081 952 856 
Q 1066 631 1291 507 
Q 1516 384 1775 384 
Q 2178 384 2440 643 
Q 2703 903 2703 1303 
Q 2703 1709 2433 1975 
Q 2163 2241 1756 2241 
Q 1359 2241 1098 1978 
Q 838 1716 838 1322 
z
" transform="scale(0.015625)"/>
       </defs>
       <use xlink:href="#ArialMT-38"/>
      </g>
     </g>
    </g>
    <g id="xtick_5">
     <g id="text_5">
      <!-- 9 -->
      <g style="fill: #262626" transform="translate(403.162663 331.877812) scale(0.1 -0.1)">
       <defs>
        <path id="ArialMT-39" d="M 350 1059 
L 891 1109 
Q 959 728 1153 556 
Q 1347 384 1650 384 
Q 1909 384 2104 503 
Q 2300 622 2425 820 
Q 2550 1019 2634 1356 
Q 2719 1694 2719 2044 
Q 2719 2081 2716 2156 
Q 2547 1888 2255 1720 
Q 1963 1553 1622 1553 
Q 1053 1553 659 1965 
Q 266 2378 266 3053 
Q 266 3750 677 4175 
Q 1088 4600 1706 4600 
Q 2153 4600 2523 4359 
Q 2894 4119 3086 3673 
Q 3278 3228 3278 2384 
Q 3278 1506 3087 986 
Q 2897 466 2520 194 
Q 2144 -78 1638 -78 
Q 1100 -78 759 220 
Q 419 519 350 1059 
z
M 2653 3081 
Q 2653 3566 2395 3850 
Q 2138 4134 1775 4134 
Q 1400 4134 1122 3828 
Q 844 3522 844 3034 
Q 844 2597 1108 2323 
Q 1372 2050 1759 2050 
Q 2150 2050 2401 2323 
Q 2653 2597 2653 3081 
z
" transform="scale(0.015625)"/>
       </defs>
       <use xlink:href="#ArialMT-39"/>
      </g>
     </g>
    </g>
   </g>
   <g id="matplotlib.axis_2">
    <g id="ytick_1">
     <g id="text_6">
      <!-- competitive -->
      <g style="fill: #262626" transform="translate(11.976563 102.131094) scale(0.1 -0.1)">
       <defs>
        <path id="ArialMT-63" d="M 2588 1216 
L 3141 1144 
Q 3050 572 2676 248 
Q 2303 -75 1759 -75 
Q 1078 -75 664 370 
Q 250 816 250 1647 
Q 250 2184 428 2587 
Q 606 2991 970 3192 
Q 1334 3394 1763 3394 
Q 2303 3394 2647 3120 
Q 2991 2847 3088 2344 
L 2541 2259 
Q 2463 2594 2264 2762 
Q 2066 2931 1784 2931 
Q 1359 2931 1093 2626 
Q 828 2322 828 1663 
Q 828 994 1084 691 
Q 1341 388 1753 388 
Q 2084 388 2306 591 
Q 2528 794 2588 1216 
z
" transform="scale(0.015625)"/>
        <path id="ArialMT-6f" d="M 213 1659 
Q 213 2581 725 3025 
Q 1153 3394 1769 3394 
Q 2453 3394 2887 2945 
Q 3322 2497 3322 1706 
Q 3322 1066 3130 698 
Q 2938 331 2570 128 
Q 2203 -75 1769 -75 
Q 1072 -75 642 372 
Q 213 819 213 1659 
z
M 791 1659 
Q 791 1022 1069 705 
Q 1347 388 1769 388 
Q 2188 388 2466 706 
Q 2744 1025 2744 1678 
Q 2744 2294 2464 2611 
Q 2184 2928 1769 2928 
Q 1347 2928 1069 2612 
Q 791 2297 791 1659 
z
" transform="scale(0.015625)"/>
        <path id="ArialMT-6d" d="M 422 0 
L 422 3319 
L 925 3319 
L 925 2853 
Q 1081 3097 1340 3245 
Q 1600 3394 1931 3394 
Q 2300 3394 2536 3241 
Q 2772 3088 2869 2813 
Q 3263 3394 3894 3394 
Q 4388 3394 4653 3120 
Q 4919 2847 4919 2278 
L 4919 0 
L 4359 0 
L 4359 2091 
Q 4359 2428 4304 2576 
Q 4250 2725 4106 2815 
Q 3963 2906 3769 2906 
Q 3419 2906 3187 2673 
Q 2956 2441 2956 1928 
L 2956 0 
L 2394 0 
L 2394 2156 
Q 2394 2531 2256 2718 
Q 2119 2906 1806 2906 
Q 1569 2906 1367 2781 
Q 1166 2656 1075 2415 
Q 984 2175 984 1722 
L 984 0 
L 422 0 
z
" transform="scale(0.015625)"/>
        <path id="ArialMT-70" d="M 422 -1272 
L 422 3319 
L 934 3319 
L 934 2888 
Q 1116 3141 1344 3267 
Q 1572 3394 1897 3394 
Q 2322 3394 2647 3175 
Q 2972 2956 3137 2557 
Q 3303 2159 3303 1684 
Q 3303 1175 3120 767 
Q 2938 359 2589 142 
Q 2241 -75 1856 -75 
Q 1575 -75 1351 44 
Q 1128 163 984 344 
L 984 -1272 
L 422 -1272 
z
M 931 1641 
Q 931 1000 1190 694 
Q 1450 388 1819 388 
Q 2194 388 2461 705 
Q 2728 1022 2728 1688 
Q 2728 2322 2467 2637 
Q 2206 2953 1844 2953 
Q 1484 2953 1207 2617 
Q 931 2281 931 1641 
z
" transform="scale(0.015625)"/>
        <path id="ArialMT-65" d="M 2694 1069 
L 3275 997 
Q 3138 488 2766 206 
Q 2394 -75 1816 -75 
Q 1088 -75 661 373 
Q 234 822 234 1631 
Q 234 2469 665 2931 
Q 1097 3394 1784 3394 
Q 2450 3394 2872 2941 
Q 3294 2488 3294 1666 
Q 3294 1616 3291 1516 
L 816 1516 
Q 847 969 1125 678 
Q 1403 388 1819 388 
Q 2128 388 2347 550 
Q 2566 713 2694 1069 
z
M 847 1978 
L 2700 1978 
Q 2663 2397 2488 2606 
Q 2219 2931 1791 2931 
Q 1403 2931 1139 2672 
Q 875 2413 847 1978 
z
" transform="scale(0.015625)"/>
        <path id="ArialMT-74" d="M 1650 503 
L 1731 6 
Q 1494 -44 1306 -44 
Q 1000 -44 831 53 
Q 663 150 594 308 
Q 525 466 525 972 
L 525 2881 
L 113 2881 
L 113 3319 
L 525 3319 
L 525 4141 
L 1084 4478 
L 1084 3319 
L 1650 3319 
L 1650 2881 
L 1084 2881 
L 1084 941 
Q 1084 700 1114 631 
Q 1144 563 1211 522 
Q 1278 481 1403 481 
Q 1497 481 1650 503 
z
" transform="scale(0.015625)"/>
        <path id="ArialMT-69" d="M 425 3934 
L 425 4581 
L 988 4581 
L 988 3934 
L 425 3934 
z
M 425 0 
L 425 3319 
L 988 3319 
L 988 0 
L 425 0 
z
" transform="scale(0.015625)"/>
        <path id="ArialMT-76" d="M 1344 0 
L 81 3319 
L 675 3319 
L 1388 1331 
Q 1503 1009 1600 663 
Q 1675 925 1809 1294 
L 2547 3319 
L 3125 3319 
L 1869 0 
L 1344 0 
z
" transform="scale(0.015625)"/>
       </defs>
       <use xlink:href="#ArialMT-63"/>
       <use xlink:href="#ArialMT-6f" x="50"/>
       <use xlink:href="#ArialMT-6d" x="105.615234"/>
       <use xlink:href="#ArialMT-70" x="188.916016"/>
       <use xlink:href="#ArialMT-65" x="244.53125"/>
       <use xlink:href="#ArialMT-74" x="300.146484"/>
       <use xlink:href="#ArialMT-69" x="327.929688"/>
       <use xlink:href="#ArialMT-74" x="350.146484"/>
       <use xlink:href="#ArialMT-69" x="377.929688"/>
       <use xlink:href="#ArialMT-76" x="400.146484"/>
       <use xlink:href="#ArialMT-65" x="450.146484"/>
      </g>
     </g>
    </g>
    <g id="ytick_2">
     <g id="text_7">
      <!-- cooperative -->
      <g style="fill: #262626" transform="translate(10.854688 248.242969) scale(0.1 -0.1)">
       <defs>
        <path id="ArialMT-72" d="M 416 0 
L 416 3319 
L 922 3319 
L 922 2816 
Q 1116 3169 1280 3281 
Q 1444 3394 1641 3394 
Q 1925 3394 2219 3213 
L 2025 2691 
Q 1819 2813 1613 2813 
Q 1428 2813 1281 2702 
Q 1134 2591 1072 2394 
Q 978 2094 978 1738 
L 978 0 
L 416 0 
z
" transform="scale(0.015625)"/>
        <path id="ArialMT-61" d="M 2588 409 
Q 2275 144 1986 34 
Q 1697 -75 1366 -75 
Q 819 -75 525 192 
Q 231 459 231 875 
Q 231 1119 342 1320 
Q 453 1522 633 1644 
Q 813 1766 1038 1828 
Q 1203 1872 1538 1913 
Q 2219 1994 2541 2106 
Q 2544 2222 2544 2253 
Q 2544 2597 2384 2738 
Q 2169 2928 1744 2928 
Q 1347 2928 1158 2789 
Q 969 2650 878 2297 
L 328 2372 
Q 403 2725 575 2942 
Q 747 3159 1072 3276 
Q 1397 3394 1825 3394 
Q 2250 3394 2515 3294 
Q 2781 3194 2906 3042 
Q 3031 2891 3081 2659 
Q 3109 2516 3109 2141 
L 3109 1391 
Q 3109 606 3145 398 
Q 3181 191 3288 0 
L 2700 0 
Q 2613 175 2588 409 
z
M 2541 1666 
Q 2234 1541 1622 1453 
Q 1275 1403 1131 1340 
Q 988 1278 909 1158 
Q 831 1038 831 891 
Q 831 666 1001 516 
Q 1172 366 1500 366 
Q 1825 366 2078 508 
Q 2331 650 2450 897 
Q 2541 1088 2541 1459 
L 2541 1666 
z
" transform="scale(0.015625)"/>
       </defs>
       <use xlink:href="#ArialMT-63"/>
       <use xlink:href="#ArialMT-6f" x="50"/>
       <use xlink:href="#ArialMT-6f" x="105.615234"/>
       <use xlink:href="#ArialMT-70" x="161.230469"/>
       <use xlink:href="#ArialMT-65" x="216.845703"/>
       <use xlink:href="#ArialMT-72" x="272.460938"/>
       <use xlink:href="#ArialMT-61" x="305.761719"/>
       <use xlink:href="#ArialMT-74" x="361.376953"/>
       <use xlink:href="#ArialMT-69" x="389.160156"/>
       <use xlink:href="#ArialMT-76" x="411.376953"/>
       <use xlink:href="#ArialMT-65" x="461.376953"/>
      </g>
     </g>
    </g>
   </g>
   <g id="PolyCollection_1">
    <defs>
     <path id="m6f25367f10" d="M 86.843182 -247.009509 
L 86.843182 -247.086116 
L 89.979591 -247.118254 
L 93.115999 -247.166415 
L 96.252408 -247.230993 
L 99.388817 -247.307954 
L 102.525226 -247.388555 
L 105.661634 -247.461272 
L 108.798043 -247.515726 
L 111.934452 -247.547135 
L 115.070861 -247.559027 
L 118.207269 -247.562472 
L 121.343678 -247.571735 
L 124.480087 -247.598457 
L 127.616496 -247.647699 
L 130.752904 -247.718216 
L 133.889313 -247.806408 
L 137.025722 -247.910616 
L 140.162131 -248.032347 
L 143.29854 -248.174037 
L 146.434948 -248.33634 
L 149.571357 -248.518033 
L 152.707766 -248.718123 
L 155.844175 -248.936293 
L 158.980583 -249.168835 
L 162.116992 -249.402333 
L 165.253401 -249.611623 
L 168.38981 -249.76698 
L 171.526218 -249.848709 
L 174.662627 -249.861049 
L 177.799036 -249.836842 
L 180.935445 -249.829909 
L 184.071853 -249.899009 
L 187.208262 -250.091124 
L 190.344671 -250.431044 
L 193.48108 -250.920573 
L 196.617489 -251.546535 
L 199.753897 -252.293924 
L 202.890306 -253.159194 
L 206.026715 -254.158485 
L 209.163124 -255.326228 
L 212.299532 -256.702106 
L 215.435941 -258.309732 
L 218.57235 -260.137135 
L 221.708759 -262.131957 
L 224.845167 -264.218283 
L 227.981576 -266.32876 
L 231.117985 -268.434519 
L 234.254394 -270.556032 
L 237.390802 -272.750715 
L 240.527211 -275.087619 
L 243.66362 -277.62444 
L 246.800029 -280.395304 
L 249.936437 -283.406875 
L 253.072846 -286.634855 
L 256.209255 -290.016076 
L 259.345664 -293.439142 
L 262.482073 -296.742495 
L 265.618481 -299.728754 
L 268.75489 -302.198726 
L 271.891299 -303.999958 
L 275.027708 -305.075635 
L 278.164116 -305.492562 
L 281.300525 -305.427367 
L 284.436934 -305.103747 
L 287.573343 -304.699618 
L 290.709751 -304.267168 
L 293.84616 -303.711131 
L 296.982569 -302.842079 
L 300.118978 -301.47706 
L 303.255386 -299.530343 
L 306.391795 -297.045017 
L 309.528204 -294.15643 
L 312.664613 -291.020989 
L 315.801021 -287.758434 
L 318.93743 -284.436001 
L 322.073839 -281.088641 
L 325.210248 -277.748237 
L 328.346657 -274.458624 
L 331.483065 -271.27225 
L 334.619474 -268.239537 
L 337.755883 -265.402782 
L 340.892292 -262.797285 
L 344.0287 -260.454374 
L 347.165109 -258.400283 
L 350.301518 -256.649637 
L 353.437927 -255.197402 
L 356.574335 -254.014752 
L 359.710744 -253.052193 
L 362.847153 -252.249162 
L 365.983562 -251.546285 
L 369.11997 -250.896108 
L 372.256379 -250.269917 
L 375.392788 -249.660016 
L 378.529197 -249.077391 
L 381.665605 -248.544944 
L 384.802014 -248.087713 
L 387.938423 -247.723221 
L 391.074832 -247.455648 
L 394.211241 -247.275706 
L 397.347649 -247.165224 
L 397.347649 -246.930401 
L 397.347649 -246.930401 
L 394.211241 -246.819919 
L 391.074832 -246.639977 
L 387.938423 -246.372404 
L 384.802014 -246.007912 
L 381.665605 -245.550681 
L 378.529197 -245.018234 
L 375.392788 -244.435609 
L 372.256379 -243.825708 
L 369.11997 -243.199517 
L 365.983562 -242.54934 
L 362.847153 -241.846463 
L 359.710744 -241.043432 
L 356.574335 -240.080873 
L 353.437927 -238.898223 
L 350.301518 -237.445988 
L 347.165109 -235.695342 
L 344.0287 -233.641251 
L 340.892292 -231.29834 
L 337.755883 -228.692843 
L 334.619474 -225.856088 
L 331.483065 -222.823375 
L 328.346657 -219.637001 
L 325.210248 -216.347388 
L 322.073839 -213.006984 
L 318.93743 -209.659624 
L 315.801021 -206.337191 
L 312.664613 -203.074636 
L 309.528204 -199.939195 
L 306.391795 -197.050608 
L 303.255386 -194.565282 
L 300.118978 -192.618565 
L 296.982569 -191.253546 
L 293.84616 -190.384494 
L 290.709751 -189.828457 
L 287.573343 -189.396007 
L 284.436934 -188.991878 
L 281.300525 -188.668258 
L 278.164116 -188.603062 
L 275.027708 -189.01999 
L 271.891299 -190.095667 
L 268.75489 -191.896899 
L 265.618481 -194.366871 
L 262.482073 -197.35313 
L 259.345664 -200.656483 
L 256.209255 -204.079549 
L 253.072846 -207.46077 
L 249.936437 -210.68875 
L 246.800029 -213.700321 
L 243.66362 -216.471185 
L 240.527211 -219.008006 
L 237.390802 -221.34491 
L 234.254394 -223.539593 
L 231.117985 -225.661106 
L 227.981576 -227.766865 
L 224.845167 -229.877342 
L 221.708759 -231.963668 
L 218.57235 -233.95849 
L 215.435941 -235.785893 
L 212.299532 -237.393519 
L 209.163124 -238.769397 
L 206.026715 -239.93714 
L 202.890306 -240.936431 
L 199.753897 -241.801701 
L 196.617489 -242.54909 
L 193.48108 -243.175052 
L 190.344671 -243.664581 
L 187.208262 -244.004501 
L 184.071853 -244.196616 
L 180.935445 -244.265716 
L 177.799036 -244.258783 
L 174.662627 -244.234576 
L 171.526218 -244.246916 
L 168.38981 -244.328645 
L 165.253401 -244.484002 
L 162.116992 -244.693292 
L 158.980583 -244.92679 
L 155.844175 -245.159332 
L 152.707766 -245.377502 
L 149.571357 -245.577592 
L 146.434948 -245.759285 
L 143.29854 -245.921588 
L 140.162131 -246.063278 
L 137.025722 -246.185009 
L 133.889313 -246.289217 
L 130.752904 -246.377409 
L 127.616496 -246.447926 
L 124.480087 -246.497168 
L 121.343678 -246.52389 
L 118.207269 -246.533153 
L 115.070861 -246.536598 
L 111.934452 -246.54849 
L 108.798043 -246.579899 
L 105.661634 -246.634353 
L 102.525226 -246.70707 
L 99.388817 -246.787671 
L 96.252408 -246.864632 
L 93.115999 -246.92921 
L 89.979591 -246.977371 
L 86.843182 -247.009509 
z
" style="stroke: #262626; stroke-width: 1.25"/>
    </defs>
    <g clip-path="url(#peeb5246eda)">
     <use xlink:href="#m6f25367f10" x="0" y="345.6" style="fill: #701070; stroke: #262626; stroke-width: 1.25"/>
    </g>
   </g>
   <g id="PolyCollection_2">
    <defs>
     <path id="mf20e35a266" d="M 183.327701 -100.743972 
L 183.327701 -101.127903 
L 185.846682 -101.212745 
L 188.365663 -101.324841 
L 190.884644 -101.468902 
L 193.403625 -101.649347 
L 195.922606 -101.870206 
L 198.441587 -102.135256 
L 200.960568 -102.448423 
L 203.479549 -102.814453 
L 205.99853 -103.239747 
L 208.517511 -103.733186 
L 211.036492 -104.306711 
L 213.555473 -104.975431 
L 216.074454 -105.757114 
L 218.593435 -106.671048 
L 221.112416 -107.736447 
L 223.631397 -108.970721 
L 226.150378 -110.388003 
L 228.669359 -111.998281 
L 231.18834 -113.807295 
L 233.707321 -115.817059 
L 236.226302 -118.026595 
L 238.745283 -120.432254 
L 241.264264 -123.027015 
L 243.783245 -125.798388 
L 246.302226 -128.725051 
L 248.821207 -131.772884 
L 251.340188 -134.891584 
L 253.859169 -138.01324 
L 256.37815 -141.054078 
L 258.897131 -143.919997 
L 261.416112 -146.515622 
L 263.935093 -148.755645 
L 266.454074 -150.576452 
L 268.973055 -151.945717 
L 271.492036 -152.867842 
L 274.011017 -153.383856 
L 276.529998 -153.565487 
L 279.048979 -153.504261 
L 281.56796 -153.297504 
L 284.086941 -153.033685 
L 286.605922 -152.779633 
L 289.124902 -152.571747 
L 291.643883 -152.412572 
L 294.162864 -152.273085 
L 296.681845 -152.100093 
L 299.200826 -151.827269 
L 301.719807 -151.387796 
L 304.238788 -150.726414 
L 306.757769 -149.808832 
L 309.27675 -148.627063 
L 311.795731 -147.200027 
L 314.314712 -145.569705 
L 316.833693 -143.793933 
L 319.352674 -141.937454 
L 321.871655 -140.063018 
L 324.390636 -138.224068 
L 326.909617 -136.459994 
L 329.428598 -134.794279 
L 331.947579 -133.235225 
L 334.46656 -131.778528 
L 336.985541 -130.410803 
L 339.504522 -129.113229 
L 342.023503 -127.86474 
L 344.542484 -126.644463 
L 347.061465 -125.433365 
L 349.580446 -124.215261 
L 352.099427 -122.977402 
L 354.618408 -121.710862 
L 357.137389 -120.410884 
L 359.65637 -119.077242 
L 362.175351 -117.714599 
L 364.694332 -116.332723 
L 367.213313 -114.946399 
L 369.732294 -113.574864 
L 372.251275 -112.240635 
L 374.770256 -110.967724 
L 377.289237 -109.779378 
L 379.808218 -108.695602 
L 382.327199 -107.730849 
L 384.84618 -106.89227 
L 387.365161 -106.178863 
L 389.884142 -105.581722 
L 392.403123 -105.085365 
L 394.922104 -104.669947 
L 397.441085 -104.313954 
L 399.960065 -103.996944 
L 402.479046 -103.701853 
L 404.998027 -103.416542 
L 407.517008 -103.134411 
L 410.035989 -102.854075 
L 412.55497 -102.578316 
L 415.073951 -102.312574 
L 417.592932 -102.063331 
L 420.111913 -101.836667 
L 422.630894 -101.637197 
L 425.149875 -101.46749 
L 427.668856 -101.32795 
L 430.187837 -101.217065 
L 432.706818 -101.131899 
L 432.706818 -100.739976 
L 432.706818 -100.739976 
L 430.187837 -100.65481 
L 427.668856 -100.543925 
L 425.149875 -100.404385 
L 422.630894 -100.234678 
L 420.111913 -100.035208 
L 417.592932 -99.808544 
L 415.073951 -99.559301 
L 412.55497 -99.293559 
L 410.035989 -99.0178 
L 407.517008 -98.737464 
L 404.998027 -98.455333 
L 402.479046 -98.170022 
L 399.960065 -97.874931 
L 397.441085 -97.557921 
L 394.922104 -97.201928 
L 392.403123 -96.78651 
L 389.884142 -96.290153 
L 387.365161 -95.693012 
L 384.84618 -94.979605 
L 382.327199 -94.141026 
L 379.808218 -93.176273 
L 377.289237 -92.092497 
L 374.770256 -90.904151 
L 372.251275 -89.63124 
L 369.732294 -88.297011 
L 367.213313 -86.925476 
L 364.694332 -85.539152 
L 362.175351 -84.157276 
L 359.65637 -82.794633 
L 357.137389 -81.460991 
L 354.618408 -80.161013 
L 352.099427 -78.894473 
L 349.580446 -77.656614 
L 347.061465 -76.43851 
L 344.542484 -75.227412 
L 342.023503 -74.007135 
L 339.504522 -72.758646 
L 336.985541 -71.461072 
L 334.46656 -70.093347 
L 331.947579 -68.63665 
L 329.428598 -67.077596 
L 326.909617 -65.411881 
L 324.390636 -63.647807 
L 321.871655 -61.808857 
L 319.352674 -59.934421 
L 316.833693 -58.077942 
L 314.314712 -56.30217 
L 311.795731 -54.671848 
L 309.27675 -53.244812 
L 306.757769 -52.063043 
L 304.238788 -51.145461 
L 301.719807 -50.484079 
L 299.200826 -50.044606 
L 296.681845 -49.771782 
L 294.162864 -49.59879 
L 291.643883 -49.459303 
L 289.124902 -49.300128 
L 286.605922 -49.092242 
L 284.086941 -48.83819 
L 281.56796 -48.574371 
L 279.048979 -48.367614 
L 276.529998 -48.306388 
L 274.011017 -48.488019 
L 271.492036 -49.004033 
L 268.973055 -49.926158 
L 266.454074 -51.295423 
L 263.935093 -53.11623 
L 261.416112 -55.356253 
L 258.897131 -57.951878 
L 256.37815 -60.817797 
L 253.859169 -63.858635 
L 251.340188 -66.980291 
L 248.821207 -70.098991 
L 246.302226 -73.146824 
L 243.783245 -76.073487 
L 241.264264 -78.84486 
L 238.745283 -81.439621 
L 236.226302 -83.84528 
L 233.707321 -86.054816 
L 231.18834 -88.06458 
L 228.669359 -89.873594 
L 226.150378 -91.483872 
L 223.631397 -92.901154 
L 221.112416 -94.135428 
L 218.593435 -95.200827 
L 216.074454 -96.114761 
L 213.555473 -96.896444 
L 211.036492 -97.565164 
L 208.517511 -98.138689 
L 205.99853 -98.632128 
L 203.479549 -99.057422 
L 200.960568 -99.423452 
L 198.441587 -99.736619 
L 195.922606 -100.001669 
L 193.403625 -100.222528 
L 190.884644 -100.402973 
L 188.365663 -100.547034 
L 185.846682 -100.65913 
L 183.327701 -100.743972 
z
" style="stroke: #262626; stroke-width: 1.25"/>
    </defs>
    <g clip-path="url(#peeb5246eda)">
     <use xlink:href="#mf20e35a266" x="0" y="345.6" style="fill: #701070; stroke: #262626; stroke-width: 1.25"/>
    </g>
   </g>
   <g id="line2d_1">
    <path d="M 189.890606 98.552187 
L 373.118653 98.552187 
" clip-path="url(#peeb5246eda)" style="fill: none; stroke: #262626; stroke-width: 1.875; stroke-linecap: round"/>
   </g>
   <g id="line2d_2">
    <path d="M 258.441045 98.552187 
L 305.815365 98.552187 
" clip-path="url(#peeb5246eda)" style="fill: none; stroke: #262626; stroke-width: 5.625; stroke-linecap: round"/>
   </g>
   <g id="line2d_3">
    <path d="M 281.622451 98.552187 
" clip-path="url(#peeb5246eda)" style="fill: none; stroke: #262626; stroke-width: 1.5; stroke-linecap: round"/>
    <defs>
     <path id="m141fce258c" d="M 0 2.34375 
L 0 -2.34375 
" style="stroke: #ffffff; stroke-width: 1.125"/>
    </defs>
    <g clip-path="url(#peeb5246eda)">
     <use xlink:href="#m141fce258c" x="281.622451" y="98.552187" style="fill: #ffffff; stroke: #ffffff; stroke-width: 1.125"/>
    </g>
   </g>
   <g id="line2d_4">
    <path d="M 211.823968 244.664062 
L 394.499795 244.664062 
" clip-path="url(#peeb5246eda)" style="fill: none; stroke: #262626; stroke-width: 1.875; stroke-linecap: round"/>
   </g>
   <g id="line2d_5">
    <path d="M 269.25069 244.664062 
L 321.650316 244.664062 
" clip-path="url(#peeb5246eda)" style="fill: none; stroke: #262626; stroke-width: 5.625; stroke-linecap: round"/>
   </g>
   <g id="line2d_6">
    <path d="M 295.396785 244.664062 
" clip-path="url(#peeb5246eda)" style="fill: none; stroke: #262626; stroke-width: 1.5; stroke-linecap: round"/>
    <g clip-path="url(#peeb5246eda)">
     <use xlink:href="#m141fce258c" x="295.396785" y="244.664062" style="fill: #ffffff; stroke: #ffffff; stroke-width: 1.125"/>
    </g>
   </g>
   <g id="patch_3">
    <path d="M 69.55 317.72 
L 69.55 25.49625 
" style="fill: none; stroke: #ffffff; stroke-width: 0.8; stroke-linejoin: miter; stroke-linecap: square"/>
   </g>
   <g id="patch_4">
    <path d="M 450 317.72 
L 450 25.49625 
" style="fill: none; stroke: #ffffff; stroke-width: 0.8; stroke-linejoin: miter; stroke-linecap: square"/>
   </g>
   <g id="patch_5">
    <path d="M 69.55 317.72 
L 450 317.72 
" style="fill: none; stroke: #ffffff; stroke-width: 0.8; stroke-linejoin: miter; stroke-linecap: square"/>
   </g>
   <g id="patch_6">
    <path d="M 69.55 25.49625 
L 450 25.49625 
" style="fill: none; stroke: #ffffff; stroke-width: 0.8; stroke-linejoin: miter; stroke-linecap: square"/>
   </g>
   <g id="text_8">
    <!-- cooperative -->
    <g style="fill: #262626" transform="translate(228.757812 19.49625) scale(0.12 -0.12)">
     <use xlink:href="#ArialMT-63"/>
     <use xlink:href="#ArialMT-6f" x="50"/>
     <use xlink:href="#ArialMT-6f" x="105.615234"/>
     <use xlink:href="#ArialMT-70" x="161.230469"/>
     <use xlink:href="#ArialMT-65" x="216.845703"/>
     <use xlink:href="#ArialMT-72" x="272.460938"/>
     <use xlink:href="#ArialMT-61" x="305.761719"/>
     <use xlink:href="#ArialMT-74" x="361.376953"/>
     <use xlink:href="#ArialMT-69" x="389.160156"/>
     <use xlink:href="#ArialMT-76" x="411.376953"/>
     <use xlink:href="#ArialMT-65" x="461.376953"/>
    </g>
   </g>
  </g>
 </g>
 <defs>
  <clipPath id="peeb5246eda">
   <rect x="69.55" y="25.49625" width="380.45" height="292.22375"/>
  </clipPath>
 </defs>
</svg>
