<?xml version="1.0" encoding="utf-8" standalone="no"?>
<!DOCTYPE svg PUBLIC "-//W3C//DTD SVG 1.1//EN"
  "http://www.w3.org/Graphics/SVG/1.1/DTD/svg11.dtd">
<svg xmlns:xlink="http://www.w3.org/1999/xlink" width="460.8pt" height="345.6pt" viewBox="0 0 460.8 345.6" xmlns="http://www.w3.org/2000/svg" version="1.1">
 <metadata>
  <rdf:RDF xmlns:dc="http://purl.org/dc/elements/1.1/" xmlns:cc="http://creativecommons.org/ns#" xmlns:rdf="http://www.w3.org/1999/02/22-rdf-syntax-ns#">
   <cc:Work>
    <dc:type rdf:resource="http://purl.org/dc/dcmitype/StillImage"/>
    <dc:date>2024-09-02T22:49:06.032811</dc:date>
    <dc:format>image/svg+xml</dc:format>
    <dc:creator>
     <cc:Agent>
      <dc:title>Matplotlib v3.9.2, https://matplotlib.org/</dc:title>
     </cc:Agent>
    </dc:creator>
   </cc:Work>
  </rdf:RDF>
 </metadata>
 <defs>
  <style type="text/css">*{stroke-linejoin: round; stroke-linecap: butt}</style>
 </defs>
 <g id="figure_1">
  <g id="patch_1">
   <path d="M 0 345.6 
L 460.8 345.6 
L 460.8 0 
L 0 0 
z
" style="fill: #ffffff"/>
  </g>
  <g id="axes_1">
   <g id="patch_2">
    <path d="M 85.97 303.64 
L 450 303.64 
L 450 25.49625 
L 85.97 25.49625 
z
" style="fill: #eaeaf2"/>
   </g>
   <g id="matplotlib.axis_1">
    <g id="xtick_1">
     <g id="text_1">
      <!-- 5 -->
      <g style="fill: #262626" transform="translate(130.933835 317.797812) scale(0.1 -0.1)">
       <defs>
        <path id="ArialMT-35" d="M 266 1200 
L 856 1250 
Q 922 819 1161 601 
Q 1400 384 1738 384 
Q 2144 384 2425 690 
Q 2706 997 2706 1503 
Q 2706 1984 2436 2262 
Q 2166 2541 1728 2541 
Q 1456 2541 1237 2417 
Q 1019 2294 894 2097 
L 366 2166 
L 809 4519 
L 3088 4519 
L 3088 3981 
L 1259 3981 
L 1013 2750 
Q 1425 3038 1878 3038 
Q 2478 3038 2890 2622 
Q 3303 2206 3303 1553 
Q 3303 931 2941 478 
Q 2500 -78 1738 -78 
Q 1113 -78 717 272 
Q 322 622 266 1200 
z
" transform="scale(0.015625)"/>
       </defs>
       <use xlink:href="#ArialMT-35"/>
      </g>
     </g>
    </g>
    <g id="xtick_2">
     <g id="text_2">
      <!-- 6 -->
      <g style="fill: #262626" transform="translate(199.46641 317.797812) scale(0.1 -0.1)">
       <defs>
        <path id="ArialMT-36" d="M 3184 3459 
L 2625 3416 
Q 2550 3747 2413 3897 
Q 2184 4138 1850 4138 
Q 1581 4138 1378 3988 
Q 1113 3794 959 3422 
Q 806 3050 800 2363 
Q 1003 2672 1297 2822 
Q 1591 2972 1913 2972 
Q 2475 2972 2870 2558 
Q 3266 2144 3266 1488 
Q 3266 1056 3080 686 
Q 2894 316 2569 119 
Q 2244 -78 1831 -78 
Q 1128 -78 684 439 
Q 241 956 241 2144 
Q 241 3472 731 4075 
Q 1159 4600 1884 4600 
Q 2425 4600 2770 4297 
Q 3116 3994 3184 3459 
z
M 888 1484 
Q 888 1194 1011 928 
Q 1134 663 1356 523 
Q 1578 384 1822 384 
Q 2178 384 2434 671 
Q 2691 959 2691 1453 
Q 2691 1928 2437 2201 
Q 2184 2475 1800 2475 
Q 1419 2475 1153 2201 
Q 888 1928 888 1484 
z
" transform="scale(0.015625)"/>
       </defs>
       <use xlink:href="#ArialMT-36"/>
      </g>
     </g>
    </g>
    <g id="xtick_3">
     <g id="text_3">
      <!-- 7 -->
      <g style="fill: #262626" transform="translate(267.998984 317.797812) scale(0.1 -0.1)">
       <defs>
        <path id="ArialMT-37" d="M 303 3981 
L 303 4522 
L 3269 4522 
L 3269 4084 
Q 2831 3619 2401 2847 
Q 1972 2075 1738 1259 
Q 1569 684 1522 0 
L 944 0 
Q 953 541 1156 1306 
Q 1359 2072 1739 2783 
Q 2119 3494 2547 3981 
L 303 3981 
z
" transform="scale(0.015625)"/>
       </defs>
       <use xlink:href="#ArialMT-37"/>
      </g>
     </g>
    </g>
    <g id="xtick_4">
     <g id="text_4">
      <!-- 8 -->
      <g style="fill: #262626" transform="translate(336.531558 317.797812) scale(0.1 -0.1)">
       <defs>
        <path id="ArialMT-38" d="M 1131 2484 
Q 781 2613 612 2850 
Q 444 3088 444 3419 
Q 444 3919 803 4259 
Q 1163 4600 1759 4600 
Q 2359 4600 2725 4251 
Q 3091 3903 3091 3403 
Q 3091 3084 2923 2848 
Q 2756 2613 2416 2484 
Q 2838 2347 3058 2040 
Q 3278 1734 3278 1309 
Q 3278 722 2862 322 
Q 2447 -78 1769 -78 
Q 1091 -78 675 323 
Q 259 725 259 1325 
Q 259 1772 486 2073 
Q 713 2375 1131 2484 
z
M 1019 3438 
Q 1019 3113 1228 2906 
Q 1438 2700 1772 2700 
Q 2097 2700 2305 2904 
Q 2513 3109 2513 3406 
Q 2513 3716 2298 3927 
Q 2084 4138 1766 4138 
Q 1444 4138 1231 3931 
Q 1019 3725 1019 3438 
z
M 838 1322 
Q 838 1081 952 856 
Q 1066 631 1291 507 
Q 1516 384 1775 384 
Q 2178 384 2440 643 
Q 2703 903 2703 1303 
Q 2703 1709 2433 1975 
Q 2163 2241 1756 2241 
Q 1359 2241 1098 1978 
Q 838 1716 838 1322 
z
" transform="scale(0.015625)"/>
       </defs>
       <use xlink:href="#ArialMT-38"/>
      </g>
     </g>
    </g>
    <g id="xtick_5">
     <g id="text_5">
      <!-- 9 -->
      <g style="fill: #262626" transform="translate(405.064132 317.797812) scale(0.1 -0.1)">
       <defs>
        <path id="ArialMT-39" d="M 350 1059 
L 891 1109 
Q 959 728 1153 556 
Q 1347 384 1650 384 
Q 1909 384 2104 503 
Q 2300 622 2425 820 
Q 2550 1019 2634 1356 
Q 2719 1694 2719 2044 
Q 2719 2081 2716 2156 
Q 2547 1888 2255 1720 
Q 1963 1553 1622 1553 
Q 1053 1553 659 1965 
Q 266 2378 266 3053 
Q 266 3750 677 4175 
Q 1088 4600 1706 4600 
Q 2153 4600 2523 4359 
Q 2894 4119 3086 3673 
Q 3278 3228 3278 2384 
Q 3278 1506 3087 986 
Q 2897 466 2520 194 
Q 2144 -78 1638 -78 
Q 1100 -78 759 220 
Q 419 519 350 1059 
z
M 2653 3081 
Q 2653 3566 2395 3850 
Q 2138 4134 1775 4134 
Q 1400 4134 1122 3828 
Q 844 3522 844 3034 
Q 844 2597 1108 2323 
Q 1372 2050 1759 2050 
Q 2150 2050 2401 2323 
Q 2653 2597 2653 3081 
z
" transform="scale(0.015625)"/>
       </defs>
       <use xlink:href="#ArialMT-39"/>
      </g>
     </g>
    </g>
    <g id="text_6">
     <!-- Rating -->
     <g style="fill: #262626" transform="translate(253.532656 330.943125) scale(0.1 -0.1)">
      <defs>
       <path id="ArialMT-52" d="M 503 0 
L 503 4581 
L 2534 4581 
Q 3147 4581 3465 4457 
Q 3784 4334 3975 4021 
Q 4166 3709 4166 3331 
Q 4166 2844 3850 2509 
Q 3534 2175 2875 2084 
Q 3116 1969 3241 1856 
Q 3506 1613 3744 1247 
L 4541 0 
L 3778 0 
L 3172 953 
Q 2906 1366 2734 1584 
Q 2563 1803 2427 1890 
Q 2291 1978 2150 2013 
Q 2047 2034 1813 2034 
L 1109 2034 
L 1109 0 
L 503 0 
z
M 1109 2559 
L 2413 2559 
Q 2828 2559 3062 2645 
Q 3297 2731 3419 2920 
Q 3541 3109 3541 3331 
Q 3541 3656 3305 3865 
Q 3069 4075 2559 4075 
L 1109 4075 
L 1109 2559 
z
" transform="scale(0.015625)"/>
       <path id="ArialMT-61" d="M 2588 409 
Q 2275 144 1986 34 
Q 1697 -75 1366 -75 
Q 819 -75 525 192 
Q 231 459 231 875 
Q 231 1119 342 1320 
Q 453 1522 633 1644 
Q 813 1766 1038 1828 
Q 1203 1872 1538 1913 
Q 2219 1994 2541 2106 
Q 2544 2222 2544 2253 
Q 2544 2597 2384 2738 
Q 2169 2928 1744 2928 
Q 1347 2928 1158 2789 
Q 969 2650 878 2297 
L 328 2372 
Q 403 2725 575 2942 
Q 747 3159 1072 3276 
Q 1397 3394 1825 3394 
Q 2250 3394 2515 3294 
Q 2781 3194 2906 3042 
Q 3031 2891 3081 2659 
Q 3109 2516 3109 2141 
L 3109 1391 
Q 3109 606 3145 398 
Q 3181 191 3288 0 
L 2700 0 
Q 2613 175 2588 409 
z
M 2541 1666 
Q 2234 1541 1622 1453 
Q 1275 1403 1131 1340 
Q 988 1278 909 1158 
Q 831 1038 831 891 
Q 831 666 1001 516 
Q 1172 366 1500 366 
Q 1825 366 2078 508 
Q 2331 650 2450 897 
Q 2541 1088 2541 1459 
L 2541 1666 
z
" transform="scale(0.015625)"/>
       <path id="ArialMT-74" d="M 1650 503 
L 1731 6 
Q 1494 -44 1306 -44 
Q 1000 -44 831 53 
Q 663 150 594 308 
Q 525 466 525 972 
L 525 2881 
L 113 2881 
L 113 3319 
L 525 3319 
L 525 4141 
L 1084 4478 
L 1084 3319 
L 1650 3319 
L 1650 2881 
L 1084 2881 
L 1084 941 
Q 1084 700 1114 631 
Q 1144 563 1211 522 
Q 1278 481 1403 481 
Q 1497 481 1650 503 
z
" transform="scale(0.015625)"/>
       <path id="ArialMT-69" d="M 425 3934 
L 425 4581 
L 988 4581 
L 988 3934 
L 425 3934 
z
M 425 0 
L 425 3319 
L 988 3319 
L 988 0 
L 425 0 
z
" transform="scale(0.015625)"/>
       <path id="ArialMT-6e" d="M 422 0 
L 422 3319 
L 928 3319 
L 928 2847 
Q 1294 3394 1984 3394 
Q 2284 3394 2536 3286 
Q 2788 3178 2913 3003 
Q 3038 2828 3088 2588 
Q 3119 2431 3119 2041 
L 3119 0 
L 2556 0 
L 2556 2019 
Q 2556 2363 2490 2533 
Q 2425 2703 2258 2804 
Q 2091 2906 1866 2906 
Q 1506 2906 1245 2678 
Q 984 2450 984 1813 
L 984 0 
L 422 0 
z
" transform="scale(0.015625)"/>
       <path id="ArialMT-67" d="M 319 -275 
L 866 -356 
Q 900 -609 1056 -725 
Q 1266 -881 1628 -881 
Q 2019 -881 2231 -725 
Q 2444 -569 2519 -288 
Q 2563 -116 2559 434 
Q 2191 0 1641 0 
Q 956 0 581 494 
Q 206 988 206 1678 
Q 206 2153 378 2554 
Q 550 2956 876 3175 
Q 1203 3394 1644 3394 
Q 2231 3394 2613 2919 
L 2613 3319 
L 3131 3319 
L 3131 450 
Q 3131 -325 2973 -648 
Q 2816 -972 2473 -1159 
Q 2131 -1347 1631 -1347 
Q 1038 -1347 672 -1080 
Q 306 -813 319 -275 
z
M 784 1719 
Q 784 1066 1043 766 
Q 1303 466 1694 466 
Q 2081 466 2343 764 
Q 2606 1063 2606 1700 
Q 2606 2309 2336 2618 
Q 2066 2928 1684 2928 
Q 1309 2928 1046 2623 
Q 784 2319 784 1719 
z
" transform="scale(0.015625)"/>
      </defs>
      <use xlink:href="#ArialMT-52"/>
      <use xlink:href="#ArialMT-61" x="72.216797"/>
      <use xlink:href="#ArialMT-74" x="127.832031"/>
      <use xlink:href="#ArialMT-69" x="155.615234"/>
      <use xlink:href="#ArialMT-6e" x="177.832031"/>
      <use xlink:href="#ArialMT-67" x="233.447266"/>
     </g>
    </g>
   </g>
   <g id="matplotlib.axis_2">
    <g id="ytick_1">
     <g id="text_7">
      <!-- Competitive -->
      <g style="fill: #262626" transform="translate(26.174688 98.672031) scale(0.1 -0.1)">
       <defs>
        <path id="ArialMT-43" d="M 3763 1606 
L 4369 1453 
Q 4178 706 3683 314 
Q 3188 -78 2472 -78 
Q 1731 -78 1267 223 
Q 803 525 561 1097 
Q 319 1669 319 2325 
Q 319 3041 592 3573 
Q 866 4106 1370 4382 
Q 1875 4659 2481 4659 
Q 3169 4659 3637 4309 
Q 4106 3959 4291 3325 
L 3694 3184 
Q 3534 3684 3231 3912 
Q 2928 4141 2469 4141 
Q 1941 4141 1586 3887 
Q 1231 3634 1087 3207 
Q 944 2781 944 2328 
Q 944 1744 1114 1308 
Q 1284 872 1643 656 
Q 2003 441 2422 441 
Q 2931 441 3284 734 
Q 3638 1028 3763 1606 
z
" transform="scale(0.015625)"/>
        <path id="ArialMT-6f" d="M 213 1659 
Q 213 2581 725 3025 
Q 1153 3394 1769 3394 
Q 2453 3394 2887 2945 
Q 3322 2497 3322 1706 
Q 3322 1066 3130 698 
Q 2938 331 2570 128 
Q 2203 -75 1769 -75 
Q 1072 -75 642 372 
Q 213 819 213 1659 
z
M 791 1659 
Q 791 1022 1069 705 
Q 1347 388 1769 388 
Q 2188 388 2466 706 
Q 2744 1025 2744 1678 
Q 2744 2294 2464 2611 
Q 2184 2928 1769 2928 
Q 1347 2928 1069 2612 
Q 791 2297 791 1659 
z
" transform="scale(0.015625)"/>
        <path id="ArialMT-6d" d="M 422 0 
L 422 3319 
L 925 3319 
L 925 2853 
Q 1081 3097 1340 3245 
Q 1600 3394 1931 3394 
Q 2300 3394 2536 3241 
Q 2772 3088 2869 2813 
Q 3263 3394 3894 3394 
Q 4388 3394 4653 3120 
Q 4919 2847 4919 2278 
L 4919 0 
L 4359 0 
L 4359 2091 
Q 4359 2428 4304 2576 
Q 4250 2725 4106 2815 
Q 3963 2906 3769 2906 
Q 3419 2906 3187 2673 
Q 2956 2441 2956 1928 
L 2956 0 
L 2394 0 
L 2394 2156 
Q 2394 2531 2256 2718 
Q 2119 2906 1806 2906 
Q 1569 2906 1367 2781 
Q 1166 2656 1075 2415 
Q 984 2175 984 1722 
L 984 0 
L 422 0 
z
" transform="scale(0.015625)"/>
        <path id="ArialMT-70" d="M 422 -1272 
L 422 3319 
L 934 3319 
L 934 2888 
Q 1116 3141 1344 3267 
Q 1572 3394 1897 3394 
Q 2322 3394 2647 3175 
Q 2972 2956 3137 2557 
Q 3303 2159 3303 1684 
Q 3303 1175 3120 767 
Q 2938 359 2589 142 
Q 2241 -75 1856 -75 
Q 1575 -75 1351 44 
Q 1128 163 984 344 
L 984 -1272 
L 422 -1272 
z
M 931 1641 
Q 931 1000 1190 694 
Q 1450 388 1819 388 
Q 2194 388 2461 705 
Q 2728 1022 2728 1688 
Q 2728 2322 2467 2637 
Q 2206 2953 1844 2953 
Q 1484 2953 1207 2617 
Q 931 2281 931 1641 
z
" transform="scale(0.015625)"/>
        <path id="ArialMT-65" d="M 2694 1069 
L 3275 997 
Q 3138 488 2766 206 
Q 2394 -75 1816 -75 
Q 1088 -75 661 373 
Q 234 822 234 1631 
Q 234 2469 665 2931 
Q 1097 3394 1784 3394 
Q 2450 3394 2872 2941 
Q 3294 2488 3294 1666 
Q 3294 1616 3291 1516 
L 816 1516 
Q 847 969 1125 678 
Q 1403 388 1819 388 
Q 2128 388 2347 550 
Q 2566 713 2694 1069 
z
M 847 1978 
L 2700 1978 
Q 2663 2397 2488 2606 
Q 2219 2931 1791 2931 
Q 1403 2931 1139 2672 
Q 875 2413 847 1978 
z
" transform="scale(0.015625)"/>
        <path id="ArialMT-76" d="M 1344 0 
L 81 3319 
L 675 3319 
L 1388 1331 
Q 1503 1009 1600 663 
Q 1675 925 1809 1294 
L 2547 3319 
L 3125 3319 
L 1869 0 
L 1344 0 
z
" transform="scale(0.015625)"/>
       </defs>
       <use xlink:href="#ArialMT-43"/>
       <use xlink:href="#ArialMT-6f" x="72.216797"/>
       <use xlink:href="#ArialMT-6d" x="127.832031"/>
       <use xlink:href="#ArialMT-70" x="211.132812"/>
       <use xlink:href="#ArialMT-65" x="266.748047"/>
       <use xlink:href="#ArialMT-74" x="322.363281"/>
       <use xlink:href="#ArialMT-69" x="350.146484"/>
       <use xlink:href="#ArialMT-74" x="372.363281"/>
       <use xlink:href="#ArialMT-69" x="400.146484"/>
       <use xlink:href="#ArialMT-76" x="422.363281"/>
       <use xlink:href="#ArialMT-65" x="472.363281"/>
      </g>
     </g>
    </g>
    <g id="ytick_2">
     <g id="text_8">
      <!-- Cooperative -->
      <g style="fill: #262626" transform="translate(25.052813 237.743906) scale(0.1 -0.1)">
       <defs>
        <path id="ArialMT-72" d="M 416 0 
L 416 3319 
L 922 3319 
L 922 2816 
Q 1116 3169 1280 3281 
Q 1444 3394 1641 3394 
Q 1925 3394 2219 3213 
L 2025 2691 
Q 1819 2813 1613 2813 
Q 1428 2813 1281 2702 
Q 1134 2591 1072 2394 
Q 978 2094 978 1738 
L 978 0 
L 416 0 
z
" transform="scale(0.015625)"/>
       </defs>
       <use xlink:href="#ArialMT-43"/>
       <use xlink:href="#ArialMT-6f" x="72.216797"/>
       <use xlink:href="#ArialMT-6f" x="127.832031"/>
       <use xlink:href="#ArialMT-70" x="183.447266"/>
       <use xlink:href="#ArialMT-65" x="239.0625"/>
       <use xlink:href="#ArialMT-72" x="294.677734"/>
       <use xlink:href="#ArialMT-61" x="327.978516"/>
       <use xlink:href="#ArialMT-74" x="383.59375"/>
       <use xlink:href="#ArialMT-69" x="411.376953"/>
       <use xlink:href="#ArialMT-76" x="433.59375"/>
       <use xlink:href="#ArialMT-65" x="483.59375"/>
      </g>
     </g>
    </g>
    <g id="text_9">
     <!-- Cooperative/Competitive -->
     <g style="fill: #262626" transform="translate(19.065313 219.313437) rotate(-90) scale(0.1 -0.1)">
      <defs>
       <path id="ArialMT-2f" d="M 0 -78 
L 1328 4659 
L 1778 4659 
L 453 -78 
L 0 -78 
z
" transform="scale(0.015625)"/>
      </defs>
      <use xlink:href="#ArialMT-43"/>
      <use xlink:href="#ArialMT-6f" x="72.216797"/>
      <use xlink:href="#ArialMT-6f" x="127.832031"/>
      <use xlink:href="#ArialMT-70" x="183.447266"/>
      <use xlink:href="#ArialMT-65" x="239.0625"/>
      <use xlink:href="#ArialMT-72" x="294.677734"/>
      <use xlink:href="#ArialMT-61" x="327.978516"/>
      <use xlink:href="#ArialMT-74" x="383.59375"/>
      <use xlink:href="#ArialMT-69" x="411.376953"/>
      <use xlink:href="#ArialMT-76" x="433.59375"/>
      <use xlink:href="#ArialMT-65" x="483.59375"/>
      <use xlink:href="#ArialMT-2f" x="539.208984"/>
      <use xlink:href="#ArialMT-43" x="566.992188"/>
      <use xlink:href="#ArialMT-6f" x="639.208984"/>
      <use xlink:href="#ArialMT-6d" x="694.824219"/>
      <use xlink:href="#ArialMT-70" x="778.125"/>
      <use xlink:href="#ArialMT-65" x="833.740234"/>
      <use xlink:href="#ArialMT-74" x="889.355469"/>
      <use xlink:href="#ArialMT-69" x="917.138672"/>
      <use xlink:href="#ArialMT-74" x="939.355469"/>
      <use xlink:href="#ArialMT-69" x="967.138672"/>
      <use xlink:href="#ArialMT-76" x="989.355469"/>
      <use xlink:href="#ArialMT-65" x="1039.355469"/>
     </g>
    </g>
   </g>
   <g id="PolyCollection_1">
    <defs>
     <path id="m34796dd1b6" d="M 102.516818 -250.531354 
L 102.516818 -250.604271 
L 105.517861 -250.63486 
L 108.518905 -250.680701 
L 111.519948 -250.742167 
L 114.520991 -250.815419 
L 117.522034 -250.892137 
L 120.523077 -250.96135 
L 123.524121 -251.013181 
L 126.525164 -251.043076 
L 129.526207 -251.054395 
L 132.52725 -251.057674 
L 135.528293 -251.066491 
L 138.529336 -251.091925 
L 141.53038 -251.138795 
L 144.531423 -251.205914 
L 147.532466 -251.289857 
L 150.533509 -251.389044 
L 153.534552 -251.50491 
L 156.535596 -251.639773 
L 159.536639 -251.794255 
L 162.537682 -251.967195 
L 165.538725 -252.157643 
L 168.539768 -252.365302 
L 171.540812 -252.586639 
L 174.541855 -252.808887 
L 177.542898 -253.008092 
L 180.543941 -253.155964 
L 183.544984 -253.233756 
L 186.546028 -253.245501 
L 189.547071 -253.22246 
L 192.548114 -253.215861 
L 195.549157 -253.281632 
L 198.5502 -253.46449 
L 201.551243 -253.788033 
L 204.552287 -254.253975 
L 207.55333 -254.849777 
L 210.554373 -255.561155 
L 213.555416 -256.384734 
L 216.556459 -257.335876 
L 219.557503 -258.447355 
L 222.558546 -259.75694 
L 225.559589 -261.287107 
L 228.560632 -263.026462 
L 231.561675 -264.925169 
L 234.562719 -266.910971 
L 237.563762 -268.91976 
L 240.564805 -270.92406 
L 243.565848 -272.943353 
L 246.566891 -275.032291 
L 249.567935 -277.256598 
L 252.568978 -279.671189 
L 255.570021 -282.308546 
L 258.571064 -285.175013 
L 261.572107 -288.247462 
L 264.57315 -291.465768 
L 267.574194 -294.723903 
L 270.575237 -297.868093 
L 273.57628 -300.710468 
L 276.577323 -303.061431 
L 279.578366 -304.775875 
L 282.57941 -305.799723 
L 285.580453 -306.196562 
L 288.581496 -306.134508 
L 291.582539 -305.826481 
L 294.583582 -305.441824 
L 297.584626 -305.03021 
L 300.585669 -304.500965 
L 303.586712 -303.673785 
L 306.587755 -302.374536 
L 309.588798 -300.521616 
L 312.589842 -298.156038 
L 315.590885 -295.406631 
L 318.591928 -292.422262 
L 321.592971 -289.316904 
L 324.594014 -286.154554 
L 327.595057 -282.968477 
L 330.596101 -279.789021 
L 333.597144 -276.657909 
L 336.598187 -273.625062 
L 339.59923 -270.738472 
L 342.600273 -268.038398 
L 345.601317 -265.55844 
L 348.60236 -263.328416 
L 351.603403 -261.373295 
L 354.604446 -259.706999 
L 357.605489 -258.324736 
L 360.606533 -257.199069 
L 363.607576 -256.282888 
L 366.608619 -255.518549 
L 369.609662 -254.849538 
L 372.610705 -254.230689 
L 375.611749 -253.634669 
L 378.612792 -253.054154 
L 381.613835 -252.499601 
L 384.614878 -251.992809 
L 387.615921 -251.557608 
L 390.616964 -251.210678 
L 393.618008 -250.955997 
L 396.619051 -250.784726 
L 399.620094 -250.679566 
L 399.620094 -250.456059 
L 399.620094 -250.456059 
L 396.619051 -250.350899 
L 393.618008 -250.179628 
L 390.616964 -249.924947 
L 387.615921 -249.578017 
L 384.614878 -249.142816 
L 381.613835 -248.636024 
L 378.612792 -248.081471 
L 375.611749 -247.500956 
L 372.610705 -246.904936 
L 369.609662 -246.286087 
L 366.608619 -245.617076 
L 363.607576 -244.852737 
L 360.606533 -243.936556 
L 357.605489 -242.810889 
L 354.604446 -241.428626 
L 351.603403 -239.76233 
L 348.60236 -237.807209 
L 345.601317 -235.577185 
L 342.600273 -233.097227 
L 339.59923 -230.397153 
L 336.598187 -227.510563 
L 333.597144 -224.477716 
L 330.596101 -221.346604 
L 327.595057 -218.167148 
L 324.594014 -214.981071 
L 321.592971 -211.818721 
L 318.591928 -208.713363 
L 315.590885 -205.728994 
L 312.589842 -202.979587 
L 309.588798 -200.614009 
L 306.587755 -198.761089 
L 303.586712 -197.46184 
L 300.585669 -196.63466 
L 297.584626 -196.105415 
L 294.583582 -195.693801 
L 291.582539 -195.309144 
L 288.581496 -195.001117 
L 285.580453 -194.939062 
L 282.57941 -195.335902 
L 279.578366 -196.35975 
L 276.577323 -198.074194 
L 273.57628 -200.425157 
L 270.575237 -203.267532 
L 267.574194 -206.411722 
L 264.57315 -209.669857 
L 261.572107 -212.888163 
L 258.571064 -215.960612 
L 255.570021 -218.827079 
L 252.568978 -221.464436 
L 249.567935 -223.879027 
L 246.566891 -226.103334 
L 243.565848 -228.192272 
L 240.564805 -230.211565 
L 237.563762 -232.215865 
L 234.562719 -234.224654 
L 231.561675 -236.210456 
L 228.560632 -238.109163 
L 225.559589 -239.848518 
L 222.558546 -241.378685 
L 219.557503 -242.68827 
L 216.556459 -243.799749 
L 213.555416 -244.750891 
L 210.554373 -245.57447 
L 207.55333 -246.285848 
L 204.552287 -246.88165 
L 201.551243 -247.347592 
L 198.5502 -247.671135 
L 195.549157 -247.853993 
L 192.548114 -247.919764 
L 189.547071 -247.913165 
L 186.546028 -247.890124 
L 183.544984 -247.901869 
L 180.543941 -247.979661 
L 177.542898 -248.127533 
L 174.541855 -248.326738 
L 171.540812 -248.548986 
L 168.539768 -248.770323 
L 165.538725 -248.977982 
L 162.537682 -249.16843 
L 159.536639 -249.34137 
L 156.535596 -249.495852 
L 153.534552 -249.630715 
L 150.533509 -249.746581 
L 147.532466 -249.845768 
L 144.531423 -249.929711 
L 141.53038 -249.99683 
L 138.529336 -250.0437 
L 135.528293 -250.069134 
L 132.52725 -250.077951 
L 129.526207 -250.08123 
L 126.525164 -250.092549 
L 123.524121 -250.122444 
L 120.523077 -250.174275 
L 117.522034 -250.243488 
L 114.520991 -250.320206 
L 111.519948 -250.393458 
L 108.518905 -250.454924 
L 105.517861 -250.500765 
L 102.516818 -250.531354 
z
" style="stroke: #262626; stroke-width: 1.25"/>
    </defs>
    <g clip-path="url(#p7b575bec52)">
     <use xlink:href="#m34796dd1b6" x="0" y="345.6" style="fill: #701070; stroke: #262626; stroke-width: 1.25"/>
    </g>
   </g>
   <g id="PolyCollection_2">
    <defs>
     <path id="m68c0555a9c" d="M 194.837122 -111.313222 
L 194.837122 -111.678653 
L 197.247385 -111.759408 
L 199.657649 -111.866102 
L 202.067912 -112.003223 
L 204.478175 -112.174973 
L 206.888438 -112.385191 
L 209.298702 -112.63747 
L 211.708965 -112.935548 
L 214.119228 -113.283942 
L 216.529491 -113.688745 
L 218.939755 -114.158409 
L 221.350018 -114.7043 
L 223.760281 -115.3408 
L 226.170544 -116.084819 
L 228.580807 -116.954717 
L 230.991071 -117.968783 
L 233.401334 -119.143587 
L 235.811597 -120.492581 
L 238.22186 -122.025272 
L 240.632124 -123.747124 
L 243.042387 -125.660053 
L 245.45265 -127.763129 
L 247.862913 -130.052878 
L 250.273176 -132.522617 
L 252.68344 -135.160459 
L 255.093703 -137.946109 
L 257.503966 -140.84709 
L 259.914229 -143.815524 
L 262.324493 -146.786772 
L 264.734756 -149.681095 
L 267.145019 -152.408928 
L 269.555282 -154.87949 
L 271.965546 -157.011584 
L 274.375809 -158.74466 
L 276.786072 -160.04795 
L 279.196335 -160.925645 
L 281.606598 -161.416797 
L 284.016862 -161.589677 
L 286.427125 -161.5314 
L 288.837388 -161.334605 
L 291.247651 -161.083498 
L 293.657915 -160.841686 
L 296.068178 -160.643818 
L 298.478441 -160.492312 
L 300.888704 -160.359546 
L 303.298967 -160.194889 
L 305.709231 -159.93521 
L 308.119494 -159.516912 
L 310.529757 -158.887396 
L 312.94002 -158.014026 
L 315.350284 -156.889197 
L 317.760547 -155.530918 
L 320.17081 -153.979149 
L 322.581073 -152.288938 
L 324.991337 -150.521908 
L 327.4016 -148.737786 
L 329.811863 -146.987441 
L 332.222126 -145.308364 
L 334.632389 -143.722907 
L 337.042653 -142.238972 
L 339.452916 -140.852463 
L 341.863179 -139.550638 
L 344.273442 -138.315584 
L 346.683706 -137.12725 
L 349.093969 -135.965768 
L 351.504232 -134.813023 
L 353.914495 -133.65361 
L 356.324759 -132.475394 
L 358.735022 -131.26988 
L 361.145285 -130.032537 
L 363.555548 -128.763153 
L 365.965811 -127.466166 
L 368.376075 -126.150871 
L 370.786338 -124.831343 
L 373.196601 -123.525892 
L 375.606864 -122.255949 
L 378.017128 -121.04437 
L 380.427391 -119.913281 
L 382.837654 -118.881724 
L 385.247917 -117.963455 
L 387.65818 -117.16528 
L 390.068444 -116.486247 
L 392.478707 -115.917877 
L 394.88897 -115.445436 
L 397.299233 -115.050034 
L 399.709497 -114.711194 
L 402.11976 -114.409458 
L 404.530023 -114.128585 
L 406.940286 -113.857021 
L 409.35055 -113.588484 
L 411.760813 -113.321655 
L 414.171076 -113.059183 
L 416.581339 -112.806244 
L 418.991602 -112.569011 
L 421.401866 -112.353268 
L 423.812129 -112.163409 
L 426.222392 -112.001879 
L 428.632655 -111.869062 
L 431.042919 -111.76352 
L 433.453182 -111.682457 
L 433.453182 -111.309418 
L 433.453182 -111.309418 
L 431.042919 -111.228355 
L 428.632655 -111.122813 
L 426.222392 -110.989996 
L 423.812129 -110.828466 
L 421.401866 -110.638607 
L 418.991602 -110.422864 
L 416.581339 -110.185631 
L 414.171076 -109.932692 
L 411.760813 -109.67022 
L 409.35055 -109.403391 
L 406.940286 -109.134854 
L 404.530023 -108.86329 
L 402.11976 -108.582417 
L 399.709497 -108.280681 
L 397.299233 -107.941841 
L 394.88897 -107.546439 
L 392.478707 -107.073998 
L 390.068444 -106.505628 
L 387.65818 -105.826595 
L 385.247917 -105.02842 
L 382.837654 -104.110151 
L 380.427391 -103.078594 
L 378.017128 -101.947505 
L 375.606864 -100.735926 
L 373.196601 -99.465983 
L 370.786338 -98.160532 
L 368.376075 -96.841004 
L 365.965811 -95.525709 
L 363.555548 -94.228722 
L 361.145285 -92.959338 
L 358.735022 -91.721995 
L 356.324759 -90.516481 
L 353.914495 -89.338265 
L 351.504232 -88.178852 
L 349.093969 -87.026107 
L 346.683706 -85.864625 
L 344.273442 -84.676291 
L 341.863179 -83.441237 
L 339.452916 -82.139412 
L 337.042653 -80.752903 
L 334.632389 -79.268968 
L 332.222126 -77.683511 
L 329.811863 -76.004434 
L 327.4016 -74.254089 
L 324.991337 -72.469967 
L 322.581073 -70.702937 
L 320.17081 -69.012726 
L 317.760547 -67.460957 
L 315.350284 -66.102678 
L 312.94002 -64.977849 
L 310.529757 -64.104479 
L 308.119494 -63.474963 
L 305.709231 -63.056665 
L 303.298967 -62.796986 
L 300.888704 -62.632329 
L 298.478441 -62.499563 
L 296.068178 -62.348057 
L 293.657915 -62.150189 
L 291.247651 -61.908377 
L 288.837388 -61.65727 
L 286.427125 -61.460475 
L 284.016862 -61.402198 
L 281.606598 -61.575078 
L 279.196335 -62.06623 
L 276.786072 -62.943925 
L 274.375809 -64.247215 
L 271.965546 -65.980291 
L 269.555282 -68.112385 
L 267.145019 -70.582947 
L 264.734756 -73.31078 
L 262.324493 -76.205103 
L 259.914229 -79.176351 
L 257.503966 -82.144785 
L 255.093703 -85.045766 
L 252.68344 -87.831416 
L 250.273176 -90.469258 
L 247.862913 -92.938997 
L 245.45265 -95.228746 
L 243.042387 -97.331822 
L 240.632124 -99.244751 
L 238.22186 -100.966603 
L 235.811597 -102.499294 
L 233.401334 -103.848288 
L 230.991071 -105.023092 
L 228.580807 -106.037158 
L 226.170544 -106.907056 
L 223.760281 -107.651075 
L 221.350018 -108.287575 
L 218.939755 -108.833466 
L 216.529491 -109.30313 
L 214.119228 -109.707933 
L 211.708965 -110.056327 
L 209.298702 -110.354405 
L 206.888438 -110.606684 
L 204.478175 -110.816902 
L 202.067912 -110.988652 
L 199.657649 -111.125773 
L 197.247385 -111.232467 
L 194.837122 -111.313222 
z
" style="stroke: #262626; stroke-width: 1.25"/>
    </defs>
    <g clip-path="url(#p7b575bec52)">
     <use xlink:href="#m68c0555a9c" x="0" y="345.6" style="fill: #701070; stroke: #262626; stroke-width: 1.25"/>
    </g>
   </g>
   <g id="line2d_1">
    <path d="M 201.116776 95.032187 
L 376.436807 95.032187 
" clip-path="url(#p7b575bec52)" style="fill: none; stroke: #262626; stroke-width: 1.875; stroke-linecap: round"/>
   </g>
   <g id="line2d_2">
    <path d="M 266.708618 95.032187 
L 312.038289 95.032187 
" clip-path="url(#p7b575bec52)" style="fill: none; stroke: #262626; stroke-width: 5.625; stroke-linecap: round"/>
   </g>
   <g id="line2d_3">
    <path d="M 288.889528 95.032187 
" clip-path="url(#p7b575bec52)" style="fill: none; stroke: #262626; stroke-width: 1.5; stroke-linecap: round"/>
    <defs>
     <path id="m1f1192c382" d="M 0 2.34375 
L 0 -2.34375 
" style="stroke: #ffffff; stroke-width: 1.125"/>
    </defs>
    <g clip-path="url(#p7b575bec52)">
     <use xlink:href="#m1f1192c382" x="288.889528" y="95.032187" style="fill: #ffffff; stroke: #ffffff; stroke-width: 1.125"/>
    </g>
   </g>
   <g id="line2d_4">
    <path d="M 222.103506 234.104062 
L 396.895151 234.104062 
" clip-path="url(#p7b575bec52)" style="fill: none; stroke: #262626; stroke-width: 1.875; stroke-linecap: round"/>
   </g>
   <g id="line2d_5">
    <path d="M 277.051725 234.104062 
L 327.189814 234.104062 
" clip-path="url(#p7b575bec52)" style="fill: none; stroke: #262626; stroke-width: 5.625; stroke-linecap: round"/>
   </g>
   <g id="line2d_6">
    <path d="M 302.06937 234.104062 
" clip-path="url(#p7b575bec52)" style="fill: none; stroke: #262626; stroke-width: 1.5; stroke-linecap: round"/>
    <g clip-path="url(#p7b575bec52)">
     <use xlink:href="#m1f1192c382" x="302.06937" y="234.104062" style="fill: #ffffff; stroke: #ffffff; stroke-width: 1.125"/>
    </g>
   </g>
   <g id="patch_3">
    <path d="M 85.97 303.64 
L 85.97 25.49625 
" style="fill: none; stroke: #ffffff; stroke-width: 0.8; stroke-linejoin: miter; stroke-linecap: square"/>
   </g>
   <g id="patch_4">
    <path d="M 450 303.64 
L 450 25.49625 
" style="fill: none; stroke: #ffffff; stroke-width: 0.8; stroke-linejoin: miter; stroke-linecap: square"/>
   </g>
   <g id="patch_5">
    <path d="M 85.97 303.64 
L 450 303.64 
" style="fill: none; stroke: #ffffff; stroke-width: 0.8; stroke-linejoin: miter; stroke-linecap: square"/>
   </g>
   <g id="patch_6">
    <path d="M 85.97 25.49625 
L 450 25.49625 
" style="fill: none; stroke: #ffffff; stroke-width: 0.8; stroke-linejoin: miter; stroke-linecap: square"/>
   </g>
   <g id="text_10">
    <!-- Cooperative/Competitive vs Rating -->
    <g style="fill: #262626" transform="translate(175.614063 19.49625) scale(0.12 -0.12)">
     <defs>
      <path id="ArialMT-20" transform="scale(0.015625)"/>
      <path id="ArialMT-73" d="M 197 991 
L 753 1078 
Q 800 744 1014 566 
Q 1228 388 1613 388 
Q 2000 388 2187 545 
Q 2375 703 2375 916 
Q 2375 1106 2209 1216 
Q 2094 1291 1634 1406 
Q 1016 1563 777 1677 
Q 538 1791 414 1992 
Q 291 2194 291 2438 
Q 291 2659 392 2848 
Q 494 3038 669 3163 
Q 800 3259 1026 3326 
Q 1253 3394 1513 3394 
Q 1903 3394 2198 3281 
Q 2494 3169 2634 2976 
Q 2775 2784 2828 2463 
L 2278 2388 
Q 2241 2644 2061 2787 
Q 1881 2931 1553 2931 
Q 1166 2931 1000 2803 
Q 834 2675 834 2503 
Q 834 2394 903 2306 
Q 972 2216 1119 2156 
Q 1203 2125 1616 2013 
Q 2213 1853 2448 1751 
Q 2684 1650 2818 1456 
Q 2953 1263 2953 975 
Q 2953 694 2789 445 
Q 2625 197 2315 61 
Q 2006 -75 1616 -75 
Q 969 -75 630 194 
Q 291 463 197 991 
z
" transform="scale(0.015625)"/>
     </defs>
     <use xlink:href="#ArialMT-43"/>
     <use xlink:href="#ArialMT-6f" x="72.216797"/>
     <use xlink:href="#ArialMT-6f" x="127.832031"/>
     <use xlink:href="#ArialMT-70" x="183.447266"/>
     <use xlink:href="#ArialMT-65" x="239.0625"/>
     <use xlink:href="#ArialMT-72" x="294.677734"/>
     <use xlink:href="#ArialMT-61" x="327.978516"/>
     <use xlink:href="#ArialMT-74" x="383.59375"/>
     <use xlink:href="#ArialMT-69" x="411.376953"/>
     <use xlink:href="#ArialMT-76" x="433.59375"/>
     <use xlink:href="#ArialMT-65" x="483.59375"/>
     <use xlink:href="#ArialMT-2f" x="539.208984"/>
     <use xlink:href="#ArialMT-43" x="566.992188"/>
     <use xlink:href="#ArialMT-6f" x="639.208984"/>
     <use xlink:href="#ArialMT-6d" x="694.824219"/>
     <use xlink:href="#ArialMT-70" x="778.125"/>
     <use xlink:href="#ArialMT-65" x="833.740234"/>
     <use xlink:href="#ArialMT-74" x="889.355469"/>
     <use xlink:href="#ArialMT-69" x="917.138672"/>
     <use xlink:href="#ArialMT-74" x="939.355469"/>
     <use xlink:href="#ArialMT-69" x="967.138672"/>
     <use xlink:href="#ArialMT-76" x="989.355469"/>
     <use xlink:href="#ArialMT-65" x="1039.355469"/>
     <use xlink:href="#ArialMT-20" x="1094.970703"/>
     <use xlink:href="#ArialMT-76" x="1122.753906"/>
     <use xlink:href="#ArialMT-73" x="1172.753906"/>
     <use xlink:href="#ArialMT-20" x="1222.753906"/>
     <use xlink:href="#ArialMT-52" x="1250.537109"/>
     <use xlink:href="#ArialMT-61" x="1322.753906"/>
     <use xlink:href="#ArialMT-74" x="1378.369141"/>
     <use xlink:href="#ArialMT-69" x="1406.152344"/>
     <use xlink:href="#ArialMT-6e" x="1428.369141"/>
     <use xlink:href="#ArialMT-67" x="1483.984375"/>
    </g>
   </g>
  </g>
 </g>
 <defs>
  <clipPath id="p7b575bec52">
   <rect x="85.97" y="25.49625" width="364.03" height="278.14375"/>
  </clipPath>
 </defs>
</svg>
