<?xml version="1.0" encoding="utf-8" standalone="no"?>
<!DOCTYPE svg PUBLIC "-//W3C//DTD SVG 1.1//EN"
  "http://www.w3.org/Graphics/SVG/1.1/DTD/svg11.dtd">
<svg xmlns:xlink="http://www.w3.org/1999/xlink" width="460.8pt" height="345.6pt" viewBox="0 0 460.8 345.6" xmlns="http://www.w3.org/2000/svg" version="1.1">
 <metadata>
  <rdf:RDF xmlns:dc="http://purl.org/dc/elements/1.1/" xmlns:cc="http://creativecommons.org/ns#" xmlns:rdf="http://www.w3.org/1999/02/22-rdf-syntax-ns#">
   <cc:Work>
    <dc:type rdf:resource="http://purl.org/dc/dcmitype/StillImage"/>
    <dc:date>2024-09-09T00:57:52.454869</dc:date>
    <dc:format>image/svg+xml</dc:format>
    <dc:creator>
     <cc:Agent>
      <dc:title>Matplotlib v3.9.2, https://matplotlib.org/</dc:title>
     </cc:Agent>
    </dc:creator>
   </cc:Work>
  </rdf:RDF>
 </metadata>
 <defs>
  <style type="text/css">*{stroke-linejoin: round; stroke-linecap: butt}</style>
 </defs>
 <g id="figure_1">
  <g id="patch_1">
   <path d="M 0 345.6 
L 460.8 345.6 
L 460.8 0 
L 0 0 
z
" style="fill: #ffffff"/>
  </g>
  <g id="axes_1">
   <g id="patch_2">
    <path d="M 71.89 303.64 
L 450 303.64 
L 450 25.49625 
L 71.89 25.49625 
z
" style="fill: #eaeaf2"/>
   </g>
   <g id="matplotlib.axis_1">
    <g id="xtick_1">
     <g id="text_1">
      <!-- 5 -->
      <g style="fill: #262626" transform="translate(118.821707 317.797812) scale(0.1 -0.1)">
       <defs>
        <path id="ArialMT-35" d="M 266 1200 
L 856 1250 
Q 922 819 1161 601 
Q 1400 384 1738 384 
Q 2144 384 2425 690 
Q 2706 997 2706 1503 
Q 2706 1984 2436 2262 
Q 2166 2541 1728 2541 
Q 1456 2541 1237 2417 
Q 1019 2294 894 2097 
L 366 2166 
L 809 4519 
L 3088 4519 
L 3088 3981 
L 1259 3981 
L 1013 2750 
Q 1425 3038 1878 3038 
Q 2478 3038 2890 2622 
Q 3303 2206 3303 1553 
Q 3303 931 2941 478 
Q 2500 -78 1738 -78 
Q 1113 -78 717 272 
Q 322 622 266 1200 
z
" transform="scale(0.015625)"/>
       </defs>
       <use xlink:href="#ArialMT-35"/>
      </g>
     </g>
    </g>
    <g id="xtick_2">
     <g id="text_2">
      <!-- 6 -->
      <g style="fill: #262626" transform="translate(190.121863 317.797812) scale(0.1 -0.1)">
       <defs>
        <path id="ArialMT-36" d="M 3184 3459 
L 2625 3416 
Q 2550 3747 2413 3897 
Q 2184 4138 1850 4138 
Q 1581 4138 1378 3988 
Q 1113 3794 959 3422 
Q 806 3050 800 2363 
Q 1003 2672 1297 2822 
Q 1591 2972 1913 2972 
Q 2475 2972 2870 2558 
Q 3266 2144 3266 1488 
Q 3266 1056 3080 686 
Q 2894 316 2569 119 
Q 2244 -78 1831 -78 
Q 1128 -78 684 439 
Q 241 956 241 2144 
Q 241 3472 731 4075 
Q 1159 4600 1884 4600 
Q 2425 4600 2770 4297 
Q 3116 3994 3184 3459 
z
M 888 1484 
Q 888 1194 1011 928 
Q 1134 663 1356 523 
Q 1578 384 1822 384 
Q 2178 384 2434 671 
Q 2691 959 2691 1453 
Q 2691 1928 2437 2201 
Q 2184 2475 1800 2475 
Q 1419 2475 1153 2201 
Q 888 1928 888 1484 
z
" transform="scale(0.015625)"/>
       </defs>
       <use xlink:href="#ArialMT-36"/>
      </g>
     </g>
    </g>
    <g id="xtick_3">
     <g id="text_3">
      <!-- 7 -->
      <g style="fill: #262626" transform="translate(261.42202 317.797812) scale(0.1 -0.1)">
       <defs>
        <path id="ArialMT-37" d="M 303 3981 
L 303 4522 
L 3269 4522 
L 3269 4084 
Q 2831 3619 2401 2847 
Q 1972 2075 1738 1259 
Q 1569 684 1522 0 
L 944 0 
Q 953 541 1156 1306 
Q 1359 2072 1739 2783 
Q 2119 3494 2547 3981 
L 303 3981 
z
" transform="scale(0.015625)"/>
       </defs>
       <use xlink:href="#ArialMT-37"/>
      </g>
     </g>
    </g>
    <g id="xtick_4">
     <g id="text_4">
      <!-- 8 -->
      <g style="fill: #262626" transform="translate(332.722177 317.797812) scale(0.1 -0.1)">
       <defs>
        <path id="ArialMT-38" d="M 1131 2484 
Q 781 2613 612 2850 
Q 444 3088 444 3419 
Q 444 3919 803 4259 
Q 1163 4600 1759 4600 
Q 2359 4600 2725 4251 
Q 3091 3903 3091 3403 
Q 3091 3084 2923 2848 
Q 2756 2613 2416 2484 
Q 2838 2347 3058 2040 
Q 3278 1734 3278 1309 
Q 3278 722 2862 322 
Q 2447 -78 1769 -78 
Q 1091 -78 675 323 
Q 259 725 259 1325 
Q 259 1772 486 2073 
Q 713 2375 1131 2484 
z
M 1019 3438 
Q 1019 3113 1228 2906 
Q 1438 2700 1772 2700 
Q 2097 2700 2305 2904 
Q 2513 3109 2513 3406 
Q 2513 3716 2298 3927 
Q 2084 4138 1766 4138 
Q 1444 4138 1231 3931 
Q 1019 3725 1019 3438 
z
M 838 1322 
Q 838 1081 952 856 
Q 1066 631 1291 507 
Q 1516 384 1775 384 
Q 2178 384 2440 643 
Q 2703 903 2703 1303 
Q 2703 1709 2433 1975 
Q 2163 2241 1756 2241 
Q 1359 2241 1098 1978 
Q 838 1716 838 1322 
z
" transform="scale(0.015625)"/>
       </defs>
       <use xlink:href="#ArialMT-38"/>
      </g>
     </g>
    </g>
    <g id="xtick_5">
     <g id="text_5">
      <!-- 9 -->
      <g style="fill: #262626" transform="translate(404.022334 317.797812) scale(0.1 -0.1)">
       <defs>
        <path id="ArialMT-39" d="M 350 1059 
L 891 1109 
Q 959 728 1153 556 
Q 1347 384 1650 384 
Q 1909 384 2104 503 
Q 2300 622 2425 820 
Q 2550 1019 2634 1356 
Q 2719 1694 2719 2044 
Q 2719 2081 2716 2156 
Q 2547 1888 2255 1720 
Q 1963 1553 1622 1553 
Q 1053 1553 659 1965 
Q 266 2378 266 3053 
Q 266 3750 677 4175 
Q 1088 4600 1706 4600 
Q 2153 4600 2523 4359 
Q 2894 4119 3086 3673 
Q 3278 3228 3278 2384 
Q 3278 1506 3087 986 
Q 2897 466 2520 194 
Q 2144 -78 1638 -78 
Q 1100 -78 759 220 
Q 419 519 350 1059 
z
M 2653 3081 
Q 2653 3566 2395 3850 
Q 2138 4134 1775 4134 
Q 1400 4134 1122 3828 
Q 844 3522 844 3034 
Q 844 2597 1108 2323 
Q 1372 2050 1759 2050 
Q 2150 2050 2401 2323 
Q 2653 2597 2653 3081 
z
" transform="scale(0.015625)"/>
       </defs>
       <use xlink:href="#ArialMT-39"/>
      </g>
     </g>
    </g>
    <g id="text_6">
     <!-- Rating -->
     <g style="fill: #262626" transform="translate(246.492656 330.943125) scale(0.1 -0.1)">
      <defs>
       <path id="ArialMT-52" d="M 503 0 
L 503 4581 
L 2534 4581 
Q 3147 4581 3465 4457 
Q 3784 4334 3975 4021 
Q 4166 3709 4166 3331 
Q 4166 2844 3850 2509 
Q 3534 2175 2875 2084 
Q 3116 1969 3241 1856 
Q 3506 1613 3744 1247 
L 4541 0 
L 3778 0 
L 3172 953 
Q 2906 1366 2734 1584 
Q 2563 1803 2427 1890 
Q 2291 1978 2150 2013 
Q 2047 2034 1813 2034 
L 1109 2034 
L 1109 0 
L 503 0 
z
M 1109 2559 
L 2413 2559 
Q 2828 2559 3062 2645 
Q 3297 2731 3419 2920 
Q 3541 3109 3541 3331 
Q 3541 3656 3305 3865 
Q 3069 4075 2559 4075 
L 1109 4075 
L 1109 2559 
z
" transform="scale(0.015625)"/>
       <path id="ArialMT-61" d="M 2588 409 
Q 2275 144 1986 34 
Q 1697 -75 1366 -75 
Q 819 -75 525 192 
Q 231 459 231 875 
Q 231 1119 342 1320 
Q 453 1522 633 1644 
Q 813 1766 1038 1828 
Q 1203 1872 1538 1913 
Q 2219 1994 2541 2106 
Q 2544 2222 2544 2253 
Q 2544 2597 2384 2738 
Q 2169 2928 1744 2928 
Q 1347 2928 1158 2789 
Q 969 2650 878 2297 
L 328 2372 
Q 403 2725 575 2942 
Q 747 3159 1072 3276 
Q 1397 3394 1825 3394 
Q 2250 3394 2515 3294 
Q 2781 3194 2906 3042 
Q 3031 2891 3081 2659 
Q 3109 2516 3109 2141 
L 3109 1391 
Q 3109 606 3145 398 
Q 3181 191 3288 0 
L 2700 0 
Q 2613 175 2588 409 
z
M 2541 1666 
Q 2234 1541 1622 1453 
Q 1275 1403 1131 1340 
Q 988 1278 909 1158 
Q 831 1038 831 891 
Q 831 666 1001 516 
Q 1172 366 1500 366 
Q 1825 366 2078 508 
Q 2331 650 2450 897 
Q 2541 1088 2541 1459 
L 2541 1666 
z
" transform="scale(0.015625)"/>
       <path id="ArialMT-74" d="M 1650 503 
L 1731 6 
Q 1494 -44 1306 -44 
Q 1000 -44 831 53 
Q 663 150 594 308 
Q 525 466 525 972 
L 525 2881 
L 113 2881 
L 113 3319 
L 525 3319 
L 525 4141 
L 1084 4478 
L 1084 3319 
L 1650 3319 
L 1650 2881 
L 1084 2881 
L 1084 941 
Q 1084 700 1114 631 
Q 1144 563 1211 522 
Q 1278 481 1403 481 
Q 1497 481 1650 503 
z
" transform="scale(0.015625)"/>
       <path id="ArialMT-69" d="M 425 3934 
L 425 4581 
L 988 4581 
L 988 3934 
L 425 3934 
z
M 425 0 
L 425 3319 
L 988 3319 
L 988 0 
L 425 0 
z
" transform="scale(0.015625)"/>
       <path id="ArialMT-6e" d="M 422 0 
L 422 3319 
L 928 3319 
L 928 2847 
Q 1294 3394 1984 3394 
Q 2284 3394 2536 3286 
Q 2788 3178 2913 3003 
Q 3038 2828 3088 2588 
Q 3119 2431 3119 2041 
L 3119 0 
L 2556 0 
L 2556 2019 
Q 2556 2363 2490 2533 
Q 2425 2703 2258 2804 
Q 2091 2906 1866 2906 
Q 1506 2906 1245 2678 
Q 984 2450 984 1813 
L 984 0 
L 422 0 
z
" transform="scale(0.015625)"/>
       <path id="ArialMT-67" d="M 319 -275 
L 866 -356 
Q 900 -609 1056 -725 
Q 1266 -881 1628 -881 
Q 2019 -881 2231 -725 
Q 2444 -569 2519 -288 
Q 2563 -116 2559 434 
Q 2191 0 1641 0 
Q 956 0 581 494 
Q 206 988 206 1678 
Q 206 2153 378 2554 
Q 550 2956 876 3175 
Q 1203 3394 1644 3394 
Q 2231 3394 2613 2919 
L 2613 3319 
L 3131 3319 
L 3131 450 
Q 3131 -325 2973 -648 
Q 2816 -972 2473 -1159 
Q 2131 -1347 1631 -1347 
Q 1038 -1347 672 -1080 
Q 306 -813 319 -275 
z
M 784 1719 
Q 784 1066 1043 766 
Q 1303 466 1694 466 
Q 2081 466 2343 764 
Q 2606 1063 2606 1700 
Q 2606 2309 2336 2618 
Q 2066 2928 1684 2928 
Q 1309 2928 1046 2623 
Q 784 2319 784 1719 
z
" transform="scale(0.015625)"/>
      </defs>
      <use xlink:href="#ArialMT-52"/>
      <use xlink:href="#ArialMT-61" x="72.216797"/>
      <use xlink:href="#ArialMT-74" x="127.832031"/>
      <use xlink:href="#ArialMT-69" x="155.615234"/>
      <use xlink:href="#ArialMT-6e" x="177.832031"/>
      <use xlink:href="#ArialMT-67" x="233.447266"/>
     </g>
    </g>
   </g>
   <g id="matplotlib.axis_2">
    <g id="ytick_1">
     <g id="text_7">
      <!-- Competitive -->
      <g style="fill: #262626" transform="translate(12.094687 98.672031) scale(0.1 -0.1)">
       <defs>
        <path id="ArialMT-43" d="M 3763 1606 
L 4369 1453 
Q 4178 706 3683 314 
Q 3188 -78 2472 -78 
Q 1731 -78 1267 223 
Q 803 525 561 1097 
Q 319 1669 319 2325 
Q 319 3041 592 3573 
Q 866 4106 1370 4382 
Q 1875 4659 2481 4659 
Q 3169 4659 3637 4309 
Q 4106 3959 4291 3325 
L 3694 3184 
Q 3534 3684 3231 3912 
Q 2928 4141 2469 4141 
Q 1941 4141 1586 3887 
Q 1231 3634 1087 3207 
Q 944 2781 944 2328 
Q 944 1744 1114 1308 
Q 1284 872 1643 656 
Q 2003 441 2422 441 
Q 2931 441 3284 734 
Q 3638 1028 3763 1606 
z
" transform="scale(0.015625)"/>
        <path id="ArialMT-6f" d="M 213 1659 
Q 213 2581 725 3025 
Q 1153 3394 1769 3394 
Q 2453 3394 2887 2945 
Q 3322 2497 3322 1706 
Q 3322 1066 3130 698 
Q 2938 331 2570 128 
Q 2203 -75 1769 -75 
Q 1072 -75 642 372 
Q 213 819 213 1659 
z
M 791 1659 
Q 791 1022 1069 705 
Q 1347 388 1769 388 
Q 2188 388 2466 706 
Q 2744 1025 2744 1678 
Q 2744 2294 2464 2611 
Q 2184 2928 1769 2928 
Q 1347 2928 1069 2612 
Q 791 2297 791 1659 
z
" transform="scale(0.015625)"/>
        <path id="ArialMT-6d" d="M 422 0 
L 422 3319 
L 925 3319 
L 925 2853 
Q 1081 3097 1340 3245 
Q 1600 3394 1931 3394 
Q 2300 3394 2536 3241 
Q 2772 3088 2869 2813 
Q 3263 3394 3894 3394 
Q 4388 3394 4653 3120 
Q 4919 2847 4919 2278 
L 4919 0 
L 4359 0 
L 4359 2091 
Q 4359 2428 4304 2576 
Q 4250 2725 4106 2815 
Q 3963 2906 3769 2906 
Q 3419 2906 3187 2673 
Q 2956 2441 2956 1928 
L 2956 0 
L 2394 0 
L 2394 2156 
Q 2394 2531 2256 2718 
Q 2119 2906 1806 2906 
Q 1569 2906 1367 2781 
Q 1166 2656 1075 2415 
Q 984 2175 984 1722 
L 984 0 
L 422 0 
z
" transform="scale(0.015625)"/>
        <path id="ArialMT-70" d="M 422 -1272 
L 422 3319 
L 934 3319 
L 934 2888 
Q 1116 3141 1344 3267 
Q 1572 3394 1897 3394 
Q 2322 3394 2647 3175 
Q 2972 2956 3137 2557 
Q 3303 2159 3303 1684 
Q 3303 1175 3120 767 
Q 2938 359 2589 142 
Q 2241 -75 1856 -75 
Q 1575 -75 1351 44 
Q 1128 163 984 344 
L 984 -1272 
L 422 -1272 
z
M 931 1641 
Q 931 1000 1190 694 
Q 1450 388 1819 388 
Q 2194 388 2461 705 
Q 2728 1022 2728 1688 
Q 2728 2322 2467 2637 
Q 2206 2953 1844 2953 
Q 1484 2953 1207 2617 
Q 931 2281 931 1641 
z
" transform="scale(0.015625)"/>
        <path id="ArialMT-65" d="M 2694 1069 
L 3275 997 
Q 3138 488 2766 206 
Q 2394 -75 1816 -75 
Q 1088 -75 661 373 
Q 234 822 234 1631 
Q 234 2469 665 2931 
Q 1097 3394 1784 3394 
Q 2450 3394 2872 2941 
Q 3294 2488 3294 1666 
Q 3294 1616 3291 1516 
L 816 1516 
Q 847 969 1125 678 
Q 1403 388 1819 388 
Q 2128 388 2347 550 
Q 2566 713 2694 1069 
z
M 847 1978 
L 2700 1978 
Q 2663 2397 2488 2606 
Q 2219 2931 1791 2931 
Q 1403 2931 1139 2672 
Q 875 2413 847 1978 
z
" transform="scale(0.015625)"/>
        <path id="ArialMT-76" d="M 1344 0 
L 81 3319 
L 675 3319 
L 1388 1331 
Q 1503 1009 1600 663 
Q 1675 925 1809 1294 
L 2547 3319 
L 3125 3319 
L 1869 0 
L 1344 0 
z
" transform="scale(0.015625)"/>
       </defs>
       <use xlink:href="#ArialMT-43"/>
       <use xlink:href="#ArialMT-6f" x="72.216797"/>
       <use xlink:href="#ArialMT-6d" x="127.832031"/>
       <use xlink:href="#ArialMT-70" x="211.132812"/>
       <use xlink:href="#ArialMT-65" x="266.748047"/>
       <use xlink:href="#ArialMT-74" x="322.363281"/>
       <use xlink:href="#ArialMT-69" x="350.146484"/>
       <use xlink:href="#ArialMT-74" x="372.363281"/>
       <use xlink:href="#ArialMT-69" x="400.146484"/>
       <use xlink:href="#ArialMT-76" x="422.363281"/>
       <use xlink:href="#ArialMT-65" x="472.363281"/>
      </g>
     </g>
    </g>
    <g id="ytick_2">
     <g id="text_8">
      <!-- Cooperative -->
      <g style="fill: #262626" transform="translate(10.972812 237.743906) scale(0.1 -0.1)">
       <defs>
        <path id="ArialMT-72" d="M 416 0 
L 416 3319 
L 922 3319 
L 922 2816 
Q 1116 3169 1280 3281 
Q 1444 3394 1641 3394 
Q 1925 3394 2219 3213 
L 2025 2691 
Q 1819 2813 1613 2813 
Q 1428 2813 1281 2702 
Q 1134 2591 1072 2394 
Q 978 2094 978 1738 
L 978 0 
L 416 0 
z
" transform="scale(0.015625)"/>
       </defs>
       <use xlink:href="#ArialMT-43"/>
       <use xlink:href="#ArialMT-6f" x="72.216797"/>
       <use xlink:href="#ArialMT-6f" x="127.832031"/>
       <use xlink:href="#ArialMT-70" x="183.447266"/>
       <use xlink:href="#ArialMT-65" x="239.0625"/>
       <use xlink:href="#ArialMT-72" x="294.677734"/>
       <use xlink:href="#ArialMT-61" x="327.978516"/>
       <use xlink:href="#ArialMT-74" x="383.59375"/>
       <use xlink:href="#ArialMT-69" x="411.376953"/>
       <use xlink:href="#ArialMT-76" x="433.59375"/>
       <use xlink:href="#ArialMT-65" x="483.59375"/>
      </g>
     </g>
    </g>
   </g>
   <g id="PolyCollection_1">
    <defs>
     <path id="m9de4085462" d="M 89.076818 -250.531283 
L 89.076818 -250.604342 
L 92.295142 -250.636041 
L 95.513465 -250.683921 
L 98.731789 -250.74822 
L 101.950113 -250.824422 
L 105.168436 -250.903104 
L 108.38676 -250.972288 
L 111.605083 -251.021897 
L 114.823407 -251.048455 
L 118.041731 -251.057443 
L 121.260054 -251.061547 
L 124.478378 -251.07528 
L 127.696701 -251.108881 
L 130.915025 -251.165272 
L 134.133349 -251.24188 
L 137.351672 -251.33548 
L 140.569996 -251.44581 
L 143.788319 -251.575164 
L 147.006643 -251.725335 
L 150.224967 -251.895865 
L 153.44329 -252.085423 
L 156.661614 -252.293517 
L 159.879937 -252.518143 
L 163.098261 -252.749339 
L 166.316584 -252.964667 
L 169.534908 -253.133663 
L 172.753232 -253.231959 
L 175.971555 -253.257487 
L 179.189879 -253.238464 
L 182.408202 -253.22774 
L 185.626526 -253.286428 
L 188.84485 -253.465208 
L 192.063173 -253.791747 
L 195.281497 -254.26865 
L 198.49982 -254.881512 
L 201.718144 -255.613199 
L 204.936468 -256.458938 
L 208.154791 -257.436375 
L 211.373115 -258.585022 
L 214.591438 -259.951945 
L 217.809762 -261.566885 
L 221.028086 -263.41871 
L 224.246409 -265.449176 
L 227.464733 -267.572679 
L 230.683056 -269.71402 
L 233.90138 -271.842602 
L 237.119704 -273.983318 
L 240.338027 -276.200645 
L 243.556351 -278.56936 
L 246.774674 -281.149228 
L 249.992998 -283.971527 
L 253.211322 -287.033145 
L 256.429645 -290.290091 
L 259.647969 -293.647988 
L 262.866292 -296.956027 
L 266.084616 -300.015029 
L 269.30294 -302.607045 
L 272.521263 -304.545085 
L 275.739587 -305.730647 
L 278.95791 -306.196562 
L 282.176234 -306.108878 
L 285.394558 -305.712077 
L 288.612881 -305.229567 
L 291.831205 -304.763476 
L 295.049528 -304.24959 
L 298.267852 -303.498051 
L 301.486176 -302.298988 
L 304.704499 -300.530571 
L 307.922823 -298.207405 
L 311.141146 -295.45041 
L 314.35947 -292.411635 
L 317.577794 -289.20986 
L 320.796117 -285.912613 
L 324.014441 -282.559598 
L 327.232764 -279.195695 
L 330.451088 -275.885468 
L 333.669412 -272.704381 
L 336.887735 -269.720881 
L 340.106059 -266.984926 
L 343.324382 -264.527624 
L 346.542706 -262.366455 
L 349.761029 -260.508604 
L 352.979353 -258.949461 
L 356.197677 -257.668732 
L 359.416 -256.628877 
L 362.634324 -255.778909 
L 365.852647 -255.063069 
L 369.070971 -254.431161 
L 372.289295 -253.846958 
L 375.507618 -253.292365 
L 378.725942 -252.766564 
L 381.944265 -252.280738 
L 385.162589 -251.850331 
L 388.380913 -251.487784 
L 391.599236 -251.198279 
L 394.81756 -250.979227 
L 398.035883 -250.822295 
L 401.254207 -250.716155 
L 404.472531 -250.64876 
L 407.690854 -250.60888 
L 407.690854 -250.526745 
L 407.690854 -250.526745 
L 404.472531 -250.486865 
L 401.254207 -250.41947 
L 398.035883 -250.31333 
L 394.81756 -250.156398 
L 391.599236 -249.937346 
L 388.380913 -249.647841 
L 385.162589 -249.285294 
L 381.944265 -248.854887 
L 378.725942 -248.369061 
L 375.507618 -247.84326 
L 372.289295 -247.288667 
L 369.070971 -246.704464 
L 365.852647 -246.072556 
L 362.634324 -245.356716 
L 359.416 -244.506748 
L 356.197677 -243.466893 
L 352.979353 -242.186164 
L 349.761029 -240.627021 
L 346.542706 -238.76917 
L 343.324382 -236.608001 
L 340.106059 -234.150699 
L 336.887735 -231.414744 
L 333.669412 -228.431244 
L 330.451088 -225.250157 
L 327.232764 -221.93993 
L 324.014441 -218.576027 
L 320.796117 -215.223012 
L 317.577794 -211.925765 
L 314.35947 -208.72399 
L 311.141146 -205.685215 
L 307.922823 -202.92822 
L 304.704499 -200.605054 
L 301.486176 -198.836637 
L 298.267852 -197.637574 
L 295.049528 -196.886035 
L 291.831205 -196.372149 
L 288.612881 -195.906058 
L 285.394558 -195.423548 
L 282.176234 -195.026747 
L 278.95791 -194.939062 
L 275.739587 -195.404978 
L 272.521263 -196.59054 
L 269.30294 -198.52858 
L 266.084616 -201.120596 
L 262.866292 -204.179598 
L 259.647969 -207.487637 
L 256.429645 -210.845534 
L 253.211322 -214.10248 
L 249.992998 -217.164098 
L 246.774674 -219.986397 
L 243.556351 -222.566265 
L 240.338027 -224.93498 
L 237.119704 -227.152307 
L 233.90138 -229.293023 
L 230.683056 -231.421605 
L 227.464733 -233.562946 
L 224.246409 -235.686449 
L 221.028086 -237.716915 
L 217.809762 -239.56874 
L 214.591438 -241.18368 
L 211.373115 -242.550603 
L 208.154791 -243.69925 
L 204.936468 -244.676687 
L 201.718144 -245.522426 
L 198.49982 -246.254113 
L 195.281497 -246.866975 
L 192.063173 -247.343878 
L 188.84485 -247.670417 
L 185.626526 -247.849197 
L 182.408202 -247.907885 
L 179.189879 -247.897161 
L 175.971555 -247.878138 
L 172.753232 -247.903666 
L 169.534908 -248.001962 
L 166.316584 -248.170958 
L 163.098261 -248.386286 
L 159.879937 -248.617482 
L 156.661614 -248.842108 
L 153.44329 -249.050202 
L 150.224967 -249.23976 
L 147.006643 -249.41029 
L 143.788319 -249.560461 
L 140.569996 -249.689815 
L 137.351672 -249.800145 
L 134.133349 -249.893745 
L 130.915025 -249.970353 
L 127.696701 -250.026744 
L 124.478378 -250.060345 
L 121.260054 -250.074078 
L 118.041731 -250.078182 
L 114.823407 -250.08717 
L 111.605083 -250.113728 
L 108.38676 -250.163337 
L 105.168436 -250.232521 
L 101.950113 -250.311203 
L 98.731789 -250.387405 
L 95.513465 -250.451704 
L 92.295142 -250.499584 
L 89.076818 -250.531283 
z
" style="stroke: #262626; stroke-width: 1.25"/>
    </defs>
    <g clip-path="url(#p37a86a4d7b)">
     <use xlink:href="#m9de4085462" x="0" y="345.6" style="fill: #701070; stroke: #262626; stroke-width: 1.25"/>
    </g>
   </g>
   <g id="PolyCollection_2">
    <defs>
     <path id="ma9609f3c05" d="M 184.915207 -111.315013 
L 184.915207 -111.676862 
L 187.419227 -111.755958 
L 189.923246 -111.860281 
L 192.427266 -111.994231 
L 194.931286 -112.161984 
L 197.435306 -112.367416 
L 199.939326 -112.614212 
L 202.443346 -112.906221 
L 204.947366 -113.248028 
L 207.451386 -113.645685 
L 209.955406 -114.107426 
L 212.459426 -114.644193 
L 214.963446 -115.269756 
L 217.467466 -116.0003 
L 219.971486 -116.853475 
L 222.475506 -117.847025 
L 224.979526 -118.99727 
L 227.483546 -120.317781 
L 229.987566 -121.81853 
L 232.491586 -123.505668 
L 234.995606 -125.381851 
L 237.499626 -127.44676 
L 240.003646 -129.697303 
L 242.507665 -132.126997 
L 245.011685 -134.72418 
L 247.515705 -137.469145 
L 250.019725 -140.330722 
L 252.523745 -143.26331 
L 255.027765 -146.205508 
L 257.531785 -149.081455 
L 260.035805 -151.805447 
L 262.539825 -154.289697 
L 265.043845 -156.454263 
L 267.547865 -158.237476 
L 270.051885 -159.604839 
L 272.555905 -160.554513 
L 275.059925 -161.118032 
L 277.563945 -161.355845 
L 280.067965 -161.348258 
L 282.571985 -161.183295 
L 285.076005 -160.943565 
L 287.580025 -160.694373 
L 290.084045 -160.475077 
L 292.588064 -160.295011 
L 295.092084 -160.134513 
L 297.596104 -159.950642 
L 300.100124 -159.686451 
L 302.604144 -159.282071 
L 305.108164 -158.685666 
L 307.612184 -157.862418 
L 310.116204 -156.800117 
L 312.620224 -155.510644 
L 315.124244 -154.027419 
L 317.628264 -152.399609 
L 320.132284 -150.684457 
L 322.636304 -148.939263 
L 325.140324 -147.214466 
L 327.644344 -145.548823 
L 330.148364 -143.967135 
L 332.652384 -142.480387 
L 335.156404 -141.087771 
L 337.660424 -139.779783 
L 340.164444 -138.541638 
L 342.668464 -137.356365 
L 345.172483 -136.20719 
L 347.676503 -135.079093 
L 350.180523 -133.959587 
L 352.684543 -132.838924 
L 355.188563 -131.709978 
L 357.692583 -130.568036 
L 360.196603 -129.410692 
L 362.700623 -128.237913 
L 365.204643 -127.052305 
L 367.708663 -125.859436 
L 370.212683 -124.668075 
L 372.716703 -123.490128 
L 375.220723 -122.340123 
L 377.724743 -121.234163 
L 380.228763 -120.18841 
L 382.732783 -119.217298 
L 385.236803 -118.331762 
L 387.740823 -117.537845 
L 390.244843 -116.835968 
L 392.748863 -116.221035 
L 395.252883 -115.683395 
L 397.756902 -115.210458 
L 400.260922 -114.788658 
L 402.764942 -114.405388 
L 405.268962 -114.050544 
L 407.772982 -113.717434 
L 410.277002 -113.402967 
L 412.781022 -113.107182 
L 415.285042 -112.832312 
L 417.789062 -112.581637 
L 420.293082 -112.35838 
L 422.797102 -112.164843 
L 425.301122 -112.001898 
L 427.805142 -111.868836 
L 430.309162 -111.763529 
L 432.813182 -111.682794 
L 432.813182 -111.309081 
L 432.813182 -111.309081 
L 430.309162 -111.228346 
L 427.805142 -111.123039 
L 425.301122 -110.989977 
L 422.797102 -110.827032 
L 420.293082 -110.633495 
L 417.789062 -110.410238 
L 415.285042 -110.159563 
L 412.781022 -109.884693 
L 410.277002 -109.588908 
L 407.772982 -109.274441 
L 405.268962 -108.941331 
L 402.764942 -108.586487 
L 400.260922 -108.203217 
L 397.756902 -107.781417 
L 395.252883 -107.30848 
L 392.748863 -106.77084 
L 390.244843 -106.155907 
L 387.740823 -105.45403 
L 385.236803 -104.660113 
L 382.732783 -103.774577 
L 380.228763 -102.803465 
L 377.724743 -101.757712 
L 375.220723 -100.651752 
L 372.716703 -99.501747 
L 370.212683 -98.3238 
L 367.708663 -97.132439 
L 365.204643 -95.93957 
L 362.700623 -94.753962 
L 360.196603 -93.581183 
L 357.692583 -92.423839 
L 355.188563 -91.281897 
L 352.684543 -90.152951 
L 350.180523 -89.032288 
L 347.676503 -87.912782 
L 345.172483 -86.784685 
L 342.668464 -85.63551 
L 340.164444 -84.450237 
L 337.660424 -83.212092 
L 335.156404 -81.904104 
L 332.652384 -80.511488 
L 330.148364 -79.02474 
L 327.644344 -77.443052 
L 325.140324 -75.777409 
L 322.636304 -74.052612 
L 320.132284 -72.307418 
L 317.628264 -70.592266 
L 315.124244 -68.964456 
L 312.620224 -67.481231 
L 310.116204 -66.191758 
L 307.612184 -65.129457 
L 305.108164 -64.306209 
L 302.604144 -63.709804 
L 300.100124 -63.305424 
L 297.596104 -63.041233 
L 295.092084 -62.857362 
L 292.588064 -62.696864 
L 290.084045 -62.516798 
L 287.580025 -62.297502 
L 285.076005 -62.04831 
L 282.571985 -61.80858 
L 280.067965 -61.643617 
L 277.563945 -61.63603 
L 275.059925 -61.873843 
L 272.555905 -62.437362 
L 270.051885 -63.387036 
L 267.547865 -64.754399 
L 265.043845 -66.537612 
L 262.539825 -68.702178 
L 260.035805 -71.186428 
L 257.531785 -73.91042 
L 255.027765 -76.786367 
L 252.523745 -79.728565 
L 250.019725 -82.661153 
L 247.515705 -85.52273 
L 245.011685 -88.267695 
L 242.507665 -90.864878 
L 240.003646 -93.294572 
L 237.499626 -95.545115 
L 234.995606 -97.610024 
L 232.491586 -99.486207 
L 229.987566 -101.173345 
L 227.483546 -102.674094 
L 224.979526 -103.994605 
L 222.475506 -105.14485 
L 219.971486 -106.1384 
L 217.467466 -106.991575 
L 214.963446 -107.722119 
L 212.459426 -108.347682 
L 209.955406 -108.884449 
L 207.451386 -109.34619 
L 204.947366 -109.743847 
L 202.443346 -110.085654 
L 199.939326 -110.377663 
L 197.435306 -110.624459 
L 194.931286 -110.829891 
L 192.427266 -110.997644 
L 189.923246 -111.131594 
L 187.419227 -111.235917 
L 184.915207 -111.315013 
z
" style="stroke: #262626; stroke-width: 1.25"/>
    </defs>
    <g clip-path="url(#p37a86a4d7b)">
     <use xlink:href="#ma9609f3c05" x="0" y="345.6" style="fill: #701070; stroke: #262626; stroke-width: 1.25"/>
    </g>
   </g>
   <g id="line2d_1">
    <path d="M 191.726593 95.032187 
L 377.9241 95.032187 
" clip-path="url(#p37a86a4d7b)" style="fill: none; stroke: #262626; stroke-width: 1.875; stroke-linecap: round"/>
   </g>
   <g id="line2d_2">
    <path d="M 259.88669 95.032187 
L 307.155486 95.032187 
" clip-path="url(#p37a86a4d7b)" style="fill: none; stroke: #262626; stroke-width: 5.625; stroke-linecap: round"/>
   </g>
   <g id="line2d_3">
    <path d="M 283.040703 95.032187 
" clip-path="url(#p37a86a4d7b)" style="fill: none; stroke: #262626; stroke-width: 1.5; stroke-linecap: round"/>
    <defs>
     <path id="mc5428b56c7" d="M 0 2.34375 
L 0 -2.34375 
" style="stroke: #ffffff; stroke-width: 1.125"/>
    </defs>
    <g clip-path="url(#p37a86a4d7b)">
     <use xlink:href="#mc5428b56c7" x="283.040703" y="95.032187" style="fill: #ffffff; stroke: #ffffff; stroke-width: 1.125"/>
    </g>
   </g>
   <g id="line2d_4">
    <path d="M 213.56084 234.104062 
L 404.167549 234.104062 
" clip-path="url(#p37a86a4d7b)" style="fill: none; stroke: #262626; stroke-width: 1.875; stroke-linecap: round"/>
   </g>
   <g id="line2d_5">
    <path d="M 270.93465 234.104062 
L 324.680708 234.104062 
" clip-path="url(#p37a86a4d7b)" style="fill: none; stroke: #262626; stroke-width: 5.625; stroke-linecap: round"/>
   </g>
   <g id="line2d_6">
    <path d="M 296.905019 234.104062 
" clip-path="url(#p37a86a4d7b)" style="fill: none; stroke: #262626; stroke-width: 1.5; stroke-linecap: round"/>
    <g clip-path="url(#p37a86a4d7b)">
     <use xlink:href="#mc5428b56c7" x="296.905019" y="234.104062" style="fill: #ffffff; stroke: #ffffff; stroke-width: 1.125"/>
    </g>
   </g>
   <g id="patch_3">
    <path d="M 71.89 303.64 
L 71.89 25.49625 
" style="fill: none; stroke: #ffffff; stroke-width: 0.8; stroke-linejoin: miter; stroke-linecap: square"/>
   </g>
   <g id="patch_4">
    <path d="M 450 303.64 
L 450 25.49625 
" style="fill: none; stroke: #ffffff; stroke-width: 0.8; stroke-linejoin: miter; stroke-linecap: square"/>
   </g>
   <g id="patch_5">
    <path d="M 71.89 303.64 
L 450 303.64 
" style="fill: none; stroke: #ffffff; stroke-width: 0.8; stroke-linejoin: miter; stroke-linecap: square"/>
   </g>
   <g id="patch_6">
    <path d="M 71.89 25.49625 
L 450 25.49625 
" style="fill: none; stroke: #ffffff; stroke-width: 0.8; stroke-linejoin: miter; stroke-linecap: square"/>
   </g>
   <g id="text_9">
    <!-- Competitive/Cooperative vs Rating -->
    <g style="fill: #262626" transform="translate(168.574062 19.49625) scale(0.12 -0.12)">
     <defs>
      <path id="ArialMT-2f" d="M 0 -78 
L 1328 4659 
L 1778 4659 
L 453 -78 
L 0 -78 
z
" transform="scale(0.015625)"/>
      <path id="ArialMT-20" transform="scale(0.015625)"/>
      <path id="ArialMT-73" d="M 197 991 
L 753 1078 
Q 800 744 1014 566 
Q 1228 388 1613 388 
Q 2000 388 2187 545 
Q 2375 703 2375 916 
Q 2375 1106 2209 1216 
Q 2094 1291 1634 1406 
Q 1016 1563 777 1677 
Q 538 1791 414 1992 
Q 291 2194 291 2438 
Q 291 2659 392 2848 
Q 494 3038 669 3163 
Q 800 3259 1026 3326 
Q 1253 3394 1513 3394 
Q 1903 3394 2198 3281 
Q 2494 3169 2634 2976 
Q 2775 2784 2828 2463 
L 2278 2388 
Q 2241 2644 2061 2787 
Q 1881 2931 1553 2931 
Q 1166 2931 1000 2803 
Q 834 2675 834 2503 
Q 834 2394 903 2306 
Q 972 2216 1119 2156 
Q 1203 2125 1616 2013 
Q 2213 1853 2448 1751 
Q 2684 1650 2818 1456 
Q 2953 1263 2953 975 
Q 2953 694 2789 445 
Q 2625 197 2315 61 
Q 2006 -75 1616 -75 
Q 969 -75 630 194 
Q 291 463 197 991 
z
" transform="scale(0.015625)"/>
     </defs>
     <use xlink:href="#ArialMT-43"/>
     <use xlink:href="#ArialMT-6f" x="72.216797"/>
     <use xlink:href="#ArialMT-6d" x="127.832031"/>
     <use xlink:href="#ArialMT-70" x="211.132812"/>
     <use xlink:href="#ArialMT-65" x="266.748047"/>
     <use xlink:href="#ArialMT-74" x="322.363281"/>
     <use xlink:href="#ArialMT-69" x="350.146484"/>
     <use xlink:href="#ArialMT-74" x="372.363281"/>
     <use xlink:href="#ArialMT-69" x="400.146484"/>
     <use xlink:href="#ArialMT-76" x="422.363281"/>
     <use xlink:href="#ArialMT-65" x="472.363281"/>
     <use xlink:href="#ArialMT-2f" x="527.978516"/>
     <use xlink:href="#ArialMT-43" x="555.761719"/>
     <use xlink:href="#ArialMT-6f" x="627.978516"/>
     <use xlink:href="#ArialMT-6f" x="683.59375"/>
     <use xlink:href="#ArialMT-70" x="739.208984"/>
     <use xlink:href="#ArialMT-65" x="794.824219"/>
     <use xlink:href="#ArialMT-72" x="850.439453"/>
     <use xlink:href="#ArialMT-61" x="883.740234"/>
     <use xlink:href="#ArialMT-74" x="939.355469"/>
     <use xlink:href="#ArialMT-69" x="967.138672"/>
     <use xlink:href="#ArialMT-76" x="989.355469"/>
     <use xlink:href="#ArialMT-65" x="1039.355469"/>
     <use xlink:href="#ArialMT-20" x="1094.970703"/>
     <use xlink:href="#ArialMT-76" x="1122.753906"/>
     <use xlink:href="#ArialMT-73" x="1172.753906"/>
     <use xlink:href="#ArialMT-20" x="1222.753906"/>
     <use xlink:href="#ArialMT-52" x="1250.537109"/>
     <use xlink:href="#ArialMT-61" x="1322.753906"/>
     <use xlink:href="#ArialMT-74" x="1378.369141"/>
     <use xlink:href="#ArialMT-69" x="1406.152344"/>
     <use xlink:href="#ArialMT-6e" x="1428.369141"/>
     <use xlink:href="#ArialMT-67" x="1483.984375"/>
    </g>
   </g>
  </g>
 </g>
 <defs>
  <clipPath id="p37a86a4d7b">
   <rect x="71.89" y="25.49625" width="378.11" height="278.14375"/>
  </clipPath>
 </defs>
</svg>
