<?xml version="1.0" encoding="utf-8" standalone="no"?>
<!DOCTYPE svg PUBLIC "-//W3C//DTD SVG 1.1//EN"
  "http://www.w3.org/Graphics/SVG/1.1/DTD/svg11.dtd">
<svg xmlns:xlink="http://www.w3.org/1999/xlink" width="432pt" height="432pt" viewBox="0 0 432 432" xmlns="http://www.w3.org/2000/svg" version="1.1">
 <metadata>
  <rdf:RDF xmlns:dc="http://purl.org/dc/elements/1.1/" xmlns:cc="http://creativecommons.org/ns#" xmlns:rdf="http://www.w3.org/1999/02/22-rdf-syntax-ns#">
   <cc:Work>
    <dc:type rdf:resource="http://purl.org/dc/dcmitype/StillImage"/>
    <dc:date>2024-04-11T22:52:38.731059</dc:date>
    <dc:format>image/svg+xml</dc:format>
    <dc:creator>
     <cc:Agent>
      <dc:title>Matplotlib v3.8.3, https://matplotlib.org/</dc:title>
     </cc:Agent>
    </dc:creator>
   </cc:Work>
  </rdf:RDF>
 </metadata>
 <defs>
  <style type="text/css">*{stroke-linejoin: round; stroke-linecap: butt}</style>
 </defs>
 <g id="figure_1">
  <g id="patch_1">
   <path d="M 0 432 
L 432 432 
L 432 0 
L 0 0 
z
" style="fill: #ffffff"/>
  </g>
  <g id="axes_1">
   <g id="patch_2">
    <path d="M 42.82 404.12 
L 421.2 404.12 
L 421.2 25.44 
L 42.82 25.44 
z
" style="fill: #eaeaf2"/>
   </g>
   <g id="matplotlib.axis_1">
    <g id="xtick_1">
     <g id="text_1">
      <!-- 2017 -->
      <g style="fill: #262626" transform="translate(59.073449 418.277812) scale(0.1 -0.1)">
       <defs>
        <path id="ArialMT-32" d="M 3222 541 
L 3222 0 
L 194 0 
Q 188 203 259 391 
Q 375 700 629 1000 
Q 884 1300 1366 1694 
Q 2113 2306 2375 2664 
Q 2638 3022 2638 3341 
Q 2638 3675 2398 3904 
Q 2159 4134 1775 4134 
Q 1369 4134 1125 3890 
Q 881 3647 878 3216 
L 300 3275 
Q 359 3922 746 4261 
Q 1134 4600 1788 4600 
Q 2447 4600 2831 4234 
Q 3216 3869 3216 3328 
Q 3216 3053 3103 2787 
Q 2991 2522 2730 2228 
Q 2469 1934 1863 1422 
Q 1356 997 1212 845 
Q 1069 694 975 541 
L 3222 541 
z
" transform="scale(0.015625)"/>
        <path id="ArialMT-30" d="M 266 2259 
Q 266 3072 433 3567 
Q 600 4063 929 4331 
Q 1259 4600 1759 4600 
Q 2128 4600 2406 4451 
Q 2684 4303 2865 4023 
Q 3047 3744 3150 3342 
Q 3253 2941 3253 2259 
Q 3253 1453 3087 958 
Q 2922 463 2592 192 
Q 2263 -78 1759 -78 
Q 1097 -78 719 397 
Q 266 969 266 2259 
z
M 844 2259 
Q 844 1131 1108 757 
Q 1372 384 1759 384 
Q 2147 384 2411 759 
Q 2675 1134 2675 2259 
Q 2675 3391 2411 3762 
Q 2147 4134 1753 4134 
Q 1366 4134 1134 3806 
Q 844 3388 844 2259 
z
" transform="scale(0.015625)"/>
        <path id="ArialMT-31" d="M 2384 0 
L 1822 0 
L 1822 3584 
Q 1619 3391 1289 3197 
Q 959 3003 697 2906 
L 697 3450 
Q 1169 3672 1522 3987 
Q 1875 4303 2022 4600 
L 2384 4600 
L 2384 0 
z
" transform="scale(0.015625)"/>
        <path id="ArialMT-37" d="M 303 3981 
L 303 4522 
L 3269 4522 
L 3269 4084 
Q 2831 3619 2401 2847 
Q 1972 2075 1738 1259 
Q 1569 684 1522 0 
L 944 0 
Q 953 541 1156 1306 
Q 1359 2072 1739 2783 
Q 2119 3494 2547 3981 
L 303 3981 
z
" transform="scale(0.015625)"/>
       </defs>
       <use xlink:href="#ArialMT-32"/>
       <use xlink:href="#ArialMT-30" x="55.615234"/>
       <use xlink:href="#ArialMT-31" x="111.230469"/>
       <use xlink:href="#ArialMT-37" x="166.845703"/>
      </g>
     </g>
    </g>
    <g id="xtick_2">
     <g id="text_2">
      <!-- 2018 -->
      <g style="fill: #262626" transform="translate(104.929316 418.277812) scale(0.1 -0.1)">
       <defs>
        <path id="ArialMT-38" d="M 1131 2484 
Q 781 2613 612 2850 
Q 444 3088 444 3419 
Q 444 3919 803 4259 
Q 1163 4600 1759 4600 
Q 2359 4600 2725 4251 
Q 3091 3903 3091 3403 
Q 3091 3084 2923 2848 
Q 2756 2613 2416 2484 
Q 2838 2347 3058 2040 
Q 3278 1734 3278 1309 
Q 3278 722 2862 322 
Q 2447 -78 1769 -78 
Q 1091 -78 675 323 
Q 259 725 259 1325 
Q 259 1772 486 2073 
Q 713 2375 1131 2484 
z
M 1019 3438 
Q 1019 3113 1228 2906 
Q 1438 2700 1772 2700 
Q 2097 2700 2305 2904 
Q 2513 3109 2513 3406 
Q 2513 3716 2298 3927 
Q 2084 4138 1766 4138 
Q 1444 4138 1231 3931 
Q 1019 3725 1019 3438 
z
M 838 1322 
Q 838 1081 952 856 
Q 1066 631 1291 507 
Q 1516 384 1775 384 
Q 2178 384 2440 643 
Q 2703 903 2703 1303 
Q 2703 1709 2433 1975 
Q 2163 2241 1756 2241 
Q 1359 2241 1098 1978 
Q 838 1716 838 1322 
z
" transform="scale(0.015625)"/>
       </defs>
       <use xlink:href="#ArialMT-32"/>
       <use xlink:href="#ArialMT-30" x="55.615234"/>
       <use xlink:href="#ArialMT-31" x="111.230469"/>
       <use xlink:href="#ArialMT-38" x="166.845703"/>
      </g>
     </g>
    </g>
    <g id="xtick_3">
     <g id="text_3">
      <!-- 2019 -->
      <g style="fill: #262626" transform="translate(150.785183 418.277812) scale(0.1 -0.1)">
       <defs>
        <path id="ArialMT-39" d="M 350 1059 
L 891 1109 
Q 959 728 1153 556 
Q 1347 384 1650 384 
Q 1909 384 2104 503 
Q 2300 622 2425 820 
Q 2550 1019 2634 1356 
Q 2719 1694 2719 2044 
Q 2719 2081 2716 2156 
Q 2547 1888 2255 1720 
Q 1963 1553 1622 1553 
Q 1053 1553 659 1965 
Q 266 2378 266 3053 
Q 266 3750 677 4175 
Q 1088 4600 1706 4600 
Q 2153 4600 2523 4359 
Q 2894 4119 3086 3673 
Q 3278 3228 3278 2384 
Q 3278 1506 3087 986 
Q 2897 466 2520 194 
Q 2144 -78 1638 -78 
Q 1100 -78 759 220 
Q 419 519 350 1059 
z
M 2653 3081 
Q 2653 3566 2395 3850 
Q 2138 4134 1775 4134 
Q 1400 4134 1122 3828 
Q 844 3522 844 3034 
Q 844 2597 1108 2323 
Q 1372 2050 1759 2050 
Q 2150 2050 2401 2323 
Q 2653 2597 2653 3081 
z
" transform="scale(0.015625)"/>
       </defs>
       <use xlink:href="#ArialMT-32"/>
       <use xlink:href="#ArialMT-30" x="55.615234"/>
       <use xlink:href="#ArialMT-31" x="111.230469"/>
       <use xlink:href="#ArialMT-39" x="166.845703"/>
      </g>
     </g>
    </g>
    <g id="xtick_4">
     <g id="text_4">
      <!-- 2020 -->
      <g style="fill: #262626" transform="translate(196.64105 418.277812) scale(0.1 -0.1)">
       <use xlink:href="#ArialMT-32"/>
       <use xlink:href="#ArialMT-30" x="55.615234"/>
       <use xlink:href="#ArialMT-32" x="111.230469"/>
       <use xlink:href="#ArialMT-30" x="166.845703"/>
      </g>
     </g>
    </g>
    <g id="xtick_5">
     <g id="text_5">
      <!-- 2021 -->
      <g style="fill: #262626" transform="translate(242.62255 418.277812) scale(0.1 -0.1)">
       <use xlink:href="#ArialMT-32"/>
       <use xlink:href="#ArialMT-30" x="55.615234"/>
       <use xlink:href="#ArialMT-32" x="111.230469"/>
       <use xlink:href="#ArialMT-31" x="166.845703"/>
      </g>
     </g>
    </g>
    <g id="xtick_6">
     <g id="text_6">
      <!-- 2022 -->
      <g style="fill: #262626" transform="translate(288.478417 418.277812) scale(0.1 -0.1)">
       <use xlink:href="#ArialMT-32"/>
       <use xlink:href="#ArialMT-30" x="55.615234"/>
       <use xlink:href="#ArialMT-32" x="111.230469"/>
       <use xlink:href="#ArialMT-32" x="166.845703"/>
      </g>
     </g>
    </g>
    <g id="xtick_7">
     <g id="text_7">
      <!-- 2023 -->
      <g style="fill: #262626" transform="translate(334.334283 418.277812) scale(0.1 -0.1)">
       <defs>
        <path id="ArialMT-33" d="M 269 1209 
L 831 1284 
Q 928 806 1161 595 
Q 1394 384 1728 384 
Q 2125 384 2398 659 
Q 2672 934 2672 1341 
Q 2672 1728 2419 1979 
Q 2166 2231 1775 2231 
Q 1616 2231 1378 2169 
L 1441 2663 
Q 1497 2656 1531 2656 
Q 1891 2656 2178 2843 
Q 2466 3031 2466 3422 
Q 2466 3731 2256 3934 
Q 2047 4138 1716 4138 
Q 1388 4138 1169 3931 
Q 950 3725 888 3313 
L 325 3413 
Q 428 3978 793 4289 
Q 1159 4600 1703 4600 
Q 2078 4600 2393 4439 
Q 2709 4278 2876 4000 
Q 3044 3722 3044 3409 
Q 3044 3113 2884 2869 
Q 2725 2625 2413 2481 
Q 2819 2388 3044 2092 
Q 3269 1797 3269 1353 
Q 3269 753 2831 336 
Q 2394 -81 1725 -81 
Q 1122 -81 723 278 
Q 325 638 269 1209 
z
" transform="scale(0.015625)"/>
       </defs>
       <use xlink:href="#ArialMT-32"/>
       <use xlink:href="#ArialMT-30" x="55.615234"/>
       <use xlink:href="#ArialMT-32" x="111.230469"/>
       <use xlink:href="#ArialMT-33" x="166.845703"/>
      </g>
     </g>
    </g>
    <g id="xtick_8">
     <g id="text_8">
      <!-- 2024 -->
      <g style="fill: #262626" transform="translate(380.19015 418.277812) scale(0.1 -0.1)">
       <defs>
        <path id="ArialMT-34" d="M 2069 0 
L 2069 1097 
L 81 1097 
L 81 1613 
L 2172 4581 
L 2631 4581 
L 2631 1613 
L 3250 1613 
L 3250 1097 
L 2631 1097 
L 2631 0 
L 2069 0 
z
M 2069 1613 
L 2069 3678 
L 634 1613 
L 2069 1613 
z
" transform="scale(0.015625)"/>
       </defs>
       <use xlink:href="#ArialMT-32"/>
       <use xlink:href="#ArialMT-30" x="55.615234"/>
       <use xlink:href="#ArialMT-32" x="111.230469"/>
       <use xlink:href="#ArialMT-34" x="166.845703"/>
      </g>
     </g>
    </g>
   </g>
   <g id="matplotlib.axis_2">
    <g id="ytick_1">
     <g id="text_9">
      <!-- 0.800 -->
      <g style="fill: #262626" transform="translate(10.798125 407.327932) scale(0.1 -0.1)">
       <defs>
        <path id="ArialMT-2e" d="M 581 0 
L 581 641 
L 1222 641 
L 1222 0 
L 581 0 
z
" transform="scale(0.015625)"/>
       </defs>
       <use xlink:href="#ArialMT-30"/>
       <use xlink:href="#ArialMT-2e" x="55.615234"/>
       <use xlink:href="#ArialMT-38" x="83.398438"/>
       <use xlink:href="#ArialMT-30" x="139.013672"/>
       <use xlink:href="#ArialMT-30" x="194.628906"/>
      </g>
     </g>
    </g>
    <g id="ytick_2">
     <g id="text_10">
      <!-- 0.805 -->
      <g style="fill: #262626" transform="translate(10.798125 357.242975) scale(0.1 -0.1)">
       <defs>
        <path id="ArialMT-35" d="M 266 1200 
L 856 1250 
Q 922 819 1161 601 
Q 1400 384 1738 384 
Q 2144 384 2425 690 
Q 2706 997 2706 1503 
Q 2706 1984 2436 2262 
Q 2166 2541 1728 2541 
Q 1456 2541 1237 2417 
Q 1019 2294 894 2097 
L 366 2166 
L 809 4519 
L 3088 4519 
L 3088 3981 
L 1259 3981 
L 1013 2750 
Q 1425 3038 1878 3038 
Q 2478 3038 2890 2622 
Q 3303 2206 3303 1553 
Q 3303 931 2941 478 
Q 2500 -78 1738 -78 
Q 1113 -78 717 272 
Q 322 622 266 1200 
z
" transform="scale(0.015625)"/>
       </defs>
       <use xlink:href="#ArialMT-30"/>
       <use xlink:href="#ArialMT-2e" x="55.615234"/>
       <use xlink:href="#ArialMT-38" x="83.398438"/>
       <use xlink:href="#ArialMT-30" x="139.013672"/>
       <use xlink:href="#ArialMT-35" x="194.628906"/>
      </g>
     </g>
    </g>
    <g id="ytick_3">
     <g id="text_11">
      <!-- 0.810 -->
      <g style="fill: #262626" transform="translate(10.798125 307.158019) scale(0.1 -0.1)">
       <use xlink:href="#ArialMT-30"/>
       <use xlink:href="#ArialMT-2e" x="55.615234"/>
       <use xlink:href="#ArialMT-38" x="83.398438"/>
       <use xlink:href="#ArialMT-31" x="139.013672"/>
       <use xlink:href="#ArialMT-30" x="194.628906"/>
      </g>
     </g>
    </g>
    <g id="ytick_4">
     <g id="text_12">
      <!-- 0.815 -->
      <g style="fill: #262626" transform="translate(10.798125 257.073062) scale(0.1 -0.1)">
       <use xlink:href="#ArialMT-30"/>
       <use xlink:href="#ArialMT-2e" x="55.615234"/>
       <use xlink:href="#ArialMT-38" x="83.398438"/>
       <use xlink:href="#ArialMT-31" x="139.013672"/>
       <use xlink:href="#ArialMT-35" x="194.628906"/>
      </g>
     </g>
    </g>
    <g id="ytick_5">
     <g id="text_13">
      <!-- 0.820 -->
      <g style="fill: #262626" transform="translate(10.798125 206.988106) scale(0.1 -0.1)">
       <use xlink:href="#ArialMT-30"/>
       <use xlink:href="#ArialMT-2e" x="55.615234"/>
       <use xlink:href="#ArialMT-38" x="83.398438"/>
       <use xlink:href="#ArialMT-32" x="139.013672"/>
       <use xlink:href="#ArialMT-30" x="194.628906"/>
      </g>
     </g>
    </g>
    <g id="ytick_6">
     <g id="text_14">
      <!-- 0.825 -->
      <g style="fill: #262626" transform="translate(10.798125 156.903149) scale(0.1 -0.1)">
       <use xlink:href="#ArialMT-30"/>
       <use xlink:href="#ArialMT-2e" x="55.615234"/>
       <use xlink:href="#ArialMT-38" x="83.398438"/>
       <use xlink:href="#ArialMT-32" x="139.013672"/>
       <use xlink:href="#ArialMT-35" x="194.628906"/>
      </g>
     </g>
    </g>
    <g id="ytick_7">
     <g id="text_15">
      <!-- 0.830 -->
      <g style="fill: #262626" transform="translate(10.798125 106.818193) scale(0.1 -0.1)">
       <use xlink:href="#ArialMT-30"/>
       <use xlink:href="#ArialMT-2e" x="55.615234"/>
       <use xlink:href="#ArialMT-38" x="83.398438"/>
       <use xlink:href="#ArialMT-33" x="139.013672"/>
       <use xlink:href="#ArialMT-30" x="194.628906"/>
      </g>
     </g>
    </g>
    <g id="ytick_8">
     <g id="text_16">
      <!-- 0.835 -->
      <g style="fill: #262626" transform="translate(10.798125 56.733236) scale(0.1 -0.1)">
       <use xlink:href="#ArialMT-30"/>
       <use xlink:href="#ArialMT-2e" x="55.615234"/>
       <use xlink:href="#ArialMT-38" x="83.398438"/>
       <use xlink:href="#ArialMT-33" x="139.013672"/>
       <use xlink:href="#ArialMT-35" x="194.628906"/>
      </g>
     </g>
    </g>
   </g>
   <g id="PolyCollection_1"/>
   <g id="line2d_1">
    <path d="M 60.019091 386.907273 
L 60.521621 385.80752 
L 60.772886 385.566444 
L 61.024151 383.518658 
L 61.149784 383.20115 
L 61.275416 382.47011 
L 61.777946 383.027217 
L 61.903579 382.806571 
L 62.154844 382.225026 
L 63.285536 380.734942 
L 63.411169 381.011456 
L 63.662434 380.495217 
L 63.913699 380.38697 
L 64.290596 379.978221 
L 64.416229 379.978221 
L 64.667494 379.37456 
L 64.793126 379.205004 
L 64.918759 378.832907 
L 65.044391 378.883037 
L 65.170024 379.199919 
L 65.421289 378.560372 
L 65.798186 377.683595 
L 65.923819 377.570472 
L 66.049451 377.637641 
L 66.300717 376.486745 
L 66.426349 376.485434 
L 66.551982 376.370148 
L 66.677614 376.430701 
L 67.557042 374.511474 
L 67.682674 374.637432 
L 68.185204 373.878776 
L 68.436469 374.03185 
L 68.562102 374.03185 
L 68.687734 373.567714 
L 68.813367 373.572039 
L 69.064632 372.684059 
L 69.190264 372.753885 
L 69.441529 372.168636 
L 69.692794 372.213655 
L 69.818427 371.43589 
L 69.944059 371.480392 
L 70.195324 371.246574 
L 70.320957 370.969765 
L 70.949119 368.057014 
L 71.074752 368.057014 
L 71.326017 367.165965 
L 71.45165 367.165965 
L 71.95418 365.920841 
L 72.079812 365.833479 
L 72.45671 364.661488 
L 72.582342 364.453346 
L 72.707975 362.558049 
L 72.833607 362.475445 
L 72.95924 362.634765 
L 73.336137 361.72277 
L 73.587402 360.840794 
L 73.838667 360.489081 
L 73.9643 360.684219 
L 74.089932 360.365649 
L 74.215565 361.406906 
L 74.341197 361.084426 
L 74.592462 360.103099 
L 74.718095 359.721334 
L 74.843727 360.090794 
L 75.346257 359.19389 
L 75.848787 359.0266 
L 76.100052 358.449343 
L 76.225685 358.477617 
L 76.47695 357.698478 
L 76.602583 357.834147 
L 76.853848 357.252122 
L 76.97948 357.231278 
L 77.105113 356.923141 
L 77.230745 357.064542 
L 77.356378 356.628691 
L 77.48201 357.368188 
L 77.607643 357.115714 
L 77.733275 357.115714 
L 77.98454 355.037853 
L 78.235805 354.690336 
L 78.612703 353.718381 
L 78.863968 353.021253 
L 78.9896 352.331661 
L 79.115233 352.342316 
L 79.49213 351.533074 
L 79.743395 351.060369 
L 80.245925 350.076898 
L 80.371558 350.007553 
L 81.50225 347.530326 
L 81.627883 347.496773 
L 81.753516 347.265288 
L 82.004781 346.582152 
L 82.130413 346.251446 
L 82.256046 346.251446 
L 82.381678 345.634776 
L 82.507311 345.605669 
L 83.135473 343.799121 
L 83.261106 343.773096 
L 83.386738 343.496447 
L 83.512371 343.698315 
L 84.517431 340.12046 
L 84.643063 340.016638 
L 85.396858 338.639485 
L 85.522491 338.673531 
L 85.648123 338.406871 
L 85.899388 337.68379 
L 86.150653 337.199978 
L 86.401918 337.103068 
L 86.653183 336.216259 
L 86.904449 335.82234 
L 87.155714 335.758666 
L 87.281346 335.670515 
L 87.532611 335.15226 
L 87.658244 335.15226 
L 87.909509 334.882431 
L 88.160774 334.882431 
L 88.286406 333.971577 
L 88.412039 334.415765 
L 88.663304 334.359393 
L 88.914569 334.012593 
L 89.040201 334.096486 
L 89.291466 333.963195 
L 89.793996 332.51761 
L 90.296526 331.686277 
L 90.547791 331.162453 
L 90.673424 330.908252 
L 90.799056 331.038544 
L 91.175954 330.204289 
L 91.427219 329.942791 
L 91.804116 328.763528 
L 91.929749 328.775031 
L 92.055381 328.248347 
L 92.181014 328.264661 
L 92.683544 327.375807 
L 92.934809 327.292933 
L 93.060442 328.774619 
L 93.186074 327.051675 
L 93.562972 326.53025 
L 94.065502 325.562714 
L 94.191134 325.602834 
L 94.568032 324.253538 
L 95.070562 323.597857 
L 95.698724 322.681556 
L 95.824357 322.6314 
L 96.703784 320.243924 
L 96.829417 320.005876 
L 96.955049 319.282113 
L 97.080682 319.374833 
L 97.331947 319.164611 
L 97.834477 318.384712 
L 97.96011 318.441057 
L 98.211375 317.892561 
L 98.337007 318.043534 
L 98.588272 317.510258 
L 98.713905 317.451737 
L 98.839537 317.199976 
L 99.216435 315.852062 
L 99.342067 315.979053 
L 99.718965 315.165627 
L 99.97023 314.11709 
L 100.47276 313.214999 
L 100.724025 313.477085 
L 100.849657 313.220437 
L 100.97529 313.251772 
L 101.100922 311.962854 
L 101.352187 313.009622 
L 101.47782 312.676589 
L 101.729085 312.684276 
L 102.105982 311.715751 
L 102.357247 311.602561 
L 102.48288 311.286999 
L 102.608513 311.286999 
L 102.734145 310.796432 
L 102.859778 310.843996 
L 102.98541 310.632209 
L 103.236675 309.728344 
L 104.367368 308.292964 
L 104.493 307.83962 
L 104.618633 308.181216 
L 104.744265 308.048418 
L 105.121163 307.310977 
L 105.246795 307.270602 
L 105.623693 306.504792 
L 106.126223 305.030644 
L 106.50312 304.485711 
L 106.754385 303.056112 
L 107.00565 302.421367 
L 107.50818 301.572302 
L 107.759446 301.5301 
L 107.885078 301.236501 
L 108.010711 301.517577 
L 108.136343 301.276238 
L 108.387608 300.031164 
L 108.513241 302.294332 
L 108.638873 299.127451 
L 109.267036 298.992145 
L 109.643933 298.034844 
L 109.895198 297.187363 
L 110.020831 298.220433 
L 110.397728 297.380875 
L 110.523361 297.666469 
L 110.648993 297.094056 
L 110.900258 297.257785 
L 111.528421 295.113865 
L 111.654053 295.266181 
L 111.905318 295.114184 
L 112.030951 295.114184 
L 112.156583 294.174855 
L 112.282216 294.174855 
L 112.659113 293.840929 
L 112.910379 293.820972 
L 113.287276 293.085789 
L 113.664174 293.138287 
L 114.041071 292.599912 
L 114.292336 292.565489 
L 114.417969 292.565489 
L 114.669234 292.288639 
L 114.794866 292.166818 
L 115.046131 292.503468 
L 115.171764 292.355196 
L 115.297396 292.508234 
L 115.423029 292.453144 
L 115.674294 291.871541 
L 116.051191 290.169584 
L 116.176824 290.47597 
L 116.428089 289.310227 
L 116.553721 289.088832 
L 116.804986 290.087128 
L 116.930619 289.909698 
L 117.181884 288.409214 
L 117.684414 286.935609 
L 117.810046 286.782393 
L 117.935679 286.095216 
L 118.689474 284.340456 
L 118.815107 284.272743 
L 119.066372 283.722217 
L 119.192004 283.722217 
L 119.317637 283.063473 
L 119.443269 283.075578 
L 119.945799 281.141179 
L 120.071432 281.141179 
L 120.448329 280.361398 
L 120.573962 280.35303 
L 121.076492 279.743828 
L 121.202124 280.527319 
L 121.327757 280.462357 
L 121.579022 279.597886 
L 122.081552 278.189913 
L 122.207184 278.264852 
L 122.458449 278.02043 
L 122.584082 278.02043 
L 122.835347 277.383088 
L 123.086612 277.443289 
L 123.96604 275.628334 
L 124.217305 275.628334 
L 124.342937 274.824238 
L 124.594202 274.806908 
L 124.845467 274.610067 
L 124.9711 274.796046 
L 125.347997 274.398685 
L 125.47363 274.313987 
L 125.599262 274.505715 
L 126.353057 273.605628 
L 126.604322 273.343373 
L 126.729955 273.655385 
L 126.855587 273.479073 
L 126.98122 273.101866 
L 127.106852 273.147981 
L 127.358117 272.499163 
L 127.48375 272.264086 
L 127.609382 272.510766 
L 127.735015 272.302885 
L 127.860647 269.493451 
L 127.98628 271.60018 
L 128.237545 271.566733 
L 128.363178 271.722464 
L 128.614443 272.511175 
L 129.116973 272.167453 
L 129.242605 272.285122 
L 129.49387 271.421383 
L 129.870768 270.842823 
L 129.9964 270.78182 
L 130.122033 271.161705 
L 130.247665 271.127278 
L 130.373298 270.277104 
L 130.49893 270.456994 
L 130.750195 269.769651 
L 130.875828 269.728916 
L 131.127093 269.080599 
L 131.252725 267.919597 
L 131.378358 268.522825 
L 131.50399 268.388633 
L 131.755255 267.99325 
L 132.00652 267.990933 
L 132.132153 267.879004 
L 132.257785 267.483002 
L 132.383418 267.483002 
L 132.634683 266.877533 
L 132.760315 266.687893 
L 133.388478 266.453929 
L 133.51411 266.282083 
L 133.891008 266.505776 
L 134.016641 266.566705 
L 135.147333 263.672573 
L 135.272966 263.658086 
L 135.524231 262.962769 
L 135.775496 262.2319 
L 136.152393 262.161691 
L 136.278026 262.091803 
L 136.529291 261.764495 
L 137.031821 261.119983 
L 137.283086 260.979646 
L 137.534351 260.324732 
L 137.659983 260.324732 
L 137.785616 261.126885 
L 138.036881 261.012594 
L 138.162513 261.012594 
L 138.539411 260.447636 
L 138.665043 260.357832 
L 138.790676 260.411154 
L 139.041941 260.63872 
L 139.544471 259.723943 
L 139.670104 259.71316 
L 139.921369 259.155415 
L 140.047001 259.155415 
L 140.172634 258.854449 
L 140.298266 258.854449 
L 140.423899 258.303551 
L 140.800796 258.134483 
L 141.177694 257.923204 
L 141.303326 257.923204 
L 141.428959 258.051978 
L 141.554591 257.843618 
L 141.805856 257.254592 
L 141.931489 257.306697 
L 142.057121 256.5534 
L 142.182754 256.895912 
L 142.434019 256.654719 
L 142.559651 256.654719 
L 143.313446 255.726862 
L 143.564711 255.807848 
L 143.690344 255.829147 
L 144.192874 254.932882 
L 144.318507 255.02995 
L 144.821037 255.03149 
L 144.946669 253.57127 
L 145.197934 253.639315 
L 145.574832 252.635687 
L 145.700464 252.751729 
L 146.454259 251.847289 
L 146.705524 251.355473 
L 146.831157 251.1833 
L 146.956789 251.202607 
L 147.208054 251.037388 
L 147.584952 250.827432 
L 147.961849 250.346284 
L 148.464379 249.994176 
L 148.590012 249.806336 
L 148.715644 249.967988 
L 148.966909 249.709676 
L 149.092542 248.659019 
L 149.218175 249.381055 
L 149.343807 249.307203 
L 149.720705 248.47745 
L 149.97197 248.54947 
L 150.223235 248.552584 
L 150.348867 248.376452 
L 150.4745 241.823661 
L 150.600132 248.631102 
L 150.851397 248.18913 
L 151.47956 248.346601 
L 151.605192 248.135828 
L 151.730825 248.333536 
L 152.107722 247.875512 
L 152.358987 247.401768 
L 152.48462 250.117743 
L 152.610252 246.561236 
L 152.735885 246.822896 
L 152.861517 244.971157 
L 152.98715 246.637751 
L 153.112782 246.57062 
L 153.238415 246.735875 
L 153.364047 244.862385 
L 153.48968 245.519617 
L 153.615312 243.022351 
L 153.740945 245.616588 
L 153.866577 244.227409 
L 153.99221 246.486081 
L 154.243475 243.655642 
L 154.620373 242.868008 
L 154.871638 241.222498 
L 154.99727 240.855073 
L 155.122903 237.60571 
L 155.248535 239.567823 
L 155.374168 239.725533 
L 155.4998 239.406483 
L 155.625433 239.44464 
L 155.751065 239.360512 
L 155.876698 239.563862 
L 156.127963 239.514993 
L 156.253595 239.677721 
L 156.379228 238.677696 
L 156.630493 238.247418 
L 156.881758 238.661764 
L 157.00739 238.504952 
L 157.133023 237.191465 
L 157.258655 237.162795 
L 157.384288 236.97505 
L 157.635553 236.205078 
L 158.138083 235.865203 
L 158.766245 235.857765 
L 158.891878 235.863625 
L 159.143143 235.686701 
L 159.268775 235.879133 
L 159.771306 235.591284 
L 160.273836 234.801741 
L 160.525101 234.959722 
L 160.650733 234.823772 
L 160.776366 234.936974 
L 161.153263 234.687207 
L 161.404528 234.583876 
L 161.655793 234.04847 
L 161.781426 234.130519 
L 161.907058 234.007801 
L 162.032691 233.711185 
L 162.283956 233.766111 
L 163.037751 233.121241 
L 163.289016 232.522234 
L 163.414648 232.522981 
L 163.665913 232.403913 
L 164.670974 231.860981 
L 164.796606 231.926106 
L 164.922239 231.762653 
L 165.299136 230.743534 
L 165.801666 229.814664 
L 165.927299 225.917336 
L 166.052931 229.575374 
L 166.555461 228.811715 
L 166.681094 228.972279 
L 166.932359 228.49425 
L 167.183624 228.479868 
L 167.309256 228.159014 
L 167.811786 228.115716 
L 168.188684 227.496397 
L 168.314316 227.062757 
L 168.565581 226.904009 
L 168.816846 226.599382 
L 169.193744 225.540222 
L 170.073172 224.36576 
L 170.198804 224.356574 
L 170.450069 223.964155 
L 170.575702 223.925627 
L 170.701334 223.629219 
L 170.952599 223.565101 
L 171.203864 223.514837 
L 171.329497 223.284656 
L 171.706394 223.540705 
L 171.957659 223.070849 
L 172.083292 223.00054 
L 172.208924 223.067545 
L 172.460189 222.75448 
L 172.585822 222.859522 
L 173.213984 222.628569 
L 173.465249 222.138503 
L 173.590882 222.050815 
L 173.716514 221.75611 
L 173.967779 220.163886 
L 174.595942 220.201477 
L 174.847207 219.697483 
L 174.972839 219.72286 
L 175.098472 219.604391 
L 175.349737 219.033243 
L 175.47537 219.168329 
L 175.726635 218.932848 
L 175.852267 218.388446 
L 175.9779 218.39996 
L 176.103532 218.226812 
L 176.229165 218.280185 
L 176.354797 217.956542 
L 176.48043 217.942603 
L 176.731695 217.395623 
L 176.857327 217.514973 
L 177.234225 217.206974 
L 177.611122 216.16524 
L 177.736755 216.237979 
L 177.98802 216.111681 
L 178.364917 215.973814 
L 178.616182 215.655211 
L 178.741815 215.752723 
L 178.99308 215.698671 
L 179.118712 215.275596 
L 179.244345 215.307371 
L 179.369977 215.173673 
L 179.49561 215.30552 
L 179.621242 215.255554 
L 179.746875 214.914237 
L 180.249405 214.922645 
L 180.50067 214.487716 
L 180.626303 214.558812 
L 180.751935 214.45478 
L 180.877568 214.501241 
L 181.254465 213.901507 
L 181.380098 213.96498 
L 181.631363 213.78858 
L 181.882628 213.955109 
L 182.00826 213.960644 
L 182.259525 214.089022 
L 182.51079 213.697499 
L 182.762055 213.532422 
L 183.01332 213.308813 
L 183.390218 213.031452 
L 183.51585 212.890753 
L 183.641483 212.922093 
L 184.01838 212.55427 
L 184.395278 211.962696 
L 184.52091 211.916592 
L 184.897808 211.531892 
L 185.274705 211.44206 
L 185.525971 211.014516 
L 185.651603 210.966627 
L 186.028501 210.022403 
L 186.154133 210.260508 
L 186.279766 210.025623 
L 186.531031 209.448471 
L 186.656663 209.38344 
L 186.907928 208.98229 
L 187.284826 208.341668 
L 187.536091 207.931113 
L 187.661723 207.540311 
L 187.787356 207.55651 
L 188.164253 206.872912 
L 188.289886 206.791357 
L 188.415518 206.478012 
L 188.666783 206.4416 
L 188.792416 205.678464 
L 188.918048 205.644468 
L 189.294946 205.043197 
L 189.420578 204.90224 
L 189.923108 203.881053 
L 190.425638 202.824342 
L 190.928169 201.726713 
L 191.053801 201.179629 
L 191.305066 201.447341 
L 191.430699 201.136086 
L 191.681964 201.168143 
L 192.058861 200.235526 
L 192.184494 200.346127 
L 192.310126 200.286063 
L 192.687024 199.776502 
L 193.063921 199.591915 
L 193.692084 199.963508 
L 193.817716 199.642495 
L 193.943349 199.628217 
L 194.068981 199.216816 
L 194.194614 199.322193 
L 194.571511 198.749143 
L 194.697144 198.62815 
L 194.822776 198.75884 
L 195.199674 198.355085 
L 195.325306 198.557461 
L 195.576571 197.756687 
L 195.827837 197.723164 
L 196.079102 197.626052 
L 196.204734 197.428415 
L 196.330367 197.504114 
L 196.581632 197.232141 
L 196.707264 197.311161 
L 196.958529 197.06574 
L 197.084162 197.069395 
L 197.209794 197.37891 
L 197.963589 196.535461 
L 198.214854 195.980822 
L 198.466119 195.722897 
L 198.591752 195.767651 
L 198.843017 195.305562 
L 199.345547 194.120887 
L 199.722444 193.190817 
L 199.848077 193.263632 
L 199.973709 192.931374 
L 200.350607 193.14071 
L 200.476239 192.830106 
L 200.601872 193.035309 
L 201.104402 192.123313 
L 201.230035 192.161118 
L 201.355667 191.754049 
L 201.4813 191.930635 
L 201.858197 191.39187 
L 202.48636 191.874146 
L 202.737625 191.626263 
L 202.98889 191.59754 
L 203.49142 190.487343 
L 203.742685 190.407411 
L 203.99395 190.122756 
L 204.245215 190.169666 
L 204.622112 189.533882 
L 205.50154 189.203037 
L 205.878437 189.007966 
L 206.380968 188.119549 
L 206.5066 188.269466 
L 206.883498 187.322386 
L 207.00913 187.382848 
L 207.134763 187.211164 
L 207.386028 186.483192 
L 207.637293 186.530518 
L 207.762925 186.438217 
L 208.01419 185.724533 
L 208.265455 185.710004 
L 208.391088 185.696344 
L 208.767985 184.85113 
L 209.270515 184.526988 
L 209.52178 183.820492 
L 209.647413 183.898007 
L 209.898678 183.236865 
L 210.02431 183.242638 
L 210.275575 182.991271 
L 210.652473 182.407609 
L 211.280636 181.467618 
L 211.406268 181.545901 
L 211.531901 181.175756 
L 211.657533 181.175869 
L 211.783166 180.743222 
L 211.908798 181.018084 
L 212.160063 180.905003 
L 212.411328 180.404101 
L 213.165123 179.528437 
L 213.290756 179.070881 
L 213.416388 179.125713 
L 214.295816 177.785225 
L 214.421448 177.419711 
L 214.547081 177.533619 
L 214.798346 177.282664 
L 215.300876 175.555924 
L 215.552141 175.294735 
L 215.677773 175.700117 
L 215.929038 175.197261 
L 216.054671 175.214623 
L 216.305936 174.709663 
L 216.557201 174.722643 
L 217.059731 174.275863 
L 217.185364 174.371738 
L 217.562261 174.16292 
L 217.939159 174.133756 
L 218.316056 174.265785 
L 218.567321 174.052021 
L 218.692954 174.059314 
L 219.069851 173.356887 
L 219.321116 173.337607 
L 220.074911 172.301739 
L 220.326176 171.686514 
L 220.451809 171.848475 
L 220.577441 171.803166 
L 220.828706 171.450815 
L 220.954339 171.451771 
L 221.708134 170.280542 
L 221.833767 170.172206 
L 222.210664 169.294405 
L 222.336297 169.291658 
L 222.461929 169.114166 
L 222.587562 168.614468 
L 222.713194 168.707826 
L 224.346417 166.636776 
L 224.723314 165.144847 
L 224.848947 165.169331 
L 224.974579 164.849259 
L 225.225844 164.851205 
L 225.728374 164.170769 
L 225.854007 164.173136 
L 225.979639 164.025216 
L 226.733434 162.010926 
L 226.859067 161.989602 
L 227.110332 161.415479 
L 227.235965 161.312899 
L 227.361597 160.677201 
L 227.98976 160.406016 
L 228.115392 160.364597 
L 230.376777 157.067427 
L 230.50241 157.052014 
L 230.753675 156.702943 
L 230.879307 156.738167 
L 231.758735 156.043792 
L 231.884367 155.787707 
L 232.261265 155.734323 
L 232.638163 154.815464 
L 233.140693 154.129517 
L 234.145753 152.554138 
L 234.271385 152.57448 
L 234.397018 152.275555 
L 234.52265 152.371138 
L 235.02518 150.69102 
L 235.276445 150.61073 
L 235.52771 150.673285 
L 235.778975 150.836112 
L 236.155873 150.400615 
L 236.281505 150.39124 
L 236.784035 149.652056 
L 237.0353 149.135838 
L 237.286566 148.985792 
L 237.663463 148.586108 
L 238.040361 147.829174 
L 238.291626 147.717183 
L 238.794156 146.927219 
L 238.919788 146.872651 
L 239.296686 146.330681 
L 239.547951 146.038211 
L 239.799216 145.363816 
L 240.176113 145.137627 
L 240.301746 145.172285 
L 240.553011 144.983942 
L 240.929908 144.577264 
L 241.055541 144.619182 
L 241.181173 144.495584 
L 241.306806 144.55877 
L 241.558071 144.350719 
L 241.934968 144.064487 
L 242.060601 144.266469 
L 242.186233 144.219287 
L 243.065661 142.883259 
L 243.191294 142.80152 
L 243.316926 142.930912 
L 243.442559 142.743267 
L 243.568191 142.843976 
L 243.693824 142.784605 
L 243.819456 142.539613 
L 244.321986 142.505852 
L 244.573251 142.089314 
L 244.698884 142.08516 
L 245.075781 141.161924 
L 245.327046 141.102054 
L 245.452679 141.215617 
L 246.206474 140.37506 
L 246.709004 140.735228 
L 246.960269 140.33894 
L 247.085901 140.388857 
L 247.337166 140.170632 
L 247.462799 140.325846 
L 247.588432 140.20324 
L 247.714064 139.664135 
L 247.965329 139.70856 
L 248.342227 139.182175 
L 248.467859 139.365748 
L 248.593492 139.091605 
L 248.844757 139.146793 
L 249.096022 138.564702 
L 249.347287 138.607558 
L 249.472919 138.243371 
L 249.598552 138.295341 
L 249.724184 138.018519 
L 249.849817 138.054584 
L 250.352347 137.578182 
L 250.603612 137.400112 
L 250.980509 137.528544 
L 251.231774 137.688984 
L 251.357407 137.854847 
L 251.734304 137.60495 
L 251.859937 137.489013 
L 252.111202 137.094478 
L 252.236834 137.247856 
L 252.739364 136.683469 
L 252.864997 136.679047 
L 253.367527 136.299468 
L 253.49316 136.243046 
L 253.618792 136.543918 
L 253.744425 136.391504 
L 253.870057 136.529555 
L 253.99569 136.1624 
L 254.246955 136.689163 
L 255.00075 135.238737 
L 255.252015 135.018188 
L 255.377647 132.267428 
L 255.50328 134.674243 
L 255.628912 134.740726 
L 256.00581 134.363741 
L 256.382707 133.728623 
L 257.387767 132.680353 
L 257.5134 132.346963 
L 257.639032 132.448234 
L 258.392828 131.562369 
L 258.769725 131.502061 
L 258.895358 131.390117 
L 259.02099 131.480267 
L 260.02605 130.344876 
L 260.151683 130.340598 
L 260.402948 129.915838 
L 260.52858 130.089841 
L 260.779845 129.72137 
L 260.905478 129.623925 
L 261.156743 129.675006 
L 261.282375 129.724934 
L 261.53364 129.483976 
L 262.03617 129.289931 
L 262.287435 128.949748 
L 262.413068 128.997538 
L 262.915598 128.402276 
L 263.292496 128.112677 
L 263.418128 128.247732 
L 263.795026 127.698515 
L 264.046291 128.05769 
L 264.297556 127.724155 
L 264.423188 127.715679 
L 264.674453 127.312333 
L 264.800086 127.36501 
L 265.176983 127.173391 
L 265.302616 127.291978 
L 265.428248 127.205926 
L 265.930778 126.32156 
L 266.056411 126.268569 
L 266.182043 126.429196 
L 267.061471 124.874358 
L 267.438368 124.900099 
L 267.564001 123.33662 
L 267.689633 124.757054 
L 267.815266 124.842668 
L 268.066531 124.428056 
L 268.443429 124.839864 
L 268.694694 124.860549 
L 268.945959 124.584536 
L 269.197224 124.614514 
L 269.322856 124.614082 
L 269.699754 124.07518 
L 270.076651 123.995191 
L 270.202284 123.847747 
L 270.327916 123.380915 
L 270.453549 123.390139 
L 270.579181 123.16998 
L 270.704814 123.175638 
L 270.830446 123.018393 
L 271.081711 123.237973 
L 271.332976 123.051983 
L 271.458609 123.139952 
L 271.709874 122.910269 
L 272.714934 122.076226 
L 272.840566 122.115733 
L 272.966199 122.005666 
L 273.091831 121.672716 
L 273.217464 121.686845 
L 273.343096 121.537751 
L 273.468729 121.591846 
L 273.594362 121.521696 
L 273.971259 121.06555 
L 274.473789 121.069906 
L 275.227584 120.484824 
L 275.353217 120.762933 
L 275.478849 120.37832 
L 275.730114 120.349073 
L 275.981379 120.208522 
L 276.107012 120.28991 
L 276.358277 119.980568 
L 276.483909 120.140845 
L 276.735174 120.025259 
L 276.860807 120.088439 
L 277.363337 119.507059 
L 277.865867 119.453085 
L 277.991499 119.501405 
L 278.117132 119.747701 
L 278.242764 119.496809 
L 278.368397 119.738267 
L 278.619662 119.011613 
L 279.247825 118.418861 
L 279.875987 118.319032 
L 280.00162 118.422533 
L 280.252885 117.828339 
L 280.629782 117.488967 
L 281.00668 116.802085 
L 281.132312 116.865592 
L 281.383577 116.52018 
L 281.634842 117.137202 
L 281.886107 116.999631 
L 282.01174 117.088775 
L 282.263005 116.695735 
L 282.388637 116.821776 
L 282.891167 115.780592 
L 283.0168 115.630364 
L 283.268065 115.699611 
L 283.51933 115.358696 
L 283.896228 115.268934 
L 284.273125 114.882694 
L 284.398758 114.799649 
L 284.52439 114.858948 
L 284.775655 114.756375 
L 285.02692 114.861627 
L 285.152553 114.697323 
L 285.278185 114.811551 
L 285.655083 114.390591 
L 286.53451 114.391393 
L 286.911408 114.000145 
L 287.03704 114.036856 
L 287.162673 113.845505 
L 287.288305 113.901634 
L 287.53957 114.255831 
L 287.665203 113.98335 
L 287.916468 114.129038 
L 288.0421 113.989268 
L 288.167733 114.114987 
L 288.418998 113.708623 
L 288.54463 113.681678 
L 289.047161 112.983981 
L 289.298426 112.695076 
L 289.424058 112.998366 
L 289.675323 112.81609 
L 290.429118 112.144394 
L 290.680383 112.198375 
L 290.806016 112.08645 
L 291.057281 112.092548 
L 291.434178 111.468408 
L 291.811076 111.099729 
L 292.187973 111.487851 
L 292.564871 111.228072 
L 292.816136 111.0398 
L 293.193033 110.8081 
L 293.318666 111.016219 
L 293.444298 110.992502 
L 293.821196 110.694226 
L 294.072461 110.591352 
L 294.574991 110.030565 
L 294.700624 109.972683 
L 294.826256 107.408195 
L 294.951889 109.413832 
L 295.077521 109.448201 
L 295.203154 109.285712 
L 295.454419 109.363636 
L 295.705684 109.105791 
L 295.831316 108.21666 
L 296.082581 109.119112 
L 296.459479 109.199504 
L 296.585111 109.090504 
L 296.710744 108.495815 
L 296.836376 108.57462 
L 297.213274 107.877192 
L 297.338906 107.978014 
L 297.464539 106.920061 
L 297.590171 107.640754 
L 297.715804 107.400969 
L 297.841436 107.493977 
L 298.343966 107.197899 
L 298.595231 106.734536 
L 298.846496 106.851374 
L 299.097761 106.559795 
L 299.349026 105.226414 
L 299.474659 105.771489 
L 299.977189 105.20682 
L 300.228454 104.614964 
L 300.605352 104.200044 
L 300.856617 104.055747 
L 300.982249 101.361056 
L 301.107882 101.687766 
L 301.359147 103.300674 
L 301.610412 102.763757 
L 301.861677 102.247 
L 301.987309 102.21453 
L 302.489839 101.228164 
L 303.369267 100.099569 
L 303.620532 97.057172 
L 303.746164 99.165546 
L 303.997429 99.362224 
L 304.123062 99.250881 
L 304.374327 99.510795 
L 305.253755 98.612103 
L 305.379387 96.126807 
L 305.50502 98.16671 
L 305.630652 98.117489 
L 305.756285 98.389063 
L 305.881917 98.146993 
L 306.00755 98.206684 
L 306.133182 97.900209 
L 306.258815 97.903071 
L 306.635712 97.284678 
L 306.761345 97.401658 
L 306.886977 97.274888 
L 307.138242 97.339127 
L 307.389507 96.805152 
L 307.51514 95.272523 
L 307.766405 96.812021 
L 307.892037 96.898325 
L 308.01767 96.840001 
L 308.143302 96.579555 
L 308.645832 96.744824 
L 308.771465 96.633355 
L 309.02273 96.641264 
L 309.148362 96.443876 
L 309.52526 96.583273 
L 310.02779 95.668402 
L 310.279055 95.691939 
L 310.404688 95.691408 
L 310.781585 95.299772 
L 310.907218 95.245384 
L 311.03285 92.370313 
L 311.158483 94.814892 
L 311.661013 94.531611 
L 311.786645 94.707742 
L 312.03791 94.362695 
L 312.163543 94.573653 
L 312.289175 94.278547 
L 312.54044 94.384338 
L 312.917338 94.157077 
L 313.294235 93.698321 
L 313.671133 93.838376 
L 313.922398 93.416839 
L 314.04803 93.317404 
L 314.173663 93.48582 
L 314.55056 93.189748 
L 314.676193 93.020496 
L 314.801825 93.089369 
L 315.304356 92.717681 
L 315.806886 91.91165 
L 315.932518 91.872586 
L 316.183783 91.540571 
L 316.560681 91.388599 
L 317.063211 90.938752 
L 317.440108 90.559901 
L 317.691373 90.520221 
L 318.068271 89.858722 
L 318.193903 90.214336 
L 318.445168 90.123904 
L 318.570801 89.776088 
L 318.822066 89.806594 
L 318.947698 89.67621 
L 319.198963 89.136829 
L 319.324596 91.322525 
L 319.575861 88.432049 
L 319.701493 88.870846 
L 319.952758 88.605413 
L 320.204024 88.605413 
L 320.329656 85.670731 
L 320.455289 88.302243 
L 320.706554 88.208498 
L 321.460349 87.445387 
L 321.585981 87.432285 
L 321.711614 87.599623 
L 322.465409 86.526695 
L 322.716674 86.470987 
L 322.967939 86.550289 
L 323.219204 86.298699 
L 323.721734 85.975022 
L 323.972999 86.097574 
L 324.349896 86.120806 
L 325.606222 84.939236 
L 325.731854 86.823019 
L 325.857487 84.469814 
L 325.983119 84.343823 
L 326.234384 84.519326 
L 326.862547 84.628833 
L 327.113812 84.298952 
L 327.490709 83.422511 
L 327.993239 83.107214 
L 328.118872 82.770644 
L 328.998299 82.4789 
L 329.123932 82.927109 
L 329.500829 82.606532 
L 329.626462 82.606532 
L 329.752094 82.46889 
L 330.003359 82.458498 
L 330.128992 82.318623 
L 330.50589 82.513063 
L 331.134052 82.004434 
L 331.259685 82.15323 
L 331.636582 81.749461 
L 331.887847 81.482314 
L 332.01348 81.575042 
L 332.51601 81.225232 
L 332.641642 81.251905 
L 332.767275 81.128443 
L 332.892907 80.840101 
L 333.269805 80.785938 
L 333.395437 80.659223 
L 333.52107 80.739693 
L 333.772335 80.013228 
L 333.897967 80.013981 
L 334.651762 78.929168 
L 334.777395 78.974556 
L 334.903027 78.841965 
L 335.279925 77.891591 
L 335.405557 78.658285 
L 335.656822 78.394359 
L 335.782455 76.16888 
L 336.159353 75.696127 
L 336.284985 76.496728 
L 336.410618 76.480156 
L 336.53625 76.01621 
L 336.787515 76.044763 
L 336.913148 75.788475 
L 337.290045 76.063559 
L 337.415678 76.126598 
L 337.54131 75.989814 
L 337.792575 76.290006 
L 337.918208 76.372675 
L 338.420738 76.230026 
L 338.672003 76.246316 
L 338.797635 76.152491 
L 338.923268 76.21418 
L 339.300165 75.476029 
L 339.55143 75.363001 
L 339.802695 75.066129 
L 339.928328 75.065329 
L 340.05396 75.176521 
L 340.179593 75.081527 
L 340.430858 75.445974 
L 340.682123 75.16223 
L 340.807755 75.116024 
L 340.933388 75.245592 
L 341.059021 74.926626 
L 341.310286 75.09966 
L 341.435918 75.139653 
L 341.687183 74.94849 
L 341.938448 75.046476 
L 342.817876 74.86917 
L 343.194773 74.325679 
L 343.446038 74.213858 
L 343.822936 73.527859 
L 343.948568 73.704658 
L 344.074201 73.567221 
L 344.199833 73.602735 
L 344.702363 73.275435 
L 344.827996 73.244938 
L 345.204893 72.446692 
L 345.456158 72.359285 
L 345.707423 72.442805 
L 345.958688 72.081317 
L 346.084321 72.102424 
L 346.335586 71.589012 
L 346.712484 70.86118 
L 347.717544 69.778201 
L 347.843176 69.795546 
L 348.094441 69.220916 
L 348.220074 69.35515 
L 348.471339 69.107656 
L 348.722604 69.094466 
L 349.225134 68.287645 
L 349.350766 71.141798 
L 349.476399 67.675238 
L 349.602031 67.607157 
L 349.727664 67.364146 
L 349.853296 67.372916 
L 349.978929 67.265848 
L 350.230194 67.498365 
L 350.607091 67.281383 
L 350.858356 67.411033 
L 351.360887 66.919405 
L 351.486519 66.870496 
L 351.737784 66.336414 
L 351.989049 65.046085 
L 352.240314 64.489675 
L 352.491579 63.908945 
L 352.742844 63.484459 
L 353.245374 63.035369 
L 353.371007 63.009181 
L 353.873537 62.386949 
L 354.124802 62.478326 
L 354.878597 61.625545 
L 355.004229 61.725227 
L 355.381127 61.547235 
L 355.883657 60.65333 
L 356.009289 60.677564 
L 356.134922 60.451393 
L 356.260554 60.576134 
L 356.386187 60.516432 
L 356.637452 60.635269 
L 356.763085 60.205319 
L 357.139982 60.521142 
L 357.391247 60.395875 
L 358.145042 59.774993 
L 358.270675 59.786108 
L 358.52194 59.619787 
L 358.773205 59.620128 
L 359.652632 59.069159 
L 360.280795 58.382619 
L 360.406427 58.369682 
L 360.657692 58.160157 
L 361.160222 57.646713 
L 361.411487 57.536062 
L 361.53712 57.413268 
L 361.788385 57.509782 
L 362.03965 57.46513 
L 362.290915 57.439974 
L 362.54218 57.351404 
L 362.919078 57.222285 
L 363.04471 57.120222 
L 363.295975 57.336836 
L 363.54724 57.269391 
L 363.672873 57.318326 
L 364.426668 56.847889 
L 364.5523 56.678548 
L 364.929198 56.785836 
L 365.306095 56.536235 
L 366.185523 56.588572 
L 366.436788 56.411821 
L 366.56242 56.358073 
L 366.688053 56.4583 
L 366.939318 56.397333 
L 367.190583 56.554667 
L 367.567481 56.567437 
L 367.693113 56.630004 
L 367.944378 56.321669 
L 368.070011 56.397712 
L 368.321276 56.359028 
L 368.698173 56.44104 
L 368.949438 56.169354 
L 369.075071 56.010271 
L 369.200703 56.278888 
L 369.451968 56.076501 
L 369.703233 56.110183 
L 369.828866 56.09211 
L 369.954498 55.890164 
L 370.080131 55.913207 
L 370.457028 55.500337 
L 370.833926 54.910689 
L 370.959558 55.045436 
L 371.210823 54.744472 
L 372.090251 54.191003 
L 372.215884 53.975868 
L 372.718414 54.231954 
L 373.346576 54.215775 
L 373.597841 53.932158 
L 373.723474 53.929921 
L 373.974739 53.550965 
L 374.226004 53.640273 
L 374.351636 53.723553 
L 374.477269 53.321514 
L 374.602901 53.37291 
L 374.979799 52.791391 
L 375.231064 52.891517 
L 375.356696 52.894133 
L 375.859226 52.299098 
L 376.110491 51.734055 
L 376.361756 51.75551 
L 377.241184 51.800864 
L 377.366817 51.868855 
L 377.618082 51.728752 
L 377.994979 51.795929 
L 378.246244 51.637618 
L 378.497509 51.693537 
L 378.874407 51.659306 
L 379.125672 52.049323 
L 379.502569 51.466246 
L 379.753834 51.384996 
L 379.879467 51.010976 
L 380.005099 51.13552 
L 380.256364 51.002265 
L 380.381997 51.107464 
L 380.507629 50.740919 
L 380.633262 50.878819 
L 380.884527 50.692406 
L 381.010159 50.745987 
L 381.387057 50.484757 
L 381.512689 50.475255 
L 381.638322 50.667225 
L 381.763954 50.316297 
L 382.266484 50.900833 
L 382.392117 50.63233 
L 382.51775 51.039846 
L 382.643382 50.891139 
L 382.894647 50.361751 
L 383.02028 50.34646 
L 383.271545 50.748526 
L 383.397177 50.89704 
L 383.52281 50.838353 
L 383.648442 50.262447 
L 383.899707 50.538581 
L 384.02534 50.465467 
L 384.52787 50.790704 
L 384.653502 50.514166 
L 384.779135 50.970986 
L 385.156032 50.916314 
L 385.281665 50.61504 
L 385.407297 51.052715 
L 385.658562 50.631827 
L 385.784195 50.871385 
L 386.03546 50.650398 
L 386.286725 51.013214 
L 386.53799 50.930855 
L 386.914887 51.192214 
L 387.166152 50.896671 
L 387.291785 50.923826 
L 387.54305 50.644046 
L 387.794315 50.955688 
L 387.919948 50.682741 
L 388.171213 50.914228 
L 388.296845 50.976502 
L 388.422478 50.707017 
L 388.799375 50.965751 
L 388.925008 50.781665 
L 389.05064 50.389956 
L 389.176273 50.635728 
L 389.55317 50.372768 
L 389.678803 50.27603 
L 389.804435 50.803811 
L 389.930068 50.539305 
L 390.0557 50.556054 
L 391.688923 42.652727 
L 391.814555 50.36042 
L 391.940188 50.379959 
L 392.06582 50.216848 
L 392.317085 50.355911 
L 392.56835 50.568107 
L 392.945248 50.004458 
L 393.070881 50.25615 
L 393.322146 50.077018 
L 393.447778 49.748345 
L 393.573411 49.749729 
L 393.699043 49.600215 
L 393.824676 49.740914 
L 393.950308 49.522894 
L 394.075941 49.622214 
L 394.578471 49.095455 
L 394.829736 48.967666 
L 394.955368 49.054773 
L 395.206633 48.942969 
L 395.457898 48.941705 
L 395.583531 48.78207 
L 395.709163 48.852054 
L 396.086061 48.349952 
L 396.211693 48.71496 
L 396.462958 48.063349 
L 396.588591 47.768788 
L 396.714223 48.078702 
L 396.965488 47.940909 
L 397.216753 47.837924 
L 397.342386 47.473328 
L 397.468018 48.053528 
L 398.221814 47.233528 
L 398.347446 47.358873 
L 398.473079 48.497631 
L 398.598711 47.228016 
L 398.849976 47.089954 
L 398.975609 46.855802 
L 399.101241 47.151374 
L 399.226874 46.973557 
L 399.478139 47.385295 
L 399.729404 47.110282 
L 399.855036 47.154347 
L 399.980669 47.415492 
L 400.357566 47.078159 
L 400.483199 47.445753 
L 400.608831 47.273368 
L 400.734464 47.485855 
L 400.860096 47.252624 
L 401.111361 47.488976 
L 401.362626 47.098775 
L 401.613891 46.60024 
L 401.865156 46.761308 
L 401.990789 46.593696 
L 402.493319 46.657146 
L 402.744584 46.550162 
L 403.498379 46.336653 
L 403.624012 45.99884 
L 403.875277 46.052017 
L 404.000909 45.907942 
L 404.000909 45.907942 
" clip-path="url(#p109ad4c4c1)" style="fill: none; stroke: #800080; stroke-width: 3; stroke-linecap: round"/>
   </g>
   <g id="patch_3">
    <path d="M 42.82 404.12 
L 42.82 25.44 
" style="fill: none; stroke: #ffffff; stroke-width: 0.8; stroke-linejoin: miter; stroke-linecap: square"/>
   </g>
   <g id="patch_4">
    <path d="M 421.2 404.12 
L 421.2 25.44 
" style="fill: none; stroke: #ffffff; stroke-width: 0.8; stroke-linejoin: miter; stroke-linecap: square"/>
   </g>
   <g id="patch_5">
    <path d="M 42.82 404.12 
L 421.2 404.12 
" style="fill: none; stroke: #ffffff; stroke-width: 0.8; stroke-linejoin: miter; stroke-linecap: square"/>
   </g>
   <g id="patch_6">
    <path d="M 42.82 25.44 
L 421.2 25.44 
" style="fill: none; stroke: #ffffff; stroke-width: 0.8; stroke-linejoin: miter; stroke-linecap: square"/>
   </g>
   <g id="text_17">
    <!-- Gini coefficient over time -->
    <g style="fill: #262626" transform="translate(166.42625 19.44) scale(0.12 -0.12)">
     <defs>
      <path id="ArialMT-47" d="M 2638 1797 
L 2638 2334 
L 4578 2338 
L 4578 638 
Q 4131 281 3656 101 
Q 3181 -78 2681 -78 
Q 2006 -78 1454 211 
Q 903 500 622 1047 
Q 341 1594 341 2269 
Q 341 2938 620 3517 
Q 900 4097 1425 4378 
Q 1950 4659 2634 4659 
Q 3131 4659 3532 4498 
Q 3934 4338 4162 4050 
Q 4391 3763 4509 3300 
L 3963 3150 
Q 3859 3500 3706 3700 
Q 3553 3900 3268 4020 
Q 2984 4141 2638 4141 
Q 2222 4141 1919 4014 
Q 1616 3888 1430 3681 
Q 1244 3475 1141 3228 
Q 966 2803 966 2306 
Q 966 1694 1177 1281 
Q 1388 869 1791 669 
Q 2194 469 2647 469 
Q 3041 469 3416 620 
Q 3791 772 3984 944 
L 3984 1797 
L 2638 1797 
z
" transform="scale(0.015625)"/>
      <path id="ArialMT-69" d="M 425 3934 
L 425 4581 
L 988 4581 
L 988 3934 
L 425 3934 
z
M 425 0 
L 425 3319 
L 988 3319 
L 988 0 
L 425 0 
z
" transform="scale(0.015625)"/>
      <path id="ArialMT-6e" d="M 422 0 
L 422 3319 
L 928 3319 
L 928 2847 
Q 1294 3394 1984 3394 
Q 2284 3394 2536 3286 
Q 2788 3178 2913 3003 
Q 3038 2828 3088 2588 
Q 3119 2431 3119 2041 
L 3119 0 
L 2556 0 
L 2556 2019 
Q 2556 2363 2490 2533 
Q 2425 2703 2258 2804 
Q 2091 2906 1866 2906 
Q 1506 2906 1245 2678 
Q 984 2450 984 1813 
L 984 0 
L 422 0 
z
" transform="scale(0.015625)"/>
      <path id="ArialMT-20" transform="scale(0.015625)"/>
      <path id="ArialMT-63" d="M 2588 1216 
L 3141 1144 
Q 3050 572 2676 248 
Q 2303 -75 1759 -75 
Q 1078 -75 664 370 
Q 250 816 250 1647 
Q 250 2184 428 2587 
Q 606 2991 970 3192 
Q 1334 3394 1763 3394 
Q 2303 3394 2647 3120 
Q 2991 2847 3088 2344 
L 2541 2259 
Q 2463 2594 2264 2762 
Q 2066 2931 1784 2931 
Q 1359 2931 1093 2626 
Q 828 2322 828 1663 
Q 828 994 1084 691 
Q 1341 388 1753 388 
Q 2084 388 2306 591 
Q 2528 794 2588 1216 
z
" transform="scale(0.015625)"/>
      <path id="ArialMT-6f" d="M 213 1659 
Q 213 2581 725 3025 
Q 1153 3394 1769 3394 
Q 2453 3394 2887 2945 
Q 3322 2497 3322 1706 
Q 3322 1066 3130 698 
Q 2938 331 2570 128 
Q 2203 -75 1769 -75 
Q 1072 -75 642 372 
Q 213 819 213 1659 
z
M 791 1659 
Q 791 1022 1069 705 
Q 1347 388 1769 388 
Q 2188 388 2466 706 
Q 2744 1025 2744 1678 
Q 2744 2294 2464 2611 
Q 2184 2928 1769 2928 
Q 1347 2928 1069 2612 
Q 791 2297 791 1659 
z
" transform="scale(0.015625)"/>
      <path id="ArialMT-65" d="M 2694 1069 
L 3275 997 
Q 3138 488 2766 206 
Q 2394 -75 1816 -75 
Q 1088 -75 661 373 
Q 234 822 234 1631 
Q 234 2469 665 2931 
Q 1097 3394 1784 3394 
Q 2450 3394 2872 2941 
Q 3294 2488 3294 1666 
Q 3294 1616 3291 1516 
L 816 1516 
Q 847 969 1125 678 
Q 1403 388 1819 388 
Q 2128 388 2347 550 
Q 2566 713 2694 1069 
z
M 847 1978 
L 2700 1978 
Q 2663 2397 2488 2606 
Q 2219 2931 1791 2931 
Q 1403 2931 1139 2672 
Q 875 2413 847 1978 
z
" transform="scale(0.015625)"/>
      <path id="ArialMT-66" d="M 556 0 
L 556 2881 
L 59 2881 
L 59 3319 
L 556 3319 
L 556 3672 
Q 556 4006 616 4169 
Q 697 4388 901 4523 
Q 1106 4659 1475 4659 
Q 1713 4659 2000 4603 
L 1916 4113 
Q 1741 4144 1584 4144 
Q 1328 4144 1222 4034 
Q 1116 3925 1116 3625 
L 1116 3319 
L 1763 3319 
L 1763 2881 
L 1116 2881 
L 1116 0 
L 556 0 
z
" transform="scale(0.015625)"/>
      <path id="ArialMT-74" d="M 1650 503 
L 1731 6 
Q 1494 -44 1306 -44 
Q 1000 -44 831 53 
Q 663 150 594 308 
Q 525 466 525 972 
L 525 2881 
L 113 2881 
L 113 3319 
L 525 3319 
L 525 4141 
L 1084 4478 
L 1084 3319 
L 1650 3319 
L 1650 2881 
L 1084 2881 
L 1084 941 
Q 1084 700 1114 631 
Q 1144 563 1211 522 
Q 1278 481 1403 481 
Q 1497 481 1650 503 
z
" transform="scale(0.015625)"/>
      <path id="ArialMT-76" d="M 1344 0 
L 81 3319 
L 675 3319 
L 1388 1331 
Q 1503 1009 1600 663 
Q 1675 925 1809 1294 
L 2547 3319 
L 3125 3319 
L 1869 0 
L 1344 0 
z
" transform="scale(0.015625)"/>
      <path id="ArialMT-72" d="M 416 0 
L 416 3319 
L 922 3319 
L 922 2816 
Q 1116 3169 1280 3281 
Q 1444 3394 1641 3394 
Q 1925 3394 2219 3213 
L 2025 2691 
Q 1819 2813 1613 2813 
Q 1428 2813 1281 2702 
Q 1134 2591 1072 2394 
Q 978 2094 978 1738 
L 978 0 
L 416 0 
z
" transform="scale(0.015625)"/>
      <path id="ArialMT-6d" d="M 422 0 
L 422 3319 
L 925 3319 
L 925 2853 
Q 1081 3097 1340 3245 
Q 1600 3394 1931 3394 
Q 2300 3394 2536 3241 
Q 2772 3088 2869 2813 
Q 3263 3394 3894 3394 
Q 4388 3394 4653 3120 
Q 4919 2847 4919 2278 
L 4919 0 
L 4359 0 
L 4359 2091 
Q 4359 2428 4304 2576 
Q 4250 2725 4106 2815 
Q 3963 2906 3769 2906 
Q 3419 2906 3187 2673 
Q 2956 2441 2956 1928 
L 2956 0 
L 2394 0 
L 2394 2156 
Q 2394 2531 2256 2718 
Q 2119 2906 1806 2906 
Q 1569 2906 1367 2781 
Q 1166 2656 1075 2415 
Q 984 2175 984 1722 
L 984 0 
L 422 0 
z
" transform="scale(0.015625)"/>
     </defs>
     <use xlink:href="#ArialMT-47"/>
     <use xlink:href="#ArialMT-69" x="77.783203"/>
     <use xlink:href="#ArialMT-6e" x="100"/>
     <use xlink:href="#ArialMT-69" x="155.615234"/>
     <use xlink:href="#ArialMT-20" x="177.832031"/>
     <use xlink:href="#ArialMT-63" x="205.615234"/>
     <use xlink:href="#ArialMT-6f" x="255.615234"/>
     <use xlink:href="#ArialMT-65" x="311.230469"/>
     <use xlink:href="#ArialMT-66" x="366.845703"/>
     <use xlink:href="#ArialMT-66" x="392.878906"/>
     <use xlink:href="#ArialMT-69" x="420.662109"/>
     <use xlink:href="#ArialMT-63" x="442.878906"/>
     <use xlink:href="#ArialMT-69" x="492.878906"/>
     <use xlink:href="#ArialMT-65" x="515.095703"/>
     <use xlink:href="#ArialMT-6e" x="570.710938"/>
     <use xlink:href="#ArialMT-74" x="626.326172"/>
     <use xlink:href="#ArialMT-20" x="654.109375"/>
     <use xlink:href="#ArialMT-6f" x="681.892578"/>
     <use xlink:href="#ArialMT-76" x="737.507812"/>
     <use xlink:href="#ArialMT-65" x="787.507812"/>
     <use xlink:href="#ArialMT-72" x="843.123047"/>
     <use xlink:href="#ArialMT-20" x="876.423828"/>
     <use xlink:href="#ArialMT-74" x="904.207031"/>
     <use xlink:href="#ArialMT-69" x="931.990234"/>
     <use xlink:href="#ArialMT-6d" x="954.207031"/>
     <use xlink:href="#ArialMT-65" x="1037.507812"/>
    </g>
   </g>
  </g>
 </g>
 <defs>
  <clipPath id="p109ad4c4c1">
   <rect x="42.82" y="25.44" width="378.38" height="378.68"/>
  </clipPath>
 </defs>
</svg>
