<?xml version="1.0" encoding="utf-8" standalone="no"?>
<!DOCTYPE svg PUBLIC "-//W3C//DTD SVG 1.1//EN"
  "http://www.w3.org/Graphics/SVG/1.1/DTD/svg11.dtd">
<svg xmlns:xlink="http://www.w3.org/1999/xlink" width="432pt" height="288pt" viewBox="0 0 432 288" xmlns="http://www.w3.org/2000/svg" version="1.1">
 <metadata>
  <rdf:RDF xmlns:dc="http://purl.org/dc/elements/1.1/" xmlns:cc="http://creativecommons.org/ns#" xmlns:rdf="http://www.w3.org/1999/02/22-rdf-syntax-ns#">
   <cc:Work>
    <dc:type rdf:resource="http://purl.org/dc/dcmitype/StillImage"/>
    <dc:date>2024-04-13T18:08:09.284269</dc:date>
    <dc:format>image/svg+xml</dc:format>
    <dc:creator>
     <cc:Agent>
      <dc:title>Matplotlib v3.8.3, https://matplotlib.org/</dc:title>
     </cc:Agent>
    </dc:creator>
   </cc:Work>
  </rdf:RDF>
 </metadata>
 <defs>
  <style type="text/css">*{stroke-linejoin: round; stroke-linecap: butt}</style>
 </defs>
 <g id="figure_1">
  <g id="patch_1">
   <path d="M 0 288 
L 432 288 
L 432 0 
L 0 0 
z
" style="fill: #ffffff"/>
  </g>
  <g id="axes_1">
   <g id="patch_2">
    <path d="M 42.82 260.12 
L 421.2 260.12 
L 421.2 25.44 
L 42.82 25.44 
z
" style="fill: #eaeaf2"/>
   </g>
   <g id="matplotlib.axis_1">
    <g id="xtick_1">
     <g id="text_1">
      <!-- 2017 -->
      <g style="fill: #262626" transform="translate(59.066021 274.277812) scale(0.1 -0.1)">
       <defs>
        <path id="ArialMT-32" d="M 3222 541 
L 3222 0 
L 194 0 
Q 188 203 259 391 
Q 375 700 629 1000 
Q 884 1300 1366 1694 
Q 2113 2306 2375 2664 
Q 2638 3022 2638 3341 
Q 2638 3675 2398 3904 
Q 2159 4134 1775 4134 
Q 1369 4134 1125 3890 
Q 881 3647 878 3216 
L 300 3275 
Q 359 3922 746 4261 
Q 1134 4600 1788 4600 
Q 2447 4600 2831 4234 
Q 3216 3869 3216 3328 
Q 3216 3053 3103 2787 
Q 2991 2522 2730 2228 
Q 2469 1934 1863 1422 
Q 1356 997 1212 845 
Q 1069 694 975 541 
L 3222 541 
z
" transform="scale(0.015625)"/>
        <path id="ArialMT-30" d="M 266 2259 
Q 266 3072 433 3567 
Q 600 4063 929 4331 
Q 1259 4600 1759 4600 
Q 2128 4600 2406 4451 
Q 2684 4303 2865 4023 
Q 3047 3744 3150 3342 
Q 3253 2941 3253 2259 
Q 3253 1453 3087 958 
Q 2922 463 2592 192 
Q 2263 -78 1759 -78 
Q 1097 -78 719 397 
Q 266 969 266 2259 
z
M 844 2259 
Q 844 1131 1108 757 
Q 1372 384 1759 384 
Q 2147 384 2411 759 
Q 2675 1134 2675 2259 
Q 2675 3391 2411 3762 
Q 2147 4134 1753 4134 
Q 1366 4134 1134 3806 
Q 844 3388 844 2259 
z
" transform="scale(0.015625)"/>
        <path id="ArialMT-31" d="M 2384 0 
L 1822 0 
L 1822 3584 
Q 1619 3391 1289 3197 
Q 959 3003 697 2906 
L 697 3450 
Q 1169 3672 1522 3987 
Q 1875 4303 2022 4600 
L 2384 4600 
L 2384 0 
z
" transform="scale(0.015625)"/>
        <path id="ArialMT-37" d="M 303 3981 
L 303 4522 
L 3269 4522 
L 3269 4084 
Q 2831 3619 2401 2847 
Q 1972 2075 1738 1259 
Q 1569 684 1522 0 
L 944 0 
Q 953 541 1156 1306 
Q 1359 2072 1739 2783 
Q 2119 3494 2547 3981 
L 303 3981 
z
" transform="scale(0.015625)"/>
       </defs>
       <use xlink:href="#ArialMT-32"/>
       <use xlink:href="#ArialMT-30" x="55.615234"/>
       <use xlink:href="#ArialMT-31" x="111.230469"/>
       <use xlink:href="#ArialMT-37" x="166.845703"/>
      </g>
     </g>
    </g>
    <g id="xtick_2">
     <g id="text_2">
      <!-- 2018 -->
      <g style="fill: #262626" transform="translate(104.888417 274.277812) scale(0.1 -0.1)">
       <defs>
        <path id="ArialMT-38" d="M 1131 2484 
Q 781 2613 612 2850 
Q 444 3088 444 3419 
Q 444 3919 803 4259 
Q 1163 4600 1759 4600 
Q 2359 4600 2725 4251 
Q 3091 3903 3091 3403 
Q 3091 3084 2923 2848 
Q 2756 2613 2416 2484 
Q 2838 2347 3058 2040 
Q 3278 1734 3278 1309 
Q 3278 722 2862 322 
Q 2447 -78 1769 -78 
Q 1091 -78 675 323 
Q 259 725 259 1325 
Q 259 1772 486 2073 
Q 713 2375 1131 2484 
z
M 1019 3438 
Q 1019 3113 1228 2906 
Q 1438 2700 1772 2700 
Q 2097 2700 2305 2904 
Q 2513 3109 2513 3406 
Q 2513 3716 2298 3927 
Q 2084 4138 1766 4138 
Q 1444 4138 1231 3931 
Q 1019 3725 1019 3438 
z
M 838 1322 
Q 838 1081 952 856 
Q 1066 631 1291 507 
Q 1516 384 1775 384 
Q 2178 384 2440 643 
Q 2703 903 2703 1303 
Q 2703 1709 2433 1975 
Q 2163 2241 1756 2241 
Q 1359 2241 1098 1978 
Q 838 1716 838 1322 
z
" transform="scale(0.015625)"/>
       </defs>
       <use xlink:href="#ArialMT-32"/>
       <use xlink:href="#ArialMT-30" x="55.615234"/>
       <use xlink:href="#ArialMT-31" x="111.230469"/>
       <use xlink:href="#ArialMT-38" x="166.845703"/>
      </g>
     </g>
    </g>
    <g id="xtick_3">
     <g id="text_3">
      <!-- 2019 -->
      <g style="fill: #262626" transform="translate(150.710812 274.277812) scale(0.1 -0.1)">
       <defs>
        <path id="ArialMT-39" d="M 350 1059 
L 891 1109 
Q 959 728 1153 556 
Q 1347 384 1650 384 
Q 1909 384 2104 503 
Q 2300 622 2425 820 
Q 2550 1019 2634 1356 
Q 2719 1694 2719 2044 
Q 2719 2081 2716 2156 
Q 2547 1888 2255 1720 
Q 1963 1553 1622 1553 
Q 1053 1553 659 1965 
Q 266 2378 266 3053 
Q 266 3750 677 4175 
Q 1088 4600 1706 4600 
Q 2153 4600 2523 4359 
Q 2894 4119 3086 3673 
Q 3278 3228 3278 2384 
Q 3278 1506 3087 986 
Q 2897 466 2520 194 
Q 2144 -78 1638 -78 
Q 1100 -78 759 220 
Q 419 519 350 1059 
z
M 2653 3081 
Q 2653 3566 2395 3850 
Q 2138 4134 1775 4134 
Q 1400 4134 1122 3828 
Q 844 3522 844 3034 
Q 844 2597 1108 2323 
Q 1372 2050 1759 2050 
Q 2150 2050 2401 2323 
Q 2653 2597 2653 3081 
z
" transform="scale(0.015625)"/>
       </defs>
       <use xlink:href="#ArialMT-32"/>
       <use xlink:href="#ArialMT-30" x="55.615234"/>
       <use xlink:href="#ArialMT-31" x="111.230469"/>
       <use xlink:href="#ArialMT-39" x="166.845703"/>
      </g>
     </g>
    </g>
    <g id="xtick_4">
     <g id="text_4">
      <!-- 2020 -->
      <g style="fill: #262626" transform="translate(196.533208 274.277812) scale(0.1 -0.1)">
       <use xlink:href="#ArialMT-32"/>
       <use xlink:href="#ArialMT-30" x="55.615234"/>
       <use xlink:href="#ArialMT-32" x="111.230469"/>
       <use xlink:href="#ArialMT-30" x="166.845703"/>
      </g>
     </g>
    </g>
    <g id="xtick_5">
     <g id="text_5">
      <!-- 2021 -->
      <g style="fill: #262626" transform="translate(242.481144 274.277812) scale(0.1 -0.1)">
       <use xlink:href="#ArialMT-32"/>
       <use xlink:href="#ArialMT-30" x="55.615234"/>
       <use xlink:href="#ArialMT-32" x="111.230469"/>
       <use xlink:href="#ArialMT-31" x="166.845703"/>
      </g>
     </g>
    </g>
    <g id="xtick_6">
     <g id="text_6">
      <!-- 2022 -->
      <g style="fill: #262626" transform="translate(288.30354 274.277812) scale(0.1 -0.1)">
       <use xlink:href="#ArialMT-32"/>
       <use xlink:href="#ArialMT-30" x="55.615234"/>
       <use xlink:href="#ArialMT-32" x="111.230469"/>
       <use xlink:href="#ArialMT-32" x="166.845703"/>
      </g>
     </g>
    </g>
    <g id="xtick_7">
     <g id="text_7">
      <!-- 2023 -->
      <g style="fill: #262626" transform="translate(334.125935 274.277812) scale(0.1 -0.1)">
       <defs>
        <path id="ArialMT-33" d="M 269 1209 
L 831 1284 
Q 928 806 1161 595 
Q 1394 384 1728 384 
Q 2125 384 2398 659 
Q 2672 934 2672 1341 
Q 2672 1728 2419 1979 
Q 2166 2231 1775 2231 
Q 1616 2231 1378 2169 
L 1441 2663 
Q 1497 2656 1531 2656 
Q 1891 2656 2178 2843 
Q 2466 3031 2466 3422 
Q 2466 3731 2256 3934 
Q 2047 4138 1716 4138 
Q 1388 4138 1169 3931 
Q 950 3725 888 3313 
L 325 3413 
Q 428 3978 793 4289 
Q 1159 4600 1703 4600 
Q 2078 4600 2393 4439 
Q 2709 4278 2876 4000 
Q 3044 3722 3044 3409 
Q 3044 3113 2884 2869 
Q 2725 2625 2413 2481 
Q 2819 2388 3044 2092 
Q 3269 1797 3269 1353 
Q 3269 753 2831 336 
Q 2394 -81 1725 -81 
Q 1122 -81 723 278 
Q 325 638 269 1209 
z
" transform="scale(0.015625)"/>
       </defs>
       <use xlink:href="#ArialMT-32"/>
       <use xlink:href="#ArialMT-30" x="55.615234"/>
       <use xlink:href="#ArialMT-32" x="111.230469"/>
       <use xlink:href="#ArialMT-33" x="166.845703"/>
      </g>
     </g>
    </g>
    <g id="xtick_8">
     <g id="text_8">
      <!-- 2024 -->
      <g style="fill: #262626" transform="translate(379.948331 274.277812) scale(0.1 -0.1)">
       <defs>
        <path id="ArialMT-34" d="M 2069 0 
L 2069 1097 
L 81 1097 
L 81 1613 
L 2172 4581 
L 2631 4581 
L 2631 1613 
L 3250 1613 
L 3250 1097 
L 2631 1097 
L 2631 0 
L 2069 0 
z
M 2069 1613 
L 2069 3678 
L 634 1613 
L 2069 1613 
z
" transform="scale(0.015625)"/>
       </defs>
       <use xlink:href="#ArialMT-32"/>
       <use xlink:href="#ArialMT-30" x="55.615234"/>
       <use xlink:href="#ArialMT-32" x="111.230469"/>
       <use xlink:href="#ArialMT-34" x="166.845703"/>
      </g>
     </g>
    </g>
   </g>
   <g id="matplotlib.axis_2">
    <g id="ytick_1">
     <g id="text_9">
      <!-- 0.800 -->
      <g style="fill: #262626" transform="translate(10.798125 263.469002) scale(0.1 -0.1)">
       <defs>
        <path id="ArialMT-2e" d="M 581 0 
L 581 641 
L 1222 641 
L 1222 0 
L 581 0 
z
" transform="scale(0.015625)"/>
       </defs>
       <use xlink:href="#ArialMT-30"/>
       <use xlink:href="#ArialMT-2e" x="55.615234"/>
       <use xlink:href="#ArialMT-38" x="83.398438"/>
       <use xlink:href="#ArialMT-30" x="139.013672"/>
       <use xlink:href="#ArialMT-30" x="194.628906"/>
      </g>
     </g>
    </g>
    <g id="ytick_2">
     <g id="text_10">
      <!-- 0.805 -->
      <g style="fill: #262626" transform="translate(10.798125 232.429766) scale(0.1 -0.1)">
       <defs>
        <path id="ArialMT-35" d="M 266 1200 
L 856 1250 
Q 922 819 1161 601 
Q 1400 384 1738 384 
Q 2144 384 2425 690 
Q 2706 997 2706 1503 
Q 2706 1984 2436 2262 
Q 2166 2541 1728 2541 
Q 1456 2541 1237 2417 
Q 1019 2294 894 2097 
L 366 2166 
L 809 4519 
L 3088 4519 
L 3088 3981 
L 1259 3981 
L 1013 2750 
Q 1425 3038 1878 3038 
Q 2478 3038 2890 2622 
Q 3303 2206 3303 1553 
Q 3303 931 2941 478 
Q 2500 -78 1738 -78 
Q 1113 -78 717 272 
Q 322 622 266 1200 
z
" transform="scale(0.015625)"/>
       </defs>
       <use xlink:href="#ArialMT-30"/>
       <use xlink:href="#ArialMT-2e" x="55.615234"/>
       <use xlink:href="#ArialMT-38" x="83.398438"/>
       <use xlink:href="#ArialMT-30" x="139.013672"/>
       <use xlink:href="#ArialMT-35" x="194.628906"/>
      </g>
     </g>
    </g>
    <g id="ytick_3">
     <g id="text_11">
      <!-- 0.810 -->
      <g style="fill: #262626" transform="translate(10.798125 201.390531) scale(0.1 -0.1)">
       <use xlink:href="#ArialMT-30"/>
       <use xlink:href="#ArialMT-2e" x="55.615234"/>
       <use xlink:href="#ArialMT-38" x="83.398438"/>
       <use xlink:href="#ArialMT-31" x="139.013672"/>
       <use xlink:href="#ArialMT-30" x="194.628906"/>
      </g>
     </g>
    </g>
    <g id="ytick_4">
     <g id="text_12">
      <!-- 0.815 -->
      <g style="fill: #262626" transform="translate(10.798125 170.351296) scale(0.1 -0.1)">
       <use xlink:href="#ArialMT-30"/>
       <use xlink:href="#ArialMT-2e" x="55.615234"/>
       <use xlink:href="#ArialMT-38" x="83.398438"/>
       <use xlink:href="#ArialMT-31" x="139.013672"/>
       <use xlink:href="#ArialMT-35" x="194.628906"/>
      </g>
     </g>
    </g>
    <g id="ytick_5">
     <g id="text_13">
      <!-- 0.820 -->
      <g style="fill: #262626" transform="translate(10.798125 139.312061) scale(0.1 -0.1)">
       <use xlink:href="#ArialMT-30"/>
       <use xlink:href="#ArialMT-2e" x="55.615234"/>
       <use xlink:href="#ArialMT-38" x="83.398438"/>
       <use xlink:href="#ArialMT-32" x="139.013672"/>
       <use xlink:href="#ArialMT-30" x="194.628906"/>
      </g>
     </g>
    </g>
    <g id="ytick_6">
     <g id="text_14">
      <!-- 0.825 -->
      <g style="fill: #262626" transform="translate(10.798125 108.272825) scale(0.1 -0.1)">
       <use xlink:href="#ArialMT-30"/>
       <use xlink:href="#ArialMT-2e" x="55.615234"/>
       <use xlink:href="#ArialMT-38" x="83.398438"/>
       <use xlink:href="#ArialMT-32" x="139.013672"/>
       <use xlink:href="#ArialMT-35" x="194.628906"/>
      </g>
     </g>
    </g>
    <g id="ytick_7">
     <g id="text_15">
      <!-- 0.830 -->
      <g style="fill: #262626" transform="translate(10.798125 77.23359) scale(0.1 -0.1)">
       <use xlink:href="#ArialMT-30"/>
       <use xlink:href="#ArialMT-2e" x="55.615234"/>
       <use xlink:href="#ArialMT-38" x="83.398438"/>
       <use xlink:href="#ArialMT-33" x="139.013672"/>
       <use xlink:href="#ArialMT-30" x="194.628906"/>
      </g>
     </g>
    </g>
    <g id="ytick_8">
     <g id="text_16">
      <!-- 0.835 -->
      <g style="fill: #262626" transform="translate(10.798125 46.194355) scale(0.1 -0.1)">
       <use xlink:href="#ArialMT-30"/>
       <use xlink:href="#ArialMT-2e" x="55.615234"/>
       <use xlink:href="#ArialMT-38" x="83.398438"/>
       <use xlink:href="#ArialMT-33" x="139.013672"/>
       <use xlink:href="#ArialMT-35" x="194.628906"/>
      </g>
     </g>
    </g>
   </g>
   <g id="PolyCollection_1"/>
   <g id="line2d_1">
    <path d="M 60.019091 249.452727 
L 60.521254 248.771176 
L 60.772336 248.621773 
L 61.023417 247.352696 
L 61.148958 247.155926 
L 61.274499 246.702877 
L 61.776662 247.048133 
L 62.780989 246.109405 
L 63.283152 245.627538 
L 63.408693 245.798903 
L 63.659774 245.478973 
L 63.910856 245.411889 
L 64.789642 244.679387 
L 64.915182 244.448787 
L 65.040723 244.479854 
L 65.166264 244.676236 
L 65.668427 244.008102 
L 65.919509 243.666416 
L 66.04505 243.708042 
L 66.296131 242.994796 
L 66.672754 242.960064 
L 67.551539 241.770658 
L 67.67708 241.848718 
L 68.179244 241.378555 
L 68.430325 241.47342 
L 68.555866 241.47342 
L 68.681407 241.18578 
L 68.806948 241.18846 
L 69.058029 240.638151 
L 69.18357 240.681424 
L 69.434652 240.318727 
L 69.685733 240.346627 
L 69.811274 239.864621 
L 70.062356 239.837705 
L 70.313437 239.575748 
L 71.066682 237.770624 
L 71.317764 237.218413 
L 71.443305 237.218413 
L 71.945468 236.44677 
L 72.071009 236.392629 
L 72.447631 235.666309 
L 72.573172 235.537317 
L 72.698713 234.362741 
L 72.824253 234.311549 
L 72.949794 234.410285 
L 73.326417 233.845092 
L 73.577498 233.298504 
L 73.82858 233.080536 
L 73.954121 233.201469 
L 74.079662 233.004041 
L 74.205202 233.649342 
L 74.330743 233.44949 
L 74.581825 232.841331 
L 74.707366 232.604739 
L 74.832906 232.833706 
L 75.33507 232.277866 
L 75.837233 232.17419 
L 76.464937 231.351111 
L 76.590478 231.43519 
L 76.841559 231.07449 
L 76.9671 231.061572 
L 77.092641 230.870611 
L 77.218182 230.958241 
L 77.343723 230.68813 
L 77.469263 231.14642 
L 77.720345 230.989954 
L 77.971427 229.702238 
L 78.222508 229.48687 
L 78.599131 228.884519 
L 78.850212 228.452487 
L 78.975753 228.025125 
L 79.101294 228.031728 
L 79.477916 227.530215 
L 79.728998 227.237265 
L 80.231161 226.627777 
L 80.356702 226.584801 
L 81.486569 225.049585 
L 81.61211 225.028791 
L 81.737651 224.885333 
L 81.988733 224.461972 
L 82.365355 223.874853 
L 82.490896 223.856814 
L 83.1186 222.737239 
L 83.244141 222.721111 
L 83.369681 222.549662 
L 83.495222 222.674766 
L 84.499549 220.457456 
L 84.876171 220.147878 
L 85.378334 219.539649 
L 85.503875 219.560748 
L 86.884824 217.793775 
L 87.135906 217.754314 
L 87.261447 217.699685 
L 87.638069 217.378505 
L 88.140232 217.211284 
L 88.265773 216.646798 
L 88.391314 216.922076 
L 88.642395 216.887141 
L 88.893477 216.672217 
L 89.144559 216.675495 
L 89.2701 216.641604 
L 89.772263 215.745729 
L 90.274426 215.230526 
L 90.525508 214.905896 
L 90.651048 214.748359 
L 90.776589 214.829105 
L 91.153212 214.312091 
L 91.404293 214.150032 
L 91.780916 213.419206 
L 91.906457 213.426334 
L 92.031997 213.099931 
L 92.157538 213.110042 
L 92.785242 212.559191 
L 92.910783 212.507831 
L 93.036324 213.426079 
L 93.161865 212.358316 
L 93.538487 212.035172 
L 94.04065 211.43556 
L 94.166191 211.460424 
L 94.542814 210.624222 
L 95.044977 210.217876 
L 96.049303 209.218168 
L 96.425926 208.337112 
L 97.05363 207.600734 
L 97.555793 207.222792 
L 97.806875 206.987124 
L 97.932415 207.022043 
L 98.183497 206.682123 
L 98.309038 206.775685 
L 98.560119 206.445198 
L 98.68566 206.40893 
L 98.811201 206.252906 
L 99.187823 205.417561 
L 99.313364 205.496261 
L 99.689987 204.992155 
L 99.941068 204.342343 
L 100.443232 203.783289 
L 100.694313 203.945712 
L 100.945395 203.806078 
L 101.070936 203.007295 
L 101.322017 203.656011 
L 101.573099 203.452016 
L 101.69864 203.454383 
L 102.200803 202.811327 
L 102.326344 202.78401 
L 102.702966 202.284427 
L 102.828507 202.313904 
L 102.954048 202.182653 
L 103.205129 201.622498 
L 104.334997 200.732948 
L 104.460537 200.451996 
L 104.586078 200.663694 
L 104.83716 200.368675 
L 105.464864 199.908236 
L 106.092568 198.711185 
L 106.46919 198.373473 
L 106.720272 197.487505 
L 106.971354 197.094133 
L 107.599058 196.528358 
L 107.724599 196.541787 
L 107.850139 196.359834 
L 107.97568 196.534026 
L 108.101221 196.38446 
L 108.352303 195.612849 
L 108.477843 197.015406 
L 108.603384 195.052789 
L 109.356629 194.79078 
L 109.48217 194.722244 
L 109.858792 193.850455 
L 109.984333 194.490681 
L 110.360956 193.970381 
L 110.486496 194.147373 
L 110.612037 193.79263 
L 110.863119 193.894098 
L 111.490823 192.565443 
L 111.616364 192.659838 
L 111.867445 192.56564 
L 111.992986 192.56564 
L 112.118527 191.983509 
L 112.369608 191.897207 
L 112.495149 191.728577 
L 112.871772 191.764196 
L 113.248394 191.30858 
L 113.876098 191.160092 
L 114.001639 191.007466 
L 114.378261 190.986133 
L 114.754884 190.739065 
L 115.005965 190.947697 
L 115.131506 190.855808 
L 115.382588 190.91651 
L 115.63367 190.556072 
L 116.010292 189.501315 
L 116.135833 189.691192 
L 116.386914 188.968744 
L 116.512455 188.831539 
L 116.763537 189.450214 
L 116.889078 189.340255 
L 117.140159 188.410358 
L 117.642322 187.497118 
L 117.767863 187.402165 
L 117.893404 186.9763 
L 118.646649 185.88882 
L 118.77219 185.846856 
L 119.023271 185.505677 
L 119.148812 185.505677 
L 119.274353 185.097433 
L 119.399894 185.104935 
L 120.027598 183.906126 
L 120.529761 183.417685 
L 121.031924 183.040144 
L 121.157465 183.525698 
L 121.283006 183.485439 
L 121.534088 182.949699 
L 122.036251 182.077133 
L 122.161792 182.123575 
L 122.412873 181.972099 
L 122.538414 181.972099 
L 122.915036 181.567983 
L 123.040577 181.614426 
L 123.919363 180.489642 
L 124.170445 180.489642 
L 124.295985 179.991317 
L 124.672608 179.883193 
L 124.798149 179.858589 
L 124.923689 179.973846 
L 125.300312 179.727589 
L 125.425853 179.675099 
L 125.551393 179.793919 
L 126.55572 179.073579 
L 126.681261 179.266943 
L 127.057883 178.952488 
L 127.308965 178.550395 
L 127.434506 178.40471 
L 127.560046 178.557586 
L 127.685587 178.428755 
L 127.811128 176.68766 
L 127.936669 177.993266 
L 128.313291 178.06905 
L 128.564373 178.557839 
L 129.192077 178.417747 
L 129.443159 177.882461 
L 129.945322 177.486103 
L 130.070863 177.72153 
L 130.196403 177.700194 
L 130.321944 177.173315 
L 130.447485 177.284798 
L 130.698567 176.85883 
L 130.824107 176.833585 
L 131.075189 176.431803 
L 131.20073 175.712293 
L 131.326271 176.086132 
L 132.330597 175.441721 
L 132.581679 175.066493 
L 132.70722 174.948966 
L 133.334924 174.803972 
L 133.460464 174.697473 
L 133.962628 174.873862 
L 135.092495 173.080277 
L 135.218036 173.071299 
L 135.469117 172.640389 
L 135.720199 172.187447 
L 136.222362 172.100624 
L 136.473444 171.897781 
L 137.101148 171.467545 
L 137.226689 171.411385 
L 137.47777 171.005514 
L 137.603311 171.005514 
L 137.728852 171.502634 
L 138.231015 171.270051 
L 138.356556 171.050392 
L 138.98426 171.200103 
L 139.486423 170.633186 
L 139.611964 170.626504 
L 140.114127 170.094333 
L 140.239668 170.094333 
L 140.49075 169.729535 
L 140.992913 169.517211 
L 141.495076 169.467889 
L 141.746158 169.102851 
L 141.871699 169.135142 
L 141.99724 168.6683 
L 142.12278 168.880566 
L 142.373862 168.731091 
L 142.624944 168.634987 
L 142.750484 168.607311 
L 143.127107 168.241634 
L 143.252648 168.156068 
L 143.62927 168.219458 
L 144.256974 167.72417 
L 144.759137 167.725124 
L 144.884678 166.82018 
L 145.13576 166.862349 
L 145.637923 166.312284 
L 146.391168 165.751774 
L 146.64225 165.44698 
L 147.018872 165.2479 
L 147.395494 165.189403 
L 147.521035 165.119736 
L 147.897658 164.821554 
L 148.399821 164.603341 
L 148.525362 164.486931 
L 148.650902 164.587112 
L 148.901984 164.427028 
L 149.027525 163.775902 
L 149.153066 164.223371 
L 149.278607 164.177602 
L 149.655229 163.663378 
L 149.906311 163.708011 
L 150.157392 163.709941 
L 150.282933 163.600786 
L 150.408474 159.539814 
L 150.534015 163.758601 
L 150.785096 163.484697 
L 151.789423 163.501688 
L 152.040504 163.290338 
L 152.291586 162.996744 
L 152.417127 164.67992 
L 152.542668 162.475839 
L 152.668208 162.637998 
L 152.793749 161.490417 
L 152.91929 162.523258 
L 153.044831 162.481655 
L 153.170372 162.584069 
L 153.295912 161.423007 
L 153.421453 161.830315 
L 153.546994 160.28268 
L 153.672535 161.890411 
L 153.798076 161.029493 
L 153.923616 162.429263 
L 154.174698 160.675151 
L 154.551321 160.187029 
L 154.802402 159.167254 
L 154.927943 158.939549 
L 155.053484 156.925816 
L 155.179025 158.1418 
L 155.304565 158.239538 
L 155.430106 158.041812 
L 156.183351 158.209907 
L 156.308892 157.59016 
L 156.559973 157.323503 
L 156.811055 157.580286 
L 156.936596 157.483105 
L 157.062137 156.669095 
L 157.313218 156.534976 
L 157.5643 156.0578 
L 158.192004 155.832318 
L 158.819708 155.846191 
L 159.07079 155.736545 
L 159.19633 155.855802 
L 159.824035 155.5469 
L 160.200657 155.188108 
L 160.451739 155.286013 
L 160.577279 155.201761 
L 160.70282 155.271916 
L 161.204983 155.110276 
L 161.456065 154.906528 
L 161.581606 154.721281 
L 161.707147 154.77213 
L 162.334851 154.481702 
L 162.711473 154.35485 
L 162.962555 154.146649 
L 163.213636 153.775425 
L 163.590259 153.702098 
L 164.845667 153.304688 
L 165.222289 152.673108 
L 165.724453 152.097458 
L 165.849993 149.68216 
L 165.975534 151.949162 
L 166.477697 151.475899 
L 166.603238 151.575405 
L 166.85432 151.279155 
L 167.105401 151.270242 
L 167.356483 151.069289 
L 167.858646 150.93748 
L 167.984187 150.888855 
L 168.36081 150.37608 
L 168.737432 150.104846 
L 169.114054 149.448451 
L 169.99284 148.7206 
L 170.118381 148.714907 
L 170.620544 148.264142 
L 170.997167 148.215688 
L 171.122707 148.193255 
L 171.248248 148.050605 
L 171.624871 148.209287 
L 171.875952 147.918102 
L 173.00582 147.608193 
L 173.13136 147.644007 
L 173.382442 147.340298 
L 173.507983 147.285955 
L 173.633524 147.103317 
L 173.884605 146.116565 
L 174.512309 146.139861 
L 174.763391 145.82752 
L 175.014472 145.769828 
L 175.265554 145.415869 
L 175.391095 145.499587 
L 175.642177 145.353652 
L 175.767717 145.016269 
L 175.893258 145.023404 
L 176.646503 144.400985 
L 176.897585 144.42524 
L 177.023125 144.430903 
L 177.274207 144.019623 
L 177.525289 143.638477 
L 177.77637 143.614661 
L 178.278534 143.519844 
L 178.529615 143.322396 
L 178.780697 143.3543 
L 178.906238 143.349329 
L 179.031778 143.087137 
L 179.533942 143.074716 
L 179.659482 142.863191 
L 180.161646 142.868402 
L 180.412727 142.598862 
L 180.663809 142.578451 
L 180.78935 142.607244 
L 181.165972 142.23557 
L 181.291513 142.274906 
L 181.542595 142.165586 
L 182.044758 142.349486 
L 182.170299 142.351779 
L 182.42138 142.10914 
L 183.049084 141.823752 
L 184.178952 141.170773 
L 184.555574 140.889402 
L 184.932196 140.760294 
L 185.5599 140.416732 
L 185.936523 139.831566 
L 186.062064 139.979128 
L 186.187605 139.833562 
L 186.438686 139.475882 
L 186.564227 139.435581 
L 186.940849 139.015225 
L 188.57288 137.612429 
L 188.698421 137.13949 
L 188.823962 137.118422 
L 189.200584 136.745794 
L 189.451666 136.456871 
L 189.702747 136.040488 
L 189.828288 136.025577 
L 190.707074 135.046591 
L 190.958155 134.351419 
L 191.209237 134.517329 
L 191.460319 134.319327 
L 191.585859 134.344301 
L 191.962482 133.766329 
L 192.213563 133.797647 
L 192.590186 133.481857 
L 192.966808 133.367462 
L 193.594512 133.59775 
L 193.971135 133.135001 
L 194.096676 133.200307 
L 194.598839 132.770186 
L 194.72438 132.85118 
L 195.101002 132.600959 
L 195.226543 132.726379 
L 195.477624 132.230113 
L 196.481951 131.905035 
L 196.607492 131.954007 
L 196.858573 131.801911 
L 196.984114 131.804176 
L 197.109655 131.995993 
L 197.8629 131.473281 
L 198.113981 131.129553 
L 198.365063 130.969709 
L 198.490604 130.997445 
L 198.867226 130.479459 
L 199.620471 129.400499 
L 199.746012 129.445624 
L 199.871553 129.239714 
L 200.248175 129.369446 
L 200.373716 129.176955 
L 200.499257 129.304125 
L 201.00142 128.738933 
L 201.126961 128.762362 
L 201.252502 128.510089 
L 201.378042 128.619524 
L 201.754665 128.285635 
L 202.382369 128.584516 
L 202.758991 128.428876 
L 202.884532 128.413094 
L 203.386695 127.72507 
L 203.637777 127.675534 
L 203.888859 127.499124 
L 204.13994 127.528196 
L 204.516563 127.13418 
L 205.64643 126.911725 
L 206.023052 126.607401 
L 206.274134 126.257673 
L 206.399675 126.350582 
L 206.776297 125.763646 
L 206.901838 125.801117 
L 207.027379 125.694718 
L 207.278461 125.243571 
L 207.529542 125.2729 
L 207.655083 125.215698 
L 207.906165 124.773406 
L 208.282787 124.755936 
L 208.659409 124.232131 
L 209.287113 123.801116 
L 209.412654 123.593412 
L 209.538195 123.64145 
L 209.789277 123.231719 
L 210.040358 123.168744 
L 210.29144 122.91122 
L 210.793603 122.452852 
L 210.919144 122.444348 
L 211.672389 121.686329 
L 211.92347 121.851808 
L 212.049011 121.786591 
L 212.300093 121.476166 
L 213.053338 120.933489 
L 213.178879 120.649927 
L 213.304419 120.683908 
L 214.183205 119.853165 
L 214.308746 119.626645 
L 214.434287 119.697237 
L 214.685368 119.541712 
L 215.187532 118.471597 
L 215.438613 118.30973 
L 215.564154 118.560957 
L 215.815236 118.249322 
L 215.940776 118.260081 
L 216.191858 117.947142 
L 216.56848 117.876217 
L 216.819562 117.688929 
L 218.577133 117.5441 
L 218.953756 117.108784 
L 219.204837 117.096835 
L 219.958082 116.454875 
L 220.209164 116.073601 
L 220.460246 116.145894 
L 220.711327 115.92753 
L 220.836868 115.928123 
L 221.590113 115.202275 
L 221.715654 115.135136 
L 222.092276 114.591135 
L 222.343358 114.479435 
L 222.468898 114.169756 
L 222.594439 114.227613 
L 224.352011 112.630419 
L 224.603092 112.019522 
L 224.728633 112.034696 
L 224.979715 111.833028 
L 225.105255 111.837543 
L 225.607419 111.415855 
L 225.8585 111.325651 
L 226.611745 110.077332 
L 226.737286 110.064117 
L 226.988368 109.708314 
L 227.113908 109.644743 
L 227.239449 109.250781 
L 227.992694 109.05705 
L 230.629051 106.787806 
L 230.880133 106.750364 
L 231.005674 106.727961 
L 231.256755 106.496446 
L 231.507837 106.457889 
L 232.261082 105.934104 
L 232.888786 105.280927 
L 233.390949 104.81394 
L 233.51649 104.696225 
L 233.767571 104.345028 
L 234.144194 104.229267 
L 234.269735 104.044014 
L 234.395275 104.10325 
L 234.897439 103.062027 
L 235.14852 103.012269 
L 235.399602 103.051036 
L 235.650683 103.151946 
L 236.152847 102.876244 
L 236.65501 102.418149 
L 236.906092 102.098232 
L 237.282714 101.949806 
L 237.533796 101.757547 
L 237.910418 101.288451 
L 238.1615 101.219047 
L 238.663663 100.729481 
L 238.789204 100.695663 
L 239.291367 100.264645 
L 239.416908 100.178534 
L 239.667989 99.76059 
L 240.546775 99.436932 
L 240.672316 99.452264 
L 240.797857 99.273139 
L 241.174479 99.261678 
L 241.425561 99.132742 
L 241.802183 98.955355 
L 242.053265 99.051289 
L 243.057591 98.172654 
L 243.183132 98.252843 
L 243.308673 98.136553 
L 243.559754 98.162171 
L 243.810836 98.009499 
L 244.187459 97.989419 
L 244.43854 97.731277 
L 244.564081 97.728703 
L 244.940703 97.156545 
L 245.568407 96.971678 
L 245.819489 96.839914 
L 246.070571 96.6689 
L 246.572734 96.892108 
L 246.823816 96.646515 
L 246.949356 96.67745 
L 247.200438 96.542209 
L 247.325979 96.6384 
L 247.45152 96.562418 
L 247.57706 96.228317 
L 247.953683 96.174966 
L 248.079224 96.124638 
L 248.204764 95.929631 
L 248.330305 96.043397 
L 248.581387 95.874383 
L 248.706928 95.907704 
L 249.08355 95.540079 
L 249.209091 95.573523 
L 249.334632 95.347825 
L 249.460173 95.380032 
L 249.585713 95.208477 
L 249.836795 95.172847 
L 250.213417 94.935586 
L 250.464499 94.82523 
L 250.841121 94.904824 
L 251.217744 95.107044 
L 251.719907 94.880325 
L 251.970989 94.63582 
L 252.09653 94.730873 
L 252.598693 94.381104 
L 252.849774 94.299176 
L 253.226397 94.143126 
L 253.351938 94.10816 
L 253.477478 94.29462 
L 253.603019 94.200164 
L 253.72856 94.285718 
L 253.854101 94.058181 
L 254.105182 94.384633 
L 255.109509 93.349077 
L 255.23505 91.644344 
L 255.360591 93.135923 
L 255.611672 93.120103 
L 255.862754 92.943495 
L 256.239376 92.549893 
L 257.243703 91.900246 
L 257.369244 91.693634 
L 257.494784 91.756395 
L 258.37357 91.204795 
L 258.875733 91.156515 
L 259.88006 90.452877 
L 260.005601 90.450226 
L 260.256682 90.186989 
L 260.382223 90.294824 
L 260.633305 90.06647 
L 260.884386 90.05776 
L 261.888713 89.799094 
L 262.139794 89.588272 
L 262.265335 89.617889 
L 262.893039 89.164811 
L 263.395202 89.061613 
L 263.646284 88.812843 
L 263.897366 89.035436 
L 264.52507 88.573514 
L 264.776151 88.546118 
L 265.027233 88.487408 
L 265.278315 88.50757 
L 265.780478 87.959501 
L 265.906019 87.92666 
L 266.031559 88.026206 
L 266.910345 87.062623 
L 267.286967 87.078576 
L 267.412508 86.109638 
L 267.538049 86.989927 
L 267.66359 87.042985 
L 267.914672 86.786036 
L 268.416835 87.033869 
L 268.542376 87.054066 
L 268.793457 86.883012 
L 269.421161 86.682282 
L 269.672243 86.559634 
L 270.048865 86.4264 
L 270.174406 86.13709 
L 270.299947 86.142806 
L 270.551029 86.009873 
L 270.676569 85.912423 
L 270.927651 86.048504 
L 271.178733 85.93324 
L 271.429814 85.949537 
L 271.680896 85.779025 
L 271.931977 85.729188 
L 272.559681 85.328532 
L 272.810763 85.284805 
L 272.936304 85.078465 
L 273.312926 85.028347 
L 273.564008 84.843881 
L 273.94063 84.719606 
L 274.568334 84.571804 
L 275.070498 84.34229 
L 275.196038 84.514643 
L 275.321579 84.276287 
L 275.572661 84.258161 
L 275.823743 84.171057 
L 275.949283 84.221496 
L 276.200365 84.029787 
L 276.451447 84.089219 
L 276.95361 83.86726 
L 277.455773 83.658696 
L 278.209018 83.879625 
L 278.4601 83.429295 
L 279.213344 83.042763 
L 279.715508 83.000081 
L 279.841048 83.064223 
L 280.09213 82.695982 
L 280.594293 82.29803 
L 280.845375 82.05998 
L 280.970916 82.099338 
L 281.221997 81.885275 
L 281.473079 82.267663 
L 282.351865 81.869471 
L 282.602946 81.568219 
L 282.854028 81.333827 
L 283.105109 81.376742 
L 283.356191 81.165466 
L 283.732814 81.109838 
L 284.109436 80.870473 
L 284.486058 80.815398 
L 284.988222 80.755592 
L 285.113762 80.826383 
L 285.490385 80.565501 
L 286.369171 80.565998 
L 286.745793 80.323529 
L 286.871334 80.34628 
L 286.996875 80.227694 
L 287.122415 80.262479 
L 287.373497 80.481986 
L 287.499038 80.313121 
L 288.001201 80.3947 
L 288.252283 80.142864 
L 288.503364 80.032365 
L 289.131068 79.514736 
L 289.256609 79.702695 
L 289.507691 79.589733 
L 290.260936 79.173461 
L 290.763099 79.161919 
L 290.88864 79.141331 
L 291.265262 78.754532 
L 291.641885 78.526049 
L 292.018507 78.766581 
L 292.395129 78.605587 
L 292.771752 78.410715 
L 293.273915 78.459597 
L 293.650537 78.274746 
L 293.901619 78.210992 
L 294.529323 77.827584 
L 294.654864 76.238289 
L 294.780405 77.481246 
L 294.905946 77.502545 
L 295.157027 77.434836 
L 295.282568 77.450138 
L 295.53365 77.290343 
L 295.65919 76.73932 
L 295.910272 77.298598 
L 296.412435 77.280869 
L 296.537976 76.912321 
L 296.663517 76.961159 
L 297.040139 76.528941 
L 297.16568 76.591424 
L 297.291221 75.935777 
L 297.416762 76.382413 
L 297.542303 76.233811 
L 297.793384 76.245788 
L 298.044466 76.197861 
L 298.170007 76.107962 
L 298.421088 75.820801 
L 298.67217 75.893209 
L 298.923251 75.712509 
L 299.174333 74.88617 
L 299.299874 75.22397 
L 299.802037 74.874027 
L 300.053119 74.507235 
L 300.555282 74.218532 
L 300.680823 74.16067 
L 300.806364 72.490685 
L 300.931904 72.693158 
L 301.182986 73.692728 
L 301.434068 73.359983 
L 301.685149 73.039732 
L 301.81069 73.01961 
L 302.563935 72.190181 
L 303.191639 71.708902 
L 303.442721 69.823432 
L 303.568261 71.130058 
L 303.819343 71.251945 
L 303.944884 71.182943 
L 304.195965 71.344019 
L 305.074751 70.787071 
L 305.200292 69.246855 
L 305.325833 70.511048 
L 305.451374 70.480544 
L 305.576914 70.648847 
L 305.702455 70.498828 
L 305.827996 70.535821 
L 306.079078 70.347662 
L 306.706782 69.958357 
L 306.957863 69.998168 
L 307.208945 69.667247 
L 307.334486 68.717428 
L 307.585567 69.671504 
L 307.836649 69.688844 
L 307.96219 69.527437 
L 308.840975 69.56568 
L 308.966516 69.443353 
L 309.343139 69.529742 
L 309.845302 68.962767 
L 310.221924 68.977024 
L 310.724088 68.700609 
L 310.849628 66.918837 
L 310.975169 68.433819 
L 311.477332 68.258261 
L 311.602873 68.367415 
L 311.853955 68.153579 
L 311.979496 68.284316 
L 312.105036 68.10143 
L 312.356118 68.166992 
L 312.858281 67.904632 
L 313.109363 67.741845 
L 313.485985 67.828642 
L 313.737067 67.567402 
L 313.862608 67.505779 
L 313.988149 67.610152 
L 315.118016 67.134112 
L 315.620179 66.634589 
L 315.871261 66.478974 
L 316.373424 66.310437 
L 317.001128 65.93322 
L 317.879914 65.362324 
L 318.005455 65.582709 
L 318.256536 65.526665 
L 318.382077 65.311113 
L 318.758699 65.249216 
L 319.009781 64.914944 
L 319.135322 66.269489 
L 319.386403 64.47817 
L 319.511944 64.750106 
L 319.763026 64.585609 
L 320.014107 64.585609 
L 320.139648 62.766893 
L 320.265189 64.397725 
L 320.516271 64.339628 
L 321.395056 63.858584 
L 321.520597 63.962289 
L 322.273842 63.297361 
L 322.524924 63.262837 
L 322.776005 63.311983 
L 323.027087 63.156065 
L 323.52925 62.955472 
L 323.780332 63.031422 
L 324.282495 62.980067 
L 325.286821 62.43341 
L 325.412362 62.313562 
L 325.537903 63.481003 
L 325.663444 62.022647 
L 325.788985 61.944567 
L 326.040066 62.053331 
L 326.66777 62.121196 
L 326.918852 61.916758 
L 327.295474 61.3736 
L 327.797638 61.178201 
L 327.923179 60.969617 
L 328.801964 60.788815 
L 328.927505 61.066584 
L 329.555209 60.782611 
L 329.806291 60.77617 
L 329.931831 60.689486 
L 330.308454 60.809986 
L 330.936158 60.494773 
L 331.061699 60.586986 
L 332.317107 60.011877 
L 332.568188 59.951893 
L 332.693729 59.773199 
L 333.321433 59.710973 
L 333.572515 59.260759 
L 333.698056 59.261226 
L 334.451301 58.588933 
L 334.702382 58.53489 
L 335.079005 57.945914 
L 335.204545 58.421058 
L 335.455627 58.257495 
L 335.581168 56.878295 
L 335.95779 56.585315 
L 336.083331 57.081473 
L 336.208872 57.071202 
L 336.459954 56.768587 
L 336.585494 56.801376 
L 336.711035 56.642546 
L 337.213198 56.852091 
L 337.338739 56.767322 
L 337.589821 56.95336 
L 337.840902 56.96915 
L 337.966443 56.88193 
L 338.217525 56.916189 
L 338.468607 56.926285 
L 338.845229 56.719968 
L 339.096311 56.448913 
L 339.347392 56.378866 
L 339.598474 56.194885 
L 339.975096 56.204428 
L 340.226178 56.430287 
L 340.477259 56.254442 
L 341.104964 56.215666 
L 341.356045 56.181219 
L 341.481586 56.121981 
L 341.732668 56.182706 
L 342.736994 55.935265 
L 342.988076 55.736005 
L 343.239157 55.666706 
L 343.61578 55.241571 
L 343.741321 55.351139 
L 344.117943 55.223143 
L 344.620106 55.066235 
L 344.996729 54.571537 
L 345.24781 54.517368 
L 345.498892 54.569128 
L 345.749973 54.345103 
L 345.875514 54.358183 
L 346.252137 53.855764 
L 346.503218 53.588945 
L 347.507545 52.917789 
L 347.633086 52.928538 
L 347.884167 52.572421 
L 348.009708 52.655611 
L 348.26079 52.502231 
L 348.511871 52.494056 
L 349.014035 51.994044 
L 349.139575 53.762853 
L 349.265116 51.614516 
L 349.89282 51.484484 
L 350.143902 51.454533 
L 350.520524 51.434496 
L 350.646065 51.45078 
L 351.148228 51.146102 
L 351.273769 51.115792 
L 351.524851 50.784804 
L 351.775932 49.985147 
L 352.027014 49.640322 
L 352.278096 49.280425 
L 352.529177 49.017357 
L 353.03134 48.739042 
L 353.282422 48.612072 
L 353.533504 48.422142 
L 353.784585 48.354608 
L 353.910126 48.393825 
L 354.788912 47.927105 
L 355.291075 47.637523 
L 355.667697 47.262817 
L 355.793238 47.277836 
L 355.918779 47.13767 
L 356.295401 47.265506 
L 356.420942 47.251624 
L 356.546483 46.98517 
L 357.048646 47.174233 
L 358.052973 46.725372 
L 358.680677 46.579836 
L 359.685003 46.178354 
L 359.810544 45.931623 
L 360.187167 45.847568 
L 360.563789 45.609817 
L 361.317034 45.254848 
L 361.819197 45.286988 
L 362.572442 45.208657 
L 362.823524 45.073238 
L 363.200146 45.14213 
L 363.576768 45.151307 
L 364.455554 44.834557 
L 364.832177 44.809126 
L 365.33434 44.715011 
L 365.962044 44.743757 
L 366.213125 44.634219 
L 366.589748 44.62737 
L 367.217452 44.710367 
L 367.468534 44.769434 
L 367.719615 44.578349 
L 368.096238 44.601502 
L 368.47286 44.652327 
L 368.723942 44.483955 
L 368.849482 44.385366 
L 368.975023 44.551837 
L 369.351646 44.474805 
L 370.104891 44.2203 
L 370.607054 43.70392 
L 370.732595 43.787427 
L 370.983676 43.60091 
L 372.113543 43.178314 
L 372.364625 43.264303 
L 373.11787 43.27326 
L 373.368952 43.097493 
L 373.494492 43.096107 
L 373.745574 42.861256 
L 374.122196 42.968214 
L 374.247737 42.719058 
L 374.373278 42.75091 
L 374.7499 42.390524 
L 375.126523 42.454196 
L 375.628686 42.085435 
L 375.879768 41.735259 
L 376.25639 41.744323 
L 376.507472 41.739288 
L 376.758553 41.666115 
L 377.135176 41.818799 
L 377.386257 41.731973 
L 377.76288 41.773605 
L 378.013962 41.675495 
L 378.265043 41.710149 
L 378.641666 41.688935 
L 378.892747 41.930641 
L 379.26937 41.56929 
L 379.520451 41.518937 
L 379.645992 41.287144 
L 379.771533 41.364328 
L 380.022614 41.281746 
L 380.148155 41.346941 
L 380.273696 41.119782 
L 380.399237 41.205242 
L 380.650319 41.089716 
L 380.9014 41.049828 
L 381.403563 41.074111 
L 381.529104 40.85663 
L 382.031267 41.218885 
L 382.156808 41.052485 
L 382.282349 41.305036 
L 382.533431 40.999944 
L 382.784512 40.875323 
L 383.035594 41.124496 
L 383.286676 41.180164 
L 383.412216 40.823257 
L 383.663298 40.994386 
L 383.91438 41.005998 
L 384.291002 41.150635 
L 384.416543 40.979256 
L 384.542084 41.262361 
L 384.918706 41.228479 
L 385.044247 41.041771 
L 385.169788 41.313011 
L 385.420869 41.052174 
L 385.54641 41.200635 
L 385.797492 41.063683 
L 386.048573 41.288532 
L 386.299655 41.237491 
L 386.676277 41.399464 
L 386.927359 41.216306 
L 387.0529 41.233135 
L 387.303981 41.059747 
L 387.555063 41.252881 
L 387.680604 41.083727 
L 387.931685 41.227187 
L 388.057226 41.26578 
L 388.182767 41.098771 
L 388.55939 41.259117 
L 388.810471 40.902279 
L 388.936012 41.054591 
L 389.438175 40.831675 
L 389.563716 41.158758 
L 389.814798 41.005215 
L 391.446828 36.107273 
L 391.572369 40.883974 
L 391.69791 40.896083 
L 391.948991 40.833388 
L 392.451155 40.925708 
L 392.702236 40.663374 
L 392.827777 40.819355 
L 393.078859 40.708341 
L 393.32994 40.50551 
L 393.455481 40.412851 
L 393.581022 40.500047 
L 393.706563 40.364933 
L 393.832104 40.426485 
L 394.334267 40.100035 
L 394.961971 40.005535 
L 395.213052 40.004752 
L 395.338593 39.90582 
L 395.464134 39.949192 
L 395.840756 39.638024 
L 395.966297 39.864231 
L 396.34292 39.277858 
L 396.468461 39.469921 
L 396.719542 39.384526 
L 396.970624 39.320703 
L 397.096165 39.094752 
L 397.221705 39.45432 
L 397.97495 38.94614 
L 398.100491 39.023821 
L 398.226032 39.729545 
L 398.351573 38.942724 
L 398.602654 38.857163 
L 398.728195 38.712052 
L 398.853736 38.895227 
L 398.979277 38.785028 
L 399.230358 39.040195 
L 399.48144 38.869761 
L 399.606981 38.897069 
L 399.732522 39.058909 
L 400.109144 38.849853 
L 400.234685 39.077663 
L 400.360226 38.97083 
L 400.485766 39.102515 
L 400.611307 38.957975 
L 400.862389 39.104449 
L 401.11347 38.862629 
L 401.364552 38.553671 
L 401.615634 38.653491 
L 401.866715 38.576256 
L 402.117797 38.637409 
L 402.61996 38.50526 
L 402.871042 38.522095 
L 403.122123 38.426258 
L 403.247664 38.390318 
L 403.373205 38.180965 
L 403.624287 38.21392 
L 403.875368 38.120647 
L 404.000909 38.08632 
L 404.000909 38.08632 
" clip-path="url(#p65ddf440b3)" style="fill: none; stroke: #800080; stroke-width: 3; stroke-linecap: round"/>
   </g>
   <g id="patch_3">
    <path d="M 42.82 260.12 
L 42.82 25.44 
" style="fill: none; stroke: #ffffff; stroke-width: 0.8; stroke-linejoin: miter; stroke-linecap: square"/>
   </g>
   <g id="patch_4">
    <path d="M 421.2 260.12 
L 421.2 25.44 
" style="fill: none; stroke: #ffffff; stroke-width: 0.8; stroke-linejoin: miter; stroke-linecap: square"/>
   </g>
   <g id="patch_5">
    <path d="M 42.82 260.12 
L 421.2 260.12 
" style="fill: none; stroke: #ffffff; stroke-width: 0.8; stroke-linejoin: miter; stroke-linecap: square"/>
   </g>
   <g id="patch_6">
    <path d="M 42.82 25.44 
L 421.2 25.44 
" style="fill: none; stroke: #ffffff; stroke-width: 0.8; stroke-linejoin: miter; stroke-linecap: square"/>
   </g>
   <g id="text_17">
    <!-- Gini coefficient over time -->
    <g style="fill: #262626" transform="translate(166.42625 19.44) scale(0.12 -0.12)">
     <defs>
      <path id="ArialMT-47" d="M 2638 1797 
L 2638 2334 
L 4578 2338 
L 4578 638 
Q 4131 281 3656 101 
Q 3181 -78 2681 -78 
Q 2006 -78 1454 211 
Q 903 500 622 1047 
Q 341 1594 341 2269 
Q 341 2938 620 3517 
Q 900 4097 1425 4378 
Q 1950 4659 2634 4659 
Q 3131 4659 3532 4498 
Q 3934 4338 4162 4050 
Q 4391 3763 4509 3300 
L 3963 3150 
Q 3859 3500 3706 3700 
Q 3553 3900 3268 4020 
Q 2984 4141 2638 4141 
Q 2222 4141 1919 4014 
Q 1616 3888 1430 3681 
Q 1244 3475 1141 3228 
Q 966 2803 966 2306 
Q 966 1694 1177 1281 
Q 1388 869 1791 669 
Q 2194 469 2647 469 
Q 3041 469 3416 620 
Q 3791 772 3984 944 
L 3984 1797 
L 2638 1797 
z
" transform="scale(0.015625)"/>
      <path id="ArialMT-69" d="M 425 3934 
L 425 4581 
L 988 4581 
L 988 3934 
L 425 3934 
z
M 425 0 
L 425 3319 
L 988 3319 
L 988 0 
L 425 0 
z
" transform="scale(0.015625)"/>
      <path id="ArialMT-6e" d="M 422 0 
L 422 3319 
L 928 3319 
L 928 2847 
Q 1294 3394 1984 3394 
Q 2284 3394 2536 3286 
Q 2788 3178 2913 3003 
Q 3038 2828 3088 2588 
Q 3119 2431 3119 2041 
L 3119 0 
L 2556 0 
L 2556 2019 
Q 2556 2363 2490 2533 
Q 2425 2703 2258 2804 
Q 2091 2906 1866 2906 
Q 1506 2906 1245 2678 
Q 984 2450 984 1813 
L 984 0 
L 422 0 
z
" transform="scale(0.015625)"/>
      <path id="ArialMT-20" transform="scale(0.015625)"/>
      <path id="ArialMT-63" d="M 2588 1216 
L 3141 1144 
Q 3050 572 2676 248 
Q 2303 -75 1759 -75 
Q 1078 -75 664 370 
Q 250 816 250 1647 
Q 250 2184 428 2587 
Q 606 2991 970 3192 
Q 1334 3394 1763 3394 
Q 2303 3394 2647 3120 
Q 2991 2847 3088 2344 
L 2541 2259 
Q 2463 2594 2264 2762 
Q 2066 2931 1784 2931 
Q 1359 2931 1093 2626 
Q 828 2322 828 1663 
Q 828 994 1084 691 
Q 1341 388 1753 388 
Q 2084 388 2306 591 
Q 2528 794 2588 1216 
z
" transform="scale(0.015625)"/>
      <path id="ArialMT-6f" d="M 213 1659 
Q 213 2581 725 3025 
Q 1153 3394 1769 3394 
Q 2453 3394 2887 2945 
Q 3322 2497 3322 1706 
Q 3322 1066 3130 698 
Q 2938 331 2570 128 
Q 2203 -75 1769 -75 
Q 1072 -75 642 372 
Q 213 819 213 1659 
z
M 791 1659 
Q 791 1022 1069 705 
Q 1347 388 1769 388 
Q 2188 388 2466 706 
Q 2744 1025 2744 1678 
Q 2744 2294 2464 2611 
Q 2184 2928 1769 2928 
Q 1347 2928 1069 2612 
Q 791 2297 791 1659 
z
" transform="scale(0.015625)"/>
      <path id="ArialMT-65" d="M 2694 1069 
L 3275 997 
Q 3138 488 2766 206 
Q 2394 -75 1816 -75 
Q 1088 -75 661 373 
Q 234 822 234 1631 
Q 234 2469 665 2931 
Q 1097 3394 1784 3394 
Q 2450 3394 2872 2941 
Q 3294 2488 3294 1666 
Q 3294 1616 3291 1516 
L 816 1516 
Q 847 969 1125 678 
Q 1403 388 1819 388 
Q 2128 388 2347 550 
Q 2566 713 2694 1069 
z
M 847 1978 
L 2700 1978 
Q 2663 2397 2488 2606 
Q 2219 2931 1791 2931 
Q 1403 2931 1139 2672 
Q 875 2413 847 1978 
z
" transform="scale(0.015625)"/>
      <path id="ArialMT-66" d="M 556 0 
L 556 2881 
L 59 2881 
L 59 3319 
L 556 3319 
L 556 3672 
Q 556 4006 616 4169 
Q 697 4388 901 4523 
Q 1106 4659 1475 4659 
Q 1713 4659 2000 4603 
L 1916 4113 
Q 1741 4144 1584 4144 
Q 1328 4144 1222 4034 
Q 1116 3925 1116 3625 
L 1116 3319 
L 1763 3319 
L 1763 2881 
L 1116 2881 
L 1116 0 
L 556 0 
z
" transform="scale(0.015625)"/>
      <path id="ArialMT-74" d="M 1650 503 
L 1731 6 
Q 1494 -44 1306 -44 
Q 1000 -44 831 53 
Q 663 150 594 308 
Q 525 466 525 972 
L 525 2881 
L 113 2881 
L 113 3319 
L 525 3319 
L 525 4141 
L 1084 4478 
L 1084 3319 
L 1650 3319 
L 1650 2881 
L 1084 2881 
L 1084 941 
Q 1084 700 1114 631 
Q 1144 563 1211 522 
Q 1278 481 1403 481 
Q 1497 481 1650 503 
z
" transform="scale(0.015625)"/>
      <path id="ArialMT-76" d="M 1344 0 
L 81 3319 
L 675 3319 
L 1388 1331 
Q 1503 1009 1600 663 
Q 1675 925 1809 1294 
L 2547 3319 
L 3125 3319 
L 1869 0 
L 1344 0 
z
" transform="scale(0.015625)"/>
      <path id="ArialMT-72" d="M 416 0 
L 416 3319 
L 922 3319 
L 922 2816 
Q 1116 3169 1280 3281 
Q 1444 3394 1641 3394 
Q 1925 3394 2219 3213 
L 2025 2691 
Q 1819 2813 1613 2813 
Q 1428 2813 1281 2702 
Q 1134 2591 1072 2394 
Q 978 2094 978 1738 
L 978 0 
L 416 0 
z
" transform="scale(0.015625)"/>
      <path id="ArialMT-6d" d="M 422 0 
L 422 3319 
L 925 3319 
L 925 2853 
Q 1081 3097 1340 3245 
Q 1600 3394 1931 3394 
Q 2300 3394 2536 3241 
Q 2772 3088 2869 2813 
Q 3263 3394 3894 3394 
Q 4388 3394 4653 3120 
Q 4919 2847 4919 2278 
L 4919 0 
L 4359 0 
L 4359 2091 
Q 4359 2428 4304 2576 
Q 4250 2725 4106 2815 
Q 3963 2906 3769 2906 
Q 3419 2906 3187 2673 
Q 2956 2441 2956 1928 
L 2956 0 
L 2394 0 
L 2394 2156 
Q 2394 2531 2256 2718 
Q 2119 2906 1806 2906 
Q 1569 2906 1367 2781 
Q 1166 2656 1075 2415 
Q 984 2175 984 1722 
L 984 0 
L 422 0 
z
" transform="scale(0.015625)"/>
     </defs>
     <use xlink:href="#ArialMT-47"/>
     <use xlink:href="#ArialMT-69" x="77.783203"/>
     <use xlink:href="#ArialMT-6e" x="100"/>
     <use xlink:href="#ArialMT-69" x="155.615234"/>
     <use xlink:href="#ArialMT-20" x="177.832031"/>
     <use xlink:href="#ArialMT-63" x="205.615234"/>
     <use xlink:href="#ArialMT-6f" x="255.615234"/>
     <use xlink:href="#ArialMT-65" x="311.230469"/>
     <use xlink:href="#ArialMT-66" x="366.845703"/>
     <use xlink:href="#ArialMT-66" x="392.878906"/>
     <use xlink:href="#ArialMT-69" x="420.662109"/>
     <use xlink:href="#ArialMT-63" x="442.878906"/>
     <use xlink:href="#ArialMT-69" x="492.878906"/>
     <use xlink:href="#ArialMT-65" x="515.095703"/>
     <use xlink:href="#ArialMT-6e" x="570.710938"/>
     <use xlink:href="#ArialMT-74" x="626.326172"/>
     <use xlink:href="#ArialMT-20" x="654.109375"/>
     <use xlink:href="#ArialMT-6f" x="681.892578"/>
     <use xlink:href="#ArialMT-76" x="737.507812"/>
     <use xlink:href="#ArialMT-65" x="787.507812"/>
     <use xlink:href="#ArialMT-72" x="843.123047"/>
     <use xlink:href="#ArialMT-20" x="876.423828"/>
     <use xlink:href="#ArialMT-74" x="904.207031"/>
     <use xlink:href="#ArialMT-69" x="931.990234"/>
     <use xlink:href="#ArialMT-6d" x="954.207031"/>
     <use xlink:href="#ArialMT-65" x="1037.507812"/>
    </g>
   </g>
  </g>
 </g>
 <defs>
  <clipPath id="p65ddf440b3">
   <rect x="42.82" y="25.44" width="378.38" height="234.68"/>
  </clipPath>
 </defs>
</svg>
