<?xml version="1.0" encoding="utf-8" standalone="no"?>
<!DOCTYPE svg PUBLIC "-//W3C//DTD SVG 1.1//EN"
  "http://www.w3.org/Graphics/SVG/1.1/DTD/svg11.dtd">
<svg xmlns:xlink="http://www.w3.org/1999/xlink" width="432pt" height="432pt" viewBox="0 0 432 432" xmlns="http://www.w3.org/2000/svg" version="1.1">
 <metadata>
  <rdf:RDF xmlns:dc="http://purl.org/dc/elements/1.1/" xmlns:cc="http://creativecommons.org/ns#" xmlns:rdf="http://www.w3.org/1999/02/22-rdf-syntax-ns#">
   <cc:Work>
    <dc:type rdf:resource="http://purl.org/dc/dcmitype/StillImage"/>
    <dc:date>2024-04-12T23:32:04.272083</dc:date>
    <dc:format>image/svg+xml</dc:format>
    <dc:creator>
     <cc:Agent>
      <dc:title>Matplotlib v3.8.3, https://matplotlib.org/</dc:title>
     </cc:Agent>
    </dc:creator>
   </cc:Work>
  </rdf:RDF>
 </metadata>
 <defs>
  <style type="text/css">*{stroke-linejoin: round; stroke-linecap: butt}</style>
 </defs>
 <g id="figure_1">
  <g id="patch_1">
   <path d="M 0 432 
L 432 432 
L 432 0 
L 0 0 
z
" style="fill: #ffffff"/>
  </g>
  <g id="axes_1">
   <g id="patch_2">
    <path d="M 42.82 404.12 
L 421.2 404.12 
L 421.2 25.44 
L 42.82 25.44 
z
" style="fill: #eaeaf2"/>
   </g>
   <g id="matplotlib.axis_1">
    <g id="xtick_1">
     <g id="text_1">
      <!-- 2017 -->
      <g style="fill: #262626" transform="translate(59.069734 418.277812) scale(0.1 -0.1)">
       <defs>
        <path id="ArialMT-32" d="M 3222 541 
L 3222 0 
L 194 0 
Q 188 203 259 391 
Q 375 700 629 1000 
Q 884 1300 1366 1694 
Q 2113 2306 2375 2664 
Q 2638 3022 2638 3341 
Q 2638 3675 2398 3904 
Q 2159 4134 1775 4134 
Q 1369 4134 1125 3890 
Q 881 3647 878 3216 
L 300 3275 
Q 359 3922 746 4261 
Q 1134 4600 1788 4600 
Q 2447 4600 2831 4234 
Q 3216 3869 3216 3328 
Q 3216 3053 3103 2787 
Q 2991 2522 2730 2228 
Q 2469 1934 1863 1422 
Q 1356 997 1212 845 
Q 1069 694 975 541 
L 3222 541 
z
" transform="scale(0.015625)"/>
        <path id="ArialMT-30" d="M 266 2259 
Q 266 3072 433 3567 
Q 600 4063 929 4331 
Q 1259 4600 1759 4600 
Q 2128 4600 2406 4451 
Q 2684 4303 2865 4023 
Q 3047 3744 3150 3342 
Q 3253 2941 3253 2259 
Q 3253 1453 3087 958 
Q 2922 463 2592 192 
Q 2263 -78 1759 -78 
Q 1097 -78 719 397 
Q 266 969 266 2259 
z
M 844 2259 
Q 844 1131 1108 757 
Q 1372 384 1759 384 
Q 2147 384 2411 759 
Q 2675 1134 2675 2259 
Q 2675 3391 2411 3762 
Q 2147 4134 1753 4134 
Q 1366 4134 1134 3806 
Q 844 3388 844 2259 
z
" transform="scale(0.015625)"/>
        <path id="ArialMT-31" d="M 2384 0 
L 1822 0 
L 1822 3584 
Q 1619 3391 1289 3197 
Q 959 3003 697 2906 
L 697 3450 
Q 1169 3672 1522 3987 
Q 1875 4303 2022 4600 
L 2384 4600 
L 2384 0 
z
" transform="scale(0.015625)"/>
        <path id="ArialMT-37" d="M 303 3981 
L 303 4522 
L 3269 4522 
L 3269 4084 
Q 2831 3619 2401 2847 
Q 1972 2075 1738 1259 
Q 1569 684 1522 0 
L 944 0 
Q 953 541 1156 1306 
Q 1359 2072 1739 2783 
Q 2119 3494 2547 3981 
L 303 3981 
z
" transform="scale(0.015625)"/>
       </defs>
       <use xlink:href="#ArialMT-32"/>
       <use xlink:href="#ArialMT-30" x="55.615234"/>
       <use xlink:href="#ArialMT-31" x="111.230469"/>
       <use xlink:href="#ArialMT-37" x="166.845703"/>
      </g>
     </g>
    </g>
    <g id="xtick_2">
     <g id="text_2">
      <!-- 2018 -->
      <g style="fill: #262626" transform="translate(104.908859 418.277812) scale(0.1 -0.1)">
       <defs>
        <path id="ArialMT-38" d="M 1131 2484 
Q 781 2613 612 2850 
Q 444 3088 444 3419 
Q 444 3919 803 4259 
Q 1163 4600 1759 4600 
Q 2359 4600 2725 4251 
Q 3091 3903 3091 3403 
Q 3091 3084 2923 2848 
Q 2756 2613 2416 2484 
Q 2838 2347 3058 2040 
Q 3278 1734 3278 1309 
Q 3278 722 2862 322 
Q 2447 -78 1769 -78 
Q 1091 -78 675 323 
Q 259 725 259 1325 
Q 259 1772 486 2073 
Q 713 2375 1131 2484 
z
M 1019 3438 
Q 1019 3113 1228 2906 
Q 1438 2700 1772 2700 
Q 2097 2700 2305 2904 
Q 2513 3109 2513 3406 
Q 2513 3716 2298 3927 
Q 2084 4138 1766 4138 
Q 1444 4138 1231 3931 
Q 1019 3725 1019 3438 
z
M 838 1322 
Q 838 1081 952 856 
Q 1066 631 1291 507 
Q 1516 384 1775 384 
Q 2178 384 2440 643 
Q 2703 903 2703 1303 
Q 2703 1709 2433 1975 
Q 2163 2241 1756 2241 
Q 1359 2241 1098 1978 
Q 838 1716 838 1322 
z
" transform="scale(0.015625)"/>
       </defs>
       <use xlink:href="#ArialMT-32"/>
       <use xlink:href="#ArialMT-30" x="55.615234"/>
       <use xlink:href="#ArialMT-31" x="111.230469"/>
       <use xlink:href="#ArialMT-38" x="166.845703"/>
      </g>
     </g>
    </g>
    <g id="xtick_3">
     <g id="text_3">
      <!-- 2019 -->
      <g style="fill: #262626" transform="translate(150.747984 418.277812) scale(0.1 -0.1)">
       <defs>
        <path id="ArialMT-39" d="M 350 1059 
L 891 1109 
Q 959 728 1153 556 
Q 1347 384 1650 384 
Q 1909 384 2104 503 
Q 2300 622 2425 820 
Q 2550 1019 2634 1356 
Q 2719 1694 2719 2044 
Q 2719 2081 2716 2156 
Q 2547 1888 2255 1720 
Q 1963 1553 1622 1553 
Q 1053 1553 659 1965 
Q 266 2378 266 3053 
Q 266 3750 677 4175 
Q 1088 4600 1706 4600 
Q 2153 4600 2523 4359 
Q 2894 4119 3086 3673 
Q 3278 3228 3278 2384 
Q 3278 1506 3087 986 
Q 2897 466 2520 194 
Q 2144 -78 1638 -78 
Q 1100 -78 759 220 
Q 419 519 350 1059 
z
M 2653 3081 
Q 2653 3566 2395 3850 
Q 2138 4134 1775 4134 
Q 1400 4134 1122 3828 
Q 844 3522 844 3034 
Q 844 2597 1108 2323 
Q 1372 2050 1759 2050 
Q 2150 2050 2401 2323 
Q 2653 2597 2653 3081 
z
" transform="scale(0.015625)"/>
       </defs>
       <use xlink:href="#ArialMT-32"/>
       <use xlink:href="#ArialMT-30" x="55.615234"/>
       <use xlink:href="#ArialMT-31" x="111.230469"/>
       <use xlink:href="#ArialMT-39" x="166.845703"/>
      </g>
     </g>
    </g>
    <g id="xtick_4">
     <g id="text_4">
      <!-- 2020 -->
      <g style="fill: #262626" transform="translate(196.587109 418.277812) scale(0.1 -0.1)">
       <use xlink:href="#ArialMT-32"/>
       <use xlink:href="#ArialMT-30" x="55.615234"/>
       <use xlink:href="#ArialMT-32" x="111.230469"/>
       <use xlink:href="#ArialMT-30" x="166.845703"/>
      </g>
     </g>
    </g>
    <g id="xtick_5">
     <g id="text_5">
      <!-- 2021 -->
      <g style="fill: #262626" transform="translate(242.551821 418.277812) scale(0.1 -0.1)">
       <use xlink:href="#ArialMT-32"/>
       <use xlink:href="#ArialMT-30" x="55.615234"/>
       <use xlink:href="#ArialMT-32" x="111.230469"/>
       <use xlink:href="#ArialMT-31" x="166.845703"/>
      </g>
     </g>
    </g>
    <g id="xtick_6">
     <g id="text_6">
      <!-- 2022 -->
      <g style="fill: #262626" transform="translate(288.390946 418.277812) scale(0.1 -0.1)">
       <use xlink:href="#ArialMT-32"/>
       <use xlink:href="#ArialMT-30" x="55.615234"/>
       <use xlink:href="#ArialMT-32" x="111.230469"/>
       <use xlink:href="#ArialMT-32" x="166.845703"/>
      </g>
     </g>
    </g>
    <g id="xtick_7">
     <g id="text_7">
      <!-- 2023 -->
      <g style="fill: #262626" transform="translate(334.230071 418.277812) scale(0.1 -0.1)">
       <defs>
        <path id="ArialMT-33" d="M 269 1209 
L 831 1284 
Q 928 806 1161 595 
Q 1394 384 1728 384 
Q 2125 384 2398 659 
Q 2672 934 2672 1341 
Q 2672 1728 2419 1979 
Q 2166 2231 1775 2231 
Q 1616 2231 1378 2169 
L 1441 2663 
Q 1497 2656 1531 2656 
Q 1891 2656 2178 2843 
Q 2466 3031 2466 3422 
Q 2466 3731 2256 3934 
Q 2047 4138 1716 4138 
Q 1388 4138 1169 3931 
Q 950 3725 888 3313 
L 325 3413 
Q 428 3978 793 4289 
Q 1159 4600 1703 4600 
Q 2078 4600 2393 4439 
Q 2709 4278 2876 4000 
Q 3044 3722 3044 3409 
Q 3044 3113 2884 2869 
Q 2725 2625 2413 2481 
Q 2819 2388 3044 2092 
Q 3269 1797 3269 1353 
Q 3269 753 2831 336 
Q 2394 -81 1725 -81 
Q 1122 -81 723 278 
Q 325 638 269 1209 
z
" transform="scale(0.015625)"/>
       </defs>
       <use xlink:href="#ArialMT-32"/>
       <use xlink:href="#ArialMT-30" x="55.615234"/>
       <use xlink:href="#ArialMT-32" x="111.230469"/>
       <use xlink:href="#ArialMT-33" x="166.845703"/>
      </g>
     </g>
    </g>
    <g id="xtick_8">
     <g id="text_8">
      <!-- 2024 -->
      <g style="fill: #262626" transform="translate(380.069196 418.277812) scale(0.1 -0.1)">
       <defs>
        <path id="ArialMT-34" d="M 2069 0 
L 2069 1097 
L 81 1097 
L 81 1613 
L 2172 4581 
L 2631 4581 
L 2631 1613 
L 3250 1613 
L 3250 1097 
L 2631 1097 
L 2631 0 
L 2069 0 
z
M 2069 1613 
L 2069 3678 
L 634 1613 
L 2069 1613 
z
" transform="scale(0.015625)"/>
       </defs>
       <use xlink:href="#ArialMT-32"/>
       <use xlink:href="#ArialMT-30" x="55.615234"/>
       <use xlink:href="#ArialMT-32" x="111.230469"/>
       <use xlink:href="#ArialMT-34" x="166.845703"/>
      </g>
     </g>
    </g>
   </g>
   <g id="matplotlib.axis_2">
    <g id="ytick_1">
     <g id="text_9">
      <!-- 0.800 -->
      <g style="fill: #262626" transform="translate(10.798125 407.327932) scale(0.1 -0.1)">
       <defs>
        <path id="ArialMT-2e" d="M 581 0 
L 581 641 
L 1222 641 
L 1222 0 
L 581 0 
z
" transform="scale(0.015625)"/>
       </defs>
       <use xlink:href="#ArialMT-30"/>
       <use xlink:href="#ArialMT-2e" x="55.615234"/>
       <use xlink:href="#ArialMT-38" x="83.398438"/>
       <use xlink:href="#ArialMT-30" x="139.013672"/>
       <use xlink:href="#ArialMT-30" x="194.628906"/>
      </g>
     </g>
    </g>
    <g id="ytick_2">
     <g id="text_10">
      <!-- 0.805 -->
      <g style="fill: #262626" transform="translate(10.798125 357.242975) scale(0.1 -0.1)">
       <defs>
        <path id="ArialMT-35" d="M 266 1200 
L 856 1250 
Q 922 819 1161 601 
Q 1400 384 1738 384 
Q 2144 384 2425 690 
Q 2706 997 2706 1503 
Q 2706 1984 2436 2262 
Q 2166 2541 1728 2541 
Q 1456 2541 1237 2417 
Q 1019 2294 894 2097 
L 366 2166 
L 809 4519 
L 3088 4519 
L 3088 3981 
L 1259 3981 
L 1013 2750 
Q 1425 3038 1878 3038 
Q 2478 3038 2890 2622 
Q 3303 2206 3303 1553 
Q 3303 931 2941 478 
Q 2500 -78 1738 -78 
Q 1113 -78 717 272 
Q 322 622 266 1200 
z
" transform="scale(0.015625)"/>
       </defs>
       <use xlink:href="#ArialMT-30"/>
       <use xlink:href="#ArialMT-2e" x="55.615234"/>
       <use xlink:href="#ArialMT-38" x="83.398438"/>
       <use xlink:href="#ArialMT-30" x="139.013672"/>
       <use xlink:href="#ArialMT-35" x="194.628906"/>
      </g>
     </g>
    </g>
    <g id="ytick_3">
     <g id="text_11">
      <!-- 0.810 -->
      <g style="fill: #262626" transform="translate(10.798125 307.158019) scale(0.1 -0.1)">
       <use xlink:href="#ArialMT-30"/>
       <use xlink:href="#ArialMT-2e" x="55.615234"/>
       <use xlink:href="#ArialMT-38" x="83.398438"/>
       <use xlink:href="#ArialMT-31" x="139.013672"/>
       <use xlink:href="#ArialMT-30" x="194.628906"/>
      </g>
     </g>
    </g>
    <g id="ytick_4">
     <g id="text_12">
      <!-- 0.815 -->
      <g style="fill: #262626" transform="translate(10.798125 257.073062) scale(0.1 -0.1)">
       <use xlink:href="#ArialMT-30"/>
       <use xlink:href="#ArialMT-2e" x="55.615234"/>
       <use xlink:href="#ArialMT-38" x="83.398438"/>
       <use xlink:href="#ArialMT-31" x="139.013672"/>
       <use xlink:href="#ArialMT-35" x="194.628906"/>
      </g>
     </g>
    </g>
    <g id="ytick_5">
     <g id="text_13">
      <!-- 0.820 -->
      <g style="fill: #262626" transform="translate(10.798125 206.988106) scale(0.1 -0.1)">
       <use xlink:href="#ArialMT-30"/>
       <use xlink:href="#ArialMT-2e" x="55.615234"/>
       <use xlink:href="#ArialMT-38" x="83.398438"/>
       <use xlink:href="#ArialMT-32" x="139.013672"/>
       <use xlink:href="#ArialMT-30" x="194.628906"/>
      </g>
     </g>
    </g>
    <g id="ytick_6">
     <g id="text_14">
      <!-- 0.825 -->
      <g style="fill: #262626" transform="translate(10.798125 156.903149) scale(0.1 -0.1)">
       <use xlink:href="#ArialMT-30"/>
       <use xlink:href="#ArialMT-2e" x="55.615234"/>
       <use xlink:href="#ArialMT-38" x="83.398438"/>
       <use xlink:href="#ArialMT-32" x="139.013672"/>
       <use xlink:href="#ArialMT-35" x="194.628906"/>
      </g>
     </g>
    </g>
    <g id="ytick_7">
     <g id="text_15">
      <!-- 0.830 -->
      <g style="fill: #262626" transform="translate(10.798125 106.818193) scale(0.1 -0.1)">
       <use xlink:href="#ArialMT-30"/>
       <use xlink:href="#ArialMT-2e" x="55.615234"/>
       <use xlink:href="#ArialMT-38" x="83.398438"/>
       <use xlink:href="#ArialMT-33" x="139.013672"/>
       <use xlink:href="#ArialMT-30" x="194.628906"/>
      </g>
     </g>
    </g>
    <g id="ytick_8">
     <g id="text_16">
      <!-- 0.835 -->
      <g style="fill: #262626" transform="translate(10.798125 56.733236) scale(0.1 -0.1)">
       <use xlink:href="#ArialMT-30"/>
       <use xlink:href="#ArialMT-2e" x="55.615234"/>
       <use xlink:href="#ArialMT-38" x="83.398438"/>
       <use xlink:href="#ArialMT-33" x="139.013672"/>
       <use xlink:href="#ArialMT-35" x="194.628906"/>
      </g>
     </g>
    </g>
   </g>
   <g id="PolyCollection_1"/>
   <g id="line2d_1">
    <path d="M 60.019091 386.907273 
L 60.521437 385.80752 
L 60.772611 385.566444 
L 61.023784 383.518658 
L 61.149371 383.20115 
L 61.274957 382.47011 
L 61.777304 383.027217 
L 61.902891 382.806571 
L 62.154064 382.225026 
L 63.284344 380.734942 
L 63.40993 381.011456 
L 63.661104 380.495217 
L 63.912277 380.38697 
L 64.289037 379.978221 
L 64.414623 379.978221 
L 64.665797 379.37456 
L 64.791383 379.205004 
L 64.91697 378.832907 
L 65.042557 378.883037 
L 65.168143 379.199919 
L 65.419317 378.560372 
L 65.796077 377.683595 
L 65.921663 377.570472 
L 66.04725 377.637641 
L 66.298423 376.486745 
L 66.42401 376.485434 
L 66.549596 376.370148 
L 66.675183 376.430701 
L 67.55429 374.511474 
L 67.679876 374.637432 
L 68.182223 373.878776 
L 68.433396 374.03185 
L 68.558983 374.03185 
L 68.684569 373.567714 
L 68.810156 373.572039 
L 69.061329 372.684059 
L 69.186916 372.753885 
L 69.438089 372.168636 
L 69.689263 372.213655 
L 69.814849 371.43589 
L 69.940436 371.480392 
L 70.191609 371.246574 
L 70.317196 370.969765 
L 70.945129 368.057014 
L 71.070716 368.057014 
L 71.321889 367.165965 
L 71.447476 367.165965 
L 71.949822 365.920841 
L 72.075409 365.833479 
L 72.452169 364.661488 
L 72.577755 364.453346 
L 72.703342 362.558049 
L 72.828929 362.475445 
L 72.954515 362.634765 
L 73.331275 361.72277 
L 73.582448 360.840794 
L 73.833622 360.489081 
L 73.959208 360.684219 
L 74.084795 360.365649 
L 74.210382 361.406906 
L 74.335968 361.084426 
L 74.587142 360.103099 
L 74.712728 359.721334 
L 74.838315 360.090794 
L 75.340661 359.19389 
L 75.843008 359.0266 
L 76.094181 358.449343 
L 76.219768 358.477617 
L 76.470941 357.698478 
L 76.596528 357.834147 
L 76.847701 357.252122 
L 76.973288 357.231278 
L 77.098875 356.923141 
L 77.224461 357.064542 
L 77.350048 356.628691 
L 77.475634 357.368188 
L 77.601221 357.115714 
L 77.726808 357.115714 
L 77.977981 355.037853 
L 78.229154 354.690336 
L 78.605914 353.718381 
L 78.857088 353.021253 
L 78.982674 352.331661 
L 79.108261 352.342316 
L 79.485021 351.533074 
L 79.736194 351.060369 
L 80.238541 350.076898 
L 80.364127 350.007553 
L 81.494407 347.530326 
L 81.619994 347.496773 
L 81.74558 347.265288 
L 81.996754 346.582152 
L 82.12234 346.251446 
L 82.247927 346.251446 
L 82.373514 345.634776 
L 82.4991 345.605669 
L 83.127033 343.799121 
L 83.25262 343.773096 
L 83.378207 343.496447 
L 83.503793 343.698315 
L 84.508487 340.12046 
L 84.634073 340.016638 
L 85.387593 338.639485 
L 85.51318 338.673531 
L 85.638766 338.406871 
L 85.88994 337.68379 
L 86.141113 337.199978 
L 86.392286 337.103068 
L 86.643459 336.216259 
L 86.894633 335.82234 
L 87.145806 335.758666 
L 87.271393 335.670515 
L 87.522566 335.15226 
L 87.648153 335.15226 
L 87.899326 334.882431 
L 88.150499 334.882431 
L 88.276086 333.971577 
L 88.401672 334.415765 
L 88.652846 334.359393 
L 88.904019 334.012593 
L 89.029606 334.096486 
L 89.280779 333.963195 
L 89.783126 332.51761 
L 90.285472 331.686277 
L 90.536645 331.162453 
L 90.662232 330.908252 
L 90.787819 331.038544 
L 91.164579 330.204289 
L 91.415752 329.942791 
L 91.792512 328.763528 
L 91.918099 328.775031 
L 92.043685 328.248347 
L 92.169272 328.264661 
L 92.671618 327.375807 
L 92.922792 327.292933 
L 93.048378 328.774619 
L 93.173965 327.051675 
L 93.550725 326.53025 
L 94.053071 325.562714 
L 94.178658 325.602834 
L 94.555418 324.253538 
L 95.057765 323.597857 
L 95.685698 322.681556 
L 95.811284 322.6314 
L 96.690391 320.243924 
L 96.815978 320.005876 
L 96.941564 319.282113 
L 97.067151 319.374833 
L 97.318324 319.164611 
L 97.820671 318.384712 
L 97.946257 318.441057 
L 98.197431 317.892561 
L 98.323017 318.043534 
L 98.574191 317.510258 
L 98.699777 317.451737 
L 98.825364 317.199976 
L 99.202124 315.852062 
L 99.327711 315.979053 
L 99.70447 315.165627 
L 99.955644 314.11709 
L 100.45799 313.214999 
L 100.709164 313.477085 
L 100.83475 313.220437 
L 100.960337 313.251772 
L 101.085924 311.962854 
L 101.337097 313.009622 
L 101.462683 312.676589 
L 101.713857 312.684276 
L 102.090617 311.715751 
L 102.34179 311.602561 
L 102.467377 311.286999 
L 102.592963 311.286999 
L 102.71855 310.796432 
L 102.844137 310.843996 
L 102.969723 310.632209 
L 103.220896 309.728344 
L 104.351176 308.292964 
L 104.476763 307.83962 
L 104.60235 308.181216 
L 104.727936 308.048418 
L 105.104696 307.310977 
L 105.230283 307.270602 
L 105.607043 306.504792 
L 106.109389 305.030644 
L 106.486149 304.485711 
L 106.737323 303.056112 
L 106.988496 302.421367 
L 107.490842 301.572302 
L 107.742016 301.5301 
L 107.867602 301.236501 
L 107.993189 301.517577 
L 108.118776 301.276238 
L 108.369949 300.031164 
L 108.495536 302.294332 
L 108.621122 299.127451 
L 109.249055 298.992145 
L 109.625815 298.034844 
L 109.876989 297.187363 
L 110.002575 298.220433 
L 110.379335 297.380875 
L 110.504922 297.666469 
L 110.630508 297.094056 
L 110.881682 297.257785 
L 111.509615 295.113865 
L 111.635202 295.266181 
L 111.886375 295.114184 
L 112.011962 295.114184 
L 112.137548 294.174855 
L 112.263135 294.174855 
L 112.639895 293.840929 
L 112.891068 293.820972 
L 113.267828 293.085789 
L 113.644588 293.138287 
L 114.021348 292.599912 
L 114.272521 292.565489 
L 114.398108 292.565489 
L 114.649281 292.288639 
L 114.774868 292.166818 
L 115.026041 292.503468 
L 115.151628 292.355196 
L 115.277214 292.508234 
L 115.402801 292.453144 
L 115.653974 291.871541 
L 116.030734 290.169584 
L 116.156321 290.47597 
L 116.407494 289.310227 
L 116.533081 289.088832 
L 116.784254 290.087128 
L 116.909841 289.909698 
L 117.161014 288.409214 
L 117.663361 286.935609 
L 117.788947 286.782393 
L 117.914534 286.095216 
L 118.668054 284.340456 
L 118.79364 284.272743 
L 119.044814 283.722217 
L 119.1704 283.722217 
L 119.295987 283.063473 
L 119.421574 283.075578 
L 119.92392 281.141179 
L 120.049507 281.141179 
L 120.426267 280.361398 
L 120.551853 280.35303 
L 121.0542 279.743828 
L 121.179787 280.527319 
L 121.305373 280.462357 
L 121.556547 279.597886 
L 122.058893 278.189913 
L 122.18448 278.264852 
L 122.435653 278.02043 
L 122.56124 278.02043 
L 122.812413 277.383088 
L 123.063586 277.443289 
L 123.942693 275.628334 
L 124.193866 275.628334 
L 124.319453 274.824238 
L 124.570626 274.806908 
L 124.821799 274.610067 
L 124.947386 274.796046 
L 125.324146 274.398685 
L 125.449732 274.313987 
L 125.575319 274.505715 
L 126.328839 273.605628 
L 126.580012 273.343373 
L 126.705599 273.655385 
L 126.831186 273.479073 
L 126.956772 273.101866 
L 127.082359 273.147981 
L 127.333532 272.499163 
L 127.459119 272.264086 
L 127.584705 272.510766 
L 127.710292 272.302885 
L 127.835879 269.493451 
L 127.961465 271.60018 
L 128.212639 271.566733 
L 128.338225 271.722464 
L 128.589399 272.511175 
L 129.091745 272.167453 
L 129.217332 272.285122 
L 129.468505 271.421383 
L 129.845265 270.842823 
L 129.970852 270.78182 
L 130.096438 271.161705 
L 130.222025 271.127278 
L 130.347612 270.277104 
L 130.473198 270.456994 
L 130.724372 269.769651 
L 130.849958 269.728916 
L 131.101131 269.080599 
L 131.226718 267.919597 
L 131.352305 268.522825 
L 131.477891 268.388633 
L 131.729065 267.99325 
L 131.980238 267.990933 
L 132.105825 267.879004 
L 132.231411 267.483002 
L 132.356998 267.483002 
L 132.608171 266.877533 
L 132.733758 266.687893 
L 133.361691 266.453929 
L 133.487278 266.282083 
L 133.864038 266.505776 
L 133.989624 266.566705 
L 135.119904 263.672573 
L 135.245491 263.658086 
L 135.496664 262.962769 
L 135.747837 262.2319 
L 136.124597 262.161691 
L 136.250184 262.091803 
L 136.501357 261.764495 
L 137.003704 261.119983 
L 137.254877 260.979646 
L 137.50605 260.324732 
L 137.631637 260.324732 
L 137.757224 261.126885 
L 138.008397 261.012594 
L 138.133984 261.012594 
L 138.510743 260.447636 
L 138.63633 260.357832 
L 138.761917 260.411154 
L 139.01309 260.63872 
L 139.515437 259.723943 
L 139.641023 259.71316 
L 139.892197 259.155415 
L 140.017783 259.155415 
L 140.14337 258.854449 
L 140.268956 258.854449 
L 140.394543 258.303551 
L 140.771303 258.134483 
L 141.148063 257.923204 
L 141.27365 257.923204 
L 141.399236 258.051978 
L 141.524823 257.843618 
L 141.775996 257.254592 
L 141.901583 257.306697 
L 142.02717 256.5534 
L 142.152756 256.895912 
L 142.403929 256.654719 
L 142.529516 256.654719 
L 143.283036 255.726862 
L 143.534209 255.807848 
L 143.659796 255.829147 
L 144.162142 254.932882 
L 144.287729 255.02995 
L 144.790076 255.03149 
L 144.915662 253.57127 
L 145.166836 253.639315 
L 145.543596 252.635687 
L 145.669182 252.751729 
L 146.422702 251.847289 
L 146.673875 251.355473 
L 146.799462 251.1833 
L 146.925049 251.202607 
L 147.176222 251.037388 
L 147.552982 250.827432 
L 147.929742 250.346284 
L 148.432088 249.994176 
L 148.557675 249.806336 
L 148.683262 249.967988 
L 148.934435 249.709676 
L 149.060022 248.659019 
L 149.185608 249.381055 
L 149.311195 249.307203 
L 149.687955 248.47745 
L 149.939128 248.54947 
L 150.190301 248.552584 
L 150.315888 248.376452 
L 150.441475 241.823661 
L 150.567061 248.631102 
L 150.818235 248.18913 
L 151.446168 248.346601 
L 151.571754 248.135828 
L 151.697341 248.333536 
L 152.074101 247.875512 
L 152.325274 247.401768 
L 152.450861 250.117743 
L 152.576448 246.561236 
L 152.702034 246.822896 
L 152.827621 244.971157 
L 152.953208 246.637751 
L 153.078794 246.57062 
L 153.204381 246.735875 
L 153.329967 244.862385 
L 153.455554 245.519617 
L 153.581141 243.022351 
L 153.706727 245.616588 
L 153.832314 244.227409 
L 153.957901 246.486081 
L 154.209074 243.655642 
L 154.585834 242.868008 
L 154.837007 241.222498 
L 154.962594 240.855073 
L 155.08818 237.60571 
L 155.213767 239.567823 
L 155.339354 239.725533 
L 155.46494 239.406483 
L 155.590527 239.44464 
L 155.716114 239.360512 
L 155.8417 239.563862 
L 156.092874 239.514993 
L 156.21846 239.677721 
L 156.344047 238.677696 
L 156.59522 238.247418 
L 156.846394 238.661764 
L 156.97198 238.504952 
L 157.097567 237.191465 
L 157.223153 237.162795 
L 157.34874 236.97505 
L 157.599913 236.205078 
L 158.10226 235.865203 
L 158.730193 235.857765 
L 158.85578 235.863625 
L 159.106953 235.686701 
L 159.23254 235.879133 
L 159.734886 235.591284 
L 160.237233 234.801741 
L 160.488406 234.959722 
L 160.613993 234.823772 
L 160.739579 234.936974 
L 161.116339 234.687207 
L 161.367513 234.583876 
L 161.618686 234.04847 
L 161.744273 234.130519 
L 161.869859 234.007801 
L 161.995446 233.711185 
L 162.246619 233.766111 
L 163.000139 233.121241 
L 163.251312 232.522234 
L 163.376899 232.522981 
L 163.628072 232.403913 
L 164.632765 231.860981 
L 164.758352 231.926106 
L 164.883939 231.762653 
L 165.260699 230.743534 
L 165.763045 229.814664 
L 165.888632 225.917336 
L 166.014219 229.575374 
L 166.516565 228.811715 
L 166.642152 228.972279 
L 166.893325 228.49425 
L 167.144498 228.479868 
L 167.270085 228.159014 
L 167.772432 228.115716 
L 168.149191 227.496397 
L 168.274778 227.062757 
L 168.525951 226.904009 
L 168.777125 226.599382 
L 169.153885 225.540222 
L 170.032991 224.36576 
L 170.158578 224.356574 
L 170.409751 223.964155 
L 170.535338 223.925627 
L 170.660924 223.629219 
L 170.912098 223.565101 
L 171.163271 223.514837 
L 171.288858 223.284656 
L 171.665618 223.540705 
L 171.916791 223.070849 
L 172.042377 223.00054 
L 172.167964 223.067545 
L 172.419137 222.75448 
L 172.544724 222.859522 
L 173.172657 222.628569 
L 173.423831 222.138503 
L 173.549417 222.050815 
L 173.675004 221.75611 
L 173.926177 220.163886 
L 174.55411 220.201477 
L 174.805284 219.697483 
L 174.93087 219.72286 
L 175.056457 219.604391 
L 175.30763 219.033243 
L 175.433217 219.168329 
L 175.68439 218.932848 
L 175.809977 218.388446 
L 175.935563 218.39996 
L 176.06115 218.226812 
L 176.186737 218.280185 
L 176.312323 217.956542 
L 176.43791 217.942603 
L 176.689083 217.395623 
L 176.81467 217.514973 
L 177.19143 217.206974 
L 177.56819 216.16524 
L 177.693776 216.237979 
L 177.94495 216.111681 
L 178.32171 215.973814 
L 178.572883 215.655211 
L 178.69847 215.752723 
L 178.949643 215.698671 
L 179.07523 215.275596 
L 179.200816 215.307371 
L 179.326403 215.173673 
L 179.451989 215.30552 
L 179.577576 215.255554 
L 179.703163 214.914237 
L 180.205509 214.922645 
L 180.456683 214.487716 
L 180.582269 214.558812 
L 180.707856 214.45478 
L 180.833443 214.501241 
L 181.210202 213.901507 
L 181.335789 213.96498 
L 181.586962 213.78858 
L 181.838136 213.955109 
L 181.963722 213.960644 
L 182.214896 214.089022 
L 182.466069 213.697499 
L 182.717242 213.532422 
L 182.968415 213.308813 
L 183.345175 213.031452 
L 183.470762 212.890753 
L 183.596349 212.922093 
L 183.973109 212.55427 
L 184.349869 211.962696 
L 184.475455 211.916592 
L 184.852215 211.531892 
L 185.228975 211.44206 
L 185.480148 211.014516 
L 185.605735 210.966627 
L 185.982495 210.022403 
L 186.108082 210.260508 
L 186.233668 210.025623 
L 186.484842 209.448471 
L 186.610428 209.38344 
L 186.861601 208.98229 
L 187.238361 208.341668 
L 187.489535 207.931113 
L 187.615121 207.540311 
L 187.740708 207.55651 
L 188.117468 206.872912 
L 188.243055 206.791357 
L 188.368641 206.478012 
L 188.619814 206.4416 
L 188.745401 205.678464 
L 188.870988 205.644468 
L 189.247748 205.043197 
L 189.373334 204.90224 
L 189.875681 203.881053 
L 190.378027 202.824342 
L 190.880374 201.726713 
L 191.005961 201.179629 
L 191.257134 201.447341 
L 191.382721 201.136086 
L 191.633894 201.168143 
L 192.010654 200.235526 
L 192.13624 200.346127 
L 192.261827 200.286063 
L 192.638587 199.776502 
L 193.015347 199.591915 
L 193.64328 199.963508 
L 193.768867 199.642495 
L 193.894454 199.628217 
L 194.02004 199.216816 
L 194.145627 199.322193 
L 194.522387 198.749143 
L 194.647973 198.62815 
L 194.77356 198.75884 
L 195.15032 198.355085 
L 195.275907 198.557461 
L 195.52708 197.756687 
L 195.778253 197.723164 
L 196.029426 197.626052 
L 196.155013 197.428415 
L 196.2806 197.504114 
L 196.531773 197.232141 
L 196.65736 197.311161 
L 196.908533 197.06574 
L 197.03412 197.069395 
L 197.159706 197.37891 
L 197.913226 196.535461 
L 198.164399 195.980822 
L 198.415573 195.722897 
L 198.541159 195.767651 
L 198.792333 195.305562 
L 199.294679 194.120887 
L 199.671439 193.190817 
L 199.797026 193.263632 
L 199.922612 192.931374 
L 200.299372 193.14071 
L 200.424959 192.830106 
L 200.550546 193.035309 
L 201.052892 192.123313 
L 201.178479 192.161118 
L 201.304066 191.754049 
L 201.429652 191.930635 
L 201.806412 191.39187 
L 202.434345 191.874146 
L 202.685519 191.626263 
L 202.936692 191.59754 
L 203.439038 190.487343 
L 203.690212 190.407411 
L 203.941385 190.122756 
L 204.192558 190.169666 
L 204.569318 189.533882 
L 205.448425 189.203037 
L 205.825185 189.007966 
L 206.327531 188.119549 
L 206.453118 188.269466 
L 206.829878 187.322386 
L 206.955465 187.382848 
L 207.081051 187.211164 
L 207.332224 186.483192 
L 207.583398 186.530518 
L 207.708984 186.438217 
L 207.960158 185.724533 
L 208.211331 185.710004 
L 208.336918 185.696344 
L 208.713678 184.85113 
L 209.216024 184.526988 
L 209.467197 183.820492 
L 209.592784 183.898007 
L 209.843957 183.236865 
L 209.969544 183.242638 
L 210.220717 182.991271 
L 210.597477 182.407609 
L 211.22541 181.467618 
L 211.350997 181.545901 
L 211.476584 181.175756 
L 211.60217 181.175869 
L 211.727757 180.743222 
L 211.853344 181.018084 
L 212.104517 180.905003 
L 212.35569 180.404101 
L 213.10921 179.528437 
L 213.234797 179.070881 
L 213.360383 179.125713 
L 214.23949 177.785225 
L 214.365077 177.419711 
L 214.490663 177.533619 
L 214.741836 177.282664 
L 215.244183 175.555924 
L 215.495356 175.294735 
L 215.620943 175.700117 
L 215.872116 175.197261 
L 215.997703 175.214623 
L 216.248876 174.709663 
L 216.500049 174.722643 
L 217.002396 174.275863 
L 217.127983 174.371738 
L 217.504743 174.16292 
L 217.881503 174.133756 
L 218.258262 174.265785 
L 218.509436 174.052021 
L 218.635022 174.059314 
L 219.011782 173.356887 
L 219.262956 173.337607 
L 220.016475 172.301739 
L 220.267649 171.686514 
L 220.393235 171.848475 
L 220.518822 171.803166 
L 220.769995 171.450815 
L 220.895582 171.451771 
L 221.649102 170.280542 
L 221.774689 170.172206 
L 222.151448 169.294405 
L 222.277035 169.291658 
L 222.402622 169.114166 
L 222.528208 168.614468 
L 222.653795 168.707826 
L 224.286421 166.636776 
L 224.663181 165.144847 
L 224.788768 165.169331 
L 224.914355 164.849259 
L 225.165528 164.851205 
L 225.667874 164.170769 
L 225.793461 164.173136 
L 225.919048 164.025216 
L 226.672568 162.010926 
L 226.798154 161.989602 
L 227.049328 161.415479 
L 227.174914 161.312899 
L 227.300501 160.677201 
L 227.928434 160.406016 
L 228.054021 160.364597 
L 230.31458 157.067427 
L 230.440167 157.052014 
L 230.69134 156.702943 
L 230.816927 156.738167 
L 231.696033 156.043792 
L 231.82162 155.787707 
L 232.19838 155.734323 
L 232.57514 154.815464 
L 233.077486 154.129517 
L 234.08218 152.554138 
L 234.207766 152.57448 
L 234.333353 152.275555 
L 234.45894 152.371138 
L 234.961286 150.69102 
L 235.212459 150.61073 
L 235.463633 150.673285 
L 235.714806 150.836112 
L 236.091566 150.400615 
L 236.217153 150.39124 
L 236.719499 149.652056 
L 236.970672 149.135838 
L 237.221846 148.985792 
L 237.598606 148.586108 
L 237.975366 147.829174 
L 238.226539 147.717183 
L 238.728885 146.927219 
L 238.854472 146.872651 
L 239.231232 146.330681 
L 239.482405 146.038211 
L 239.733579 145.363816 
L 240.110339 145.137627 
L 240.235925 145.172285 
L 240.487098 144.983942 
L 240.863858 144.577264 
L 240.989445 144.619182 
L 241.115032 144.495584 
L 241.240618 144.55877 
L 241.491792 144.350719 
L 241.868552 144.064487 
L 241.994138 144.266469 
L 242.119725 144.219287 
L 242.998831 142.883259 
L 243.124418 142.80152 
L 243.250005 142.930912 
L 243.375591 142.743267 
L 243.501178 142.843976 
L 243.626765 142.784605 
L 243.752351 142.539613 
L 244.254698 142.505852 
L 244.505871 142.089314 
L 244.631458 142.08516 
L 245.008218 141.161924 
L 245.259391 141.102054 
L 245.384978 141.215617 
L 246.138497 140.37506 
L 246.640844 140.735228 
L 246.892017 140.33894 
L 247.017604 140.388857 
L 247.268777 140.170632 
L 247.394364 140.325846 
L 247.519951 140.20324 
L 247.645537 139.664135 
L 247.89671 139.70856 
L 248.27347 139.182175 
L 248.399057 139.365748 
L 248.524644 139.091605 
L 248.775817 139.146793 
L 249.02699 138.564702 
L 249.278164 138.607558 
L 249.40375 138.243371 
L 249.529337 138.295341 
L 249.654923 138.018519 
L 249.78051 138.054584 
L 250.282857 137.578182 
L 250.53403 137.400112 
L 250.91079 137.528544 
L 251.161963 137.688984 
L 251.28755 137.854847 
L 251.66431 137.60495 
L 251.789896 137.489013 
L 252.04107 137.094478 
L 252.166656 137.247856 
L 252.669003 136.683469 
L 252.79459 136.679047 
L 253.296936 136.299468 
L 253.422523 136.243046 
L 253.548109 136.543918 
L 253.673696 136.391504 
L 253.799283 136.529555 
L 253.924869 136.1624 
L 254.176043 136.689163 
L 254.929563 135.238737 
L 255.180736 135.018188 
L 255.306322 132.267428 
L 255.431909 134.674243 
L 255.557496 134.740726 
L 255.934256 134.363741 
L 256.311016 133.728623 
L 257.315709 132.680353 
L 257.441295 132.346963 
L 257.566882 132.448234 
L 258.320402 131.562369 
L 258.697162 131.502061 
L 258.822749 131.390117 
L 258.948335 131.480267 
L 259.953028 130.344876 
L 260.078615 130.340598 
L 260.329788 129.915838 
L 260.455375 130.089841 
L 260.706548 129.72137 
L 260.832135 129.623925 
L 261.083308 129.675006 
L 261.208895 129.724934 
L 261.460068 129.483976 
L 261.962415 129.289931 
L 262.213588 128.949748 
L 262.339175 128.997538 
L 262.841521 128.402276 
L 263.218281 128.112677 
L 263.343868 128.247732 
L 263.720628 127.698515 
L 263.971801 128.05769 
L 264.222974 127.724155 
L 264.348561 127.715679 
L 264.599734 127.312333 
L 264.725321 127.36501 
L 265.102081 127.173391 
L 265.227667 127.291978 
L 265.353254 127.205926 
L 265.855601 126.32156 
L 265.981187 126.268569 
L 266.106774 126.429196 
L 266.98588 124.874358 
L 267.36264 124.900099 
L 267.488227 123.33662 
L 267.613814 124.757054 
L 267.7394 124.842668 
L 267.990574 124.428056 
L 268.367333 124.839864 
L 268.618507 124.860549 
L 268.86968 124.584536 
L 269.120853 124.614514 
L 269.24644 124.614082 
L 269.6232 124.07518 
L 269.99996 123.995191 
L 270.125546 123.847747 
L 270.251133 123.380915 
L 270.37672 123.390139 
L 270.502306 123.16998 
L 270.627893 123.175638 
L 270.75348 123.018393 
L 271.004653 123.237973 
L 271.255826 123.051983 
L 271.381413 123.139952 
L 271.632586 122.910269 
L 272.637279 122.076226 
L 272.762866 122.115733 
L 272.888453 122.005666 
L 273.014039 121.672716 
L 273.139626 121.686845 
L 273.265213 121.537751 
L 273.390799 121.591846 
L 273.516386 121.521696 
L 273.893146 121.06555 
L 274.395492 121.069906 
L 275.149012 120.484824 
L 275.274599 120.762933 
L 275.400186 120.37832 
L 275.651359 120.349073 
L 275.902532 120.208522 
L 276.028119 120.28991 
L 276.279292 119.980568 
L 276.404879 120.140845 
L 276.656052 120.025259 
L 276.781639 120.088439 
L 277.283985 119.507059 
L 277.786332 119.453085 
L 277.911918 119.501405 
L 278.037505 119.747701 
L 278.163092 119.496809 
L 278.288678 119.738267 
L 278.539852 119.011613 
L 279.167785 118.418861 
L 279.795718 118.319032 
L 279.921305 118.422533 
L 280.172478 117.828339 
L 280.549238 117.488967 
L 280.925998 116.802085 
L 281.051585 116.865592 
L 281.302758 116.52018 
L 281.553931 117.137202 
L 281.805104 116.999631 
L 281.930691 117.088775 
L 282.181864 116.695735 
L 282.307451 116.821776 
L 282.809798 115.780592 
L 282.935384 115.630364 
L 283.186557 115.699611 
L 283.437731 115.358696 
L 283.814491 115.268934 
L 284.191251 114.882694 
L 284.316837 114.799649 
L 284.442424 114.858948 
L 284.693597 114.756375 
L 284.94477 114.861627 
L 285.070357 114.697323 
L 285.195944 114.811551 
L 285.572704 114.390591 
L 286.45181 114.391393 
L 286.82857 114.000145 
L 286.954157 114.036856 
L 287.079743 113.845505 
L 287.20533 113.901634 
L 287.456503 114.255831 
L 287.58209 113.98335 
L 287.833263 114.129038 
L 287.95885 113.989268 
L 288.084437 114.114987 
L 288.33561 113.708623 
L 288.461197 113.681678 
L 288.963543 112.983981 
L 289.214716 112.695076 
L 289.340303 112.998366 
L 289.591476 112.81609 
L 290.344996 112.144394 
L 290.596169 112.198375 
L 290.721756 112.08645 
L 290.972929 112.092548 
L 291.349689 111.468408 
L 291.726449 111.099729 
L 292.103209 111.487851 
L 292.479969 111.228072 
L 292.731142 111.0398 
L 293.107902 110.8081 
L 293.233489 111.016219 
L 293.359076 110.992502 
L 293.735836 110.694226 
L 293.987009 110.591352 
L 294.489355 110.030565 
L 294.614942 109.972683 
L 294.740529 107.408195 
L 294.866115 109.413832 
L 294.991702 109.448201 
L 295.117289 109.285712 
L 295.368462 109.363636 
L 295.619635 109.105791 
L 295.745222 108.21666 
L 295.996395 109.119112 
L 296.373155 109.199504 
L 296.498742 109.090504 
L 296.624328 108.495815 
L 296.749915 108.57462 
L 297.126675 107.877192 
L 297.252262 107.978014 
L 297.377848 106.920061 
L 297.503435 107.640754 
L 297.629022 107.400969 
L 297.754608 107.493977 
L 298.256955 107.197899 
L 298.508128 106.734536 
L 298.759301 106.851374 
L 299.010475 106.559795 
L 299.261648 105.226414 
L 299.387235 105.771489 
L 299.889581 105.20682 
L 300.140754 104.614964 
L 300.517514 104.200044 
L 300.768688 104.055747 
L 300.894274 101.361056 
L 301.019861 101.687766 
L 301.271034 103.300674 
L 301.522208 102.763757 
L 301.773381 102.247 
L 301.898967 102.21453 
L 302.401314 101.228164 
L 303.280421 100.099569 
L 303.531594 97.057172 
L 303.65718 99.165546 
L 303.908354 99.362224 
L 304.03394 99.250881 
L 304.285114 99.510795 
L 305.16422 98.612103 
L 305.289807 96.126807 
L 305.415393 98.16671 
L 305.54098 98.117489 
L 305.666567 98.389063 
L 305.792153 98.146993 
L 305.91774 98.206684 
L 306.043327 97.900209 
L 306.168913 97.903071 
L 306.545673 97.284678 
L 306.67126 97.401658 
L 306.796847 97.274888 
L 307.04802 97.339127 
L 307.299193 96.805152 
L 307.42478 95.272523 
L 307.675953 96.812021 
L 307.80154 96.898325 
L 307.927126 96.840001 
L 308.052713 96.579555 
L 308.55506 96.744824 
L 308.680646 96.633355 
L 308.93182 96.641264 
L 309.057406 96.443876 
L 309.434166 96.583273 
L 309.936513 95.668402 
L 310.187686 95.691939 
L 310.313273 95.691408 
L 310.690033 95.299772 
L 310.815619 95.245384 
L 310.941206 92.370313 
L 311.066792 94.814892 
L 311.569139 94.531611 
L 311.694726 94.707742 
L 311.945899 94.362695 
L 312.071486 94.573653 
L 312.197072 94.278547 
L 312.448246 94.384338 
L 312.825005 94.157077 
L 313.201765 93.698321 
L 313.578525 93.838376 
L 313.829699 93.416839 
L 313.955285 93.317404 
L 314.080872 93.48582 
L 314.457632 93.189748 
L 314.583218 93.020496 
L 314.708805 93.089369 
L 315.211152 92.717681 
L 315.713498 91.91165 
L 315.839085 91.872586 
L 316.090258 91.540571 
L 316.467018 91.388599 
L 316.969365 90.938752 
L 317.346125 90.559901 
L 317.597298 90.520221 
L 317.974058 89.858722 
L 318.099645 90.214336 
L 318.350818 90.123904 
L 318.476404 89.776088 
L 318.727578 89.806594 
L 318.853164 89.67621 
L 319.104338 89.136829 
L 319.229924 91.322525 
L 319.481098 88.432049 
L 319.606684 88.870846 
L 319.857858 88.605413 
L 320.109031 88.605413 
L 320.234617 85.670731 
L 320.360204 88.302243 
L 320.611377 88.208498 
L 321.364897 87.445387 
L 321.490484 87.432285 
L 321.616071 87.599623 
L 322.36959 86.526695 
L 322.620764 86.470987 
L 322.871937 86.550289 
L 323.12311 86.298699 
L 323.625457 85.975022 
L 323.87663 86.097574 
L 324.25339 86.120806 
L 325.509257 84.939236 
L 325.634843 86.823019 
L 325.76043 84.469814 
L 325.886016 84.343823 
L 326.13719 84.519326 
L 326.765123 84.628833 
L 327.016296 84.298952 
L 327.393056 83.422511 
L 327.895403 83.107214 
L 328.020989 82.770644 
L 328.900096 82.4789 
L 329.025683 82.927109 
L 329.402442 82.606532 
L 329.528029 82.606532 
L 329.653616 82.46889 
L 329.904789 82.458498 
L 330.030376 82.318623 
L 330.407136 82.513063 
L 331.035069 82.004434 
L 331.160656 82.15323 
L 331.537415 81.749461 
L 331.788589 81.482314 
L 331.914175 81.575042 
L 332.416522 81.225232 
L 332.542109 81.251905 
L 332.667695 81.128443 
L 332.793282 80.840101 
L 333.170042 80.785938 
L 333.295628 80.659223 
L 333.421215 80.739693 
L 333.672388 80.013228 
L 333.797975 80.013981 
L 334.551495 78.929168 
L 334.677082 78.974556 
L 334.802668 78.841965 
L 335.179428 77.891591 
L 335.305015 78.658285 
L 335.556188 78.394359 
L 335.681775 76.16888 
L 336.058535 75.696127 
L 336.184121 76.496728 
L 336.309708 76.480156 
L 336.435295 76.01621 
L 336.686468 76.044763 
L 336.812054 75.788475 
L 337.188814 76.063559 
L 337.314401 76.126598 
L 337.439988 75.989814 
L 337.691161 76.290006 
L 337.816748 76.372675 
L 338.319094 76.230026 
L 338.570268 76.246316 
L 338.695854 76.152491 
L 338.821441 76.21418 
L 339.198201 75.476029 
L 339.449374 75.363001 
L 339.700547 75.066129 
L 339.826134 75.065329 
L 339.951721 75.176521 
L 340.077307 75.081527 
L 340.328481 75.445974 
L 340.579654 75.16223 
L 340.70524 75.116024 
L 340.830827 75.245592 
L 340.956414 74.926626 
L 341.207587 75.09966 
L 341.333174 75.139653 
L 341.584347 74.94849 
L 341.83552 75.046476 
L 342.714627 74.86917 
L 343.091387 74.325679 
L 343.34256 74.213858 
L 343.71932 73.527859 
L 343.844907 73.704658 
L 343.970493 73.567221 
L 344.09608 73.602735 
L 344.598426 73.275435 
L 344.724013 73.244938 
L 345.100773 72.446692 
L 345.351946 72.359285 
L 345.60312 72.442805 
L 345.854293 72.081317 
L 345.97988 72.102424 
L 346.231053 71.589012 
L 346.607813 70.86118 
L 347.612506 69.778201 
L 347.738093 69.795546 
L 347.989266 69.220916 
L 348.114852 69.35515 
L 348.366026 69.107656 
L 348.617199 69.094466 
L 349.119546 68.287645 
L 349.245132 71.141798 
L 349.370719 67.675238 
L 349.496306 67.607157 
L 349.621892 67.364146 
L 349.747479 67.372916 
L 349.873065 67.265848 
L 350.124239 67.498365 
L 350.500999 67.281383 
L 350.752172 67.411033 
L 351.254519 66.919405 
L 351.380105 66.870496 
L 351.631279 66.336414 
L 351.882452 65.046085 
L 352.133625 64.489675 
L 352.384798 63.908945 
L 352.635972 63.484459 
L 353.138318 63.035369 
L 353.263905 63.009181 
L 353.766251 62.386949 
L 354.017425 62.478326 
L 354.770945 61.625545 
L 354.896531 61.725227 
L 355.273291 61.547235 
L 355.775638 60.65333 
L 355.901224 60.677564 
L 356.026811 60.451393 
L 356.152398 60.576134 
L 356.277984 60.516432 
L 356.529158 60.635269 
L 356.654744 60.205319 
L 357.031504 60.521142 
L 357.282677 60.395875 
L 358.036197 59.774993 
L 358.161784 59.786108 
L 358.412957 59.619787 
L 358.664131 59.620128 
L 359.543237 59.069159 
L 360.17117 58.382619 
L 360.296757 58.369682 
L 360.54793 58.160157 
L 361.050277 57.646713 
L 361.30145 57.536062 
L 361.427037 57.413268 
L 361.67821 57.509782 
L 361.929383 57.46513 
L 362.180557 57.439974 
L 362.43173 57.351404 
L 362.80849 57.222285 
L 362.934076 57.120222 
L 363.18525 57.336836 
L 363.436423 57.269391 
L 363.56201 57.318326 
L 364.31553 56.847889 
L 364.441116 56.678548 
L 364.817876 56.785836 
L 365.194636 56.536235 
L 366.073743 56.588572 
L 366.324916 56.411821 
L 366.450503 56.358073 
L 366.576089 56.4583 
L 366.827262 56.397333 
L 367.078436 56.554667 
L 367.455196 56.567437 
L 367.580782 56.630004 
L 367.831956 56.321669 
L 367.957542 56.397712 
L 368.208716 56.359028 
L 368.585475 56.44104 
L 368.836649 56.169354 
L 368.962235 56.010271 
L 369.087822 56.278888 
L 369.338995 56.076501 
L 369.590169 56.110183 
L 369.715755 56.09211 
L 369.841342 55.890164 
L 369.966929 55.913207 
L 370.343688 55.500337 
L 370.720448 54.910689 
L 370.846035 55.045436 
L 371.097208 54.744472 
L 371.976315 54.191003 
L 372.101901 53.975868 
L 372.604248 54.231954 
L 373.232181 54.215775 
L 373.483355 53.932158 
L 373.608941 53.929921 
L 373.860115 53.550965 
L 374.111288 53.640273 
L 374.236874 53.723553 
L 374.362461 53.321514 
L 374.488048 53.37291 
L 374.864808 52.791391 
L 375.115981 52.891517 
L 375.241568 52.894133 
L 375.743914 52.299098 
L 375.995087 51.734055 
L 376.246261 51.75551 
L 377.125367 51.800864 
L 377.250954 51.868855 
L 377.502127 51.728752 
L 377.878887 51.795929 
L 378.13006 51.637618 
L 378.381234 51.693537 
L 378.757994 51.659306 
L 379.009167 52.049323 
L 379.385927 51.466246 
L 379.6371 51.384996 
L 379.762687 51.010976 
L 379.888273 51.13552 
L 380.139447 51.002265 
L 380.265033 51.107464 
L 380.39062 50.740919 
L 380.516207 50.878819 
L 380.76738 50.692406 
L 380.892967 50.745987 
L 381.269727 50.484757 
L 381.395313 50.475255 
L 381.5209 50.667225 
L 381.646486 50.316297 
L 382.148833 50.900833 
L 382.27442 50.63233 
L 382.400006 51.039846 
L 382.525593 50.891139 
L 382.776766 50.361751 
L 382.902353 50.34646 
L 383.153526 50.748526 
L 383.279113 50.89704 
L 383.404699 50.838353 
L 383.530286 50.262447 
L 383.781459 50.538581 
L 383.907046 50.465467 
L 384.409393 50.790704 
L 384.534979 50.514166 
L 384.660566 50.970986 
L 385.037326 50.916314 
L 385.162912 50.61504 
L 385.288499 51.052715 
L 385.539672 50.631827 
L 385.665259 50.871385 
L 385.916432 50.650398 
L 386.167606 51.013214 
L 386.418779 50.930855 
L 386.795539 51.192214 
L 387.046712 50.896671 
L 387.172299 50.923826 
L 387.423472 50.644046 
L 387.674645 50.955688 
L 387.800232 50.682741 
L 388.051405 50.914228 
L 388.176992 50.976502 
L 388.302579 50.707017 
L 388.679339 50.965751 
L 388.804925 50.781665 
L 388.930512 50.389956 
L 389.056098 50.635728 
L 389.432858 50.372768 
L 389.558445 50.27603 
L 389.684032 50.803811 
L 389.809618 50.539305 
L 389.935205 50.556054 
L 391.567831 42.652727 
L 391.693418 50.36042 
L 391.819005 50.379959 
L 391.944591 50.216848 
L 392.195765 50.355911 
L 392.446938 50.568107 
L 392.823698 50.004458 
L 392.949284 50.25615 
L 393.200458 50.077018 
L 393.326044 49.748345 
L 393.451631 49.749729 
L 393.577218 49.600215 
L 393.702804 49.740914 
L 393.828391 49.522894 
L 393.953978 49.622214 
L 394.456324 49.095455 
L 394.707497 48.967666 
L 394.833084 49.054773 
L 395.084257 48.942969 
L 395.335431 48.941705 
L 395.461017 48.78207 
L 395.586604 48.852054 
L 395.963364 48.349952 
L 396.088951 48.71496 
L 396.340124 48.063349 
L 396.46571 47.768788 
L 396.591297 48.078702 
L 396.84247 47.940909 
L 397.093644 47.837924 
L 397.21923 47.473328 
L 397.344817 48.053528 
L 398.098337 47.233528 
L 398.223923 47.358873 
L 398.34951 48.497631 
L 398.475097 47.228016 
L 398.72627 47.089954 
L 398.851857 46.855802 
L 398.977443 47.151374 
L 399.10303 46.973557 
L 399.354203 47.385295 
L 399.605377 47.110282 
L 399.730963 47.154347 
L 399.85655 47.415492 
L 400.23331 47.078159 
L 400.358896 47.445753 
L 400.484483 47.273368 
L 400.61007 47.485855 
L 400.735656 47.252624 
L 400.98683 47.488976 
L 401.238003 47.098775 
L 401.489176 46.60024 
L 401.740349 46.761308 
L 401.865936 46.593696 
L 402.368283 46.657146 
L 402.619456 46.550162 
L 403.372976 46.336653 
L 403.498563 45.99884 
L 403.749736 46.052017 
L 404.000909 45.901512 
L 404.000909 45.901512 
" clip-path="url(#pf58243b850)" style="fill: none; stroke: #800080; stroke-width: 3; stroke-linecap: round"/>
   </g>
   <g id="patch_3">
    <path d="M 42.82 404.12 
L 42.82 25.44 
" style="fill: none; stroke: #ffffff; stroke-width: 0.8; stroke-linejoin: miter; stroke-linecap: square"/>
   </g>
   <g id="patch_4">
    <path d="M 421.2 404.12 
L 421.2 25.44 
" style="fill: none; stroke: #ffffff; stroke-width: 0.8; stroke-linejoin: miter; stroke-linecap: square"/>
   </g>
   <g id="patch_5">
    <path d="M 42.82 404.12 
L 421.2 404.12 
" style="fill: none; stroke: #ffffff; stroke-width: 0.8; stroke-linejoin: miter; stroke-linecap: square"/>
   </g>
   <g id="patch_6">
    <path d="M 42.82 25.44 
L 421.2 25.44 
" style="fill: none; stroke: #ffffff; stroke-width: 0.8; stroke-linejoin: miter; stroke-linecap: square"/>
   </g>
   <g id="text_17">
    <!-- Gini coefficient over time -->
    <g style="fill: #262626" transform="translate(166.42625 19.44) scale(0.12 -0.12)">
     <defs>
      <path id="ArialMT-47" d="M 2638 1797 
L 2638 2334 
L 4578 2338 
L 4578 638 
Q 4131 281 3656 101 
Q 3181 -78 2681 -78 
Q 2006 -78 1454 211 
Q 903 500 622 1047 
Q 341 1594 341 2269 
Q 341 2938 620 3517 
Q 900 4097 1425 4378 
Q 1950 4659 2634 4659 
Q 3131 4659 3532 4498 
Q 3934 4338 4162 4050 
Q 4391 3763 4509 3300 
L 3963 3150 
Q 3859 3500 3706 3700 
Q 3553 3900 3268 4020 
Q 2984 4141 2638 4141 
Q 2222 4141 1919 4014 
Q 1616 3888 1430 3681 
Q 1244 3475 1141 3228 
Q 966 2803 966 2306 
Q 966 1694 1177 1281 
Q 1388 869 1791 669 
Q 2194 469 2647 469 
Q 3041 469 3416 620 
Q 3791 772 3984 944 
L 3984 1797 
L 2638 1797 
z
" transform="scale(0.015625)"/>
      <path id="ArialMT-69" d="M 425 3934 
L 425 4581 
L 988 4581 
L 988 3934 
L 425 3934 
z
M 425 0 
L 425 3319 
L 988 3319 
L 988 0 
L 425 0 
z
" transform="scale(0.015625)"/>
      <path id="ArialMT-6e" d="M 422 0 
L 422 3319 
L 928 3319 
L 928 2847 
Q 1294 3394 1984 3394 
Q 2284 3394 2536 3286 
Q 2788 3178 2913 3003 
Q 3038 2828 3088 2588 
Q 3119 2431 3119 2041 
L 3119 0 
L 2556 0 
L 2556 2019 
Q 2556 2363 2490 2533 
Q 2425 2703 2258 2804 
Q 2091 2906 1866 2906 
Q 1506 2906 1245 2678 
Q 984 2450 984 1813 
L 984 0 
L 422 0 
z
" transform="scale(0.015625)"/>
      <path id="ArialMT-20" transform="scale(0.015625)"/>
      <path id="ArialMT-63" d="M 2588 1216 
L 3141 1144 
Q 3050 572 2676 248 
Q 2303 -75 1759 -75 
Q 1078 -75 664 370 
Q 250 816 250 1647 
Q 250 2184 428 2587 
Q 606 2991 970 3192 
Q 1334 3394 1763 3394 
Q 2303 3394 2647 3120 
Q 2991 2847 3088 2344 
L 2541 2259 
Q 2463 2594 2264 2762 
Q 2066 2931 1784 2931 
Q 1359 2931 1093 2626 
Q 828 2322 828 1663 
Q 828 994 1084 691 
Q 1341 388 1753 388 
Q 2084 388 2306 591 
Q 2528 794 2588 1216 
z
" transform="scale(0.015625)"/>
      <path id="ArialMT-6f" d="M 213 1659 
Q 213 2581 725 3025 
Q 1153 3394 1769 3394 
Q 2453 3394 2887 2945 
Q 3322 2497 3322 1706 
Q 3322 1066 3130 698 
Q 2938 331 2570 128 
Q 2203 -75 1769 -75 
Q 1072 -75 642 372 
Q 213 819 213 1659 
z
M 791 1659 
Q 791 1022 1069 705 
Q 1347 388 1769 388 
Q 2188 388 2466 706 
Q 2744 1025 2744 1678 
Q 2744 2294 2464 2611 
Q 2184 2928 1769 2928 
Q 1347 2928 1069 2612 
Q 791 2297 791 1659 
z
" transform="scale(0.015625)"/>
      <path id="ArialMT-65" d="M 2694 1069 
L 3275 997 
Q 3138 488 2766 206 
Q 2394 -75 1816 -75 
Q 1088 -75 661 373 
Q 234 822 234 1631 
Q 234 2469 665 2931 
Q 1097 3394 1784 3394 
Q 2450 3394 2872 2941 
Q 3294 2488 3294 1666 
Q 3294 1616 3291 1516 
L 816 1516 
Q 847 969 1125 678 
Q 1403 388 1819 388 
Q 2128 388 2347 550 
Q 2566 713 2694 1069 
z
M 847 1978 
L 2700 1978 
Q 2663 2397 2488 2606 
Q 2219 2931 1791 2931 
Q 1403 2931 1139 2672 
Q 875 2413 847 1978 
z
" transform="scale(0.015625)"/>
      <path id="ArialMT-66" d="M 556 0 
L 556 2881 
L 59 2881 
L 59 3319 
L 556 3319 
L 556 3672 
Q 556 4006 616 4169 
Q 697 4388 901 4523 
Q 1106 4659 1475 4659 
Q 1713 4659 2000 4603 
L 1916 4113 
Q 1741 4144 1584 4144 
Q 1328 4144 1222 4034 
Q 1116 3925 1116 3625 
L 1116 3319 
L 1763 3319 
L 1763 2881 
L 1116 2881 
L 1116 0 
L 556 0 
z
" transform="scale(0.015625)"/>
      <path id="ArialMT-74" d="M 1650 503 
L 1731 6 
Q 1494 -44 1306 -44 
Q 1000 -44 831 53 
Q 663 150 594 308 
Q 525 466 525 972 
L 525 2881 
L 113 2881 
L 113 3319 
L 525 3319 
L 525 4141 
L 1084 4478 
L 1084 3319 
L 1650 3319 
L 1650 2881 
L 1084 2881 
L 1084 941 
Q 1084 700 1114 631 
Q 1144 563 1211 522 
Q 1278 481 1403 481 
Q 1497 481 1650 503 
z
" transform="scale(0.015625)"/>
      <path id="ArialMT-76" d="M 1344 0 
L 81 3319 
L 675 3319 
L 1388 1331 
Q 1503 1009 1600 663 
Q 1675 925 1809 1294 
L 2547 3319 
L 3125 3319 
L 1869 0 
L 1344 0 
z
" transform="scale(0.015625)"/>
      <path id="ArialMT-72" d="M 416 0 
L 416 3319 
L 922 3319 
L 922 2816 
Q 1116 3169 1280 3281 
Q 1444 3394 1641 3394 
Q 1925 3394 2219 3213 
L 2025 2691 
Q 1819 2813 1613 2813 
Q 1428 2813 1281 2702 
Q 1134 2591 1072 2394 
Q 978 2094 978 1738 
L 978 0 
L 416 0 
z
" transform="scale(0.015625)"/>
      <path id="ArialMT-6d" d="M 422 0 
L 422 3319 
L 925 3319 
L 925 2853 
Q 1081 3097 1340 3245 
Q 1600 3394 1931 3394 
Q 2300 3394 2536 3241 
Q 2772 3088 2869 2813 
Q 3263 3394 3894 3394 
Q 4388 3394 4653 3120 
Q 4919 2847 4919 2278 
L 4919 0 
L 4359 0 
L 4359 2091 
Q 4359 2428 4304 2576 
Q 4250 2725 4106 2815 
Q 3963 2906 3769 2906 
Q 3419 2906 3187 2673 
Q 2956 2441 2956 1928 
L 2956 0 
L 2394 0 
L 2394 2156 
Q 2394 2531 2256 2718 
Q 2119 2906 1806 2906 
Q 1569 2906 1367 2781 
Q 1166 2656 1075 2415 
Q 984 2175 984 1722 
L 984 0 
L 422 0 
z
" transform="scale(0.015625)"/>
     </defs>
     <use xlink:href="#ArialMT-47"/>
     <use xlink:href="#ArialMT-69" x="77.783203"/>
     <use xlink:href="#ArialMT-6e" x="100"/>
     <use xlink:href="#ArialMT-69" x="155.615234"/>
     <use xlink:href="#ArialMT-20" x="177.832031"/>
     <use xlink:href="#ArialMT-63" x="205.615234"/>
     <use xlink:href="#ArialMT-6f" x="255.615234"/>
     <use xlink:href="#ArialMT-65" x="311.230469"/>
     <use xlink:href="#ArialMT-66" x="366.845703"/>
     <use xlink:href="#ArialMT-66" x="392.878906"/>
     <use xlink:href="#ArialMT-69" x="420.662109"/>
     <use xlink:href="#ArialMT-63" x="442.878906"/>
     <use xlink:href="#ArialMT-69" x="492.878906"/>
     <use xlink:href="#ArialMT-65" x="515.095703"/>
     <use xlink:href="#ArialMT-6e" x="570.710938"/>
     <use xlink:href="#ArialMT-74" x="626.326172"/>
     <use xlink:href="#ArialMT-20" x="654.109375"/>
     <use xlink:href="#ArialMT-6f" x="681.892578"/>
     <use xlink:href="#ArialMT-76" x="737.507812"/>
     <use xlink:href="#ArialMT-65" x="787.507812"/>
     <use xlink:href="#ArialMT-72" x="843.123047"/>
     <use xlink:href="#ArialMT-20" x="876.423828"/>
     <use xlink:href="#ArialMT-74" x="904.207031"/>
     <use xlink:href="#ArialMT-69" x="931.990234"/>
     <use xlink:href="#ArialMT-6d" x="954.207031"/>
     <use xlink:href="#ArialMT-65" x="1037.507812"/>
    </g>
   </g>
  </g>
 </g>
 <defs>
  <clipPath id="pf58243b850">
   <rect x="42.82" y="25.44" width="378.38" height="378.68"/>
  </clipPath>
 </defs>
</svg>
