<?xml version="1.0" encoding="utf-8" standalone="no"?>
<!DOCTYPE svg PUBLIC "-//W3C//DTD SVG 1.1//EN"
  "http://www.w3.org/Graphics/SVG/1.1/DTD/svg11.dtd">
<svg xmlns:xlink="http://www.w3.org/1999/xlink" width="460.8pt" height="345.6pt" viewBox="0 0 460.8 345.6" xmlns="http://www.w3.org/2000/svg" version="1.1">
 <metadata>
  <rdf:RDF xmlns:dc="http://purl.org/dc/elements/1.1/" xmlns:cc="http://creativecommons.org/ns#" xmlns:rdf="http://www.w3.org/1999/02/22-rdf-syntax-ns#">
   <cc:Work>
    <dc:type rdf:resource="http://purl.org/dc/dcmitype/StillImage"/>
    <dc:date>2026-04-17T22:35:42.059426</dc:date>
    <dc:format>image/svg+xml</dc:format>
    <dc:creator>
     <cc:Agent>
      <dc:title>Matplotlib v3.10.8, https://matplotlib.org/</dc:title>
     </cc:Agent>
    </dc:creator>
   </cc:Work>
  </rdf:RDF>
 </metadata>
 <defs>
  <style type="text/css">*{stroke-linejoin: round; stroke-linecap: butt}</style>
 </defs>
 <g id="figure_1">
  <g id="patch_1">
   <path d="M 0 345.6 
L 460.8 345.6 
L 460.8 0 
L 0 0 
z
" style="fill: #ffffff"/>
  </g>
  <g id="axes_1">
   <g id="patch_2">
    <path d="M 48.62 317.72 
L 443.85555 317.72 
L 443.85555 25.49625 
L 48.62 25.49625 
z
" style="fill: #eaeaf2"/>
   </g>
   <g id="matplotlib.axis_1">
    <g id="xtick_1">
     <g id="line2d_1">
      <path d="M 66.585252 317.72 
L 66.585252 25.49625 
" clip-path="url(#peec419ff93)" style="fill: none; stroke: #ffffff; stroke-width: 0.8; stroke-linecap: round"/>
     </g>
     <g id="text_1">
      <!-- 2000 -->
      <g style="fill: #262626" transform="translate(55.463377 331.877812) scale(0.1 -0.1)">
       <defs>
        <path id="ArialMT-32" d="M 3222 541 
L 3222 0 
L 194 0 
Q 188 203 259 391 
Q 375 700 629 1000 
Q 884 1300 1366 1694 
Q 2113 2306 2375 2664 
Q 2638 3022 2638 3341 
Q 2638 3675 2398 3904 
Q 2159 4134 1775 4134 
Q 1369 4134 1125 3890 
Q 881 3647 878 3216 
L 300 3275 
Q 359 3922 746 4261 
Q 1134 4600 1788 4600 
Q 2447 4600 2831 4234 
Q 3216 3869 3216 3328 
Q 3216 3053 3103 2787 
Q 2991 2522 2730 2228 
Q 2469 1934 1863 1422 
Q 1356 997 1212 845 
Q 1069 694 975 541 
L 3222 541 
z
" transform="scale(0.015625)"/>
        <path id="ArialMT-30" d="M 266 2259 
Q 266 3072 433 3567 
Q 600 4063 929 4331 
Q 1259 4600 1759 4600 
Q 2128 4600 2406 4451 
Q 2684 4303 2865 4023 
Q 3047 3744 3150 3342 
Q 3253 2941 3253 2259 
Q 3253 1453 3087 958 
Q 2922 463 2592 192 
Q 2263 -78 1759 -78 
Q 1097 -78 719 397 
Q 266 969 266 2259 
z
M 844 2259 
Q 844 1131 1108 757 
Q 1372 384 1759 384 
Q 2147 384 2411 759 
Q 2675 1134 2675 2259 
Q 2675 3391 2411 3762 
Q 2147 4134 1753 4134 
Q 1366 4134 1134 3806 
Q 844 3388 844 2259 
z
" transform="scale(0.015625)"/>
       </defs>
       <use xlink:href="#ArialMT-32"/>
       <use xlink:href="#ArialMT-30" transform="translate(55.615234 0)"/>
       <use xlink:href="#ArialMT-30" transform="translate(111.230469 0)"/>
       <use xlink:href="#ArialMT-30" transform="translate(166.845703 0)"/>
      </g>
     </g>
    </g>
    <g id="xtick_2">
     <g id="line2d_2">
      <path d="M 103.828426 317.72 
L 103.828426 25.49625 
" clip-path="url(#peec419ff93)" style="fill: none; stroke: #ffffff; stroke-width: 0.8; stroke-linecap: round"/>
     </g>
     <g id="text_2">
      <!-- 2001 -->
      <g style="fill: #262626" transform="translate(92.706551 331.877812) scale(0.1 -0.1)">
       <defs>
        <path id="ArialMT-31" d="M 2384 0 
L 1822 0 
L 1822 3584 
Q 1619 3391 1289 3197 
Q 959 3003 697 2906 
L 697 3450 
Q 1169 3672 1522 3987 
Q 1875 4303 2022 4600 
L 2384 4600 
L 2384 0 
z
" transform="scale(0.015625)"/>
       </defs>
       <use xlink:href="#ArialMT-32"/>
       <use xlink:href="#ArialMT-30" transform="translate(55.615234 0)"/>
       <use xlink:href="#ArialMT-30" transform="translate(111.230469 0)"/>
       <use xlink:href="#ArialMT-31" transform="translate(166.845703 0)"/>
      </g>
     </g>
    </g>
    <g id="xtick_3">
     <g id="line2d_3">
      <path d="M 140.969842 317.72 
L 140.969842 25.49625 
" clip-path="url(#peec419ff93)" style="fill: none; stroke: #ffffff; stroke-width: 0.8; stroke-linecap: round"/>
     </g>
     <g id="text_3">
      <!-- 2002 -->
      <g style="fill: #262626" transform="translate(129.847967 331.877812) scale(0.1 -0.1)">
       <use xlink:href="#ArialMT-32"/>
       <use xlink:href="#ArialMT-30" transform="translate(55.615234 0)"/>
       <use xlink:href="#ArialMT-30" transform="translate(111.230469 0)"/>
       <use xlink:href="#ArialMT-32" transform="translate(166.845703 0)"/>
      </g>
     </g>
    </g>
    <g id="xtick_4">
     <g id="line2d_4">
      <path d="M 178.111259 317.72 
L 178.111259 25.49625 
" clip-path="url(#peec419ff93)" style="fill: none; stroke: #ffffff; stroke-width: 0.8; stroke-linecap: round"/>
     </g>
     <g id="text_4">
      <!-- 2003 -->
      <g style="fill: #262626" transform="translate(166.989384 331.877812) scale(0.1 -0.1)">
       <defs>
        <path id="ArialMT-33" d="M 269 1209 
L 831 1284 
Q 928 806 1161 595 
Q 1394 384 1728 384 
Q 2125 384 2398 659 
Q 2672 934 2672 1341 
Q 2672 1728 2419 1979 
Q 2166 2231 1775 2231 
Q 1616 2231 1378 2169 
L 1441 2663 
Q 1497 2656 1531 2656 
Q 1891 2656 2178 2843 
Q 2466 3031 2466 3422 
Q 2466 3731 2256 3934 
Q 2047 4138 1716 4138 
Q 1388 4138 1169 3931 
Q 950 3725 888 3313 
L 325 3413 
Q 428 3978 793 4289 
Q 1159 4600 1703 4600 
Q 2078 4600 2393 4439 
Q 2709 4278 2876 4000 
Q 3044 3722 3044 3409 
Q 3044 3113 2884 2869 
Q 2725 2625 2413 2481 
Q 2819 2388 3044 2092 
Q 3269 1797 3269 1353 
Q 3269 753 2831 336 
Q 2394 -81 1725 -81 
Q 1122 -81 723 278 
Q 325 638 269 1209 
z
" transform="scale(0.015625)"/>
       </defs>
       <use xlink:href="#ArialMT-32"/>
       <use xlink:href="#ArialMT-30" transform="translate(55.615234 0)"/>
       <use xlink:href="#ArialMT-30" transform="translate(111.230469 0)"/>
       <use xlink:href="#ArialMT-33" transform="translate(166.845703 0)"/>
      </g>
     </g>
    </g>
    <g id="xtick_5">
     <g id="line2d_5">
      <path d="M 215.252675 317.72 
L 215.252675 25.49625 
" clip-path="url(#peec419ff93)" style="fill: none; stroke: #ffffff; stroke-width: 0.8; stroke-linecap: round"/>
     </g>
     <g id="text_5">
      <!-- 2004 -->
      <g style="fill: #262626" transform="translate(204.1308 331.877812) scale(0.1 -0.1)">
       <defs>
        <path id="ArialMT-34" d="M 2069 0 
L 2069 1097 
L 81 1097 
L 81 1613 
L 2172 4581 
L 2631 4581 
L 2631 1613 
L 3250 1613 
L 3250 1097 
L 2631 1097 
L 2631 0 
L 2069 0 
z
M 2069 1613 
L 2069 3678 
L 634 1613 
L 2069 1613 
z
" transform="scale(0.015625)"/>
       </defs>
       <use xlink:href="#ArialMT-32"/>
       <use xlink:href="#ArialMT-30" transform="translate(55.615234 0)"/>
       <use xlink:href="#ArialMT-30" transform="translate(111.230469 0)"/>
       <use xlink:href="#ArialMT-34" transform="translate(166.845703 0)"/>
      </g>
     </g>
    </g>
    <g id="xtick_6">
     <g id="line2d_6">
      <path d="M 252.495849 317.72 
L 252.495849 25.49625 
" clip-path="url(#peec419ff93)" style="fill: none; stroke: #ffffff; stroke-width: 0.8; stroke-linecap: round"/>
     </g>
     <g id="text_6">
      <!-- 2005 -->
      <g style="fill: #262626" transform="translate(241.373974 331.877812) scale(0.1 -0.1)">
       <defs>
        <path id="ArialMT-35" d="M 266 1200 
L 856 1250 
Q 922 819 1161 601 
Q 1400 384 1738 384 
Q 2144 384 2425 690 
Q 2706 997 2706 1503 
Q 2706 1984 2436 2262 
Q 2166 2541 1728 2541 
Q 1456 2541 1237 2417 
Q 1019 2294 894 2097 
L 366 2166 
L 809 4519 
L 3088 4519 
L 3088 3981 
L 1259 3981 
L 1013 2750 
Q 1425 3038 1878 3038 
Q 2478 3038 2890 2622 
Q 3303 2206 3303 1553 
Q 3303 931 2941 478 
Q 2500 -78 1738 -78 
Q 1113 -78 717 272 
Q 322 622 266 1200 
z
" transform="scale(0.015625)"/>
       </defs>
       <use xlink:href="#ArialMT-32"/>
       <use xlink:href="#ArialMT-30" transform="translate(55.615234 0)"/>
       <use xlink:href="#ArialMT-30" transform="translate(111.230469 0)"/>
       <use xlink:href="#ArialMT-35" transform="translate(166.845703 0)"/>
      </g>
     </g>
    </g>
    <g id="xtick_7">
     <g id="line2d_7">
      <path d="M 289.637265 317.72 
L 289.637265 25.49625 
" clip-path="url(#peec419ff93)" style="fill: none; stroke: #ffffff; stroke-width: 0.8; stroke-linecap: round"/>
     </g>
     <g id="text_7">
      <!-- 2006 -->
      <g style="fill: #262626" transform="translate(278.51539 331.877812) scale(0.1 -0.1)">
       <defs>
        <path id="ArialMT-36" d="M 3184 3459 
L 2625 3416 
Q 2550 3747 2413 3897 
Q 2184 4138 1850 4138 
Q 1581 4138 1378 3988 
Q 1113 3794 959 3422 
Q 806 3050 800 2363 
Q 1003 2672 1297 2822 
Q 1591 2972 1913 2972 
Q 2475 2972 2870 2558 
Q 3266 2144 3266 1488 
Q 3266 1056 3080 686 
Q 2894 316 2569 119 
Q 2244 -78 1831 -78 
Q 1128 -78 684 439 
Q 241 956 241 2144 
Q 241 3472 731 4075 
Q 1159 4600 1884 4600 
Q 2425 4600 2770 4297 
Q 3116 3994 3184 3459 
z
M 888 1484 
Q 888 1194 1011 928 
Q 1134 663 1356 523 
Q 1578 384 1822 384 
Q 2178 384 2434 671 
Q 2691 959 2691 1453 
Q 2691 1928 2437 2201 
Q 2184 2475 1800 2475 
Q 1419 2475 1153 2201 
Q 888 1928 888 1484 
z
" transform="scale(0.015625)"/>
       </defs>
       <use xlink:href="#ArialMT-32"/>
       <use xlink:href="#ArialMT-30" transform="translate(55.615234 0)"/>
       <use xlink:href="#ArialMT-30" transform="translate(111.230469 0)"/>
       <use xlink:href="#ArialMT-36" transform="translate(166.845703 0)"/>
      </g>
     </g>
    </g>
    <g id="xtick_8">
     <g id="line2d_8">
      <path d="M 326.778682 317.72 
L 326.778682 25.49625 
" clip-path="url(#peec419ff93)" style="fill: none; stroke: #ffffff; stroke-width: 0.8; stroke-linecap: round"/>
     </g>
     <g id="text_8">
      <!-- 2007 -->
      <g style="fill: #262626" transform="translate(315.656807 331.877812) scale(0.1 -0.1)">
       <defs>
        <path id="ArialMT-37" d="M 303 3981 
L 303 4522 
L 3269 4522 
L 3269 4084 
Q 2831 3619 2401 2847 
Q 1972 2075 1738 1259 
Q 1569 684 1522 0 
L 944 0 
Q 953 541 1156 1306 
Q 1359 2072 1739 2783 
Q 2119 3494 2547 3981 
L 303 3981 
z
" transform="scale(0.015625)"/>
       </defs>
       <use xlink:href="#ArialMT-32"/>
       <use xlink:href="#ArialMT-30" transform="translate(55.615234 0)"/>
       <use xlink:href="#ArialMT-30" transform="translate(111.230469 0)"/>
       <use xlink:href="#ArialMT-37" transform="translate(166.845703 0)"/>
      </g>
     </g>
    </g>
    <g id="xtick_9">
     <g id="line2d_9">
      <path d="M 363.920098 317.72 
L 363.920098 25.49625 
" clip-path="url(#peec419ff93)" style="fill: none; stroke: #ffffff; stroke-width: 0.8; stroke-linecap: round"/>
     </g>
     <g id="text_9">
      <!-- 2008 -->
      <g style="fill: #262626" transform="translate(352.798223 331.877812) scale(0.1 -0.1)">
       <defs>
        <path id="ArialMT-38" d="M 1131 2484 
Q 781 2613 612 2850 
Q 444 3088 444 3419 
Q 444 3919 803 4259 
Q 1163 4600 1759 4600 
Q 2359 4600 2725 4251 
Q 3091 3903 3091 3403 
Q 3091 3084 2923 2848 
Q 2756 2613 2416 2484 
Q 2838 2347 3058 2040 
Q 3278 1734 3278 1309 
Q 3278 722 2862 322 
Q 2447 -78 1769 -78 
Q 1091 -78 675 323 
Q 259 725 259 1325 
Q 259 1772 486 2073 
Q 713 2375 1131 2484 
z
M 1019 3438 
Q 1019 3113 1228 2906 
Q 1438 2700 1772 2700 
Q 2097 2700 2305 2904 
Q 2513 3109 2513 3406 
Q 2513 3716 2298 3927 
Q 2084 4138 1766 4138 
Q 1444 4138 1231 3931 
Q 1019 3725 1019 3438 
z
M 838 1322 
Q 838 1081 952 856 
Q 1066 631 1291 507 
Q 1516 384 1775 384 
Q 2178 384 2440 643 
Q 2703 903 2703 1303 
Q 2703 1709 2433 1975 
Q 2163 2241 1756 2241 
Q 1359 2241 1098 1978 
Q 838 1716 838 1322 
z
" transform="scale(0.015625)"/>
       </defs>
       <use xlink:href="#ArialMT-32"/>
       <use xlink:href="#ArialMT-30" transform="translate(55.615234 0)"/>
       <use xlink:href="#ArialMT-30" transform="translate(111.230469 0)"/>
       <use xlink:href="#ArialMT-38" transform="translate(166.845703 0)"/>
      </g>
     </g>
    </g>
    <g id="xtick_10">
     <g id="line2d_10">
      <path d="M 401.163272 317.72 
L 401.163272 25.49625 
" clip-path="url(#peec419ff93)" style="fill: none; stroke: #ffffff; stroke-width: 0.8; stroke-linecap: round"/>
     </g>
     <g id="text_10">
      <!-- 2009 -->
      <g style="fill: #262626" transform="translate(390.041397 331.877812) scale(0.1 -0.1)">
       <defs>
        <path id="ArialMT-39" d="M 350 1059 
L 891 1109 
Q 959 728 1153 556 
Q 1347 384 1650 384 
Q 1909 384 2104 503 
Q 2300 622 2425 820 
Q 2550 1019 2634 1356 
Q 2719 1694 2719 2044 
Q 2719 2081 2716 2156 
Q 2547 1888 2255 1720 
Q 1963 1553 1622 1553 
Q 1053 1553 659 1965 
Q 266 2378 266 3053 
Q 266 3750 677 4175 
Q 1088 4600 1706 4600 
Q 2153 4600 2523 4359 
Q 2894 4119 3086 3673 
Q 3278 3228 3278 2384 
Q 3278 1506 3087 986 
Q 2897 466 2520 194 
Q 2144 -78 1638 -78 
Q 1100 -78 759 220 
Q 419 519 350 1059 
z
M 2653 3081 
Q 2653 3566 2395 3850 
Q 2138 4134 1775 4134 
Q 1400 4134 1122 3828 
Q 844 3522 844 3034 
Q 844 2597 1108 2323 
Q 1372 2050 1759 2050 
Q 2150 2050 2401 2323 
Q 2653 2597 2653 3081 
z
" transform="scale(0.015625)"/>
       </defs>
       <use xlink:href="#ArialMT-32"/>
       <use xlink:href="#ArialMT-30" transform="translate(55.615234 0)"/>
       <use xlink:href="#ArialMT-30" transform="translate(111.230469 0)"/>
       <use xlink:href="#ArialMT-39" transform="translate(166.845703 0)"/>
      </g>
     </g>
    </g>
    <g id="xtick_11">
     <g id="line2d_11">
      <path d="M 438.304689 317.72 
L 438.304689 25.49625 
" clip-path="url(#peec419ff93)" style="fill: none; stroke: #ffffff; stroke-width: 0.8; stroke-linecap: round"/>
     </g>
     <g id="text_11">
      <!-- 2010 -->
      <g style="fill: #262626" transform="translate(427.182814 331.877812) scale(0.1 -0.1)">
       <use xlink:href="#ArialMT-32"/>
       <use xlink:href="#ArialMT-30" transform="translate(55.615234 0)"/>
       <use xlink:href="#ArialMT-31" transform="translate(111.230469 0)"/>
       <use xlink:href="#ArialMT-30" transform="translate(166.845703 0)"/>
      </g>
     </g>
    </g>
   </g>
   <g id="matplotlib.axis_2">
    <g id="ytick_1">
     <g id="line2d_12">
      <path d="M 48.62 291.332149 
L 443.85555 291.332149 
" clip-path="url(#peec419ff93)" style="fill: none; stroke: #ffffff; stroke-width: 0.8; stroke-linecap: round"/>
     </g>
     <g id="text_12">
      <!-- 0 -->
      <g style="fill: #262626" transform="translate(36.059063 294.911055) scale(0.1 -0.1)">
       <use xlink:href="#ArialMT-30"/>
      </g>
     </g>
    </g>
    <g id="ytick_2">
     <g id="line2d_13">
      <path d="M 48.62 242.811308 
L 443.85555 242.811308 
" clip-path="url(#peec419ff93)" style="fill: none; stroke: #ffffff; stroke-width: 0.8; stroke-linecap: round"/>
     </g>
     <g id="text_13">
      <!-- 100 -->
      <g style="fill: #262626" transform="translate(24.937188 246.390215) scale(0.1 -0.1)">
       <use xlink:href="#ArialMT-31"/>
       <use xlink:href="#ArialMT-30" transform="translate(55.615234 0)"/>
       <use xlink:href="#ArialMT-30" transform="translate(111.230469 0)"/>
      </g>
     </g>
    </g>
    <g id="ytick_3">
     <g id="line2d_14">
      <path d="M 48.62 194.290468 
L 443.85555 194.290468 
" clip-path="url(#peec419ff93)" style="fill: none; stroke: #ffffff; stroke-width: 0.8; stroke-linecap: round"/>
     </g>
     <g id="text_14">
      <!-- 200 -->
      <g style="fill: #262626" transform="translate(24.937188 197.869374) scale(0.1 -0.1)">
       <use xlink:href="#ArialMT-32"/>
       <use xlink:href="#ArialMT-30" transform="translate(55.615234 0)"/>
       <use xlink:href="#ArialMT-30" transform="translate(111.230469 0)"/>
      </g>
     </g>
    </g>
    <g id="ytick_4">
     <g id="line2d_15">
      <path d="M 48.62 145.769627 
L 443.85555 145.769627 
" clip-path="url(#peec419ff93)" style="fill: none; stroke: #ffffff; stroke-width: 0.8; stroke-linecap: round"/>
     </g>
     <g id="text_15">
      <!-- 300 -->
      <g style="fill: #262626" transform="translate(24.937188 149.348533) scale(0.1 -0.1)">
       <use xlink:href="#ArialMT-33"/>
       <use xlink:href="#ArialMT-30" transform="translate(55.615234 0)"/>
       <use xlink:href="#ArialMT-30" transform="translate(111.230469 0)"/>
      </g>
     </g>
    </g>
    <g id="ytick_5">
     <g id="line2d_16">
      <path d="M 48.62 97.248786 
L 443.85555 97.248786 
" clip-path="url(#peec419ff93)" style="fill: none; stroke: #ffffff; stroke-width: 0.8; stroke-linecap: round"/>
     </g>
     <g id="text_16">
      <!-- 400 -->
      <g style="fill: #262626" transform="translate(24.937188 100.827693) scale(0.1 -0.1)">
       <use xlink:href="#ArialMT-34"/>
       <use xlink:href="#ArialMT-30" transform="translate(55.615234 0)"/>
       <use xlink:href="#ArialMT-30" transform="translate(111.230469 0)"/>
      </g>
     </g>
    </g>
    <g id="ytick_6">
     <g id="line2d_17">
      <path d="M 48.62 48.727946 
L 443.85555 48.727946 
" clip-path="url(#peec419ff93)" style="fill: none; stroke: #ffffff; stroke-width: 0.8; stroke-linecap: round"/>
     </g>
     <g id="text_17">
      <!-- 500 -->
      <g style="fill: #262626" transform="translate(24.937188 52.306852) scale(0.1 -0.1)">
       <use xlink:href="#ArialMT-35"/>
       <use xlink:href="#ArialMT-30" transform="translate(55.615234 0)"/>
       <use xlink:href="#ArialMT-30" transform="translate(111.230469 0)"/>
      </g>
     </g>
    </g>
    <g id="text_18">
     <!-- Elo -->
     <g style="fill: #262626" transform="translate(18.949688 178.834687) rotate(-90) scale(0.1 -0.1)">
      <defs>
       <path id="ArialMT-45" d="M 506 0 
L 506 4581 
L 3819 4581 
L 3819 4041 
L 1113 4041 
L 1113 2638 
L 3647 2638 
L 3647 2100 
L 1113 2100 
L 1113 541 
L 3925 541 
L 3925 0 
L 506 0 
z
" transform="scale(0.015625)"/>
       <path id="ArialMT-6c" d="M 409 0 
L 409 4581 
L 972 4581 
L 972 0 
L 409 0 
z
" transform="scale(0.015625)"/>
       <path id="ArialMT-6f" d="M 213 1659 
Q 213 2581 725 3025 
Q 1153 3394 1769 3394 
Q 2453 3394 2887 2945 
Q 3322 2497 3322 1706 
Q 3322 1066 3130 698 
Q 2938 331 2570 128 
Q 2203 -75 1769 -75 
Q 1072 -75 642 372 
Q 213 819 213 1659 
z
M 791 1659 
Q 791 1022 1069 705 
Q 1347 388 1769 388 
Q 2188 388 2466 706 
Q 2744 1025 2744 1678 
Q 2744 2294 2464 2611 
Q 2184 2928 1769 2928 
Q 1347 2928 1069 2612 
Q 791 2297 791 1659 
z
" transform="scale(0.015625)"/>
      </defs>
      <use xlink:href="#ArialMT-45"/>
      <use xlink:href="#ArialMT-6c" transform="translate(66.699219 0)"/>
      <use xlink:href="#ArialMT-6f" transform="translate(88.916016 0)"/>
     </g>
    </g>
   </g>
   <g id="line2d_18">
    <path d="M 66.585252 110.512515 
L 72.690691 110.512515 
L 72.690691 116.101155 
L 78.897886 116.101155 
L 78.897886 101.063152 
L 82.052363 101.063152 
L 82.052363 71.903368 
L 97.62123 71.903368 
L 97.62123 61.450974 
L 103.828426 61.450974 
L 103.828426 61.588105 
L 109.832107 61.588105 
L 109.832107 79.142699 
L 116.039303 79.142699 
L 116.039303 89.733414 
L 119.193779 89.733414 
L 119.193779 104.292899 
L 134.762647 104.292899 
L 134.762647 120.299889 
L 146.973523 120.299889 
L 146.973523 107.696399 
L 150.128 107.696399 
L 150.128 48.41116 
L 153.180719 48.41116 
L 153.180719 63.901448 
L 156.335196 63.901448 
L 156.335196 78.128612 
L 171.904063 78.128612 
L 171.904063 93.314777 
L 174.956782 93.314777 
L 174.956782 96.587603 
L 184.11494 96.587603 
L 184.11494 69.60651 
L 190.322136 69.60651 
L 190.322136 78.364595 
L 193.476612 78.364595 
L 193.476612 58.180295 
L 209.04548 58.180295 
L 209.04548 38.779148 
L 212.098199 38.779148 
L 212.098199 51.179565 
L 221.358114 51.179565 
L 221.358114 58.5587 
L 227.565309 58.5587 
L 227.565309 71.084571 
L 230.719786 71.084571 
L 230.719786 86.827973 
L 246.288653 86.827973 
L 246.288653 104.236663 
L 249.341373 104.236663 
L 249.341373 133.236923 
L 258.49953 133.236923 
L 258.49953 151.748006 
L 264.706726 151.748006 
L 264.706726 164.440322 
L 267.861202 164.440322 
L 267.861202 156.910079 
L 277.222874 156.910079 
L 277.222874 167.179762 
L 283.43007 167.179762 
L 283.43007 182.035194 
L 289.637265 182.035194 
L 289.637265 178.910478 
L 292.791742 178.910478 
L 292.791742 177.644805 
L 295.640947 177.644805 
L 295.640947 172.727029 
L 298.795423 172.727029 
L 298.795423 115.216574 
L 305.002619 115.216574 
L 305.002619 112.260094 
L 314.364291 112.260094 
L 314.364291 123.350694 
L 317.41701 123.350694 
L 317.41701 91.646543 
L 326.778682 91.646543 
L 326.778682 101.360693 
L 329.933158 101.360693 
L 329.933158 114.392046 
L 332.782363 114.392046 
L 332.782363 148.657281 
L 338.989559 148.657281 
L 338.989559 160.336737 
L 342.144035 160.336737 
L 342.144035 171.921403 
L 351.505707 171.921403 
L 351.505707 186.009691 
L 357.712903 186.009691 
L 357.712903 200.975009 
L 360.765622 200.975009 
L 360.765622 209.195158 
L 363.920098 209.195158 
L 363.920098 188.267069 
L 367.074575 188.267069 
L 367.074575 204.550021 
L 370.025537 204.550021 
L 370.025537 201.449591 
L 373.180013 201.449591 
L 373.180013 186.809822 
L 379.387209 186.809822 
L 379.387209 181.693243 
L 388.748881 181.693243 
L 388.748881 171.989102 
L 394.956076 171.989102 
L 394.956076 154.637751 
L 401.163272 154.637751 
L 401.163272 147.482139 
L 404.317749 147.482139 
L 404.317749 151.03589 
L 407.166953 151.03589 
L 407.166953 143.439708 
L 410.32143 143.439708 
L 410.32143 181.971749 
L 425.890297 181.971749 
L 425.890297 110.207596 
L 425.890297 110.207596 
" clip-path="url(#peec419ff93)" style="fill: none; stroke-dasharray: 5.55,2.4; stroke-dashoffset: 0; stroke: #dc143c; stroke-width: 1.5"/>
   </g>
   <g id="line2d_19">
    <path d="M 66.585252 97.337728 
L 72.690691 97.337728 
L 72.690691 107.416065 
L 78.897886 107.416065 
L 78.897886 79.815495 
L 82.052363 79.815495 
L 82.052363 99.126373 
L 97.62123 99.126373 
L 97.62123 93.289996 
L 103.828426 93.289996 
L 103.828426 63.644776 
L 109.832107 63.644776 
L 109.832107 80.199826 
L 116.039303 80.199826 
L 116.039303 97.719308 
L 119.193779 97.719308 
L 119.193779 71.010714 
L 134.762647 71.010714 
L 134.762647 82.097678 
L 146.973523 82.097678 
L 146.973523 93.101127 
L 150.128 93.101127 
L 150.128 92.112955 
L 153.180719 92.112955 
L 153.180719 110.492307 
L 156.335196 110.492307 
L 156.335196 98.444567 
L 171.904063 98.444567 
L 171.904063 104.354347 
L 174.956782 104.354347 
L 174.956782 112.086142 
L 184.11494 112.086142 
L 184.11494 123.000419 
L 190.322136 123.000419 
L 190.322136 129.714601 
L 193.476612 129.714601 
L 193.476612 145.559624 
L 209.04548 145.559624 
L 209.04548 152.86449 
L 212.098199 152.86449 
L 212.098199 134.128486 
L 221.358114 134.128486 
L 221.358114 118.400754 
L 227.565309 118.400754 
L 227.565309 117.442069 
L 230.719786 117.442069 
L 230.719786 89.361404 
L 246.288653 89.361404 
L 246.288653 59.300175 
L 249.341373 59.300175 
L 249.341373 78.515068 
L 258.49953 78.515068 
L 258.49953 68.035002 
L 264.706726 68.035002 
L 264.706726 97.462086 
L 267.861202 97.462086 
L 267.861202 88.682215 
L 277.222874 88.682215 
L 277.222874 107.142835 
L 283.43007 107.142835 
L 283.43007 108.885234 
L 289.637265 108.885234 
L 289.637265 126.501169 
L 292.791742 126.501169 
L 292.791742 115.325309 
L 298.795423 115.325309 
L 298.795423 145.356747 
L 305.002619 145.356747 
L 305.002619 129.618593 
L 314.364291 129.618593 
L 314.364291 114.13047 
L 320.571486 114.13047 
L 320.571486 98.153095 
L 326.778682 98.153095 
L 326.778682 101.629118 
L 329.933158 101.629118 
L 329.933158 74.036701 
L 332.782363 74.036701 
L 332.782363 92.630067 
L 338.989559 92.630067 
L 338.989559 95.210618 
L 342.144035 95.210618 
L 342.144035 87.996119 
L 351.505707 87.996119 
L 351.505707 107.067423 
L 357.712903 107.067423 
L 357.712903 81.443826 
L 360.765622 81.443826 
L 360.765622 89.002239 
L 363.920098 89.002239 
L 363.920098 63.156261 
L 367.074575 63.156261 
L 367.074575 76.77053 
L 370.025537 76.77053 
L 370.025537 67.595812 
L 373.180013 67.595812 
L 373.180013 82.933315 
L 379.387209 82.933315 
L 379.387209 60.604171 
L 388.748881 60.604171 
L 388.748881 53.747402 
L 394.956076 53.747402 
L 394.956076 57.359858 
L 398.008796 57.359858 
L 398.008796 76.35553 
L 401.163272 76.35553 
L 401.163272 88.520542 
L 404.317749 88.520542 
L 404.317749 56.704283 
L 407.166953 56.704283 
L 407.166953 70.114982 
L 425.890297 70.114982 
L 425.890297 47.953391 
L 425.890297 47.953391 
" clip-path="url(#peec419ff93)" style="fill: none; stroke-dasharray: 9.6,2.4,1.5,2.4; stroke-dashoffset: 0; stroke: #800080; stroke-width: 1.5"/>
   </g>
   <g id="line2d_20">
    <path d="M 109.832107 294.032437 
L 112.986583 294.032437 
L 112.986583 304.437102 
L 146.973523 304.437102 
L 146.973523 244.859771 
L 156.335196 244.859771 
L 156.335196 249.224554 
L 171.904063 249.224554 
L 171.904063 252.541604 
L 174.956782 252.541604 
L 174.956782 255.268058 
L 181.265735 255.268058 
L 181.265735 209.931764 
L 193.476612 209.931764 
L 193.476612 216.109796 
L 209.04548 216.109796 
L 209.04548 182.71161 
L 212.098199 182.71161 
L 212.098199 168.738076 
L 221.358114 168.738076 
L 221.358114 178.652763 
L 227.565309 178.652763 
L 227.565309 186.715562 
L 246.288653 186.715562 
L 246.288653 206.7938 
L 249.341373 206.7938 
L 249.341373 175.584006 
L 252.495849 175.584006 
L 252.495849 162.503149 
L 255.650326 162.503149 
L 255.650326 168.924307 
L 258.49953 168.924307 
L 258.49953 180.383422 
L 261.654007 180.383422 
L 261.654007 165.285761 
L 264.706726 165.285761 
L 264.706726 133.30668 
L 267.861202 133.30668 
L 267.861202 118.476866 
L 277.222874 118.476866 
L 277.222874 125.250088 
L 283.43007 125.250088 
L 283.43007 114.694008 
L 289.637265 114.694008 
L 289.637265 123.254981 
L 292.791742 123.254981 
L 292.791742 123.931164 
L 295.640947 123.931164 
L 295.640947 132.210689 
L 298.795423 132.210689 
L 298.795423 134.397427 
L 305.002619 134.397427 
L 305.002619 132.135755 
L 314.364291 132.135755 
L 314.364291 131.142584 
L 317.41701 131.142584 
L 317.41701 140.017535 
L 320.571486 140.017535 
L 320.571486 149.14004 
L 326.778682 149.14004 
L 326.778682 161.843659 
L 329.933158 161.843659 
L 329.933158 163.848476 
L 332.782363 163.848476 
L 332.782363 118.732744 
L 338.989559 118.732744 
L 338.989559 119.784706 
L 342.144035 119.784706 
L 342.144035 117.494455 
L 351.505707 117.494455 
L 351.505707 132.539243 
L 357.712903 132.539243 
L 357.712903 112.044086 
L 360.765622 112.044086 
L 360.765622 102.4416 
L 363.920098 102.4416 
L 363.920098 99.278674 
L 367.074575 99.278674 
L 367.074575 71.78421 
L 370.025537 71.78421 
L 370.025537 68.369215 
L 373.180013 68.369215 
L 373.180013 56.760837 
L 379.387209 56.760837 
L 379.387209 79.766928 
L 388.748881 79.766928 
L 388.748881 87.658179 
L 394.956076 87.658179 
L 394.956076 125.79927 
L 398.008796 125.79927 
L 398.008796 143.493388 
L 401.163272 143.493388 
L 401.163272 103.366294 
L 404.317749 103.366294 
L 404.317749 131.029335 
L 407.166953 131.029335 
L 407.166953 130.73769 
L 425.890297 130.73769 
L 425.890297 155.07418 
L 425.890297 155.07418 
" clip-path="url(#peec419ff93)" style="fill: none; stroke-dasharray: 1.5,2.475; stroke-dashoffset: 0; stroke: #00008b; stroke-width: 1.5"/>
   </g>
   <g id="patch_3">
    <path d="M 48.62 317.72 
L 48.62 25.49625 
" style="fill: none; stroke: #ffffff; stroke-width: 0.8; stroke-linejoin: miter; stroke-linecap: square"/>
   </g>
   <g id="patch_4">
    <path d="M 443.85555 317.72 
L 443.85555 25.49625 
" style="fill: none; stroke: #ffffff; stroke-width: 0.8; stroke-linejoin: miter; stroke-linecap: square"/>
   </g>
   <g id="patch_5">
    <path d="M 48.62 317.72 
L 443.85555 317.72 
" style="fill: none; stroke: #ffffff; stroke-width: 0.8; stroke-linejoin: miter; stroke-linecap: square"/>
   </g>
   <g id="patch_6">
    <path d="M 48.62 25.49625 
L 443.85555 25.49625 
" style="fill: none; stroke: #ffffff; stroke-width: 0.8; stroke-linejoin: miter; stroke-linecap: square"/>
   </g>
   <g id="text_19">
    <!-- Highest rated players 2000–2009 -->
    <g style="fill: #262626" transform="translate(157.850275 19.49625) scale(0.12 -0.12)">
     <defs>
      <path id="ArialMT-48" d="M 513 0 
L 513 4581 
L 1119 4581 
L 1119 2700 
L 3500 2700 
L 3500 4581 
L 4106 4581 
L 4106 0 
L 3500 0 
L 3500 2159 
L 1119 2159 
L 1119 0 
L 513 0 
z
" transform="scale(0.015625)"/>
      <path id="ArialMT-69" d="M 425 3934 
L 425 4581 
L 988 4581 
L 988 3934 
L 425 3934 
z
M 425 0 
L 425 3319 
L 988 3319 
L 988 0 
L 425 0 
z
" transform="scale(0.015625)"/>
      <path id="ArialMT-67" d="M 319 -275 
L 866 -356 
Q 900 -609 1056 -725 
Q 1266 -881 1628 -881 
Q 2019 -881 2231 -725 
Q 2444 -569 2519 -288 
Q 2563 -116 2559 434 
Q 2191 0 1641 0 
Q 956 0 581 494 
Q 206 988 206 1678 
Q 206 2153 378 2554 
Q 550 2956 876 3175 
Q 1203 3394 1644 3394 
Q 2231 3394 2613 2919 
L 2613 3319 
L 3131 3319 
L 3131 450 
Q 3131 -325 2973 -648 
Q 2816 -972 2473 -1159 
Q 2131 -1347 1631 -1347 
Q 1038 -1347 672 -1080 
Q 306 -813 319 -275 
z
M 784 1719 
Q 784 1066 1043 766 
Q 1303 466 1694 466 
Q 2081 466 2343 764 
Q 2606 1063 2606 1700 
Q 2606 2309 2336 2618 
Q 2066 2928 1684 2928 
Q 1309 2928 1046 2623 
Q 784 2319 784 1719 
z
" transform="scale(0.015625)"/>
      <path id="ArialMT-68" d="M 422 0 
L 422 4581 
L 984 4581 
L 984 2938 
Q 1378 3394 1978 3394 
Q 2347 3394 2619 3248 
Q 2891 3103 3008 2847 
Q 3125 2591 3125 2103 
L 3125 0 
L 2563 0 
L 2563 2103 
Q 2563 2525 2380 2717 
Q 2197 2909 1863 2909 
Q 1613 2909 1392 2779 
Q 1172 2650 1078 2428 
Q 984 2206 984 1816 
L 984 0 
L 422 0 
z
" transform="scale(0.015625)"/>
      <path id="ArialMT-65" d="M 2694 1069 
L 3275 997 
Q 3138 488 2766 206 
Q 2394 -75 1816 -75 
Q 1088 -75 661 373 
Q 234 822 234 1631 
Q 234 2469 665 2931 
Q 1097 3394 1784 3394 
Q 2450 3394 2872 2941 
Q 3294 2488 3294 1666 
Q 3294 1616 3291 1516 
L 816 1516 
Q 847 969 1125 678 
Q 1403 388 1819 388 
Q 2128 388 2347 550 
Q 2566 713 2694 1069 
z
M 847 1978 
L 2700 1978 
Q 2663 2397 2488 2606 
Q 2219 2931 1791 2931 
Q 1403 2931 1139 2672 
Q 875 2413 847 1978 
z
" transform="scale(0.015625)"/>
      <path id="ArialMT-73" d="M 197 991 
L 753 1078 
Q 800 744 1014 566 
Q 1228 388 1613 388 
Q 2000 388 2187 545 
Q 2375 703 2375 916 
Q 2375 1106 2209 1216 
Q 2094 1291 1634 1406 
Q 1016 1563 777 1677 
Q 538 1791 414 1992 
Q 291 2194 291 2438 
Q 291 2659 392 2848 
Q 494 3038 669 3163 
Q 800 3259 1026 3326 
Q 1253 3394 1513 3394 
Q 1903 3394 2198 3281 
Q 2494 3169 2634 2976 
Q 2775 2784 2828 2463 
L 2278 2388 
Q 2241 2644 2061 2787 
Q 1881 2931 1553 2931 
Q 1166 2931 1000 2803 
Q 834 2675 834 2503 
Q 834 2394 903 2306 
Q 972 2216 1119 2156 
Q 1203 2125 1616 2013 
Q 2213 1853 2448 1751 
Q 2684 1650 2818 1456 
Q 2953 1263 2953 975 
Q 2953 694 2789 445 
Q 2625 197 2315 61 
Q 2006 -75 1616 -75 
Q 969 -75 630 194 
Q 291 463 197 991 
z
" transform="scale(0.015625)"/>
      <path id="ArialMT-74" d="M 1650 503 
L 1731 6 
Q 1494 -44 1306 -44 
Q 1000 -44 831 53 
Q 663 150 594 308 
Q 525 466 525 972 
L 525 2881 
L 113 2881 
L 113 3319 
L 525 3319 
L 525 4141 
L 1084 4478 
L 1084 3319 
L 1650 3319 
L 1650 2881 
L 1084 2881 
L 1084 941 
Q 1084 700 1114 631 
Q 1144 563 1211 522 
Q 1278 481 1403 481 
Q 1497 481 1650 503 
z
" transform="scale(0.015625)"/>
      <path id="ArialMT-20" transform="scale(0.015625)"/>
      <path id="ArialMT-72" d="M 416 0 
L 416 3319 
L 922 3319 
L 922 2816 
Q 1116 3169 1280 3281 
Q 1444 3394 1641 3394 
Q 1925 3394 2219 3213 
L 2025 2691 
Q 1819 2813 1613 2813 
Q 1428 2813 1281 2702 
Q 1134 2591 1072 2394 
Q 978 2094 978 1738 
L 978 0 
L 416 0 
z
" transform="scale(0.015625)"/>
      <path id="ArialMT-61" d="M 2588 409 
Q 2275 144 1986 34 
Q 1697 -75 1366 -75 
Q 819 -75 525 192 
Q 231 459 231 875 
Q 231 1119 342 1320 
Q 453 1522 633 1644 
Q 813 1766 1038 1828 
Q 1203 1872 1538 1913 
Q 2219 1994 2541 2106 
Q 2544 2222 2544 2253 
Q 2544 2597 2384 2738 
Q 2169 2928 1744 2928 
Q 1347 2928 1158 2789 
Q 969 2650 878 2297 
L 328 2372 
Q 403 2725 575 2942 
Q 747 3159 1072 3276 
Q 1397 3394 1825 3394 
Q 2250 3394 2515 3294 
Q 2781 3194 2906 3042 
Q 3031 2891 3081 2659 
Q 3109 2516 3109 2141 
L 3109 1391 
Q 3109 606 3145 398 
Q 3181 191 3288 0 
L 2700 0 
Q 2613 175 2588 409 
z
M 2541 1666 
Q 2234 1541 1622 1453 
Q 1275 1403 1131 1340 
Q 988 1278 909 1158 
Q 831 1038 831 891 
Q 831 666 1001 516 
Q 1172 366 1500 366 
Q 1825 366 2078 508 
Q 2331 650 2450 897 
Q 2541 1088 2541 1459 
L 2541 1666 
z
" transform="scale(0.015625)"/>
      <path id="ArialMT-64" d="M 2575 0 
L 2575 419 
Q 2259 -75 1647 -75 
Q 1250 -75 917 144 
Q 584 363 401 755 
Q 219 1147 219 1656 
Q 219 2153 384 2558 
Q 550 2963 881 3178 
Q 1213 3394 1622 3394 
Q 1922 3394 2156 3267 
Q 2391 3141 2538 2938 
L 2538 4581 
L 3097 4581 
L 3097 0 
L 2575 0 
z
M 797 1656 
Q 797 1019 1065 703 
Q 1334 388 1700 388 
Q 2069 388 2326 689 
Q 2584 991 2584 1609 
Q 2584 2291 2321 2609 
Q 2059 2928 1675 2928 
Q 1300 2928 1048 2622 
Q 797 2316 797 1656 
z
" transform="scale(0.015625)"/>
      <path id="ArialMT-70" d="M 422 -1272 
L 422 3319 
L 934 3319 
L 934 2888 
Q 1116 3141 1344 3267 
Q 1572 3394 1897 3394 
Q 2322 3394 2647 3175 
Q 2972 2956 3137 2557 
Q 3303 2159 3303 1684 
Q 3303 1175 3120 767 
Q 2938 359 2589 142 
Q 2241 -75 1856 -75 
Q 1575 -75 1351 44 
Q 1128 163 984 344 
L 984 -1272 
L 422 -1272 
z
M 931 1641 
Q 931 1000 1190 694 
Q 1450 388 1819 388 
Q 2194 388 2461 705 
Q 2728 1022 2728 1688 
Q 2728 2322 2467 2637 
Q 2206 2953 1844 2953 
Q 1484 2953 1207 2617 
Q 931 2281 931 1641 
z
" transform="scale(0.015625)"/>
      <path id="ArialMT-79" d="M 397 -1278 
L 334 -750 
Q 519 -800 656 -800 
Q 844 -800 956 -737 
Q 1069 -675 1141 -563 
Q 1194 -478 1313 -144 
Q 1328 -97 1363 -6 
L 103 3319 
L 709 3319 
L 1400 1397 
Q 1534 1031 1641 628 
Q 1738 1016 1872 1384 
L 2581 3319 
L 3144 3319 
L 1881 -56 
Q 1678 -603 1566 -809 
Q 1416 -1088 1222 -1217 
Q 1028 -1347 759 -1347 
Q 597 -1347 397 -1278 
z
" transform="scale(0.015625)"/>
      <path id="ArialMT-2013" d="M -13 1431 
L -13 1884 
L 3547 1884 
L 3547 1431 
L -13 1431 
z
" transform="scale(0.015625)"/>
     </defs>
     <use xlink:href="#ArialMT-48"/>
     <use xlink:href="#ArialMT-69" transform="translate(72.216797 0)"/>
     <use xlink:href="#ArialMT-67" transform="translate(94.433594 0)"/>
     <use xlink:href="#ArialMT-68" transform="translate(150.048828 0)"/>
     <use xlink:href="#ArialMT-65" transform="translate(205.664062 0)"/>
     <use xlink:href="#ArialMT-73" transform="translate(261.279297 0)"/>
     <use xlink:href="#ArialMT-74" transform="translate(311.279297 0)"/>
     <use xlink:href="#ArialMT-20" transform="translate(339.0625 0)"/>
     <use xlink:href="#ArialMT-72" transform="translate(366.845703 0)"/>
     <use xlink:href="#ArialMT-61" transform="translate(400.146484 0)"/>
     <use xlink:href="#ArialMT-74" transform="translate(455.761719 0)"/>
     <use xlink:href="#ArialMT-65" transform="translate(483.544922 0)"/>
     <use xlink:href="#ArialMT-64" transform="translate(539.160156 0)"/>
     <use xlink:href="#ArialMT-20" transform="translate(594.775391 0)"/>
     <use xlink:href="#ArialMT-70" transform="translate(622.558594 0)"/>
     <use xlink:href="#ArialMT-6c" transform="translate(678.173828 0)"/>
     <use xlink:href="#ArialMT-61" transform="translate(700.390625 0)"/>
     <use xlink:href="#ArialMT-79" transform="translate(756.005859 0)"/>
     <use xlink:href="#ArialMT-65" transform="translate(806.005859 0)"/>
     <use xlink:href="#ArialMT-72" transform="translate(861.621094 0)"/>
     <use xlink:href="#ArialMT-73" transform="translate(894.921875 0)"/>
     <use xlink:href="#ArialMT-20" transform="translate(944.921875 0)"/>
     <use xlink:href="#ArialMT-32" transform="translate(972.705078 0)"/>
     <use xlink:href="#ArialMT-30" transform="translate(1028.320312 0)"/>
     <use xlink:href="#ArialMT-30" transform="translate(1083.935547 0)"/>
     <use xlink:href="#ArialMT-30" transform="translate(1139.550781 0)"/>
     <use xlink:href="#ArialMT-2013" transform="translate(1195.166016 0)"/>
     <use xlink:href="#ArialMT-32" transform="translate(1250.78125 0)"/>
     <use xlink:href="#ArialMT-30" transform="translate(1306.396484 0)"/>
     <use xlink:href="#ArialMT-30" transform="translate(1362.011719 0)"/>
     <use xlink:href="#ArialMT-39" transform="translate(1417.626953 0)"/>
    </g>
   </g>
   <g id="legend_1">
    <g id="patch_7">
     <path d="M 275.116487 312.72 
L 436.85555 312.72 
Q 438.85555 312.72 438.85555 310.72 
L 438.85555 268.560625 
Q 438.85555 266.560625 436.85555 266.560625 
L 275.116487 266.560625 
Q 273.116487 266.560625 273.116487 268.560625 
L 273.116487 310.72 
Q 273.116487 312.72 275.116487 312.72 
z
" style="fill: #eaeaf2; opacity: 0.8; stroke: #cccccc; stroke-linejoin: miter"/>
    </g>
    <g id="line2d_21">
     <path d="M 277.116487 274.340312 
L 287.116487 274.340312 
L 287.116487 274.340312 
L 297.116487 274.340312 
L 297.116487 274.340312 
" style="fill: none; stroke-dasharray: 5.55,2.4; stroke-dashoffset: 0; stroke: #dc143c; stroke-width: 1.5"/>
    </g>
    <g id="text_20">
     <!-- Mark Williams (max: 521) -->
     <g style="fill: #262626" transform="translate(305.116487 277.840312) scale(0.1 -0.1)">
      <defs>
       <path id="ArialMT-4d" d="M 475 0 
L 475 4581 
L 1388 4581 
L 2472 1338 
Q 2622 884 2691 659 
Q 2769 909 2934 1394 
L 4031 4581 
L 4847 4581 
L 4847 0 
L 4263 0 
L 4263 3834 
L 2931 0 
L 2384 0 
L 1059 3900 
L 1059 0 
L 475 0 
z
" transform="scale(0.015625)"/>
       <path id="ArialMT-6b" d="M 425 0 
L 425 4581 
L 988 4581 
L 988 1969 
L 2319 3319 
L 3047 3319 
L 1778 2088 
L 3175 0 
L 2481 0 
L 1384 1697 
L 988 1316 
L 988 0 
L 425 0 
z
" transform="scale(0.015625)"/>
       <path id="ArialMT-57" d="M 1294 0 
L 78 4581 
L 700 4581 
L 1397 1578 
Q 1509 1106 1591 641 
Q 1766 1375 1797 1488 
L 2669 4581 
L 3400 4581 
L 4056 2263 
Q 4303 1400 4413 641 
Q 4500 1075 4641 1638 
L 5359 4581 
L 5969 4581 
L 4713 0 
L 4128 0 
L 3163 3491 
Q 3041 3928 3019 4028 
Q 2947 3713 2884 3491 
L 1913 0 
L 1294 0 
z
" transform="scale(0.015625)"/>
       <path id="ArialMT-6d" d="M 422 0 
L 422 3319 
L 925 3319 
L 925 2853 
Q 1081 3097 1340 3245 
Q 1600 3394 1931 3394 
Q 2300 3394 2536 3241 
Q 2772 3088 2869 2813 
Q 3263 3394 3894 3394 
Q 4388 3394 4653 3120 
Q 4919 2847 4919 2278 
L 4919 0 
L 4359 0 
L 4359 2091 
Q 4359 2428 4304 2576 
Q 4250 2725 4106 2815 
Q 3963 2906 3769 2906 
Q 3419 2906 3187 2673 
Q 2956 2441 2956 1928 
L 2956 0 
L 2394 0 
L 2394 2156 
Q 2394 2531 2256 2718 
Q 2119 2906 1806 2906 
Q 1569 2906 1367 2781 
Q 1166 2656 1075 2415 
Q 984 2175 984 1722 
L 984 0 
L 422 0 
z
" transform="scale(0.015625)"/>
       <path id="ArialMT-28" d="M 1497 -1347 
Q 1031 -759 709 28 
Q 388 816 388 1659 
Q 388 2403 628 3084 
Q 909 3875 1497 4659 
L 1900 4659 
Q 1522 4009 1400 3731 
Q 1209 3300 1100 2831 
Q 966 2247 966 1656 
Q 966 153 1900 -1347 
L 1497 -1347 
z
" transform="scale(0.015625)"/>
       <path id="ArialMT-78" d="M 47 0 
L 1259 1725 
L 138 3319 
L 841 3319 
L 1350 2541 
Q 1494 2319 1581 2169 
Q 1719 2375 1834 2534 
L 2394 3319 
L 3066 3319 
L 1919 1756 
L 3153 0 
L 2463 0 
L 1781 1031 
L 1600 1309 
L 728 0 
L 47 0 
z
" transform="scale(0.015625)"/>
       <path id="ArialMT-3a" d="M 578 2678 
L 578 3319 
L 1219 3319 
L 1219 2678 
L 578 2678 
z
M 578 0 
L 578 641 
L 1219 641 
L 1219 0 
L 578 0 
z
" transform="scale(0.015625)"/>
       <path id="ArialMT-29" d="M 791 -1347 
L 388 -1347 
Q 1322 153 1322 1656 
Q 1322 2244 1188 2822 
Q 1081 3291 891 3722 
Q 769 4003 388 4659 
L 791 4659 
Q 1378 3875 1659 3084 
Q 1900 2403 1900 1659 
Q 1900 816 1576 28 
Q 1253 -759 791 -1347 
z
" transform="scale(0.015625)"/>
      </defs>
      <use xlink:href="#ArialMT-4d"/>
      <use xlink:href="#ArialMT-61" transform="translate(83.300781 0)"/>
      <use xlink:href="#ArialMT-72" transform="translate(138.916016 0)"/>
      <use xlink:href="#ArialMT-6b" transform="translate(172.216797 0)"/>
      <use xlink:href="#ArialMT-20" transform="translate(222.216797 0)"/>
      <use xlink:href="#ArialMT-57" transform="translate(250 0)"/>
      <use xlink:href="#ArialMT-69" transform="translate(344.384766 0)"/>
      <use xlink:href="#ArialMT-6c" transform="translate(366.601562 0)"/>
      <use xlink:href="#ArialMT-6c" transform="translate(388.818359 0)"/>
      <use xlink:href="#ArialMT-69" transform="translate(411.035156 0)"/>
      <use xlink:href="#ArialMT-61" transform="translate(433.251953 0)"/>
      <use xlink:href="#ArialMT-6d" transform="translate(488.867188 0)"/>
      <use xlink:href="#ArialMT-73" transform="translate(572.167969 0)"/>
      <use xlink:href="#ArialMT-20" transform="translate(622.167969 0)"/>
      <use xlink:href="#ArialMT-28" transform="translate(649.951172 0)"/>
      <use xlink:href="#ArialMT-6d" transform="translate(683.251953 0)"/>
      <use xlink:href="#ArialMT-61" transform="translate(766.552734 0)"/>
      <use xlink:href="#ArialMT-78" transform="translate(822.167969 0)"/>
      <use xlink:href="#ArialMT-3a" transform="translate(872.167969 0)"/>
      <use xlink:href="#ArialMT-20" transform="translate(899.951172 0)"/>
      <use xlink:href="#ArialMT-35" transform="translate(927.734375 0)"/>
      <use xlink:href="#ArialMT-32" transform="translate(983.349609 0)"/>
      <use xlink:href="#ArialMT-31" transform="translate(1038.964844 0)"/>
      <use xlink:href="#ArialMT-29" transform="translate(1094.580078 0)"/>
     </g>
    </g>
    <g id="line2d_22">
     <path d="M 277.116487 288.730937 
L 287.116487 288.730937 
L 287.116487 288.730937 
L 297.116487 288.730937 
L 297.116487 288.730937 
" style="fill: none; stroke-dasharray: 9.6,2.4,1.5,2.4; stroke-dashoffset: 0; stroke: #800080; stroke-width: 1.5"/>
    </g>
    <g id="text_21">
     <!-- Ronnie O'Sullivan (max: 502) -->
     <g style="fill: #262626" transform="translate(305.116487 292.230937) scale(0.1 -0.1)">
      <defs>
       <path id="ArialMT-52" d="M 503 0 
L 503 4581 
L 2534 4581 
Q 3147 4581 3465 4457 
Q 3784 4334 3975 4021 
Q 4166 3709 4166 3331 
Q 4166 2844 3850 2509 
Q 3534 2175 2875 2084 
Q 3116 1969 3241 1856 
Q 3506 1613 3744 1247 
L 4541 0 
L 3778 0 
L 3172 953 
Q 2906 1366 2734 1584 
Q 2563 1803 2427 1890 
Q 2291 1978 2150 2013 
Q 2047 2034 1813 2034 
L 1109 2034 
L 1109 0 
L 503 0 
z
M 1109 2559 
L 2413 2559 
Q 2828 2559 3062 2645 
Q 3297 2731 3419 2920 
Q 3541 3109 3541 3331 
Q 3541 3656 3305 3865 
Q 3069 4075 2559 4075 
L 1109 4075 
L 1109 2559 
z
" transform="scale(0.015625)"/>
       <path id="ArialMT-6e" d="M 422 0 
L 422 3319 
L 928 3319 
L 928 2847 
Q 1294 3394 1984 3394 
Q 2284 3394 2536 3286 
Q 2788 3178 2913 3003 
Q 3038 2828 3088 2588 
Q 3119 2431 3119 2041 
L 3119 0 
L 2556 0 
L 2556 2019 
Q 2556 2363 2490 2533 
Q 2425 2703 2258 2804 
Q 2091 2906 1866 2906 
Q 1506 2906 1245 2678 
Q 984 2450 984 1813 
L 984 0 
L 422 0 
z
" transform="scale(0.015625)"/>
       <path id="ArialMT-4f" d="M 309 2231 
Q 309 3372 921 4017 
Q 1534 4663 2503 4663 
Q 3138 4663 3647 4359 
Q 4156 4056 4423 3514 
Q 4691 2972 4691 2284 
Q 4691 1588 4409 1038 
Q 4128 488 3612 205 
Q 3097 -78 2500 -78 
Q 1853 -78 1343 234 
Q 834 547 571 1087 
Q 309 1628 309 2231 
z
M 934 2222 
Q 934 1394 1379 917 
Q 1825 441 2497 441 
Q 3181 441 3623 922 
Q 4066 1403 4066 2288 
Q 4066 2847 3877 3264 
Q 3688 3681 3323 3911 
Q 2959 4141 2506 4141 
Q 1863 4141 1398 3698 
Q 934 3256 934 2222 
z
" transform="scale(0.015625)"/>
       <path id="ArialMT-27" d="M 425 2959 
L 281 3816 
L 281 4581 
L 922 4581 
L 922 3816 
L 772 2959 
L 425 2959 
z
" transform="scale(0.015625)"/>
       <path id="ArialMT-53" d="M 288 1472 
L 859 1522 
Q 900 1178 1048 958 
Q 1197 738 1509 602 
Q 1822 466 2213 466 
Q 2559 466 2825 569 
Q 3091 672 3220 851 
Q 3350 1031 3350 1244 
Q 3350 1459 3225 1620 
Q 3100 1781 2813 1891 
Q 2628 1963 1997 2114 
Q 1366 2266 1113 2400 
Q 784 2572 623 2826 
Q 463 3081 463 3397 
Q 463 3744 659 4045 
Q 856 4347 1234 4503 
Q 1613 4659 2075 4659 
Q 2584 4659 2973 4495 
Q 3363 4331 3572 4012 
Q 3781 3694 3797 3291 
L 3216 3247 
Q 3169 3681 2898 3903 
Q 2628 4125 2100 4125 
Q 1550 4125 1298 3923 
Q 1047 3722 1047 3438 
Q 1047 3191 1225 3031 
Q 1400 2872 2139 2705 
Q 2878 2538 3153 2413 
Q 3553 2228 3743 1945 
Q 3934 1663 3934 1294 
Q 3934 928 3725 604 
Q 3516 281 3123 101 
Q 2731 -78 2241 -78 
Q 1619 -78 1198 103 
Q 778 284 539 648 
Q 300 1013 288 1472 
z
" transform="scale(0.015625)"/>
       <path id="ArialMT-75" d="M 2597 0 
L 2597 488 
Q 2209 -75 1544 -75 
Q 1250 -75 995 37 
Q 741 150 617 320 
Q 494 491 444 738 
Q 409 903 409 1263 
L 409 3319 
L 972 3319 
L 972 1478 
Q 972 1038 1006 884 
Q 1059 663 1231 536 
Q 1403 409 1656 409 
Q 1909 409 2131 539 
Q 2353 669 2445 892 
Q 2538 1116 2538 1541 
L 2538 3319 
L 3100 3319 
L 3100 0 
L 2597 0 
z
" transform="scale(0.015625)"/>
       <path id="ArialMT-76" d="M 1344 0 
L 81 3319 
L 675 3319 
L 1388 1331 
Q 1503 1009 1600 663 
Q 1675 925 1809 1294 
L 2547 3319 
L 3125 3319 
L 1869 0 
L 1344 0 
z
" transform="scale(0.015625)"/>
      </defs>
      <use xlink:href="#ArialMT-52"/>
      <use xlink:href="#ArialMT-6f" transform="translate(72.216797 0)"/>
      <use xlink:href="#ArialMT-6e" transform="translate(127.832031 0)"/>
      <use xlink:href="#ArialMT-6e" transform="translate(183.447266 0)"/>
      <use xlink:href="#ArialMT-69" transform="translate(239.0625 0)"/>
      <use xlink:href="#ArialMT-65" transform="translate(261.279297 0)"/>
      <use xlink:href="#ArialMT-20" transform="translate(316.894531 0)"/>
      <use xlink:href="#ArialMT-4f" transform="translate(344.677734 0)"/>
      <use xlink:href="#ArialMT-27" transform="translate(422.460938 0)"/>
      <use xlink:href="#ArialMT-53" transform="translate(441.552734 0)"/>
      <use xlink:href="#ArialMT-75" transform="translate(508.251953 0)"/>
      <use xlink:href="#ArialMT-6c" transform="translate(563.867188 0)"/>
      <use xlink:href="#ArialMT-6c" transform="translate(586.083984 0)"/>
      <use xlink:href="#ArialMT-69" transform="translate(608.300781 0)"/>
      <use xlink:href="#ArialMT-76" transform="translate(630.517578 0)"/>
      <use xlink:href="#ArialMT-61" transform="translate(680.517578 0)"/>
      <use xlink:href="#ArialMT-6e" transform="translate(736.132812 0)"/>
      <use xlink:href="#ArialMT-20" transform="translate(791.748047 0)"/>
      <use xlink:href="#ArialMT-28" transform="translate(819.53125 0)"/>
      <use xlink:href="#ArialMT-6d" transform="translate(852.832031 0)"/>
      <use xlink:href="#ArialMT-61" transform="translate(936.132812 0)"/>
      <use xlink:href="#ArialMT-78" transform="translate(991.748047 0)"/>
      <use xlink:href="#ArialMT-3a" transform="translate(1041.748047 0)"/>
      <use xlink:href="#ArialMT-20" transform="translate(1069.53125 0)"/>
      <use xlink:href="#ArialMT-35" transform="translate(1097.314453 0)"/>
      <use xlink:href="#ArialMT-30" transform="translate(1152.929688 0)"/>
      <use xlink:href="#ArialMT-32" transform="translate(1208.544922 0)"/>
      <use xlink:href="#ArialMT-29" transform="translate(1264.160156 0)"/>
     </g>
    </g>
    <g id="line2d_23">
     <path d="M 277.116487 303.115312 
L 287.116487 303.115312 
L 287.116487 303.115312 
L 297.116487 303.115312 
L 297.116487 303.115312 
" style="fill: none; stroke-dasharray: 1.5,2.475; stroke-dashoffset: 0; stroke: #00008b; stroke-width: 1.5"/>
    </g>
    <g id="text_22">
     <!-- Shaun Murphy (max: 483) -->
     <g style="fill: #262626" transform="translate(305.116487 306.615312) scale(0.1 -0.1)">
      <use xlink:href="#ArialMT-53"/>
      <use xlink:href="#ArialMT-68" transform="translate(66.699219 0)"/>
      <use xlink:href="#ArialMT-61" transform="translate(122.314453 0)"/>
      <use xlink:href="#ArialMT-75" transform="translate(177.929688 0)"/>
      <use xlink:href="#ArialMT-6e" transform="translate(233.544922 0)"/>
      <use xlink:href="#ArialMT-20" transform="translate(289.160156 0)"/>
      <use xlink:href="#ArialMT-4d" transform="translate(316.943359 0)"/>
      <use xlink:href="#ArialMT-75" transform="translate(400.244141 0)"/>
      <use xlink:href="#ArialMT-72" transform="translate(455.859375 0)"/>
      <use xlink:href="#ArialMT-70" transform="translate(489.160156 0)"/>
      <use xlink:href="#ArialMT-68" transform="translate(544.775391 0)"/>
      <use xlink:href="#ArialMT-79" transform="translate(600.390625 0)"/>
      <use xlink:href="#ArialMT-20" transform="translate(650.390625 0)"/>
      <use xlink:href="#ArialMT-28" transform="translate(678.173828 0)"/>
      <use xlink:href="#ArialMT-6d" transform="translate(711.474609 0)"/>
      <use xlink:href="#ArialMT-61" transform="translate(794.775391 0)"/>
      <use xlink:href="#ArialMT-78" transform="translate(850.390625 0)"/>
      <use xlink:href="#ArialMT-3a" transform="translate(900.390625 0)"/>
      <use xlink:href="#ArialMT-20" transform="translate(928.173828 0)"/>
      <use xlink:href="#ArialMT-34" transform="translate(955.957031 0)"/>
      <use xlink:href="#ArialMT-38" transform="translate(1011.572266 0)"/>
      <use xlink:href="#ArialMT-33" transform="translate(1067.1875 0)"/>
      <use xlink:href="#ArialMT-29" transform="translate(1122.802734 0)"/>
     </g>
    </g>
   </g>
  </g>
 </g>
 <defs>
  <clipPath id="peec419ff93">
   <rect x="48.62" y="25.49625" width="395.23555" height="292.22375"/>
  </clipPath>
 </defs>
</svg>
