<?xml version="1.0" encoding="utf-8" standalone="no"?>
<!DOCTYPE svg PUBLIC "-//W3C//DTD SVG 1.1//EN"
  "http://www.w3.org/Graphics/SVG/1.1/DTD/svg11.dtd">
<svg xmlns:xlink="http://www.w3.org/1999/xlink" width="460.8pt" height="345.6pt" viewBox="0 0 460.8 345.6" xmlns="http://www.w3.org/2000/svg" version="1.1">
 <metadata>
  <rdf:RDF xmlns:dc="http://purl.org/dc/elements/1.1/" xmlns:cc="http://creativecommons.org/ns#" xmlns:rdf="http://www.w3.org/1999/02/22-rdf-syntax-ns#">
   <cc:Work>
    <dc:type rdf:resource="http://purl.org/dc/dcmitype/StillImage"/>
    <dc:date>2026-04-17T22:35:47.218718</dc:date>
    <dc:format>image/svg+xml</dc:format>
    <dc:creator>
     <cc:Agent>
      <dc:title>Matplotlib v3.10.8, https://matplotlib.org/</dc:title>
     </cc:Agent>
    </dc:creator>
   </cc:Work>
  </rdf:RDF>
 </metadata>
 <defs>
  <style type="text/css">*{stroke-linejoin: round; stroke-linecap: butt}</style>
 </defs>
 <g id="figure_1">
  <g id="patch_1">
   <path d="M 0 345.6 
L 460.8 345.6 
L 460.8 0 
L 0 0 
z
" style="fill: #ffffff"/>
  </g>
  <g id="axes_1">
   <g id="patch_2">
    <path d="M 48.53 317.72 
L 450 317.72 
L 450 25.49625 
L 48.53 25.49625 
z
" style="fill: #eaeaf2"/>
   </g>
   <g id="matplotlib.axis_1">
    <g id="xtick_1">
     <g id="line2d_1">
      <path d="M 66.778636 317.72 
L 66.778636 25.49625 
" clip-path="url(#p4329d51ec6)" style="fill: none; stroke: #ffffff; stroke-width: 0.8; stroke-linecap: round"/>
     </g>
     <g id="text_1">
      <!-- 2020 -->
      <g style="fill: #262626" transform="translate(55.656761 331.877812) scale(0.1 -0.1)">
       <defs>
        <path id="ArialMT-32" d="M 3222 541 
L 3222 0 
L 194 0 
Q 188 203 259 391 
Q 375 700 629 1000 
Q 884 1300 1366 1694 
Q 2113 2306 2375 2664 
Q 2638 3022 2638 3341 
Q 2638 3675 2398 3904 
Q 2159 4134 1775 4134 
Q 1369 4134 1125 3890 
Q 881 3647 878 3216 
L 300 3275 
Q 359 3922 746 4261 
Q 1134 4600 1788 4600 
Q 2447 4600 2831 4234 
Q 3216 3869 3216 3328 
Q 3216 3053 3103 2787 
Q 2991 2522 2730 2228 
Q 2469 1934 1863 1422 
Q 1356 997 1212 845 
Q 1069 694 975 541 
L 3222 541 
z
" transform="scale(0.015625)"/>
        <path id="ArialMT-30" d="M 266 2259 
Q 266 3072 433 3567 
Q 600 4063 929 4331 
Q 1259 4600 1759 4600 
Q 2128 4600 2406 4451 
Q 2684 4303 2865 4023 
Q 3047 3744 3150 3342 
Q 3253 2941 3253 2259 
Q 3253 1453 3087 958 
Q 2922 463 2592 192 
Q 2263 -78 1759 -78 
Q 1097 -78 719 397 
Q 266 969 266 2259 
z
M 844 2259 
Q 844 1131 1108 757 
Q 1372 384 1759 384 
Q 2147 384 2411 759 
Q 2675 1134 2675 2259 
Q 2675 3391 2411 3762 
Q 2147 4134 1753 4134 
Q 1366 4134 1134 3806 
Q 844 3388 844 2259 
z
" transform="scale(0.015625)"/>
       </defs>
       <use xlink:href="#ArialMT-32"/>
       <use xlink:href="#ArialMT-30" transform="translate(55.615234 0)"/>
       <use xlink:href="#ArialMT-32" transform="translate(111.230469 0)"/>
       <use xlink:href="#ArialMT-30" transform="translate(166.845703 0)"/>
      </g>
     </g>
    </g>
    <g id="xtick_2">
     <g id="line2d_2">
      <path d="M 124.555461 317.72 
L 124.555461 25.49625 
" clip-path="url(#p4329d51ec6)" style="fill: none; stroke: #ffffff; stroke-width: 0.8; stroke-linecap: round"/>
     </g>
     <g id="text_2">
      <!-- 2021 -->
      <g style="fill: #262626" transform="translate(113.433586 331.877812) scale(0.1 -0.1)">
       <defs>
        <path id="ArialMT-31" d="M 2384 0 
L 1822 0 
L 1822 3584 
Q 1619 3391 1289 3197 
Q 959 3003 697 2906 
L 697 3450 
Q 1169 3672 1522 3987 
Q 1875 4303 2022 4600 
L 2384 4600 
L 2384 0 
z
" transform="scale(0.015625)"/>
       </defs>
       <use xlink:href="#ArialMT-32"/>
       <use xlink:href="#ArialMT-30" transform="translate(55.615234 0)"/>
       <use xlink:href="#ArialMT-32" transform="translate(111.230469 0)"/>
       <use xlink:href="#ArialMT-31" transform="translate(166.845703 0)"/>
      </g>
     </g>
    </g>
    <g id="xtick_3">
     <g id="line2d_3">
      <path d="M 182.174425 317.72 
L 182.174425 25.49625 
" clip-path="url(#p4329d51ec6)" style="fill: none; stroke: #ffffff; stroke-width: 0.8; stroke-linecap: round"/>
     </g>
     <g id="text_3">
      <!-- 2022 -->
      <g style="fill: #262626" transform="translate(171.05255 331.877812) scale(0.1 -0.1)">
       <use xlink:href="#ArialMT-32"/>
       <use xlink:href="#ArialMT-30" transform="translate(55.615234 0)"/>
       <use xlink:href="#ArialMT-32" transform="translate(111.230469 0)"/>
       <use xlink:href="#ArialMT-32" transform="translate(166.845703 0)"/>
      </g>
     </g>
    </g>
    <g id="xtick_4">
     <g id="line2d_4">
      <path d="M 239.793389 317.72 
L 239.793389 25.49625 
" clip-path="url(#p4329d51ec6)" style="fill: none; stroke: #ffffff; stroke-width: 0.8; stroke-linecap: round"/>
     </g>
     <g id="text_4">
      <!-- 2023 -->
      <g style="fill: #262626" transform="translate(228.671514 331.877812) scale(0.1 -0.1)">
       <defs>
        <path id="ArialMT-33" d="M 269 1209 
L 831 1284 
Q 928 806 1161 595 
Q 1394 384 1728 384 
Q 2125 384 2398 659 
Q 2672 934 2672 1341 
Q 2672 1728 2419 1979 
Q 2166 2231 1775 2231 
Q 1616 2231 1378 2169 
L 1441 2663 
Q 1497 2656 1531 2656 
Q 1891 2656 2178 2843 
Q 2466 3031 2466 3422 
Q 2466 3731 2256 3934 
Q 2047 4138 1716 4138 
Q 1388 4138 1169 3931 
Q 950 3725 888 3313 
L 325 3413 
Q 428 3978 793 4289 
Q 1159 4600 1703 4600 
Q 2078 4600 2393 4439 
Q 2709 4278 2876 4000 
Q 3044 3722 3044 3409 
Q 3044 3113 2884 2869 
Q 2725 2625 2413 2481 
Q 2819 2388 3044 2092 
Q 3269 1797 3269 1353 
Q 3269 753 2831 336 
Q 2394 -81 1725 -81 
Q 1122 -81 723 278 
Q 325 638 269 1209 
z
" transform="scale(0.015625)"/>
       </defs>
       <use xlink:href="#ArialMT-32"/>
       <use xlink:href="#ArialMT-30" transform="translate(55.615234 0)"/>
       <use xlink:href="#ArialMT-32" transform="translate(111.230469 0)"/>
       <use xlink:href="#ArialMT-33" transform="translate(166.845703 0)"/>
      </g>
     </g>
    </g>
    <g id="xtick_5">
     <g id="line2d_5">
      <path d="M 297.412354 317.72 
L 297.412354 25.49625 
" clip-path="url(#p4329d51ec6)" style="fill: none; stroke: #ffffff; stroke-width: 0.8; stroke-linecap: round"/>
     </g>
     <g id="text_5">
      <!-- 2024 -->
      <g style="fill: #262626" transform="translate(286.290479 331.877812) scale(0.1 -0.1)">
       <defs>
        <path id="ArialMT-34" d="M 2069 0 
L 2069 1097 
L 81 1097 
L 81 1613 
L 2172 4581 
L 2631 4581 
L 2631 1613 
L 3250 1613 
L 3250 1097 
L 2631 1097 
L 2631 0 
L 2069 0 
z
M 2069 1613 
L 2069 3678 
L 634 1613 
L 2069 1613 
z
" transform="scale(0.015625)"/>
       </defs>
       <use xlink:href="#ArialMT-32"/>
       <use xlink:href="#ArialMT-30" transform="translate(55.615234 0)"/>
       <use xlink:href="#ArialMT-32" transform="translate(111.230469 0)"/>
       <use xlink:href="#ArialMT-34" transform="translate(166.845703 0)"/>
      </g>
     </g>
    </g>
    <g id="xtick_6">
     <g id="line2d_6">
      <path d="M 355.189178 317.72 
L 355.189178 25.49625 
" clip-path="url(#p4329d51ec6)" style="fill: none; stroke: #ffffff; stroke-width: 0.8; stroke-linecap: round"/>
     </g>
     <g id="text_6">
      <!-- 2025 -->
      <g style="fill: #262626" transform="translate(344.067303 331.877812) scale(0.1 -0.1)">
       <defs>
        <path id="ArialMT-35" d="M 266 1200 
L 856 1250 
Q 922 819 1161 601 
Q 1400 384 1738 384 
Q 2144 384 2425 690 
Q 2706 997 2706 1503 
Q 2706 1984 2436 2262 
Q 2166 2541 1728 2541 
Q 1456 2541 1237 2417 
Q 1019 2294 894 2097 
L 366 2166 
L 809 4519 
L 3088 4519 
L 3088 3981 
L 1259 3981 
L 1013 2750 
Q 1425 3038 1878 3038 
Q 2478 3038 2890 2622 
Q 3303 2206 3303 1553 
Q 3303 931 2941 478 
Q 2500 -78 1738 -78 
Q 1113 -78 717 272 
Q 322 622 266 1200 
z
" transform="scale(0.015625)"/>
       </defs>
       <use xlink:href="#ArialMT-32"/>
       <use xlink:href="#ArialMT-30" transform="translate(55.615234 0)"/>
       <use xlink:href="#ArialMT-32" transform="translate(111.230469 0)"/>
       <use xlink:href="#ArialMT-35" transform="translate(166.845703 0)"/>
      </g>
     </g>
    </g>
    <g id="xtick_7">
     <g id="line2d_7">
      <path d="M 412.808142 317.72 
L 412.808142 25.49625 
" clip-path="url(#p4329d51ec6)" style="fill: none; stroke: #ffffff; stroke-width: 0.8; stroke-linecap: round"/>
     </g>
     <g id="text_7">
      <!-- 2026 -->
      <g style="fill: #262626" transform="translate(401.686267 331.877812) scale(0.1 -0.1)">
       <defs>
        <path id="ArialMT-36" d="M 3184 3459 
L 2625 3416 
Q 2550 3747 2413 3897 
Q 2184 4138 1850 4138 
Q 1581 4138 1378 3988 
Q 1113 3794 959 3422 
Q 806 3050 800 2363 
Q 1003 2672 1297 2822 
Q 1591 2972 1913 2972 
Q 2475 2972 2870 2558 
Q 3266 2144 3266 1488 
Q 3266 1056 3080 686 
Q 2894 316 2569 119 
Q 2244 -78 1831 -78 
Q 1128 -78 684 439 
Q 241 956 241 2144 
Q 241 3472 731 4075 
Q 1159 4600 1884 4600 
Q 2425 4600 2770 4297 
Q 3116 3994 3184 3459 
z
M 888 1484 
Q 888 1194 1011 928 
Q 1134 663 1356 523 
Q 1578 384 1822 384 
Q 2178 384 2434 671 
Q 2691 959 2691 1453 
Q 2691 1928 2437 2201 
Q 2184 2475 1800 2475 
Q 1419 2475 1153 2201 
Q 888 1928 888 1484 
z
" transform="scale(0.015625)"/>
       </defs>
       <use xlink:href="#ArialMT-32"/>
       <use xlink:href="#ArialMT-30" transform="translate(55.615234 0)"/>
       <use xlink:href="#ArialMT-32" transform="translate(111.230469 0)"/>
       <use xlink:href="#ArialMT-36" transform="translate(166.845703 0)"/>
      </g>
     </g>
    </g>
   </g>
   <g id="matplotlib.axis_2">
    <g id="ytick_1">
     <g id="line2d_8">
      <path d="M 48.53 273.251393 
L 450 273.251393 
" clip-path="url(#p4329d51ec6)" style="fill: none; stroke: #ffffff; stroke-width: 0.8; stroke-linecap: round"/>
     </g>
     <g id="text_8">
      <!-- 400 -->
      <g style="fill: #262626" transform="translate(24.847188 276.830299) scale(0.1 -0.1)">
       <use xlink:href="#ArialMT-34"/>
       <use xlink:href="#ArialMT-30" transform="translate(55.615234 0)"/>
       <use xlink:href="#ArialMT-30" transform="translate(111.230469 0)"/>
      </g>
     </g>
    </g>
    <g id="ytick_2">
     <g id="line2d_9">
      <path d="M 48.53 221.664645 
L 450 221.664645 
" clip-path="url(#p4329d51ec6)" style="fill: none; stroke: #ffffff; stroke-width: 0.8; stroke-linecap: round"/>
     </g>
     <g id="text_9">
      <!-- 500 -->
      <g style="fill: #262626" transform="translate(24.847188 225.243551) scale(0.1 -0.1)">
       <use xlink:href="#ArialMT-35"/>
       <use xlink:href="#ArialMT-30" transform="translate(55.615234 0)"/>
       <use xlink:href="#ArialMT-30" transform="translate(111.230469 0)"/>
      </g>
     </g>
    </g>
    <g id="ytick_3">
     <g id="line2d_10">
      <path d="M 48.53 170.077898 
L 450 170.077898 
" clip-path="url(#p4329d51ec6)" style="fill: none; stroke: #ffffff; stroke-width: 0.8; stroke-linecap: round"/>
     </g>
     <g id="text_10">
      <!-- 600 -->
      <g style="fill: #262626" transform="translate(24.847188 173.656804) scale(0.1 -0.1)">
       <use xlink:href="#ArialMT-36"/>
       <use xlink:href="#ArialMT-30" transform="translate(55.615234 0)"/>
       <use xlink:href="#ArialMT-30" transform="translate(111.230469 0)"/>
      </g>
     </g>
    </g>
    <g id="ytick_4">
     <g id="line2d_11">
      <path d="M 48.53 118.49115 
L 450 118.49115 
" clip-path="url(#p4329d51ec6)" style="fill: none; stroke: #ffffff; stroke-width: 0.8; stroke-linecap: round"/>
     </g>
     <g id="text_11">
      <!-- 700 -->
      <g style="fill: #262626" transform="translate(24.847188 122.070056) scale(0.1 -0.1)">
       <defs>
        <path id="ArialMT-37" d="M 303 3981 
L 303 4522 
L 3269 4522 
L 3269 4084 
Q 2831 3619 2401 2847 
Q 1972 2075 1738 1259 
Q 1569 684 1522 0 
L 944 0 
Q 953 541 1156 1306 
Q 1359 2072 1739 2783 
Q 2119 3494 2547 3981 
L 303 3981 
z
" transform="scale(0.015625)"/>
       </defs>
       <use xlink:href="#ArialMT-37"/>
       <use xlink:href="#ArialMT-30" transform="translate(55.615234 0)"/>
       <use xlink:href="#ArialMT-30" transform="translate(111.230469 0)"/>
      </g>
     </g>
    </g>
    <g id="ytick_5">
     <g id="line2d_12">
      <path d="M 48.53 66.904402 
L 450 66.904402 
" clip-path="url(#p4329d51ec6)" style="fill: none; stroke: #ffffff; stroke-width: 0.8; stroke-linecap: round"/>
     </g>
     <g id="text_12">
      <!-- 800 -->
      <g style="fill: #262626" transform="translate(24.847188 70.483309) scale(0.1 -0.1)">
       <defs>
        <path id="ArialMT-38" d="M 1131 2484 
Q 781 2613 612 2850 
Q 444 3088 444 3419 
Q 444 3919 803 4259 
Q 1163 4600 1759 4600 
Q 2359 4600 2725 4251 
Q 3091 3903 3091 3403 
Q 3091 3084 2923 2848 
Q 2756 2613 2416 2484 
Q 2838 2347 3058 2040 
Q 3278 1734 3278 1309 
Q 3278 722 2862 322 
Q 2447 -78 1769 -78 
Q 1091 -78 675 323 
Q 259 725 259 1325 
Q 259 1772 486 2073 
Q 713 2375 1131 2484 
z
M 1019 3438 
Q 1019 3113 1228 2906 
Q 1438 2700 1772 2700 
Q 2097 2700 2305 2904 
Q 2513 3109 2513 3406 
Q 2513 3716 2298 3927 
Q 2084 4138 1766 4138 
Q 1444 4138 1231 3931 
Q 1019 3725 1019 3438 
z
M 838 1322 
Q 838 1081 952 856 
Q 1066 631 1291 507 
Q 1516 384 1775 384 
Q 2178 384 2440 643 
Q 2703 903 2703 1303 
Q 2703 1709 2433 1975 
Q 2163 2241 1756 2241 
Q 1359 2241 1098 1978 
Q 838 1716 838 1322 
z
" transform="scale(0.015625)"/>
       </defs>
       <use xlink:href="#ArialMT-38"/>
       <use xlink:href="#ArialMT-30" transform="translate(55.615234 0)"/>
       <use xlink:href="#ArialMT-30" transform="translate(111.230469 0)"/>
      </g>
     </g>
    </g>
    <g id="text_13">
     <!-- Elo -->
     <g style="fill: #262626" transform="translate(18.859688 178.834687) rotate(-90) scale(0.1 -0.1)">
      <defs>
       <path id="ArialMT-45" d="M 506 0 
L 506 4581 
L 3819 4581 
L 3819 4041 
L 1113 4041 
L 1113 2638 
L 3647 2638 
L 3647 2100 
L 1113 2100 
L 1113 541 
L 3925 541 
L 3925 0 
L 506 0 
z
" transform="scale(0.015625)"/>
       <path id="ArialMT-6c" d="M 409 0 
L 409 4581 
L 972 4581 
L 972 0 
L 409 0 
z
" transform="scale(0.015625)"/>
       <path id="ArialMT-6f" d="M 213 1659 
Q 213 2581 725 3025 
Q 1153 3394 1769 3394 
Q 2453 3394 2887 2945 
Q 3322 2497 3322 1706 
Q 3322 1066 3130 698 
Q 2938 331 2570 128 
Q 2203 -75 1769 -75 
Q 1072 -75 642 372 
Q 213 819 213 1659 
z
M 791 1659 
Q 791 1022 1069 705 
Q 1347 388 1769 388 
Q 2188 388 2466 706 
Q 2744 1025 2744 1678 
Q 2744 2294 2464 2611 
Q 2184 2928 1769 2928 
Q 1347 2928 1069 2612 
Q 791 2297 791 1659 
z
" transform="scale(0.015625)"/>
      </defs>
      <use xlink:href="#ArialMT-45"/>
      <use xlink:href="#ArialMT-6c" transform="translate(66.699219 0)"/>
      <use xlink:href="#ArialMT-6f" transform="translate(88.916016 0)"/>
     </g>
    </g>
   </g>
   <g id="line2d_13">
    <path d="M 66.778636 107.5505 
L 71.672302 107.5505 
L 71.672302 116.732821 
L 76.250247 116.732821 
L 76.250247 98.650228 
L 81.143912 98.650228 
L 81.143912 58.76547 
L 95.509188 58.76547 
L 95.509188 87.624038 
L 100.402854 87.624038 
L 100.402854 83.280795 
L 105.296519 83.280795 
L 105.296519 94.391696 
L 110.032325 94.391696 
L 110.032325 95.397502 
L 114.92599 95.397502 
L 114.92599 86.805339 
L 119.661795 86.805339 
L 119.661795 61.240067 
L 124.555461 61.240067 
L 124.555461 55.082122 
L 129.449126 55.082122 
L 129.449126 38.779148 
L 133.869211 38.779148 
L 133.869211 92.417385 
L 138.762877 92.417385 
L 138.762877 127.342779 
L 143.498682 127.342779 
L 143.498682 174.774381 
L 162.915484 174.774381 
L 162.915484 177.238909 
L 167.651289 177.238909 
L 167.651289 166.737992 
L 172.544954 166.737992 
L 172.544954 153.90031 
L 177.28076 153.90031 
L 177.28076 136.653159 
L 182.174425 136.653159 
L 182.174425 156.267404 
L 187.068091 156.267404 
L 187.068091 186.990316 
L 191.488176 186.990316 
L 191.488176 204.336394 
L 196.381841 204.336394 
L 196.381841 154.654306 
L 201.117646 154.654306 
L 201.117646 124.826174 
L 206.011312 124.826174 
L 206.011312 137.392844 
L 215.640782 137.392844 
L 215.640782 130.058436 
L 220.534448 130.058436 
L 220.534448 134.907577 
L 225.270253 134.907577 
L 225.270253 148.53195 
L 230.163919 148.53195 
L 230.163919 175.326196 
L 234.899724 175.326196 
L 234.899724 170.052369 
L 239.793389 170.052369 
L 239.793389 175.84982 
L 244.687055 175.84982 
L 244.687055 105.306285 
L 249.10714 105.306285 
L 249.10714 138.150386 
L 254.000805 138.150386 
L 254.000805 140.204832 
L 258.736611 140.204832 
L 258.736611 157.233301 
L 273.259747 157.233301 
L 273.259747 143.921398 
L 278.153412 143.921398 
L 278.153412 126.459376 
L 282.889218 126.459376 
L 282.889218 149.763572 
L 287.782883 149.763572 
L 287.782883 55.318621 
L 292.518688 55.318621 
L 292.518688 73.131911 
L 297.412354 73.131911 
L 297.412354 108.444401 
L 302.306019 108.444401 
L 302.306019 96.717299 
L 306.883964 96.717299 
L 306.883964 84.139876 
L 311.77763 84.139876 
L 311.77763 73.334509 
L 316.513435 73.334509 
L 316.513435 100.41003 
L 321.407101 100.41003 
L 321.407101 119.901581 
L 331.036571 119.901581 
L 331.036571 84.728613 
L 335.930237 84.728613 
L 335.930237 75.893737 
L 340.666042 75.893737 
L 340.666042 71.546247 
L 345.559707 71.546247 
L 345.559707 66.088168 
L 350.295513 66.088168 
L 350.295513 61.502768 
L 355.189178 61.502768 
L 355.189178 104.939986 
L 360.082844 104.939986 
L 360.082844 124.066802 
L 364.502929 124.066802 
L 364.502929 100.329985 
L 369.396594 100.329985 
L 369.396594 94.927677 
L 374.132399 94.927677 
L 374.132399 86.768748 
L 379.026065 86.768748 
L 379.026065 123.184294 
L 383.76187 123.184294 
L 383.76187 116.852447 
L 388.655536 116.852447 
L 388.655536 119.872501 
L 393.549201 119.872501 
L 393.549201 146.189101 
L 398.285006 146.189101 
L 398.285006 152.291541 
L 403.178672 152.291541 
L 403.178672 129.552826 
L 407.914477 129.552826 
L 407.914477 115.858574 
L 412.808142 115.858574 
L 412.808142 99.811894 
L 417.701808 99.811894 
L 417.701808 75.053359 
L 422.121893 75.053359 
L 422.121893 86.373668 
L 427.015558 86.373668 
L 427.015558 84.962505 
L 431.751364 84.962505 
L 431.751364 83.275571 
L 431.751364 83.275571 
" clip-path="url(#p4329d51ec6)" style="fill: none; stroke-dasharray: 5.55,2.4; stroke-dashoffset: 0; stroke: #dc143c; stroke-width: 1.5"/>
   </g>
   <g id="line2d_14">
    <path d="M 66.778636 217.760369 
L 71.672302 217.760369 
L 71.672302 208.24877 
L 76.250247 208.24877 
L 76.250247 205.14769 
L 81.143912 205.14769 
L 81.143912 213.437119 
L 110.032325 213.437119 
L 110.032325 246.907458 
L 114.92599 246.907458 
L 114.92599 224.312102 
L 119.661795 224.312102 
L 119.661795 245.358013 
L 124.555461 245.358013 
L 124.555461 244.827581 
L 129.449126 244.827581 
L 129.449126 239.555625 
L 133.869211 239.555625 
L 133.869211 241.12254 
L 138.762877 241.12254 
L 138.762877 268.103869 
L 143.498682 268.103869 
L 143.498682 270.832041 
L 162.915484 270.832041 
L 162.915484 300.023729 
L 167.651289 300.023729 
L 167.651289 304.437102 
L 172.544954 304.437102 
L 172.544954 295.121322 
L 177.28076 295.121322 
L 177.28076 264.569635 
L 182.174425 264.569635 
L 182.174425 231.877418 
L 187.068091 231.877418 
L 187.068091 121.559683 
L 191.488176 121.559683 
L 191.488176 174.604335 
L 196.381841 174.604335 
L 196.381841 222.019966 
L 201.117646 222.019966 
L 201.117646 226.872907 
L 210.747117 226.872907 
L 210.747117 213.853488 
L 215.640782 213.853488 
L 215.640782 194.275481 
L 220.534448 194.275481 
L 220.534448 216.463211 
L 225.270253 216.463211 
L 225.270253 216.606526 
L 230.163919 216.606526 
L 230.163919 205.746528 
L 234.899724 205.746528 
L 234.899724 228.771332 
L 239.793389 228.771332 
L 239.793389 243.318104 
L 244.687055 243.318104 
L 244.687055 253.586563 
L 340.666042 253.586563 
L 340.666042 267.623964 
L 345.559707 267.623964 
L 345.559707 231.08548 
L 350.295513 231.08548 
L 350.295513 185.984827 
L 355.189178 185.984827 
L 355.189178 168.22344 
L 360.082844 168.22344 
L 360.082844 153.022258 
L 374.132399 153.022258 
L 374.132399 84.074731 
L 379.026065 84.074731 
L 379.026065 73.958534 
L 383.76187 73.958534 
L 383.76187 70.191734 
L 388.655536 70.191734 
L 388.655536 61.4865 
L 393.549201 61.4865 
L 393.549201 106.500739 
L 398.285006 106.500739 
L 398.285006 130.559647 
L 403.178672 130.559647 
L 403.178672 171.063901 
L 407.914477 171.063901 
L 407.914477 101.495555 
L 412.808142 101.495555 
L 412.808142 149.523328 
L 417.701808 149.523328 
L 417.701808 135.929571 
L 422.121893 135.929571 
L 422.121893 68.611438 
L 427.015558 68.611438 
L 427.015558 82.859812 
L 431.751364 82.859812 
L 431.751364 57.925639 
L 431.751364 57.925639 
" clip-path="url(#p4329d51ec6)" style="fill: none; stroke-dasharray: 9.6,2.4,1.5,2.4; stroke-dashoffset: 0; stroke: #800080; stroke-width: 1.5"/>
   </g>
   <g id="line2d_15">
    <path d="M 66.778636 137.747083 
L 71.672302 137.747083 
L 71.672302 168.137611 
L 76.250247 168.137611 
L 76.250247 198.325109 
L 81.143912 198.325109 
L 81.143912 205.661543 
L 95.509188 205.661543 
L 95.509188 212.987232 
L 105.296519 212.987232 
L 105.296519 194.969939 
L 110.032325 194.969939 
L 110.032325 137.409981 
L 114.92599 137.409981 
L 114.92599 142.385783 
L 119.661795 142.385783 
L 119.661795 168.373063 
L 124.555461 168.373063 
L 124.555461 128.361378 
L 129.449126 128.361378 
L 129.449126 177.358343 
L 133.869211 177.358343 
L 133.869211 197.444382 
L 138.762877 197.444382 
L 138.762877 211.82834 
L 143.498682 211.82834 
L 143.498682 165.674361 
L 148.392347 165.674361 
L 148.392347 154.911385 
L 162.915484 154.911385 
L 162.915484 156.85543 
L 167.651289 156.85543 
L 167.651289 155.02426 
L 172.544954 155.02426 
L 172.544954 142.856414 
L 177.28076 142.856414 
L 177.28076 165.0214 
L 182.174425 165.0214 
L 182.174425 156.072398 
L 187.068091 156.072398 
L 187.068091 181.439824 
L 191.488176 181.439824 
L 191.488176 196.525426 
L 196.381841 196.525426 
L 196.381841 213.791693 
L 201.117646 213.791693 
L 201.117646 212.287989 
L 215.640782 212.287989 
L 215.640782 230.427281 
L 220.534448 230.427281 
L 220.534448 210.911264 
L 225.270253 210.911264 
L 225.270253 201.241336 
L 230.163919 201.241336 
L 230.163919 172.4334 
L 234.899724 172.4334 
L 234.899724 202.822551 
L 239.793389 202.822551 
L 239.793389 136.823567 
L 244.687055 136.823567 
L 244.687055 239.699566 
L 249.10714 239.699566 
L 249.10714 249.037783 
L 254.000805 249.037783 
L 254.000805 165.805037 
L 258.736611 165.805037 
L 258.736611 148.720277 
L 273.259747 148.720277 
L 273.259747 147.702556 
L 278.153412 147.702556 
L 278.153412 142.33269 
L 282.889218 142.33269 
L 282.889218 102.314557 
L 287.782883 102.314557 
L 287.782883 155.177964 
L 292.518688 155.177964 
L 292.518688 155.059705 
L 297.412354 155.059705 
L 297.412354 164.42179 
L 302.306019 164.42179 
L 302.306019 142.669386 
L 306.883964 142.669386 
L 306.883964 130.222801 
L 311.77763 130.222801 
L 311.77763 144.710637 
L 316.513435 144.710637 
L 316.513435 169.881156 
L 331.036571 169.881156 
L 331.036571 189.542862 
L 335.930237 189.542862 
L 335.930237 173.481241 
L 340.666042 173.481241 
L 340.666042 113.417245 
L 345.559707 113.417245 
L 345.559707 131.511385 
L 350.295513 131.511385 
L 350.295513 159.121636 
L 355.189178 159.121636 
L 355.189178 189.091698 
L 360.082844 189.091698 
L 360.082844 161.397805 
L 364.502929 161.397805 
L 364.502929 105.93322 
L 369.396594 105.93322 
L 369.396594 125.226356 
L 374.132399 125.226356 
L 374.132399 131.106763 
L 383.76187 131.106763 
L 383.76187 124.772674 
L 388.655536 124.772674 
L 388.655536 106.735353 
L 393.549201 106.735353 
L 393.549201 132.164794 
L 398.285006 132.164794 
L 398.285006 106.005201 
L 403.178672 106.005201 
L 403.178672 141.05427 
L 407.914477 141.05427 
L 407.914477 94.508091 
L 412.808142 94.508091 
L 412.808142 66.818323 
L 417.701808 66.818323 
L 417.701808 103.656258 
L 422.121893 103.656258 
L 422.121893 126.3136 
L 427.015558 126.3136 
L 427.015558 145.208608 
L 431.751364 145.208608 
L 431.751364 155.136193 
L 431.751364 155.136193 
" clip-path="url(#p4329d51ec6)" style="fill: none; stroke-dasharray: 1.5,2.475; stroke-dashoffset: 0; stroke: #00008b; stroke-width: 1.5"/>
   </g>
   <g id="patch_3">
    <path d="M 48.53 317.72 
L 48.53 25.49625 
" style="fill: none; stroke: #ffffff; stroke-width: 0.8; stroke-linejoin: miter; stroke-linecap: square"/>
   </g>
   <g id="patch_4">
    <path d="M 450 317.72 
L 450 25.49625 
" style="fill: none; stroke: #ffffff; stroke-width: 0.8; stroke-linejoin: miter; stroke-linecap: square"/>
   </g>
   <g id="patch_5">
    <path d="M 48.53 317.72 
L 450 317.72 
" style="fill: none; stroke: #ffffff; stroke-width: 0.8; stroke-linejoin: miter; stroke-linecap: square"/>
   </g>
   <g id="patch_6">
    <path d="M 48.53 25.49625 
L 450 25.49625 
" style="fill: none; stroke: #ffffff; stroke-width: 0.8; stroke-linejoin: miter; stroke-linecap: square"/>
   </g>
   <g id="text_14">
    <!-- Highest rated players 2020–2026 -->
    <g style="fill: #262626" transform="translate(160.8775 19.49625) scale(0.12 -0.12)">
     <defs>
      <path id="ArialMT-48" d="M 513 0 
L 513 4581 
L 1119 4581 
L 1119 2700 
L 3500 2700 
L 3500 4581 
L 4106 4581 
L 4106 0 
L 3500 0 
L 3500 2159 
L 1119 2159 
L 1119 0 
L 513 0 
z
" transform="scale(0.015625)"/>
      <path id="ArialMT-69" d="M 425 3934 
L 425 4581 
L 988 4581 
L 988 3934 
L 425 3934 
z
M 425 0 
L 425 3319 
L 988 3319 
L 988 0 
L 425 0 
z
" transform="scale(0.015625)"/>
      <path id="ArialMT-67" d="M 319 -275 
L 866 -356 
Q 900 -609 1056 -725 
Q 1266 -881 1628 -881 
Q 2019 -881 2231 -725 
Q 2444 -569 2519 -288 
Q 2563 -116 2559 434 
Q 2191 0 1641 0 
Q 956 0 581 494 
Q 206 988 206 1678 
Q 206 2153 378 2554 
Q 550 2956 876 3175 
Q 1203 3394 1644 3394 
Q 2231 3394 2613 2919 
L 2613 3319 
L 3131 3319 
L 3131 450 
Q 3131 -325 2973 -648 
Q 2816 -972 2473 -1159 
Q 2131 -1347 1631 -1347 
Q 1038 -1347 672 -1080 
Q 306 -813 319 -275 
z
M 784 1719 
Q 784 1066 1043 766 
Q 1303 466 1694 466 
Q 2081 466 2343 764 
Q 2606 1063 2606 1700 
Q 2606 2309 2336 2618 
Q 2066 2928 1684 2928 
Q 1309 2928 1046 2623 
Q 784 2319 784 1719 
z
" transform="scale(0.015625)"/>
      <path id="ArialMT-68" d="M 422 0 
L 422 4581 
L 984 4581 
L 984 2938 
Q 1378 3394 1978 3394 
Q 2347 3394 2619 3248 
Q 2891 3103 3008 2847 
Q 3125 2591 3125 2103 
L 3125 0 
L 2563 0 
L 2563 2103 
Q 2563 2525 2380 2717 
Q 2197 2909 1863 2909 
Q 1613 2909 1392 2779 
Q 1172 2650 1078 2428 
Q 984 2206 984 1816 
L 984 0 
L 422 0 
z
" transform="scale(0.015625)"/>
      <path id="ArialMT-65" d="M 2694 1069 
L 3275 997 
Q 3138 488 2766 206 
Q 2394 -75 1816 -75 
Q 1088 -75 661 373 
Q 234 822 234 1631 
Q 234 2469 665 2931 
Q 1097 3394 1784 3394 
Q 2450 3394 2872 2941 
Q 3294 2488 3294 1666 
Q 3294 1616 3291 1516 
L 816 1516 
Q 847 969 1125 678 
Q 1403 388 1819 388 
Q 2128 388 2347 550 
Q 2566 713 2694 1069 
z
M 847 1978 
L 2700 1978 
Q 2663 2397 2488 2606 
Q 2219 2931 1791 2931 
Q 1403 2931 1139 2672 
Q 875 2413 847 1978 
z
" transform="scale(0.015625)"/>
      <path id="ArialMT-73" d="M 197 991 
L 753 1078 
Q 800 744 1014 566 
Q 1228 388 1613 388 
Q 2000 388 2187 545 
Q 2375 703 2375 916 
Q 2375 1106 2209 1216 
Q 2094 1291 1634 1406 
Q 1016 1563 777 1677 
Q 538 1791 414 1992 
Q 291 2194 291 2438 
Q 291 2659 392 2848 
Q 494 3038 669 3163 
Q 800 3259 1026 3326 
Q 1253 3394 1513 3394 
Q 1903 3394 2198 3281 
Q 2494 3169 2634 2976 
Q 2775 2784 2828 2463 
L 2278 2388 
Q 2241 2644 2061 2787 
Q 1881 2931 1553 2931 
Q 1166 2931 1000 2803 
Q 834 2675 834 2503 
Q 834 2394 903 2306 
Q 972 2216 1119 2156 
Q 1203 2125 1616 2013 
Q 2213 1853 2448 1751 
Q 2684 1650 2818 1456 
Q 2953 1263 2953 975 
Q 2953 694 2789 445 
Q 2625 197 2315 61 
Q 2006 -75 1616 -75 
Q 969 -75 630 194 
Q 291 463 197 991 
z
" transform="scale(0.015625)"/>
      <path id="ArialMT-74" d="M 1650 503 
L 1731 6 
Q 1494 -44 1306 -44 
Q 1000 -44 831 53 
Q 663 150 594 308 
Q 525 466 525 972 
L 525 2881 
L 113 2881 
L 113 3319 
L 525 3319 
L 525 4141 
L 1084 4478 
L 1084 3319 
L 1650 3319 
L 1650 2881 
L 1084 2881 
L 1084 941 
Q 1084 700 1114 631 
Q 1144 563 1211 522 
Q 1278 481 1403 481 
Q 1497 481 1650 503 
z
" transform="scale(0.015625)"/>
      <path id="ArialMT-20" transform="scale(0.015625)"/>
      <path id="ArialMT-72" d="M 416 0 
L 416 3319 
L 922 3319 
L 922 2816 
Q 1116 3169 1280 3281 
Q 1444 3394 1641 3394 
Q 1925 3394 2219 3213 
L 2025 2691 
Q 1819 2813 1613 2813 
Q 1428 2813 1281 2702 
Q 1134 2591 1072 2394 
Q 978 2094 978 1738 
L 978 0 
L 416 0 
z
" transform="scale(0.015625)"/>
      <path id="ArialMT-61" d="M 2588 409 
Q 2275 144 1986 34 
Q 1697 -75 1366 -75 
Q 819 -75 525 192 
Q 231 459 231 875 
Q 231 1119 342 1320 
Q 453 1522 633 1644 
Q 813 1766 1038 1828 
Q 1203 1872 1538 1913 
Q 2219 1994 2541 2106 
Q 2544 2222 2544 2253 
Q 2544 2597 2384 2738 
Q 2169 2928 1744 2928 
Q 1347 2928 1158 2789 
Q 969 2650 878 2297 
L 328 2372 
Q 403 2725 575 2942 
Q 747 3159 1072 3276 
Q 1397 3394 1825 3394 
Q 2250 3394 2515 3294 
Q 2781 3194 2906 3042 
Q 3031 2891 3081 2659 
Q 3109 2516 3109 2141 
L 3109 1391 
Q 3109 606 3145 398 
Q 3181 191 3288 0 
L 2700 0 
Q 2613 175 2588 409 
z
M 2541 1666 
Q 2234 1541 1622 1453 
Q 1275 1403 1131 1340 
Q 988 1278 909 1158 
Q 831 1038 831 891 
Q 831 666 1001 516 
Q 1172 366 1500 366 
Q 1825 366 2078 508 
Q 2331 650 2450 897 
Q 2541 1088 2541 1459 
L 2541 1666 
z
" transform="scale(0.015625)"/>
      <path id="ArialMT-64" d="M 2575 0 
L 2575 419 
Q 2259 -75 1647 -75 
Q 1250 -75 917 144 
Q 584 363 401 755 
Q 219 1147 219 1656 
Q 219 2153 384 2558 
Q 550 2963 881 3178 
Q 1213 3394 1622 3394 
Q 1922 3394 2156 3267 
Q 2391 3141 2538 2938 
L 2538 4581 
L 3097 4581 
L 3097 0 
L 2575 0 
z
M 797 1656 
Q 797 1019 1065 703 
Q 1334 388 1700 388 
Q 2069 388 2326 689 
Q 2584 991 2584 1609 
Q 2584 2291 2321 2609 
Q 2059 2928 1675 2928 
Q 1300 2928 1048 2622 
Q 797 2316 797 1656 
z
" transform="scale(0.015625)"/>
      <path id="ArialMT-70" d="M 422 -1272 
L 422 3319 
L 934 3319 
L 934 2888 
Q 1116 3141 1344 3267 
Q 1572 3394 1897 3394 
Q 2322 3394 2647 3175 
Q 2972 2956 3137 2557 
Q 3303 2159 3303 1684 
Q 3303 1175 3120 767 
Q 2938 359 2589 142 
Q 2241 -75 1856 -75 
Q 1575 -75 1351 44 
Q 1128 163 984 344 
L 984 -1272 
L 422 -1272 
z
M 931 1641 
Q 931 1000 1190 694 
Q 1450 388 1819 388 
Q 2194 388 2461 705 
Q 2728 1022 2728 1688 
Q 2728 2322 2467 2637 
Q 2206 2953 1844 2953 
Q 1484 2953 1207 2617 
Q 931 2281 931 1641 
z
" transform="scale(0.015625)"/>
      <path id="ArialMT-79" d="M 397 -1278 
L 334 -750 
Q 519 -800 656 -800 
Q 844 -800 956 -737 
Q 1069 -675 1141 -563 
Q 1194 -478 1313 -144 
Q 1328 -97 1363 -6 
L 103 3319 
L 709 3319 
L 1400 1397 
Q 1534 1031 1641 628 
Q 1738 1016 1872 1384 
L 2581 3319 
L 3144 3319 
L 1881 -56 
Q 1678 -603 1566 -809 
Q 1416 -1088 1222 -1217 
Q 1028 -1347 759 -1347 
Q 597 -1347 397 -1278 
z
" transform="scale(0.015625)"/>
      <path id="ArialMT-2013" d="M -13 1431 
L -13 1884 
L 3547 1884 
L 3547 1431 
L -13 1431 
z
" transform="scale(0.015625)"/>
     </defs>
     <use xlink:href="#ArialMT-48"/>
     <use xlink:href="#ArialMT-69" transform="translate(72.216797 0)"/>
     <use xlink:href="#ArialMT-67" transform="translate(94.433594 0)"/>
     <use xlink:href="#ArialMT-68" transform="translate(150.048828 0)"/>
     <use xlink:href="#ArialMT-65" transform="translate(205.664062 0)"/>
     <use xlink:href="#ArialMT-73" transform="translate(261.279297 0)"/>
     <use xlink:href="#ArialMT-74" transform="translate(311.279297 0)"/>
     <use xlink:href="#ArialMT-20" transform="translate(339.0625 0)"/>
     <use xlink:href="#ArialMT-72" transform="translate(366.845703 0)"/>
     <use xlink:href="#ArialMT-61" transform="translate(400.146484 0)"/>
     <use xlink:href="#ArialMT-74" transform="translate(455.761719 0)"/>
     <use xlink:href="#ArialMT-65" transform="translate(483.544922 0)"/>
     <use xlink:href="#ArialMT-64" transform="translate(539.160156 0)"/>
     <use xlink:href="#ArialMT-20" transform="translate(594.775391 0)"/>
     <use xlink:href="#ArialMT-70" transform="translate(622.558594 0)"/>
     <use xlink:href="#ArialMT-6c" transform="translate(678.173828 0)"/>
     <use xlink:href="#ArialMT-61" transform="translate(700.390625 0)"/>
     <use xlink:href="#ArialMT-79" transform="translate(756.005859 0)"/>
     <use xlink:href="#ArialMT-65" transform="translate(806.005859 0)"/>
     <use xlink:href="#ArialMT-72" transform="translate(861.621094 0)"/>
     <use xlink:href="#ArialMT-73" transform="translate(894.921875 0)"/>
     <use xlink:href="#ArialMT-20" transform="translate(944.921875 0)"/>
     <use xlink:href="#ArialMT-32" transform="translate(972.705078 0)"/>
     <use xlink:href="#ArialMT-30" transform="translate(1028.320312 0)"/>
     <use xlink:href="#ArialMT-32" transform="translate(1083.935547 0)"/>
     <use xlink:href="#ArialMT-30" transform="translate(1139.550781 0)"/>
     <use xlink:href="#ArialMT-2013" transform="translate(1195.166016 0)"/>
     <use xlink:href="#ArialMT-32" transform="translate(1250.78125 0)"/>
     <use xlink:href="#ArialMT-30" transform="translate(1306.396484 0)"/>
     <use xlink:href="#ArialMT-32" transform="translate(1362.011719 0)"/>
     <use xlink:href="#ArialMT-36" transform="translate(1417.626953 0)"/>
    </g>
   </g>
   <g id="legend_1">
    <g id="patch_7">
     <path d="M 178.24 312.72 
L 320.29 312.72 
Q 322.29 312.72 322.29 310.72 
L 322.29 268.566875 
Q 322.29 266.566875 320.29 266.566875 
L 178.24 266.566875 
Q 176.24 266.566875 176.24 268.566875 
L 176.24 310.72 
Q 176.24 312.72 178.24 312.72 
z
" style="fill: #eaeaf2; opacity: 0.8; stroke: #cccccc; stroke-linejoin: miter"/>
    </g>
    <g id="line2d_16">
     <path d="M 180.24 274.346562 
L 190.24 274.346562 
L 190.24 274.346562 
L 200.24 274.346562 
L 200.24 274.346562 
" style="fill: none; stroke-dasharray: 5.55,2.4; stroke-dashoffset: 0; stroke: #dc143c; stroke-width: 1.5"/>
    </g>
    <g id="text_15">
     <!-- Judd Trump (max: 855) -->
     <g style="fill: #262626" transform="translate(208.24 277.846562) scale(0.1 -0.1)">
      <defs>
       <path id="ArialMT-4a" d="M 184 1300 
L 731 1375 
Q 753 850 928 656 
Q 1103 463 1413 463 
Q 1641 463 1806 567 
Q 1972 672 2034 851 
Q 2097 1031 2097 1425 
L 2097 4581 
L 2703 4581 
L 2703 1459 
Q 2703 884 2564 568 
Q 2425 253 2123 87 
Q 1822 -78 1416 -78 
Q 813 -78 492 269 
Q 172 616 184 1300 
z
" transform="scale(0.015625)"/>
       <path id="ArialMT-75" d="M 2597 0 
L 2597 488 
Q 2209 -75 1544 -75 
Q 1250 -75 995 37 
Q 741 150 617 320 
Q 494 491 444 738 
Q 409 903 409 1263 
L 409 3319 
L 972 3319 
L 972 1478 
Q 972 1038 1006 884 
Q 1059 663 1231 536 
Q 1403 409 1656 409 
Q 1909 409 2131 539 
Q 2353 669 2445 892 
Q 2538 1116 2538 1541 
L 2538 3319 
L 3100 3319 
L 3100 0 
L 2597 0 
z
" transform="scale(0.015625)"/>
       <path id="ArialMT-54" d="M 1659 0 
L 1659 4041 
L 150 4041 
L 150 4581 
L 3781 4581 
L 3781 4041 
L 2266 4041 
L 2266 0 
L 1659 0 
z
" transform="scale(0.015625)"/>
       <path id="ArialMT-6d" d="M 422 0 
L 422 3319 
L 925 3319 
L 925 2853 
Q 1081 3097 1340 3245 
Q 1600 3394 1931 3394 
Q 2300 3394 2536 3241 
Q 2772 3088 2869 2813 
Q 3263 3394 3894 3394 
Q 4388 3394 4653 3120 
Q 4919 2847 4919 2278 
L 4919 0 
L 4359 0 
L 4359 2091 
Q 4359 2428 4304 2576 
Q 4250 2725 4106 2815 
Q 3963 2906 3769 2906 
Q 3419 2906 3187 2673 
Q 2956 2441 2956 1928 
L 2956 0 
L 2394 0 
L 2394 2156 
Q 2394 2531 2256 2718 
Q 2119 2906 1806 2906 
Q 1569 2906 1367 2781 
Q 1166 2656 1075 2415 
Q 984 2175 984 1722 
L 984 0 
L 422 0 
z
" transform="scale(0.015625)"/>
       <path id="ArialMT-28" d="M 1497 -1347 
Q 1031 -759 709 28 
Q 388 816 388 1659 
Q 388 2403 628 3084 
Q 909 3875 1497 4659 
L 1900 4659 
Q 1522 4009 1400 3731 
Q 1209 3300 1100 2831 
Q 966 2247 966 1656 
Q 966 153 1900 -1347 
L 1497 -1347 
z
" transform="scale(0.015625)"/>
       <path id="ArialMT-78" d="M 47 0 
L 1259 1725 
L 138 3319 
L 841 3319 
L 1350 2541 
Q 1494 2319 1581 2169 
Q 1719 2375 1834 2534 
L 2394 3319 
L 3066 3319 
L 1919 1756 
L 3153 0 
L 2463 0 
L 1781 1031 
L 1600 1309 
L 728 0 
L 47 0 
z
" transform="scale(0.015625)"/>
       <path id="ArialMT-3a" d="M 578 2678 
L 578 3319 
L 1219 3319 
L 1219 2678 
L 578 2678 
z
M 578 0 
L 578 641 
L 1219 641 
L 1219 0 
L 578 0 
z
" transform="scale(0.015625)"/>
       <path id="ArialMT-29" d="M 791 -1347 
L 388 -1347 
Q 1322 153 1322 1656 
Q 1322 2244 1188 2822 
Q 1081 3291 891 3722 
Q 769 4003 388 4659 
L 791 4659 
Q 1378 3875 1659 3084 
Q 1900 2403 1900 1659 
Q 1900 816 1576 28 
Q 1253 -759 791 -1347 
z
" transform="scale(0.015625)"/>
      </defs>
      <use xlink:href="#ArialMT-4a"/>
      <use xlink:href="#ArialMT-75" transform="translate(50 0)"/>
      <use xlink:href="#ArialMT-64" transform="translate(105.615234 0)"/>
      <use xlink:href="#ArialMT-64" transform="translate(161.230469 0)"/>
      <use xlink:href="#ArialMT-20" transform="translate(216.845703 0)"/>
      <use xlink:href="#ArialMT-54" transform="translate(242.878906 0)"/>
      <use xlink:href="#ArialMT-72" transform="translate(300.212891 0)"/>
      <use xlink:href="#ArialMT-75" transform="translate(333.513672 0)"/>
      <use xlink:href="#ArialMT-6d" transform="translate(389.128906 0)"/>
      <use xlink:href="#ArialMT-70" transform="translate(472.429688 0)"/>
      <use xlink:href="#ArialMT-20" transform="translate(528.044922 0)"/>
      <use xlink:href="#ArialMT-28" transform="translate(555.828125 0)"/>
      <use xlink:href="#ArialMT-6d" transform="translate(589.128906 0)"/>
      <use xlink:href="#ArialMT-61" transform="translate(672.429688 0)"/>
      <use xlink:href="#ArialMT-78" transform="translate(728.044922 0)"/>
      <use xlink:href="#ArialMT-3a" transform="translate(778.044922 0)"/>
      <use xlink:href="#ArialMT-20" transform="translate(805.828125 0)"/>
      <use xlink:href="#ArialMT-38" transform="translate(833.611328 0)"/>
      <use xlink:href="#ArialMT-35" transform="translate(889.226562 0)"/>
      <use xlink:href="#ArialMT-35" transform="translate(944.841797 0)"/>
      <use xlink:href="#ArialMT-29" transform="translate(1000.457031 0)"/>
     </g>
    </g>
    <g id="line2d_17">
     <path d="M 180.24 288.730937 
L 190.24 288.730937 
L 190.24 288.730937 
L 200.24 288.730937 
L 200.24 288.730937 
" style="fill: none; stroke-dasharray: 9.6,2.4,1.5,2.4; stroke-dashoffset: 0; stroke: #800080; stroke-width: 1.5"/>
    </g>
    <g id="text_16">
     <!-- Zhao Xintong (max: 817) -->
     <g style="fill: #262626" transform="translate(208.24 292.230937) scale(0.1 -0.1)">
      <defs>
       <path id="ArialMT-5a" d="M 128 0 
L 128 563 
L 2475 3497 
Q 2725 3809 2950 4041 
L 394 4041 
L 394 4581 
L 3675 4581 
L 3675 4041 
L 1103 863 
L 825 541 
L 3750 541 
L 3750 0 
L 128 0 
z
" transform="scale(0.015625)"/>
       <path id="ArialMT-58" d="M 28 0 
L 1800 2388 
L 238 4581 
L 959 4581 
L 1791 3406 
Q 2050 3041 2159 2844 
Q 2313 3094 2522 3366 
L 3444 4581 
L 4103 4581 
L 2494 2422 
L 4228 0 
L 3478 0 
L 2325 1634 
Q 2228 1775 2125 1941 
Q 1972 1691 1906 1597 
L 756 0 
L 28 0 
z
" transform="scale(0.015625)"/>
       <path id="ArialMT-6e" d="M 422 0 
L 422 3319 
L 928 3319 
L 928 2847 
Q 1294 3394 1984 3394 
Q 2284 3394 2536 3286 
Q 2788 3178 2913 3003 
Q 3038 2828 3088 2588 
Q 3119 2431 3119 2041 
L 3119 0 
L 2556 0 
L 2556 2019 
Q 2556 2363 2490 2533 
Q 2425 2703 2258 2804 
Q 2091 2906 1866 2906 
Q 1506 2906 1245 2678 
Q 984 2450 984 1813 
L 984 0 
L 422 0 
z
" transform="scale(0.015625)"/>
      </defs>
      <use xlink:href="#ArialMT-5a"/>
      <use xlink:href="#ArialMT-68" transform="translate(61.083984 0)"/>
      <use xlink:href="#ArialMT-61" transform="translate(116.699219 0)"/>
      <use xlink:href="#ArialMT-6f" transform="translate(172.314453 0)"/>
      <use xlink:href="#ArialMT-20" transform="translate(227.929688 0)"/>
      <use xlink:href="#ArialMT-58" transform="translate(255.712891 0)"/>
      <use xlink:href="#ArialMT-69" transform="translate(322.412109 0)"/>
      <use xlink:href="#ArialMT-6e" transform="translate(344.628906 0)"/>
      <use xlink:href="#ArialMT-74" transform="translate(400.244141 0)"/>
      <use xlink:href="#ArialMT-6f" transform="translate(428.027344 0)"/>
      <use xlink:href="#ArialMT-6e" transform="translate(483.642578 0)"/>
      <use xlink:href="#ArialMT-67" transform="translate(539.257812 0)"/>
      <use xlink:href="#ArialMT-20" transform="translate(594.873047 0)"/>
      <use xlink:href="#ArialMT-28" transform="translate(622.65625 0)"/>
      <use xlink:href="#ArialMT-6d" transform="translate(655.957031 0)"/>
      <use xlink:href="#ArialMT-61" transform="translate(739.257812 0)"/>
      <use xlink:href="#ArialMT-78" transform="translate(794.873047 0)"/>
      <use xlink:href="#ArialMT-3a" transform="translate(844.873047 0)"/>
      <use xlink:href="#ArialMT-20" transform="translate(872.65625 0)"/>
      <use xlink:href="#ArialMT-38" transform="translate(900.439453 0)"/>
      <use xlink:href="#ArialMT-31" transform="translate(956.054688 0)"/>
      <use xlink:href="#ArialMT-37" transform="translate(1011.669922 0)"/>
      <use xlink:href="#ArialMT-29" transform="translate(1067.285156 0)"/>
     </g>
    </g>
    <g id="line2d_18">
     <path d="M 180.24 303.115312 
L 190.24 303.115312 
L 190.24 303.115312 
L 200.24 303.115312 
L 200.24 303.115312 
" style="fill: none; stroke-dasharray: 1.5,2.475; stroke-dashoffset: 0; stroke: #00008b; stroke-width: 1.5"/>
    </g>
    <g id="text_17">
     <!-- Mark Selby (max: 800) -->
     <g style="fill: #262626" transform="translate(208.24 306.615312) scale(0.1 -0.1)">
      <defs>
       <path id="ArialMT-4d" d="M 475 0 
L 475 4581 
L 1388 4581 
L 2472 1338 
Q 2622 884 2691 659 
Q 2769 909 2934 1394 
L 4031 4581 
L 4847 4581 
L 4847 0 
L 4263 0 
L 4263 3834 
L 2931 0 
L 2384 0 
L 1059 3900 
L 1059 0 
L 475 0 
z
" transform="scale(0.015625)"/>
       <path id="ArialMT-6b" d="M 425 0 
L 425 4581 
L 988 4581 
L 988 1969 
L 2319 3319 
L 3047 3319 
L 1778 2088 
L 3175 0 
L 2481 0 
L 1384 1697 
L 988 1316 
L 988 0 
L 425 0 
z
" transform="scale(0.015625)"/>
       <path id="ArialMT-53" d="M 288 1472 
L 859 1522 
Q 900 1178 1048 958 
Q 1197 738 1509 602 
Q 1822 466 2213 466 
Q 2559 466 2825 569 
Q 3091 672 3220 851 
Q 3350 1031 3350 1244 
Q 3350 1459 3225 1620 
Q 3100 1781 2813 1891 
Q 2628 1963 1997 2114 
Q 1366 2266 1113 2400 
Q 784 2572 623 2826 
Q 463 3081 463 3397 
Q 463 3744 659 4045 
Q 856 4347 1234 4503 
Q 1613 4659 2075 4659 
Q 2584 4659 2973 4495 
Q 3363 4331 3572 4012 
Q 3781 3694 3797 3291 
L 3216 3247 
Q 3169 3681 2898 3903 
Q 2628 4125 2100 4125 
Q 1550 4125 1298 3923 
Q 1047 3722 1047 3438 
Q 1047 3191 1225 3031 
Q 1400 2872 2139 2705 
Q 2878 2538 3153 2413 
Q 3553 2228 3743 1945 
Q 3934 1663 3934 1294 
Q 3934 928 3725 604 
Q 3516 281 3123 101 
Q 2731 -78 2241 -78 
Q 1619 -78 1198 103 
Q 778 284 539 648 
Q 300 1013 288 1472 
z
" transform="scale(0.015625)"/>
       <path id="ArialMT-62" d="M 941 0 
L 419 0 
L 419 4581 
L 981 4581 
L 981 2947 
Q 1338 3394 1891 3394 
Q 2197 3394 2470 3270 
Q 2744 3147 2920 2923 
Q 3097 2700 3197 2384 
Q 3297 2069 3297 1709 
Q 3297 856 2875 390 
Q 2453 -75 1863 -75 
Q 1275 -75 941 416 
L 941 0 
z
M 934 1684 
Q 934 1088 1097 822 
Q 1363 388 1816 388 
Q 2184 388 2453 708 
Q 2722 1028 2722 1663 
Q 2722 2313 2464 2622 
Q 2206 2931 1841 2931 
Q 1472 2931 1203 2611 
Q 934 2291 934 1684 
z
" transform="scale(0.015625)"/>
      </defs>
      <use xlink:href="#ArialMT-4d"/>
      <use xlink:href="#ArialMT-61" transform="translate(83.300781 0)"/>
      <use xlink:href="#ArialMT-72" transform="translate(138.916016 0)"/>
      <use xlink:href="#ArialMT-6b" transform="translate(172.216797 0)"/>
      <use xlink:href="#ArialMT-20" transform="translate(222.216797 0)"/>
      <use xlink:href="#ArialMT-53" transform="translate(250 0)"/>
      <use xlink:href="#ArialMT-65" transform="translate(316.699219 0)"/>
      <use xlink:href="#ArialMT-6c" transform="translate(372.314453 0)"/>
      <use xlink:href="#ArialMT-62" transform="translate(394.53125 0)"/>
      <use xlink:href="#ArialMT-79" transform="translate(450.146484 0)"/>
      <use xlink:href="#ArialMT-20" transform="translate(500.146484 0)"/>
      <use xlink:href="#ArialMT-28" transform="translate(527.929688 0)"/>
      <use xlink:href="#ArialMT-6d" transform="translate(561.230469 0)"/>
      <use xlink:href="#ArialMT-61" transform="translate(644.53125 0)"/>
      <use xlink:href="#ArialMT-78" transform="translate(700.146484 0)"/>
      <use xlink:href="#ArialMT-3a" transform="translate(750.146484 0)"/>
      <use xlink:href="#ArialMT-20" transform="translate(777.929688 0)"/>
      <use xlink:href="#ArialMT-38" transform="translate(805.712891 0)"/>
      <use xlink:href="#ArialMT-30" transform="translate(861.328125 0)"/>
      <use xlink:href="#ArialMT-30" transform="translate(916.943359 0)"/>
      <use xlink:href="#ArialMT-29" transform="translate(972.558594 0)"/>
     </g>
    </g>
   </g>
  </g>
 </g>
 <defs>
  <clipPath id="p4329d51ec6">
   <rect x="48.53" y="25.49625" width="401.47" height="292.22375"/>
  </clipPath>
 </defs>
</svg>
