<?xml version="1.0" encoding="utf-8" standalone="no"?>
<!DOCTYPE svg PUBLIC "-//W3C//DTD SVG 1.1//EN"
  "http://www.w3.org/Graphics/SVG/1.1/DTD/svg11.dtd">
<svg xmlns:xlink="http://www.w3.org/1999/xlink" width="460.8pt" height="345.6pt" viewBox="0 0 460.8 345.6" xmlns="http://www.w3.org/2000/svg" version="1.1">
 <metadata>
  <rdf:RDF xmlns:dc="http://purl.org/dc/elements/1.1/" xmlns:cc="http://creativecommons.org/ns#" xmlns:rdf="http://www.w3.org/1999/02/22-rdf-syntax-ns#">
   <cc:Work>
    <dc:type rdf:resource="http://purl.org/dc/dcmitype/StillImage"/>
    <dc:date>2024-03-24T23:45:32.779639</dc:date>
    <dc:format>image/svg+xml</dc:format>
    <dc:creator>
     <cc:Agent>
      <dc:title>Matplotlib v3.8.3, https://matplotlib.org/</dc:title>
     </cc:Agent>
    </dc:creator>
   </cc:Work>
  </rdf:RDF>
 </metadata>
 <defs>
  <style type="text/css">*{stroke-linejoin: round; stroke-linecap: butt}</style>
 </defs>
 <g id="figure_1">
  <g id="patch_1">
   <path d="M 0 345.6 
L 460.8 345.6 
L 460.8 0 
L 0 0 
z
" style="fill: #ffffff"/>
  </g>
  <g id="axes_1">
   <g id="patch_2">
    <path d="M 42.82 317.72 
L 450 317.72 
L 450 10.8 
L 42.82 10.8 
z
" style="fill: #eaeaf2"/>
   </g>
   <g id="matplotlib.axis_1">
    <g id="xtick_1">
     <g id="text_1">
      <!-- 2017 -->
      <g style="fill: #262626" transform="translate(61.229562 331.877812) scale(0.1 -0.1)">
       <defs>
        <path id="ArialMT-32" d="M 3222 541 
L 3222 0 
L 194 0 
Q 188 203 259 391 
Q 375 700 629 1000 
Q 884 1300 1366 1694 
Q 2113 2306 2375 2664 
Q 2638 3022 2638 3341 
Q 2638 3675 2398 3904 
Q 2159 4134 1775 4134 
Q 1369 4134 1125 3890 
Q 881 3647 878 3216 
L 300 3275 
Q 359 3922 746 4261 
Q 1134 4600 1788 4600 
Q 2447 4600 2831 4234 
Q 3216 3869 3216 3328 
Q 3216 3053 3103 2787 
Q 2991 2522 2730 2228 
Q 2469 1934 1863 1422 
Q 1356 997 1212 845 
Q 1069 694 975 541 
L 3222 541 
z
" transform="scale(0.015625)"/>
        <path id="ArialMT-30" d="M 266 2259 
Q 266 3072 433 3567 
Q 600 4063 929 4331 
Q 1259 4600 1759 4600 
Q 2128 4600 2406 4451 
Q 2684 4303 2865 4023 
Q 3047 3744 3150 3342 
Q 3253 2941 3253 2259 
Q 3253 1453 3087 958 
Q 2922 463 2592 192 
Q 2263 -78 1759 -78 
Q 1097 -78 719 397 
Q 266 969 266 2259 
z
M 844 2259 
Q 844 1131 1108 757 
Q 1372 384 1759 384 
Q 2147 384 2411 759 
Q 2675 1134 2675 2259 
Q 2675 3391 2411 3762 
Q 2147 4134 1753 4134 
Q 1366 4134 1134 3806 
Q 844 3388 844 2259 
z
" transform="scale(0.015625)"/>
        <path id="ArialMT-31" d="M 2384 0 
L 1822 0 
L 1822 3584 
Q 1619 3391 1289 3197 
Q 959 3003 697 2906 
L 697 3450 
Q 1169 3672 1522 3987 
Q 1875 4303 2022 4600 
L 2384 4600 
L 2384 0 
z
" transform="scale(0.015625)"/>
        <path id="ArialMT-37" d="M 303 3981 
L 303 4522 
L 3269 4522 
L 3269 4084 
Q 2831 3619 2401 2847 
Q 1972 2075 1738 1259 
Q 1569 684 1522 0 
L 944 0 
Q 953 541 1156 1306 
Q 1359 2072 1739 2783 
Q 2119 3494 2547 3981 
L 303 3981 
z
" transform="scale(0.015625)"/>
       </defs>
       <use xlink:href="#ArialMT-32"/>
       <use xlink:href="#ArialMT-30" x="55.615234"/>
       <use xlink:href="#ArialMT-31" x="111.230469"/>
       <use xlink:href="#ArialMT-37" x="166.845703"/>
      </g>
     </g>
    </g>
    <g id="xtick_2">
     <g id="text_2">
      <!-- 2018 -->
      <g style="fill: #262626" transform="translate(110.902256 331.877812) scale(0.1 -0.1)">
       <defs>
        <path id="ArialMT-38" d="M 1131 2484 
Q 781 2613 612 2850 
Q 444 3088 444 3419 
Q 444 3919 803 4259 
Q 1163 4600 1759 4600 
Q 2359 4600 2725 4251 
Q 3091 3903 3091 3403 
Q 3091 3084 2923 2848 
Q 2756 2613 2416 2484 
Q 2838 2347 3058 2040 
Q 3278 1734 3278 1309 
Q 3278 722 2862 322 
Q 2447 -78 1769 -78 
Q 1091 -78 675 323 
Q 259 725 259 1325 
Q 259 1772 486 2073 
Q 713 2375 1131 2484 
z
M 1019 3438 
Q 1019 3113 1228 2906 
Q 1438 2700 1772 2700 
Q 2097 2700 2305 2904 
Q 2513 3109 2513 3406 
Q 2513 3716 2298 3927 
Q 2084 4138 1766 4138 
Q 1444 4138 1231 3931 
Q 1019 3725 1019 3438 
z
M 838 1322 
Q 838 1081 952 856 
Q 1066 631 1291 507 
Q 1516 384 1775 384 
Q 2178 384 2440 643 
Q 2703 903 2703 1303 
Q 2703 1709 2433 1975 
Q 2163 2241 1756 2241 
Q 1359 2241 1098 1978 
Q 838 1716 838 1322 
z
" transform="scale(0.015625)"/>
       </defs>
       <use xlink:href="#ArialMT-32"/>
       <use xlink:href="#ArialMT-30" x="55.615234"/>
       <use xlink:href="#ArialMT-31" x="111.230469"/>
       <use xlink:href="#ArialMT-38" x="166.845703"/>
      </g>
     </g>
    </g>
    <g id="xtick_3">
     <g id="text_3">
      <!-- 2019 -->
      <g style="fill: #262626" transform="translate(160.57495 331.877812) scale(0.1 -0.1)">
       <defs>
        <path id="ArialMT-39" d="M 350 1059 
L 891 1109 
Q 959 728 1153 556 
Q 1347 384 1650 384 
Q 1909 384 2104 503 
Q 2300 622 2425 820 
Q 2550 1019 2634 1356 
Q 2719 1694 2719 2044 
Q 2719 2081 2716 2156 
Q 2547 1888 2255 1720 
Q 1963 1553 1622 1553 
Q 1053 1553 659 1965 
Q 266 2378 266 3053 
Q 266 3750 677 4175 
Q 1088 4600 1706 4600 
Q 2153 4600 2523 4359 
Q 2894 4119 3086 3673 
Q 3278 3228 3278 2384 
Q 3278 1506 3087 986 
Q 2897 466 2520 194 
Q 2144 -78 1638 -78 
Q 1100 -78 759 220 
Q 419 519 350 1059 
z
M 2653 3081 
Q 2653 3566 2395 3850 
Q 2138 4134 1775 4134 
Q 1400 4134 1122 3828 
Q 844 3522 844 3034 
Q 844 2597 1108 2323 
Q 1372 2050 1759 2050 
Q 2150 2050 2401 2323 
Q 2653 2597 2653 3081 
z
" transform="scale(0.015625)"/>
       </defs>
       <use xlink:href="#ArialMT-32"/>
       <use xlink:href="#ArialMT-30" x="55.615234"/>
       <use xlink:href="#ArialMT-31" x="111.230469"/>
       <use xlink:href="#ArialMT-39" x="166.845703"/>
      </g>
     </g>
    </g>
    <g id="xtick_4">
     <g id="text_4">
      <!-- 2020 -->
      <g style="fill: #262626" transform="translate(210.247644 331.877812) scale(0.1 -0.1)">
       <use xlink:href="#ArialMT-32"/>
       <use xlink:href="#ArialMT-30" x="55.615234"/>
       <use xlink:href="#ArialMT-32" x="111.230469"/>
       <use xlink:href="#ArialMT-30" x="166.845703"/>
      </g>
     </g>
    </g>
    <g id="xtick_5">
     <g id="text_5">
      <!-- 2021 -->
      <g style="fill: #262626" transform="translate(260.056427 331.877812) scale(0.1 -0.1)">
       <use xlink:href="#ArialMT-32"/>
       <use xlink:href="#ArialMT-30" x="55.615234"/>
       <use xlink:href="#ArialMT-32" x="111.230469"/>
       <use xlink:href="#ArialMT-31" x="166.845703"/>
      </g>
     </g>
    </g>
    <g id="xtick_6">
     <g id="text_6">
      <!-- 2022 -->
      <g style="fill: #262626" transform="translate(309.729121 331.877812) scale(0.1 -0.1)">
       <use xlink:href="#ArialMT-32"/>
       <use xlink:href="#ArialMT-30" x="55.615234"/>
       <use xlink:href="#ArialMT-32" x="111.230469"/>
       <use xlink:href="#ArialMT-32" x="166.845703"/>
      </g>
     </g>
    </g>
    <g id="xtick_7">
     <g id="text_7">
      <!-- 2023 -->
      <g style="fill: #262626" transform="translate(359.401815 331.877812) scale(0.1 -0.1)">
       <defs>
        <path id="ArialMT-33" d="M 269 1209 
L 831 1284 
Q 928 806 1161 595 
Q 1394 384 1728 384 
Q 2125 384 2398 659 
Q 2672 934 2672 1341 
Q 2672 1728 2419 1979 
Q 2166 2231 1775 2231 
Q 1616 2231 1378 2169 
L 1441 2663 
Q 1497 2656 1531 2656 
Q 1891 2656 2178 2843 
Q 2466 3031 2466 3422 
Q 2466 3731 2256 3934 
Q 2047 4138 1716 4138 
Q 1388 4138 1169 3931 
Q 950 3725 888 3313 
L 325 3413 
Q 428 3978 793 4289 
Q 1159 4600 1703 4600 
Q 2078 4600 2393 4439 
Q 2709 4278 2876 4000 
Q 3044 3722 3044 3409 
Q 3044 3113 2884 2869 
Q 2725 2625 2413 2481 
Q 2819 2388 3044 2092 
Q 3269 1797 3269 1353 
Q 3269 753 2831 336 
Q 2394 -81 1725 -81 
Q 1122 -81 723 278 
Q 325 638 269 1209 
z
" transform="scale(0.015625)"/>
       </defs>
       <use xlink:href="#ArialMT-32"/>
       <use xlink:href="#ArialMT-30" x="55.615234"/>
       <use xlink:href="#ArialMT-32" x="111.230469"/>
       <use xlink:href="#ArialMT-33" x="166.845703"/>
      </g>
     </g>
    </g>
    <g id="xtick_8">
     <g id="text_8">
      <!-- 2024 -->
      <g style="fill: #262626" transform="translate(409.074509 331.877812) scale(0.1 -0.1)">
       <defs>
        <path id="ArialMT-34" d="M 2069 0 
L 2069 1097 
L 81 1097 
L 81 1613 
L 2172 4581 
L 2631 4581 
L 2631 1613 
L 3250 1613 
L 3250 1097 
L 2631 1097 
L 2631 0 
L 2069 0 
z
M 2069 1613 
L 2069 3678 
L 634 1613 
L 2069 1613 
z
" transform="scale(0.015625)"/>
       </defs>
       <use xlink:href="#ArialMT-32"/>
       <use xlink:href="#ArialMT-30" x="55.615234"/>
       <use xlink:href="#ArialMT-32" x="111.230469"/>
       <use xlink:href="#ArialMT-34" x="166.845703"/>
      </g>
     </g>
    </g>
   </g>
   <g id="matplotlib.axis_2">
    <g id="ytick_1">
     <g id="text_9">
      <!-- 0.800 -->
      <g style="fill: #262626" transform="translate(10.798125 320.998232) scale(0.1 -0.1)">
       <defs>
        <path id="ArialMT-2e" d="M 581 0 
L 581 641 
L 1222 641 
L 1222 0 
L 581 0 
z
" transform="scale(0.015625)"/>
       </defs>
       <use xlink:href="#ArialMT-30"/>
       <use xlink:href="#ArialMT-2e" x="55.615234"/>
       <use xlink:href="#ArialMT-38" x="83.398438"/>
       <use xlink:href="#ArialMT-30" x="139.013672"/>
       <use xlink:href="#ArialMT-30" x="194.628906"/>
      </g>
     </g>
    </g>
    <g id="ytick_2">
     <g id="text_10">
      <!-- 0.805 -->
      <g style="fill: #262626" transform="translate(10.798125 280.404393) scale(0.1 -0.1)">
       <defs>
        <path id="ArialMT-35" d="M 266 1200 
L 856 1250 
Q 922 819 1161 601 
Q 1400 384 1738 384 
Q 2144 384 2425 690 
Q 2706 997 2706 1503 
Q 2706 1984 2436 2262 
Q 2166 2541 1728 2541 
Q 1456 2541 1237 2417 
Q 1019 2294 894 2097 
L 366 2166 
L 809 4519 
L 3088 4519 
L 3088 3981 
L 1259 3981 
L 1013 2750 
Q 1425 3038 1878 3038 
Q 2478 3038 2890 2622 
Q 3303 2206 3303 1553 
Q 3303 931 2941 478 
Q 2500 -78 1738 -78 
Q 1113 -78 717 272 
Q 322 622 266 1200 
z
" transform="scale(0.015625)"/>
       </defs>
       <use xlink:href="#ArialMT-30"/>
       <use xlink:href="#ArialMT-2e" x="55.615234"/>
       <use xlink:href="#ArialMT-38" x="83.398438"/>
       <use xlink:href="#ArialMT-30" x="139.013672"/>
       <use xlink:href="#ArialMT-35" x="194.628906"/>
      </g>
     </g>
    </g>
    <g id="ytick_3">
     <g id="text_11">
      <!-- 0.810 -->
      <g style="fill: #262626" transform="translate(10.798125 239.810554) scale(0.1 -0.1)">
       <use xlink:href="#ArialMT-30"/>
       <use xlink:href="#ArialMT-2e" x="55.615234"/>
       <use xlink:href="#ArialMT-38" x="83.398438"/>
       <use xlink:href="#ArialMT-31" x="139.013672"/>
       <use xlink:href="#ArialMT-30" x="194.628906"/>
      </g>
     </g>
    </g>
    <g id="ytick_4">
     <g id="text_12">
      <!-- 0.815 -->
      <g style="fill: #262626" transform="translate(10.798125 199.216715) scale(0.1 -0.1)">
       <use xlink:href="#ArialMT-30"/>
       <use xlink:href="#ArialMT-2e" x="55.615234"/>
       <use xlink:href="#ArialMT-38" x="83.398438"/>
       <use xlink:href="#ArialMT-31" x="139.013672"/>
       <use xlink:href="#ArialMT-35" x="194.628906"/>
      </g>
     </g>
    </g>
    <g id="ytick_5">
     <g id="text_13">
      <!-- 0.820 -->
      <g style="fill: #262626" transform="translate(10.798125 158.622877) scale(0.1 -0.1)">
       <use xlink:href="#ArialMT-30"/>
       <use xlink:href="#ArialMT-2e" x="55.615234"/>
       <use xlink:href="#ArialMT-38" x="83.398438"/>
       <use xlink:href="#ArialMT-32" x="139.013672"/>
       <use xlink:href="#ArialMT-30" x="194.628906"/>
      </g>
     </g>
    </g>
    <g id="ytick_6">
     <g id="text_14">
      <!-- 0.825 -->
      <g style="fill: #262626" transform="translate(10.798125 118.029038) scale(0.1 -0.1)">
       <use xlink:href="#ArialMT-30"/>
       <use xlink:href="#ArialMT-2e" x="55.615234"/>
       <use xlink:href="#ArialMT-38" x="83.398438"/>
       <use xlink:href="#ArialMT-32" x="139.013672"/>
       <use xlink:href="#ArialMT-35" x="194.628906"/>
      </g>
     </g>
    </g>
    <g id="ytick_7">
     <g id="text_15">
      <!-- 0.830 -->
      <g style="fill: #262626" transform="translate(10.798125 77.435199) scale(0.1 -0.1)">
       <use xlink:href="#ArialMT-30"/>
       <use xlink:href="#ArialMT-2e" x="55.615234"/>
       <use xlink:href="#ArialMT-38" x="83.398438"/>
       <use xlink:href="#ArialMT-33" x="139.013672"/>
       <use xlink:href="#ArialMT-30" x="194.628906"/>
      </g>
     </g>
    </g>
    <g id="ytick_8">
     <g id="text_16">
      <!-- 0.835 -->
      <g style="fill: #262626" transform="translate(10.798125 36.84136) scale(0.1 -0.1)">
       <use xlink:href="#ArialMT-30"/>
       <use xlink:href="#ArialMT-2e" x="55.615234"/>
       <use xlink:href="#ArialMT-38" x="83.398438"/>
       <use xlink:href="#ArialMT-33" x="139.013672"/>
       <use xlink:href="#ArialMT-35" x="194.628906"/>
      </g>
     </g>
    </g>
   </g>
   <g id="PolyCollection_1"/>
   <g id="line2d_1">
    <path d="M 61.328182 303.769091 
L 61.87254 302.877742 
L 62.144719 302.68235 
L 62.416898 301.02262 
L 62.552988 300.76528 
L 62.689078 300.172772 
L 63.233436 300.624307 
L 63.369525 300.445473 
L 63.641705 299.974132 
L 64.866511 298.766419 
L 65.0026 298.990534 
L 65.274779 298.572122 
L 65.546959 298.484388 
L 65.955227 298.153097 
L 66.091317 298.153097 
L 66.363496 297.66383 
L 66.499586 297.526405 
L 66.635675 297.224821 
L 66.771765 297.265451 
L 66.907854 297.522283 
L 67.180033 297.003931 
L 67.588302 296.293304 
L 67.724392 296.201617 
L 67.860481 296.256057 
L 68.13266 295.323257 
L 68.540929 295.277834 
L 69.493556 293.722301 
L 69.629646 293.82439 
L 70.174004 293.209499 
L 70.446183 293.333565 
L 70.582273 293.333565 
L 70.718362 292.957384 
L 70.854452 292.960889 
L 71.126631 292.241182 
L 71.262721 292.297775 
L 71.5349 291.823431 
L 71.807079 291.859919 
L 71.943168 291.229541 
L 72.215348 291.194339 
L 72.487527 290.851746 
L 73.167975 288.490963 
L 73.304064 288.490963 
L 73.576243 287.768768 
L 73.712333 287.768768 
L 74.256691 286.759596 
L 74.392781 286.688789 
L 74.801049 285.73889 
L 74.937139 285.570192 
L 75.073229 284.034054 
L 75.209318 283.967104 
L 75.345408 284.096233 
L 75.753676 283.35706 
L 76.025856 282.64222 
L 76.298035 282.357156 
L 76.434124 282.515315 
L 76.570214 282.257114 
L 76.706303 283.101053 
L 76.842393 282.839683 
L 76.978483 282.12189 
L 77.114572 282.044318 
L 77.250662 281.734898 
L 77.386751 282.034345 
L 77.93111 281.307405 
L 78.475468 281.171816 
L 78.747647 280.703949 
L 78.883737 280.726865 
L 79.155916 280.095373 
L 79.292005 280.205333 
L 79.564184 279.733602 
L 79.700274 279.716708 
L 79.836364 279.466963 
L 79.972453 279.581568 
L 80.108543 279.228312 
L 80.244632 279.827674 
L 80.380722 279.623044 
L 80.516811 279.623044 
L 80.652901 278.169449 
L 81.741618 276.304485 
L 81.877707 275.74557 
L 82.013797 275.754206 
L 82.422066 275.098316 
L 82.694245 274.715189 
L 83.238603 273.918086 
L 83.374693 273.861881 
L 84.463409 271.943257 
L 84.871678 271.639277 
L 85.143857 271.085596 
L 85.279947 270.817559 
L 85.416036 270.817559 
L 85.552126 270.317748 
L 85.688215 270.294156 
L 86.368663 268.82995 
L 86.504753 268.808857 
L 86.640842 268.584632 
L 86.776932 268.748246 
L 87.865648 265.848396 
L 88.137828 265.559671 
L 88.410007 265.188409 
L 89.090455 264.459533 
L 89.362634 263.873476 
L 89.634813 263.481347 
L 89.906992 263.402801 
L 90.179171 262.684043 
L 90.45135 262.364771 
L 90.723529 262.313164 
L 90.859619 262.241718 
L 91.131798 261.821672 
L 91.403977 261.727887 
L 91.540067 261.602976 
L 91.812246 261.602976 
L 91.948336 260.864729 
L 92.084425 261.224744 
L 92.356604 261.179054 
L 92.628783 260.897972 
L 92.764873 260.965968 
L 93.037052 260.857936 
L 93.58141 259.686289 
L 94.125769 259.012495 
L 94.397948 258.587936 
L 94.534037 258.381905 
L 94.670127 258.487507 
L 95.078396 257.811344 
L 95.350575 257.599399 
L 95.758844 256.643607 
L 95.894933 256.65293 
L 96.031023 256.226053 
L 96.167112 256.239276 
L 96.711471 255.51886 
L 96.98365 255.45169 
L 97.119739 256.652597 
L 97.255829 255.256151 
L 97.664098 254.833536 
L 98.208456 254.049349 
L 98.344545 254.081866 
L 98.752814 252.988262 
L 99.297172 252.456833 
L 99.97762 251.714171 
L 100.11371 251.67352 
L 100.930247 249.76366 
L 101.066337 249.738471 
L 101.202426 249.545533 
L 101.338516 248.958924 
L 101.474606 249.034074 
L 101.746785 248.863689 
L 102.291143 248.231581 
L 102.427233 248.277248 
L 102.699412 247.832692 
L 102.835501 247.955056 
L 102.971591 247.561222 
L 103.24377 247.475405 
L 103.37986 247.271353 
L 103.788128 246.178869 
L 103.924218 246.281795 
L 104.332487 245.622513 
L 104.604666 244.772674 
L 105.149024 244.04153 
L 105.421203 244.253951 
L 105.557293 244.045938 
L 105.693382 244.071335 
L 105.829472 243.026667 
L 105.965561 243.753644 
L 106.101651 243.875073 
L 106.237741 243.60515 
L 106.50992 243.611379 
L 106.918189 242.826391 
L 107.190368 242.73465 
L 107.326457 242.478887 
L 107.462547 242.478887 
L 107.598636 242.081283 
L 107.734726 242.119833 
L 107.870816 241.94818 
L 108.142995 241.215597 
L 109.367801 240.052223 
L 109.50389 239.684787 
L 109.63998 239.961651 
L 109.77607 239.854018 
L 110.184338 239.256322 
L 110.320428 239.223599 
L 110.728697 238.60291 
L 111.273055 237.408113 
L 111.681324 236.966445 
L 111.953503 235.807756 
L 112.225682 235.293296 
L 112.77004 234.605128 
L 113.178309 234.332962 
L 113.314398 234.560774 
L 113.450488 234.365169 
L 113.722667 233.356037 
L 113.858757 235.190334 
L 113.994846 232.623578 
L 114.811384 232.280917 
L 114.947473 232.191284 
L 115.355742 231.051137 
L 115.491832 231.88844 
L 115.764011 231.380521 
L 115.9001 231.207979 
L 116.03619 231.439453 
L 116.172279 230.975512 
L 116.444459 231.108214 
L 117.124906 229.370568 
L 117.260996 229.49402 
L 117.533175 229.370826 
L 117.669265 229.370826 
L 117.805354 228.609501 
L 117.941444 228.609501 
L 118.349713 228.338854 
L 118.621892 228.322678 
L 119.03016 227.726813 
L 119.574519 227.593728 
L 119.710608 227.532617 
L 119.846698 227.33301 
L 120.118877 227.30511 
L 120.254967 227.30511 
L 120.527146 227.080723 
L 120.663235 226.981988 
L 120.935414 227.254842 
L 121.071504 227.134667 
L 121.207594 227.258705 
L 121.343683 227.214054 
L 121.615862 226.742665 
L 122.024131 225.36323 
L 122.160221 225.611556 
L 122.4324 224.666721 
L 122.568489 224.487281 
L 122.840668 225.296399 
L 122.976758 225.152593 
L 123.248937 223.936451 
L 123.793295 222.742094 
L 123.929385 222.617913 
L 124.065475 222.060956 
L 124.882012 220.638724 
L 125.018102 220.583843 
L 125.290281 220.137641 
L 125.42637 220.137641 
L 125.56246 219.60373 
L 125.698549 219.613541 
L 126.242908 218.045711 
L 126.378997 218.045711 
L 126.787266 217.413699 
L 126.923356 217.406916 
L 127.467714 216.913159 
L 127.603803 217.548178 
L 127.739893 217.495526 
L 128.012072 216.794873 
L 128.55643 215.653711 
L 128.69252 215.714449 
L 128.964699 215.516345 
L 129.100789 215.516345 
L 129.372968 214.99978 
L 129.645147 215.048572 
L 130.597774 213.577552 
L 130.869953 213.577552 
L 131.006043 212.925832 
L 131.278222 212.911787 
L 131.550401 212.752247 
L 131.686491 212.902983 
L 132.094759 212.580922 
L 132.230849 212.512274 
L 132.366939 212.66767 
L 133.319566 211.845855 
L 133.455655 211.725592 
L 133.591745 211.978478 
L 133.727834 211.835577 
L 133.863924 211.529851 
L 134.000013 211.567227 
L 134.272193 211.04136 
L 134.408282 210.85083 
L 134.544372 211.050764 
L 134.680461 210.882277 
L 134.816551 208.605232 
L 134.95264 210.312735 
L 135.22482 210.285626 
L 135.360909 210.411846 
L 135.633088 211.051096 
L 136.177447 210.772509 
L 136.313536 210.86788 
L 136.585715 210.16782 
L 136.993984 209.698897 
L 137.130074 209.649454 
L 137.266163 209.957351 
L 137.402253 209.929448 
L 137.538342 209.240383 
L 137.674432 209.386183 
L 137.946611 208.829092 
L 138.082701 208.796076 
L 138.35488 208.270615 
L 138.490969 207.329624 
L 138.627059 207.81854 
L 138.763148 207.709777 
L 139.035328 207.38932 
L 139.307507 207.387442 
L 139.443596 207.296723 
L 139.579686 206.975763 
L 139.715775 206.975763 
L 139.987955 206.485031 
L 140.124044 206.331328 
L 140.804492 206.1417 
L 140.940582 206.002419 
L 141.34885 206.183723 
L 141.48494 206.233105 
L 142.709746 203.887412 
L 142.845836 203.87567 
L 143.118015 203.312116 
L 143.390194 202.719748 
L 143.798463 202.662843 
L 143.934552 202.606199 
L 144.206731 202.340916 
L 144.75109 201.818539 
L 145.023269 201.704796 
L 145.295448 201.173988 
L 145.431537 201.173988 
L 145.567627 201.824133 
L 145.839806 201.731501 
L 145.975896 201.731501 
L 146.384164 201.273602 
L 146.656344 201.244033 
L 146.928523 201.428476 
L 147.472881 200.687049 
L 147.608971 200.67831 
L 147.88115 200.226257 
L 148.017239 200.226257 
L 148.153329 199.982325 
L 148.289418 199.982325 
L 148.425508 199.535822 
L 148.833777 199.398792 
L 149.242045 199.227551 
L 149.650314 199.163046 
L 149.786404 198.741119 
L 150.058583 198.727872 
L 150.194672 198.117325 
L 150.330762 198.394931 
L 150.602941 198.199444 
L 150.739031 198.199444 
L 151.555568 197.447417 
L 151.963837 197.530318 
L 152.644285 196.882569 
L 153.188643 196.883818 
L 153.324733 195.70031 
L 153.596912 195.75546 
L 154.00518 194.94202 
L 154.14127 195.036072 
L 154.957807 194.303024 
L 155.229987 193.904407 
L 155.638255 193.644046 
L 156.046524 193.567541 
L 156.182614 193.47643 
L 156.590882 193.08646 
L 157.135241 192.801077 
L 157.27133 192.648832 
L 157.40742 192.779851 
L 157.679599 192.57049 
L 157.815689 191.718933 
L 157.951778 192.304142 
L 158.087868 192.244286 
L 158.496136 191.571771 
L 158.768316 191.630143 
L 159.040495 191.632667 
L 159.176584 191.489912 
L 159.312674 186.178877 
L 159.448763 191.696305 
L 159.720943 191.338088 
L 160.40139 191.465718 
L 160.53748 191.294886 
L 160.67357 191.455128 
L 161.081838 191.0839 
L 161.354017 190.699931 
L 161.490107 192.901228 
L 161.626197 190.01868 
L 161.762286 190.230755 
L 161.898376 188.729921 
L 162.034465 190.080695 
L 162.170555 190.026286 
L 162.306644 190.160225 
L 162.442734 188.641762 
L 162.578824 189.174448 
L 162.714913 187.150415 
L 162.851003 189.253043 
L 162.987092 188.127114 
L 163.123182 189.957767 
L 163.395361 187.663697 
L 163.80363 187.02532 
L 164.075809 185.691635 
L 164.211898 185.393837 
L 164.347988 182.76023 
L 164.484078 184.350521 
L 164.620167 184.478346 
L 164.756257 184.219756 
L 165.572794 184.439594 
L 165.708884 183.629074 
L 165.981063 183.280334 
L 166.253242 183.616161 
L 166.389332 183.489064 
L 166.525421 182.424484 
L 166.661511 182.401247 
L 166.7976 182.24908 
L 166.93369 181.709816 
L 167.750227 181.330127 
L 168.022406 181.365271 
L 168.158496 181.24625 
L 168.430675 181.34827 
L 168.702854 181.204873 
L 168.838944 181.36084 
L 169.383302 181.127538 
L 169.92766 180.487614 
L 170.19984 180.615657 
L 170.335929 180.50547 
L 170.472019 180.59722 
L 170.880287 180.394784 
L 171.152467 180.311034 
L 171.424646 179.877087 
L 171.560735 179.943588 
L 171.696825 179.844125 
L 171.832914 179.603719 
L 172.105094 179.648236 
L 172.921631 179.125569 
L 173.19381 178.640074 
L 173.3299 178.640679 
L 173.602079 178.544175 
L 174.962975 178.024434 
L 175.371243 177.198439 
L 175.915602 176.44559 
L 176.051691 173.286807 
L 176.187781 176.251645 
L 176.732139 175.6327 
L 176.868229 175.762837 
L 177.140408 175.375394 
L 177.412587 175.363738 
L 177.548676 175.103686 
L 178.093035 175.068593 
L 178.501303 174.566635 
L 178.637393 174.21517 
L 178.909572 174.086505 
L 179.181751 173.839605 
L 179.59002 172.981156 
L 180.542647 172.029255 
L 180.678737 172.02181 
L 180.950916 171.703754 
L 181.087005 171.672527 
L 181.223095 171.432289 
L 181.631364 171.36892 
L 181.767453 171.339582 
L 181.903543 171.153021 
L 182.311811 171.360548 
L 182.583991 170.97973 
L 183.400528 170.752616 
L 183.944886 170.621262 
L 184.217066 170.224064 
L 184.353155 170.152993 
L 184.489245 169.914135 
L 184.761424 168.623638 
L 185.441872 168.654105 
L 185.714051 168.245619 
L 185.85014 168.266186 
L 185.98623 168.170167 
L 186.258409 167.707252 
L 186.394499 167.816739 
L 186.666678 167.625882 
L 186.802767 167.184645 
L 186.938857 167.193977 
L 187.074947 167.05364 
L 187.211036 167.096899 
L 187.347126 166.834587 
L 187.483215 166.823289 
L 187.755394 166.379962 
L 187.891484 166.476695 
L 188.299753 166.227062 
L 188.708021 165.382737 
L 188.844111 165.441691 
L 189.11629 165.339327 
L 189.660648 165.077731 
L 189.796738 164.969358 
L 190.068917 165.011083 
L 190.205007 165.004582 
L 190.341096 164.661681 
L 190.477186 164.687434 
L 190.613275 164.579072 
L 190.749365 164.685934 
L 190.885455 164.645437 
L 191.021544 164.368799 
L 191.565902 164.375614 
L 191.838082 164.023104 
L 191.974171 164.080727 
L 192.38244 163.846146 
L 192.518529 163.544691 
L 193.471156 163.595913 
L 193.743336 163.699962 
L 194.015515 163.382634 
L 194.287694 163.248839 
L 194.559873 163.067603 
L 195.5125 162.565805 
L 195.920769 162.155415 
L 196.329037 161.787431 
L 196.465127 161.774249 
L 196.737306 161.618581 
L 197.417754 161.169263 
L 197.826023 160.403969 
L 197.962112 160.596954 
L 198.098202 160.406579 
L 198.234291 159.978846 
L 198.506471 159.88609 
L 198.77865 159.560958 
L 199.186918 159.041734 
L 199.459098 158.708979 
L 199.595187 158.392235 
L 199.731277 158.405364 
L 200.139545 157.851308 
L 200.275635 157.785208 
L 200.411725 157.531242 
L 200.683904 157.50173 
L 200.819993 156.883209 
L 200.956083 156.855655 
L 201.364352 156.368324 
L 201.500441 156.254079 
L 202.044799 155.426408 
L 202.589158 154.569943 
L 203.133516 153.680316 
L 203.269606 153.236905 
L 203.541785 153.453885 
L 203.677874 153.201613 
L 203.950053 153.227595 
L 204.358322 152.471709 
L 204.494412 152.561352 
L 204.630501 152.512669 
L 205.03877 152.099671 
L 205.447039 151.950063 
L 206.127487 152.251239 
L 206.263576 151.991058 
L 206.399666 151.979486 
L 206.535755 151.646045 
L 206.671845 151.731453 
L 207.080114 151.266997 
L 207.216203 151.168931 
L 207.352293 151.274856 
L 207.760561 150.947612 
L 207.896651 151.111638 
L 208.16883 150.462611 
L 208.577099 150.406143 
L 209.121457 150.123266 
L 209.257547 150.037467 
L 209.393636 150.101513 
L 209.665816 149.902599 
L 209.801905 149.905561 
L 209.937995 150.156423 
L 210.754532 149.472808 
L 210.890622 149.076628 
L 211.43498 148.850498 
L 211.707159 148.475975 
L 212.251517 147.515797 
L 212.659786 146.761975 
L 212.795876 146.820991 
L 212.931965 146.551697 
L 213.340234 146.721363 
L 213.476324 146.469619 
L 213.612413 146.635936 
L 214.156771 145.896764 
L 214.292861 145.927404 
L 214.428951 145.597476 
L 214.56504 145.740598 
L 214.973309 145.303929 
L 215.653757 145.694814 
L 216.062025 145.491264 
L 216.198115 145.470624 
L 216.742473 144.57081 
L 217.014652 144.506026 
L 217.286832 144.275313 
L 217.559011 144.313333 
L 217.967279 143.798031 
L 219.192086 143.507098 
L 219.600354 143.109097 
L 219.872533 142.651714 
L 220.008623 142.773222 
L 220.416892 142.005614 
L 220.552981 142.054619 
L 220.689071 141.915468 
L 220.96125 141.325448 
L 221.233429 141.363805 
L 221.369519 141.288995 
L 221.641698 140.710554 
L 222.049967 140.687707 
L 222.458235 140.002662 
L 223.002594 139.739945 
L 223.274773 139.16733 
L 223.410862 139.230156 
L 223.683041 138.6943 
L 223.955221 138.611941 
L 224.2274 138.275144 
L 224.499579 138.022189 
L 225.180027 137.260326 
L 225.316116 137.323775 
L 225.452206 137.023773 
L 225.588295 137.023864 
L 225.724385 136.673204 
L 225.860475 136.89598 
L 226.132654 136.804328 
L 226.268743 136.443263 
L 226.404833 136.398346 
L 227.22137 135.688621 
L 227.35746 135.317773 
L 227.493549 135.362214 
L 228.446176 134.275748 
L 228.582266 133.9795 
L 228.718356 134.071822 
L 228.990535 133.868423 
L 229.534893 132.468901 
L 229.807072 132.257208 
L 229.943162 132.585769 
L 230.215341 132.178205 
L 230.35143 132.192276 
L 230.62361 131.783007 
L 230.895789 131.793527 
L 231.440147 131.431412 
L 231.576237 131.509118 
L 231.984505 131.339872 
L 232.392774 131.316234 
L 232.801043 131.423244 
L 234.570207 130.148436 
L 234.978476 129.332746 
L 235.114566 129.464015 
L 235.250655 129.427292 
L 235.522834 129.141711 
L 235.658924 129.142486 
L 236.475461 128.193206 
L 236.611551 128.105399 
L 237.01982 127.393942 
L 237.155909 127.391716 
L 237.291999 127.247858 
L 237.428088 126.842853 
L 237.564178 126.91852 
L 239.333342 125.239934 
L 239.741611 124.030727 
L 239.877701 124.050571 
L 240.01379 123.791153 
L 240.285969 123.79273 
L 240.830328 123.241237 
L 240.966417 123.243156 
L 241.102507 123.123266 
L 241.919044 121.490685 
L 242.055134 121.473402 
L 242.327313 121.008075 
L 242.463402 120.924935 
L 242.599492 120.409702 
L 243.416029 120.156336 
L 246.137821 117.257695 
L 246.54609 117.139598 
L 246.682179 117.1103 
L 246.954358 116.807519 
L 247.226537 116.757092 
L 247.770896 116.401882 
L 247.906985 116.403501 
L 248.315254 115.658765 
L 249.131791 114.809898 
L 249.812239 113.949931 
L 250.220508 113.600171 
L 250.356598 113.67764 
L 250.900956 112.315905 
L 251.173135 112.250831 
L 251.445314 112.301531 
L 251.717493 112.433503 
L 252.125762 112.080532 
L 252.261852 112.072934 
L 252.80621 111.473825 
L 253.078389 111.055431 
L 253.486658 110.861316 
L 253.758837 110.609875 
L 254.167106 109.996381 
L 254.439285 109.905612 
L 254.983643 109.265346 
L 255.119733 109.221118 
L 255.528001 108.781852 
L 255.80018 108.544805 
L 256.07236 107.998208 
L 256.480628 107.814883 
L 256.616718 107.842972 
L 256.888897 107.690321 
L 257.297166 107.360709 
L 257.433255 107.394683 
L 257.569345 107.294507 
L 257.705434 107.345719 
L 257.977614 107.177094 
L 258.385882 106.945103 
L 258.521972 107.108809 
L 258.658061 107.070568 
L 259.610689 105.987718 
L 259.746778 105.921469 
L 259.882868 106.026341 
L 260.018957 105.874255 
L 260.155047 105.955879 
L 260.291136 105.907759 
L 260.427226 105.709193 
L 260.971584 105.68183 
L 261.243763 105.344226 
L 261.379853 105.340859 
L 261.788122 104.592577 
L 262.33248 104.503174 
L 262.876838 104.02031 
L 263.012928 103.954824 
L 263.557286 104.24674 
L 263.829465 103.925548 
L 263.965555 103.966006 
L 264.237734 103.789135 
L 264.373824 103.914935 
L 264.509913 103.815563 
L 264.646003 103.378619 
L 265.054271 103.308845 
L 265.190361 103.243025 
L 265.326451 102.987991 
L 265.46254 103.136777 
L 265.59863 102.914584 
L 265.870809 102.959314 
L 266.142988 102.487529 
L 266.415167 102.522264 
L 266.551257 102.22709 
L 266.687346 102.269212 
L 266.823436 102.044848 
L 267.095615 101.99825 
L 267.503884 101.687955 
L 267.776063 101.543629 
L 268.184332 101.647723 
L 268.5926 101.912192 
L 269.000869 101.709651 
L 270.633944 100.674029 
L 270.906123 100.605828 
L 271.042213 100.849684 
L 271.178302 100.726153 
L 271.314392 100.838043 
L 271.450481 100.540464 
L 271.72266 100.967406 
L 272.539198 99.791836 
L 272.811377 99.613081 
L 272.947467 97.383591 
L 273.083556 99.334314 
L 273.219646 99.388198 
L 273.627914 99.082652 
L 273.764004 98.855674 
L 273.900094 98.848293 
L 274.172273 98.470402 
L 276.349706 96.808739 
L 276.621885 96.763261 
L 276.757975 96.672531 
L 276.894064 96.745597 
L 277.982781 95.825364 
L 278.11887 95.821896 
L 278.391049 95.477628 
L 278.527139 95.618658 
L 278.799318 95.320011 
L 278.935408 95.241033 
L 279.343676 95.3229 
L 279.615856 95.127604 
L 280.160214 94.97033 
L 280.432393 94.694612 
L 280.568483 94.733346 
L 281.112841 94.250887 
L 281.52111 94.016167 
L 281.657199 94.125629 
L 282.065468 93.680489 
L 282.337647 93.9716 
L 283.018095 93.367489 
L 283.154184 93.410183 
L 283.562453 93.254876 
L 283.698543 93.350991 
L 283.834632 93.281245 
L 284.378991 92.564467 
L 284.51508 92.521518 
L 284.65117 92.651706 
L 285.603797 91.39151 
L 286.012066 91.412374 
L 286.148155 90.145174 
L 286.284245 91.296436 
L 286.420334 91.365826 
L 286.692513 91.029783 
L 287.100782 91.363553 
L 287.372961 91.380318 
L 287.64514 91.15661 
L 287.91732 91.180907 
L 288.053409 91.180557 
L 288.461678 90.743777 
L 288.869947 90.678946 
L 289.006036 90.559443 
L 289.142126 90.181075 
L 289.278215 90.188551 
L 289.550394 90.014698 
L 289.686484 89.887251 
L 289.958663 90.065221 
L 290.230842 89.914476 
L 290.503021 89.93579 
L 290.775201 89.71279 
L 291.04738 89.647612 
L 291.591738 89.196747 
L 293.360902 88.306258 
L 293.633082 88.308003 
L 294.449619 87.833794 
L 294.585709 88.059202 
L 294.721798 87.747473 
L 294.993977 87.723769 
L 295.266156 87.609852 
L 295.402246 87.675817 
L 295.674425 87.425095 
L 295.810515 87.555 
L 296.627052 87.134194 
L 297.035321 86.939774 
L 297.579679 87.236357 
L 297.715769 87.033009 
L 297.851858 87.22871 
L 298.124037 86.639758 
L 298.940575 86.134242 
L 299.348844 86.062496 
L 299.621023 86.162309 
L 299.893202 85.680715 
L 300.301471 85.405653 
L 300.709739 84.848936 
L 300.845829 84.900409 
L 301.118008 84.620453 
L 301.390187 85.120548 
L 301.662366 85.009047 
L 301.798456 85.081299 
L 302.070635 84.76274 
L 302.206725 84.864895 
L 302.751083 84.021016 
L 302.887172 83.899256 
L 303.159352 83.955381 
L 303.431531 83.67907 
L 303.839799 83.606318 
L 304.248068 83.293271 
L 304.520247 83.274024 
L 304.792426 83.190889 
L 305.064606 83.276195 
L 305.200695 83.143027 
L 305.336785 83.235609 
L 305.745053 82.894422 
L 306.69768 82.895071 
L 307.105949 82.577965 
L 307.242039 82.607719 
L 307.378128 82.452629 
L 307.514218 82.498121 
L 307.786397 82.785198 
L 307.922487 82.564352 
L 308.194666 82.682433 
L 308.330755 82.569149 
L 308.466845 82.671044 
L 308.739024 82.341687 
L 309.011203 82.197174 
L 309.555561 81.559009 
L 309.691651 81.520207 
L 309.827741 81.766023 
L 310.09992 81.618289 
L 310.916457 81.073879 
L 311.188636 81.117631 
L 311.460816 81.058783 
L 311.596905 81.031858 
L 312.005174 80.525993 
L 312.413443 80.227179 
L 312.821711 80.541751 
L 313.22998 80.3312 
L 313.502159 80.178606 
L 313.910428 79.990813 
L 314.046517 80.159494 
L 314.182607 80.140271 
L 314.590876 79.898518 
L 314.863055 79.81514 
L 315.407413 79.360621 
L 315.543503 79.313709 
L 315.679592 77.235192 
L 315.815682 78.86076 
L 315.951771 78.888616 
L 316.087861 78.756919 
L 316.36004 78.820076 
L 316.632219 78.611093 
L 316.768309 77.890452 
L 316.904398 78.525242 
L 317.176578 78.639307 
L 317.312667 78.574073 
L 317.448757 78.687047 
L 317.584846 78.598702 
L 317.720936 78.116707 
L 317.857025 78.180579 
L 318.265294 77.615314 
L 318.401384 77.69703 
L 318.537473 76.83956 
L 318.673563 77.423681 
L 318.809652 77.229335 
L 318.945742 77.304718 
L 319.4901 77.064747 
L 319.762279 76.689191 
L 320.034459 76.783889 
L 320.306638 76.547564 
L 320.578817 75.466859 
L 320.714906 75.908642 
L 321.259265 75.450978 
L 321.531444 74.971279 
L 322.075802 74.593707 
L 322.211892 74.518034 
L 322.347981 72.333987 
L 322.484071 72.598786 
L 322.62016 73.743104 
L 322.75625 73.906048 
L 323.028429 73.470877 
L 323.300608 73.052045 
L 323.436698 73.025728 
L 323.981056 72.226279 
L 324.933683 71.311553 
L 325.205862 68.845691 
L 325.341952 70.554527 
L 325.614131 70.713935 
L 325.750221 70.623692 
L 326.0224 70.834352 
L 326.975027 70.105962 
L 327.111116 68.091631 
L 327.247206 69.744972 
L 327.383295 69.705078 
L 327.519385 69.925188 
L 327.655475 69.728991 
L 327.791564 69.77737 
L 327.927654 69.528973 
L 328.063743 69.531293 
L 328.608102 69.124897 
L 328.744191 69.02215 
L 329.01637 69.074216 
L 329.288549 68.64143 
L 329.424639 67.399234 
L 329.696818 68.646997 
L 329.968997 68.669674 
L 330.105087 68.458583 
L 330.921624 68.535693 
L 331.057714 68.508598 
L 331.193803 68.348615 
L 331.602072 68.461597 
L 332.14643 67.720094 
L 332.554699 67.73874 
L 332.962968 67.421319 
L 333.099057 67.377238 
L 333.235147 65.046994 
L 333.371237 67.028324 
L 333.915595 66.798725 
L 334.051684 66.941479 
L 334.323864 66.661819 
L 334.459953 66.8328 
L 334.596043 66.593617 
L 334.868222 66.67936 
L 335.276491 66.495165 
L 335.684759 66.123344 
L 336.093028 66.236859 
L 336.365207 65.895203 
L 336.501297 65.814611 
L 336.637386 65.951112 
L 337.862193 65.328536 
L 338.406551 64.675248 
L 338.54264 64.643586 
L 338.81482 64.374488 
L 339.359178 64.179903 
L 339.631357 63.950076 
L 340.447894 63.547495 
L 340.856163 63.01135 
L 340.992253 63.299575 
L 341.264432 63.22628 
L 341.400521 62.944375 
L 341.672701 62.969101 
L 341.80879 62.863424 
L 342.080969 62.426256 
L 342.217059 64.197762 
L 342.489238 61.855033 
L 342.625328 62.210677 
L 342.897507 61.995544 
L 343.169686 61.995544 
L 343.305775 59.616985 
L 343.441865 61.749825 
L 343.714044 61.673844 
L 344.666671 61.044724 
L 344.802761 61.180352 
L 345.619298 60.310744 
L 345.891477 60.265593 
L 346.163656 60.329867 
L 346.435836 60.125953 
L 346.980194 59.863613 
L 347.252373 59.962941 
L 347.796731 59.895778 
L 347.932821 59.819166 
L 348.613269 59.30205 
L 348.749358 59.320582 
L 349.021537 59.024108 
L 349.157627 60.550914 
L 349.293717 58.643642 
L 349.429806 58.541527 
L 349.701985 58.683772 
L 350.382433 58.772527 
L 350.654612 58.505158 
L 350.926791 57.976769 
L 351.198971 57.734451 
L 351.33506 57.71357 
L 351.607239 57.539256 
L 351.743329 57.266466 
L 352.695956 57.030008 
L 352.832045 57.393281 
L 353.240314 57.133453 
L 353.376404 57.133453 
L 353.648583 57.052807 
L 354.192941 56.992573 
L 354.329031 57.057696 
L 355.009479 56.645453 
L 355.145568 56.766052 
L 356.098195 56.207444 
L 356.234285 56.181317 
L 357.186912 55.695591 
L 357.59518 55.620381 
L 357.86736 55.031581 
L 358.003449 55.032191 
L 358.819987 54.152951 
L 358.956076 54.189738 
L 359.228255 53.836278 
L 359.500434 53.311995 
L 359.636524 53.9334 
L 359.908703 53.719489 
L 360.044793 51.915739 
L 360.453061 51.532572 
L 360.589151 52.181459 
L 360.725241 52.168027 
L 360.86133 51.791999 
L 361.133509 51.815142 
L 361.269599 51.607421 
L 361.677868 51.830376 
L 361.813957 51.881469 
L 361.950047 51.770606 
L 362.222226 52.013911 
L 362.494405 52.034561 
L 362.630495 51.920492 
L 362.766584 52.026557 
L 363.038763 51.9937 
L 363.447032 51.952454 
L 363.855301 51.354183 
L 364.12748 51.262573 
L 364.399659 51.021959 
L 364.807928 51.034439 
L 365.080107 51.329823 
L 365.352286 51.099849 
L 365.488376 51.062399 
L 365.624465 51.167414 
L 365.760555 50.908892 
L 366.032734 51.049136 
L 366.304913 51.004086 
L 366.441003 50.926613 
L 366.713182 51.00603 
L 367.665809 50.862324 
L 368.074078 50.421825 
L 368.346257 50.331194 
L 368.754525 49.775192 
L 368.890615 49.918488 
L 369.162794 49.835879 
L 369.707152 49.570602 
L 369.843242 49.545884 
L 370.251511 48.898906 
L 370.52369 48.828063 
L 370.795869 48.895756 
L 371.068048 48.60277 
L 371.204138 48.619878 
L 371.476317 48.203757 
L 371.884586 47.61385 
L 372.973302 46.736096 
L 373.109392 46.750154 
L 373.381571 46.284416 
L 373.51766 46.393213 
L 373.78984 46.192619 
L 374.062019 46.181929 
L 374.606377 45.528 
L 374.742467 47.841291 
L 374.878556 45.031645 
L 375.014646 44.976465 
L 375.150735 44.779505 
L 375.967273 44.776185 
L 376.103362 44.712425 
L 376.375541 44.817507 
L 376.9199 44.419043 
L 377.055989 44.379402 
L 377.328168 43.946528 
L 377.600348 42.900718 
L 377.872527 42.449747 
L 378.144706 41.979066 
L 378.416885 41.63502 
L 378.961243 41.271033 
L 379.097333 41.249807 
L 379.641691 40.745489 
L 380.04996 40.708883 
L 380.186049 40.572379 
L 380.322139 40.596468 
L 380.866497 40.209163 
L 381.274766 40.0649 
L 381.819124 39.340391 
L 381.955214 39.360033 
L 382.091303 39.176721 
L 382.227393 39.277824 
L 382.363483 39.229435 
L 382.635662 39.325752 
L 382.771751 38.977278 
L 383.31611 39.224538 
L 384.268737 38.628499 
L 384.404826 38.637508 
L 384.813095 38.544749 
L 385.221364 38.393178 
L 385.493543 38.210233 
L 385.765722 38.199097 
L 386.582259 37.499981 
L 386.718349 37.489495 
L 386.990528 37.319675 
L 387.534886 36.903529 
L 387.807066 36.813847 
L 387.943155 36.714322 
L 388.487513 36.756356 
L 389.031872 36.664181 
L 389.71232 36.560284 
L 389.848409 36.652374 
L 390.120588 36.597709 
L 390.392767 36.578909 
L 391.345394 36.164656 
L 391.753663 36.131396 
L 392.298021 36.008311 
L 392.978469 36.045906 
L 393.250648 35.90265 
L 393.386738 35.859087 
L 393.658917 35.893692 
L 393.931096 35.988354 
L 394.611544 36.079487 
L 394.883723 35.829581 
L 395.019813 35.891214 
L 395.291992 35.85986 
L 395.700261 35.926332 
L 395.97244 35.70613 
L 396.108529 35.577193 
L 396.244619 35.794908 
L 396.516798 35.630872 
L 396.788977 35.658172 
L 396.925067 35.643524 
L 397.061156 35.479846 
L 397.333336 35.421556 
L 397.469425 35.361317 
L 398.013783 34.685983 
L 398.149873 34.795195 
L 398.422052 34.551264 
L 399.646858 33.998583 
L 399.919037 34.111041 
L 400.599485 34.163649 
L 400.735575 34.122755 
L 401.007754 33.892883 
L 401.143844 33.89107 
L 401.416023 33.583927 
L 401.688202 33.656311 
L 401.824291 33.723809 
L 401.960381 33.397957 
L 402.096471 33.439613 
L 402.504739 32.968292 
L 402.776918 33.049444 
L 403.049098 32.959404 
L 403.185187 32.76109 
L 403.321277 32.792528 
L 403.865635 32.073866 
L 404.273904 32.188351 
L 404.682172 32.020893 
L 404.954352 32.165471 
L 405.090441 32.220577 
L 405.36262 32.107023 
L 405.770889 32.161471 
L 406.043068 32.03316 
L 406.315247 32.078482 
L 406.723516 32.050738 
L 406.995695 32.366846 
L 407.267874 31.905596 
L 407.676143 31.82841 
L 407.812233 31.525266 
L 407.948322 31.626209 
L 408.220501 31.518207 
L 408.356591 31.60347 
L 408.49268 31.306386 
L 408.62877 31.418153 
L 408.900949 31.267065 
L 409.037039 31.310493 
L 409.445307 31.098766 
L 409.581397 31.091065 
L 409.717487 31.246656 
L 409.853576 30.962229 
L 410.397934 31.435996 
L 410.534024 31.218374 
L 410.670114 31.548666 
L 410.806203 31.428139 
L 411.078382 30.99907 
L 411.214472 30.986677 
L 411.486651 31.312551 
L 411.622741 31.432921 
L 411.75883 31.385355 
L 411.89492 30.918584 
L 412.167099 31.14239 
L 412.303189 31.083132 
L 412.847547 31.346736 
L 412.983636 31.122602 
L 413.119726 31.492855 
L 413.527995 31.448543 
L 413.664084 31.204361 
L 413.800174 31.559096 
L 414.072353 31.217967 
L 414.208443 31.412128 
L 414.480622 31.233018 
L 414.752801 31.527081 
L 415.02498 31.460328 
L 415.433249 31.67216 
L 415.705428 31.432622 
L 415.841517 31.454631 
L 416.113697 31.22787 
L 416.385876 31.480456 
L 416.521965 31.259232 
L 416.794144 31.446852 
L 416.930234 31.497326 
L 417.066324 31.278908 
L 417.474592 31.488612 
L 417.610682 31.33941 
L 417.746771 31.02193 
L 417.882861 31.221128 
L 418.29113 31.008 
L 418.427219 30.929593 
L 418.563309 31.357359 
L 418.699398 31.142978 
L 418.835488 31.156553 
L 420.604652 24.750909 
L 420.740742 30.997991 
L 420.876832 31.013827 
L 421.012921 30.881626 
L 421.693369 31.052572 
L 421.965548 30.709484 
L 422.101638 30.913481 
L 422.373817 30.768294 
L 422.509906 30.501905 
L 422.645996 30.503026 
L 422.782086 30.381846 
L 422.918175 30.495882 
L 423.054265 30.319177 
L 423.190354 30.399676 
L 423.734713 29.972738 
L 424.41516 29.849148 
L 424.68734 29.848123 
L 424.823429 29.718739 
L 424.959519 29.775461 
L 425.367787 29.368508 
L 425.503877 29.664347 
L 425.776056 29.136216 
L 425.912146 28.897474 
L 426.048235 29.148659 
L 426.320414 29.036978 
L 426.592594 28.953509 
L 426.728683 28.658004 
L 426.864773 29.128256 
L 427.68131 28.463647 
L 427.8174 28.565239 
L 427.953489 29.488202 
L 428.089579 28.459179 
L 428.361758 28.347279 
L 428.497848 28.1575 
L 428.633937 28.397061 
L 428.770027 28.25294 
L 429.042206 28.586653 
L 429.314385 28.363756 
L 429.450475 28.399471 
L 429.586564 28.611128 
L 429.994833 28.33772 
L 430.130922 28.635655 
L 430.267012 28.495937 
L 430.403102 28.668157 
L 430.539191 28.479124 
L 430.81137 28.670687 
L 431.355729 27.848864 
L 431.491818 27.90369 
L 431.491818 27.90369 
" clip-path="url(#pc01e731d48)" style="fill: none; stroke: #800080; stroke-width: 3; stroke-linecap: round"/>
   </g>
   <g id="patch_3">
    <path d="M 42.82 317.72 
L 42.82 10.8 
" style="fill: none; stroke: #ffffff; stroke-width: 0.8; stroke-linejoin: miter; stroke-linecap: square"/>
   </g>
   <g id="patch_4">
    <path d="M 450 317.72 
L 450 10.8 
" style="fill: none; stroke: #ffffff; stroke-width: 0.8; stroke-linejoin: miter; stroke-linecap: square"/>
   </g>
   <g id="patch_5">
    <path d="M 42.82 317.72 
L 450 317.72 
" style="fill: none; stroke: #ffffff; stroke-width: 0.8; stroke-linejoin: miter; stroke-linecap: square"/>
   </g>
   <g id="patch_6">
    <path d="M 42.82 10.8 
L 450 10.8 
" style="fill: none; stroke: #ffffff; stroke-width: 0.8; stroke-linejoin: miter; stroke-linecap: square"/>
   </g>
   <g id="legend_1">
    <g id="patch_7">
     <path d="M 49.82 32.945312 
L 147.227813 32.945312 
Q 149.227813 32.945312 149.227813 30.945312 
L 149.227813 17.8 
Q 149.227813 15.8 147.227813 15.8 
L 49.82 15.8 
Q 47.82 15.8 47.82 17.8 
L 47.82 30.945312 
Q 47.82 32.945312 49.82 32.945312 
z
" style="fill: #eaeaf2; opacity: 0.8; stroke: #cccccc; stroke-linejoin: miter"/>
    </g>
    <g id="line2d_2">
     <path d="M 51.82 23.457812 
L 61.82 23.457812 
L 71.82 23.457812 
" style="fill: none; stroke: #800080; stroke-width: 3; stroke-linecap: round"/>
    </g>
    <g id="text_17">
     <!-- Gini coefficient -->
     <g style="fill: #262626" transform="translate(79.82 26.957812) scale(0.1 -0.1)">
      <defs>
       <path id="ArialMT-47" d="M 2638 1797 
L 2638 2334 
L 4578 2338 
L 4578 638 
Q 4131 281 3656 101 
Q 3181 -78 2681 -78 
Q 2006 -78 1454 211 
Q 903 500 622 1047 
Q 341 1594 341 2269 
Q 341 2938 620 3517 
Q 900 4097 1425 4378 
Q 1950 4659 2634 4659 
Q 3131 4659 3532 4498 
Q 3934 4338 4162 4050 
Q 4391 3763 4509 3300 
L 3963 3150 
Q 3859 3500 3706 3700 
Q 3553 3900 3268 4020 
Q 2984 4141 2638 4141 
Q 2222 4141 1919 4014 
Q 1616 3888 1430 3681 
Q 1244 3475 1141 3228 
Q 966 2803 966 2306 
Q 966 1694 1177 1281 
Q 1388 869 1791 669 
Q 2194 469 2647 469 
Q 3041 469 3416 620 
Q 3791 772 3984 944 
L 3984 1797 
L 2638 1797 
z
" transform="scale(0.015625)"/>
       <path id="ArialMT-69" d="M 425 3934 
L 425 4581 
L 988 4581 
L 988 3934 
L 425 3934 
z
M 425 0 
L 425 3319 
L 988 3319 
L 988 0 
L 425 0 
z
" transform="scale(0.015625)"/>
       <path id="ArialMT-6e" d="M 422 0 
L 422 3319 
L 928 3319 
L 928 2847 
Q 1294 3394 1984 3394 
Q 2284 3394 2536 3286 
Q 2788 3178 2913 3003 
Q 3038 2828 3088 2588 
Q 3119 2431 3119 2041 
L 3119 0 
L 2556 0 
L 2556 2019 
Q 2556 2363 2490 2533 
Q 2425 2703 2258 2804 
Q 2091 2906 1866 2906 
Q 1506 2906 1245 2678 
Q 984 2450 984 1813 
L 984 0 
L 422 0 
z
" transform="scale(0.015625)"/>
       <path id="ArialMT-20" transform="scale(0.015625)"/>
       <path id="ArialMT-63" d="M 2588 1216 
L 3141 1144 
Q 3050 572 2676 248 
Q 2303 -75 1759 -75 
Q 1078 -75 664 370 
Q 250 816 250 1647 
Q 250 2184 428 2587 
Q 606 2991 970 3192 
Q 1334 3394 1763 3394 
Q 2303 3394 2647 3120 
Q 2991 2847 3088 2344 
L 2541 2259 
Q 2463 2594 2264 2762 
Q 2066 2931 1784 2931 
Q 1359 2931 1093 2626 
Q 828 2322 828 1663 
Q 828 994 1084 691 
Q 1341 388 1753 388 
Q 2084 388 2306 591 
Q 2528 794 2588 1216 
z
" transform="scale(0.015625)"/>
       <path id="ArialMT-6f" d="M 213 1659 
Q 213 2581 725 3025 
Q 1153 3394 1769 3394 
Q 2453 3394 2887 2945 
Q 3322 2497 3322 1706 
Q 3322 1066 3130 698 
Q 2938 331 2570 128 
Q 2203 -75 1769 -75 
Q 1072 -75 642 372 
Q 213 819 213 1659 
z
M 791 1659 
Q 791 1022 1069 705 
Q 1347 388 1769 388 
Q 2188 388 2466 706 
Q 2744 1025 2744 1678 
Q 2744 2294 2464 2611 
Q 2184 2928 1769 2928 
Q 1347 2928 1069 2612 
Q 791 2297 791 1659 
z
" transform="scale(0.015625)"/>
       <path id="ArialMT-65" d="M 2694 1069 
L 3275 997 
Q 3138 488 2766 206 
Q 2394 -75 1816 -75 
Q 1088 -75 661 373 
Q 234 822 234 1631 
Q 234 2469 665 2931 
Q 1097 3394 1784 3394 
Q 2450 3394 2872 2941 
Q 3294 2488 3294 1666 
Q 3294 1616 3291 1516 
L 816 1516 
Q 847 969 1125 678 
Q 1403 388 1819 388 
Q 2128 388 2347 550 
Q 2566 713 2694 1069 
z
M 847 1978 
L 2700 1978 
Q 2663 2397 2488 2606 
Q 2219 2931 1791 2931 
Q 1403 2931 1139 2672 
Q 875 2413 847 1978 
z
" transform="scale(0.015625)"/>
       <path id="ArialMT-66" d="M 556 0 
L 556 2881 
L 59 2881 
L 59 3319 
L 556 3319 
L 556 3672 
Q 556 4006 616 4169 
Q 697 4388 901 4523 
Q 1106 4659 1475 4659 
Q 1713 4659 2000 4603 
L 1916 4113 
Q 1741 4144 1584 4144 
Q 1328 4144 1222 4034 
Q 1116 3925 1116 3625 
L 1116 3319 
L 1763 3319 
L 1763 2881 
L 1116 2881 
L 1116 0 
L 556 0 
z
" transform="scale(0.015625)"/>
       <path id="ArialMT-74" d="M 1650 503 
L 1731 6 
Q 1494 -44 1306 -44 
Q 1000 -44 831 53 
Q 663 150 594 308 
Q 525 466 525 972 
L 525 2881 
L 113 2881 
L 113 3319 
L 525 3319 
L 525 4141 
L 1084 4478 
L 1084 3319 
L 1650 3319 
L 1650 2881 
L 1084 2881 
L 1084 941 
Q 1084 700 1114 631 
Q 1144 563 1211 522 
Q 1278 481 1403 481 
Q 1497 481 1650 503 
z
" transform="scale(0.015625)"/>
      </defs>
      <use xlink:href="#ArialMT-47"/>
      <use xlink:href="#ArialMT-69" x="77.783203"/>
      <use xlink:href="#ArialMT-6e" x="100"/>
      <use xlink:href="#ArialMT-69" x="155.615234"/>
      <use xlink:href="#ArialMT-20" x="177.832031"/>
      <use xlink:href="#ArialMT-63" x="205.615234"/>
      <use xlink:href="#ArialMT-6f" x="255.615234"/>
      <use xlink:href="#ArialMT-65" x="311.230469"/>
      <use xlink:href="#ArialMT-66" x="366.845703"/>
      <use xlink:href="#ArialMT-66" x="392.878906"/>
      <use xlink:href="#ArialMT-69" x="420.662109"/>
      <use xlink:href="#ArialMT-63" x="442.878906"/>
      <use xlink:href="#ArialMT-69" x="492.878906"/>
      <use xlink:href="#ArialMT-65" x="515.095703"/>
      <use xlink:href="#ArialMT-6e" x="570.710938"/>
      <use xlink:href="#ArialMT-74" x="626.326172"/>
     </g>
    </g>
   </g>
  </g>
 </g>
 <defs>
  <clipPath id="pc01e731d48">
   <rect x="42.82" y="10.8" width="407.18" height="306.92"/>
  </clipPath>
 </defs>
</svg>
