<?xml version="1.0" encoding="utf-8" standalone="no"?>
<!DOCTYPE svg PUBLIC "-//W3C//DTD SVG 1.1//EN"
  "http://www.w3.org/Graphics/SVG/1.1/DTD/svg11.dtd">
<svg xmlns:xlink="http://www.w3.org/1999/xlink" width="460.8pt" height="345.6pt" viewBox="0 0 460.8 345.6" xmlns="http://www.w3.org/2000/svg" version="1.1">
 <metadata>
  <rdf:RDF xmlns:dc="http://purl.org/dc/elements/1.1/" xmlns:cc="http://creativecommons.org/ns#" xmlns:rdf="http://www.w3.org/1999/02/22-rdf-syntax-ns#">
   <cc:Work>
    <dc:type rdf:resource="http://purl.org/dc/dcmitype/StillImage"/>
    <dc:date>2024-03-24T23:18:21.003034</dc:date>
    <dc:format>image/svg+xml</dc:format>
    <dc:creator>
     <cc:Agent>
      <dc:title>Matplotlib v3.8.3, https://matplotlib.org/</dc:title>
     </cc:Agent>
    </dc:creator>
   </cc:Work>
  </rdf:RDF>
 </metadata>
 <defs>
  <style type="text/css">*{stroke-linejoin: round; stroke-linecap: butt}</style>
 </defs>
 <g id="figure_1">
  <g id="patch_1">
   <path d="M 0 345.6 
L 460.8 345.6 
L 460.8 0 
L 0 0 
z
" style="fill: #ffffff"/>
  </g>
  <g id="axes_1">
   <g id="patch_2">
    <path d="M 37.24 317.72 
L 450 317.72 
L 450 12.936736 
L 37.24 12.936736 
z
" style="fill: #eaeaf2"/>
   </g>
   <g id="matplotlib.axis_1">
    <g id="xtick_1">
     <g id="text_1">
      <!-- 2017 -->
      <g style="fill: #262626" transform="translate(56.054261 331.877812) scale(0.1 -0.1)">
       <defs>
        <path id="ArialMT-32" d="M 3222 541 
L 3222 0 
L 194 0 
Q 188 203 259 391 
Q 375 700 629 1000 
Q 884 1300 1366 1694 
Q 2113 2306 2375 2664 
Q 2638 3022 2638 3341 
Q 2638 3675 2398 3904 
Q 2159 4134 1775 4134 
Q 1369 4134 1125 3890 
Q 881 3647 878 3216 
L 300 3275 
Q 359 3922 746 4261 
Q 1134 4600 1788 4600 
Q 2447 4600 2831 4234 
Q 3216 3869 3216 3328 
Q 3216 3053 3103 2787 
Q 2991 2522 2730 2228 
Q 2469 1934 1863 1422 
Q 1356 997 1212 845 
Q 1069 694 975 541 
L 3222 541 
z
" transform="scale(0.015625)"/>
        <path id="ArialMT-30" d="M 266 2259 
Q 266 3072 433 3567 
Q 600 4063 929 4331 
Q 1259 4600 1759 4600 
Q 2128 4600 2406 4451 
Q 2684 4303 2865 4023 
Q 3047 3744 3150 3342 
Q 3253 2941 3253 2259 
Q 3253 1453 3087 958 
Q 2922 463 2592 192 
Q 2263 -78 1759 -78 
Q 1097 -78 719 397 
Q 266 969 266 2259 
z
M 844 2259 
Q 844 1131 1108 757 
Q 1372 384 1759 384 
Q 2147 384 2411 759 
Q 2675 1134 2675 2259 
Q 2675 3391 2411 3762 
Q 2147 4134 1753 4134 
Q 1366 4134 1134 3806 
Q 844 3388 844 2259 
z
" transform="scale(0.015625)"/>
        <path id="ArialMT-31" d="M 2384 0 
L 1822 0 
L 1822 3584 
Q 1619 3391 1289 3197 
Q 959 3003 697 2906 
L 697 3450 
Q 1169 3672 1522 3987 
Q 1875 4303 2022 4600 
L 2384 4600 
L 2384 0 
z
" transform="scale(0.015625)"/>
        <path id="ArialMT-37" d="M 303 3981 
L 303 4522 
L 3269 4522 
L 3269 4084 
Q 2831 3619 2401 2847 
Q 1972 2075 1738 1259 
Q 1569 684 1522 0 
L 944 0 
Q 953 541 1156 1306 
Q 1359 2072 1739 2783 
Q 2119 3494 2547 3981 
L 303 3981 
z
" transform="scale(0.015625)"/>
       </defs>
       <use xlink:href="#ArialMT-32"/>
       <use xlink:href="#ArialMT-30" x="55.615234"/>
       <use xlink:href="#ArialMT-31" x="111.230469"/>
       <use xlink:href="#ArialMT-37" x="166.845703"/>
      </g>
     </g>
    </g>
    <g id="xtick_2">
     <g id="text_2">
      <!-- 2018 -->
      <g style="fill: #262626" transform="translate(106.40767 331.877812) scale(0.1 -0.1)">
       <defs>
        <path id="ArialMT-38" d="M 1131 2484 
Q 781 2613 612 2850 
Q 444 3088 444 3419 
Q 444 3919 803 4259 
Q 1163 4600 1759 4600 
Q 2359 4600 2725 4251 
Q 3091 3903 3091 3403 
Q 3091 3084 2923 2848 
Q 2756 2613 2416 2484 
Q 2838 2347 3058 2040 
Q 3278 1734 3278 1309 
Q 3278 722 2862 322 
Q 2447 -78 1769 -78 
Q 1091 -78 675 323 
Q 259 725 259 1325 
Q 259 1772 486 2073 
Q 713 2375 1131 2484 
z
M 1019 3438 
Q 1019 3113 1228 2906 
Q 1438 2700 1772 2700 
Q 2097 2700 2305 2904 
Q 2513 3109 2513 3406 
Q 2513 3716 2298 3927 
Q 2084 4138 1766 4138 
Q 1444 4138 1231 3931 
Q 1019 3725 1019 3438 
z
M 838 1322 
Q 838 1081 952 856 
Q 1066 631 1291 507 
Q 1516 384 1775 384 
Q 2178 384 2440 643 
Q 2703 903 2703 1303 
Q 2703 1709 2433 1975 
Q 2163 2241 1756 2241 
Q 1359 2241 1098 1978 
Q 838 1716 838 1322 
z
" transform="scale(0.015625)"/>
       </defs>
       <use xlink:href="#ArialMT-32"/>
       <use xlink:href="#ArialMT-30" x="55.615234"/>
       <use xlink:href="#ArialMT-31" x="111.230469"/>
       <use xlink:href="#ArialMT-38" x="166.845703"/>
      </g>
     </g>
    </g>
    <g id="xtick_3">
     <g id="text_3">
      <!-- 2019 -->
      <g style="fill: #262626" transform="translate(156.76108 331.877812) scale(0.1 -0.1)">
       <defs>
        <path id="ArialMT-39" d="M 350 1059 
L 891 1109 
Q 959 728 1153 556 
Q 1347 384 1650 384 
Q 1909 384 2104 503 
Q 2300 622 2425 820 
Q 2550 1019 2634 1356 
Q 2719 1694 2719 2044 
Q 2719 2081 2716 2156 
Q 2547 1888 2255 1720 
Q 1963 1553 1622 1553 
Q 1053 1553 659 1965 
Q 266 2378 266 3053 
Q 266 3750 677 4175 
Q 1088 4600 1706 4600 
Q 2153 4600 2523 4359 
Q 2894 4119 3086 3673 
Q 3278 3228 3278 2384 
Q 3278 1506 3087 986 
Q 2897 466 2520 194 
Q 2144 -78 1638 -78 
Q 1100 -78 759 220 
Q 419 519 350 1059 
z
M 2653 3081 
Q 2653 3566 2395 3850 
Q 2138 4134 1775 4134 
Q 1400 4134 1122 3828 
Q 844 3522 844 3034 
Q 844 2597 1108 2323 
Q 1372 2050 1759 2050 
Q 2150 2050 2401 2323 
Q 2653 2597 2653 3081 
z
" transform="scale(0.015625)"/>
       </defs>
       <use xlink:href="#ArialMT-32"/>
       <use xlink:href="#ArialMT-30" x="55.615234"/>
       <use xlink:href="#ArialMT-31" x="111.230469"/>
       <use xlink:href="#ArialMT-39" x="166.845703"/>
      </g>
     </g>
    </g>
    <g id="xtick_4">
     <g id="text_4">
      <!-- 2020 -->
      <g style="fill: #262626" transform="translate(207.114489 331.877812) scale(0.1 -0.1)">
       <use xlink:href="#ArialMT-32"/>
       <use xlink:href="#ArialMT-30" x="55.615234"/>
       <use xlink:href="#ArialMT-32" x="111.230469"/>
       <use xlink:href="#ArialMT-30" x="166.845703"/>
      </g>
     </g>
    </g>
    <g id="xtick_5">
     <g id="text_5">
      <!-- 2021 -->
      <g style="fill: #262626" transform="translate(257.605852 331.877812) scale(0.1 -0.1)">
       <use xlink:href="#ArialMT-32"/>
       <use xlink:href="#ArialMT-30" x="55.615234"/>
       <use xlink:href="#ArialMT-32" x="111.230469"/>
       <use xlink:href="#ArialMT-31" x="166.845703"/>
      </g>
     </g>
    </g>
    <g id="xtick_6">
     <g id="text_6">
      <!-- 2022 -->
      <g style="fill: #262626" transform="translate(307.959261 331.877812) scale(0.1 -0.1)">
       <use xlink:href="#ArialMT-32"/>
       <use xlink:href="#ArialMT-30" x="55.615234"/>
       <use xlink:href="#ArialMT-32" x="111.230469"/>
       <use xlink:href="#ArialMT-32" x="166.845703"/>
      </g>
     </g>
    </g>
    <g id="xtick_7">
     <g id="text_7">
      <!-- 2023 -->
      <g style="fill: #262626" transform="translate(358.31267 331.877812) scale(0.1 -0.1)">
       <defs>
        <path id="ArialMT-33" d="M 269 1209 
L 831 1284 
Q 928 806 1161 595 
Q 1394 384 1728 384 
Q 2125 384 2398 659 
Q 2672 934 2672 1341 
Q 2672 1728 2419 1979 
Q 2166 2231 1775 2231 
Q 1616 2231 1378 2169 
L 1441 2663 
Q 1497 2656 1531 2656 
Q 1891 2656 2178 2843 
Q 2466 3031 2466 3422 
Q 2466 3731 2256 3934 
Q 2047 4138 1716 4138 
Q 1388 4138 1169 3931 
Q 950 3725 888 3313 
L 325 3413 
Q 428 3978 793 4289 
Q 1159 4600 1703 4600 
Q 2078 4600 2393 4439 
Q 2709 4278 2876 4000 
Q 3044 3722 3044 3409 
Q 3044 3113 2884 2869 
Q 2725 2625 2413 2481 
Q 2819 2388 3044 2092 
Q 3269 1797 3269 1353 
Q 3269 753 2831 336 
Q 2394 -81 1725 -81 
Q 1122 -81 723 278 
Q 325 638 269 1209 
z
" transform="scale(0.015625)"/>
       </defs>
       <use xlink:href="#ArialMT-32"/>
       <use xlink:href="#ArialMT-30" x="55.615234"/>
       <use xlink:href="#ArialMT-32" x="111.230469"/>
       <use xlink:href="#ArialMT-33" x="166.845703"/>
      </g>
     </g>
    </g>
    <g id="xtick_8">
     <g id="text_8">
      <!-- 2024 -->
      <g style="fill: #262626" transform="translate(408.66608 331.877812) scale(0.1 -0.1)">
       <defs>
        <path id="ArialMT-34" d="M 2069 0 
L 2069 1097 
L 81 1097 
L 81 1613 
L 2172 4581 
L 2631 4581 
L 2631 1613 
L 3250 1613 
L 3250 1097 
L 2631 1097 
L 2631 0 
L 2069 0 
z
M 2069 1613 
L 2069 3678 
L 634 1613 
L 2069 1613 
z
" transform="scale(0.015625)"/>
       </defs>
       <use xlink:href="#ArialMT-32"/>
       <use xlink:href="#ArialMT-30" x="55.615234"/>
       <use xlink:href="#ArialMT-32" x="111.230469"/>
       <use xlink:href="#ArialMT-34" x="166.845703"/>
      </g>
     </g>
    </g>
   </g>
   <g id="matplotlib.axis_2">
    <g id="ytick_1">
     <g id="text_9">
      <!-- 0.55 -->
      <g style="fill: #262626" transform="translate(10.779063 287.48308) scale(0.1 -0.1)">
       <defs>
        <path id="ArialMT-2e" d="M 581 0 
L 581 641 
L 1222 641 
L 1222 0 
L 581 0 
z
" transform="scale(0.015625)"/>
        <path id="ArialMT-35" d="M 266 1200 
L 856 1250 
Q 922 819 1161 601 
Q 1400 384 1738 384 
Q 2144 384 2425 690 
Q 2706 997 2706 1503 
Q 2706 1984 2436 2262 
Q 2166 2541 1728 2541 
Q 1456 2541 1237 2417 
Q 1019 2294 894 2097 
L 366 2166 
L 809 4519 
L 3088 4519 
L 3088 3981 
L 1259 3981 
L 1013 2750 
Q 1425 3038 1878 3038 
Q 2478 3038 2890 2622 
Q 3303 2206 3303 1553 
Q 3303 931 2941 478 
Q 2500 -78 1738 -78 
Q 1113 -78 717 272 
Q 322 622 266 1200 
z
" transform="scale(0.015625)"/>
       </defs>
       <use xlink:href="#ArialMT-30"/>
       <use xlink:href="#ArialMT-2e" x="55.615234"/>
       <use xlink:href="#ArialMT-35" x="83.398438"/>
       <use xlink:href="#ArialMT-35" x="139.013672"/>
      </g>
     </g>
    </g>
    <g id="ytick_2">
     <g id="text_10">
      <!-- 0.60 -->
      <g style="fill: #262626" transform="translate(10.779063 242.669877) scale(0.1 -0.1)">
       <defs>
        <path id="ArialMT-36" d="M 3184 3459 
L 2625 3416 
Q 2550 3747 2413 3897 
Q 2184 4138 1850 4138 
Q 1581 4138 1378 3988 
Q 1113 3794 959 3422 
Q 806 3050 800 2363 
Q 1003 2672 1297 2822 
Q 1591 2972 1913 2972 
Q 2475 2972 2870 2558 
Q 3266 2144 3266 1488 
Q 3266 1056 3080 686 
Q 2894 316 2569 119 
Q 2244 -78 1831 -78 
Q 1128 -78 684 439 
Q 241 956 241 2144 
Q 241 3472 731 4075 
Q 1159 4600 1884 4600 
Q 2425 4600 2770 4297 
Q 3116 3994 3184 3459 
z
M 888 1484 
Q 888 1194 1011 928 
Q 1134 663 1356 523 
Q 1578 384 1822 384 
Q 2178 384 2434 671 
Q 2691 959 2691 1453 
Q 2691 1928 2437 2201 
Q 2184 2475 1800 2475 
Q 1419 2475 1153 2201 
Q 888 1928 888 1484 
z
" transform="scale(0.015625)"/>
       </defs>
       <use xlink:href="#ArialMT-30"/>
       <use xlink:href="#ArialMT-2e" x="55.615234"/>
       <use xlink:href="#ArialMT-36" x="83.398438"/>
       <use xlink:href="#ArialMT-30" x="139.013672"/>
      </g>
     </g>
    </g>
    <g id="ytick_3">
     <g id="text_11">
      <!-- 0.65 -->
      <g style="fill: #262626" transform="translate(10.779063 197.856674) scale(0.1 -0.1)">
       <use xlink:href="#ArialMT-30"/>
       <use xlink:href="#ArialMT-2e" x="55.615234"/>
       <use xlink:href="#ArialMT-36" x="83.398438"/>
       <use xlink:href="#ArialMT-35" x="139.013672"/>
      </g>
     </g>
    </g>
    <g id="ytick_4">
     <g id="text_12">
      <!-- 0.70 -->
      <g style="fill: #262626" transform="translate(10.779063 153.043471) scale(0.1 -0.1)">
       <use xlink:href="#ArialMT-30"/>
       <use xlink:href="#ArialMT-2e" x="55.615234"/>
       <use xlink:href="#ArialMT-37" x="83.398438"/>
       <use xlink:href="#ArialMT-30" x="139.013672"/>
      </g>
     </g>
    </g>
    <g id="ytick_5">
     <g id="text_13">
      <!-- 0.75 -->
      <g style="fill: #262626" transform="translate(10.779063 108.230268) scale(0.1 -0.1)">
       <use xlink:href="#ArialMT-30"/>
       <use xlink:href="#ArialMT-2e" x="55.615234"/>
       <use xlink:href="#ArialMT-37" x="83.398438"/>
       <use xlink:href="#ArialMT-35" x="139.013672"/>
      </g>
     </g>
    </g>
    <g id="ytick_6">
     <g id="text_14">
      <!-- 0.80 -->
      <g style="fill: #262626" transform="translate(10.779063 63.417065) scale(0.1 -0.1)">
       <use xlink:href="#ArialMT-30"/>
       <use xlink:href="#ArialMT-2e" x="55.615234"/>
       <use xlink:href="#ArialMT-38" x="83.398438"/>
       <use xlink:href="#ArialMT-30" x="139.013672"/>
      </g>
     </g>
    </g>
    <g id="ytick_7">
     <g id="text_15">
      <!-- 0.85 -->
      <g style="fill: #262626" transform="translate(10.779063 18.603862) scale(0.1 -0.1)">
       <use xlink:href="#ArialMT-30"/>
       <use xlink:href="#ArialMT-2e" x="55.615234"/>
       <use xlink:href="#ArialMT-38" x="83.398438"/>
       <use xlink:href="#ArialMT-35" x="139.013672"/>
      </g>
     </g>
    </g>
   </g>
   <g id="PolyCollection_1"/>
   <g id="line2d_1">
    <path d="M 56.001818 58.331253 
L 58.347045 57.912312 
L 67.314091 56.905255 
L 68.417727 56.564912 
L 68.969545 56.481197 
L 69.797273 56.322202 
L 70.073182 56.145231 
L 70.487045 56.123575 
L 71.176818 55.967502 
L 71.728636 56.02077 
L 72.1425 55.898808 
L 72.418409 55.910486 
L 73.246136 55.839343 
L 74.211818 55.729954 
L 74.763636 55.648442 
L 75.453409 55.665672 
L 75.729318 55.479757 
L 76.695 55.299323 
L 77.246818 55.171292 
L 78.350455 55.029674 
L 81.661364 54.447097 
L 82.075227 54.410975 
L 82.902955 54.145032 
L 84.2825 53.942108 
L 93.525455 52.846077 
L 94.215227 52.698304 
L 96.4225 52.345293 
L 96.698409 52.28883 
L 98.767727 52.043397 
L 99.319545 51.956214 
L 100.285227 51.752543 
L 107.045 50.956635 
L 107.320909 50.828723 
L 108.010682 50.720721 
L 109.114318 50.558068 
L 109.252273 50.760563 
L 109.390227 50.477209 
L 110.631818 50.336488 
L 110.769773 50.30362 
L 111.045682 50.360101 
L 114.770455 49.928986 
L 115.460227 49.896823 
L 117.391591 49.701217 
L 118.219318 49.650516 
L 118.495227 49.652456 
L 118.909091 49.480892 
L 119.598864 49.311157 
L 122.495909 48.797379 
L 130.359318 48.077097 
L 130.497273 47.825725 
L 130.635227 48.014223 
L 133.532273 47.878962 
L 134.911818 47.696017 
L 137.395 47.532642 
L 138.636591 47.303609 
L 140.705909 47.072066 
L 144.706591 46.809388 
L 144.844545 45.511931 
L 144.9825 46.790484 
L 145.948182 46.735323 
L 146.224091 46.698568 
L 147.741591 46.601214 
L 149.121136 46.53175 
L 149.397045 46.401098 
L 150.086818 46.32777 
L 155.191136 45.936294 
L 155.329091 45.349988 
L 155.467045 45.959079 
L 156.156818 45.931176 
L 157.398409 45.849085 
L 157.536364 46.092095 
L 157.674318 45.773879 
L 157.812273 45.797291 
L 157.950227 45.631608 
L 158.226136 45.774719 
L 158.364091 45.789505 
L 158.502045 45.621876 
L 158.64 45.680681 
L 158.777955 45.45724 
L 158.915909 45.689357 
L 159.053864 45.565061 
L 159.191818 45.767155 
L 159.467727 45.513903 
L 160.295455 45.263324 
L 160.433409 44.972589 
L 160.709318 45.162259 
L 161.261136 45.147793 
L 161.812955 45.068504 
L 161.950909 192.551524 
L 162.088864 45.030006 
L 162.502727 45.053048 
L 162.778636 44.93296 
L 164.71 44.80065 
L 167.331136 44.702212 
L 168.572727 44.617432 
L 172.159545 44.27549 
L 172.2975 43.926779 
L 172.435455 44.25408 
L 173.952955 44.127047 
L 175.194545 44.015061 
L 180.160909 43.627348 
L 180.850682 43.554456 
L 181.126591 43.411993 
L 183.057955 43.301846 
L 183.471818 43.238674 
L 184.575455 43.168624 
L 186.230909 43.008582 
L 187.334545 42.972823 
L 187.886364 42.955355 
L 190.093636 42.868117 
L 191.749091 42.764038 
L 195.749773 42.354207 
L 198.232955 42.017365 
L 198.784773 41.936263 
L 202.923409 41.575854 
L 204.578864 41.478771 
L 205.130682 41.404123 
L 208.165682 41.229155 
L 211.890455 40.849034 
L 213.407955 40.796992 
L 213.959773 40.73528 
L 221.547273 40.01794 
L 222.788864 39.909447 
L 223.8925 39.796417 
L 226.237727 39.484975 
L 226.789545 39.397353 
L 227.065455 39.401658 
L 229.272727 39.291236 
L 230.928182 39.222241 
L 236.584318 38.577397 
L 236.998182 38.491389 
L 237.963864 38.402043 
L 238.515682 38.314947 
L 239.481364 38.155516 
L 241.964545 37.8975 
L 243.068182 37.766476 
L 245.1375 37.647198 
L 246.103182 37.503609 
L 248.862273 37.208184 
L 249.965909 37.112757 
L 253.138864 36.779644 
L 253.690682 36.712332 
L 255.76 36.603046 
L 256.311818 36.576003 
L 259.484773 36.337985 
L 260.174545 36.297627 
L 260.864318 36.312543 
L 270.383182 35.793634 
L 270.521136 35.547512 
L 270.659091 35.76286 
L 271.486818 35.709206 
L 272.314545 35.628578 
L 274.797727 35.442325 
L 275.763409 35.37511 
L 276.591136 35.310986 
L 277.832727 35.281102 
L 279.764091 35.138711 
L 280.453864 35.140247 
L 281.419545 35.102337 
L 283.075 34.907623 
L 283.902727 34.748433 
L 284.178636 34.883186 
L 284.730455 34.877659 
L 286.11 34.831109 
L 287.903409 34.72713 
L 292.042045 34.496563 
L 293.973409 34.452151 
L 295.490909 34.427317 
L 296.870455 34.30565 
L 302.112727 34.004742 
L 303.906136 33.948213 
L 305.009773 33.915702 
L 309.838182 33.717737 
L 310.665909 33.666262 
L 311.9075 33.63768 
L 313.700909 33.552704 
L 313.838864 33.323248 
L 314.114773 33.505776 
L 315.494318 33.471052 
L 316.046136 33.427613 
L 317.011818 33.322601 
L 317.839545 33.26908 
L 319.770909 33.073325 
L 320.460682 33.023289 
L 320.598636 32.782183 
L 321.426364 32.877761 
L 323.219773 32.669313 
L 323.495682 32.397096 
L 323.771591 32.603913 
L 325.289091 32.536223 
L 325.427045 32.313852 
L 325.565 32.496371 
L 327.634318 32.374547 
L 327.772273 32.237416 
L 328.048182 32.375161 
L 329.427727 32.359883 
L 330.945227 32.274895 
L 331.497045 32.234988 
L 331.635 31.977742 
L 331.772955 32.19647 
L 340.602045 31.688428 
L 340.74 31.883992 
L 341.015909 31.625369 
L 341.429773 31.64088 
L 341.705682 31.64088 
L 341.843636 31.378301 
L 341.981591 31.613754 
L 344.050909 31.4723 
L 345.430455 31.403613 
L 346.534091 31.400621 
L 346.81 74.911279 
L 347.085909 31.349711 
L 347.637727 31.312851 
L 347.775682 31.481402 
L 348.051591 31.259577 
L 349.017273 31.285078 
L 351.3625 31.092714 
L 351.776364 31.115299 
L 353.707727 31.050262 
L 354.3975 31.00914 
L 357.846364 30.767302 
L 358.536136 30.736941 
L 358.674091 30.727253 
L 358.95 30.51415 
L 360.191591 30.506255 
L 361.847045 30.536736 
L 366.813409 30.371197 
L 368.744773 30.266511 
L 368.882727 72.212166 
L 369.020682 30.2043 
L 373.573182 29.822961 
L 373.711136 30.078334 
L 373.849091 29.768166 
L 376.470227 29.566234 
L 377.711818 29.370524 
L 381.436591 29.127636 
L 382.402273 29.12164 
L 383.505909 29.062291 
L 383.643864 143.161822 
L 383.781818 29.047409 
L 385.161364 28.985151 
L 387.092727 28.849983 
L 387.230682 143.559881 
L 387.368636 28.845694 
L 389.713864 28.826945 
L 393.024773 28.759082 
L 394.266364 28.750487 
L 396.749545 28.685408 
L 397.853182 28.604113 
L 400.474318 28.538312 
L 401.026136 28.512396 
L 401.715909 28.467705 
L 402.267727 28.439745 
L 406.406364 28.370047 
L 406.544318 303.866215 
L 406.682273 28.315212 
L 408.613636 28.242879 
L 418.408409 28.222442 
L 418.546364 205.087463 
L 418.822273 118.735767 
L 419.098182 54.460919 
L 419.374091 47.380673 
L 419.512045 41.749725 
L 419.65 30.261147 
L 419.787955 29.563537 
L 420.063864 26.790521 
L 420.339773 28.218933 
L 422.822955 28.152883 
L 424.340455 28.091995 
L 426.409773 27.960613 
L 426.685682 28.00034 
L 427.513409 27.950372 
L 427.651364 28.052262 
L 427.927273 27.934501 
L 429.720682 27.925255 
L 430.134545 27.961733 
L 431.238182 27.877341 
L 431.238182 27.877341 
" clip-path="url(#p842196d102)" style="fill: none; stroke: #800080; stroke-width: 3; stroke-linecap: round"/>
   </g>
   <g id="patch_3">
    <path d="M 37.24 317.72 
L 37.24 12.936736 
" style="fill: none; stroke: #ffffff; stroke-width: 0.8; stroke-linejoin: miter; stroke-linecap: square"/>
   </g>
   <g id="patch_4">
    <path d="M 450 317.72 
L 450 12.936736 
" style="fill: none; stroke: #ffffff; stroke-width: 0.8; stroke-linejoin: miter; stroke-linecap: square"/>
   </g>
   <g id="patch_5">
    <path d="M 37.24 317.72 
L 450 317.72 
" style="fill: none; stroke: #ffffff; stroke-width: 0.8; stroke-linejoin: miter; stroke-linecap: square"/>
   </g>
   <g id="patch_6">
    <path d="M 37.24 12.936736 
L 450 12.936736 
" style="fill: none; stroke: #ffffff; stroke-width: 0.8; stroke-linejoin: miter; stroke-linecap: square"/>
   </g>
   <g id="legend_1">
    <g id="patch_7">
     <path d="M 44.24 35.082048 
L 141.647813 35.082048 
Q 143.647813 35.082048 143.647813 33.082048 
L 143.647813 19.936736 
Q 143.647813 17.936736 141.647813 17.936736 
L 44.24 17.936736 
Q 42.24 17.936736 42.24 19.936736 
L 42.24 33.082048 
Q 42.24 35.082048 44.24 35.082048 
z
" style="fill: #eaeaf2; opacity: 0.8; stroke: #cccccc; stroke-linejoin: miter"/>
    </g>
    <g id="line2d_2">
     <path d="M 46.24 25.594548 
L 56.24 25.594548 
L 66.24 25.594548 
" style="fill: none; stroke: #800080; stroke-width: 3; stroke-linecap: round"/>
    </g>
    <g id="text_16">
     <!-- Gini coefficient -->
     <g style="fill: #262626" transform="translate(74.24 29.094548) scale(0.1 -0.1)">
      <defs>
       <path id="ArialMT-47" d="M 2638 1797 
L 2638 2334 
L 4578 2338 
L 4578 638 
Q 4131 281 3656 101 
Q 3181 -78 2681 -78 
Q 2006 -78 1454 211 
Q 903 500 622 1047 
Q 341 1594 341 2269 
Q 341 2938 620 3517 
Q 900 4097 1425 4378 
Q 1950 4659 2634 4659 
Q 3131 4659 3532 4498 
Q 3934 4338 4162 4050 
Q 4391 3763 4509 3300 
L 3963 3150 
Q 3859 3500 3706 3700 
Q 3553 3900 3268 4020 
Q 2984 4141 2638 4141 
Q 2222 4141 1919 4014 
Q 1616 3888 1430 3681 
Q 1244 3475 1141 3228 
Q 966 2803 966 2306 
Q 966 1694 1177 1281 
Q 1388 869 1791 669 
Q 2194 469 2647 469 
Q 3041 469 3416 620 
Q 3791 772 3984 944 
L 3984 1797 
L 2638 1797 
z
" transform="scale(0.015625)"/>
       <path id="ArialMT-69" d="M 425 3934 
L 425 4581 
L 988 4581 
L 988 3934 
L 425 3934 
z
M 425 0 
L 425 3319 
L 988 3319 
L 988 0 
L 425 0 
z
" transform="scale(0.015625)"/>
       <path id="ArialMT-6e" d="M 422 0 
L 422 3319 
L 928 3319 
L 928 2847 
Q 1294 3394 1984 3394 
Q 2284 3394 2536 3286 
Q 2788 3178 2913 3003 
Q 3038 2828 3088 2588 
Q 3119 2431 3119 2041 
L 3119 0 
L 2556 0 
L 2556 2019 
Q 2556 2363 2490 2533 
Q 2425 2703 2258 2804 
Q 2091 2906 1866 2906 
Q 1506 2906 1245 2678 
Q 984 2450 984 1813 
L 984 0 
L 422 0 
z
" transform="scale(0.015625)"/>
       <path id="ArialMT-20" transform="scale(0.015625)"/>
       <path id="ArialMT-63" d="M 2588 1216 
L 3141 1144 
Q 3050 572 2676 248 
Q 2303 -75 1759 -75 
Q 1078 -75 664 370 
Q 250 816 250 1647 
Q 250 2184 428 2587 
Q 606 2991 970 3192 
Q 1334 3394 1763 3394 
Q 2303 3394 2647 3120 
Q 2991 2847 3088 2344 
L 2541 2259 
Q 2463 2594 2264 2762 
Q 2066 2931 1784 2931 
Q 1359 2931 1093 2626 
Q 828 2322 828 1663 
Q 828 994 1084 691 
Q 1341 388 1753 388 
Q 2084 388 2306 591 
Q 2528 794 2588 1216 
z
" transform="scale(0.015625)"/>
       <path id="ArialMT-6f" d="M 213 1659 
Q 213 2581 725 3025 
Q 1153 3394 1769 3394 
Q 2453 3394 2887 2945 
Q 3322 2497 3322 1706 
Q 3322 1066 3130 698 
Q 2938 331 2570 128 
Q 2203 -75 1769 -75 
Q 1072 -75 642 372 
Q 213 819 213 1659 
z
M 791 1659 
Q 791 1022 1069 705 
Q 1347 388 1769 388 
Q 2188 388 2466 706 
Q 2744 1025 2744 1678 
Q 2744 2294 2464 2611 
Q 2184 2928 1769 2928 
Q 1347 2928 1069 2612 
Q 791 2297 791 1659 
z
" transform="scale(0.015625)"/>
       <path id="ArialMT-65" d="M 2694 1069 
L 3275 997 
Q 3138 488 2766 206 
Q 2394 -75 1816 -75 
Q 1088 -75 661 373 
Q 234 822 234 1631 
Q 234 2469 665 2931 
Q 1097 3394 1784 3394 
Q 2450 3394 2872 2941 
Q 3294 2488 3294 1666 
Q 3294 1616 3291 1516 
L 816 1516 
Q 847 969 1125 678 
Q 1403 388 1819 388 
Q 2128 388 2347 550 
Q 2566 713 2694 1069 
z
M 847 1978 
L 2700 1978 
Q 2663 2397 2488 2606 
Q 2219 2931 1791 2931 
Q 1403 2931 1139 2672 
Q 875 2413 847 1978 
z
" transform="scale(0.015625)"/>
       <path id="ArialMT-66" d="M 556 0 
L 556 2881 
L 59 2881 
L 59 3319 
L 556 3319 
L 556 3672 
Q 556 4006 616 4169 
Q 697 4388 901 4523 
Q 1106 4659 1475 4659 
Q 1713 4659 2000 4603 
L 1916 4113 
Q 1741 4144 1584 4144 
Q 1328 4144 1222 4034 
Q 1116 3925 1116 3625 
L 1116 3319 
L 1763 3319 
L 1763 2881 
L 1116 2881 
L 1116 0 
L 556 0 
z
" transform="scale(0.015625)"/>
       <path id="ArialMT-74" d="M 1650 503 
L 1731 6 
Q 1494 -44 1306 -44 
Q 1000 -44 831 53 
Q 663 150 594 308 
Q 525 466 525 972 
L 525 2881 
L 113 2881 
L 113 3319 
L 525 3319 
L 525 4141 
L 1084 4478 
L 1084 3319 
L 1650 3319 
L 1650 2881 
L 1084 2881 
L 1084 941 
Q 1084 700 1114 631 
Q 1144 563 1211 522 
Q 1278 481 1403 481 
Q 1497 481 1650 503 
z
" transform="scale(0.015625)"/>
      </defs>
      <use xlink:href="#ArialMT-47"/>
      <use xlink:href="#ArialMT-69" x="77.783203"/>
      <use xlink:href="#ArialMT-6e" x="100"/>
      <use xlink:href="#ArialMT-69" x="155.615234"/>
      <use xlink:href="#ArialMT-20" x="177.832031"/>
      <use xlink:href="#ArialMT-63" x="205.615234"/>
      <use xlink:href="#ArialMT-6f" x="255.615234"/>
      <use xlink:href="#ArialMT-65" x="311.230469"/>
      <use xlink:href="#ArialMT-66" x="366.845703"/>
      <use xlink:href="#ArialMT-66" x="392.878906"/>
      <use xlink:href="#ArialMT-69" x="420.662109"/>
      <use xlink:href="#ArialMT-63" x="442.878906"/>
      <use xlink:href="#ArialMT-69" x="492.878906"/>
      <use xlink:href="#ArialMT-65" x="515.095703"/>
      <use xlink:href="#ArialMT-6e" x="570.710938"/>
      <use xlink:href="#ArialMT-74" x="626.326172"/>
     </g>
    </g>
   </g>
  </g>
 </g>
 <defs>
  <clipPath id="p842196d102">
   <rect x="37.24" y="12.936736" width="412.76" height="304.783264"/>
  </clipPath>
 </defs>
</svg>
