<?xml version="1.0" encoding="utf-8" standalone="no"?>
<!DOCTYPE svg PUBLIC "-//W3C//DTD SVG 1.1//EN"
  "http://www.w3.org/Graphics/SVG/1.1/DTD/svg11.dtd">
<svg xmlns:xlink="http://www.w3.org/1999/xlink" width="460.8pt" height="345.6pt" viewBox="0 0 460.8 345.6" xmlns="http://www.w3.org/2000/svg" version="1.1">
 <metadata>
  <rdf:RDF xmlns:dc="http://purl.org/dc/elements/1.1/" xmlns:cc="http://creativecommons.org/ns#" xmlns:rdf="http://www.w3.org/1999/02/22-rdf-syntax-ns#">
   <cc:Work>
    <dc:type rdf:resource="http://purl.org/dc/dcmitype/StillImage"/>
    <dc:date>2024-04-11T21:26:20.698150</dc:date>
    <dc:format>image/svg+xml</dc:format>
    <dc:creator>
     <cc:Agent>
      <dc:title>Matplotlib v3.8.3, https://matplotlib.org/</dc:title>
     </cc:Agent>
    </dc:creator>
   </cc:Work>
  </rdf:RDF>
 </metadata>
 <defs>
  <style type="text/css">*{stroke-linejoin: round; stroke-linecap: butt}</style>
 </defs>
 <g id="figure_1">
  <g id="patch_1">
   <path d="M 0 345.6 
L 460.8 345.6 
L 460.8 0 
L 0 0 
z
" style="fill: #ffffff"/>
  </g>
  <g id="axes_1">
   <g id="patch_2">
    <path d="M 42.82 317.72 
L 450 317.72 
L 450 10.8 
L 42.82 10.8 
z
" style="fill: #eaeaf2"/>
   </g>
   <g id="matplotlib.axis_1">
    <g id="xtick_1">
     <g id="text_1">
      <!-- 2017 -->
      <g style="fill: #262626" transform="translate(61.157094 331.877812) scale(0.1 -0.1)">
       <defs>
        <path id="ArialMT-32" d="M 3222 541 
L 3222 0 
L 194 0 
Q 188 203 259 391 
Q 375 700 629 1000 
Q 884 1300 1366 1694 
Q 2113 2306 2375 2664 
Q 2638 3022 2638 3341 
Q 2638 3675 2398 3904 
Q 2159 4134 1775 4134 
Q 1369 4134 1125 3890 
Q 881 3647 878 3216 
L 300 3275 
Q 359 3922 746 4261 
Q 1134 4600 1788 4600 
Q 2447 4600 2831 4234 
Q 3216 3869 3216 3328 
Q 3216 3053 3103 2787 
Q 2991 2522 2730 2228 
Q 2469 1934 1863 1422 
Q 1356 997 1212 845 
Q 1069 694 975 541 
L 3222 541 
z
" transform="scale(0.015625)"/>
        <path id="ArialMT-30" d="M 266 2259 
Q 266 3072 433 3567 
Q 600 4063 929 4331 
Q 1259 4600 1759 4600 
Q 2128 4600 2406 4451 
Q 2684 4303 2865 4023 
Q 3047 3744 3150 3342 
Q 3253 2941 3253 2259 
Q 3253 1453 3087 958 
Q 2922 463 2592 192 
Q 2263 -78 1759 -78 
Q 1097 -78 719 397 
Q 266 969 266 2259 
z
M 844 2259 
Q 844 1131 1108 757 
Q 1372 384 1759 384 
Q 2147 384 2411 759 
Q 2675 1134 2675 2259 
Q 2675 3391 2411 3762 
Q 2147 4134 1753 4134 
Q 1366 4134 1134 3806 
Q 844 3388 844 2259 
z
" transform="scale(0.015625)"/>
        <path id="ArialMT-31" d="M 2384 0 
L 1822 0 
L 1822 3584 
Q 1619 3391 1289 3197 
Q 959 3003 697 2906 
L 697 3450 
Q 1169 3672 1522 3987 
Q 1875 4303 2022 4600 
L 2384 4600 
L 2384 0 
z
" transform="scale(0.015625)"/>
        <path id="ArialMT-37" d="M 303 3981 
L 303 4522 
L 3269 4522 
L 3269 4084 
Q 2831 3619 2401 2847 
Q 1972 2075 1738 1259 
Q 1569 684 1522 0 
L 944 0 
Q 953 541 1156 1306 
Q 1359 2072 1739 2783 
Q 2119 3494 2547 3981 
L 303 3981 
z
" transform="scale(0.015625)"/>
       </defs>
       <use xlink:href="#ArialMT-32"/>
       <use xlink:href="#ArialMT-30" x="55.615234"/>
       <use xlink:href="#ArialMT-31" x="111.230469"/>
       <use xlink:href="#ArialMT-37" x="166.845703"/>
      </g>
     </g>
    </g>
    <g id="xtick_2">
     <g id="text_2">
      <!-- 2018 -->
      <g style="fill: #262626" transform="translate(110.503232 331.877812) scale(0.1 -0.1)">
       <defs>
        <path id="ArialMT-38" d="M 1131 2484 
Q 781 2613 612 2850 
Q 444 3088 444 3419 
Q 444 3919 803 4259 
Q 1163 4600 1759 4600 
Q 2359 4600 2725 4251 
Q 3091 3903 3091 3403 
Q 3091 3084 2923 2848 
Q 2756 2613 2416 2484 
Q 2838 2347 3058 2040 
Q 3278 1734 3278 1309 
Q 3278 722 2862 322 
Q 2447 -78 1769 -78 
Q 1091 -78 675 323 
Q 259 725 259 1325 
Q 259 1772 486 2073 
Q 713 2375 1131 2484 
z
M 1019 3438 
Q 1019 3113 1228 2906 
Q 1438 2700 1772 2700 
Q 2097 2700 2305 2904 
Q 2513 3109 2513 3406 
Q 2513 3716 2298 3927 
Q 2084 4138 1766 4138 
Q 1444 4138 1231 3931 
Q 1019 3725 1019 3438 
z
M 838 1322 
Q 838 1081 952 856 
Q 1066 631 1291 507 
Q 1516 384 1775 384 
Q 2178 384 2440 643 
Q 2703 903 2703 1303 
Q 2703 1709 2433 1975 
Q 2163 2241 1756 2241 
Q 1359 2241 1098 1978 
Q 838 1716 838 1322 
z
" transform="scale(0.015625)"/>
       </defs>
       <use xlink:href="#ArialMT-32"/>
       <use xlink:href="#ArialMT-30" x="55.615234"/>
       <use xlink:href="#ArialMT-31" x="111.230469"/>
       <use xlink:href="#ArialMT-38" x="166.845703"/>
      </g>
     </g>
    </g>
    <g id="xtick_3">
     <g id="text_3">
      <!-- 2019 -->
      <g style="fill: #262626" transform="translate(159.849371 331.877812) scale(0.1 -0.1)">
       <defs>
        <path id="ArialMT-39" d="M 350 1059 
L 891 1109 
Q 959 728 1153 556 
Q 1347 384 1650 384 
Q 1909 384 2104 503 
Q 2300 622 2425 820 
Q 2550 1019 2634 1356 
Q 2719 1694 2719 2044 
Q 2719 2081 2716 2156 
Q 2547 1888 2255 1720 
Q 1963 1553 1622 1553 
Q 1053 1553 659 1965 
Q 266 2378 266 3053 
Q 266 3750 677 4175 
Q 1088 4600 1706 4600 
Q 2153 4600 2523 4359 
Q 2894 4119 3086 3673 
Q 3278 3228 3278 2384 
Q 3278 1506 3087 986 
Q 2897 466 2520 194 
Q 2144 -78 1638 -78 
Q 1100 -78 759 220 
Q 419 519 350 1059 
z
M 2653 3081 
Q 2653 3566 2395 3850 
Q 2138 4134 1775 4134 
Q 1400 4134 1122 3828 
Q 844 3522 844 3034 
Q 844 2597 1108 2323 
Q 1372 2050 1759 2050 
Q 2150 2050 2401 2323 
Q 2653 2597 2653 3081 
z
" transform="scale(0.015625)"/>
       </defs>
       <use xlink:href="#ArialMT-32"/>
       <use xlink:href="#ArialMT-30" x="55.615234"/>
       <use xlink:href="#ArialMT-31" x="111.230469"/>
       <use xlink:href="#ArialMT-39" x="166.845703"/>
      </g>
     </g>
    </g>
    <g id="xtick_4">
     <g id="text_4">
      <!-- 2020 -->
      <g style="fill: #262626" transform="translate(209.195509 331.877812) scale(0.1 -0.1)">
       <use xlink:href="#ArialMT-32"/>
       <use xlink:href="#ArialMT-30" x="55.615234"/>
       <use xlink:href="#ArialMT-32" x="111.230469"/>
       <use xlink:href="#ArialMT-30" x="166.845703"/>
      </g>
     </g>
    </g>
    <g id="xtick_5">
     <g id="text_5">
      <!-- 2021 -->
      <g style="fill: #262626" transform="translate(258.676843 331.877812) scale(0.1 -0.1)">
       <use xlink:href="#ArialMT-32"/>
       <use xlink:href="#ArialMT-30" x="55.615234"/>
       <use xlink:href="#ArialMT-32" x="111.230469"/>
       <use xlink:href="#ArialMT-31" x="166.845703"/>
      </g>
     </g>
    </g>
    <g id="xtick_6">
     <g id="text_6">
      <!-- 2022 -->
      <g style="fill: #262626" transform="translate(308.022981 331.877812) scale(0.1 -0.1)">
       <use xlink:href="#ArialMT-32"/>
       <use xlink:href="#ArialMT-30" x="55.615234"/>
       <use xlink:href="#ArialMT-32" x="111.230469"/>
       <use xlink:href="#ArialMT-32" x="166.845703"/>
      </g>
     </g>
    </g>
    <g id="xtick_7">
     <g id="text_7">
      <!-- 2023 -->
      <g style="fill: #262626" transform="translate(357.36912 331.877812) scale(0.1 -0.1)">
       <defs>
        <path id="ArialMT-33" d="M 269 1209 
L 831 1284 
Q 928 806 1161 595 
Q 1394 384 1728 384 
Q 2125 384 2398 659 
Q 2672 934 2672 1341 
Q 2672 1728 2419 1979 
Q 2166 2231 1775 2231 
Q 1616 2231 1378 2169 
L 1441 2663 
Q 1497 2656 1531 2656 
Q 1891 2656 2178 2843 
Q 2466 3031 2466 3422 
Q 2466 3731 2256 3934 
Q 2047 4138 1716 4138 
Q 1388 4138 1169 3931 
Q 950 3725 888 3313 
L 325 3413 
Q 428 3978 793 4289 
Q 1159 4600 1703 4600 
Q 2078 4600 2393 4439 
Q 2709 4278 2876 4000 
Q 3044 3722 3044 3409 
Q 3044 3113 2884 2869 
Q 2725 2625 2413 2481 
Q 2819 2388 3044 2092 
Q 3269 1797 3269 1353 
Q 3269 753 2831 336 
Q 2394 -81 1725 -81 
Q 1122 -81 723 278 
Q 325 638 269 1209 
z
" transform="scale(0.015625)"/>
       </defs>
       <use xlink:href="#ArialMT-32"/>
       <use xlink:href="#ArialMT-30" x="55.615234"/>
       <use xlink:href="#ArialMT-32" x="111.230469"/>
       <use xlink:href="#ArialMT-33" x="166.845703"/>
      </g>
     </g>
    </g>
    <g id="xtick_8">
     <g id="text_8">
      <!-- 2024 -->
      <g style="fill: #262626" transform="translate(406.715258 331.877812) scale(0.1 -0.1)">
       <defs>
        <path id="ArialMT-34" d="M 2069 0 
L 2069 1097 
L 81 1097 
L 81 1613 
L 2172 4581 
L 2631 4581 
L 2631 1613 
L 3250 1613 
L 3250 1097 
L 2631 1097 
L 2631 0 
L 2069 0 
z
M 2069 1613 
L 2069 3678 
L 634 1613 
L 2069 1613 
z
" transform="scale(0.015625)"/>
       </defs>
       <use xlink:href="#ArialMT-32"/>
       <use xlink:href="#ArialMT-30" x="55.615234"/>
       <use xlink:href="#ArialMT-32" x="111.230469"/>
       <use xlink:href="#ArialMT-34" x="166.845703"/>
      </g>
     </g>
    </g>
   </g>
   <g id="matplotlib.axis_2">
    <g id="ytick_1">
     <g id="text_9">
      <!-- 0.800 -->
      <g style="fill: #262626" transform="translate(10.798125 320.998232) scale(0.1 -0.1)">
       <defs>
        <path id="ArialMT-2e" d="M 581 0 
L 581 641 
L 1222 641 
L 1222 0 
L 581 0 
z
" transform="scale(0.015625)"/>
       </defs>
       <use xlink:href="#ArialMT-30"/>
       <use xlink:href="#ArialMT-2e" x="55.615234"/>
       <use xlink:href="#ArialMT-38" x="83.398438"/>
       <use xlink:href="#ArialMT-30" x="139.013672"/>
       <use xlink:href="#ArialMT-30" x="194.628906"/>
      </g>
     </g>
    </g>
    <g id="ytick_2">
     <g id="text_10">
      <!-- 0.805 -->
      <g style="fill: #262626" transform="translate(10.798125 280.404393) scale(0.1 -0.1)">
       <defs>
        <path id="ArialMT-35" d="M 266 1200 
L 856 1250 
Q 922 819 1161 601 
Q 1400 384 1738 384 
Q 2144 384 2425 690 
Q 2706 997 2706 1503 
Q 2706 1984 2436 2262 
Q 2166 2541 1728 2541 
Q 1456 2541 1237 2417 
Q 1019 2294 894 2097 
L 366 2166 
L 809 4519 
L 3088 4519 
L 3088 3981 
L 1259 3981 
L 1013 2750 
Q 1425 3038 1878 3038 
Q 2478 3038 2890 2622 
Q 3303 2206 3303 1553 
Q 3303 931 2941 478 
Q 2500 -78 1738 -78 
Q 1113 -78 717 272 
Q 322 622 266 1200 
z
" transform="scale(0.015625)"/>
       </defs>
       <use xlink:href="#ArialMT-30"/>
       <use xlink:href="#ArialMT-2e" x="55.615234"/>
       <use xlink:href="#ArialMT-38" x="83.398438"/>
       <use xlink:href="#ArialMT-30" x="139.013672"/>
       <use xlink:href="#ArialMT-35" x="194.628906"/>
      </g>
     </g>
    </g>
    <g id="ytick_3">
     <g id="text_11">
      <!-- 0.810 -->
      <g style="fill: #262626" transform="translate(10.798125 239.810554) scale(0.1 -0.1)">
       <use xlink:href="#ArialMT-30"/>
       <use xlink:href="#ArialMT-2e" x="55.615234"/>
       <use xlink:href="#ArialMT-38" x="83.398438"/>
       <use xlink:href="#ArialMT-31" x="139.013672"/>
       <use xlink:href="#ArialMT-30" x="194.628906"/>
      </g>
     </g>
    </g>
    <g id="ytick_4">
     <g id="text_12">
      <!-- 0.815 -->
      <g style="fill: #262626" transform="translate(10.798125 199.216715) scale(0.1 -0.1)">
       <use xlink:href="#ArialMT-30"/>
       <use xlink:href="#ArialMT-2e" x="55.615234"/>
       <use xlink:href="#ArialMT-38" x="83.398438"/>
       <use xlink:href="#ArialMT-31" x="139.013672"/>
       <use xlink:href="#ArialMT-35" x="194.628906"/>
      </g>
     </g>
    </g>
    <g id="ytick_5">
     <g id="text_13">
      <!-- 0.820 -->
      <g style="fill: #262626" transform="translate(10.798125 158.622877) scale(0.1 -0.1)">
       <use xlink:href="#ArialMT-30"/>
       <use xlink:href="#ArialMT-2e" x="55.615234"/>
       <use xlink:href="#ArialMT-38" x="83.398438"/>
       <use xlink:href="#ArialMT-32" x="139.013672"/>
       <use xlink:href="#ArialMT-30" x="194.628906"/>
      </g>
     </g>
    </g>
    <g id="ytick_6">
     <g id="text_14">
      <!-- 0.825 -->
      <g style="fill: #262626" transform="translate(10.798125 118.029038) scale(0.1 -0.1)">
       <use xlink:href="#ArialMT-30"/>
       <use xlink:href="#ArialMT-2e" x="55.615234"/>
       <use xlink:href="#ArialMT-38" x="83.398438"/>
       <use xlink:href="#ArialMT-32" x="139.013672"/>
       <use xlink:href="#ArialMT-35" x="194.628906"/>
      </g>
     </g>
    </g>
    <g id="ytick_7">
     <g id="text_15">
      <!-- 0.830 -->
      <g style="fill: #262626" transform="translate(10.798125 77.435199) scale(0.1 -0.1)">
       <use xlink:href="#ArialMT-30"/>
       <use xlink:href="#ArialMT-2e" x="55.615234"/>
       <use xlink:href="#ArialMT-38" x="83.398438"/>
       <use xlink:href="#ArialMT-33" x="139.013672"/>
       <use xlink:href="#ArialMT-30" x="194.628906"/>
      </g>
     </g>
    </g>
    <g id="ytick_8">
     <g id="text_16">
      <!-- 0.835 -->
      <g style="fill: #262626" transform="translate(10.798125 36.84136) scale(0.1 -0.1)">
       <use xlink:href="#ArialMT-30"/>
       <use xlink:href="#ArialMT-2e" x="55.615234"/>
       <use xlink:href="#ArialMT-38" x="83.398438"/>
       <use xlink:href="#ArialMT-33" x="139.013672"/>
       <use xlink:href="#ArialMT-35" x="194.628906"/>
      </g>
     </g>
    </g>
   </g>
   <g id="PolyCollection_1"/>
   <g id="line2d_1">
    <path d="M 61.328182 303.769091 
L 61.868961 302.877742 
L 62.139351 302.68235 
L 62.409741 301.02262 
L 62.544936 300.76528 
L 62.680131 300.172772 
L 63.22091 300.624307 
L 63.356105 300.445473 
L 63.626495 299.974132 
L 64.843249 298.766419 
L 64.978444 298.990534 
L 65.248834 298.572122 
L 65.519224 298.484388 
L 65.924808 298.153097 
L 66.060003 298.153097 
L 66.330393 297.66383 
L 66.465588 297.526405 
L 66.600783 297.224821 
L 66.735978 297.265451 
L 66.871173 297.522283 
L 67.141563 297.003931 
L 67.547147 296.293304 
L 67.682342 296.201617 
L 67.817537 296.256057 
L 68.087927 295.323257 
L 68.493512 295.277834 
L 69.439876 293.722301 
L 69.575071 293.82439 
L 70.11585 293.209499 
L 70.38624 293.333565 
L 70.521435 293.333565 
L 70.65663 292.957384 
L 70.791825 292.960889 
L 71.062215 292.241182 
L 71.19741 292.297775 
L 71.467799 291.823431 
L 71.738189 291.859919 
L 71.873384 291.229541 
L 72.143774 291.194339 
L 72.414164 290.851746 
L 73.090138 288.490963 
L 73.225333 288.490963 
L 73.495723 287.768768 
L 73.630918 287.768768 
L 74.171697 286.759596 
L 74.306892 286.688789 
L 74.712477 285.73889 
L 74.847672 285.570192 
L 74.982867 284.034054 
L 75.118062 283.967104 
L 75.253257 284.096233 
L 75.658841 283.35706 
L 75.929231 282.64222 
L 76.199621 282.357156 
L 76.334816 282.515315 
L 76.470011 282.257114 
L 76.605206 283.101053 
L 76.7404 282.839683 
L 76.875595 282.12189 
L 77.01079 282.044318 
L 77.145985 281.734898 
L 77.28118 282.034345 
L 77.82196 281.307405 
L 78.362739 281.171816 
L 78.633129 280.703949 
L 78.768324 280.726865 
L 79.038714 280.095373 
L 79.173909 280.205333 
L 79.444298 279.733602 
L 79.579493 279.716708 
L 79.714688 279.466963 
L 79.849883 279.581568 
L 79.985078 279.228312 
L 80.120273 279.827674 
L 80.255468 279.623044 
L 80.390663 279.623044 
L 80.525858 278.169449 
L 81.607417 276.304485 
L 81.742612 275.74557 
L 81.877807 275.754206 
L 82.283391 275.098316 
L 82.553781 274.715189 
L 83.094561 273.918086 
L 83.229756 273.861881 
L 84.311315 271.943257 
L 84.7169 271.639277 
L 84.987289 271.085596 
L 85.122484 270.817559 
L 85.257679 270.817559 
L 85.392874 270.317748 
L 85.528069 270.294156 
L 86.204043 268.82995 
L 86.339238 268.808857 
L 86.474433 268.584632 
L 86.609628 268.748246 
L 87.691187 265.848396 
L 87.961577 265.559671 
L 88.231967 265.188409 
L 88.907941 264.459533 
L 89.178331 263.873476 
L 89.448721 263.481347 
L 89.719111 263.402801 
L 89.989501 262.684043 
L 90.25989 262.364771 
L 90.53028 262.313164 
L 90.665475 262.241718 
L 90.935865 261.821672 
L 91.206255 261.727887 
L 91.34145 261.602976 
L 91.611839 261.602976 
L 91.747034 260.864729 
L 91.882229 261.224744 
L 92.152619 261.179054 
L 92.423009 260.897972 
L 92.558204 260.965968 
L 92.828594 260.857936 
L 93.369373 259.686289 
L 93.910153 259.012495 
L 94.180543 258.587936 
L 94.315737 258.381905 
L 94.450932 258.487507 
L 94.856517 257.811344 
L 95.126907 257.599399 
L 95.532492 256.643607 
L 95.667686 256.65293 
L 95.802881 256.226053 
L 95.938076 256.239276 
L 96.478856 255.51886 
L 96.749246 255.45169 
L 96.884441 256.652597 
L 97.019635 255.256151 
L 97.42522 254.833536 
L 97.966 254.049349 
L 98.101195 254.081866 
L 98.506779 252.988262 
L 99.047559 252.456833 
L 99.723533 251.714171 
L 99.858728 251.67352 
L 100.805093 249.738471 
L 100.940288 249.545533 
L 101.075482 248.958924 
L 101.210677 249.034074 
L 101.481067 248.863689 
L 102.021847 248.231581 
L 102.157042 248.277248 
L 102.427431 247.832692 
L 102.562626 247.955056 
L 102.697821 247.561222 
L 102.968211 247.475405 
L 103.103406 247.271353 
L 103.508991 246.178869 
L 103.644186 246.281795 
L 104.04977 245.622513 
L 104.32016 244.772674 
L 104.86094 244.04153 
L 105.131329 244.253951 
L 105.266524 244.045938 
L 105.401719 244.071335 
L 105.536914 243.026667 
L 105.807304 243.875073 
L 105.942499 243.60515 
L 106.212889 243.611379 
L 106.618473 242.826391 
L 106.888863 242.73465 
L 107.024058 242.478887 
L 107.159253 242.478887 
L 107.294448 242.081283 
L 107.429643 242.119833 
L 107.564838 241.94818 
L 107.835227 241.215597 
L 109.051982 240.052223 
L 109.187176 239.684787 
L 109.322371 239.961651 
L 109.457566 239.854018 
L 109.863151 239.256322 
L 109.998346 239.223599 
L 110.403931 238.60291 
L 110.94471 237.408113 
L 111.350295 236.966445 
L 111.620685 235.807756 
L 111.891074 235.293296 
L 112.431854 234.605128 
L 112.837439 234.332962 
L 112.972634 234.560774 
L 113.107829 234.365169 
L 113.378218 233.356037 
L 113.513413 235.190334 
L 113.648608 232.623578 
L 114.459778 232.280917 
L 114.594972 232.191284 
L 115.000557 231.051137 
L 115.135752 231.88844 
L 115.406142 231.380521 
L 115.541337 231.207979 
L 115.676532 231.439453 
L 115.811727 230.975512 
L 116.082116 231.108214 
L 116.758091 229.370568 
L 116.893286 229.49402 
L 117.163676 229.370826 
L 117.29887 229.370826 
L 117.434065 228.609501 
L 117.56926 228.609501 
L 117.974845 228.338854 
L 118.245235 228.322678 
L 118.650819 227.726813 
L 119.191599 227.593728 
L 119.326794 227.532617 
L 119.461989 227.33301 
L 119.732379 227.30511 
L 119.867574 227.30511 
L 120.137963 227.080723 
L 120.273158 226.981988 
L 120.543548 227.254842 
L 120.678743 227.134667 
L 120.813938 227.258705 
L 120.949133 227.214054 
L 121.219523 226.742665 
L 121.625107 225.36323 
L 121.760302 225.611556 
L 122.030692 224.666721 
L 122.165887 224.487281 
L 122.436277 225.296399 
L 122.571472 225.152593 
L 122.841861 223.936451 
L 123.382641 222.742094 
L 123.517836 222.617913 
L 123.653031 222.060956 
L 124.4642 220.638724 
L 124.599395 220.583843 
L 124.869785 220.137641 
L 125.00498 220.137641 
L 125.140175 219.60373 
L 125.27537 219.613541 
L 125.816149 218.045711 
L 125.951344 218.045711 
L 126.356929 217.413699 
L 126.492124 217.406916 
L 127.032903 216.913159 
L 127.168098 217.548178 
L 127.303293 217.495526 
L 127.573683 216.794873 
L 128.114462 215.653711 
L 128.249657 215.714449 
L 128.520047 215.516345 
L 128.655242 215.516345 
L 128.925632 214.99978 
L 129.196022 215.048572 
L 130.142386 213.577552 
L 130.412776 213.577552 
L 130.547971 212.925832 
L 130.81836 212.911787 
L 131.08875 212.752247 
L 131.223945 212.902983 
L 131.62953 212.580922 
L 131.764725 212.512274 
L 131.89992 212.66767 
L 132.846284 211.845855 
L 132.981479 211.725592 
L 133.116674 211.978478 
L 133.251869 211.835577 
L 133.387064 211.529851 
L 133.522258 211.567227 
L 133.792648 211.04136 
L 133.927843 210.85083 
L 134.063038 211.050764 
L 134.198233 210.882277 
L 134.333428 208.605232 
L 134.468623 210.312735 
L 134.739013 210.285626 
L 134.874207 210.411846 
L 135.144597 211.051096 
L 135.685377 210.772509 
L 135.820572 210.86788 
L 136.090962 210.16782 
L 136.496546 209.698897 
L 136.631741 209.649454 
L 136.766936 209.957351 
L 136.902131 209.929448 
L 137.037326 209.240383 
L 137.172521 209.386183 
L 137.442911 208.829092 
L 137.578105 208.796076 
L 137.848495 208.270615 
L 137.98369 207.329624 
L 138.118885 207.81854 
L 138.25408 207.709777 
L 138.52447 207.38932 
L 138.79486 207.387442 
L 138.930054 207.296723 
L 139.065249 206.975763 
L 139.200444 206.975763 
L 139.470834 206.485031 
L 139.606029 206.331328 
L 140.282003 206.1417 
L 140.417198 206.002419 
L 140.822783 206.183723 
L 140.957978 206.233105 
L 142.174732 203.887412 
L 142.309927 203.87567 
L 142.580317 203.312116 
L 142.850707 202.719748 
L 143.256291 202.662843 
L 143.391486 202.606199 
L 143.661876 202.340916 
L 144.202656 201.818539 
L 144.473045 201.704796 
L 144.743435 201.173988 
L 144.87863 201.173988 
L 145.013825 201.824133 
L 145.284215 201.731501 
L 145.41941 201.731501 
L 145.824994 201.273602 
L 146.095384 201.244033 
L 146.365774 201.428476 
L 146.906554 200.687049 
L 147.041748 200.67831 
L 147.312138 200.226257 
L 147.447333 200.226257 
L 147.582528 199.982325 
L 147.717723 199.982325 
L 147.852918 199.535822 
L 148.258503 199.398792 
L 148.664087 199.227551 
L 149.069672 199.163046 
L 149.204867 198.741119 
L 149.475257 198.727872 
L 149.610452 198.117325 
L 149.745646 198.394931 
L 150.016036 198.199444 
L 150.151231 198.199444 
L 150.962401 197.447417 
L 151.367985 197.530318 
L 152.04396 196.882569 
L 152.584739 196.883818 
L 152.719934 195.70031 
L 152.990324 195.75546 
L 153.395909 194.94202 
L 153.531104 195.036072 
L 154.342273 194.303024 
L 154.612663 193.904407 
L 155.018248 193.644046 
L 155.423832 193.567541 
L 155.559027 193.47643 
L 155.964612 193.08646 
L 156.505391 192.801077 
L 156.640586 192.648832 
L 156.775781 192.779851 
L 157.046171 192.57049 
L 157.181366 191.718933 
L 157.316561 192.304142 
L 157.451756 192.244286 
L 157.85734 191.571771 
L 158.12773 191.630143 
L 158.39812 191.632667 
L 158.533315 191.489912 
L 158.66851 186.178877 
L 158.803705 191.696305 
L 159.074095 191.338088 
L 159.750069 191.465718 
L 159.885264 191.294886 
L 160.020459 191.455128 
L 160.426044 191.0839 
L 160.696433 190.699931 
L 160.831628 192.901228 
L 160.966823 190.01868 
L 161.102018 190.230755 
L 161.237213 188.729921 
L 161.372408 190.080695 
L 161.507603 190.026286 
L 161.642798 190.160225 
L 161.777993 188.641762 
L 161.913187 189.174448 
L 162.048382 187.150415 
L 162.183577 189.253043 
L 162.318772 188.127114 
L 162.453967 189.957767 
L 162.724357 187.663697 
L 163.129942 187.02532 
L 163.400331 185.691635 
L 163.535526 185.393837 
L 163.670721 182.76023 
L 163.805916 184.350521 
L 163.941111 184.478346 
L 164.076306 184.219756 
L 164.887475 184.439594 
L 165.02267 183.629074 
L 165.29306 183.280334 
L 165.56345 183.616161 
L 165.698645 183.489064 
L 165.83384 182.424484 
L 165.969034 182.401247 
L 166.104229 182.24908 
L 166.374619 181.625018 
L 166.915399 181.349549 
L 167.591373 181.343521 
L 167.726568 181.34827 
L 167.996958 181.204873 
L 168.132153 181.36084 
L 168.672932 181.127538 
L 169.213712 180.487614 
L 169.484102 180.615657 
L 169.619297 180.50547 
L 169.754492 180.59722 
L 170.160076 180.394784 
L 170.430466 180.311034 
L 170.700856 179.877087 
L 170.836051 179.943588 
L 170.971246 179.844125 
L 171.106441 179.603719 
L 171.37683 179.648236 
L 172.188 179.125569 
L 172.45839 178.640074 
L 172.593585 178.640679 
L 172.863974 178.544175 
L 174.215923 178.024434 
L 174.621508 177.198439 
L 175.162288 176.44559 
L 175.297483 173.286807 
L 175.432677 176.251645 
L 175.973457 175.6327 
L 176.108652 175.762837 
L 176.379042 175.375394 
L 176.649432 175.363738 
L 176.784626 175.103686 
L 177.325406 175.068593 
L 177.730991 174.566635 
L 177.866186 174.21517 
L 178.136575 174.086505 
L 178.406965 173.839605 
L 178.81255 172.981156 
L 179.758914 172.029255 
L 179.894109 172.02181 
L 180.164499 171.703754 
L 180.299694 171.672527 
L 180.434889 171.432289 
L 180.840473 171.36892 
L 180.975668 171.339582 
L 181.110863 171.153021 
L 181.516448 171.360548 
L 181.786838 170.97973 
L 182.598007 170.752616 
L 183.138787 170.621262 
L 183.409177 170.224064 
L 183.544371 170.152993 
L 183.679566 169.914135 
L 183.949956 168.623638 
L 184.625931 168.654105 
L 184.89632 168.245619 
L 185.031515 168.266186 
L 185.16671 168.170167 
L 185.4371 167.707252 
L 185.572295 167.816739 
L 185.842685 167.625882 
L 185.97788 167.184645 
L 186.113075 167.193977 
L 186.248269 167.05364 
L 186.383464 167.096899 
L 186.518659 166.834587 
L 186.653854 166.823289 
L 186.924244 166.379962 
L 187.059439 166.476695 
L 187.465024 166.227062 
L 187.870608 165.382737 
L 188.005803 165.441691 
L 188.276193 165.339327 
L 188.816973 165.077731 
L 188.952167 164.969358 
L 189.222557 165.011083 
L 189.357752 165.004582 
L 189.492947 164.661681 
L 189.628142 164.687434 
L 189.763337 164.579072 
L 189.898532 164.685934 
L 190.033727 164.645437 
L 190.168922 164.368799 
L 190.709701 164.375614 
L 190.980091 164.023104 
L 191.115286 164.080727 
L 191.520871 163.846146 
L 191.656065 163.544691 
L 192.60243 163.595913 
L 192.87282 163.699962 
L 193.143209 163.382634 
L 193.413599 163.248839 
L 193.683989 163.067603 
L 194.630353 162.565805 
L 195.035938 162.155415 
L 195.441523 161.787431 
L 195.576718 161.774249 
L 195.847107 161.618581 
L 196.523082 161.169263 
L 196.928667 160.403969 
L 197.063861 160.596954 
L 197.199056 160.406579 
L 197.334251 159.978846 
L 197.604641 159.88609 
L 197.875031 159.560958 
L 198.280616 159.041734 
L 198.551005 158.708979 
L 198.6862 158.392235 
L 198.821395 158.405364 
L 199.22698 157.851308 
L 199.362175 157.785208 
L 199.49737 157.531242 
L 199.767759 157.50173 
L 199.902954 156.883209 
L 200.038149 156.855655 
L 200.443734 156.368324 
L 200.578929 156.254079 
L 201.119708 155.426408 
L 201.660488 154.569943 
L 202.201268 153.680316 
L 202.336463 153.236905 
L 202.606852 153.453885 
L 202.742047 153.201613 
L 203.012437 153.227595 
L 203.418022 152.471709 
L 203.553217 152.561352 
L 203.688412 152.512669 
L 204.093996 152.099671 
L 204.499581 151.950063 
L 205.175555 152.251239 
L 205.31075 151.991058 
L 205.445945 151.979486 
L 205.58114 151.646045 
L 205.716335 151.731453 
L 206.12192 151.266997 
L 206.257115 151.168931 
L 206.39231 151.274856 
L 206.797894 150.947612 
L 206.933089 151.111638 
L 207.203479 150.462611 
L 207.609064 150.406143 
L 208.149843 150.123266 
L 208.285038 150.037467 
L 208.420233 150.101513 
L 208.690623 149.902599 
L 208.825818 149.905561 
L 208.961013 150.156423 
L 209.772182 149.472808 
L 210.042572 149.023273 
L 210.312962 148.814225 
L 210.448157 148.850498 
L 210.718546 148.475975 
L 211.259326 147.515797 
L 211.664911 146.761975 
L 211.800106 146.820991 
L 211.9353 146.551697 
L 212.340885 146.721363 
L 212.47608 146.469619 
L 212.611275 146.635936 
L 213.152055 145.896764 
L 213.287249 145.927404 
L 213.422444 145.597476 
L 213.557639 145.740598 
L 213.963224 145.303929 
L 214.639198 145.694814 
L 215.044783 145.491264 
L 215.179978 145.470624 
L 215.720758 144.57081 
L 215.991147 144.506026 
L 216.261537 144.275313 
L 216.531927 144.313333 
L 216.937512 143.798031 
L 218.154266 143.507098 
L 218.559851 143.109097 
L 218.83024 142.651714 
L 218.965435 142.773222 
L 219.37102 142.005614 
L 219.506215 142.054619 
L 219.64141 141.915468 
L 219.9118 141.325448 
L 220.182189 141.363805 
L 220.317384 141.288995 
L 220.587774 140.710554 
L 220.993359 140.687707 
L 221.398943 140.002662 
L 221.939723 139.739945 
L 222.210113 139.16733 
L 222.345308 139.230156 
L 222.615698 138.6943 
L 222.886087 138.611941 
L 223.156477 138.275144 
L 223.426867 138.022189 
L 224.102841 137.260326 
L 224.238036 137.323775 
L 224.373231 137.023773 
L 224.508426 137.023864 
L 224.643621 136.673204 
L 224.778816 136.89598 
L 225.049206 136.804328 
L 225.319596 136.398346 
L 226.130765 135.688621 
L 226.26596 135.317773 
L 226.401155 135.362214 
L 227.347519 134.275748 
L 227.482714 133.9795 
L 227.617909 134.071822 
L 227.888299 133.868423 
L 228.429078 132.468901 
L 228.699468 132.257208 
L 228.834663 132.585769 
L 229.105053 132.178205 
L 229.240248 132.192276 
L 229.510637 131.783007 
L 229.781027 131.793527 
L 230.321807 131.431412 
L 230.457002 131.509118 
L 230.862586 131.339872 
L 231.268171 131.316234 
L 231.673756 131.423244 
L 233.43129 130.148436 
L 233.836874 129.332746 
L 233.972069 129.464015 
L 234.107264 129.427292 
L 234.377654 129.141711 
L 234.512849 129.142486 
L 235.324018 128.193206 
L 235.459213 128.105399 
L 235.864798 127.393942 
L 235.999993 127.391716 
L 236.135188 127.247858 
L 236.270382 126.842853 
L 236.405577 126.91852 
L 238.163111 125.239934 
L 238.568696 124.030727 
L 238.703891 124.050571 
L 238.839086 123.791153 
L 239.109475 123.79273 
L 239.650255 123.241237 
L 239.78545 123.243156 
L 239.920645 123.123266 
L 240.731814 121.490685 
L 240.867009 121.473402 
L 241.137399 121.008075 
L 241.272594 120.924935 
L 241.407789 120.409702 
L 242.218958 120.156336 
L 244.922856 117.257695 
L 245.328441 117.139598 
L 245.463636 117.1103 
L 245.734025 116.807519 
L 246.004415 116.757092 
L 246.545195 116.401882 
L 246.68039 116.403501 
L 247.085975 115.658765 
L 247.897144 114.809898 
L 248.573118 113.949931 
L 248.978703 113.600171 
L 249.113898 113.67764 
L 249.654678 112.315905 
L 249.925067 112.250831 
L 250.195457 112.301531 
L 250.465847 112.433503 
L 250.871432 112.080532 
L 251.006627 112.072934 
L 251.547406 111.473825 
L 251.817796 111.055431 
L 252.223381 110.861316 
L 252.493771 110.609875 
L 252.899355 109.996381 
L 253.169745 109.905612 
L 253.710525 109.265346 
L 253.84572 109.221118 
L 254.251304 108.781852 
L 254.521694 108.544805 
L 254.792084 107.998208 
L 255.197669 107.814883 
L 255.332863 107.842972 
L 255.603253 107.690321 
L 256.008838 107.360709 
L 256.144033 107.394683 
L 256.279228 107.294507 
L 256.414423 107.345719 
L 256.684812 107.177094 
L 257.090397 106.945103 
L 257.225592 107.108809 
L 257.360787 107.070568 
L 258.307151 105.987718 
L 258.442346 105.921469 
L 258.577541 106.026341 
L 258.712736 105.874255 
L 258.983126 105.907759 
L 259.118321 105.709193 
L 259.6591 105.68183 
L 259.92949 105.344226 
L 260.064685 105.340859 
L 260.47027 104.592577 
L 261.011049 104.503174 
L 261.551829 104.02031 
L 261.687024 103.954824 
L 262.227803 104.24674 
L 262.498193 103.925548 
L 262.633388 103.966006 
L 262.903778 103.789135 
L 263.038973 103.914935 
L 263.174168 103.815563 
L 263.309363 103.378619 
L 263.714947 103.308845 
L 263.850142 103.243025 
L 263.985337 102.987991 
L 264.120532 103.136777 
L 264.255727 102.914584 
L 264.526117 102.959314 
L 264.796506 102.487529 
L 265.066896 102.522264 
L 265.202091 102.22709 
L 265.337286 102.269212 
L 265.472481 102.044848 
L 265.742871 101.99825 
L 266.148455 101.687955 
L 266.418845 101.543629 
L 266.82443 101.647723 
L 267.230015 101.912192 
L 267.635599 101.709651 
L 269.257938 100.674029 
L 269.528328 100.605828 
L 269.663523 100.849684 
L 269.798718 100.726153 
L 269.933913 100.838043 
L 270.069108 100.540464 
L 270.339497 100.967406 
L 271.150667 99.791836 
L 271.421057 99.613081 
L 271.556251 97.383591 
L 271.691446 99.334314 
L 271.826641 99.388198 
L 272.232226 99.082652 
L 272.367421 98.855674 
L 272.502616 98.848293 
L 272.773006 98.470402 
L 274.936124 96.808739 
L 275.206514 96.763261 
L 275.341709 96.672531 
L 275.476904 96.745597 
L 276.558463 95.825364 
L 276.693658 95.821896 
L 276.964047 95.477628 
L 277.099242 95.618658 
L 277.369632 95.320011 
L 277.504827 95.241033 
L 277.910412 95.3229 
L 278.180802 95.127604 
L 278.721581 94.97033 
L 278.991971 94.694612 
L 279.127166 94.733346 
L 279.667945 94.250887 
L 280.07353 94.016167 
L 280.208725 94.125629 
L 280.61431 93.680489 
L 280.8847 93.9716 
L 281.560674 93.367489 
L 281.695869 93.410183 
L 282.101454 93.254876 
L 282.236649 93.350991 
L 282.371843 93.281245 
L 282.912623 92.564467 
L 283.047818 92.521518 
L 283.183013 92.651706 
L 284.129377 91.39151 
L 284.534962 91.412374 
L 284.670157 90.145174 
L 284.805352 91.296436 
L 284.940547 91.365826 
L 285.210936 91.029783 
L 285.616521 91.363553 
L 285.886911 91.380318 
L 286.157301 91.15661 
L 286.42769 91.180907 
L 286.562885 91.180557 
L 286.96847 90.743777 
L 287.374055 90.678946 
L 287.50925 90.559443 
L 287.644445 90.181075 
L 287.779639 90.188551 
L 288.050029 90.014698 
L 288.185224 89.887251 
L 288.455614 90.065221 
L 288.726004 89.914476 
L 288.996394 89.93579 
L 289.266783 89.71279 
L 289.537173 89.647612 
L 290.077953 89.196747 
L 291.835486 88.306258 
L 292.105876 88.308003 
L 292.917046 87.833794 
L 293.052241 88.059202 
L 293.187435 87.747473 
L 293.457825 87.723769 
L 293.728215 87.609852 
L 293.86341 87.675817 
L 294.1338 87.425095 
L 294.268995 87.555 
L 295.080164 87.134194 
L 295.485749 86.939774 
L 296.026528 87.236357 
L 296.161723 87.033009 
L 296.296918 87.22871 
L 296.567308 86.639758 
L 297.378477 86.134242 
L 297.784062 86.062496 
L 298.054452 86.162309 
L 298.324842 85.680715 
L 298.730426 85.405653 
L 299.136011 84.848936 
L 299.271206 84.900409 
L 299.541596 84.620453 
L 299.811986 85.120548 
L 300.082375 85.009047 
L 300.21757 85.081299 
L 300.48796 84.76274 
L 300.623155 84.864895 
L 301.163935 84.021016 
L 301.299129 83.899256 
L 301.569519 83.955381 
L 301.839909 83.67907 
L 302.245494 83.606318 
L 302.651078 83.293271 
L 302.921468 83.274024 
L 303.191858 83.190889 
L 303.462248 83.276195 
L 303.597443 83.143027 
L 303.732638 83.235609 
L 304.138222 82.894422 
L 305.084587 82.895071 
L 305.490171 82.577965 
L 305.625366 82.607719 
L 305.760561 82.452629 
L 305.895756 82.498121 
L 306.166146 82.785198 
L 306.301341 82.564352 
L 306.571731 82.682433 
L 306.706925 82.569149 
L 306.84212 82.671044 
L 307.11251 82.341687 
L 307.3829 82.197174 
L 307.92368 81.559009 
L 308.058874 81.520207 
L 308.194069 81.766023 
L 308.464459 81.618289 
L 309.275629 81.073879 
L 309.546018 81.117631 
L 309.816408 81.058783 
L 309.951603 81.031858 
L 310.357188 80.525993 
L 310.762772 80.227179 
L 311.168357 80.541751 
L 311.573942 80.3312 
L 311.844332 80.178606 
L 312.249916 79.990813 
L 312.385111 80.159494 
L 312.520306 80.140271 
L 312.925891 79.898518 
L 313.196281 79.81514 
L 313.73706 79.360621 
L 313.872255 79.313709 
L 314.00745 77.235192 
L 314.142645 78.86076 
L 314.27784 78.888616 
L 314.413035 78.756919 
L 314.683425 78.820076 
L 314.953814 78.611093 
L 315.089009 77.890452 
L 315.224204 78.525242 
L 315.494594 78.639307 
L 315.629789 78.574073 
L 315.764984 78.687047 
L 315.900179 78.598702 
L 316.035374 78.116707 
L 316.170568 78.180579 
L 316.576153 77.615314 
L 316.711348 77.69703 
L 316.846543 76.83956 
L 316.981738 77.423681 
L 317.116933 77.229335 
L 317.252128 77.304718 
L 317.792907 77.064747 
L 318.063297 76.689191 
L 318.333687 76.783889 
L 318.604077 76.547564 
L 318.874466 75.466859 
L 319.009661 75.908642 
L 319.550441 75.450978 
L 319.820831 74.971279 
L 320.36161 74.593707 
L 320.496805 74.518034 
L 320.632 72.333987 
L 320.767195 72.598786 
L 320.90239 73.743104 
L 321.037585 73.906048 
L 321.307975 73.470877 
L 321.578364 73.052045 
L 321.713559 73.025728 
L 322.254339 72.226279 
L 323.200703 71.311553 
L 323.471093 68.845691 
L 323.606288 70.554527 
L 323.876678 70.713935 
L 324.011873 70.623692 
L 324.282262 70.834352 
L 325.228627 70.105962 
L 325.363822 68.091631 
L 325.499017 69.744972 
L 325.634211 69.705078 
L 325.769406 69.925188 
L 325.904601 69.728991 
L 326.039796 69.77737 
L 326.174991 69.528973 
L 326.310186 69.531293 
L 326.850966 69.124897 
L 326.98616 69.02215 
L 327.25655 69.074216 
L 327.52694 68.64143 
L 327.662135 67.399234 
L 327.932525 68.646997 
L 328.202915 68.669674 
L 328.338109 68.458583 
L 329.149279 68.535693 
L 329.284474 68.508598 
L 329.419669 68.348615 
L 329.825253 68.461597 
L 330.366033 67.720094 
L 330.771618 67.73874 
L 331.177202 67.421319 
L 331.312397 67.377238 
L 331.447592 65.046994 
L 331.582787 67.028324 
L 332.123567 66.798725 
L 332.258762 66.941479 
L 332.529151 66.661819 
L 332.664346 66.8328 
L 332.799541 66.593617 
L 333.069931 66.67936 
L 333.475516 66.495165 
L 333.8811 66.123344 
L 334.286685 66.236859 
L 334.557075 65.895203 
L 334.69227 65.814611 
L 334.827465 65.951112 
L 336.044219 65.328536 
L 336.584998 64.675248 
L 336.720193 64.643586 
L 336.990583 64.374488 
L 337.531363 64.179903 
L 337.801752 63.950076 
L 338.612922 63.547495 
L 339.018507 63.01135 
L 339.153701 63.299575 
L 339.424091 63.22628 
L 339.559286 62.944375 
L 339.829676 62.969101 
L 339.964871 62.863424 
L 340.235261 62.426256 
L 340.370456 64.197762 
L 340.640845 61.855033 
L 340.77604 62.210677 
L 341.04643 61.995544 
L 341.31682 61.995544 
L 341.452015 59.616985 
L 341.58721 61.749825 
L 341.857599 61.673844 
L 342.803964 61.044724 
L 342.939159 61.180352 
L 343.750328 60.310744 
L 344.020718 60.265593 
L 344.291108 60.329867 
L 344.561497 60.125953 
L 345.102277 59.863613 
L 345.372667 59.962941 
L 345.913446 59.895778 
L 346.048641 59.819166 
L 346.724616 59.30205 
L 346.859811 59.320582 
L 347.130201 59.024108 
L 347.265395 60.550914 
L 347.40059 58.643642 
L 347.535785 58.541527 
L 347.806175 58.683772 
L 348.48215 58.772527 
L 348.752539 58.505158 
L 349.022929 57.976769 
L 349.293319 57.734451 
L 349.428514 57.71357 
L 349.698904 57.539256 
L 349.834099 57.266466 
L 350.780463 57.030008 
L 350.915658 57.393281 
L 351.321242 57.133453 
L 351.456437 57.133453 
L 351.726827 57.052807 
L 352.267607 56.992573 
L 352.402802 57.057696 
L 353.078776 56.645453 
L 353.213971 56.766052 
L 354.160335 56.207444 
L 354.29553 56.181317 
L 355.241895 55.695591 
L 355.647479 55.620381 
L 355.917869 55.031581 
L 356.053064 55.032191 
L 356.864233 54.152951 
L 356.999428 54.189738 
L 357.269818 53.836278 
L 357.540208 53.311995 
L 357.675403 53.9334 
L 357.945793 53.719489 
L 358.080987 51.915739 
L 358.486572 51.532572 
L 358.621767 52.181459 
L 358.756962 52.168027 
L 358.892157 51.791999 
L 359.162547 51.815142 
L 359.297742 51.607421 
L 359.703326 51.830376 
L 359.838521 51.881469 
L 359.973716 51.770606 
L 360.244106 52.013911 
L 360.514496 52.034561 
L 360.649691 51.920492 
L 360.784885 52.026557 
L 361.055275 51.9937 
L 361.46086 51.952454 
L 361.866445 51.354183 
L 362.136834 51.262573 
L 362.407224 51.021959 
L 362.812809 51.034439 
L 363.083199 51.329823 
L 363.353589 51.099849 
L 363.488783 51.062399 
L 363.623978 51.167414 
L 363.759173 50.908892 
L 364.029563 51.049136 
L 364.299953 51.004086 
L 364.435148 50.926613 
L 364.705538 51.00603 
L 365.651902 50.862324 
L 366.057487 50.421825 
L 366.327876 50.331194 
L 366.733461 49.775192 
L 366.868656 49.918488 
L 367.139046 49.835879 
L 367.679825 49.570602 
L 367.81502 49.545884 
L 368.220605 48.898906 
L 368.490995 48.828063 
L 368.761385 48.895756 
L 369.031774 48.60277 
L 369.166969 48.619878 
L 369.437359 48.203757 
L 369.842944 47.61385 
L 370.924503 46.736096 
L 371.059698 46.750154 
L 371.330088 46.284416 
L 371.465283 46.393213 
L 371.735672 46.192619 
L 372.006062 46.181929 
L 372.546842 45.528 
L 372.682037 47.841291 
L 372.817232 45.031645 
L 372.952426 44.976465 
L 373.087621 44.779505 
L 373.898791 44.776185 
L 374.033986 44.712425 
L 374.304375 44.817507 
L 374.845155 44.419043 
L 374.98035 44.379402 
L 375.25074 43.946528 
L 375.52113 42.900718 
L 375.791519 42.449747 
L 376.061909 41.979066 
L 376.332299 41.63502 
L 376.873079 41.271033 
L 377.008273 41.249807 
L 377.549053 40.745489 
L 377.954638 40.708883 
L 378.089833 40.572379 
L 378.225028 40.596468 
L 378.765807 40.209163 
L 379.171392 40.0649 
L 379.712171 39.340391 
L 379.847366 39.360033 
L 379.982561 39.176721 
L 380.117756 39.277824 
L 380.252951 39.229435 
L 380.523341 39.325752 
L 380.658536 38.977278 
L 381.199315 39.224538 
L 382.14568 38.628499 
L 382.280875 38.637508 
L 382.686459 38.544749 
L 383.092044 38.393178 
L 383.362434 38.210233 
L 383.632824 38.199097 
L 384.443993 37.499981 
L 384.579188 37.489495 
L 384.849578 37.319675 
L 385.390357 36.903529 
L 385.660747 36.813847 
L 385.795942 36.714322 
L 386.336722 36.756356 
L 386.877501 36.664181 
L 387.553476 36.560284 
L 387.688671 36.652374 
L 387.95906 36.597709 
L 388.22945 36.578909 
L 389.175814 36.164656 
L 389.581399 36.131396 
L 390.122179 36.008311 
L 390.798153 36.045906 
L 391.068543 35.90265 
L 391.203738 35.859087 
L 391.474128 35.893692 
L 391.744518 35.988354 
L 392.420492 36.079487 
L 392.690882 35.829581 
L 392.826077 35.891214 
L 393.096467 35.85986 
L 393.502051 35.926332 
L 393.772441 35.70613 
L 393.907636 35.577193 
L 394.042831 35.794908 
L 394.313221 35.630872 
L 394.58361 35.658172 
L 394.718805 35.643524 
L 394.854 35.479846 
L 395.12439 35.421556 
L 395.259585 35.361317 
L 395.800365 34.685983 
L 395.935559 34.795195 
L 396.205949 34.551264 
L 397.422703 33.998583 
L 397.693093 34.111041 
L 398.369068 34.163649 
L 398.504263 34.122755 
L 398.774652 33.892883 
L 398.909847 33.89107 
L 399.180237 33.583927 
L 399.450627 33.656311 
L 399.585822 33.723809 
L 399.721017 33.397957 
L 399.856212 33.439613 
L 400.261796 32.968292 
L 400.532186 33.049444 
L 400.802576 32.959404 
L 400.937771 32.76109 
L 401.072966 32.792528 
L 401.613745 32.073866 
L 402.01933 32.188351 
L 402.424915 32.020893 
L 402.695304 32.165471 
L 402.830499 32.220577 
L 403.100889 32.107023 
L 403.506474 32.161471 
L 403.776864 32.03316 
L 404.047253 32.078482 
L 404.452838 32.050738 
L 404.723228 32.366846 
L 405.128813 31.894263 
L 405.399202 31.82841 
L 405.534397 31.525266 
L 405.669592 31.626209 
L 405.939982 31.518207 
L 406.075177 31.60347 
L 406.210372 31.306386 
L 406.345567 31.418153 
L 406.615957 31.267065 
L 406.751151 31.310493 
L 407.156736 31.098766 
L 407.291931 31.091065 
L 407.427126 31.246656 
L 407.562321 30.962229 
L 408.1031 31.435996 
L 408.238295 31.218374 
L 408.37349 31.548666 
L 408.508685 31.428139 
L 408.779075 30.99907 
L 408.91427 30.986677 
L 409.18466 31.312551 
L 409.319855 31.432921 
L 409.455049 31.385355 
L 409.590244 30.918584 
L 409.860634 31.14239 
L 409.995829 31.083132 
L 410.536609 31.346736 
L 410.671804 31.122602 
L 410.806998 31.492855 
L 411.212583 31.448543 
L 411.347778 31.204361 
L 411.482973 31.559096 
L 411.753363 31.217967 
L 411.888558 31.412128 
L 412.158947 31.233018 
L 412.429337 31.527081 
L 412.699727 31.460328 
L 413.105312 31.67216 
L 413.375702 31.432622 
L 413.510896 31.454631 
L 413.781286 31.22787 
L 414.051676 31.480456 
L 414.186871 31.259232 
L 414.457261 31.446852 
L 414.592456 31.497326 
L 414.727651 31.278908 
L 415.133235 31.488612 
L 415.26843 31.33941 
L 415.403625 31.02193 
L 415.53882 31.221128 
L 415.944405 31.008 
L 416.0796 30.929593 
L 416.214794 31.357359 
L 416.349989 31.142978 
L 416.485184 31.156553 
L 418.242718 24.750909 
L 418.377913 30.997991 
L 418.513108 31.013827 
L 418.648303 30.881626 
L 419.324277 31.052572 
L 419.594667 30.709484 
L 419.729862 30.913481 
L 420.000252 30.768294 
L 420.135447 30.501905 
L 420.270641 30.503026 
L 420.405836 30.381846 
L 420.541031 30.495882 
L 420.676226 30.319177 
L 420.811421 30.399676 
L 421.352201 29.972738 
L 422.028175 29.849148 
L 422.298565 29.848123 
L 422.43376 29.718739 
L 422.568955 29.775461 
L 422.974539 29.368508 
L 423.109734 29.664347 
L 423.380124 29.136216 
L 423.515319 28.897474 
L 423.650514 29.148659 
L 423.920904 29.036978 
L 424.191294 28.953509 
L 424.326488 28.658004 
L 424.461683 29.128256 
L 425.272853 28.463647 
L 425.408048 28.565239 
L 425.543243 29.488202 
L 425.678437 28.459179 
L 425.948827 28.347279 
L 426.084022 28.1575 
L 426.219217 28.397061 
L 426.354412 28.25294 
L 426.624802 28.586653 
L 426.895192 28.363756 
L 427.030386 28.399471 
L 427.165581 28.611128 
L 427.571166 28.33772 
L 427.706361 28.635655 
L 427.841556 28.495937 
L 427.976751 28.668157 
L 428.111946 28.479124 
L 428.382335 28.670687 
L 428.652725 28.354429 
L 428.923115 27.950367 
L 429.193505 28.080912 
L 429.3287 27.945062 
L 429.869479 27.996489 
L 430.275064 27.887053 
L 430.545454 27.90907 
L 430.815844 27.783732 
L 430.951039 27.73673 
L 431.086233 27.462932 
L 431.356623 27.506032 
L 431.491818 27.389259 
L 431.491818 27.389259 
" clip-path="url(#pe7c351ad8b)" style="fill: none; stroke: #800080; stroke-width: 3; stroke-linecap: round"/>
   </g>
   <g id="patch_3">
    <path d="M 42.82 317.72 
L 42.82 10.8 
" style="fill: none; stroke: #ffffff; stroke-width: 0.8; stroke-linejoin: miter; stroke-linecap: square"/>
   </g>
   <g id="patch_4">
    <path d="M 450 317.72 
L 450 10.8 
" style="fill: none; stroke: #ffffff; stroke-width: 0.8; stroke-linejoin: miter; stroke-linecap: square"/>
   </g>
   <g id="patch_5">
    <path d="M 42.82 317.72 
L 450 317.72 
" style="fill: none; stroke: #ffffff; stroke-width: 0.8; stroke-linejoin: miter; stroke-linecap: square"/>
   </g>
   <g id="patch_6">
    <path d="M 42.82 10.8 
L 450 10.8 
" style="fill: none; stroke: #ffffff; stroke-width: 0.8; stroke-linejoin: miter; stroke-linecap: square"/>
   </g>
   <g id="legend_1">
    <g id="patch_7">
     <path d="M 49.82 32.945312 
L 147.227813 32.945312 
Q 149.227813 32.945312 149.227813 30.945312 
L 149.227813 17.8 
Q 149.227813 15.8 147.227813 15.8 
L 49.82 15.8 
Q 47.82 15.8 47.82 17.8 
L 47.82 30.945312 
Q 47.82 32.945312 49.82 32.945312 
z
" style="fill: #eaeaf2; opacity: 0.8; stroke: #cccccc; stroke-linejoin: miter"/>
    </g>
    <g id="line2d_2">
     <path d="M 51.82 23.457812 
L 61.82 23.457812 
L 71.82 23.457812 
" style="fill: none; stroke: #800080; stroke-width: 3; stroke-linecap: round"/>
    </g>
    <g id="text_17">
     <!-- Gini coefficient -->
     <g style="fill: #262626" transform="translate(79.82 26.957812) scale(0.1 -0.1)">
      <defs>
       <path id="ArialMT-47" d="M 2638 1797 
L 2638 2334 
L 4578 2338 
L 4578 638 
Q 4131 281 3656 101 
Q 3181 -78 2681 -78 
Q 2006 -78 1454 211 
Q 903 500 622 1047 
Q 341 1594 341 2269 
Q 341 2938 620 3517 
Q 900 4097 1425 4378 
Q 1950 4659 2634 4659 
Q 3131 4659 3532 4498 
Q 3934 4338 4162 4050 
Q 4391 3763 4509 3300 
L 3963 3150 
Q 3859 3500 3706 3700 
Q 3553 3900 3268 4020 
Q 2984 4141 2638 4141 
Q 2222 4141 1919 4014 
Q 1616 3888 1430 3681 
Q 1244 3475 1141 3228 
Q 966 2803 966 2306 
Q 966 1694 1177 1281 
Q 1388 869 1791 669 
Q 2194 469 2647 469 
Q 3041 469 3416 620 
Q 3791 772 3984 944 
L 3984 1797 
L 2638 1797 
z
" transform="scale(0.015625)"/>
       <path id="ArialMT-69" d="M 425 3934 
L 425 4581 
L 988 4581 
L 988 3934 
L 425 3934 
z
M 425 0 
L 425 3319 
L 988 3319 
L 988 0 
L 425 0 
z
" transform="scale(0.015625)"/>
       <path id="ArialMT-6e" d="M 422 0 
L 422 3319 
L 928 3319 
L 928 2847 
Q 1294 3394 1984 3394 
Q 2284 3394 2536 3286 
Q 2788 3178 2913 3003 
Q 3038 2828 3088 2588 
Q 3119 2431 3119 2041 
L 3119 0 
L 2556 0 
L 2556 2019 
Q 2556 2363 2490 2533 
Q 2425 2703 2258 2804 
Q 2091 2906 1866 2906 
Q 1506 2906 1245 2678 
Q 984 2450 984 1813 
L 984 0 
L 422 0 
z
" transform="scale(0.015625)"/>
       <path id="ArialMT-20" transform="scale(0.015625)"/>
       <path id="ArialMT-63" d="M 2588 1216 
L 3141 1144 
Q 3050 572 2676 248 
Q 2303 -75 1759 -75 
Q 1078 -75 664 370 
Q 250 816 250 1647 
Q 250 2184 428 2587 
Q 606 2991 970 3192 
Q 1334 3394 1763 3394 
Q 2303 3394 2647 3120 
Q 2991 2847 3088 2344 
L 2541 2259 
Q 2463 2594 2264 2762 
Q 2066 2931 1784 2931 
Q 1359 2931 1093 2626 
Q 828 2322 828 1663 
Q 828 994 1084 691 
Q 1341 388 1753 388 
Q 2084 388 2306 591 
Q 2528 794 2588 1216 
z
" transform="scale(0.015625)"/>
       <path id="ArialMT-6f" d="M 213 1659 
Q 213 2581 725 3025 
Q 1153 3394 1769 3394 
Q 2453 3394 2887 2945 
Q 3322 2497 3322 1706 
Q 3322 1066 3130 698 
Q 2938 331 2570 128 
Q 2203 -75 1769 -75 
Q 1072 -75 642 372 
Q 213 819 213 1659 
z
M 791 1659 
Q 791 1022 1069 705 
Q 1347 388 1769 388 
Q 2188 388 2466 706 
Q 2744 1025 2744 1678 
Q 2744 2294 2464 2611 
Q 2184 2928 1769 2928 
Q 1347 2928 1069 2612 
Q 791 2297 791 1659 
z
" transform="scale(0.015625)"/>
       <path id="ArialMT-65" d="M 2694 1069 
L 3275 997 
Q 3138 488 2766 206 
Q 2394 -75 1816 -75 
Q 1088 -75 661 373 
Q 234 822 234 1631 
Q 234 2469 665 2931 
Q 1097 3394 1784 3394 
Q 2450 3394 2872 2941 
Q 3294 2488 3294 1666 
Q 3294 1616 3291 1516 
L 816 1516 
Q 847 969 1125 678 
Q 1403 388 1819 388 
Q 2128 388 2347 550 
Q 2566 713 2694 1069 
z
M 847 1978 
L 2700 1978 
Q 2663 2397 2488 2606 
Q 2219 2931 1791 2931 
Q 1403 2931 1139 2672 
Q 875 2413 847 1978 
z
" transform="scale(0.015625)"/>
       <path id="ArialMT-66" d="M 556 0 
L 556 2881 
L 59 2881 
L 59 3319 
L 556 3319 
L 556 3672 
Q 556 4006 616 4169 
Q 697 4388 901 4523 
Q 1106 4659 1475 4659 
Q 1713 4659 2000 4603 
L 1916 4113 
Q 1741 4144 1584 4144 
Q 1328 4144 1222 4034 
Q 1116 3925 1116 3625 
L 1116 3319 
L 1763 3319 
L 1763 2881 
L 1116 2881 
L 1116 0 
L 556 0 
z
" transform="scale(0.015625)"/>
       <path id="ArialMT-74" d="M 1650 503 
L 1731 6 
Q 1494 -44 1306 -44 
Q 1000 -44 831 53 
Q 663 150 594 308 
Q 525 466 525 972 
L 525 2881 
L 113 2881 
L 113 3319 
L 525 3319 
L 525 4141 
L 1084 4478 
L 1084 3319 
L 1650 3319 
L 1650 2881 
L 1084 2881 
L 1084 941 
Q 1084 700 1114 631 
Q 1144 563 1211 522 
Q 1278 481 1403 481 
Q 1497 481 1650 503 
z
" transform="scale(0.015625)"/>
      </defs>
      <use xlink:href="#ArialMT-47"/>
      <use xlink:href="#ArialMT-69" x="77.783203"/>
      <use xlink:href="#ArialMT-6e" x="100"/>
      <use xlink:href="#ArialMT-69" x="155.615234"/>
      <use xlink:href="#ArialMT-20" x="177.832031"/>
      <use xlink:href="#ArialMT-63" x="205.615234"/>
      <use xlink:href="#ArialMT-6f" x="255.615234"/>
      <use xlink:href="#ArialMT-65" x="311.230469"/>
      <use xlink:href="#ArialMT-66" x="366.845703"/>
      <use xlink:href="#ArialMT-66" x="392.878906"/>
      <use xlink:href="#ArialMT-69" x="420.662109"/>
      <use xlink:href="#ArialMT-63" x="442.878906"/>
      <use xlink:href="#ArialMT-69" x="492.878906"/>
      <use xlink:href="#ArialMT-65" x="515.095703"/>
      <use xlink:href="#ArialMT-6e" x="570.710938"/>
      <use xlink:href="#ArialMT-74" x="626.326172"/>
     </g>
    </g>
   </g>
  </g>
 </g>
 <defs>
  <clipPath id="pe7c351ad8b">
   <rect x="42.82" y="10.8" width="407.18" height="306.92"/>
  </clipPath>
 </defs>
</svg>
