<?xml version="1.0" encoding="utf-8" standalone="no"?>
<!DOCTYPE svg PUBLIC "-//W3C//DTD SVG 1.1//EN"
  "http://www.w3.org/Graphics/SVG/1.1/DTD/svg11.dtd">
<!-- Created with matplotlib (https://matplotlib.org/) -->
<svg height="288pt" version="1.1" viewBox="0 0 432 288" width="432pt" xmlns="http://www.w3.org/2000/svg" xmlns:xlink="http://www.w3.org/1999/xlink">
 <defs>
  <style type="text/css">
*{stroke-linecap:butt;stroke-linejoin:round;}
  </style>
 </defs>
 <g id="figure_1">
  <g id="patch_1">
   <path d="M 0 288 
L 432 288 
L 432 0 
L 0 0 
z
" style="fill:#ffffff;"/>
  </g>
  <g id="axes_1">
   <g id="patch_2">
    <path d="M 54 252 
L 388.8 252 
L 388.8 34.56 
L 54 34.56 
z
" style="fill:#ffffff;"/>
   </g>
   <g id="patch_3">
    <path clip-path="url(#p98d396e79f)" d="M 69.218182 252 
L 70.74 252 
L 70.74 248.764286 
L 69.218182 248.764286 
z
" style="fill:#1f77b4;"/>
   </g>
   <g id="patch_4">
    <path clip-path="url(#p98d396e79f)" d="M 70.74 252 
L 72.261818 252 
L 72.261818 247.955357 
L 70.74 247.955357 
z
" style="fill:#1f77b4;"/>
   </g>
   <g id="patch_5">
    <path clip-path="url(#p98d396e79f)" d="M 72.261818 252 
L 73.783636 252 
L 73.783636 245.528571 
L 72.261818 245.528571 
z
" style="fill:#1f77b4;"/>
   </g>
   <g id="patch_6">
    <path clip-path="url(#p98d396e79f)" d="M 73.783636 252 
L 75.305455 252 
L 75.305455 247.955357 
L 73.783636 247.955357 
z
" style="fill:#1f77b4;"/>
   </g>
   <g id="patch_7">
    <path clip-path="url(#p98d396e79f)" d="M 75.305455 252 
L 76.827273 252 
L 76.827273 245.528571 
L 75.305455 245.528571 
z
" style="fill:#1f77b4;"/>
   </g>
   <g id="patch_8">
    <path clip-path="url(#p98d396e79f)" d="M 76.827273 252 
L 78.349091 252 
L 78.349091 249.573214 
L 76.827273 249.573214 
z
" style="fill:#1f77b4;"/>
   </g>
   <g id="patch_9">
    <path clip-path="url(#p98d396e79f)" d="M 78.349091 252 
L 79.870909 252 
L 79.870909 249.573214 
L 78.349091 249.573214 
z
" style="fill:#1f77b4;"/>
   </g>
   <g id="patch_10">
    <path clip-path="url(#p98d396e79f)" d="M 79.870909 252 
L 81.392727 252 
L 81.392727 250.382143 
L 79.870909 250.382143 
z
" style="fill:#1f77b4;"/>
   </g>
   <g id="patch_11">
    <path clip-path="url(#p98d396e79f)" d="M 81.392727 252 
L 82.914545 252 
L 82.914545 246.3375 
L 81.392727 246.3375 
z
" style="fill:#1f77b4;"/>
   </g>
   <g id="patch_12">
    <path clip-path="url(#p98d396e79f)" d="M 82.914545 252 
L 84.436364 252 
L 84.436364 245.528571 
L 82.914545 245.528571 
z
" style="fill:#1f77b4;"/>
   </g>
   <g id="patch_13">
    <path clip-path="url(#p98d396e79f)" d="M 84.436364 252 
L 85.958182 252 
L 85.958182 250.382143 
L 84.436364 250.382143 
z
" style="fill:#1f77b4;"/>
   </g>
   <g id="patch_14">
    <path clip-path="url(#p98d396e79f)" d="M 85.958182 252 
L 87.48 252 
L 87.48 247.955357 
L 85.958182 247.955357 
z
" style="fill:#1f77b4;"/>
   </g>
   <g id="patch_15">
    <path clip-path="url(#p98d396e79f)" d="M 87.48 252 
L 89.001818 252 
L 89.001818 247.955357 
L 87.48 247.955357 
z
" style="fill:#1f77b4;"/>
   </g>
   <g id="patch_16">
    <path clip-path="url(#p98d396e79f)" d="M 89.001818 252 
L 90.523636 252 
L 90.523636 245.528571 
L 89.001818 245.528571 
z
" style="fill:#1f77b4;"/>
   </g>
   <g id="patch_17">
    <path clip-path="url(#p98d396e79f)" d="M 90.523636 252 
L 92.045455 252 
L 92.045455 245.528571 
L 90.523636 245.528571 
z
" style="fill:#1f77b4;"/>
   </g>
   <g id="patch_18">
    <path clip-path="url(#p98d396e79f)" d="M 92.045455 252 
L 93.567273 252 
L 93.567273 249.573214 
L 92.045455 249.573214 
z
" style="fill:#1f77b4;"/>
   </g>
   <g id="patch_19">
    <path clip-path="url(#p98d396e79f)" d="M 93.567273 252 
L 95.089091 252 
L 95.089091 248.764286 
L 93.567273 248.764286 
z
" style="fill:#1f77b4;"/>
   </g>
   <g id="patch_20">
    <path clip-path="url(#p98d396e79f)" d="M 95.089091 252 
L 96.610909 252 
L 96.610909 245.528571 
L 95.089091 245.528571 
z
" style="fill:#1f77b4;"/>
   </g>
   <g id="patch_21">
    <path clip-path="url(#p98d396e79f)" d="M 96.610909 252 
L 98.132727 252 
L 98.132727 249.573214 
L 96.610909 249.573214 
z
" style="fill:#1f77b4;"/>
   </g>
   <g id="patch_22">
    <path clip-path="url(#p98d396e79f)" d="M 98.132727 252 
L 99.654545 252 
L 99.654545 244.719643 
L 98.132727 244.719643 
z
" style="fill:#1f77b4;"/>
   </g>
   <g id="patch_23">
    <path clip-path="url(#p98d396e79f)" d="M 99.654545 252 
L 101.176364 252 
L 101.176364 247.955357 
L 99.654545 247.955357 
z
" style="fill:#1f77b4;"/>
   </g>
   <g id="patch_24">
    <path clip-path="url(#p98d396e79f)" d="M 101.176364 252 
L 102.698182 252 
L 102.698182 247.146429 
L 101.176364 247.146429 
z
" style="fill:#1f77b4;"/>
   </g>
   <g id="patch_25">
    <path clip-path="url(#p98d396e79f)" d="M 102.698182 252 
L 104.22 252 
L 104.22 245.528571 
L 102.698182 245.528571 
z
" style="fill:#1f77b4;"/>
   </g>
   <g id="patch_26">
    <path clip-path="url(#p98d396e79f)" d="M 104.22 252 
L 105.741818 252 
L 105.741818 244.719643 
L 104.22 244.719643 
z
" style="fill:#1f77b4;"/>
   </g>
   <g id="patch_27">
    <path clip-path="url(#p98d396e79f)" d="M 105.741818 252 
L 107.263636 252 
L 107.263636 248.764286 
L 105.741818 248.764286 
z
" style="fill:#1f77b4;"/>
   </g>
   <g id="patch_28">
    <path clip-path="url(#p98d396e79f)" d="M 107.263636 252 
L 108.785455 252 
L 108.785455 244.719643 
L 107.263636 244.719643 
z
" style="fill:#1f77b4;"/>
   </g>
   <g id="patch_29">
    <path clip-path="url(#p98d396e79f)" d="M 108.785455 252 
L 110.307273 252 
L 110.307273 246.3375 
L 108.785455 246.3375 
z
" style="fill:#1f77b4;"/>
   </g>
   <g id="patch_30">
    <path clip-path="url(#p98d396e79f)" d="M 110.307273 252 
L 111.829091 252 
L 111.829091 244.719643 
L 110.307273 244.719643 
z
" style="fill:#1f77b4;"/>
   </g>
   <g id="patch_31">
    <path clip-path="url(#p98d396e79f)" d="M 111.829091 252 
L 113.350909 252 
L 113.350909 246.3375 
L 111.829091 246.3375 
z
" style="fill:#1f77b4;"/>
   </g>
   <g id="patch_32">
    <path clip-path="url(#p98d396e79f)" d="M 113.350909 252 
L 114.872727 252 
L 114.872727 242.292857 
L 113.350909 242.292857 
z
" style="fill:#1f77b4;"/>
   </g>
   <g id="patch_33">
    <path clip-path="url(#p98d396e79f)" d="M 114.872727 252 
L 116.394545 252 
L 116.394545 246.3375 
L 114.872727 246.3375 
z
" style="fill:#1f77b4;"/>
   </g>
   <g id="patch_34">
    <path clip-path="url(#p98d396e79f)" d="M 116.394545 252 
L 117.916364 252 
L 117.916364 246.3375 
L 116.394545 246.3375 
z
" style="fill:#1f77b4;"/>
   </g>
   <g id="patch_35">
    <path clip-path="url(#p98d396e79f)" d="M 117.916364 252 
L 119.438182 252 
L 119.438182 244.719643 
L 117.916364 244.719643 
z
" style="fill:#1f77b4;"/>
   </g>
   <g id="patch_36">
    <path clip-path="url(#p98d396e79f)" d="M 119.438182 252 
L 120.96 252 
L 120.96 243.101786 
L 119.438182 243.101786 
z
" style="fill:#1f77b4;"/>
   </g>
   <g id="patch_37">
    <path clip-path="url(#p98d396e79f)" d="M 120.96 252 
L 122.481818 252 
L 122.481818 243.101786 
L 120.96 243.101786 
z
" style="fill:#1f77b4;"/>
   </g>
   <g id="patch_38">
    <path clip-path="url(#p98d396e79f)" d="M 122.481818 252 
L 124.003636 252 
L 124.003636 239.057143 
L 122.481818 239.057143 
z
" style="fill:#1f77b4;"/>
   </g>
   <g id="patch_39">
    <path clip-path="url(#p98d396e79f)" d="M 124.003636 252 
L 125.525455 252 
L 125.525455 243.910714 
L 124.003636 243.910714 
z
" style="fill:#1f77b4;"/>
   </g>
   <g id="patch_40">
    <path clip-path="url(#p98d396e79f)" d="M 125.525455 252 
L 127.047273 252 
L 127.047273 245.528571 
L 125.525455 245.528571 
z
" style="fill:#1f77b4;"/>
   </g>
   <g id="patch_41">
    <path clip-path="url(#p98d396e79f)" d="M 127.047273 252 
L 128.569091 252 
L 128.569091 241.483929 
L 127.047273 241.483929 
z
" style="fill:#1f77b4;"/>
   </g>
   <g id="patch_42">
    <path clip-path="url(#p98d396e79f)" d="M 128.569091 252 
L 130.090909 252 
L 130.090909 248.764286 
L 128.569091 248.764286 
z
" style="fill:#1f77b4;"/>
   </g>
   <g id="patch_43">
    <path clip-path="url(#p98d396e79f)" d="M 130.090909 252 
L 131.612727 252 
L 131.612727 245.528571 
L 130.090909 245.528571 
z
" style="fill:#1f77b4;"/>
   </g>
   <g id="patch_44">
    <path clip-path="url(#p98d396e79f)" d="M 131.612727 252 
L 133.134545 252 
L 133.134545 239.866071 
L 131.612727 239.866071 
z
" style="fill:#1f77b4;"/>
   </g>
   <g id="patch_45">
    <path clip-path="url(#p98d396e79f)" d="M 133.134545 252 
L 134.656364 252 
L 134.656364 243.101786 
L 133.134545 243.101786 
z
" style="fill:#1f77b4;"/>
   </g>
   <g id="patch_46">
    <path clip-path="url(#p98d396e79f)" d="M 134.656364 252 
L 136.178182 252 
L 136.178182 237.439286 
L 134.656364 237.439286 
z
" style="fill:#1f77b4;"/>
   </g>
   <g id="patch_47">
    <path clip-path="url(#p98d396e79f)" d="M 136.178182 252 
L 137.7 252 
L 137.7 241.483929 
L 136.178182 241.483929 
z
" style="fill:#1f77b4;"/>
   </g>
   <g id="patch_48">
    <path clip-path="url(#p98d396e79f)" d="M 137.7 252 
L 139.221818 252 
L 139.221818 236.630357 
L 137.7 236.630357 
z
" style="fill:#1f77b4;"/>
   </g>
   <g id="patch_49">
    <path clip-path="url(#p98d396e79f)" d="M 139.221818 252 
L 140.743636 252 
L 140.743636 232.585714 
L 139.221818 232.585714 
z
" style="fill:#1f77b4;"/>
   </g>
   <g id="patch_50">
    <path clip-path="url(#p98d396e79f)" d="M 140.743636 252 
L 142.265455 252 
L 142.265455 235.0125 
L 140.743636 235.0125 
z
" style="fill:#1f77b4;"/>
   </g>
   <g id="patch_51">
    <path clip-path="url(#p98d396e79f)" d="M 142.265455 252 
L 143.787273 252 
L 143.787273 239.866071 
L 142.265455 239.866071 
z
" style="fill:#1f77b4;"/>
   </g>
   <g id="patch_52">
    <path clip-path="url(#p98d396e79f)" d="M 143.787273 252 
L 145.309091 252 
L 145.309091 232.585714 
L 143.787273 232.585714 
z
" style="fill:#1f77b4;"/>
   </g>
   <g id="patch_53">
    <path clip-path="url(#p98d396e79f)" d="M 145.309091 252 
L 146.830909 252 
L 146.830909 230.967857 
L 145.309091 230.967857 
z
" style="fill:#1f77b4;"/>
   </g>
   <g id="patch_54">
    <path clip-path="url(#p98d396e79f)" d="M 146.830909 252 
L 148.352727 252 
L 148.352727 226.114286 
L 146.830909 226.114286 
z
" style="fill:#1f77b4;"/>
   </g>
   <g id="patch_55">
    <path clip-path="url(#p98d396e79f)" d="M 148.352727 252 
L 149.874545 252 
L 149.874545 226.923214 
L 148.352727 226.923214 
z
" style="fill:#1f77b4;"/>
   </g>
   <g id="patch_56">
    <path clip-path="url(#p98d396e79f)" d="M 149.874545 252 
L 151.396364 252 
L 151.396364 227.732143 
L 149.874545 227.732143 
z
" style="fill:#1f77b4;"/>
   </g>
   <g id="patch_57">
    <path clip-path="url(#p98d396e79f)" d="M 151.396364 252 
L 152.918182 252 
L 152.918182 221.260714 
L 151.396364 221.260714 
z
" style="fill:#1f77b4;"/>
   </g>
   <g id="patch_58">
    <path clip-path="url(#p98d396e79f)" d="M 152.918182 252 
L 154.44 252 
L 154.44 182.432143 
L 152.918182 182.432143 
z
" style="fill:#1f77b4;"/>
   </g>
   <g id="patch_59">
    <path clip-path="url(#p98d396e79f)" d="M 154.44 252 
L 155.961818 252 
L 155.961818 209.126786 
L 154.44 209.126786 
z
" style="fill:#1f77b4;"/>
   </g>
   <g id="patch_60">
    <path clip-path="url(#p98d396e79f)" d="M 155.961818 252 
L 157.483636 252 
L 157.483636 188.094643 
L 155.961818 188.094643 
z
" style="fill:#1f77b4;"/>
   </g>
   <g id="patch_61">
    <path clip-path="url(#p98d396e79f)" d="M 157.483636 252 
L 159.005455 252 
L 159.005455 186.476786 
L 157.483636 186.476786 
z
" style="fill:#1f77b4;"/>
   </g>
   <g id="patch_62">
    <path clip-path="url(#p98d396e79f)" d="M 159.005455 252 
L 160.527273 252 
L 160.527273 166.253571 
L 159.005455 166.253571 
z
" style="fill:#1f77b4;"/>
   </g>
   <g id="patch_63">
    <path clip-path="url(#p98d396e79f)" d="M 160.527273 252 
L 162.049091 252 
L 162.049091 133.896429 
L 160.527273 133.896429 
z
" style="fill:#1f77b4;"/>
   </g>
   <g id="patch_64">
    <path clip-path="url(#p98d396e79f)" d="M 162.049091 252 
L 163.570909 252 
L 163.570909 120.953571 
L 162.049091 120.953571 
z
" style="fill:#1f77b4;"/>
   </g>
   <g id="patch_65">
    <path clip-path="url(#p98d396e79f)" d="M 163.570909 252 
L 165.092727 252 
L 165.092727 92.641071 
L 163.570909 92.641071 
z
" style="fill:#1f77b4;"/>
   </g>
   <g id="patch_66">
    <path clip-path="url(#p98d396e79f)" d="M 165.092727 252 
L 166.614545 252 
L 166.614545 87.7875 
L 165.092727 87.7875 
z
" style="fill:#1f77b4;"/>
   </g>
   <g id="patch_67">
    <path clip-path="url(#p98d396e79f)" d="M 166.614545 252 
L 168.136364 252 
L 168.136364 88.596429 
L 166.614545 88.596429 
z
" style="fill:#1f77b4;"/>
   </g>
   <g id="patch_68">
    <path clip-path="url(#p98d396e79f)" d="M 168.136364 252 
L 169.658182 252 
L 169.658182 78.889286 
L 168.136364 78.889286 
z
" style="fill:#1f77b4;"/>
   </g>
   <g id="patch_69">
    <path clip-path="url(#p98d396e79f)" d="M 169.658182 252 
L 171.18 252 
L 171.18 67.564286 
L 169.658182 67.564286 
z
" style="fill:#1f77b4;"/>
   </g>
   <g id="patch_70">
    <path clip-path="url(#p98d396e79f)" d="M 171.18 252 
L 172.701818 252 
L 172.701818 66.755357 
L 171.18 66.755357 
z
" style="fill:#1f77b4;"/>
   </g>
   <g id="patch_71">
    <path clip-path="url(#p98d396e79f)" d="M 172.701818 252 
L 174.223636 252 
L 174.223636 44.914286 
L 172.701818 44.914286 
z
" style="fill:#1f77b4;"/>
   </g>
   <g id="patch_72">
    <path clip-path="url(#p98d396e79f)" d="M 174.223636 252 
L 175.745455 252 
L 175.745455 68.373214 
L 174.223636 68.373214 
z
" style="fill:#1f77b4;"/>
   </g>
   <g id="patch_73">
    <path clip-path="url(#p98d396e79f)" d="M 175.745455 252 
L 177.267273 252 
L 177.267273 56.239286 
L 175.745455 56.239286 
z
" style="fill:#1f77b4;"/>
   </g>
   <g id="patch_74">
    <path clip-path="url(#p98d396e79f)" d="M 177.267273 252 
L 178.789091 252 
L 178.789091 61.092857 
L 177.267273 61.092857 
z
" style="fill:#1f77b4;"/>
   </g>
   <g id="patch_75">
    <path clip-path="url(#p98d396e79f)" d="M 178.789091 252 
L 180.310909 252 
L 180.310909 53.8125 
L 178.789091 53.8125 
z
" style="fill:#1f77b4;"/>
   </g>
   <g id="patch_76">
    <path clip-path="url(#p98d396e79f)" d="M 180.310909 252 
L 181.832727 252 
L 181.832727 82.125 
L 180.310909 82.125 
z
" style="fill:#1f77b4;"/>
   </g>
   <g id="patch_77">
    <path clip-path="url(#p98d396e79f)" d="M 181.832727 252 
L 183.354545 252 
L 183.354545 77.271429 
L 181.832727 77.271429 
z
" style="fill:#1f77b4;"/>
   </g>
   <g id="patch_78">
    <path clip-path="url(#p98d396e79f)" d="M 183.354545 252 
L 184.876364 252 
L 184.876364 91.832143 
L 183.354545 91.832143 
z
" style="fill:#1f77b4;"/>
   </g>
   <g id="patch_79">
    <path clip-path="url(#p98d396e79f)" d="M 184.876364 252 
L 186.398182 252 
L 186.398182 96.685714 
L 184.876364 96.685714 
z
" style="fill:#1f77b4;"/>
   </g>
   <g id="patch_80">
    <path clip-path="url(#p98d396e79f)" d="M 186.398182 252 
L 187.92 252 
L 187.92 110.4375 
L 186.398182 110.4375 
z
" style="fill:#1f77b4;"/>
   </g>
   <g id="patch_81">
    <path clip-path="url(#p98d396e79f)" d="M 187.92 252 
L 189.441818 252 
L 189.441818 99.1125 
L 187.92 99.1125 
z
" style="fill:#1f77b4;"/>
   </g>
   <g id="patch_82">
    <path clip-path="url(#p98d396e79f)" d="M 189.441818 252 
L 190.963636 252 
L 190.963636 126.616071 
L 189.441818 126.616071 
z
" style="fill:#1f77b4;"/>
   </g>
   <g id="patch_83">
    <path clip-path="url(#p98d396e79f)" d="M 190.963636 252 
L 192.485455 252 
L 192.485455 91.832143 
L 190.963636 91.832143 
z
" style="fill:#1f77b4;"/>
   </g>
   <g id="patch_84">
    <path clip-path="url(#p98d396e79f)" d="M 192.485455 252 
L 194.007273 252 
L 194.007273 108.819643 
L 192.485455 108.819643 
z
" style="fill:#1f77b4;"/>
   </g>
   <g id="patch_85">
    <path clip-path="url(#p98d396e79f)" d="M 194.007273 252 
L 195.529091 252 
L 195.529091 129.851786 
L 194.007273 129.851786 
z
" style="fill:#1f77b4;"/>
   </g>
   <g id="patch_86">
    <path clip-path="url(#p98d396e79f)" d="M 195.529091 252 
L 197.050909 252 
L 197.050909 136.323214 
L 195.529091 136.323214 
z
" style="fill:#1f77b4;"/>
   </g>
   <g id="patch_87">
    <path clip-path="url(#p98d396e79f)" d="M 197.050909 252 
L 198.572727 252 
L 198.572727 133.0875 
L 197.050909 133.0875 
z
" style="fill:#1f77b4;"/>
   </g>
   <g id="patch_88">
    <path clip-path="url(#p98d396e79f)" d="M 198.572727 252 
L 200.094545 252 
L 200.094545 147.648214 
L 198.572727 147.648214 
z
" style="fill:#1f77b4;"/>
   </g>
   <g id="patch_89">
    <path clip-path="url(#p98d396e79f)" d="M 200.094545 252 
L 201.616364 252 
L 201.616364 145.221429 
L 200.094545 145.221429 
z
" style="fill:#1f77b4;"/>
   </g>
   <g id="patch_90">
    <path clip-path="url(#p98d396e79f)" d="M 201.616364 252 
L 203.138182 252 
L 203.138182 153.310714 
L 201.616364 153.310714 
z
" style="fill:#1f77b4;"/>
   </g>
   <g id="patch_91">
    <path clip-path="url(#p98d396e79f)" d="M 203.138182 252 
L 204.66 252 
L 204.66 148.457143 
L 203.138182 148.457143 
z
" style="fill:#1f77b4;"/>
   </g>
   <g id="patch_92">
    <path clip-path="url(#p98d396e79f)" d="M 204.66 252 
L 206.181818 252 
L 206.181818 156.546429 
L 204.66 156.546429 
z
" style="fill:#1f77b4;"/>
   </g>
   <g id="patch_93">
    <path clip-path="url(#p98d396e79f)" d="M 206.181818 252 
L 207.703636 252 
L 207.703636 166.253571 
L 206.181818 166.253571 
z
" style="fill:#1f77b4;"/>
   </g>
   <g id="patch_94">
    <path clip-path="url(#p98d396e79f)" d="M 207.703636 252 
L 209.225455 252 
L 209.225455 159.782143 
L 207.703636 159.782143 
z
" style="fill:#1f77b4;"/>
   </g>
   <g id="patch_95">
    <path clip-path="url(#p98d396e79f)" d="M 209.225455 252 
L 210.747273 252 
L 210.747273 171.916071 
L 209.225455 171.916071 
z
" style="fill:#1f77b4;"/>
   </g>
   <g id="patch_96">
    <path clip-path="url(#p98d396e79f)" d="M 210.747273 252 
L 212.269091 252 
L 212.269091 171.107143 
L 210.747273 171.107143 
z
" style="fill:#1f77b4;"/>
   </g>
   <g id="patch_97">
    <path clip-path="url(#p98d396e79f)" d="M 212.269091 252 
L 213.790909 252 
L 213.790909 166.253571 
L 212.269091 166.253571 
z
" style="fill:#1f77b4;"/>
   </g>
   <g id="patch_98">
    <path clip-path="url(#p98d396e79f)" d="M 213.790909 252 
L 215.312727 252 
L 215.312727 186.476786 
L 213.790909 186.476786 
z
" style="fill:#1f77b4;"/>
   </g>
   <g id="patch_99">
    <path clip-path="url(#p98d396e79f)" d="M 215.312727 252 
L 216.834545 252 
L 216.834545 188.903571 
L 215.312727 188.903571 
z
" style="fill:#1f77b4;"/>
   </g>
   <g id="patch_100">
    <path clip-path="url(#p98d396e79f)" d="M 216.834545 252 
L 218.356364 252 
L 218.356364 187.285714 
L 216.834545 187.285714 
z
" style="fill:#1f77b4;"/>
   </g>
   <g id="patch_101">
    <path clip-path="url(#p98d396e79f)" d="M 218.356364 252 
L 219.878182 252 
L 219.878182 189.7125 
L 218.356364 189.7125 
z
" style="fill:#1f77b4;"/>
   </g>
   <g id="patch_102">
    <path clip-path="url(#p98d396e79f)" d="M 219.878182 252 
L 221.4 252 
L 221.4 193.757143 
L 219.878182 193.757143 
z
" style="fill:#1f77b4;"/>
   </g>
   <g id="patch_103">
    <path clip-path="url(#p98d396e79f)" d="M 221.4 252 
L 222.921818 252 
L 222.921818 195.375 
L 221.4 195.375 
z
" style="fill:#1f77b4;"/>
   </g>
   <g id="patch_104">
    <path clip-path="url(#p98d396e79f)" d="M 222.921818 252 
L 224.443636 252 
L 224.443636 198.610714 
L 222.921818 198.610714 
z
" style="fill:#1f77b4;"/>
   </g>
   <g id="patch_105">
    <path clip-path="url(#p98d396e79f)" d="M 224.443636 252 
L 225.965455 252 
L 225.965455 196.992857 
L 224.443636 196.992857 
z
" style="fill:#1f77b4;"/>
   </g>
   <g id="patch_106">
    <path clip-path="url(#p98d396e79f)" d="M 225.965455 252 
L 227.487273 252 
L 227.487273 196.183929 
L 225.965455 196.183929 
z
" style="fill:#1f77b4;"/>
   </g>
   <g id="patch_107">
    <path clip-path="url(#p98d396e79f)" d="M 227.487273 252 
L 229.009091 252 
L 229.009091 202.655357 
L 227.487273 202.655357 
z
" style="fill:#1f77b4;"/>
   </g>
   <g id="patch_108">
    <path clip-path="url(#p98d396e79f)" d="M 229.009091 252 
L 230.530909 252 
L 230.530909 204.273214 
L 229.009091 204.273214 
z
" style="fill:#1f77b4;"/>
   </g>
   <g id="patch_109">
    <path clip-path="url(#p98d396e79f)" d="M 230.530909 252 
L 232.052727 252 
L 232.052727 196.183929 
L 230.530909 196.183929 
z
" style="fill:#1f77b4;"/>
   </g>
   <g id="patch_110">
    <path clip-path="url(#p98d396e79f)" d="M 232.052727 252 
L 233.574545 252 
L 233.574545 216.407143 
L 232.052727 216.407143 
z
" style="fill:#1f77b4;"/>
   </g>
   <g id="patch_111">
    <path clip-path="url(#p98d396e79f)" d="M 233.574545 252 
L 235.096364 252 
L 235.096364 198.610714 
L 233.574545 198.610714 
z
" style="fill:#1f77b4;"/>
   </g>
   <g id="patch_112">
    <path clip-path="url(#p98d396e79f)" d="M 235.096364 252 
L 236.618182 252 
L 236.618182 204.273214 
L 235.096364 204.273214 
z
" style="fill:#1f77b4;"/>
   </g>
   <g id="patch_113">
    <path clip-path="url(#p98d396e79f)" d="M 236.618182 252 
L 238.14 252 
L 238.14 207.508929 
L 236.618182 207.508929 
z
" style="fill:#1f77b4;"/>
   </g>
   <g id="patch_114">
    <path clip-path="url(#p98d396e79f)" d="M 238.14 252 
L 239.661818 252 
L 239.661818 209.935714 
L 238.14 209.935714 
z
" style="fill:#1f77b4;"/>
   </g>
   <g id="patch_115">
    <path clip-path="url(#p98d396e79f)" d="M 239.661818 252 
L 241.183636 252 
L 241.183636 219.642857 
L 239.661818 219.642857 
z
" style="fill:#1f77b4;"/>
   </g>
   <g id="patch_116">
    <path clip-path="url(#p98d396e79f)" d="M 241.183636 252 
L 242.705455 252 
L 242.705455 226.923214 
L 241.183636 226.923214 
z
" style="fill:#1f77b4;"/>
   </g>
   <g id="patch_117">
    <path clip-path="url(#p98d396e79f)" d="M 242.705455 252 
L 244.227273 252 
L 244.227273 216.407143 
L 242.705455 216.407143 
z
" style="fill:#1f77b4;"/>
   </g>
   <g id="patch_118">
    <path clip-path="url(#p98d396e79f)" d="M 244.227273 252 
L 245.749091 252 
L 245.749091 221.260714 
L 244.227273 221.260714 
z
" style="fill:#1f77b4;"/>
   </g>
   <g id="patch_119">
    <path clip-path="url(#p98d396e79f)" d="M 245.749091 252 
L 247.270909 252 
L 247.270909 217.216071 
L 245.749091 217.216071 
z
" style="fill:#1f77b4;"/>
   </g>
   <g id="patch_120">
    <path clip-path="url(#p98d396e79f)" d="M 247.270909 252 
L 248.792727 252 
L 248.792727 222.878571 
L 247.270909 222.878571 
z
" style="fill:#1f77b4;"/>
   </g>
   <g id="patch_121">
    <path clip-path="url(#p98d396e79f)" d="M 248.792727 252 
L 250.314545 252 
L 250.314545 225.305357 
L 248.792727 225.305357 
z
" style="fill:#1f77b4;"/>
   </g>
   <g id="patch_122">
    <path clip-path="url(#p98d396e79f)" d="M 250.314545 252 
L 251.836364 252 
L 251.836364 227.732143 
L 250.314545 227.732143 
z
" style="fill:#1f77b4;"/>
   </g>
   <g id="patch_123">
    <path clip-path="url(#p98d396e79f)" d="M 251.836364 252 
L 253.358182 252 
L 253.358182 225.305357 
L 251.836364 225.305357 
z
" style="fill:#1f77b4;"/>
   </g>
   <g id="patch_124">
    <path clip-path="url(#p98d396e79f)" d="M 253.358182 252 
L 254.88 252 
L 254.88 228.541071 
L 253.358182 228.541071 
z
" style="fill:#1f77b4;"/>
   </g>
   <g id="patch_125">
    <path clip-path="url(#p98d396e79f)" d="M 254.88 252 
L 256.401818 252 
L 256.401818 230.967857 
L 254.88 230.967857 
z
" style="fill:#1f77b4;"/>
   </g>
   <g id="patch_126">
    <path clip-path="url(#p98d396e79f)" d="M 256.401818 252 
L 257.923636 252 
L 257.923636 229.35 
L 256.401818 229.35 
z
" style="fill:#1f77b4;"/>
   </g>
   <g id="patch_127">
    <path clip-path="url(#p98d396e79f)" d="M 257.923636 252 
L 259.445455 252 
L 259.445455 235.821429 
L 257.923636 235.821429 
z
" style="fill:#1f77b4;"/>
   </g>
   <g id="patch_128">
    <path clip-path="url(#p98d396e79f)" d="M 259.445455 252 
L 260.967273 252 
L 260.967273 236.630357 
L 259.445455 236.630357 
z
" style="fill:#1f77b4;"/>
   </g>
   <g id="patch_129">
    <path clip-path="url(#p98d396e79f)" d="M 260.967273 252 
L 262.489091 252 
L 262.489091 235.821429 
L 260.967273 235.821429 
z
" style="fill:#1f77b4;"/>
   </g>
   <g id="patch_130">
    <path clip-path="url(#p98d396e79f)" d="M 262.489091 252 
L 264.010909 252 
L 264.010909 226.923214 
L 262.489091 226.923214 
z
" style="fill:#1f77b4;"/>
   </g>
   <g id="patch_131">
    <path clip-path="url(#p98d396e79f)" d="M 264.010909 252 
L 265.532727 252 
L 265.532727 233.394643 
L 264.010909 233.394643 
z
" style="fill:#1f77b4;"/>
   </g>
   <g id="patch_132">
    <path clip-path="url(#p98d396e79f)" d="M 265.532727 252 
L 267.054545 252 
L 267.054545 232.585714 
L 265.532727 232.585714 
z
" style="fill:#1f77b4;"/>
   </g>
   <g id="patch_133">
    <path clip-path="url(#p98d396e79f)" d="M 267.054545 252 
L 268.576364 252 
L 268.576364 235.821429 
L 267.054545 235.821429 
z
" style="fill:#1f77b4;"/>
   </g>
   <g id="patch_134">
    <path clip-path="url(#p98d396e79f)" d="M 268.576364 252 
L 270.098182 252 
L 270.098182 230.967857 
L 268.576364 230.967857 
z
" style="fill:#1f77b4;"/>
   </g>
   <g id="patch_135">
    <path clip-path="url(#p98d396e79f)" d="M 270.098182 252 
L 271.62 252 
L 271.62 239.057143 
L 270.098182 239.057143 
z
" style="fill:#1f77b4;"/>
   </g>
   <g id="patch_136">
    <path clip-path="url(#p98d396e79f)" d="M 271.62 252 
L 273.141818 252 
L 273.141818 235.0125 
L 271.62 235.0125 
z
" style="fill:#1f77b4;"/>
   </g>
   <g id="patch_137">
    <path clip-path="url(#p98d396e79f)" d="M 273.141818 252 
L 274.663636 252 
L 274.663636 239.866071 
L 273.141818 239.866071 
z
" style="fill:#1f77b4;"/>
   </g>
   <g id="patch_138">
    <path clip-path="url(#p98d396e79f)" d="M 274.663636 252 
L 276.185455 252 
L 276.185455 232.585714 
L 274.663636 232.585714 
z
" style="fill:#1f77b4;"/>
   </g>
   <g id="patch_139">
    <path clip-path="url(#p98d396e79f)" d="M 276.185455 252 
L 277.707273 252 
L 277.707273 232.585714 
L 276.185455 232.585714 
z
" style="fill:#1f77b4;"/>
   </g>
   <g id="patch_140">
    <path clip-path="url(#p98d396e79f)" d="M 277.707273 252 
L 279.229091 252 
L 279.229091 237.439286 
L 277.707273 237.439286 
z
" style="fill:#1f77b4;"/>
   </g>
   <g id="patch_141">
    <path clip-path="url(#p98d396e79f)" d="M 279.229091 252 
L 280.750909 252 
L 280.750909 238.248214 
L 279.229091 238.248214 
z
" style="fill:#1f77b4;"/>
   </g>
   <g id="patch_142">
    <path clip-path="url(#p98d396e79f)" d="M 280.750909 252 
L 282.272727 252 
L 282.272727 236.630357 
L 280.750909 236.630357 
z
" style="fill:#1f77b4;"/>
   </g>
   <g id="patch_143">
    <path clip-path="url(#p98d396e79f)" d="M 282.272727 252 
L 283.794545 252 
L 283.794545 230.158929 
L 282.272727 230.158929 
z
" style="fill:#1f77b4;"/>
   </g>
   <g id="patch_144">
    <path clip-path="url(#p98d396e79f)" d="M 283.794545 252 
L 285.316364 252 
L 285.316364 235.0125 
L 283.794545 235.0125 
z
" style="fill:#1f77b4;"/>
   </g>
   <g id="patch_145">
    <path clip-path="url(#p98d396e79f)" d="M 285.316364 252 
L 286.838182 252 
L 286.838182 236.630357 
L 285.316364 236.630357 
z
" style="fill:#1f77b4;"/>
   </g>
   <g id="patch_146">
    <path clip-path="url(#p98d396e79f)" d="M 286.838182 252 
L 288.36 252 
L 288.36 231.776786 
L 286.838182 231.776786 
z
" style="fill:#1f77b4;"/>
   </g>
   <g id="patch_147">
    <path clip-path="url(#p98d396e79f)" d="M 288.36 252 
L 289.881818 252 
L 289.881818 236.630357 
L 288.36 236.630357 
z
" style="fill:#1f77b4;"/>
   </g>
   <g id="patch_148">
    <path clip-path="url(#p98d396e79f)" d="M 289.881818 252 
L 291.403636 252 
L 291.403636 237.439286 
L 289.881818 237.439286 
z
" style="fill:#1f77b4;"/>
   </g>
   <g id="patch_149">
    <path clip-path="url(#p98d396e79f)" d="M 291.403636 252 
L 292.925455 252 
L 292.925455 235.0125 
L 291.403636 235.0125 
z
" style="fill:#1f77b4;"/>
   </g>
   <g id="patch_150">
    <path clip-path="url(#p98d396e79f)" d="M 292.925455 252 
L 294.447273 252 
L 294.447273 240.675 
L 292.925455 240.675 
z
" style="fill:#1f77b4;"/>
   </g>
   <g id="patch_151">
    <path clip-path="url(#p98d396e79f)" d="M 294.447273 252 
L 295.969091 252 
L 295.969091 236.630357 
L 294.447273 236.630357 
z
" style="fill:#1f77b4;"/>
   </g>
   <g id="patch_152">
    <path clip-path="url(#p98d396e79f)" d="M 295.969091 252 
L 297.490909 252 
L 297.490909 240.675 
L 295.969091 240.675 
z
" style="fill:#1f77b4;"/>
   </g>
   <g id="patch_153">
    <path clip-path="url(#p98d396e79f)" d="M 297.490909 252 
L 299.012727 252 
L 299.012727 241.483929 
L 297.490909 241.483929 
z
" style="fill:#1f77b4;"/>
   </g>
   <g id="patch_154">
    <path clip-path="url(#p98d396e79f)" d="M 299.012727 252 
L 300.534545 252 
L 300.534545 243.910714 
L 299.012727 243.910714 
z
" style="fill:#1f77b4;"/>
   </g>
   <g id="patch_155">
    <path clip-path="url(#p98d396e79f)" d="M 300.534545 252 
L 302.056364 252 
L 302.056364 241.483929 
L 300.534545 241.483929 
z
" style="fill:#1f77b4;"/>
   </g>
   <g id="patch_156">
    <path clip-path="url(#p98d396e79f)" d="M 302.056364 252 
L 303.578182 252 
L 303.578182 241.483929 
L 302.056364 241.483929 
z
" style="fill:#1f77b4;"/>
   </g>
   <g id="patch_157">
    <path clip-path="url(#p98d396e79f)" d="M 303.578182 252 
L 305.1 252 
L 305.1 241.483929 
L 303.578182 241.483929 
z
" style="fill:#1f77b4;"/>
   </g>
   <g id="patch_158">
    <path clip-path="url(#p98d396e79f)" d="M 305.1 252 
L 306.621818 252 
L 306.621818 246.3375 
L 305.1 246.3375 
z
" style="fill:#1f77b4;"/>
   </g>
   <g id="patch_159">
    <path clip-path="url(#p98d396e79f)" d="M 306.621818 252 
L 308.143636 252 
L 308.143636 240.675 
L 306.621818 240.675 
z
" style="fill:#1f77b4;"/>
   </g>
   <g id="patch_160">
    <path clip-path="url(#p98d396e79f)" d="M 308.143636 252 
L 309.665455 252 
L 309.665455 242.292857 
L 308.143636 242.292857 
z
" style="fill:#1f77b4;"/>
   </g>
   <g id="patch_161">
    <path clip-path="url(#p98d396e79f)" d="M 309.665455 252 
L 311.187273 252 
L 311.187273 239.057143 
L 309.665455 239.057143 
z
" style="fill:#1f77b4;"/>
   </g>
   <g id="patch_162">
    <path clip-path="url(#p98d396e79f)" d="M 311.187273 252 
L 312.709091 252 
L 312.709091 240.675 
L 311.187273 240.675 
z
" style="fill:#1f77b4;"/>
   </g>
   <g id="patch_163">
    <path clip-path="url(#p98d396e79f)" d="M 312.709091 252 
L 314.230909 252 
L 314.230909 239.866071 
L 312.709091 239.866071 
z
" style="fill:#1f77b4;"/>
   </g>
   <g id="patch_164">
    <path clip-path="url(#p98d396e79f)" d="M 314.230909 252 
L 315.752727 252 
L 315.752727 244.719643 
L 314.230909 244.719643 
z
" style="fill:#1f77b4;"/>
   </g>
   <g id="patch_165">
    <path clip-path="url(#p98d396e79f)" d="M 315.752727 252 
L 317.274545 252 
L 317.274545 245.528571 
L 315.752727 245.528571 
z
" style="fill:#1f77b4;"/>
   </g>
   <g id="patch_166">
    <path clip-path="url(#p98d396e79f)" d="M 317.274545 252 
L 318.796364 252 
L 318.796364 241.483929 
L 317.274545 241.483929 
z
" style="fill:#1f77b4;"/>
   </g>
   <g id="patch_167">
    <path clip-path="url(#p98d396e79f)" d="M 318.796364 252 
L 320.318182 252 
L 320.318182 246.3375 
L 318.796364 246.3375 
z
" style="fill:#1f77b4;"/>
   </g>
   <g id="patch_168">
    <path clip-path="url(#p98d396e79f)" d="M 320.318182 252 
L 321.84 252 
L 321.84 243.910714 
L 320.318182 243.910714 
z
" style="fill:#1f77b4;"/>
   </g>
   <g id="patch_169">
    <path clip-path="url(#p98d396e79f)" d="M 321.84 252 
L 323.361818 252 
L 323.361818 250.382143 
L 321.84 250.382143 
z
" style="fill:#1f77b4;"/>
   </g>
   <g id="patch_170">
    <path clip-path="url(#p98d396e79f)" d="M 323.361818 252 
L 324.883636 252 
L 324.883636 243.910714 
L 323.361818 243.910714 
z
" style="fill:#1f77b4;"/>
   </g>
   <g id="patch_171">
    <path clip-path="url(#p98d396e79f)" d="M 324.883636 252 
L 326.405455 252 
L 326.405455 247.955357 
L 324.883636 247.955357 
z
" style="fill:#1f77b4;"/>
   </g>
   <g id="patch_172">
    <path clip-path="url(#p98d396e79f)" d="M 326.405455 252 
L 327.927273 252 
L 327.927273 247.146429 
L 326.405455 247.146429 
z
" style="fill:#1f77b4;"/>
   </g>
   <g id="patch_173">
    <path clip-path="url(#p98d396e79f)" d="M 327.927273 252 
L 329.449091 252 
L 329.449091 243.101786 
L 327.927273 243.101786 
z
" style="fill:#1f77b4;"/>
   </g>
   <g id="patch_174">
    <path clip-path="url(#p98d396e79f)" d="M 329.449091 252 
L 330.970909 252 
L 330.970909 243.910714 
L 329.449091 243.910714 
z
" style="fill:#1f77b4;"/>
   </g>
   <g id="patch_175">
    <path clip-path="url(#p98d396e79f)" d="M 330.970909 252 
L 332.492727 252 
L 332.492727 247.146429 
L 330.970909 247.146429 
z
" style="fill:#1f77b4;"/>
   </g>
   <g id="patch_176">
    <path clip-path="url(#p98d396e79f)" d="M 332.492727 252 
L 334.014545 252 
L 334.014545 240.675 
L 332.492727 240.675 
z
" style="fill:#1f77b4;"/>
   </g>
   <g id="patch_177">
    <path clip-path="url(#p98d396e79f)" d="M 334.014545 252 
L 335.536364 252 
L 335.536364 247.955357 
L 334.014545 247.955357 
z
" style="fill:#1f77b4;"/>
   </g>
   <g id="patch_178">
    <path clip-path="url(#p98d396e79f)" d="M 335.536364 252 
L 337.058182 252 
L 337.058182 242.292857 
L 335.536364 242.292857 
z
" style="fill:#1f77b4;"/>
   </g>
   <g id="patch_179">
    <path clip-path="url(#p98d396e79f)" d="M 337.058182 252 
L 338.58 252 
L 338.58 244.719643 
L 337.058182 244.719643 
z
" style="fill:#1f77b4;"/>
   </g>
   <g id="patch_180">
    <path clip-path="url(#p98d396e79f)" d="M 338.58 252 
L 340.101818 252 
L 340.101818 247.146429 
L 338.58 247.146429 
z
" style="fill:#1f77b4;"/>
   </g>
   <g id="patch_181">
    <path clip-path="url(#p98d396e79f)" d="M 340.101818 252 
L 341.623636 252 
L 341.623636 245.528571 
L 340.101818 245.528571 
z
" style="fill:#1f77b4;"/>
   </g>
   <g id="patch_182">
    <path clip-path="url(#p98d396e79f)" d="M 341.623636 252 
L 343.145455 252 
L 343.145455 246.3375 
L 341.623636 246.3375 
z
" style="fill:#1f77b4;"/>
   </g>
   <g id="patch_183">
    <path clip-path="url(#p98d396e79f)" d="M 343.145455 252 
L 344.667273 252 
L 344.667273 248.764286 
L 343.145455 248.764286 
z
" style="fill:#1f77b4;"/>
   </g>
   <g id="patch_184">
    <path clip-path="url(#p98d396e79f)" d="M 344.667273 252 
L 346.189091 252 
L 346.189091 247.146429 
L 344.667273 247.146429 
z
" style="fill:#1f77b4;"/>
   </g>
   <g id="patch_185">
    <path clip-path="url(#p98d396e79f)" d="M 346.189091 252 
L 347.710909 252 
L 347.710909 245.528571 
L 346.189091 245.528571 
z
" style="fill:#1f77b4;"/>
   </g>
   <g id="patch_186">
    <path clip-path="url(#p98d396e79f)" d="M 347.710909 252 
L 349.232727 252 
L 349.232727 247.955357 
L 347.710909 247.955357 
z
" style="fill:#1f77b4;"/>
   </g>
   <g id="patch_187">
    <path clip-path="url(#p98d396e79f)" d="M 349.232727 252 
L 350.754545 252 
L 350.754545 249.573214 
L 349.232727 249.573214 
z
" style="fill:#1f77b4;"/>
   </g>
   <g id="patch_188">
    <path clip-path="url(#p98d396e79f)" d="M 350.754545 252 
L 352.276364 252 
L 352.276364 243.910714 
L 350.754545 243.910714 
z
" style="fill:#1f77b4;"/>
   </g>
   <g id="patch_189">
    <path clip-path="url(#p98d396e79f)" d="M 352.276364 252 
L 353.798182 252 
L 353.798182 249.573214 
L 352.276364 249.573214 
z
" style="fill:#1f77b4;"/>
   </g>
   <g id="patch_190">
    <path clip-path="url(#p98d396e79f)" d="M 353.798182 252 
L 355.32 252 
L 355.32 247.146429 
L 353.798182 247.146429 
z
" style="fill:#1f77b4;"/>
   </g>
   <g id="patch_191">
    <path clip-path="url(#p98d396e79f)" d="M 355.32 252 
L 356.841818 252 
L 356.841818 247.955357 
L 355.32 247.955357 
z
" style="fill:#1f77b4;"/>
   </g>
   <g id="patch_192">
    <path clip-path="url(#p98d396e79f)" d="M 356.841818 252 
L 358.363636 252 
L 358.363636 247.146429 
L 356.841818 247.146429 
z
" style="fill:#1f77b4;"/>
   </g>
   <g id="patch_193">
    <path clip-path="url(#p98d396e79f)" d="M 358.363636 252 
L 359.885455 252 
L 359.885455 247.146429 
L 358.363636 247.146429 
z
" style="fill:#1f77b4;"/>
   </g>
   <g id="patch_194">
    <path clip-path="url(#p98d396e79f)" d="M 359.885455 252 
L 361.407273 252 
L 361.407273 248.764286 
L 359.885455 248.764286 
z
" style="fill:#1f77b4;"/>
   </g>
   <g id="patch_195">
    <path clip-path="url(#p98d396e79f)" d="M 361.407273 252 
L 362.929091 252 
L 362.929091 248.764286 
L 361.407273 248.764286 
z
" style="fill:#1f77b4;"/>
   </g>
   <g id="patch_196">
    <path clip-path="url(#p98d396e79f)" d="M 362.929091 252 
L 364.450909 252 
L 364.450909 246.3375 
L 362.929091 246.3375 
z
" style="fill:#1f77b4;"/>
   </g>
   <g id="patch_197">
    <path clip-path="url(#p98d396e79f)" d="M 364.450909 252 
L 365.972727 252 
L 365.972727 247.146429 
L 364.450909 247.146429 
z
" style="fill:#1f77b4;"/>
   </g>
   <g id="patch_198">
    <path clip-path="url(#p98d396e79f)" d="M 365.972727 252 
L 367.494545 252 
L 367.494545 247.146429 
L 365.972727 247.146429 
z
" style="fill:#1f77b4;"/>
   </g>
   <g id="patch_199">
    <path clip-path="url(#p98d396e79f)" d="M 367.494545 252 
L 369.016364 252 
L 369.016364 248.764286 
L 367.494545 248.764286 
z
" style="fill:#1f77b4;"/>
   </g>
   <g id="patch_200">
    <path clip-path="url(#p98d396e79f)" d="M 369.016364 252 
L 370.538182 252 
L 370.538182 244.719643 
L 369.016364 244.719643 
z
" style="fill:#1f77b4;"/>
   </g>
   <g id="patch_201">
    <path clip-path="url(#p98d396e79f)" d="M 370.538182 252 
L 372.06 252 
L 372.06 247.955357 
L 370.538182 247.955357 
z
" style="fill:#1f77b4;"/>
   </g>
   <g id="patch_202">
    <path clip-path="url(#p98d396e79f)" d="M 372.06 252 
L 373.581818 252 
L 373.581818 247.146429 
L 372.06 247.146429 
z
" style="fill:#1f77b4;"/>
   </g>
   <g id="matplotlib.axis_1">
    <g id="xtick_1">
     <g id="line2d_1">
      <path clip-path="url(#p98d396e79f)" d="M 68.950604 252 
L 68.950604 34.56 
" style="fill:none;stroke:#b0b0b0;stroke-linecap:square;stroke-width:0.8;"/>
     </g>
     <g id="line2d_2">
      <defs>
       <path d="M 0 0 
L 0 3.5 
" id="mc9ff590b35" style="stroke:#000000;stroke-width:0.8;"/>
      </defs>
      <g>
       <use style="stroke:#000000;stroke-width:0.8;" x="68.950604" xlink:href="#mc9ff590b35" y="252"/>
      </g>
     </g>
     <g id="text_1">
      <!-- 1000 -->
      <defs>
       <path d="M 12.40625 8.296875 
L 28.515625 8.296875 
L 28.515625 63.921875 
L 10.984375 60.40625 
L 10.984375 69.390625 
L 28.421875 72.90625 
L 38.28125 72.90625 
L 38.28125 8.296875 
L 54.390625 8.296875 
L 54.390625 0 
L 12.40625 0 
z
" id="DejaVuSans-49"/>
       <path d="M 31.78125 66.40625 
Q 24.171875 66.40625 20.328125 58.90625 
Q 16.5 51.421875 16.5 36.375 
Q 16.5 21.390625 20.328125 13.890625 
Q 24.171875 6.390625 31.78125 6.390625 
Q 39.453125 6.390625 43.28125 13.890625 
Q 47.125 21.390625 47.125 36.375 
Q 47.125 51.421875 43.28125 58.90625 
Q 39.453125 66.40625 31.78125 66.40625 
z
M 31.78125 74.21875 
Q 44.046875 74.21875 50.515625 64.515625 
Q 56.984375 54.828125 56.984375 36.375 
Q 56.984375 17.96875 50.515625 8.265625 
Q 44.046875 -1.421875 31.78125 -1.421875 
Q 19.53125 -1.421875 13.0625 8.265625 
Q 6.59375 17.96875 6.59375 36.375 
Q 6.59375 54.828125 13.0625 64.515625 
Q 19.53125 74.21875 31.78125 74.21875 
z
" id="DejaVuSans-48"/>
      </defs>
      <g transform="translate(56.225604 266.598437)scale(0.1 -0.1)">
       <use xlink:href="#DejaVuSans-49"/>
       <use x="63.623047" xlink:href="#DejaVuSans-48"/>
       <use x="127.246094" xlink:href="#DejaVuSans-48"/>
       <use x="190.869141" xlink:href="#DejaVuSans-48"/>
      </g>
     </g>
    </g>
    <g id="xtick_2">
     <g id="line2d_3">
      <path clip-path="url(#p98d396e79f)" d="M 109.584819 252 
L 109.584819 34.56 
" style="fill:none;stroke:#b0b0b0;stroke-linecap:square;stroke-width:0.8;"/>
     </g>
     <g id="line2d_4">
      <g>
       <use style="stroke:#000000;stroke-width:0.8;" x="109.584819" xlink:href="#mc9ff590b35" y="252"/>
      </g>
     </g>
     <g id="text_2">
      <!-- 1200 -->
      <defs>
       <path d="M 19.1875 8.296875 
L 53.609375 8.296875 
L 53.609375 0 
L 7.328125 0 
L 7.328125 8.296875 
Q 12.9375 14.109375 22.625 23.890625 
Q 32.328125 33.6875 34.8125 36.53125 
Q 39.546875 41.84375 41.421875 45.53125 
Q 43.3125 49.21875 43.3125 52.78125 
Q 43.3125 58.59375 39.234375 62.25 
Q 35.15625 65.921875 28.609375 65.921875 
Q 23.96875 65.921875 18.8125 64.3125 
Q 13.671875 62.703125 7.8125 59.421875 
L 7.8125 69.390625 
Q 13.765625 71.78125 18.9375 73 
Q 24.125 74.21875 28.421875 74.21875 
Q 39.75 74.21875 46.484375 68.546875 
Q 53.21875 62.890625 53.21875 53.421875 
Q 53.21875 48.921875 51.53125 44.890625 
Q 49.859375 40.875 45.40625 35.40625 
Q 44.1875 33.984375 37.640625 27.21875 
Q 31.109375 20.453125 19.1875 8.296875 
z
" id="DejaVuSans-50"/>
      </defs>
      <g transform="translate(96.859819 266.598437)scale(0.1 -0.1)">
       <use xlink:href="#DejaVuSans-49"/>
       <use x="63.623047" xlink:href="#DejaVuSans-50"/>
       <use x="127.246094" xlink:href="#DejaVuSans-48"/>
       <use x="190.869141" xlink:href="#DejaVuSans-48"/>
      </g>
     </g>
    </g>
    <g id="xtick_3">
     <g id="line2d_5">
      <path clip-path="url(#p98d396e79f)" d="M 150.219034 252 
L 150.219034 34.56 
" style="fill:none;stroke:#b0b0b0;stroke-linecap:square;stroke-width:0.8;"/>
     </g>
     <g id="line2d_6">
      <g>
       <use style="stroke:#000000;stroke-width:0.8;" x="150.219034" xlink:href="#mc9ff590b35" y="252"/>
      </g>
     </g>
     <g id="text_3">
      <!-- 1400 -->
      <defs>
       <path d="M 37.796875 64.3125 
L 12.890625 25.390625 
L 37.796875 25.390625 
z
M 35.203125 72.90625 
L 47.609375 72.90625 
L 47.609375 25.390625 
L 58.015625 25.390625 
L 58.015625 17.1875 
L 47.609375 17.1875 
L 47.609375 0 
L 37.796875 0 
L 37.796875 17.1875 
L 4.890625 17.1875 
L 4.890625 26.703125 
z
" id="DejaVuSans-52"/>
      </defs>
      <g transform="translate(137.494034 266.598437)scale(0.1 -0.1)">
       <use xlink:href="#DejaVuSans-49"/>
       <use x="63.623047" xlink:href="#DejaVuSans-52"/>
       <use x="127.246094" xlink:href="#DejaVuSans-48"/>
       <use x="190.869141" xlink:href="#DejaVuSans-48"/>
      </g>
     </g>
    </g>
    <g id="xtick_4">
     <g id="line2d_7">
      <path clip-path="url(#p98d396e79f)" d="M 190.853249 252 
L 190.853249 34.56 
" style="fill:none;stroke:#b0b0b0;stroke-linecap:square;stroke-width:0.8;"/>
     </g>
     <g id="line2d_8">
      <g>
       <use style="stroke:#000000;stroke-width:0.8;" x="190.853249" xlink:href="#mc9ff590b35" y="252"/>
      </g>
     </g>
     <g id="text_4">
      <!-- 1600 -->
      <defs>
       <path d="M 33.015625 40.375 
Q 26.375 40.375 22.484375 35.828125 
Q 18.609375 31.296875 18.609375 23.390625 
Q 18.609375 15.53125 22.484375 10.953125 
Q 26.375 6.390625 33.015625 6.390625 
Q 39.65625 6.390625 43.53125 10.953125 
Q 47.40625 15.53125 47.40625 23.390625 
Q 47.40625 31.296875 43.53125 35.828125 
Q 39.65625 40.375 33.015625 40.375 
z
M 52.59375 71.296875 
L 52.59375 62.3125 
Q 48.875 64.0625 45.09375 64.984375 
Q 41.3125 65.921875 37.59375 65.921875 
Q 27.828125 65.921875 22.671875 59.328125 
Q 17.53125 52.734375 16.796875 39.40625 
Q 19.671875 43.65625 24.015625 45.921875 
Q 28.375 48.1875 33.59375 48.1875 
Q 44.578125 48.1875 50.953125 41.515625 
Q 57.328125 34.859375 57.328125 23.390625 
Q 57.328125 12.15625 50.6875 5.359375 
Q 44.046875 -1.421875 33.015625 -1.421875 
Q 20.359375 -1.421875 13.671875 8.265625 
Q 6.984375 17.96875 6.984375 36.375 
Q 6.984375 53.65625 15.1875 63.9375 
Q 23.390625 74.21875 37.203125 74.21875 
Q 40.921875 74.21875 44.703125 73.484375 
Q 48.484375 72.75 52.59375 71.296875 
z
" id="DejaVuSans-54"/>
      </defs>
      <g transform="translate(178.128249 266.598437)scale(0.1 -0.1)">
       <use xlink:href="#DejaVuSans-49"/>
       <use x="63.623047" xlink:href="#DejaVuSans-54"/>
       <use x="127.246094" xlink:href="#DejaVuSans-48"/>
       <use x="190.869141" xlink:href="#DejaVuSans-48"/>
      </g>
     </g>
    </g>
    <g id="xtick_5">
     <g id="line2d_9">
      <path clip-path="url(#p98d396e79f)" d="M 231.487465 252 
L 231.487465 34.56 
" style="fill:none;stroke:#b0b0b0;stroke-linecap:square;stroke-width:0.8;"/>
     </g>
     <g id="line2d_10">
      <g>
       <use style="stroke:#000000;stroke-width:0.8;" x="231.487465" xlink:href="#mc9ff590b35" y="252"/>
      </g>
     </g>
     <g id="text_5">
      <!-- 1800 -->
      <defs>
       <path d="M 31.78125 34.625 
Q 24.75 34.625 20.71875 30.859375 
Q 16.703125 27.09375 16.703125 20.515625 
Q 16.703125 13.921875 20.71875 10.15625 
Q 24.75 6.390625 31.78125 6.390625 
Q 38.8125 6.390625 42.859375 10.171875 
Q 46.921875 13.96875 46.921875 20.515625 
Q 46.921875 27.09375 42.890625 30.859375 
Q 38.875 34.625 31.78125 34.625 
z
M 21.921875 38.8125 
Q 15.578125 40.375 12.03125 44.71875 
Q 8.5 49.078125 8.5 55.328125 
Q 8.5 64.0625 14.71875 69.140625 
Q 20.953125 74.21875 31.78125 74.21875 
Q 42.671875 74.21875 48.875 69.140625 
Q 55.078125 64.0625 55.078125 55.328125 
Q 55.078125 49.078125 51.53125 44.71875 
Q 48 40.375 41.703125 38.8125 
Q 48.828125 37.15625 52.796875 32.3125 
Q 56.78125 27.484375 56.78125 20.515625 
Q 56.78125 9.90625 50.3125 4.234375 
Q 43.84375 -1.421875 31.78125 -1.421875 
Q 19.734375 -1.421875 13.25 4.234375 
Q 6.78125 9.90625 6.78125 20.515625 
Q 6.78125 27.484375 10.78125 32.3125 
Q 14.796875 37.15625 21.921875 38.8125 
z
M 18.3125 54.390625 
Q 18.3125 48.734375 21.84375 45.5625 
Q 25.390625 42.390625 31.78125 42.390625 
Q 38.140625 42.390625 41.71875 45.5625 
Q 45.3125 48.734375 45.3125 54.390625 
Q 45.3125 60.0625 41.71875 63.234375 
Q 38.140625 66.40625 31.78125 66.40625 
Q 25.390625 66.40625 21.84375 63.234375 
Q 18.3125 60.0625 18.3125 54.390625 
z
" id="DejaVuSans-56"/>
      </defs>
      <g transform="translate(218.762465 266.598437)scale(0.1 -0.1)">
       <use xlink:href="#DejaVuSans-49"/>
       <use x="63.623047" xlink:href="#DejaVuSans-56"/>
       <use x="127.246094" xlink:href="#DejaVuSans-48"/>
       <use x="190.869141" xlink:href="#DejaVuSans-48"/>
      </g>
     </g>
    </g>
    <g id="xtick_6">
     <g id="line2d_11">
      <path clip-path="url(#p98d396e79f)" d="M 272.12168 252 
L 272.12168 34.56 
" style="fill:none;stroke:#b0b0b0;stroke-linecap:square;stroke-width:0.8;"/>
     </g>
     <g id="line2d_12">
      <g>
       <use style="stroke:#000000;stroke-width:0.8;" x="272.12168" xlink:href="#mc9ff590b35" y="252"/>
      </g>
     </g>
     <g id="text_6">
      <!-- 2000 -->
      <g transform="translate(259.39668 266.598437)scale(0.1 -0.1)">
       <use xlink:href="#DejaVuSans-50"/>
       <use x="63.623047" xlink:href="#DejaVuSans-48"/>
       <use x="127.246094" xlink:href="#DejaVuSans-48"/>
       <use x="190.869141" xlink:href="#DejaVuSans-48"/>
      </g>
     </g>
    </g>
    <g id="xtick_7">
     <g id="line2d_13">
      <path clip-path="url(#p98d396e79f)" d="M 312.755895 252 
L 312.755895 34.56 
" style="fill:none;stroke:#b0b0b0;stroke-linecap:square;stroke-width:0.8;"/>
     </g>
     <g id="line2d_14">
      <g>
       <use style="stroke:#000000;stroke-width:0.8;" x="312.755895" xlink:href="#mc9ff590b35" y="252"/>
      </g>
     </g>
     <g id="text_7">
      <!-- 2200 -->
      <g transform="translate(300.030895 266.598437)scale(0.1 -0.1)">
       <use xlink:href="#DejaVuSans-50"/>
       <use x="63.623047" xlink:href="#DejaVuSans-50"/>
       <use x="127.246094" xlink:href="#DejaVuSans-48"/>
       <use x="190.869141" xlink:href="#DejaVuSans-48"/>
      </g>
     </g>
    </g>
    <g id="xtick_8">
     <g id="line2d_15">
      <path clip-path="url(#p98d396e79f)" d="M 353.39011 252 
L 353.39011 34.56 
" style="fill:none;stroke:#b0b0b0;stroke-linecap:square;stroke-width:0.8;"/>
     </g>
     <g id="line2d_16">
      <g>
       <use style="stroke:#000000;stroke-width:0.8;" x="353.39011" xlink:href="#mc9ff590b35" y="252"/>
      </g>
     </g>
     <g id="text_8">
      <!-- 2400 -->
      <g transform="translate(340.66511 266.598437)scale(0.1 -0.1)">
       <use xlink:href="#DejaVuSans-50"/>
       <use x="63.623047" xlink:href="#DejaVuSans-52"/>
       <use x="127.246094" xlink:href="#DejaVuSans-48"/>
       <use x="190.869141" xlink:href="#DejaVuSans-48"/>
      </g>
     </g>
    </g>
   </g>
   <g id="matplotlib.axis_2">
    <g id="ytick_1">
     <g id="line2d_17">
      <path clip-path="url(#p98d396e79f)" d="M 54 252 
L 388.8 252 
" style="fill:none;stroke:#b0b0b0;stroke-linecap:square;stroke-width:0.8;"/>
     </g>
     <g id="line2d_18">
      <defs>
       <path d="M 0 0 
L -3.5 0 
" id="m8a2c15edcf" style="stroke:#000000;stroke-width:0.8;"/>
      </defs>
      <g>
       <use style="stroke:#000000;stroke-width:0.8;" x="54" xlink:href="#m8a2c15edcf" y="252"/>
      </g>
     </g>
     <g id="text_9">
      <!-- 0 -->
      <g transform="translate(40.6375 255.799219)scale(0.1 -0.1)">
       <use xlink:href="#DejaVuSans-48"/>
      </g>
     </g>
    </g>
    <g id="ytick_2">
     <g id="line2d_19">
      <path clip-path="url(#p98d396e79f)" d="M 54 211.553571 
L 388.8 211.553571 
" style="fill:none;stroke:#b0b0b0;stroke-linecap:square;stroke-width:0.8;"/>
     </g>
     <g id="line2d_20">
      <g>
       <use style="stroke:#000000;stroke-width:0.8;" x="54" xlink:href="#m8a2c15edcf" y="211.553571"/>
      </g>
     </g>
     <g id="text_10">
      <!-- 50 -->
      <defs>
       <path d="M 10.796875 72.90625 
L 49.515625 72.90625 
L 49.515625 64.59375 
L 19.828125 64.59375 
L 19.828125 46.734375 
Q 21.96875 47.46875 24.109375 47.828125 
Q 26.265625 48.1875 28.421875 48.1875 
Q 40.625 48.1875 47.75 41.5 
Q 54.890625 34.8125 54.890625 23.390625 
Q 54.890625 11.625 47.5625 5.09375 
Q 40.234375 -1.421875 26.90625 -1.421875 
Q 22.3125 -1.421875 17.546875 -0.640625 
Q 12.796875 0.140625 7.71875 1.703125 
L 7.71875 11.625 
Q 12.109375 9.234375 16.796875 8.0625 
Q 21.484375 6.890625 26.703125 6.890625 
Q 35.15625 6.890625 40.078125 11.328125 
Q 45.015625 15.765625 45.015625 23.390625 
Q 45.015625 31 40.078125 35.4375 
Q 35.15625 39.890625 26.703125 39.890625 
Q 22.75 39.890625 18.8125 39.015625 
Q 14.890625 38.140625 10.796875 36.28125 
z
" id="DejaVuSans-53"/>
      </defs>
      <g transform="translate(34.275 215.35279)scale(0.1 -0.1)">
       <use xlink:href="#DejaVuSans-53"/>
       <use x="63.623047" xlink:href="#DejaVuSans-48"/>
      </g>
     </g>
    </g>
    <g id="ytick_3">
     <g id="line2d_21">
      <path clip-path="url(#p98d396e79f)" d="M 54 171.107143 
L 388.8 171.107143 
" style="fill:none;stroke:#b0b0b0;stroke-linecap:square;stroke-width:0.8;"/>
     </g>
     <g id="line2d_22">
      <g>
       <use style="stroke:#000000;stroke-width:0.8;" x="54" xlink:href="#m8a2c15edcf" y="171.107143"/>
      </g>
     </g>
     <g id="text_11">
      <!-- 100 -->
      <g transform="translate(27.9125 174.906362)scale(0.1 -0.1)">
       <use xlink:href="#DejaVuSans-49"/>
       <use x="63.623047" xlink:href="#DejaVuSans-48"/>
       <use x="127.246094" xlink:href="#DejaVuSans-48"/>
      </g>
     </g>
    </g>
    <g id="ytick_4">
     <g id="line2d_23">
      <path clip-path="url(#p98d396e79f)" d="M 54 130.660714 
L 388.8 130.660714 
" style="fill:none;stroke:#b0b0b0;stroke-linecap:square;stroke-width:0.8;"/>
     </g>
     <g id="line2d_24">
      <g>
       <use style="stroke:#000000;stroke-width:0.8;" x="54" xlink:href="#m8a2c15edcf" y="130.660714"/>
      </g>
     </g>
     <g id="text_12">
      <!-- 150 -->
      <g transform="translate(27.9125 134.459933)scale(0.1 -0.1)">
       <use xlink:href="#DejaVuSans-49"/>
       <use x="63.623047" xlink:href="#DejaVuSans-53"/>
       <use x="127.246094" xlink:href="#DejaVuSans-48"/>
      </g>
     </g>
    </g>
    <g id="ytick_5">
     <g id="line2d_25">
      <path clip-path="url(#p98d396e79f)" d="M 54 90.214286 
L 388.8 90.214286 
" style="fill:none;stroke:#b0b0b0;stroke-linecap:square;stroke-width:0.8;"/>
     </g>
     <g id="line2d_26">
      <g>
       <use style="stroke:#000000;stroke-width:0.8;" x="54" xlink:href="#m8a2c15edcf" y="90.214286"/>
      </g>
     </g>
     <g id="text_13">
      <!-- 200 -->
      <g transform="translate(27.9125 94.013504)scale(0.1 -0.1)">
       <use xlink:href="#DejaVuSans-50"/>
       <use x="63.623047" xlink:href="#DejaVuSans-48"/>
       <use x="127.246094" xlink:href="#DejaVuSans-48"/>
      </g>
     </g>
    </g>
    <g id="ytick_6">
     <g id="line2d_27">
      <path clip-path="url(#p98d396e79f)" d="M 54 49.767857 
L 388.8 49.767857 
" style="fill:none;stroke:#b0b0b0;stroke-linecap:square;stroke-width:0.8;"/>
     </g>
     <g id="line2d_28">
      <g>
       <use style="stroke:#000000;stroke-width:0.8;" x="54" xlink:href="#m8a2c15edcf" y="49.767857"/>
      </g>
     </g>
     <g id="text_14">
      <!-- 250 -->
      <g transform="translate(27.9125 53.567076)scale(0.1 -0.1)">
       <use xlink:href="#DejaVuSans-50"/>
       <use x="63.623047" xlink:href="#DejaVuSans-53"/>
       <use x="127.246094" xlink:href="#DejaVuSans-48"/>
      </g>
     </g>
    </g>
   </g>
   <g id="patch_203">
    <path d="M 54 252 
L 54 34.56 
" style="fill:none;stroke:#000000;stroke-linecap:square;stroke-linejoin:miter;stroke-width:0.8;"/>
   </g>
   <g id="patch_204">
    <path d="M 388.8 252 
L 388.8 34.56 
" style="fill:none;stroke:#000000;stroke-linecap:square;stroke-linejoin:miter;stroke-width:0.8;"/>
   </g>
   <g id="patch_205">
    <path d="M 54 252 
L 388.8 252 
" style="fill:none;stroke:#000000;stroke-linecap:square;stroke-linejoin:miter;stroke-width:0.8;"/>
   </g>
   <g id="patch_206">
    <path d="M 54 34.56 
L 388.8 34.56 
" style="fill:none;stroke:#000000;stroke-linecap:square;stroke-linejoin:miter;stroke-width:0.8;"/>
   </g>
  </g>
 </g>
 <defs>
  <clipPath id="p98d396e79f">
   <rect height="217.44" width="334.8" x="54" y="34.56"/>
  </clipPath>
 </defs>
</svg>
