<?xml version="1.0" encoding="utf-8" standalone="no"?>
<!DOCTYPE svg PUBLIC "-//W3C//DTD SVG 1.1//EN"
  "http://www.w3.org/Graphics/SVG/1.1/DTD/svg11.dtd">
<svg xmlns:xlink="http://www.w3.org/1999/xlink" width="460.8pt" height="345.6pt" viewBox="0 0 460.8 345.6" xmlns="http://www.w3.org/2000/svg" version="1.1">
 <metadata>
  <rdf:RDF xmlns:dc="http://purl.org/dc/elements/1.1/" xmlns:cc="http://creativecommons.org/ns#" xmlns:rdf="http://www.w3.org/1999/02/22-rdf-syntax-ns#">
   <cc:Work>
    <dc:type rdf:resource="http://purl.org/dc/dcmitype/StillImage"/>
    <dc:date>2025-11-26T15:21:16.333292</dc:date>
    <dc:format>image/svg+xml</dc:format>
    <dc:creator>
     <cc:Agent>
      <dc:title>Matplotlib v3.10.7, https://matplotlib.org/</dc:title>
     </cc:Agent>
    </dc:creator>
   </cc:Work>
  </rdf:RDF>
 </metadata>
 <defs>
  <style type="text/css">*{stroke-linejoin: round; stroke-linecap: butt}</style>
 </defs>
 <g id="figure_1">
  <g id="patch_1">
   <path d="M 0 345.6 
L 460.8 345.6 
L 460.8 0 
L 0 0 
z
" style="fill: #ffffff"/>
  </g>
  <g id="axes_1">
   <g id="patch_2">
    <path d="M 62.57 303.64 
L 450 303.64 
L 450 25.49625 
L 62.57 25.49625 
z
" style="fill: #eaeaf2"/>
   </g>
   <g id="matplotlib.axis_1">
    <g id="xtick_1">
     <g id="line2d_1">
      <path d="M 72.246063 303.64 
L 72.246063 25.49625 
" clip-path="url(#pa2c7c3b41b)" style="fill: none; stroke: #ffffff; stroke-width: 0.8; stroke-linecap: round"/>
     </g>
     <g id="text_1">
      <!-- −500 -->
      <g style="fill: #262626" transform="translate(60.984344 317.797812) scale(0.1 -0.1)">
       <defs>
        <path id="ArialMT-2212" d="M 3381 1997 
L 356 1997 
L 356 2522 
L 3381 2522 
L 3381 1997 
z
" transform="scale(0.015625)"/>
        <path id="ArialMT-35" d="M 266 1200 
L 856 1250 
Q 922 819 1161 601 
Q 1400 384 1738 384 
Q 2144 384 2425 690 
Q 2706 997 2706 1503 
Q 2706 1984 2436 2262 
Q 2166 2541 1728 2541 
Q 1456 2541 1237 2417 
Q 1019 2294 894 2097 
L 366 2166 
L 809 4519 
L 3088 4519 
L 3088 3981 
L 1259 3981 
L 1013 2750 
Q 1425 3038 1878 3038 
Q 2478 3038 2890 2622 
Q 3303 2206 3303 1553 
Q 3303 931 2941 478 
Q 2500 -78 1738 -78 
Q 1113 -78 717 272 
Q 322 622 266 1200 
z
" transform="scale(0.015625)"/>
        <path id="ArialMT-30" d="M 266 2259 
Q 266 3072 433 3567 
Q 600 4063 929 4331 
Q 1259 4600 1759 4600 
Q 2128 4600 2406 4451 
Q 2684 4303 2865 4023 
Q 3047 3744 3150 3342 
Q 3253 2941 3253 2259 
Q 3253 1453 3087 958 
Q 2922 463 2592 192 
Q 2263 -78 1759 -78 
Q 1097 -78 719 397 
Q 266 969 266 2259 
z
M 844 2259 
Q 844 1131 1108 757 
Q 1372 384 1759 384 
Q 2147 384 2411 759 
Q 2675 1134 2675 2259 
Q 2675 3391 2411 3762 
Q 2147 4134 1753 4134 
Q 1366 4134 1134 3806 
Q 844 3388 844 2259 
z
" transform="scale(0.015625)"/>
       </defs>
       <use xlink:href="#ArialMT-2212"/>
       <use xlink:href="#ArialMT-35" transform="translate(58.398438 0)"/>
       <use xlink:href="#ArialMT-30" transform="translate(114.013672 0)"/>
       <use xlink:href="#ArialMT-30" transform="translate(169.628906 0)"/>
      </g>
     </g>
    </g>
    <g id="xtick_2">
     <g id="line2d_2">
      <path d="M 123.501824 303.64 
L 123.501824 25.49625 
" clip-path="url(#pa2c7c3b41b)" style="fill: none; stroke: #ffffff; stroke-width: 0.8; stroke-linecap: round"/>
     </g>
     <g id="text_2">
      <!-- −250 -->
      <g style="fill: #262626" transform="translate(112.240105 317.797812) scale(0.1 -0.1)">
       <defs>
        <path id="ArialMT-32" d="M 3222 541 
L 3222 0 
L 194 0 
Q 188 203 259 391 
Q 375 700 629 1000 
Q 884 1300 1366 1694 
Q 2113 2306 2375 2664 
Q 2638 3022 2638 3341 
Q 2638 3675 2398 3904 
Q 2159 4134 1775 4134 
Q 1369 4134 1125 3890 
Q 881 3647 878 3216 
L 300 3275 
Q 359 3922 746 4261 
Q 1134 4600 1788 4600 
Q 2447 4600 2831 4234 
Q 3216 3869 3216 3328 
Q 3216 3053 3103 2787 
Q 2991 2522 2730 2228 
Q 2469 1934 1863 1422 
Q 1356 997 1212 845 
Q 1069 694 975 541 
L 3222 541 
z
" transform="scale(0.015625)"/>
       </defs>
       <use xlink:href="#ArialMT-2212"/>
       <use xlink:href="#ArialMT-32" transform="translate(58.398438 0)"/>
       <use xlink:href="#ArialMT-35" transform="translate(114.013672 0)"/>
       <use xlink:href="#ArialMT-30" transform="translate(169.628906 0)"/>
      </g>
     </g>
    </g>
    <g id="xtick_3">
     <g id="line2d_3">
      <path d="M 174.757586 303.64 
L 174.757586 25.49625 
" clip-path="url(#pa2c7c3b41b)" style="fill: none; stroke: #ffffff; stroke-width: 0.8; stroke-linecap: round"/>
     </g>
     <g id="text_3">
      <!-- 0 -->
      <g style="fill: #262626" transform="translate(171.977117 317.797812) scale(0.1 -0.1)">
       <use xlink:href="#ArialMT-30"/>
      </g>
     </g>
    </g>
    <g id="xtick_4">
     <g id="line2d_4">
      <path d="M 226.013347 303.64 
L 226.013347 25.49625 
" clip-path="url(#pa2c7c3b41b)" style="fill: none; stroke: #ffffff; stroke-width: 0.8; stroke-linecap: round"/>
     </g>
     <g id="text_4">
      <!-- 250 -->
      <g style="fill: #262626" transform="translate(217.671941 317.797812) scale(0.1 -0.1)">
       <use xlink:href="#ArialMT-32"/>
       <use xlink:href="#ArialMT-35" transform="translate(55.615234 0)"/>
       <use xlink:href="#ArialMT-30" transform="translate(111.230469 0)"/>
      </g>
     </g>
    </g>
    <g id="xtick_5">
     <g id="line2d_5">
      <path d="M 277.269109 303.64 
L 277.269109 25.49625 
" clip-path="url(#pa2c7c3b41b)" style="fill: none; stroke: #ffffff; stroke-width: 0.8; stroke-linecap: round"/>
     </g>
     <g id="text_5">
      <!-- 500 -->
      <g style="fill: #262626" transform="translate(268.927703 317.797812) scale(0.1 -0.1)">
       <use xlink:href="#ArialMT-35"/>
       <use xlink:href="#ArialMT-30" transform="translate(55.615234 0)"/>
       <use xlink:href="#ArialMT-30" transform="translate(111.230469 0)"/>
      </g>
     </g>
    </g>
    <g id="xtick_6">
     <g id="line2d_6">
      <path d="M 328.52487 303.64 
L 328.52487 25.49625 
" clip-path="url(#pa2c7c3b41b)" style="fill: none; stroke: #ffffff; stroke-width: 0.8; stroke-linecap: round"/>
     </g>
     <g id="text_6">
      <!-- 750 -->
      <g style="fill: #262626" transform="translate(320.183464 317.797812) scale(0.1 -0.1)">
       <defs>
        <path id="ArialMT-37" d="M 303 3981 
L 303 4522 
L 3269 4522 
L 3269 4084 
Q 2831 3619 2401 2847 
Q 1972 2075 1738 1259 
Q 1569 684 1522 0 
L 944 0 
Q 953 541 1156 1306 
Q 1359 2072 1739 2783 
Q 2119 3494 2547 3981 
L 303 3981 
z
" transform="scale(0.015625)"/>
       </defs>
       <use xlink:href="#ArialMT-37"/>
       <use xlink:href="#ArialMT-35" transform="translate(55.615234 0)"/>
       <use xlink:href="#ArialMT-30" transform="translate(111.230469 0)"/>
      </g>
     </g>
    </g>
    <g id="xtick_7">
     <g id="line2d_7">
      <path d="M 379.780632 303.64 
L 379.780632 25.49625 
" clip-path="url(#pa2c7c3b41b)" style="fill: none; stroke: #ffffff; stroke-width: 0.8; stroke-linecap: round"/>
     </g>
     <g id="text_7">
      <!-- 1000 -->
      <g style="fill: #262626" transform="translate(368.658757 317.797812) scale(0.1 -0.1)">
       <defs>
        <path id="ArialMT-31" d="M 2384 0 
L 1822 0 
L 1822 3584 
Q 1619 3391 1289 3197 
Q 959 3003 697 2906 
L 697 3450 
Q 1169 3672 1522 3987 
Q 1875 4303 2022 4600 
L 2384 4600 
L 2384 0 
z
" transform="scale(0.015625)"/>
       </defs>
       <use xlink:href="#ArialMT-31"/>
       <use xlink:href="#ArialMT-30" transform="translate(55.615234 0)"/>
       <use xlink:href="#ArialMT-30" transform="translate(111.230469 0)"/>
       <use xlink:href="#ArialMT-30" transform="translate(166.845703 0)"/>
      </g>
     </g>
    </g>
    <g id="xtick_8">
     <g id="line2d_8">
      <path d="M 431.036393 303.64 
L 431.036393 25.49625 
" clip-path="url(#pa2c7c3b41b)" style="fill: none; stroke: #ffffff; stroke-width: 0.8; stroke-linecap: round"/>
     </g>
     <g id="text_8">
      <!-- 1250 -->
      <g style="fill: #262626" transform="translate(419.914518 317.797812) scale(0.1 -0.1)">
       <use xlink:href="#ArialMT-31"/>
       <use xlink:href="#ArialMT-32" transform="translate(55.615234 0)"/>
       <use xlink:href="#ArialMT-35" transform="translate(111.230469 0)"/>
       <use xlink:href="#ArialMT-30" transform="translate(166.845703 0)"/>
      </g>
     </g>
    </g>
    <g id="text_9">
     <!-- Elo rating -->
     <g style="fill: #262626" transform="translate(235.163125 330.943125) scale(0.1 -0.1)">
      <defs>
       <path id="ArialMT-45" d="M 506 0 
L 506 4581 
L 3819 4581 
L 3819 4041 
L 1113 4041 
L 1113 2638 
L 3647 2638 
L 3647 2100 
L 1113 2100 
L 1113 541 
L 3925 541 
L 3925 0 
L 506 0 
z
" transform="scale(0.015625)"/>
       <path id="ArialMT-6c" d="M 409 0 
L 409 4581 
L 972 4581 
L 972 0 
L 409 0 
z
" transform="scale(0.015625)"/>
       <path id="ArialMT-6f" d="M 213 1659 
Q 213 2581 725 3025 
Q 1153 3394 1769 3394 
Q 2453 3394 2887 2945 
Q 3322 2497 3322 1706 
Q 3322 1066 3130 698 
Q 2938 331 2570 128 
Q 2203 -75 1769 -75 
Q 1072 -75 642 372 
Q 213 819 213 1659 
z
M 791 1659 
Q 791 1022 1069 705 
Q 1347 388 1769 388 
Q 2188 388 2466 706 
Q 2744 1025 2744 1678 
Q 2744 2294 2464 2611 
Q 2184 2928 1769 2928 
Q 1347 2928 1069 2612 
Q 791 2297 791 1659 
z
" transform="scale(0.015625)"/>
       <path id="ArialMT-20" transform="scale(0.015625)"/>
       <path id="ArialMT-72" d="M 416 0 
L 416 3319 
L 922 3319 
L 922 2816 
Q 1116 3169 1280 3281 
Q 1444 3394 1641 3394 
Q 1925 3394 2219 3213 
L 2025 2691 
Q 1819 2813 1613 2813 
Q 1428 2813 1281 2702 
Q 1134 2591 1072 2394 
Q 978 2094 978 1738 
L 978 0 
L 416 0 
z
" transform="scale(0.015625)"/>
       <path id="ArialMT-61" d="M 2588 409 
Q 2275 144 1986 34 
Q 1697 -75 1366 -75 
Q 819 -75 525 192 
Q 231 459 231 875 
Q 231 1119 342 1320 
Q 453 1522 633 1644 
Q 813 1766 1038 1828 
Q 1203 1872 1538 1913 
Q 2219 1994 2541 2106 
Q 2544 2222 2544 2253 
Q 2544 2597 2384 2738 
Q 2169 2928 1744 2928 
Q 1347 2928 1158 2789 
Q 969 2650 878 2297 
L 328 2372 
Q 403 2725 575 2942 
Q 747 3159 1072 3276 
Q 1397 3394 1825 3394 
Q 2250 3394 2515 3294 
Q 2781 3194 2906 3042 
Q 3031 2891 3081 2659 
Q 3109 2516 3109 2141 
L 3109 1391 
Q 3109 606 3145 398 
Q 3181 191 3288 0 
L 2700 0 
Q 2613 175 2588 409 
z
M 2541 1666 
Q 2234 1541 1622 1453 
Q 1275 1403 1131 1340 
Q 988 1278 909 1158 
Q 831 1038 831 891 
Q 831 666 1001 516 
Q 1172 366 1500 366 
Q 1825 366 2078 508 
Q 2331 650 2450 897 
Q 2541 1088 2541 1459 
L 2541 1666 
z
" transform="scale(0.015625)"/>
       <path id="ArialMT-74" d="M 1650 503 
L 1731 6 
Q 1494 -44 1306 -44 
Q 1000 -44 831 53 
Q 663 150 594 308 
Q 525 466 525 972 
L 525 2881 
L 113 2881 
L 113 3319 
L 525 3319 
L 525 4141 
L 1084 4478 
L 1084 3319 
L 1650 3319 
L 1650 2881 
L 1084 2881 
L 1084 941 
Q 1084 700 1114 631 
Q 1144 563 1211 522 
Q 1278 481 1403 481 
Q 1497 481 1650 503 
z
" transform="scale(0.015625)"/>
       <path id="ArialMT-69" d="M 425 3934 
L 425 4581 
L 988 4581 
L 988 3934 
L 425 3934 
z
M 425 0 
L 425 3319 
L 988 3319 
L 988 0 
L 425 0 
z
" transform="scale(0.015625)"/>
       <path id="ArialMT-6e" d="M 422 0 
L 422 3319 
L 928 3319 
L 928 2847 
Q 1294 3394 1984 3394 
Q 2284 3394 2536 3286 
Q 2788 3178 2913 3003 
Q 3038 2828 3088 2588 
Q 3119 2431 3119 2041 
L 3119 0 
L 2556 0 
L 2556 2019 
Q 2556 2363 2490 2533 
Q 2425 2703 2258 2804 
Q 2091 2906 1866 2906 
Q 1506 2906 1245 2678 
Q 984 2450 984 1813 
L 984 0 
L 422 0 
z
" transform="scale(0.015625)"/>
       <path id="ArialMT-67" d="M 319 -275 
L 866 -356 
Q 900 -609 1056 -725 
Q 1266 -881 1628 -881 
Q 2019 -881 2231 -725 
Q 2444 -569 2519 -288 
Q 2563 -116 2559 434 
Q 2191 0 1641 0 
Q 956 0 581 494 
Q 206 988 206 1678 
Q 206 2153 378 2554 
Q 550 2956 876 3175 
Q 1203 3394 1644 3394 
Q 2231 3394 2613 2919 
L 2613 3319 
L 3131 3319 
L 3131 450 
Q 3131 -325 2973 -648 
Q 2816 -972 2473 -1159 
Q 2131 -1347 1631 -1347 
Q 1038 -1347 672 -1080 
Q 306 -813 319 -275 
z
M 784 1719 
Q 784 1066 1043 766 
Q 1303 466 1694 466 
Q 2081 466 2343 764 
Q 2606 1063 2606 1700 
Q 2606 2309 2336 2618 
Q 2066 2928 1684 2928 
Q 1309 2928 1046 2623 
Q 784 2319 784 1719 
z
" transform="scale(0.015625)"/>
      </defs>
      <use xlink:href="#ArialMT-45"/>
      <use xlink:href="#ArialMT-6c" transform="translate(66.699219 0)"/>
      <use xlink:href="#ArialMT-6f" transform="translate(88.916016 0)"/>
      <use xlink:href="#ArialMT-20" transform="translate(144.53125 0)"/>
      <use xlink:href="#ArialMT-72" transform="translate(172.314453 0)"/>
      <use xlink:href="#ArialMT-61" transform="translate(205.615234 0)"/>
      <use xlink:href="#ArialMT-74" transform="translate(261.230469 0)"/>
      <use xlink:href="#ArialMT-69" transform="translate(289.013672 0)"/>
      <use xlink:href="#ArialMT-6e" transform="translate(311.230469 0)"/>
      <use xlink:href="#ArialMT-67" transform="translate(366.845703 0)"/>
     </g>
    </g>
   </g>
   <g id="matplotlib.axis_2">
    <g id="ytick_1">
     <g id="line2d_9">
      <path d="M 62.57 303.64 
L 450 303.64 
" clip-path="url(#pa2c7c3b41b)" style="fill: none; stroke: #ffffff; stroke-width: 0.8; stroke-linecap: round"/>
     </g>
     <g id="text_10">
      <!-- 0.0000 -->
      <g style="fill: #262626" transform="translate(24.987188 307.218906) scale(0.1 -0.1)">
       <defs>
        <path id="ArialMT-2e" d="M 581 0 
L 581 641 
L 1222 641 
L 1222 0 
L 581 0 
z
" transform="scale(0.015625)"/>
       </defs>
       <use xlink:href="#ArialMT-30"/>
       <use xlink:href="#ArialMT-2e" transform="translate(55.615234 0)"/>
       <use xlink:href="#ArialMT-30" transform="translate(83.398438 0)"/>
       <use xlink:href="#ArialMT-30" transform="translate(139.013672 0)"/>
       <use xlink:href="#ArialMT-30" transform="translate(194.628906 0)"/>
       <use xlink:href="#ArialMT-30" transform="translate(250.244141 0)"/>
      </g>
     </g>
    </g>
    <g id="ytick_2">
     <g id="line2d_10">
      <path d="M 62.57 248.669202 
L 450 248.669202 
" clip-path="url(#pa2c7c3b41b)" style="fill: none; stroke: #ffffff; stroke-width: 0.8; stroke-linecap: round"/>
     </g>
     <g id="text_11">
      <!-- 0.0005 -->
      <g style="fill: #262626" transform="translate(24.987188 252.248108) scale(0.1 -0.1)">
       <use xlink:href="#ArialMT-30"/>
       <use xlink:href="#ArialMT-2e" transform="translate(55.615234 0)"/>
       <use xlink:href="#ArialMT-30" transform="translate(83.398438 0)"/>
       <use xlink:href="#ArialMT-30" transform="translate(139.013672 0)"/>
       <use xlink:href="#ArialMT-30" transform="translate(194.628906 0)"/>
       <use xlink:href="#ArialMT-35" transform="translate(250.244141 0)"/>
      </g>
     </g>
    </g>
    <g id="ytick_3">
     <g id="line2d_11">
      <path d="M 62.57 193.698404 
L 450 193.698404 
" clip-path="url(#pa2c7c3b41b)" style="fill: none; stroke: #ffffff; stroke-width: 0.8; stroke-linecap: round"/>
     </g>
     <g id="text_12">
      <!-- 0.0010 -->
      <g style="fill: #262626" transform="translate(24.987188 197.27731) scale(0.1 -0.1)">
       <use xlink:href="#ArialMT-30"/>
       <use xlink:href="#ArialMT-2e" transform="translate(55.615234 0)"/>
       <use xlink:href="#ArialMT-30" transform="translate(83.398438 0)"/>
       <use xlink:href="#ArialMT-30" transform="translate(139.013672 0)"/>
       <use xlink:href="#ArialMT-31" transform="translate(194.628906 0)"/>
       <use xlink:href="#ArialMT-30" transform="translate(250.244141 0)"/>
      </g>
     </g>
    </g>
    <g id="ytick_4">
     <g id="line2d_12">
      <path d="M 62.57 138.727606 
L 450 138.727606 
" clip-path="url(#pa2c7c3b41b)" style="fill: none; stroke: #ffffff; stroke-width: 0.8; stroke-linecap: round"/>
     </g>
     <g id="text_13">
      <!-- 0.0015 -->
      <g style="fill: #262626" transform="translate(24.987188 142.306512) scale(0.1 -0.1)">
       <use xlink:href="#ArialMT-30"/>
       <use xlink:href="#ArialMT-2e" transform="translate(55.615234 0)"/>
       <use xlink:href="#ArialMT-30" transform="translate(83.398438 0)"/>
       <use xlink:href="#ArialMT-30" transform="translate(139.013672 0)"/>
       <use xlink:href="#ArialMT-31" transform="translate(194.628906 0)"/>
       <use xlink:href="#ArialMT-35" transform="translate(250.244141 0)"/>
      </g>
     </g>
    </g>
    <g id="ytick_5">
     <g id="line2d_13">
      <path d="M 62.57 83.756808 
L 450 83.756808 
" clip-path="url(#pa2c7c3b41b)" style="fill: none; stroke: #ffffff; stroke-width: 0.8; stroke-linecap: round"/>
     </g>
     <g id="text_14">
      <!-- 0.0020 -->
      <g style="fill: #262626" transform="translate(24.987188 87.335714) scale(0.1 -0.1)">
       <use xlink:href="#ArialMT-30"/>
       <use xlink:href="#ArialMT-2e" transform="translate(55.615234 0)"/>
       <use xlink:href="#ArialMT-30" transform="translate(83.398438 0)"/>
       <use xlink:href="#ArialMT-30" transform="translate(139.013672 0)"/>
       <use xlink:href="#ArialMT-32" transform="translate(194.628906 0)"/>
       <use xlink:href="#ArialMT-30" transform="translate(250.244141 0)"/>
      </g>
     </g>
    </g>
    <g id="ytick_6">
     <g id="line2d_14">
      <path d="M 62.57 28.786009 
L 450 28.786009 
" clip-path="url(#pa2c7c3b41b)" style="fill: none; stroke: #ffffff; stroke-width: 0.8; stroke-linecap: round"/>
     </g>
     <g id="text_15">
      <!-- 0.0025 -->
      <g style="fill: #262626" transform="translate(24.987188 32.364916) scale(0.1 -0.1)">
       <use xlink:href="#ArialMT-30"/>
       <use xlink:href="#ArialMT-2e" transform="translate(55.615234 0)"/>
       <use xlink:href="#ArialMT-30" transform="translate(83.398438 0)"/>
       <use xlink:href="#ArialMT-30" transform="translate(139.013672 0)"/>
       <use xlink:href="#ArialMT-32" transform="translate(194.628906 0)"/>
       <use xlink:href="#ArialMT-35" transform="translate(250.244141 0)"/>
      </g>
     </g>
    </g>
    <g id="text_16">
     <!-- Density -->
     <g style="fill: #262626" transform="translate(18.8825 181.24) rotate(-90) scale(0.1 -0.1)">
      <defs>
       <path id="ArialMT-44" d="M 494 0 
L 494 4581 
L 2072 4581 
Q 2606 4581 2888 4516 
Q 3281 4425 3559 4188 
Q 3922 3881 4101 3404 
Q 4281 2928 4281 2316 
Q 4281 1794 4159 1391 
Q 4038 988 3847 723 
Q 3656 459 3429 307 
Q 3203 156 2883 78 
Q 2563 0 2147 0 
L 494 0 
z
M 1100 541 
L 2078 541 
Q 2531 541 2789 625 
Q 3047 709 3200 863 
Q 3416 1078 3536 1442 
Q 3656 1806 3656 2325 
Q 3656 3044 3420 3430 
Q 3184 3816 2847 3947 
Q 2603 4041 2063 4041 
L 1100 4041 
L 1100 541 
z
" transform="scale(0.015625)"/>
       <path id="ArialMT-65" d="M 2694 1069 
L 3275 997 
Q 3138 488 2766 206 
Q 2394 -75 1816 -75 
Q 1088 -75 661 373 
Q 234 822 234 1631 
Q 234 2469 665 2931 
Q 1097 3394 1784 3394 
Q 2450 3394 2872 2941 
Q 3294 2488 3294 1666 
Q 3294 1616 3291 1516 
L 816 1516 
Q 847 969 1125 678 
Q 1403 388 1819 388 
Q 2128 388 2347 550 
Q 2566 713 2694 1069 
z
M 847 1978 
L 2700 1978 
Q 2663 2397 2488 2606 
Q 2219 2931 1791 2931 
Q 1403 2931 1139 2672 
Q 875 2413 847 1978 
z
" transform="scale(0.015625)"/>
       <path id="ArialMT-73" d="M 197 991 
L 753 1078 
Q 800 744 1014 566 
Q 1228 388 1613 388 
Q 2000 388 2187 545 
Q 2375 703 2375 916 
Q 2375 1106 2209 1216 
Q 2094 1291 1634 1406 
Q 1016 1563 777 1677 
Q 538 1791 414 1992 
Q 291 2194 291 2438 
Q 291 2659 392 2848 
Q 494 3038 669 3163 
Q 800 3259 1026 3326 
Q 1253 3394 1513 3394 
Q 1903 3394 2198 3281 
Q 2494 3169 2634 2976 
Q 2775 2784 2828 2463 
L 2278 2388 
Q 2241 2644 2061 2787 
Q 1881 2931 1553 2931 
Q 1166 2931 1000 2803 
Q 834 2675 834 2503 
Q 834 2394 903 2306 
Q 972 2216 1119 2156 
Q 1203 2125 1616 2013 
Q 2213 1853 2448 1751 
Q 2684 1650 2818 1456 
Q 2953 1263 2953 975 
Q 2953 694 2789 445 
Q 2625 197 2315 61 
Q 2006 -75 1616 -75 
Q 969 -75 630 194 
Q 291 463 197 991 
z
" transform="scale(0.015625)"/>
       <path id="ArialMT-79" d="M 397 -1278 
L 334 -750 
Q 519 -800 656 -800 
Q 844 -800 956 -737 
Q 1069 -675 1141 -563 
Q 1194 -478 1313 -144 
Q 1328 -97 1363 -6 
L 103 3319 
L 709 3319 
L 1400 1397 
Q 1534 1031 1641 628 
Q 1738 1016 1872 1384 
L 2581 3319 
L 3144 3319 
L 1881 -56 
Q 1678 -603 1566 -809 
Q 1416 -1088 1222 -1217 
Q 1028 -1347 759 -1347 
Q 597 -1347 397 -1278 
z
" transform="scale(0.015625)"/>
      </defs>
      <use xlink:href="#ArialMT-44"/>
      <use xlink:href="#ArialMT-65" transform="translate(72.216797 0)"/>
      <use xlink:href="#ArialMT-6e" transform="translate(127.832031 0)"/>
      <use xlink:href="#ArialMT-73" transform="translate(183.447266 0)"/>
      <use xlink:href="#ArialMT-69" transform="translate(233.447266 0)"/>
      <use xlink:href="#ArialMT-74" transform="translate(255.664062 0)"/>
      <use xlink:href="#ArialMT-79" transform="translate(283.447266 0)"/>
     </g>
    </g>
   </g>
   <g id="line2d_15">
    <path d="M 80.180455 298.256882 
L 82.326738 296.480489 
L 84.473021 294.344796 
L 86.619304 291.837064 
L 88.765587 288.952105 
L 90.91187 285.689975 
L 93.058153 282.054174 
L 95.204436 278.05167 
L 97.35072 273.695522 
L 100.570144 266.555338 
L 103.789569 258.83395 
L 113.447843 235.055874 
L 116.667268 227.865982 
L 119.886692 221.17717 
L 127.398683 205.953779 
L 129.544966 201.106118 
L 131.69125 195.750615 
L 133.837533 189.726703 
L 135.983816 182.883576 
L 138.130099 175.092904 
L 140.276382 166.264801 
L 142.422665 156.36501 
L 144.568948 145.43038 
L 147.788373 127.371796 
L 157.446647 70.487624 
L 159.59293 59.955999 
L 160.666072 55.323724 
L 161.739213 51.183915 
L 162.812355 47.582848 
L 163.885496 44.560111 
L 164.958638 42.14729 
L 166.03178 40.366766 
L 167.104921 39.230711 
L 168.178063 38.740329 
L 169.251204 38.885432 
L 170.324346 39.644377 
L 171.397487 40.984419 
L 172.470629 42.862482 
L 173.54377 45.226349 
L 174.616912 48.016223 
L 176.763195 54.608421 
L 179.98262 65.985335 
L 184.275186 81.32387 
L 186.421469 88.291495 
L 188.567752 94.597553 
L 190.714035 100.264761 
L 192.860319 105.409339 
L 196.079743 112.510413 
L 202.518593 126.406677 
L 205.738017 133.882077 
L 208.957442 141.950399 
L 212.176867 150.737701 
L 215.396291 160.355161 
L 218.615716 170.85656 
L 221.835141 182.177494 
L 226.127707 198.153732 
L 232.566556 222.225201 
L 235.785981 233.49226 
L 239.005406 243.905739 
L 242.22483 253.363075 
L 245.444255 261.846424 
L 247.590538 266.969241 
L 249.736821 271.674248 
L 251.883105 275.969212 
L 254.029388 279.863906 
L 256.175671 283.371912 
L 258.321954 286.511437 
L 260.468237 289.304548 
L 262.61452 291.775105 
L 264.760803 293.946318 
L 266.907086 295.838916 
L 269.05337 297.470641 
L 271.199653 298.857111 
L 273.345936 300.013586 
L 275.492219 300.956865 
L 277.638502 301.706587 
L 279.784785 302.285514 
L 283.00421 302.888982 
L 286.223635 303.251954 
L 290.516201 303.496541 
L 293.735625 303.57775 
L 293.735625 303.57775 
" clip-path="url(#pa2c7c3b41b)" style="fill: none; stroke: #006400; stroke-width: 1.5; stroke-linecap: round"/>
   </g>
   <g id="line2d_16">
    <path d="M 80.180455 300.154799 
L 83.720244 299.049546 
L 87.260034 297.660768 
L 90.799824 295.914027 
L 94.339614 293.760581 
L 97.879404 291.184213 
L 101.419194 288.180191 
L 104.958984 284.70797 
L 106.728878 282.758874 
L 108.498773 280.631777 
L 110.268668 278.289626 
L 112.038563 275.689914 
L 113.808458 272.788855 
L 115.578353 269.546733 
L 117.348248 265.933534 
L 119.118143 261.933701 
L 120.888038 257.549053 
L 122.657933 252.799255 
L 126.197723 242.35847 
L 129.737513 231.011207 
L 149.206357 166.620682 
L 152.746147 155.507299 
L 156.285937 145.02637 
L 159.825726 135.606097 
L 161.595621 131.407351 
L 163.365516 127.580247 
L 165.135411 124.121417 
L 166.905306 121.005597 
L 168.675201 118.189366 
L 172.214991 113.23991 
L 175.754781 108.916512 
L 177.524676 106.970493 
L 179.294571 105.225175 
L 181.064466 103.764654 
L 182.83436 102.694945 
L 184.604255 102.128131 
L 186.37415 102.16415 
L 188.144045 102.873966 
L 189.91394 104.28772 
L 191.683835 106.390267 
L 193.45373 109.124572 
L 195.223625 112.401437 
L 196.99352 116.112588 
L 200.53331 124.384504 
L 207.612889 141.644609 
L 211.152679 149.58759 
L 214.692469 156.843811 
L 223.541944 174.211459 
L 227.081734 181.849705 
L 241.240893 213.498036 
L 244.780683 220.740477 
L 248.320473 227.340877 
L 250.090368 230.303137 
L 251.860263 233.000773 
L 253.630158 235.423991 
L 255.400053 237.583142 
L 257.169947 239.50834 
L 260.709737 242.852372 
L 267.789317 249.098475 
L 271.329107 252.652006 
L 274.868897 256.577141 
L 281.948476 264.667674 
L 285.488266 268.234035 
L 287.258161 269.794763 
L 289.028056 271.191543 
L 290.797951 272.425415 
L 292.567846 273.506247 
L 296.107636 275.279176 
L 299.647426 276.678517 
L 304.957111 278.440296 
L 310.266795 280.201668 
L 313.806585 281.574056 
L 317.346375 283.217682 
L 320.886165 285.148901 
L 329.73564 290.249847 
L 333.275429 291.78435 
L 335.045324 292.36055 
L 336.815219 292.80683 
L 340.355009 293.349936 
L 343.894799 293.54509 
L 354.514169 293.754448 
L 358.053958 294.134427 
L 363.363643 295.042909 
L 372.213118 296.68556 
L 377.522803 297.446863 
L 386.372277 298.43887 
L 425.309966 302.264665 
L 432.389545 302.591968 
L 432.389545 302.591968 
" clip-path="url(#pa2c7c3b41b)" style="fill: none; stroke: #ff8c00; stroke-width: 1.5; stroke-linecap: round"/>
   </g>
   <g id="line2d_17">
    <path d="M 82.377597 303.612174 
L 89.254456 303.441322 
L 93.380571 303.115884 
L 96.131314 302.71958 
L 98.882058 302.123471 
L 101.632801 301.287251 
L 104.383545 300.187199 
L 107.134288 298.8186 
L 109.885032 297.188655 
L 112.635775 295.301123 
L 115.386519 293.138804 
L 118.137262 290.651642 
L 120.888006 287.754698 
L 123.638749 284.33393 
L 126.389492 280.253642 
L 127.764864 277.919074 
L 129.140236 275.361261 
L 130.515608 272.559088 
L 131.890979 269.491066 
L 133.266351 266.135784 
L 134.641723 262.472463 
L 136.017095 258.481553 
L 138.767838 249.448094 
L 141.518582 238.920634 
L 144.269325 226.821983 
L 147.020068 213.111123 
L 149.770812 197.793789 
L 152.521555 180.961529 
L 155.272299 162.855842 
L 164.899901 97.737976 
L 167.650644 81.865054 
L 169.026016 74.831173 
L 170.401388 68.468126 
L 171.77676 62.803709 
L 173.152131 57.84713 
L 174.527503 53.590987 
L 175.902875 50.014135 
L 177.278247 47.08509 
L 178.653618 44.765556 
L 180.02899 43.013776 
L 181.404362 41.78742 
L 182.779734 41.045892 
L 184.155105 40.75201 
L 185.530477 40.873118 
L 186.905849 41.381733 
L 188.28122 42.255859 
L 189.656592 43.479048 
L 191.031964 45.04026 
L 192.407336 46.93348 
L 193.782707 49.15704 
L 195.158079 51.712543 
L 196.533451 54.603356 
L 197.908823 57.832657 
L 199.284194 61.40118 
L 202.034938 69.532543 
L 204.785681 78.871401 
L 207.536425 89.146779 
L 218.539399 131.788396 
L 222.665514 146.254579 
L 237.794603 197.178748 
L 241.920718 210.220426 
L 244.671461 218.223709 
L 247.422205 225.586059 
L 250.172948 232.286975 
L 252.923692 238.311127 
L 255.674435 243.626085 
L 258.425179 248.200108 
L 261.175922 252.049465 
L 263.926666 255.278842 
L 266.677409 258.079432 
L 277.680383 268.686889 
L 284.557242 275.529277 
L 288.683357 279.30825 
L 292.809472 282.717541 
L 295.560216 284.756504 
L 298.310959 286.593014 
L 301.061702 288.220448 
L 303.812446 289.640215 
L 306.563189 290.864747 
L 310.689305 292.40501 
L 320.316907 295.696867 
L 325.818394 297.98289 
L 331.319881 300.274355 
L 334.070624 301.240752 
L 336.821368 302.023368 
L 339.572111 302.612527 
L 342.322854 303.025142 
L 346.44897 303.386672 
L 351.950457 303.578023 
L 356.076572 303.621914 
L 356.076572 303.621914 
" clip-path="url(#pa2c7c3b41b)" style="fill: none; stroke: #8b0000; stroke-width: 1.5; stroke-linecap: round"/>
   </g>
   <g id="patch_3">
    <path d="M 62.57 303.64 
L 62.57 25.49625 
" style="fill: none; stroke: #ffffff; stroke-width: 0.8; stroke-linejoin: miter; stroke-linecap: square"/>
   </g>
   <g id="patch_4">
    <path d="M 450 303.64 
L 450 25.49625 
" style="fill: none; stroke: #ffffff; stroke-width: 0.8; stroke-linejoin: miter; stroke-linecap: square"/>
   </g>
   <g id="patch_5">
    <path d="M 62.57 303.64 
L 450 303.64 
" style="fill: none; stroke: #ffffff; stroke-width: 0.8; stroke-linejoin: miter; stroke-linecap: square"/>
   </g>
   <g id="patch_6">
    <path d="M 62.57 25.49625 
L 450 25.49625 
" style="fill: none; stroke: #ffffff; stroke-width: 0.8; stroke-linejoin: miter; stroke-linecap: square"/>
   </g>
   <g id="text_17">
    <!-- Elo ratings distributions -->
    <g style="fill: #262626" transform="translate(194.258125 19.49625) scale(0.12 -0.12)">
     <defs>
      <path id="ArialMT-64" d="M 2575 0 
L 2575 419 
Q 2259 -75 1647 -75 
Q 1250 -75 917 144 
Q 584 363 401 755 
Q 219 1147 219 1656 
Q 219 2153 384 2558 
Q 550 2963 881 3178 
Q 1213 3394 1622 3394 
Q 1922 3394 2156 3267 
Q 2391 3141 2538 2938 
L 2538 4581 
L 3097 4581 
L 3097 0 
L 2575 0 
z
M 797 1656 
Q 797 1019 1065 703 
Q 1334 388 1700 388 
Q 2069 388 2326 689 
Q 2584 991 2584 1609 
Q 2584 2291 2321 2609 
Q 2059 2928 1675 2928 
Q 1300 2928 1048 2622 
Q 797 2316 797 1656 
z
" transform="scale(0.015625)"/>
      <path id="ArialMT-62" d="M 941 0 
L 419 0 
L 419 4581 
L 981 4581 
L 981 2947 
Q 1338 3394 1891 3394 
Q 2197 3394 2470 3270 
Q 2744 3147 2920 2923 
Q 3097 2700 3197 2384 
Q 3297 2069 3297 1709 
Q 3297 856 2875 390 
Q 2453 -75 1863 -75 
Q 1275 -75 941 416 
L 941 0 
z
M 934 1684 
Q 934 1088 1097 822 
Q 1363 388 1816 388 
Q 2184 388 2453 708 
Q 2722 1028 2722 1663 
Q 2722 2313 2464 2622 
Q 2206 2931 1841 2931 
Q 1472 2931 1203 2611 
Q 934 2291 934 1684 
z
" transform="scale(0.015625)"/>
      <path id="ArialMT-75" d="M 2597 0 
L 2597 488 
Q 2209 -75 1544 -75 
Q 1250 -75 995 37 
Q 741 150 617 320 
Q 494 491 444 738 
Q 409 903 409 1263 
L 409 3319 
L 972 3319 
L 972 1478 
Q 972 1038 1006 884 
Q 1059 663 1231 536 
Q 1403 409 1656 409 
Q 1909 409 2131 539 
Q 2353 669 2445 892 
Q 2538 1116 2538 1541 
L 2538 3319 
L 3100 3319 
L 3100 0 
L 2597 0 
z
" transform="scale(0.015625)"/>
     </defs>
     <use xlink:href="#ArialMT-45"/>
     <use xlink:href="#ArialMT-6c" transform="translate(66.699219 0)"/>
     <use xlink:href="#ArialMT-6f" transform="translate(88.916016 0)"/>
     <use xlink:href="#ArialMT-20" transform="translate(144.53125 0)"/>
     <use xlink:href="#ArialMT-72" transform="translate(172.314453 0)"/>
     <use xlink:href="#ArialMT-61" transform="translate(205.615234 0)"/>
     <use xlink:href="#ArialMT-74" transform="translate(261.230469 0)"/>
     <use xlink:href="#ArialMT-69" transform="translate(289.013672 0)"/>
     <use xlink:href="#ArialMT-6e" transform="translate(311.230469 0)"/>
     <use xlink:href="#ArialMT-67" transform="translate(366.845703 0)"/>
     <use xlink:href="#ArialMT-73" transform="translate(422.460938 0)"/>
     <use xlink:href="#ArialMT-20" transform="translate(472.460938 0)"/>
     <use xlink:href="#ArialMT-64" transform="translate(500.244141 0)"/>
     <use xlink:href="#ArialMT-69" transform="translate(555.859375 0)"/>
     <use xlink:href="#ArialMT-73" transform="translate(578.076172 0)"/>
     <use xlink:href="#ArialMT-74" transform="translate(628.076172 0)"/>
     <use xlink:href="#ArialMT-72" transform="translate(655.859375 0)"/>
     <use xlink:href="#ArialMT-69" transform="translate(689.160156 0)"/>
     <use xlink:href="#ArialMT-62" transform="translate(711.376953 0)"/>
     <use xlink:href="#ArialMT-75" transform="translate(766.992188 0)"/>
     <use xlink:href="#ArialMT-74" transform="translate(822.607422 0)"/>
     <use xlink:href="#ArialMT-69" transform="translate(850.390625 0)"/>
     <use xlink:href="#ArialMT-6f" transform="translate(872.607422 0)"/>
     <use xlink:href="#ArialMT-6e" transform="translate(928.222656 0)"/>
     <use xlink:href="#ArialMT-73" transform="translate(983.837891 0)"/>
    </g>
   </g>
   <g id="legend_1">
    <g id="patch_7">
     <path d="M 271.815625 90.555625 
L 443 90.555625 
Q 445 90.555625 445 88.555625 
L 445 32.49625 
Q 445 30.49625 443 30.49625 
L 271.815625 30.49625 
Q 269.815625 30.49625 269.815625 32.49625 
L 269.815625 88.555625 
Q 269.815625 90.555625 271.815625 90.555625 
z
" style="fill: #eaeaf2; opacity: 0.8; stroke: #cccccc; stroke-linejoin: miter"/>
    </g>
    <g id="text_18">
     <!-- Game -->
     <g style="fill: #262626" transform="translate(343.792969 41.654063) scale(0.1 -0.1)">
      <defs>
       <path id="ArialMT-47" d="M 2638 1797 
L 2638 2334 
L 4578 2338 
L 4578 638 
Q 4131 281 3656 101 
Q 3181 -78 2681 -78 
Q 2006 -78 1454 211 
Q 903 500 622 1047 
Q 341 1594 341 2269 
Q 341 2938 620 3517 
Q 900 4097 1425 4378 
Q 1950 4659 2634 4659 
Q 3131 4659 3532 4498 
Q 3934 4338 4162 4050 
Q 4391 3763 4509 3300 
L 3963 3150 
Q 3859 3500 3706 3700 
Q 3553 3900 3268 4020 
Q 2984 4141 2638 4141 
Q 2222 4141 1919 4014 
Q 1616 3888 1430 3681 
Q 1244 3475 1141 3228 
Q 966 2803 966 2306 
Q 966 1694 1177 1281 
Q 1388 869 1791 669 
Q 2194 469 2647 469 
Q 3041 469 3416 620 
Q 3791 772 3984 944 
L 3984 1797 
L 2638 1797 
z
" transform="scale(0.015625)"/>
       <path id="ArialMT-6d" d="M 422 0 
L 422 3319 
L 925 3319 
L 925 2853 
Q 1081 3097 1340 3245 
Q 1600 3394 1931 3394 
Q 2300 3394 2536 3241 
Q 2772 3088 2869 2813 
Q 3263 3394 3894 3394 
Q 4388 3394 4653 3120 
Q 4919 2847 4919 2278 
L 4919 0 
L 4359 0 
L 4359 2091 
Q 4359 2428 4304 2576 
Q 4250 2725 4106 2815 
Q 3963 2906 3769 2906 
Q 3419 2906 3187 2673 
Q 2956 2441 2956 1928 
L 2956 0 
L 2394 0 
L 2394 2156 
Q 2394 2531 2256 2718 
Q 2119 2906 1806 2906 
Q 1569 2906 1367 2781 
Q 1166 2656 1075 2415 
Q 984 2175 984 1722 
L 984 0 
L 422 0 
z
" transform="scale(0.015625)"/>
      </defs>
      <use xlink:href="#ArialMT-47"/>
      <use xlink:href="#ArialMT-61" transform="translate(77.783203 0)"/>
      <use xlink:href="#ArialMT-6d" transform="translate(133.398438 0)"/>
      <use xlink:href="#ArialMT-65" transform="translate(216.699219 0)"/>
     </g>
    </g>
    <g id="line2d_18">
     <path d="M 273.815625 52.299375 
L 283.815625 52.299375 
L 293.815625 52.299375 
" style="fill: none; stroke: #8b0000; stroke-width: 1.5; stroke-linecap: round"/>
    </g>
    <g id="text_19">
     <!-- Snooker -->
     <g style="fill: #262626" transform="translate(301.815625 55.799375) scale(0.1 -0.1)">
      <defs>
       <path id="ArialMT-53" d="M 288 1472 
L 859 1522 
Q 900 1178 1048 958 
Q 1197 738 1509 602 
Q 1822 466 2213 466 
Q 2559 466 2825 569 
Q 3091 672 3220 851 
Q 3350 1031 3350 1244 
Q 3350 1459 3225 1620 
Q 3100 1781 2813 1891 
Q 2628 1963 1997 2114 
Q 1366 2266 1113 2400 
Q 784 2572 623 2826 
Q 463 3081 463 3397 
Q 463 3744 659 4045 
Q 856 4347 1234 4503 
Q 1613 4659 2075 4659 
Q 2584 4659 2973 4495 
Q 3363 4331 3572 4012 
Q 3781 3694 3797 3291 
L 3216 3247 
Q 3169 3681 2898 3903 
Q 2628 4125 2100 4125 
Q 1550 4125 1298 3923 
Q 1047 3722 1047 3438 
Q 1047 3191 1225 3031 
Q 1400 2872 2139 2705 
Q 2878 2538 3153 2413 
Q 3553 2228 3743 1945 
Q 3934 1663 3934 1294 
Q 3934 928 3725 604 
Q 3516 281 3123 101 
Q 2731 -78 2241 -78 
Q 1619 -78 1198 103 
Q 778 284 539 648 
Q 300 1013 288 1472 
z
" transform="scale(0.015625)"/>
       <path id="ArialMT-6b" d="M 425 0 
L 425 4581 
L 988 4581 
L 988 1969 
L 2319 3319 
L 3047 3319 
L 1778 2088 
L 3175 0 
L 2481 0 
L 1384 1697 
L 988 1316 
L 988 0 
L 425 0 
z
" transform="scale(0.015625)"/>
      </defs>
      <use xlink:href="#ArialMT-53"/>
      <use xlink:href="#ArialMT-6e" transform="translate(66.699219 0)"/>
      <use xlink:href="#ArialMT-6f" transform="translate(122.314453 0)"/>
      <use xlink:href="#ArialMT-6f" transform="translate(177.929688 0)"/>
      <use xlink:href="#ArialMT-6b" transform="translate(233.544922 0)"/>
      <use xlink:href="#ArialMT-65" transform="translate(283.544922 0)"/>
      <use xlink:href="#ArialMT-72" transform="translate(339.160156 0)"/>
     </g>
    </g>
    <g id="line2d_19">
     <path d="M 273.815625 66.566562 
L 283.815625 66.566562 
L 293.815625 66.566562 
" style="fill: none; stroke: #ff8c00; stroke-width: 1.5; stroke-linecap: round"/>
    </g>
    <g id="text_20">
     <!-- Tennis (WTA) -->
     <g style="fill: #262626" transform="translate(301.815625 70.066562) scale(0.1 -0.1)">
      <defs>
       <path id="ArialMT-54" d="M 1659 0 
L 1659 4041 
L 150 4041 
L 150 4581 
L 3781 4581 
L 3781 4041 
L 2266 4041 
L 2266 0 
L 1659 0 
z
" transform="scale(0.015625)"/>
       <path id="ArialMT-28" d="M 1497 -1347 
Q 1031 -759 709 28 
Q 388 816 388 1659 
Q 388 2403 628 3084 
Q 909 3875 1497 4659 
L 1900 4659 
Q 1522 4009 1400 3731 
Q 1209 3300 1100 2831 
Q 966 2247 966 1656 
Q 966 153 1900 -1347 
L 1497 -1347 
z
" transform="scale(0.015625)"/>
       <path id="ArialMT-57" d="M 1294 0 
L 78 4581 
L 700 4581 
L 1397 1578 
Q 1509 1106 1591 641 
Q 1766 1375 1797 1488 
L 2669 4581 
L 3400 4581 
L 4056 2263 
Q 4303 1400 4413 641 
Q 4500 1075 4641 1638 
L 5359 4581 
L 5969 4581 
L 4713 0 
L 4128 0 
L 3163 3491 
Q 3041 3928 3019 4028 
Q 2947 3713 2884 3491 
L 1913 0 
L 1294 0 
z
" transform="scale(0.015625)"/>
       <path id="ArialMT-41" d="M -9 0 
L 1750 4581 
L 2403 4581 
L 4278 0 
L 3588 0 
L 3053 1388 
L 1138 1388 
L 634 0 
L -9 0 
z
M 1313 1881 
L 2866 1881 
L 2388 3150 
Q 2169 3728 2063 4100 
Q 1975 3659 1816 3225 
L 1313 1881 
z
" transform="scale(0.015625)"/>
       <path id="ArialMT-29" d="M 791 -1347 
L 388 -1347 
Q 1322 153 1322 1656 
Q 1322 2244 1188 2822 
Q 1081 3291 891 3722 
Q 769 4003 388 4659 
L 791 4659 
Q 1378 3875 1659 3084 
Q 1900 2403 1900 1659 
Q 1900 816 1576 28 
Q 1253 -759 791 -1347 
z
" transform="scale(0.015625)"/>
      </defs>
      <use xlink:href="#ArialMT-54"/>
      <use xlink:href="#ArialMT-65" transform="translate(49.958984 0)"/>
      <use xlink:href="#ArialMT-6e" transform="translate(105.574219 0)"/>
      <use xlink:href="#ArialMT-6e" transform="translate(161.189453 0)"/>
      <use xlink:href="#ArialMT-69" transform="translate(216.804688 0)"/>
      <use xlink:href="#ArialMT-73" transform="translate(239.021484 0)"/>
      <use xlink:href="#ArialMT-20" transform="translate(289.021484 0)"/>
      <use xlink:href="#ArialMT-28" transform="translate(316.804688 0)"/>
      <use xlink:href="#ArialMT-57" transform="translate(350.105469 0)"/>
      <use xlink:href="#ArialMT-54" transform="translate(444.490234 0)"/>
      <use xlink:href="#ArialMT-41" transform="translate(498.199219 0)"/>
      <use xlink:href="#ArialMT-29" transform="translate(564.898438 0)"/>
     </g>
    </g>
    <g id="line2d_20">
     <path d="M 273.815625 80.950938 
L 283.815625 80.950938 
L 293.815625 80.950938 
" style="fill: none; stroke: #006400; stroke-width: 1.5; stroke-linecap: round"/>
    </g>
    <g id="text_21">
     <!-- Football (men's national teams) -->
     <g style="fill: #262626" transform="translate(301.815625 84.450938) scale(0.1 -0.1)">
      <defs>
       <path id="ArialMT-46" d="M 525 0 
L 525 4581 
L 3616 4581 
L 3616 4041 
L 1131 4041 
L 1131 2622 
L 3281 2622 
L 3281 2081 
L 1131 2081 
L 1131 0 
L 525 0 
z
" transform="scale(0.015625)"/>
       <path id="ArialMT-27" d="M 425 2959 
L 281 3816 
L 281 4581 
L 922 4581 
L 922 3816 
L 772 2959 
L 425 2959 
z
" transform="scale(0.015625)"/>
      </defs>
      <use xlink:href="#ArialMT-46"/>
      <use xlink:href="#ArialMT-6f" transform="translate(61.083984 0)"/>
      <use xlink:href="#ArialMT-6f" transform="translate(116.699219 0)"/>
      <use xlink:href="#ArialMT-74" transform="translate(172.314453 0)"/>
      <use xlink:href="#ArialMT-62" transform="translate(200.097656 0)"/>
      <use xlink:href="#ArialMT-61" transform="translate(255.712891 0)"/>
      <use xlink:href="#ArialMT-6c" transform="translate(311.328125 0)"/>
      <use xlink:href="#ArialMT-6c" transform="translate(333.544922 0)"/>
      <use xlink:href="#ArialMT-20" transform="translate(355.761719 0)"/>
      <use xlink:href="#ArialMT-28" transform="translate(383.544922 0)"/>
      <use xlink:href="#ArialMT-6d" transform="translate(416.845703 0)"/>
      <use xlink:href="#ArialMT-65" transform="translate(500.146484 0)"/>
      <use xlink:href="#ArialMT-6e" transform="translate(555.761719 0)"/>
      <use xlink:href="#ArialMT-27" transform="translate(611.376953 0)"/>
      <use xlink:href="#ArialMT-73" transform="translate(630.46875 0)"/>
      <use xlink:href="#ArialMT-20" transform="translate(680.46875 0)"/>
      <use xlink:href="#ArialMT-6e" transform="translate(708.251953 0)"/>
      <use xlink:href="#ArialMT-61" transform="translate(763.867188 0)"/>
      <use xlink:href="#ArialMT-74" transform="translate(819.482422 0)"/>
      <use xlink:href="#ArialMT-69" transform="translate(847.265625 0)"/>
      <use xlink:href="#ArialMT-6f" transform="translate(869.482422 0)"/>
      <use xlink:href="#ArialMT-6e" transform="translate(925.097656 0)"/>
      <use xlink:href="#ArialMT-61" transform="translate(980.712891 0)"/>
      <use xlink:href="#ArialMT-6c" transform="translate(1036.328125 0)"/>
      <use xlink:href="#ArialMT-20" transform="translate(1058.544922 0)"/>
      <use xlink:href="#ArialMT-74" transform="translate(1086.328125 0)"/>
      <use xlink:href="#ArialMT-65" transform="translate(1114.111328 0)"/>
      <use xlink:href="#ArialMT-61" transform="translate(1169.726562 0)"/>
      <use xlink:href="#ArialMT-6d" transform="translate(1225.341797 0)"/>
      <use xlink:href="#ArialMT-73" transform="translate(1308.642578 0)"/>
      <use xlink:href="#ArialMT-29" transform="translate(1358.642578 0)"/>
     </g>
    </g>
   </g>
  </g>
 </g>
 <defs>
  <clipPath id="pa2c7c3b41b">
   <rect x="62.57" y="25.49625" width="387.43" height="278.14375"/>
  </clipPath>
 </defs>
</svg>
