<?xml version="1.0" encoding="utf-8" standalone="no"?>
<!DOCTYPE svg PUBLIC "-//W3C//DTD SVG 1.1//EN"
  "http://www.w3.org/Graphics/SVG/1.1/DTD/svg11.dtd">
<svg xmlns:xlink="http://www.w3.org/1999/xlink" width="460.8pt" height="345.6pt" viewBox="0 0 460.8 345.6" xmlns="http://www.w3.org/2000/svg" version="1.1">
 <metadata>
  <rdf:RDF xmlns:dc="http://purl.org/dc/elements/1.1/" xmlns:cc="http://creativecommons.org/ns#" xmlns:rdf="http://www.w3.org/1999/02/22-rdf-syntax-ns#">
   <cc:Work>
    <dc:type rdf:resource="http://purl.org/dc/dcmitype/StillImage"/>
    <dc:date>2025-11-12T14:57:30.682682</dc:date>
    <dc:format>image/svg+xml</dc:format>
    <dc:creator>
     <cc:Agent>
      <dc:title>Matplotlib v3.10.7, https://matplotlib.org/</dc:title>
     </cc:Agent>
    </dc:creator>
   </cc:Work>
  </rdf:RDF>
 </metadata>
 <defs>
  <style type="text/css">*{stroke-linejoin: round; stroke-linecap: butt}</style>
 </defs>
 <g id="figure_1">
  <g id="patch_1">
   <path d="M 0 345.6 
L 460.8 345.6 
L 460.8 0 
L 0 0 
z
" style="fill: #ffffff"/>
  </g>
  <g id="axes_1">
   <g id="patch_2">
    <path d="M 48.53 317.72 
L 450 317.72 
L 450 25.49625 
L 48.53 25.49625 
z
" style="fill: #eaeaf2"/>
   </g>
   <g id="matplotlib.axis_1">
    <g id="xtick_1">
     <g id="line2d_1">
      <path d="M 66.778636 317.72 
L 66.778636 25.49625 
" clip-path="url(#p7581c463c4)" style="fill: none; stroke: #ffffff; stroke-width: 0.8; stroke-linecap: round"/>
     </g>
     <g id="text_1">
      <!-- 2020 -->
      <g style="fill: #262626" transform="translate(55.656761 331.877812) scale(0.1 -0.1)">
       <defs>
        <path id="ArialMT-32" d="M 3222 541 
L 3222 0 
L 194 0 
Q 188 203 259 391 
Q 375 700 629 1000 
Q 884 1300 1366 1694 
Q 2113 2306 2375 2664 
Q 2638 3022 2638 3341 
Q 2638 3675 2398 3904 
Q 2159 4134 1775 4134 
Q 1369 4134 1125 3890 
Q 881 3647 878 3216 
L 300 3275 
Q 359 3922 746 4261 
Q 1134 4600 1788 4600 
Q 2447 4600 2831 4234 
Q 3216 3869 3216 3328 
Q 3216 3053 3103 2787 
Q 2991 2522 2730 2228 
Q 2469 1934 1863 1422 
Q 1356 997 1212 845 
Q 1069 694 975 541 
L 3222 541 
z
" transform="scale(0.015625)"/>
        <path id="ArialMT-30" d="M 266 2259 
Q 266 3072 433 3567 
Q 600 4063 929 4331 
Q 1259 4600 1759 4600 
Q 2128 4600 2406 4451 
Q 2684 4303 2865 4023 
Q 3047 3744 3150 3342 
Q 3253 2941 3253 2259 
Q 3253 1453 3087 958 
Q 2922 463 2592 192 
Q 2263 -78 1759 -78 
Q 1097 -78 719 397 
Q 266 969 266 2259 
z
M 844 2259 
Q 844 1131 1108 757 
Q 1372 384 1759 384 
Q 2147 384 2411 759 
Q 2675 1134 2675 2259 
Q 2675 3391 2411 3762 
Q 2147 4134 1753 4134 
Q 1366 4134 1134 3806 
Q 844 3388 844 2259 
z
" transform="scale(0.015625)"/>
       </defs>
       <use xlink:href="#ArialMT-32"/>
       <use xlink:href="#ArialMT-30" transform="translate(55.615234 0)"/>
       <use xlink:href="#ArialMT-32" transform="translate(111.230469 0)"/>
       <use xlink:href="#ArialMT-30" transform="translate(166.845703 0)"/>
      </g>
     </g>
    </g>
    <g id="xtick_2">
     <g id="line2d_2">
      <path d="M 135.386761 317.72 
L 135.386761 25.49625 
" clip-path="url(#p7581c463c4)" style="fill: none; stroke: #ffffff; stroke-width: 0.8; stroke-linecap: round"/>
     </g>
     <g id="text_2">
      <!-- 2021 -->
      <g style="fill: #262626" transform="translate(124.264886 331.877812) scale(0.1 -0.1)">
       <defs>
        <path id="ArialMT-31" d="M 2384 0 
L 1822 0 
L 1822 3584 
Q 1619 3391 1289 3197 
Q 959 3003 697 2906 
L 697 3450 
Q 1169 3672 1522 3987 
Q 1875 4303 2022 4600 
L 2384 4600 
L 2384 0 
z
" transform="scale(0.015625)"/>
       </defs>
       <use xlink:href="#ArialMT-32"/>
       <use xlink:href="#ArialMT-30" transform="translate(55.615234 0)"/>
       <use xlink:href="#ArialMT-32" transform="translate(111.230469 0)"/>
       <use xlink:href="#ArialMT-31" transform="translate(166.845703 0)"/>
      </g>
     </g>
    </g>
    <g id="xtick_3">
     <g id="line2d_3">
      <path d="M 203.807431 317.72 
L 203.807431 25.49625 
" clip-path="url(#p7581c463c4)" style="fill: none; stroke: #ffffff; stroke-width: 0.8; stroke-linecap: round"/>
     </g>
     <g id="text_3">
      <!-- 2022 -->
      <g style="fill: #262626" transform="translate(192.685556 331.877812) scale(0.1 -0.1)">
       <use xlink:href="#ArialMT-32"/>
       <use xlink:href="#ArialMT-30" transform="translate(55.615234 0)"/>
       <use xlink:href="#ArialMT-32" transform="translate(111.230469 0)"/>
       <use xlink:href="#ArialMT-32" transform="translate(166.845703 0)"/>
      </g>
     </g>
    </g>
    <g id="xtick_4">
     <g id="line2d_4">
      <path d="M 272.228102 317.72 
L 272.228102 25.49625 
" clip-path="url(#p7581c463c4)" style="fill: none; stroke: #ffffff; stroke-width: 0.8; stroke-linecap: round"/>
     </g>
     <g id="text_4">
      <!-- 2023 -->
      <g style="fill: #262626" transform="translate(261.106227 331.877812) scale(0.1 -0.1)">
       <defs>
        <path id="ArialMT-33" d="M 269 1209 
L 831 1284 
Q 928 806 1161 595 
Q 1394 384 1728 384 
Q 2125 384 2398 659 
Q 2672 934 2672 1341 
Q 2672 1728 2419 1979 
Q 2166 2231 1775 2231 
Q 1616 2231 1378 2169 
L 1441 2663 
Q 1497 2656 1531 2656 
Q 1891 2656 2178 2843 
Q 2466 3031 2466 3422 
Q 2466 3731 2256 3934 
Q 2047 4138 1716 4138 
Q 1388 4138 1169 3931 
Q 950 3725 888 3313 
L 325 3413 
Q 428 3978 793 4289 
Q 1159 4600 1703 4600 
Q 2078 4600 2393 4439 
Q 2709 4278 2876 4000 
Q 3044 3722 3044 3409 
Q 3044 3113 2884 2869 
Q 2725 2625 2413 2481 
Q 2819 2388 3044 2092 
Q 3269 1797 3269 1353 
Q 3269 753 2831 336 
Q 2394 -81 1725 -81 
Q 1122 -81 723 278 
Q 325 638 269 1209 
z
" transform="scale(0.015625)"/>
       </defs>
       <use xlink:href="#ArialMT-32"/>
       <use xlink:href="#ArialMT-30" transform="translate(55.615234 0)"/>
       <use xlink:href="#ArialMT-32" transform="translate(111.230469 0)"/>
       <use xlink:href="#ArialMT-33" transform="translate(166.845703 0)"/>
      </g>
     </g>
    </g>
    <g id="xtick_5">
     <g id="line2d_5">
      <path d="M 340.648772 317.72 
L 340.648772 25.49625 
" clip-path="url(#p7581c463c4)" style="fill: none; stroke: #ffffff; stroke-width: 0.8; stroke-linecap: round"/>
     </g>
     <g id="text_5">
      <!-- 2024 -->
      <g style="fill: #262626" transform="translate(329.526897 331.877812) scale(0.1 -0.1)">
       <defs>
        <path id="ArialMT-34" d="M 2069 0 
L 2069 1097 
L 81 1097 
L 81 1613 
L 2172 4581 
L 2631 4581 
L 2631 1613 
L 3250 1613 
L 3250 1097 
L 2631 1097 
L 2631 0 
L 2069 0 
z
M 2069 1613 
L 2069 3678 
L 634 1613 
L 2069 1613 
z
" transform="scale(0.015625)"/>
       </defs>
       <use xlink:href="#ArialMT-32"/>
       <use xlink:href="#ArialMT-30" transform="translate(55.615234 0)"/>
       <use xlink:href="#ArialMT-32" transform="translate(111.230469 0)"/>
       <use xlink:href="#ArialMT-34" transform="translate(166.845703 0)"/>
      </g>
     </g>
    </g>
    <g id="xtick_6">
     <g id="line2d_6">
      <path d="M 409.256897 317.72 
L 409.256897 25.49625 
" clip-path="url(#p7581c463c4)" style="fill: none; stroke: #ffffff; stroke-width: 0.8; stroke-linecap: round"/>
     </g>
     <g id="text_6">
      <!-- 2025 -->
      <g style="fill: #262626" transform="translate(398.135022 331.877812) scale(0.1 -0.1)">
       <defs>
        <path id="ArialMT-35" d="M 266 1200 
L 856 1250 
Q 922 819 1161 601 
Q 1400 384 1738 384 
Q 2144 384 2425 690 
Q 2706 997 2706 1503 
Q 2706 1984 2436 2262 
Q 2166 2541 1728 2541 
Q 1456 2541 1237 2417 
Q 1019 2294 894 2097 
L 366 2166 
L 809 4519 
L 3088 4519 
L 3088 3981 
L 1259 3981 
L 1013 2750 
Q 1425 3038 1878 3038 
Q 2478 3038 2890 2622 
Q 3303 2206 3303 1553 
Q 3303 931 2941 478 
Q 2500 -78 1738 -78 
Q 1113 -78 717 272 
Q 322 622 266 1200 
z
" transform="scale(0.015625)"/>
       </defs>
       <use xlink:href="#ArialMT-32"/>
       <use xlink:href="#ArialMT-30" transform="translate(55.615234 0)"/>
       <use xlink:href="#ArialMT-32" transform="translate(111.230469 0)"/>
       <use xlink:href="#ArialMT-35" transform="translate(166.845703 0)"/>
      </g>
     </g>
    </g>
   </g>
   <g id="matplotlib.axis_2">
    <g id="ytick_1">
     <g id="line2d_7">
      <path d="M 48.53 274.865458 
L 450 274.865458 
" clip-path="url(#p7581c463c4)" style="fill: none; stroke: #ffffff; stroke-width: 0.8; stroke-linecap: round"/>
     </g>
     <g id="text_7">
      <!-- 400 -->
      <g style="fill: #262626" transform="translate(24.847188 278.444364) scale(0.1 -0.1)">
       <use xlink:href="#ArialMT-34"/>
       <use xlink:href="#ArialMT-30" transform="translate(55.615234 0)"/>
       <use xlink:href="#ArialMT-30" transform="translate(111.230469 0)"/>
      </g>
     </g>
    </g>
    <g id="ytick_2">
     <g id="line2d_8">
      <path d="M 48.53 220.857718 
L 450 220.857718 
" clip-path="url(#p7581c463c4)" style="fill: none; stroke: #ffffff; stroke-width: 0.8; stroke-linecap: round"/>
     </g>
     <g id="text_8">
      <!-- 500 -->
      <g style="fill: #262626" transform="translate(24.847188 224.436624) scale(0.1 -0.1)">
       <use xlink:href="#ArialMT-35"/>
       <use xlink:href="#ArialMT-30" transform="translate(55.615234 0)"/>
       <use xlink:href="#ArialMT-30" transform="translate(111.230469 0)"/>
      </g>
     </g>
    </g>
    <g id="ytick_3">
     <g id="line2d_9">
      <path d="M 48.53 166.849978 
L 450 166.849978 
" clip-path="url(#p7581c463c4)" style="fill: none; stroke: #ffffff; stroke-width: 0.8; stroke-linecap: round"/>
     </g>
     <g id="text_9">
      <!-- 600 -->
      <g style="fill: #262626" transform="translate(24.847188 170.428884) scale(0.1 -0.1)">
       <defs>
        <path id="ArialMT-36" d="M 3184 3459 
L 2625 3416 
Q 2550 3747 2413 3897 
Q 2184 4138 1850 4138 
Q 1581 4138 1378 3988 
Q 1113 3794 959 3422 
Q 806 3050 800 2363 
Q 1003 2672 1297 2822 
Q 1591 2972 1913 2972 
Q 2475 2972 2870 2558 
Q 3266 2144 3266 1488 
Q 3266 1056 3080 686 
Q 2894 316 2569 119 
Q 2244 -78 1831 -78 
Q 1128 -78 684 439 
Q 241 956 241 2144 
Q 241 3472 731 4075 
Q 1159 4600 1884 4600 
Q 2425 4600 2770 4297 
Q 3116 3994 3184 3459 
z
M 888 1484 
Q 888 1194 1011 928 
Q 1134 663 1356 523 
Q 1578 384 1822 384 
Q 2178 384 2434 671 
Q 2691 959 2691 1453 
Q 2691 1928 2437 2201 
Q 2184 2475 1800 2475 
Q 1419 2475 1153 2201 
Q 888 1928 888 1484 
z
" transform="scale(0.015625)"/>
       </defs>
       <use xlink:href="#ArialMT-36"/>
       <use xlink:href="#ArialMT-30" transform="translate(55.615234 0)"/>
       <use xlink:href="#ArialMT-30" transform="translate(111.230469 0)"/>
      </g>
     </g>
    </g>
    <g id="ytick_4">
     <g id="line2d_10">
      <path d="M 48.53 112.842238 
L 450 112.842238 
" clip-path="url(#p7581c463c4)" style="fill: none; stroke: #ffffff; stroke-width: 0.8; stroke-linecap: round"/>
     </g>
     <g id="text_10">
      <!-- 700 -->
      <g style="fill: #262626" transform="translate(24.847188 116.421144) scale(0.1 -0.1)">
       <defs>
        <path id="ArialMT-37" d="M 303 3981 
L 303 4522 
L 3269 4522 
L 3269 4084 
Q 2831 3619 2401 2847 
Q 1972 2075 1738 1259 
Q 1569 684 1522 0 
L 944 0 
Q 953 541 1156 1306 
Q 1359 2072 1739 2783 
Q 2119 3494 2547 3981 
L 303 3981 
z
" transform="scale(0.015625)"/>
       </defs>
       <use xlink:href="#ArialMT-37"/>
       <use xlink:href="#ArialMT-30" transform="translate(55.615234 0)"/>
       <use xlink:href="#ArialMT-30" transform="translate(111.230469 0)"/>
      </g>
     </g>
    </g>
    <g id="ytick_5">
     <g id="line2d_11">
      <path d="M 48.53 58.834498 
L 450 58.834498 
" clip-path="url(#p7581c463c4)" style="fill: none; stroke: #ffffff; stroke-width: 0.8; stroke-linecap: round"/>
     </g>
     <g id="text_11">
      <!-- 800 -->
      <g style="fill: #262626" transform="translate(24.847188 62.413404) scale(0.1 -0.1)">
       <defs>
        <path id="ArialMT-38" d="M 1131 2484 
Q 781 2613 612 2850 
Q 444 3088 444 3419 
Q 444 3919 803 4259 
Q 1163 4600 1759 4600 
Q 2359 4600 2725 4251 
Q 3091 3903 3091 3403 
Q 3091 3084 2923 2848 
Q 2756 2613 2416 2484 
Q 2838 2347 3058 2040 
Q 3278 1734 3278 1309 
Q 3278 722 2862 322 
Q 2447 -78 1769 -78 
Q 1091 -78 675 323 
Q 259 725 259 1325 
Q 259 1772 486 2073 
Q 713 2375 1131 2484 
z
M 1019 3438 
Q 1019 3113 1228 2906 
Q 1438 2700 1772 2700 
Q 2097 2700 2305 2904 
Q 2513 3109 2513 3406 
Q 2513 3716 2298 3927 
Q 2084 4138 1766 4138 
Q 1444 4138 1231 3931 
Q 1019 3725 1019 3438 
z
M 838 1322 
Q 838 1081 952 856 
Q 1066 631 1291 507 
Q 1516 384 1775 384 
Q 2178 384 2440 643 
Q 2703 903 2703 1303 
Q 2703 1709 2433 1975 
Q 2163 2241 1756 2241 
Q 1359 2241 1098 1978 
Q 838 1716 838 1322 
z
" transform="scale(0.015625)"/>
       </defs>
       <use xlink:href="#ArialMT-38"/>
       <use xlink:href="#ArialMT-30" transform="translate(55.615234 0)"/>
       <use xlink:href="#ArialMT-30" transform="translate(111.230469 0)"/>
      </g>
     </g>
    </g>
    <g id="text_12">
     <!-- Elo -->
     <g style="fill: #262626" transform="translate(18.859688 178.834687) rotate(-90) scale(0.1 -0.1)">
      <defs>
       <path id="ArialMT-45" d="M 506 0 
L 506 4581 
L 3819 4581 
L 3819 4041 
L 1113 4041 
L 1113 2638 
L 3647 2638 
L 3647 2100 
L 1113 2100 
L 1113 541 
L 3925 541 
L 3925 0 
L 506 0 
z
" transform="scale(0.015625)"/>
       <path id="ArialMT-6c" d="M 409 0 
L 409 4581 
L 972 4581 
L 972 0 
L 409 0 
z
" transform="scale(0.015625)"/>
       <path id="ArialMT-6f" d="M 213 1659 
Q 213 2581 725 3025 
Q 1153 3394 1769 3394 
Q 2453 3394 2887 2945 
Q 3322 2497 3322 1706 
Q 3322 1066 3130 698 
Q 2938 331 2570 128 
Q 2203 -75 1769 -75 
Q 1072 -75 642 372 
Q 213 819 213 1659 
z
M 791 1659 
Q 791 1022 1069 705 
Q 1347 388 1769 388 
Q 2188 388 2466 706 
Q 2744 1025 2744 1678 
Q 2744 2294 2464 2611 
Q 2184 2928 1769 2928 
Q 1347 2928 1069 2612 
Q 791 2297 791 1659 
z
" transform="scale(0.015625)"/>
      </defs>
      <use xlink:href="#ArialMT-45"/>
      <use xlink:href="#ArialMT-6c" transform="translate(66.699219 0)"/>
      <use xlink:href="#ArialMT-6f" transform="translate(88.916016 0)"/>
     </g>
    </g>
   </g>
   <g id="line2d_12">
    <path d="M 66.778636 109.093412 
L 72.589707 109.093412 
L 72.589707 117.716537 
L 78.02587 117.716537 
L 78.02587 100.193603 
L 83.836941 100.193603 
L 83.836941 60.180075 
L 100.895245 60.180075 
L 100.895245 88.143291 
L 106.706315 88.143291 
L 106.706315 83.89702 
L 112.517386 83.89702 
L 112.517386 94.892547 
L 118.141003 94.892547 
L 118.141003 95.961423 
L 123.952073 95.961423 
L 123.952073 86.944816 
L 129.57569 86.944816 
L 129.57569 61.454291 
L 135.386761 61.454291 
L 135.386761 55.019454 
L 141.197831 55.019454 
L 141.197831 38.779148 
L 146.44654 38.779148 
L 146.44654 91.152593 
L 152.257611 91.152593 
L 152.257611 126.416394 
L 157.881228 126.416394 
L 157.881228 174.522137 
L 163.692298 174.522137 
L 163.692298 174.522137 
L 169.315915 174.522137 
L 169.315915 174.522137 
L 175.126986 174.522137 
L 175.126986 174.522137 
L 180.938056 174.522137 
L 180.938056 177.82992 
L 186.561673 177.82992 
L 186.561673 167.551512 
L 192.372744 167.551512 
L 192.372744 155.460053 
L 197.996361 155.460053 
L 197.996361 138.931422 
L 203.807431 138.931422 
L 203.807431 158.327622 
L 209.618502 158.327622 
L 209.618502 189.94603 
L 214.867211 189.94603 
L 214.867211 207.131425 
L 220.678282 207.131425 
L 220.678282 158.389924 
L 226.301898 158.389924 
L 226.301898 128.757201 
L 232.112969 128.757201 
L 232.112969 141.099076 
L 237.736586 141.099076 
L 237.736586 141.099076 
L 243.547656 141.099076 
L 243.547656 133.761746 
L 249.358727 133.761746 
L 249.358727 138.166412 
L 254.982344 138.166412 
L 254.982344 151.385405 
L 260.793414 151.385405 
L 260.793414 177.687612 
L 266.417031 177.687612 
L 266.417031 172.9447 
L 272.228102 172.9447 
L 272.228102 179.174564 
L 278.039172 179.174564 
L 278.039172 108.855474 
L 283.287881 108.855474 
L 283.287881 141.070538 
L 289.098952 141.070538 
L 289.098952 142.490979 
L 294.722569 142.490979 
L 294.722569 159.262885 
L 300.533639 159.262885 
L 300.533639 159.262885 
L 306.157256 159.262885 
L 306.157256 159.262885 
L 311.968327 159.262885 
L 311.968327 146.162676 
L 317.779397 146.162676 
L 317.779397 129.161345 
L 323.403014 129.161345 
L 323.403014 151.989185 
L 329.214085 151.989185 
L 329.214085 58.279666 
L 334.837702 58.279666 
L 334.837702 75.005898 
L 340.648772 75.005898 
L 340.648772 109.731754 
L 346.459843 109.731754 
L 346.459843 98.286948 
L 351.896006 98.286948 
L 351.896006 89.051018 
L 357.707076 89.051018 
L 357.707076 77.027831 
L 363.330693 77.027831 
L 363.330693 102.735712 
L 369.141764 102.735712 
L 369.141764 121.871714 
L 374.765381 121.871714 
L 374.765381 121.871714 
L 380.576451 121.871714 
L 380.576451 86.921506 
L 386.387522 86.921506 
L 386.387522 78.039442 
L 392.011139 78.039442 
L 392.011139 72.870268 
L 397.822209 72.870268 
L 397.822209 67.199403 
L 403.445826 67.199403 
L 403.445826 62.829523 
L 409.256897 62.829523 
L 409.256897 91.089613 
L 415.067967 91.089613 
L 415.067967 118.184899 
L 420.316676 118.184899 
L 420.316676 96.744306 
L 426.127747 96.744306 
L 426.127747 93.184914 
L 431.751364 93.184914 
L 431.751364 107.821014 
" clip-path="url(#p7581c463c4)" style="fill: none; stroke-dasharray: 5.55,2.4; stroke-dashoffset: 0; stroke: #dc143c; stroke-width: 1.5"/>
   </g>
   <g id="line2d_13">
    <path d="M 66.778636 110.196538 
L 72.589707 110.196538 
L 72.589707 110.196538 
L 78.02587 110.196538 
L 78.02587 133.912965 
L 83.836941 133.912965 
L 83.836941 133.912965 
L 100.895245 133.912965 
L 100.895245 140.746454 
L 106.706315 140.746454 
L 106.706315 140.746454 
L 112.517386 140.746454 
L 112.517386 102.700062 
L 118.141003 102.700062 
L 118.141003 122.678752 
L 123.952073 122.678752 
L 123.952073 136.902144 
L 129.57569 136.902144 
L 129.57569 144.396508 
L 135.386761 144.396508 
L 135.386761 117.351521 
L 141.197831 117.351521 
L 141.197831 123.646416 
L 146.44654 123.646416 
L 146.44654 124.249592 
L 152.257611 124.249592 
L 152.257611 199.172643 
L 157.881228 199.172643 
L 157.881228 208.091651 
L 163.692298 208.091651 
L 163.692298 208.091651 
L 169.315915 208.091651 
L 169.315915 208.091651 
L 175.126986 208.091651 
L 175.126986 200.537741 
L 180.938056 200.537741 
L 180.938056 192.876451 
L 186.561673 192.876451 
L 186.561673 183.986188 
L 192.372744 183.986188 
L 192.372744 201.820675 
L 197.996361 201.820675 
L 197.996361 167.777951 
L 203.807431 167.777951 
L 203.807431 124.105676 
L 209.618502 124.105676 
L 209.618502 133.864913 
L 214.867211 133.864913 
L 214.867211 164.023678 
L 220.678282 164.023678 
L 220.678282 172.876323 
L 226.301898 172.876323 
L 226.301898 145.255146 
L 232.112969 145.255146 
L 232.112969 132.913271 
L 237.736586 132.913271 
L 237.736586 132.913271 
L 243.547656 132.913271 
L 243.547656 127.980777 
L 249.358727 127.980777 
L 249.358727 145.650375 
L 254.982344 145.650375 
L 254.982344 145.650375 
L 260.793414 145.650375 
L 260.793414 143.447632 
L 266.417031 143.447632 
L 266.417031 133.586195 
L 272.228102 133.586195 
L 272.228102 151.358705 
L 278.039172 151.358705 
L 278.039172 165.675591 
L 283.287881 165.675591 
L 283.287881 173.1301 
L 289.098952 173.1301 
L 289.098952 190.064232 
L 294.722569 190.064232 
L 294.722569 183.244188 
L 300.533639 183.244188 
L 300.533639 183.244188 
L 306.157256 183.244188 
L 306.157256 183.244188 
L 311.968327 183.244188 
L 311.968327 202.151126 
L 317.779397 202.151126 
L 317.779397 202.151126 
L 323.403014 202.151126 
L 323.403014 142.858429 
L 329.214085 142.858429 
L 329.214085 148.979193 
L 334.837702 148.979193 
L 334.837702 144.869711 
L 340.648772 144.869711 
L 340.648772 138.316945 
L 346.459843 138.316945 
L 346.459843 71.191136 
L 351.896006 71.191136 
L 351.896006 188.917386 
L 357.707076 188.917386 
L 357.707076 154.359322 
L 363.330693 154.359322 
L 363.330693 151.502663 
L 369.141764 151.502663 
L 369.141764 151.502663 
L 374.765381 151.502663 
L 374.765381 169.114943 
L 380.576451 169.114943 
L 380.576451 162.068602 
L 386.387522 162.068602 
L 386.387522 146.948481 
L 392.011139 146.948481 
L 392.011139 169.239386 
L 397.822209 169.239386 
L 397.822209 182.472921 
L 403.445826 182.472921 
L 403.445826 206.089092 
L 409.256897 206.089092 
L 409.256897 217.388456 
L 415.067967 217.388456 
L 415.067967 290.683088 
L 420.316676 290.683088 
L 420.316676 304.437102 
L 426.127747 304.437102 
" clip-path="url(#p7581c463c4)" style="fill: none; stroke-dasharray: 9.6,2.4,1.5,2.4; stroke-dashoffset: 0; stroke: #800080; stroke-width: 1.5"/>
   </g>
   <g id="line2d_14">
    <path d="M 66.778636 142.746207 
L 72.589707 142.746207 
L 72.589707 188.336436 
L 78.02587 188.336436 
L 78.02587 172.675444 
L 83.836941 172.675444 
L 83.836941 186.08154 
L 100.895245 186.08154 
L 100.895245 191.360751 
L 106.706315 191.360751 
L 106.706315 191.360751 
L 112.517386 191.360751 
L 112.517386 200.646561 
L 118.141003 200.646561 
L 118.141003 214.96609 
L 123.952073 214.96609 
L 123.952073 180.069578 
L 129.57569 180.069578 
L 129.57569 174.442275 
L 135.386761 174.442275 
L 135.386761 208.380197 
L 141.197831 208.380197 
L 141.197831 168.740804 
L 146.44654 168.740804 
L 146.44654 129.383542 
L 152.257611 129.383542 
L 152.257611 145.583015 
L 157.881228 145.583015 
L 157.881228 145.48562 
L 163.692298 145.48562 
L 163.692298 145.48562 
L 169.315915 145.48562 
L 169.315915 145.48562 
L 175.126986 145.48562 
L 175.126986 159.832591 
L 180.938056 159.832591 
L 180.938056 158.095349 
L 186.561673 158.095349 
L 186.561673 153.394785 
L 192.372744 153.394785 
L 192.372744 145.598176 
L 197.996361 145.598176 
L 197.996361 129.443187 
L 203.807431 129.443187 
L 203.807431 131.517505 
L 209.618502 131.517505 
L 209.618502 136.656784 
L 214.867211 136.656784 
L 214.867211 127.908163 
L 220.678282 127.908163 
L 220.678282 156.684028 
L 226.301898 156.684028 
L 226.301898 152.367117 
L 232.112969 152.367117 
L 232.112969 152.367117 
L 237.736586 152.367117 
L 237.736586 152.367117 
L 243.547656 152.367117 
L 243.547656 169.910948 
L 249.358727 169.910948 
L 249.358727 163.498451 
L 254.982344 163.498451 
L 254.982344 180.765511 
L 260.793414 180.765511 
L 260.793414 190.240748 
L 266.417031 190.240748 
L 266.417031 206.677861 
L 272.228102 206.677861 
L 272.228102 214.031323 
L 278.039172 214.031323 
L 278.039172 183.117318 
L 283.287881 183.117318 
L 283.287881 185.226452 
L 289.098952 185.226452 
L 289.098952 137.873895 
L 294.722569 137.873895 
L 294.722569 137.141265 
L 300.533639 137.141265 
L 300.533639 137.141265 
L 306.157256 137.141265 
L 306.157256 137.141265 
L 311.968327 137.141265 
L 311.968327 133.646294 
L 317.779397 133.646294 
L 317.779397 117.264317 
L 323.403014 117.264317 
L 323.403014 139.861541 
L 329.214085 139.861541 
L 329.214085 152.329653 
L 334.837702 152.329653 
L 334.837702 170.650034 
L 340.648772 170.650034 
L 340.648772 143.649461 
L 346.459843 143.649461 
L 346.459843 155.46859 
L 351.896006 155.46859 
L 351.896006 153.217531 
L 357.707076 153.217531 
L 357.707076 171.702028 
L 363.330693 171.702028 
L 363.330693 173.8107 
L 369.141764 173.8107 
L 369.141764 173.8107 
L 374.765381 173.8107 
L 374.765381 189.249487 
L 380.576451 189.249487 
L 380.576451 185.233962 
L 386.387522 185.233962 
L 386.387522 198.642341 
L 392.011139 198.642341 
L 392.011139 165.575832 
L 397.822209 165.575832 
L 397.822209 167.013212 
L 403.445826 167.013212 
L 403.445826 161.677876 
L 409.256897 161.677876 
L 409.256897 164.067126 
L 415.067967 164.067126 
L 415.067967 188.231144 
L 420.316676 188.231144 
L 420.316676 141.906547 
L 426.127747 141.906547 
L 426.127747 122.31477 
L 431.751364 122.31477 
L 431.751364 91.751893 
" clip-path="url(#p7581c463c4)" style="fill: none; stroke-dasharray: 1.5,2.475; stroke-dashoffset: 0; stroke: #00008b; stroke-width: 1.5"/>
   </g>
   <g id="patch_3">
    <path d="M 48.53 317.72 
L 48.53 25.49625 
" style="fill: none; stroke: #ffffff; stroke-width: 0.8; stroke-linejoin: miter; stroke-linecap: square"/>
   </g>
   <g id="patch_4">
    <path d="M 450 317.72 
L 450 25.49625 
" style="fill: none; stroke: #ffffff; stroke-width: 0.8; stroke-linejoin: miter; stroke-linecap: square"/>
   </g>
   <g id="patch_5">
    <path d="M 48.53 317.72 
L 450 317.72 
" style="fill: none; stroke: #ffffff; stroke-width: 0.8; stroke-linejoin: miter; stroke-linecap: square"/>
   </g>
   <g id="patch_6">
    <path d="M 48.53 25.49625 
L 450 25.49625 
" style="fill: none; stroke: #ffffff; stroke-width: 0.8; stroke-linejoin: miter; stroke-linecap: square"/>
   </g>
   <g id="text_13">
    <!-- Highest rated players 2020–2025 -->
    <g style="fill: #262626" transform="translate(160.8775 19.49625) scale(0.12 -0.12)">
     <defs>
      <path id="ArialMT-48" d="M 513 0 
L 513 4581 
L 1119 4581 
L 1119 2700 
L 3500 2700 
L 3500 4581 
L 4106 4581 
L 4106 0 
L 3500 0 
L 3500 2159 
L 1119 2159 
L 1119 0 
L 513 0 
z
" transform="scale(0.015625)"/>
      <path id="ArialMT-69" d="M 425 3934 
L 425 4581 
L 988 4581 
L 988 3934 
L 425 3934 
z
M 425 0 
L 425 3319 
L 988 3319 
L 988 0 
L 425 0 
z
" transform="scale(0.015625)"/>
      <path id="ArialMT-67" d="M 319 -275 
L 866 -356 
Q 900 -609 1056 -725 
Q 1266 -881 1628 -881 
Q 2019 -881 2231 -725 
Q 2444 -569 2519 -288 
Q 2563 -116 2559 434 
Q 2191 0 1641 0 
Q 956 0 581 494 
Q 206 988 206 1678 
Q 206 2153 378 2554 
Q 550 2956 876 3175 
Q 1203 3394 1644 3394 
Q 2231 3394 2613 2919 
L 2613 3319 
L 3131 3319 
L 3131 450 
Q 3131 -325 2973 -648 
Q 2816 -972 2473 -1159 
Q 2131 -1347 1631 -1347 
Q 1038 -1347 672 -1080 
Q 306 -813 319 -275 
z
M 784 1719 
Q 784 1066 1043 766 
Q 1303 466 1694 466 
Q 2081 466 2343 764 
Q 2606 1063 2606 1700 
Q 2606 2309 2336 2618 
Q 2066 2928 1684 2928 
Q 1309 2928 1046 2623 
Q 784 2319 784 1719 
z
" transform="scale(0.015625)"/>
      <path id="ArialMT-68" d="M 422 0 
L 422 4581 
L 984 4581 
L 984 2938 
Q 1378 3394 1978 3394 
Q 2347 3394 2619 3248 
Q 2891 3103 3008 2847 
Q 3125 2591 3125 2103 
L 3125 0 
L 2563 0 
L 2563 2103 
Q 2563 2525 2380 2717 
Q 2197 2909 1863 2909 
Q 1613 2909 1392 2779 
Q 1172 2650 1078 2428 
Q 984 2206 984 1816 
L 984 0 
L 422 0 
z
" transform="scale(0.015625)"/>
      <path id="ArialMT-65" d="M 2694 1069 
L 3275 997 
Q 3138 488 2766 206 
Q 2394 -75 1816 -75 
Q 1088 -75 661 373 
Q 234 822 234 1631 
Q 234 2469 665 2931 
Q 1097 3394 1784 3394 
Q 2450 3394 2872 2941 
Q 3294 2488 3294 1666 
Q 3294 1616 3291 1516 
L 816 1516 
Q 847 969 1125 678 
Q 1403 388 1819 388 
Q 2128 388 2347 550 
Q 2566 713 2694 1069 
z
M 847 1978 
L 2700 1978 
Q 2663 2397 2488 2606 
Q 2219 2931 1791 2931 
Q 1403 2931 1139 2672 
Q 875 2413 847 1978 
z
" transform="scale(0.015625)"/>
      <path id="ArialMT-73" d="M 197 991 
L 753 1078 
Q 800 744 1014 566 
Q 1228 388 1613 388 
Q 2000 388 2187 545 
Q 2375 703 2375 916 
Q 2375 1106 2209 1216 
Q 2094 1291 1634 1406 
Q 1016 1563 777 1677 
Q 538 1791 414 1992 
Q 291 2194 291 2438 
Q 291 2659 392 2848 
Q 494 3038 669 3163 
Q 800 3259 1026 3326 
Q 1253 3394 1513 3394 
Q 1903 3394 2198 3281 
Q 2494 3169 2634 2976 
Q 2775 2784 2828 2463 
L 2278 2388 
Q 2241 2644 2061 2787 
Q 1881 2931 1553 2931 
Q 1166 2931 1000 2803 
Q 834 2675 834 2503 
Q 834 2394 903 2306 
Q 972 2216 1119 2156 
Q 1203 2125 1616 2013 
Q 2213 1853 2448 1751 
Q 2684 1650 2818 1456 
Q 2953 1263 2953 975 
Q 2953 694 2789 445 
Q 2625 197 2315 61 
Q 2006 -75 1616 -75 
Q 969 -75 630 194 
Q 291 463 197 991 
z
" transform="scale(0.015625)"/>
      <path id="ArialMT-74" d="M 1650 503 
L 1731 6 
Q 1494 -44 1306 -44 
Q 1000 -44 831 53 
Q 663 150 594 308 
Q 525 466 525 972 
L 525 2881 
L 113 2881 
L 113 3319 
L 525 3319 
L 525 4141 
L 1084 4478 
L 1084 3319 
L 1650 3319 
L 1650 2881 
L 1084 2881 
L 1084 941 
Q 1084 700 1114 631 
Q 1144 563 1211 522 
Q 1278 481 1403 481 
Q 1497 481 1650 503 
z
" transform="scale(0.015625)"/>
      <path id="ArialMT-20" transform="scale(0.015625)"/>
      <path id="ArialMT-72" d="M 416 0 
L 416 3319 
L 922 3319 
L 922 2816 
Q 1116 3169 1280 3281 
Q 1444 3394 1641 3394 
Q 1925 3394 2219 3213 
L 2025 2691 
Q 1819 2813 1613 2813 
Q 1428 2813 1281 2702 
Q 1134 2591 1072 2394 
Q 978 2094 978 1738 
L 978 0 
L 416 0 
z
" transform="scale(0.015625)"/>
      <path id="ArialMT-61" d="M 2588 409 
Q 2275 144 1986 34 
Q 1697 -75 1366 -75 
Q 819 -75 525 192 
Q 231 459 231 875 
Q 231 1119 342 1320 
Q 453 1522 633 1644 
Q 813 1766 1038 1828 
Q 1203 1872 1538 1913 
Q 2219 1994 2541 2106 
Q 2544 2222 2544 2253 
Q 2544 2597 2384 2738 
Q 2169 2928 1744 2928 
Q 1347 2928 1158 2789 
Q 969 2650 878 2297 
L 328 2372 
Q 403 2725 575 2942 
Q 747 3159 1072 3276 
Q 1397 3394 1825 3394 
Q 2250 3394 2515 3294 
Q 2781 3194 2906 3042 
Q 3031 2891 3081 2659 
Q 3109 2516 3109 2141 
L 3109 1391 
Q 3109 606 3145 398 
Q 3181 191 3288 0 
L 2700 0 
Q 2613 175 2588 409 
z
M 2541 1666 
Q 2234 1541 1622 1453 
Q 1275 1403 1131 1340 
Q 988 1278 909 1158 
Q 831 1038 831 891 
Q 831 666 1001 516 
Q 1172 366 1500 366 
Q 1825 366 2078 508 
Q 2331 650 2450 897 
Q 2541 1088 2541 1459 
L 2541 1666 
z
" transform="scale(0.015625)"/>
      <path id="ArialMT-64" d="M 2575 0 
L 2575 419 
Q 2259 -75 1647 -75 
Q 1250 -75 917 144 
Q 584 363 401 755 
Q 219 1147 219 1656 
Q 219 2153 384 2558 
Q 550 2963 881 3178 
Q 1213 3394 1622 3394 
Q 1922 3394 2156 3267 
Q 2391 3141 2538 2938 
L 2538 4581 
L 3097 4581 
L 3097 0 
L 2575 0 
z
M 797 1656 
Q 797 1019 1065 703 
Q 1334 388 1700 388 
Q 2069 388 2326 689 
Q 2584 991 2584 1609 
Q 2584 2291 2321 2609 
Q 2059 2928 1675 2928 
Q 1300 2928 1048 2622 
Q 797 2316 797 1656 
z
" transform="scale(0.015625)"/>
      <path id="ArialMT-70" d="M 422 -1272 
L 422 3319 
L 934 3319 
L 934 2888 
Q 1116 3141 1344 3267 
Q 1572 3394 1897 3394 
Q 2322 3394 2647 3175 
Q 2972 2956 3137 2557 
Q 3303 2159 3303 1684 
Q 3303 1175 3120 767 
Q 2938 359 2589 142 
Q 2241 -75 1856 -75 
Q 1575 -75 1351 44 
Q 1128 163 984 344 
L 984 -1272 
L 422 -1272 
z
M 931 1641 
Q 931 1000 1190 694 
Q 1450 388 1819 388 
Q 2194 388 2461 705 
Q 2728 1022 2728 1688 
Q 2728 2322 2467 2637 
Q 2206 2953 1844 2953 
Q 1484 2953 1207 2617 
Q 931 2281 931 1641 
z
" transform="scale(0.015625)"/>
      <path id="ArialMT-79" d="M 397 -1278 
L 334 -750 
Q 519 -800 656 -800 
Q 844 -800 956 -737 
Q 1069 -675 1141 -563 
Q 1194 -478 1313 -144 
Q 1328 -97 1363 -6 
L 103 3319 
L 709 3319 
L 1400 1397 
Q 1534 1031 1641 628 
Q 1738 1016 1872 1384 
L 2581 3319 
L 3144 3319 
L 1881 -56 
Q 1678 -603 1566 -809 
Q 1416 -1088 1222 -1217 
Q 1028 -1347 759 -1347 
Q 597 -1347 397 -1278 
z
" transform="scale(0.015625)"/>
      <path id="ArialMT-2013" d="M -13 1431 
L -13 1884 
L 3547 1884 
L 3547 1431 
L -13 1431 
z
" transform="scale(0.015625)"/>
     </defs>
     <use xlink:href="#ArialMT-48"/>
     <use xlink:href="#ArialMT-69" transform="translate(72.216797 0)"/>
     <use xlink:href="#ArialMT-67" transform="translate(94.433594 0)"/>
     <use xlink:href="#ArialMT-68" transform="translate(150.048828 0)"/>
     <use xlink:href="#ArialMT-65" transform="translate(205.664062 0)"/>
     <use xlink:href="#ArialMT-73" transform="translate(261.279297 0)"/>
     <use xlink:href="#ArialMT-74" transform="translate(311.279297 0)"/>
     <use xlink:href="#ArialMT-20" transform="translate(339.0625 0)"/>
     <use xlink:href="#ArialMT-72" transform="translate(366.845703 0)"/>
     <use xlink:href="#ArialMT-61" transform="translate(400.146484 0)"/>
     <use xlink:href="#ArialMT-74" transform="translate(455.761719 0)"/>
     <use xlink:href="#ArialMT-65" transform="translate(483.544922 0)"/>
     <use xlink:href="#ArialMT-64" transform="translate(539.160156 0)"/>
     <use xlink:href="#ArialMT-20" transform="translate(594.775391 0)"/>
     <use xlink:href="#ArialMT-70" transform="translate(622.558594 0)"/>
     <use xlink:href="#ArialMT-6c" transform="translate(678.173828 0)"/>
     <use xlink:href="#ArialMT-61" transform="translate(700.390625 0)"/>
     <use xlink:href="#ArialMT-79" transform="translate(756.005859 0)"/>
     <use xlink:href="#ArialMT-65" transform="translate(806.005859 0)"/>
     <use xlink:href="#ArialMT-72" transform="translate(861.621094 0)"/>
     <use xlink:href="#ArialMT-73" transform="translate(894.921875 0)"/>
     <use xlink:href="#ArialMT-20" transform="translate(944.921875 0)"/>
     <use xlink:href="#ArialMT-32" transform="translate(972.705078 0)"/>
     <use xlink:href="#ArialMT-30" transform="translate(1028.320312 0)"/>
     <use xlink:href="#ArialMT-32" transform="translate(1083.935547 0)"/>
     <use xlink:href="#ArialMT-30" transform="translate(1139.550781 0)"/>
     <use xlink:href="#ArialMT-2013" transform="translate(1195.166016 0)"/>
     <use xlink:href="#ArialMT-32" transform="translate(1250.78125 0)"/>
     <use xlink:href="#ArialMT-30" transform="translate(1306.396484 0)"/>
     <use xlink:href="#ArialMT-32" transform="translate(1362.011719 0)"/>
     <use xlink:href="#ArialMT-35" transform="translate(1417.626953 0)"/>
    </g>
   </g>
   <g id="legend_1">
    <g id="patch_7">
     <path d="M 55.53 312.72 
L 217.269063 312.72 
Q 219.269063 312.72 219.269063 310.72 
L 219.269063 268.560625 
Q 219.269063 266.560625 217.269063 266.560625 
L 55.53 266.560625 
Q 53.53 266.560625 53.53 268.560625 
L 53.53 310.72 
Q 53.53 312.72 55.53 312.72 
z
" style="fill: #eaeaf2; opacity: 0.8; stroke: #cccccc; stroke-linejoin: miter"/>
    </g>
    <g id="line2d_15">
     <path d="M 57.53 274.340312 
L 67.53 274.340312 
L 67.53 274.340312 
L 77.53 274.340312 
L 77.53 274.340312 
" style="fill: none; stroke-dasharray: 5.55,2.4; stroke-dashoffset: 0; stroke: #dc143c; stroke-width: 1.5"/>
    </g>
    <g id="text_14">
     <!-- Judd Trump (max: 837) -->
     <g style="fill: #262626" transform="translate(85.53 277.840312) scale(0.1 -0.1)">
      <defs>
       <path id="ArialMT-4a" d="M 184 1300 
L 731 1375 
Q 753 850 928 656 
Q 1103 463 1413 463 
Q 1641 463 1806 567 
Q 1972 672 2034 851 
Q 2097 1031 2097 1425 
L 2097 4581 
L 2703 4581 
L 2703 1459 
Q 2703 884 2564 568 
Q 2425 253 2123 87 
Q 1822 -78 1416 -78 
Q 813 -78 492 269 
Q 172 616 184 1300 
z
" transform="scale(0.015625)"/>
       <path id="ArialMT-75" d="M 2597 0 
L 2597 488 
Q 2209 -75 1544 -75 
Q 1250 -75 995 37 
Q 741 150 617 320 
Q 494 491 444 738 
Q 409 903 409 1263 
L 409 3319 
L 972 3319 
L 972 1478 
Q 972 1038 1006 884 
Q 1059 663 1231 536 
Q 1403 409 1656 409 
Q 1909 409 2131 539 
Q 2353 669 2445 892 
Q 2538 1116 2538 1541 
L 2538 3319 
L 3100 3319 
L 3100 0 
L 2597 0 
z
" transform="scale(0.015625)"/>
       <path id="ArialMT-54" d="M 1659 0 
L 1659 4041 
L 150 4041 
L 150 4581 
L 3781 4581 
L 3781 4041 
L 2266 4041 
L 2266 0 
L 1659 0 
z
" transform="scale(0.015625)"/>
       <path id="ArialMT-6d" d="M 422 0 
L 422 3319 
L 925 3319 
L 925 2853 
Q 1081 3097 1340 3245 
Q 1600 3394 1931 3394 
Q 2300 3394 2536 3241 
Q 2772 3088 2869 2813 
Q 3263 3394 3894 3394 
Q 4388 3394 4653 3120 
Q 4919 2847 4919 2278 
L 4919 0 
L 4359 0 
L 4359 2091 
Q 4359 2428 4304 2576 
Q 4250 2725 4106 2815 
Q 3963 2906 3769 2906 
Q 3419 2906 3187 2673 
Q 2956 2441 2956 1928 
L 2956 0 
L 2394 0 
L 2394 2156 
Q 2394 2531 2256 2718 
Q 2119 2906 1806 2906 
Q 1569 2906 1367 2781 
Q 1166 2656 1075 2415 
Q 984 2175 984 1722 
L 984 0 
L 422 0 
z
" transform="scale(0.015625)"/>
       <path id="ArialMT-28" d="M 1497 -1347 
Q 1031 -759 709 28 
Q 388 816 388 1659 
Q 388 2403 628 3084 
Q 909 3875 1497 4659 
L 1900 4659 
Q 1522 4009 1400 3731 
Q 1209 3300 1100 2831 
Q 966 2247 966 1656 
Q 966 153 1900 -1347 
L 1497 -1347 
z
" transform="scale(0.015625)"/>
       <path id="ArialMT-78" d="M 47 0 
L 1259 1725 
L 138 3319 
L 841 3319 
L 1350 2541 
Q 1494 2319 1581 2169 
Q 1719 2375 1834 2534 
L 2394 3319 
L 3066 3319 
L 1919 1756 
L 3153 0 
L 2463 0 
L 1781 1031 
L 1600 1309 
L 728 0 
L 47 0 
z
" transform="scale(0.015625)"/>
       <path id="ArialMT-3a" d="M 578 2678 
L 578 3319 
L 1219 3319 
L 1219 2678 
L 578 2678 
z
M 578 0 
L 578 641 
L 1219 641 
L 1219 0 
L 578 0 
z
" transform="scale(0.015625)"/>
       <path id="ArialMT-29" d="M 791 -1347 
L 388 -1347 
Q 1322 153 1322 1656 
Q 1322 2244 1188 2822 
Q 1081 3291 891 3722 
Q 769 4003 388 4659 
L 791 4659 
Q 1378 3875 1659 3084 
Q 1900 2403 1900 1659 
Q 1900 816 1576 28 
Q 1253 -759 791 -1347 
z
" transform="scale(0.015625)"/>
      </defs>
      <use xlink:href="#ArialMT-4a"/>
      <use xlink:href="#ArialMT-75" transform="translate(50 0)"/>
      <use xlink:href="#ArialMT-64" transform="translate(105.615234 0)"/>
      <use xlink:href="#ArialMT-64" transform="translate(161.230469 0)"/>
      <use xlink:href="#ArialMT-20" transform="translate(216.845703 0)"/>
      <use xlink:href="#ArialMT-54" transform="translate(242.878906 0)"/>
      <use xlink:href="#ArialMT-72" transform="translate(300.212891 0)"/>
      <use xlink:href="#ArialMT-75" transform="translate(333.513672 0)"/>
      <use xlink:href="#ArialMT-6d" transform="translate(389.128906 0)"/>
      <use xlink:href="#ArialMT-70" transform="translate(472.429688 0)"/>
      <use xlink:href="#ArialMT-20" transform="translate(528.044922 0)"/>
      <use xlink:href="#ArialMT-28" transform="translate(555.828125 0)"/>
      <use xlink:href="#ArialMT-6d" transform="translate(589.128906 0)"/>
      <use xlink:href="#ArialMT-61" transform="translate(672.429688 0)"/>
      <use xlink:href="#ArialMT-78" transform="translate(728.044922 0)"/>
      <use xlink:href="#ArialMT-3a" transform="translate(778.044922 0)"/>
      <use xlink:href="#ArialMT-20" transform="translate(805.828125 0)"/>
      <use xlink:href="#ArialMT-38" transform="translate(833.611328 0)"/>
      <use xlink:href="#ArialMT-33" transform="translate(889.226562 0)"/>
      <use xlink:href="#ArialMT-37" transform="translate(944.841797 0)"/>
      <use xlink:href="#ArialMT-29" transform="translate(1000.457031 0)"/>
     </g>
    </g>
    <g id="line2d_16">
     <path d="M 57.53 288.730937 
L 67.53 288.730937 
L 67.53 288.730937 
L 77.53 288.730937 
L 77.53 288.730937 
" style="fill: none; stroke-dasharray: 9.6,2.4,1.5,2.4; stroke-dashoffset: 0; stroke: #800080; stroke-width: 1.5"/>
    </g>
    <g id="text_15">
     <!-- Ronnie O'Sullivan (max: 777) -->
     <g style="fill: #262626" transform="translate(85.53 292.230937) scale(0.1 -0.1)">
      <defs>
       <path id="ArialMT-52" d="M 503 0 
L 503 4581 
L 2534 4581 
Q 3147 4581 3465 4457 
Q 3784 4334 3975 4021 
Q 4166 3709 4166 3331 
Q 4166 2844 3850 2509 
Q 3534 2175 2875 2084 
Q 3116 1969 3241 1856 
Q 3506 1613 3744 1247 
L 4541 0 
L 3778 0 
L 3172 953 
Q 2906 1366 2734 1584 
Q 2563 1803 2427 1890 
Q 2291 1978 2150 2013 
Q 2047 2034 1813 2034 
L 1109 2034 
L 1109 0 
L 503 0 
z
M 1109 2559 
L 2413 2559 
Q 2828 2559 3062 2645 
Q 3297 2731 3419 2920 
Q 3541 3109 3541 3331 
Q 3541 3656 3305 3865 
Q 3069 4075 2559 4075 
L 1109 4075 
L 1109 2559 
z
" transform="scale(0.015625)"/>
       <path id="ArialMT-6e" d="M 422 0 
L 422 3319 
L 928 3319 
L 928 2847 
Q 1294 3394 1984 3394 
Q 2284 3394 2536 3286 
Q 2788 3178 2913 3003 
Q 3038 2828 3088 2588 
Q 3119 2431 3119 2041 
L 3119 0 
L 2556 0 
L 2556 2019 
Q 2556 2363 2490 2533 
Q 2425 2703 2258 2804 
Q 2091 2906 1866 2906 
Q 1506 2906 1245 2678 
Q 984 2450 984 1813 
L 984 0 
L 422 0 
z
" transform="scale(0.015625)"/>
       <path id="ArialMT-4f" d="M 309 2231 
Q 309 3372 921 4017 
Q 1534 4663 2503 4663 
Q 3138 4663 3647 4359 
Q 4156 4056 4423 3514 
Q 4691 2972 4691 2284 
Q 4691 1588 4409 1038 
Q 4128 488 3612 205 
Q 3097 -78 2500 -78 
Q 1853 -78 1343 234 
Q 834 547 571 1087 
Q 309 1628 309 2231 
z
M 934 2222 
Q 934 1394 1379 917 
Q 1825 441 2497 441 
Q 3181 441 3623 922 
Q 4066 1403 4066 2288 
Q 4066 2847 3877 3264 
Q 3688 3681 3323 3911 
Q 2959 4141 2506 4141 
Q 1863 4141 1398 3698 
Q 934 3256 934 2222 
z
" transform="scale(0.015625)"/>
       <path id="ArialMT-27" d="M 425 2959 
L 281 3816 
L 281 4581 
L 922 4581 
L 922 3816 
L 772 2959 
L 425 2959 
z
" transform="scale(0.015625)"/>
       <path id="ArialMT-53" d="M 288 1472 
L 859 1522 
Q 900 1178 1048 958 
Q 1197 738 1509 602 
Q 1822 466 2213 466 
Q 2559 466 2825 569 
Q 3091 672 3220 851 
Q 3350 1031 3350 1244 
Q 3350 1459 3225 1620 
Q 3100 1781 2813 1891 
Q 2628 1963 1997 2114 
Q 1366 2266 1113 2400 
Q 784 2572 623 2826 
Q 463 3081 463 3397 
Q 463 3744 659 4045 
Q 856 4347 1234 4503 
Q 1613 4659 2075 4659 
Q 2584 4659 2973 4495 
Q 3363 4331 3572 4012 
Q 3781 3694 3797 3291 
L 3216 3247 
Q 3169 3681 2898 3903 
Q 2628 4125 2100 4125 
Q 1550 4125 1298 3923 
Q 1047 3722 1047 3438 
Q 1047 3191 1225 3031 
Q 1400 2872 2139 2705 
Q 2878 2538 3153 2413 
Q 3553 2228 3743 1945 
Q 3934 1663 3934 1294 
Q 3934 928 3725 604 
Q 3516 281 3123 101 
Q 2731 -78 2241 -78 
Q 1619 -78 1198 103 
Q 778 284 539 648 
Q 300 1013 288 1472 
z
" transform="scale(0.015625)"/>
       <path id="ArialMT-76" d="M 1344 0 
L 81 3319 
L 675 3319 
L 1388 1331 
Q 1503 1009 1600 663 
Q 1675 925 1809 1294 
L 2547 3319 
L 3125 3319 
L 1869 0 
L 1344 0 
z
" transform="scale(0.015625)"/>
      </defs>
      <use xlink:href="#ArialMT-52"/>
      <use xlink:href="#ArialMT-6f" transform="translate(72.216797 0)"/>
      <use xlink:href="#ArialMT-6e" transform="translate(127.832031 0)"/>
      <use xlink:href="#ArialMT-6e" transform="translate(183.447266 0)"/>
      <use xlink:href="#ArialMT-69" transform="translate(239.0625 0)"/>
      <use xlink:href="#ArialMT-65" transform="translate(261.279297 0)"/>
      <use xlink:href="#ArialMT-20" transform="translate(316.894531 0)"/>
      <use xlink:href="#ArialMT-4f" transform="translate(344.677734 0)"/>
      <use xlink:href="#ArialMT-27" transform="translate(422.460938 0)"/>
      <use xlink:href="#ArialMT-53" transform="translate(441.552734 0)"/>
      <use xlink:href="#ArialMT-75" transform="translate(508.251953 0)"/>
      <use xlink:href="#ArialMT-6c" transform="translate(563.867188 0)"/>
      <use xlink:href="#ArialMT-6c" transform="translate(586.083984 0)"/>
      <use xlink:href="#ArialMT-69" transform="translate(608.300781 0)"/>
      <use xlink:href="#ArialMT-76" transform="translate(630.517578 0)"/>
      <use xlink:href="#ArialMT-61" transform="translate(680.517578 0)"/>
      <use xlink:href="#ArialMT-6e" transform="translate(736.132812 0)"/>
      <use xlink:href="#ArialMT-20" transform="translate(791.748047 0)"/>
      <use xlink:href="#ArialMT-28" transform="translate(819.53125 0)"/>
      <use xlink:href="#ArialMT-6d" transform="translate(852.832031 0)"/>
      <use xlink:href="#ArialMT-61" transform="translate(936.132812 0)"/>
      <use xlink:href="#ArialMT-78" transform="translate(991.748047 0)"/>
      <use xlink:href="#ArialMT-3a" transform="translate(1041.748047 0)"/>
      <use xlink:href="#ArialMT-20" transform="translate(1069.53125 0)"/>
      <use xlink:href="#ArialMT-37" transform="translate(1097.314453 0)"/>
      <use xlink:href="#ArialMT-37" transform="translate(1152.929688 0)"/>
      <use xlink:href="#ArialMT-37" transform="translate(1208.544922 0)"/>
      <use xlink:href="#ArialMT-29" transform="translate(1264.160156 0)"/>
     </g>
    </g>
    <g id="line2d_17">
     <path d="M 57.53 303.115312 
L 67.53 303.115312 
L 67.53 303.115312 
L 77.53 303.115312 
L 77.53 303.115312 
" style="fill: none; stroke-dasharray: 1.5,2.475; stroke-dashoffset: 0; stroke: #00008b; stroke-width: 1.5"/>
    </g>
    <g id="text_16">
     <!-- John Higgins (max: 739) -->
     <g style="fill: #262626" transform="translate(85.53 306.615312) scale(0.1 -0.1)">
      <defs>
       <path id="ArialMT-39" d="M 350 1059 
L 891 1109 
Q 959 728 1153 556 
Q 1347 384 1650 384 
Q 1909 384 2104 503 
Q 2300 622 2425 820 
Q 2550 1019 2634 1356 
Q 2719 1694 2719 2044 
Q 2719 2081 2716 2156 
Q 2547 1888 2255 1720 
Q 1963 1553 1622 1553 
Q 1053 1553 659 1965 
Q 266 2378 266 3053 
Q 266 3750 677 4175 
Q 1088 4600 1706 4600 
Q 2153 4600 2523 4359 
Q 2894 4119 3086 3673 
Q 3278 3228 3278 2384 
Q 3278 1506 3087 986 
Q 2897 466 2520 194 
Q 2144 -78 1638 -78 
Q 1100 -78 759 220 
Q 419 519 350 1059 
z
M 2653 3081 
Q 2653 3566 2395 3850 
Q 2138 4134 1775 4134 
Q 1400 4134 1122 3828 
Q 844 3522 844 3034 
Q 844 2597 1108 2323 
Q 1372 2050 1759 2050 
Q 2150 2050 2401 2323 
Q 2653 2597 2653 3081 
z
" transform="scale(0.015625)"/>
      </defs>
      <use xlink:href="#ArialMT-4a"/>
      <use xlink:href="#ArialMT-6f" transform="translate(50 0)"/>
      <use xlink:href="#ArialMT-68" transform="translate(105.615234 0)"/>
      <use xlink:href="#ArialMT-6e" transform="translate(161.230469 0)"/>
      <use xlink:href="#ArialMT-20" transform="translate(216.845703 0)"/>
      <use xlink:href="#ArialMT-48" transform="translate(244.628906 0)"/>
      <use xlink:href="#ArialMT-69" transform="translate(316.845703 0)"/>
      <use xlink:href="#ArialMT-67" transform="translate(339.0625 0)"/>
      <use xlink:href="#ArialMT-67" transform="translate(394.677734 0)"/>
      <use xlink:href="#ArialMT-69" transform="translate(450.292969 0)"/>
      <use xlink:href="#ArialMT-6e" transform="translate(472.509766 0)"/>
      <use xlink:href="#ArialMT-73" transform="translate(528.125 0)"/>
      <use xlink:href="#ArialMT-20" transform="translate(578.125 0)"/>
      <use xlink:href="#ArialMT-28" transform="translate(605.908203 0)"/>
      <use xlink:href="#ArialMT-6d" transform="translate(639.208984 0)"/>
      <use xlink:href="#ArialMT-61" transform="translate(722.509766 0)"/>
      <use xlink:href="#ArialMT-78" transform="translate(778.125 0)"/>
      <use xlink:href="#ArialMT-3a" transform="translate(828.125 0)"/>
      <use xlink:href="#ArialMT-20" transform="translate(855.908203 0)"/>
      <use xlink:href="#ArialMT-37" transform="translate(883.691406 0)"/>
      <use xlink:href="#ArialMT-33" transform="translate(939.306641 0)"/>
      <use xlink:href="#ArialMT-39" transform="translate(994.921875 0)"/>
      <use xlink:href="#ArialMT-29" transform="translate(1050.537109 0)"/>
     </g>
    </g>
   </g>
  </g>
 </g>
 <defs>
  <clipPath id="p7581c463c4">
   <rect x="48.53" y="25.49625" width="401.47" height="292.22375"/>
  </clipPath>
 </defs>
</svg>
