<?xml version="1.0" encoding="utf-8" standalone="no"?>
<!DOCTYPE svg PUBLIC "-//W3C//DTD SVG 1.1//EN"
  "http://www.w3.org/Graphics/SVG/1.1/DTD/svg11.dtd">
<svg xmlns:xlink="http://www.w3.org/1999/xlink" width="460.8pt" height="345.6pt" viewBox="0 0 460.8 345.6" xmlns="http://www.w3.org/2000/svg" version="1.1">
 <metadata>
  <rdf:RDF xmlns:dc="http://purl.org/dc/elements/1.1/" xmlns:cc="http://creativecommons.org/ns#" xmlns:rdf="http://www.w3.org/1999/02/22-rdf-syntax-ns#">
   <cc:Work>
    <dc:type rdf:resource="http://purl.org/dc/dcmitype/StillImage"/>
    <dc:date>2025-12-03T00:09:11.707581</dc:date>
    <dc:format>image/svg+xml</dc:format>
    <dc:creator>
     <cc:Agent>
      <dc:title>Matplotlib v3.10.7, https://matplotlib.org/</dc:title>
     </cc:Agent>
    </dc:creator>
   </cc:Work>
  </rdf:RDF>
 </metadata>
 <defs>
  <style type="text/css">*{stroke-linejoin: round; stroke-linecap: butt}</style>
 </defs>
 <g id="figure_1">
  <g id="patch_1">
   <path d="M 0 345.6 
L 460.8 345.6 
L 460.8 0 
L 0 0 
z
" style="fill: #ffffff"/>
  </g>
  <g id="axes_1">
   <g id="patch_2">
    <path d="M 56.99 303.64 
L 450 303.64 
L 450 25.49625 
L 56.99 25.49625 
z
" style="fill: #eaeaf2"/>
   </g>
   <g id="matplotlib.axis_1">
    <g id="xtick_1">
     <g id="line2d_1">
      <path d="M 87.742752 303.64 
L 87.742752 25.49625 
" clip-path="url(#pf2d133e748)" style="fill: none; stroke: #ffffff; stroke-width: 0.8; stroke-linecap: round"/>
     </g>
     <g id="text_1">
      <!-- −750 -->
      <g style="fill: #262626" transform="translate(76.481034 317.797812) scale(0.1 -0.1)">
       <defs>
        <path id="ArialMT-2212" d="M 3381 1997 
L 356 1997 
L 356 2522 
L 3381 2522 
L 3381 1997 
z
" transform="scale(0.015625)"/>
        <path id="ArialMT-37" d="M 303 3981 
L 303 4522 
L 3269 4522 
L 3269 4084 
Q 2831 3619 2401 2847 
Q 1972 2075 1738 1259 
Q 1569 684 1522 0 
L 944 0 
Q 953 541 1156 1306 
Q 1359 2072 1739 2783 
Q 2119 3494 2547 3981 
L 303 3981 
z
" transform="scale(0.015625)"/>
        <path id="ArialMT-35" d="M 266 1200 
L 856 1250 
Q 922 819 1161 601 
Q 1400 384 1738 384 
Q 2144 384 2425 690 
Q 2706 997 2706 1503 
Q 2706 1984 2436 2262 
Q 2166 2541 1728 2541 
Q 1456 2541 1237 2417 
Q 1019 2294 894 2097 
L 366 2166 
L 809 4519 
L 3088 4519 
L 3088 3981 
L 1259 3981 
L 1013 2750 
Q 1425 3038 1878 3038 
Q 2478 3038 2890 2622 
Q 3303 2206 3303 1553 
Q 3303 931 2941 478 
Q 2500 -78 1738 -78 
Q 1113 -78 717 272 
Q 322 622 266 1200 
z
" transform="scale(0.015625)"/>
        <path id="ArialMT-30" d="M 266 2259 
Q 266 3072 433 3567 
Q 600 4063 929 4331 
Q 1259 4600 1759 4600 
Q 2128 4600 2406 4451 
Q 2684 4303 2865 4023 
Q 3047 3744 3150 3342 
Q 3253 2941 3253 2259 
Q 3253 1453 3087 958 
Q 2922 463 2592 192 
Q 2263 -78 1759 -78 
Q 1097 -78 719 397 
Q 266 969 266 2259 
z
M 844 2259 
Q 844 1131 1108 757 
Q 1372 384 1759 384 
Q 2147 384 2411 759 
Q 2675 1134 2675 2259 
Q 2675 3391 2411 3762 
Q 2147 4134 1753 4134 
Q 1366 4134 1134 3806 
Q 844 3388 844 2259 
z
" transform="scale(0.015625)"/>
       </defs>
       <use xlink:href="#ArialMT-2212"/>
       <use xlink:href="#ArialMT-37" transform="translate(58.398438 0)"/>
       <use xlink:href="#ArialMT-35" transform="translate(114.013672 0)"/>
       <use xlink:href="#ArialMT-30" transform="translate(169.628906 0)"/>
      </g>
     </g>
    </g>
    <g id="xtick_2">
     <g id="line2d_2">
      <path d="M 141.642418 303.64 
L 141.642418 25.49625 
" clip-path="url(#pf2d133e748)" style="fill: none; stroke: #ffffff; stroke-width: 0.8; stroke-linecap: round"/>
     </g>
     <g id="text_2">
      <!-- −500 -->
      <g style="fill: #262626" transform="translate(130.380699 317.797812) scale(0.1 -0.1)">
       <use xlink:href="#ArialMT-2212"/>
       <use xlink:href="#ArialMT-35" transform="translate(58.398438 0)"/>
       <use xlink:href="#ArialMT-30" transform="translate(114.013672 0)"/>
       <use xlink:href="#ArialMT-30" transform="translate(169.628906 0)"/>
      </g>
     </g>
    </g>
    <g id="xtick_3">
     <g id="line2d_3">
      <path d="M 195.542083 303.64 
L 195.542083 25.49625 
" clip-path="url(#pf2d133e748)" style="fill: none; stroke: #ffffff; stroke-width: 0.8; stroke-linecap: round"/>
     </g>
     <g id="text_3">
      <!-- −250 -->
      <g style="fill: #262626" transform="translate(184.280364 317.797812) scale(0.1 -0.1)">
       <defs>
        <path id="ArialMT-32" d="M 3222 541 
L 3222 0 
L 194 0 
Q 188 203 259 391 
Q 375 700 629 1000 
Q 884 1300 1366 1694 
Q 2113 2306 2375 2664 
Q 2638 3022 2638 3341 
Q 2638 3675 2398 3904 
Q 2159 4134 1775 4134 
Q 1369 4134 1125 3890 
Q 881 3647 878 3216 
L 300 3275 
Q 359 3922 746 4261 
Q 1134 4600 1788 4600 
Q 2447 4600 2831 4234 
Q 3216 3869 3216 3328 
Q 3216 3053 3103 2787 
Q 2991 2522 2730 2228 
Q 2469 1934 1863 1422 
Q 1356 997 1212 845 
Q 1069 694 975 541 
L 3222 541 
z
" transform="scale(0.015625)"/>
       </defs>
       <use xlink:href="#ArialMT-2212"/>
       <use xlink:href="#ArialMT-32" transform="translate(58.398438 0)"/>
       <use xlink:href="#ArialMT-35" transform="translate(114.013672 0)"/>
       <use xlink:href="#ArialMT-30" transform="translate(169.628906 0)"/>
      </g>
     </g>
    </g>
    <g id="xtick_4">
     <g id="line2d_4">
      <path d="M 249.441748 303.64 
L 249.441748 25.49625 
" clip-path="url(#pf2d133e748)" style="fill: none; stroke: #ffffff; stroke-width: 0.8; stroke-linecap: round"/>
     </g>
     <g id="text_4">
      <!-- 0 -->
      <g style="fill: #262626" transform="translate(246.661279 317.797812) scale(0.1 -0.1)">
       <use xlink:href="#ArialMT-30"/>
      </g>
     </g>
    </g>
    <g id="xtick_5">
     <g id="line2d_5">
      <path d="M 303.341413 303.64 
L 303.341413 25.49625 
" clip-path="url(#pf2d133e748)" style="fill: none; stroke: #ffffff; stroke-width: 0.8; stroke-linecap: round"/>
     </g>
     <g id="text_5">
      <!-- 250 -->
      <g style="fill: #262626" transform="translate(295.000007 317.797812) scale(0.1 -0.1)">
       <use xlink:href="#ArialMT-32"/>
       <use xlink:href="#ArialMT-35" transform="translate(55.615234 0)"/>
       <use xlink:href="#ArialMT-30" transform="translate(111.230469 0)"/>
      </g>
     </g>
    </g>
    <g id="xtick_6">
     <g id="line2d_6">
      <path d="M 357.241078 303.64 
L 357.241078 25.49625 
" clip-path="url(#pf2d133e748)" style="fill: none; stroke: #ffffff; stroke-width: 0.8; stroke-linecap: round"/>
     </g>
     <g id="text_6">
      <!-- 500 -->
      <g style="fill: #262626" transform="translate(348.899672 317.797812) scale(0.1 -0.1)">
       <use xlink:href="#ArialMT-35"/>
       <use xlink:href="#ArialMT-30" transform="translate(55.615234 0)"/>
       <use xlink:href="#ArialMT-30" transform="translate(111.230469 0)"/>
      </g>
     </g>
    </g>
    <g id="xtick_7">
     <g id="line2d_7">
      <path d="M 411.140743 303.64 
L 411.140743 25.49625 
" clip-path="url(#pf2d133e748)" style="fill: none; stroke: #ffffff; stroke-width: 0.8; stroke-linecap: round"/>
     </g>
     <g id="text_7">
      <!-- 750 -->
      <g style="fill: #262626" transform="translate(402.799337 317.797812) scale(0.1 -0.1)">
       <use xlink:href="#ArialMT-37"/>
       <use xlink:href="#ArialMT-35" transform="translate(55.615234 0)"/>
       <use xlink:href="#ArialMT-30" transform="translate(111.230469 0)"/>
      </g>
     </g>
    </g>
    <g id="text_8">
     <!-- Elo rating -->
     <g style="fill: #262626" transform="translate(232.373125 330.943125) scale(0.1 -0.1)">
      <defs>
       <path id="ArialMT-45" d="M 506 0 
L 506 4581 
L 3819 4581 
L 3819 4041 
L 1113 4041 
L 1113 2638 
L 3647 2638 
L 3647 2100 
L 1113 2100 
L 1113 541 
L 3925 541 
L 3925 0 
L 506 0 
z
" transform="scale(0.015625)"/>
       <path id="ArialMT-6c" d="M 409 0 
L 409 4581 
L 972 4581 
L 972 0 
L 409 0 
z
" transform="scale(0.015625)"/>
       <path id="ArialMT-6f" d="M 213 1659 
Q 213 2581 725 3025 
Q 1153 3394 1769 3394 
Q 2453 3394 2887 2945 
Q 3322 2497 3322 1706 
Q 3322 1066 3130 698 
Q 2938 331 2570 128 
Q 2203 -75 1769 -75 
Q 1072 -75 642 372 
Q 213 819 213 1659 
z
M 791 1659 
Q 791 1022 1069 705 
Q 1347 388 1769 388 
Q 2188 388 2466 706 
Q 2744 1025 2744 1678 
Q 2744 2294 2464 2611 
Q 2184 2928 1769 2928 
Q 1347 2928 1069 2612 
Q 791 2297 791 1659 
z
" transform="scale(0.015625)"/>
       <path id="ArialMT-20" transform="scale(0.015625)"/>
       <path id="ArialMT-72" d="M 416 0 
L 416 3319 
L 922 3319 
L 922 2816 
Q 1116 3169 1280 3281 
Q 1444 3394 1641 3394 
Q 1925 3394 2219 3213 
L 2025 2691 
Q 1819 2813 1613 2813 
Q 1428 2813 1281 2702 
Q 1134 2591 1072 2394 
Q 978 2094 978 1738 
L 978 0 
L 416 0 
z
" transform="scale(0.015625)"/>
       <path id="ArialMT-61" d="M 2588 409 
Q 2275 144 1986 34 
Q 1697 -75 1366 -75 
Q 819 -75 525 192 
Q 231 459 231 875 
Q 231 1119 342 1320 
Q 453 1522 633 1644 
Q 813 1766 1038 1828 
Q 1203 1872 1538 1913 
Q 2219 1994 2541 2106 
Q 2544 2222 2544 2253 
Q 2544 2597 2384 2738 
Q 2169 2928 1744 2928 
Q 1347 2928 1158 2789 
Q 969 2650 878 2297 
L 328 2372 
Q 403 2725 575 2942 
Q 747 3159 1072 3276 
Q 1397 3394 1825 3394 
Q 2250 3394 2515 3294 
Q 2781 3194 2906 3042 
Q 3031 2891 3081 2659 
Q 3109 2516 3109 2141 
L 3109 1391 
Q 3109 606 3145 398 
Q 3181 191 3288 0 
L 2700 0 
Q 2613 175 2588 409 
z
M 2541 1666 
Q 2234 1541 1622 1453 
Q 1275 1403 1131 1340 
Q 988 1278 909 1158 
Q 831 1038 831 891 
Q 831 666 1001 516 
Q 1172 366 1500 366 
Q 1825 366 2078 508 
Q 2331 650 2450 897 
Q 2541 1088 2541 1459 
L 2541 1666 
z
" transform="scale(0.015625)"/>
       <path id="ArialMT-74" d="M 1650 503 
L 1731 6 
Q 1494 -44 1306 -44 
Q 1000 -44 831 53 
Q 663 150 594 308 
Q 525 466 525 972 
L 525 2881 
L 113 2881 
L 113 3319 
L 525 3319 
L 525 4141 
L 1084 4478 
L 1084 3319 
L 1650 3319 
L 1650 2881 
L 1084 2881 
L 1084 941 
Q 1084 700 1114 631 
Q 1144 563 1211 522 
Q 1278 481 1403 481 
Q 1497 481 1650 503 
z
" transform="scale(0.015625)"/>
       <path id="ArialMT-69" d="M 425 3934 
L 425 4581 
L 988 4581 
L 988 3934 
L 425 3934 
z
M 425 0 
L 425 3319 
L 988 3319 
L 988 0 
L 425 0 
z
" transform="scale(0.015625)"/>
       <path id="ArialMT-6e" d="M 422 0 
L 422 3319 
L 928 3319 
L 928 2847 
Q 1294 3394 1984 3394 
Q 2284 3394 2536 3286 
Q 2788 3178 2913 3003 
Q 3038 2828 3088 2588 
Q 3119 2431 3119 2041 
L 3119 0 
L 2556 0 
L 2556 2019 
Q 2556 2363 2490 2533 
Q 2425 2703 2258 2804 
Q 2091 2906 1866 2906 
Q 1506 2906 1245 2678 
Q 984 2450 984 1813 
L 984 0 
L 422 0 
z
" transform="scale(0.015625)"/>
       <path id="ArialMT-67" d="M 319 -275 
L 866 -356 
Q 900 -609 1056 -725 
Q 1266 -881 1628 -881 
Q 2019 -881 2231 -725 
Q 2444 -569 2519 -288 
Q 2563 -116 2559 434 
Q 2191 0 1641 0 
Q 956 0 581 494 
Q 206 988 206 1678 
Q 206 2153 378 2554 
Q 550 2956 876 3175 
Q 1203 3394 1644 3394 
Q 2231 3394 2613 2919 
L 2613 3319 
L 3131 3319 
L 3131 450 
Q 3131 -325 2973 -648 
Q 2816 -972 2473 -1159 
Q 2131 -1347 1631 -1347 
Q 1038 -1347 672 -1080 
Q 306 -813 319 -275 
z
M 784 1719 
Q 784 1066 1043 766 
Q 1303 466 1694 466 
Q 2081 466 2343 764 
Q 2606 1063 2606 1700 
Q 2606 2309 2336 2618 
Q 2066 2928 1684 2928 
Q 1309 2928 1046 2623 
Q 784 2319 784 1719 
z
" transform="scale(0.015625)"/>
      </defs>
      <use xlink:href="#ArialMT-45"/>
      <use xlink:href="#ArialMT-6c" transform="translate(66.699219 0)"/>
      <use xlink:href="#ArialMT-6f" transform="translate(88.916016 0)"/>
      <use xlink:href="#ArialMT-20" transform="translate(144.53125 0)"/>
      <use xlink:href="#ArialMT-72" transform="translate(172.314453 0)"/>
      <use xlink:href="#ArialMT-61" transform="translate(205.615234 0)"/>
      <use xlink:href="#ArialMT-74" transform="translate(261.230469 0)"/>
      <use xlink:href="#ArialMT-69" transform="translate(289.013672 0)"/>
      <use xlink:href="#ArialMT-6e" transform="translate(311.230469 0)"/>
      <use xlink:href="#ArialMT-67" transform="translate(366.845703 0)"/>
     </g>
    </g>
   </g>
   <g id="matplotlib.axis_2">
    <g id="ytick_1">
     <g id="line2d_8">
      <path d="M 56.99 303.64 
L 450 303.64 
" clip-path="url(#pf2d133e748)" style="fill: none; stroke: #ffffff; stroke-width: 0.8; stroke-linecap: round"/>
     </g>
     <g id="text_9">
      <!-- 0.000 -->
      <g style="fill: #262626" transform="translate(24.968125 307.218906) scale(0.1 -0.1)">
       <defs>
        <path id="ArialMT-2e" d="M 581 0 
L 581 641 
L 1222 641 
L 1222 0 
L 581 0 
z
" transform="scale(0.015625)"/>
       </defs>
       <use xlink:href="#ArialMT-30"/>
       <use xlink:href="#ArialMT-2e" transform="translate(55.615234 0)"/>
       <use xlink:href="#ArialMT-30" transform="translate(83.398438 0)"/>
       <use xlink:href="#ArialMT-30" transform="translate(139.013672 0)"/>
       <use xlink:href="#ArialMT-30" transform="translate(194.628906 0)"/>
      </g>
     </g>
    </g>
    <g id="ytick_2">
     <g id="line2d_9">
      <path d="M 56.99 267.070294 
L 450 267.070294 
" clip-path="url(#pf2d133e748)" style="fill: none; stroke: #ffffff; stroke-width: 0.8; stroke-linecap: round"/>
     </g>
     <g id="text_10">
      <!-- 0.001 -->
      <g style="fill: #262626" transform="translate(24.968125 270.6492) scale(0.1 -0.1)">
       <defs>
        <path id="ArialMT-31" d="M 2384 0 
L 1822 0 
L 1822 3584 
Q 1619 3391 1289 3197 
Q 959 3003 697 2906 
L 697 3450 
Q 1169 3672 1522 3987 
Q 1875 4303 2022 4600 
L 2384 4600 
L 2384 0 
z
" transform="scale(0.015625)"/>
       </defs>
       <use xlink:href="#ArialMT-30"/>
       <use xlink:href="#ArialMT-2e" transform="translate(55.615234 0)"/>
       <use xlink:href="#ArialMT-30" transform="translate(83.398438 0)"/>
       <use xlink:href="#ArialMT-30" transform="translate(139.013672 0)"/>
       <use xlink:href="#ArialMT-31" transform="translate(194.628906 0)"/>
      </g>
     </g>
    </g>
    <g id="ytick_3">
     <g id="line2d_10">
      <path d="M 56.99 230.500587 
L 450 230.500587 
" clip-path="url(#pf2d133e748)" style="fill: none; stroke: #ffffff; stroke-width: 0.8; stroke-linecap: round"/>
     </g>
     <g id="text_11">
      <!-- 0.002 -->
      <g style="fill: #262626" transform="translate(24.968125 234.079493) scale(0.1 -0.1)">
       <use xlink:href="#ArialMT-30"/>
       <use xlink:href="#ArialMT-2e" transform="translate(55.615234 0)"/>
       <use xlink:href="#ArialMT-30" transform="translate(83.398438 0)"/>
       <use xlink:href="#ArialMT-30" transform="translate(139.013672 0)"/>
       <use xlink:href="#ArialMT-32" transform="translate(194.628906 0)"/>
      </g>
     </g>
    </g>
    <g id="ytick_4">
     <g id="line2d_11">
      <path d="M 56.99 193.930881 
L 450 193.930881 
" clip-path="url(#pf2d133e748)" style="fill: none; stroke: #ffffff; stroke-width: 0.8; stroke-linecap: round"/>
     </g>
     <g id="text_12">
      <!-- 0.003 -->
      <g style="fill: #262626" transform="translate(24.968125 197.509787) scale(0.1 -0.1)">
       <defs>
        <path id="ArialMT-33" d="M 269 1209 
L 831 1284 
Q 928 806 1161 595 
Q 1394 384 1728 384 
Q 2125 384 2398 659 
Q 2672 934 2672 1341 
Q 2672 1728 2419 1979 
Q 2166 2231 1775 2231 
Q 1616 2231 1378 2169 
L 1441 2663 
Q 1497 2656 1531 2656 
Q 1891 2656 2178 2843 
Q 2466 3031 2466 3422 
Q 2466 3731 2256 3934 
Q 2047 4138 1716 4138 
Q 1388 4138 1169 3931 
Q 950 3725 888 3313 
L 325 3413 
Q 428 3978 793 4289 
Q 1159 4600 1703 4600 
Q 2078 4600 2393 4439 
Q 2709 4278 2876 4000 
Q 3044 3722 3044 3409 
Q 3044 3113 2884 2869 
Q 2725 2625 2413 2481 
Q 2819 2388 3044 2092 
Q 3269 1797 3269 1353 
Q 3269 753 2831 336 
Q 2394 -81 1725 -81 
Q 1122 -81 723 278 
Q 325 638 269 1209 
z
" transform="scale(0.015625)"/>
       </defs>
       <use xlink:href="#ArialMT-30"/>
       <use xlink:href="#ArialMT-2e" transform="translate(55.615234 0)"/>
       <use xlink:href="#ArialMT-30" transform="translate(83.398438 0)"/>
       <use xlink:href="#ArialMT-30" transform="translate(139.013672 0)"/>
       <use xlink:href="#ArialMT-33" transform="translate(194.628906 0)"/>
      </g>
     </g>
    </g>
    <g id="ytick_5">
     <g id="line2d_12">
      <path d="M 56.99 157.361174 
L 450 157.361174 
" clip-path="url(#pf2d133e748)" style="fill: none; stroke: #ffffff; stroke-width: 0.8; stroke-linecap: round"/>
     </g>
     <g id="text_13">
      <!-- 0.004 -->
      <g style="fill: #262626" transform="translate(24.968125 160.940081) scale(0.1 -0.1)">
       <defs>
        <path id="ArialMT-34" d="M 2069 0 
L 2069 1097 
L 81 1097 
L 81 1613 
L 2172 4581 
L 2631 4581 
L 2631 1613 
L 3250 1613 
L 3250 1097 
L 2631 1097 
L 2631 0 
L 2069 0 
z
M 2069 1613 
L 2069 3678 
L 634 1613 
L 2069 1613 
z
" transform="scale(0.015625)"/>
       </defs>
       <use xlink:href="#ArialMT-30"/>
       <use xlink:href="#ArialMT-2e" transform="translate(55.615234 0)"/>
       <use xlink:href="#ArialMT-30" transform="translate(83.398438 0)"/>
       <use xlink:href="#ArialMT-30" transform="translate(139.013672 0)"/>
       <use xlink:href="#ArialMT-34" transform="translate(194.628906 0)"/>
      </g>
     </g>
    </g>
    <g id="ytick_6">
     <g id="line2d_13">
      <path d="M 56.99 120.791468 
L 450 120.791468 
" clip-path="url(#pf2d133e748)" style="fill: none; stroke: #ffffff; stroke-width: 0.8; stroke-linecap: round"/>
     </g>
     <g id="text_14">
      <!-- 0.005 -->
      <g style="fill: #262626" transform="translate(24.968125 124.370374) scale(0.1 -0.1)">
       <use xlink:href="#ArialMT-30"/>
       <use xlink:href="#ArialMT-2e" transform="translate(55.615234 0)"/>
       <use xlink:href="#ArialMT-30" transform="translate(83.398438 0)"/>
       <use xlink:href="#ArialMT-30" transform="translate(139.013672 0)"/>
       <use xlink:href="#ArialMT-35" transform="translate(194.628906 0)"/>
      </g>
     </g>
    </g>
    <g id="ytick_7">
     <g id="line2d_14">
      <path d="M 56.99 84.221762 
L 450 84.221762 
" clip-path="url(#pf2d133e748)" style="fill: none; stroke: #ffffff; stroke-width: 0.8; stroke-linecap: round"/>
     </g>
     <g id="text_15">
      <!-- 0.006 -->
      <g style="fill: #262626" transform="translate(24.968125 87.800668) scale(0.1 -0.1)">
       <defs>
        <path id="ArialMT-36" d="M 3184 3459 
L 2625 3416 
Q 2550 3747 2413 3897 
Q 2184 4138 1850 4138 
Q 1581 4138 1378 3988 
Q 1113 3794 959 3422 
Q 806 3050 800 2363 
Q 1003 2672 1297 2822 
Q 1591 2972 1913 2972 
Q 2475 2972 2870 2558 
Q 3266 2144 3266 1488 
Q 3266 1056 3080 686 
Q 2894 316 2569 119 
Q 2244 -78 1831 -78 
Q 1128 -78 684 439 
Q 241 956 241 2144 
Q 241 3472 731 4075 
Q 1159 4600 1884 4600 
Q 2425 4600 2770 4297 
Q 3116 3994 3184 3459 
z
M 888 1484 
Q 888 1194 1011 928 
Q 1134 663 1356 523 
Q 1578 384 1822 384 
Q 2178 384 2434 671 
Q 2691 959 2691 1453 
Q 2691 1928 2437 2201 
Q 2184 2475 1800 2475 
Q 1419 2475 1153 2201 
Q 888 1928 888 1484 
z
" transform="scale(0.015625)"/>
       </defs>
       <use xlink:href="#ArialMT-30"/>
       <use xlink:href="#ArialMT-2e" transform="translate(55.615234 0)"/>
       <use xlink:href="#ArialMT-30" transform="translate(83.398438 0)"/>
       <use xlink:href="#ArialMT-30" transform="translate(139.013672 0)"/>
       <use xlink:href="#ArialMT-36" transform="translate(194.628906 0)"/>
      </g>
     </g>
    </g>
    <g id="ytick_8">
     <g id="line2d_15">
      <path d="M 56.99 47.652055 
L 450 47.652055 
" clip-path="url(#pf2d133e748)" style="fill: none; stroke: #ffffff; stroke-width: 0.8; stroke-linecap: round"/>
     </g>
     <g id="text_16">
      <!-- 0.007 -->
      <g style="fill: #262626" transform="translate(24.968125 51.230961) scale(0.1 -0.1)">
       <use xlink:href="#ArialMT-30"/>
       <use xlink:href="#ArialMT-2e" transform="translate(55.615234 0)"/>
       <use xlink:href="#ArialMT-30" transform="translate(83.398438 0)"/>
       <use xlink:href="#ArialMT-30" transform="translate(139.013672 0)"/>
       <use xlink:href="#ArialMT-37" transform="translate(194.628906 0)"/>
      </g>
     </g>
    </g>
    <g id="text_17">
     <!-- Density -->
     <g style="fill: #262626" transform="translate(18.863438 181.24) rotate(-90) scale(0.1 -0.1)">
      <defs>
       <path id="ArialMT-44" d="M 494 0 
L 494 4581 
L 2072 4581 
Q 2606 4581 2888 4516 
Q 3281 4425 3559 4188 
Q 3922 3881 4101 3404 
Q 4281 2928 4281 2316 
Q 4281 1794 4159 1391 
Q 4038 988 3847 723 
Q 3656 459 3429 307 
Q 3203 156 2883 78 
Q 2563 0 2147 0 
L 494 0 
z
M 1100 541 
L 2078 541 
Q 2531 541 2789 625 
Q 3047 709 3200 863 
Q 3416 1078 3536 1442 
Q 3656 1806 3656 2325 
Q 3656 3044 3420 3430 
Q 3184 3816 2847 3947 
Q 2603 4041 2063 4041 
L 1100 4041 
L 1100 541 
z
" transform="scale(0.015625)"/>
       <path id="ArialMT-65" d="M 2694 1069 
L 3275 997 
Q 3138 488 2766 206 
Q 2394 -75 1816 -75 
Q 1088 -75 661 373 
Q 234 822 234 1631 
Q 234 2469 665 2931 
Q 1097 3394 1784 3394 
Q 2450 3394 2872 2941 
Q 3294 2488 3294 1666 
Q 3294 1616 3291 1516 
L 816 1516 
Q 847 969 1125 678 
Q 1403 388 1819 388 
Q 2128 388 2347 550 
Q 2566 713 2694 1069 
z
M 847 1978 
L 2700 1978 
Q 2663 2397 2488 2606 
Q 2219 2931 1791 2931 
Q 1403 2931 1139 2672 
Q 875 2413 847 1978 
z
" transform="scale(0.015625)"/>
       <path id="ArialMT-73" d="M 197 991 
L 753 1078 
Q 800 744 1014 566 
Q 1228 388 1613 388 
Q 2000 388 2187 545 
Q 2375 703 2375 916 
Q 2375 1106 2209 1216 
Q 2094 1291 1634 1406 
Q 1016 1563 777 1677 
Q 538 1791 414 1992 
Q 291 2194 291 2438 
Q 291 2659 392 2848 
Q 494 3038 669 3163 
Q 800 3259 1026 3326 
Q 1253 3394 1513 3394 
Q 1903 3394 2198 3281 
Q 2494 3169 2634 2976 
Q 2775 2784 2828 2463 
L 2278 2388 
Q 2241 2644 2061 2787 
Q 1881 2931 1553 2931 
Q 1166 2931 1000 2803 
Q 834 2675 834 2503 
Q 834 2394 903 2306 
Q 972 2216 1119 2156 
Q 1203 2125 1616 2013 
Q 2213 1853 2448 1751 
Q 2684 1650 2818 1456 
Q 2953 1263 2953 975 
Q 2953 694 2789 445 
Q 2625 197 2315 61 
Q 2006 -75 1616 -75 
Q 969 -75 630 194 
Q 291 463 197 991 
z
" transform="scale(0.015625)"/>
       <path id="ArialMT-79" d="M 397 -1278 
L 334 -750 
Q 519 -800 656 -800 
Q 844 -800 956 -737 
Q 1069 -675 1141 -563 
Q 1194 -478 1313 -144 
Q 1328 -97 1363 -6 
L 103 3319 
L 709 3319 
L 1400 1397 
Q 1534 1031 1641 628 
Q 1738 1016 1872 1384 
L 2581 3319 
L 3144 3319 
L 1881 -56 
Q 1678 -603 1566 -809 
Q 1416 -1088 1222 -1217 
Q 1028 -1347 759 -1347 
Q 597 -1347 397 -1278 
z
" transform="scale(0.015625)"/>
      </defs>
      <use xlink:href="#ArialMT-44"/>
      <use xlink:href="#ArialMT-65" transform="translate(72.216797 0)"/>
      <use xlink:href="#ArialMT-6e" transform="translate(127.832031 0)"/>
      <use xlink:href="#ArialMT-73" transform="translate(183.447266 0)"/>
      <use xlink:href="#ArialMT-69" transform="translate(233.447266 0)"/>
      <use xlink:href="#ArialMT-74" transform="translate(255.664062 0)"/>
      <use xlink:href="#ArialMT-79" transform="translate(283.447266 0)"/>
     </g>
    </g>
   </g>
   <g id="line2d_16">
    <path d="M 74.854091 303.628385 
L 89.217179 303.476483 
L 96.398723 303.169284 
L 101.784881 302.705004 
L 105.375653 302.231149 
L 108.966425 301.591712 
L 112.557197 300.760695 
L 116.147969 299.718249 
L 119.738741 298.453266 
L 123.329513 296.965335 
L 126.920286 295.265952 
L 132.306444 292.375903 
L 137.692602 289.196319 
L 148.464918 282.696757 
L 153.851076 279.755956 
L 157.441848 278.009722 
L 161.03262 276.459868 
L 164.623392 275.109788 
L 168.214164 273.948243 
L 173.600322 272.506494 
L 178.98648 271.325568 
L 209.508042 265.142546 
L 214.894201 264.121206 
L 220.280359 263.327942 
L 225.666517 262.823738 
L 231.052675 262.590174 
L 240.029605 262.52537 
L 252.597307 262.392723 
L 259.778851 262.359371 
L 265.165009 262.505694 
L 270.551167 262.853679 
L 275.937325 263.408387 
L 281.323483 264.161076 
L 286.709641 265.109954 
L 292.095799 266.255645 
L 299.277344 268.047281 
L 313.640432 271.771554 
L 319.02659 272.904732 
L 335.185064 276.018143 
L 338.775836 277.066451 
L 342.366608 278.383346 
L 345.95738 279.9873 
L 349.548152 281.858012 
L 354.93431 285.033111 
L 365.706626 291.617309 
L 369.297398 293.579998 
L 372.88817 295.342119 
L 376.478942 296.888534 
L 380.069714 298.222253 
L 383.660487 299.35737 
L 387.251259 300.312579 
L 392.637417 301.448862 
L 398.023575 302.278565 
L 403.409733 302.851796 
L 408.795891 303.219525 
L 415.977435 303.48228 
L 426.749751 303.614112 
L 432.135909 303.631067 
L 432.135909 303.631067 
" clip-path="url(#pf2d133e748)" style="fill: none; stroke: #2b232b; stroke-width: 1.5; stroke-linecap: round"/>
   </g>
   <g id="line2d_17">
    <path d="M 117.254504 303.632287 
L 129.32968 303.490987 
L 134.696425 303.218487 
L 138.721484 302.802907 
L 141.404856 302.368852 
L 144.088229 301.764909 
L 146.771601 300.948177 
L 149.454973 299.874405 
L 152.138346 298.502699 
L 154.821718 296.801808 
L 157.505091 294.75698 
L 160.188463 292.375765 
L 162.871836 289.691034 
L 166.896894 285.225573 
L 177.630384 272.74783 
L 180.313756 269.947077 
L 182.997129 267.397188 
L 185.680501 265.13034 
L 188.363873 263.159927 
L 191.047246 261.48054 
L 193.730618 260.068939 
L 196.413991 258.886469 
L 200.439049 257.431393 
L 207.14748 255.402283 
L 213.855911 253.3267 
L 224.589401 249.919699 
L 228.61446 248.990269 
L 231.297832 248.571525 
L 233.981205 248.325468 
L 238.006263 248.252155 
L 242.031322 248.444594 
L 250.081439 249.156942 
L 259.473243 249.909155 
L 278.256849 251.214918 
L 282.281908 251.826365 
L 286.306967 252.672073 
L 290.332025 253.754193 
L 294.357084 255.055204 
L 298.382143 256.571505 
L 302.407201 258.350744 
L 305.090574 259.737444 
L 307.773946 261.33733 
L 310.457318 263.195782 
L 313.140691 265.345538 
L 315.824063 267.795494 
L 318.507436 270.523535 
L 322.532494 275.011945 
L 331.924298 285.810444 
L 334.60767 288.60425 
L 337.291043 291.166434 
L 339.974415 293.471609 
L 342.657787 295.507816 
L 345.34116 297.272338 
L 348.024532 298.769228 
L 350.707905 300.008614 
L 353.391277 301.006907 
L 356.07465 301.786764 
L 358.758022 302.376092 
L 362.783081 302.971192 
L 366.808139 303.312981 
L 372.174884 303.529481 
L 381.566688 303.628817 
L 384.25006 303.634736 
L 384.25006 303.634736 
" clip-path="url(#pf2d133e748)" style="fill: none; stroke: #391d39; stroke-width: 1.5; stroke-linecap: round"/>
   </g>
   <g id="line2d_18">
    <path d="M 155.657061 303.62994 
L 162.541888 303.516722 
L 166.476075 303.222669 
L 168.443168 302.913331 
L 170.410262 302.419529 
L 172.377355 301.662196 
L 174.344448 300.546943 
L 176.311542 298.971147 
L 178.278635 296.836398 
L 180.245729 294.065552 
L 182.212822 290.621726 
L 184.179916 286.525113 
L 186.147009 281.862923 
L 189.097649 274.160869 
L 193.031836 263.740133 
L 194.99893 259.005962 
L 196.966023 254.865103 
L 198.933116 251.453004 
L 199.916663 250.041579 
L 200.90021 248.827456 
L 201.883757 247.804672 
L 202.867303 246.962216 
L 203.85085 246.284455 
L 205.817944 245.341299 
L 207.785037 244.785586 
L 212.702771 243.773735 
L 214.669864 243.115986 
L 216.636957 242.211583 
L 218.604051 241.085031 
L 222.538238 238.481684 
L 225.488878 236.595426 
L 227.455971 235.508417 
L 229.423065 234.600498 
L 231.390158 233.879144 
L 233.357252 233.332989 
L 236.307892 232.784676 
L 244.176266 231.733174 
L 246.143359 231.200465 
L 248.110453 230.453629 
L 251.061093 228.980054 
L 254.99528 226.928776 
L 256.962373 226.261616 
L 257.94592 226.101043 
L 258.929467 226.081912 
L 259.913013 226.218216 
L 260.89656 226.518258 
L 261.880107 226.983991 
L 262.863653 227.610713 
L 264.830747 229.29593 
L 266.79784 231.415698 
L 271.715574 237.11158 
L 273.682667 238.968964 
L 275.649761 240.373682 
L 277.616854 241.30287 
L 279.583948 241.818254 
L 281.551041 242.044812 
L 286.468775 242.392306 
L 288.435868 242.829696 
L 290.402962 243.60166 
L 292.370055 244.778304 
L 294.337149 246.411038 
L 296.304242 248.540064 
L 298.271335 251.195622 
L 300.238429 254.391358 
L 302.205522 258.112053 
L 304.172616 262.300939 
L 307.123256 269.219041 
L 312.04099 281.046151 
L 314.008083 285.348711 
L 315.975176 289.185056 
L 317.94227 292.474043 
L 319.909363 295.190222 
L 321.876457 297.357166 
L 323.84355 299.03412 
L 325.810644 300.299988 
L 327.777737 301.238426 
L 329.744831 301.926642 
L 332.695471 302.626527 
L 335.646111 303.061106 
L 339.580298 303.388592 
L 344.498031 303.567407 
L 351.382859 303.632026 
L 351.382859 303.632026 
" clip-path="url(#pf2d133e748)" style="fill: none; stroke: #471747; stroke-width: 1.5; stroke-linecap: round"/>
   </g>
   <g id="line2d_19">
    <path d="M 177.085539 303.622372 
L 181.460754 303.490043 
L 183.648362 303.261231 
L 185.106767 302.973165 
L 186.565173 302.513154 
L 188.023578 301.810981 
L 189.481983 300.786154 
L 190.940388 299.35536 
L 192.398793 297.443345 
L 193.857199 294.995522 
L 195.315604 291.989455 
L 196.774009 288.441836 
L 198.232414 284.408213 
L 200.420022 277.639305 
L 203.336833 267.797692 
L 212.816467 235.160064 
L 215.004074 228.714726 
L 216.46248 225.088818 
L 217.920885 222.154379 
L 219.37929 219.985573 
L 220.108493 219.189589 
L 220.837695 218.575068 
L 221.566898 218.126737 
L 222.296101 217.824218 
L 223.754506 217.55555 
L 225.942114 217.569726 
L 227.400519 217.552565 
L 228.858924 217.349002 
L 230.317329 216.91438 
L 232.504937 215.924273 
L 236.880153 213.787682 
L 240.526166 212.181868 
L 241.984571 211.34846 
L 243.442976 210.316414 
L 245.630584 208.454321 
L 247.818192 206.564187 
L 249.276597 205.584778 
L 250.0058 205.250286 
L 250.735003 205.046218 
L 251.464205 204.987879 
L 252.193408 205.085518 
L 252.92261 205.343702 
L 253.651813 205.760988 
L 255.110218 207.037312 
L 256.568623 208.789892 
L 261.673042 215.677644 
L 263.131447 217.008255 
L 263.86065 217.47991 
L 264.589852 217.815575 
L 265.319055 218.016329 
L 266.048257 218.087975 
L 267.506663 217.887969 
L 268.965068 217.336075 
L 274.069486 214.910431 
L 275.527891 214.679485 
L 276.257094 214.713138 
L 276.986297 214.8611 
L 277.715499 215.1338 
L 278.444702 215.541378 
L 279.173904 216.093855 
L 279.903107 216.801185 
L 280.63231 217.673187 
L 282.090715 219.948453 
L 283.54912 222.984861 
L 285.007525 226.821826 
L 286.465931 231.456541 
L 287.924336 236.83059 
L 290.111944 246.000494 
L 296.674767 275.024324 
L 298.133172 280.466751 
L 299.591578 285.255207 
L 301.049983 289.354154 
L 302.508388 292.772759 
L 303.966793 295.553463 
L 305.425199 297.760253 
L 306.883604 299.468484 
L 308.342009 300.757043 
L 309.800414 301.702798 
L 311.258819 302.376903 
L 312.717225 302.842483 
L 314.904833 303.264915 
L 317.821643 303.51958 
L 322.196859 303.623855 
L 322.196859 303.623855 
" clip-path="url(#pf2d133e748)" style="fill: none; stroke: #551255; stroke-width: 1.5; stroke-linecap: round"/>
   </g>
   <g id="line2d_20">
    <path d="M 193.090867 303.623382 
L 196.553868 303.494798 
L 198.285368 303.267048 
L 199.439702 302.975012 
L 200.594035 302.50037 
L 201.748369 301.761333 
L 202.902702 300.658272 
L 204.057036 299.07877 
L 205.211369 296.90664 
L 206.365703 294.034016 
L 207.520036 290.374684 
L 208.67437 285.876343 
L 209.828703 280.529917 
L 211.560204 271.021187 
L 213.291704 260.056663 
L 218.486205 225.37902 
L 220.217705 215.991022 
L 221.372039 210.840877 
L 222.526372 206.582557 
L 223.680706 203.116161 
L 224.835039 200.281561 
L 226.56654 196.833907 
L 228.29804 193.96042 
L 230.02954 191.491611 
L 231.76104 189.488313 
L 232.915374 188.46376 
L 234.069707 187.693187 
L 235.224041 187.143709 
L 236.955541 186.599945 
L 240.995709 185.513749 
L 243.881542 184.386747 
L 246.190209 183.570658 
L 247.344543 183.332868 
L 248.498876 183.258359 
L 249.65321 183.35312 
L 251.38471 183.755605 
L 257.733545 185.646689 
L 260.042212 186.323356 
L 261.773712 187.057326 
L 263.505212 188.023469 
L 265.813879 189.562314 
L 268.122546 191.303995 
L 269.854047 192.907695 
L 271.00838 194.275745 
L 272.162714 196.010002 
L 273.317047 198.221198 
L 274.471381 201.010315 
L 275.625714 204.462248 
L 276.780048 208.641385 
L 277.934381 213.586017 
L 279.088715 219.299443 
L 280.820215 229.2008 
L 283.128882 244.199832 
L 286.591883 266.967475 
L 288.323383 276.758838 
L 289.477717 282.334612 
L 290.63205 287.088484 
L 291.786384 291.035728 
L 292.940717 294.23435 
L 294.095051 296.767872 
L 295.249384 298.730597 
L 296.403718 300.217142 
L 297.558051 301.316222 
L 298.712385 302.107606 
L 299.866718 302.660941 
L 301.598219 303.171335 
L 303.329719 303.433819 
L 306.215553 303.597256 
L 307.947053 303.625417 
L 307.947053 303.625417 
" clip-path="url(#pf2d133e748)" style="fill: none; stroke: #640c64; stroke-width: 1.5; stroke-linecap: round"/>
   </g>
   <g id="line2d_21">
    <path d="M 204.802769 303.627963 
L 207.854061 303.51171 
L 209.597656 303.263342 
L 210.905352 302.887864 
L 212.213048 302.261189 
L 213.084846 301.654732 
L 213.956643 300.85263 
L 214.828441 299.801936 
L 215.700238 298.429301 
L 216.572036 296.634239 
L 217.443833 294.28453 
L 218.315631 291.216284 
L 219.187428 287.241392 
L 220.059226 282.164978 
L 220.931023 275.814274 
L 221.802821 268.077433 
L 223.110517 253.89233 
L 224.854112 231.250232 
L 227.469505 196.365792 
L 228.777201 181.945889 
L 230.084897 170.621821 
L 230.956695 164.678699 
L 232.264391 157.570685 
L 233.572087 151.821224 
L 234.879783 146.882127 
L 236.18748 142.804443 
L 237.059277 140.786541 
L 237.931075 139.492918 
L 238.366973 139.139222 
L 238.802872 138.977153 
L 239.238771 138.992678 
L 239.67467 139.16267 
L 240.546467 139.832905 
L 241.854163 141.023635 
L 242.290062 141.288787 
L 242.725961 141.421101 
L 243.16186 141.391254 
L 243.597758 141.180234 
L 244.033657 140.78079 
L 244.905455 139.450074 
L 246.213151 136.555201 
L 247.520847 133.702285 
L 248.392645 132.502244 
L 248.828544 132.227128 
L 249.264442 132.191789 
L 249.700341 132.394727 
L 250.13624 132.81863 
L 251.008037 134.187067 
L 252.751632 137.48576 
L 253.62343 138.515852 
L 254.059329 138.742011 
L 254.495227 138.763331 
L 254.931126 138.59133 
L 255.802924 137.785717 
L 257.546519 135.619499 
L 258.418316 134.999716 
L 258.854215 134.913095 
L 259.290114 134.987211 
L 259.726012 135.217357 
L 260.59781 136.085094 
L 261.469607 137.349822 
L 262.777304 139.639093 
L 264.085 142.292717 
L 264.956797 144.503453 
L 265.828595 147.41124 
L 266.700392 151.363167 
L 267.57219 156.665672 
L 268.443988 163.516329 
L 269.315785 171.962692 
L 270.623481 187.338801 
L 272.367076 211.268668 
L 274.982469 247.497368 
L 276.290165 262.780884 
L 277.597861 275.103859 
L 278.469659 281.62207 
L 279.341456 286.891418 
L 280.213254 291.071765 
L 281.085051 294.342162 
L 281.956849 296.873137 
L 282.828646 298.81146 
L 283.700444 300.276355 
L 284.572241 301.363085 
L 285.444039 302.149178 
L 286.315836 302.699844 
L 287.623533 303.204699 
L 288.931229 303.458213 
L 291.110723 303.606968 
L 291.546622 303.617421 
L 291.546622 303.617421 
" clip-path="url(#pf2d133e748)" style="fill: none; stroke: #720672; stroke-width: 1.5; stroke-linecap: round"/>
   </g>
   <g id="line2d_22">
    <path d="M 222.02538 303.614215 
L 223.419121 303.484706 
L 224.255366 303.246741 
L 225.091611 302.742852 
L 225.649107 302.167024 
L 226.206604 301.315243 
L 226.7641 300.098752 
L 227.321597 298.409085 
L 227.879094 296.108642 
L 228.43659 293.017344 
L 228.994087 288.900415 
L 229.551583 283.467013 
L 230.10908 276.39142 
L 230.945325 262.047434 
L 231.781569 242.79787 
L 232.896562 210.673402 
L 235.126549 143.282984 
L 236.241542 115.925538 
L 237.635283 86.725014 
L 238.750276 66.626311 
L 239.586521 55.006605 
L 240.144018 49.6356 
L 240.701514 46.353828 
L 240.980262 45.462581 
L 241.259011 45.01889 
L 241.537759 44.965553 
L 241.816507 45.23465 
L 242.374004 46.43777 
L 243.488997 49.439839 
L 244.046493 50.332376 
L 244.325242 50.521632 
L 244.60399 50.534504 
L 244.882738 50.381397 
L 245.440235 49.659786 
L 246.276479 47.946267 
L 248.506466 43.143067 
L 250.178955 39.857235 
L 250.736452 39.086693 
L 251.293948 38.74094 
L 251.572697 38.773785 
L 251.851445 38.959512 
L 252.408941 39.797404 
L 252.966438 41.197146 
L 254.081431 44.967409 
L 255.196424 48.586842 
L 256.311417 51.264943 
L 257.147662 53.200883 
L 257.705159 54.939662 
L 258.262655 57.393052 
L 258.820152 60.859021 
L 259.377648 65.605116 
L 259.935145 71.849031 
L 260.77139 84.313954 
L 261.607634 100.50252 
L 262.722627 126.831993 
L 266.903852 232.159445 
L 268.018845 254.342424 
L 269.133838 272.173739 
L 269.970083 282.389391 
L 270.806327 289.999603 
L 271.642572 295.349775 
L 272.478817 298.898569 
L 273.036314 300.494761 
L 273.59381 301.622933 
L 274.151307 302.393255 
L 274.708803 302.899485 
L 275.545048 303.327278 
L 276.660041 303.555772 
L 277.496286 303.612337 
L 277.496286 303.612337 
" clip-path="url(#pf2d133e748)" style="fill: none; stroke: #800080; stroke-width: 1.5; stroke-linecap: round"/>
   </g>
   <g id="patch_3">
    <path d="M 56.99 303.64 
L 56.99 25.49625 
" style="fill: none; stroke: #ffffff; stroke-width: 0.8; stroke-linejoin: miter; stroke-linecap: square"/>
   </g>
   <g id="patch_4">
    <path d="M 450 303.64 
L 450 25.49625 
" style="fill: none; stroke: #ffffff; stroke-width: 0.8; stroke-linejoin: miter; stroke-linecap: square"/>
   </g>
   <g id="patch_5">
    <path d="M 56.99 303.64 
L 450 303.64 
" style="fill: none; stroke: #ffffff; stroke-width: 0.8; stroke-linejoin: miter; stroke-linecap: square"/>
   </g>
   <g id="patch_6">
    <path d="M 56.99 25.49625 
L 450 25.49625 
" style="fill: none; stroke: #ffffff; stroke-width: 0.8; stroke-linejoin: miter; stroke-linecap: square"/>
   </g>
   <g id="text_18">
    <!-- Elo ratings distributions of p_deterministic games -->
    <g style="fill: #262626" transform="translate(123.108438 19.49625) scale(0.12 -0.12)">
     <defs>
      <path id="ArialMT-64" d="M 2575 0 
L 2575 419 
Q 2259 -75 1647 -75 
Q 1250 -75 917 144 
Q 584 363 401 755 
Q 219 1147 219 1656 
Q 219 2153 384 2558 
Q 550 2963 881 3178 
Q 1213 3394 1622 3394 
Q 1922 3394 2156 3267 
Q 2391 3141 2538 2938 
L 2538 4581 
L 3097 4581 
L 3097 0 
L 2575 0 
z
M 797 1656 
Q 797 1019 1065 703 
Q 1334 388 1700 388 
Q 2069 388 2326 689 
Q 2584 991 2584 1609 
Q 2584 2291 2321 2609 
Q 2059 2928 1675 2928 
Q 1300 2928 1048 2622 
Q 797 2316 797 1656 
z
" transform="scale(0.015625)"/>
      <path id="ArialMT-62" d="M 941 0 
L 419 0 
L 419 4581 
L 981 4581 
L 981 2947 
Q 1338 3394 1891 3394 
Q 2197 3394 2470 3270 
Q 2744 3147 2920 2923 
Q 3097 2700 3197 2384 
Q 3297 2069 3297 1709 
Q 3297 856 2875 390 
Q 2453 -75 1863 -75 
Q 1275 -75 941 416 
L 941 0 
z
M 934 1684 
Q 934 1088 1097 822 
Q 1363 388 1816 388 
Q 2184 388 2453 708 
Q 2722 1028 2722 1663 
Q 2722 2313 2464 2622 
Q 2206 2931 1841 2931 
Q 1472 2931 1203 2611 
Q 934 2291 934 1684 
z
" transform="scale(0.015625)"/>
      <path id="ArialMT-75" d="M 2597 0 
L 2597 488 
Q 2209 -75 1544 -75 
Q 1250 -75 995 37 
Q 741 150 617 320 
Q 494 491 444 738 
Q 409 903 409 1263 
L 409 3319 
L 972 3319 
L 972 1478 
Q 972 1038 1006 884 
Q 1059 663 1231 536 
Q 1403 409 1656 409 
Q 1909 409 2131 539 
Q 2353 669 2445 892 
Q 2538 1116 2538 1541 
L 2538 3319 
L 3100 3319 
L 3100 0 
L 2597 0 
z
" transform="scale(0.015625)"/>
      <path id="ArialMT-66" d="M 556 0 
L 556 2881 
L 59 2881 
L 59 3319 
L 556 3319 
L 556 3672 
Q 556 4006 616 4169 
Q 697 4388 901 4523 
Q 1106 4659 1475 4659 
Q 1713 4659 2000 4603 
L 1916 4113 
Q 1741 4144 1584 4144 
Q 1328 4144 1222 4034 
Q 1116 3925 1116 3625 
L 1116 3319 
L 1763 3319 
L 1763 2881 
L 1116 2881 
L 1116 0 
L 556 0 
z
" transform="scale(0.015625)"/>
      <path id="ArialMT-70" d="M 422 -1272 
L 422 3319 
L 934 3319 
L 934 2888 
Q 1116 3141 1344 3267 
Q 1572 3394 1897 3394 
Q 2322 3394 2647 3175 
Q 2972 2956 3137 2557 
Q 3303 2159 3303 1684 
Q 3303 1175 3120 767 
Q 2938 359 2589 142 
Q 2241 -75 1856 -75 
Q 1575 -75 1351 44 
Q 1128 163 984 344 
L 984 -1272 
L 422 -1272 
z
M 931 1641 
Q 931 1000 1190 694 
Q 1450 388 1819 388 
Q 2194 388 2461 705 
Q 2728 1022 2728 1688 
Q 2728 2322 2467 2637 
Q 2206 2953 1844 2953 
Q 1484 2953 1207 2617 
Q 931 2281 931 1641 
z
" transform="scale(0.015625)"/>
      <path id="ArialMT-5f" d="M -97 -1272 
L -97 -866 
L 3631 -866 
L 3631 -1272 
L -97 -1272 
z
" transform="scale(0.015625)"/>
      <path id="ArialMT-6d" d="M 422 0 
L 422 3319 
L 925 3319 
L 925 2853 
Q 1081 3097 1340 3245 
Q 1600 3394 1931 3394 
Q 2300 3394 2536 3241 
Q 2772 3088 2869 2813 
Q 3263 3394 3894 3394 
Q 4388 3394 4653 3120 
Q 4919 2847 4919 2278 
L 4919 0 
L 4359 0 
L 4359 2091 
Q 4359 2428 4304 2576 
Q 4250 2725 4106 2815 
Q 3963 2906 3769 2906 
Q 3419 2906 3187 2673 
Q 2956 2441 2956 1928 
L 2956 0 
L 2394 0 
L 2394 2156 
Q 2394 2531 2256 2718 
Q 2119 2906 1806 2906 
Q 1569 2906 1367 2781 
Q 1166 2656 1075 2415 
Q 984 2175 984 1722 
L 984 0 
L 422 0 
z
" transform="scale(0.015625)"/>
      <path id="ArialMT-63" d="M 2588 1216 
L 3141 1144 
Q 3050 572 2676 248 
Q 2303 -75 1759 -75 
Q 1078 -75 664 370 
Q 250 816 250 1647 
Q 250 2184 428 2587 
Q 606 2991 970 3192 
Q 1334 3394 1763 3394 
Q 2303 3394 2647 3120 
Q 2991 2847 3088 2344 
L 2541 2259 
Q 2463 2594 2264 2762 
Q 2066 2931 1784 2931 
Q 1359 2931 1093 2626 
Q 828 2322 828 1663 
Q 828 994 1084 691 
Q 1341 388 1753 388 
Q 2084 388 2306 591 
Q 2528 794 2588 1216 
z
" transform="scale(0.015625)"/>
     </defs>
     <use xlink:href="#ArialMT-45"/>
     <use xlink:href="#ArialMT-6c" transform="translate(66.699219 0)"/>
     <use xlink:href="#ArialMT-6f" transform="translate(88.916016 0)"/>
     <use xlink:href="#ArialMT-20" transform="translate(144.53125 0)"/>
     <use xlink:href="#ArialMT-72" transform="translate(172.314453 0)"/>
     <use xlink:href="#ArialMT-61" transform="translate(205.615234 0)"/>
     <use xlink:href="#ArialMT-74" transform="translate(261.230469 0)"/>
     <use xlink:href="#ArialMT-69" transform="translate(289.013672 0)"/>
     <use xlink:href="#ArialMT-6e" transform="translate(311.230469 0)"/>
     <use xlink:href="#ArialMT-67" transform="translate(366.845703 0)"/>
     <use xlink:href="#ArialMT-73" transform="translate(422.460938 0)"/>
     <use xlink:href="#ArialMT-20" transform="translate(472.460938 0)"/>
     <use xlink:href="#ArialMT-64" transform="translate(500.244141 0)"/>
     <use xlink:href="#ArialMT-69" transform="translate(555.859375 0)"/>
     <use xlink:href="#ArialMT-73" transform="translate(578.076172 0)"/>
     <use xlink:href="#ArialMT-74" transform="translate(628.076172 0)"/>
     <use xlink:href="#ArialMT-72" transform="translate(655.859375 0)"/>
     <use xlink:href="#ArialMT-69" transform="translate(689.160156 0)"/>
     <use xlink:href="#ArialMT-62" transform="translate(711.376953 0)"/>
     <use xlink:href="#ArialMT-75" transform="translate(766.992188 0)"/>
     <use xlink:href="#ArialMT-74" transform="translate(822.607422 0)"/>
     <use xlink:href="#ArialMT-69" transform="translate(850.390625 0)"/>
     <use xlink:href="#ArialMT-6f" transform="translate(872.607422 0)"/>
     <use xlink:href="#ArialMT-6e" transform="translate(928.222656 0)"/>
     <use xlink:href="#ArialMT-73" transform="translate(983.837891 0)"/>
     <use xlink:href="#ArialMT-20" transform="translate(1033.837891 0)"/>
     <use xlink:href="#ArialMT-6f" transform="translate(1061.621094 0)"/>
     <use xlink:href="#ArialMT-66" transform="translate(1117.236328 0)"/>
     <use xlink:href="#ArialMT-20" transform="translate(1145.019531 0)"/>
     <use xlink:href="#ArialMT-70" transform="translate(1172.802734 0)"/>
     <use xlink:href="#ArialMT-5f" transform="translate(1228.417969 0)"/>
     <use xlink:href="#ArialMT-64" transform="translate(1284.033203 0)"/>
     <use xlink:href="#ArialMT-65" transform="translate(1339.648438 0)"/>
     <use xlink:href="#ArialMT-74" transform="translate(1395.263672 0)"/>
     <use xlink:href="#ArialMT-65" transform="translate(1423.046875 0)"/>
     <use xlink:href="#ArialMT-72" transform="translate(1478.662109 0)"/>
     <use xlink:href="#ArialMT-6d" transform="translate(1511.962891 0)"/>
     <use xlink:href="#ArialMT-69" transform="translate(1595.263672 0)"/>
     <use xlink:href="#ArialMT-6e" transform="translate(1617.480469 0)"/>
     <use xlink:href="#ArialMT-69" transform="translate(1673.095703 0)"/>
     <use xlink:href="#ArialMT-73" transform="translate(1695.3125 0)"/>
     <use xlink:href="#ArialMT-74" transform="translate(1745.3125 0)"/>
     <use xlink:href="#ArialMT-69" transform="translate(1773.095703 0)"/>
     <use xlink:href="#ArialMT-63" transform="translate(1795.3125 0)"/>
     <use xlink:href="#ArialMT-20" transform="translate(1845.3125 0)"/>
     <use xlink:href="#ArialMT-67" transform="translate(1873.095703 0)"/>
     <use xlink:href="#ArialMT-61" transform="translate(1928.710938 0)"/>
     <use xlink:href="#ArialMT-6d" transform="translate(1984.326172 0)"/>
     <use xlink:href="#ArialMT-65" transform="translate(2067.626953 0)"/>
     <use xlink:href="#ArialMT-73" transform="translate(2123.242188 0)"/>
    </g>
   </g>
   <g id="legend_1">
    <g id="patch_7">
     <path d="M 371.753125 146.65875 
L 443 146.65875 
Q 445 146.65875 445 144.65875 
L 445 32.49625 
Q 445 30.49625 443 30.49625 
L 371.753125 30.49625 
Q 369.753125 30.49625 369.753125 32.49625 
L 369.753125 144.65875 
Q 369.753125 146.65875 371.753125 146.65875 
z
" style="fill: #eaeaf2; opacity: 0.8; stroke: #cccccc; stroke-linejoin: miter"/>
    </g>
    <g id="text_19">
     <!-- p_deterministic -->
     <g style="fill: #262626" transform="translate(373.753125 41.654063) scale(0.1 -0.1)">
      <use xlink:href="#ArialMT-70"/>
      <use xlink:href="#ArialMT-5f" transform="translate(55.615234 0)"/>
      <use xlink:href="#ArialMT-64" transform="translate(111.230469 0)"/>
      <use xlink:href="#ArialMT-65" transform="translate(166.845703 0)"/>
      <use xlink:href="#ArialMT-74" transform="translate(222.460938 0)"/>
      <use xlink:href="#ArialMT-65" transform="translate(250.244141 0)"/>
      <use xlink:href="#ArialMT-72" transform="translate(305.859375 0)"/>
      <use xlink:href="#ArialMT-6d" transform="translate(339.160156 0)"/>
      <use xlink:href="#ArialMT-69" transform="translate(422.460938 0)"/>
      <use xlink:href="#ArialMT-6e" transform="translate(444.677734 0)"/>
      <use xlink:href="#ArialMT-69" transform="translate(500.292969 0)"/>
      <use xlink:href="#ArialMT-73" transform="translate(522.509766 0)"/>
      <use xlink:href="#ArialMT-74" transform="translate(572.509766 0)"/>
      <use xlink:href="#ArialMT-69" transform="translate(600.292969 0)"/>
      <use xlink:href="#ArialMT-63" transform="translate(622.509766 0)"/>
     </g>
    </g>
    <g id="line2d_23">
     <path d="M 386.426562 52.299375 
L 396.426562 52.299375 
L 406.426562 52.299375 
" style="fill: none; stroke: #800080; stroke-width: 1.5; stroke-linecap: round"/>
    </g>
    <g id="text_20">
     <!-- 0.2 -->
     <g style="fill: #262626" transform="translate(414.426562 55.799375) scale(0.1 -0.1)">
      <use xlink:href="#ArialMT-30"/>
      <use xlink:href="#ArialMT-2e" transform="translate(55.615234 0)"/>
      <use xlink:href="#ArialMT-32" transform="translate(83.398438 0)"/>
     </g>
    </g>
    <g id="line2d_24">
     <path d="M 386.426562 66.444687 
L 396.426562 66.444687 
L 406.426562 66.444687 
" style="fill: none; stroke: #720672; stroke-width: 1.5; stroke-linecap: round"/>
    </g>
    <g id="text_21">
     <!-- 0.3 -->
     <g style="fill: #262626" transform="translate(414.426562 69.944687) scale(0.1 -0.1)">
      <use xlink:href="#ArialMT-30"/>
      <use xlink:href="#ArialMT-2e" transform="translate(55.615234 0)"/>
      <use xlink:href="#ArialMT-33" transform="translate(83.398438 0)"/>
     </g>
    </g>
    <g id="line2d_25">
     <path d="M 386.426562 80.59 
L 396.426562 80.59 
L 406.426562 80.59 
" style="fill: none; stroke: #640c64; stroke-width: 1.5; stroke-linecap: round"/>
    </g>
    <g id="text_22">
     <!-- 0.4 -->
     <g style="fill: #262626" transform="translate(414.426562 84.09) scale(0.1 -0.1)">
      <use xlink:href="#ArialMT-30"/>
      <use xlink:href="#ArialMT-2e" transform="translate(55.615234 0)"/>
      <use xlink:href="#ArialMT-34" transform="translate(83.398438 0)"/>
     </g>
    </g>
    <g id="line2d_26">
     <path d="M 386.426562 94.735312 
L 396.426562 94.735312 
L 406.426562 94.735312 
" style="fill: none; stroke: #551255; stroke-width: 1.5; stroke-linecap: round"/>
    </g>
    <g id="text_23">
     <!-- 0.5 -->
     <g style="fill: #262626" transform="translate(414.426562 98.235312) scale(0.1 -0.1)">
      <use xlink:href="#ArialMT-30"/>
      <use xlink:href="#ArialMT-2e" transform="translate(55.615234 0)"/>
      <use xlink:href="#ArialMT-35" transform="translate(83.398438 0)"/>
     </g>
    </g>
    <g id="line2d_27">
     <path d="M 386.426562 108.880625 
L 396.426562 108.880625 
L 406.426562 108.880625 
" style="fill: none; stroke: #471747; stroke-width: 1.5; stroke-linecap: round"/>
    </g>
    <g id="text_24">
     <!-- 0.6 -->
     <g style="fill: #262626" transform="translate(414.426562 112.380625) scale(0.1 -0.1)">
      <use xlink:href="#ArialMT-30"/>
      <use xlink:href="#ArialMT-2e" transform="translate(55.615234 0)"/>
      <use xlink:href="#ArialMT-36" transform="translate(83.398438 0)"/>
     </g>
    </g>
    <g id="line2d_28">
     <path d="M 386.426562 123.025937 
L 396.426562 123.025937 
L 406.426562 123.025937 
" style="fill: none; stroke: #391d39; stroke-width: 1.5; stroke-linecap: round"/>
    </g>
    <g id="text_25">
     <!-- 0.7 -->
     <g style="fill: #262626" transform="translate(414.426562 126.525937) scale(0.1 -0.1)">
      <use xlink:href="#ArialMT-30"/>
      <use xlink:href="#ArialMT-2e" transform="translate(55.615234 0)"/>
      <use xlink:href="#ArialMT-37" transform="translate(83.398438 0)"/>
     </g>
    </g>
    <g id="line2d_29">
     <path d="M 386.426562 137.17125 
L 396.426562 137.17125 
L 406.426562 137.17125 
" style="fill: none; stroke: #2b232b; stroke-width: 1.5; stroke-linecap: round"/>
    </g>
    <g id="text_26">
     <!-- 0.8 -->
     <g style="fill: #262626" transform="translate(414.426562 140.67125) scale(0.1 -0.1)">
      <defs>
       <path id="ArialMT-38" d="M 1131 2484 
Q 781 2613 612 2850 
Q 444 3088 444 3419 
Q 444 3919 803 4259 
Q 1163 4600 1759 4600 
Q 2359 4600 2725 4251 
Q 3091 3903 3091 3403 
Q 3091 3084 2923 2848 
Q 2756 2613 2416 2484 
Q 2838 2347 3058 2040 
Q 3278 1734 3278 1309 
Q 3278 722 2862 322 
Q 2447 -78 1769 -78 
Q 1091 -78 675 323 
Q 259 725 259 1325 
Q 259 1772 486 2073 
Q 713 2375 1131 2484 
z
M 1019 3438 
Q 1019 3113 1228 2906 
Q 1438 2700 1772 2700 
Q 2097 2700 2305 2904 
Q 2513 3109 2513 3406 
Q 2513 3716 2298 3927 
Q 2084 4138 1766 4138 
Q 1444 4138 1231 3931 
Q 1019 3725 1019 3438 
z
M 838 1322 
Q 838 1081 952 856 
Q 1066 631 1291 507 
Q 1516 384 1775 384 
Q 2178 384 2440 643 
Q 2703 903 2703 1303 
Q 2703 1709 2433 1975 
Q 2163 2241 1756 2241 
Q 1359 2241 1098 1978 
Q 838 1716 838 1322 
z
" transform="scale(0.015625)"/>
      </defs>
      <use xlink:href="#ArialMT-30"/>
      <use xlink:href="#ArialMT-2e" transform="translate(55.615234 0)"/>
      <use xlink:href="#ArialMT-38" transform="translate(83.398438 0)"/>
     </g>
    </g>
   </g>
  </g>
 </g>
 <defs>
  <clipPath id="pf2d133e748">
   <rect x="56.99" y="25.49625" width="393.01" height="278.14375"/>
  </clipPath>
 </defs>
</svg>
