<?xml version="1.0" encoding="utf-8" standalone="no"?>
<!DOCTYPE svg PUBLIC "-//W3C//DTD SVG 1.1//EN"
  "http://www.w3.org/Graphics/SVG/1.1/DTD/svg11.dtd">
<svg xmlns:xlink="http://www.w3.org/1999/xlink" width="460.8pt" height="345.6pt" viewBox="0 0 460.8 345.6" xmlns="http://www.w3.org/2000/svg" version="1.1">
 <metadata>
  <rdf:RDF xmlns:dc="http://purl.org/dc/elements/1.1/" xmlns:cc="http://creativecommons.org/ns#" xmlns:rdf="http://www.w3.org/1999/02/22-rdf-syntax-ns#">
   <cc:Work>
    <dc:type rdf:resource="http://purl.org/dc/dcmitype/StillImage"/>
    <dc:date>2025-04-18T20:49:21.076642</dc:date>
    <dc:format>image/svg+xml</dc:format>
    <dc:creator>
     <cc:Agent>
      <dc:title>Matplotlib v3.10.1, https://matplotlib.org/</dc:title>
     </cc:Agent>
    </dc:creator>
   </cc:Work>
  </rdf:RDF>
 </metadata>
 <defs>
  <style type="text/css">*{stroke-linejoin: round; stroke-linecap: butt}</style>
 </defs>
 <g id="figure_1">
  <g id="patch_1">
   <path d="M 0 345.6 
L 460.8 345.6 
L 460.8 0 
L 0 0 
z
" style="fill: #ffffff"/>
  </g>
  <g id="axes_1">
   <g id="patch_2">
    <path d="M 48.62 317.72 
L 450 317.72 
L 450 25.49625 
L 48.62 25.49625 
z
" style="fill: #eaeaf2"/>
   </g>
   <g id="matplotlib.axis_1">
    <g id="xtick_1">
     <g id="line2d_1">
      <path d="M 63.713677 317.72 
L 63.713677 25.49625 
" clip-path="url(#pb6188ae6f2)" style="fill: none; stroke: #ffffff; stroke-width: 0.8; stroke-linecap: round"/>
     </g>
     <g id="text_1">
      <!-- 2010 -->
      <g style="fill: #262626" transform="translate(52.591802 331.877812) scale(0.1 -0.1)">
       <defs>
        <path id="ArialMT-32" d="M 3222 541 
L 3222 0 
L 194 0 
Q 188 203 259 391 
Q 375 700 629 1000 
Q 884 1300 1366 1694 
Q 2113 2306 2375 2664 
Q 2638 3022 2638 3341 
Q 2638 3675 2398 3904 
Q 2159 4134 1775 4134 
Q 1369 4134 1125 3890 
Q 881 3647 878 3216 
L 300 3275 
Q 359 3922 746 4261 
Q 1134 4600 1788 4600 
Q 2447 4600 2831 4234 
Q 3216 3869 3216 3328 
Q 3216 3053 3103 2787 
Q 2991 2522 2730 2228 
Q 2469 1934 1863 1422 
Q 1356 997 1212 845 
Q 1069 694 975 541 
L 3222 541 
z
" transform="scale(0.015625)"/>
        <path id="ArialMT-30" d="M 266 2259 
Q 266 3072 433 3567 
Q 600 4063 929 4331 
Q 1259 4600 1759 4600 
Q 2128 4600 2406 4451 
Q 2684 4303 2865 4023 
Q 3047 3744 3150 3342 
Q 3253 2941 3253 2259 
Q 3253 1453 3087 958 
Q 2922 463 2592 192 
Q 2263 -78 1759 -78 
Q 1097 -78 719 397 
Q 266 969 266 2259 
z
M 844 2259 
Q 844 1131 1108 757 
Q 1372 384 1759 384 
Q 2147 384 2411 759 
Q 2675 1134 2675 2259 
Q 2675 3391 2411 3762 
Q 2147 4134 1753 4134 
Q 1366 4134 1134 3806 
Q 844 3388 844 2259 
z
" transform="scale(0.015625)"/>
        <path id="ArialMT-31" d="M 2384 0 
L 1822 0 
L 1822 3584 
Q 1619 3391 1289 3197 
Q 959 3003 697 2906 
L 697 3450 
Q 1169 3672 1522 3987 
Q 1875 4303 2022 4600 
L 2384 4600 
L 2384 0 
z
" transform="scale(0.015625)"/>
       </defs>
       <use xlink:href="#ArialMT-32"/>
       <use xlink:href="#ArialMT-30" transform="translate(55.615234 0)"/>
       <use xlink:href="#ArialMT-31" transform="translate(111.230469 0)"/>
       <use xlink:href="#ArialMT-30" transform="translate(166.845703 0)"/>
      </g>
     </g>
    </g>
    <g id="xtick_2">
     <g id="line2d_2">
      <path d="M 100.812613 317.72 
L 100.812613 25.49625 
" clip-path="url(#pb6188ae6f2)" style="fill: none; stroke: #ffffff; stroke-width: 0.8; stroke-linecap: round"/>
     </g>
     <g id="text_2">
      <!-- 2011 -->
      <g style="fill: #262626" transform="translate(90.059488 331.877812) scale(0.1 -0.1)">
       <use xlink:href="#ArialMT-32"/>
       <use xlink:href="#ArialMT-30" transform="translate(55.615234 0)"/>
       <use xlink:href="#ArialMT-31" transform="translate(111.230469 0)"/>
       <use xlink:href="#ArialMT-31" transform="translate(159.470703 0)"/>
      </g>
     </g>
    </g>
    <g id="xtick_3">
     <g id="line2d_3">
      <path d="M 137.91155 317.72 
L 137.91155 25.49625 
" clip-path="url(#pb6188ae6f2)" style="fill: none; stroke: #ffffff; stroke-width: 0.8; stroke-linecap: round"/>
     </g>
     <g id="text_3">
      <!-- 2012 -->
      <g style="fill: #262626" transform="translate(126.789675 331.877812) scale(0.1 -0.1)">
       <use xlink:href="#ArialMT-32"/>
       <use xlink:href="#ArialMT-30" transform="translate(55.615234 0)"/>
       <use xlink:href="#ArialMT-31" transform="translate(111.230469 0)"/>
       <use xlink:href="#ArialMT-32" transform="translate(166.845703 0)"/>
      </g>
     </g>
    </g>
    <g id="xtick_4">
     <g id="line2d_4">
      <path d="M 175.112127 317.72 
L 175.112127 25.49625 
" clip-path="url(#pb6188ae6f2)" style="fill: none; stroke: #ffffff; stroke-width: 0.8; stroke-linecap: round"/>
     </g>
     <g id="text_4">
      <!-- 2013 -->
      <g style="fill: #262626" transform="translate(163.990252 331.877812) scale(0.1 -0.1)">
       <defs>
        <path id="ArialMT-33" d="M 269 1209 
L 831 1284 
Q 928 806 1161 595 
Q 1394 384 1728 384 
Q 2125 384 2398 659 
Q 2672 934 2672 1341 
Q 2672 1728 2419 1979 
Q 2166 2231 1775 2231 
Q 1616 2231 1378 2169 
L 1441 2663 
Q 1497 2656 1531 2656 
Q 1891 2656 2178 2843 
Q 2466 3031 2466 3422 
Q 2466 3731 2256 3934 
Q 2047 4138 1716 4138 
Q 1388 4138 1169 3931 
Q 950 3725 888 3313 
L 325 3413 
Q 428 3978 793 4289 
Q 1159 4600 1703 4600 
Q 2078 4600 2393 4439 
Q 2709 4278 2876 4000 
Q 3044 3722 3044 3409 
Q 3044 3113 2884 2869 
Q 2725 2625 2413 2481 
Q 2819 2388 3044 2092 
Q 3269 1797 3269 1353 
Q 3269 753 2831 336 
Q 2394 -81 1725 -81 
Q 1122 -81 723 278 
Q 325 638 269 1209 
z
" transform="scale(0.015625)"/>
       </defs>
       <use xlink:href="#ArialMT-32"/>
       <use xlink:href="#ArialMT-30" transform="translate(55.615234 0)"/>
       <use xlink:href="#ArialMT-31" transform="translate(111.230469 0)"/>
       <use xlink:href="#ArialMT-33" transform="translate(166.845703 0)"/>
      </g>
     </g>
    </g>
    <g id="xtick_5">
     <g id="line2d_5">
      <path d="M 212.211064 317.72 
L 212.211064 25.49625 
" clip-path="url(#pb6188ae6f2)" style="fill: none; stroke: #ffffff; stroke-width: 0.8; stroke-linecap: round"/>
     </g>
     <g id="text_5">
      <!-- 2014 -->
      <g style="fill: #262626" transform="translate(201.089189 331.877812) scale(0.1 -0.1)">
       <defs>
        <path id="ArialMT-34" d="M 2069 0 
L 2069 1097 
L 81 1097 
L 81 1613 
L 2172 4581 
L 2631 4581 
L 2631 1613 
L 3250 1613 
L 3250 1097 
L 2631 1097 
L 2631 0 
L 2069 0 
z
M 2069 1613 
L 2069 3678 
L 634 1613 
L 2069 1613 
z
" transform="scale(0.015625)"/>
       </defs>
       <use xlink:href="#ArialMT-32"/>
       <use xlink:href="#ArialMT-30" transform="translate(55.615234 0)"/>
       <use xlink:href="#ArialMT-31" transform="translate(111.230469 0)"/>
       <use xlink:href="#ArialMT-34" transform="translate(166.845703 0)"/>
      </g>
     </g>
    </g>
    <g id="xtick_6">
     <g id="line2d_6">
      <path d="M 249.31 317.72 
L 249.31 25.49625 
" clip-path="url(#pb6188ae6f2)" style="fill: none; stroke: #ffffff; stroke-width: 0.8; stroke-linecap: round"/>
     </g>
     <g id="text_6">
      <!-- 2015 -->
      <g style="fill: #262626" transform="translate(238.188125 331.877812) scale(0.1 -0.1)">
       <defs>
        <path id="ArialMT-35" d="M 266 1200 
L 856 1250 
Q 922 819 1161 601 
Q 1400 384 1738 384 
Q 2144 384 2425 690 
Q 2706 997 2706 1503 
Q 2706 1984 2436 2262 
Q 2166 2541 1728 2541 
Q 1456 2541 1237 2417 
Q 1019 2294 894 2097 
L 366 2166 
L 809 4519 
L 3088 4519 
L 3088 3981 
L 1259 3981 
L 1013 2750 
Q 1425 3038 1878 3038 
Q 2478 3038 2890 2622 
Q 3303 2206 3303 1553 
Q 3303 931 2941 478 
Q 2500 -78 1738 -78 
Q 1113 -78 717 272 
Q 322 622 266 1200 
z
" transform="scale(0.015625)"/>
       </defs>
       <use xlink:href="#ArialMT-32"/>
       <use xlink:href="#ArialMT-30" transform="translate(55.615234 0)"/>
       <use xlink:href="#ArialMT-31" transform="translate(111.230469 0)"/>
       <use xlink:href="#ArialMT-35" transform="translate(166.845703 0)"/>
      </g>
     </g>
    </g>
    <g id="xtick_7">
     <g id="line2d_7">
      <path d="M 286.408936 317.72 
L 286.408936 25.49625 
" clip-path="url(#pb6188ae6f2)" style="fill: none; stroke: #ffffff; stroke-width: 0.8; stroke-linecap: round"/>
     </g>
     <g id="text_7">
      <!-- 2016 -->
      <g style="fill: #262626" transform="translate(275.287061 331.877812) scale(0.1 -0.1)">
       <defs>
        <path id="ArialMT-36" d="M 3184 3459 
L 2625 3416 
Q 2550 3747 2413 3897 
Q 2184 4138 1850 4138 
Q 1581 4138 1378 3988 
Q 1113 3794 959 3422 
Q 806 3050 800 2363 
Q 1003 2672 1297 2822 
Q 1591 2972 1913 2972 
Q 2475 2972 2870 2558 
Q 3266 2144 3266 1488 
Q 3266 1056 3080 686 
Q 2894 316 2569 119 
Q 2244 -78 1831 -78 
Q 1128 -78 684 439 
Q 241 956 241 2144 
Q 241 3472 731 4075 
Q 1159 4600 1884 4600 
Q 2425 4600 2770 4297 
Q 3116 3994 3184 3459 
z
M 888 1484 
Q 888 1194 1011 928 
Q 1134 663 1356 523 
Q 1578 384 1822 384 
Q 2178 384 2434 671 
Q 2691 959 2691 1453 
Q 2691 1928 2437 2201 
Q 2184 2475 1800 2475 
Q 1419 2475 1153 2201 
Q 888 1928 888 1484 
z
" transform="scale(0.015625)"/>
       </defs>
       <use xlink:href="#ArialMT-32"/>
       <use xlink:href="#ArialMT-30" transform="translate(55.615234 0)"/>
       <use xlink:href="#ArialMT-31" transform="translate(111.230469 0)"/>
       <use xlink:href="#ArialMT-36" transform="translate(166.845703 0)"/>
      </g>
     </g>
    </g>
    <g id="xtick_8">
     <g id="line2d_8">
      <path d="M 323.609514 317.72 
L 323.609514 25.49625 
" clip-path="url(#pb6188ae6f2)" style="fill: none; stroke: #ffffff; stroke-width: 0.8; stroke-linecap: round"/>
     </g>
     <g id="text_8">
      <!-- 2017 -->
      <g style="fill: #262626" transform="translate(312.487639 331.877812) scale(0.1 -0.1)">
       <defs>
        <path id="ArialMT-37" d="M 303 3981 
L 303 4522 
L 3269 4522 
L 3269 4084 
Q 2831 3619 2401 2847 
Q 1972 2075 1738 1259 
Q 1569 684 1522 0 
L 944 0 
Q 953 541 1156 1306 
Q 1359 2072 1739 2783 
Q 2119 3494 2547 3981 
L 303 3981 
z
" transform="scale(0.015625)"/>
       </defs>
       <use xlink:href="#ArialMT-32"/>
       <use xlink:href="#ArialMT-30" transform="translate(55.615234 0)"/>
       <use xlink:href="#ArialMT-31" transform="translate(111.230469 0)"/>
       <use xlink:href="#ArialMT-37" transform="translate(166.845703 0)"/>
      </g>
     </g>
    </g>
    <g id="xtick_9">
     <g id="line2d_9">
      <path d="M 360.70845 317.72 
L 360.70845 25.49625 
" clip-path="url(#pb6188ae6f2)" style="fill: none; stroke: #ffffff; stroke-width: 0.8; stroke-linecap: round"/>
     </g>
     <g id="text_9">
      <!-- 2018 -->
      <g style="fill: #262626" transform="translate(349.586575 331.877812) scale(0.1 -0.1)">
       <defs>
        <path id="ArialMT-38" d="M 1131 2484 
Q 781 2613 612 2850 
Q 444 3088 444 3419 
Q 444 3919 803 4259 
Q 1163 4600 1759 4600 
Q 2359 4600 2725 4251 
Q 3091 3903 3091 3403 
Q 3091 3084 2923 2848 
Q 2756 2613 2416 2484 
Q 2838 2347 3058 2040 
Q 3278 1734 3278 1309 
Q 3278 722 2862 322 
Q 2447 -78 1769 -78 
Q 1091 -78 675 323 
Q 259 725 259 1325 
Q 259 1772 486 2073 
Q 713 2375 1131 2484 
z
M 1019 3438 
Q 1019 3113 1228 2906 
Q 1438 2700 1772 2700 
Q 2097 2700 2305 2904 
Q 2513 3109 2513 3406 
Q 2513 3716 2298 3927 
Q 2084 4138 1766 4138 
Q 1444 4138 1231 3931 
Q 1019 3725 1019 3438 
z
M 838 1322 
Q 838 1081 952 856 
Q 1066 631 1291 507 
Q 1516 384 1775 384 
Q 2178 384 2440 643 
Q 2703 903 2703 1303 
Q 2703 1709 2433 1975 
Q 2163 2241 1756 2241 
Q 1359 2241 1098 1978 
Q 838 1716 838 1322 
z
" transform="scale(0.015625)"/>
       </defs>
       <use xlink:href="#ArialMT-32"/>
       <use xlink:href="#ArialMT-30" transform="translate(55.615234 0)"/>
       <use xlink:href="#ArialMT-31" transform="translate(111.230469 0)"/>
       <use xlink:href="#ArialMT-38" transform="translate(166.845703 0)"/>
      </g>
     </g>
    </g>
    <g id="xtick_10">
     <g id="line2d_10">
      <path d="M 397.807387 317.72 
L 397.807387 25.49625 
" clip-path="url(#pb6188ae6f2)" style="fill: none; stroke: #ffffff; stroke-width: 0.8; stroke-linecap: round"/>
     </g>
     <g id="text_10">
      <!-- 2019 -->
      <g style="fill: #262626" transform="translate(386.685512 331.877812) scale(0.1 -0.1)">
       <defs>
        <path id="ArialMT-39" d="M 350 1059 
L 891 1109 
Q 959 728 1153 556 
Q 1347 384 1650 384 
Q 1909 384 2104 503 
Q 2300 622 2425 820 
Q 2550 1019 2634 1356 
Q 2719 1694 2719 2044 
Q 2719 2081 2716 2156 
Q 2547 1888 2255 1720 
Q 1963 1553 1622 1553 
Q 1053 1553 659 1965 
Q 266 2378 266 3053 
Q 266 3750 677 4175 
Q 1088 4600 1706 4600 
Q 2153 4600 2523 4359 
Q 2894 4119 3086 3673 
Q 3278 3228 3278 2384 
Q 3278 1506 3087 986 
Q 2897 466 2520 194 
Q 2144 -78 1638 -78 
Q 1100 -78 759 220 
Q 419 519 350 1059 
z
M 2653 3081 
Q 2653 3566 2395 3850 
Q 2138 4134 1775 4134 
Q 1400 4134 1122 3828 
Q 844 3522 844 3034 
Q 844 2597 1108 2323 
Q 1372 2050 1759 2050 
Q 2150 2050 2401 2323 
Q 2653 2597 2653 3081 
z
" transform="scale(0.015625)"/>
       </defs>
       <use xlink:href="#ArialMT-32"/>
       <use xlink:href="#ArialMT-30" transform="translate(55.615234 0)"/>
       <use xlink:href="#ArialMT-31" transform="translate(111.230469 0)"/>
       <use xlink:href="#ArialMT-39" transform="translate(166.845703 0)"/>
      </g>
     </g>
    </g>
    <g id="xtick_11">
     <g id="line2d_11">
      <path d="M 434.906323 317.72 
L 434.906323 25.49625 
" clip-path="url(#pb6188ae6f2)" style="fill: none; stroke: #ffffff; stroke-width: 0.8; stroke-linecap: round"/>
     </g>
     <g id="text_11">
      <!-- 2020 -->
      <g style="fill: #262626" transform="translate(423.784448 331.877812) scale(0.1 -0.1)">
       <use xlink:href="#ArialMT-32"/>
       <use xlink:href="#ArialMT-30" transform="translate(55.615234 0)"/>
       <use xlink:href="#ArialMT-32" transform="translate(111.230469 0)"/>
       <use xlink:href="#ArialMT-30" transform="translate(166.845703 0)"/>
      </g>
     </g>
    </g>
   </g>
   <g id="matplotlib.axis_2">
    <g id="ytick_1">
     <g id="line2d_12">
      <path d="M 48.62 293.659336 
L 450 293.659336 
" clip-path="url(#pb6188ae6f2)" style="fill: none; stroke: #ffffff; stroke-width: 0.8; stroke-linecap: round"/>
     </g>
     <g id="text_12">
      <!-- 300 -->
      <g style="fill: #262626" transform="translate(24.937188 297.238243) scale(0.1 -0.1)">
       <use xlink:href="#ArialMT-33"/>
       <use xlink:href="#ArialMT-30" transform="translate(55.615234 0)"/>
       <use xlink:href="#ArialMT-30" transform="translate(111.230469 0)"/>
      </g>
     </g>
    </g>
    <g id="ytick_2">
     <g id="line2d_13">
      <path d="M 48.62 240.906121 
L 450 240.906121 
" clip-path="url(#pb6188ae6f2)" style="fill: none; stroke: #ffffff; stroke-width: 0.8; stroke-linecap: round"/>
     </g>
     <g id="text_13">
      <!-- 400 -->
      <g style="fill: #262626" transform="translate(24.937188 244.485027) scale(0.1 -0.1)">
       <use xlink:href="#ArialMT-34"/>
       <use xlink:href="#ArialMT-30" transform="translate(55.615234 0)"/>
       <use xlink:href="#ArialMT-30" transform="translate(111.230469 0)"/>
      </g>
     </g>
    </g>
    <g id="ytick_3">
     <g id="line2d_14">
      <path d="M 48.62 188.152906 
L 450 188.152906 
" clip-path="url(#pb6188ae6f2)" style="fill: none; stroke: #ffffff; stroke-width: 0.8; stroke-linecap: round"/>
     </g>
     <g id="text_14">
      <!-- 500 -->
      <g style="fill: #262626" transform="translate(24.937188 191.731812) scale(0.1 -0.1)">
       <use xlink:href="#ArialMT-35"/>
       <use xlink:href="#ArialMT-30" transform="translate(55.615234 0)"/>
       <use xlink:href="#ArialMT-30" transform="translate(111.230469 0)"/>
      </g>
     </g>
    </g>
    <g id="ytick_4">
     <g id="line2d_15">
      <path d="M 48.62 135.399691 
L 450 135.399691 
" clip-path="url(#pb6188ae6f2)" style="fill: none; stroke: #ffffff; stroke-width: 0.8; stroke-linecap: round"/>
     </g>
     <g id="text_15">
      <!-- 600 -->
      <g style="fill: #262626" transform="translate(24.937188 138.978597) scale(0.1 -0.1)">
       <use xlink:href="#ArialMT-36"/>
       <use xlink:href="#ArialMT-30" transform="translate(55.615234 0)"/>
       <use xlink:href="#ArialMT-30" transform="translate(111.230469 0)"/>
      </g>
     </g>
    </g>
    <g id="ytick_5">
     <g id="line2d_16">
      <path d="M 48.62 82.646476 
L 450 82.646476 
" clip-path="url(#pb6188ae6f2)" style="fill: none; stroke: #ffffff; stroke-width: 0.8; stroke-linecap: round"/>
     </g>
     <g id="text_16">
      <!-- 700 -->
      <g style="fill: #262626" transform="translate(24.937188 86.225382) scale(0.1 -0.1)">
       <use xlink:href="#ArialMT-37"/>
       <use xlink:href="#ArialMT-30" transform="translate(55.615234 0)"/>
       <use xlink:href="#ArialMT-30" transform="translate(111.230469 0)"/>
      </g>
     </g>
    </g>
    <g id="ytick_6">
     <g id="line2d_17">
      <path d="M 48.62 29.893261 
L 450 29.893261 
" clip-path="url(#pb6188ae6f2)" style="fill: none; stroke: #ffffff; stroke-width: 0.8; stroke-linecap: round"/>
     </g>
     <g id="text_17">
      <!-- 800 -->
      <g style="fill: #262626" transform="translate(24.937188 33.472167) scale(0.1 -0.1)">
       <use xlink:href="#ArialMT-38"/>
       <use xlink:href="#ArialMT-30" transform="translate(55.615234 0)"/>
       <use xlink:href="#ArialMT-30" transform="translate(111.230469 0)"/>
      </g>
     </g>
    </g>
    <g id="text_18">
     <!-- Elo -->
     <g style="fill: #262626" transform="translate(18.949688 178.834687) rotate(-90) scale(0.1 -0.1)">
      <defs>
       <path id="ArialMT-45" d="M 506 0 
L 506 4581 
L 3819 4581 
L 3819 4041 
L 1113 4041 
L 1113 2638 
L 3647 2638 
L 3647 2100 
L 1113 2100 
L 1113 541 
L 3925 541 
L 3925 0 
L 506 0 
z
" transform="scale(0.015625)"/>
       <path id="ArialMT-6c" d="M 409 0 
L 409 4581 
L 972 4581 
L 972 0 
L 409 0 
z
" transform="scale(0.015625)"/>
       <path id="ArialMT-6f" d="M 213 1659 
Q 213 2581 725 3025 
Q 1153 3394 1769 3394 
Q 2453 3394 2887 2945 
Q 3322 2497 3322 1706 
Q 3322 1066 3130 698 
Q 2938 331 2570 128 
Q 2203 -75 1769 -75 
Q 1072 -75 642 372 
Q 213 819 213 1659 
z
M 791 1659 
Q 791 1022 1069 705 
Q 1347 388 1769 388 
Q 2188 388 2466 706 
Q 2744 1025 2744 1678 
Q 2744 2294 2464 2611 
Q 2184 2928 1769 2928 
Q 1347 2928 1069 2612 
Q 791 2297 791 1659 
z
" transform="scale(0.015625)"/>
      </defs>
      <use xlink:href="#ArialMT-45"/>
      <use xlink:href="#ArialMT-6c" transform="translate(66.699219 0)"/>
      <use xlink:href="#ArialMT-6f" transform="translate(88.916016 0)"/>
     </g>
    </g>
   </g>
   <g id="line2d_18">
    <path d="M 66.864545 252.164986 
L 72.86136 252.164986 
L 72.86136 272.439734 
L 82.110684 272.439734 
L 82.110684 274.277537 
L 85.261552 274.277537 
L 85.261552 282.154911 
L 88.412421 282.154911 
L 88.412421 268.72311 
L 113.009524 268.72311 
L 113.009524 241.580259 
L 116.160393 241.580259 
L 116.160393 247.152652 
L 119.20962 247.152652 
L 119.20962 263.121115 
L 122.360489 263.121115 
L 122.360489 275.866304 
L 125.511357 275.866304 
L 125.511357 245.21217 
L 128.560585 245.21217 
L 128.560585 249.861685 
L 131.711454 249.861685 
L 131.711454 203.974997 
L 134.760681 203.974997 
L 134.760681 225.736175 
L 137.91155 225.736175 
L 137.91155 183.933319 
L 141.062418 183.933319 
L 141.062418 212.739786 
L 144.010005 212.739786 
L 144.010005 208.595556 
L 147.160874 208.595556 
L 147.160874 237.720287 
L 150.210101 237.720287 
L 150.210101 248.669217 
L 156.410198 248.669217 
L 156.410198 256.375389 
L 159.561066 256.375389 
L 159.561066 248.170878 
L 162.711935 248.170878 
L 162.711935 264.840803 
L 165.761162 264.840803 
L 165.761162 232.22605 
L 168.912031 232.22605 
L 168.912031 237.454812 
L 171.961259 237.454812 
L 171.961259 153.89491 
L 175.112127 153.89491 
L 175.112127 172.497865 
L 178.262996 172.497865 
L 178.262996 265.759777 
L 181.108942 265.759777 
L 181.108942 223.842311 
L 184.25981 223.842311 
L 184.25981 269.556275 
L 187.309038 269.556275 
L 187.309038 233.217114 
L 190.459906 233.217114 
L 190.459906 240.067071 
L 193.509134 240.067071 
L 193.509134 271.885208 
L 196.660003 271.885208 
L 196.660003 273.277403 
L 199.810871 273.277403 
L 199.810871 291.486531 
L 202.860099 291.486531 
L 202.860099 304.437102 
L 206.010967 304.437102 
L 206.010967 282.996893 
L 209.060195 282.996893 
L 209.060195 235.302537 
L 212.211064 235.302537 
L 212.211064 223.517349 
L 215.361932 223.517349 
L 215.361932 162.889734 
L 218.207878 162.889734 
L 218.207878 169.858505 
L 221.358747 169.858505 
L 221.358747 160.877208 
L 224.407974 160.877208 
L 224.407974 175.608558 
L 227.558843 175.608558 
L 227.558843 171.089949 
L 230.60807 171.089949 
L 230.60807 179.616128 
L 233.758939 179.616128 
L 233.758939 139.938581 
L 236.909808 139.938581 
L 236.909808 139.52434 
L 239.959035 139.52434 
L 239.959035 156.046193 
L 243.109904 156.046193 
L 243.109904 174.139016 
L 246.159131 174.139016 
L 246.159131 141.604802 
L 249.31 141.604802 
L 249.31 128.573963 
L 252.460869 128.573963 
L 252.460869 226.440402 
L 255.306814 226.440402 
L 255.306814 194.210078 
L 258.457683 194.210078 
L 258.457683 134.886256 
L 261.506911 134.886256 
L 261.506911 140.561415 
L 267.707007 140.561415 
L 267.707007 137.965333 
L 270.857875 137.965333 
L 270.857875 141.846344 
L 274.008744 141.846344 
L 274.008744 157.487389 
L 277.057972 157.487389 
L 277.057972 137.22903 
L 280.20884 137.22903 
L 280.20884 178.603904 
L 283.258068 178.603904 
L 283.258068 180.00075 
L 286.408936 180.00075 
L 286.408936 204.947347 
L 289.559805 204.947347 
L 289.559805 179.646342 
L 292.507392 179.646342 
L 292.507392 206.819568 
L 295.65826 206.819568 
L 295.65826 156.820435 
L 298.707488 156.820435 
L 298.707488 138.173538 
L 304.907584 138.173538 
L 304.907584 132.982229 
L 308.058453 132.982229 
L 308.058453 148.381486 
L 314.258549 148.381486 
L 314.258549 154.474157 
L 317.409418 154.474157 
L 317.409418 94.191264 
L 320.458645 94.191264 
L 320.458645 153.141184 
L 326.760382 153.108102 
L 326.760382 163.21627 
L 329.606328 163.21627 
L 329.606328 93.182506 
L 332.757197 93.182506 
L 332.757197 80.641874 
L 335.806424 80.641874 
L 335.806424 100.95792 
L 342.006521 100.95792 
L 342.006521 100.252814 
L 345.157389 100.252814 
L 345.157389 106.936523 
L 348.308258 106.936523 
L 348.308258 140.450892 
L 351.357485 140.450892 
L 351.357485 139.884168 
L 354.508354 139.884168 
L 354.508354 106.7763 
L 357.557582 106.7763 
L 357.557582 129.294293 
L 360.70845 129.294293 
L 360.70845 133.290606 
L 363.859319 133.290606 
L 363.859319 166.739103 
L 366.705265 166.739103 
L 366.705265 188.91699 
L 369.856133 188.91699 
L 369.856133 163.271583 
L 372.905361 163.271583 
L 372.905361 148.414954 
L 376.056229 148.414954 
L 376.056229 156.482416 
L 382.256326 156.482416 
L 382.256326 152.681334 
L 385.407194 152.681334 
L 385.407194 159.683938 
L 388.456422 159.683938 
L 388.456422 159.829445 
L 391.60729 159.829445 
L 391.60729 141.51516 
L 394.656518 141.51516 
L 394.656518 100.741502 
L 397.807387 100.741502 
L 397.807387 111.259329 
L 400.958255 111.259329 
L 400.958255 86.847668 
L 403.804201 86.847668 
L 403.804201 90.575469 
L 406.95507 90.575469 
L 406.95507 115.390276 
L 410.004297 115.390276 
L 410.004297 117.370735 
L 413.155166 117.370735 
L 413.155166 100.321155 
L 416.204394 100.321155 
L 416.204394 99.022001 
L 422.506131 99.022001 
L 422.506131 68.660176 
L 425.555358 68.660176 
L 425.555358 91.632658 
L 428.706227 91.632658 
L 428.706227 93.349589 
L 431.755455 93.349589 
L 431.755455 38.779148 
L 431.755455 38.779148 
" clip-path="url(#pb6188ae6f2)" style="fill: none; stroke-dasharray: 5.55,2.4; stroke-dashoffset: 0; stroke: #dc143c; stroke-width: 1.5"/>
   </g>
   <g id="line2d_19">
    <path d="M 66.864545 244.774736 
L 82.110684 244.774736 
L 82.110684 238.980484 
L 88.412421 238.980484 
L 88.412421 264.326296 
L 113.009524 264.326296 
L 113.009524 260.697702 
L 119.20962 260.697702 
L 119.20962 219.739836 
L 125.511357 219.739836 
L 125.511357 218.469465 
L 128.560585 218.469465 
L 128.560585 241.880332 
L 131.711454 241.880332 
L 131.711454 220.575766 
L 134.760681 220.575766 
L 134.760681 193.655244 
L 137.91155 193.655244 
L 137.91155 202.20759 
L 141.062418 202.20759 
L 141.062418 206.014959 
L 144.010005 206.014959 
L 144.010005 184.232267 
L 147.160874 184.232267 
L 147.160874 203.880788 
L 150.210101 203.880788 
L 150.210101 188.899989 
L 153.36097 188.899989 
L 153.36097 169.71953 
L 165.761162 169.71953 
L 165.761162 189.971928 
L 168.912031 189.971928 
L 168.912031 210.358273 
L 171.961259 210.358273 
L 171.961259 228.217623 
L 187.309038 228.217623 
L 187.309038 200.463041 
L 190.459906 200.463041 
L 190.459906 199.739805 
L 193.509134 199.739805 
L 193.509134 188.421618 
L 199.810871 188.421618 
L 199.810871 166.911502 
L 206.010967 166.911502 
L 206.010967 188.96035 
L 209.060195 188.96035 
L 209.060195 136.998115 
L 212.211064 136.998115 
L 212.211064 163.862986 
L 215.361932 163.862986 
L 215.361932 130.897867 
L 218.207878 130.897867 
L 218.207878 110.519317 
L 221.358747 110.519317 
L 221.358747 113.280777 
L 224.407974 113.280777 
L 224.407974 97.379401 
L 227.558843 97.379401 
L 227.558843 107.040613 
L 236.909808 107.040613 
L 236.909808 115.974287 
L 239.959035 115.974287 
L 239.959035 130.297779 
L 243.109904 130.297779 
L 243.109904 137.133651 
L 246.159131 137.133651 
L 246.159131 102.909653 
L 249.31 102.909653 
L 249.31 74.04673 
L 252.460869 74.04673 
L 252.460869 96.58966 
L 255.306814 96.58966 
L 255.306814 113.135148 
L 258.457683 113.135148 
L 258.457683 143.29546 
L 261.506911 143.29546 
L 261.506911 148.75344 
L 286.408936 148.75344 
L 286.408936 166.317324 
L 289.559805 166.317324 
L 289.559805 89.4738 
L 292.507392 89.4738 
L 292.507392 62.022788 
L 295.65826 62.022788 
L 295.65826 91.868875 
L 298.707488 91.868875 
L 298.707488 105.955968 
L 314.258549 105.955968 
L 314.258549 111.845132 
L 317.409418 111.845132 
L 317.409418 121.80131 
L 320.458645 121.80131 
L 320.458645 116.069029 
L 323.609514 116.069029 
L 323.609514 106.662687 
L 326.760382 106.662687 
L 326.760382 80.621749 
L 329.606328 80.621749 
L 329.606328 121.079846 
L 332.757197 121.079846 
L 332.757197 144.551587 
L 335.806424 144.551587 
L 335.806424 143.923198 
L 342.006521 143.923198 
L 342.006521 141.875314 
L 345.157389 141.875314 
L 345.157389 131.31216 
L 348.308258 131.31216 
L 348.308258 132.45996 
L 351.357485 132.45996 
L 351.357485 129.459613 
L 354.508354 129.459613 
L 354.508354 104.646864 
L 357.557582 104.646864 
L 357.557582 83.378908 
L 360.70845 83.378908 
L 360.70845 82.801994 
L 363.859319 82.801994 
L 363.859319 95.633567 
L 366.705265 95.633567 
L 366.705265 63.659951 
L 369.856133 63.659951 
L 369.856133 54.962607 
L 372.905361 54.962607 
L 372.905361 88.99559 
L 385.407194 88.99559 
L 385.407194 110.378899 
L 388.456422 110.378899 
L 388.456422 77.688557 
L 391.60729 77.688557 
L 391.60729 86.594787 
L 394.656518 86.594787 
L 394.656518 58.517941 
L 397.807387 58.517941 
L 397.807387 55.12185 
L 400.958255 55.12185 
L 400.958255 54.680626 
L 403.804201 54.680626 
L 403.804201 91.837941 
L 406.95507 91.837941 
L 406.95507 39.280567 
L 410.004297 39.280567 
L 410.004297 59.791017 
L 425.555358 59.791017 
L 425.555358 40.244558 
L 428.706227 40.244558 
L 428.706227 73.07419 
L 431.755455 73.07419 
L 431.755455 62.501998 
L 431.755455 62.501998 
" clip-path="url(#pb6188ae6f2)" style="fill: none; stroke-dasharray: 9.6,2.4,1.5,2.4; stroke-dashoffset: 0; stroke: #800080; stroke-width: 1.5"/>
   </g>
   <g id="line2d_20">
    <path d="M 66.864545 268.224488 
L 82.110684 268.224488 
L 82.110684 286.643879 
L 85.261552 286.643879 
L 85.261552 239.915482 
L 88.412421 239.915482 
L 88.412421 282.333115 
L 113.009524 282.333115 
L 113.009524 287.815817 
L 119.20962 287.815817 
L 119.20962 288.315087 
L 122.360489 288.315087 
L 122.360489 254.563596 
L 125.511357 254.563596 
L 125.511357 204.266811 
L 128.560585 204.266811 
L 128.560585 212.596122 
L 131.711454 212.596122 
L 131.711454 208.62364 
L 134.760681 208.62364 
L 134.760681 228.169277 
L 137.91155 228.169277 
L 137.91155 239.924829 
L 141.062418 239.924829 
L 141.062418 197.864673 
L 144.010005 197.864673 
L 144.010005 213.598501 
L 147.160874 213.598501 
L 147.160874 215.02768 
L 150.210101 215.02768 
L 150.210101 228.831582 
L 156.410198 228.831582 
L 156.410198 227.274918 
L 159.561066 227.274918 
L 159.561066 252.978762 
L 162.711935 252.978762 
L 162.711935 215.535157 
L 165.761162 215.535157 
L 165.761162 253.645609 
L 168.912031 253.645609 
L 168.912031 242.305939 
L 171.961259 242.305939 
L 171.961259 239.996326 
L 175.112127 239.996326 
L 175.112127 209.671538 
L 178.262996 209.671538 
L 178.262996 223.148878 
L 181.108942 223.148878 
L 181.108942 220.294571 
L 187.309038 220.394564 
L 187.309038 227.632566 
L 190.459906 227.632566 
L 190.459906 246.717196 
L 193.509134 246.717196 
L 193.509134 228.44247 
L 196.660003 228.44247 
L 196.660003 192.189255 
L 202.860099 192.103002 
L 202.860099 196.964883 
L 206.010967 196.964883 
L 206.010967 218.428646 
L 209.060195 218.428646 
L 209.060195 172.87005 
L 212.211064 172.87005 
L 212.211064 150.982448 
L 215.361932 150.982448 
L 215.361932 217.398798 
L 218.207878 217.398798 
L 218.207878 208.750028 
L 221.358747 208.750028 
L 221.358747 197.150676 
L 224.407974 197.150676 
L 224.407974 178.16052 
L 227.558843 178.16052 
L 227.558843 150.086659 
L 230.60807 150.086659 
L 230.60807 162.306419 
L 236.909808 162.306419 
L 236.909808 128.690071 
L 239.959035 128.690071 
L 239.959035 150.403299 
L 243.109904 150.403299 
L 243.109904 149.802841 
L 246.159131 149.802841 
L 246.159131 178.005423 
L 249.31 178.005423 
L 249.31 170.795673 
L 252.460869 170.795673 
L 252.460869 181.016693 
L 255.306814 181.016693 
L 255.306814 154.872751 
L 258.457683 154.872751 
L 258.457683 180.994972 
L 261.506911 180.994972 
L 261.506911 164.218048 
L 267.707007 164.218048 
L 267.707007 159.427582 
L 270.857875 159.427582 
L 270.857875 182.74244 
L 274.008744 182.74244 
L 274.008744 201.080876 
L 277.057972 201.080876 
L 277.057972 216.560869 
L 280.20884 216.560869 
L 280.20884 179.104225 
L 283.258068 179.104225 
L 283.258068 177.120384 
L 286.408936 177.120384 
L 286.408936 172.627514 
L 289.559805 172.627514 
L 289.559805 156.414129 
L 292.507392 156.414129 
L 292.507392 101.644085 
L 295.65826 101.644085 
L 295.65826 153.327069 
L 298.707488 153.327069 
L 298.707488 126.682467 
L 301.858357 126.682467 
L 301.858357 116.506183 
L 304.907584 116.506183 
L 304.907584 133.388941 
L 308.058453 133.388941 
L 308.058453 147.636585 
L 311.209321 147.636585 
L 311.209321 120.227862 
L 314.258549 120.227862 
L 314.258549 109.344088 
L 317.409418 109.344088 
L 317.409418 84.15537 
L 320.458645 84.15537 
L 320.458645 94.565453 
L 323.609514 94.565453 
L 323.609514 65.404554 
L 326.760382 65.404554 
L 326.760382 74.891172 
L 329.606328 74.891172 
L 329.606328 166.244235 
L 332.757197 166.244235 
L 332.757197 149.619846 
L 335.806424 149.619846 
L 335.806424 92.622181 
L 342.006521 92.622181 
L 342.006521 112.991354 
L 345.157389 112.991354 
L 345.157389 129.204785 
L 348.308258 129.204785 
L 348.308258 146.277065 
L 351.357485 146.277065 
L 351.357485 163.319518 
L 354.508354 163.319518 
L 354.508354 157.480089 
L 357.557582 157.480089 
L 357.557582 139.891061 
L 360.70845 139.891061 
L 360.70845 153.081109 
L 363.859319 153.081109 
L 363.859319 166.571644 
L 366.705265 166.571644 
L 366.705265 181.049943 
L 369.856133 181.049943 
L 369.856133 199.606385 
L 372.905361 199.606385 
L 372.905361 157.188784 
L 382.256326 157.188784 
L 382.256326 153.908264 
L 385.407194 153.908264 
L 385.407194 153.33732 
L 388.456422 153.33732 
L 388.456422 121.708679 
L 391.60729 121.708679 
L 391.60729 130.794115 
L 394.656518 130.794115 
L 394.656518 158.903995 
L 397.807387 158.903995 
L 397.807387 153.561095 
L 400.958255 153.561095 
L 400.958255 135.825072 
L 403.804201 135.825072 
L 403.804201 169.833045 
L 406.95507 169.833045 
L 406.95507 178.476232 
L 410.004297 178.476232 
L 410.004297 184.572794 
L 416.204394 184.572794 
L 416.204394 179.084071 
L 422.506131 178.974683 
L 422.506131 152.766355 
L 425.555358 152.766355 
L 425.555358 142.709909 
L 428.706227 142.709909 
L 428.706227 126.046779 
L 431.755455 126.046779 
L 431.755455 125.36096 
L 431.755455 125.36096 
" clip-path="url(#pb6188ae6f2)" style="fill: none; stroke-dasharray: 1.5,2.475; stroke-dashoffset: 0; stroke: #00008b; stroke-width: 1.5"/>
   </g>
   <g id="patch_3">
    <path d="M 48.62 317.72 
L 48.62 25.49625 
" style="fill: none; stroke: #ffffff; stroke-width: 0.8; stroke-linejoin: miter; stroke-linecap: square"/>
   </g>
   <g id="patch_4">
    <path d="M 450 317.72 
L 450 25.49625 
" style="fill: none; stroke: #ffffff; stroke-width: 0.8; stroke-linejoin: miter; stroke-linecap: square"/>
   </g>
   <g id="patch_5">
    <path d="M 48.62 317.72 
L 450 317.72 
" style="fill: none; stroke: #ffffff; stroke-width: 0.8; stroke-linejoin: miter; stroke-linecap: square"/>
   </g>
   <g id="patch_6">
    <path d="M 48.62 25.49625 
L 450 25.49625 
" style="fill: none; stroke: #ffffff; stroke-width: 0.8; stroke-linejoin: miter; stroke-linecap: square"/>
   </g>
   <g id="text_19">
    <!-- Highest rated players 2010–2019 -->
    <g style="fill: #262626" transform="translate(160.9225 19.49625) scale(0.12 -0.12)">
     <defs>
      <path id="ArialMT-48" d="M 513 0 
L 513 4581 
L 1119 4581 
L 1119 2700 
L 3500 2700 
L 3500 4581 
L 4106 4581 
L 4106 0 
L 3500 0 
L 3500 2159 
L 1119 2159 
L 1119 0 
L 513 0 
z
" transform="scale(0.015625)"/>
      <path id="ArialMT-69" d="M 425 3934 
L 425 4581 
L 988 4581 
L 988 3934 
L 425 3934 
z
M 425 0 
L 425 3319 
L 988 3319 
L 988 0 
L 425 0 
z
" transform="scale(0.015625)"/>
      <path id="ArialMT-67" d="M 319 -275 
L 866 -356 
Q 900 -609 1056 -725 
Q 1266 -881 1628 -881 
Q 2019 -881 2231 -725 
Q 2444 -569 2519 -288 
Q 2563 -116 2559 434 
Q 2191 0 1641 0 
Q 956 0 581 494 
Q 206 988 206 1678 
Q 206 2153 378 2554 
Q 550 2956 876 3175 
Q 1203 3394 1644 3394 
Q 2231 3394 2613 2919 
L 2613 3319 
L 3131 3319 
L 3131 450 
Q 3131 -325 2973 -648 
Q 2816 -972 2473 -1159 
Q 2131 -1347 1631 -1347 
Q 1038 -1347 672 -1080 
Q 306 -813 319 -275 
z
M 784 1719 
Q 784 1066 1043 766 
Q 1303 466 1694 466 
Q 2081 466 2343 764 
Q 2606 1063 2606 1700 
Q 2606 2309 2336 2618 
Q 2066 2928 1684 2928 
Q 1309 2928 1046 2623 
Q 784 2319 784 1719 
z
" transform="scale(0.015625)"/>
      <path id="ArialMT-68" d="M 422 0 
L 422 4581 
L 984 4581 
L 984 2938 
Q 1378 3394 1978 3394 
Q 2347 3394 2619 3248 
Q 2891 3103 3008 2847 
Q 3125 2591 3125 2103 
L 3125 0 
L 2563 0 
L 2563 2103 
Q 2563 2525 2380 2717 
Q 2197 2909 1863 2909 
Q 1613 2909 1392 2779 
Q 1172 2650 1078 2428 
Q 984 2206 984 1816 
L 984 0 
L 422 0 
z
" transform="scale(0.015625)"/>
      <path id="ArialMT-65" d="M 2694 1069 
L 3275 997 
Q 3138 488 2766 206 
Q 2394 -75 1816 -75 
Q 1088 -75 661 373 
Q 234 822 234 1631 
Q 234 2469 665 2931 
Q 1097 3394 1784 3394 
Q 2450 3394 2872 2941 
Q 3294 2488 3294 1666 
Q 3294 1616 3291 1516 
L 816 1516 
Q 847 969 1125 678 
Q 1403 388 1819 388 
Q 2128 388 2347 550 
Q 2566 713 2694 1069 
z
M 847 1978 
L 2700 1978 
Q 2663 2397 2488 2606 
Q 2219 2931 1791 2931 
Q 1403 2931 1139 2672 
Q 875 2413 847 1978 
z
" transform="scale(0.015625)"/>
      <path id="ArialMT-73" d="M 197 991 
L 753 1078 
Q 800 744 1014 566 
Q 1228 388 1613 388 
Q 2000 388 2187 545 
Q 2375 703 2375 916 
Q 2375 1106 2209 1216 
Q 2094 1291 1634 1406 
Q 1016 1563 777 1677 
Q 538 1791 414 1992 
Q 291 2194 291 2438 
Q 291 2659 392 2848 
Q 494 3038 669 3163 
Q 800 3259 1026 3326 
Q 1253 3394 1513 3394 
Q 1903 3394 2198 3281 
Q 2494 3169 2634 2976 
Q 2775 2784 2828 2463 
L 2278 2388 
Q 2241 2644 2061 2787 
Q 1881 2931 1553 2931 
Q 1166 2931 1000 2803 
Q 834 2675 834 2503 
Q 834 2394 903 2306 
Q 972 2216 1119 2156 
Q 1203 2125 1616 2013 
Q 2213 1853 2448 1751 
Q 2684 1650 2818 1456 
Q 2953 1263 2953 975 
Q 2953 694 2789 445 
Q 2625 197 2315 61 
Q 2006 -75 1616 -75 
Q 969 -75 630 194 
Q 291 463 197 991 
z
" transform="scale(0.015625)"/>
      <path id="ArialMT-74" d="M 1650 503 
L 1731 6 
Q 1494 -44 1306 -44 
Q 1000 -44 831 53 
Q 663 150 594 308 
Q 525 466 525 972 
L 525 2881 
L 113 2881 
L 113 3319 
L 525 3319 
L 525 4141 
L 1084 4478 
L 1084 3319 
L 1650 3319 
L 1650 2881 
L 1084 2881 
L 1084 941 
Q 1084 700 1114 631 
Q 1144 563 1211 522 
Q 1278 481 1403 481 
Q 1497 481 1650 503 
z
" transform="scale(0.015625)"/>
      <path id="ArialMT-20" transform="scale(0.015625)"/>
      <path id="ArialMT-72" d="M 416 0 
L 416 3319 
L 922 3319 
L 922 2816 
Q 1116 3169 1280 3281 
Q 1444 3394 1641 3394 
Q 1925 3394 2219 3213 
L 2025 2691 
Q 1819 2813 1613 2813 
Q 1428 2813 1281 2702 
Q 1134 2591 1072 2394 
Q 978 2094 978 1738 
L 978 0 
L 416 0 
z
" transform="scale(0.015625)"/>
      <path id="ArialMT-61" d="M 2588 409 
Q 2275 144 1986 34 
Q 1697 -75 1366 -75 
Q 819 -75 525 192 
Q 231 459 231 875 
Q 231 1119 342 1320 
Q 453 1522 633 1644 
Q 813 1766 1038 1828 
Q 1203 1872 1538 1913 
Q 2219 1994 2541 2106 
Q 2544 2222 2544 2253 
Q 2544 2597 2384 2738 
Q 2169 2928 1744 2928 
Q 1347 2928 1158 2789 
Q 969 2650 878 2297 
L 328 2372 
Q 403 2725 575 2942 
Q 747 3159 1072 3276 
Q 1397 3394 1825 3394 
Q 2250 3394 2515 3294 
Q 2781 3194 2906 3042 
Q 3031 2891 3081 2659 
Q 3109 2516 3109 2141 
L 3109 1391 
Q 3109 606 3145 398 
Q 3181 191 3288 0 
L 2700 0 
Q 2613 175 2588 409 
z
M 2541 1666 
Q 2234 1541 1622 1453 
Q 1275 1403 1131 1340 
Q 988 1278 909 1158 
Q 831 1038 831 891 
Q 831 666 1001 516 
Q 1172 366 1500 366 
Q 1825 366 2078 508 
Q 2331 650 2450 897 
Q 2541 1088 2541 1459 
L 2541 1666 
z
" transform="scale(0.015625)"/>
      <path id="ArialMT-64" d="M 2575 0 
L 2575 419 
Q 2259 -75 1647 -75 
Q 1250 -75 917 144 
Q 584 363 401 755 
Q 219 1147 219 1656 
Q 219 2153 384 2558 
Q 550 2963 881 3178 
Q 1213 3394 1622 3394 
Q 1922 3394 2156 3267 
Q 2391 3141 2538 2938 
L 2538 4581 
L 3097 4581 
L 3097 0 
L 2575 0 
z
M 797 1656 
Q 797 1019 1065 703 
Q 1334 388 1700 388 
Q 2069 388 2326 689 
Q 2584 991 2584 1609 
Q 2584 2291 2321 2609 
Q 2059 2928 1675 2928 
Q 1300 2928 1048 2622 
Q 797 2316 797 1656 
z
" transform="scale(0.015625)"/>
      <path id="ArialMT-70" d="M 422 -1272 
L 422 3319 
L 934 3319 
L 934 2888 
Q 1116 3141 1344 3267 
Q 1572 3394 1897 3394 
Q 2322 3394 2647 3175 
Q 2972 2956 3137 2557 
Q 3303 2159 3303 1684 
Q 3303 1175 3120 767 
Q 2938 359 2589 142 
Q 2241 -75 1856 -75 
Q 1575 -75 1351 44 
Q 1128 163 984 344 
L 984 -1272 
L 422 -1272 
z
M 931 1641 
Q 931 1000 1190 694 
Q 1450 388 1819 388 
Q 2194 388 2461 705 
Q 2728 1022 2728 1688 
Q 2728 2322 2467 2637 
Q 2206 2953 1844 2953 
Q 1484 2953 1207 2617 
Q 931 2281 931 1641 
z
" transform="scale(0.015625)"/>
      <path id="ArialMT-79" d="M 397 -1278 
L 334 -750 
Q 519 -800 656 -800 
Q 844 -800 956 -737 
Q 1069 -675 1141 -563 
Q 1194 -478 1313 -144 
Q 1328 -97 1363 -6 
L 103 3319 
L 709 3319 
L 1400 1397 
Q 1534 1031 1641 628 
Q 1738 1016 1872 1384 
L 2581 3319 
L 3144 3319 
L 1881 -56 
Q 1678 -603 1566 -809 
Q 1416 -1088 1222 -1217 
Q 1028 -1347 759 -1347 
Q 597 -1347 397 -1278 
z
" transform="scale(0.015625)"/>
      <path id="ArialMT-2013" d="M -13 1431 
L -13 1884 
L 3547 1884 
L 3547 1431 
L -13 1431 
z
" transform="scale(0.015625)"/>
     </defs>
     <use xlink:href="#ArialMT-48"/>
     <use xlink:href="#ArialMT-69" transform="translate(72.216797 0)"/>
     <use xlink:href="#ArialMT-67" transform="translate(94.433594 0)"/>
     <use xlink:href="#ArialMT-68" transform="translate(150.048828 0)"/>
     <use xlink:href="#ArialMT-65" transform="translate(205.664062 0)"/>
     <use xlink:href="#ArialMT-73" transform="translate(261.279297 0)"/>
     <use xlink:href="#ArialMT-74" transform="translate(311.279297 0)"/>
     <use xlink:href="#ArialMT-20" transform="translate(339.0625 0)"/>
     <use xlink:href="#ArialMT-72" transform="translate(366.845703 0)"/>
     <use xlink:href="#ArialMT-61" transform="translate(400.146484 0)"/>
     <use xlink:href="#ArialMT-74" transform="translate(455.761719 0)"/>
     <use xlink:href="#ArialMT-65" transform="translate(483.544922 0)"/>
     <use xlink:href="#ArialMT-64" transform="translate(539.160156 0)"/>
     <use xlink:href="#ArialMT-20" transform="translate(594.775391 0)"/>
     <use xlink:href="#ArialMT-70" transform="translate(622.558594 0)"/>
     <use xlink:href="#ArialMT-6c" transform="translate(678.173828 0)"/>
     <use xlink:href="#ArialMT-61" transform="translate(700.390625 0)"/>
     <use xlink:href="#ArialMT-79" transform="translate(756.005859 0)"/>
     <use xlink:href="#ArialMT-65" transform="translate(806.005859 0)"/>
     <use xlink:href="#ArialMT-72" transform="translate(861.621094 0)"/>
     <use xlink:href="#ArialMT-73" transform="translate(894.921875 0)"/>
     <use xlink:href="#ArialMT-20" transform="translate(944.921875 0)"/>
     <use xlink:href="#ArialMT-32" transform="translate(972.705078 0)"/>
     <use xlink:href="#ArialMT-30" transform="translate(1028.320312 0)"/>
     <use xlink:href="#ArialMT-31" transform="translate(1083.935547 0)"/>
     <use xlink:href="#ArialMT-30" transform="translate(1139.550781 0)"/>
     <use xlink:href="#ArialMT-2013" transform="translate(1195.166016 0)"/>
     <use xlink:href="#ArialMT-32" transform="translate(1250.78125 0)"/>
     <use xlink:href="#ArialMT-30" transform="translate(1306.396484 0)"/>
     <use xlink:href="#ArialMT-31" transform="translate(1362.011719 0)"/>
     <use xlink:href="#ArialMT-39" transform="translate(1417.626953 0)"/>
    </g>
   </g>
   <g id="legend_1">
    <g id="patch_7">
     <path d="M 55.62 76.655625 
L 217.359063 76.655625 
Q 219.359063 76.655625 219.359063 74.655625 
L 219.359063 32.49625 
Q 219.359063 30.49625 217.359063 30.49625 
L 55.62 30.49625 
Q 53.62 30.49625 53.62 32.49625 
L 53.62 74.655625 
Q 53.62 76.655625 55.62 76.655625 
z
" style="fill: #eaeaf2; opacity: 0.8; stroke: #cccccc; stroke-linejoin: miter"/>
    </g>
    <g id="line2d_21">
     <path d="M 57.62 38.275937 
L 67.62 38.275937 
L 67.62 38.275937 
L 77.62 38.275937 
L 77.62 38.275937 
" style="fill: none; stroke-dasharray: 5.55,2.4; stroke-dashoffset: 0; stroke: #dc143c; stroke-width: 1.5"/>
    </g>
    <g id="text_20">
     <!-- Judd Trump (max: 783) -->
     <g style="fill: #262626" transform="translate(85.62 41.775937) scale(0.1 -0.1)">
      <defs>
       <path id="ArialMT-4a" d="M 184 1300 
L 731 1375 
Q 753 850 928 656 
Q 1103 463 1413 463 
Q 1641 463 1806 567 
Q 1972 672 2034 851 
Q 2097 1031 2097 1425 
L 2097 4581 
L 2703 4581 
L 2703 1459 
Q 2703 884 2564 568 
Q 2425 253 2123 87 
Q 1822 -78 1416 -78 
Q 813 -78 492 269 
Q 172 616 184 1300 
z
" transform="scale(0.015625)"/>
       <path id="ArialMT-75" d="M 2597 0 
L 2597 488 
Q 2209 -75 1544 -75 
Q 1250 -75 995 37 
Q 741 150 617 320 
Q 494 491 444 738 
Q 409 903 409 1263 
L 409 3319 
L 972 3319 
L 972 1478 
Q 972 1038 1006 884 
Q 1059 663 1231 536 
Q 1403 409 1656 409 
Q 1909 409 2131 539 
Q 2353 669 2445 892 
Q 2538 1116 2538 1541 
L 2538 3319 
L 3100 3319 
L 3100 0 
L 2597 0 
z
" transform="scale(0.015625)"/>
       <path id="ArialMT-54" d="M 1659 0 
L 1659 4041 
L 150 4041 
L 150 4581 
L 3781 4581 
L 3781 4041 
L 2266 4041 
L 2266 0 
L 1659 0 
z
" transform="scale(0.015625)"/>
       <path id="ArialMT-6d" d="M 422 0 
L 422 3319 
L 925 3319 
L 925 2853 
Q 1081 3097 1340 3245 
Q 1600 3394 1931 3394 
Q 2300 3394 2536 3241 
Q 2772 3088 2869 2813 
Q 3263 3394 3894 3394 
Q 4388 3394 4653 3120 
Q 4919 2847 4919 2278 
L 4919 0 
L 4359 0 
L 4359 2091 
Q 4359 2428 4304 2576 
Q 4250 2725 4106 2815 
Q 3963 2906 3769 2906 
Q 3419 2906 3187 2673 
Q 2956 2441 2956 1928 
L 2956 0 
L 2394 0 
L 2394 2156 
Q 2394 2531 2256 2718 
Q 2119 2906 1806 2906 
Q 1569 2906 1367 2781 
Q 1166 2656 1075 2415 
Q 984 2175 984 1722 
L 984 0 
L 422 0 
z
" transform="scale(0.015625)"/>
       <path id="ArialMT-28" d="M 1497 -1347 
Q 1031 -759 709 28 
Q 388 816 388 1659 
Q 388 2403 628 3084 
Q 909 3875 1497 4659 
L 1900 4659 
Q 1522 4009 1400 3731 
Q 1209 3300 1100 2831 
Q 966 2247 966 1656 
Q 966 153 1900 -1347 
L 1497 -1347 
z
" transform="scale(0.015625)"/>
       <path id="ArialMT-78" d="M 47 0 
L 1259 1725 
L 138 3319 
L 841 3319 
L 1350 2541 
Q 1494 2319 1581 2169 
Q 1719 2375 1834 2534 
L 2394 3319 
L 3066 3319 
L 1919 1756 
L 3153 0 
L 2463 0 
L 1781 1031 
L 1600 1309 
L 728 0 
L 47 0 
z
" transform="scale(0.015625)"/>
       <path id="ArialMT-3a" d="M 578 2678 
L 578 3319 
L 1219 3319 
L 1219 2678 
L 578 2678 
z
M 578 0 
L 578 641 
L 1219 641 
L 1219 0 
L 578 0 
z
" transform="scale(0.015625)"/>
       <path id="ArialMT-29" d="M 791 -1347 
L 388 -1347 
Q 1322 153 1322 1656 
Q 1322 2244 1188 2822 
Q 1081 3291 891 3722 
Q 769 4003 388 4659 
L 791 4659 
Q 1378 3875 1659 3084 
Q 1900 2403 1900 1659 
Q 1900 816 1576 28 
Q 1253 -759 791 -1347 
z
" transform="scale(0.015625)"/>
      </defs>
      <use xlink:href="#ArialMT-4a"/>
      <use xlink:href="#ArialMT-75" transform="translate(50 0)"/>
      <use xlink:href="#ArialMT-64" transform="translate(105.615234 0)"/>
      <use xlink:href="#ArialMT-64" transform="translate(161.230469 0)"/>
      <use xlink:href="#ArialMT-20" transform="translate(216.845703 0)"/>
      <use xlink:href="#ArialMT-54" transform="translate(242.878906 0)"/>
      <use xlink:href="#ArialMT-72" transform="translate(300.212891 0)"/>
      <use xlink:href="#ArialMT-75" transform="translate(333.513672 0)"/>
      <use xlink:href="#ArialMT-6d" transform="translate(389.128906 0)"/>
      <use xlink:href="#ArialMT-70" transform="translate(472.429688 0)"/>
      <use xlink:href="#ArialMT-20" transform="translate(528.044922 0)"/>
      <use xlink:href="#ArialMT-28" transform="translate(555.828125 0)"/>
      <use xlink:href="#ArialMT-6d" transform="translate(589.128906 0)"/>
      <use xlink:href="#ArialMT-61" transform="translate(672.429688 0)"/>
      <use xlink:href="#ArialMT-78" transform="translate(728.044922 0)"/>
      <use xlink:href="#ArialMT-3a" transform="translate(778.044922 0)"/>
      <use xlink:href="#ArialMT-20" transform="translate(805.828125 0)"/>
      <use xlink:href="#ArialMT-37" transform="translate(833.611328 0)"/>
      <use xlink:href="#ArialMT-38" transform="translate(889.226562 0)"/>
      <use xlink:href="#ArialMT-33" transform="translate(944.841797 0)"/>
      <use xlink:href="#ArialMT-29" transform="translate(1000.457031 0)"/>
     </g>
    </g>
    <g id="line2d_22">
     <path d="M 57.62 52.666562 
L 67.62 52.666562 
L 67.62 52.666562 
L 77.62 52.666562 
L 77.62 52.666562 
" style="fill: none; stroke-dasharray: 9.6,2.4,1.5,2.4; stroke-dashoffset: 0; stroke: #800080; stroke-width: 1.5"/>
    </g>
    <g id="text_21">
     <!-- Ronnie O'Sullivan (max: 782) -->
     <g style="fill: #262626" transform="translate(85.62 56.166562) scale(0.1 -0.1)">
      <defs>
       <path id="ArialMT-52" d="M 503 0 
L 503 4581 
L 2534 4581 
Q 3147 4581 3465 4457 
Q 3784 4334 3975 4021 
Q 4166 3709 4166 3331 
Q 4166 2844 3850 2509 
Q 3534 2175 2875 2084 
Q 3116 1969 3241 1856 
Q 3506 1613 3744 1247 
L 4541 0 
L 3778 0 
L 3172 953 
Q 2906 1366 2734 1584 
Q 2563 1803 2427 1890 
Q 2291 1978 2150 2013 
Q 2047 2034 1813 2034 
L 1109 2034 
L 1109 0 
L 503 0 
z
M 1109 2559 
L 2413 2559 
Q 2828 2559 3062 2645 
Q 3297 2731 3419 2920 
Q 3541 3109 3541 3331 
Q 3541 3656 3305 3865 
Q 3069 4075 2559 4075 
L 1109 4075 
L 1109 2559 
z
" transform="scale(0.015625)"/>
       <path id="ArialMT-6e" d="M 422 0 
L 422 3319 
L 928 3319 
L 928 2847 
Q 1294 3394 1984 3394 
Q 2284 3394 2536 3286 
Q 2788 3178 2913 3003 
Q 3038 2828 3088 2588 
Q 3119 2431 3119 2041 
L 3119 0 
L 2556 0 
L 2556 2019 
Q 2556 2363 2490 2533 
Q 2425 2703 2258 2804 
Q 2091 2906 1866 2906 
Q 1506 2906 1245 2678 
Q 984 2450 984 1813 
L 984 0 
L 422 0 
z
" transform="scale(0.015625)"/>
       <path id="ArialMT-4f" d="M 309 2231 
Q 309 3372 921 4017 
Q 1534 4663 2503 4663 
Q 3138 4663 3647 4359 
Q 4156 4056 4423 3514 
Q 4691 2972 4691 2284 
Q 4691 1588 4409 1038 
Q 4128 488 3612 205 
Q 3097 -78 2500 -78 
Q 1853 -78 1343 234 
Q 834 547 571 1087 
Q 309 1628 309 2231 
z
M 934 2222 
Q 934 1394 1379 917 
Q 1825 441 2497 441 
Q 3181 441 3623 922 
Q 4066 1403 4066 2288 
Q 4066 2847 3877 3264 
Q 3688 3681 3323 3911 
Q 2959 4141 2506 4141 
Q 1863 4141 1398 3698 
Q 934 3256 934 2222 
z
" transform="scale(0.015625)"/>
       <path id="ArialMT-27" d="M 425 2959 
L 281 3816 
L 281 4581 
L 922 4581 
L 922 3816 
L 772 2959 
L 425 2959 
z
" transform="scale(0.015625)"/>
       <path id="ArialMT-53" d="M 288 1472 
L 859 1522 
Q 900 1178 1048 958 
Q 1197 738 1509 602 
Q 1822 466 2213 466 
Q 2559 466 2825 569 
Q 3091 672 3220 851 
Q 3350 1031 3350 1244 
Q 3350 1459 3225 1620 
Q 3100 1781 2813 1891 
Q 2628 1963 1997 2114 
Q 1366 2266 1113 2400 
Q 784 2572 623 2826 
Q 463 3081 463 3397 
Q 463 3744 659 4045 
Q 856 4347 1234 4503 
Q 1613 4659 2075 4659 
Q 2584 4659 2973 4495 
Q 3363 4331 3572 4012 
Q 3781 3694 3797 3291 
L 3216 3247 
Q 3169 3681 2898 3903 
Q 2628 4125 2100 4125 
Q 1550 4125 1298 3923 
Q 1047 3722 1047 3438 
Q 1047 3191 1225 3031 
Q 1400 2872 2139 2705 
Q 2878 2538 3153 2413 
Q 3553 2228 3743 1945 
Q 3934 1663 3934 1294 
Q 3934 928 3725 604 
Q 3516 281 3123 101 
Q 2731 -78 2241 -78 
Q 1619 -78 1198 103 
Q 778 284 539 648 
Q 300 1013 288 1472 
z
" transform="scale(0.015625)"/>
       <path id="ArialMT-76" d="M 1344 0 
L 81 3319 
L 675 3319 
L 1388 1331 
Q 1503 1009 1600 663 
Q 1675 925 1809 1294 
L 2547 3319 
L 3125 3319 
L 1869 0 
L 1344 0 
z
" transform="scale(0.015625)"/>
      </defs>
      <use xlink:href="#ArialMT-52"/>
      <use xlink:href="#ArialMT-6f" transform="translate(72.216797 0)"/>
      <use xlink:href="#ArialMT-6e" transform="translate(127.832031 0)"/>
      <use xlink:href="#ArialMT-6e" transform="translate(183.447266 0)"/>
      <use xlink:href="#ArialMT-69" transform="translate(239.0625 0)"/>
      <use xlink:href="#ArialMT-65" transform="translate(261.279297 0)"/>
      <use xlink:href="#ArialMT-20" transform="translate(316.894531 0)"/>
      <use xlink:href="#ArialMT-4f" transform="translate(344.677734 0)"/>
      <use xlink:href="#ArialMT-27" transform="translate(422.460938 0)"/>
      <use xlink:href="#ArialMT-53" transform="translate(441.552734 0)"/>
      <use xlink:href="#ArialMT-75" transform="translate(508.251953 0)"/>
      <use xlink:href="#ArialMT-6c" transform="translate(563.867188 0)"/>
      <use xlink:href="#ArialMT-6c" transform="translate(586.083984 0)"/>
      <use xlink:href="#ArialMT-69" transform="translate(608.300781 0)"/>
      <use xlink:href="#ArialMT-76" transform="translate(630.517578 0)"/>
      <use xlink:href="#ArialMT-61" transform="translate(680.517578 0)"/>
      <use xlink:href="#ArialMT-6e" transform="translate(736.132812 0)"/>
      <use xlink:href="#ArialMT-20" transform="translate(791.748047 0)"/>
      <use xlink:href="#ArialMT-28" transform="translate(819.53125 0)"/>
      <use xlink:href="#ArialMT-6d" transform="translate(852.832031 0)"/>
      <use xlink:href="#ArialMT-61" transform="translate(936.132812 0)"/>
      <use xlink:href="#ArialMT-78" transform="translate(991.748047 0)"/>
      <use xlink:href="#ArialMT-3a" transform="translate(1041.748047 0)"/>
      <use xlink:href="#ArialMT-20" transform="translate(1069.53125 0)"/>
      <use xlink:href="#ArialMT-37" transform="translate(1097.314453 0)"/>
      <use xlink:href="#ArialMT-38" transform="translate(1152.929688 0)"/>
      <use xlink:href="#ArialMT-32" transform="translate(1208.544922 0)"/>
      <use xlink:href="#ArialMT-29" transform="translate(1264.160156 0)"/>
     </g>
    </g>
    <g id="line2d_23">
     <path d="M 57.62 67.050937 
L 67.62 67.050937 
L 67.62 67.050937 
L 77.62 67.050937 
L 77.62 67.050937 
" style="fill: none; stroke-dasharray: 1.5,2.475; stroke-dashoffset: 0; stroke: #00008b; stroke-width: 1.5"/>
    </g>
    <g id="text_22">
     <!-- Mark Selby (max: 733) -->
     <g style="fill: #262626" transform="translate(85.62 70.550937) scale(0.1 -0.1)">
      <defs>
       <path id="ArialMT-4d" d="M 475 0 
L 475 4581 
L 1388 4581 
L 2472 1338 
Q 2622 884 2691 659 
Q 2769 909 2934 1394 
L 4031 4581 
L 4847 4581 
L 4847 0 
L 4263 0 
L 4263 3834 
L 2931 0 
L 2384 0 
L 1059 3900 
L 1059 0 
L 475 0 
z
" transform="scale(0.015625)"/>
       <path id="ArialMT-6b" d="M 425 0 
L 425 4581 
L 988 4581 
L 988 1969 
L 2319 3319 
L 3047 3319 
L 1778 2088 
L 3175 0 
L 2481 0 
L 1384 1697 
L 988 1316 
L 988 0 
L 425 0 
z
" transform="scale(0.015625)"/>
       <path id="ArialMT-62" d="M 941 0 
L 419 0 
L 419 4581 
L 981 4581 
L 981 2947 
Q 1338 3394 1891 3394 
Q 2197 3394 2470 3270 
Q 2744 3147 2920 2923 
Q 3097 2700 3197 2384 
Q 3297 2069 3297 1709 
Q 3297 856 2875 390 
Q 2453 -75 1863 -75 
Q 1275 -75 941 416 
L 941 0 
z
M 934 1684 
Q 934 1088 1097 822 
Q 1363 388 1816 388 
Q 2184 388 2453 708 
Q 2722 1028 2722 1663 
Q 2722 2313 2464 2622 
Q 2206 2931 1841 2931 
Q 1472 2931 1203 2611 
Q 934 2291 934 1684 
z
" transform="scale(0.015625)"/>
      </defs>
      <use xlink:href="#ArialMT-4d"/>
      <use xlink:href="#ArialMT-61" transform="translate(83.300781 0)"/>
      <use xlink:href="#ArialMT-72" transform="translate(138.916016 0)"/>
      <use xlink:href="#ArialMT-6b" transform="translate(172.216797 0)"/>
      <use xlink:href="#ArialMT-20" transform="translate(222.216797 0)"/>
      <use xlink:href="#ArialMT-53" transform="translate(250 0)"/>
      <use xlink:href="#ArialMT-65" transform="translate(316.699219 0)"/>
      <use xlink:href="#ArialMT-6c" transform="translate(372.314453 0)"/>
      <use xlink:href="#ArialMT-62" transform="translate(394.53125 0)"/>
      <use xlink:href="#ArialMT-79" transform="translate(450.146484 0)"/>
      <use xlink:href="#ArialMT-20" transform="translate(500.146484 0)"/>
      <use xlink:href="#ArialMT-28" transform="translate(527.929688 0)"/>
      <use xlink:href="#ArialMT-6d" transform="translate(561.230469 0)"/>
      <use xlink:href="#ArialMT-61" transform="translate(644.53125 0)"/>
      <use xlink:href="#ArialMT-78" transform="translate(700.146484 0)"/>
      <use xlink:href="#ArialMT-3a" transform="translate(750.146484 0)"/>
      <use xlink:href="#ArialMT-20" transform="translate(777.929688 0)"/>
      <use xlink:href="#ArialMT-37" transform="translate(805.712891 0)"/>
      <use xlink:href="#ArialMT-33" transform="translate(861.328125 0)"/>
      <use xlink:href="#ArialMT-33" transform="translate(916.943359 0)"/>
      <use xlink:href="#ArialMT-29" transform="translate(972.558594 0)"/>
     </g>
    </g>
   </g>
  </g>
 </g>
 <defs>
  <clipPath id="pb6188ae6f2">
   <rect x="48.62" y="25.49625" width="401.38" height="292.22375"/>
  </clipPath>
 </defs>
</svg>
