<?xml version="1.0" encoding="utf-8" standalone="no"?>
<!DOCTYPE svg PUBLIC "-//W3C//DTD SVG 1.1//EN"
  "http://www.w3.org/Graphics/SVG/1.1/DTD/svg11.dtd">
<svg xmlns:xlink="http://www.w3.org/1999/xlink" width="460.8pt" height="345.6pt" viewBox="0 0 460.8 345.6" xmlns="http://www.w3.org/2000/svg" version="1.1">
 <metadata>
  <rdf:RDF xmlns:dc="http://purl.org/dc/elements/1.1/" xmlns:cc="http://creativecommons.org/ns#" xmlns:rdf="http://www.w3.org/1999/02/22-rdf-syntax-ns#">
   <cc:Work>
    <dc:type rdf:resource="http://purl.org/dc/dcmitype/StillImage"/>
    <dc:date>2025-12-08T15:42:54.328684</dc:date>
    <dc:format>image/svg+xml</dc:format>
    <dc:creator>
     <cc:Agent>
      <dc:title>Matplotlib v3.10.7, https://matplotlib.org/</dc:title>
     </cc:Agent>
    </dc:creator>
   </cc:Work>
  </rdf:RDF>
 </metadata>
 <defs>
  <style type="text/css">*{stroke-linejoin: round; stroke-linecap: butt}</style>
 </defs>
 <g id="figure_1">
  <g id="patch_1">
   <path d="M 0 345.6 
L 460.8 345.6 
L 460.8 0 
L 0 0 
z
" style="fill: #ffffff"/>
  </g>
  <g id="axes_1">
   <g id="patch_2">
    <path d="M 54.2 303.53875 
L 450 303.53875 
L 450 25.49625 
L 54.2 25.49625 
z
" style="fill: #eaeaf2"/>
   </g>
   <g id="matplotlib.axis_1">
    <g id="xtick_1">
     <g id="line2d_1">
      <path d="M 72.190909 303.53875 
L 72.190909 25.49625 
" clip-path="url(#p22c1f4850c)" style="fill: none; stroke: #ffffff; stroke-width: 0.8; stroke-linecap: round"/>
     </g>
     <g id="text_1">
      <!-- 0.0 -->
      <g style="fill: #262626" transform="translate(65.240909 317.696562) scale(0.1 -0.1)">
       <defs>
        <path id="ArialMT-30" d="M 266 2259 
Q 266 3072 433 3567 
Q 600 4063 929 4331 
Q 1259 4600 1759 4600 
Q 2128 4600 2406 4451 
Q 2684 4303 2865 4023 
Q 3047 3744 3150 3342 
Q 3253 2941 3253 2259 
Q 3253 1453 3087 958 
Q 2922 463 2592 192 
Q 2263 -78 1759 -78 
Q 1097 -78 719 397 
Q 266 969 266 2259 
z
M 844 2259 
Q 844 1131 1108 757 
Q 1372 384 1759 384 
Q 2147 384 2411 759 
Q 2675 1134 2675 2259 
Q 2675 3391 2411 3762 
Q 2147 4134 1753 4134 
Q 1366 4134 1134 3806 
Q 844 3388 844 2259 
z
" transform="scale(0.015625)"/>
        <path id="ArialMT-2e" d="M 581 0 
L 581 641 
L 1222 641 
L 1222 0 
L 581 0 
z
" transform="scale(0.015625)"/>
       </defs>
       <use xlink:href="#ArialMT-30"/>
       <use xlink:href="#ArialMT-2e" transform="translate(55.615234 0)"/>
       <use xlink:href="#ArialMT-30" transform="translate(83.398438 0)"/>
      </g>
     </g>
    </g>
    <g id="xtick_2">
     <g id="line2d_2">
      <path d="M 144.881451 303.53875 
L 144.881451 25.49625 
" clip-path="url(#p22c1f4850c)" style="fill: none; stroke: #ffffff; stroke-width: 0.8; stroke-linecap: round"/>
     </g>
     <g id="text_2">
      <!-- 0.2 -->
      <g style="fill: #262626" transform="translate(137.931451 317.696562) scale(0.1 -0.1)">
       <defs>
        <path id="ArialMT-32" d="M 3222 541 
L 3222 0 
L 194 0 
Q 188 203 259 391 
Q 375 700 629 1000 
Q 884 1300 1366 1694 
Q 2113 2306 2375 2664 
Q 2638 3022 2638 3341 
Q 2638 3675 2398 3904 
Q 2159 4134 1775 4134 
Q 1369 4134 1125 3890 
Q 881 3647 878 3216 
L 300 3275 
Q 359 3922 746 4261 
Q 1134 4600 1788 4600 
Q 2447 4600 2831 4234 
Q 3216 3869 3216 3328 
Q 3216 3053 3103 2787 
Q 2991 2522 2730 2228 
Q 2469 1934 1863 1422 
Q 1356 997 1212 845 
Q 1069 694 975 541 
L 3222 541 
z
" transform="scale(0.015625)"/>
       </defs>
       <use xlink:href="#ArialMT-30"/>
       <use xlink:href="#ArialMT-2e" transform="translate(55.615234 0)"/>
       <use xlink:href="#ArialMT-32" transform="translate(83.398438 0)"/>
      </g>
     </g>
    </g>
    <g id="xtick_3">
     <g id="line2d_3">
      <path d="M 217.571993 303.53875 
L 217.571993 25.49625 
" clip-path="url(#p22c1f4850c)" style="fill: none; stroke: #ffffff; stroke-width: 0.8; stroke-linecap: round"/>
     </g>
     <g id="text_3">
      <!-- 0.4 -->
      <g style="fill: #262626" transform="translate(210.621993 317.696562) scale(0.1 -0.1)">
       <defs>
        <path id="ArialMT-34" d="M 2069 0 
L 2069 1097 
L 81 1097 
L 81 1613 
L 2172 4581 
L 2631 4581 
L 2631 1613 
L 3250 1613 
L 3250 1097 
L 2631 1097 
L 2631 0 
L 2069 0 
z
M 2069 1613 
L 2069 3678 
L 634 1613 
L 2069 1613 
z
" transform="scale(0.015625)"/>
       </defs>
       <use xlink:href="#ArialMT-30"/>
       <use xlink:href="#ArialMT-2e" transform="translate(55.615234 0)"/>
       <use xlink:href="#ArialMT-34" transform="translate(83.398438 0)"/>
      </g>
     </g>
    </g>
    <g id="xtick_4">
     <g id="line2d_4">
      <path d="M 290.262534 303.53875 
L 290.262534 25.49625 
" clip-path="url(#p22c1f4850c)" style="fill: none; stroke: #ffffff; stroke-width: 0.8; stroke-linecap: round"/>
     </g>
     <g id="text_4">
      <!-- 0.6 -->
      <g style="fill: #262626" transform="translate(283.312534 317.696562) scale(0.1 -0.1)">
       <defs>
        <path id="ArialMT-36" d="M 3184 3459 
L 2625 3416 
Q 2550 3747 2413 3897 
Q 2184 4138 1850 4138 
Q 1581 4138 1378 3988 
Q 1113 3794 959 3422 
Q 806 3050 800 2363 
Q 1003 2672 1297 2822 
Q 1591 2972 1913 2972 
Q 2475 2972 2870 2558 
Q 3266 2144 3266 1488 
Q 3266 1056 3080 686 
Q 2894 316 2569 119 
Q 2244 -78 1831 -78 
Q 1128 -78 684 439 
Q 241 956 241 2144 
Q 241 3472 731 4075 
Q 1159 4600 1884 4600 
Q 2425 4600 2770 4297 
Q 3116 3994 3184 3459 
z
M 888 1484 
Q 888 1194 1011 928 
Q 1134 663 1356 523 
Q 1578 384 1822 384 
Q 2178 384 2434 671 
Q 2691 959 2691 1453 
Q 2691 1928 2437 2201 
Q 2184 2475 1800 2475 
Q 1419 2475 1153 2201 
Q 888 1928 888 1484 
z
" transform="scale(0.015625)"/>
       </defs>
       <use xlink:href="#ArialMT-30"/>
       <use xlink:href="#ArialMT-2e" transform="translate(55.615234 0)"/>
       <use xlink:href="#ArialMT-36" transform="translate(83.398438 0)"/>
      </g>
     </g>
    </g>
    <g id="xtick_5">
     <g id="line2d_5">
      <path d="M 362.953076 303.53875 
L 362.953076 25.49625 
" clip-path="url(#p22c1f4850c)" style="fill: none; stroke: #ffffff; stroke-width: 0.8; stroke-linecap: round"/>
     </g>
     <g id="text_5">
      <!-- 0.8 -->
      <g style="fill: #262626" transform="translate(356.003076 317.696562) scale(0.1 -0.1)">
       <defs>
        <path id="ArialMT-38" d="M 1131 2484 
Q 781 2613 612 2850 
Q 444 3088 444 3419 
Q 444 3919 803 4259 
Q 1163 4600 1759 4600 
Q 2359 4600 2725 4251 
Q 3091 3903 3091 3403 
Q 3091 3084 2923 2848 
Q 2756 2613 2416 2484 
Q 2838 2347 3058 2040 
Q 3278 1734 3278 1309 
Q 3278 722 2862 322 
Q 2447 -78 1769 -78 
Q 1091 -78 675 323 
Q 259 725 259 1325 
Q 259 1772 486 2073 
Q 713 2375 1131 2484 
z
M 1019 3438 
Q 1019 3113 1228 2906 
Q 1438 2700 1772 2700 
Q 2097 2700 2305 2904 
Q 2513 3109 2513 3406 
Q 2513 3716 2298 3927 
Q 2084 4138 1766 4138 
Q 1444 4138 1231 3931 
Q 1019 3725 1019 3438 
z
M 838 1322 
Q 838 1081 952 856 
Q 1066 631 1291 507 
Q 1516 384 1775 384 
Q 2178 384 2440 643 
Q 2703 903 2703 1303 
Q 2703 1709 2433 1975 
Q 2163 2241 1756 2241 
Q 1359 2241 1098 1978 
Q 838 1716 838 1322 
z
" transform="scale(0.015625)"/>
       </defs>
       <use xlink:href="#ArialMT-30"/>
       <use xlink:href="#ArialMT-2e" transform="translate(55.615234 0)"/>
       <use xlink:href="#ArialMT-38" transform="translate(83.398438 0)"/>
      </g>
     </g>
    </g>
    <g id="xtick_6">
     <g id="line2d_6">
      <path d="M 435.643618 303.53875 
L 435.643618 25.49625 
" clip-path="url(#p22c1f4850c)" style="fill: none; stroke: #ffffff; stroke-width: 0.8; stroke-linecap: round"/>
     </g>
     <g id="text_6">
      <!-- 1.0 -->
      <g style="fill: #262626" transform="translate(428.693618 317.696562) scale(0.1 -0.1)">
       <defs>
        <path id="ArialMT-31" d="M 2384 0 
L 1822 0 
L 1822 3584 
Q 1619 3391 1289 3197 
Q 959 3003 697 2906 
L 697 3450 
Q 1169 3672 1522 3987 
Q 1875 4303 2022 4600 
L 2384 4600 
L 2384 0 
z
" transform="scale(0.015625)"/>
       </defs>
       <use xlink:href="#ArialMT-31"/>
       <use xlink:href="#ArialMT-2e" transform="translate(55.615234 0)"/>
       <use xlink:href="#ArialMT-30" transform="translate(83.398438 0)"/>
      </g>
     </g>
    </g>
    <g id="text_7">
     <!-- p_deterministic -->
     <g style="fill: #262626" transform="translate(218.476563 330.841875) scale(0.1 -0.1)">
      <defs>
       <path id="ArialMT-70" d="M 422 -1272 
L 422 3319 
L 934 3319 
L 934 2888 
Q 1116 3141 1344 3267 
Q 1572 3394 1897 3394 
Q 2322 3394 2647 3175 
Q 2972 2956 3137 2557 
Q 3303 2159 3303 1684 
Q 3303 1175 3120 767 
Q 2938 359 2589 142 
Q 2241 -75 1856 -75 
Q 1575 -75 1351 44 
Q 1128 163 984 344 
L 984 -1272 
L 422 -1272 
z
M 931 1641 
Q 931 1000 1190 694 
Q 1450 388 1819 388 
Q 2194 388 2461 705 
Q 2728 1022 2728 1688 
Q 2728 2322 2467 2637 
Q 2206 2953 1844 2953 
Q 1484 2953 1207 2617 
Q 931 2281 931 1641 
z
" transform="scale(0.015625)"/>
       <path id="ArialMT-5f" d="M -97 -1272 
L -97 -866 
L 3631 -866 
L 3631 -1272 
L -97 -1272 
z
" transform="scale(0.015625)"/>
       <path id="ArialMT-64" d="M 2575 0 
L 2575 419 
Q 2259 -75 1647 -75 
Q 1250 -75 917 144 
Q 584 363 401 755 
Q 219 1147 219 1656 
Q 219 2153 384 2558 
Q 550 2963 881 3178 
Q 1213 3394 1622 3394 
Q 1922 3394 2156 3267 
Q 2391 3141 2538 2938 
L 2538 4581 
L 3097 4581 
L 3097 0 
L 2575 0 
z
M 797 1656 
Q 797 1019 1065 703 
Q 1334 388 1700 388 
Q 2069 388 2326 689 
Q 2584 991 2584 1609 
Q 2584 2291 2321 2609 
Q 2059 2928 1675 2928 
Q 1300 2928 1048 2622 
Q 797 2316 797 1656 
z
" transform="scale(0.015625)"/>
       <path id="ArialMT-65" d="M 2694 1069 
L 3275 997 
Q 3138 488 2766 206 
Q 2394 -75 1816 -75 
Q 1088 -75 661 373 
Q 234 822 234 1631 
Q 234 2469 665 2931 
Q 1097 3394 1784 3394 
Q 2450 3394 2872 2941 
Q 3294 2488 3294 1666 
Q 3294 1616 3291 1516 
L 816 1516 
Q 847 969 1125 678 
Q 1403 388 1819 388 
Q 2128 388 2347 550 
Q 2566 713 2694 1069 
z
M 847 1978 
L 2700 1978 
Q 2663 2397 2488 2606 
Q 2219 2931 1791 2931 
Q 1403 2931 1139 2672 
Q 875 2413 847 1978 
z
" transform="scale(0.015625)"/>
       <path id="ArialMT-74" d="M 1650 503 
L 1731 6 
Q 1494 -44 1306 -44 
Q 1000 -44 831 53 
Q 663 150 594 308 
Q 525 466 525 972 
L 525 2881 
L 113 2881 
L 113 3319 
L 525 3319 
L 525 4141 
L 1084 4478 
L 1084 3319 
L 1650 3319 
L 1650 2881 
L 1084 2881 
L 1084 941 
Q 1084 700 1114 631 
Q 1144 563 1211 522 
Q 1278 481 1403 481 
Q 1497 481 1650 503 
z
" transform="scale(0.015625)"/>
       <path id="ArialMT-72" d="M 416 0 
L 416 3319 
L 922 3319 
L 922 2816 
Q 1116 3169 1280 3281 
Q 1444 3394 1641 3394 
Q 1925 3394 2219 3213 
L 2025 2691 
Q 1819 2813 1613 2813 
Q 1428 2813 1281 2702 
Q 1134 2591 1072 2394 
Q 978 2094 978 1738 
L 978 0 
L 416 0 
z
" transform="scale(0.015625)"/>
       <path id="ArialMT-6d" d="M 422 0 
L 422 3319 
L 925 3319 
L 925 2853 
Q 1081 3097 1340 3245 
Q 1600 3394 1931 3394 
Q 2300 3394 2536 3241 
Q 2772 3088 2869 2813 
Q 3263 3394 3894 3394 
Q 4388 3394 4653 3120 
Q 4919 2847 4919 2278 
L 4919 0 
L 4359 0 
L 4359 2091 
Q 4359 2428 4304 2576 
Q 4250 2725 4106 2815 
Q 3963 2906 3769 2906 
Q 3419 2906 3187 2673 
Q 2956 2441 2956 1928 
L 2956 0 
L 2394 0 
L 2394 2156 
Q 2394 2531 2256 2718 
Q 2119 2906 1806 2906 
Q 1569 2906 1367 2781 
Q 1166 2656 1075 2415 
Q 984 2175 984 1722 
L 984 0 
L 422 0 
z
" transform="scale(0.015625)"/>
       <path id="ArialMT-69" d="M 425 3934 
L 425 4581 
L 988 4581 
L 988 3934 
L 425 3934 
z
M 425 0 
L 425 3319 
L 988 3319 
L 988 0 
L 425 0 
z
" transform="scale(0.015625)"/>
       <path id="ArialMT-6e" d="M 422 0 
L 422 3319 
L 928 3319 
L 928 2847 
Q 1294 3394 1984 3394 
Q 2284 3394 2536 3286 
Q 2788 3178 2913 3003 
Q 3038 2828 3088 2588 
Q 3119 2431 3119 2041 
L 3119 0 
L 2556 0 
L 2556 2019 
Q 2556 2363 2490 2533 
Q 2425 2703 2258 2804 
Q 2091 2906 1866 2906 
Q 1506 2906 1245 2678 
Q 984 2450 984 1813 
L 984 0 
L 422 0 
z
" transform="scale(0.015625)"/>
       <path id="ArialMT-73" d="M 197 991 
L 753 1078 
Q 800 744 1014 566 
Q 1228 388 1613 388 
Q 2000 388 2187 545 
Q 2375 703 2375 916 
Q 2375 1106 2209 1216 
Q 2094 1291 1634 1406 
Q 1016 1563 777 1677 
Q 538 1791 414 1992 
Q 291 2194 291 2438 
Q 291 2659 392 2848 
Q 494 3038 669 3163 
Q 800 3259 1026 3326 
Q 1253 3394 1513 3394 
Q 1903 3394 2198 3281 
Q 2494 3169 2634 2976 
Q 2775 2784 2828 2463 
L 2278 2388 
Q 2241 2644 2061 2787 
Q 1881 2931 1553 2931 
Q 1166 2931 1000 2803 
Q 834 2675 834 2503 
Q 834 2394 903 2306 
Q 972 2216 1119 2156 
Q 1203 2125 1616 2013 
Q 2213 1853 2448 1751 
Q 2684 1650 2818 1456 
Q 2953 1263 2953 975 
Q 2953 694 2789 445 
Q 2625 197 2315 61 
Q 2006 -75 1616 -75 
Q 969 -75 630 194 
Q 291 463 197 991 
z
" transform="scale(0.015625)"/>
       <path id="ArialMT-63" d="M 2588 1216 
L 3141 1144 
Q 3050 572 2676 248 
Q 2303 -75 1759 -75 
Q 1078 -75 664 370 
Q 250 816 250 1647 
Q 250 2184 428 2587 
Q 606 2991 970 3192 
Q 1334 3394 1763 3394 
Q 2303 3394 2647 3120 
Q 2991 2847 3088 2344 
L 2541 2259 
Q 2463 2594 2264 2762 
Q 2066 2931 1784 2931 
Q 1359 2931 1093 2626 
Q 828 2322 828 1663 
Q 828 994 1084 691 
Q 1341 388 1753 388 
Q 2084 388 2306 591 
Q 2528 794 2588 1216 
z
" transform="scale(0.015625)"/>
      </defs>
      <use xlink:href="#ArialMT-70"/>
      <use xlink:href="#ArialMT-5f" transform="translate(55.615234 0)"/>
      <use xlink:href="#ArialMT-64" transform="translate(111.230469 0)"/>
      <use xlink:href="#ArialMT-65" transform="translate(166.845703 0)"/>
      <use xlink:href="#ArialMT-74" transform="translate(222.460938 0)"/>
      <use xlink:href="#ArialMT-65" transform="translate(250.244141 0)"/>
      <use xlink:href="#ArialMT-72" transform="translate(305.859375 0)"/>
      <use xlink:href="#ArialMT-6d" transform="translate(339.160156 0)"/>
      <use xlink:href="#ArialMT-69" transform="translate(422.460938 0)"/>
      <use xlink:href="#ArialMT-6e" transform="translate(444.677734 0)"/>
      <use xlink:href="#ArialMT-69" transform="translate(500.292969 0)"/>
      <use xlink:href="#ArialMT-73" transform="translate(522.509766 0)"/>
      <use xlink:href="#ArialMT-74" transform="translate(572.509766 0)"/>
      <use xlink:href="#ArialMT-69" transform="translate(600.292969 0)"/>
      <use xlink:href="#ArialMT-63" transform="translate(622.509766 0)"/>
     </g>
    </g>
   </g>
   <g id="matplotlib.axis_2">
    <g id="ytick_1">
     <g id="line2d_7">
      <path d="M 54.2 290.900455 
L 450 290.900455 
" clip-path="url(#p22c1f4850c)" style="fill: none; stroke: #ffffff; stroke-width: 0.8; stroke-linecap: round"/>
     </g>
     <g id="text_8">
      <!-- 0 -->
      <g style="fill: #262626" transform="translate(41.639063 294.479361) scale(0.1 -0.1)">
       <use xlink:href="#ArialMT-30"/>
      </g>
     </g>
    </g>
    <g id="ytick_2">
     <g id="line2d_8">
      <path d="M 54.2 256.943282 
L 450 256.943282 
" clip-path="url(#p22c1f4850c)" style="fill: none; stroke: #ffffff; stroke-width: 0.8; stroke-linecap: round"/>
     </g>
     <g id="text_9">
      <!-- 200 -->
      <g style="fill: #262626" transform="translate(30.517188 260.522188) scale(0.1 -0.1)">
       <use xlink:href="#ArialMT-32"/>
       <use xlink:href="#ArialMT-30" transform="translate(55.615234 0)"/>
       <use xlink:href="#ArialMT-30" transform="translate(111.230469 0)"/>
      </g>
     </g>
    </g>
    <g id="ytick_3">
     <g id="line2d_9">
      <path d="M 54.2 222.98611 
L 450 222.98611 
" clip-path="url(#p22c1f4850c)" style="fill: none; stroke: #ffffff; stroke-width: 0.8; stroke-linecap: round"/>
     </g>
     <g id="text_10">
      <!-- 400 -->
      <g style="fill: #262626" transform="translate(30.517188 226.565016) scale(0.1 -0.1)">
       <use xlink:href="#ArialMT-34"/>
       <use xlink:href="#ArialMT-30" transform="translate(55.615234 0)"/>
       <use xlink:href="#ArialMT-30" transform="translate(111.230469 0)"/>
      </g>
     </g>
    </g>
    <g id="ytick_4">
     <g id="line2d_10">
      <path d="M 54.2 189.028937 
L 450 189.028937 
" clip-path="url(#p22c1f4850c)" style="fill: none; stroke: #ffffff; stroke-width: 0.8; stroke-linecap: round"/>
     </g>
     <g id="text_11">
      <!-- 600 -->
      <g style="fill: #262626" transform="translate(30.517188 192.607844) scale(0.1 -0.1)">
       <use xlink:href="#ArialMT-36"/>
       <use xlink:href="#ArialMT-30" transform="translate(55.615234 0)"/>
       <use xlink:href="#ArialMT-30" transform="translate(111.230469 0)"/>
      </g>
     </g>
    </g>
    <g id="ytick_5">
     <g id="line2d_11">
      <path d="M 54.2 155.071765 
L 450 155.071765 
" clip-path="url(#p22c1f4850c)" style="fill: none; stroke: #ffffff; stroke-width: 0.8; stroke-linecap: round"/>
     </g>
     <g id="text_12">
      <!-- 800 -->
      <g style="fill: #262626" transform="translate(30.517188 158.650671) scale(0.1 -0.1)">
       <use xlink:href="#ArialMT-38"/>
       <use xlink:href="#ArialMT-30" transform="translate(55.615234 0)"/>
       <use xlink:href="#ArialMT-30" transform="translate(111.230469 0)"/>
      </g>
     </g>
    </g>
    <g id="ytick_6">
     <g id="line2d_12">
      <path d="M 54.2 121.114593 
L 450 121.114593 
" clip-path="url(#p22c1f4850c)" style="fill: none; stroke: #ffffff; stroke-width: 0.8; stroke-linecap: round"/>
     </g>
     <g id="text_13">
      <!-- 1000 -->
      <g style="fill: #262626" transform="translate(24.95625 124.693499) scale(0.1 -0.1)">
       <use xlink:href="#ArialMT-31"/>
       <use xlink:href="#ArialMT-30" transform="translate(55.615234 0)"/>
       <use xlink:href="#ArialMT-30" transform="translate(111.230469 0)"/>
       <use xlink:href="#ArialMT-30" transform="translate(166.845703 0)"/>
      </g>
     </g>
    </g>
    <g id="ytick_7">
     <g id="line2d_13">
      <path d="M 54.2 87.15742 
L 450 87.15742 
" clip-path="url(#p22c1f4850c)" style="fill: none; stroke: #ffffff; stroke-width: 0.8; stroke-linecap: round"/>
     </g>
     <g id="text_14">
      <!-- 1200 -->
      <g style="fill: #262626" transform="translate(24.95625 90.736326) scale(0.1 -0.1)">
       <use xlink:href="#ArialMT-31"/>
       <use xlink:href="#ArialMT-32" transform="translate(55.615234 0)"/>
       <use xlink:href="#ArialMT-30" transform="translate(111.230469 0)"/>
       <use xlink:href="#ArialMT-30" transform="translate(166.845703 0)"/>
      </g>
     </g>
    </g>
    <g id="ytick_8">
     <g id="line2d_14">
      <path d="M 54.2 53.200248 
L 450 53.200248 
" clip-path="url(#p22c1f4850c)" style="fill: none; stroke: #ffffff; stroke-width: 0.8; stroke-linecap: round"/>
     </g>
     <g id="text_15">
      <!-- 1400 -->
      <g style="fill: #262626" transform="translate(24.95625 56.779154) scale(0.1 -0.1)">
       <use xlink:href="#ArialMT-31"/>
       <use xlink:href="#ArialMT-34" transform="translate(55.615234 0)"/>
       <use xlink:href="#ArialMT-30" transform="translate(111.230469 0)"/>
       <use xlink:href="#ArialMT-30" transform="translate(166.845703 0)"/>
      </g>
     </g>
    </g>
    <g id="text_16">
     <!-- σ -->
     <g style="fill: #262626" transform="translate(18.96875 167.603437) rotate(-90) scale(0.1 -0.1)">
      <defs>
       <path id="ArialMT-3c3" d="M 3809 3319 
L 3809 2863 
L 2906 2863 
Q 3322 2475 3322 1656 
Q 3322 766 2867 345 
Q 2413 -75 1763 -75 
Q 1088 -75 650 362 
Q 213 800 213 1659 
Q 213 2544 667 2969 
Q 1122 3394 1763 3394 
Q 1997 3394 2294 3319 
L 3809 3319 
z
M 1753 2928 
Q 1344 2928 1067 2609 
Q 791 2291 791 1656 
Q 791 1025 1061 706 
Q 1331 388 1763 388 
Q 2216 388 2483 720 
Q 2750 1053 2750 1659 
Q 2750 2213 2504 2570 
Q 2259 2928 1753 2928 
z
" transform="scale(0.015625)"/>
      </defs>
      <use xlink:href="#ArialMT-3c3"/>
     </g>
    </g>
   </g>
   <g id="PathCollection_1">
    <defs>
     <path id="mf88e925179" d="M 0 3 
C 0.795609 3 1.55874 2.683901 2.12132 2.12132 
C 2.683901 1.55874 3 0.795609 3 0 
C 3 -0.795609 2.683901 -1.55874 2.12132 -2.12132 
C 1.55874 -2.683901 0.795609 -3 0 -3 
C -0.795609 -3 -1.55874 -2.683901 -2.12132 -2.12132 
C -2.683901 -1.55874 -3 -0.795609 -3 0 
C -3 0.795609 -2.683901 1.55874 -2.12132 2.12132 
C -1.55874 2.683901 -0.795609 3 0 3 
z
" style="stroke: #ffffff; stroke-width: 0.48"/>
    </defs>
    <g clip-path="url(#p22c1f4850c)">
     <use xlink:href="#mf88e925179" x="72.190909" y="290.900455" style="fill: #800080; stroke: #ffffff; stroke-width: 0.48"/>
     <use xlink:href="#mf88e925179" x="75.825436" y="290.82527" style="fill: #800080; stroke: #ffffff; stroke-width: 0.48"/>
     <use xlink:href="#mf88e925179" x="79.459963" y="290.572819" style="fill: #800080; stroke: #ffffff; stroke-width: 0.48"/>
     <use xlink:href="#mf88e925179" x="83.09449" y="290.29674" style="fill: #800080; stroke: #ffffff; stroke-width: 0.48"/>
     <use xlink:href="#mf88e925179" x="86.729017" y="289.869056" style="fill: #800080; stroke: #ffffff; stroke-width: 0.48"/>
     <use xlink:href="#mf88e925179" x="90.363545" y="289.397456" style="fill: #800080; stroke: #ffffff; stroke-width: 0.48"/>
     <use xlink:href="#mf88e925179" x="93.998072" y="289.035197" style="fill: #800080; stroke: #ffffff; stroke-width: 0.48"/>
     <use xlink:href="#mf88e925179" x="97.632599" y="288.611422" style="fill: #800080; stroke: #ffffff; stroke-width: 0.48"/>
     <use xlink:href="#mf88e925179" x="101.267126" y="288.20761" style="fill: #800080; stroke: #ffffff; stroke-width: 0.48"/>
     <use xlink:href="#mf88e925179" x="104.901653" y="287.803258" style="fill: #800080; stroke: #ffffff; stroke-width: 0.48"/>
     <use xlink:href="#mf88e925179" x="108.53618" y="287.425943" style="fill: #800080; stroke: #ffffff; stroke-width: 0.48"/>
     <use xlink:href="#mf88e925179" x="112.170707" y="287.022588" style="fill: #800080; stroke: #ffffff; stroke-width: 0.48"/>
     <use xlink:href="#mf88e925179" x="115.805234" y="286.62469" style="fill: #800080; stroke: #ffffff; stroke-width: 0.48"/>
     <use xlink:href="#mf88e925179" x="119.439761" y="286.208234" style="fill: #800080; stroke: #ffffff; stroke-width: 0.48"/>
     <use xlink:href="#mf88e925179" x="123.074288" y="285.941162" style="fill: #800080; stroke: #ffffff; stroke-width: 0.48"/>
     <use xlink:href="#mf88e925179" x="126.708815" y="285.472716" style="fill: #800080; stroke: #ffffff; stroke-width: 0.48"/>
     <use xlink:href="#mf88e925179" x="130.343343" y="285.28483" style="fill: #800080; stroke: #ffffff; stroke-width: 0.48"/>
     <use xlink:href="#mf88e925179" x="133.97787" y="284.668315" style="fill: #800080; stroke: #ffffff; stroke-width: 0.48"/>
     <use xlink:href="#mf88e925179" x="137.612397" y="284.375091" style="fill: #800080; stroke: #ffffff; stroke-width: 0.48"/>
     <use xlink:href="#mf88e925179" x="141.246924" y="284.041259" style="fill: #800080; stroke: #ffffff; stroke-width: 0.48"/>
     <use xlink:href="#mf88e925179" x="144.881451" y="283.678971" style="fill: #800080; stroke: #ffffff; stroke-width: 0.48"/>
     <use xlink:href="#mf88e925179" x="148.515978" y="283.180276" style="fill: #800080; stroke: #ffffff; stroke-width: 0.48"/>
     <use xlink:href="#mf88e925179" x="152.150505" y="282.983075" style="fill: #800080; stroke: #ffffff; stroke-width: 0.48"/>
     <use xlink:href="#mf88e925179" x="155.785032" y="282.516943" style="fill: #800080; stroke: #ffffff; stroke-width: 0.48"/>
     <use xlink:href="#mf88e925179" x="159.419559" y="281.986592" style="fill: #800080; stroke: #ffffff; stroke-width: 0.48"/>
     <use xlink:href="#mf88e925179" x="163.054086" y="281.711515" style="fill: #800080; stroke: #ffffff; stroke-width: 0.48"/>
     <use xlink:href="#mf88e925179" x="166.688613" y="281.273926" style="fill: #800080; stroke: #ffffff; stroke-width: 0.48"/>
     <use xlink:href="#mf88e925179" x="170.32314" y="280.926848" style="fill: #800080; stroke: #ffffff; stroke-width: 0.48"/>
     <use xlink:href="#mf88e925179" x="173.957668" y="280.514169" style="fill: #800080; stroke: #ffffff; stroke-width: 0.48"/>
     <use xlink:href="#mf88e925179" x="177.592195" y="280.0891" style="fill: #800080; stroke: #ffffff; stroke-width: 0.48"/>
     <use xlink:href="#mf88e925179" x="181.226722" y="279.804516" style="fill: #800080; stroke: #ffffff; stroke-width: 0.48"/>
     <use xlink:href="#mf88e925179" x="184.861249" y="279.210966" style="fill: #800080; stroke: #ffffff; stroke-width: 0.48"/>
     <use xlink:href="#mf88e925179" x="188.495776" y="278.837193" style="fill: #800080; stroke: #ffffff; stroke-width: 0.48"/>
     <use xlink:href="#mf88e925179" x="192.130303" y="278.531792" style="fill: #800080; stroke: #ffffff; stroke-width: 0.48"/>
     <use xlink:href="#mf88e925179" x="195.76483" y="278.187195" style="fill: #800080; stroke: #ffffff; stroke-width: 0.48"/>
     <use xlink:href="#mf88e925179" x="199.399357" y="277.620551" style="fill: #800080; stroke: #ffffff; stroke-width: 0.48"/>
     <use xlink:href="#mf88e925179" x="203.033884" y="277.166388" style="fill: #800080; stroke: #ffffff; stroke-width: 0.48"/>
     <use xlink:href="#mf88e925179" x="206.668411" y="276.837277" style="fill: #800080; stroke: #ffffff; stroke-width: 0.48"/>
     <use xlink:href="#mf88e925179" x="210.302938" y="276.400735" style="fill: #800080; stroke: #ffffff; stroke-width: 0.48"/>
     <use xlink:href="#mf88e925179" x="213.937466" y="275.726385" style="fill: #800080; stroke: #ffffff; stroke-width: 0.48"/>
     <use xlink:href="#mf88e925179" x="217.571993" y="275.548056" style="fill: #800080; stroke: #ffffff; stroke-width: 0.48"/>
     <use xlink:href="#mf88e925179" x="221.20652" y="275.039638" style="fill: #800080; stroke: #ffffff; stroke-width: 0.48"/>
     <use xlink:href="#mf88e925179" x="224.841047" y="274.4868" style="fill: #800080; stroke: #ffffff; stroke-width: 0.48"/>
     <use xlink:href="#mf88e925179" x="228.475574" y="274.089248" style="fill: #800080; stroke: #ffffff; stroke-width: 0.48"/>
     <use xlink:href="#mf88e925179" x="232.110101" y="273.882522" style="fill: #800080; stroke: #ffffff; stroke-width: 0.48"/>
     <use xlink:href="#mf88e925179" x="235.744628" y="273.087507" style="fill: #800080; stroke: #ffffff; stroke-width: 0.48"/>
     <use xlink:href="#mf88e925179" x="239.379155" y="272.793818" style="fill: #800080; stroke: #ffffff; stroke-width: 0.48"/>
     <use xlink:href="#mf88e925179" x="243.013682" y="272.12711" style="fill: #800080; stroke: #ffffff; stroke-width: 0.48"/>
     <use xlink:href="#mf88e925179" x="246.648209" y="271.62254" style="fill: #800080; stroke: #ffffff; stroke-width: 0.48"/>
     <use xlink:href="#mf88e925179" x="250.282736" y="271.023783" style="fill: #800080; stroke: #ffffff; stroke-width: 0.48"/>
     <use xlink:href="#mf88e925179" x="253.917264" y="270.412836" style="fill: #800080; stroke: #ffffff; stroke-width: 0.48"/>
     <use xlink:href="#mf88e925179" x="257.551791" y="269.983268" style="fill: #800080; stroke: #ffffff; stroke-width: 0.48"/>
     <use xlink:href="#mf88e925179" x="261.186318" y="269.342761" style="fill: #800080; stroke: #ffffff; stroke-width: 0.48"/>
     <use xlink:href="#mf88e925179" x="264.820845" y="268.832816" style="fill: #800080; stroke: #ffffff; stroke-width: 0.48"/>
     <use xlink:href="#mf88e925179" x="268.455372" y="267.987566" style="fill: #800080; stroke: #ffffff; stroke-width: 0.48"/>
     <use xlink:href="#mf88e925179" x="272.089899" y="267.643552" style="fill: #800080; stroke: #ffffff; stroke-width: 0.48"/>
     <use xlink:href="#mf88e925179" x="275.724426" y="267.081262" style="fill: #800080; stroke: #ffffff; stroke-width: 0.48"/>
     <use xlink:href="#mf88e925179" x="279.358953" y="266.280367" style="fill: #800080; stroke: #ffffff; stroke-width: 0.48"/>
     <use xlink:href="#mf88e925179" x="282.99348" y="265.9309" style="fill: #800080; stroke: #ffffff; stroke-width: 0.48"/>
     <use xlink:href="#mf88e925179" x="286.628007" y="264.977522" style="fill: #800080; stroke: #ffffff; stroke-width: 0.48"/>
     <use xlink:href="#mf88e925179" x="290.262534" y="264.44596" style="fill: #800080; stroke: #ffffff; stroke-width: 0.48"/>
     <use xlink:href="#mf88e925179" x="293.897062" y="263.887045" style="fill: #800080; stroke: #ffffff; stroke-width: 0.48"/>
     <use xlink:href="#mf88e925179" x="297.531589" y="262.801339" style="fill: #800080; stroke: #ffffff; stroke-width: 0.48"/>
     <use xlink:href="#mf88e925179" x="301.166116" y="261.915439" style="fill: #800080; stroke: #ffffff; stroke-width: 0.48"/>
     <use xlink:href="#mf88e925179" x="304.800643" y="261.382203" style="fill: #800080; stroke: #ffffff; stroke-width: 0.48"/>
     <use xlink:href="#mf88e925179" x="308.43517" y="260.619097" style="fill: #800080; stroke: #ffffff; stroke-width: 0.48"/>
     <use xlink:href="#mf88e925179" x="312.069697" y="259.67249" style="fill: #800080; stroke: #ffffff; stroke-width: 0.48"/>
     <use xlink:href="#mf88e925179" x="315.704224" y="258.629288" style="fill: #800080; stroke: #ffffff; stroke-width: 0.48"/>
     <use xlink:href="#mf88e925179" x="319.338751" y="257.556683" style="fill: #800080; stroke: #ffffff; stroke-width: 0.48"/>
     <use xlink:href="#mf88e925179" x="322.973278" y="256.886716" style="fill: #800080; stroke: #ffffff; stroke-width: 0.48"/>
     <use xlink:href="#mf88e925179" x="326.607805" y="255.478515" style="fill: #800080; stroke: #ffffff; stroke-width: 0.48"/>
     <use xlink:href="#mf88e925179" x="330.242332" y="254.747318" style="fill: #800080; stroke: #ffffff; stroke-width: 0.48"/>
     <use xlink:href="#mf88e925179" x="333.87686" y="253.721908" style="fill: #800080; stroke: #ffffff; stroke-width: 0.48"/>
     <use xlink:href="#mf88e925179" x="337.511387" y="252.939917" style="fill: #800080; stroke: #ffffff; stroke-width: 0.48"/>
     <use xlink:href="#mf88e925179" x="341.145914" y="250.915923" style="fill: #800080; stroke: #ffffff; stroke-width: 0.48"/>
     <use xlink:href="#mf88e925179" x="344.780441" y="249.958197" style="fill: #800080; stroke: #ffffff; stroke-width: 0.48"/>
     <use xlink:href="#mf88e925179" x="348.414968" y="248.805741" style="fill: #800080; stroke: #ffffff; stroke-width: 0.48"/>
     <use xlink:href="#mf88e925179" x="352.049495" y="247.668913" style="fill: #800080; stroke: #ffffff; stroke-width: 0.48"/>
     <use xlink:href="#mf88e925179" x="355.684022" y="245.811737" style="fill: #800080; stroke: #ffffff; stroke-width: 0.48"/>
     <use xlink:href="#mf88e925179" x="359.318549" y="244.688443" style="fill: #800080; stroke: #ffffff; stroke-width: 0.48"/>
     <use xlink:href="#mf88e925179" x="362.953076" y="242.718642" style="fill: #800080; stroke: #ffffff; stroke-width: 0.48"/>
     <use xlink:href="#mf88e925179" x="366.587603" y="240.502664" style="fill: #800080; stroke: #ffffff; stroke-width: 0.48"/>
     <use xlink:href="#mf88e925179" x="370.22213" y="238.337689" style="fill: #800080; stroke: #ffffff; stroke-width: 0.48"/>
     <use xlink:href="#mf88e925179" x="373.856657" y="236.286508" style="fill: #800080; stroke: #ffffff; stroke-width: 0.48"/>
     <use xlink:href="#mf88e925179" x="377.491185" y="234.250103" style="fill: #800080; stroke: #ffffff; stroke-width: 0.48"/>
     <use xlink:href="#mf88e925179" x="381.125712" y="232.134805" style="fill: #800080; stroke: #ffffff; stroke-width: 0.48"/>
     <use xlink:href="#mf88e925179" x="384.760239" y="228.974647" style="fill: #800080; stroke: #ffffff; stroke-width: 0.48"/>
     <use xlink:href="#mf88e925179" x="388.394766" y="226.145229" style="fill: #800080; stroke: #ffffff; stroke-width: 0.48"/>
     <use xlink:href="#mf88e925179" x="392.029293" y="222.634273" style="fill: #800080; stroke: #ffffff; stroke-width: 0.48"/>
     <use xlink:href="#mf88e925179" x="395.66382" y="218.339184" style="fill: #800080; stroke: #ffffff; stroke-width: 0.48"/>
     <use xlink:href="#mf88e925179" x="399.298347" y="213.998677" style="fill: #800080; stroke: #ffffff; stroke-width: 0.48"/>
     <use xlink:href="#mf88e925179" x="402.932874" y="209.546574" style="fill: #800080; stroke: #ffffff; stroke-width: 0.48"/>
     <use xlink:href="#mf88e925179" x="406.567401" y="203.626024" style="fill: #800080; stroke: #ffffff; stroke-width: 0.48"/>
     <use xlink:href="#mf88e925179" x="410.201928" y="196.83897" style="fill: #800080; stroke: #ffffff; stroke-width: 0.48"/>
     <use xlink:href="#mf88e925179" x="413.836455" y="187.310574" style="fill: #800080; stroke: #ffffff; stroke-width: 0.48"/>
     <use xlink:href="#mf88e925179" x="417.470983" y="175.664683" style="fill: #800080; stroke: #ffffff; stroke-width: 0.48"/>
     <use xlink:href="#mf88e925179" x="421.10551" y="160.097196" style="fill: #800080; stroke: #ffffff; stroke-width: 0.48"/>
     <use xlink:href="#mf88e925179" x="424.740037" y="138.03973" style="fill: #800080; stroke: #ffffff; stroke-width: 0.48"/>
     <use xlink:href="#mf88e925179" x="428.374564" y="104.635566" style="fill: #800080; stroke: #ffffff; stroke-width: 0.48"/>
     <use xlink:href="#mf88e925179" x="432.009091" y="38.134545" style="fill: #800080; stroke: #ffffff; stroke-width: 0.48"/>
    </g>
   </g>
   <g id="patch_3">
    <path d="M 54.2 303.53875 
L 54.2 25.49625 
" style="fill: none; stroke: #ffffff; stroke-width: 0.8; stroke-linejoin: miter; stroke-linecap: square"/>
   </g>
   <g id="patch_4">
    <path d="M 450 303.53875 
L 450 25.49625 
" style="fill: none; stroke: #ffffff; stroke-width: 0.8; stroke-linejoin: miter; stroke-linecap: square"/>
   </g>
   <g id="patch_5">
    <path d="M 54.2 303.53875 
L 450 303.53875 
" style="fill: none; stroke: #ffffff; stroke-width: 0.8; stroke-linejoin: miter; stroke-linecap: square"/>
   </g>
   <g id="patch_6">
    <path d="M 54.2 25.49625 
L 450 25.49625 
" style="fill: none; stroke: #ffffff; stroke-width: 0.8; stroke-linejoin: miter; stroke-linecap: square"/>
   </g>
   <g id="text_17">
    <!-- p_deterministic vs σ -->
    <g style="fill: #262626" transform="translate(198.715 19.49625) scale(0.12 -0.12)">
     <defs>
      <path id="ArialMT-20" transform="scale(0.015625)"/>
      <path id="ArialMT-76" d="M 1344 0 
L 81 3319 
L 675 3319 
L 1388 1331 
Q 1503 1009 1600 663 
Q 1675 925 1809 1294 
L 2547 3319 
L 3125 3319 
L 1869 0 
L 1344 0 
z
" transform="scale(0.015625)"/>
     </defs>
     <use xlink:href="#ArialMT-70"/>
     <use xlink:href="#ArialMT-5f" transform="translate(55.615234 0)"/>
     <use xlink:href="#ArialMT-64" transform="translate(111.230469 0)"/>
     <use xlink:href="#ArialMT-65" transform="translate(166.845703 0)"/>
     <use xlink:href="#ArialMT-74" transform="translate(222.460938 0)"/>
     <use xlink:href="#ArialMT-65" transform="translate(250.244141 0)"/>
     <use xlink:href="#ArialMT-72" transform="translate(305.859375 0)"/>
     <use xlink:href="#ArialMT-6d" transform="translate(339.160156 0)"/>
     <use xlink:href="#ArialMT-69" transform="translate(422.460938 0)"/>
     <use xlink:href="#ArialMT-6e" transform="translate(444.677734 0)"/>
     <use xlink:href="#ArialMT-69" transform="translate(500.292969 0)"/>
     <use xlink:href="#ArialMT-73" transform="translate(522.509766 0)"/>
     <use xlink:href="#ArialMT-74" transform="translate(572.509766 0)"/>
     <use xlink:href="#ArialMT-69" transform="translate(600.292969 0)"/>
     <use xlink:href="#ArialMT-63" transform="translate(622.509766 0)"/>
     <use xlink:href="#ArialMT-20" transform="translate(672.509766 0)"/>
     <use xlink:href="#ArialMT-76" transform="translate(700.292969 0)"/>
     <use xlink:href="#ArialMT-73" transform="translate(750.292969 0)"/>
     <use xlink:href="#ArialMT-20" transform="translate(800.292969 0)"/>
     <use xlink:href="#ArialMT-3c3" transform="translate(828.076172 0)"/>
    </g>
   </g>
  </g>
 </g>
 <defs>
  <clipPath id="p22c1f4850c">
   <rect x="54.2" y="25.49625" width="395.8" height="278.0425"/>
  </clipPath>
 </defs>
</svg>
